<?xml version="1.0" encoding="utf-8" standalone="no"?>
<!DOCTYPE svg PUBLIC "-//W3C//DTD SVG 1.1//EN"
  "http://www.w3.org/Graphics/SVG/1.1/DTD/svg11.dtd">
<!-- Created with matplotlib (https://matplotlib.org/) -->
<svg height="325.986375pt" version="1.1" viewBox="0 0 874.219687 325.986375" width="874.219687pt" xmlns="http://www.w3.org/2000/svg" xmlns:xlink="http://www.w3.org/1999/xlink">
 <metadata>
  <rdf:RDF xmlns:cc="http://creativecommons.org/ns#" xmlns:dc="http://purl.org/dc/elements/1.1/" xmlns:rdf="http://www.w3.org/1999/02/22-rdf-syntax-ns#">
   <cc:Work>
    <dc:type rdf:resource="http://purl.org/dc/dcmitype/StillImage"/>
    <dc:date>2021-03-19T22:38:55.061854</dc:date>
    <dc:format>image/svg+xml</dc:format>
    <dc:creator>
     <cc:Agent>
      <dc:title>Matplotlib v3.3.3, https://matplotlib.org/</dc:title>
     </cc:Agent>
    </dc:creator>
   </cc:Work>
  </rdf:RDF>
 </metadata>
 <defs>
  <style type="text/css">*{stroke-linecap:butt;stroke-linejoin:round;}</style>
 </defs>
 <g id="figure_1">
  <g id="patch_1">
   <path d="M 0 325.986375 
L 874.219687 325.986375 
L 874.219687 0 
L 0 0 
z
" style="fill:#ffffff;"/>
  </g>
  <g id="axes_1">
   <g id="patch_2">
    <path d="M 59.690625 288.430125 
L 773.930625 288.430125 
L 773.930625 22.318125 
L 59.690625 22.318125 
z
" style="fill:#ffffff;"/>
   </g>
   <g id="PolyCollection_1">
    <defs>
     <path d="M 92.15608 -118.206986 
L 92.15608 -74.617216 
L 99.291344 -147.929374 
L 106.426609 -169.185943 
L 113.561874 -177.743783 
L 120.697138 -184.921326 
L 127.832403 -189.338275 
L 134.967668 -197.896115 
L 142.102933 -201.024787 
L 149.238197 -210.042725 
L 156.373462 -211.238983 
L 163.508727 -216.66815 
L 170.643992 -217.772387 
L 177.779256 -220.348941 
L 184.914521 -221.361158 
L 192.049786 -222.005297 
L 199.185051 -224.305791 
L 206.320315 -226.698306 
L 213.45558 -231.575354 
L 220.590845 -234.519987 
L 227.72611 -237.28058 
L 234.861374 -237.821196 
L 241.996639 -238.476837 
L 249.131904 -239.397035 
L 256.267168 -243.169846 
L 263.402433 -247.862855 
L 270.537698 -248.322954 
L 277.672963 -248.967092 
L 284.808227 -249.059112 
L 291.943492 -251.359606 
L 299.078757 -250.255369 
L 306.214022 -250.807488 
L 313.349286 -253.107982 
L 320.484551 -253.292022 
L 327.619816 -253.269017 
L 334.755081 -256.512714 
L 341.890345 -256.604734 
L 349.02561 -257.616951 
L 356.160875 -261.665822 
L 363.296139 -262.213339 
L 370.431404 -262.21794 
L 377.566669 -262.21794 
L 384.701934 -262.21794 
L 391.837198 -262.678039 
L 398.972463 -264.334395 
L 406.107728 -264.702474 
L 413.242993 -266.151786 
L 420.378257 -266.45085 
L 427.513522 -266.63489 
L 434.648787 -266.63489 
L 441.784052 -267.371048 
L 448.919316 -267.831147 
L 456.054581 -267.831147 
L 463.189846 -268.015186 
L 470.325111 -269.027404 
L 477.460375 -269.395483 
L 484.59564 -269.395483 
L 491.730905 -270.959819 
L 498.866169 -271.327899 
L 506.001434 -271.695978 
L 513.136699 -271.643066 
L 520.271964 -271.695978 
L 527.407228 -273.260314 
L 534.542493 -273.352334 
L 541.677758 -273.352334 
L 548.813023 -274.640611 
L 555.948287 -274.640611 
L 563.083552 -274.82465 
L 570.218817 -274.82465 
L 577.354082 -274.82465 
L 584.489346 -274.91667 
L 591.624611 -274.91667 
L 598.759876 -275.284749 
L 605.89514 -275.284749 
L 613.030405 -275.284749 
L 620.16567 -276.020907 
L 627.300935 -276.020907 
L 634.436199 -276.020907 
L 641.571464 -276.020907 
L 648.706729 -276.020907 
L 655.841994 -275.928888 
L 662.977258 -276.757066 
L 670.112523 -276.941105 
L 677.247788 -277.493224 
L 684.383053 -278.781501 
L 691.518317 -278.781501 
L 698.653582 -278.781501 
L 705.788847 -278.781501 
L 712.924112 -280.161797 
L 720.059376 -279.517659 
L 727.194641 -280.621896 
L 734.329906 -279.517659 
L 741.46517 -280.621896 
L 741.46517 -289.915894 
L 741.46517 -289.915894 
L 734.329906 -288.995696 
L 727.194641 -288.903676 
L 720.059376 -288.903676 
L 712.924112 -288.903676 
L 705.788847 -288.811657 
L 698.653582 -288.627617 
L 691.518317 -288.627617 
L 684.383053 -288.259538 
L 677.247788 -287.99038 
L 670.112523 -287.983479 
L 662.977258 -287.615399 
L 655.841994 -287.615399 
L 648.706729 -287.615399 
L 641.571464 -287.52338 
L 634.436199 -287.52338 
L 627.300935 -286.513463 
L 620.16567 -286.327123 
L 613.030405 -286.327123 
L 605.89514 -286.327123 
L 598.759876 -284.951427 
L 591.624611 -284.946826 
L 584.489346 -284.854806 
L 577.354082 -285.043447 
L 570.218817 -284.762786 
L 563.083552 -284.762786 
L 555.948287 -284.578747 
L 548.813023 -284.578747 
L 541.677758 -284.394707 
L 534.542493 -283.750569 
L 527.407228 -283.750569 
L 520.271964 -283.57113 
L 513.136699 -283.750569 
L 506.001434 -283.57113 
L 498.866169 -283.750569 
L 491.730905 -283.566529 
L 484.59564 -283.566529 
L 477.460375 -282.370272 
L 470.325111 -281.726134 
L 463.189846 -281.592705 
L 456.054581 -281.266035 
L 448.919316 -279.885738 
L 441.784052 -277.769283 
L 434.648787 -276.481006 
L 427.513522 -276.481006 
L 420.378257 -276.941105 
L 413.242993 -276.296967 
L 406.107728 -276.112927 
L 398.972463 -275.560808 
L 391.837198 -275.560808 
L 384.701934 -275.471089 
L 377.566669 -274.640611 
L 370.431404 -274.272531 
L 363.296139 -271.419918 
L 356.160875 -268.015186 
L 349.02561 -267.923167 
L 341.890345 -267.187008 
L 334.755081 -267.187008 
L 327.619816 -266.63489 
L 320.484551 -265.162573 
L 313.349286 -263.690257 
L 306.214022 -263.138138 
L 299.078757 -259.089268 
L 291.943492 -257.616951 
L 284.808227 -257.064833 
L 277.672963 -256.972813 
L 270.537698 -256.328674 
L 263.402433 -255.040398 
L 256.267168 -254.672318 
L 249.131904 -253.93616 
L 241.996639 -253.200002 
L 234.861374 -253.292022 
L 227.72611 -251.451626 
L 220.590845 -248.414973 
L 213.45558 -247.954875 
L 206.320315 -246.574578 
L 199.185051 -245.309306 
L 192.049786 -242.916792 
L 184.914521 -240.869352 
L 177.779256 -238.108758 
L 170.643992 -233.599789 
L 163.508727 -230.931215 
L 156.373462 -227.641508 
L 149.238197 -226.790325 
L 142.102933 -225.686088 
L 134.967668 -223.385593 
L 127.832403 -218.048446 
L 120.697138 -211.054943 
L 113.561874 -205.625776 
L 106.426609 -196.883897 
L 99.291344 -178.765202 
L 92.15608 -118.206986 
z
" id="me778517ff4" style="stroke:#98df8a;stroke-opacity:0.2;"/>
    </defs>
    <g clip-path="url(#p0754e6e297)">
     <use style="fill:#98df8a;fill-opacity:0.2;stroke:#98df8a;stroke-opacity:0.2;" x="0" xlink:href="#me778517ff4" y="325.986375"/>
    </g>
   </g>
   <g id="PolyCollection_2">
    <defs>
     <path d="M 92.15608 -127.500983 
L 92.15608 -49.65225 
L 99.291344 -104.588058 
L 106.426609 -163.112638 
L 113.561874 -181.884673 
L 120.697138 -193.187002 
L 127.832403 -199.184391 
L 134.967668 -204.613558 
L 142.102933 -211.146963 
L 149.238197 -213.698211 
L 156.373462 -220.256921 
L 163.508727 -223.201554 
L 170.643992 -223.801983 
L 177.779256 -228.538701 
L 184.914521 -236.452402 
L 192.049786 -236.452402 
L 199.185051 -237.004521 
L 206.320315 -241.28114 
L 213.45558 -242.893787 
L 220.590845 -242.893787 
L 227.72611 -244.090044 
L 234.861374 -245.010242 
L 241.996639 -246.022459 
L 249.131904 -248.230934 
L 256.267168 -248.599013 
L 263.402433 -250.715468 
L 270.537698 -252.003745 
L 277.672963 -252.739903 
L 284.808227 -252.923943 
L 291.943492 -253.660101 
L 299.078757 -254.154707 
L 306.214022 -256.880793 
L 313.349286 -257.156853 
L 320.484551 -256.328674 
L 327.619816 -257.800991 
L 334.755081 -258.16907 
L 341.890345 -258.26109 
L 349.02561 -258.445129 
L 356.160875 -259.641387 
L 363.296139 -259.641387 
L 370.431404 -260.653604 
L 377.566669 -259.733406 
L 384.701934 -260.653604 
L 391.837198 -261.297743 
L 398.972463 -261.665822 
L 406.107728 -262.770059 
L 413.242993 -263.506217 
L 420.378257 -263.598237 
L 427.513522 -263.598237 
L 434.648787 -265.806712 
L 441.784052 -266.63489 
L 448.919316 -270.223661 
L 456.054581 -270.315681 
L 463.189846 -270.59174 
L 470.325111 -270.59174 
L 477.460375 -270.59174 
L 484.59564 -270.499721 
L 491.730905 -271.511938 
L 498.866169 -271.511938 
L 506.001434 -270.68376 
L 513.136699 -271.695978 
L 520.271964 -271.787997 
L 527.407228 -272.800215 
L 534.542493 -272.800215 
L 541.677758 -273.899851 
L 548.813023 -272.708195 
L 555.948287 -275.284749 
L 563.083552 -275.468789 
L 570.218817 -275.468789 
L 577.354082 -275.652828 
L 584.489346 -276.112927 
L 591.624611 -276.112927 
L 598.759876 -276.573026 
L 605.89514 -276.941105 
L 613.030405 -276.941105 
L 620.16567 -276.941105 
L 627.300935 -276.941105 
L 634.436199 -276.941105 
L 641.571464 -277.677263 
L 648.706729 -277.677263 
L 655.841994 -277.677263 
L 662.977258 -280.897956 
L 670.112523 -281.266035 
L 677.247788 -284.118648 
L 684.383053 -284.394707 
L 691.518317 -284.394707 
L 698.653582 -284.394707 
L 705.788847 -284.394707 
L 712.924112 -284.394707 
L 720.059376 -284.394707 
L 727.194641 -284.302687 
L 734.329906 -284.394707 
L 741.46517 -285.020442 
L 741.46517 -291.57225 
L 741.46517 -291.57225 
L 734.329906 -291.57225 
L 727.194641 -291.38821 
L 720.059376 -291.020131 
L 712.924112 -291.112151 
L 705.788847 -291.020131 
L 698.653582 -290.375993 
L 691.518317 -290.099934 
L 684.383053 -290.007914 
L 677.247788 -290.007914 
L 670.112523 -289.823874 
L 662.977258 -289.179736 
L 655.841994 -288.167518 
L 648.706729 -286.511162 
L 641.571464 -286.327123 
L 634.436199 -286.327123 
L 627.300935 -286.235103 
L 620.16567 -286.235103 
L 613.030405 -285.775004 
L 605.89514 -285.775004 
L 598.759876 -284.670767 
L 591.624611 -284.118648 
L 584.489346 -283.750569 
L 577.354082 -283.474509 
L 570.218817 -282.370272 
L 563.083552 -279.98926 
L 555.948287 -279.517659 
L 548.813023 -279.14958 
L 541.677758 -278.229382 
L 534.542493 -277.861303 
L 527.407228 -277.861303 
L 520.271964 -277.865904 
L 513.136699 -277.861303 
L 506.001434 -277.861303 
L 498.866169 -277.769283 
L 491.730905 -277.125145 
L 484.59564 -276.757066 
L 477.460375 -275.836868 
L 470.325111 -275.836868 
L 463.189846 -276.020907 
L 456.054581 -275.744848 
L 448.919316 -274.73263 
L 441.784052 -274.640611 
L 434.648787 -274.73263 
L 427.513522 -274.640611 
L 420.378257 -274.364551 
L 413.242993 -272.745003 
L 406.107728 -272.434436 
L 398.972463 -272.432136 
L 391.837198 -271.603958 
L 384.701934 -271.419918 
L 377.566669 -271.419918 
L 370.431404 -271.603958 
L 363.296139 -270.131641 
L 356.160875 -270.499721 
L 349.02561 -270.407701 
L 341.890345 -270.239765 
L 334.755081 -269.947602 
L 327.619816 -266.72691 
L 320.484551 -267.656309 
L 313.349286 -266.35883 
L 306.214022 -266.082771 
L 299.078757 -266.082771 
L 291.943492 -266.082771 
L 284.808227 -265.990751 
L 277.672963 -264.242376 
L 270.537698 -262.40198 
L 263.402433 -259.457347 
L 256.267168 -258.905228 
L 249.131904 -257.800991 
L 241.996639 -255.960595 
L 234.861374 -254.304239 
L 227.72611 -253.93616 
L 220.590845 -252.739903 
L 213.45558 -250.623448 
L 206.320315 -250.439409 
L 199.185051 -247.773136 
L 192.049786 -246.666598 
L 184.914521 -245.470341 
L 177.779256 -244.458123 
L 170.643992 -243.813984 
L 163.508727 -241.51349 
L 156.373462 -238.384818 
L 149.238197 -235.072105 
L 142.102933 -234.612007 
L 134.967668 -229.274859 
L 127.832403 -222.833475 
L 120.697138 -217.404308 
L 113.561874 -206.269915 
L 106.426609 -192.190888 
L 99.291344 -168.357765 
L 92.15608 -127.500983 
z
" id="m012d14aef0" style="stroke:#1f77b4;stroke-opacity:0.2;"/>
    </defs>
    <g clip-path="url(#p0754e6e297)">
     <use style="fill:#1f77b4;fill-opacity:0.2;stroke:#1f77b4;stroke-opacity:0.2;" x="0" xlink:href="#m012d14aef0" y="325.986375"/>
    </g>
   </g>
   <g id="matplotlib.axis_1">
    <g id="xtick_1">
     <g id="line2d_1">
      <defs>
       <path d="M 0 0 
L 0 3.5 
" id="m7173ff2b19" style="stroke:#000000;stroke-width:0.8;"/>
      </defs>
      <g>
       <use style="stroke:#000000;stroke-width:0.8;" x="92.15608" xlink:href="#m7173ff2b19" y="288.430125"/>
      </g>
     </g>
     <g id="text_1">
      <!-- 15m -->
      <g transform="translate(80.923267 303.028562)scale(0.1 -0.1)">
       <defs>
        <path d="M 12.40625 8.296875 
L 28.515625 8.296875 
L 28.515625 63.921875 
L 10.984375 60.40625 
L 10.984375 69.390625 
L 28.421875 72.90625 
L 38.28125 72.90625 
L 38.28125 8.296875 
L 54.390625 8.296875 
L 54.390625 0 
L 12.40625 0 
z
" id="DejaVuSans-49"/>
        <path d="M 10.796875 72.90625 
L 49.515625 72.90625 
L 49.515625 64.59375 
L 19.828125 64.59375 
L 19.828125 46.734375 
Q 21.96875 47.46875 24.109375 47.828125 
Q 26.265625 48.1875 28.421875 48.1875 
Q 40.625 48.1875 47.75 41.5 
Q 54.890625 34.8125 54.890625 23.390625 
Q 54.890625 11.625 47.5625 5.09375 
Q 40.234375 -1.421875 26.90625 -1.421875 
Q 22.3125 -1.421875 17.546875 -0.640625 
Q 12.796875 0.140625 7.71875 1.703125 
L 7.71875 11.625 
Q 12.109375 9.234375 16.796875 8.0625 
Q 21.484375 6.890625 26.703125 6.890625 
Q 35.15625 6.890625 40.078125 11.328125 
Q 45.015625 15.765625 45.015625 23.390625 
Q 45.015625 31 40.078125 35.4375 
Q 35.15625 39.890625 26.703125 39.890625 
Q 22.75 39.890625 18.8125 39.015625 
Q 14.890625 38.140625 10.796875 36.28125 
z
" id="DejaVuSans-53"/>
        <path d="M 52 44.1875 
Q 55.375 50.25 60.0625 53.125 
Q 64.75 56 71.09375 56 
Q 79.640625 56 84.28125 50.015625 
Q 88.921875 44.046875 88.921875 33.015625 
L 88.921875 0 
L 79.890625 0 
L 79.890625 32.71875 
Q 79.890625 40.578125 77.09375 44.375 
Q 74.3125 48.1875 68.609375 48.1875 
Q 61.625 48.1875 57.5625 43.546875 
Q 53.515625 38.921875 53.515625 30.90625 
L 53.515625 0 
L 44.484375 0 
L 44.484375 32.71875 
Q 44.484375 40.625 41.703125 44.40625 
Q 38.921875 48.1875 33.109375 48.1875 
Q 26.21875 48.1875 22.15625 43.53125 
Q 18.109375 38.875 18.109375 30.90625 
L 18.109375 0 
L 9.078125 0 
L 9.078125 54.6875 
L 18.109375 54.6875 
L 18.109375 46.1875 
Q 21.1875 51.21875 25.484375 53.609375 
Q 29.78125 56 35.6875 56 
Q 41.65625 56 45.828125 52.96875 
Q 50 49.953125 52 44.1875 
z
" id="DejaVuSans-109"/>
       </defs>
       <use xlink:href="#DejaVuSans-49"/>
       <use x="63.623047" xlink:href="#DejaVuSans-53"/>
       <use x="127.246094" xlink:href="#DejaVuSans-109"/>
      </g>
     </g>
    </g>
    <g id="xtick_2">
     <g id="line2d_2">
      <g>
       <use style="stroke:#000000;stroke-width:0.8;" x="146.859776" xlink:href="#m7173ff2b19" y="288.430125"/>
      </g>
     </g>
     <g id="text_2">
      <!-- 2h:10m -->
      <g transform="translate(127.592588 303.028562)scale(0.1 -0.1)">
       <defs>
        <path d="M 19.1875 8.296875 
L 53.609375 8.296875 
L 53.609375 0 
L 7.328125 0 
L 7.328125 8.296875 
Q 12.9375 14.109375 22.625 23.890625 
Q 32.328125 33.6875 34.8125 36.53125 
Q 39.546875 41.84375 41.421875 45.53125 
Q 43.3125 49.21875 43.3125 52.78125 
Q 43.3125 58.59375 39.234375 62.25 
Q 35.15625 65.921875 28.609375 65.921875 
Q 23.96875 65.921875 18.8125 64.3125 
Q 13.671875 62.703125 7.8125 59.421875 
L 7.8125 69.390625 
Q 13.765625 71.78125 18.9375 73 
Q 24.125 74.21875 28.421875 74.21875 
Q 39.75 74.21875 46.484375 68.546875 
Q 53.21875 62.890625 53.21875 53.421875 
Q 53.21875 48.921875 51.53125 44.890625 
Q 49.859375 40.875 45.40625 35.40625 
Q 44.1875 33.984375 37.640625 27.21875 
Q 31.109375 20.453125 19.1875 8.296875 
z
" id="DejaVuSans-50"/>
        <path d="M 54.890625 33.015625 
L 54.890625 0 
L 45.90625 0 
L 45.90625 32.71875 
Q 45.90625 40.484375 42.875 44.328125 
Q 39.84375 48.1875 33.796875 48.1875 
Q 26.515625 48.1875 22.3125 43.546875 
Q 18.109375 38.921875 18.109375 30.90625 
L 18.109375 0 
L 9.078125 0 
L 9.078125 75.984375 
L 18.109375 75.984375 
L 18.109375 46.1875 
Q 21.34375 51.125 25.703125 53.5625 
Q 30.078125 56 35.796875 56 
Q 45.21875 56 50.046875 50.171875 
Q 54.890625 44.34375 54.890625 33.015625 
z
" id="DejaVuSans-104"/>
        <path d="M 11.71875 12.40625 
L 22.015625 12.40625 
L 22.015625 0 
L 11.71875 0 
z
M 11.71875 51.703125 
L 22.015625 51.703125 
L 22.015625 39.3125 
L 11.71875 39.3125 
z
" id="DejaVuSans-58"/>
        <path d="M 31.78125 66.40625 
Q 24.171875 66.40625 20.328125 58.90625 
Q 16.5 51.421875 16.5 36.375 
Q 16.5 21.390625 20.328125 13.890625 
Q 24.171875 6.390625 31.78125 6.390625 
Q 39.453125 6.390625 43.28125 13.890625 
Q 47.125 21.390625 47.125 36.375 
Q 47.125 51.421875 43.28125 58.90625 
Q 39.453125 66.40625 31.78125 66.40625 
z
M 31.78125 74.21875 
Q 44.046875 74.21875 50.515625 64.515625 
Q 56.984375 54.828125 56.984375 36.375 
Q 56.984375 17.96875 50.515625 8.265625 
Q 44.046875 -1.421875 31.78125 -1.421875 
Q 19.53125 -1.421875 13.0625 8.265625 
Q 6.59375 17.96875 6.59375 36.375 
Q 6.59375 54.828125 13.0625 64.515625 
Q 19.53125 74.21875 31.78125 74.21875 
z
" id="DejaVuSans-48"/>
       </defs>
       <use xlink:href="#DejaVuSans-50"/>
       <use x="63.623047" xlink:href="#DejaVuSans-104"/>
       <use x="127.001953" xlink:href="#DejaVuSans-58"/>
       <use x="160.693359" xlink:href="#DejaVuSans-49"/>
       <use x="224.316406" xlink:href="#DejaVuSans-48"/>
       <use x="287.939453" xlink:href="#DejaVuSans-109"/>
      </g>
     </g>
    </g>
    <g id="xtick_3">
     <g id="line2d_3">
      <g>
       <use style="stroke:#000000;stroke-width:0.8;" x="201.563472" xlink:href="#m7173ff2b19" y="288.430125"/>
      </g>
     </g>
     <g id="text_3">
      <!-- 4h:5m -->
      <g transform="translate(185.477535 303.028562)scale(0.1 -0.1)">
       <defs>
        <path d="M 37.796875 64.3125 
L 12.890625 25.390625 
L 37.796875 25.390625 
z
M 35.203125 72.90625 
L 47.609375 72.90625 
L 47.609375 25.390625 
L 58.015625 25.390625 
L 58.015625 17.1875 
L 47.609375 17.1875 
L 47.609375 0 
L 37.796875 0 
L 37.796875 17.1875 
L 4.890625 17.1875 
L 4.890625 26.703125 
z
" id="DejaVuSans-52"/>
       </defs>
       <use xlink:href="#DejaVuSans-52"/>
       <use x="63.623047" xlink:href="#DejaVuSans-104"/>
       <use x="127.001953" xlink:href="#DejaVuSans-58"/>
       <use x="160.693359" xlink:href="#DejaVuSans-53"/>
       <use x="224.316406" xlink:href="#DejaVuSans-109"/>
      </g>
     </g>
    </g>
    <g id="xtick_4">
     <g id="line2d_4">
      <g>
       <use style="stroke:#000000;stroke-width:0.8;" x="256.267168" xlink:href="#m7173ff2b19" y="288.430125"/>
      </g>
     </g>
     <g id="text_4">
      <!-- 6h -->
      <g transform="translate(249.917168 303.028562)scale(0.1 -0.1)">
       <defs>
        <path d="M 33.015625 40.375 
Q 26.375 40.375 22.484375 35.828125 
Q 18.609375 31.296875 18.609375 23.390625 
Q 18.609375 15.53125 22.484375 10.953125 
Q 26.375 6.390625 33.015625 6.390625 
Q 39.65625 6.390625 43.53125 10.953125 
Q 47.40625 15.53125 47.40625 23.390625 
Q 47.40625 31.296875 43.53125 35.828125 
Q 39.65625 40.375 33.015625 40.375 
z
M 52.59375 71.296875 
L 52.59375 62.3125 
Q 48.875 64.0625 45.09375 64.984375 
Q 41.3125 65.921875 37.59375 65.921875 
Q 27.828125 65.921875 22.671875 59.328125 
Q 17.53125 52.734375 16.796875 39.40625 
Q 19.671875 43.65625 24.015625 45.921875 
Q 28.375 48.1875 33.59375 48.1875 
Q 44.578125 48.1875 50.953125 41.515625 
Q 57.328125 34.859375 57.328125 23.390625 
Q 57.328125 12.15625 50.6875 5.359375 
Q 44.046875 -1.421875 33.015625 -1.421875 
Q 20.359375 -1.421875 13.671875 8.265625 
Q 6.984375 17.96875 6.984375 36.375 
Q 6.984375 53.65625 15.1875 63.9375 
Q 23.390625 74.21875 37.203125 74.21875 
Q 40.921875 74.21875 44.703125 73.484375 
Q 48.484375 72.75 52.59375 71.296875 
z
" id="DejaVuSans-54"/>
       </defs>
       <use xlink:href="#DejaVuSans-54"/>
       <use x="63.623047" xlink:href="#DejaVuSans-104"/>
      </g>
     </g>
    </g>
    <g id="xtick_5">
     <g id="line2d_5">
      <g>
       <use style="stroke:#000000;stroke-width:0.8;" x="310.970865" xlink:href="#m7173ff2b19" y="288.430125"/>
      </g>
     </g>
     <g id="text_5">
      <!-- 7h:55m -->
      <g transform="translate(291.703677 303.028562)scale(0.1 -0.1)">
       <defs>
        <path d="M 8.203125 72.90625 
L 55.078125 72.90625 
L 55.078125 68.703125 
L 28.609375 0 
L 18.3125 0 
L 43.21875 64.59375 
L 8.203125 64.59375 
z
" id="DejaVuSans-55"/>
       </defs>
       <use xlink:href="#DejaVuSans-55"/>
       <use x="63.623047" xlink:href="#DejaVuSans-104"/>
       <use x="127.001953" xlink:href="#DejaVuSans-58"/>
       <use x="160.693359" xlink:href="#DejaVuSans-53"/>
       <use x="224.316406" xlink:href="#DejaVuSans-53"/>
       <use x="287.939453" xlink:href="#DejaVuSans-109"/>
      </g>
     </g>
    </g>
    <g id="xtick_6">
     <g id="line2d_6">
      <g>
       <use style="stroke:#000000;stroke-width:0.8;" x="365.674561" xlink:href="#m7173ff2b19" y="288.430125"/>
      </g>
     </g>
     <g id="text_6">
      <!-- 9h:50m -->
      <g transform="translate(346.407374 303.028562)scale(0.1 -0.1)">
       <defs>
        <path d="M 10.984375 1.515625 
L 10.984375 10.5 
Q 14.703125 8.734375 18.5 7.8125 
Q 22.3125 6.890625 25.984375 6.890625 
Q 35.75 6.890625 40.890625 13.453125 
Q 46.046875 20.015625 46.78125 33.40625 
Q 43.953125 29.203125 39.59375 26.953125 
Q 35.25 24.703125 29.984375 24.703125 
Q 19.046875 24.703125 12.671875 31.3125 
Q 6.296875 37.9375 6.296875 49.421875 
Q 6.296875 60.640625 12.9375 67.421875 
Q 19.578125 74.21875 30.609375 74.21875 
Q 43.265625 74.21875 49.921875 64.515625 
Q 56.59375 54.828125 56.59375 36.375 
Q 56.59375 19.140625 48.40625 8.859375 
Q 40.234375 -1.421875 26.421875 -1.421875 
Q 22.703125 -1.421875 18.890625 -0.6875 
Q 15.09375 0.046875 10.984375 1.515625 
z
M 30.609375 32.421875 
Q 37.25 32.421875 41.125 36.953125 
Q 45.015625 41.5 45.015625 49.421875 
Q 45.015625 57.28125 41.125 61.84375 
Q 37.25 66.40625 30.609375 66.40625 
Q 23.96875 66.40625 20.09375 61.84375 
Q 16.21875 57.28125 16.21875 49.421875 
Q 16.21875 41.5 20.09375 36.953125 
Q 23.96875 32.421875 30.609375 32.421875 
z
" id="DejaVuSans-57"/>
       </defs>
       <use xlink:href="#DejaVuSans-57"/>
       <use x="63.623047" xlink:href="#DejaVuSans-104"/>
       <use x="127.001953" xlink:href="#DejaVuSans-58"/>
       <use x="160.693359" xlink:href="#DejaVuSans-53"/>
       <use x="224.316406" xlink:href="#DejaVuSans-48"/>
       <use x="287.939453" xlink:href="#DejaVuSans-109"/>
      </g>
     </g>
    </g>
    <g id="xtick_7">
     <g id="line2d_7">
      <g>
       <use style="stroke:#000000;stroke-width:0.8;" x="420.378257" xlink:href="#m7173ff2b19" y="288.430125"/>
      </g>
     </g>
     <g id="text_7">
      <!-- 11h:45m -->
      <g transform="translate(397.92982 303.028562)scale(0.1 -0.1)">
       <use xlink:href="#DejaVuSans-49"/>
       <use x="63.623047" xlink:href="#DejaVuSans-49"/>
       <use x="127.246094" xlink:href="#DejaVuSans-104"/>
       <use x="190.625" xlink:href="#DejaVuSans-58"/>
       <use x="224.316406" xlink:href="#DejaVuSans-52"/>
       <use x="287.939453" xlink:href="#DejaVuSans-53"/>
       <use x="351.5625" xlink:href="#DejaVuSans-109"/>
      </g>
     </g>
    </g>
    <g id="xtick_8">
     <g id="line2d_8">
      <g>
       <use style="stroke:#000000;stroke-width:0.8;" x="475.081954" xlink:href="#m7173ff2b19" y="288.430125"/>
      </g>
     </g>
     <g id="text_8">
      <!-- 13h:40m -->
      <g transform="translate(452.633516 303.028562)scale(0.1 -0.1)">
       <defs>
        <path d="M 40.578125 39.3125 
Q 47.65625 37.796875 51.625 33 
Q 55.609375 28.21875 55.609375 21.1875 
Q 55.609375 10.40625 48.1875 4.484375 
Q 40.765625 -1.421875 27.09375 -1.421875 
Q 22.515625 -1.421875 17.65625 -0.515625 
Q 12.796875 0.390625 7.625 2.203125 
L 7.625 11.71875 
Q 11.71875 9.328125 16.59375 8.109375 
Q 21.484375 6.890625 26.8125 6.890625 
Q 36.078125 6.890625 40.9375 10.546875 
Q 45.796875 14.203125 45.796875 21.1875 
Q 45.796875 27.640625 41.28125 31.265625 
Q 36.765625 34.90625 28.71875 34.90625 
L 20.21875 34.90625 
L 20.21875 43.015625 
L 29.109375 43.015625 
Q 36.375 43.015625 40.234375 45.921875 
Q 44.09375 48.828125 44.09375 54.296875 
Q 44.09375 59.90625 40.109375 62.90625 
Q 36.140625 65.921875 28.71875 65.921875 
Q 24.65625 65.921875 20.015625 65.03125 
Q 15.375 64.15625 9.8125 62.3125 
L 9.8125 71.09375 
Q 15.4375 72.65625 20.34375 73.4375 
Q 25.25 74.21875 29.59375 74.21875 
Q 40.828125 74.21875 47.359375 69.109375 
Q 53.90625 64.015625 53.90625 55.328125 
Q 53.90625 49.265625 50.4375 45.09375 
Q 46.96875 40.921875 40.578125 39.3125 
z
" id="DejaVuSans-51"/>
       </defs>
       <use xlink:href="#DejaVuSans-49"/>
       <use x="63.623047" xlink:href="#DejaVuSans-51"/>
       <use x="127.246094" xlink:href="#DejaVuSans-104"/>
       <use x="190.625" xlink:href="#DejaVuSans-58"/>
       <use x="224.316406" xlink:href="#DejaVuSans-52"/>
       <use x="287.939453" xlink:href="#DejaVuSans-48"/>
       <use x="351.5625" xlink:href="#DejaVuSans-109"/>
      </g>
     </g>
    </g>
    <g id="xtick_9">
     <g id="line2d_9">
      <g>
       <use style="stroke:#000000;stroke-width:0.8;" x="529.78565" xlink:href="#m7173ff2b19" y="288.430125"/>
      </g>
     </g>
     <g id="text_9">
      <!-- 15h:35m -->
      <g transform="translate(507.337212 303.028562)scale(0.1 -0.1)">
       <use xlink:href="#DejaVuSans-49"/>
       <use x="63.623047" xlink:href="#DejaVuSans-53"/>
       <use x="127.246094" xlink:href="#DejaVuSans-104"/>
       <use x="190.625" xlink:href="#DejaVuSans-58"/>
       <use x="224.316406" xlink:href="#DejaVuSans-51"/>
       <use x="287.939453" xlink:href="#DejaVuSans-53"/>
       <use x="351.5625" xlink:href="#DejaVuSans-109"/>
      </g>
     </g>
    </g>
    <g id="xtick_10">
     <g id="line2d_10">
      <g>
       <use style="stroke:#000000;stroke-width:0.8;" x="584.489346" xlink:href="#m7173ff2b19" y="288.430125"/>
      </g>
     </g>
     <g id="text_10">
      <!-- 17h:30m -->
      <g transform="translate(562.040909 303.028562)scale(0.1 -0.1)">
       <use xlink:href="#DejaVuSans-49"/>
       <use x="63.623047" xlink:href="#DejaVuSans-55"/>
       <use x="127.246094" xlink:href="#DejaVuSans-104"/>
       <use x="190.625" xlink:href="#DejaVuSans-58"/>
       <use x="224.316406" xlink:href="#DejaVuSans-51"/>
       <use x="287.939453" xlink:href="#DejaVuSans-48"/>
       <use x="351.5625" xlink:href="#DejaVuSans-109"/>
      </g>
     </g>
    </g>
    <g id="xtick_11">
     <g id="line2d_11">
      <g>
       <use style="stroke:#000000;stroke-width:0.8;" x="639.193043" xlink:href="#m7173ff2b19" y="288.430125"/>
      </g>
     </g>
     <g id="text_11">
      <!-- 19h:25m -->
      <g transform="translate(616.744605 303.028562)scale(0.1 -0.1)">
       <use xlink:href="#DejaVuSans-49"/>
       <use x="63.623047" xlink:href="#DejaVuSans-57"/>
       <use x="127.246094" xlink:href="#DejaVuSans-104"/>
       <use x="190.625" xlink:href="#DejaVuSans-58"/>
       <use x="224.316406" xlink:href="#DejaVuSans-50"/>
       <use x="287.939453" xlink:href="#DejaVuSans-53"/>
       <use x="351.5625" xlink:href="#DejaVuSans-109"/>
      </g>
     </g>
    </g>
    <g id="xtick_12">
     <g id="line2d_12">
      <g>
       <use style="stroke:#000000;stroke-width:0.8;" x="693.896739" xlink:href="#m7173ff2b19" y="288.430125"/>
      </g>
     </g>
     <g id="text_12">
      <!-- 21h:20m -->
      <g transform="translate(671.448301 303.028562)scale(0.1 -0.1)">
       <use xlink:href="#DejaVuSans-50"/>
       <use x="63.623047" xlink:href="#DejaVuSans-49"/>
       <use x="127.246094" xlink:href="#DejaVuSans-104"/>
       <use x="190.625" xlink:href="#DejaVuSans-58"/>
       <use x="224.316406" xlink:href="#DejaVuSans-50"/>
       <use x="287.939453" xlink:href="#DejaVuSans-48"/>
       <use x="351.5625" xlink:href="#DejaVuSans-109"/>
      </g>
     </g>
    </g>
    <g id="text_13">
     <!-- Time (hour:minute) -->
     <g transform="translate(368.403594 316.706687)scale(0.1 -0.1)">
      <defs>
       <path d="M -0.296875 72.90625 
L 61.375 72.90625 
L 61.375 64.59375 
L 35.5 64.59375 
L 35.5 0 
L 25.59375 0 
L 25.59375 64.59375 
L -0.296875 64.59375 
z
" id="DejaVuSans-84"/>
       <path d="M 9.421875 54.6875 
L 18.40625 54.6875 
L 18.40625 0 
L 9.421875 0 
z
M 9.421875 75.984375 
L 18.40625 75.984375 
L 18.40625 64.59375 
L 9.421875 64.59375 
z
" id="DejaVuSans-105"/>
       <path d="M 56.203125 29.59375 
L 56.203125 25.203125 
L 14.890625 25.203125 
Q 15.484375 15.921875 20.484375 11.0625 
Q 25.484375 6.203125 34.421875 6.203125 
Q 39.59375 6.203125 44.453125 7.46875 
Q 49.3125 8.734375 54.109375 11.28125 
L 54.109375 2.78125 
Q 49.265625 0.734375 44.1875 -0.34375 
Q 39.109375 -1.421875 33.890625 -1.421875 
Q 20.796875 -1.421875 13.15625 6.1875 
Q 5.515625 13.8125 5.515625 26.8125 
Q 5.515625 40.234375 12.765625 48.109375 
Q 20.015625 56 32.328125 56 
Q 43.359375 56 49.78125 48.890625 
Q 56.203125 41.796875 56.203125 29.59375 
z
M 47.21875 32.234375 
Q 47.125 39.59375 43.09375 43.984375 
Q 39.0625 48.390625 32.421875 48.390625 
Q 24.90625 48.390625 20.390625 44.140625 
Q 15.875 39.890625 15.1875 32.171875 
z
" id="DejaVuSans-101"/>
       <path id="DejaVuSans-32"/>
       <path d="M 31 75.875 
Q 24.46875 64.65625 21.28125 53.65625 
Q 18.109375 42.671875 18.109375 31.390625 
Q 18.109375 20.125 21.3125 9.0625 
Q 24.515625 -2 31 -13.1875 
L 23.1875 -13.1875 
Q 15.875 -1.703125 12.234375 9.375 
Q 8.59375 20.453125 8.59375 31.390625 
Q 8.59375 42.28125 12.203125 53.3125 
Q 15.828125 64.359375 23.1875 75.875 
z
" id="DejaVuSans-40"/>
       <path d="M 30.609375 48.390625 
Q 23.390625 48.390625 19.1875 42.75 
Q 14.984375 37.109375 14.984375 27.296875 
Q 14.984375 17.484375 19.15625 11.84375 
Q 23.34375 6.203125 30.609375 6.203125 
Q 37.796875 6.203125 41.984375 11.859375 
Q 46.1875 17.53125 46.1875 27.296875 
Q 46.1875 37.015625 41.984375 42.703125 
Q 37.796875 48.390625 30.609375 48.390625 
z
M 30.609375 56 
Q 42.328125 56 49.015625 48.375 
Q 55.71875 40.765625 55.71875 27.296875 
Q 55.71875 13.875 49.015625 6.21875 
Q 42.328125 -1.421875 30.609375 -1.421875 
Q 18.84375 -1.421875 12.171875 6.21875 
Q 5.515625 13.875 5.515625 27.296875 
Q 5.515625 40.765625 12.171875 48.375 
Q 18.84375 56 30.609375 56 
z
" id="DejaVuSans-111"/>
       <path d="M 8.5 21.578125 
L 8.5 54.6875 
L 17.484375 54.6875 
L 17.484375 21.921875 
Q 17.484375 14.15625 20.5 10.265625 
Q 23.53125 6.390625 29.59375 6.390625 
Q 36.859375 6.390625 41.078125 11.03125 
Q 45.3125 15.671875 45.3125 23.6875 
L 45.3125 54.6875 
L 54.296875 54.6875 
L 54.296875 0 
L 45.3125 0 
L 45.3125 8.40625 
Q 42.046875 3.421875 37.71875 1 
Q 33.40625 -1.421875 27.6875 -1.421875 
Q 18.265625 -1.421875 13.375 4.4375 
Q 8.5 10.296875 8.5 21.578125 
z
M 31.109375 56 
z
" id="DejaVuSans-117"/>
       <path d="M 41.109375 46.296875 
Q 39.59375 47.171875 37.8125 47.578125 
Q 36.03125 48 33.890625 48 
Q 26.265625 48 22.1875 43.046875 
Q 18.109375 38.09375 18.109375 28.8125 
L 18.109375 0 
L 9.078125 0 
L 9.078125 54.6875 
L 18.109375 54.6875 
L 18.109375 46.1875 
Q 20.953125 51.171875 25.484375 53.578125 
Q 30.03125 56 36.53125 56 
Q 37.453125 56 38.578125 55.875 
Q 39.703125 55.765625 41.0625 55.515625 
z
" id="DejaVuSans-114"/>
       <path d="M 54.890625 33.015625 
L 54.890625 0 
L 45.90625 0 
L 45.90625 32.71875 
Q 45.90625 40.484375 42.875 44.328125 
Q 39.84375 48.1875 33.796875 48.1875 
Q 26.515625 48.1875 22.3125 43.546875 
Q 18.109375 38.921875 18.109375 30.90625 
L 18.109375 0 
L 9.078125 0 
L 9.078125 54.6875 
L 18.109375 54.6875 
L 18.109375 46.1875 
Q 21.34375 51.125 25.703125 53.5625 
Q 30.078125 56 35.796875 56 
Q 45.21875 56 50.046875 50.171875 
Q 54.890625 44.34375 54.890625 33.015625 
z
" id="DejaVuSans-110"/>
       <path d="M 18.3125 70.21875 
L 18.3125 54.6875 
L 36.8125 54.6875 
L 36.8125 47.703125 
L 18.3125 47.703125 
L 18.3125 18.015625 
Q 18.3125 11.328125 20.140625 9.421875 
Q 21.96875 7.515625 27.59375 7.515625 
L 36.8125 7.515625 
L 36.8125 0 
L 27.59375 0 
Q 17.1875 0 13.234375 3.875 
Q 9.28125 7.765625 9.28125 18.015625 
L 9.28125 47.703125 
L 2.6875 47.703125 
L 2.6875 54.6875 
L 9.28125 54.6875 
L 9.28125 70.21875 
z
" id="DejaVuSans-116"/>
       <path d="M 8.015625 75.875 
L 15.828125 75.875 
Q 23.140625 64.359375 26.78125 53.3125 
Q 30.421875 42.28125 30.421875 31.390625 
Q 30.421875 20.453125 26.78125 9.375 
Q 23.140625 -1.703125 15.828125 -13.1875 
L 8.015625 -13.1875 
Q 14.5 -2 17.703125 9.0625 
Q 20.90625 20.125 20.90625 31.390625 
Q 20.90625 42.671875 17.703125 53.65625 
Q 14.5 64.65625 8.015625 75.875 
z
" id="DejaVuSans-41"/>
      </defs>
      <use xlink:href="#DejaVuSans-84"/>
      <use x="57.958984" xlink:href="#DejaVuSans-105"/>
      <use x="85.742188" xlink:href="#DejaVuSans-109"/>
      <use x="183.154297" xlink:href="#DejaVuSans-101"/>
      <use x="244.677734" xlink:href="#DejaVuSans-32"/>
      <use x="276.464844" xlink:href="#DejaVuSans-40"/>
      <use x="315.478516" xlink:href="#DejaVuSans-104"/>
      <use x="378.857422" xlink:href="#DejaVuSans-111"/>
      <use x="440.039062" xlink:href="#DejaVuSans-117"/>
      <use x="503.417969" xlink:href="#DejaVuSans-114"/>
      <use x="542.78125" xlink:href="#DejaVuSans-58"/>
      <use x="576.472656" xlink:href="#DejaVuSans-109"/>
      <use x="673.884766" xlink:href="#DejaVuSans-105"/>
      <use x="701.667969" xlink:href="#DejaVuSans-110"/>
      <use x="765.046875" xlink:href="#DejaVuSans-117"/>
      <use x="828.425781" xlink:href="#DejaVuSans-116"/>
      <use x="867.634766" xlink:href="#DejaVuSans-101"/>
      <use x="929.158203" xlink:href="#DejaVuSans-41"/>
     </g>
    </g>
   </g>
   <g id="matplotlib.axis_2">
    <g id="ytick_1">
     <g id="line2d_13">
      <defs>
       <path d="M 0 0 
L -3.5 0 
" id="mf4a3d0c1d1" style="stroke:#000000;stroke-width:0.8;"/>
      </defs>
      <g>
       <use style="stroke:#000000;stroke-width:0.8;" x="59.690625" xlink:href="#mf4a3d0c1d1" y="259.218446"/>
      </g>
     </g>
     <g id="text_14">
      <!-- 42400 -->
      <g transform="translate(20.878125 263.017665)scale(0.1 -0.1)">
       <use xlink:href="#DejaVuSans-52"/>
       <use x="63.623047" xlink:href="#DejaVuSans-50"/>
       <use x="127.246094" xlink:href="#DejaVuSans-52"/>
       <use x="190.869141" xlink:href="#DejaVuSans-48"/>
       <use x="254.492188" xlink:href="#DejaVuSans-48"/>
      </g>
     </g>
    </g>
    <g id="ytick_2">
     <g id="line2d_14">
      <g>
       <use style="stroke:#000000;stroke-width:0.8;" x="59.690625" xlink:href="#mf4a3d0c1d1" y="222.410534"/>
      </g>
     </g>
     <g id="text_15">
      <!-- 42600 -->
      <g transform="translate(20.878125 226.209753)scale(0.1 -0.1)">
       <use xlink:href="#DejaVuSans-52"/>
       <use x="63.623047" xlink:href="#DejaVuSans-50"/>
       <use x="127.246094" xlink:href="#DejaVuSans-54"/>
       <use x="190.869141" xlink:href="#DejaVuSans-48"/>
       <use x="254.492188" xlink:href="#DejaVuSans-48"/>
      </g>
     </g>
    </g>
    <g id="ytick_3">
     <g id="line2d_15">
      <g>
       <use style="stroke:#000000;stroke-width:0.8;" x="59.690625" xlink:href="#mf4a3d0c1d1" y="185.602623"/>
      </g>
     </g>
     <g id="text_16">
      <!-- 42800 -->
      <g transform="translate(20.878125 189.401841)scale(0.1 -0.1)">
       <defs>
        <path d="M 31.78125 34.625 
Q 24.75 34.625 20.71875 30.859375 
Q 16.703125 27.09375 16.703125 20.515625 
Q 16.703125 13.921875 20.71875 10.15625 
Q 24.75 6.390625 31.78125 6.390625 
Q 38.8125 6.390625 42.859375 10.171875 
Q 46.921875 13.96875 46.921875 20.515625 
Q 46.921875 27.09375 42.890625 30.859375 
Q 38.875 34.625 31.78125 34.625 
z
M 21.921875 38.8125 
Q 15.578125 40.375 12.03125 44.71875 
Q 8.5 49.078125 8.5 55.328125 
Q 8.5 64.0625 14.71875 69.140625 
Q 20.953125 74.21875 31.78125 74.21875 
Q 42.671875 74.21875 48.875 69.140625 
Q 55.078125 64.0625 55.078125 55.328125 
Q 55.078125 49.078125 51.53125 44.71875 
Q 48 40.375 41.703125 38.8125 
Q 48.828125 37.15625 52.796875 32.3125 
Q 56.78125 27.484375 56.78125 20.515625 
Q 56.78125 9.90625 50.3125 4.234375 
Q 43.84375 -1.421875 31.78125 -1.421875 
Q 19.734375 -1.421875 13.25 4.234375 
Q 6.78125 9.90625 6.78125 20.515625 
Q 6.78125 27.484375 10.78125 32.3125 
Q 14.796875 37.15625 21.921875 38.8125 
z
M 18.3125 54.390625 
Q 18.3125 48.734375 21.84375 45.5625 
Q 25.390625 42.390625 31.78125 42.390625 
Q 38.140625 42.390625 41.71875 45.5625 
Q 45.3125 48.734375 45.3125 54.390625 
Q 45.3125 60.0625 41.71875 63.234375 
Q 38.140625 66.40625 31.78125 66.40625 
Q 25.390625 66.40625 21.84375 63.234375 
Q 18.3125 60.0625 18.3125 54.390625 
z
" id="DejaVuSans-56"/>
       </defs>
       <use xlink:href="#DejaVuSans-52"/>
       <use x="63.623047" xlink:href="#DejaVuSans-50"/>
       <use x="127.246094" xlink:href="#DejaVuSans-56"/>
       <use x="190.869141" xlink:href="#DejaVuSans-48"/>
       <use x="254.492188" xlink:href="#DejaVuSans-48"/>
      </g>
     </g>
    </g>
    <g id="ytick_4">
     <g id="line2d_16">
      <g>
       <use style="stroke:#000000;stroke-width:0.8;" x="59.690625" xlink:href="#mf4a3d0c1d1" y="148.794711"/>
      </g>
     </g>
     <g id="text_17">
      <!-- 43000 -->
      <g transform="translate(20.878125 152.59393)scale(0.1 -0.1)">
       <use xlink:href="#DejaVuSans-52"/>
       <use x="63.623047" xlink:href="#DejaVuSans-51"/>
       <use x="127.246094" xlink:href="#DejaVuSans-48"/>
       <use x="190.869141" xlink:href="#DejaVuSans-48"/>
       <use x="254.492188" xlink:href="#DejaVuSans-48"/>
      </g>
     </g>
    </g>
    <g id="ytick_5">
     <g id="line2d_17">
      <g>
       <use style="stroke:#000000;stroke-width:0.8;" x="59.690625" xlink:href="#mf4a3d0c1d1" y="111.986799"/>
      </g>
     </g>
     <g id="text_18">
      <!-- 43200 -->
      <g transform="translate(20.878125 115.786018)scale(0.1 -0.1)">
       <use xlink:href="#DejaVuSans-52"/>
       <use x="63.623047" xlink:href="#DejaVuSans-51"/>
       <use x="127.246094" xlink:href="#DejaVuSans-50"/>
       <use x="190.869141" xlink:href="#DejaVuSans-48"/>
       <use x="254.492188" xlink:href="#DejaVuSans-48"/>
      </g>
     </g>
    </g>
    <g id="ytick_6">
     <g id="line2d_18">
      <g>
       <use style="stroke:#000000;stroke-width:0.8;" x="59.690625" xlink:href="#mf4a3d0c1d1" y="75.178887"/>
      </g>
     </g>
     <g id="text_19">
      <!-- 43400 -->
      <g transform="translate(20.878125 78.978106)scale(0.1 -0.1)">
       <use xlink:href="#DejaVuSans-52"/>
       <use x="63.623047" xlink:href="#DejaVuSans-51"/>
       <use x="127.246094" xlink:href="#DejaVuSans-52"/>
       <use x="190.869141" xlink:href="#DejaVuSans-48"/>
       <use x="254.492188" xlink:href="#DejaVuSans-48"/>
      </g>
     </g>
    </g>
    <g id="ytick_7">
     <g id="line2d_19">
      <g>
       <use style="stroke:#000000;stroke-width:0.8;" x="59.690625" xlink:href="#mf4a3d0c1d1" y="38.370976"/>
      </g>
     </g>
     <g id="text_20">
      <!-- 43600 -->
      <g transform="translate(20.878125 42.170194)scale(0.1 -0.1)">
       <use xlink:href="#DejaVuSans-52"/>
       <use x="63.623047" xlink:href="#DejaVuSans-51"/>
       <use x="127.246094" xlink:href="#DejaVuSans-54"/>
       <use x="190.869141" xlink:href="#DejaVuSans-48"/>
       <use x="254.492188" xlink:href="#DejaVuSans-48"/>
      </g>
     </g>
    </g>
    <g id="text_21">
     <!-- Code region coverage -->
     <g transform="translate(14.798438 210.379594)rotate(-90)scale(0.1 -0.1)">
      <defs>
       <path d="M 64.40625 67.28125 
L 64.40625 56.890625 
Q 59.421875 61.53125 53.78125 63.8125 
Q 48.140625 66.109375 41.796875 66.109375 
Q 29.296875 66.109375 22.65625 58.46875 
Q 16.015625 50.828125 16.015625 36.375 
Q 16.015625 21.96875 22.65625 14.328125 
Q 29.296875 6.6875 41.796875 6.6875 
Q 48.140625 6.6875 53.78125 8.984375 
Q 59.421875 11.28125 64.40625 15.921875 
L 64.40625 5.609375 
Q 59.234375 2.09375 53.4375 0.328125 
Q 47.65625 -1.421875 41.21875 -1.421875 
Q 24.65625 -1.421875 15.125 8.703125 
Q 5.609375 18.84375 5.609375 36.375 
Q 5.609375 53.953125 15.125 64.078125 
Q 24.65625 74.21875 41.21875 74.21875 
Q 47.75 74.21875 53.53125 72.484375 
Q 59.328125 70.75 64.40625 67.28125 
z
" id="DejaVuSans-67"/>
       <path d="M 45.40625 46.390625 
L 45.40625 75.984375 
L 54.390625 75.984375 
L 54.390625 0 
L 45.40625 0 
L 45.40625 8.203125 
Q 42.578125 3.328125 38.25 0.953125 
Q 33.9375 -1.421875 27.875 -1.421875 
Q 17.96875 -1.421875 11.734375 6.484375 
Q 5.515625 14.40625 5.515625 27.296875 
Q 5.515625 40.1875 11.734375 48.09375 
Q 17.96875 56 27.875 56 
Q 33.9375 56 38.25 53.625 
Q 42.578125 51.265625 45.40625 46.390625 
z
M 14.796875 27.296875 
Q 14.796875 17.390625 18.875 11.75 
Q 22.953125 6.109375 30.078125 6.109375 
Q 37.203125 6.109375 41.296875 11.75 
Q 45.40625 17.390625 45.40625 27.296875 
Q 45.40625 37.203125 41.296875 42.84375 
Q 37.203125 48.484375 30.078125 48.484375 
Q 22.953125 48.484375 18.875 42.84375 
Q 14.796875 37.203125 14.796875 27.296875 
z
" id="DejaVuSans-100"/>
       <path d="M 45.40625 27.984375 
Q 45.40625 37.75 41.375 43.109375 
Q 37.359375 48.484375 30.078125 48.484375 
Q 22.859375 48.484375 18.828125 43.109375 
Q 14.796875 37.75 14.796875 27.984375 
Q 14.796875 18.265625 18.828125 12.890625 
Q 22.859375 7.515625 30.078125 7.515625 
Q 37.359375 7.515625 41.375 12.890625 
Q 45.40625 18.265625 45.40625 27.984375 
z
M 54.390625 6.78125 
Q 54.390625 -7.171875 48.1875 -13.984375 
Q 42 -20.796875 29.203125 -20.796875 
Q 24.46875 -20.796875 20.265625 -20.09375 
Q 16.0625 -19.390625 12.109375 -17.921875 
L 12.109375 -9.1875 
Q 16.0625 -11.328125 19.921875 -12.34375 
Q 23.78125 -13.375 27.78125 -13.375 
Q 36.625 -13.375 41.015625 -8.765625 
Q 45.40625 -4.15625 45.40625 5.171875 
L 45.40625 9.625 
Q 42.625 4.78125 38.28125 2.390625 
Q 33.9375 0 27.875 0 
Q 17.828125 0 11.671875 7.65625 
Q 5.515625 15.328125 5.515625 27.984375 
Q 5.515625 40.671875 11.671875 48.328125 
Q 17.828125 56 27.875 56 
Q 33.9375 56 38.28125 53.609375 
Q 42.625 51.21875 45.40625 46.390625 
L 45.40625 54.6875 
L 54.390625 54.6875 
z
" id="DejaVuSans-103"/>
       <path d="M 48.78125 52.59375 
L 48.78125 44.1875 
Q 44.96875 46.296875 41.140625 47.34375 
Q 37.3125 48.390625 33.40625 48.390625 
Q 24.65625 48.390625 19.8125 42.84375 
Q 14.984375 37.3125 14.984375 27.296875 
Q 14.984375 17.28125 19.8125 11.734375 
Q 24.65625 6.203125 33.40625 6.203125 
Q 37.3125 6.203125 41.140625 7.25 
Q 44.96875 8.296875 48.78125 10.40625 
L 48.78125 2.09375 
Q 45.015625 0.34375 40.984375 -0.53125 
Q 36.96875 -1.421875 32.421875 -1.421875 
Q 20.0625 -1.421875 12.78125 6.34375 
Q 5.515625 14.109375 5.515625 27.296875 
Q 5.515625 40.671875 12.859375 48.328125 
Q 20.21875 56 33.015625 56 
Q 37.15625 56 41.109375 55.140625 
Q 45.0625 54.296875 48.78125 52.59375 
z
" id="DejaVuSans-99"/>
       <path d="M 2.984375 54.6875 
L 12.5 54.6875 
L 29.59375 8.796875 
L 46.6875 54.6875 
L 56.203125 54.6875 
L 35.6875 0 
L 23.484375 0 
z
" id="DejaVuSans-118"/>
       <path d="M 34.28125 27.484375 
Q 23.390625 27.484375 19.1875 25 
Q 14.984375 22.515625 14.984375 16.5 
Q 14.984375 11.71875 18.140625 8.90625 
Q 21.296875 6.109375 26.703125 6.109375 
Q 34.1875 6.109375 38.703125 11.40625 
Q 43.21875 16.703125 43.21875 25.484375 
L 43.21875 27.484375 
z
M 52.203125 31.203125 
L 52.203125 0 
L 43.21875 0 
L 43.21875 8.296875 
Q 40.140625 3.328125 35.546875 0.953125 
Q 30.953125 -1.421875 24.3125 -1.421875 
Q 15.921875 -1.421875 10.953125 3.296875 
Q 6 8.015625 6 15.921875 
Q 6 25.140625 12.171875 29.828125 
Q 18.359375 34.515625 30.609375 34.515625 
L 43.21875 34.515625 
L 43.21875 35.40625 
Q 43.21875 41.609375 39.140625 45 
Q 35.0625 48.390625 27.6875 48.390625 
Q 23 48.390625 18.546875 47.265625 
Q 14.109375 46.140625 10.015625 43.890625 
L 10.015625 52.203125 
Q 14.9375 54.109375 19.578125 55.046875 
Q 24.21875 56 28.609375 56 
Q 40.484375 56 46.34375 49.84375 
Q 52.203125 43.703125 52.203125 31.203125 
z
" id="DejaVuSans-97"/>
      </defs>
      <use xlink:href="#DejaVuSans-67"/>
      <use x="69.824219" xlink:href="#DejaVuSans-111"/>
      <use x="131.005859" xlink:href="#DejaVuSans-100"/>
      <use x="194.482422" xlink:href="#DejaVuSans-101"/>
      <use x="256.005859" xlink:href="#DejaVuSans-32"/>
      <use x="287.792969" xlink:href="#DejaVuSans-114"/>
      <use x="326.65625" xlink:href="#DejaVuSans-101"/>
      <use x="388.179688" xlink:href="#DejaVuSans-103"/>
      <use x="451.65625" xlink:href="#DejaVuSans-105"/>
      <use x="479.439453" xlink:href="#DejaVuSans-111"/>
      <use x="540.621094" xlink:href="#DejaVuSans-110"/>
      <use x="604" xlink:href="#DejaVuSans-32"/>
      <use x="635.787109" xlink:href="#DejaVuSans-99"/>
      <use x="690.767578" xlink:href="#DejaVuSans-111"/>
      <use x="751.949219" xlink:href="#DejaVuSans-118"/>
      <use x="811.128906" xlink:href="#DejaVuSans-101"/>
      <use x="872.652344" xlink:href="#DejaVuSans-114"/>
      <use x="913.765625" xlink:href="#DejaVuSans-97"/>
      <use x="975.044922" xlink:href="#DejaVuSans-103"/>
      <use x="1038.521484" xlink:href="#DejaVuSans-101"/>
     </g>
    </g>
   </g>
   <g id="line2d_20">
    <path clip-path="url(#p0754e6e297)" d="M 92.15608 233.268868 
L 99.291344 166.462508 
L 106.426609 146.862295 
L 113.561874 143.917662 
L 120.697138 130.390755 
L 127.832403 114.839412 
L 134.967668 110.882562 
L 142.102933 109.594285 
L 149.238197 108.306008 
L 156.373462 105.545414 
L 163.508727 101.680584 
L 170.643992 98.275852 
L 177.779256 94.595061 
L 184.914521 91.282349 
L 192.049786 90.73023 
L 199.185051 89.718012 
L 206.320315 88.521755 
L 213.45558 84.564905 
L 220.590845 82.54047 
L 227.72611 80.976133 
L 234.861374 79.871896 
L 241.996639 79.227758 
L 249.131904 77.571402 
L 256.267168 73.430511 
L 263.402433 71.958195 
L 270.537698 71.314057 
L 277.672963 71.130017 
L 284.808227 70.02578 
L 291.943492 69.381641 
L 299.078757 69.105582 
L 306.214022 68.093364 
L 313.349286 66.621048 
L 320.484551 64.780652 
L 327.619816 64.412573 
L 334.755081 64.044494 
L 341.890345 62.848237 
L 349.02561 62.020059 
L 356.160875 61.743999 
L 363.296139 61.55996 
L 370.431404 61.46794 
L 377.566669 59.627545 
L 384.701934 59.627545 
L 391.837198 57.787149 
L 398.972463 57.32705 
L 406.107728 57.23503 
L 413.242993 57.143011 
L 420.378257 57.143011 
L 427.513522 57.050991 
L 434.648787 55.854734 
L 441.784052 54.842516 
L 448.919316 54.566457 
L 456.054581 53.27818 
L 463.189846 53.27818 
L 470.325111 52.081923 
L 477.460375 50.701626 
L 484.59564 50.701626 
L 491.730905 50.701626 
L 498.866169 50.701626 
L 506.001434 49.873448 
L 513.136699 49.873448 
L 520.271964 49.505369 
L 527.407228 49.413349 
L 534.542493 47.572953 
L 541.677758 47.572953 
L 548.813023 46.928815 
L 555.948287 45.732558 
L 563.083552 45.548518 
L 570.218817 45.548518 
L 577.354082 45.548518 
L 584.489346 45.548518 
L 591.624611 45.548518 
L 598.759876 44.9964 
L 605.89514 44.9964 
L 613.030405 44.9964 
L 620.16567 44.9964 
L 627.300935 44.9964 
L 634.436199 44.9964 
L 641.571464 44.9964 
L 648.706729 44.9964 
L 655.841994 44.9964 
L 662.977258 43.708123 
L 670.112523 42.879945 
L 677.247788 42.879945 
L 684.383053 41.591668 
L 691.518317 41.499648 
L 698.653582 41.407628 
L 705.788847 41.407628 
L 712.924112 40.76349 
L 720.059376 40.76349 
L 727.194641 40.67147 
L 734.329906 40.67147 
L 741.46517 40.67147 
" style="fill:none;stroke:#98df8a;stroke-linecap:square;stroke-width:1.5;"/>
    <defs>
     <path d="M -0 3 
L 3 -3 
L -3 -3 
z
" id="m19aa65f4c1" style="stroke:#ffffff;stroke-linejoin:miter;stroke-width:0.75;"/>
    </defs>
    <g clip-path="url(#p0754e6e297)">
     <use style="fill:#98df8a;stroke:#ffffff;stroke-linejoin:miter;stroke-width:0.75;" x="92.15608" xlink:href="#m19aa65f4c1" y="233.268868"/>
     <use style="fill:#98df8a;stroke:#ffffff;stroke-linejoin:miter;stroke-width:0.75;" x="99.291344" xlink:href="#m19aa65f4c1" y="166.462508"/>
     <use style="fill:#98df8a;stroke:#ffffff;stroke-linejoin:miter;stroke-width:0.75;" x="106.426609" xlink:href="#m19aa65f4c1" y="146.862295"/>
     <use style="fill:#98df8a;stroke:#ffffff;stroke-linejoin:miter;stroke-width:0.75;" x="113.561874" xlink:href="#m19aa65f4c1" y="143.917662"/>
     <use style="fill:#98df8a;stroke:#ffffff;stroke-linejoin:miter;stroke-width:0.75;" x="120.697138" xlink:href="#m19aa65f4c1" y="130.390755"/>
     <use style="fill:#98df8a;stroke:#ffffff;stroke-linejoin:miter;stroke-width:0.75;" x="127.832403" xlink:href="#m19aa65f4c1" y="114.839412"/>
     <use style="fill:#98df8a;stroke:#ffffff;stroke-linejoin:miter;stroke-width:0.75;" x="134.967668" xlink:href="#m19aa65f4c1" y="110.882562"/>
     <use style="fill:#98df8a;stroke:#ffffff;stroke-linejoin:miter;stroke-width:0.75;" x="142.102933" xlink:href="#m19aa65f4c1" y="109.594285"/>
     <use style="fill:#98df8a;stroke:#ffffff;stroke-linejoin:miter;stroke-width:0.75;" x="149.238197" xlink:href="#m19aa65f4c1" y="108.306008"/>
     <use style="fill:#98df8a;stroke:#ffffff;stroke-linejoin:miter;stroke-width:0.75;" x="156.373462" xlink:href="#m19aa65f4c1" y="105.545414"/>
     <use style="fill:#98df8a;stroke:#ffffff;stroke-linejoin:miter;stroke-width:0.75;" x="163.508727" xlink:href="#m19aa65f4c1" y="101.680584"/>
     <use style="fill:#98df8a;stroke:#ffffff;stroke-linejoin:miter;stroke-width:0.75;" x="170.643992" xlink:href="#m19aa65f4c1" y="98.275852"/>
     <use style="fill:#98df8a;stroke:#ffffff;stroke-linejoin:miter;stroke-width:0.75;" x="177.779256" xlink:href="#m19aa65f4c1" y="94.595061"/>
     <use style="fill:#98df8a;stroke:#ffffff;stroke-linejoin:miter;stroke-width:0.75;" x="184.914521" xlink:href="#m19aa65f4c1" y="91.282349"/>
     <use style="fill:#98df8a;stroke:#ffffff;stroke-linejoin:miter;stroke-width:0.75;" x="192.049786" xlink:href="#m19aa65f4c1" y="90.73023"/>
     <use style="fill:#98df8a;stroke:#ffffff;stroke-linejoin:miter;stroke-width:0.75;" x="199.185051" xlink:href="#m19aa65f4c1" y="89.718012"/>
     <use style="fill:#98df8a;stroke:#ffffff;stroke-linejoin:miter;stroke-width:0.75;" x="206.320315" xlink:href="#m19aa65f4c1" y="88.521755"/>
     <use style="fill:#98df8a;stroke:#ffffff;stroke-linejoin:miter;stroke-width:0.75;" x="213.45558" xlink:href="#m19aa65f4c1" y="84.564905"/>
     <use style="fill:#98df8a;stroke:#ffffff;stroke-linejoin:miter;stroke-width:0.75;" x="220.590845" xlink:href="#m19aa65f4c1" y="82.54047"/>
     <use style="fill:#98df8a;stroke:#ffffff;stroke-linejoin:miter;stroke-width:0.75;" x="227.72611" xlink:href="#m19aa65f4c1" y="80.976133"/>
     <use style="fill:#98df8a;stroke:#ffffff;stroke-linejoin:miter;stroke-width:0.75;" x="234.861374" xlink:href="#m19aa65f4c1" y="79.871896"/>
     <use style="fill:#98df8a;stroke:#ffffff;stroke-linejoin:miter;stroke-width:0.75;" x="241.996639" xlink:href="#m19aa65f4c1" y="79.227758"/>
     <use style="fill:#98df8a;stroke:#ffffff;stroke-linejoin:miter;stroke-width:0.75;" x="249.131904" xlink:href="#m19aa65f4c1" y="77.571402"/>
     <use style="fill:#98df8a;stroke:#ffffff;stroke-linejoin:miter;stroke-width:0.75;" x="256.267168" xlink:href="#m19aa65f4c1" y="73.430511"/>
     <use style="fill:#98df8a;stroke:#ffffff;stroke-linejoin:miter;stroke-width:0.75;" x="263.402433" xlink:href="#m19aa65f4c1" y="71.958195"/>
     <use style="fill:#98df8a;stroke:#ffffff;stroke-linejoin:miter;stroke-width:0.75;" x="270.537698" xlink:href="#m19aa65f4c1" y="71.314057"/>
     <use style="fill:#98df8a;stroke:#ffffff;stroke-linejoin:miter;stroke-width:0.75;" x="277.672963" xlink:href="#m19aa65f4c1" y="71.130017"/>
     <use style="fill:#98df8a;stroke:#ffffff;stroke-linejoin:miter;stroke-width:0.75;" x="284.808227" xlink:href="#m19aa65f4c1" y="70.02578"/>
     <use style="fill:#98df8a;stroke:#ffffff;stroke-linejoin:miter;stroke-width:0.75;" x="291.943492" xlink:href="#m19aa65f4c1" y="69.381641"/>
     <use style="fill:#98df8a;stroke:#ffffff;stroke-linejoin:miter;stroke-width:0.75;" x="299.078757" xlink:href="#m19aa65f4c1" y="69.105582"/>
     <use style="fill:#98df8a;stroke:#ffffff;stroke-linejoin:miter;stroke-width:0.75;" x="306.214022" xlink:href="#m19aa65f4c1" y="68.093364"/>
     <use style="fill:#98df8a;stroke:#ffffff;stroke-linejoin:miter;stroke-width:0.75;" x="313.349286" xlink:href="#m19aa65f4c1" y="66.621048"/>
     <use style="fill:#98df8a;stroke:#ffffff;stroke-linejoin:miter;stroke-width:0.75;" x="320.484551" xlink:href="#m19aa65f4c1" y="64.780652"/>
     <use style="fill:#98df8a;stroke:#ffffff;stroke-linejoin:miter;stroke-width:0.75;" x="327.619816" xlink:href="#m19aa65f4c1" y="64.412573"/>
     <use style="fill:#98df8a;stroke:#ffffff;stroke-linejoin:miter;stroke-width:0.75;" x="334.755081" xlink:href="#m19aa65f4c1" y="64.044494"/>
     <use style="fill:#98df8a;stroke:#ffffff;stroke-linejoin:miter;stroke-width:0.75;" x="341.890345" xlink:href="#m19aa65f4c1" y="62.848237"/>
     <use style="fill:#98df8a;stroke:#ffffff;stroke-linejoin:miter;stroke-width:0.75;" x="349.02561" xlink:href="#m19aa65f4c1" y="62.020059"/>
     <use style="fill:#98df8a;stroke:#ffffff;stroke-linejoin:miter;stroke-width:0.75;" x="356.160875" xlink:href="#m19aa65f4c1" y="61.743999"/>
     <use style="fill:#98df8a;stroke:#ffffff;stroke-linejoin:miter;stroke-width:0.75;" x="363.296139" xlink:href="#m19aa65f4c1" y="61.55996"/>
     <use style="fill:#98df8a;stroke:#ffffff;stroke-linejoin:miter;stroke-width:0.75;" x="370.431404" xlink:href="#m19aa65f4c1" y="61.46794"/>
     <use style="fill:#98df8a;stroke:#ffffff;stroke-linejoin:miter;stroke-width:0.75;" x="377.566669" xlink:href="#m19aa65f4c1" y="59.627545"/>
     <use style="fill:#98df8a;stroke:#ffffff;stroke-linejoin:miter;stroke-width:0.75;" x="384.701934" xlink:href="#m19aa65f4c1" y="59.627545"/>
     <use style="fill:#98df8a;stroke:#ffffff;stroke-linejoin:miter;stroke-width:0.75;" x="391.837198" xlink:href="#m19aa65f4c1" y="57.787149"/>
     <use style="fill:#98df8a;stroke:#ffffff;stroke-linejoin:miter;stroke-width:0.75;" x="398.972463" xlink:href="#m19aa65f4c1" y="57.32705"/>
     <use style="fill:#98df8a;stroke:#ffffff;stroke-linejoin:miter;stroke-width:0.75;" x="406.107728" xlink:href="#m19aa65f4c1" y="57.23503"/>
     <use style="fill:#98df8a;stroke:#ffffff;stroke-linejoin:miter;stroke-width:0.75;" x="413.242993" xlink:href="#m19aa65f4c1" y="57.143011"/>
     <use style="fill:#98df8a;stroke:#ffffff;stroke-linejoin:miter;stroke-width:0.75;" x="420.378257" xlink:href="#m19aa65f4c1" y="57.143011"/>
     <use style="fill:#98df8a;stroke:#ffffff;stroke-linejoin:miter;stroke-width:0.75;" x="427.513522" xlink:href="#m19aa65f4c1" y="57.050991"/>
     <use style="fill:#98df8a;stroke:#ffffff;stroke-linejoin:miter;stroke-width:0.75;" x="434.648787" xlink:href="#m19aa65f4c1" y="55.854734"/>
     <use style="fill:#98df8a;stroke:#ffffff;stroke-linejoin:miter;stroke-width:0.75;" x="441.784052" xlink:href="#m19aa65f4c1" y="54.842516"/>
     <use style="fill:#98df8a;stroke:#ffffff;stroke-linejoin:miter;stroke-width:0.75;" x="448.919316" xlink:href="#m19aa65f4c1" y="54.566457"/>
     <use style="fill:#98df8a;stroke:#ffffff;stroke-linejoin:miter;stroke-width:0.75;" x="456.054581" xlink:href="#m19aa65f4c1" y="53.27818"/>
     <use style="fill:#98df8a;stroke:#ffffff;stroke-linejoin:miter;stroke-width:0.75;" x="463.189846" xlink:href="#m19aa65f4c1" y="53.27818"/>
     <use style="fill:#98df8a;stroke:#ffffff;stroke-linejoin:miter;stroke-width:0.75;" x="470.325111" xlink:href="#m19aa65f4c1" y="52.081923"/>
     <use style="fill:#98df8a;stroke:#ffffff;stroke-linejoin:miter;stroke-width:0.75;" x="477.460375" xlink:href="#m19aa65f4c1" y="50.701626"/>
     <use style="fill:#98df8a;stroke:#ffffff;stroke-linejoin:miter;stroke-width:0.75;" x="484.59564" xlink:href="#m19aa65f4c1" y="50.701626"/>
     <use style="fill:#98df8a;stroke:#ffffff;stroke-linejoin:miter;stroke-width:0.75;" x="491.730905" xlink:href="#m19aa65f4c1" y="50.701626"/>
     <use style="fill:#98df8a;stroke:#ffffff;stroke-linejoin:miter;stroke-width:0.75;" x="498.866169" xlink:href="#m19aa65f4c1" y="50.701626"/>
     <use style="fill:#98df8a;stroke:#ffffff;stroke-linejoin:miter;stroke-width:0.75;" x="506.001434" xlink:href="#m19aa65f4c1" y="49.873448"/>
     <use style="fill:#98df8a;stroke:#ffffff;stroke-linejoin:miter;stroke-width:0.75;" x="513.136699" xlink:href="#m19aa65f4c1" y="49.873448"/>
     <use style="fill:#98df8a;stroke:#ffffff;stroke-linejoin:miter;stroke-width:0.75;" x="520.271964" xlink:href="#m19aa65f4c1" y="49.505369"/>
     <use style="fill:#98df8a;stroke:#ffffff;stroke-linejoin:miter;stroke-width:0.75;" x="527.407228" xlink:href="#m19aa65f4c1" y="49.413349"/>
     <use style="fill:#98df8a;stroke:#ffffff;stroke-linejoin:miter;stroke-width:0.75;" x="534.542493" xlink:href="#m19aa65f4c1" y="47.572953"/>
     <use style="fill:#98df8a;stroke:#ffffff;stroke-linejoin:miter;stroke-width:0.75;" x="541.677758" xlink:href="#m19aa65f4c1" y="47.572953"/>
     <use style="fill:#98df8a;stroke:#ffffff;stroke-linejoin:miter;stroke-width:0.75;" x="548.813023" xlink:href="#m19aa65f4c1" y="46.928815"/>
     <use style="fill:#98df8a;stroke:#ffffff;stroke-linejoin:miter;stroke-width:0.75;" x="555.948287" xlink:href="#m19aa65f4c1" y="45.732558"/>
     <use style="fill:#98df8a;stroke:#ffffff;stroke-linejoin:miter;stroke-width:0.75;" x="563.083552" xlink:href="#m19aa65f4c1" y="45.548518"/>
     <use style="fill:#98df8a;stroke:#ffffff;stroke-linejoin:miter;stroke-width:0.75;" x="570.218817" xlink:href="#m19aa65f4c1" y="45.548518"/>
     <use style="fill:#98df8a;stroke:#ffffff;stroke-linejoin:miter;stroke-width:0.75;" x="577.354082" xlink:href="#m19aa65f4c1" y="45.548518"/>
     <use style="fill:#98df8a;stroke:#ffffff;stroke-linejoin:miter;stroke-width:0.75;" x="584.489346" xlink:href="#m19aa65f4c1" y="45.548518"/>
     <use style="fill:#98df8a;stroke:#ffffff;stroke-linejoin:miter;stroke-width:0.75;" x="591.624611" xlink:href="#m19aa65f4c1" y="45.548518"/>
     <use style="fill:#98df8a;stroke:#ffffff;stroke-linejoin:miter;stroke-width:0.75;" x="598.759876" xlink:href="#m19aa65f4c1" y="44.9964"/>
     <use style="fill:#98df8a;stroke:#ffffff;stroke-linejoin:miter;stroke-width:0.75;" x="605.89514" xlink:href="#m19aa65f4c1" y="44.9964"/>
     <use style="fill:#98df8a;stroke:#ffffff;stroke-linejoin:miter;stroke-width:0.75;" x="613.030405" xlink:href="#m19aa65f4c1" y="44.9964"/>
     <use style="fill:#98df8a;stroke:#ffffff;stroke-linejoin:miter;stroke-width:0.75;" x="620.16567" xlink:href="#m19aa65f4c1" y="44.9964"/>
     <use style="fill:#98df8a;stroke:#ffffff;stroke-linejoin:miter;stroke-width:0.75;" x="627.300935" xlink:href="#m19aa65f4c1" y="44.9964"/>
     <use style="fill:#98df8a;stroke:#ffffff;stroke-linejoin:miter;stroke-width:0.75;" x="634.436199" xlink:href="#m19aa65f4c1" y="44.9964"/>
     <use style="fill:#98df8a;stroke:#ffffff;stroke-linejoin:miter;stroke-width:0.75;" x="641.571464" xlink:href="#m19aa65f4c1" y="44.9964"/>
     <use style="fill:#98df8a;stroke:#ffffff;stroke-linejoin:miter;stroke-width:0.75;" x="648.706729" xlink:href="#m19aa65f4c1" y="44.9964"/>
     <use style="fill:#98df8a;stroke:#ffffff;stroke-linejoin:miter;stroke-width:0.75;" x="655.841994" xlink:href="#m19aa65f4c1" y="44.9964"/>
     <use style="fill:#98df8a;stroke:#ffffff;stroke-linejoin:miter;stroke-width:0.75;" x="662.977258" xlink:href="#m19aa65f4c1" y="43.708123"/>
     <use style="fill:#98df8a;stroke:#ffffff;stroke-linejoin:miter;stroke-width:0.75;" x="670.112523" xlink:href="#m19aa65f4c1" y="42.879945"/>
     <use style="fill:#98df8a;stroke:#ffffff;stroke-linejoin:miter;stroke-width:0.75;" x="677.247788" xlink:href="#m19aa65f4c1" y="42.879945"/>
     <use style="fill:#98df8a;stroke:#ffffff;stroke-linejoin:miter;stroke-width:0.75;" x="684.383053" xlink:href="#m19aa65f4c1" y="41.591668"/>
     <use style="fill:#98df8a;stroke:#ffffff;stroke-linejoin:miter;stroke-width:0.75;" x="691.518317" xlink:href="#m19aa65f4c1" y="41.499648"/>
     <use style="fill:#98df8a;stroke:#ffffff;stroke-linejoin:miter;stroke-width:0.75;" x="698.653582" xlink:href="#m19aa65f4c1" y="41.407628"/>
     <use style="fill:#98df8a;stroke:#ffffff;stroke-linejoin:miter;stroke-width:0.75;" x="705.788847" xlink:href="#m19aa65f4c1" y="41.407628"/>
     <use style="fill:#98df8a;stroke:#ffffff;stroke-linejoin:miter;stroke-width:0.75;" x="712.924112" xlink:href="#m19aa65f4c1" y="40.76349"/>
     <use style="fill:#98df8a;stroke:#ffffff;stroke-linejoin:miter;stroke-width:0.75;" x="720.059376" xlink:href="#m19aa65f4c1" y="40.76349"/>
     <use style="fill:#98df8a;stroke:#ffffff;stroke-linejoin:miter;stroke-width:0.75;" x="727.194641" xlink:href="#m19aa65f4c1" y="40.67147"/>
     <use style="fill:#98df8a;stroke:#ffffff;stroke-linejoin:miter;stroke-width:0.75;" x="734.329906" xlink:href="#m19aa65f4c1" y="40.67147"/>
     <use style="fill:#98df8a;stroke:#ffffff;stroke-linejoin:miter;stroke-width:0.75;" x="741.46517" xlink:href="#m19aa65f4c1" y="40.67147"/>
    </g>
   </g>
   <g id="line2d_21">
    <path clip-path="url(#p0754e6e297)" d="M 92.15608 233.084829 
L 99.291344 166.462508 
L 106.426609 147.506434 
L 113.561874 132.23115 
L 120.697138 116.863847 
L 127.832403 109.870344 
L 134.967668 105.821474 
L 142.102933 98.367872 
L 149.238197 94.595061 
L 156.373462 91.558408 
L 163.508727 90.178111 
L 170.643992 86.221261 
L 177.779256 82.632489 
L 184.914521 81.988351 
L 192.049786 81.160173 
L 199.185051 80.424015 
L 206.320315 77.939481 
L 213.45558 77.295342 
L 220.590845 75.270907 
L 227.72611 74.534749 
L 234.861374 74.07465 
L 241.996639 73.98263 
L 249.131904 73.154452 
L 256.267168 71.314057 
L 263.402433 69.84174 
L 270.537698 69.013562 
L 277.672963 67.541246 
L 284.808227 66.897107 
L 291.943492 66.529028 
L 299.078757 65.70085 
L 306.214022 64.320553 
L 313.349286 64.228534 
L 320.484551 63.676415 
L 327.619816 63.308336 
L 334.755081 62.204098 
L 341.890345 61.55996 
L 349.02561 61.283901 
L 356.160875 60.731782 
L 363.296139 60.455723 
L 370.431404 60.179663 
L 377.566669 59.259465 
L 384.701934 58.523307 
L 391.837198 57.695129 
L 398.972463 56.958971 
L 406.107728 56.498872 
L 413.242993 56.498872 
L 420.378257 55.946753 
L 427.513522 55.946753 
L 434.648787 55.578674 
L 441.784052 55.302615 
L 448.919316 55.118575 
L 456.054581 54.750496 
L 463.189846 54.290397 
L 470.325111 53.922318 
L 477.460375 53.646259 
L 484.59564 51.897883 
L 491.730905 51.713844 
L 498.866169 51.713844 
L 506.001434 50.977685 
L 513.136699 50.977685 
L 520.271964 50.241527 
L 527.407228 50.241527 
L 534.542493 49.413349 
L 541.677758 49.413349 
L 548.813023 48.86123 
L 555.948287 48.493151 
L 563.083552 48.309112 
L 570.218817 47.664973 
L 577.354082 46.928815 
L 584.489346 46.836795 
L 591.624611 46.468716 
L 598.759876 45.640538 
L 605.89514 44.260241 
L 613.030405 44.260241 
L 620.16567 44.260241 
L 627.300935 44.260241 
L 634.436199 44.260241 
L 641.571464 44.168222 
L 648.706729 43.708123 
L 655.841994 41.867727 
L 662.977258 41.591668 
L 670.112523 41.315608 
L 677.247788 40.48743 
L 684.383053 40.119351 
L 691.518317 40.119351 
L 698.653582 40.119351 
L 705.788847 40.119351 
L 712.924112 40.119351 
L 720.059376 40.119351 
L 727.194641 39.567233 
L 734.329906 39.567233 
L 741.46517 39.291173 
" style="fill:none;stroke:#1f77b4;stroke-linecap:square;stroke-width:1.5;"/>
    <defs>
     <path d="M 0 3 
C 0.795609 3 1.55874 2.683901 2.12132 2.12132 
C 2.683901 1.55874 3 0.795609 3 0 
C 3 -0.795609 2.683901 -1.55874 2.12132 -2.12132 
C 1.55874 -2.683901 0.795609 -3 0 -3 
C -0.795609 -3 -1.55874 -2.683901 -2.12132 -2.12132 
C -2.683901 -1.55874 -3 -0.795609 -3 0 
C -3 0.795609 -2.683901 1.55874 -2.12132 2.12132 
C -1.55874 2.683901 -0.795609 3 0 3 
z
" id="mca4d2b4839" style="stroke:#ffffff;stroke-width:0.75;"/>
    </defs>
    <g clip-path="url(#p0754e6e297)">
     <use style="fill:#1f77b4;stroke:#ffffff;stroke-width:0.75;" x="92.15608" xlink:href="#mca4d2b4839" y="233.084829"/>
     <use style="fill:#1f77b4;stroke:#ffffff;stroke-width:0.75;" x="99.291344" xlink:href="#mca4d2b4839" y="166.462508"/>
     <use style="fill:#1f77b4;stroke:#ffffff;stroke-width:0.75;" x="106.426609" xlink:href="#mca4d2b4839" y="147.506434"/>
     <use style="fill:#1f77b4;stroke:#ffffff;stroke-width:0.75;" x="113.561874" xlink:href="#mca4d2b4839" y="132.23115"/>
     <use style="fill:#1f77b4;stroke:#ffffff;stroke-width:0.75;" x="120.697138" xlink:href="#mca4d2b4839" y="116.863847"/>
     <use style="fill:#1f77b4;stroke:#ffffff;stroke-width:0.75;" x="127.832403" xlink:href="#mca4d2b4839" y="109.870344"/>
     <use style="fill:#1f77b4;stroke:#ffffff;stroke-width:0.75;" x="134.967668" xlink:href="#mca4d2b4839" y="105.821474"/>
     <use style="fill:#1f77b4;stroke:#ffffff;stroke-width:0.75;" x="142.102933" xlink:href="#mca4d2b4839" y="98.367872"/>
     <use style="fill:#1f77b4;stroke:#ffffff;stroke-width:0.75;" x="149.238197" xlink:href="#mca4d2b4839" y="94.595061"/>
     <use style="fill:#1f77b4;stroke:#ffffff;stroke-width:0.75;" x="156.373462" xlink:href="#mca4d2b4839" y="91.558408"/>
     <use style="fill:#1f77b4;stroke:#ffffff;stroke-width:0.75;" x="163.508727" xlink:href="#mca4d2b4839" y="90.178111"/>
     <use style="fill:#1f77b4;stroke:#ffffff;stroke-width:0.75;" x="170.643992" xlink:href="#mca4d2b4839" y="86.221261"/>
     <use style="fill:#1f77b4;stroke:#ffffff;stroke-width:0.75;" x="177.779256" xlink:href="#mca4d2b4839" y="82.632489"/>
     <use style="fill:#1f77b4;stroke:#ffffff;stroke-width:0.75;" x="184.914521" xlink:href="#mca4d2b4839" y="81.988351"/>
     <use style="fill:#1f77b4;stroke:#ffffff;stroke-width:0.75;" x="192.049786" xlink:href="#mca4d2b4839" y="81.160173"/>
     <use style="fill:#1f77b4;stroke:#ffffff;stroke-width:0.75;" x="199.185051" xlink:href="#mca4d2b4839" y="80.424015"/>
     <use style="fill:#1f77b4;stroke:#ffffff;stroke-width:0.75;" x="206.320315" xlink:href="#mca4d2b4839" y="77.939481"/>
     <use style="fill:#1f77b4;stroke:#ffffff;stroke-width:0.75;" x="213.45558" xlink:href="#mca4d2b4839" y="77.295342"/>
     <use style="fill:#1f77b4;stroke:#ffffff;stroke-width:0.75;" x="220.590845" xlink:href="#mca4d2b4839" y="75.270907"/>
     <use style="fill:#1f77b4;stroke:#ffffff;stroke-width:0.75;" x="227.72611" xlink:href="#mca4d2b4839" y="74.534749"/>
     <use style="fill:#1f77b4;stroke:#ffffff;stroke-width:0.75;" x="234.861374" xlink:href="#mca4d2b4839" y="74.07465"/>
     <use style="fill:#1f77b4;stroke:#ffffff;stroke-width:0.75;" x="241.996639" xlink:href="#mca4d2b4839" y="73.98263"/>
     <use style="fill:#1f77b4;stroke:#ffffff;stroke-width:0.75;" x="249.131904" xlink:href="#mca4d2b4839" y="73.154452"/>
     <use style="fill:#1f77b4;stroke:#ffffff;stroke-width:0.75;" x="256.267168" xlink:href="#mca4d2b4839" y="71.314057"/>
     <use style="fill:#1f77b4;stroke:#ffffff;stroke-width:0.75;" x="263.402433" xlink:href="#mca4d2b4839" y="69.84174"/>
     <use style="fill:#1f77b4;stroke:#ffffff;stroke-width:0.75;" x="270.537698" xlink:href="#mca4d2b4839" y="69.013562"/>
     <use style="fill:#1f77b4;stroke:#ffffff;stroke-width:0.75;" x="277.672963" xlink:href="#mca4d2b4839" y="67.541246"/>
     <use style="fill:#1f77b4;stroke:#ffffff;stroke-width:0.75;" x="284.808227" xlink:href="#mca4d2b4839" y="66.897107"/>
     <use style="fill:#1f77b4;stroke:#ffffff;stroke-width:0.75;" x="291.943492" xlink:href="#mca4d2b4839" y="66.529028"/>
     <use style="fill:#1f77b4;stroke:#ffffff;stroke-width:0.75;" x="299.078757" xlink:href="#mca4d2b4839" y="65.70085"/>
     <use style="fill:#1f77b4;stroke:#ffffff;stroke-width:0.75;" x="306.214022" xlink:href="#mca4d2b4839" y="64.320553"/>
     <use style="fill:#1f77b4;stroke:#ffffff;stroke-width:0.75;" x="313.349286" xlink:href="#mca4d2b4839" y="64.228534"/>
     <use style="fill:#1f77b4;stroke:#ffffff;stroke-width:0.75;" x="320.484551" xlink:href="#mca4d2b4839" y="63.676415"/>
     <use style="fill:#1f77b4;stroke:#ffffff;stroke-width:0.75;" x="327.619816" xlink:href="#mca4d2b4839" y="63.308336"/>
     <use style="fill:#1f77b4;stroke:#ffffff;stroke-width:0.75;" x="334.755081" xlink:href="#mca4d2b4839" y="62.204098"/>
     <use style="fill:#1f77b4;stroke:#ffffff;stroke-width:0.75;" x="341.890345" xlink:href="#mca4d2b4839" y="61.55996"/>
     <use style="fill:#1f77b4;stroke:#ffffff;stroke-width:0.75;" x="349.02561" xlink:href="#mca4d2b4839" y="61.283901"/>
     <use style="fill:#1f77b4;stroke:#ffffff;stroke-width:0.75;" x="356.160875" xlink:href="#mca4d2b4839" y="60.731782"/>
     <use style="fill:#1f77b4;stroke:#ffffff;stroke-width:0.75;" x="363.296139" xlink:href="#mca4d2b4839" y="60.455723"/>
     <use style="fill:#1f77b4;stroke:#ffffff;stroke-width:0.75;" x="370.431404" xlink:href="#mca4d2b4839" y="60.179663"/>
     <use style="fill:#1f77b4;stroke:#ffffff;stroke-width:0.75;" x="377.566669" xlink:href="#mca4d2b4839" y="59.259465"/>
     <use style="fill:#1f77b4;stroke:#ffffff;stroke-width:0.75;" x="384.701934" xlink:href="#mca4d2b4839" y="58.523307"/>
     <use style="fill:#1f77b4;stroke:#ffffff;stroke-width:0.75;" x="391.837198" xlink:href="#mca4d2b4839" y="57.695129"/>
     <use style="fill:#1f77b4;stroke:#ffffff;stroke-width:0.75;" x="398.972463" xlink:href="#mca4d2b4839" y="56.958971"/>
     <use style="fill:#1f77b4;stroke:#ffffff;stroke-width:0.75;" x="406.107728" xlink:href="#mca4d2b4839" y="56.498872"/>
     <use style="fill:#1f77b4;stroke:#ffffff;stroke-width:0.75;" x="413.242993" xlink:href="#mca4d2b4839" y="56.498872"/>
     <use style="fill:#1f77b4;stroke:#ffffff;stroke-width:0.75;" x="420.378257" xlink:href="#mca4d2b4839" y="55.946753"/>
     <use style="fill:#1f77b4;stroke:#ffffff;stroke-width:0.75;" x="427.513522" xlink:href="#mca4d2b4839" y="55.946753"/>
     <use style="fill:#1f77b4;stroke:#ffffff;stroke-width:0.75;" x="434.648787" xlink:href="#mca4d2b4839" y="55.578674"/>
     <use style="fill:#1f77b4;stroke:#ffffff;stroke-width:0.75;" x="441.784052" xlink:href="#mca4d2b4839" y="55.302615"/>
     <use style="fill:#1f77b4;stroke:#ffffff;stroke-width:0.75;" x="448.919316" xlink:href="#mca4d2b4839" y="55.118575"/>
     <use style="fill:#1f77b4;stroke:#ffffff;stroke-width:0.75;" x="456.054581" xlink:href="#mca4d2b4839" y="54.750496"/>
     <use style="fill:#1f77b4;stroke:#ffffff;stroke-width:0.75;" x="463.189846" xlink:href="#mca4d2b4839" y="54.290397"/>
     <use style="fill:#1f77b4;stroke:#ffffff;stroke-width:0.75;" x="470.325111" xlink:href="#mca4d2b4839" y="53.922318"/>
     <use style="fill:#1f77b4;stroke:#ffffff;stroke-width:0.75;" x="477.460375" xlink:href="#mca4d2b4839" y="53.646259"/>
     <use style="fill:#1f77b4;stroke:#ffffff;stroke-width:0.75;" x="484.59564" xlink:href="#mca4d2b4839" y="51.897883"/>
     <use style="fill:#1f77b4;stroke:#ffffff;stroke-width:0.75;" x="491.730905" xlink:href="#mca4d2b4839" y="51.713844"/>
     <use style="fill:#1f77b4;stroke:#ffffff;stroke-width:0.75;" x="498.866169" xlink:href="#mca4d2b4839" y="51.713844"/>
     <use style="fill:#1f77b4;stroke:#ffffff;stroke-width:0.75;" x="506.001434" xlink:href="#mca4d2b4839" y="50.977685"/>
     <use style="fill:#1f77b4;stroke:#ffffff;stroke-width:0.75;" x="513.136699" xlink:href="#mca4d2b4839" y="50.977685"/>
     <use style="fill:#1f77b4;stroke:#ffffff;stroke-width:0.75;" x="520.271964" xlink:href="#mca4d2b4839" y="50.241527"/>
     <use style="fill:#1f77b4;stroke:#ffffff;stroke-width:0.75;" x="527.407228" xlink:href="#mca4d2b4839" y="50.241527"/>
     <use style="fill:#1f77b4;stroke:#ffffff;stroke-width:0.75;" x="534.542493" xlink:href="#mca4d2b4839" y="49.413349"/>
     <use style="fill:#1f77b4;stroke:#ffffff;stroke-width:0.75;" x="541.677758" xlink:href="#mca4d2b4839" y="49.413349"/>
     <use style="fill:#1f77b4;stroke:#ffffff;stroke-width:0.75;" x="548.813023" xlink:href="#mca4d2b4839" y="48.86123"/>
     <use style="fill:#1f77b4;stroke:#ffffff;stroke-width:0.75;" x="555.948287" xlink:href="#mca4d2b4839" y="48.493151"/>
     <use style="fill:#1f77b4;stroke:#ffffff;stroke-width:0.75;" x="563.083552" xlink:href="#mca4d2b4839" y="48.309112"/>
     <use style="fill:#1f77b4;stroke:#ffffff;stroke-width:0.75;" x="570.218817" xlink:href="#mca4d2b4839" y="47.664973"/>
     <use style="fill:#1f77b4;stroke:#ffffff;stroke-width:0.75;" x="577.354082" xlink:href="#mca4d2b4839" y="46.928815"/>
     <use style="fill:#1f77b4;stroke:#ffffff;stroke-width:0.75;" x="584.489346" xlink:href="#mca4d2b4839" y="46.836795"/>
     <use style="fill:#1f77b4;stroke:#ffffff;stroke-width:0.75;" x="591.624611" xlink:href="#mca4d2b4839" y="46.468716"/>
     <use style="fill:#1f77b4;stroke:#ffffff;stroke-width:0.75;" x="598.759876" xlink:href="#mca4d2b4839" y="45.640538"/>
     <use style="fill:#1f77b4;stroke:#ffffff;stroke-width:0.75;" x="605.89514" xlink:href="#mca4d2b4839" y="44.260241"/>
     <use style="fill:#1f77b4;stroke:#ffffff;stroke-width:0.75;" x="613.030405" xlink:href="#mca4d2b4839" y="44.260241"/>
     <use style="fill:#1f77b4;stroke:#ffffff;stroke-width:0.75;" x="620.16567" xlink:href="#mca4d2b4839" y="44.260241"/>
     <use style="fill:#1f77b4;stroke:#ffffff;stroke-width:0.75;" x="627.300935" xlink:href="#mca4d2b4839" y="44.260241"/>
     <use style="fill:#1f77b4;stroke:#ffffff;stroke-width:0.75;" x="634.436199" xlink:href="#mca4d2b4839" y="44.260241"/>
     <use style="fill:#1f77b4;stroke:#ffffff;stroke-width:0.75;" x="641.571464" xlink:href="#mca4d2b4839" y="44.168222"/>
     <use style="fill:#1f77b4;stroke:#ffffff;stroke-width:0.75;" x="648.706729" xlink:href="#mca4d2b4839" y="43.708123"/>
     <use style="fill:#1f77b4;stroke:#ffffff;stroke-width:0.75;" x="655.841994" xlink:href="#mca4d2b4839" y="41.867727"/>
     <use style="fill:#1f77b4;stroke:#ffffff;stroke-width:0.75;" x="662.977258" xlink:href="#mca4d2b4839" y="41.591668"/>
     <use style="fill:#1f77b4;stroke:#ffffff;stroke-width:0.75;" x="670.112523" xlink:href="#mca4d2b4839" y="41.315608"/>
     <use style="fill:#1f77b4;stroke:#ffffff;stroke-width:0.75;" x="677.247788" xlink:href="#mca4d2b4839" y="40.48743"/>
     <use style="fill:#1f77b4;stroke:#ffffff;stroke-width:0.75;" x="684.383053" xlink:href="#mca4d2b4839" y="40.119351"/>
     <use style="fill:#1f77b4;stroke:#ffffff;stroke-width:0.75;" x="691.518317" xlink:href="#mca4d2b4839" y="40.119351"/>
     <use style="fill:#1f77b4;stroke:#ffffff;stroke-width:0.75;" x="698.653582" xlink:href="#mca4d2b4839" y="40.119351"/>
     <use style="fill:#1f77b4;stroke:#ffffff;stroke-width:0.75;" x="705.788847" xlink:href="#mca4d2b4839" y="40.119351"/>
     <use style="fill:#1f77b4;stroke:#ffffff;stroke-width:0.75;" x="712.924112" xlink:href="#mca4d2b4839" y="40.119351"/>
     <use style="fill:#1f77b4;stroke:#ffffff;stroke-width:0.75;" x="720.059376" xlink:href="#mca4d2b4839" y="40.119351"/>
     <use style="fill:#1f77b4;stroke:#ffffff;stroke-width:0.75;" x="727.194641" xlink:href="#mca4d2b4839" y="39.567233"/>
     <use style="fill:#1f77b4;stroke:#ffffff;stroke-width:0.75;" x="734.329906" xlink:href="#mca4d2b4839" y="39.567233"/>
     <use style="fill:#1f77b4;stroke:#ffffff;stroke-width:0.75;" x="741.46517" xlink:href="#mca4d2b4839" y="39.291173"/>
    </g>
   </g>
   <g id="line2d_22"/>
   <g id="line2d_23"/>
   <g id="line2d_24">
    <path clip-path="url(#p0754e6e297)" d="M 741.46517 288.430125 
L 741.46517 22.318125 
" style="fill:none;stroke:#ff0000;stroke-linecap:square;stroke-width:1.5;"/>
   </g>
   <g id="patch_3">
    <path d="M 59.690625 259.218446 
L 59.690625 38.370976 
" style="fill:none;stroke:#000000;stroke-linecap:square;stroke-linejoin:miter;stroke-width:0.8;"/>
   </g>
   <g id="patch_4">
    <path d="M 92.15608 288.430125 
L 693.896739 288.430125 
" style="fill:none;stroke:#000000;stroke-linecap:square;stroke-linejoin:miter;stroke-width:0.8;"/>
   </g>
   <g id="text_22">
    <!-- php_php-fuzz-parser (23h, 20 trials/fuzzer) -->
    <g transform="translate(288.46125 16.318125)scale(0.12 -0.12)">
     <defs>
      <path d="M 18.109375 8.203125 
L 18.109375 -20.796875 
L 9.078125 -20.796875 
L 9.078125 54.6875 
L 18.109375 54.6875 
L 18.109375 46.390625 
Q 20.953125 51.265625 25.265625 53.625 
Q 29.59375 56 35.59375 56 
Q 45.5625 56 51.78125 48.09375 
Q 58.015625 40.1875 58.015625 27.296875 
Q 58.015625 14.40625 51.78125 6.484375 
Q 45.5625 -1.421875 35.59375 -1.421875 
Q 29.59375 -1.421875 25.265625 0.953125 
Q 20.953125 3.328125 18.109375 8.203125 
z
M 48.6875 27.296875 
Q 48.6875 37.203125 44.609375 42.84375 
Q 40.53125 48.484375 33.40625 48.484375 
Q 26.265625 48.484375 22.1875 42.84375 
Q 18.109375 37.203125 18.109375 27.296875 
Q 18.109375 17.390625 22.1875 11.75 
Q 26.265625 6.109375 33.40625 6.109375 
Q 40.53125 6.109375 44.609375 11.75 
Q 48.6875 17.390625 48.6875 27.296875 
z
" id="DejaVuSans-112"/>
      <path d="M 50.984375 -16.609375 
L 50.984375 -23.578125 
L -0.984375 -23.578125 
L -0.984375 -16.609375 
z
" id="DejaVuSans-95"/>
      <path d="M 4.890625 31.390625 
L 31.203125 31.390625 
L 31.203125 23.390625 
L 4.890625 23.390625 
z
" id="DejaVuSans-45"/>
      <path d="M 37.109375 75.984375 
L 37.109375 68.5 
L 28.515625 68.5 
Q 23.6875 68.5 21.796875 66.546875 
Q 19.921875 64.59375 19.921875 59.515625 
L 19.921875 54.6875 
L 34.71875 54.6875 
L 34.71875 47.703125 
L 19.921875 47.703125 
L 19.921875 0 
L 10.890625 0 
L 10.890625 47.703125 
L 2.296875 47.703125 
L 2.296875 54.6875 
L 10.890625 54.6875 
L 10.890625 58.5 
Q 10.890625 67.625 15.140625 71.796875 
Q 19.390625 75.984375 28.609375 75.984375 
z
" id="DejaVuSans-102"/>
      <path d="M 5.515625 54.6875 
L 48.1875 54.6875 
L 48.1875 46.484375 
L 14.40625 7.171875 
L 48.1875 7.171875 
L 48.1875 0 
L 4.296875 0 
L 4.296875 8.203125 
L 38.09375 47.515625 
L 5.515625 47.515625 
z
" id="DejaVuSans-122"/>
      <path d="M 44.28125 53.078125 
L 44.28125 44.578125 
Q 40.484375 46.53125 36.375 47.5 
Q 32.28125 48.484375 27.875 48.484375 
Q 21.1875 48.484375 17.84375 46.4375 
Q 14.5 44.390625 14.5 40.28125 
Q 14.5 37.15625 16.890625 35.375 
Q 19.28125 33.59375 26.515625 31.984375 
L 29.59375 31.296875 
Q 39.15625 29.25 43.1875 25.515625 
Q 47.21875 21.78125 47.21875 15.09375 
Q 47.21875 7.46875 41.1875 3.015625 
Q 35.15625 -1.421875 24.609375 -1.421875 
Q 20.21875 -1.421875 15.453125 -0.5625 
Q 10.6875 0.296875 5.421875 2 
L 5.421875 11.28125 
Q 10.40625 8.6875 15.234375 7.390625 
Q 20.0625 6.109375 24.8125 6.109375 
Q 31.15625 6.109375 34.5625 8.28125 
Q 37.984375 10.453125 37.984375 14.40625 
Q 37.984375 18.0625 35.515625 20.015625 
Q 33.0625 21.96875 24.703125 23.78125 
L 21.578125 24.515625 
Q 13.234375 26.265625 9.515625 29.90625 
Q 5.8125 33.546875 5.8125 39.890625 
Q 5.8125 47.609375 11.28125 51.796875 
Q 16.75 56 26.8125 56 
Q 31.78125 56 36.171875 55.265625 
Q 40.578125 54.546875 44.28125 53.078125 
z
" id="DejaVuSans-115"/>
      <path d="M 11.71875 12.40625 
L 22.015625 12.40625 
L 22.015625 4 
L 14.015625 -11.625 
L 7.71875 -11.625 
L 11.71875 4 
z
" id="DejaVuSans-44"/>
      <path d="M 9.421875 75.984375 
L 18.40625 75.984375 
L 18.40625 0 
L 9.421875 0 
z
" id="DejaVuSans-108"/>
      <path d="M 25.390625 72.90625 
L 33.6875 72.90625 
L 8.296875 -9.28125 
L 0 -9.28125 
z
" id="DejaVuSans-47"/>
     </defs>
     <use xlink:href="#DejaVuSans-112"/>
     <use x="63.476562" xlink:href="#DejaVuSans-104"/>
     <use x="126.855469" xlink:href="#DejaVuSans-112"/>
     <use x="190.332031" xlink:href="#DejaVuSans-95"/>
     <use x="240.332031" xlink:href="#DejaVuSans-112"/>
     <use x="303.808594" xlink:href="#DejaVuSans-104"/>
     <use x="367.1875" xlink:href="#DejaVuSans-112"/>
     <use x="430.664062" xlink:href="#DejaVuSans-45"/>
     <use x="466.748047" xlink:href="#DejaVuSans-102"/>
     <use x="501.953125" xlink:href="#DejaVuSans-117"/>
     <use x="565.332031" xlink:href="#DejaVuSans-122"/>
     <use x="617.822266" xlink:href="#DejaVuSans-122"/>
     <use x="670.3125" xlink:href="#DejaVuSans-45"/>
     <use x="706.396484" xlink:href="#DejaVuSans-112"/>
     <use x="769.873047" xlink:href="#DejaVuSans-97"/>
     <use x="831.152344" xlink:href="#DejaVuSans-114"/>
     <use x="872.265625" xlink:href="#DejaVuSans-115"/>
     <use x="924.365234" xlink:href="#DejaVuSans-101"/>
     <use x="985.888672" xlink:href="#DejaVuSans-114"/>
     <use x="1027.001953" xlink:href="#DejaVuSans-32"/>
     <use x="1058.789062" xlink:href="#DejaVuSans-40"/>
     <use x="1097.802734" xlink:href="#DejaVuSans-50"/>
     <use x="1161.425781" xlink:href="#DejaVuSans-51"/>
     <use x="1225.048828" xlink:href="#DejaVuSans-104"/>
     <use x="1288.427734" xlink:href="#DejaVuSans-44"/>
     <use x="1320.214844" xlink:href="#DejaVuSans-32"/>
     <use x="1352.001953" xlink:href="#DejaVuSans-50"/>
     <use x="1415.625" xlink:href="#DejaVuSans-48"/>
     <use x="1479.248047" xlink:href="#DejaVuSans-32"/>
     <use x="1511.035156" xlink:href="#DejaVuSans-116"/>
     <use x="1550.244141" xlink:href="#DejaVuSans-114"/>
     <use x="1591.357422" xlink:href="#DejaVuSans-105"/>
     <use x="1619.140625" xlink:href="#DejaVuSans-97"/>
     <use x="1680.419922" xlink:href="#DejaVuSans-108"/>
     <use x="1708.203125" xlink:href="#DejaVuSans-115"/>
     <use x="1760.302734" xlink:href="#DejaVuSans-47"/>
     <use x="1793.994141" xlink:href="#DejaVuSans-102"/>
     <use x="1829.199219" xlink:href="#DejaVuSans-117"/>
     <use x="1892.578125" xlink:href="#DejaVuSans-122"/>
     <use x="1945.068359" xlink:href="#DejaVuSans-122"/>
     <use x="1997.558594" xlink:href="#DejaVuSans-101"/>
     <use x="2059.082031" xlink:href="#DejaVuSans-114"/>
     <use x="2100.195312" xlink:href="#DejaVuSans-41"/>
    </g>
   </g>
   <g id="legend_1">
    <g id="line2d_25">
     <path d="M 777.930625 30.416563 
L 797.930625 30.416563 
" style="fill:none;stroke:#98df8a;stroke-linecap:square;stroke-width:1.5;"/>
    </g>
    <g id="line2d_26">
     <defs>
      <path d="M -0 3 
L 3 -3 
L -3 -3 
z
" id="m2283dd6773" style="stroke:#98df8a;stroke-linejoin:miter;"/>
     </defs>
     <g>
      <use style="fill:#98df8a;stroke:#98df8a;stroke-linejoin:miter;" x="787.930625" xlink:href="#m2283dd6773" y="30.416563"/>
     </g>
    </g>
    <g id="text_23">
     <!-- z3_new -->
     <g transform="translate(805.930625 33.916563)scale(0.1 -0.1)">
      <defs>
       <path d="M 4.203125 54.6875 
L 13.1875 54.6875 
L 24.421875 12.015625 
L 35.59375 54.6875 
L 46.1875 54.6875 
L 57.421875 12.015625 
L 68.609375 54.6875 
L 77.59375 54.6875 
L 63.28125 0 
L 52.6875 0 
L 40.921875 44.828125 
L 29.109375 0 
L 18.5 0 
z
" id="DejaVuSans-119"/>
      </defs>
      <use xlink:href="#DejaVuSans-122"/>
      <use x="52.490234" xlink:href="#DejaVuSans-51"/>
      <use x="116.113281" xlink:href="#DejaVuSans-95"/>
      <use x="166.113281" xlink:href="#DejaVuSans-110"/>
      <use x="229.492188" xlink:href="#DejaVuSans-101"/>
      <use x="291.015625" xlink:href="#DejaVuSans-119"/>
     </g>
    </g>
    <g id="line2d_27">
     <path d="M 777.930625 45.372813 
L 797.930625 45.372813 
" style="fill:none;stroke:#1f77b4;stroke-linecap:square;stroke-width:1.5;"/>
    </g>
    <g id="line2d_28">
     <defs>
      <path d="M 0 3 
C 0.795609 3 1.55874 2.683901 2.12132 2.12132 
C 2.683901 1.55874 3 0.795609 3 0 
C 3 -0.795609 2.683901 -1.55874 2.12132 -2.12132 
C 1.55874 -2.683901 0.795609 -3 0 -3 
C -0.795609 -3 -1.55874 -2.683901 -2.12132 -2.12132 
C -2.683901 -1.55874 -3 -0.795609 -3 0 
C -3 0.795609 -2.683901 1.55874 -2.12132 2.12132 
C -1.55874 2.683901 -0.795609 3 0 3 
z
" id="m84bc40b0d3" style="stroke:#1f77b4;"/>
     </defs>
     <g>
      <use style="fill:#1f77b4;stroke:#1f77b4;" x="787.930625" xlink:href="#m84bc40b0d3" y="45.372813"/>
     </g>
    </g>
    <g id="text_24">
     <!-- jigsaw_new -->
     <g transform="translate(805.930625 48.872813)scale(0.1 -0.1)">
      <defs>
       <path d="M 9.421875 54.6875 
L 18.40625 54.6875 
L 18.40625 -0.984375 
Q 18.40625 -11.421875 14.421875 -16.109375 
Q 10.453125 -20.796875 1.609375 -20.796875 
L -1.8125 -20.796875 
L -1.8125 -13.1875 
L 0.59375 -13.1875 
Q 5.71875 -13.1875 7.5625 -10.8125 
Q 9.421875 -8.453125 9.421875 -0.984375 
z
M 9.421875 75.984375 
L 18.40625 75.984375 
L 18.40625 64.59375 
L 9.421875 64.59375 
z
" id="DejaVuSans-106"/>
      </defs>
      <use xlink:href="#DejaVuSans-106"/>
      <use x="27.783203" xlink:href="#DejaVuSans-105"/>
      <use x="55.566406" xlink:href="#DejaVuSans-103"/>
      <use x="119.042969" xlink:href="#DejaVuSans-115"/>
      <use x="171.142578" xlink:href="#DejaVuSans-97"/>
      <use x="232.421875" xlink:href="#DejaVuSans-119"/>
      <use x="314.208984" xlink:href="#DejaVuSans-95"/>
      <use x="364.208984" xlink:href="#DejaVuSans-110"/>
      <use x="427.587891" xlink:href="#DejaVuSans-101"/>
      <use x="489.111328" xlink:href="#DejaVuSans-119"/>
     </g>
    </g>
   </g>
  </g>
 </g>
 <defs>
  <clipPath id="p0754e6e297">
   <rect height="266.112" width="714.24" x="59.690625" y="22.318125"/>
  </clipPath>
 </defs>
</svg>
