<?xml version="1.0" encoding="utf-8" standalone="no"?>
<!DOCTYPE svg PUBLIC "-//W3C//DTD SVG 1.1//EN"
  "http://www.w3.org/Graphics/SVG/1.1/DTD/svg11.dtd">
<!-- Created with matplotlib (https://matplotlib.org/) -->
<svg height="361.217877pt" version="1.1" viewBox="0 0 417.648125 361.217877" width="417.648125pt" xmlns="http://www.w3.org/2000/svg" xmlns:xlink="http://www.w3.org/1999/xlink">
 <metadata>
  <rdf:RDF xmlns:cc="http://creativecommons.org/ns#" xmlns:dc="http://purl.org/dc/elements/1.1/" xmlns:rdf="http://www.w3.org/1999/02/22-rdf-syntax-ns#">
   <cc:Work>
    <dc:type rdf:resource="http://purl.org/dc/dcmitype/StillImage"/>
    <dc:date>2020-10-26T22:25:48.522552</dc:date>
    <dc:format>image/svg+xml</dc:format>
    <dc:creator>
     <cc:Agent>
      <dc:title>Matplotlib v3.3.2, https://matplotlib.org/</dc:title>
     </cc:Agent>
    </dc:creator>
   </cc:Work>
  </rdf:RDF>
 </metadata>
 <defs>
  <style type="text/css">*{stroke-linecap:butt;stroke-linejoin:round;}</style>
 </defs>
 <g id="figure_1">
  <g id="patch_1">
   <path d="M 0 361.217877 
L 417.648125 361.217877 
L 417.648125 0 
L 0 0 
z
" style="fill:#ffffff;"/>
  </g>
  <g id="axes_1">
   <g id="patch_2">
    <path d="M 53.328125 288.430125 
L 410.448125 288.430125 
L 410.448125 22.318125 
L 53.328125 22.318125 
z
" style="fill:#ffffff;"/>
   </g>
   <g id="PolyCollection_1">
    <defs>
     <path d="M 97.990364 -84.883752 
L 97.945886 -84.883752 
L 97.942483 -87.327388 
L 97.938714 -89.771025 
L 97.934567 -92.214661 
L 97.930037 -94.658298 
L 97.925121 -97.101934 
L 97.919824 -99.54557 
L 97.914159 -101.989207 
L 97.908144 -104.432843 
L 97.901806 -106.876479 
L 97.895181 -109.320116 
L 97.888311 -111.763752 
L 97.881249 -114.207388 
L 97.874051 -116.651025 
L 97.866784 -119.094661 
L 97.859517 -121.538298 
L 97.852327 -123.981934 
L 97.84529 -126.42557 
L 97.838487 -128.869207 
L 97.831993 -131.312843 
L 97.825886 -133.756479 
L 97.820233 -136.200116 
L 97.815098 -138.643752 
L 97.810533 -141.087388 
L 97.806578 -143.531025 
L 97.803261 -145.974661 
L 97.800593 -148.418298 
L 97.798568 -150.861934 
L 97.797163 -153.30557 
L 97.796334 -155.749207 
L 97.79602 -158.192843 
L 97.79614 -160.636479 
L 97.796594 -163.080116 
L 97.797264 -165.523752 
L 97.798018 -167.967388 
L 97.798706 -170.411025 
L 97.799171 -172.854661 
L 97.799242 -175.298298 
L 97.798746 -177.741934 
L 97.797504 -180.18557 
L 97.795342 -182.629207 
L 97.792088 -185.072843 
L 97.787579 -187.516479 
L 97.781667 -189.960116 
L 97.774221 -192.403752 
L 97.76513 -194.847388 
L 97.754309 -197.291025 
L 97.741702 -199.734661 
L 97.727286 -202.178298 
L 97.711069 -204.621934 
L 97.693099 -207.06557 
L 97.673463 -209.509207 
L 97.652283 -211.952843 
L 97.629724 -214.396479 
L 97.605986 -216.840116 
L 97.581307 -219.283752 
L 97.555957 -221.727388 
L 97.530234 -224.171025 
L 97.504462 -226.614661 
L 97.478982 -229.058298 
L 97.454148 -231.501934 
L 97.430321 -233.94557 
L 97.407856 -236.389207 
L 97.387101 -238.832843 
L 97.368387 -241.276479 
L 97.352018 -243.720116 
L 97.338269 -246.163752 
L 97.327374 -248.607388 
L 97.319525 -251.051025 
L 97.314866 -253.494661 
L 97.313489 -255.938298 
L 97.315434 -258.381934 
L 97.320684 -260.82557 
L 97.329172 -263.269207 
L 97.340779 -265.712843 
L 97.355336 -268.156479 
L 97.372634 -270.600116 
L 97.392425 -273.043752 
L 97.414427 -275.487388 
L 97.438338 -277.931025 
L 97.463834 -280.374661 
L 97.490585 -282.818298 
L 97.518255 -285.261934 
L 97.546515 -287.70557 
L 97.575046 -290.149207 
L 97.603543 -292.592843 
L 97.631725 -295.036479 
L 97.659338 -297.480116 
L 97.686152 -299.923752 
L 97.711972 -302.367388 
L 97.736635 -304.811025 
L 97.760007 -307.254661 
L 97.78199 -309.698298 
L 97.802514 -312.141934 
L 97.821539 -314.58557 
L 97.839051 -317.029207 
L 97.855061 -319.472843 
L 97.869599 -321.916479 
L 97.882713 -324.360116 
L 97.894466 -326.803752 
L 98.041784 -326.803752 
L 98.041784 -326.803752 
L 98.053537 -324.360116 
L 98.066651 -321.916479 
L 98.081189 -319.472843 
L 98.097199 -317.029207 
L 98.114711 -314.58557 
L 98.133736 -312.141934 
L 98.15426 -309.698298 
L 98.176243 -307.254661 
L 98.199615 -304.811025 
L 98.224278 -302.367388 
L 98.250098 -299.923752 
L 98.276912 -297.480116 
L 98.304525 -295.036479 
L 98.332707 -292.592843 
L 98.361204 -290.149207 
L 98.389735 -287.70557 
L 98.417995 -285.261934 
L 98.445665 -282.818298 
L 98.472416 -280.374661 
L 98.497912 -277.931025 
L 98.521823 -275.487388 
L 98.543825 -273.043752 
L 98.563616 -270.600116 
L 98.580914 -268.156479 
L 98.595471 -265.712843 
L 98.607078 -263.269207 
L 98.615566 -260.82557 
L 98.620816 -258.381934 
L 98.622761 -255.938298 
L 98.621384 -253.494661 
L 98.616725 -251.051025 
L 98.608876 -248.607388 
L 98.597981 -246.163752 
L 98.584232 -243.720116 
L 98.567863 -241.276479 
L 98.549149 -238.832843 
L 98.528394 -236.389207 
L 98.505929 -233.94557 
L 98.482102 -231.501934 
L 98.457268 -229.058298 
L 98.431788 -226.614661 
L 98.406016 -224.171025 
L 98.380293 -221.727388 
L 98.354943 -219.283752 
L 98.330264 -216.840116 
L 98.306526 -214.396479 
L 98.283967 -211.952843 
L 98.262787 -209.509207 
L 98.243151 -207.06557 
L 98.225181 -204.621934 
L 98.208964 -202.178298 
L 98.194548 -199.734661 
L 98.181941 -197.291025 
L 98.17112 -194.847388 
L 98.162029 -192.403752 
L 98.154583 -189.960116 
L 98.148671 -187.516479 
L 98.144162 -185.072843 
L 98.140908 -182.629207 
L 98.138746 -180.18557 
L 98.137504 -177.741934 
L 98.137008 -175.298298 
L 98.137079 -172.854661 
L 98.137544 -170.411025 
L 98.138232 -167.967388 
L 98.138986 -165.523752 
L 98.139656 -163.080116 
L 98.14011 -160.636479 
L 98.14023 -158.192843 
L 98.139916 -155.749207 
L 98.139087 -153.30557 
L 98.137682 -150.861934 
L 98.135657 -148.418298 
L 98.132989 -145.974661 
L 98.129672 -143.531025 
L 98.125717 -141.087388 
L 98.121152 -138.643752 
L 98.116017 -136.200116 
L 98.110364 -133.756479 
L 98.104257 -131.312843 
L 98.097763 -128.869207 
L 98.09096 -126.42557 
L 98.083923 -123.981934 
L 98.076733 -121.538298 
L 98.069466 -119.094661 
L 98.062199 -116.651025 
L 98.055001 -114.207388 
L 98.047939 -111.763752 
L 98.041069 -109.320116 
L 98.034444 -106.876479 
L 98.028106 -104.432843 
L 98.022091 -101.989207 
L 98.016426 -99.54557 
L 98.011129 -97.101934 
L 98.006213 -94.658298 
L 98.001683 -92.214661 
L 97.997536 -89.771025 
L 97.993767 -87.327388 
L 97.990364 -84.883752 
z
" id="m280c0fea23" style="stroke:#3f3f3f;stroke-width:1.5;"/>
    </defs>
    <g clip-path="url(#p0470639e7b)">
     <use style="fill:#3274a1;stroke:#3f3f3f;stroke-width:1.5;" x="0" xlink:href="#m280c0fea23" y="361.217877"/>
    </g>
   </g>
   <g id="PolyCollection_2">
    <defs>
     <path d="M 188.755632 -213.471236 
L 185.740618 -213.471236 
L 185.478207 -213.512319 
L 185.181849 -213.553402 
L 184.849316 -213.594485 
L 184.478572 -213.635568 
L 184.067828 -213.676651 
L 183.615581 -213.717734 
L 183.12065 -213.758817 
L 182.582208 -213.7999 
L 181.999791 -213.840983 
L 181.373302 -213.882066 
L 180.703002 -213.923149 
L 179.989485 -213.964232 
L 179.233644 -214.005314 
L 178.43663 -214.046397 
L 177.599799 -214.08748 
L 176.724669 -214.128563 
L 175.812872 -214.169646 
L 174.866118 -214.210729 
L 173.886177 -214.251812 
L 172.874873 -214.292895 
L 171.834106 -214.333978 
L 170.765899 -214.375061 
L 169.672463 -214.416144 
L 168.556299 -214.457227 
L 167.420306 -214.49831 
L 166.267914 -214.539393 
L 165.103221 -214.580476 
L 163.931124 -214.621559 
L 162.757441 -214.662642 
L 161.589006 -214.703725 
L 160.433728 -214.744808 
L 159.300606 -214.785891 
L 158.199686 -214.826974 
L 157.141957 -214.868057 
L 156.139189 -214.90914 
L 155.203699 -214.950223 
L 154.348062 -214.991306 
L 153.584777 -215.032389 
L 152.925881 -215.073472 
L 152.382554 -215.114555 
L 151.964707 -215.155638 
L 151.680591 -215.196721 
L 151.536432 -215.237804 
L 151.536125 -215.278887 
L 151.680991 -215.31997 
L 151.969621 -215.361053 
L 152.397813 -215.402136 
L 152.958613 -215.443219 
L 153.642453 -215.484302 
L 154.437393 -215.525384 
L 155.329452 -215.566467 
L 156.303014 -215.60755 
L 157.341303 -215.648633 
L 158.426888 -215.689716 
L 159.54222 -215.730799 
L 160.670157 -215.771882 
L 161.79447 -215.812965 
L 162.900304 -215.854048 
L 163.974572 -215.895131 
L 165.006272 -215.936214 
L 165.986719 -215.977297 
L 166.909679 -216.01838 
L 167.771402 -216.059463 
L 168.570565 -216.100546 
L 169.308124 -216.141629 
L 169.987088 -216.182712 
L 170.612226 -216.223795 
L 171.18973 -216.264878 
L 171.726841 -216.305961 
L 172.23146 -216.347044 
L 172.711762 -216.388127 
L 173.175832 -216.42921 
L 173.631323 -216.470293 
L 174.085175 -216.511376 
L 174.543365 -216.552459 
L 175.010738 -216.593542 
L 175.490889 -216.634625 
L 175.986104 -216.675708 
L 176.49737 -216.716791 
L 177.024433 -216.757874 
L 177.565903 -216.798957 
L 178.119399 -216.84004 
L 178.681719 -216.881123 
L 179.249032 -216.922206 
L 179.817078 -216.963289 
L 180.381362 -217.004372 
L 180.937345 -217.045455 
L 181.480616 -217.086537 
L 182.007038 -217.12762 
L 182.512878 -217.168703 
L 182.994898 -217.209786 
L 183.450426 -217.250869 
L 183.87739 -217.291952 
L 184.274334 -217.333035 
L 184.640407 -217.374118 
L 184.975327 -217.415201 
L 185.279337 -217.456284 
L 185.553146 -217.497367 
L 185.797856 -217.53845 
L 188.698394 -217.53845 
L 188.698394 -217.53845 
L 188.943104 -217.497367 
L 189.216913 -217.456284 
L 189.520923 -217.415201 
L 189.855843 -217.374118 
L 190.221916 -217.333035 
L 190.61886 -217.291952 
L 191.045824 -217.250869 
L 191.501352 -217.209786 
L 191.983372 -217.168703 
L 192.489212 -217.12762 
L 193.015634 -217.086537 
L 193.558905 -217.045455 
L 194.114888 -217.004372 
L 194.679172 -216.963289 
L 195.247218 -216.922206 
L 195.814531 -216.881123 
L 196.376851 -216.84004 
L 196.930347 -216.798957 
L 197.471817 -216.757874 
L 197.99888 -216.716791 
L 198.510146 -216.675708 
L 199.005361 -216.634625 
L 199.485512 -216.593542 
L 199.952885 -216.552459 
L 200.411075 -216.511376 
L 200.864927 -216.470293 
L 201.320418 -216.42921 
L 201.784488 -216.388127 
L 202.26479 -216.347044 
L 202.769409 -216.305961 
L 203.30652 -216.264878 
L 203.884024 -216.223795 
L 204.509162 -216.182712 
L 205.188126 -216.141629 
L 205.925685 -216.100546 
L 206.724848 -216.059463 
L 207.586571 -216.01838 
L 208.509531 -215.977297 
L 209.489978 -215.936214 
L 210.521678 -215.895131 
L 211.595946 -215.854048 
L 212.70178 -215.812965 
L 213.826093 -215.771882 
L 214.95403 -215.730799 
L 216.069362 -215.689716 
L 217.154947 -215.648633 
L 218.193236 -215.60755 
L 219.166798 -215.566467 
L 220.058857 -215.525384 
L 220.853797 -215.484302 
L 221.537637 -215.443219 
L 222.098437 -215.402136 
L 222.526629 -215.361053 
L 222.815259 -215.31997 
L 222.960125 -215.278887 
L 222.959818 -215.237804 
L 222.815659 -215.196721 
L 222.531543 -215.155638 
L 222.113696 -215.114555 
L 221.570369 -215.073472 
L 220.911473 -215.032389 
L 220.148188 -214.991306 
L 219.292551 -214.950223 
L 218.357061 -214.90914 
L 217.354293 -214.868057 
L 216.296564 -214.826974 
L 215.195644 -214.785891 
L 214.062522 -214.744808 
L 212.907244 -214.703725 
L 211.738809 -214.662642 
L 210.565126 -214.621559 
L 209.393029 -214.580476 
L 208.228336 -214.539393 
L 207.075944 -214.49831 
L 205.939951 -214.457227 
L 204.823787 -214.416144 
L 203.730351 -214.375061 
L 202.662144 -214.333978 
L 201.621377 -214.292895 
L 200.610073 -214.251812 
L 199.630132 -214.210729 
L 198.683378 -214.169646 
L 197.771581 -214.128563 
L 196.896451 -214.08748 
L 196.05962 -214.046397 
L 195.262606 -214.005314 
L 194.506765 -213.964232 
L 193.793248 -213.923149 
L 193.122948 -213.882066 
L 192.496459 -213.840983 
L 191.914042 -213.7999 
L 191.3756 -213.758817 
L 190.880669 -213.717734 
L 190.428422 -213.676651 
L 190.017678 -213.635568 
L 189.646934 -213.594485 
L 189.314401 -213.553402 
L 189.018043 -213.512319 
L 188.755632 -213.471236 
z
" id="m6ee21c8771" style="stroke:#3f3f3f;stroke-width:1.5;"/>
    </defs>
    <g clip-path="url(#p0470639e7b)">
     <use style="fill:#9fd495;stroke:#3f3f3f;stroke-width:1.5;" x="0" xlink:href="#m6ee21c8771" y="361.217877"/>
    </g>
   </g>
   <g id="PolyCollection_3">
    <defs>
     <path d="M 276.572329 -125.225748 
L 276.483921 -125.225748 
L 276.47714 -126.457851 
L 276.469629 -127.689955 
L 276.461363 -128.922058 
L 276.452329 -130.154162 
L 276.442523 -131.386265 
L 276.431956 -132.618368 
L 276.420649 -133.850472 
L 276.40864 -135.082575 
L 276.395982 -136.314679 
L 276.382744 -137.546782 
L 276.369011 -138.778886 
L 276.354883 -140.010989 
L 276.340474 -141.243093 
L 276.325912 -142.475196 
L 276.311333 -143.7073 
L 276.296885 -144.939403 
L 276.282716 -146.171507 
L 276.26898 -147.40361 
L 276.255825 -148.635713 
L 276.243392 -149.867817 
L 276.231814 -151.09992 
L 276.221203 -152.332024 
L 276.211655 -153.564127 
L 276.20324 -154.796231 
L 276.196 -156.028334 
L 276.189946 -157.260438 
L 276.185054 -158.492541 
L 276.181266 -159.724645 
L 276.178485 -160.956748 
L 276.17658 -162.188852 
L 276.17538 -163.420955 
L 276.174681 -164.653058 
L 276.174249 -165.885162 
L 276.173818 -167.117265 
L 276.173101 -168.349369 
L 276.171792 -169.581472 
L 276.169571 -170.813576 
L 276.166114 -172.045679 
L 276.161096 -173.277783 
L 276.154203 -174.509886 
L 276.145136 -175.74199 
L 276.133618 -176.974093 
L 276.119408 -178.206197 
L 276.102298 -179.4383 
L 276.082132 -180.670403 
L 276.0588 -181.902507 
L 276.032253 -183.13461 
L 276.002503 -184.366714 
L 275.969628 -185.598817 
L 275.933774 -186.830921 
L 275.895154 -188.063024 
L 275.854051 -189.295128 
L 275.810815 -190.527231 
L 275.765859 -191.759335 
L 275.719652 -192.991438 
L 275.672716 -194.223542 
L 275.625616 -195.455645 
L 275.578952 -196.687748 
L 275.533346 -197.919852 
L 275.489431 -199.151955 
L 275.447841 -200.384059 
L 275.409196 -201.616162 
L 275.374091 -202.848266 
L 275.343081 -204.080369 
L 275.31667 -205.312473 
L 275.295301 -206.544576 
L 275.279345 -207.77668 
L 275.269093 -209.008783 
L 275.264749 -210.240887 
L 275.266427 -211.47299 
L 275.274146 -212.705093 
L 275.287832 -213.937197 
L 275.307322 -215.1693 
L 275.332362 -216.401404 
L 275.362622 -217.633507 
L 275.397696 -218.865611 
L 275.437119 -220.097714 
L 275.48037 -221.329818 
L 275.526895 -222.561921 
L 275.576106 -223.794025 
L 275.627407 -225.026128 
L 275.680197 -226.258231 
L 275.733884 -227.490335 
L 275.7879 -228.722438 
L 275.841705 -229.954542 
L 275.894801 -231.186645 
L 275.946732 -232.418749 
L 275.997098 -233.650852 
L 276.045552 -234.882956 
L 276.091803 -236.115059 
L 276.135622 -237.347163 
L 276.176831 -238.579266 
L 276.215312 -239.81137 
L 276.250995 -241.043473 
L 276.283859 -242.275576 
L 276.313923 -243.50768 
L 276.341247 -244.739783 
L 276.365919 -245.971887 
L 276.388055 -247.20399 
L 276.668195 -247.20399 
L 276.668195 -247.20399 
L 276.690331 -245.971887 
L 276.715003 -244.739783 
L 276.742327 -243.50768 
L 276.772391 -242.275576 
L 276.805255 -241.043473 
L 276.840938 -239.81137 
L 276.879419 -238.579266 
L 276.920628 -237.347163 
L 276.964447 -236.115059 
L 277.010698 -234.882956 
L 277.059152 -233.650852 
L 277.109518 -232.418749 
L 277.161449 -231.186645 
L 277.214545 -229.954542 
L 277.26835 -228.722438 
L 277.322366 -227.490335 
L 277.376053 -226.258231 
L 277.428843 -225.026128 
L 277.480144 -223.794025 
L 277.529355 -222.561921 
L 277.57588 -221.329818 
L 277.619131 -220.097714 
L 277.658554 -218.865611 
L 277.693628 -217.633507 
L 277.723888 -216.401404 
L 277.748928 -215.1693 
L 277.768418 -213.937197 
L 277.782104 -212.705093 
L 277.789823 -211.47299 
L 277.791501 -210.240887 
L 277.787157 -209.008783 
L 277.776905 -207.77668 
L 277.760949 -206.544576 
L 277.73958 -205.312473 
L 277.713169 -204.080369 
L 277.682159 -202.848266 
L 277.647054 -201.616162 
L 277.608409 -200.384059 
L 277.566819 -199.151955 
L 277.522904 -197.919852 
L 277.477298 -196.687748 
L 277.430634 -195.455645 
L 277.383534 -194.223542 
L 277.336598 -192.991438 
L 277.290391 -191.759335 
L 277.245435 -190.527231 
L 277.202199 -189.295128 
L 277.161096 -188.063024 
L 277.122476 -186.830921 
L 277.086622 -185.598817 
L 277.053747 -184.366714 
L 277.023997 -183.13461 
L 276.99745 -181.902507 
L 276.974118 -180.670403 
L 276.953952 -179.4383 
L 276.936842 -178.206197 
L 276.922632 -176.974093 
L 276.911114 -175.74199 
L 276.902047 -174.509886 
L 276.895154 -173.277783 
L 276.890136 -172.045679 
L 276.886679 -170.813576 
L 276.884458 -169.581472 
L 276.883149 -168.349369 
L 276.882432 -167.117265 
L 276.882001 -165.885162 
L 276.881569 -164.653058 
L 276.88087 -163.420955 
L 276.87967 -162.188852 
L 276.877765 -160.956748 
L 276.874984 -159.724645 
L 276.871196 -158.492541 
L 276.866304 -157.260438 
L 276.86025 -156.028334 
L 276.85301 -154.796231 
L 276.844595 -153.564127 
L 276.835047 -152.332024 
L 276.824436 -151.09992 
L 276.812858 -149.867817 
L 276.800425 -148.635713 
L 276.78727 -147.40361 
L 276.773534 -146.171507 
L 276.759365 -144.939403 
L 276.744917 -143.7073 
L 276.730338 -142.475196 
L 276.715776 -141.243093 
L 276.701367 -140.010989 
L 276.687239 -138.778886 
L 276.673506 -137.546782 
L 276.660268 -136.314679 
L 276.64761 -135.082575 
L 276.635601 -133.850472 
L 276.624294 -132.618368 
L 276.613727 -131.386265 
L 276.603921 -130.154162 
L 276.594887 -128.922058 
L 276.586621 -127.689955 
L 276.57911 -126.457851 
L 276.572329 -125.225748 
z
" id="m69a2fae580" style="stroke:#3f3f3f;stroke-width:1.5;"/>
    </defs>
    <g clip-path="url(#p0470639e7b)">
     <use style="fill:#c03d3e;stroke:#3f3f3f;stroke-width:1.5;" x="0" xlink:href="#m69a2fae580" y="361.217877"/>
    </g>
   </g>
   <g id="PolyCollection_4">
    <defs>
     <path d="M 365.906688 -120.167343 
L 365.709562 -120.167343 
L 365.695226 -121.646725 
L 365.679403 -123.126108 
L 365.662042 -124.605491 
L 365.643107 -126.084874 
L 365.622579 -127.564257 
L 365.600462 -129.043639 
L 365.576782 -130.523022 
L 365.551592 -132.002405 
L 365.524971 -133.481788 
L 365.497028 -134.961171 
L 365.4679 -136.440553 
L 365.437755 -137.919936 
L 365.40679 -139.399319 
L 365.375228 -140.878702 
L 365.343319 -142.358085 
L 365.311332 -143.837467 
L 365.279558 -145.31685 
L 365.248299 -146.796233 
L 365.217865 -148.275616 
L 365.18857 -149.754999 
L 365.160721 -151.234381 
L 365.134619 -152.713764 
L 365.110542 -154.193147 
L 365.08875 -155.67253 
L 365.069467 -157.151913 
L 365.052888 -158.631295 
L 365.03916 -160.110678 
L 365.028392 -161.590061 
L 365.020638 -163.069444 
L 365.015908 -164.548827 
L 365.014158 -166.028209 
L 365.015293 -167.507592 
L 365.01917 -168.986975 
L 365.025601 -170.466358 
L 365.034356 -171.945741 
L 365.04517 -173.425123 
L 365.057745 -174.904506 
L 365.071764 -176.383889 
L 365.086892 -177.863272 
L 365.102789 -179.342655 
L 365.119113 -180.822037 
L 365.135535 -182.30142 
L 365.151738 -183.780803 
L 365.167431 -185.260186 
L 365.182353 -186.739568 
L 365.19628 -188.218951 
L 365.209025 -189.698334 
L 365.220447 -191.177717 
L 365.230449 -192.6571 
L 365.238984 -194.136482 
L 365.246048 -195.615865 
L 365.251682 -197.095248 
L 365.255972 -198.574631 
L 365.259041 -200.054014 
L 365.261046 -201.533396 
L 365.262174 -203.012779 
L 365.262633 -204.492162 
L 365.262649 -205.971545 
L 365.26246 -207.450928 
L 365.262306 -208.93031 
L 365.262423 -210.409693 
L 365.263042 -211.889076 
L 365.264377 -213.368459 
L 365.266622 -214.847842 
L 365.269951 -216.327224 
L 365.274506 -217.806607 
L 365.280403 -219.28599 
L 365.287724 -220.765373 
L 365.296518 -222.244756 
L 365.306804 -223.724138 
L 365.318565 -225.203521 
L 365.331757 -226.682904 
L 365.346305 -228.162287 
L 365.362111 -229.64167 
L 365.379052 -231.121052 
L 365.396989 -232.600435 
L 365.415768 -234.079818 
L 365.435224 -235.559201 
L 365.455185 -237.038584 
L 365.475477 -238.517966 
L 365.495927 -239.997349 
L 365.516367 -241.476732 
L 365.536638 -242.956115 
L 365.556588 -244.435498 
L 365.576081 -245.91488 
L 365.594992 -247.394263 
L 365.613216 -248.873646 
L 365.630661 -250.353029 
L 365.647252 -251.832412 
L 365.662933 -253.311794 
L 365.677662 -254.791177 
L 365.691414 -256.27056 
L 365.704177 -257.749943 
L 365.715954 -259.229326 
L 365.726759 -260.708708 
L 365.736615 -262.188091 
L 365.745556 -263.667474 
L 365.753623 -265.146857 
L 365.76086 -266.62624 
L 365.85539 -266.62624 
L 365.85539 -266.62624 
L 365.862627 -265.146857 
L 365.870694 -263.667474 
L 365.879635 -262.188091 
L 365.889491 -260.708708 
L 365.900296 -259.229326 
L 365.912073 -257.749943 
L 365.924836 -256.27056 
L 365.938588 -254.791177 
L 365.953317 -253.311794 
L 365.968998 -251.832412 
L 365.985589 -250.353029 
L 366.003034 -248.873646 
L 366.021258 -247.394263 
L 366.040169 -245.91488 
L 366.059662 -244.435498 
L 366.079612 -242.956115 
L 366.099883 -241.476732 
L 366.120323 -239.997349 
L 366.140773 -238.517966 
L 366.161065 -237.038584 
L 366.181026 -235.559201 
L 366.200482 -234.079818 
L 366.219261 -232.600435 
L 366.237198 -231.121052 
L 366.254139 -229.64167 
L 366.269945 -228.162287 
L 366.284493 -226.682904 
L 366.297685 -225.203521 
L 366.309446 -223.724138 
L 366.319732 -222.244756 
L 366.328526 -220.765373 
L 366.335847 -219.28599 
L 366.341744 -217.806607 
L 366.346299 -216.327224 
L 366.349628 -214.847842 
L 366.351873 -213.368459 
L 366.353208 -211.889076 
L 366.353827 -210.409693 
L 366.353944 -208.93031 
L 366.35379 -207.450928 
L 366.353601 -205.971545 
L 366.353617 -204.492162 
L 366.354076 -203.012779 
L 366.355204 -201.533396 
L 366.357209 -200.054014 
L 366.360278 -198.574631 
L 366.364568 -197.095248 
L 366.370202 -195.615865 
L 366.377266 -194.136482 
L 366.385801 -192.6571 
L 366.395803 -191.177717 
L 366.407225 -189.698334 
L 366.41997 -188.218951 
L 366.433897 -186.739568 
L 366.448819 -185.260186 
L 366.464512 -183.780803 
L 366.480715 -182.30142 
L 366.497137 -180.822037 
L 366.513461 -179.342655 
L 366.529358 -177.863272 
L 366.544486 -176.383889 
L 366.558505 -174.904506 
L 366.57108 -173.425123 
L 366.581894 -171.945741 
L 366.590649 -170.466358 
L 366.59708 -168.986975 
L 366.600957 -167.507592 
L 366.602092 -166.028209 
L 366.600342 -164.548827 
L 366.595612 -163.069444 
L 366.587858 -161.590061 
L 366.57709 -160.110678 
L 366.563362 -158.631295 
L 366.546783 -157.151913 
L 366.5275 -155.67253 
L 366.505708 -154.193147 
L 366.481631 -152.713764 
L 366.455529 -151.234381 
L 366.42768 -149.754999 
L 366.398385 -148.275616 
L 366.367951 -146.796233 
L 366.336692 -145.31685 
L 366.304918 -143.837467 
L 366.272931 -142.358085 
L 366.241022 -140.878702 
L 366.20946 -139.399319 
L 366.178495 -137.919936 
L 366.14835 -136.440553 
L 366.119222 -134.961171 
L 366.091279 -133.481788 
L 366.064658 -132.002405 
L 366.039468 -130.523022 
L 366.015788 -129.043639 
L 365.993671 -127.564257 
L 365.973143 -126.084874 
L 365.954208 -124.605491 
L 365.936847 -123.126108 
L 365.921024 -121.646725 
L 365.906688 -120.167343 
z
" id="m4fbdebe31f" style="stroke:#3f3f3f;stroke-width:1.5;"/>
    </defs>
    <g clip-path="url(#p0470639e7b)">
     <use style="fill:#c7c7c7;stroke:#3f3f3f;stroke-width:1.5;" x="0" xlink:href="#m4fbdebe31f" y="361.217877"/>
    </g>
   </g>
   <g id="matplotlib.axis_1">
    <g id="xtick_1">
     <g id="line2d_1">
      <defs>
       <path d="M 0 0 
L 0 3.5 
" id="mae9e42a25c" style="stroke:#000000;stroke-width:0.8;"/>
      </defs>
      <g>
       <use style="stroke:#000000;stroke-width:0.8;" x="97.968125" xlink:href="#mae9e42a25c" y="288.430125"/>
      </g>
     </g>
     <g id="text_1">
      <!-- aflplusplus -->
      <g transform="translate(50.359118 328.897284)rotate(-30)scale(0.1 -0.1)">
       <defs>
        <path d="M 34.28125 27.484375 
Q 23.390625 27.484375 19.1875 25 
Q 14.984375 22.515625 14.984375 16.5 
Q 14.984375 11.71875 18.140625 8.90625 
Q 21.296875 6.109375 26.703125 6.109375 
Q 34.1875 6.109375 38.703125 11.40625 
Q 43.21875 16.703125 43.21875 25.484375 
L 43.21875 27.484375 
z
M 52.203125 31.203125 
L 52.203125 0 
L 43.21875 0 
L 43.21875 8.296875 
Q 40.140625 3.328125 35.546875 0.953125 
Q 30.953125 -1.421875 24.3125 -1.421875 
Q 15.921875 -1.421875 10.953125 3.296875 
Q 6 8.015625 6 15.921875 
Q 6 25.140625 12.171875 29.828125 
Q 18.359375 34.515625 30.609375 34.515625 
L 43.21875 34.515625 
L 43.21875 35.40625 
Q 43.21875 41.609375 39.140625 45 
Q 35.0625 48.390625 27.6875 48.390625 
Q 23 48.390625 18.546875 47.265625 
Q 14.109375 46.140625 10.015625 43.890625 
L 10.015625 52.203125 
Q 14.9375 54.109375 19.578125 55.046875 
Q 24.21875 56 28.609375 56 
Q 40.484375 56 46.34375 49.84375 
Q 52.203125 43.703125 52.203125 31.203125 
z
" id="DejaVuSans-97"/>
        <path d="M 37.109375 75.984375 
L 37.109375 68.5 
L 28.515625 68.5 
Q 23.6875 68.5 21.796875 66.546875 
Q 19.921875 64.59375 19.921875 59.515625 
L 19.921875 54.6875 
L 34.71875 54.6875 
L 34.71875 47.703125 
L 19.921875 47.703125 
L 19.921875 0 
L 10.890625 0 
L 10.890625 47.703125 
L 2.296875 47.703125 
L 2.296875 54.6875 
L 10.890625 54.6875 
L 10.890625 58.5 
Q 10.890625 67.625 15.140625 71.796875 
Q 19.390625 75.984375 28.609375 75.984375 
z
" id="DejaVuSans-102"/>
        <path d="M 9.421875 75.984375 
L 18.40625 75.984375 
L 18.40625 0 
L 9.421875 0 
z
" id="DejaVuSans-108"/>
        <path d="M 18.109375 8.203125 
L 18.109375 -20.796875 
L 9.078125 -20.796875 
L 9.078125 54.6875 
L 18.109375 54.6875 
L 18.109375 46.390625 
Q 20.953125 51.265625 25.265625 53.625 
Q 29.59375 56 35.59375 56 
Q 45.5625 56 51.78125 48.09375 
Q 58.015625 40.1875 58.015625 27.296875 
Q 58.015625 14.40625 51.78125 6.484375 
Q 45.5625 -1.421875 35.59375 -1.421875 
Q 29.59375 -1.421875 25.265625 0.953125 
Q 20.953125 3.328125 18.109375 8.203125 
z
M 48.6875 27.296875 
Q 48.6875 37.203125 44.609375 42.84375 
Q 40.53125 48.484375 33.40625 48.484375 
Q 26.265625 48.484375 22.1875 42.84375 
Q 18.109375 37.203125 18.109375 27.296875 
Q 18.109375 17.390625 22.1875 11.75 
Q 26.265625 6.109375 33.40625 6.109375 
Q 40.53125 6.109375 44.609375 11.75 
Q 48.6875 17.390625 48.6875 27.296875 
z
" id="DejaVuSans-112"/>
        <path d="M 8.5 21.578125 
L 8.5 54.6875 
L 17.484375 54.6875 
L 17.484375 21.921875 
Q 17.484375 14.15625 20.5 10.265625 
Q 23.53125 6.390625 29.59375 6.390625 
Q 36.859375 6.390625 41.078125 11.03125 
Q 45.3125 15.671875 45.3125 23.6875 
L 45.3125 54.6875 
L 54.296875 54.6875 
L 54.296875 0 
L 45.3125 0 
L 45.3125 8.40625 
Q 42.046875 3.421875 37.71875 1 
Q 33.40625 -1.421875 27.6875 -1.421875 
Q 18.265625 -1.421875 13.375 4.4375 
Q 8.5 10.296875 8.5 21.578125 
z
M 31.109375 56 
z
" id="DejaVuSans-117"/>
        <path d="M 44.28125 53.078125 
L 44.28125 44.578125 
Q 40.484375 46.53125 36.375 47.5 
Q 32.28125 48.484375 27.875 48.484375 
Q 21.1875 48.484375 17.84375 46.4375 
Q 14.5 44.390625 14.5 40.28125 
Q 14.5 37.15625 16.890625 35.375 
Q 19.28125 33.59375 26.515625 31.984375 
L 29.59375 31.296875 
Q 39.15625 29.25 43.1875 25.515625 
Q 47.21875 21.78125 47.21875 15.09375 
Q 47.21875 7.46875 41.1875 3.015625 
Q 35.15625 -1.421875 24.609375 -1.421875 
Q 20.21875 -1.421875 15.453125 -0.5625 
Q 10.6875 0.296875 5.421875 2 
L 5.421875 11.28125 
Q 10.40625 8.6875 15.234375 7.390625 
Q 20.0625 6.109375 24.8125 6.109375 
Q 31.15625 6.109375 34.5625 8.28125 
Q 37.984375 10.453125 37.984375 14.40625 
Q 37.984375 18.0625 35.515625 20.015625 
Q 33.0625 21.96875 24.703125 23.78125 
L 21.578125 24.515625 
Q 13.234375 26.265625 9.515625 29.90625 
Q 5.8125 33.546875 5.8125 39.890625 
Q 5.8125 47.609375 11.28125 51.796875 
Q 16.75 56 26.8125 56 
Q 31.78125 56 36.171875 55.265625 
Q 40.578125 54.546875 44.28125 53.078125 
z
" id="DejaVuSans-115"/>
       </defs>
       <use xlink:href="#DejaVuSans-97"/>
       <use x="61.279297" xlink:href="#DejaVuSans-102"/>
       <use x="96.484375" xlink:href="#DejaVuSans-108"/>
       <use x="124.267578" xlink:href="#DejaVuSans-112"/>
       <use x="187.744141" xlink:href="#DejaVuSans-108"/>
       <use x="215.527344" xlink:href="#DejaVuSans-117"/>
       <use x="278.90625" xlink:href="#DejaVuSans-115"/>
       <use x="331.005859" xlink:href="#DejaVuSans-112"/>
       <use x="394.482422" xlink:href="#DejaVuSans-108"/>
       <use x="422.265625" xlink:href="#DejaVuSans-117"/>
       <use x="485.644531" xlink:href="#DejaVuSans-115"/>
      </g>
     </g>
    </g>
    <g id="xtick_2">
     <g id="line2d_2">
      <g>
       <use style="stroke:#000000;stroke-width:0.8;" x="187.248125" xlink:href="#mae9e42a25c" y="288.430125"/>
      </g>
     </g>
     <g id="text_2">
      <!-- honggfuzz -->
      <g transform="translate(141.308924 327.933221)rotate(-30)scale(0.1 -0.1)">
       <defs>
        <path d="M 54.890625 33.015625 
L 54.890625 0 
L 45.90625 0 
L 45.90625 32.71875 
Q 45.90625 40.484375 42.875 44.328125 
Q 39.84375 48.1875 33.796875 48.1875 
Q 26.515625 48.1875 22.3125 43.546875 
Q 18.109375 38.921875 18.109375 30.90625 
L 18.109375 0 
L 9.078125 0 
L 9.078125 75.984375 
L 18.109375 75.984375 
L 18.109375 46.1875 
Q 21.34375 51.125 25.703125 53.5625 
Q 30.078125 56 35.796875 56 
Q 45.21875 56 50.046875 50.171875 
Q 54.890625 44.34375 54.890625 33.015625 
z
" id="DejaVuSans-104"/>
        <path d="M 30.609375 48.390625 
Q 23.390625 48.390625 19.1875 42.75 
Q 14.984375 37.109375 14.984375 27.296875 
Q 14.984375 17.484375 19.15625 11.84375 
Q 23.34375 6.203125 30.609375 6.203125 
Q 37.796875 6.203125 41.984375 11.859375 
Q 46.1875 17.53125 46.1875 27.296875 
Q 46.1875 37.015625 41.984375 42.703125 
Q 37.796875 48.390625 30.609375 48.390625 
z
M 30.609375 56 
Q 42.328125 56 49.015625 48.375 
Q 55.71875 40.765625 55.71875 27.296875 
Q 55.71875 13.875 49.015625 6.21875 
Q 42.328125 -1.421875 30.609375 -1.421875 
Q 18.84375 -1.421875 12.171875 6.21875 
Q 5.515625 13.875 5.515625 27.296875 
Q 5.515625 40.765625 12.171875 48.375 
Q 18.84375 56 30.609375 56 
z
" id="DejaVuSans-111"/>
        <path d="M 54.890625 33.015625 
L 54.890625 0 
L 45.90625 0 
L 45.90625 32.71875 
Q 45.90625 40.484375 42.875 44.328125 
Q 39.84375 48.1875 33.796875 48.1875 
Q 26.515625 48.1875 22.3125 43.546875 
Q 18.109375 38.921875 18.109375 30.90625 
L 18.109375 0 
L 9.078125 0 
L 9.078125 54.6875 
L 18.109375 54.6875 
L 18.109375 46.1875 
Q 21.34375 51.125 25.703125 53.5625 
Q 30.078125 56 35.796875 56 
Q 45.21875 56 50.046875 50.171875 
Q 54.890625 44.34375 54.890625 33.015625 
z
" id="DejaVuSans-110"/>
        <path d="M 45.40625 27.984375 
Q 45.40625 37.75 41.375 43.109375 
Q 37.359375 48.484375 30.078125 48.484375 
Q 22.859375 48.484375 18.828125 43.109375 
Q 14.796875 37.75 14.796875 27.984375 
Q 14.796875 18.265625 18.828125 12.890625 
Q 22.859375 7.515625 30.078125 7.515625 
Q 37.359375 7.515625 41.375 12.890625 
Q 45.40625 18.265625 45.40625 27.984375 
z
M 54.390625 6.78125 
Q 54.390625 -7.171875 48.1875 -13.984375 
Q 42 -20.796875 29.203125 -20.796875 
Q 24.46875 -20.796875 20.265625 -20.09375 
Q 16.0625 -19.390625 12.109375 -17.921875 
L 12.109375 -9.1875 
Q 16.0625 -11.328125 19.921875 -12.34375 
Q 23.78125 -13.375 27.78125 -13.375 
Q 36.625 -13.375 41.015625 -8.765625 
Q 45.40625 -4.15625 45.40625 5.171875 
L 45.40625 9.625 
Q 42.625 4.78125 38.28125 2.390625 
Q 33.9375 0 27.875 0 
Q 17.828125 0 11.671875 7.65625 
Q 5.515625 15.328125 5.515625 27.984375 
Q 5.515625 40.671875 11.671875 48.328125 
Q 17.828125 56 27.875 56 
Q 33.9375 56 38.28125 53.609375 
Q 42.625 51.21875 45.40625 46.390625 
L 45.40625 54.6875 
L 54.390625 54.6875 
z
" id="DejaVuSans-103"/>
        <path d="M 5.515625 54.6875 
L 48.1875 54.6875 
L 48.1875 46.484375 
L 14.40625 7.171875 
L 48.1875 7.171875 
L 48.1875 0 
L 4.296875 0 
L 4.296875 8.203125 
L 38.09375 47.515625 
L 5.515625 47.515625 
z
" id="DejaVuSans-122"/>
       </defs>
       <use xlink:href="#DejaVuSans-104"/>
       <use x="63.378906" xlink:href="#DejaVuSans-111"/>
       <use x="124.560547" xlink:href="#DejaVuSans-110"/>
       <use x="187.939453" xlink:href="#DejaVuSans-103"/>
       <use x="251.416016" xlink:href="#DejaVuSans-103"/>
       <use x="314.892578" xlink:href="#DejaVuSans-102"/>
       <use x="350.097656" xlink:href="#DejaVuSans-117"/>
       <use x="413.476562" xlink:href="#DejaVuSans-122"/>
       <use x="465.966797" xlink:href="#DejaVuSans-122"/>
      </g>
     </g>
    </g>
    <g id="xtick_3">
     <g id="line2d_3">
      <g>
       <use style="stroke:#000000;stroke-width:0.8;" x="276.528125" xlink:href="#mae9e42a25c" y="288.430125"/>
      </g>
     </g>
     <g id="text_3">
      <!-- kirenenko -->
      <g transform="translate(233.067921 326.501971)rotate(-30)scale(0.1 -0.1)">
       <defs>
        <path d="M 9.078125 75.984375 
L 18.109375 75.984375 
L 18.109375 31.109375 
L 44.921875 54.6875 
L 56.390625 54.6875 
L 27.390625 29.109375 
L 57.625 0 
L 45.90625 0 
L 18.109375 26.703125 
L 18.109375 0 
L 9.078125 0 
z
" id="DejaVuSans-107"/>
        <path d="M 9.421875 54.6875 
L 18.40625 54.6875 
L 18.40625 0 
L 9.421875 0 
z
M 9.421875 75.984375 
L 18.40625 75.984375 
L 18.40625 64.59375 
L 9.421875 64.59375 
z
" id="DejaVuSans-105"/>
        <path d="M 41.109375 46.296875 
Q 39.59375 47.171875 37.8125 47.578125 
Q 36.03125 48 33.890625 48 
Q 26.265625 48 22.1875 43.046875 
Q 18.109375 38.09375 18.109375 28.8125 
L 18.109375 0 
L 9.078125 0 
L 9.078125 54.6875 
L 18.109375 54.6875 
L 18.109375 46.1875 
Q 20.953125 51.171875 25.484375 53.578125 
Q 30.03125 56 36.53125 56 
Q 37.453125 56 38.578125 55.875 
Q 39.703125 55.765625 41.0625 55.515625 
z
" id="DejaVuSans-114"/>
        <path d="M 56.203125 29.59375 
L 56.203125 25.203125 
L 14.890625 25.203125 
Q 15.484375 15.921875 20.484375 11.0625 
Q 25.484375 6.203125 34.421875 6.203125 
Q 39.59375 6.203125 44.453125 7.46875 
Q 49.3125 8.734375 54.109375 11.28125 
L 54.109375 2.78125 
Q 49.265625 0.734375 44.1875 -0.34375 
Q 39.109375 -1.421875 33.890625 -1.421875 
Q 20.796875 -1.421875 13.15625 6.1875 
Q 5.515625 13.8125 5.515625 26.8125 
Q 5.515625 40.234375 12.765625 48.109375 
Q 20.015625 56 32.328125 56 
Q 43.359375 56 49.78125 48.890625 
Q 56.203125 41.796875 56.203125 29.59375 
z
M 47.21875 32.234375 
Q 47.125 39.59375 43.09375 43.984375 
Q 39.0625 48.390625 32.421875 48.390625 
Q 24.90625 48.390625 20.390625 44.140625 
Q 15.875 39.890625 15.1875 32.171875 
z
" id="DejaVuSans-101"/>
       </defs>
       <use xlink:href="#DejaVuSans-107"/>
       <use x="57.910156" xlink:href="#DejaVuSans-105"/>
       <use x="85.693359" xlink:href="#DejaVuSans-114"/>
       <use x="124.556641" xlink:href="#DejaVuSans-101"/>
       <use x="186.080078" xlink:href="#DejaVuSans-110"/>
       <use x="249.458984" xlink:href="#DejaVuSans-101"/>
       <use x="310.982422" xlink:href="#DejaVuSans-110"/>
       <use x="374.361328" xlink:href="#DejaVuSans-107"/>
       <use x="428.646484" xlink:href="#DejaVuSans-111"/>
      </g>
     </g>
    </g>
    <g id="xtick_4">
     <g id="line2d_4">
      <g>
       <use style="stroke:#000000;stroke-width:0.8;" x="365.808125" xlink:href="#mae9e42a25c" y="288.430125"/>
      </g>
     </g>
     <g id="text_4">
      <!-- kirenenko-rare -->
      <g transform="translate(301.499713 338.53869)rotate(-30)scale(0.1 -0.1)">
       <defs>
        <path d="M 4.890625 31.390625 
L 31.203125 31.390625 
L 31.203125 23.390625 
L 4.890625 23.390625 
z
" id="DejaVuSans-45"/>
       </defs>
       <use xlink:href="#DejaVuSans-107"/>
       <use x="57.910156" xlink:href="#DejaVuSans-105"/>
       <use x="85.693359" xlink:href="#DejaVuSans-114"/>
       <use x="124.556641" xlink:href="#DejaVuSans-101"/>
       <use x="186.080078" xlink:href="#DejaVuSans-110"/>
       <use x="249.458984" xlink:href="#DejaVuSans-101"/>
       <use x="310.982422" xlink:href="#DejaVuSans-110"/>
       <use x="374.361328" xlink:href="#DejaVuSans-107"/>
       <use x="428.646484" xlink:href="#DejaVuSans-111"/>
       <use x="491.703125" xlink:href="#DejaVuSans-45"/>
       <use x="527.787109" xlink:href="#DejaVuSans-114"/>
       <use x="568.900391" xlink:href="#DejaVuSans-97"/>
       <use x="630.179688" xlink:href="#DejaVuSans-114"/>
       <use x="669.042969" xlink:href="#DejaVuSans-101"/>
      </g>
     </g>
    </g>
    <g id="text_5">
     <!-- Fuzzer (highest median coverage on the left) -->
     <g transform="translate(119.270156 351.93819)scale(0.1 -0.1)">
      <defs>
       <path d="M 9.8125 72.90625 
L 51.703125 72.90625 
L 51.703125 64.59375 
L 19.671875 64.59375 
L 19.671875 43.109375 
L 48.578125 43.109375 
L 48.578125 34.8125 
L 19.671875 34.8125 
L 19.671875 0 
L 9.8125 0 
z
" id="DejaVuSans-70"/>
       <path id="DejaVuSans-32"/>
       <path d="M 31 75.875 
Q 24.46875 64.65625 21.28125 53.65625 
Q 18.109375 42.671875 18.109375 31.390625 
Q 18.109375 20.125 21.3125 9.0625 
Q 24.515625 -2 31 -13.1875 
L 23.1875 -13.1875 
Q 15.875 -1.703125 12.234375 9.375 
Q 8.59375 20.453125 8.59375 31.390625 
Q 8.59375 42.28125 12.203125 53.3125 
Q 15.828125 64.359375 23.1875 75.875 
z
" id="DejaVuSans-40"/>
       <path d="M 18.3125 70.21875 
L 18.3125 54.6875 
L 36.8125 54.6875 
L 36.8125 47.703125 
L 18.3125 47.703125 
L 18.3125 18.015625 
Q 18.3125 11.328125 20.140625 9.421875 
Q 21.96875 7.515625 27.59375 7.515625 
L 36.8125 7.515625 
L 36.8125 0 
L 27.59375 0 
Q 17.1875 0 13.234375 3.875 
Q 9.28125 7.765625 9.28125 18.015625 
L 9.28125 47.703125 
L 2.6875 47.703125 
L 2.6875 54.6875 
L 9.28125 54.6875 
L 9.28125 70.21875 
z
" id="DejaVuSans-116"/>
       <path d="M 52 44.1875 
Q 55.375 50.25 60.0625 53.125 
Q 64.75 56 71.09375 56 
Q 79.640625 56 84.28125 50.015625 
Q 88.921875 44.046875 88.921875 33.015625 
L 88.921875 0 
L 79.890625 0 
L 79.890625 32.71875 
Q 79.890625 40.578125 77.09375 44.375 
Q 74.3125 48.1875 68.609375 48.1875 
Q 61.625 48.1875 57.5625 43.546875 
Q 53.515625 38.921875 53.515625 30.90625 
L 53.515625 0 
L 44.484375 0 
L 44.484375 32.71875 
Q 44.484375 40.625 41.703125 44.40625 
Q 38.921875 48.1875 33.109375 48.1875 
Q 26.21875 48.1875 22.15625 43.53125 
Q 18.109375 38.875 18.109375 30.90625 
L 18.109375 0 
L 9.078125 0 
L 9.078125 54.6875 
L 18.109375 54.6875 
L 18.109375 46.1875 
Q 21.1875 51.21875 25.484375 53.609375 
Q 29.78125 56 35.6875 56 
Q 41.65625 56 45.828125 52.96875 
Q 50 49.953125 52 44.1875 
z
" id="DejaVuSans-109"/>
       <path d="M 45.40625 46.390625 
L 45.40625 75.984375 
L 54.390625 75.984375 
L 54.390625 0 
L 45.40625 0 
L 45.40625 8.203125 
Q 42.578125 3.328125 38.25 0.953125 
Q 33.9375 -1.421875 27.875 -1.421875 
Q 17.96875 -1.421875 11.734375 6.484375 
Q 5.515625 14.40625 5.515625 27.296875 
Q 5.515625 40.1875 11.734375 48.09375 
Q 17.96875 56 27.875 56 
Q 33.9375 56 38.25 53.625 
Q 42.578125 51.265625 45.40625 46.390625 
z
M 14.796875 27.296875 
Q 14.796875 17.390625 18.875 11.75 
Q 22.953125 6.109375 30.078125 6.109375 
Q 37.203125 6.109375 41.296875 11.75 
Q 45.40625 17.390625 45.40625 27.296875 
Q 45.40625 37.203125 41.296875 42.84375 
Q 37.203125 48.484375 30.078125 48.484375 
Q 22.953125 48.484375 18.875 42.84375 
Q 14.796875 37.203125 14.796875 27.296875 
z
" id="DejaVuSans-100"/>
       <path d="M 48.78125 52.59375 
L 48.78125 44.1875 
Q 44.96875 46.296875 41.140625 47.34375 
Q 37.3125 48.390625 33.40625 48.390625 
Q 24.65625 48.390625 19.8125 42.84375 
Q 14.984375 37.3125 14.984375 27.296875 
Q 14.984375 17.28125 19.8125 11.734375 
Q 24.65625 6.203125 33.40625 6.203125 
Q 37.3125 6.203125 41.140625 7.25 
Q 44.96875 8.296875 48.78125 10.40625 
L 48.78125 2.09375 
Q 45.015625 0.34375 40.984375 -0.53125 
Q 36.96875 -1.421875 32.421875 -1.421875 
Q 20.0625 -1.421875 12.78125 6.34375 
Q 5.515625 14.109375 5.515625 27.296875 
Q 5.515625 40.671875 12.859375 48.328125 
Q 20.21875 56 33.015625 56 
Q 37.15625 56 41.109375 55.140625 
Q 45.0625 54.296875 48.78125 52.59375 
z
" id="DejaVuSans-99"/>
       <path d="M 2.984375 54.6875 
L 12.5 54.6875 
L 29.59375 8.796875 
L 46.6875 54.6875 
L 56.203125 54.6875 
L 35.6875 0 
L 23.484375 0 
z
" id="DejaVuSans-118"/>
       <path d="M 8.015625 75.875 
L 15.828125 75.875 
Q 23.140625 64.359375 26.78125 53.3125 
Q 30.421875 42.28125 30.421875 31.390625 
Q 30.421875 20.453125 26.78125 9.375 
Q 23.140625 -1.703125 15.828125 -13.1875 
L 8.015625 -13.1875 
Q 14.5 -2 17.703125 9.0625 
Q 20.90625 20.125 20.90625 31.390625 
Q 20.90625 42.671875 17.703125 53.65625 
Q 14.5 64.65625 8.015625 75.875 
z
" id="DejaVuSans-41"/>
      </defs>
      <use xlink:href="#DejaVuSans-70"/>
      <use x="52.019531" xlink:href="#DejaVuSans-117"/>
      <use x="115.398438" xlink:href="#DejaVuSans-122"/>
      <use x="167.888672" xlink:href="#DejaVuSans-122"/>
      <use x="220.378906" xlink:href="#DejaVuSans-101"/>
      <use x="281.902344" xlink:href="#DejaVuSans-114"/>
      <use x="323.015625" xlink:href="#DejaVuSans-32"/>
      <use x="354.802734" xlink:href="#DejaVuSans-40"/>
      <use x="393.816406" xlink:href="#DejaVuSans-104"/>
      <use x="457.195312" xlink:href="#DejaVuSans-105"/>
      <use x="484.978516" xlink:href="#DejaVuSans-103"/>
      <use x="548.455078" xlink:href="#DejaVuSans-104"/>
      <use x="611.833984" xlink:href="#DejaVuSans-101"/>
      <use x="673.357422" xlink:href="#DejaVuSans-115"/>
      <use x="725.457031" xlink:href="#DejaVuSans-116"/>
      <use x="764.666016" xlink:href="#DejaVuSans-32"/>
      <use x="796.453125" xlink:href="#DejaVuSans-109"/>
      <use x="893.865234" xlink:href="#DejaVuSans-101"/>
      <use x="955.388672" xlink:href="#DejaVuSans-100"/>
      <use x="1018.865234" xlink:href="#DejaVuSans-105"/>
      <use x="1046.648438" xlink:href="#DejaVuSans-97"/>
      <use x="1107.927734" xlink:href="#DejaVuSans-110"/>
      <use x="1171.306641" xlink:href="#DejaVuSans-32"/>
      <use x="1203.09375" xlink:href="#DejaVuSans-99"/>
      <use x="1258.074219" xlink:href="#DejaVuSans-111"/>
      <use x="1319.255859" xlink:href="#DejaVuSans-118"/>
      <use x="1378.435547" xlink:href="#DejaVuSans-101"/>
      <use x="1439.958984" xlink:href="#DejaVuSans-114"/>
      <use x="1481.072266" xlink:href="#DejaVuSans-97"/>
      <use x="1542.351562" xlink:href="#DejaVuSans-103"/>
      <use x="1605.828125" xlink:href="#DejaVuSans-101"/>
      <use x="1667.351562" xlink:href="#DejaVuSans-32"/>
      <use x="1699.138672" xlink:href="#DejaVuSans-111"/>
      <use x="1760.320312" xlink:href="#DejaVuSans-110"/>
      <use x="1823.699219" xlink:href="#DejaVuSans-32"/>
      <use x="1855.486328" xlink:href="#DejaVuSans-116"/>
      <use x="1894.695312" xlink:href="#DejaVuSans-104"/>
      <use x="1958.074219" xlink:href="#DejaVuSans-101"/>
      <use x="2019.597656" xlink:href="#DejaVuSans-32"/>
      <use x="2051.384766" xlink:href="#DejaVuSans-108"/>
      <use x="2079.167969" xlink:href="#DejaVuSans-101"/>
      <use x="2140.691406" xlink:href="#DejaVuSans-102"/>
      <use x="2174.146484" xlink:href="#DejaVuSans-116"/>
      <use x="2213.355469" xlink:href="#DejaVuSans-41"/>
     </g>
    </g>
   </g>
   <g id="matplotlib.axis_2">
    <g id="ytick_1">
     <g id="line2d_5">
      <defs>
       <path d="M 0 0 
L -3.5 0 
" id="m1084ae6907" style="stroke:#000000;stroke-width:0.8;"/>
      </defs>
      <g>
       <use style="stroke:#000000;stroke-width:0.8;" x="53.328125" xlink:href="#m1084ae6907" y="273.070748"/>
      </g>
     </g>
     <g id="text_6">
      <!-- 0 -->
      <g transform="translate(39.965625 276.869967)scale(0.1 -0.1)">
       <defs>
        <path d="M 31.78125 66.40625 
Q 24.171875 66.40625 20.328125 58.90625 
Q 16.5 51.421875 16.5 36.375 
Q 16.5 21.390625 20.328125 13.890625 
Q 24.171875 6.390625 31.78125 6.390625 
Q 39.453125 6.390625 43.28125 13.890625 
Q 47.125 21.390625 47.125 36.375 
Q 47.125 51.421875 43.28125 58.90625 
Q 39.453125 66.40625 31.78125 66.40625 
z
M 31.78125 74.21875 
Q 44.046875 74.21875 50.515625 64.515625 
Q 56.984375 54.828125 56.984375 36.375 
Q 56.984375 17.96875 50.515625 8.265625 
Q 44.046875 -1.421875 31.78125 -1.421875 
Q 19.53125 -1.421875 13.0625 8.265625 
Q 6.59375 17.96875 6.59375 36.375 
Q 6.59375 54.828125 13.0625 64.515625 
Q 19.53125 74.21875 31.78125 74.21875 
z
" id="DejaVuSans-48"/>
       </defs>
       <use xlink:href="#DejaVuSans-48"/>
      </g>
     </g>
    </g>
    <g id="ytick_2">
     <g id="line2d_6">
      <g>
       <use style="stroke:#000000;stroke-width:0.8;" x="53.328125" xlink:href="#m1084ae6907" y="221.953865"/>
      </g>
     </g>
     <g id="text_7">
      <!-- 1000 -->
      <g transform="translate(20.878125 225.753084)scale(0.1 -0.1)">
       <defs>
        <path d="M 12.40625 8.296875 
L 28.515625 8.296875 
L 28.515625 63.921875 
L 10.984375 60.40625 
L 10.984375 69.390625 
L 28.421875 72.90625 
L 38.28125 72.90625 
L 38.28125 8.296875 
L 54.390625 8.296875 
L 54.390625 0 
L 12.40625 0 
z
" id="DejaVuSans-49"/>
       </defs>
       <use xlink:href="#DejaVuSans-49"/>
       <use x="63.623047" xlink:href="#DejaVuSans-48"/>
       <use x="127.246094" xlink:href="#DejaVuSans-48"/>
       <use x="190.869141" xlink:href="#DejaVuSans-48"/>
      </g>
     </g>
    </g>
    <g id="ytick_3">
     <g id="line2d_7">
      <g>
       <use style="stroke:#000000;stroke-width:0.8;" x="53.328125" xlink:href="#m1084ae6907" y="170.836982"/>
      </g>
     </g>
     <g id="text_8">
      <!-- 2000 -->
      <g transform="translate(20.878125 174.636201)scale(0.1 -0.1)">
       <defs>
        <path d="M 19.1875 8.296875 
L 53.609375 8.296875 
L 53.609375 0 
L 7.328125 0 
L 7.328125 8.296875 
Q 12.9375 14.109375 22.625 23.890625 
Q 32.328125 33.6875 34.8125 36.53125 
Q 39.546875 41.84375 41.421875 45.53125 
Q 43.3125 49.21875 43.3125 52.78125 
Q 43.3125 58.59375 39.234375 62.25 
Q 35.15625 65.921875 28.609375 65.921875 
Q 23.96875 65.921875 18.8125 64.3125 
Q 13.671875 62.703125 7.8125 59.421875 
L 7.8125 69.390625 
Q 13.765625 71.78125 18.9375 73 
Q 24.125 74.21875 28.421875 74.21875 
Q 39.75 74.21875 46.484375 68.546875 
Q 53.21875 62.890625 53.21875 53.421875 
Q 53.21875 48.921875 51.53125 44.890625 
Q 49.859375 40.875 45.40625 35.40625 
Q 44.1875 33.984375 37.640625 27.21875 
Q 31.109375 20.453125 19.1875 8.296875 
z
" id="DejaVuSans-50"/>
       </defs>
       <use xlink:href="#DejaVuSans-50"/>
       <use x="63.623047" xlink:href="#DejaVuSans-48"/>
       <use x="127.246094" xlink:href="#DejaVuSans-48"/>
       <use x="190.869141" xlink:href="#DejaVuSans-48"/>
      </g>
     </g>
    </g>
    <g id="ytick_4">
     <g id="line2d_8">
      <g>
       <use style="stroke:#000000;stroke-width:0.8;" x="53.328125" xlink:href="#m1084ae6907" y="119.720099"/>
      </g>
     </g>
     <g id="text_9">
      <!-- 3000 -->
      <g transform="translate(20.878125 123.519318)scale(0.1 -0.1)">
       <defs>
        <path d="M 40.578125 39.3125 
Q 47.65625 37.796875 51.625 33 
Q 55.609375 28.21875 55.609375 21.1875 
Q 55.609375 10.40625 48.1875 4.484375 
Q 40.765625 -1.421875 27.09375 -1.421875 
Q 22.515625 -1.421875 17.65625 -0.515625 
Q 12.796875 0.390625 7.625 2.203125 
L 7.625 11.71875 
Q 11.71875 9.328125 16.59375 8.109375 
Q 21.484375 6.890625 26.8125 6.890625 
Q 36.078125 6.890625 40.9375 10.546875 
Q 45.796875 14.203125 45.796875 21.1875 
Q 45.796875 27.640625 41.28125 31.265625 
Q 36.765625 34.90625 28.71875 34.90625 
L 20.21875 34.90625 
L 20.21875 43.015625 
L 29.109375 43.015625 
Q 36.375 43.015625 40.234375 45.921875 
Q 44.09375 48.828125 44.09375 54.296875 
Q 44.09375 59.90625 40.109375 62.90625 
Q 36.140625 65.921875 28.71875 65.921875 
Q 24.65625 65.921875 20.015625 65.03125 
Q 15.375 64.15625 9.8125 62.3125 
L 9.8125 71.09375 
Q 15.4375 72.65625 20.34375 73.4375 
Q 25.25 74.21875 29.59375 74.21875 
Q 40.828125 74.21875 47.359375 69.109375 
Q 53.90625 64.015625 53.90625 55.328125 
Q 53.90625 49.265625 50.4375 45.09375 
Q 46.96875 40.921875 40.578125 39.3125 
z
" id="DejaVuSans-51"/>
       </defs>
       <use xlink:href="#DejaVuSans-51"/>
       <use x="63.623047" xlink:href="#DejaVuSans-48"/>
       <use x="127.246094" xlink:href="#DejaVuSans-48"/>
       <use x="190.869141" xlink:href="#DejaVuSans-48"/>
      </g>
     </g>
    </g>
    <g id="ytick_5">
     <g id="line2d_9">
      <g>
       <use style="stroke:#000000;stroke-width:0.8;" x="53.328125" xlink:href="#m1084ae6907" y="68.603216"/>
      </g>
     </g>
     <g id="text_10">
      <!-- 4000 -->
      <g transform="translate(20.878125 72.402435)scale(0.1 -0.1)">
       <defs>
        <path d="M 37.796875 64.3125 
L 12.890625 25.390625 
L 37.796875 25.390625 
z
M 35.203125 72.90625 
L 47.609375 72.90625 
L 47.609375 25.390625 
L 58.015625 25.390625 
L 58.015625 17.1875 
L 47.609375 17.1875 
L 47.609375 0 
L 37.796875 0 
L 37.796875 17.1875 
L 4.890625 17.1875 
L 4.890625 26.703125 
z
" id="DejaVuSans-52"/>
       </defs>
       <use xlink:href="#DejaVuSans-52"/>
       <use x="63.623047" xlink:href="#DejaVuSans-48"/>
       <use x="127.246094" xlink:href="#DejaVuSans-48"/>
       <use x="190.869141" xlink:href="#DejaVuSans-48"/>
      </g>
     </g>
    </g>
    <g id="text_11">
     <!-- Reached region coverage -->
     <g transform="translate(14.798438 219.136625)rotate(-90)scale(0.1 -0.1)">
      <defs>
       <path d="M 44.390625 34.1875 
Q 47.5625 33.109375 50.5625 29.59375 
Q 53.5625 26.078125 56.59375 19.921875 
L 66.609375 0 
L 56 0 
L 46.6875 18.703125 
Q 43.0625 26.03125 39.671875 28.421875 
Q 36.28125 30.8125 30.421875 30.8125 
L 19.671875 30.8125 
L 19.671875 0 
L 9.8125 0 
L 9.8125 72.90625 
L 32.078125 72.90625 
Q 44.578125 72.90625 50.734375 67.671875 
Q 56.890625 62.453125 56.890625 51.90625 
Q 56.890625 45.015625 53.6875 40.46875 
Q 50.484375 35.9375 44.390625 34.1875 
z
M 19.671875 64.796875 
L 19.671875 38.921875 
L 32.078125 38.921875 
Q 39.203125 38.921875 42.84375 42.21875 
Q 46.484375 45.515625 46.484375 51.90625 
Q 46.484375 58.296875 42.84375 61.546875 
Q 39.203125 64.796875 32.078125 64.796875 
z
" id="DejaVuSans-82"/>
      </defs>
      <use xlink:href="#DejaVuSans-82"/>
      <use x="64.982422" xlink:href="#DejaVuSans-101"/>
      <use x="126.505859" xlink:href="#DejaVuSans-97"/>
      <use x="187.785156" xlink:href="#DejaVuSans-99"/>
      <use x="242.765625" xlink:href="#DejaVuSans-104"/>
      <use x="306.144531" xlink:href="#DejaVuSans-101"/>
      <use x="367.667969" xlink:href="#DejaVuSans-100"/>
      <use x="431.144531" xlink:href="#DejaVuSans-32"/>
      <use x="462.931641" xlink:href="#DejaVuSans-114"/>
      <use x="501.794922" xlink:href="#DejaVuSans-101"/>
      <use x="563.318359" xlink:href="#DejaVuSans-103"/>
      <use x="626.794922" xlink:href="#DejaVuSans-105"/>
      <use x="654.578125" xlink:href="#DejaVuSans-111"/>
      <use x="715.759766" xlink:href="#DejaVuSans-110"/>
      <use x="779.138672" xlink:href="#DejaVuSans-32"/>
      <use x="810.925781" xlink:href="#DejaVuSans-99"/>
      <use x="865.90625" xlink:href="#DejaVuSans-111"/>
      <use x="927.087891" xlink:href="#DejaVuSans-118"/>
      <use x="986.267578" xlink:href="#DejaVuSans-101"/>
      <use x="1047.791016" xlink:href="#DejaVuSans-114"/>
      <use x="1088.904297" xlink:href="#DejaVuSans-97"/>
      <use x="1150.183594" xlink:href="#DejaVuSans-103"/>
      <use x="1213.660156" xlink:href="#DejaVuSans-101"/>
     </g>
    </g>
   </g>
   <g id="line2d_10">
    <path clip-path="url(#p0470639e7b)" d="M 97.968125 111.33693 
L 97.968125 101.82919 
" style="fill:none;stroke:#3f3f3f;stroke-linecap:square;stroke-width:1.5;"/>
   </g>
   <g id="line2d_11">
    <path clip-path="url(#p0470639e7b)" d="M 97.968125 111.33693 
L 97.968125 102.442593 
" style="fill:none;stroke:#3f3f3f;stroke-linecap:square;stroke-width:4.5;"/>
   </g>
   <g id="line2d_12">
    <path clip-path="url(#p0470639e7b)" d="M 187.248125 145.994177 
L 187.248125 145.789709 
" style="fill:none;stroke:#3f3f3f;stroke-linecap:square;stroke-width:1.5;"/>
   </g>
   <g id="line2d_13">
    <path clip-path="url(#p0470639e7b)" d="M 187.248125 145.994177 
L 187.248125 145.789709 
" style="fill:none;stroke:#3f3f3f;stroke-linecap:square;stroke-width:4.5;"/>
   </g>
   <g id="line2d_14">
    <path clip-path="url(#p0470639e7b)" d="M 276.528125 158.722281 
L 276.528125 147.936619 
" style="fill:none;stroke:#3f3f3f;stroke-linecap:square;stroke-width:1.5;"/>
   </g>
   <g id="line2d_15">
    <path clip-path="url(#p0470639e7b)" d="M 276.528125 158.722281 
L 276.528125 148.089969 
" style="fill:none;stroke:#3f3f3f;stroke-linecap:square;stroke-width:4.5;"/>
   </g>
   <g id="line2d_16">
    <path clip-path="url(#p0470639e7b)" d="M 365.808125 197.673346 
L 365.808125 137.968826 
" style="fill:none;stroke:#3f3f3f;stroke-linecap:square;stroke-width:1.5;"/>
   </g>
   <g id="line2d_17">
    <path clip-path="url(#p0470639e7b)" d="M 365.808125 197.417761 
L 365.808125 147.732151 
" style="fill:none;stroke:#3f3f3f;stroke-linecap:square;stroke-width:4.5;"/>
   </g>
   <g id="patch_3">
    <path d="M 53.328125 273.070748 
L 53.328125 68.603216 
" style="fill:none;stroke:#000000;stroke-linecap:square;stroke-linejoin:miter;stroke-width:0.8;"/>
   </g>
   <g id="patch_4">
    <path d="M 97.968125 288.430125 
L 365.808125 288.430125 
" style="fill:none;stroke:#000000;stroke-linecap:square;stroke-linejoin:miter;stroke-width:0.8;"/>
   </g>
   <g id="PathCollection_1">
    <defs>
     <path d="M 0 1.5 
C 0.397805 1.5 0.77937 1.341951 1.06066 1.06066 
C 1.341951 0.77937 1.5 0.397805 1.5 0 
C 1.5 -0.397805 1.341951 -0.77937 1.06066 -1.06066 
C 0.77937 -1.341951 0.397805 -1.5 0 -1.5 
C -0.397805 -1.5 -0.77937 -1.341951 -1.06066 -1.06066 
C -1.341951 -0.77937 -1.5 -0.397805 -1.5 0 
C -1.5 0.397805 -1.341951 0.77937 -1.06066 1.06066 
C -0.77937 1.341951 -0.397805 1.5 0 1.5 
z
" id="m3f7a14834a" style="stroke:#3f3f3f;"/>
    </defs>
    <g clip-path="url(#p0470639e7b)">
     <use style="fill:#ffffff;stroke:#3f3f3f;" x="97.968125" xlink:href="#m3f7a14834a" y="105.458489"/>
    </g>
   </g>
   <g id="PathCollection_2">
    <g clip-path="url(#p0470639e7b)">
     <use style="fill:#ffffff;stroke:#3f3f3f;" x="187.248125" xlink:href="#m3f7a14834a" y="145.891943"/>
    </g>
   </g>
   <g id="PathCollection_3">
    <g clip-path="url(#p0470639e7b)">
     <use style="fill:#ffffff;stroke:#3f3f3f;" x="276.528125" xlink:href="#m3f7a14834a" y="148.294437"/>
    </g>
   </g>
   <g id="PathCollection_4">
    <g clip-path="url(#p0470639e7b)">
     <use style="fill:#ffffff;stroke:#3f3f3f;" x="365.808125" xlink:href="#m3f7a14834a" y="196.242073"/>
    </g>
   </g>
   <g id="text_12">
    <!-- lcms-2017-03-21 (12h, 5 trials/fuzzer) -->
    <g transform="translate(118.00625 16.318125)scale(0.12 -0.12)">
     <defs>
      <path d="M 8.203125 72.90625 
L 55.078125 72.90625 
L 55.078125 68.703125 
L 28.609375 0 
L 18.3125 0 
L 43.21875 64.59375 
L 8.203125 64.59375 
z
" id="DejaVuSans-55"/>
      <path d="M 11.71875 12.40625 
L 22.015625 12.40625 
L 22.015625 4 
L 14.015625 -11.625 
L 7.71875 -11.625 
L 11.71875 4 
z
" id="DejaVuSans-44"/>
      <path d="M 10.796875 72.90625 
L 49.515625 72.90625 
L 49.515625 64.59375 
L 19.828125 64.59375 
L 19.828125 46.734375 
Q 21.96875 47.46875 24.109375 47.828125 
Q 26.265625 48.1875 28.421875 48.1875 
Q 40.625 48.1875 47.75 41.5 
Q 54.890625 34.8125 54.890625 23.390625 
Q 54.890625 11.625 47.5625 5.09375 
Q 40.234375 -1.421875 26.90625 -1.421875 
Q 22.3125 -1.421875 17.546875 -0.640625 
Q 12.796875 0.140625 7.71875 1.703125 
L 7.71875 11.625 
Q 12.109375 9.234375 16.796875 8.0625 
Q 21.484375 6.890625 26.703125 6.890625 
Q 35.15625 6.890625 40.078125 11.328125 
Q 45.015625 15.765625 45.015625 23.390625 
Q 45.015625 31 40.078125 35.4375 
Q 35.15625 39.890625 26.703125 39.890625 
Q 22.75 39.890625 18.8125 39.015625 
Q 14.890625 38.140625 10.796875 36.28125 
z
" id="DejaVuSans-53"/>
      <path d="M 25.390625 72.90625 
L 33.6875 72.90625 
L 8.296875 -9.28125 
L 0 -9.28125 
z
" id="DejaVuSans-47"/>
     </defs>
     <use xlink:href="#DejaVuSans-108"/>
     <use x="27.783203" xlink:href="#DejaVuSans-99"/>
     <use x="82.763672" xlink:href="#DejaVuSans-109"/>
     <use x="180.175781" xlink:href="#DejaVuSans-115"/>
     <use x="232.275391" xlink:href="#DejaVuSans-45"/>
     <use x="268.359375" xlink:href="#DejaVuSans-50"/>
     <use x="331.982422" xlink:href="#DejaVuSans-48"/>
     <use x="395.605469" xlink:href="#DejaVuSans-49"/>
     <use x="459.228516" xlink:href="#DejaVuSans-55"/>
     <use x="522.851562" xlink:href="#DejaVuSans-45"/>
     <use x="558.935547" xlink:href="#DejaVuSans-48"/>
     <use x="622.558594" xlink:href="#DejaVuSans-51"/>
     <use x="686.181641" xlink:href="#DejaVuSans-45"/>
     <use x="722.265625" xlink:href="#DejaVuSans-50"/>
     <use x="785.888672" xlink:href="#DejaVuSans-49"/>
     <use x="849.511719" xlink:href="#DejaVuSans-32"/>
     <use x="881.298828" xlink:href="#DejaVuSans-40"/>
     <use x="920.3125" xlink:href="#DejaVuSans-49"/>
     <use x="983.935547" xlink:href="#DejaVuSans-50"/>
     <use x="1047.558594" xlink:href="#DejaVuSans-104"/>
     <use x="1110.9375" xlink:href="#DejaVuSans-44"/>
     <use x="1142.724609" xlink:href="#DejaVuSans-32"/>
     <use x="1174.511719" xlink:href="#DejaVuSans-53"/>
     <use x="1238.134766" xlink:href="#DejaVuSans-32"/>
     <use x="1269.921875" xlink:href="#DejaVuSans-116"/>
     <use x="1309.130859" xlink:href="#DejaVuSans-114"/>
     <use x="1350.244141" xlink:href="#DejaVuSans-105"/>
     <use x="1378.027344" xlink:href="#DejaVuSans-97"/>
     <use x="1439.306641" xlink:href="#DejaVuSans-108"/>
     <use x="1467.089844" xlink:href="#DejaVuSans-115"/>
     <use x="1519.189453" xlink:href="#DejaVuSans-47"/>
     <use x="1552.880859" xlink:href="#DejaVuSans-102"/>
     <use x="1588.085938" xlink:href="#DejaVuSans-117"/>
     <use x="1651.464844" xlink:href="#DejaVuSans-122"/>
     <use x="1703.955078" xlink:href="#DejaVuSans-122"/>
     <use x="1756.445312" xlink:href="#DejaVuSans-101"/>
     <use x="1817.96875" xlink:href="#DejaVuSans-114"/>
     <use x="1859.082031" xlink:href="#DejaVuSans-41"/>
    </g>
   </g>
  </g>
 </g>
 <defs>
  <clipPath id="p0470639e7b">
   <rect height="266.112" width="357.12" x="53.328125" y="22.318125"/>
  </clipPath>
 </defs>
</svg>
