<?xml version="1.0" encoding="utf-8" standalone="no"?>
<!DOCTYPE svg PUBLIC "-//W3C//DTD SVG 1.1//EN"
  "http://www.w3.org/Graphics/SVG/1.1/DTD/svg11.dtd">
<!-- Created with matplotlib (https://matplotlib.org/) -->
<svg height="325.986375pt" version="1.1" viewBox="0 0 883.824375 325.986375" width="883.824375pt" xmlns="http://www.w3.org/2000/svg" xmlns:xlink="http://www.w3.org/1999/xlink">
 <metadata>
  <rdf:RDF xmlns:cc="http://creativecommons.org/ns#" xmlns:dc="http://purl.org/dc/elements/1.1/" xmlns:rdf="http://www.w3.org/1999/02/22-rdf-syntax-ns#">
   <cc:Work>
    <dc:type rdf:resource="http://purl.org/dc/dcmitype/StillImage"/>
    <dc:date>2020-10-26T22:26:04.638116</dc:date>
    <dc:format>image/svg+xml</dc:format>
    <dc:creator>
     <cc:Agent>
      <dc:title>Matplotlib v3.3.2, https://matplotlib.org/</dc:title>
     </cc:Agent>
    </dc:creator>
   </cc:Work>
  </rdf:RDF>
 </metadata>
 <defs>
  <style type="text/css">*{stroke-linecap:butt;stroke-linejoin:round;}</style>
 </defs>
 <g id="figure_1">
  <g id="patch_1">
   <path d="M 0 325.986375 
L 883.824375 325.986375 
L 883.824375 0 
L 0 0 
z
" style="fill:#ffffff;"/>
  </g>
  <g id="axes_1">
   <g id="patch_2">
    <path d="M 53.328125 288.430125 
L 767.568125 288.430125 
L 767.568125 22.318125 
L 53.328125 22.318125 
z
" style="fill:#ffffff;"/>
   </g>
   <g id="PolyCollection_1">
    <defs>
     <path d="M 85.79358 -246.796005 
L 85.79358 -202.059846 
L 99.608667 -216.090003 
L 113.423754 -251.96712 
L 127.238841 -258.781768 
L 141.053928 -265.75676 
L 154.869015 -270.126152 
L 168.684102 -271.368823 
L 182.499189 -272.571408 
L 196.314276 -280.588641 
L 210.129363 -284.637344 
L 223.94445 -286.721824 
L 237.759537 -286.922255 
L 251.574624 -287.683892 
L 265.389711 -287.723978 
L 279.204798 -287.723978 
L 293.019885 -287.723978 
L 306.834972 -287.803148 
L 320.650059 -287.924409 
L 334.465146 -287.764064 
L 348.280233 -288.084754 
L 362.09532 -288.084754 
L 375.910407 -288.319258 
L 389.725494 -288.325271 
L 403.540581 -288.205012 
L 417.355669 -288.044668 
L 431.170756 -288.164926 
L 444.985843 -288.966649 
L 458.80093 -288.965647 
L 472.616017 -289.005733 
L 486.431104 -288.966649 
L 500.246191 -288.966649 
L 514.061278 -288.966649 
L 527.876365 -289.006736 
L 541.691452 -288.966649 
L 555.506539 -288.966649 
L 569.321626 -288.966649 
L 583.136713 -288.966649 
L 596.9518 -289.006736 
L 610.766887 -289.006736 
L 624.581974 -289.006736 
L 638.397061 -289.086908 
L 652.212148 -289.16708 
L 666.027235 -289.206164 
L 679.842322 -289.16708 
L 693.657409 -289.16708 
L 707.472496 -289.323416 
L 721.287583 -289.16708 
L 735.10267 -289.327425 
L 735.10267 -291.57225 
L 735.10267 -291.57225 
L 721.287583 -291.331733 
L 707.472496 -291.253565 
L 693.657409 -291.331733 
L 679.842322 -291.331733 
L 666.027235 -291.331733 
L 652.212148 -291.212477 
L 638.397061 -291.331733 
L 624.581974 -291.331733 
L 610.766887 -291.171388 
L 596.9518 -291.211475 
L 583.136713 -291.331733 
L 569.321626 -291.211475 
L 555.506539 -291.331733 
L 541.691452 -291.253565 
L 527.876365 -291.211475 
L 514.061278 -291.331733 
L 500.246191 -291.211475 
L 486.431104 -291.212477 
L 472.616017 -291.331733 
L 458.80093 -291.251561 
L 444.985843 -291.212477 
L 431.170756 -291.132304 
L 417.355669 -291.331733 
L 403.540581 -291.05113 
L 389.725494 -290.089062 
L 375.910407 -290.089062 
L 362.09532 -290.089062 
L 348.280233 -290.089062 
L 334.465146 -289.728286 
L 320.650059 -289.728286 
L 306.834972 -289.728286 
L 293.019885 -289.60903 
L 279.204798 -289.648114 
L 265.389711 -289.527856 
L 251.574624 -289.567942 
L 237.759537 -288.846391 
L 223.94445 -288.565788 
L 210.129363 -286.643656 
L 196.314276 -285.71967 
L 182.499189 -285.559325 
L 168.684102 -282.913639 
L 154.869015 -281.312196 
L 141.053928 -279.746832 
L 127.238841 -275.778301 
L 113.423754 -268.68305 
L 99.608667 -251.686517 
L 85.79358 -246.796005 
z
" id="mf7c2246457" style="stroke:#d62728;stroke-opacity:0.2;"/>
    </defs>
    <g clip-path="url(#p8ab6af6dda)">
     <use style="fill:#d62728;fill-opacity:0.2;stroke:#d62728;stroke-opacity:0.2;" x="0" xlink:href="#mf7c2246457" y="325.986375"/>
    </g>
   </g>
   <g id="PolyCollection_2">
    <defs>
     <path d="M 85.79358 -246.274885 
L 85.79358 -201.057692 
L 99.608667 -247.317125 
L 113.423754 -250.844707 
L 127.238841 -253.971428 
L 141.053928 -255.013668 
L 154.869015 -259.864094 
L 168.684102 -260.385214 
L 182.499189 -260.585645 
L 196.314276 -260.665818 
L 210.129363 -263.231332 
L 223.94445 -266.15662 
L 237.759537 -266.27788 
L 251.574624 -266.595563 
L 265.389711 -266.478311 
L 279.204798 -266.638656 
L 293.019885 -266.718828 
L 306.834972 -266.839087 
L 320.650059 -266.838085 
L 334.465146 -267.400293 
L 348.280233 -267.034507 
L 362.09532 -267.039518 
L 375.910407 -266.959345 
L 389.725494 -267.115681 
L 403.540581 -266.919259 
L 417.355669 -267.11969 
L 431.170756 -267.11969 
L 444.985843 -271.08822 
L 458.80093 -280.548555 
L 472.616017 -280.548555 
L 486.431104 -280.548555 
L 500.246191 -280.548555 
L 514.061278 -280.548555 
L 527.876365 -280.7089 
L 541.691452 -280.7089 
L 555.506539 -280.869244 
L 569.321626 -280.869244 
L 583.136713 -280.869244 
L 596.9518 -281.029589 
L 610.766887 -281.029589 
L 624.581974 -281.029589 
L 638.397061 -281.029589 
L 652.212148 -281.189934 
L 666.027235 -281.029589 
L 679.842322 -281.029589 
L 693.657409 -281.029589 
L 707.472496 -281.185925 
L 721.287583 -281.029589 
L 735.10267 -281.270106 
L 735.10267 -288.325271 
L 735.10267 -288.325271 
L 721.287583 -288.084754 
L 707.472496 -286.962341 
L 693.657409 -286.882169 
L 679.842322 -285.839929 
L 666.027235 -286.000273 
L 652.212148 -285.839929 
L 638.397061 -286.000273 
L 624.581974 -286.000273 
L 610.766887 -285.839929 
L 596.9518 -285.880015 
L 583.136713 -285.318808 
L 569.321626 -285.318808 
L 555.506539 -285.238636 
L 541.691452 -285.158464 
L 527.876365 -285.158464 
L 514.061278 -284.958033 
L 500.246191 -285.078291 
L 486.431104 -284.917947 
L 472.616017 -284.917947 
L 458.80093 -285.118378 
L 444.985843 -284.095178 
L 431.170756 -284.998119 
L 417.355669 -284.797688 
L 403.540581 -284.076137 
L 389.725494 -284.076137 
L 375.910407 -283.755448 
L 362.09532 -282.79338 
L 348.280233 -282.833466 
L 334.465146 -282.713208 
L 320.650059 -282.713208 
L 306.834972 -282.713208 
L 293.019885 -282.432605 
L 279.204798 -282.15601 
L 265.389711 -282.071829 
L 251.574624 -282.034749 
L 237.759537 -281.791226 
L 223.94445 -281.712056 
L 210.129363 -280.789072 
L 196.314276 -280.789072 
L 182.499189 -280.7089 
L 168.684102 -280.668813 
L 154.869015 -279.432155 
L 141.053928 -277.061059 
L 127.238841 -269.404601 
L 113.423754 -268.001586 
L 99.608667 -251.927034 
L 85.79358 -246.274885 
z
" id="ma64370758c" style="stroke:#c7c7c7;stroke-opacity:0.2;"/>
    </defs>
    <g clip-path="url(#p8ab6af6dda)">
     <use style="fill:#c7c7c7;fill-opacity:0.2;stroke:#c7c7c7;stroke-opacity:0.2;" x="0" xlink:href="#ma64370758c" y="325.986375"/>
    </g>
   </g>
   <g id="PolyCollection_3">
    <defs>
     <path d="M 85.79358 -175.282288 
L 85.79358 -123.050016 
L 99.608667 -136.919829 
L 113.423754 -176.765476 
L 127.238841 -179.330991 
L 141.053928 -186.787017 
L 154.869015 -190.474944 
L 168.684102 -191.343812 
L 182.499189 -194.145835 
L 196.314276 -195.004681 
L 210.129363 -194.924508 
L 223.94445 -200.095624 
L 237.759537 -200.564632 
L 251.574624 -200.215882 
L 265.389711 -200.65683 
L 279.204798 -200.65683 
L 293.019885 -201.097778 
L 306.834972 -200.65683 
L 320.650059 -201.218036 
L 334.465146 -201.218036 
L 348.280233 -201.538726 
L 362.09532 -201.538726 
L 375.910407 -201.538726 
L 389.725494 -201.538726 
L 403.540581 -201.538726 
L 417.355669 -202.300363 
L 431.170756 -201.779243 
L 444.985843 -201.779243 
L 458.80093 -201.779243 
L 472.616017 -202.170083 
L 486.431104 -201.779243 
L 500.246191 -201.859415 
L 514.061278 -202.328423 
L 527.876365 -201.850395 
L 541.691452 -202.460707 
L 555.506539 -201.859415 
L 569.321626 -201.859415 
L 583.136713 -201.859415 
L 596.9518 -201.495633 
L 610.766887 -202.460707 
L 624.581974 -201.859415 
L 638.397061 -201.850395 
L 652.212148 -201.378381 
L 666.027235 -201.859415 
L 679.842322 -202.574953 
L 693.657409 -204.304671 
L 707.472496 -204.304671 
L 721.287583 -203.983982 
L 735.10267 -203.983982 
L 735.10267 -253.770997 
L 735.10267 -253.770997 
L 721.287583 -252.608499 
L 707.472496 -253.00936 
L 693.657409 -253.00936 
L 679.842322 -216.771468 
L 666.027235 -216.777481 
L 652.212148 -216.771468 
L 638.397061 -216.771468 
L 624.581974 -217.011985 
L 610.766887 -217.011985 
L 596.9518 -217.011985 
L 583.136713 -216.290434 
L 569.321626 -217.011985 
L 555.506539 -217.613277 
L 541.691452 -216.290434 
L 527.876365 -216.290434 
L 514.061278 -216.620143 
L 500.246191 -216.771468 
L 486.431104 -216.731382 
L 472.616017 -216.731382 
L 458.80093 -216.731382 
L 444.985843 -215.8094 
L 431.170756 -216.731382 
L 417.355669 -217.252502 
L 403.540581 -216.611123 
L 389.725494 -216.571037 
L 375.910407 -215.828441 
L 362.09532 -215.828441 
L 348.280233 -216.571037 
L 334.465146 -217.011985 
L 320.650059 -216.571037 
L 306.834972 -215.368452 
L 293.019885 -217.011985 
L 279.204798 -215.649055 
L 265.389711 -216.571037 
L 251.574624 -215.672105 
L 237.759537 -216.530951 
L 223.94445 -215.408538 
L 210.129363 -215.414551 
L 196.314276 -215.297299 
L 182.499189 -215.969745 
L 168.684102 -214.526643 
L 154.869015 -211.800784 
L 141.053928 -205.787859 
L 127.238841 -196.087007 
L 113.423754 -192.238736 
L 99.608667 -182.537884 
L 85.79358 -175.282288 
z
" id="m9e6f0c5f0e" style="stroke:#1f77b4;stroke-opacity:0.2;"/>
    </defs>
    <g clip-path="url(#p8ab6af6dda)">
     <use style="fill:#1f77b4;fill-opacity:0.2;stroke:#1f77b4;stroke-opacity:0.2;" x="0" xlink:href="#m9e6f0c5f0e" y="325.986375"/>
    </g>
   </g>
   <g id="PolyCollection_4">
    <defs>
     <path d="M 85.79358 -77.191445 
L 85.79358 -49.65225 
L 99.608667 -55.384571 
L 113.423754 -58.872068 
L 127.238841 -75.507826 
L 141.053928 -76.972975 
L 154.869015 -93.506513 
L 168.684102 -98.116422 
L 182.499189 -98.397025 
L 196.314276 -100.591743 
L 210.129363 -100.321161 
L 223.94445 -101.362399 
L 237.759537 -106.052481 
L 251.574624 -112.547441 
L 265.389711 -112.627614 
L 279.204798 -112.627614 
L 293.019885 -112.627614 
L 306.834972 -113.268992 
L 320.650059 -113.549595 
L 334.465146 -113.589682 
L 348.280233 -113.86327 
L 362.09532 -113.950457 
L 375.910407 -128.581907 
L 389.725494 -131.347852 
L 403.540581 -131.7888 
L 417.355669 -131.868972 
L 431.170756 -132.189662 
L 444.985843 -132.63061 
L 458.80093 -134.09175 
L 472.616017 -134.113798 
L 486.431104 -132.470265 
L 500.246191 -133.231902 
L 514.061278 -134.995693 
L 527.876365 -135.115952 
L 541.691452 -135.115952 
L 555.506539 -135.115952 
L 569.321626 -135.115952 
L 583.136713 -134.113798 
L 596.9518 -136.559054 
L 610.766887 -136.559054 
L 624.581974 -134.113798 
L 638.397061 -138.643534 
L 652.212148 -138.924137 
L 666.027235 -138.924137 
L 679.842322 -138.924137 
L 693.657409 -139.00431 
L 707.472496 -135.917675 
L 721.287583 -152.749855 
L 735.10267 -152.914209 
L 735.10267 -200.937433 
L 735.10267 -200.937433 
L 721.287583 -200.941442 
L 707.472496 -197.449937 
L 693.657409 -196.447783 
L 679.842322 -196.407697 
L 666.027235 -196.327524 
L 652.212148 -196.608127 
L 638.397061 -194.80425 
L 624.581974 -194.80425 
L 610.766887 -194.811265 
L 596.9518 -194.80425 
L 583.136713 -194.323216 
L 569.321626 -191.925061 
L 555.506539 -191.637443 
L 541.691452 -191.637443 
L 527.876365 -191.396926 
L 514.061278 -189.679234 
L 500.246191 -188.911584 
L 486.431104 -189.913738 
L 472.616017 -189.432704 
L 458.80093 -188.550808 
L 444.985843 -185.664605 
L 431.170756 -185.50426 
L 417.355669 -185.023226 
L 403.540581 -183.580124 
L 389.725494 -183.179262 
L 375.910407 -180.212886 
L 362.09532 -177.206424 
L 348.280233 -176.164184 
L 334.465146 -176.084011 
L 320.650059 -175.643064 
L 306.834972 -172.43617 
L 293.019885 -171.474103 
L 279.204798 -170.832724 
L 265.389711 -170.35169 
L 251.574624 -170.031001 
L 237.759537 -159.16765 
L 223.94445 -156.000843 
L 210.129363 -155.529831 
L 196.314276 -154.076707 
L 182.499189 -136.959915 
L 168.684102 -136.759484 
L 154.869015 -136.799571 
L 141.053928 -129.664233 
L 127.238841 -107.376326 
L 113.423754 -89.738414 
L 99.608667 -87.293158 
L 85.79358 -77.191445 
z
" id="mb51dbdaaf0" style="stroke:#98df8a;stroke-opacity:0.2;"/>
    </defs>
    <g clip-path="url(#p8ab6af6dda)">
     <use style="fill:#98df8a;fill-opacity:0.2;stroke:#98df8a;stroke-opacity:0.2;" x="0" xlink:href="#mb51dbdaaf0" y="325.986375"/>
    </g>
   </g>
   <g id="matplotlib.axis_1">
    <g id="xtick_1">
     <g id="line2d_1">
      <defs>
       <path d="M 0 0 
L 0 3.5 
" id="mb6b4feb050" style="stroke:#000000;stroke-width:0.8;"/>
      </defs>
      <g>
       <use style="stroke:#000000;stroke-width:0.8;" x="85.79358" xlink:href="#mb6b4feb050" y="288.430125"/>
      </g>
     </g>
     <g id="text_1">
      <!-- 15m -->
      <g transform="translate(74.560767 303.028562)scale(0.1 -0.1)">
       <defs>
        <path d="M 12.40625 8.296875 
L 28.515625 8.296875 
L 28.515625 63.921875 
L 10.984375 60.40625 
L 10.984375 69.390625 
L 28.421875 72.90625 
L 38.28125 72.90625 
L 38.28125 8.296875 
L 54.390625 8.296875 
L 54.390625 0 
L 12.40625 0 
z
" id="DejaVuSans-49"/>
        <path d="M 10.796875 72.90625 
L 49.515625 72.90625 
L 49.515625 64.59375 
L 19.828125 64.59375 
L 19.828125 46.734375 
Q 21.96875 47.46875 24.109375 47.828125 
Q 26.265625 48.1875 28.421875 48.1875 
Q 40.625 48.1875 47.75 41.5 
Q 54.890625 34.8125 54.890625 23.390625 
Q 54.890625 11.625 47.5625 5.09375 
Q 40.234375 -1.421875 26.90625 -1.421875 
Q 22.3125 -1.421875 17.546875 -0.640625 
Q 12.796875 0.140625 7.71875 1.703125 
L 7.71875 11.625 
Q 12.109375 9.234375 16.796875 8.0625 
Q 21.484375 6.890625 26.703125 6.890625 
Q 35.15625 6.890625 40.078125 11.328125 
Q 45.015625 15.765625 45.015625 23.390625 
Q 45.015625 31 40.078125 35.4375 
Q 35.15625 39.890625 26.703125 39.890625 
Q 22.75 39.890625 18.8125 39.015625 
Q 14.890625 38.140625 10.796875 36.28125 
z
" id="DejaVuSans-53"/>
        <path d="M 52 44.1875 
Q 55.375 50.25 60.0625 53.125 
Q 64.75 56 71.09375 56 
Q 79.640625 56 84.28125 50.015625 
Q 88.921875 44.046875 88.921875 33.015625 
L 88.921875 0 
L 79.890625 0 
L 79.890625 32.71875 
Q 79.890625 40.578125 77.09375 44.375 
Q 74.3125 48.1875 68.609375 48.1875 
Q 61.625 48.1875 57.5625 43.546875 
Q 53.515625 38.921875 53.515625 30.90625 
L 53.515625 0 
L 44.484375 0 
L 44.484375 32.71875 
Q 44.484375 40.625 41.703125 44.40625 
Q 38.921875 48.1875 33.109375 48.1875 
Q 26.21875 48.1875 22.15625 43.53125 
Q 18.109375 38.875 18.109375 30.90625 
L 18.109375 0 
L 9.078125 0 
L 9.078125 54.6875 
L 18.109375 54.6875 
L 18.109375 46.1875 
Q 21.1875 51.21875 25.484375 53.609375 
Q 29.78125 56 35.6875 56 
Q 41.65625 56 45.828125 52.96875 
Q 50 49.953125 52 44.1875 
z
" id="DejaVuSans-109"/>
       </defs>
       <use xlink:href="#DejaVuSans-49"/>
       <use x="63.623047" xlink:href="#DejaVuSans-53"/>
       <use x="127.246094" xlink:href="#DejaVuSans-109"/>
      </g>
     </g>
    </g>
    <g id="xtick_2">
     <g id="line2d_2">
      <g>
       <use style="stroke:#000000;stroke-width:0.8;" x="141.053928" xlink:href="#mb6b4feb050" y="288.430125"/>
      </g>
     </g>
     <g id="text_2">
      <!-- 1h:15m -->
      <g transform="translate(121.78674 303.028562)scale(0.1 -0.1)">
       <defs>
        <path d="M 54.890625 33.015625 
L 54.890625 0 
L 45.90625 0 
L 45.90625 32.71875 
Q 45.90625 40.484375 42.875 44.328125 
Q 39.84375 48.1875 33.796875 48.1875 
Q 26.515625 48.1875 22.3125 43.546875 
Q 18.109375 38.921875 18.109375 30.90625 
L 18.109375 0 
L 9.078125 0 
L 9.078125 75.984375 
L 18.109375 75.984375 
L 18.109375 46.1875 
Q 21.34375 51.125 25.703125 53.5625 
Q 30.078125 56 35.796875 56 
Q 45.21875 56 50.046875 50.171875 
Q 54.890625 44.34375 54.890625 33.015625 
z
" id="DejaVuSans-104"/>
        <path d="M 11.71875 12.40625 
L 22.015625 12.40625 
L 22.015625 0 
L 11.71875 0 
z
M 11.71875 51.703125 
L 22.015625 51.703125 
L 22.015625 39.3125 
L 11.71875 39.3125 
z
" id="DejaVuSans-58"/>
       </defs>
       <use xlink:href="#DejaVuSans-49"/>
       <use x="63.623047" xlink:href="#DejaVuSans-104"/>
       <use x="127.001953" xlink:href="#DejaVuSans-58"/>
       <use x="160.693359" xlink:href="#DejaVuSans-49"/>
       <use x="224.316406" xlink:href="#DejaVuSans-53"/>
       <use x="287.939453" xlink:href="#DejaVuSans-109"/>
      </g>
     </g>
    </g>
    <g id="xtick_3">
     <g id="line2d_3">
      <g>
       <use style="stroke:#000000;stroke-width:0.8;" x="196.314276" xlink:href="#mb6b4feb050" y="288.430125"/>
      </g>
     </g>
     <g id="text_3">
      <!-- 2h:15m -->
      <g transform="translate(177.047088 303.028562)scale(0.1 -0.1)">
       <defs>
        <path d="M 19.1875 8.296875 
L 53.609375 8.296875 
L 53.609375 0 
L 7.328125 0 
L 7.328125 8.296875 
Q 12.9375 14.109375 22.625 23.890625 
Q 32.328125 33.6875 34.8125 36.53125 
Q 39.546875 41.84375 41.421875 45.53125 
Q 43.3125 49.21875 43.3125 52.78125 
Q 43.3125 58.59375 39.234375 62.25 
Q 35.15625 65.921875 28.609375 65.921875 
Q 23.96875 65.921875 18.8125 64.3125 
Q 13.671875 62.703125 7.8125 59.421875 
L 7.8125 69.390625 
Q 13.765625 71.78125 18.9375 73 
Q 24.125 74.21875 28.421875 74.21875 
Q 39.75 74.21875 46.484375 68.546875 
Q 53.21875 62.890625 53.21875 53.421875 
Q 53.21875 48.921875 51.53125 44.890625 
Q 49.859375 40.875 45.40625 35.40625 
Q 44.1875 33.984375 37.640625 27.21875 
Q 31.109375 20.453125 19.1875 8.296875 
z
" id="DejaVuSans-50"/>
       </defs>
       <use xlink:href="#DejaVuSans-50"/>
       <use x="63.623047" xlink:href="#DejaVuSans-104"/>
       <use x="127.001953" xlink:href="#DejaVuSans-58"/>
       <use x="160.693359" xlink:href="#DejaVuSans-49"/>
       <use x="224.316406" xlink:href="#DejaVuSans-53"/>
       <use x="287.939453" xlink:href="#DejaVuSans-109"/>
      </g>
     </g>
    </g>
    <g id="xtick_4">
     <g id="line2d_4">
      <g>
       <use style="stroke:#000000;stroke-width:0.8;" x="251.574624" xlink:href="#mb6b4feb050" y="288.430125"/>
      </g>
     </g>
     <g id="text_4">
      <!-- 3h:15m -->
      <g transform="translate(232.307437 303.028562)scale(0.1 -0.1)">
       <defs>
        <path d="M 40.578125 39.3125 
Q 47.65625 37.796875 51.625 33 
Q 55.609375 28.21875 55.609375 21.1875 
Q 55.609375 10.40625 48.1875 4.484375 
Q 40.765625 -1.421875 27.09375 -1.421875 
Q 22.515625 -1.421875 17.65625 -0.515625 
Q 12.796875 0.390625 7.625 2.203125 
L 7.625 11.71875 
Q 11.71875 9.328125 16.59375 8.109375 
Q 21.484375 6.890625 26.8125 6.890625 
Q 36.078125 6.890625 40.9375 10.546875 
Q 45.796875 14.203125 45.796875 21.1875 
Q 45.796875 27.640625 41.28125 31.265625 
Q 36.765625 34.90625 28.71875 34.90625 
L 20.21875 34.90625 
L 20.21875 43.015625 
L 29.109375 43.015625 
Q 36.375 43.015625 40.234375 45.921875 
Q 44.09375 48.828125 44.09375 54.296875 
Q 44.09375 59.90625 40.109375 62.90625 
Q 36.140625 65.921875 28.71875 65.921875 
Q 24.65625 65.921875 20.015625 65.03125 
Q 15.375 64.15625 9.8125 62.3125 
L 9.8125 71.09375 
Q 15.4375 72.65625 20.34375 73.4375 
Q 25.25 74.21875 29.59375 74.21875 
Q 40.828125 74.21875 47.359375 69.109375 
Q 53.90625 64.015625 53.90625 55.328125 
Q 53.90625 49.265625 50.4375 45.09375 
Q 46.96875 40.921875 40.578125 39.3125 
z
" id="DejaVuSans-51"/>
       </defs>
       <use xlink:href="#DejaVuSans-51"/>
       <use x="63.623047" xlink:href="#DejaVuSans-104"/>
       <use x="127.001953" xlink:href="#DejaVuSans-58"/>
       <use x="160.693359" xlink:href="#DejaVuSans-49"/>
       <use x="224.316406" xlink:href="#DejaVuSans-53"/>
       <use x="287.939453" xlink:href="#DejaVuSans-109"/>
      </g>
     </g>
    </g>
    <g id="xtick_5">
     <g id="line2d_5">
      <g>
       <use style="stroke:#000000;stroke-width:0.8;" x="306.834972" xlink:href="#mb6b4feb050" y="288.430125"/>
      </g>
     </g>
     <g id="text_5">
      <!-- 4h:15m -->
      <g transform="translate(287.567785 303.028562)scale(0.1 -0.1)">
       <defs>
        <path d="M 37.796875 64.3125 
L 12.890625 25.390625 
L 37.796875 25.390625 
z
M 35.203125 72.90625 
L 47.609375 72.90625 
L 47.609375 25.390625 
L 58.015625 25.390625 
L 58.015625 17.1875 
L 47.609375 17.1875 
L 47.609375 0 
L 37.796875 0 
L 37.796875 17.1875 
L 4.890625 17.1875 
L 4.890625 26.703125 
z
" id="DejaVuSans-52"/>
       </defs>
       <use xlink:href="#DejaVuSans-52"/>
       <use x="63.623047" xlink:href="#DejaVuSans-104"/>
       <use x="127.001953" xlink:href="#DejaVuSans-58"/>
       <use x="160.693359" xlink:href="#DejaVuSans-49"/>
       <use x="224.316406" xlink:href="#DejaVuSans-53"/>
       <use x="287.939453" xlink:href="#DejaVuSans-109"/>
      </g>
     </g>
    </g>
    <g id="xtick_6">
     <g id="line2d_6">
      <g>
       <use style="stroke:#000000;stroke-width:0.8;" x="362.09532" xlink:href="#mb6b4feb050" y="288.430125"/>
      </g>
     </g>
     <g id="text_6">
      <!-- 5h:15m -->
      <g transform="translate(342.828133 303.028562)scale(0.1 -0.1)">
       <use xlink:href="#DejaVuSans-53"/>
       <use x="63.623047" xlink:href="#DejaVuSans-104"/>
       <use x="127.001953" xlink:href="#DejaVuSans-58"/>
       <use x="160.693359" xlink:href="#DejaVuSans-49"/>
       <use x="224.316406" xlink:href="#DejaVuSans-53"/>
       <use x="287.939453" xlink:href="#DejaVuSans-109"/>
      </g>
     </g>
    </g>
    <g id="xtick_7">
     <g id="line2d_7">
      <g>
       <use style="stroke:#000000;stroke-width:0.8;" x="417.355669" xlink:href="#mb6b4feb050" y="288.430125"/>
      </g>
     </g>
     <g id="text_7">
      <!-- 6h:15m -->
      <g transform="translate(398.088481 303.028562)scale(0.1 -0.1)">
       <defs>
        <path d="M 33.015625 40.375 
Q 26.375 40.375 22.484375 35.828125 
Q 18.609375 31.296875 18.609375 23.390625 
Q 18.609375 15.53125 22.484375 10.953125 
Q 26.375 6.390625 33.015625 6.390625 
Q 39.65625 6.390625 43.53125 10.953125 
Q 47.40625 15.53125 47.40625 23.390625 
Q 47.40625 31.296875 43.53125 35.828125 
Q 39.65625 40.375 33.015625 40.375 
z
M 52.59375 71.296875 
L 52.59375 62.3125 
Q 48.875 64.0625 45.09375 64.984375 
Q 41.3125 65.921875 37.59375 65.921875 
Q 27.828125 65.921875 22.671875 59.328125 
Q 17.53125 52.734375 16.796875 39.40625 
Q 19.671875 43.65625 24.015625 45.921875 
Q 28.375 48.1875 33.59375 48.1875 
Q 44.578125 48.1875 50.953125 41.515625 
Q 57.328125 34.859375 57.328125 23.390625 
Q 57.328125 12.15625 50.6875 5.359375 
Q 44.046875 -1.421875 33.015625 -1.421875 
Q 20.359375 -1.421875 13.671875 8.265625 
Q 6.984375 17.96875 6.984375 36.375 
Q 6.984375 53.65625 15.1875 63.9375 
Q 23.390625 74.21875 37.203125 74.21875 
Q 40.921875 74.21875 44.703125 73.484375 
Q 48.484375 72.75 52.59375 71.296875 
z
" id="DejaVuSans-54"/>
       </defs>
       <use xlink:href="#DejaVuSans-54"/>
       <use x="63.623047" xlink:href="#DejaVuSans-104"/>
       <use x="127.001953" xlink:href="#DejaVuSans-58"/>
       <use x="160.693359" xlink:href="#DejaVuSans-49"/>
       <use x="224.316406" xlink:href="#DejaVuSans-53"/>
       <use x="287.939453" xlink:href="#DejaVuSans-109"/>
      </g>
     </g>
    </g>
    <g id="xtick_8">
     <g id="line2d_8">
      <g>
       <use style="stroke:#000000;stroke-width:0.8;" x="472.616017" xlink:href="#mb6b4feb050" y="288.430125"/>
      </g>
     </g>
     <g id="text_8">
      <!-- 7h:15m -->
      <g transform="translate(453.348829 303.028562)scale(0.1 -0.1)">
       <defs>
        <path d="M 8.203125 72.90625 
L 55.078125 72.90625 
L 55.078125 68.703125 
L 28.609375 0 
L 18.3125 0 
L 43.21875 64.59375 
L 8.203125 64.59375 
z
" id="DejaVuSans-55"/>
       </defs>
       <use xlink:href="#DejaVuSans-55"/>
       <use x="63.623047" xlink:href="#DejaVuSans-104"/>
       <use x="127.001953" xlink:href="#DejaVuSans-58"/>
       <use x="160.693359" xlink:href="#DejaVuSans-49"/>
       <use x="224.316406" xlink:href="#DejaVuSans-53"/>
       <use x="287.939453" xlink:href="#DejaVuSans-109"/>
      </g>
     </g>
    </g>
    <g id="xtick_9">
     <g id="line2d_9">
      <g>
       <use style="stroke:#000000;stroke-width:0.8;" x="527.876365" xlink:href="#mb6b4feb050" y="288.430125"/>
      </g>
     </g>
     <g id="text_9">
      <!-- 8h:15m -->
      <g transform="translate(508.609177 303.028562)scale(0.1 -0.1)">
       <defs>
        <path d="M 31.78125 34.625 
Q 24.75 34.625 20.71875 30.859375 
Q 16.703125 27.09375 16.703125 20.515625 
Q 16.703125 13.921875 20.71875 10.15625 
Q 24.75 6.390625 31.78125 6.390625 
Q 38.8125 6.390625 42.859375 10.171875 
Q 46.921875 13.96875 46.921875 20.515625 
Q 46.921875 27.09375 42.890625 30.859375 
Q 38.875 34.625 31.78125 34.625 
z
M 21.921875 38.8125 
Q 15.578125 40.375 12.03125 44.71875 
Q 8.5 49.078125 8.5 55.328125 
Q 8.5 64.0625 14.71875 69.140625 
Q 20.953125 74.21875 31.78125 74.21875 
Q 42.671875 74.21875 48.875 69.140625 
Q 55.078125 64.0625 55.078125 55.328125 
Q 55.078125 49.078125 51.53125 44.71875 
Q 48 40.375 41.703125 38.8125 
Q 48.828125 37.15625 52.796875 32.3125 
Q 56.78125 27.484375 56.78125 20.515625 
Q 56.78125 9.90625 50.3125 4.234375 
Q 43.84375 -1.421875 31.78125 -1.421875 
Q 19.734375 -1.421875 13.25 4.234375 
Q 6.78125 9.90625 6.78125 20.515625 
Q 6.78125 27.484375 10.78125 32.3125 
Q 14.796875 37.15625 21.921875 38.8125 
z
M 18.3125 54.390625 
Q 18.3125 48.734375 21.84375 45.5625 
Q 25.390625 42.390625 31.78125 42.390625 
Q 38.140625 42.390625 41.71875 45.5625 
Q 45.3125 48.734375 45.3125 54.390625 
Q 45.3125 60.0625 41.71875 63.234375 
Q 38.140625 66.40625 31.78125 66.40625 
Q 25.390625 66.40625 21.84375 63.234375 
Q 18.3125 60.0625 18.3125 54.390625 
z
" id="DejaVuSans-56"/>
       </defs>
       <use xlink:href="#DejaVuSans-56"/>
       <use x="63.623047" xlink:href="#DejaVuSans-104"/>
       <use x="127.001953" xlink:href="#DejaVuSans-58"/>
       <use x="160.693359" xlink:href="#DejaVuSans-49"/>
       <use x="224.316406" xlink:href="#DejaVuSans-53"/>
       <use x="287.939453" xlink:href="#DejaVuSans-109"/>
      </g>
     </g>
    </g>
    <g id="xtick_10">
     <g id="line2d_10">
      <g>
       <use style="stroke:#000000;stroke-width:0.8;" x="583.136713" xlink:href="#mb6b4feb050" y="288.430125"/>
      </g>
     </g>
     <g id="text_10">
      <!-- 9h:15m -->
      <g transform="translate(563.869526 303.028562)scale(0.1 -0.1)">
       <defs>
        <path d="M 10.984375 1.515625 
L 10.984375 10.5 
Q 14.703125 8.734375 18.5 7.8125 
Q 22.3125 6.890625 25.984375 6.890625 
Q 35.75 6.890625 40.890625 13.453125 
Q 46.046875 20.015625 46.78125 33.40625 
Q 43.953125 29.203125 39.59375 26.953125 
Q 35.25 24.703125 29.984375 24.703125 
Q 19.046875 24.703125 12.671875 31.3125 
Q 6.296875 37.9375 6.296875 49.421875 
Q 6.296875 60.640625 12.9375 67.421875 
Q 19.578125 74.21875 30.609375 74.21875 
Q 43.265625 74.21875 49.921875 64.515625 
Q 56.59375 54.828125 56.59375 36.375 
Q 56.59375 19.140625 48.40625 8.859375 
Q 40.234375 -1.421875 26.421875 -1.421875 
Q 22.703125 -1.421875 18.890625 -0.6875 
Q 15.09375 0.046875 10.984375 1.515625 
z
M 30.609375 32.421875 
Q 37.25 32.421875 41.125 36.953125 
Q 45.015625 41.5 45.015625 49.421875 
Q 45.015625 57.28125 41.125 61.84375 
Q 37.25 66.40625 30.609375 66.40625 
Q 23.96875 66.40625 20.09375 61.84375 
Q 16.21875 57.28125 16.21875 49.421875 
Q 16.21875 41.5 20.09375 36.953125 
Q 23.96875 32.421875 30.609375 32.421875 
z
" id="DejaVuSans-57"/>
       </defs>
       <use xlink:href="#DejaVuSans-57"/>
       <use x="63.623047" xlink:href="#DejaVuSans-104"/>
       <use x="127.001953" xlink:href="#DejaVuSans-58"/>
       <use x="160.693359" xlink:href="#DejaVuSans-49"/>
       <use x="224.316406" xlink:href="#DejaVuSans-53"/>
       <use x="287.939453" xlink:href="#DejaVuSans-109"/>
      </g>
     </g>
    </g>
    <g id="xtick_11">
     <g id="line2d_11">
      <g>
       <use style="stroke:#000000;stroke-width:0.8;" x="638.397061" xlink:href="#mb6b4feb050" y="288.430125"/>
      </g>
     </g>
     <g id="text_11">
      <!-- 10h:15m -->
      <g transform="translate(615.948624 303.028562)scale(0.1 -0.1)">
       <defs>
        <path d="M 31.78125 66.40625 
Q 24.171875 66.40625 20.328125 58.90625 
Q 16.5 51.421875 16.5 36.375 
Q 16.5 21.390625 20.328125 13.890625 
Q 24.171875 6.390625 31.78125 6.390625 
Q 39.453125 6.390625 43.28125 13.890625 
Q 47.125 21.390625 47.125 36.375 
Q 47.125 51.421875 43.28125 58.90625 
Q 39.453125 66.40625 31.78125 66.40625 
z
M 31.78125 74.21875 
Q 44.046875 74.21875 50.515625 64.515625 
Q 56.984375 54.828125 56.984375 36.375 
Q 56.984375 17.96875 50.515625 8.265625 
Q 44.046875 -1.421875 31.78125 -1.421875 
Q 19.53125 -1.421875 13.0625 8.265625 
Q 6.59375 17.96875 6.59375 36.375 
Q 6.59375 54.828125 13.0625 64.515625 
Q 19.53125 74.21875 31.78125 74.21875 
z
" id="DejaVuSans-48"/>
       </defs>
       <use xlink:href="#DejaVuSans-49"/>
       <use x="63.623047" xlink:href="#DejaVuSans-48"/>
       <use x="127.246094" xlink:href="#DejaVuSans-104"/>
       <use x="190.625" xlink:href="#DejaVuSans-58"/>
       <use x="224.316406" xlink:href="#DejaVuSans-49"/>
       <use x="287.939453" xlink:href="#DejaVuSans-53"/>
       <use x="351.5625" xlink:href="#DejaVuSans-109"/>
      </g>
     </g>
    </g>
    <g id="xtick_12">
     <g id="line2d_12">
      <g>
       <use style="stroke:#000000;stroke-width:0.8;" x="693.657409" xlink:href="#mb6b4feb050" y="288.430125"/>
      </g>
     </g>
     <g id="text_12">
      <!-- 11h:15m -->
      <g transform="translate(671.208972 303.028562)scale(0.1 -0.1)">
       <use xlink:href="#DejaVuSans-49"/>
       <use x="63.623047" xlink:href="#DejaVuSans-49"/>
       <use x="127.246094" xlink:href="#DejaVuSans-104"/>
       <use x="190.625" xlink:href="#DejaVuSans-58"/>
       <use x="224.316406" xlink:href="#DejaVuSans-49"/>
       <use x="287.939453" xlink:href="#DejaVuSans-53"/>
       <use x="351.5625" xlink:href="#DejaVuSans-109"/>
      </g>
     </g>
    </g>
    <g id="text_13">
     <!-- Time (hour:minute) -->
     <g transform="translate(362.041094 316.706687)scale(0.1 -0.1)">
      <defs>
       <path d="M -0.296875 72.90625 
L 61.375 72.90625 
L 61.375 64.59375 
L 35.5 64.59375 
L 35.5 0 
L 25.59375 0 
L 25.59375 64.59375 
L -0.296875 64.59375 
z
" id="DejaVuSans-84"/>
       <path d="M 9.421875 54.6875 
L 18.40625 54.6875 
L 18.40625 0 
L 9.421875 0 
z
M 9.421875 75.984375 
L 18.40625 75.984375 
L 18.40625 64.59375 
L 9.421875 64.59375 
z
" id="DejaVuSans-105"/>
       <path d="M 56.203125 29.59375 
L 56.203125 25.203125 
L 14.890625 25.203125 
Q 15.484375 15.921875 20.484375 11.0625 
Q 25.484375 6.203125 34.421875 6.203125 
Q 39.59375 6.203125 44.453125 7.46875 
Q 49.3125 8.734375 54.109375 11.28125 
L 54.109375 2.78125 
Q 49.265625 0.734375 44.1875 -0.34375 
Q 39.109375 -1.421875 33.890625 -1.421875 
Q 20.796875 -1.421875 13.15625 6.1875 
Q 5.515625 13.8125 5.515625 26.8125 
Q 5.515625 40.234375 12.765625 48.109375 
Q 20.015625 56 32.328125 56 
Q 43.359375 56 49.78125 48.890625 
Q 56.203125 41.796875 56.203125 29.59375 
z
M 47.21875 32.234375 
Q 47.125 39.59375 43.09375 43.984375 
Q 39.0625 48.390625 32.421875 48.390625 
Q 24.90625 48.390625 20.390625 44.140625 
Q 15.875 39.890625 15.1875 32.171875 
z
" id="DejaVuSans-101"/>
       <path id="DejaVuSans-32"/>
       <path d="M 31 75.875 
Q 24.46875 64.65625 21.28125 53.65625 
Q 18.109375 42.671875 18.109375 31.390625 
Q 18.109375 20.125 21.3125 9.0625 
Q 24.515625 -2 31 -13.1875 
L 23.1875 -13.1875 
Q 15.875 -1.703125 12.234375 9.375 
Q 8.59375 20.453125 8.59375 31.390625 
Q 8.59375 42.28125 12.203125 53.3125 
Q 15.828125 64.359375 23.1875 75.875 
z
" id="DejaVuSans-40"/>
       <path d="M 30.609375 48.390625 
Q 23.390625 48.390625 19.1875 42.75 
Q 14.984375 37.109375 14.984375 27.296875 
Q 14.984375 17.484375 19.15625 11.84375 
Q 23.34375 6.203125 30.609375 6.203125 
Q 37.796875 6.203125 41.984375 11.859375 
Q 46.1875 17.53125 46.1875 27.296875 
Q 46.1875 37.015625 41.984375 42.703125 
Q 37.796875 48.390625 30.609375 48.390625 
z
M 30.609375 56 
Q 42.328125 56 49.015625 48.375 
Q 55.71875 40.765625 55.71875 27.296875 
Q 55.71875 13.875 49.015625 6.21875 
Q 42.328125 -1.421875 30.609375 -1.421875 
Q 18.84375 -1.421875 12.171875 6.21875 
Q 5.515625 13.875 5.515625 27.296875 
Q 5.515625 40.765625 12.171875 48.375 
Q 18.84375 56 30.609375 56 
z
" id="DejaVuSans-111"/>
       <path d="M 8.5 21.578125 
L 8.5 54.6875 
L 17.484375 54.6875 
L 17.484375 21.921875 
Q 17.484375 14.15625 20.5 10.265625 
Q 23.53125 6.390625 29.59375 6.390625 
Q 36.859375 6.390625 41.078125 11.03125 
Q 45.3125 15.671875 45.3125 23.6875 
L 45.3125 54.6875 
L 54.296875 54.6875 
L 54.296875 0 
L 45.3125 0 
L 45.3125 8.40625 
Q 42.046875 3.421875 37.71875 1 
Q 33.40625 -1.421875 27.6875 -1.421875 
Q 18.265625 -1.421875 13.375 4.4375 
Q 8.5 10.296875 8.5 21.578125 
z
M 31.109375 56 
z
" id="DejaVuSans-117"/>
       <path d="M 41.109375 46.296875 
Q 39.59375 47.171875 37.8125 47.578125 
Q 36.03125 48 33.890625 48 
Q 26.265625 48 22.1875 43.046875 
Q 18.109375 38.09375 18.109375 28.8125 
L 18.109375 0 
L 9.078125 0 
L 9.078125 54.6875 
L 18.109375 54.6875 
L 18.109375 46.1875 
Q 20.953125 51.171875 25.484375 53.578125 
Q 30.03125 56 36.53125 56 
Q 37.453125 56 38.578125 55.875 
Q 39.703125 55.765625 41.0625 55.515625 
z
" id="DejaVuSans-114"/>
       <path d="M 54.890625 33.015625 
L 54.890625 0 
L 45.90625 0 
L 45.90625 32.71875 
Q 45.90625 40.484375 42.875 44.328125 
Q 39.84375 48.1875 33.796875 48.1875 
Q 26.515625 48.1875 22.3125 43.546875 
Q 18.109375 38.921875 18.109375 30.90625 
L 18.109375 0 
L 9.078125 0 
L 9.078125 54.6875 
L 18.109375 54.6875 
L 18.109375 46.1875 
Q 21.34375 51.125 25.703125 53.5625 
Q 30.078125 56 35.796875 56 
Q 45.21875 56 50.046875 50.171875 
Q 54.890625 44.34375 54.890625 33.015625 
z
" id="DejaVuSans-110"/>
       <path d="M 18.3125 70.21875 
L 18.3125 54.6875 
L 36.8125 54.6875 
L 36.8125 47.703125 
L 18.3125 47.703125 
L 18.3125 18.015625 
Q 18.3125 11.328125 20.140625 9.421875 
Q 21.96875 7.515625 27.59375 7.515625 
L 36.8125 7.515625 
L 36.8125 0 
L 27.59375 0 
Q 17.1875 0 13.234375 3.875 
Q 9.28125 7.765625 9.28125 18.015625 
L 9.28125 47.703125 
L 2.6875 47.703125 
L 2.6875 54.6875 
L 9.28125 54.6875 
L 9.28125 70.21875 
z
" id="DejaVuSans-116"/>
       <path d="M 8.015625 75.875 
L 15.828125 75.875 
Q 23.140625 64.359375 26.78125 53.3125 
Q 30.421875 42.28125 30.421875 31.390625 
Q 30.421875 20.453125 26.78125 9.375 
Q 23.140625 -1.703125 15.828125 -13.1875 
L 8.015625 -13.1875 
Q 14.5 -2 17.703125 9.0625 
Q 20.90625 20.125 20.90625 31.390625 
Q 20.90625 42.671875 17.703125 53.65625 
Q 14.5 64.65625 8.015625 75.875 
z
" id="DejaVuSans-41"/>
      </defs>
      <use xlink:href="#DejaVuSans-84"/>
      <use x="57.958984" xlink:href="#DejaVuSans-105"/>
      <use x="85.742188" xlink:href="#DejaVuSans-109"/>
      <use x="183.154297" xlink:href="#DejaVuSans-101"/>
      <use x="244.677734" xlink:href="#DejaVuSans-32"/>
      <use x="276.464844" xlink:href="#DejaVuSans-40"/>
      <use x="315.478516" xlink:href="#DejaVuSans-104"/>
      <use x="378.857422" xlink:href="#DejaVuSans-111"/>
      <use x="440.039062" xlink:href="#DejaVuSans-117"/>
      <use x="503.417969" xlink:href="#DejaVuSans-114"/>
      <use x="542.78125" xlink:href="#DejaVuSans-58"/>
      <use x="576.472656" xlink:href="#DejaVuSans-109"/>
      <use x="673.884766" xlink:href="#DejaVuSans-105"/>
      <use x="701.667969" xlink:href="#DejaVuSans-110"/>
      <use x="765.046875" xlink:href="#DejaVuSans-117"/>
      <use x="828.425781" xlink:href="#DejaVuSans-116"/>
      <use x="867.634766" xlink:href="#DejaVuSans-101"/>
      <use x="929.158203" xlink:href="#DejaVuSans-41"/>
     </g>
    </g>
   </g>
   <g id="matplotlib.axis_2">
    <g id="ytick_1">
     <g id="line2d_13">
      <defs>
       <path d="M 0 0 
L -3.5 0 
" id="ma6996e7d9f" style="stroke:#000000;stroke-width:0.8;"/>
      </defs>
      <g>
       <use style="stroke:#000000;stroke-width:0.8;" x="53.328125" xlink:href="#ma6996e7d9f" y="277.897485"/>
      </g>
     </g>
     <g id="text_14">
      <!-- 2600 -->
      <g transform="translate(20.878125 281.696704)scale(0.1 -0.1)">
       <use xlink:href="#DejaVuSans-50"/>
       <use x="63.623047" xlink:href="#DejaVuSans-54"/>
       <use x="127.246094" xlink:href="#DejaVuSans-48"/>
       <use x="190.869141" xlink:href="#DejaVuSans-48"/>
      </g>
     </g>
    </g>
    <g id="ytick_2">
     <g id="line2d_14">
      <g>
       <use style="stroke:#000000;stroke-width:0.8;" x="53.328125" xlink:href="#ma6996e7d9f" y="237.811321"/>
      </g>
     </g>
     <g id="text_15">
      <!-- 2800 -->
      <g transform="translate(20.878125 241.61054)scale(0.1 -0.1)">
       <use xlink:href="#DejaVuSans-50"/>
       <use x="63.623047" xlink:href="#DejaVuSans-56"/>
       <use x="127.246094" xlink:href="#DejaVuSans-48"/>
       <use x="190.869141" xlink:href="#DejaVuSans-48"/>
      </g>
     </g>
    </g>
    <g id="ytick_3">
     <g id="line2d_15">
      <g>
       <use style="stroke:#000000;stroke-width:0.8;" x="53.328125" xlink:href="#ma6996e7d9f" y="197.725157"/>
      </g>
     </g>
     <g id="text_16">
      <!-- 3000 -->
      <g transform="translate(20.878125 201.524376)scale(0.1 -0.1)">
       <use xlink:href="#DejaVuSans-51"/>
       <use x="63.623047" xlink:href="#DejaVuSans-48"/>
       <use x="127.246094" xlink:href="#DejaVuSans-48"/>
       <use x="190.869141" xlink:href="#DejaVuSans-48"/>
      </g>
     </g>
    </g>
    <g id="ytick_4">
     <g id="line2d_16">
      <g>
       <use style="stroke:#000000;stroke-width:0.8;" x="53.328125" xlink:href="#ma6996e7d9f" y="157.638993"/>
      </g>
     </g>
     <g id="text_17">
      <!-- 3200 -->
      <g transform="translate(20.878125 161.438212)scale(0.1 -0.1)">
       <use xlink:href="#DejaVuSans-51"/>
       <use x="63.623047" xlink:href="#DejaVuSans-50"/>
       <use x="127.246094" xlink:href="#DejaVuSans-48"/>
       <use x="190.869141" xlink:href="#DejaVuSans-48"/>
      </g>
     </g>
    </g>
    <g id="ytick_5">
     <g id="line2d_17">
      <g>
       <use style="stroke:#000000;stroke-width:0.8;" x="53.328125" xlink:href="#ma6996e7d9f" y="117.552829"/>
      </g>
     </g>
     <g id="text_18">
      <!-- 3400 -->
      <g transform="translate(20.878125 121.352048)scale(0.1 -0.1)">
       <use xlink:href="#DejaVuSans-51"/>
       <use x="63.623047" xlink:href="#DejaVuSans-52"/>
       <use x="127.246094" xlink:href="#DejaVuSans-48"/>
       <use x="190.869141" xlink:href="#DejaVuSans-48"/>
      </g>
     </g>
    </g>
    <g id="ytick_6">
     <g id="line2d_18">
      <g>
       <use style="stroke:#000000;stroke-width:0.8;" x="53.328125" xlink:href="#ma6996e7d9f" y="77.466665"/>
      </g>
     </g>
     <g id="text_19">
      <!-- 3600 -->
      <g transform="translate(20.878125 81.265884)scale(0.1 -0.1)">
       <use xlink:href="#DejaVuSans-51"/>
       <use x="63.623047" xlink:href="#DejaVuSans-54"/>
       <use x="127.246094" xlink:href="#DejaVuSans-48"/>
       <use x="190.869141" xlink:href="#DejaVuSans-48"/>
      </g>
     </g>
    </g>
    <g id="ytick_7">
     <g id="line2d_19">
      <g>
       <use style="stroke:#000000;stroke-width:0.8;" x="53.328125" xlink:href="#ma6996e7d9f" y="37.380501"/>
      </g>
     </g>
     <g id="text_20">
      <!-- 3800 -->
      <g transform="translate(20.878125 41.17972)scale(0.1 -0.1)">
       <use xlink:href="#DejaVuSans-51"/>
       <use x="63.623047" xlink:href="#DejaVuSans-56"/>
       <use x="127.246094" xlink:href="#DejaVuSans-48"/>
       <use x="190.869141" xlink:href="#DejaVuSans-48"/>
      </g>
     </g>
    </g>
    <g id="text_21">
     <!-- Edge coverage -->
     <g transform="translate(14.798438 192.762406)rotate(-90)scale(0.1 -0.1)">
      <defs>
       <path d="M 9.8125 72.90625 
L 55.90625 72.90625 
L 55.90625 64.59375 
L 19.671875 64.59375 
L 19.671875 43.015625 
L 54.390625 43.015625 
L 54.390625 34.71875 
L 19.671875 34.71875 
L 19.671875 8.296875 
L 56.78125 8.296875 
L 56.78125 0 
L 9.8125 0 
z
" id="DejaVuSans-69"/>
       <path d="M 45.40625 46.390625 
L 45.40625 75.984375 
L 54.390625 75.984375 
L 54.390625 0 
L 45.40625 0 
L 45.40625 8.203125 
Q 42.578125 3.328125 38.25 0.953125 
Q 33.9375 -1.421875 27.875 -1.421875 
Q 17.96875 -1.421875 11.734375 6.484375 
Q 5.515625 14.40625 5.515625 27.296875 
Q 5.515625 40.1875 11.734375 48.09375 
Q 17.96875 56 27.875 56 
Q 33.9375 56 38.25 53.625 
Q 42.578125 51.265625 45.40625 46.390625 
z
M 14.796875 27.296875 
Q 14.796875 17.390625 18.875 11.75 
Q 22.953125 6.109375 30.078125 6.109375 
Q 37.203125 6.109375 41.296875 11.75 
Q 45.40625 17.390625 45.40625 27.296875 
Q 45.40625 37.203125 41.296875 42.84375 
Q 37.203125 48.484375 30.078125 48.484375 
Q 22.953125 48.484375 18.875 42.84375 
Q 14.796875 37.203125 14.796875 27.296875 
z
" id="DejaVuSans-100"/>
       <path d="M 45.40625 27.984375 
Q 45.40625 37.75 41.375 43.109375 
Q 37.359375 48.484375 30.078125 48.484375 
Q 22.859375 48.484375 18.828125 43.109375 
Q 14.796875 37.75 14.796875 27.984375 
Q 14.796875 18.265625 18.828125 12.890625 
Q 22.859375 7.515625 30.078125 7.515625 
Q 37.359375 7.515625 41.375 12.890625 
Q 45.40625 18.265625 45.40625 27.984375 
z
M 54.390625 6.78125 
Q 54.390625 -7.171875 48.1875 -13.984375 
Q 42 -20.796875 29.203125 -20.796875 
Q 24.46875 -20.796875 20.265625 -20.09375 
Q 16.0625 -19.390625 12.109375 -17.921875 
L 12.109375 -9.1875 
Q 16.0625 -11.328125 19.921875 -12.34375 
Q 23.78125 -13.375 27.78125 -13.375 
Q 36.625 -13.375 41.015625 -8.765625 
Q 45.40625 -4.15625 45.40625 5.171875 
L 45.40625 9.625 
Q 42.625 4.78125 38.28125 2.390625 
Q 33.9375 0 27.875 0 
Q 17.828125 0 11.671875 7.65625 
Q 5.515625 15.328125 5.515625 27.984375 
Q 5.515625 40.671875 11.671875 48.328125 
Q 17.828125 56 27.875 56 
Q 33.9375 56 38.28125 53.609375 
Q 42.625 51.21875 45.40625 46.390625 
L 45.40625 54.6875 
L 54.390625 54.6875 
z
" id="DejaVuSans-103"/>
       <path d="M 48.78125 52.59375 
L 48.78125 44.1875 
Q 44.96875 46.296875 41.140625 47.34375 
Q 37.3125 48.390625 33.40625 48.390625 
Q 24.65625 48.390625 19.8125 42.84375 
Q 14.984375 37.3125 14.984375 27.296875 
Q 14.984375 17.28125 19.8125 11.734375 
Q 24.65625 6.203125 33.40625 6.203125 
Q 37.3125 6.203125 41.140625 7.25 
Q 44.96875 8.296875 48.78125 10.40625 
L 48.78125 2.09375 
Q 45.015625 0.34375 40.984375 -0.53125 
Q 36.96875 -1.421875 32.421875 -1.421875 
Q 20.0625 -1.421875 12.78125 6.34375 
Q 5.515625 14.109375 5.515625 27.296875 
Q 5.515625 40.671875 12.859375 48.328125 
Q 20.21875 56 33.015625 56 
Q 37.15625 56 41.109375 55.140625 
Q 45.0625 54.296875 48.78125 52.59375 
z
" id="DejaVuSans-99"/>
       <path d="M 2.984375 54.6875 
L 12.5 54.6875 
L 29.59375 8.796875 
L 46.6875 54.6875 
L 56.203125 54.6875 
L 35.6875 0 
L 23.484375 0 
z
" id="DejaVuSans-118"/>
       <path d="M 34.28125 27.484375 
Q 23.390625 27.484375 19.1875 25 
Q 14.984375 22.515625 14.984375 16.5 
Q 14.984375 11.71875 18.140625 8.90625 
Q 21.296875 6.109375 26.703125 6.109375 
Q 34.1875 6.109375 38.703125 11.40625 
Q 43.21875 16.703125 43.21875 25.484375 
L 43.21875 27.484375 
z
M 52.203125 31.203125 
L 52.203125 0 
L 43.21875 0 
L 43.21875 8.296875 
Q 40.140625 3.328125 35.546875 0.953125 
Q 30.953125 -1.421875 24.3125 -1.421875 
Q 15.921875 -1.421875 10.953125 3.296875 
Q 6 8.015625 6 15.921875 
Q 6 25.140625 12.171875 29.828125 
Q 18.359375 34.515625 30.609375 34.515625 
L 43.21875 34.515625 
L 43.21875 35.40625 
Q 43.21875 41.609375 39.140625 45 
Q 35.0625 48.390625 27.6875 48.390625 
Q 23 48.390625 18.546875 47.265625 
Q 14.109375 46.140625 10.015625 43.890625 
L 10.015625 52.203125 
Q 14.9375 54.109375 19.578125 55.046875 
Q 24.21875 56 28.609375 56 
Q 40.484375 56 46.34375 49.84375 
Q 52.203125 43.703125 52.203125 31.203125 
z
" id="DejaVuSans-97"/>
      </defs>
      <use xlink:href="#DejaVuSans-69"/>
      <use x="63.183594" xlink:href="#DejaVuSans-100"/>
      <use x="126.660156" xlink:href="#DejaVuSans-103"/>
      <use x="190.136719" xlink:href="#DejaVuSans-101"/>
      <use x="251.660156" xlink:href="#DejaVuSans-32"/>
      <use x="283.447266" xlink:href="#DejaVuSans-99"/>
      <use x="338.427734" xlink:href="#DejaVuSans-111"/>
      <use x="399.609375" xlink:href="#DejaVuSans-118"/>
      <use x="458.789062" xlink:href="#DejaVuSans-101"/>
      <use x="520.3125" xlink:href="#DejaVuSans-114"/>
      <use x="561.425781" xlink:href="#DejaVuSans-97"/>
      <use x="622.705078" xlink:href="#DejaVuSans-103"/>
      <use x="686.181641" xlink:href="#DejaVuSans-101"/>
     </g>
    </g>
   </g>
   <g id="line2d_20">
    <path clip-path="url(#p8ab6af6dda)" d="M 85.79358 101.55845 
L 99.608667 87.087345 
L 113.423754 67.364952 
L 127.238841 58.145134 
L 141.053928 53.214536 
L 154.869015 49.045575 
L 168.684102 47.482214 
L 182.499189 45.277475 
L 196.314276 42.471444 
L 210.129363 40.346877 
L 223.94445 38.462828 
L 237.759537 38.222311 
L 251.574624 37.380501 
L 265.389711 37.380501 
L 279.204798 37.300329 
L 293.019885 37.300329 
L 306.834972 37.220156 
L 320.650059 37.220156 
L 334.465146 37.220156 
L 348.280233 36.779209 
L 362.09532 36.779209 
L 375.910407 36.779209 
L 389.725494 36.779209 
L 403.540581 36.378347 
L 417.355669 36.378347 
L 431.170756 36.258089 
L 444.985843 35.937399 
L 458.80093 35.937399 
L 472.616017 35.937399 
L 486.431104 35.937399 
L 500.246191 35.937399 
L 514.061278 35.937399 
L 527.876365 35.937399 
L 541.691452 35.937399 
L 555.506539 35.937399 
L 569.321626 35.937399 
L 583.136713 35.937399 
L 596.9518 35.937399 
L 610.766887 35.937399 
L 624.581974 35.937399 
L 638.397061 35.817141 
L 652.212148 35.817141 
L 666.027235 35.817141 
L 679.842322 35.817141 
L 693.657409 35.696882 
L 707.472496 35.696882 
L 721.287583 35.696882 
L 735.10267 35.696882 
" style="fill:none;stroke:#d62728;stroke-linecap:square;stroke-width:1.5;"/>
   </g>
   <g id="line2d_21">
    <path clip-path="url(#p8ab6af6dda)" d="M 85.79358 102.440345 
L 99.608667 75.863219 
L 113.423754 68.968398 
L 127.238841 66.44297 
L 141.053928 60.550304 
L 154.869015 56.501601 
L 168.684102 55.459361 
L 182.499189 55.339103 
L 196.314276 55.25893 
L 210.129363 53.214536 
L 223.94445 50.488677 
L 237.759537 50.328332 
L 251.574624 49.967557 
L 265.389711 49.92747 
L 279.204798 49.807212 
L 293.019885 49.686954 
L 306.834972 49.286092 
L 320.650059 49.286092 
L 334.465146 49.286092 
L 348.280233 49.286092 
L 362.09532 49.286092 
L 375.910407 48.845144 
L 389.725494 48.444282 
L 403.540581 48.444282 
L 417.355669 48.444282 
L 431.170756 48.444282 
L 444.985843 47.001181 
L 458.80093 43.754201 
L 472.616017 43.754201 
L 486.431104 43.754201 
L 500.246191 43.754201 
L 514.061278 43.754201 
L 527.876365 43.633943 
L 541.691452 43.633943 
L 555.506539 43.55377 
L 569.321626 43.473598 
L 583.136713 43.393426 
L 596.9518 42.752047 
L 610.766887 42.631789 
L 624.581974 42.631789 
L 638.397061 42.631789 
L 652.212148 42.631789 
L 666.027235 42.631789 
L 679.842322 42.631789 
L 693.657409 42.030496 
L 707.472496 41.99041 
L 721.287583 41.589548 
L 735.10267 41.349031 
" style="fill:none;stroke:#c7c7c7;stroke-linecap:square;stroke-width:1.5;"/>
   </g>
   <g id="line2d_22">
    <path clip-path="url(#p8ab6af6dda)" d="M 85.79358 175.076475 
L 99.608667 159.162268 
L 113.423754 142.125648 
L 127.238841 138.277376 
L 141.053928 130.340316 
L 154.869015 124.527822 
L 168.684102 123.124806 
L 182.499189 121.000239 
L 196.314276 120.639464 
L 210.129363 120.318775 
L 223.94445 117.993777 
L 237.759537 117.993777 
L 251.574624 117.953691 
L 265.389711 117.953691 
L 279.204798 117.953691 
L 293.019885 117.953691 
L 306.834972 117.953691 
L 320.650059 117.673088 
L 334.465146 117.673088 
L 348.280233 117.352398 
L 362.09532 117.352398 
L 375.910407 117.352398 
L 389.725494 117.352398 
L 403.540581 117.312312 
L 417.355669 117.192054 
L 431.170756 117.192054 
L 444.985843 117.192054 
L 458.80093 117.192054 
L 472.616017 117.192054 
L 486.431104 117.192054 
L 500.246191 117.151968 
L 514.061278 116.951537 
L 527.876365 116.911451 
L 541.691452 116.911451 
L 555.506539 116.911451 
L 569.321626 116.911451 
L 583.136713 116.911451 
L 596.9518 116.911451 
L 610.766887 116.911451 
L 624.581974 116.911451 
L 638.397061 116.911451 
L 652.212148 116.911451 
L 666.027235 116.911451 
L 679.842322 116.791192 
L 693.657409 101.358019 
L 707.472496 101.358019 
L 721.287583 101.277847 
L 735.10267 101.277847 
" style="fill:none;stroke:#1f77b4;stroke-linecap:square;stroke-width:1.5;"/>
   </g>
   <g id="line2d_23">
    <path clip-path="url(#p8ab6af6dda)" d="M 85.79358 265.871636 
L 99.608667 254.807855 
L 113.423754 252.001823 
L 127.238841 233.241499 
L 141.053928 224.141939 
L 154.869015 216.004448 
L 168.684102 214.00014 
L 182.499189 213.879881 
L 196.314276 199.168259 
L 210.129363 198.566967 
L 223.94445 198.045847 
L 237.759537 193.395852 
L 251.574624 184.697154 
L 265.389711 184.496723 
L 279.204798 184.015689 
L 293.019885 183.935517 
L 306.834972 183.133794 
L 320.650059 181.530347 
L 334.465146 181.28983 
L 348.280233 181.249744 
L 362.09532 180.407934 
L 375.910407 168.462258 
L 389.725494 165.495881 
L 403.540581 165.09502 
L 417.355669 163.491573 
L 431.170756 163.170884 
L 444.985843 162.529505 
L 458.80093 159.282526 
L 472.616017 159.282526 
L 486.431104 159.162268 
L 500.246191 159.162268 
L 514.061278 159.162268 
L 527.876365 157.558821 
L 541.691452 156.035547 
L 555.506539 156.035547 
L 569.321626 156.035547 
L 583.136713 154.832962 
L 596.9518 154.592445 
L 610.766887 154.592445 
L 624.581974 154.592445 
L 638.397061 154.031239 
L 652.212148 153.269601 
L 666.027235 153.269601 
L 679.842322 153.269601 
L 693.657409 153.109257 
L 707.472496 152.708395 
L 721.287583 148.098486 
L 735.10267 148.098486 
" style="fill:none;stroke:#98df8a;stroke-linecap:square;stroke-width:1.5;"/>
   </g>
   <g id="line2d_24"/>
   <g id="line2d_25"/>
   <g id="line2d_26"/>
   <g id="line2d_27"/>
   <g id="line2d_28"/>
   <g id="line2d_29">
    <path clip-path="url(#p8ab6af6dda)" d="M 735.10267 288.430125 
L 735.10267 22.318125 
" style="fill:none;stroke:#ff0000;stroke-linecap:square;stroke-width:1.5;"/>
   </g>
   <g id="patch_3">
    <path d="M 53.328125 277.897485 
L 53.328125 37.380501 
" style="fill:none;stroke:#000000;stroke-linecap:square;stroke-linejoin:miter;stroke-width:0.8;"/>
   </g>
   <g id="patch_4">
    <path d="M 85.79358 288.430125 
L 693.657409 288.430125 
" style="fill:none;stroke:#000000;stroke-linecap:square;stroke-linejoin:miter;stroke-width:0.8;"/>
   </g>
   <g id="text_22">
    <!-- libjpeg-turbo-07-2017 (12h, 5 trials/fuzzer) -->
    <g transform="translate(281.803438 16.318125)scale(0.12 -0.12)">
     <defs>
      <path d="M 9.421875 75.984375 
L 18.40625 75.984375 
L 18.40625 0 
L 9.421875 0 
z
" id="DejaVuSans-108"/>
      <path d="M 48.6875 27.296875 
Q 48.6875 37.203125 44.609375 42.84375 
Q 40.53125 48.484375 33.40625 48.484375 
Q 26.265625 48.484375 22.1875 42.84375 
Q 18.109375 37.203125 18.109375 27.296875 
Q 18.109375 17.390625 22.1875 11.75 
Q 26.265625 6.109375 33.40625 6.109375 
Q 40.53125 6.109375 44.609375 11.75 
Q 48.6875 17.390625 48.6875 27.296875 
z
M 18.109375 46.390625 
Q 20.953125 51.265625 25.265625 53.625 
Q 29.59375 56 35.59375 56 
Q 45.5625 56 51.78125 48.09375 
Q 58.015625 40.1875 58.015625 27.296875 
Q 58.015625 14.40625 51.78125 6.484375 
Q 45.5625 -1.421875 35.59375 -1.421875 
Q 29.59375 -1.421875 25.265625 0.953125 
Q 20.953125 3.328125 18.109375 8.203125 
L 18.109375 0 
L 9.078125 0 
L 9.078125 75.984375 
L 18.109375 75.984375 
z
" id="DejaVuSans-98"/>
      <path d="M 9.421875 54.6875 
L 18.40625 54.6875 
L 18.40625 -0.984375 
Q 18.40625 -11.421875 14.421875 -16.109375 
Q 10.453125 -20.796875 1.609375 -20.796875 
L -1.8125 -20.796875 
L -1.8125 -13.1875 
L 0.59375 -13.1875 
Q 5.71875 -13.1875 7.5625 -10.8125 
Q 9.421875 -8.453125 9.421875 -0.984375 
z
M 9.421875 75.984375 
L 18.40625 75.984375 
L 18.40625 64.59375 
L 9.421875 64.59375 
z
" id="DejaVuSans-106"/>
      <path d="M 18.109375 8.203125 
L 18.109375 -20.796875 
L 9.078125 -20.796875 
L 9.078125 54.6875 
L 18.109375 54.6875 
L 18.109375 46.390625 
Q 20.953125 51.265625 25.265625 53.625 
Q 29.59375 56 35.59375 56 
Q 45.5625 56 51.78125 48.09375 
Q 58.015625 40.1875 58.015625 27.296875 
Q 58.015625 14.40625 51.78125 6.484375 
Q 45.5625 -1.421875 35.59375 -1.421875 
Q 29.59375 -1.421875 25.265625 0.953125 
Q 20.953125 3.328125 18.109375 8.203125 
z
M 48.6875 27.296875 
Q 48.6875 37.203125 44.609375 42.84375 
Q 40.53125 48.484375 33.40625 48.484375 
Q 26.265625 48.484375 22.1875 42.84375 
Q 18.109375 37.203125 18.109375 27.296875 
Q 18.109375 17.390625 22.1875 11.75 
Q 26.265625 6.109375 33.40625 6.109375 
Q 40.53125 6.109375 44.609375 11.75 
Q 48.6875 17.390625 48.6875 27.296875 
z
" id="DejaVuSans-112"/>
      <path d="M 4.890625 31.390625 
L 31.203125 31.390625 
L 31.203125 23.390625 
L 4.890625 23.390625 
z
" id="DejaVuSans-45"/>
      <path d="M 11.71875 12.40625 
L 22.015625 12.40625 
L 22.015625 4 
L 14.015625 -11.625 
L 7.71875 -11.625 
L 11.71875 4 
z
" id="DejaVuSans-44"/>
      <path d="M 44.28125 53.078125 
L 44.28125 44.578125 
Q 40.484375 46.53125 36.375 47.5 
Q 32.28125 48.484375 27.875 48.484375 
Q 21.1875 48.484375 17.84375 46.4375 
Q 14.5 44.390625 14.5 40.28125 
Q 14.5 37.15625 16.890625 35.375 
Q 19.28125 33.59375 26.515625 31.984375 
L 29.59375 31.296875 
Q 39.15625 29.25 43.1875 25.515625 
Q 47.21875 21.78125 47.21875 15.09375 
Q 47.21875 7.46875 41.1875 3.015625 
Q 35.15625 -1.421875 24.609375 -1.421875 
Q 20.21875 -1.421875 15.453125 -0.5625 
Q 10.6875 0.296875 5.421875 2 
L 5.421875 11.28125 
Q 10.40625 8.6875 15.234375 7.390625 
Q 20.0625 6.109375 24.8125 6.109375 
Q 31.15625 6.109375 34.5625 8.28125 
Q 37.984375 10.453125 37.984375 14.40625 
Q 37.984375 18.0625 35.515625 20.015625 
Q 33.0625 21.96875 24.703125 23.78125 
L 21.578125 24.515625 
Q 13.234375 26.265625 9.515625 29.90625 
Q 5.8125 33.546875 5.8125 39.890625 
Q 5.8125 47.609375 11.28125 51.796875 
Q 16.75 56 26.8125 56 
Q 31.78125 56 36.171875 55.265625 
Q 40.578125 54.546875 44.28125 53.078125 
z
" id="DejaVuSans-115"/>
      <path d="M 25.390625 72.90625 
L 33.6875 72.90625 
L 8.296875 -9.28125 
L 0 -9.28125 
z
" id="DejaVuSans-47"/>
      <path d="M 37.109375 75.984375 
L 37.109375 68.5 
L 28.515625 68.5 
Q 23.6875 68.5 21.796875 66.546875 
Q 19.921875 64.59375 19.921875 59.515625 
L 19.921875 54.6875 
L 34.71875 54.6875 
L 34.71875 47.703125 
L 19.921875 47.703125 
L 19.921875 0 
L 10.890625 0 
L 10.890625 47.703125 
L 2.296875 47.703125 
L 2.296875 54.6875 
L 10.890625 54.6875 
L 10.890625 58.5 
Q 10.890625 67.625 15.140625 71.796875 
Q 19.390625 75.984375 28.609375 75.984375 
z
" id="DejaVuSans-102"/>
      <path d="M 5.515625 54.6875 
L 48.1875 54.6875 
L 48.1875 46.484375 
L 14.40625 7.171875 
L 48.1875 7.171875 
L 48.1875 0 
L 4.296875 0 
L 4.296875 8.203125 
L 38.09375 47.515625 
L 5.515625 47.515625 
z
" id="DejaVuSans-122"/>
     </defs>
     <use xlink:href="#DejaVuSans-108"/>
     <use x="27.783203" xlink:href="#DejaVuSans-105"/>
     <use x="55.566406" xlink:href="#DejaVuSans-98"/>
     <use x="119.042969" xlink:href="#DejaVuSans-106"/>
     <use x="146.826172" xlink:href="#DejaVuSans-112"/>
     <use x="210.302734" xlink:href="#DejaVuSans-101"/>
     <use x="271.826172" xlink:href="#DejaVuSans-103"/>
     <use x="335.302734" xlink:href="#DejaVuSans-45"/>
     <use x="371.386719" xlink:href="#DejaVuSans-116"/>
     <use x="410.595703" xlink:href="#DejaVuSans-117"/>
     <use x="473.974609" xlink:href="#DejaVuSans-114"/>
     <use x="515.087891" xlink:href="#DejaVuSans-98"/>
     <use x="578.564453" xlink:href="#DejaVuSans-111"/>
     <use x="641.621094" xlink:href="#DejaVuSans-45"/>
     <use x="677.705078" xlink:href="#DejaVuSans-48"/>
     <use x="741.328125" xlink:href="#DejaVuSans-55"/>
     <use x="804.951172" xlink:href="#DejaVuSans-45"/>
     <use x="841.035156" xlink:href="#DejaVuSans-50"/>
     <use x="904.658203" xlink:href="#DejaVuSans-48"/>
     <use x="968.28125" xlink:href="#DejaVuSans-49"/>
     <use x="1031.904297" xlink:href="#DejaVuSans-55"/>
     <use x="1095.527344" xlink:href="#DejaVuSans-32"/>
     <use x="1127.314453" xlink:href="#DejaVuSans-40"/>
     <use x="1166.328125" xlink:href="#DejaVuSans-49"/>
     <use x="1229.951172" xlink:href="#DejaVuSans-50"/>
     <use x="1293.574219" xlink:href="#DejaVuSans-104"/>
     <use x="1356.953125" xlink:href="#DejaVuSans-44"/>
     <use x="1388.740234" xlink:href="#DejaVuSans-32"/>
     <use x="1420.527344" xlink:href="#DejaVuSans-53"/>
     <use x="1484.150391" xlink:href="#DejaVuSans-32"/>
     <use x="1515.9375" xlink:href="#DejaVuSans-116"/>
     <use x="1555.146484" xlink:href="#DejaVuSans-114"/>
     <use x="1596.259766" xlink:href="#DejaVuSans-105"/>
     <use x="1624.042969" xlink:href="#DejaVuSans-97"/>
     <use x="1685.322266" xlink:href="#DejaVuSans-108"/>
     <use x="1713.105469" xlink:href="#DejaVuSans-115"/>
     <use x="1765.205078" xlink:href="#DejaVuSans-47"/>
     <use x="1798.896484" xlink:href="#DejaVuSans-102"/>
     <use x="1834.101562" xlink:href="#DejaVuSans-117"/>
     <use x="1897.480469" xlink:href="#DejaVuSans-122"/>
     <use x="1949.970703" xlink:href="#DejaVuSans-122"/>
     <use x="2002.460938" xlink:href="#DejaVuSans-101"/>
     <use x="2063.984375" xlink:href="#DejaVuSans-114"/>
     <use x="2105.097656" xlink:href="#DejaVuSans-41"/>
    </g>
   </g>
   <g id="legend_1">
    <g id="line2d_30">
     <path d="M 771.568125 30.416562 
L 791.568125 30.416562 
" style="fill:none;"/>
    </g>
    <g id="line2d_31"/>
    <g id="text_23">
     <!-- fuzzer -->
     <g transform="translate(799.568125 33.916562)scale(0.1 -0.1)">
      <use xlink:href="#DejaVuSans-102"/>
      <use x="35.205078" xlink:href="#DejaVuSans-117"/>
      <use x="98.583984" xlink:href="#DejaVuSans-122"/>
      <use x="151.074219" xlink:href="#DejaVuSans-122"/>
      <use x="203.564453" xlink:href="#DejaVuSans-101"/>
      <use x="265.087891" xlink:href="#DejaVuSans-114"/>
     </g>
    </g>
    <g id="line2d_32">
     <path d="M 771.568125 45.094688 
L 791.568125 45.094688 
" style="fill:none;stroke:#d62728;stroke-linecap:square;stroke-width:1.5;"/>
    </g>
    <g id="line2d_33"/>
    <g id="text_24">
     <!-- kirenenko -->
     <g transform="translate(799.568125 48.594688)scale(0.1 -0.1)">
      <defs>
       <path d="M 9.078125 75.984375 
L 18.109375 75.984375 
L 18.109375 31.109375 
L 44.921875 54.6875 
L 56.390625 54.6875 
L 27.390625 29.109375 
L 57.625 0 
L 45.90625 0 
L 18.109375 26.703125 
L 18.109375 0 
L 9.078125 0 
z
" id="DejaVuSans-107"/>
      </defs>
      <use xlink:href="#DejaVuSans-107"/>
      <use x="57.910156" xlink:href="#DejaVuSans-105"/>
      <use x="85.693359" xlink:href="#DejaVuSans-114"/>
      <use x="124.556641" xlink:href="#DejaVuSans-101"/>
      <use x="186.080078" xlink:href="#DejaVuSans-110"/>
      <use x="249.458984" xlink:href="#DejaVuSans-101"/>
      <use x="310.982422" xlink:href="#DejaVuSans-110"/>
      <use x="374.361328" xlink:href="#DejaVuSans-107"/>
      <use x="428.646484" xlink:href="#DejaVuSans-111"/>
     </g>
    </g>
    <g id="line2d_34">
     <path d="M 771.568125 59.772812 
L 791.568125 59.772812 
" style="fill:none;stroke:#c7c7c7;stroke-linecap:square;stroke-width:1.5;"/>
    </g>
    <g id="line2d_35"/>
    <g id="text_25">
     <!-- kirenenko-rare -->
     <g transform="translate(799.568125 63.272812)scale(0.1 -0.1)">
      <use xlink:href="#DejaVuSans-107"/>
      <use x="57.910156" xlink:href="#DejaVuSans-105"/>
      <use x="85.693359" xlink:href="#DejaVuSans-114"/>
      <use x="124.556641" xlink:href="#DejaVuSans-101"/>
      <use x="186.080078" xlink:href="#DejaVuSans-110"/>
      <use x="249.458984" xlink:href="#DejaVuSans-101"/>
      <use x="310.982422" xlink:href="#DejaVuSans-110"/>
      <use x="374.361328" xlink:href="#DejaVuSans-107"/>
      <use x="428.646484" xlink:href="#DejaVuSans-111"/>
      <use x="491.703125" xlink:href="#DejaVuSans-45"/>
      <use x="527.787109" xlink:href="#DejaVuSans-114"/>
      <use x="568.900391" xlink:href="#DejaVuSans-97"/>
      <use x="630.179688" xlink:href="#DejaVuSans-114"/>
      <use x="669.042969" xlink:href="#DejaVuSans-101"/>
     </g>
    </g>
    <g id="line2d_36">
     <path d="M 771.568125 74.450938 
L 791.568125 74.450938 
" style="fill:none;stroke:#1f77b4;stroke-linecap:square;stroke-width:1.5;"/>
    </g>
    <g id="line2d_37"/>
    <g id="text_26">
     <!-- aflplusplus -->
     <g transform="translate(799.568125 77.950938)scale(0.1 -0.1)">
      <use xlink:href="#DejaVuSans-97"/>
      <use x="61.279297" xlink:href="#DejaVuSans-102"/>
      <use x="96.484375" xlink:href="#DejaVuSans-108"/>
      <use x="124.267578" xlink:href="#DejaVuSans-112"/>
      <use x="187.744141" xlink:href="#DejaVuSans-108"/>
      <use x="215.527344" xlink:href="#DejaVuSans-117"/>
      <use x="278.90625" xlink:href="#DejaVuSans-115"/>
      <use x="331.005859" xlink:href="#DejaVuSans-112"/>
      <use x="394.482422" xlink:href="#DejaVuSans-108"/>
      <use x="422.265625" xlink:href="#DejaVuSans-117"/>
      <use x="485.644531" xlink:href="#DejaVuSans-115"/>
     </g>
    </g>
    <g id="line2d_38">
     <path d="M 771.568125 89.129063 
L 791.568125 89.129063 
" style="fill:none;stroke:#98df8a;stroke-linecap:square;stroke-width:1.5;"/>
    </g>
    <g id="line2d_39"/>
    <g id="text_27">
     <!-- honggfuzz -->
     <g transform="translate(799.568125 92.629063)scale(0.1 -0.1)">
      <use xlink:href="#DejaVuSans-104"/>
      <use x="63.378906" xlink:href="#DejaVuSans-111"/>
      <use x="124.560547" xlink:href="#DejaVuSans-110"/>
      <use x="187.939453" xlink:href="#DejaVuSans-103"/>
      <use x="251.416016" xlink:href="#DejaVuSans-103"/>
      <use x="314.892578" xlink:href="#DejaVuSans-102"/>
      <use x="350.097656" xlink:href="#DejaVuSans-117"/>
      <use x="413.476562" xlink:href="#DejaVuSans-122"/>
      <use x="465.966797" xlink:href="#DejaVuSans-122"/>
     </g>
    </g>
   </g>
  </g>
 </g>
 <defs>
  <clipPath id="p8ab6af6dda">
   <rect height="266.112" width="714.24" x="53.328125" y="22.318125"/>
  </clipPath>
 </defs>
</svg>
