<?xml version="1.0" encoding="utf-8" standalone="no"?>
<!DOCTYPE svg PUBLIC "-//W3C//DTD SVG 1.1//EN"
  "http://www.w3.org/Graphics/SVG/1.1/DTD/svg11.dtd">
<!-- Created with matplotlib (https://matplotlib.org/) -->
<svg height="361.217877pt" version="1.1" viewBox="0 0 417.648125 361.217877" width="417.648125pt" xmlns="http://www.w3.org/2000/svg" xmlns:xlink="http://www.w3.org/1999/xlink">
 <metadata>
  <rdf:RDF xmlns:cc="http://creativecommons.org/ns#" xmlns:dc="http://purl.org/dc/elements/1.1/" xmlns:rdf="http://www.w3.org/1999/02/22-rdf-syntax-ns#">
   <cc:Work>
    <dc:type rdf:resource="http://purl.org/dc/dcmitype/StillImage"/>
    <dc:date>2020-10-26T17:41:55.001081</dc:date>
    <dc:format>image/svg+xml</dc:format>
    <dc:creator>
     <cc:Agent>
      <dc:title>Matplotlib v3.3.2, https://matplotlib.org/</dc:title>
     </cc:Agent>
    </dc:creator>
   </cc:Work>
  </rdf:RDF>
 </metadata>
 <defs>
  <style type="text/css">*{stroke-linecap:butt;stroke-linejoin:round;}</style>
 </defs>
 <g id="figure_1">
  <g id="patch_1">
   <path d="M 0 361.217877 
L 417.648125 361.217877 
L 417.648125 0 
L 0 0 
z
" style="fill:#ffffff;"/>
  </g>
  <g id="axes_1">
   <g id="patch_2">
    <path d="M 53.328125 288.430125 
L 410.448125 288.430125 
L 410.448125 22.318125 
L 53.328125 22.318125 
z
" style="fill:#ffffff;"/>
   </g>
   <g id="PolyCollection_1">
    <defs>
     <path d="M 98.920059 -137.965335 
L 97.016191 -137.965335 
L 96.864919 -139.872684 
L 96.696736 -141.780032 
L 96.511071 -143.687381 
L 96.307575 -145.59473 
L 96.086159 -147.502079 
L 95.847026 -149.409427 
L 95.590708 -151.316776 
L 95.318082 -153.224125 
L 95.030391 -155.131474 
L 94.729243 -157.038822 
L 94.416612 -158.946171 
L 94.094812 -160.85352 
L 93.766468 -162.760869 
L 93.434463 -164.668218 
L 93.101886 -166.575566 
L 92.77195 -168.482915 
L 92.447909 -170.390264 
L 92.132965 -172.297613 
L 91.830165 -174.204961 
L 91.542294 -176.11231 
L 91.271773 -178.019659 
L 91.020551 -179.927008 
L 90.790015 -181.834356 
L 90.580903 -183.741705 
L 90.39324 -185.649054 
L 90.226278 -187.556403 
L 90.078475 -189.463751 
L 89.947484 -191.3711 
L 89.83017 -193.278449 
L 89.722651 -195.185798 
L 89.620369 -197.093147 
L 89.518177 -199.000495 
L 89.410451 -200.907844 
L 89.291221 -202.815193 
L 89.154318 -204.722542 
L 88.99353 -206.62989 
L 88.802771 -208.537239 
L 88.576247 -210.444588 
L 88.308625 -212.351937 
L 87.995193 -214.259285 
L 87.632014 -216.166634 
L 87.216065 -218.073983 
L 86.745356 -219.981332 
L 86.219031 -221.888681 
L 85.637447 -223.796029 
L 85.002224 -225.703378 
L 84.316278 -227.610727 
L 83.583812 -229.518076 
L 82.810292 -231.425424 
L 82.00239 -233.332773 
L 81.167901 -235.240122 
L 80.315631 -237.147471 
L 79.455268 -239.054819 
L 78.597221 -240.962168 
L 77.752447 -242.869517 
L 76.932258 -244.776866 
L 76.148115 -246.684214 
L 75.411414 -248.591563 
L 74.733264 -250.498912 
L 74.124271 -252.406261 
L 73.594319 -254.31361 
L 73.15237 -256.220958 
L 72.806269 -258.128307 
L 72.562579 -260.035656 
L 72.426435 -261.943005 
L 72.401428 -263.850353 
L 72.489526 -265.757702 
L 72.691024 -267.665051 
L 73.004537 -269.5724 
L 73.427029 -271.479748 
L 73.95388 -273.387097 
L 74.578988 -275.294446 
L 75.29491 -277.201795 
L 76.093021 -279.109144 
L 76.963711 -281.016492 
L 77.896593 -282.923841 
L 78.880724 -284.83119 
L 79.904837 -286.738539 
L 80.957566 -288.645887 
L 82.027672 -290.553236 
L 83.10425 -292.460585 
L 84.176917 -294.367934 
L 85.235986 -296.275282 
L 86.272603 -298.182631 
L 87.27886 -300.08998 
L 88.247879 -301.997329 
L 89.173862 -303.904677 
L 90.052116 -305.812026 
L 90.879042 -307.719375 
L 91.652107 -309.626724 
L 92.369785 -311.534073 
L 93.031492 -313.441421 
L 93.637489 -315.34877 
L 94.188787 -317.256119 
L 94.687044 -319.163468 
L 95.134451 -321.070816 
L 95.53363 -322.978165 
L 95.887523 -324.885514 
L 96.199298 -326.792863 
L 99.736952 -326.792863 
L 99.736952 -326.792863 
L 100.048727 -324.885514 
L 100.40262 -322.978165 
L 100.801799 -321.070816 
L 101.249206 -319.163468 
L 101.747463 -317.256119 
L 102.298761 -315.34877 
L 102.904758 -313.441421 
L 103.566465 -311.534073 
L 104.284143 -309.626724 
L 105.057208 -307.719375 
L 105.884134 -305.812026 
L 106.762388 -303.904677 
L 107.688371 -301.997329 
L 108.65739 -300.08998 
L 109.663647 -298.182631 
L 110.700264 -296.275282 
L 111.759333 -294.367934 
L 112.832 -292.460585 
L 113.908578 -290.553236 
L 114.978684 -288.645887 
L 116.031413 -286.738539 
L 117.055526 -284.83119 
L 118.039657 -282.923841 
L 118.972539 -281.016492 
L 119.843229 -279.109144 
L 120.64134 -277.201795 
L 121.357262 -275.294446 
L 121.98237 -273.387097 
L 122.509221 -271.479748 
L 122.931713 -269.5724 
L 123.245226 -267.665051 
L 123.446724 -265.757702 
L 123.534822 -263.850353 
L 123.509815 -261.943005 
L 123.373671 -260.035656 
L 123.129981 -258.128307 
L 122.78388 -256.220958 
L 122.341931 -254.31361 
L 121.811979 -252.406261 
L 121.202986 -250.498912 
L 120.524836 -248.591563 
L 119.788135 -246.684214 
L 119.003992 -244.776866 
L 118.183803 -242.869517 
L 117.339029 -240.962168 
L 116.480982 -239.054819 
L 115.620619 -237.147471 
L 114.768349 -235.240122 
L 113.93386 -233.332773 
L 113.125958 -231.425424 
L 112.352438 -229.518076 
L 111.619972 -227.610727 
L 110.934026 -225.703378 
L 110.298803 -223.796029 
L 109.717219 -221.888681 
L 109.190894 -219.981332 
L 108.720185 -218.073983 
L 108.304236 -216.166634 
L 107.941057 -214.259285 
L 107.627625 -212.351937 
L 107.360003 -210.444588 
L 107.133479 -208.537239 
L 106.94272 -206.62989 
L 106.781932 -204.722542 
L 106.645029 -202.815193 
L 106.525799 -200.907844 
L 106.418073 -199.000495 
L 106.315881 -197.093147 
L 106.213599 -195.185798 
L 106.10608 -193.278449 
L 105.988766 -191.3711 
L 105.857775 -189.463751 
L 105.709972 -187.556403 
L 105.54301 -185.649054 
L 105.355347 -183.741705 
L 105.146235 -181.834356 
L 104.915699 -179.927008 
L 104.664477 -178.019659 
L 104.393956 -176.11231 
L 104.106085 -174.204961 
L 103.803285 -172.297613 
L 103.488341 -170.390264 
L 103.1643 -168.482915 
L 102.834364 -166.575566 
L 102.501787 -164.668218 
L 102.169782 -162.760869 
L 101.841438 -160.85352 
L 101.519638 -158.946171 
L 101.207007 -157.038822 
L 100.905859 -155.131474 
L 100.618168 -153.224125 
L 100.345542 -151.316776 
L 100.089224 -149.409427 
L 99.850091 -147.502079 
L 99.628675 -145.59473 
L 99.425179 -143.687381 
L 99.239514 -141.780032 
L 99.071331 -139.872684 
L 98.920059 -137.965335 
z
" id="ma80adc3c36" style="stroke:#3f3f3f;stroke-width:1.5;"/>
    </defs>
    <g clip-path="url(#p71313b0452)">
     <use style="fill:#3274a1;stroke:#3f3f3f;stroke-width:1.5;" x="0" xlink:href="#ma80adc3c36" y="361.217877"/>
    </g>
   </g>
   <g id="PolyCollection_2">
    <defs>
     <path d="M 188.354702 -148.462371 
L 186.141548 -148.462371 
L 185.952419 -150.263799 
L 185.739206 -152.065227 
L 185.500364 -153.866655 
L 185.234502 -155.668083 
L 184.940418 -157.469511 
L 184.617148 -159.270939 
L 184.263995 -161.072367 
L 183.880566 -162.873795 
L 183.466798 -164.675224 
L 183.022972 -166.476652 
L 182.549728 -168.27808 
L 182.04806 -170.079508 
L 181.519308 -171.880936 
L 180.965137 -173.682364 
L 180.38751 -175.483792 
L 179.788647 -177.28522 
L 179.170986 -179.086648 
L 178.537131 -180.888076 
L 177.889803 -182.689505 
L 177.23179 -184.490933 
L 176.565902 -186.292361 
L 175.894924 -188.093789 
L 175.221585 -189.895217 
L 174.54853 -191.696645 
L 173.878303 -193.498073 
L 173.213338 -195.299501 
L 172.555967 -197.100929 
L 171.908427 -198.902357 
L 171.272883 -200.703785 
L 170.651451 -202.505214 
L 170.046224 -204.306642 
L 169.459303 -206.10807 
L 168.89282 -207.909498 
L 168.348955 -209.710926 
L 167.829956 -211.512354 
L 167.338129 -213.313782 
L 166.875843 -215.11521 
L 166.445499 -216.916638 
L 166.049504 -218.718066 
L 165.690229 -220.519495 
L 165.369957 -222.320923 
L 165.090829 -224.122351 
L 164.854779 -225.923779 
L 164.663479 -227.725207 
L 164.518274 -229.526635 
L 164.420138 -231.328063 
L 164.369621 -233.129491 
L 164.366828 -234.930919 
L 164.411394 -236.732347 
L 164.502486 -238.533775 
L 164.638813 -240.335204 
L 164.818662 -242.136632 
L 165.039935 -243.93806 
L 165.300215 -245.739488 
L 165.596828 -247.540916 
L 165.926923 -249.342344 
L 166.287554 -251.143772 
L 166.675756 -252.9452 
L 167.088632 -254.746628 
L 167.523416 -256.548056 
L 167.97754 -258.349484 
L 168.448683 -260.150913 
L 168.934799 -261.952341 
L 169.434142 -263.753769 
L 169.94526 -265.555197 
L 170.466981 -267.356625 
L 170.998383 -269.158053 
L 171.538747 -270.959481 
L 172.087502 -272.760909 
L 172.644163 -274.562337 
L 173.208267 -276.363765 
L 173.779304 -278.165194 
L 174.356655 -279.966622 
L 174.939544 -281.76805 
L 175.526985 -283.569478 
L 176.11776 -285.370906 
L 176.710396 -287.172334 
L 177.303168 -288.973762 
L 177.894109 -290.77519 
L 178.481042 -292.576618 
L 179.061617 -294.378046 
L 179.633366 -296.179474 
L 180.193758 -297.980903 
L 180.740264 -299.782331 
L 181.270423 -301.583759 
L 181.781903 -303.385187 
L 182.272562 -305.186615 
L 182.740501 -306.988043 
L 183.184104 -308.789471 
L 183.602073 -310.590899 
L 183.99345 -312.392327 
L 184.357627 -314.193755 
L 184.694345 -315.995184 
L 185.003684 -317.796612 
L 185.286038 -319.59804 
L 185.542094 -321.399468 
L 185.772793 -323.200896 
L 185.97929 -325.002324 
L 186.162917 -326.803752 
L 188.333333 -326.803752 
L 188.333333 -326.803752 
L 188.51696 -325.002324 
L 188.723457 -323.200896 
L 188.954156 -321.399468 
L 189.210212 -319.59804 
L 189.492566 -317.796612 
L 189.801905 -315.995184 
L 190.138623 -314.193755 
L 190.5028 -312.392327 
L 190.894177 -310.590899 
L 191.312146 -308.789471 
L 191.755749 -306.988043 
L 192.223688 -305.186615 
L 192.714347 -303.385187 
L 193.225827 -301.583759 
L 193.755986 -299.782331 
L 194.302492 -297.980903 
L 194.862884 -296.179474 
L 195.434633 -294.378046 
L 196.015208 -292.576618 
L 196.602141 -290.77519 
L 197.193082 -288.973762 
L 197.785854 -287.172334 
L 198.37849 -285.370906 
L 198.969265 -283.569478 
L 199.556706 -281.76805 
L 200.139595 -279.966622 
L 200.716946 -278.165194 
L 201.287983 -276.363765 
L 201.852087 -274.562337 
L 202.408748 -272.760909 
L 202.957503 -270.959481 
L 203.497867 -269.158053 
L 204.029269 -267.356625 
L 204.55099 -265.555197 
L 205.062108 -263.753769 
L 205.561451 -261.952341 
L 206.047567 -260.150913 
L 206.51871 -258.349484 
L 206.972834 -256.548056 
L 207.407618 -254.746628 
L 207.820494 -252.9452 
L 208.208696 -251.143772 
L 208.569327 -249.342344 
L 208.899422 -247.540916 
L 209.196035 -245.739488 
L 209.456315 -243.93806 
L 209.677588 -242.136632 
L 209.857437 -240.335204 
L 209.993764 -238.533775 
L 210.084856 -236.732347 
L 210.129422 -234.930919 
L 210.126629 -233.129491 
L 210.076112 -231.328063 
L 209.977976 -229.526635 
L 209.832771 -227.725207 
L 209.641471 -225.923779 
L 209.405421 -224.122351 
L 209.126293 -222.320923 
L 208.806021 -220.519495 
L 208.446746 -218.718066 
L 208.050751 -216.916638 
L 207.620407 -215.11521 
L 207.158121 -213.313782 
L 206.666294 -211.512354 
L 206.147295 -209.710926 
L 205.60343 -207.909498 
L 205.036947 -206.10807 
L 204.450026 -204.306642 
L 203.844799 -202.505214 
L 203.223367 -200.703785 
L 202.587823 -198.902357 
L 201.940283 -197.100929 
L 201.282912 -195.299501 
L 200.617947 -193.498073 
L 199.94772 -191.696645 
L 199.274665 -189.895217 
L 198.601326 -188.093789 
L 197.930348 -186.292361 
L 197.26446 -184.490933 
L 196.606447 -182.689505 
L 195.959119 -180.888076 
L 195.325264 -179.086648 
L 194.707603 -177.28522 
L 194.10874 -175.483792 
L 193.531113 -173.682364 
L 192.976942 -171.880936 
L 192.44819 -170.079508 
L 191.946522 -168.27808 
L 191.473278 -166.476652 
L 191.029452 -164.675224 
L 190.615684 -162.873795 
L 190.232255 -161.072367 
L 189.879102 -159.270939 
L 189.555832 -157.469511 
L 189.261748 -155.668083 
L 188.995886 -153.866655 
L 188.757044 -152.065227 
L 188.543831 -150.263799 
L 188.354702 -148.462371 
z
" id="m3d6995bab4" style="stroke:#3f3f3f;stroke-width:1.5;"/>
    </defs>
    <g clip-path="url(#p71313b0452)">
     <use style="fill:#c7c7c7;stroke:#3f3f3f;stroke-width:1.5;" x="0" xlink:href="#m3d6995bab4" y="361.217877"/>
    </g>
   </g>
   <g id="PolyCollection_3">
    <defs>
     <path d="M 279.20009 -154.392137 
L 273.85616 -154.392137 
L 273.409553 -155.486877 
L 272.906359 -156.581616 
L 272.342793 -157.676355 
L 271.715416 -158.771095 
L 271.021254 -159.865834 
L 270.257922 -160.960574 
L 269.423749 -162.055313 
L 268.517909 -163.150053 
L 267.540534 -164.244792 
L 266.492823 -165.339531 
L 265.377138 -166.434271 
L 264.197076 -167.52901 
L 262.957515 -168.62375 
L 261.664639 -169.718489 
L 260.325923 -170.813229 
L 258.950089 -171.907968 
L 257.547024 -173.002707 
L 256.127662 -174.097447 
L 254.703831 -175.192186 
L 253.288061 -176.286926 
L 251.893373 -177.381665 
L 250.533027 -178.476404 
L 249.220266 -179.571144 
L 247.968032 -180.665883 
L 246.788693 -181.760623 
L 245.693754 -182.855362 
L 244.693601 -183.950102 
L 243.797245 -185.044841 
L 243.012111 -186.13958 
L 242.343852 -187.23432 
L 241.79621 -188.329059 
L 241.370926 -189.423799 
L 241.067698 -190.518538 
L 240.884195 -191.613277 
L 240.816125 -192.708017 
L 240.857355 -193.802756 
L 241.000081 -194.897496 
L 241.23504 -195.992235 
L 241.551763 -197.086975 
L 241.93886 -198.181714 
L 242.384318 -199.276453 
L 242.875826 -200.371193 
L 243.401085 -201.465932 
L 243.948128 -202.560672 
L 244.505614 -203.655411 
L 245.063096 -204.75015 
L 245.611265 -205.84489 
L 246.142148 -206.939629 
L 246.649264 -208.034369 
L 247.127732 -209.129108 
L 247.574331 -210.223848 
L 247.98751 -211.318587 
L 248.367351 -212.413326 
L 248.71548 -213.508066 
L 249.034945 -214.602805 
L 249.330055 -215.697545 
L 249.606185 -216.792284 
L 249.869564 -217.887024 
L 250.127043 -218.981763 
L 250.385857 -220.076502 
L 250.653381 -221.171242 
L 250.9369 -222.265981 
L 251.243384 -223.360721 
L 251.579284 -224.45546 
L 251.95035 -225.550199 
L 252.361479 -226.644939 
L 252.816592 -227.739678 
L 253.318539 -228.834418 
L 253.869043 -229.929157 
L 254.468675 -231.023897 
L 255.116863 -232.118636 
L 255.811927 -233.213375 
L 256.551146 -234.308115 
L 257.330849 -235.402854 
L 258.146525 -236.497594 
L 258.992952 -237.592333 
L 259.864339 -238.687072 
L 260.75447 -239.781812 
L 261.656858 -240.876551 
L 262.564894 -241.971291 
L 263.471994 -243.06603 
L 264.371735 -244.16077 
L 265.257975 -245.255509 
L 266.124971 -246.350248 
L 266.967466 -247.444988 
L 267.780765 -248.539727 
L 268.560795 -249.634467 
L 269.30414 -250.729206 
L 270.008063 -251.823945 
L 270.670503 -252.918685 
L 271.290066 -254.013424 
L 271.865995 -255.108164 
L 272.398128 -256.202903 
L 272.88685 -257.297643 
L 273.333034 -258.392382 
L 273.737976 -259.487121 
L 274.10333 -260.581861 
L 274.431044 -261.6766 
L 274.723286 -262.77134 
L 278.332964 -262.77134 
L 278.332964 -262.77134 
L 278.625206 -261.6766 
L 278.95292 -260.581861 
L 279.318274 -259.487121 
L 279.723216 -258.392382 
L 280.1694 -257.297643 
L 280.658122 -256.202903 
L 281.190255 -255.108164 
L 281.766184 -254.013424 
L 282.385747 -252.918685 
L 283.048187 -251.823945 
L 283.75211 -250.729206 
L 284.495455 -249.634467 
L 285.275485 -248.539727 
L 286.088784 -247.444988 
L 286.931279 -246.350248 
L 287.798275 -245.255509 
L 288.684515 -244.16077 
L 289.584256 -243.06603 
L 290.491356 -241.971291 
L 291.399392 -240.876551 
L 292.30178 -239.781812 
L 293.191911 -238.687072 
L 294.063298 -237.592333 
L 294.909725 -236.497594 
L 295.725401 -235.402854 
L 296.505104 -234.308115 
L 297.244323 -233.213375 
L 297.939387 -232.118636 
L 298.587575 -231.023897 
L 299.187207 -229.929157 
L 299.737711 -228.834418 
L 300.239658 -227.739678 
L 300.694771 -226.644939 
L 301.1059 -225.550199 
L 301.476966 -224.45546 
L 301.812866 -223.360721 
L 302.11935 -222.265981 
L 302.402869 -221.171242 
L 302.670393 -220.076502 
L 302.929207 -218.981763 
L 303.186686 -217.887024 
L 303.450065 -216.792284 
L 303.726195 -215.697545 
L 304.021305 -214.602805 
L 304.34077 -213.508066 
L 304.688899 -212.413326 
L 305.06874 -211.318587 
L 305.481919 -210.223848 
L 305.928518 -209.129108 
L 306.406986 -208.034369 
L 306.914102 -206.939629 
L 307.444985 -205.84489 
L 307.993154 -204.75015 
L 308.550636 -203.655411 
L 309.108122 -202.560672 
L 309.655165 -201.465932 
L 310.180424 -200.371193 
L 310.671932 -199.276453 
L 311.11739 -198.181714 
L 311.504487 -197.086975 
L 311.82121 -195.992235 
L 312.056169 -194.897496 
L 312.198895 -193.802756 
L 312.240125 -192.708017 
L 312.172055 -191.613277 
L 311.988552 -190.518538 
L 311.685324 -189.423799 
L 311.26004 -188.329059 
L 310.712398 -187.23432 
L 310.044139 -186.13958 
L 309.259005 -185.044841 
L 308.362649 -183.950102 
L 307.362496 -182.855362 
L 306.267557 -181.760623 
L 305.088218 -180.665883 
L 303.835984 -179.571144 
L 302.523223 -178.476404 
L 301.162877 -177.381665 
L 299.768189 -176.286926 
L 298.352419 -175.192186 
L 296.928588 -174.097447 
L 295.509226 -173.002707 
L 294.106161 -171.907968 
L 292.730327 -170.813229 
L 291.391611 -169.718489 
L 290.098735 -168.62375 
L 288.859174 -167.52901 
L 287.679112 -166.434271 
L 286.563427 -165.339531 
L 285.515716 -164.244792 
L 284.538341 -163.150053 
L 283.632501 -162.055313 
L 282.798328 -160.960574 
L 282.034996 -159.865834 
L 281.340834 -158.771095 
L 280.713457 -157.676355 
L 280.149891 -156.581616 
L 279.646697 -155.486877 
L 279.20009 -154.392137 
z
" id="mad452ec2ba" style="stroke:#3f3f3f;stroke-width:1.5;"/>
    </defs>
    <g clip-path="url(#p71313b0452)">
     <use style="fill:#9fd495;stroke:#3f3f3f;stroke-width:1.5;" x="0" xlink:href="#mad452ec2ba" y="361.217877"/>
    </g>
   </g>
   <g id="PolyCollection_4">
    <defs>
     <path d="M 366.8369 -84.883752 
L 364.77935 -84.883752 
L 364.613052 -86.677178 
L 364.427842 -88.470604 
L 364.223065 -90.26403 
L 363.998316 -92.057456 
L 363.753486 -93.850882 
L 363.4888 -95.644308 
L 363.20485 -97.437734 
L 362.902619 -99.23116 
L 362.583499 -101.024586 
L 362.249288 -102.818012 
L 361.90218 -104.611438 
L 361.544735 -106.404864 
L 361.179837 -108.19829 
L 360.810629 -109.991716 
L 360.440439 -111.785142 
L 360.072683 -113.578568 
L 359.710764 -115.371994 
L 359.357957 -117.16542 
L 359.017282 -118.958846 
L 358.69139 -120.752272 
L 358.382436 -122.545698 
L 358.091967 -124.339124 
L 357.820828 -126.13255 
L 357.56907 -127.925976 
L 357.335902 -129.719402 
L 357.119648 -131.512828 
L 356.917746 -133.306254 
L 356.726778 -135.09968 
L 356.542525 -136.893106 
L 356.36006 -138.686532 
L 356.173872 -140.479958 
L 355.978012 -142.273384 
L 355.766267 -144.06681 
L 355.532351 -145.860236 
L 355.27011 -147.653662 
L 354.973724 -149.447088 
L 354.637922 -151.240514 
L 354.258171 -153.03394 
L 353.830865 -154.827366 
L 353.35348 -156.620793 
L 352.824706 -158.414219 
L 352.244546 -160.207645 
L 351.614377 -162.001071 
L 350.936974 -163.794497 
L 350.216493 -165.587923 
L 349.458415 -167.381349 
L 348.669457 -169.174775 
L 347.857442 -170.968201 
L 347.031151 -172.761627 
L 346.200136 -174.555053 
L 345.374528 -176.348479 
L 344.56483 -178.141905 
L 343.781693 -179.935331 
L 343.035713 -181.728757 
L 342.337212 -183.522183 
L 341.696048 -185.315609 
L 341.121427 -187.109035 
L 340.621745 -188.902461 
L 340.204442 -190.695887 
L 339.87589 -192.489313 
L 339.641292 -194.282739 
L 339.504622 -196.076165 
L 339.468574 -197.869591 
L 339.534548 -199.663017 
L 339.702647 -201.456443 
L 339.971702 -203.249869 
L 340.339317 -205.043295 
L 340.801927 -206.836721 
L 341.354874 -208.630147 
L 341.992499 -210.423573 
L 342.708249 -212.216999 
L 343.494787 -214.010425 
L 344.344119 -215.803851 
L 345.247729 -217.597277 
L 346.19671 -219.390703 
L 347.181914 -221.184129 
L 348.194088 -222.977555 
L 349.224018 -224.770981 
L 350.262667 -226.564407 
L 351.301304 -228.357833 
L 352.331628 -230.151259 
L 353.345876 -231.944685 
L 354.336921 -233.738111 
L 355.29835 -235.531537 
L 356.224529 -237.324963 
L 357.110647 -239.118389 
L 357.952741 -240.911815 
L 358.747702 -242.705241 
L 359.493265 -244.498667 
L 360.187981 -246.292093 
L 360.831172 -248.085519 
L 361.422874 -249.878945 
L 361.963774 -251.672371 
L 362.455128 -253.465797 
L 362.898686 -255.259223 
L 363.296607 -257.052649 
L 363.651372 -258.846075 
L 363.965708 -260.639501 
L 364.242506 -262.432927 
L 367.373744 -262.432927 
L 367.373744 -262.432927 
L 367.650542 -260.639501 
L 367.964878 -258.846075 
L 368.319643 -257.052649 
L 368.717564 -255.259223 
L 369.161122 -253.465797 
L 369.652476 -251.672371 
L 370.193376 -249.878945 
L 370.785078 -248.085519 
L 371.428269 -246.292093 
L 372.122985 -244.498667 
L 372.868548 -242.705241 
L 373.663509 -240.911815 
L 374.505603 -239.118389 
L 375.391721 -237.324963 
L 376.3179 -235.531537 
L 377.279329 -233.738111 
L 378.270374 -231.944685 
L 379.284622 -230.151259 
L 380.314946 -228.357833 
L 381.353583 -226.564407 
L 382.392232 -224.770981 
L 383.422162 -222.977555 
L 384.434336 -221.184129 
L 385.41954 -219.390703 
L 386.368521 -217.597277 
L 387.272131 -215.803851 
L 388.121463 -214.010425 
L 388.908001 -212.216999 
L 389.623751 -210.423573 
L 390.261376 -208.630147 
L 390.814323 -206.836721 
L 391.276933 -205.043295 
L 391.644548 -203.249869 
L 391.913603 -201.456443 
L 392.081702 -199.663017 
L 392.147676 -197.869591 
L 392.111628 -196.076165 
L 391.974958 -194.282739 
L 391.74036 -192.489313 
L 391.411808 -190.695887 
L 390.994505 -188.902461 
L 390.494823 -187.109035 
L 389.920202 -185.315609 
L 389.279038 -183.522183 
L 388.580537 -181.728757 
L 387.834557 -179.935331 
L 387.05142 -178.141905 
L 386.241722 -176.348479 
L 385.416114 -174.555053 
L 384.585099 -172.761627 
L 383.758808 -170.968201 
L 382.946793 -169.174775 
L 382.157835 -167.381349 
L 381.399757 -165.587923 
L 380.679276 -163.794497 
L 380.001873 -162.001071 
L 379.371704 -160.207645 
L 378.791544 -158.414219 
L 378.26277 -156.620793 
L 377.785385 -154.827366 
L 377.358079 -153.03394 
L 376.978328 -151.240514 
L 376.642526 -149.447088 
L 376.34614 -147.653662 
L 376.083899 -145.860236 
L 375.849983 -144.06681 
L 375.638238 -142.273384 
L 375.442378 -140.479958 
L 375.25619 -138.686532 
L 375.073725 -136.893106 
L 374.889472 -135.09968 
L 374.698504 -133.306254 
L 374.496602 -131.512828 
L 374.280348 -129.719402 
L 374.04718 -127.925976 
L 373.795422 -126.13255 
L 373.524283 -124.339124 
L 373.233814 -122.545698 
L 372.92486 -120.752272 
L 372.598968 -118.958846 
L 372.258293 -117.16542 
L 371.905486 -115.371994 
L 371.543567 -113.578568 
L 371.175811 -111.785142 
L 370.805621 -109.991716 
L 370.436413 -108.19829 
L 370.071515 -106.404864 
L 369.71407 -104.611438 
L 369.366962 -102.818012 
L 369.032751 -101.024586 
L 368.713631 -99.23116 
L 368.4114 -97.437734 
L 368.12745 -95.644308 
L 367.862764 -93.850882 
L 367.617934 -92.057456 
L 367.393185 -90.26403 
L 367.188408 -88.470604 
L 367.003198 -86.677178 
L 366.8369 -84.883752 
z
" id="mff21c2f395" style="stroke:#3f3f3f;stroke-width:1.5;"/>
    </defs>
    <g clip-path="url(#p71313b0452)">
     <use style="fill:#c03d3e;stroke:#3f3f3f;stroke-width:1.5;" x="0" xlink:href="#mff21c2f395" y="361.217877"/>
    </g>
   </g>
   <g id="matplotlib.axis_1">
    <g id="xtick_1">
     <g id="line2d_1">
      <defs>
       <path d="M 0 0 
L 0 3.5 
" id="m544f95244a" style="stroke:#000000;stroke-width:0.8;"/>
      </defs>
      <g>
       <use style="stroke:#000000;stroke-width:0.8;" x="97.968125" xlink:href="#m544f95244a" y="288.430125"/>
      </g>
     </g>
     <g id="text_1">
      <!-- aflplusplus -->
      <g transform="translate(50.359118 328.897284)rotate(-30)scale(0.1 -0.1)">
       <defs>
        <path d="M 34.28125 27.484375 
Q 23.390625 27.484375 19.1875 25 
Q 14.984375 22.515625 14.984375 16.5 
Q 14.984375 11.71875 18.140625 8.90625 
Q 21.296875 6.109375 26.703125 6.109375 
Q 34.1875 6.109375 38.703125 11.40625 
Q 43.21875 16.703125 43.21875 25.484375 
L 43.21875 27.484375 
z
M 52.203125 31.203125 
L 52.203125 0 
L 43.21875 0 
L 43.21875 8.296875 
Q 40.140625 3.328125 35.546875 0.953125 
Q 30.953125 -1.421875 24.3125 -1.421875 
Q 15.921875 -1.421875 10.953125 3.296875 
Q 6 8.015625 6 15.921875 
Q 6 25.140625 12.171875 29.828125 
Q 18.359375 34.515625 30.609375 34.515625 
L 43.21875 34.515625 
L 43.21875 35.40625 
Q 43.21875 41.609375 39.140625 45 
Q 35.0625 48.390625 27.6875 48.390625 
Q 23 48.390625 18.546875 47.265625 
Q 14.109375 46.140625 10.015625 43.890625 
L 10.015625 52.203125 
Q 14.9375 54.109375 19.578125 55.046875 
Q 24.21875 56 28.609375 56 
Q 40.484375 56 46.34375 49.84375 
Q 52.203125 43.703125 52.203125 31.203125 
z
" id="DejaVuSans-97"/>
        <path d="M 37.109375 75.984375 
L 37.109375 68.5 
L 28.515625 68.5 
Q 23.6875 68.5 21.796875 66.546875 
Q 19.921875 64.59375 19.921875 59.515625 
L 19.921875 54.6875 
L 34.71875 54.6875 
L 34.71875 47.703125 
L 19.921875 47.703125 
L 19.921875 0 
L 10.890625 0 
L 10.890625 47.703125 
L 2.296875 47.703125 
L 2.296875 54.6875 
L 10.890625 54.6875 
L 10.890625 58.5 
Q 10.890625 67.625 15.140625 71.796875 
Q 19.390625 75.984375 28.609375 75.984375 
z
" id="DejaVuSans-102"/>
        <path d="M 9.421875 75.984375 
L 18.40625 75.984375 
L 18.40625 0 
L 9.421875 0 
z
" id="DejaVuSans-108"/>
        <path d="M 18.109375 8.203125 
L 18.109375 -20.796875 
L 9.078125 -20.796875 
L 9.078125 54.6875 
L 18.109375 54.6875 
L 18.109375 46.390625 
Q 20.953125 51.265625 25.265625 53.625 
Q 29.59375 56 35.59375 56 
Q 45.5625 56 51.78125 48.09375 
Q 58.015625 40.1875 58.015625 27.296875 
Q 58.015625 14.40625 51.78125 6.484375 
Q 45.5625 -1.421875 35.59375 -1.421875 
Q 29.59375 -1.421875 25.265625 0.953125 
Q 20.953125 3.328125 18.109375 8.203125 
z
M 48.6875 27.296875 
Q 48.6875 37.203125 44.609375 42.84375 
Q 40.53125 48.484375 33.40625 48.484375 
Q 26.265625 48.484375 22.1875 42.84375 
Q 18.109375 37.203125 18.109375 27.296875 
Q 18.109375 17.390625 22.1875 11.75 
Q 26.265625 6.109375 33.40625 6.109375 
Q 40.53125 6.109375 44.609375 11.75 
Q 48.6875 17.390625 48.6875 27.296875 
z
" id="DejaVuSans-112"/>
        <path d="M 8.5 21.578125 
L 8.5 54.6875 
L 17.484375 54.6875 
L 17.484375 21.921875 
Q 17.484375 14.15625 20.5 10.265625 
Q 23.53125 6.390625 29.59375 6.390625 
Q 36.859375 6.390625 41.078125 11.03125 
Q 45.3125 15.671875 45.3125 23.6875 
L 45.3125 54.6875 
L 54.296875 54.6875 
L 54.296875 0 
L 45.3125 0 
L 45.3125 8.40625 
Q 42.046875 3.421875 37.71875 1 
Q 33.40625 -1.421875 27.6875 -1.421875 
Q 18.265625 -1.421875 13.375 4.4375 
Q 8.5 10.296875 8.5 21.578125 
z
M 31.109375 56 
z
" id="DejaVuSans-117"/>
        <path d="M 44.28125 53.078125 
L 44.28125 44.578125 
Q 40.484375 46.53125 36.375 47.5 
Q 32.28125 48.484375 27.875 48.484375 
Q 21.1875 48.484375 17.84375 46.4375 
Q 14.5 44.390625 14.5 40.28125 
Q 14.5 37.15625 16.890625 35.375 
Q 19.28125 33.59375 26.515625 31.984375 
L 29.59375 31.296875 
Q 39.15625 29.25 43.1875 25.515625 
Q 47.21875 21.78125 47.21875 15.09375 
Q 47.21875 7.46875 41.1875 3.015625 
Q 35.15625 -1.421875 24.609375 -1.421875 
Q 20.21875 -1.421875 15.453125 -0.5625 
Q 10.6875 0.296875 5.421875 2 
L 5.421875 11.28125 
Q 10.40625 8.6875 15.234375 7.390625 
Q 20.0625 6.109375 24.8125 6.109375 
Q 31.15625 6.109375 34.5625 8.28125 
Q 37.984375 10.453125 37.984375 14.40625 
Q 37.984375 18.0625 35.515625 20.015625 
Q 33.0625 21.96875 24.703125 23.78125 
L 21.578125 24.515625 
Q 13.234375 26.265625 9.515625 29.90625 
Q 5.8125 33.546875 5.8125 39.890625 
Q 5.8125 47.609375 11.28125 51.796875 
Q 16.75 56 26.8125 56 
Q 31.78125 56 36.171875 55.265625 
Q 40.578125 54.546875 44.28125 53.078125 
z
" id="DejaVuSans-115"/>
       </defs>
       <use xlink:href="#DejaVuSans-97"/>
       <use x="61.279297" xlink:href="#DejaVuSans-102"/>
       <use x="96.484375" xlink:href="#DejaVuSans-108"/>
       <use x="124.267578" xlink:href="#DejaVuSans-112"/>
       <use x="187.744141" xlink:href="#DejaVuSans-108"/>
       <use x="215.527344" xlink:href="#DejaVuSans-117"/>
       <use x="278.90625" xlink:href="#DejaVuSans-115"/>
       <use x="331.005859" xlink:href="#DejaVuSans-112"/>
       <use x="394.482422" xlink:href="#DejaVuSans-108"/>
       <use x="422.265625" xlink:href="#DejaVuSans-117"/>
       <use x="485.644531" xlink:href="#DejaVuSans-115"/>
      </g>
     </g>
    </g>
    <g id="xtick_2">
     <g id="line2d_2">
      <g>
       <use style="stroke:#000000;stroke-width:0.8;" x="187.248125" xlink:href="#m544f95244a" y="288.430125"/>
      </g>
     </g>
     <g id="text_2">
      <!-- kirenenko-rare -->
      <g transform="translate(122.939713 338.53869)rotate(-30)scale(0.1 -0.1)">
       <defs>
        <path d="M 9.078125 75.984375 
L 18.109375 75.984375 
L 18.109375 31.109375 
L 44.921875 54.6875 
L 56.390625 54.6875 
L 27.390625 29.109375 
L 57.625 0 
L 45.90625 0 
L 18.109375 26.703125 
L 18.109375 0 
L 9.078125 0 
z
" id="DejaVuSans-107"/>
        <path d="M 9.421875 54.6875 
L 18.40625 54.6875 
L 18.40625 0 
L 9.421875 0 
z
M 9.421875 75.984375 
L 18.40625 75.984375 
L 18.40625 64.59375 
L 9.421875 64.59375 
z
" id="DejaVuSans-105"/>
        <path d="M 41.109375 46.296875 
Q 39.59375 47.171875 37.8125 47.578125 
Q 36.03125 48 33.890625 48 
Q 26.265625 48 22.1875 43.046875 
Q 18.109375 38.09375 18.109375 28.8125 
L 18.109375 0 
L 9.078125 0 
L 9.078125 54.6875 
L 18.109375 54.6875 
L 18.109375 46.1875 
Q 20.953125 51.171875 25.484375 53.578125 
Q 30.03125 56 36.53125 56 
Q 37.453125 56 38.578125 55.875 
Q 39.703125 55.765625 41.0625 55.515625 
z
" id="DejaVuSans-114"/>
        <path d="M 56.203125 29.59375 
L 56.203125 25.203125 
L 14.890625 25.203125 
Q 15.484375 15.921875 20.484375 11.0625 
Q 25.484375 6.203125 34.421875 6.203125 
Q 39.59375 6.203125 44.453125 7.46875 
Q 49.3125 8.734375 54.109375 11.28125 
L 54.109375 2.78125 
Q 49.265625 0.734375 44.1875 -0.34375 
Q 39.109375 -1.421875 33.890625 -1.421875 
Q 20.796875 -1.421875 13.15625 6.1875 
Q 5.515625 13.8125 5.515625 26.8125 
Q 5.515625 40.234375 12.765625 48.109375 
Q 20.015625 56 32.328125 56 
Q 43.359375 56 49.78125 48.890625 
Q 56.203125 41.796875 56.203125 29.59375 
z
M 47.21875 32.234375 
Q 47.125 39.59375 43.09375 43.984375 
Q 39.0625 48.390625 32.421875 48.390625 
Q 24.90625 48.390625 20.390625 44.140625 
Q 15.875 39.890625 15.1875 32.171875 
z
" id="DejaVuSans-101"/>
        <path d="M 54.890625 33.015625 
L 54.890625 0 
L 45.90625 0 
L 45.90625 32.71875 
Q 45.90625 40.484375 42.875 44.328125 
Q 39.84375 48.1875 33.796875 48.1875 
Q 26.515625 48.1875 22.3125 43.546875 
Q 18.109375 38.921875 18.109375 30.90625 
L 18.109375 0 
L 9.078125 0 
L 9.078125 54.6875 
L 18.109375 54.6875 
L 18.109375 46.1875 
Q 21.34375 51.125 25.703125 53.5625 
Q 30.078125 56 35.796875 56 
Q 45.21875 56 50.046875 50.171875 
Q 54.890625 44.34375 54.890625 33.015625 
z
" id="DejaVuSans-110"/>
        <path d="M 30.609375 48.390625 
Q 23.390625 48.390625 19.1875 42.75 
Q 14.984375 37.109375 14.984375 27.296875 
Q 14.984375 17.484375 19.15625 11.84375 
Q 23.34375 6.203125 30.609375 6.203125 
Q 37.796875 6.203125 41.984375 11.859375 
Q 46.1875 17.53125 46.1875 27.296875 
Q 46.1875 37.015625 41.984375 42.703125 
Q 37.796875 48.390625 30.609375 48.390625 
z
M 30.609375 56 
Q 42.328125 56 49.015625 48.375 
Q 55.71875 40.765625 55.71875 27.296875 
Q 55.71875 13.875 49.015625 6.21875 
Q 42.328125 -1.421875 30.609375 -1.421875 
Q 18.84375 -1.421875 12.171875 6.21875 
Q 5.515625 13.875 5.515625 27.296875 
Q 5.515625 40.765625 12.171875 48.375 
Q 18.84375 56 30.609375 56 
z
" id="DejaVuSans-111"/>
        <path d="M 4.890625 31.390625 
L 31.203125 31.390625 
L 31.203125 23.390625 
L 4.890625 23.390625 
z
" id="DejaVuSans-45"/>
       </defs>
       <use xlink:href="#DejaVuSans-107"/>
       <use x="57.910156" xlink:href="#DejaVuSans-105"/>
       <use x="85.693359" xlink:href="#DejaVuSans-114"/>
       <use x="124.556641" xlink:href="#DejaVuSans-101"/>
       <use x="186.080078" xlink:href="#DejaVuSans-110"/>
       <use x="249.458984" xlink:href="#DejaVuSans-101"/>
       <use x="310.982422" xlink:href="#DejaVuSans-110"/>
       <use x="374.361328" xlink:href="#DejaVuSans-107"/>
       <use x="428.646484" xlink:href="#DejaVuSans-111"/>
       <use x="491.703125" xlink:href="#DejaVuSans-45"/>
       <use x="527.787109" xlink:href="#DejaVuSans-114"/>
       <use x="568.900391" xlink:href="#DejaVuSans-97"/>
       <use x="630.179688" xlink:href="#DejaVuSans-114"/>
       <use x="669.042969" xlink:href="#DejaVuSans-101"/>
      </g>
     </g>
    </g>
    <g id="xtick_3">
     <g id="line2d_3">
      <g>
       <use style="stroke:#000000;stroke-width:0.8;" x="276.528125" xlink:href="#m544f95244a" y="288.430125"/>
      </g>
     </g>
     <g id="text_3">
      <!-- honggfuzz -->
      <g transform="translate(230.588924 327.933221)rotate(-30)scale(0.1 -0.1)">
       <defs>
        <path d="M 54.890625 33.015625 
L 54.890625 0 
L 45.90625 0 
L 45.90625 32.71875 
Q 45.90625 40.484375 42.875 44.328125 
Q 39.84375 48.1875 33.796875 48.1875 
Q 26.515625 48.1875 22.3125 43.546875 
Q 18.109375 38.921875 18.109375 30.90625 
L 18.109375 0 
L 9.078125 0 
L 9.078125 75.984375 
L 18.109375 75.984375 
L 18.109375 46.1875 
Q 21.34375 51.125 25.703125 53.5625 
Q 30.078125 56 35.796875 56 
Q 45.21875 56 50.046875 50.171875 
Q 54.890625 44.34375 54.890625 33.015625 
z
" id="DejaVuSans-104"/>
        <path d="M 45.40625 27.984375 
Q 45.40625 37.75 41.375 43.109375 
Q 37.359375 48.484375 30.078125 48.484375 
Q 22.859375 48.484375 18.828125 43.109375 
Q 14.796875 37.75 14.796875 27.984375 
Q 14.796875 18.265625 18.828125 12.890625 
Q 22.859375 7.515625 30.078125 7.515625 
Q 37.359375 7.515625 41.375 12.890625 
Q 45.40625 18.265625 45.40625 27.984375 
z
M 54.390625 6.78125 
Q 54.390625 -7.171875 48.1875 -13.984375 
Q 42 -20.796875 29.203125 -20.796875 
Q 24.46875 -20.796875 20.265625 -20.09375 
Q 16.0625 -19.390625 12.109375 -17.921875 
L 12.109375 -9.1875 
Q 16.0625 -11.328125 19.921875 -12.34375 
Q 23.78125 -13.375 27.78125 -13.375 
Q 36.625 -13.375 41.015625 -8.765625 
Q 45.40625 -4.15625 45.40625 5.171875 
L 45.40625 9.625 
Q 42.625 4.78125 38.28125 2.390625 
Q 33.9375 0 27.875 0 
Q 17.828125 0 11.671875 7.65625 
Q 5.515625 15.328125 5.515625 27.984375 
Q 5.515625 40.671875 11.671875 48.328125 
Q 17.828125 56 27.875 56 
Q 33.9375 56 38.28125 53.609375 
Q 42.625 51.21875 45.40625 46.390625 
L 45.40625 54.6875 
L 54.390625 54.6875 
z
" id="DejaVuSans-103"/>
        <path d="M 5.515625 54.6875 
L 48.1875 54.6875 
L 48.1875 46.484375 
L 14.40625 7.171875 
L 48.1875 7.171875 
L 48.1875 0 
L 4.296875 0 
L 4.296875 8.203125 
L 38.09375 47.515625 
L 5.515625 47.515625 
z
" id="DejaVuSans-122"/>
       </defs>
       <use xlink:href="#DejaVuSans-104"/>
       <use x="63.378906" xlink:href="#DejaVuSans-111"/>
       <use x="124.560547" xlink:href="#DejaVuSans-110"/>
       <use x="187.939453" xlink:href="#DejaVuSans-103"/>
       <use x="251.416016" xlink:href="#DejaVuSans-103"/>
       <use x="314.892578" xlink:href="#DejaVuSans-102"/>
       <use x="350.097656" xlink:href="#DejaVuSans-117"/>
       <use x="413.476562" xlink:href="#DejaVuSans-122"/>
       <use x="465.966797" xlink:href="#DejaVuSans-122"/>
      </g>
     </g>
    </g>
    <g id="xtick_4">
     <g id="line2d_4">
      <g>
       <use style="stroke:#000000;stroke-width:0.8;" x="365.808125" xlink:href="#m544f95244a" y="288.430125"/>
      </g>
     </g>
     <g id="text_4">
      <!-- kirenenko -->
      <g transform="translate(322.347921 326.501971)rotate(-30)scale(0.1 -0.1)">
       <use xlink:href="#DejaVuSans-107"/>
       <use x="57.910156" xlink:href="#DejaVuSans-105"/>
       <use x="85.693359" xlink:href="#DejaVuSans-114"/>
       <use x="124.556641" xlink:href="#DejaVuSans-101"/>
       <use x="186.080078" xlink:href="#DejaVuSans-110"/>
       <use x="249.458984" xlink:href="#DejaVuSans-101"/>
       <use x="310.982422" xlink:href="#DejaVuSans-110"/>
       <use x="374.361328" xlink:href="#DejaVuSans-107"/>
       <use x="428.646484" xlink:href="#DejaVuSans-111"/>
      </g>
     </g>
    </g>
    <g id="text_5">
     <!-- Fuzzer (highest median coverage on the left) -->
     <g transform="translate(119.270156 351.93819)scale(0.1 -0.1)">
      <defs>
       <path d="M 9.8125 72.90625 
L 51.703125 72.90625 
L 51.703125 64.59375 
L 19.671875 64.59375 
L 19.671875 43.109375 
L 48.578125 43.109375 
L 48.578125 34.8125 
L 19.671875 34.8125 
L 19.671875 0 
L 9.8125 0 
z
" id="DejaVuSans-70"/>
       <path id="DejaVuSans-32"/>
       <path d="M 31 75.875 
Q 24.46875 64.65625 21.28125 53.65625 
Q 18.109375 42.671875 18.109375 31.390625 
Q 18.109375 20.125 21.3125 9.0625 
Q 24.515625 -2 31 -13.1875 
L 23.1875 -13.1875 
Q 15.875 -1.703125 12.234375 9.375 
Q 8.59375 20.453125 8.59375 31.390625 
Q 8.59375 42.28125 12.203125 53.3125 
Q 15.828125 64.359375 23.1875 75.875 
z
" id="DejaVuSans-40"/>
       <path d="M 18.3125 70.21875 
L 18.3125 54.6875 
L 36.8125 54.6875 
L 36.8125 47.703125 
L 18.3125 47.703125 
L 18.3125 18.015625 
Q 18.3125 11.328125 20.140625 9.421875 
Q 21.96875 7.515625 27.59375 7.515625 
L 36.8125 7.515625 
L 36.8125 0 
L 27.59375 0 
Q 17.1875 0 13.234375 3.875 
Q 9.28125 7.765625 9.28125 18.015625 
L 9.28125 47.703125 
L 2.6875 47.703125 
L 2.6875 54.6875 
L 9.28125 54.6875 
L 9.28125 70.21875 
z
" id="DejaVuSans-116"/>
       <path d="M 52 44.1875 
Q 55.375 50.25 60.0625 53.125 
Q 64.75 56 71.09375 56 
Q 79.640625 56 84.28125 50.015625 
Q 88.921875 44.046875 88.921875 33.015625 
L 88.921875 0 
L 79.890625 0 
L 79.890625 32.71875 
Q 79.890625 40.578125 77.09375 44.375 
Q 74.3125 48.1875 68.609375 48.1875 
Q 61.625 48.1875 57.5625 43.546875 
Q 53.515625 38.921875 53.515625 30.90625 
L 53.515625 0 
L 44.484375 0 
L 44.484375 32.71875 
Q 44.484375 40.625 41.703125 44.40625 
Q 38.921875 48.1875 33.109375 48.1875 
Q 26.21875 48.1875 22.15625 43.53125 
Q 18.109375 38.875 18.109375 30.90625 
L 18.109375 0 
L 9.078125 0 
L 9.078125 54.6875 
L 18.109375 54.6875 
L 18.109375 46.1875 
Q 21.1875 51.21875 25.484375 53.609375 
Q 29.78125 56 35.6875 56 
Q 41.65625 56 45.828125 52.96875 
Q 50 49.953125 52 44.1875 
z
" id="DejaVuSans-109"/>
       <path d="M 45.40625 46.390625 
L 45.40625 75.984375 
L 54.390625 75.984375 
L 54.390625 0 
L 45.40625 0 
L 45.40625 8.203125 
Q 42.578125 3.328125 38.25 0.953125 
Q 33.9375 -1.421875 27.875 -1.421875 
Q 17.96875 -1.421875 11.734375 6.484375 
Q 5.515625 14.40625 5.515625 27.296875 
Q 5.515625 40.1875 11.734375 48.09375 
Q 17.96875 56 27.875 56 
Q 33.9375 56 38.25 53.625 
Q 42.578125 51.265625 45.40625 46.390625 
z
M 14.796875 27.296875 
Q 14.796875 17.390625 18.875 11.75 
Q 22.953125 6.109375 30.078125 6.109375 
Q 37.203125 6.109375 41.296875 11.75 
Q 45.40625 17.390625 45.40625 27.296875 
Q 45.40625 37.203125 41.296875 42.84375 
Q 37.203125 48.484375 30.078125 48.484375 
Q 22.953125 48.484375 18.875 42.84375 
Q 14.796875 37.203125 14.796875 27.296875 
z
" id="DejaVuSans-100"/>
       <path d="M 48.78125 52.59375 
L 48.78125 44.1875 
Q 44.96875 46.296875 41.140625 47.34375 
Q 37.3125 48.390625 33.40625 48.390625 
Q 24.65625 48.390625 19.8125 42.84375 
Q 14.984375 37.3125 14.984375 27.296875 
Q 14.984375 17.28125 19.8125 11.734375 
Q 24.65625 6.203125 33.40625 6.203125 
Q 37.3125 6.203125 41.140625 7.25 
Q 44.96875 8.296875 48.78125 10.40625 
L 48.78125 2.09375 
Q 45.015625 0.34375 40.984375 -0.53125 
Q 36.96875 -1.421875 32.421875 -1.421875 
Q 20.0625 -1.421875 12.78125 6.34375 
Q 5.515625 14.109375 5.515625 27.296875 
Q 5.515625 40.671875 12.859375 48.328125 
Q 20.21875 56 33.015625 56 
Q 37.15625 56 41.109375 55.140625 
Q 45.0625 54.296875 48.78125 52.59375 
z
" id="DejaVuSans-99"/>
       <path d="M 2.984375 54.6875 
L 12.5 54.6875 
L 29.59375 8.796875 
L 46.6875 54.6875 
L 56.203125 54.6875 
L 35.6875 0 
L 23.484375 0 
z
" id="DejaVuSans-118"/>
       <path d="M 8.015625 75.875 
L 15.828125 75.875 
Q 23.140625 64.359375 26.78125 53.3125 
Q 30.421875 42.28125 30.421875 31.390625 
Q 30.421875 20.453125 26.78125 9.375 
Q 23.140625 -1.703125 15.828125 -13.1875 
L 8.015625 -13.1875 
Q 14.5 -2 17.703125 9.0625 
Q 20.90625 20.125 20.90625 31.390625 
Q 20.90625 42.671875 17.703125 53.65625 
Q 14.5 64.65625 8.015625 75.875 
z
" id="DejaVuSans-41"/>
      </defs>
      <use xlink:href="#DejaVuSans-70"/>
      <use x="52.019531" xlink:href="#DejaVuSans-117"/>
      <use x="115.398438" xlink:href="#DejaVuSans-122"/>
      <use x="167.888672" xlink:href="#DejaVuSans-122"/>
      <use x="220.378906" xlink:href="#DejaVuSans-101"/>
      <use x="281.902344" xlink:href="#DejaVuSans-114"/>
      <use x="323.015625" xlink:href="#DejaVuSans-32"/>
      <use x="354.802734" xlink:href="#DejaVuSans-40"/>
      <use x="393.816406" xlink:href="#DejaVuSans-104"/>
      <use x="457.195312" xlink:href="#DejaVuSans-105"/>
      <use x="484.978516" xlink:href="#DejaVuSans-103"/>
      <use x="548.455078" xlink:href="#DejaVuSans-104"/>
      <use x="611.833984" xlink:href="#DejaVuSans-101"/>
      <use x="673.357422" xlink:href="#DejaVuSans-115"/>
      <use x="725.457031" xlink:href="#DejaVuSans-116"/>
      <use x="764.666016" xlink:href="#DejaVuSans-32"/>
      <use x="796.453125" xlink:href="#DejaVuSans-109"/>
      <use x="893.865234" xlink:href="#DejaVuSans-101"/>
      <use x="955.388672" xlink:href="#DejaVuSans-100"/>
      <use x="1018.865234" xlink:href="#DejaVuSans-105"/>
      <use x="1046.648438" xlink:href="#DejaVuSans-97"/>
      <use x="1107.927734" xlink:href="#DejaVuSans-110"/>
      <use x="1171.306641" xlink:href="#DejaVuSans-32"/>
      <use x="1203.09375" xlink:href="#DejaVuSans-99"/>
      <use x="1258.074219" xlink:href="#DejaVuSans-111"/>
      <use x="1319.255859" xlink:href="#DejaVuSans-118"/>
      <use x="1378.435547" xlink:href="#DejaVuSans-101"/>
      <use x="1439.958984" xlink:href="#DejaVuSans-114"/>
      <use x="1481.072266" xlink:href="#DejaVuSans-97"/>
      <use x="1542.351562" xlink:href="#DejaVuSans-103"/>
      <use x="1605.828125" xlink:href="#DejaVuSans-101"/>
      <use x="1667.351562" xlink:href="#DejaVuSans-32"/>
      <use x="1699.138672" xlink:href="#DejaVuSans-111"/>
      <use x="1760.320312" xlink:href="#DejaVuSans-110"/>
      <use x="1823.699219" xlink:href="#DejaVuSans-32"/>
      <use x="1855.486328" xlink:href="#DejaVuSans-116"/>
      <use x="1894.695312" xlink:href="#DejaVuSans-104"/>
      <use x="1958.074219" xlink:href="#DejaVuSans-101"/>
      <use x="2019.597656" xlink:href="#DejaVuSans-32"/>
      <use x="2051.384766" xlink:href="#DejaVuSans-108"/>
      <use x="2079.167969" xlink:href="#DejaVuSans-101"/>
      <use x="2140.691406" xlink:href="#DejaVuSans-102"/>
      <use x="2174.146484" xlink:href="#DejaVuSans-116"/>
      <use x="2213.355469" xlink:href="#DejaVuSans-41"/>
     </g>
    </g>
   </g>
   <g id="matplotlib.axis_2">
    <g id="ytick_1">
     <g id="line2d_5">
      <defs>
       <path d="M 0 0 
L -3.5 0 
" id="ma14e59b86d" style="stroke:#000000;stroke-width:0.8;"/>
      </defs>
      <g>
       <use style="stroke:#000000;stroke-width:0.8;" x="53.328125" xlink:href="#ma14e59b86d" y="262.042185"/>
      </g>
     </g>
     <g id="text_6">
      <!-- 7750 -->
      <g transform="translate(20.878125 265.841403)scale(0.1 -0.1)">
       <defs>
        <path d="M 8.203125 72.90625 
L 55.078125 72.90625 
L 55.078125 68.703125 
L 28.609375 0 
L 18.3125 0 
L 43.21875 64.59375 
L 8.203125 64.59375 
z
" id="DejaVuSans-55"/>
        <path d="M 10.796875 72.90625 
L 49.515625 72.90625 
L 49.515625 64.59375 
L 19.828125 64.59375 
L 19.828125 46.734375 
Q 21.96875 47.46875 24.109375 47.828125 
Q 26.265625 48.1875 28.421875 48.1875 
Q 40.625 48.1875 47.75 41.5 
Q 54.890625 34.8125 54.890625 23.390625 
Q 54.890625 11.625 47.5625 5.09375 
Q 40.234375 -1.421875 26.90625 -1.421875 
Q 22.3125 -1.421875 17.546875 -0.640625 
Q 12.796875 0.140625 7.71875 1.703125 
L 7.71875 11.625 
Q 12.109375 9.234375 16.796875 8.0625 
Q 21.484375 6.890625 26.703125 6.890625 
Q 35.15625 6.890625 40.078125 11.328125 
Q 45.015625 15.765625 45.015625 23.390625 
Q 45.015625 31 40.078125 35.4375 
Q 35.15625 39.890625 26.703125 39.890625 
Q 22.75 39.890625 18.8125 39.015625 
Q 14.890625 38.140625 10.796875 36.28125 
z
" id="DejaVuSans-53"/>
        <path d="M 31.78125 66.40625 
Q 24.171875 66.40625 20.328125 58.90625 
Q 16.5 51.421875 16.5 36.375 
Q 16.5 21.390625 20.328125 13.890625 
Q 24.171875 6.390625 31.78125 6.390625 
Q 39.453125 6.390625 43.28125 13.890625 
Q 47.125 21.390625 47.125 36.375 
Q 47.125 51.421875 43.28125 58.90625 
Q 39.453125 66.40625 31.78125 66.40625 
z
M 31.78125 74.21875 
Q 44.046875 74.21875 50.515625 64.515625 
Q 56.984375 54.828125 56.984375 36.375 
Q 56.984375 17.96875 50.515625 8.265625 
Q 44.046875 -1.421875 31.78125 -1.421875 
Q 19.53125 -1.421875 13.0625 8.265625 
Q 6.59375 17.96875 6.59375 36.375 
Q 6.59375 54.828125 13.0625 64.515625 
Q 19.53125 74.21875 31.78125 74.21875 
z
" id="DejaVuSans-48"/>
       </defs>
       <use xlink:href="#DejaVuSans-55"/>
       <use x="63.623047" xlink:href="#DejaVuSans-55"/>
       <use x="127.246094" xlink:href="#DejaVuSans-53"/>
       <use x="190.869141" xlink:href="#DejaVuSans-48"/>
      </g>
     </g>
    </g>
    <g id="ytick_2">
     <g id="line2d_6">
      <g>
       <use style="stroke:#000000;stroke-width:0.8;" x="53.328125" xlink:href="#ma14e59b86d" y="231.136522"/>
      </g>
     </g>
     <g id="text_7">
      <!-- 7800 -->
      <g transform="translate(20.878125 234.935741)scale(0.1 -0.1)">
       <defs>
        <path d="M 31.78125 34.625 
Q 24.75 34.625 20.71875 30.859375 
Q 16.703125 27.09375 16.703125 20.515625 
Q 16.703125 13.921875 20.71875 10.15625 
Q 24.75 6.390625 31.78125 6.390625 
Q 38.8125 6.390625 42.859375 10.171875 
Q 46.921875 13.96875 46.921875 20.515625 
Q 46.921875 27.09375 42.890625 30.859375 
Q 38.875 34.625 31.78125 34.625 
z
M 21.921875 38.8125 
Q 15.578125 40.375 12.03125 44.71875 
Q 8.5 49.078125 8.5 55.328125 
Q 8.5 64.0625 14.71875 69.140625 
Q 20.953125 74.21875 31.78125 74.21875 
Q 42.671875 74.21875 48.875 69.140625 
Q 55.078125 64.0625 55.078125 55.328125 
Q 55.078125 49.078125 51.53125 44.71875 
Q 48 40.375 41.703125 38.8125 
Q 48.828125 37.15625 52.796875 32.3125 
Q 56.78125 27.484375 56.78125 20.515625 
Q 56.78125 9.90625 50.3125 4.234375 
Q 43.84375 -1.421875 31.78125 -1.421875 
Q 19.734375 -1.421875 13.25 4.234375 
Q 6.78125 9.90625 6.78125 20.515625 
Q 6.78125 27.484375 10.78125 32.3125 
Q 14.796875 37.15625 21.921875 38.8125 
z
M 18.3125 54.390625 
Q 18.3125 48.734375 21.84375 45.5625 
Q 25.390625 42.390625 31.78125 42.390625 
Q 38.140625 42.390625 41.71875 45.5625 
Q 45.3125 48.734375 45.3125 54.390625 
Q 45.3125 60.0625 41.71875 63.234375 
Q 38.140625 66.40625 31.78125 66.40625 
Q 25.390625 66.40625 21.84375 63.234375 
Q 18.3125 60.0625 18.3125 54.390625 
z
" id="DejaVuSans-56"/>
       </defs>
       <use xlink:href="#DejaVuSans-55"/>
       <use x="63.623047" xlink:href="#DejaVuSans-56"/>
       <use x="127.246094" xlink:href="#DejaVuSans-48"/>
       <use x="190.869141" xlink:href="#DejaVuSans-48"/>
      </g>
     </g>
    </g>
    <g id="ytick_3">
     <g id="line2d_7">
      <g>
       <use style="stroke:#000000;stroke-width:0.8;" x="53.328125" xlink:href="#ma14e59b86d" y="200.230859"/>
      </g>
     </g>
     <g id="text_8">
      <!-- 7850 -->
      <g transform="translate(20.878125 204.030078)scale(0.1 -0.1)">
       <use xlink:href="#DejaVuSans-55"/>
       <use x="63.623047" xlink:href="#DejaVuSans-56"/>
       <use x="127.246094" xlink:href="#DejaVuSans-53"/>
       <use x="190.869141" xlink:href="#DejaVuSans-48"/>
      </g>
     </g>
    </g>
    <g id="ytick_4">
     <g id="line2d_8">
      <g>
       <use style="stroke:#000000;stroke-width:0.8;" x="53.328125" xlink:href="#ma14e59b86d" y="169.325197"/>
      </g>
     </g>
     <g id="text_9">
      <!-- 7900 -->
      <g transform="translate(20.878125 173.124415)scale(0.1 -0.1)">
       <defs>
        <path d="M 10.984375 1.515625 
L 10.984375 10.5 
Q 14.703125 8.734375 18.5 7.8125 
Q 22.3125 6.890625 25.984375 6.890625 
Q 35.75 6.890625 40.890625 13.453125 
Q 46.046875 20.015625 46.78125 33.40625 
Q 43.953125 29.203125 39.59375 26.953125 
Q 35.25 24.703125 29.984375 24.703125 
Q 19.046875 24.703125 12.671875 31.3125 
Q 6.296875 37.9375 6.296875 49.421875 
Q 6.296875 60.640625 12.9375 67.421875 
Q 19.578125 74.21875 30.609375 74.21875 
Q 43.265625 74.21875 49.921875 64.515625 
Q 56.59375 54.828125 56.59375 36.375 
Q 56.59375 19.140625 48.40625 8.859375 
Q 40.234375 -1.421875 26.421875 -1.421875 
Q 22.703125 -1.421875 18.890625 -0.6875 
Q 15.09375 0.046875 10.984375 1.515625 
z
M 30.609375 32.421875 
Q 37.25 32.421875 41.125 36.953125 
Q 45.015625 41.5 45.015625 49.421875 
Q 45.015625 57.28125 41.125 61.84375 
Q 37.25 66.40625 30.609375 66.40625 
Q 23.96875 66.40625 20.09375 61.84375 
Q 16.21875 57.28125 16.21875 49.421875 
Q 16.21875 41.5 20.09375 36.953125 
Q 23.96875 32.421875 30.609375 32.421875 
z
" id="DejaVuSans-57"/>
       </defs>
       <use xlink:href="#DejaVuSans-55"/>
       <use x="63.623047" xlink:href="#DejaVuSans-57"/>
       <use x="127.246094" xlink:href="#DejaVuSans-48"/>
       <use x="190.869141" xlink:href="#DejaVuSans-48"/>
      </g>
     </g>
    </g>
    <g id="ytick_5">
     <g id="line2d_9">
      <g>
       <use style="stroke:#000000;stroke-width:0.8;" x="53.328125" xlink:href="#ma14e59b86d" y="138.419534"/>
      </g>
     </g>
     <g id="text_10">
      <!-- 7950 -->
      <g transform="translate(20.878125 142.218753)scale(0.1 -0.1)">
       <use xlink:href="#DejaVuSans-55"/>
       <use x="63.623047" xlink:href="#DejaVuSans-57"/>
       <use x="127.246094" xlink:href="#DejaVuSans-53"/>
       <use x="190.869141" xlink:href="#DejaVuSans-48"/>
      </g>
     </g>
    </g>
    <g id="ytick_6">
     <g id="line2d_10">
      <g>
       <use style="stroke:#000000;stroke-width:0.8;" x="53.328125" xlink:href="#ma14e59b86d" y="107.513871"/>
      </g>
     </g>
     <g id="text_11">
      <!-- 8000 -->
      <g transform="translate(20.878125 111.31309)scale(0.1 -0.1)">
       <use xlink:href="#DejaVuSans-56"/>
       <use x="63.623047" xlink:href="#DejaVuSans-48"/>
       <use x="127.246094" xlink:href="#DejaVuSans-48"/>
       <use x="190.869141" xlink:href="#DejaVuSans-48"/>
      </g>
     </g>
    </g>
    <g id="ytick_7">
     <g id="line2d_11">
      <g>
       <use style="stroke:#000000;stroke-width:0.8;" x="53.328125" xlink:href="#ma14e59b86d" y="76.608208"/>
      </g>
     </g>
     <g id="text_12">
      <!-- 8050 -->
      <g transform="translate(20.878125 80.407427)scale(0.1 -0.1)">
       <use xlink:href="#DejaVuSans-56"/>
       <use x="63.623047" xlink:href="#DejaVuSans-48"/>
       <use x="127.246094" xlink:href="#DejaVuSans-53"/>
       <use x="190.869141" xlink:href="#DejaVuSans-48"/>
      </g>
     </g>
    </g>
    <g id="ytick_8">
     <g id="line2d_12">
      <g>
       <use style="stroke:#000000;stroke-width:0.8;" x="53.328125" xlink:href="#ma14e59b86d" y="45.702546"/>
      </g>
     </g>
     <g id="text_13">
      <!-- 8100 -->
      <g transform="translate(20.878125 49.501764)scale(0.1 -0.1)">
       <defs>
        <path d="M 12.40625 8.296875 
L 28.515625 8.296875 
L 28.515625 63.921875 
L 10.984375 60.40625 
L 10.984375 69.390625 
L 28.421875 72.90625 
L 38.28125 72.90625 
L 38.28125 8.296875 
L 54.390625 8.296875 
L 54.390625 0 
L 12.40625 0 
z
" id="DejaVuSans-49"/>
       </defs>
       <use xlink:href="#DejaVuSans-56"/>
       <use x="63.623047" xlink:href="#DejaVuSans-49"/>
       <use x="127.246094" xlink:href="#DejaVuSans-48"/>
       <use x="190.869141" xlink:href="#DejaVuSans-48"/>
      </g>
     </g>
    </g>
    <g id="text_14">
     <!-- Reached region coverage -->
     <g transform="translate(14.798438 219.136625)rotate(-90)scale(0.1 -0.1)">
      <defs>
       <path d="M 44.390625 34.1875 
Q 47.5625 33.109375 50.5625 29.59375 
Q 53.5625 26.078125 56.59375 19.921875 
L 66.609375 0 
L 56 0 
L 46.6875 18.703125 
Q 43.0625 26.03125 39.671875 28.421875 
Q 36.28125 30.8125 30.421875 30.8125 
L 19.671875 30.8125 
L 19.671875 0 
L 9.8125 0 
L 9.8125 72.90625 
L 32.078125 72.90625 
Q 44.578125 72.90625 50.734375 67.671875 
Q 56.890625 62.453125 56.890625 51.90625 
Q 56.890625 45.015625 53.6875 40.46875 
Q 50.484375 35.9375 44.390625 34.1875 
z
M 19.671875 64.796875 
L 19.671875 38.921875 
L 32.078125 38.921875 
Q 39.203125 38.921875 42.84375 42.21875 
Q 46.484375 45.515625 46.484375 51.90625 
Q 46.484375 58.296875 42.84375 61.546875 
Q 39.203125 64.796875 32.078125 64.796875 
z
" id="DejaVuSans-82"/>
      </defs>
      <use xlink:href="#DejaVuSans-82"/>
      <use x="64.982422" xlink:href="#DejaVuSans-101"/>
      <use x="126.505859" xlink:href="#DejaVuSans-97"/>
      <use x="187.785156" xlink:href="#DejaVuSans-99"/>
      <use x="242.765625" xlink:href="#DejaVuSans-104"/>
      <use x="306.144531" xlink:href="#DejaVuSans-101"/>
      <use x="367.667969" xlink:href="#DejaVuSans-100"/>
      <use x="431.144531" xlink:href="#DejaVuSans-32"/>
      <use x="462.931641" xlink:href="#DejaVuSans-114"/>
      <use x="501.794922" xlink:href="#DejaVuSans-101"/>
      <use x="563.318359" xlink:href="#DejaVuSans-103"/>
      <use x="626.794922" xlink:href="#DejaVuSans-105"/>
      <use x="654.578125" xlink:href="#DejaVuSans-111"/>
      <use x="715.759766" xlink:href="#DejaVuSans-110"/>
      <use x="779.138672" xlink:href="#DejaVuSans-32"/>
      <use x="810.925781" xlink:href="#DejaVuSans-99"/>
      <use x="865.90625" xlink:href="#DejaVuSans-111"/>
      <use x="927.087891" xlink:href="#DejaVuSans-118"/>
      <use x="986.267578" xlink:href="#DejaVuSans-101"/>
      <use x="1047.791016" xlink:href="#DejaVuSans-114"/>
      <use x="1088.904297" xlink:href="#DejaVuSans-97"/>
      <use x="1150.183594" xlink:href="#DejaVuSans-103"/>
      <use x="1213.660156" xlink:href="#DejaVuSans-101"/>
     </g>
    </g>
   </g>
   <g id="line2d_13">
    <path clip-path="url(#p71313b0452)" d="M 97.968125 116.78557 
L 97.968125 85.261794 
" style="fill:none;stroke:#3f3f3f;stroke-linecap:square;stroke-width:1.5;"/>
   </g>
   <g id="line2d_14">
    <path clip-path="url(#p71313b0452)" d="M 97.968125 116.78557 
L 97.968125 93.297266 
" style="fill:none;stroke:#3f3f3f;stroke-linecap:square;stroke-width:4.5;"/>
   </g>
   <g id="line2d_15">
    <path clip-path="url(#p71313b0452)" d="M 187.248125 166.23463 
L 187.248125 80.935001 
" style="fill:none;stroke:#3f3f3f;stroke-linecap:square;stroke-width:1.5;"/>
   </g>
   <g id="line2d_16">
    <path clip-path="url(#p71313b0452)" d="M 187.248125 140.273874 
L 187.248125 109.368211 
" style="fill:none;stroke:#3f3f3f;stroke-linecap:square;stroke-width:4.5;"/>
   </g>
   <g id="line2d_17">
    <path clip-path="url(#p71313b0452)" d="M 276.528125 176.742556 
L 276.528125 128.529722 
" style="fill:none;stroke:#3f3f3f;stroke-linecap:square;stroke-width:1.5;"/>
   </g>
   <g id="line2d_18">
    <path clip-path="url(#p71313b0452)" d="M 276.528125 172.415763 
L 276.528125 141.5101 
" style="fill:none;stroke:#3f3f3f;stroke-linecap:square;stroke-width:4.5;"/>
   </g>
   <g id="line2d_19">
    <path clip-path="url(#p71313b0452)" d="M 365.808125 176.124442 
L 365.808125 145.836893 
" style="fill:none;stroke:#3f3f3f;stroke-linecap:square;stroke-width:1.5;"/>
   </g>
   <g id="line2d_20">
    <path clip-path="url(#p71313b0452)" d="M 365.808125 176.124442 
L 365.808125 154.490478 
" style="fill:none;stroke:#3f3f3f;stroke-linecap:square;stroke-width:4.5;"/>
   </g>
   <g id="patch_3">
    <path d="M 53.328125 262.042185 
L 53.328125 45.702546 
" style="fill:none;stroke:#000000;stroke-linecap:square;stroke-linejoin:miter;stroke-width:0.8;"/>
   </g>
   <g id="patch_4">
    <path d="M 97.968125 288.430125 
L 365.808125 288.430125 
" style="fill:none;stroke:#000000;stroke-linecap:square;stroke-linejoin:miter;stroke-width:0.8;"/>
   </g>
   <g id="PathCollection_1">
    <defs>
     <path d="M 0 1.5 
C 0.397805 1.5 0.77937 1.341951 1.06066 1.06066 
C 1.341951 0.77937 1.5 0.397805 1.5 0 
C 1.5 -0.397805 1.341951 -0.77937 1.06066 -1.06066 
C 0.77937 -1.341951 0.397805 -1.5 0 -1.5 
C -0.397805 -1.5 -0.77937 -1.341951 -1.06066 -1.06066 
C -1.341951 -0.77937 -1.5 -0.397805 -1.5 0 
C -1.5 0.397805 -1.341951 0.77937 -1.06066 1.06066 
C -0.77937 1.341951 -0.397805 1.5 0 1.5 
z
" id="me4bfbbe885" style="stroke:#3f3f3f;"/>
    </defs>
    <g clip-path="url(#p71313b0452)">
     <use style="fill:#ffffff;stroke:#3f3f3f;" x="97.968125" xlink:href="#me4bfbbe885" y="98.242172"/>
    </g>
   </g>
   <g id="PathCollection_2">
    <g clip-path="url(#p71313b0452)">
     <use style="fill:#ffffff;stroke:#3f3f3f;" x="187.248125" xlink:href="#me4bfbbe885" y="126.057269"/>
    </g>
   </g>
   <g id="PathCollection_3">
    <g clip-path="url(#p71313b0452)">
     <use style="fill:#ffffff;stroke:#3f3f3f;" x="276.528125" xlink:href="#me4bfbbe885" y="163.762177"/>
    </g>
   </g>
   <g id="PathCollection_4">
    <g clip-path="url(#p71313b0452)">
     <use style="fill:#ffffff;stroke:#3f3f3f;" x="365.808125" xlink:href="#me4bfbbe885" y="174.270103"/>
    </g>
   </g>
   <g id="text_15">
    <!-- mbedtls_fuzz_dtlsclient (7h:15m, 5 trials/fuzzer) -->
    <g transform="translate(87.348125 16.318125)scale(0.12 -0.12)">
     <defs>
      <path d="M 48.6875 27.296875 
Q 48.6875 37.203125 44.609375 42.84375 
Q 40.53125 48.484375 33.40625 48.484375 
Q 26.265625 48.484375 22.1875 42.84375 
Q 18.109375 37.203125 18.109375 27.296875 
Q 18.109375 17.390625 22.1875 11.75 
Q 26.265625 6.109375 33.40625 6.109375 
Q 40.53125 6.109375 44.609375 11.75 
Q 48.6875 17.390625 48.6875 27.296875 
z
M 18.109375 46.390625 
Q 20.953125 51.265625 25.265625 53.625 
Q 29.59375 56 35.59375 56 
Q 45.5625 56 51.78125 48.09375 
Q 58.015625 40.1875 58.015625 27.296875 
Q 58.015625 14.40625 51.78125 6.484375 
Q 45.5625 -1.421875 35.59375 -1.421875 
Q 29.59375 -1.421875 25.265625 0.953125 
Q 20.953125 3.328125 18.109375 8.203125 
L 18.109375 0 
L 9.078125 0 
L 9.078125 75.984375 
L 18.109375 75.984375 
z
" id="DejaVuSans-98"/>
      <path d="M 50.984375 -16.609375 
L 50.984375 -23.578125 
L -0.984375 -23.578125 
L -0.984375 -16.609375 
z
" id="DejaVuSans-95"/>
      <path d="M 11.71875 12.40625 
L 22.015625 12.40625 
L 22.015625 0 
L 11.71875 0 
z
M 11.71875 51.703125 
L 22.015625 51.703125 
L 22.015625 39.3125 
L 11.71875 39.3125 
z
" id="DejaVuSans-58"/>
      <path d="M 11.71875 12.40625 
L 22.015625 12.40625 
L 22.015625 4 
L 14.015625 -11.625 
L 7.71875 -11.625 
L 11.71875 4 
z
" id="DejaVuSans-44"/>
      <path d="M 25.390625 72.90625 
L 33.6875 72.90625 
L 8.296875 -9.28125 
L 0 -9.28125 
z
" id="DejaVuSans-47"/>
     </defs>
     <use xlink:href="#DejaVuSans-109"/>
     <use x="97.412109" xlink:href="#DejaVuSans-98"/>
     <use x="160.888672" xlink:href="#DejaVuSans-101"/>
     <use x="222.412109" xlink:href="#DejaVuSans-100"/>
     <use x="285.888672" xlink:href="#DejaVuSans-116"/>
     <use x="325.097656" xlink:href="#DejaVuSans-108"/>
     <use x="352.880859" xlink:href="#DejaVuSans-115"/>
     <use x="404.980469" xlink:href="#DejaVuSans-95"/>
     <use x="454.980469" xlink:href="#DejaVuSans-102"/>
     <use x="490.185547" xlink:href="#DejaVuSans-117"/>
     <use x="553.564453" xlink:href="#DejaVuSans-122"/>
     <use x="606.054688" xlink:href="#DejaVuSans-122"/>
     <use x="658.544922" xlink:href="#DejaVuSans-95"/>
     <use x="708.544922" xlink:href="#DejaVuSans-100"/>
     <use x="772.021484" xlink:href="#DejaVuSans-116"/>
     <use x="811.230469" xlink:href="#DejaVuSans-108"/>
     <use x="839.013672" xlink:href="#DejaVuSans-115"/>
     <use x="891.113281" xlink:href="#DejaVuSans-99"/>
     <use x="946.09375" xlink:href="#DejaVuSans-108"/>
     <use x="973.876953" xlink:href="#DejaVuSans-105"/>
     <use x="1001.660156" xlink:href="#DejaVuSans-101"/>
     <use x="1063.183594" xlink:href="#DejaVuSans-110"/>
     <use x="1126.5625" xlink:href="#DejaVuSans-116"/>
     <use x="1165.771484" xlink:href="#DejaVuSans-32"/>
     <use x="1197.558594" xlink:href="#DejaVuSans-40"/>
     <use x="1236.572266" xlink:href="#DejaVuSans-55"/>
     <use x="1300.195312" xlink:href="#DejaVuSans-104"/>
     <use x="1363.574219" xlink:href="#DejaVuSans-58"/>
     <use x="1397.265625" xlink:href="#DejaVuSans-49"/>
     <use x="1460.888672" xlink:href="#DejaVuSans-53"/>
     <use x="1524.511719" xlink:href="#DejaVuSans-109"/>
     <use x="1621.923828" xlink:href="#DejaVuSans-44"/>
     <use x="1653.710938" xlink:href="#DejaVuSans-32"/>
     <use x="1685.498047" xlink:href="#DejaVuSans-53"/>
     <use x="1749.121094" xlink:href="#DejaVuSans-32"/>
     <use x="1780.908203" xlink:href="#DejaVuSans-116"/>
     <use x="1820.117188" xlink:href="#DejaVuSans-114"/>
     <use x="1861.230469" xlink:href="#DejaVuSans-105"/>
     <use x="1889.013672" xlink:href="#DejaVuSans-97"/>
     <use x="1950.292969" xlink:href="#DejaVuSans-108"/>
     <use x="1978.076172" xlink:href="#DejaVuSans-115"/>
     <use x="2030.175781" xlink:href="#DejaVuSans-47"/>
     <use x="2063.867188" xlink:href="#DejaVuSans-102"/>
     <use x="2099.072266" xlink:href="#DejaVuSans-117"/>
     <use x="2162.451172" xlink:href="#DejaVuSans-122"/>
     <use x="2214.941406" xlink:href="#DejaVuSans-122"/>
     <use x="2267.431641" xlink:href="#DejaVuSans-101"/>
     <use x="2328.955078" xlink:href="#DejaVuSans-114"/>
     <use x="2370.068359" xlink:href="#DejaVuSans-41"/>
    </g>
   </g>
  </g>
 </g>
 <defs>
  <clipPath id="p71313b0452">
   <rect height="266.112" width="357.12" x="53.328125" y="22.318125"/>
  </clipPath>
 </defs>
</svg>
