<?xml version="1.0" encoding="utf-8" standalone="no"?>
<!DOCTYPE svg PUBLIC "-//W3C//DTD SVG 1.1//EN"
  "http://www.w3.org/Graphics/SVG/1.1/DTD/svg11.dtd">
<!-- Created with matplotlib (https://matplotlib.org/) -->
<svg height="361.217877pt" version="1.1" viewBox="0 0 424.010625 361.217877" width="424.010625pt" xmlns="http://www.w3.org/2000/svg" xmlns:xlink="http://www.w3.org/1999/xlink">
 <metadata>
  <rdf:RDF xmlns:cc="http://creativecommons.org/ns#" xmlns:dc="http://purl.org/dc/elements/1.1/" xmlns:rdf="http://www.w3.org/1999/02/22-rdf-syntax-ns#">
   <cc:Work>
    <dc:type rdf:resource="http://purl.org/dc/dcmitype/StillImage"/>
    <dc:date>2020-10-26T17:42:36.133041</dc:date>
    <dc:format>image/svg+xml</dc:format>
    <dc:creator>
     <cc:Agent>
      <dc:title>Matplotlib v3.3.2, https://matplotlib.org/</dc:title>
     </cc:Agent>
    </dc:creator>
   </cc:Work>
  </rdf:RDF>
 </metadata>
 <defs>
  <style type="text/css">*{stroke-linecap:butt;stroke-linejoin:round;}</style>
 </defs>
 <g id="figure_1">
  <g id="patch_1">
   <path d="M 0 361.217877 
L 424.010625 361.217877 
L 424.010625 0 
L 0 0 
z
" style="fill:#ffffff;"/>
  </g>
  <g id="axes_1">
   <g id="patch_2">
    <path d="M 59.690625 288.430125 
L 416.810625 288.430125 
L 416.810625 22.318125 
L 59.690625 22.318125 
z
" style="fill:#ffffff;"/>
   </g>
   <g id="PolyCollection_1">
    <defs>
     <path d="M 104.518938 -122.200255 
L 104.142312 -122.200255 
L 104.112572 -124.266957 
L 104.079315 -126.333659 
L 104.042336 -128.400361 
L 104.001454 -130.467063 
L 103.956521 -132.533765 
L 103.907424 -134.600467 
L 103.854096 -136.667169 
L 103.79652 -138.733871 
L 103.734736 -140.800573 
L 103.668847 -142.867275 
L 103.599021 -144.933977 
L 103.525496 -147.000679 
L 103.448581 -149.067381 
L 103.368654 -151.134083 
L 103.286161 -153.200785 
L 103.201612 -155.267487 
L 103.115575 -157.334189 
L 103.028664 -159.400891 
L 102.941536 -161.467593 
L 102.854872 -163.534295 
L 102.769368 -165.600997 
L 102.685718 -167.667699 
L 102.604599 -169.734401 
L 102.526658 -171.801103 
L 102.45249 -173.867805 
L 102.38263 -175.934507 
L 102.317534 -178.001209 
L 102.257569 -180.067911 
L 102.203001 -182.134613 
L 102.153991 -184.201315 
L 102.110583 -186.268017 
L 102.072708 -188.334719 
L 102.040184 -190.401421 
L 102.012718 -192.468123 
L 101.989916 -194.534825 
L 101.971291 -196.601527 
L 101.956279 -198.668229 
L 101.944255 -200.734931 
L 101.934546 -202.801633 
L 101.926457 -204.868335 
L 101.919285 -206.935037 
L 101.912342 -209.001739 
L 101.904975 -211.068441 
L 101.896586 -213.135143 
L 101.886648 -215.201845 
L 101.87472 -217.268547 
L 101.860465 -219.335249 
L 101.843655 -221.401951 
L 101.824184 -223.468653 
L 101.80207 -225.535355 
L 101.777455 -227.602057 
L 101.750609 -229.668759 
L 101.721917 -231.735461 
L 101.691877 -233.802163 
L 101.661086 -235.868864 
L 101.630227 -237.935566 
L 101.600054 -240.002268 
L 101.571373 -242.06897 
L 101.545023 -244.135672 
L 101.52186 -246.202374 
L 101.502729 -248.269076 
L 101.488451 -250.335778 
L 101.479802 -252.40248 
L 101.477489 -254.469182 
L 101.482142 -256.535884 
L 101.494291 -258.602586 
L 101.514356 -260.669288 
L 101.542638 -262.73599 
L 101.579311 -264.802692 
L 101.624416 -266.869394 
L 101.677861 -268.936096 
L 101.739424 -271.002798 
L 101.808755 -273.0695 
L 101.885387 -275.136202 
L 101.968743 -277.202904 
L 102.058152 -279.269606 
L 102.152861 -281.336308 
L 102.252053 -283.40301 
L 102.354862 -285.469712 
L 102.460395 -287.536414 
L 102.567742 -289.603116 
L 102.676002 -291.669818 
L 102.784293 -293.73652 
L 102.891773 -295.803222 
L 102.997645 -297.869924 
L 103.10118 -299.936626 
L 103.201716 -302.003328 
L 103.298673 -304.07003 
L 103.391553 -306.136732 
L 103.479946 -308.203434 
L 103.56353 -310.270136 
L 103.642069 -312.336838 
L 103.715411 -314.40354 
L 103.78348 -316.470242 
L 103.846275 -318.536944 
L 103.90386 -320.603646 
L 103.956355 -322.670348 
L 104.003931 -324.73705 
L 104.046801 -326.803752 
L 104.614449 -326.803752 
L 104.614449 -326.803752 
L 104.657319 -324.73705 
L 104.704895 -322.670348 
L 104.75739 -320.603646 
L 104.814975 -318.536944 
L 104.87777 -316.470242 
L 104.945839 -314.40354 
L 105.019181 -312.336838 
L 105.09772 -310.270136 
L 105.181304 -308.203434 
L 105.269697 -306.136732 
L 105.362577 -304.07003 
L 105.459534 -302.003328 
L 105.56007 -299.936626 
L 105.663605 -297.869924 
L 105.769477 -295.803222 
L 105.876957 -293.73652 
L 105.985248 -291.669818 
L 106.093508 -289.603116 
L 106.200855 -287.536414 
L 106.306388 -285.469712 
L 106.409197 -283.40301 
L 106.508389 -281.336308 
L 106.603098 -279.269606 
L 106.692507 -277.202904 
L 106.775863 -275.136202 
L 106.852495 -273.0695 
L 106.921826 -271.002798 
L 106.983389 -268.936096 
L 107.036834 -266.869394 
L 107.081939 -264.802692 
L 107.118612 -262.73599 
L 107.146894 -260.669288 
L 107.166959 -258.602586 
L 107.179108 -256.535884 
L 107.183761 -254.469182 
L 107.181448 -252.40248 
L 107.172799 -250.335778 
L 107.158521 -248.269076 
L 107.13939 -246.202374 
L 107.116227 -244.135672 
L 107.089877 -242.06897 
L 107.061196 -240.002268 
L 107.031023 -237.935566 
L 107.000164 -235.868864 
L 106.969373 -233.802163 
L 106.939333 -231.735461 
L 106.910641 -229.668759 
L 106.883795 -227.602057 
L 106.85918 -225.535355 
L 106.837066 -223.468653 
L 106.817595 -221.401951 
L 106.800785 -219.335249 
L 106.78653 -217.268547 
L 106.774602 -215.201845 
L 106.764664 -213.135143 
L 106.756275 -211.068441 
L 106.748908 -209.001739 
L 106.741965 -206.935037 
L 106.734793 -204.868335 
L 106.726704 -202.801633 
L 106.716995 -200.734931 
L 106.704971 -198.668229 
L 106.689959 -196.601527 
L 106.671334 -194.534825 
L 106.648532 -192.468123 
L 106.621066 -190.401421 
L 106.588542 -188.334719 
L 106.550667 -186.268017 
L 106.507259 -184.201315 
L 106.458249 -182.134613 
L 106.403681 -180.067911 
L 106.343716 -178.001209 
L 106.27862 -175.934507 
L 106.20876 -173.867805 
L 106.134592 -171.801103 
L 106.056651 -169.734401 
L 105.975532 -167.667699 
L 105.891882 -165.600997 
L 105.806378 -163.534295 
L 105.719714 -161.467593 
L 105.632586 -159.400891 
L 105.545675 -157.334189 
L 105.459638 -155.267487 
L 105.375089 -153.200785 
L 105.292596 -151.134083 
L 105.212669 -149.067381 
L 105.135754 -147.000679 
L 105.062229 -144.933977 
L 104.992403 -142.867275 
L 104.926514 -140.800573 
L 104.86473 -138.733871 
L 104.807154 -136.667169 
L 104.753826 -134.600467 
L 104.704729 -132.533765 
L 104.659796 -130.467063 
L 104.618914 -128.400361 
L 104.581935 -126.333659 
L 104.548678 -124.266957 
L 104.518938 -122.200255 
z
" id="m45e1fd648c" style="stroke:#3f3f3f;stroke-width:1.5;"/>
    </defs>
    <g clip-path="url(#pe41e71685a)">
     <use style="fill:#c7c7c7;stroke:#3f3f3f;stroke-width:1.5;" x="0" xlink:href="#m45e1fd648c" y="361.217877"/>
    </g>
   </g>
   <g id="PolyCollection_2">
    <defs>
     <path d="M 193.809379 -151.961309 
L 193.411871 -151.961309 
L 193.377218 -153.631772 
L 193.338069 -155.302235 
L 193.294125 -156.972699 
L 193.245113 -158.643162 
L 193.190789 -160.313625 
L 193.130944 -161.984088 
L 193.065413 -163.654551 
L 192.994071 -165.325015 
L 192.916842 -166.995478 
L 192.833694 -168.665941 
L 192.744637 -170.336404 
L 192.649726 -172.006868 
L 192.549049 -173.677331 
L 192.442726 -175.347794 
L 192.330903 -177.018257 
L 192.213745 -178.68872 
L 192.091433 -180.359184 
L 191.964157 -182.029647 
L 191.832121 -183.70011 
L 191.695539 -185.370573 
L 191.554642 -187.041037 
L 191.40969 -188.7115 
L 191.260978 -190.381963 
L 191.108853 -192.052426 
L 190.953734 -193.722889 
L 190.796127 -195.393353 
L 190.636647 -197.063816 
L 190.476036 -198.734279 
L 190.315176 -200.404742 
L 190.155103 -202.075206 
L 189.997011 -203.745669 
L 189.842253 -205.416132 
L 189.692326 -207.086595 
L 189.548856 -208.757059 
L 189.413571 -210.427522 
L 189.288259 -212.097985 
L 189.174729 -213.768448 
L 189.074752 -215.438911 
L 188.990015 -217.109375 
L 188.922051 -218.779838 
L 188.872188 -220.450301 
L 188.841495 -222.120764 
L 188.830725 -223.791228 
L 188.840282 -225.461691 
L 188.870189 -227.132154 
L 188.92007 -228.802617 
L 188.989149 -230.47308 
L 189.07626 -232.143544 
L 189.179875 -233.814007 
L 189.298148 -235.48447 
L 189.428959 -237.154933 
L 189.569987 -238.825397 
L 189.718773 -240.49586 
L 189.872799 -242.166323 
L 190.029563 -243.836786 
L 190.186655 -245.50725 
L 190.341827 -247.177713 
L 190.493053 -248.848176 
L 190.638582 -250.518639 
L 190.776982 -252.189102 
L 190.907161 -253.859566 
L 191.028385 -255.530029 
L 191.140275 -257.200492 
L 191.242797 -258.870955 
L 191.33623 -260.541419 
L 191.421135 -262.211882 
L 191.498309 -263.882345 
L 191.568736 -265.552808 
L 191.633531 -267.223271 
L 191.693884 -268.893735 
L 191.75101 -270.564198 
L 191.806093 -272.234661 
L 191.860245 -273.905124 
L 191.914462 -275.575588 
L 191.9696 -277.246051 
L 192.026343 -278.916514 
L 192.085195 -280.586977 
L 192.146474 -282.25744 
L 192.210313 -283.927904 
L 192.276669 -285.598367 
L 192.345341 -287.26883 
L 192.415991 -288.939293 
L 192.488167 -290.609757 
L 192.561331 -292.28022 
L 192.634886 -293.950683 
L 192.708205 -295.621146 
L 192.780653 -297.29161 
L 192.851617 -298.962073 
L 192.92052 -300.632536 
L 192.986842 -302.302999 
L 193.05013 -303.973462 
L 193.11001 -305.643926 
L 193.166189 -307.314389 
L 193.21846 -308.984852 
L 193.266696 -310.655315 
L 193.310849 -312.325779 
L 193.350943 -313.996242 
L 193.387064 -315.666705 
L 193.419353 -317.337168 
L 193.801897 -317.337168 
L 193.801897 -317.337168 
L 193.834186 -315.666705 
L 193.870307 -313.996242 
L 193.910401 -312.325779 
L 193.954554 -310.655315 
L 194.00279 -308.984852 
L 194.055061 -307.314389 
L 194.11124 -305.643926 
L 194.17112 -303.973462 
L 194.234408 -302.302999 
L 194.30073 -300.632536 
L 194.369633 -298.962073 
L 194.440597 -297.29161 
L 194.513045 -295.621146 
L 194.586364 -293.950683 
L 194.659919 -292.28022 
L 194.733083 -290.609757 
L 194.805259 -288.939293 
L 194.875909 -287.26883 
L 194.944581 -285.598367 
L 195.010937 -283.927904 
L 195.074776 -282.25744 
L 195.136055 -280.586977 
L 195.194907 -278.916514 
L 195.25165 -277.246051 
L 195.306788 -275.575588 
L 195.361005 -273.905124 
L 195.415157 -272.234661 
L 195.47024 -270.564198 
L 195.527366 -268.893735 
L 195.587719 -267.223271 
L 195.652514 -265.552808 
L 195.722941 -263.882345 
L 195.800115 -262.211882 
L 195.88502 -260.541419 
L 195.978453 -258.870955 
L 196.080975 -257.200492 
L 196.192865 -255.530029 
L 196.314089 -253.859566 
L 196.444268 -252.189102 
L 196.582668 -250.518639 
L 196.728197 -248.848176 
L 196.879423 -247.177713 
L 197.034595 -245.50725 
L 197.191687 -243.836786 
L 197.348451 -242.166323 
L 197.502477 -240.49586 
L 197.651263 -238.825397 
L 197.792291 -237.154933 
L 197.923102 -235.48447 
L 198.041375 -233.814007 
L 198.14499 -232.143544 
L 198.232101 -230.47308 
L 198.30118 -228.802617 
L 198.351061 -227.132154 
L 198.380968 -225.461691 
L 198.390525 -223.791228 
L 198.379755 -222.120764 
L 198.349062 -220.450301 
L 198.299199 -218.779838 
L 198.231235 -217.109375 
L 198.146498 -215.438911 
L 198.046521 -213.768448 
L 197.932991 -212.097985 
L 197.807679 -210.427522 
L 197.672394 -208.757059 
L 197.528924 -207.086595 
L 197.378997 -205.416132 
L 197.224239 -203.745669 
L 197.066147 -202.075206 
L 196.906074 -200.404742 
L 196.745214 -198.734279 
L 196.584603 -197.063816 
L 196.425123 -195.393353 
L 196.267516 -193.722889 
L 196.112397 -192.052426 
L 195.960272 -190.381963 
L 195.81156 -188.7115 
L 195.666608 -187.041037 
L 195.525711 -185.370573 
L 195.389129 -183.70011 
L 195.257093 -182.029647 
L 195.129817 -180.359184 
L 195.007505 -178.68872 
L 194.890347 -177.018257 
L 194.778524 -175.347794 
L 194.672201 -173.677331 
L 194.571524 -172.006868 
L 194.476613 -170.336404 
L 194.387556 -168.665941 
L 194.304408 -166.995478 
L 194.227179 -165.325015 
L 194.155837 -163.654551 
L 194.090306 -161.984088 
L 194.030461 -160.313625 
L 193.976137 -158.643162 
L 193.927125 -156.972699 
L 193.883181 -155.302235 
L 193.844032 -153.631772 
L 193.809379 -151.961309 
z
" id="mfd37353e3c" style="stroke:#3f3f3f;stroke-width:1.5;"/>
    </defs>
    <g clip-path="url(#pe41e71685a)">
     <use style="fill:#c03d3e;stroke:#3f3f3f;stroke-width:1.5;" x="0" xlink:href="#mfd37353e3c" y="361.217877"/>
    </g>
   </g>
   <g id="PolyCollection_3">
    <defs>
     <path d="M 283.434257 -134.060057 
L 282.346993 -134.060057 
L 282.258502 -135.6449 
L 282.159417 -137.229744 
L 282.049183 -138.814588 
L 281.927344 -140.399431 
L 281.793566 -141.984275 
L 281.647666 -143.569119 
L 281.489634 -145.153962 
L 281.319655 -146.738806 
L 281.138131 -148.323649 
L 280.945699 -149.908493 
L 280.743238 -151.493337 
L 280.531885 -153.07818 
L 280.313028 -154.663024 
L 280.088307 -156.247868 
L 279.859597 -157.832711 
L 279.628991 -159.417555 
L 279.39877 -161.002399 
L 279.171373 -162.587242 
L 278.94935 -164.172086 
L 278.735321 -165.756929 
L 278.53192 -167.341773 
L 278.341744 -168.926617 
L 278.167293 -170.51146 
L 278.010916 -172.096304 
L 277.874757 -173.681148 
L 277.760697 -175.265991 
L 277.670316 -176.850835 
L 277.604847 -178.435679 
L 277.565145 -180.020522 
L 277.551664 -181.605366 
L 277.564443 -183.190209 
L 277.603105 -184.775053 
L 277.666861 -186.359897 
L 277.754526 -187.94474 
L 277.864553 -189.529584 
L 277.99506 -191.114428 
L 278.143877 -192.699271 
L 278.308595 -194.284115 
L 278.48662 -195.868959 
L 278.675228 -197.453802 
L 278.871627 -199.038646 
L 279.073009 -200.623489 
L 279.276613 -202.208333 
L 279.479774 -203.793177 
L 279.679972 -205.37802 
L 279.874878 -206.962864 
L 280.062387 -208.547708 
L 280.240653 -210.132551 
L 280.408109 -211.717395 
L 280.563484 -213.302239 
L 280.705813 -214.887082 
L 280.834437 -216.471926 
L 280.949 -218.056769 
L 281.049438 -219.641613 
L 281.13596 -221.226457 
L 281.209034 -222.8113 
L 281.269354 -224.396144 
L 281.317817 -225.980988 
L 281.355493 -227.565831 
L 281.383586 -229.150675 
L 281.403409 -230.735519 
L 281.416342 -232.320362 
L 281.423804 -233.905206 
L 281.427219 -235.490049 
L 281.427983 -237.074893 
L 281.427439 -238.659737 
L 281.426847 -240.24458 
L 281.427363 -241.829424 
L 281.430021 -243.414268 
L 281.435715 -244.999111 
L 281.445188 -246.583955 
L 281.459027 -248.168799 
L 281.477655 -249.753642 
L 281.501337 -251.338486 
L 281.530182 -252.923329 
L 281.56415 -254.508173 
L 281.603067 -256.093017 
L 281.646635 -257.67786 
L 281.694452 -259.262704 
L 281.746025 -260.847548 
L 281.800795 -262.432391 
L 281.85815 -264.017235 
L 281.91745 -265.602079 
L 281.97804 -267.186922 
L 282.039271 -268.771766 
L 282.100513 -270.356609 
L 282.161172 -271.941453 
L 282.220697 -273.526297 
L 282.278594 -275.11114 
L 282.334429 -276.695984 
L 282.387836 -278.280828 
L 282.438515 -279.865671 
L 282.486236 -281.450515 
L 282.530836 -283.035359 
L 282.572212 -284.620202 
L 282.610325 -286.205046 
L 282.645186 -287.789889 
L 282.676851 -289.374733 
L 282.705421 -290.959577 
L 283.075829 -290.959577 
L 283.075829 -290.959577 
L 283.104399 -289.374733 
L 283.136064 -287.789889 
L 283.170925 -286.205046 
L 283.209038 -284.620202 
L 283.250414 -283.035359 
L 283.295014 -281.450515 
L 283.342735 -279.865671 
L 283.393414 -278.280828 
L 283.446821 -276.695984 
L 283.502656 -275.11114 
L 283.560553 -273.526297 
L 283.620078 -271.941453 
L 283.680737 -270.356609 
L 283.741979 -268.771766 
L 283.80321 -267.186922 
L 283.8638 -265.602079 
L 283.9231 -264.017235 
L 283.980455 -262.432391 
L 284.035225 -260.847548 
L 284.086798 -259.262704 
L 284.134615 -257.67786 
L 284.178183 -256.093017 
L 284.2171 -254.508173 
L 284.251068 -252.923329 
L 284.279913 -251.338486 
L 284.303595 -249.753642 
L 284.322223 -248.168799 
L 284.336062 -246.583955 
L 284.345535 -244.999111 
L 284.351229 -243.414268 
L 284.353887 -241.829424 
L 284.354403 -240.24458 
L 284.353811 -238.659737 
L 284.353267 -237.074893 
L 284.354031 -235.490049 
L 284.357446 -233.905206 
L 284.364908 -232.320362 
L 284.377841 -230.735519 
L 284.397664 -229.150675 
L 284.425757 -227.565831 
L 284.463433 -225.980988 
L 284.511896 -224.396144 
L 284.572216 -222.8113 
L 284.64529 -221.226457 
L 284.731812 -219.641613 
L 284.83225 -218.056769 
L 284.946813 -216.471926 
L 285.075437 -214.887082 
L 285.217766 -213.302239 
L 285.373141 -211.717395 
L 285.540597 -210.132551 
L 285.718863 -208.547708 
L 285.906372 -206.962864 
L 286.101278 -205.37802 
L 286.301476 -203.793177 
L 286.504637 -202.208333 
L 286.708241 -200.623489 
L 286.909623 -199.038646 
L 287.106022 -197.453802 
L 287.29463 -195.868959 
L 287.472655 -194.284115 
L 287.637373 -192.699271 
L 287.78619 -191.114428 
L 287.916697 -189.529584 
L 288.026724 -187.94474 
L 288.114389 -186.359897 
L 288.178145 -184.775053 
L 288.216807 -183.190209 
L 288.229586 -181.605366 
L 288.216105 -180.020522 
L 288.176403 -178.435679 
L 288.110934 -176.850835 
L 288.020553 -175.265991 
L 287.906493 -173.681148 
L 287.770334 -172.096304 
L 287.613957 -170.51146 
L 287.439506 -168.926617 
L 287.24933 -167.341773 
L 287.045929 -165.756929 
L 286.8319 -164.172086 
L 286.609877 -162.587242 
L 286.38248 -161.002399 
L 286.152259 -159.417555 
L 285.921653 -157.832711 
L 285.692943 -156.247868 
L 285.468222 -154.663024 
L 285.249365 -153.07818 
L 285.038012 -151.493337 
L 284.835551 -149.908493 
L 284.643119 -148.323649 
L 284.461595 -146.738806 
L 284.291616 -145.153962 
L 284.133584 -143.569119 
L 283.987684 -141.984275 
L 283.853906 -140.399431 
L 283.732067 -138.814588 
L 283.621833 -137.229744 
L 283.522748 -135.6449 
L 283.434257 -134.060057 
z
" id="m906125a5c1" style="stroke:#3f3f3f;stroke-width:1.5;"/>
    </defs>
    <g clip-path="url(#pe41e71685a)">
     <use style="fill:#3274a1;stroke:#3f3f3f;stroke-width:1.5;" x="0" xlink:href="#m906125a5c1" y="361.217877"/>
    </g>
   </g>
   <g id="PolyCollection_4">
    <defs>
     <path d="M 376.334879 -84.883752 
L 368.006371 -84.883752 
L 367.366414 -85.0953 
L 366.656341 -85.306848 
L 365.873495 -85.518396 
L 365.015991 -85.729944 
L 364.082859 -85.941492 
L 363.07418 -86.15304 
L 361.991208 -86.364588 
L 360.836476 -86.576136 
L 359.613883 -86.787684 
L 358.32875 -86.999232 
L 356.987841 -87.21078 
L 355.599359 -87.422328 
L 354.172886 -87.633876 
L 352.719301 -87.845424 
L 351.250646 -88.056972 
L 349.779953 -88.26852 
L 348.321038 -88.480068 
L 346.888267 -88.691616 
L 345.496283 -88.903163 
L 344.159726 -89.114711 
L 342.89294 -89.326259 
L 341.709669 -89.537807 
L 340.622773 -89.749355 
L 339.643949 -89.960903 
L 338.783483 -90.172451 
L 338.050035 -90.383999 
L 337.450458 -90.595547 
L 336.989666 -90.807095 
L 336.670549 -91.018643 
L 336.493939 -91.230191 
L 336.458625 -91.441739 
L 336.561414 -91.653287 
L 336.79724 -91.864835 
L 337.159314 -92.076383 
L 337.639303 -92.287931 
L 338.227541 -92.499479 
L 338.913252 -92.711027 
L 339.6848 -92.922575 
L 340.529927 -93.134123 
L 341.436 -93.345671 
L 342.39025 -93.557219 
L 343.379991 -93.768767 
L 344.392834 -93.980315 
L 345.41687 -94.191863 
L 346.440841 -94.403411 
L 347.454279 -94.614959 
L 348.447629 -94.826507 
L 349.412351 -95.038054 
L 350.340992 -95.249602 
L 351.227241 -95.46115 
L 352.065973 -95.672698 
L 352.853257 -95.884246 
L 353.586361 -96.095794 
L 354.263738 -96.307342 
L 354.884987 -96.51889 
L 355.450807 -96.730438 
L 355.962936 -96.941986 
L 356.424066 -97.153534 
L 356.837757 -97.365082 
L 357.208324 -97.57663 
L 357.540725 -97.788178 
L 357.840424 -97.999726 
L 358.113262 -98.211274 
L 358.365305 -98.422822 
L 358.602701 -98.63437 
L 358.831533 -98.845918 
L 359.057677 -99.057466 
L 359.286663 -99.269014 
L 359.523553 -99.480562 
L 359.772831 -99.69211 
L 360.03831 -99.903658 
L 360.323062 -100.115206 
L 360.629365 -100.326754 
L 360.958678 -100.538302 
L 361.311636 -100.74985 
L 361.688075 -100.961398 
L 362.087068 -101.172945 
L 362.506987 -101.384493 
L 362.945587 -101.596041 
L 363.40009 -101.807589 
L 363.867296 -102.019137 
L 364.343684 -102.230685 
L 364.825529 -102.442233 
L 365.309009 -102.653781 
L 365.790311 -102.865329 
L 366.265731 -103.076877 
L 366.731759 -103.288425 
L 367.185152 -103.499973 
L 367.623 -103.711521 
L 368.042769 -103.923069 
L 368.442335 -104.134617 
L 368.819999 -104.346165 
L 369.174493 -104.557713 
L 369.504969 -104.769261 
L 369.810985 -104.980809 
L 370.09247 -105.192357 
L 370.349694 -105.403905 
L 370.583225 -105.615453 
L 370.793888 -105.827001 
L 373.547362 -105.827001 
L 373.547362 -105.827001 
L 373.758025 -105.615453 
L 373.991556 -105.403905 
L 374.24878 -105.192357 
L 374.530265 -104.980809 
L 374.836281 -104.769261 
L 375.166757 -104.557713 
L 375.521251 -104.346165 
L 375.898915 -104.134617 
L 376.298481 -103.923069 
L 376.71825 -103.711521 
L 377.156098 -103.499973 
L 377.609491 -103.288425 
L 378.075519 -103.076877 
L 378.550939 -102.865329 
L 379.032241 -102.653781 
L 379.515721 -102.442233 
L 379.997566 -102.230685 
L 380.473954 -102.019137 
L 380.94116 -101.807589 
L 381.395663 -101.596041 
L 381.834263 -101.384493 
L 382.254182 -101.172945 
L 382.653175 -100.961398 
L 383.029614 -100.74985 
L 383.382572 -100.538302 
L 383.711885 -100.326754 
L 384.018188 -100.115206 
L 384.30294 -99.903658 
L 384.568419 -99.69211 
L 384.817697 -99.480562 
L 385.054587 -99.269014 
L 385.283573 -99.057466 
L 385.509717 -98.845918 
L 385.738549 -98.63437 
L 385.975945 -98.422822 
L 386.227988 -98.211274 
L 386.500826 -97.999726 
L 386.800525 -97.788178 
L 387.132926 -97.57663 
L 387.503493 -97.365082 
L 387.917184 -97.153534 
L 388.378314 -96.941986 
L 388.890443 -96.730438 
L 389.456263 -96.51889 
L 390.077512 -96.307342 
L 390.754889 -96.095794 
L 391.487993 -95.884246 
L 392.275277 -95.672698 
L 393.114009 -95.46115 
L 394.000258 -95.249602 
L 394.928899 -95.038054 
L 395.893621 -94.826507 
L 396.886971 -94.614959 
L 397.900409 -94.403411 
L 398.92438 -94.191863 
L 399.948416 -93.980315 
L 400.961259 -93.768767 
L 401.951 -93.557219 
L 402.90525 -93.345671 
L 403.811323 -93.134123 
L 404.65645 -92.922575 
L 405.427998 -92.711027 
L 406.113709 -92.499479 
L 406.701947 -92.287931 
L 407.181936 -92.076383 
L 407.54401 -91.864835 
L 407.779836 -91.653287 
L 407.882625 -91.441739 
L 407.847311 -91.230191 
L 407.670701 -91.018643 
L 407.351584 -90.807095 
L 406.890792 -90.595547 
L 406.291215 -90.383999 
L 405.557767 -90.172451 
L 404.697301 -89.960903 
L 403.718477 -89.749355 
L 402.631581 -89.537807 
L 401.44831 -89.326259 
L 400.181524 -89.114711 
L 398.844967 -88.903163 
L 397.452983 -88.691616 
L 396.020212 -88.480068 
L 394.561297 -88.26852 
L 393.090604 -88.056972 
L 391.621949 -87.845424 
L 390.168364 -87.633876 
L 388.741891 -87.422328 
L 387.353409 -87.21078 
L 386.0125 -86.999232 
L 384.727367 -86.787684 
L 383.504774 -86.576136 
L 382.350042 -86.364588 
L 381.26707 -86.15304 
L 380.258391 -85.941492 
L 379.325259 -85.729944 
L 378.467755 -85.518396 
L 377.684909 -85.306848 
L 376.974836 -85.0953 
L 376.334879 -84.883752 
z
" id="m0b0264026e" style="stroke:#3f3f3f;stroke-width:1.5;"/>
    </defs>
    <g clip-path="url(#pe41e71685a)">
     <use style="fill:#9fd495;stroke:#3f3f3f;stroke-width:1.5;" x="0" xlink:href="#m0b0264026e" y="361.217877"/>
    </g>
   </g>
   <g id="matplotlib.axis_1">
    <g id="xtick_1">
     <g id="line2d_1">
      <defs>
       <path d="M 0 0 
L 0 3.5 
" id="mca143cc2a9" style="stroke:#000000;stroke-width:0.8;"/>
      </defs>
      <g>
       <use style="stroke:#000000;stroke-width:0.8;" x="104.330625" xlink:href="#mca143cc2a9" y="288.430125"/>
      </g>
     </g>
     <g id="text_1">
      <!-- kirenenko-rare -->
      <g transform="translate(40.022213 338.53869)rotate(-30)scale(0.1 -0.1)">
       <defs>
        <path d="M 9.078125 75.984375 
L 18.109375 75.984375 
L 18.109375 31.109375 
L 44.921875 54.6875 
L 56.390625 54.6875 
L 27.390625 29.109375 
L 57.625 0 
L 45.90625 0 
L 18.109375 26.703125 
L 18.109375 0 
L 9.078125 0 
z
" id="DejaVuSans-107"/>
        <path d="M 9.421875 54.6875 
L 18.40625 54.6875 
L 18.40625 0 
L 9.421875 0 
z
M 9.421875 75.984375 
L 18.40625 75.984375 
L 18.40625 64.59375 
L 9.421875 64.59375 
z
" id="DejaVuSans-105"/>
        <path d="M 41.109375 46.296875 
Q 39.59375 47.171875 37.8125 47.578125 
Q 36.03125 48 33.890625 48 
Q 26.265625 48 22.1875 43.046875 
Q 18.109375 38.09375 18.109375 28.8125 
L 18.109375 0 
L 9.078125 0 
L 9.078125 54.6875 
L 18.109375 54.6875 
L 18.109375 46.1875 
Q 20.953125 51.171875 25.484375 53.578125 
Q 30.03125 56 36.53125 56 
Q 37.453125 56 38.578125 55.875 
Q 39.703125 55.765625 41.0625 55.515625 
z
" id="DejaVuSans-114"/>
        <path d="M 56.203125 29.59375 
L 56.203125 25.203125 
L 14.890625 25.203125 
Q 15.484375 15.921875 20.484375 11.0625 
Q 25.484375 6.203125 34.421875 6.203125 
Q 39.59375 6.203125 44.453125 7.46875 
Q 49.3125 8.734375 54.109375 11.28125 
L 54.109375 2.78125 
Q 49.265625 0.734375 44.1875 -0.34375 
Q 39.109375 -1.421875 33.890625 -1.421875 
Q 20.796875 -1.421875 13.15625 6.1875 
Q 5.515625 13.8125 5.515625 26.8125 
Q 5.515625 40.234375 12.765625 48.109375 
Q 20.015625 56 32.328125 56 
Q 43.359375 56 49.78125 48.890625 
Q 56.203125 41.796875 56.203125 29.59375 
z
M 47.21875 32.234375 
Q 47.125 39.59375 43.09375 43.984375 
Q 39.0625 48.390625 32.421875 48.390625 
Q 24.90625 48.390625 20.390625 44.140625 
Q 15.875 39.890625 15.1875 32.171875 
z
" id="DejaVuSans-101"/>
        <path d="M 54.890625 33.015625 
L 54.890625 0 
L 45.90625 0 
L 45.90625 32.71875 
Q 45.90625 40.484375 42.875 44.328125 
Q 39.84375 48.1875 33.796875 48.1875 
Q 26.515625 48.1875 22.3125 43.546875 
Q 18.109375 38.921875 18.109375 30.90625 
L 18.109375 0 
L 9.078125 0 
L 9.078125 54.6875 
L 18.109375 54.6875 
L 18.109375 46.1875 
Q 21.34375 51.125 25.703125 53.5625 
Q 30.078125 56 35.796875 56 
Q 45.21875 56 50.046875 50.171875 
Q 54.890625 44.34375 54.890625 33.015625 
z
" id="DejaVuSans-110"/>
        <path d="M 30.609375 48.390625 
Q 23.390625 48.390625 19.1875 42.75 
Q 14.984375 37.109375 14.984375 27.296875 
Q 14.984375 17.484375 19.15625 11.84375 
Q 23.34375 6.203125 30.609375 6.203125 
Q 37.796875 6.203125 41.984375 11.859375 
Q 46.1875 17.53125 46.1875 27.296875 
Q 46.1875 37.015625 41.984375 42.703125 
Q 37.796875 48.390625 30.609375 48.390625 
z
M 30.609375 56 
Q 42.328125 56 49.015625 48.375 
Q 55.71875 40.765625 55.71875 27.296875 
Q 55.71875 13.875 49.015625 6.21875 
Q 42.328125 -1.421875 30.609375 -1.421875 
Q 18.84375 -1.421875 12.171875 6.21875 
Q 5.515625 13.875 5.515625 27.296875 
Q 5.515625 40.765625 12.171875 48.375 
Q 18.84375 56 30.609375 56 
z
" id="DejaVuSans-111"/>
        <path d="M 4.890625 31.390625 
L 31.203125 31.390625 
L 31.203125 23.390625 
L 4.890625 23.390625 
z
" id="DejaVuSans-45"/>
        <path d="M 34.28125 27.484375 
Q 23.390625 27.484375 19.1875 25 
Q 14.984375 22.515625 14.984375 16.5 
Q 14.984375 11.71875 18.140625 8.90625 
Q 21.296875 6.109375 26.703125 6.109375 
Q 34.1875 6.109375 38.703125 11.40625 
Q 43.21875 16.703125 43.21875 25.484375 
L 43.21875 27.484375 
z
M 52.203125 31.203125 
L 52.203125 0 
L 43.21875 0 
L 43.21875 8.296875 
Q 40.140625 3.328125 35.546875 0.953125 
Q 30.953125 -1.421875 24.3125 -1.421875 
Q 15.921875 -1.421875 10.953125 3.296875 
Q 6 8.015625 6 15.921875 
Q 6 25.140625 12.171875 29.828125 
Q 18.359375 34.515625 30.609375 34.515625 
L 43.21875 34.515625 
L 43.21875 35.40625 
Q 43.21875 41.609375 39.140625 45 
Q 35.0625 48.390625 27.6875 48.390625 
Q 23 48.390625 18.546875 47.265625 
Q 14.109375 46.140625 10.015625 43.890625 
L 10.015625 52.203125 
Q 14.9375 54.109375 19.578125 55.046875 
Q 24.21875 56 28.609375 56 
Q 40.484375 56 46.34375 49.84375 
Q 52.203125 43.703125 52.203125 31.203125 
z
" id="DejaVuSans-97"/>
       </defs>
       <use xlink:href="#DejaVuSans-107"/>
       <use x="57.910156" xlink:href="#DejaVuSans-105"/>
       <use x="85.693359" xlink:href="#DejaVuSans-114"/>
       <use x="124.556641" xlink:href="#DejaVuSans-101"/>
       <use x="186.080078" xlink:href="#DejaVuSans-110"/>
       <use x="249.458984" xlink:href="#DejaVuSans-101"/>
       <use x="310.982422" xlink:href="#DejaVuSans-110"/>
       <use x="374.361328" xlink:href="#DejaVuSans-107"/>
       <use x="428.646484" xlink:href="#DejaVuSans-111"/>
       <use x="491.703125" xlink:href="#DejaVuSans-45"/>
       <use x="527.787109" xlink:href="#DejaVuSans-114"/>
       <use x="568.900391" xlink:href="#DejaVuSans-97"/>
       <use x="630.179688" xlink:href="#DejaVuSans-114"/>
       <use x="669.042969" xlink:href="#DejaVuSans-101"/>
      </g>
     </g>
    </g>
    <g id="xtick_2">
     <g id="line2d_2">
      <g>
       <use style="stroke:#000000;stroke-width:0.8;" x="193.610625" xlink:href="#mca143cc2a9" y="288.430125"/>
      </g>
     </g>
     <g id="text_2">
      <!-- kirenenko -->
      <g transform="translate(150.150421 326.501971)rotate(-30)scale(0.1 -0.1)">
       <use xlink:href="#DejaVuSans-107"/>
       <use x="57.910156" xlink:href="#DejaVuSans-105"/>
       <use x="85.693359" xlink:href="#DejaVuSans-114"/>
       <use x="124.556641" xlink:href="#DejaVuSans-101"/>
       <use x="186.080078" xlink:href="#DejaVuSans-110"/>
       <use x="249.458984" xlink:href="#DejaVuSans-101"/>
       <use x="310.982422" xlink:href="#DejaVuSans-110"/>
       <use x="374.361328" xlink:href="#DejaVuSans-107"/>
       <use x="428.646484" xlink:href="#DejaVuSans-111"/>
      </g>
     </g>
    </g>
    <g id="xtick_3">
     <g id="line2d_3">
      <g>
       <use style="stroke:#000000;stroke-width:0.8;" x="282.890625" xlink:href="#mca143cc2a9" y="288.430125"/>
      </g>
     </g>
     <g id="text_3">
      <!-- aflplusplus -->
      <g transform="translate(235.281618 328.897284)rotate(-30)scale(0.1 -0.1)">
       <defs>
        <path d="M 37.109375 75.984375 
L 37.109375 68.5 
L 28.515625 68.5 
Q 23.6875 68.5 21.796875 66.546875 
Q 19.921875 64.59375 19.921875 59.515625 
L 19.921875 54.6875 
L 34.71875 54.6875 
L 34.71875 47.703125 
L 19.921875 47.703125 
L 19.921875 0 
L 10.890625 0 
L 10.890625 47.703125 
L 2.296875 47.703125 
L 2.296875 54.6875 
L 10.890625 54.6875 
L 10.890625 58.5 
Q 10.890625 67.625 15.140625 71.796875 
Q 19.390625 75.984375 28.609375 75.984375 
z
" id="DejaVuSans-102"/>
        <path d="M 9.421875 75.984375 
L 18.40625 75.984375 
L 18.40625 0 
L 9.421875 0 
z
" id="DejaVuSans-108"/>
        <path d="M 18.109375 8.203125 
L 18.109375 -20.796875 
L 9.078125 -20.796875 
L 9.078125 54.6875 
L 18.109375 54.6875 
L 18.109375 46.390625 
Q 20.953125 51.265625 25.265625 53.625 
Q 29.59375 56 35.59375 56 
Q 45.5625 56 51.78125 48.09375 
Q 58.015625 40.1875 58.015625 27.296875 
Q 58.015625 14.40625 51.78125 6.484375 
Q 45.5625 -1.421875 35.59375 -1.421875 
Q 29.59375 -1.421875 25.265625 0.953125 
Q 20.953125 3.328125 18.109375 8.203125 
z
M 48.6875 27.296875 
Q 48.6875 37.203125 44.609375 42.84375 
Q 40.53125 48.484375 33.40625 48.484375 
Q 26.265625 48.484375 22.1875 42.84375 
Q 18.109375 37.203125 18.109375 27.296875 
Q 18.109375 17.390625 22.1875 11.75 
Q 26.265625 6.109375 33.40625 6.109375 
Q 40.53125 6.109375 44.609375 11.75 
Q 48.6875 17.390625 48.6875 27.296875 
z
" id="DejaVuSans-112"/>
        <path d="M 8.5 21.578125 
L 8.5 54.6875 
L 17.484375 54.6875 
L 17.484375 21.921875 
Q 17.484375 14.15625 20.5 10.265625 
Q 23.53125 6.390625 29.59375 6.390625 
Q 36.859375 6.390625 41.078125 11.03125 
Q 45.3125 15.671875 45.3125 23.6875 
L 45.3125 54.6875 
L 54.296875 54.6875 
L 54.296875 0 
L 45.3125 0 
L 45.3125 8.40625 
Q 42.046875 3.421875 37.71875 1 
Q 33.40625 -1.421875 27.6875 -1.421875 
Q 18.265625 -1.421875 13.375 4.4375 
Q 8.5 10.296875 8.5 21.578125 
z
M 31.109375 56 
z
" id="DejaVuSans-117"/>
        <path d="M 44.28125 53.078125 
L 44.28125 44.578125 
Q 40.484375 46.53125 36.375 47.5 
Q 32.28125 48.484375 27.875 48.484375 
Q 21.1875 48.484375 17.84375 46.4375 
Q 14.5 44.390625 14.5 40.28125 
Q 14.5 37.15625 16.890625 35.375 
Q 19.28125 33.59375 26.515625 31.984375 
L 29.59375 31.296875 
Q 39.15625 29.25 43.1875 25.515625 
Q 47.21875 21.78125 47.21875 15.09375 
Q 47.21875 7.46875 41.1875 3.015625 
Q 35.15625 -1.421875 24.609375 -1.421875 
Q 20.21875 -1.421875 15.453125 -0.5625 
Q 10.6875 0.296875 5.421875 2 
L 5.421875 11.28125 
Q 10.40625 8.6875 15.234375 7.390625 
Q 20.0625 6.109375 24.8125 6.109375 
Q 31.15625 6.109375 34.5625 8.28125 
Q 37.984375 10.453125 37.984375 14.40625 
Q 37.984375 18.0625 35.515625 20.015625 
Q 33.0625 21.96875 24.703125 23.78125 
L 21.578125 24.515625 
Q 13.234375 26.265625 9.515625 29.90625 
Q 5.8125 33.546875 5.8125 39.890625 
Q 5.8125 47.609375 11.28125 51.796875 
Q 16.75 56 26.8125 56 
Q 31.78125 56 36.171875 55.265625 
Q 40.578125 54.546875 44.28125 53.078125 
z
" id="DejaVuSans-115"/>
       </defs>
       <use xlink:href="#DejaVuSans-97"/>
       <use x="61.279297" xlink:href="#DejaVuSans-102"/>
       <use x="96.484375" xlink:href="#DejaVuSans-108"/>
       <use x="124.267578" xlink:href="#DejaVuSans-112"/>
       <use x="187.744141" xlink:href="#DejaVuSans-108"/>
       <use x="215.527344" xlink:href="#DejaVuSans-117"/>
       <use x="278.90625" xlink:href="#DejaVuSans-115"/>
       <use x="331.005859" xlink:href="#DejaVuSans-112"/>
       <use x="394.482422" xlink:href="#DejaVuSans-108"/>
       <use x="422.265625" xlink:href="#DejaVuSans-117"/>
       <use x="485.644531" xlink:href="#DejaVuSans-115"/>
      </g>
     </g>
    </g>
    <g id="xtick_4">
     <g id="line2d_4">
      <g>
       <use style="stroke:#000000;stroke-width:0.8;" x="372.170625" xlink:href="#mca143cc2a9" y="288.430125"/>
      </g>
     </g>
     <g id="text_4">
      <!-- honggfuzz -->
      <g transform="translate(326.231424 327.933221)rotate(-30)scale(0.1 -0.1)">
       <defs>
        <path d="M 54.890625 33.015625 
L 54.890625 0 
L 45.90625 0 
L 45.90625 32.71875 
Q 45.90625 40.484375 42.875 44.328125 
Q 39.84375 48.1875 33.796875 48.1875 
Q 26.515625 48.1875 22.3125 43.546875 
Q 18.109375 38.921875 18.109375 30.90625 
L 18.109375 0 
L 9.078125 0 
L 9.078125 75.984375 
L 18.109375 75.984375 
L 18.109375 46.1875 
Q 21.34375 51.125 25.703125 53.5625 
Q 30.078125 56 35.796875 56 
Q 45.21875 56 50.046875 50.171875 
Q 54.890625 44.34375 54.890625 33.015625 
z
" id="DejaVuSans-104"/>
        <path d="M 45.40625 27.984375 
Q 45.40625 37.75 41.375 43.109375 
Q 37.359375 48.484375 30.078125 48.484375 
Q 22.859375 48.484375 18.828125 43.109375 
Q 14.796875 37.75 14.796875 27.984375 
Q 14.796875 18.265625 18.828125 12.890625 
Q 22.859375 7.515625 30.078125 7.515625 
Q 37.359375 7.515625 41.375 12.890625 
Q 45.40625 18.265625 45.40625 27.984375 
z
M 54.390625 6.78125 
Q 54.390625 -7.171875 48.1875 -13.984375 
Q 42 -20.796875 29.203125 -20.796875 
Q 24.46875 -20.796875 20.265625 -20.09375 
Q 16.0625 -19.390625 12.109375 -17.921875 
L 12.109375 -9.1875 
Q 16.0625 -11.328125 19.921875 -12.34375 
Q 23.78125 -13.375 27.78125 -13.375 
Q 36.625 -13.375 41.015625 -8.765625 
Q 45.40625 -4.15625 45.40625 5.171875 
L 45.40625 9.625 
Q 42.625 4.78125 38.28125 2.390625 
Q 33.9375 0 27.875 0 
Q 17.828125 0 11.671875 7.65625 
Q 5.515625 15.328125 5.515625 27.984375 
Q 5.515625 40.671875 11.671875 48.328125 
Q 17.828125 56 27.875 56 
Q 33.9375 56 38.28125 53.609375 
Q 42.625 51.21875 45.40625 46.390625 
L 45.40625 54.6875 
L 54.390625 54.6875 
z
" id="DejaVuSans-103"/>
        <path d="M 5.515625 54.6875 
L 48.1875 54.6875 
L 48.1875 46.484375 
L 14.40625 7.171875 
L 48.1875 7.171875 
L 48.1875 0 
L 4.296875 0 
L 4.296875 8.203125 
L 38.09375 47.515625 
L 5.515625 47.515625 
z
" id="DejaVuSans-122"/>
       </defs>
       <use xlink:href="#DejaVuSans-104"/>
       <use x="63.378906" xlink:href="#DejaVuSans-111"/>
       <use x="124.560547" xlink:href="#DejaVuSans-110"/>
       <use x="187.939453" xlink:href="#DejaVuSans-103"/>
       <use x="251.416016" xlink:href="#DejaVuSans-103"/>
       <use x="314.892578" xlink:href="#DejaVuSans-102"/>
       <use x="350.097656" xlink:href="#DejaVuSans-117"/>
       <use x="413.476562" xlink:href="#DejaVuSans-122"/>
       <use x="465.966797" xlink:href="#DejaVuSans-122"/>
      </g>
     </g>
    </g>
    <g id="text_5">
     <!-- Fuzzer (highest median coverage on the left) -->
     <g transform="translate(125.632656 351.93819)scale(0.1 -0.1)">
      <defs>
       <path d="M 9.8125 72.90625 
L 51.703125 72.90625 
L 51.703125 64.59375 
L 19.671875 64.59375 
L 19.671875 43.109375 
L 48.578125 43.109375 
L 48.578125 34.8125 
L 19.671875 34.8125 
L 19.671875 0 
L 9.8125 0 
z
" id="DejaVuSans-70"/>
       <path id="DejaVuSans-32"/>
       <path d="M 31 75.875 
Q 24.46875 64.65625 21.28125 53.65625 
Q 18.109375 42.671875 18.109375 31.390625 
Q 18.109375 20.125 21.3125 9.0625 
Q 24.515625 -2 31 -13.1875 
L 23.1875 -13.1875 
Q 15.875 -1.703125 12.234375 9.375 
Q 8.59375 20.453125 8.59375 31.390625 
Q 8.59375 42.28125 12.203125 53.3125 
Q 15.828125 64.359375 23.1875 75.875 
z
" id="DejaVuSans-40"/>
       <path d="M 18.3125 70.21875 
L 18.3125 54.6875 
L 36.8125 54.6875 
L 36.8125 47.703125 
L 18.3125 47.703125 
L 18.3125 18.015625 
Q 18.3125 11.328125 20.140625 9.421875 
Q 21.96875 7.515625 27.59375 7.515625 
L 36.8125 7.515625 
L 36.8125 0 
L 27.59375 0 
Q 17.1875 0 13.234375 3.875 
Q 9.28125 7.765625 9.28125 18.015625 
L 9.28125 47.703125 
L 2.6875 47.703125 
L 2.6875 54.6875 
L 9.28125 54.6875 
L 9.28125 70.21875 
z
" id="DejaVuSans-116"/>
       <path d="M 52 44.1875 
Q 55.375 50.25 60.0625 53.125 
Q 64.75 56 71.09375 56 
Q 79.640625 56 84.28125 50.015625 
Q 88.921875 44.046875 88.921875 33.015625 
L 88.921875 0 
L 79.890625 0 
L 79.890625 32.71875 
Q 79.890625 40.578125 77.09375 44.375 
Q 74.3125 48.1875 68.609375 48.1875 
Q 61.625 48.1875 57.5625 43.546875 
Q 53.515625 38.921875 53.515625 30.90625 
L 53.515625 0 
L 44.484375 0 
L 44.484375 32.71875 
Q 44.484375 40.625 41.703125 44.40625 
Q 38.921875 48.1875 33.109375 48.1875 
Q 26.21875 48.1875 22.15625 43.53125 
Q 18.109375 38.875 18.109375 30.90625 
L 18.109375 0 
L 9.078125 0 
L 9.078125 54.6875 
L 18.109375 54.6875 
L 18.109375 46.1875 
Q 21.1875 51.21875 25.484375 53.609375 
Q 29.78125 56 35.6875 56 
Q 41.65625 56 45.828125 52.96875 
Q 50 49.953125 52 44.1875 
z
" id="DejaVuSans-109"/>
       <path d="M 45.40625 46.390625 
L 45.40625 75.984375 
L 54.390625 75.984375 
L 54.390625 0 
L 45.40625 0 
L 45.40625 8.203125 
Q 42.578125 3.328125 38.25 0.953125 
Q 33.9375 -1.421875 27.875 -1.421875 
Q 17.96875 -1.421875 11.734375 6.484375 
Q 5.515625 14.40625 5.515625 27.296875 
Q 5.515625 40.1875 11.734375 48.09375 
Q 17.96875 56 27.875 56 
Q 33.9375 56 38.25 53.625 
Q 42.578125 51.265625 45.40625 46.390625 
z
M 14.796875 27.296875 
Q 14.796875 17.390625 18.875 11.75 
Q 22.953125 6.109375 30.078125 6.109375 
Q 37.203125 6.109375 41.296875 11.75 
Q 45.40625 17.390625 45.40625 27.296875 
Q 45.40625 37.203125 41.296875 42.84375 
Q 37.203125 48.484375 30.078125 48.484375 
Q 22.953125 48.484375 18.875 42.84375 
Q 14.796875 37.203125 14.796875 27.296875 
z
" id="DejaVuSans-100"/>
       <path d="M 48.78125 52.59375 
L 48.78125 44.1875 
Q 44.96875 46.296875 41.140625 47.34375 
Q 37.3125 48.390625 33.40625 48.390625 
Q 24.65625 48.390625 19.8125 42.84375 
Q 14.984375 37.3125 14.984375 27.296875 
Q 14.984375 17.28125 19.8125 11.734375 
Q 24.65625 6.203125 33.40625 6.203125 
Q 37.3125 6.203125 41.140625 7.25 
Q 44.96875 8.296875 48.78125 10.40625 
L 48.78125 2.09375 
Q 45.015625 0.34375 40.984375 -0.53125 
Q 36.96875 -1.421875 32.421875 -1.421875 
Q 20.0625 -1.421875 12.78125 6.34375 
Q 5.515625 14.109375 5.515625 27.296875 
Q 5.515625 40.671875 12.859375 48.328125 
Q 20.21875 56 33.015625 56 
Q 37.15625 56 41.109375 55.140625 
Q 45.0625 54.296875 48.78125 52.59375 
z
" id="DejaVuSans-99"/>
       <path d="M 2.984375 54.6875 
L 12.5 54.6875 
L 29.59375 8.796875 
L 46.6875 54.6875 
L 56.203125 54.6875 
L 35.6875 0 
L 23.484375 0 
z
" id="DejaVuSans-118"/>
       <path d="M 8.015625 75.875 
L 15.828125 75.875 
Q 23.140625 64.359375 26.78125 53.3125 
Q 30.421875 42.28125 30.421875 31.390625 
Q 30.421875 20.453125 26.78125 9.375 
Q 23.140625 -1.703125 15.828125 -13.1875 
L 8.015625 -13.1875 
Q 14.5 -2 17.703125 9.0625 
Q 20.90625 20.125 20.90625 31.390625 
Q 20.90625 42.671875 17.703125 53.65625 
Q 14.5 64.65625 8.015625 75.875 
z
" id="DejaVuSans-41"/>
      </defs>
      <use xlink:href="#DejaVuSans-70"/>
      <use x="52.019531" xlink:href="#DejaVuSans-117"/>
      <use x="115.398438" xlink:href="#DejaVuSans-122"/>
      <use x="167.888672" xlink:href="#DejaVuSans-122"/>
      <use x="220.378906" xlink:href="#DejaVuSans-101"/>
      <use x="281.902344" xlink:href="#DejaVuSans-114"/>
      <use x="323.015625" xlink:href="#DejaVuSans-32"/>
      <use x="354.802734" xlink:href="#DejaVuSans-40"/>
      <use x="393.816406" xlink:href="#DejaVuSans-104"/>
      <use x="457.195312" xlink:href="#DejaVuSans-105"/>
      <use x="484.978516" xlink:href="#DejaVuSans-103"/>
      <use x="548.455078" xlink:href="#DejaVuSans-104"/>
      <use x="611.833984" xlink:href="#DejaVuSans-101"/>
      <use x="673.357422" xlink:href="#DejaVuSans-115"/>
      <use x="725.457031" xlink:href="#DejaVuSans-116"/>
      <use x="764.666016" xlink:href="#DejaVuSans-32"/>
      <use x="796.453125" xlink:href="#DejaVuSans-109"/>
      <use x="893.865234" xlink:href="#DejaVuSans-101"/>
      <use x="955.388672" xlink:href="#DejaVuSans-100"/>
      <use x="1018.865234" xlink:href="#DejaVuSans-105"/>
      <use x="1046.648438" xlink:href="#DejaVuSans-97"/>
      <use x="1107.927734" xlink:href="#DejaVuSans-110"/>
      <use x="1171.306641" xlink:href="#DejaVuSans-32"/>
      <use x="1203.09375" xlink:href="#DejaVuSans-99"/>
      <use x="1258.074219" xlink:href="#DejaVuSans-111"/>
      <use x="1319.255859" xlink:href="#DejaVuSans-118"/>
      <use x="1378.435547" xlink:href="#DejaVuSans-101"/>
      <use x="1439.958984" xlink:href="#DejaVuSans-114"/>
      <use x="1481.072266" xlink:href="#DejaVuSans-97"/>
      <use x="1542.351562" xlink:href="#DejaVuSans-103"/>
      <use x="1605.828125" xlink:href="#DejaVuSans-101"/>
      <use x="1667.351562" xlink:href="#DejaVuSans-32"/>
      <use x="1699.138672" xlink:href="#DejaVuSans-111"/>
      <use x="1760.320312" xlink:href="#DejaVuSans-110"/>
      <use x="1823.699219" xlink:href="#DejaVuSans-32"/>
      <use x="1855.486328" xlink:href="#DejaVuSans-116"/>
      <use x="1894.695312" xlink:href="#DejaVuSans-104"/>
      <use x="1958.074219" xlink:href="#DejaVuSans-101"/>
      <use x="2019.597656" xlink:href="#DejaVuSans-32"/>
      <use x="2051.384766" xlink:href="#DejaVuSans-108"/>
      <use x="2079.167969" xlink:href="#DejaVuSans-101"/>
      <use x="2140.691406" xlink:href="#DejaVuSans-102"/>
      <use x="2174.146484" xlink:href="#DejaVuSans-116"/>
      <use x="2213.355469" xlink:href="#DejaVuSans-41"/>
     </g>
    </g>
   </g>
   <g id="matplotlib.axis_2">
    <g id="ytick_1">
     <g id="line2d_5">
      <defs>
       <path d="M 0 0 
L -3.5 0 
" id="mcf6a433ffb" style="stroke:#000000;stroke-width:0.8;"/>
      </defs>
      <g>
       <use style="stroke:#000000;stroke-width:0.8;" x="59.690625" xlink:href="#mcf6a433ffb" y="281.544591"/>
      </g>
     </g>
     <g id="text_6">
      <!-- 13680 -->
      <g transform="translate(20.878125 285.34381)scale(0.1 -0.1)">
       <defs>
        <path d="M 12.40625 8.296875 
L 28.515625 8.296875 
L 28.515625 63.921875 
L 10.984375 60.40625 
L 10.984375 69.390625 
L 28.421875 72.90625 
L 38.28125 72.90625 
L 38.28125 8.296875 
L 54.390625 8.296875 
L 54.390625 0 
L 12.40625 0 
z
" id="DejaVuSans-49"/>
        <path d="M 40.578125 39.3125 
Q 47.65625 37.796875 51.625 33 
Q 55.609375 28.21875 55.609375 21.1875 
Q 55.609375 10.40625 48.1875 4.484375 
Q 40.765625 -1.421875 27.09375 -1.421875 
Q 22.515625 -1.421875 17.65625 -0.515625 
Q 12.796875 0.390625 7.625 2.203125 
L 7.625 11.71875 
Q 11.71875 9.328125 16.59375 8.109375 
Q 21.484375 6.890625 26.8125 6.890625 
Q 36.078125 6.890625 40.9375 10.546875 
Q 45.796875 14.203125 45.796875 21.1875 
Q 45.796875 27.640625 41.28125 31.265625 
Q 36.765625 34.90625 28.71875 34.90625 
L 20.21875 34.90625 
L 20.21875 43.015625 
L 29.109375 43.015625 
Q 36.375 43.015625 40.234375 45.921875 
Q 44.09375 48.828125 44.09375 54.296875 
Q 44.09375 59.90625 40.109375 62.90625 
Q 36.140625 65.921875 28.71875 65.921875 
Q 24.65625 65.921875 20.015625 65.03125 
Q 15.375 64.15625 9.8125 62.3125 
L 9.8125 71.09375 
Q 15.4375 72.65625 20.34375 73.4375 
Q 25.25 74.21875 29.59375 74.21875 
Q 40.828125 74.21875 47.359375 69.109375 
Q 53.90625 64.015625 53.90625 55.328125 
Q 53.90625 49.265625 50.4375 45.09375 
Q 46.96875 40.921875 40.578125 39.3125 
z
" id="DejaVuSans-51"/>
        <path d="M 33.015625 40.375 
Q 26.375 40.375 22.484375 35.828125 
Q 18.609375 31.296875 18.609375 23.390625 
Q 18.609375 15.53125 22.484375 10.953125 
Q 26.375 6.390625 33.015625 6.390625 
Q 39.65625 6.390625 43.53125 10.953125 
Q 47.40625 15.53125 47.40625 23.390625 
Q 47.40625 31.296875 43.53125 35.828125 
Q 39.65625 40.375 33.015625 40.375 
z
M 52.59375 71.296875 
L 52.59375 62.3125 
Q 48.875 64.0625 45.09375 64.984375 
Q 41.3125 65.921875 37.59375 65.921875 
Q 27.828125 65.921875 22.671875 59.328125 
Q 17.53125 52.734375 16.796875 39.40625 
Q 19.671875 43.65625 24.015625 45.921875 
Q 28.375 48.1875 33.59375 48.1875 
Q 44.578125 48.1875 50.953125 41.515625 
Q 57.328125 34.859375 57.328125 23.390625 
Q 57.328125 12.15625 50.6875 5.359375 
Q 44.046875 -1.421875 33.015625 -1.421875 
Q 20.359375 -1.421875 13.671875 8.265625 
Q 6.984375 17.96875 6.984375 36.375 
Q 6.984375 53.65625 15.1875 63.9375 
Q 23.390625 74.21875 37.203125 74.21875 
Q 40.921875 74.21875 44.703125 73.484375 
Q 48.484375 72.75 52.59375 71.296875 
z
" id="DejaVuSans-54"/>
        <path d="M 31.78125 34.625 
Q 24.75 34.625 20.71875 30.859375 
Q 16.703125 27.09375 16.703125 20.515625 
Q 16.703125 13.921875 20.71875 10.15625 
Q 24.75 6.390625 31.78125 6.390625 
Q 38.8125 6.390625 42.859375 10.171875 
Q 46.921875 13.96875 46.921875 20.515625 
Q 46.921875 27.09375 42.890625 30.859375 
Q 38.875 34.625 31.78125 34.625 
z
M 21.921875 38.8125 
Q 15.578125 40.375 12.03125 44.71875 
Q 8.5 49.078125 8.5 55.328125 
Q 8.5 64.0625 14.71875 69.140625 
Q 20.953125 74.21875 31.78125 74.21875 
Q 42.671875 74.21875 48.875 69.140625 
Q 55.078125 64.0625 55.078125 55.328125 
Q 55.078125 49.078125 51.53125 44.71875 
Q 48 40.375 41.703125 38.8125 
Q 48.828125 37.15625 52.796875 32.3125 
Q 56.78125 27.484375 56.78125 20.515625 
Q 56.78125 9.90625 50.3125 4.234375 
Q 43.84375 -1.421875 31.78125 -1.421875 
Q 19.734375 -1.421875 13.25 4.234375 
Q 6.78125 9.90625 6.78125 20.515625 
Q 6.78125 27.484375 10.78125 32.3125 
Q 14.796875 37.15625 21.921875 38.8125 
z
M 18.3125 54.390625 
Q 18.3125 48.734375 21.84375 45.5625 
Q 25.390625 42.390625 31.78125 42.390625 
Q 38.140625 42.390625 41.71875 45.5625 
Q 45.3125 48.734375 45.3125 54.390625 
Q 45.3125 60.0625 41.71875 63.234375 
Q 38.140625 66.40625 31.78125 66.40625 
Q 25.390625 66.40625 21.84375 63.234375 
Q 18.3125 60.0625 18.3125 54.390625 
z
" id="DejaVuSans-56"/>
        <path d="M 31.78125 66.40625 
Q 24.171875 66.40625 20.328125 58.90625 
Q 16.5 51.421875 16.5 36.375 
Q 16.5 21.390625 20.328125 13.890625 
Q 24.171875 6.390625 31.78125 6.390625 
Q 39.453125 6.390625 43.28125 13.890625 
Q 47.125 21.390625 47.125 36.375 
Q 47.125 51.421875 43.28125 58.90625 
Q 39.453125 66.40625 31.78125 66.40625 
z
M 31.78125 74.21875 
Q 44.046875 74.21875 50.515625 64.515625 
Q 56.984375 54.828125 56.984375 36.375 
Q 56.984375 17.96875 50.515625 8.265625 
Q 44.046875 -1.421875 31.78125 -1.421875 
Q 19.53125 -1.421875 13.0625 8.265625 
Q 6.59375 17.96875 6.59375 36.375 
Q 6.59375 54.828125 13.0625 64.515625 
Q 19.53125 74.21875 31.78125 74.21875 
z
" id="DejaVuSans-48"/>
       </defs>
       <use xlink:href="#DejaVuSans-49"/>
       <use x="63.623047" xlink:href="#DejaVuSans-51"/>
       <use x="127.246094" xlink:href="#DejaVuSans-54"/>
       <use x="190.869141" xlink:href="#DejaVuSans-56"/>
       <use x="254.492188" xlink:href="#DejaVuSans-48"/>
      </g>
     </g>
    </g>
    <g id="ytick_2">
     <g id="line2d_6">
      <g>
       <use style="stroke:#000000;stroke-width:0.8;" x="59.690625" xlink:href="#mcf6a433ffb" y="244.645555"/>
      </g>
     </g>
     <g id="text_7">
      <!-- 13700 -->
      <g transform="translate(20.878125 248.444774)scale(0.1 -0.1)">
       <defs>
        <path d="M 8.203125 72.90625 
L 55.078125 72.90625 
L 55.078125 68.703125 
L 28.609375 0 
L 18.3125 0 
L 43.21875 64.59375 
L 8.203125 64.59375 
z
" id="DejaVuSans-55"/>
       </defs>
       <use xlink:href="#DejaVuSans-49"/>
       <use x="63.623047" xlink:href="#DejaVuSans-51"/>
       <use x="127.246094" xlink:href="#DejaVuSans-55"/>
       <use x="190.869141" xlink:href="#DejaVuSans-48"/>
       <use x="254.492188" xlink:href="#DejaVuSans-48"/>
      </g>
     </g>
    </g>
    <g id="ytick_3">
     <g id="line2d_7">
      <g>
       <use style="stroke:#000000;stroke-width:0.8;" x="59.690625" xlink:href="#mcf6a433ffb" y="207.746518"/>
      </g>
     </g>
     <g id="text_8">
      <!-- 13720 -->
      <g transform="translate(20.878125 211.545737)scale(0.1 -0.1)">
       <defs>
        <path d="M 19.1875 8.296875 
L 53.609375 8.296875 
L 53.609375 0 
L 7.328125 0 
L 7.328125 8.296875 
Q 12.9375 14.109375 22.625 23.890625 
Q 32.328125 33.6875 34.8125 36.53125 
Q 39.546875 41.84375 41.421875 45.53125 
Q 43.3125 49.21875 43.3125 52.78125 
Q 43.3125 58.59375 39.234375 62.25 
Q 35.15625 65.921875 28.609375 65.921875 
Q 23.96875 65.921875 18.8125 64.3125 
Q 13.671875 62.703125 7.8125 59.421875 
L 7.8125 69.390625 
Q 13.765625 71.78125 18.9375 73 
Q 24.125 74.21875 28.421875 74.21875 
Q 39.75 74.21875 46.484375 68.546875 
Q 53.21875 62.890625 53.21875 53.421875 
Q 53.21875 48.921875 51.53125 44.890625 
Q 49.859375 40.875 45.40625 35.40625 
Q 44.1875 33.984375 37.640625 27.21875 
Q 31.109375 20.453125 19.1875 8.296875 
z
" id="DejaVuSans-50"/>
       </defs>
       <use xlink:href="#DejaVuSans-49"/>
       <use x="63.623047" xlink:href="#DejaVuSans-51"/>
       <use x="127.246094" xlink:href="#DejaVuSans-55"/>
       <use x="190.869141" xlink:href="#DejaVuSans-50"/>
       <use x="254.492188" xlink:href="#DejaVuSans-48"/>
      </g>
     </g>
    </g>
    <g id="ytick_4">
     <g id="line2d_8">
      <g>
       <use style="stroke:#000000;stroke-width:0.8;" x="59.690625" xlink:href="#mcf6a433ffb" y="170.847482"/>
      </g>
     </g>
     <g id="text_9">
      <!-- 13740 -->
      <g transform="translate(20.878125 174.646701)scale(0.1 -0.1)">
       <defs>
        <path d="M 37.796875 64.3125 
L 12.890625 25.390625 
L 37.796875 25.390625 
z
M 35.203125 72.90625 
L 47.609375 72.90625 
L 47.609375 25.390625 
L 58.015625 25.390625 
L 58.015625 17.1875 
L 47.609375 17.1875 
L 47.609375 0 
L 37.796875 0 
L 37.796875 17.1875 
L 4.890625 17.1875 
L 4.890625 26.703125 
z
" id="DejaVuSans-52"/>
       </defs>
       <use xlink:href="#DejaVuSans-49"/>
       <use x="63.623047" xlink:href="#DejaVuSans-51"/>
       <use x="127.246094" xlink:href="#DejaVuSans-55"/>
       <use x="190.869141" xlink:href="#DejaVuSans-52"/>
       <use x="254.492188" xlink:href="#DejaVuSans-48"/>
      </g>
     </g>
    </g>
    <g id="ytick_5">
     <g id="line2d_9">
      <g>
       <use style="stroke:#000000;stroke-width:0.8;" x="59.690625" xlink:href="#mcf6a433ffb" y="133.948446"/>
      </g>
     </g>
     <g id="text_10">
      <!-- 13760 -->
      <g transform="translate(20.878125 137.747665)scale(0.1 -0.1)">
       <use xlink:href="#DejaVuSans-49"/>
       <use x="63.623047" xlink:href="#DejaVuSans-51"/>
       <use x="127.246094" xlink:href="#DejaVuSans-55"/>
       <use x="190.869141" xlink:href="#DejaVuSans-54"/>
       <use x="254.492188" xlink:href="#DejaVuSans-48"/>
      </g>
     </g>
    </g>
    <g id="ytick_6">
     <g id="line2d_10">
      <g>
       <use style="stroke:#000000;stroke-width:0.8;" x="59.690625" xlink:href="#mcf6a433ffb" y="97.04941"/>
      </g>
     </g>
     <g id="text_11">
      <!-- 13780 -->
      <g transform="translate(20.878125 100.848628)scale(0.1 -0.1)">
       <use xlink:href="#DejaVuSans-49"/>
       <use x="63.623047" xlink:href="#DejaVuSans-51"/>
       <use x="127.246094" xlink:href="#DejaVuSans-55"/>
       <use x="190.869141" xlink:href="#DejaVuSans-56"/>
       <use x="254.492188" xlink:href="#DejaVuSans-48"/>
      </g>
     </g>
    </g>
    <g id="ytick_7">
     <g id="line2d_11">
      <g>
       <use style="stroke:#000000;stroke-width:0.8;" x="59.690625" xlink:href="#mcf6a433ffb" y="60.150373"/>
      </g>
     </g>
     <g id="text_12">
      <!-- 13800 -->
      <g transform="translate(20.878125 63.949592)scale(0.1 -0.1)">
       <use xlink:href="#DejaVuSans-49"/>
       <use x="63.623047" xlink:href="#DejaVuSans-51"/>
       <use x="127.246094" xlink:href="#DejaVuSans-56"/>
       <use x="190.869141" xlink:href="#DejaVuSans-48"/>
       <use x="254.492188" xlink:href="#DejaVuSans-48"/>
      </g>
     </g>
    </g>
    <g id="ytick_8">
     <g id="line2d_12">
      <g>
       <use style="stroke:#000000;stroke-width:0.8;" x="59.690625" xlink:href="#mcf6a433ffb" y="23.251337"/>
      </g>
     </g>
     <g id="text_13">
      <!-- 13820 -->
      <g transform="translate(20.878125 27.050556)scale(0.1 -0.1)">
       <use xlink:href="#DejaVuSans-49"/>
       <use x="63.623047" xlink:href="#DejaVuSans-51"/>
       <use x="127.246094" xlink:href="#DejaVuSans-56"/>
       <use x="190.869141" xlink:href="#DejaVuSans-50"/>
       <use x="254.492188" xlink:href="#DejaVuSans-48"/>
      </g>
     </g>
    </g>
    <g id="text_14">
     <!-- Reached region coverage -->
     <g transform="translate(14.798438 219.136625)rotate(-90)scale(0.1 -0.1)">
      <defs>
       <path d="M 44.390625 34.1875 
Q 47.5625 33.109375 50.5625 29.59375 
Q 53.5625 26.078125 56.59375 19.921875 
L 66.609375 0 
L 56 0 
L 46.6875 18.703125 
Q 43.0625 26.03125 39.671875 28.421875 
Q 36.28125 30.8125 30.421875 30.8125 
L 19.671875 30.8125 
L 19.671875 0 
L 9.8125 0 
L 9.8125 72.90625 
L 32.078125 72.90625 
Q 44.578125 72.90625 50.734375 67.671875 
Q 56.890625 62.453125 56.890625 51.90625 
Q 56.890625 45.015625 53.6875 40.46875 
Q 50.484375 35.9375 44.390625 34.1875 
z
M 19.671875 64.796875 
L 19.671875 38.921875 
L 32.078125 38.921875 
Q 39.203125 38.921875 42.84375 42.21875 
Q 46.484375 45.515625 46.484375 51.90625 
Q 46.484375 58.296875 42.84375 61.546875 
Q 39.203125 64.796875 32.078125 64.796875 
z
" id="DejaVuSans-82"/>
      </defs>
      <use xlink:href="#DejaVuSans-82"/>
      <use x="64.982422" xlink:href="#DejaVuSans-101"/>
      <use x="126.505859" xlink:href="#DejaVuSans-97"/>
      <use x="187.785156" xlink:href="#DejaVuSans-99"/>
      <use x="242.765625" xlink:href="#DejaVuSans-104"/>
      <use x="306.144531" xlink:href="#DejaVuSans-101"/>
      <use x="367.667969" xlink:href="#DejaVuSans-100"/>
      <use x="431.144531" xlink:href="#DejaVuSans-32"/>
      <use x="462.931641" xlink:href="#DejaVuSans-114"/>
      <use x="501.794922" xlink:href="#DejaVuSans-101"/>
      <use x="563.318359" xlink:href="#DejaVuSans-103"/>
      <use x="626.794922" xlink:href="#DejaVuSans-105"/>
      <use x="654.578125" xlink:href="#DejaVuSans-111"/>
      <use x="715.759766" xlink:href="#DejaVuSans-110"/>
      <use x="779.138672" xlink:href="#DejaVuSans-32"/>
      <use x="810.925781" xlink:href="#DejaVuSans-99"/>
      <use x="865.90625" xlink:href="#DejaVuSans-111"/>
      <use x="927.087891" xlink:href="#DejaVuSans-118"/>
      <use x="986.267578" xlink:href="#DejaVuSans-101"/>
      <use x="1047.791016" xlink:href="#DejaVuSans-114"/>
      <use x="1088.904297" xlink:href="#DejaVuSans-97"/>
      <use x="1150.183594" xlink:href="#DejaVuSans-103"/>
      <use x="1213.660156" xlink:href="#DejaVuSans-101"/>
     </g>
    </g>
   </g>
   <g id="line2d_13">
    <path clip-path="url(#pe41e71685a)" d="M 104.330625 180.072241 
L 104.330625 93.359506 
" style="fill:none;stroke:#3f3f3f;stroke-linecap:square;stroke-width:1.5;"/>
   </g>
   <g id="line2d_14">
    <path clip-path="url(#pe41e71685a)" d="M 104.330625 167.157579 
L 104.330625 93.359506 
" style="fill:none;stroke:#3f3f3f;stroke-linecap:square;stroke-width:4.5;"/>
   </g>
   <g id="line2d_15">
    <path clip-path="url(#pe41e71685a)" d="M 193.610625 135.793398 
L 193.610625 133.948446 
" style="fill:none;stroke:#3f3f3f;stroke-linecap:square;stroke-width:1.5;"/>
   </g>
   <g id="line2d_16">
    <path clip-path="url(#pe41e71685a)" d="M 193.610625 135.793398 
L 193.610625 133.948446 
" style="fill:none;stroke:#3f3f3f;stroke-linecap:square;stroke-width:4.5;"/>
   </g>
   <g id="line2d_17">
    <path clip-path="url(#pe41e71685a)" d="M 282.890625 183.762145 
L 282.890625 170.847482 
" style="fill:none;stroke:#3f3f3f;stroke-linecap:square;stroke-width:1.5;"/>
   </g>
   <g id="line2d_18">
    <path clip-path="url(#pe41e71685a)" d="M 282.890625 181.917193 
L 282.890625 170.847482 
" style="fill:none;stroke:#3f3f3f;stroke-linecap:square;stroke-width:4.5;"/>
   </g>
   <g id="line2d_19">
    <path clip-path="url(#pe41e71685a)" d="M 372.170625 270.47488 
L 372.170625 261.250121 
" style="fill:none;stroke:#3f3f3f;stroke-linecap:square;stroke-width:1.5;"/>
   </g>
   <g id="line2d_20">
    <path clip-path="url(#pe41e71685a)" d="M 372.170625 270.47488 
L 372.170625 266.784977 
" style="fill:none;stroke:#3f3f3f;stroke-linecap:square;stroke-width:4.5;"/>
   </g>
   <g id="patch_3">
    <path d="M 59.690625 281.544591 
L 59.690625 23.251337 
" style="fill:none;stroke:#000000;stroke-linecap:square;stroke-linejoin:miter;stroke-width:0.8;"/>
   </g>
   <g id="patch_4">
    <path d="M 104.330625 288.430125 
L 372.170625 288.430125 
" style="fill:none;stroke:#000000;stroke-linecap:square;stroke-linejoin:miter;stroke-width:0.8;"/>
   </g>
   <g id="PathCollection_1">
    <defs>
     <path d="M 0 1.5 
C 0.397805 1.5 0.77937 1.341951 1.06066 1.06066 
C 1.341951 0.77937 1.5 0.397805 1.5 0 
C 1.5 -0.397805 1.341951 -0.77937 1.06066 -1.06066 
C 0.77937 -1.341951 0.397805 -1.5 0 -1.5 
C -0.397805 -1.5 -0.77937 -1.341951 -1.06066 -1.06066 
C -1.341951 -0.77937 -1.5 -0.397805 -1.5 0 
C -1.5 0.397805 -1.341951 0.77937 -1.06066 1.06066 
C -0.77937 1.341951 -0.397805 1.5 0 1.5 
z
" id="mf2f1fce034" style="stroke:#3f3f3f;"/>
    </defs>
    <g clip-path="url(#pe41e71685a)">
     <use style="fill:#ffffff;stroke:#3f3f3f;" x="104.330625" xlink:href="#mf2f1fce034" y="122.878735"/>
    </g>
   </g>
   <g id="PathCollection_2">
    <g clip-path="url(#pe41e71685a)">
     <use style="fill:#ffffff;stroke:#3f3f3f;" x="193.610625" xlink:href="#mf2f1fce034" y="133.948446"/>
    </g>
   </g>
   <g id="PathCollection_3">
    <g clip-path="url(#pe41e71685a)">
     <use style="fill:#ffffff;stroke:#3f3f3f;" x="282.890625" xlink:href="#mf2f1fce034" y="181.917193"/>
    </g>
   </g>
   <g id="PathCollection_4">
    <g clip-path="url(#pe41e71685a)">
     <use style="fill:#ffffff;stroke:#3f3f3f;" x="372.170625" xlink:href="#mf2f1fce034" y="270.47488"/>
    </g>
   </g>
   <g id="text_15">
    <!-- openssl_x509 (7h:15m, 5 trials/fuzzer) -->
    <g transform="translate(122.759063 16.318125)scale(0.12 -0.12)">
     <defs>
      <path d="M 50.984375 -16.609375 
L 50.984375 -23.578125 
L -0.984375 -23.578125 
L -0.984375 -16.609375 
z
" id="DejaVuSans-95"/>
      <path d="M 54.890625 54.6875 
L 35.109375 28.078125 
L 55.90625 0 
L 45.3125 0 
L 29.390625 21.484375 
L 13.484375 0 
L 2.875 0 
L 24.125 28.609375 
L 4.6875 54.6875 
L 15.28125 54.6875 
L 29.78125 35.203125 
L 44.28125 54.6875 
z
" id="DejaVuSans-120"/>
      <path d="M 10.796875 72.90625 
L 49.515625 72.90625 
L 49.515625 64.59375 
L 19.828125 64.59375 
L 19.828125 46.734375 
Q 21.96875 47.46875 24.109375 47.828125 
Q 26.265625 48.1875 28.421875 48.1875 
Q 40.625 48.1875 47.75 41.5 
Q 54.890625 34.8125 54.890625 23.390625 
Q 54.890625 11.625 47.5625 5.09375 
Q 40.234375 -1.421875 26.90625 -1.421875 
Q 22.3125 -1.421875 17.546875 -0.640625 
Q 12.796875 0.140625 7.71875 1.703125 
L 7.71875 11.625 
Q 12.109375 9.234375 16.796875 8.0625 
Q 21.484375 6.890625 26.703125 6.890625 
Q 35.15625 6.890625 40.078125 11.328125 
Q 45.015625 15.765625 45.015625 23.390625 
Q 45.015625 31 40.078125 35.4375 
Q 35.15625 39.890625 26.703125 39.890625 
Q 22.75 39.890625 18.8125 39.015625 
Q 14.890625 38.140625 10.796875 36.28125 
z
" id="DejaVuSans-53"/>
      <path d="M 10.984375 1.515625 
L 10.984375 10.5 
Q 14.703125 8.734375 18.5 7.8125 
Q 22.3125 6.890625 25.984375 6.890625 
Q 35.75 6.890625 40.890625 13.453125 
Q 46.046875 20.015625 46.78125 33.40625 
Q 43.953125 29.203125 39.59375 26.953125 
Q 35.25 24.703125 29.984375 24.703125 
Q 19.046875 24.703125 12.671875 31.3125 
Q 6.296875 37.9375 6.296875 49.421875 
Q 6.296875 60.640625 12.9375 67.421875 
Q 19.578125 74.21875 30.609375 74.21875 
Q 43.265625 74.21875 49.921875 64.515625 
Q 56.59375 54.828125 56.59375 36.375 
Q 56.59375 19.140625 48.40625 8.859375 
Q 40.234375 -1.421875 26.421875 -1.421875 
Q 22.703125 -1.421875 18.890625 -0.6875 
Q 15.09375 0.046875 10.984375 1.515625 
z
M 30.609375 32.421875 
Q 37.25 32.421875 41.125 36.953125 
Q 45.015625 41.5 45.015625 49.421875 
Q 45.015625 57.28125 41.125 61.84375 
Q 37.25 66.40625 30.609375 66.40625 
Q 23.96875 66.40625 20.09375 61.84375 
Q 16.21875 57.28125 16.21875 49.421875 
Q 16.21875 41.5 20.09375 36.953125 
Q 23.96875 32.421875 30.609375 32.421875 
z
" id="DejaVuSans-57"/>
      <path d="M 11.71875 12.40625 
L 22.015625 12.40625 
L 22.015625 0 
L 11.71875 0 
z
M 11.71875 51.703125 
L 22.015625 51.703125 
L 22.015625 39.3125 
L 11.71875 39.3125 
z
" id="DejaVuSans-58"/>
      <path d="M 11.71875 12.40625 
L 22.015625 12.40625 
L 22.015625 4 
L 14.015625 -11.625 
L 7.71875 -11.625 
L 11.71875 4 
z
" id="DejaVuSans-44"/>
      <path d="M 25.390625 72.90625 
L 33.6875 72.90625 
L 8.296875 -9.28125 
L 0 -9.28125 
z
" id="DejaVuSans-47"/>
     </defs>
     <use xlink:href="#DejaVuSans-111"/>
     <use x="61.181641" xlink:href="#DejaVuSans-112"/>
     <use x="124.658203" xlink:href="#DejaVuSans-101"/>
     <use x="186.181641" xlink:href="#DejaVuSans-110"/>
     <use x="249.560547" xlink:href="#DejaVuSans-115"/>
     <use x="301.660156" xlink:href="#DejaVuSans-115"/>
     <use x="353.759766" xlink:href="#DejaVuSans-108"/>
     <use x="381.542969" xlink:href="#DejaVuSans-95"/>
     <use x="431.542969" xlink:href="#DejaVuSans-120"/>
     <use x="490.722656" xlink:href="#DejaVuSans-53"/>
     <use x="554.345703" xlink:href="#DejaVuSans-48"/>
     <use x="617.96875" xlink:href="#DejaVuSans-57"/>
     <use x="681.591797" xlink:href="#DejaVuSans-32"/>
     <use x="713.378906" xlink:href="#DejaVuSans-40"/>
     <use x="752.392578" xlink:href="#DejaVuSans-55"/>
     <use x="816.015625" xlink:href="#DejaVuSans-104"/>
     <use x="879.394531" xlink:href="#DejaVuSans-58"/>
     <use x="913.085938" xlink:href="#DejaVuSans-49"/>
     <use x="976.708984" xlink:href="#DejaVuSans-53"/>
     <use x="1040.332031" xlink:href="#DejaVuSans-109"/>
     <use x="1137.744141" xlink:href="#DejaVuSans-44"/>
     <use x="1169.53125" xlink:href="#DejaVuSans-32"/>
     <use x="1201.318359" xlink:href="#DejaVuSans-53"/>
     <use x="1264.941406" xlink:href="#DejaVuSans-32"/>
     <use x="1296.728516" xlink:href="#DejaVuSans-116"/>
     <use x="1335.9375" xlink:href="#DejaVuSans-114"/>
     <use x="1377.050781" xlink:href="#DejaVuSans-105"/>
     <use x="1404.833984" xlink:href="#DejaVuSans-97"/>
     <use x="1466.113281" xlink:href="#DejaVuSans-108"/>
     <use x="1493.896484" xlink:href="#DejaVuSans-115"/>
     <use x="1545.996094" xlink:href="#DejaVuSans-47"/>
     <use x="1579.6875" xlink:href="#DejaVuSans-102"/>
     <use x="1614.892578" xlink:href="#DejaVuSans-117"/>
     <use x="1678.271484" xlink:href="#DejaVuSans-122"/>
     <use x="1730.761719" xlink:href="#DejaVuSans-122"/>
     <use x="1783.251953" xlink:href="#DejaVuSans-101"/>
     <use x="1844.775391" xlink:href="#DejaVuSans-114"/>
     <use x="1885.888672" xlink:href="#DejaVuSans-41"/>
    </g>
   </g>
  </g>
 </g>
 <defs>
  <clipPath id="pe41e71685a">
   <rect height="266.112" width="357.12" x="59.690625" y="22.318125"/>
  </clipPath>
 </defs>
</svg>
