<?xml version="1.0" encoding="utf-8" standalone="no"?>
<!DOCTYPE svg PUBLIC "-//W3C//DTD SVG 1.1//EN"
  "http://www.w3.org/Graphics/SVG/1.1/DTD/svg11.dtd">
<!-- Created with matplotlib (https://matplotlib.org/) -->
<svg height="361.217877pt" version="1.1" viewBox="0 0 424.010625 361.217877" width="424.010625pt" xmlns="http://www.w3.org/2000/svg" xmlns:xlink="http://www.w3.org/1999/xlink">
 <metadata>
  <rdf:RDF xmlns:cc="http://creativecommons.org/ns#" xmlns:dc="http://purl.org/dc/elements/1.1/" xmlns:rdf="http://www.w3.org/1999/02/22-rdf-syntax-ns#">
   <cc:Work>
    <dc:type rdf:resource="http://purl.org/dc/dcmitype/StillImage"/>
    <dc:date>2020-10-26T22:26:31.431199</dc:date>
    <dc:format>image/svg+xml</dc:format>
    <dc:creator>
     <cc:Agent>
      <dc:title>Matplotlib v3.3.2, https://matplotlib.org/</dc:title>
     </cc:Agent>
    </dc:creator>
   </cc:Work>
  </rdf:RDF>
 </metadata>
 <defs>
  <style type="text/css">*{stroke-linecap:butt;stroke-linejoin:round;}</style>
 </defs>
 <g id="figure_1">
  <g id="patch_1">
   <path d="M 0 361.217877 
L 424.010625 361.217877 
L 424.010625 0 
L 0 0 
z
" style="fill:#ffffff;"/>
  </g>
  <g id="axes_1">
   <g id="patch_2">
    <path d="M 59.690625 288.430125 
L 416.810625 288.430125 
L 416.810625 22.318125 
L 59.690625 22.318125 
z
" style="fill:#ffffff;"/>
   </g>
   <g id="PolyCollection_1">
    <defs>
     <path d="M 104.486859 -144.707697 
L 104.174391 -144.707697 
L 104.150004 -146.547051 
L 104.122911 -148.386405 
L 104.09301 -150.225759 
L 104.060226 -152.065113 
L 104.024524 -153.904467 
L 103.985907 -155.743821 
L 103.944422 -157.583176 
L 103.900164 -159.42253 
L 103.853281 -161.261884 
L 103.803968 -163.101238 
L 103.752471 -164.940592 
L 103.699086 -166.779946 
L 103.64415 -168.6193 
L 103.58804 -170.458654 
L 103.531161 -172.298008 
L 103.473942 -174.137362 
L 103.41682 -175.976716 
L 103.360231 -177.816071 
L 103.304597 -179.655425 
L 103.250314 -181.494779 
L 103.197735 -183.334133 
L 103.147166 -185.173487 
L 103.098844 -187.012841 
L 103.052935 -188.852195 
L 103.009524 -190.691549 
L 102.968606 -192.530903 
L 102.930086 -194.370257 
L 102.893778 -196.209612 
L 102.859404 -198.048966 
L 102.826602 -199.88832 
L 102.794933 -201.727674 
L 102.763887 -203.567028 
L 102.7329 -205.406382 
L 102.701364 -207.245736 
L 102.668643 -209.08509 
L 102.634088 -210.924444 
L 102.597056 -212.763798 
L 102.556921 -214.603152 
L 102.513095 -216.442507 
L 102.465042 -218.281861 
L 102.412291 -220.121215 
L 102.35445 -221.960569 
L 102.291217 -223.799923 
L 102.222394 -225.639277 
L 102.147892 -227.478631 
L 102.067739 -229.317985 
L 101.982089 -231.157339 
L 101.891224 -232.996693 
L 101.795555 -234.836047 
L 101.695627 -236.675402 
L 101.592116 -238.514756 
L 101.485825 -240.35411 
L 101.377678 -242.193464 
L 101.268717 -244.032818 
L 101.160086 -245.872172 
L 101.053021 -247.711526 
L 100.948834 -249.55088 
L 100.848893 -251.390234 
L 100.754602 -253.229588 
L 100.667375 -255.068942 
L 100.588611 -256.908297 
L 100.519666 -258.747651 
L 100.461826 -260.587005 
L 100.416274 -262.426359 
L 100.384065 -264.265713 
L 100.366098 -266.105067 
L 100.363091 -267.944421 
L 100.375561 -269.783775 
L 100.403807 -271.623129 
L 100.447899 -273.462483 
L 100.507667 -275.301838 
L 100.582709 -277.141192 
L 100.672391 -278.980546 
L 100.775857 -280.8199 
L 100.892052 -282.659254 
L 101.019741 -284.498608 
L 101.157537 -286.337962 
L 101.303931 -288.177316 
L 101.457324 -290.01667 
L 101.616067 -291.856024 
L 101.778487 -293.695378 
L 101.942932 -295.534733 
L 102.107794 -297.374087 
L 102.271543 -299.213441 
L 102.432755 -301.052795 
L 102.590129 -302.892149 
L 102.74251 -304.731503 
L 102.888898 -306.570857 
L 103.028456 -308.410211 
L 103.160518 -310.249565 
L 103.284579 -312.088919 
L 103.400299 -313.928273 
L 103.507487 -315.767628 
L 103.606094 -317.606982 
L 103.696196 -319.446336 
L 103.77798 -321.28569 
L 103.851729 -323.125044 
L 103.917802 -324.964398 
L 103.976618 -326.803752 
L 104.684632 -326.803752 
L 104.684632 -326.803752 
L 104.743448 -324.964398 
L 104.809521 -323.125044 
L 104.88327 -321.28569 
L 104.965054 -319.446336 
L 105.055156 -317.606982 
L 105.153763 -315.767628 
L 105.260951 -313.928273 
L 105.376671 -312.088919 
L 105.500732 -310.249565 
L 105.632794 -308.410211 
L 105.772352 -306.570857 
L 105.91874 -304.731503 
L 106.071121 -302.892149 
L 106.228495 -301.052795 
L 106.389707 -299.213441 
L 106.553456 -297.374087 
L 106.718318 -295.534733 
L 106.882763 -293.695378 
L 107.045183 -291.856024 
L 107.203926 -290.01667 
L 107.357319 -288.177316 
L 107.503713 -286.337962 
L 107.641509 -284.498608 
L 107.769198 -282.659254 
L 107.885393 -280.8199 
L 107.988859 -278.980546 
L 108.078541 -277.141192 
L 108.153583 -275.301838 
L 108.213351 -273.462483 
L 108.257443 -271.623129 
L 108.285689 -269.783775 
L 108.298159 -267.944421 
L 108.295152 -266.105067 
L 108.277185 -264.265713 
L 108.244976 -262.426359 
L 108.199424 -260.587005 
L 108.141584 -258.747651 
L 108.072639 -256.908297 
L 107.993875 -255.068942 
L 107.906648 -253.229588 
L 107.812357 -251.390234 
L 107.712416 -249.55088 
L 107.608229 -247.711526 
L 107.501164 -245.872172 
L 107.392533 -244.032818 
L 107.283572 -242.193464 
L 107.175425 -240.35411 
L 107.069134 -238.514756 
L 106.965623 -236.675402 
L 106.865695 -234.836047 
L 106.770026 -232.996693 
L 106.679161 -231.157339 
L 106.593511 -229.317985 
L 106.513358 -227.478631 
L 106.438856 -225.639277 
L 106.370033 -223.799923 
L 106.3068 -221.960569 
L 106.248959 -220.121215 
L 106.196208 -218.281861 
L 106.148155 -216.442507 
L 106.104329 -214.603152 
L 106.064194 -212.763798 
L 106.027162 -210.924444 
L 105.992607 -209.08509 
L 105.959886 -207.245736 
L 105.92835 -205.406382 
L 105.897363 -203.567028 
L 105.866317 -201.727674 
L 105.834648 -199.88832 
L 105.801846 -198.048966 
L 105.767472 -196.209612 
L 105.731164 -194.370257 
L 105.692644 -192.530903 
L 105.651726 -190.691549 
L 105.608315 -188.852195 
L 105.562406 -187.012841 
L 105.514084 -185.173487 
L 105.463515 -183.334133 
L 105.410936 -181.494779 
L 105.356653 -179.655425 
L 105.301019 -177.816071 
L 105.24443 -175.976716 
L 105.187308 -174.137362 
L 105.130089 -172.298008 
L 105.07321 -170.458654 
L 105.0171 -168.6193 
L 104.962164 -166.779946 
L 104.908779 -164.940592 
L 104.857282 -163.101238 
L 104.807969 -161.261884 
L 104.761086 -159.42253 
L 104.716828 -157.583176 
L 104.675343 -155.743821 
L 104.636726 -153.904467 
L 104.601024 -152.065113 
L 104.56824 -150.225759 
L 104.538339 -148.386405 
L 104.511246 -146.547051 
L 104.486859 -144.707697 
z
" id="m45e676b147" style="stroke:#3f3f3f;stroke-width:1.5;"/>
    </defs>
    <g clip-path="url(#p5f82acfc6b)">
     <use style="fill:#c7c7c7;stroke:#3f3f3f;stroke-width:1.5;" x="0" xlink:href="#m45e676b147" y="361.217877"/>
    </g>
   </g>
   <g id="PolyCollection_2">
    <defs>
     <path d="M 193.797992 -152.162236 
L 193.423258 -152.162236 
L 193.390995 -153.850993 
L 193.35467 -155.53975 
L 193.314048 -157.228508 
L 193.268928 -158.917265 
L 193.219146 -160.606022 
L 193.164585 -162.29478 
L 193.105173 -163.983537 
L 193.040892 -165.672294 
L 192.971777 -167.361052 
L 192.897915 -169.049809 
L 192.819439 -170.738566 
L 192.736529 -172.427324 
L 192.649397 -174.116081 
L 192.558285 -175.804839 
L 192.463448 -177.493596 
L 192.365148 -179.182353 
L 192.26364 -180.871111 
L 192.15916 -182.559868 
L 192.051921 -184.248625 
L 191.942104 -185.937383 
L 191.829854 -187.62614 
L 191.715281 -189.314897 
L 191.598468 -191.003655 
L 191.479475 -192.692412 
L 191.358359 -194.381169 
L 191.235185 -196.069927 
L 191.110051 -197.758684 
L 190.983109 -199.447441 
L 190.854589 -201.136199 
L 190.724822 -202.824956 
L 190.594261 -204.513713 
L 190.463497 -206.202471 
L 190.333272 -207.891228 
L 190.204483 -209.579986 
L 190.078179 -211.268743 
L 189.955553 -212.9575 
L 189.83792 -214.646258 
L 189.726687 -216.335015 
L 189.623322 -218.023772 
L 189.52931 -219.71253 
L 189.446106 -221.401287 
L 189.375086 -223.090044 
L 189.317496 -224.778802 
L 189.274406 -226.467559 
L 189.246663 -228.156316 
L 189.234857 -229.845074 
L 189.239289 -231.533831 
L 189.259954 -233.222588 
L 189.296531 -234.911346 
L 189.34839 -236.600103 
L 189.414609 -238.288861 
L 189.493996 -239.977618 
L 189.585131 -241.666375 
L 189.686412 -243.355133 
L 189.796103 -245.04389 
L 189.912398 -246.732647 
L 190.033472 -248.421405 
L 190.157545 -250.110162 
L 190.282929 -251.798919 
L 190.408083 -253.487677 
L 190.531648 -255.176434 
L 190.652484 -256.865191 
L 190.769685 -258.553949 
L 190.882597 -260.242706 
L 190.990812 -261.931463 
L 191.09416 -263.620221 
L 191.192692 -265.308978 
L 191.286648 -266.997736 
L 191.376428 -268.686493 
L 191.462555 -270.37525 
L 191.545629 -272.064008 
L 191.626295 -273.752765 
L 191.705199 -275.441522 
L 191.782954 -277.13028 
L 191.860111 -278.819037 
L 191.937132 -280.507794 
L 192.014371 -282.196552 
L 192.092064 -283.885309 
L 192.170323 -285.574066 
L 192.249137 -287.262824 
L 192.32838 -288.951581 
L 192.40782 -290.640338 
L 192.487141 -292.329096 
L 192.565956 -294.017853 
L 192.643829 -295.70661 
L 192.7203 -297.395368 
L 192.794897 -299.084125 
L 192.867166 -300.772883 
L 192.936679 -302.46164 
L 193.003052 -304.150397 
L 193.065956 -305.839155 
L 193.125127 -307.527912 
L 193.180366 -309.216669 
L 193.231545 -310.905427 
L 193.278606 -312.594184 
L 193.321552 -314.282941 
L 193.360451 -315.971699 
L 193.39542 -317.660456 
L 193.426622 -319.349213 
L 193.794628 -319.349213 
L 193.794628 -319.349213 
L 193.82583 -317.660456 
L 193.860799 -315.971699 
L 193.899698 -314.282941 
L 193.942644 -312.594184 
L 193.989705 -310.905427 
L 194.040884 -309.216669 
L 194.096123 -307.527912 
L 194.155294 -305.839155 
L 194.218198 -304.150397 
L 194.284571 -302.46164 
L 194.354084 -300.772883 
L 194.426353 -299.084125 
L 194.50095 -297.395368 
L 194.577421 -295.70661 
L 194.655294 -294.017853 
L 194.734109 -292.329096 
L 194.81343 -290.640338 
L 194.89287 -288.951581 
L 194.972113 -287.262824 
L 195.050927 -285.574066 
L 195.129186 -283.885309 
L 195.206879 -282.196552 
L 195.284118 -280.507794 
L 195.361139 -278.819037 
L 195.438296 -277.13028 
L 195.516051 -275.441522 
L 195.594955 -273.752765 
L 195.675621 -272.064008 
L 195.758695 -270.37525 
L 195.844822 -268.686493 
L 195.934602 -266.997736 
L 196.028558 -265.308978 
L 196.12709 -263.620221 
L 196.230438 -261.931463 
L 196.338653 -260.242706 
L 196.451565 -258.553949 
L 196.568766 -256.865191 
L 196.689602 -255.176434 
L 196.813167 -253.487677 
L 196.938321 -251.798919 
L 197.063705 -250.110162 
L 197.187778 -248.421405 
L 197.308852 -246.732647 
L 197.425147 -245.04389 
L 197.534838 -243.355133 
L 197.636119 -241.666375 
L 197.727254 -239.977618 
L 197.806641 -238.288861 
L 197.87286 -236.600103 
L 197.924719 -234.911346 
L 197.961296 -233.222588 
L 197.981961 -231.533831 
L 197.986393 -229.845074 
L 197.974587 -228.156316 
L 197.946844 -226.467559 
L 197.903754 -224.778802 
L 197.846164 -223.090044 
L 197.775144 -221.401287 
L 197.69194 -219.71253 
L 197.597928 -218.023772 
L 197.494563 -216.335015 
L 197.38333 -214.646258 
L 197.265697 -212.9575 
L 197.143071 -211.268743 
L 197.016767 -209.579986 
L 196.887978 -207.891228 
L 196.757753 -206.202471 
L 196.626989 -204.513713 
L 196.496428 -202.824956 
L 196.366661 -201.136199 
L 196.238141 -199.447441 
L 196.111199 -197.758684 
L 195.986065 -196.069927 
L 195.862891 -194.381169 
L 195.741775 -192.692412 
L 195.622782 -191.003655 
L 195.505969 -189.314897 
L 195.391396 -187.62614 
L 195.279146 -185.937383 
L 195.169329 -184.248625 
L 195.06209 -182.559868 
L 194.95761 -180.871111 
L 194.856102 -179.182353 
L 194.757802 -177.493596 
L 194.662965 -175.804839 
L 194.571853 -174.116081 
L 194.484721 -172.427324 
L 194.401811 -170.738566 
L 194.323335 -169.049809 
L 194.249473 -167.361052 
L 194.180358 -165.672294 
L 194.116077 -163.983537 
L 194.056665 -162.29478 
L 194.002104 -160.606022 
L 193.952322 -158.917265 
L 193.907202 -157.228508 
L 193.86658 -155.53975 
L 193.830255 -153.850993 
L 193.797992 -152.162236 
z
" id="m34c8cc0751" style="stroke:#3f3f3f;stroke-width:1.5;"/>
    </defs>
    <g clip-path="url(#p5f82acfc6b)">
     <use style="fill:#c03d3e;stroke:#3f3f3f;stroke-width:1.5;" x="0" xlink:href="#m34c8cc0751" y="361.217877"/>
    </g>
   </g>
   <g id="PolyCollection_3">
    <defs>
     <path d="M 283.119458 -127.258647 
L 282.661792 -127.258647 
L 282.621312 -129.168313 
L 282.5753 -131.077979 
L 282.523319 -132.987645 
L 282.464953 -134.897311 
L 282.399826 -136.806977 
L 282.327609 -138.716643 
L 282.248035 -140.626309 
L 282.160916 -142.535974 
L 282.066154 -144.44564 
L 281.963753 -146.355306 
L 281.853836 -148.264972 
L 281.736652 -150.174638 
L 281.612582 -152.084304 
L 281.48215 -153.99397 
L 281.34602 -155.903636 
L 281.204998 -157.813302 
L 281.060027 -159.722968 
L 280.912174 -161.632634 
L 280.762621 -163.542299 
L 280.612648 -165.451965 
L 280.46361 -167.361631 
L 280.316913 -169.271297 
L 280.173993 -171.180963 
L 280.036279 -173.090629 
L 279.905174 -175.000295 
L 279.782015 -176.909961 
L 279.668054 -178.819627 
L 279.564422 -180.729293 
L 279.472112 -182.638959 
L 279.391953 -184.548625 
L 279.324595 -186.45829 
L 279.270495 -188.367956 
L 279.22991 -190.277622 
L 279.202898 -192.187288 
L 279.189312 -194.096954 
L 279.188819 -196.00662 
L 279.200904 -197.916286 
L 279.224888 -199.825952 
L 279.259952 -201.735618 
L 279.305154 -203.645284 
L 279.359458 -205.55495 
L 279.421755 -207.464615 
L 279.490892 -209.374281 
L 279.565697 -211.283947 
L 279.645001 -213.193613 
L 279.727661 -215.103279 
L 279.81258 -217.012945 
L 279.898726 -218.922611 
L 279.985144 -220.832277 
L 280.070973 -222.741943 
L 280.155451 -224.651609 
L 280.237923 -226.561275 
L 280.317847 -228.47094 
L 280.394795 -230.380606 
L 280.468454 -232.290272 
L 280.538622 -234.199938 
L 280.605208 -236.109604 
L 280.668221 -238.01927 
L 280.727769 -239.928936 
L 280.784048 -241.838602 
L 280.83733 -243.748268 
L 280.887959 -245.657934 
L 280.93633 -247.5676 
L 280.982882 -249.477265 
L 281.028086 -251.386931 
L 281.072423 -253.296597 
L 281.116378 -255.206263 
L 281.16042 -257.115929 
L 281.204991 -259.025595 
L 281.250493 -260.935261 
L 281.297275 -262.844927 
L 281.345624 -264.754593 
L 281.395756 -266.664259 
L 281.447813 -268.573925 
L 281.501856 -270.48359 
L 281.557866 -272.393256 
L 281.615747 -274.302922 
L 281.675327 -276.212588 
L 281.736367 -278.122254 
L 281.79857 -280.03192 
L 281.861591 -281.941586 
L 281.925045 -283.851252 
L 281.988522 -285.760918 
L 282.051602 -287.670584 
L 282.113861 -289.58025 
L 282.174887 -291.489915 
L 282.23429 -293.399581 
L 282.291711 -295.309247 
L 282.346828 -297.218913 
L 282.399367 -299.128579 
L 282.449099 -301.038245 
L 282.495848 -302.947911 
L 282.539491 -304.857577 
L 282.579955 -306.767243 
L 282.617215 -308.676909 
L 282.651292 -310.586575 
L 282.682249 -312.496241 
L 282.710183 -314.405906 
L 282.735222 -316.315572 
L 283.046028 -316.315572 
L 283.046028 -316.315572 
L 283.071067 -314.405906 
L 283.099001 -312.496241 
L 283.129958 -310.586575 
L 283.164035 -308.676909 
L 283.201295 -306.767243 
L 283.241759 -304.857577 
L 283.285402 -302.947911 
L 283.332151 -301.038245 
L 283.381883 -299.128579 
L 283.434422 -297.218913 
L 283.489539 -295.309247 
L 283.54696 -293.399581 
L 283.606363 -291.489915 
L 283.667389 -289.58025 
L 283.729648 -287.670584 
L 283.792728 -285.760918 
L 283.856205 -283.851252 
L 283.919659 -281.941586 
L 283.98268 -280.03192 
L 284.044883 -278.122254 
L 284.105923 -276.212588 
L 284.165503 -274.302922 
L 284.223384 -272.393256 
L 284.279394 -270.48359 
L 284.333437 -268.573925 
L 284.385494 -266.664259 
L 284.435626 -264.754593 
L 284.483975 -262.844927 
L 284.530757 -260.935261 
L 284.576259 -259.025595 
L 284.62083 -257.115929 
L 284.664872 -255.206263 
L 284.708827 -253.296597 
L 284.753164 -251.386931 
L 284.798368 -249.477265 
L 284.84492 -247.5676 
L 284.893291 -245.657934 
L 284.94392 -243.748268 
L 284.997202 -241.838602 
L 285.053481 -239.928936 
L 285.113029 -238.01927 
L 285.176042 -236.109604 
L 285.242628 -234.199938 
L 285.312796 -232.290272 
L 285.386455 -230.380606 
L 285.463403 -228.47094 
L 285.543327 -226.561275 
L 285.625799 -224.651609 
L 285.710277 -222.741943 
L 285.796106 -220.832277 
L 285.882524 -218.922611 
L 285.96867 -217.012945 
L 286.053589 -215.103279 
L 286.136249 -213.193613 
L 286.215553 -211.283947 
L 286.290358 -209.374281 
L 286.359495 -207.464615 
L 286.421792 -205.55495 
L 286.476096 -203.645284 
L 286.521298 -201.735618 
L 286.556362 -199.825952 
L 286.580346 -197.916286 
L 286.592431 -196.00662 
L 286.591938 -194.096954 
L 286.578352 -192.187288 
L 286.55134 -190.277622 
L 286.510755 -188.367956 
L 286.456655 -186.45829 
L 286.389297 -184.548625 
L 286.309138 -182.638959 
L 286.216828 -180.729293 
L 286.113196 -178.819627 
L 285.999235 -176.909961 
L 285.876076 -175.000295 
L 285.744971 -173.090629 
L 285.607257 -171.180963 
L 285.464337 -169.271297 
L 285.31764 -167.361631 
L 285.168602 -165.451965 
L 285.018629 -163.542299 
L 284.869076 -161.632634 
L 284.721223 -159.722968 
L 284.576252 -157.813302 
L 284.43523 -155.903636 
L 284.2991 -153.99397 
L 284.168668 -152.084304 
L 284.044598 -150.174638 
L 283.927414 -148.264972 
L 283.817497 -146.355306 
L 283.715096 -144.44564 
L 283.620334 -142.535974 
L 283.533215 -140.626309 
L 283.453641 -138.716643 
L 283.381424 -136.806977 
L 283.316297 -134.897311 
L 283.257931 -132.987645 
L 283.20595 -131.077979 
L 283.159938 -129.168313 
L 283.119458 -127.258647 
z
" id="m5456bbf45e" style="stroke:#3f3f3f;stroke-width:1.5;"/>
    </defs>
    <g clip-path="url(#p5f82acfc6b)">
     <use style="fill:#3274a1;stroke:#3f3f3f;stroke-width:1.5;" x="0" xlink:href="#m5456bbf45e" y="361.217877"/>
    </g>
   </g>
   <g id="PolyCollection_4">
    <defs>
     <path d="M 375.283723 -84.883752 
L 369.057527 -84.883752 
L 368.54879 -85.090915 
L 367.978518 -85.298079 
L 367.343238 -85.505242 
L 366.639966 -85.712405 
L 365.866338 -85.919569 
L 365.020739 -86.126732 
L 364.102423 -86.333895 
L 363.111635 -86.541059 
L 362.049712 -86.748222 
L 360.919175 -86.955385 
L 359.72379 -87.162549 
L 358.468616 -87.369712 
L 357.160012 -87.576875 
L 355.805626 -87.784038 
L 354.414334 -87.991202 
L 352.996168 -88.198365 
L 351.562185 -88.405528 
L 350.12433 -88.612692 
L 348.695249 -88.819855 
L 347.288091 -89.027018 
L 345.916284 -89.234182 
L 344.5933 -89.441345 
L 343.33241 -89.648508 
L 342.146435 -89.855672 
L 341.047513 -90.062835 
L 340.04686 -90.269998 
L 339.154571 -90.477162 
L 338.379423 -90.684325 
L 337.72872 -90.891488 
L 337.208164 -91.098651 
L 336.821761 -91.305815 
L 336.571758 -91.512978 
L 336.458625 -91.720141 
L 336.481061 -91.927305 
L 336.636039 -92.134468 
L 336.918887 -92.341631 
L 337.323382 -92.548795 
L 337.841887 -92.755958 
L 338.465496 -92.963121 
L 339.184205 -93.170285 
L 339.987093 -93.377448 
L 340.862514 -93.584611 
L 341.798302 -93.791775 
L 342.781968 -93.998938 
L 343.800917 -94.206101 
L 344.842642 -94.413264 
L 345.894932 -94.620428 
L 346.94606 -94.827591 
L 347.984966 -95.034754 
L 349.001429 -95.241918 
L 349.986219 -95.449081 
L 350.931231 -95.656244 
L 351.8296 -95.863408 
L 352.67579 -96.070571 
L 353.465656 -96.277734 
L 354.196477 -96.484898 
L 354.866963 -96.692061 
L 355.477226 -96.899224 
L 356.028721 -97.106388 
L 356.524162 -97.313551 
L 356.967401 -97.520714 
L 357.363287 -97.727877 
L 357.717503 -97.935041 
L 358.036379 -98.142204 
L 358.326701 -98.349367 
L 358.595506 -98.556531 
L 358.849877 -98.763694 
L 359.096746 -98.970857 
L 359.342704 -99.178021 
L 359.59383 -99.385184 
L 359.85554 -99.592347 
L 360.132465 -99.799511 
L 360.428349 -100.006674 
L 360.745993 -100.213837 
L 361.087216 -100.421001 
L 361.452854 -100.628164 
L 361.842796 -100.835327 
L 362.256032 -101.04249 
L 362.690744 -101.249654 
L 363.144399 -101.456817 
L 363.613876 -101.66398 
L 364.095586 -101.871144 
L 364.585614 -102.078307 
L 365.079845 -102.28547 
L 365.574102 -102.492634 
L 366.064265 -102.699797 
L 366.54638 -102.90696 
L 367.01676 -103.114124 
L 367.472059 -103.321287 
L 367.909336 -103.52845 
L 368.326101 -103.735614 
L 368.720338 -103.942777 
L 369.090515 -104.14994 
L 369.43558 -104.357103 
L 369.754937 -104.564267 
L 370.048421 -104.77143 
L 370.316255 -104.978593 
L 370.559005 -105.185757 
L 370.777529 -105.39292 
L 373.563721 -105.39292 
L 373.563721 -105.39292 
L 373.782245 -105.185757 
L 374.024995 -104.978593 
L 374.292829 -104.77143 
L 374.586313 -104.564267 
L 374.90567 -104.357103 
L 375.250735 -104.14994 
L 375.620912 -103.942777 
L 376.015149 -103.735614 
L 376.431914 -103.52845 
L 376.869191 -103.321287 
L 377.32449 -103.114124 
L 377.79487 -102.90696 
L 378.276985 -102.699797 
L 378.767148 -102.492634 
L 379.261405 -102.28547 
L 379.755636 -102.078307 
L 380.245664 -101.871144 
L 380.727374 -101.66398 
L 381.196851 -101.456817 
L 381.650506 -101.249654 
L 382.085218 -101.04249 
L 382.498454 -100.835327 
L 382.888396 -100.628164 
L 383.254034 -100.421001 
L 383.595257 -100.213837 
L 383.912901 -100.006674 
L 384.208785 -99.799511 
L 384.48571 -99.592347 
L 384.74742 -99.385184 
L 384.998546 -99.178021 
L 385.244504 -98.970857 
L 385.491373 -98.763694 
L 385.745744 -98.556531 
L 386.014549 -98.349367 
L 386.304871 -98.142204 
L 386.623747 -97.935041 
L 386.977963 -97.727877 
L 387.373849 -97.520714 
L 387.817088 -97.313551 
L 388.312529 -97.106388 
L 388.864024 -96.899224 
L 389.474287 -96.692061 
L 390.144773 -96.484898 
L 390.875594 -96.277734 
L 391.66546 -96.070571 
L 392.51165 -95.863408 
L 393.410019 -95.656244 
L 394.355031 -95.449081 
L 395.339821 -95.241918 
L 396.356284 -95.034754 
L 397.39519 -94.827591 
L 398.446318 -94.620428 
L 399.498608 -94.413264 
L 400.540333 -94.206101 
L 401.559282 -93.998938 
L 402.542948 -93.791775 
L 403.478736 -93.584611 
L 404.354157 -93.377448 
L 405.157045 -93.170285 
L 405.875754 -92.963121 
L 406.499363 -92.755958 
L 407.017868 -92.548795 
L 407.422363 -92.341631 
L 407.705211 -92.134468 
L 407.860189 -91.927305 
L 407.882625 -91.720141 
L 407.769492 -91.512978 
L 407.519489 -91.305815 
L 407.133086 -91.098651 
L 406.61253 -90.891488 
L 405.961827 -90.684325 
L 405.186679 -90.477162 
L 404.29439 -90.269998 
L 403.293737 -90.062835 
L 402.194815 -89.855672 
L 401.00884 -89.648508 
L 399.74795 -89.441345 
L 398.424966 -89.234182 
L 397.053159 -89.027018 
L 395.646001 -88.819855 
L 394.21692 -88.612692 
L 392.779065 -88.405528 
L 391.345082 -88.198365 
L 389.926916 -87.991202 
L 388.535624 -87.784038 
L 387.181238 -87.576875 
L 385.872634 -87.369712 
L 384.61746 -87.162549 
L 383.422075 -86.955385 
L 382.291538 -86.748222 
L 381.229615 -86.541059 
L 380.238827 -86.333895 
L 379.320511 -86.126732 
L 378.474912 -85.919569 
L 377.701284 -85.712405 
L 376.998012 -85.505242 
L 376.362732 -85.298079 
L 375.79246 -85.090915 
L 375.283723 -84.883752 
z
" id="m45042f2aa2" style="stroke:#3f3f3f;stroke-width:1.5;"/>
    </defs>
    <g clip-path="url(#p5f82acfc6b)">
     <use style="fill:#9fd495;stroke:#3f3f3f;stroke-width:1.5;" x="0" xlink:href="#m45042f2aa2" y="361.217877"/>
    </g>
   </g>
   <g id="matplotlib.axis_1">
    <g id="xtick_1">
     <g id="line2d_1">
      <defs>
       <path d="M 0 0 
L 0 3.5 
" id="m9e38b8f999" style="stroke:#000000;stroke-width:0.8;"/>
      </defs>
      <g>
       <use style="stroke:#000000;stroke-width:0.8;" x="104.330625" xlink:href="#m9e38b8f999" y="288.430125"/>
      </g>
     </g>
     <g id="text_1">
      <!-- kirenenko-rare -->
      <g transform="translate(40.022213 338.53869)rotate(-30)scale(0.1 -0.1)">
       <defs>
        <path d="M 9.078125 75.984375 
L 18.109375 75.984375 
L 18.109375 31.109375 
L 44.921875 54.6875 
L 56.390625 54.6875 
L 27.390625 29.109375 
L 57.625 0 
L 45.90625 0 
L 18.109375 26.703125 
L 18.109375 0 
L 9.078125 0 
z
" id="DejaVuSans-107"/>
        <path d="M 9.421875 54.6875 
L 18.40625 54.6875 
L 18.40625 0 
L 9.421875 0 
z
M 9.421875 75.984375 
L 18.40625 75.984375 
L 18.40625 64.59375 
L 9.421875 64.59375 
z
" id="DejaVuSans-105"/>
        <path d="M 41.109375 46.296875 
Q 39.59375 47.171875 37.8125 47.578125 
Q 36.03125 48 33.890625 48 
Q 26.265625 48 22.1875 43.046875 
Q 18.109375 38.09375 18.109375 28.8125 
L 18.109375 0 
L 9.078125 0 
L 9.078125 54.6875 
L 18.109375 54.6875 
L 18.109375 46.1875 
Q 20.953125 51.171875 25.484375 53.578125 
Q 30.03125 56 36.53125 56 
Q 37.453125 56 38.578125 55.875 
Q 39.703125 55.765625 41.0625 55.515625 
z
" id="DejaVuSans-114"/>
        <path d="M 56.203125 29.59375 
L 56.203125 25.203125 
L 14.890625 25.203125 
Q 15.484375 15.921875 20.484375 11.0625 
Q 25.484375 6.203125 34.421875 6.203125 
Q 39.59375 6.203125 44.453125 7.46875 
Q 49.3125 8.734375 54.109375 11.28125 
L 54.109375 2.78125 
Q 49.265625 0.734375 44.1875 -0.34375 
Q 39.109375 -1.421875 33.890625 -1.421875 
Q 20.796875 -1.421875 13.15625 6.1875 
Q 5.515625 13.8125 5.515625 26.8125 
Q 5.515625 40.234375 12.765625 48.109375 
Q 20.015625 56 32.328125 56 
Q 43.359375 56 49.78125 48.890625 
Q 56.203125 41.796875 56.203125 29.59375 
z
M 47.21875 32.234375 
Q 47.125 39.59375 43.09375 43.984375 
Q 39.0625 48.390625 32.421875 48.390625 
Q 24.90625 48.390625 20.390625 44.140625 
Q 15.875 39.890625 15.1875 32.171875 
z
" id="DejaVuSans-101"/>
        <path d="M 54.890625 33.015625 
L 54.890625 0 
L 45.90625 0 
L 45.90625 32.71875 
Q 45.90625 40.484375 42.875 44.328125 
Q 39.84375 48.1875 33.796875 48.1875 
Q 26.515625 48.1875 22.3125 43.546875 
Q 18.109375 38.921875 18.109375 30.90625 
L 18.109375 0 
L 9.078125 0 
L 9.078125 54.6875 
L 18.109375 54.6875 
L 18.109375 46.1875 
Q 21.34375 51.125 25.703125 53.5625 
Q 30.078125 56 35.796875 56 
Q 45.21875 56 50.046875 50.171875 
Q 54.890625 44.34375 54.890625 33.015625 
z
" id="DejaVuSans-110"/>
        <path d="M 30.609375 48.390625 
Q 23.390625 48.390625 19.1875 42.75 
Q 14.984375 37.109375 14.984375 27.296875 
Q 14.984375 17.484375 19.15625 11.84375 
Q 23.34375 6.203125 30.609375 6.203125 
Q 37.796875 6.203125 41.984375 11.859375 
Q 46.1875 17.53125 46.1875 27.296875 
Q 46.1875 37.015625 41.984375 42.703125 
Q 37.796875 48.390625 30.609375 48.390625 
z
M 30.609375 56 
Q 42.328125 56 49.015625 48.375 
Q 55.71875 40.765625 55.71875 27.296875 
Q 55.71875 13.875 49.015625 6.21875 
Q 42.328125 -1.421875 30.609375 -1.421875 
Q 18.84375 -1.421875 12.171875 6.21875 
Q 5.515625 13.875 5.515625 27.296875 
Q 5.515625 40.765625 12.171875 48.375 
Q 18.84375 56 30.609375 56 
z
" id="DejaVuSans-111"/>
        <path d="M 4.890625 31.390625 
L 31.203125 31.390625 
L 31.203125 23.390625 
L 4.890625 23.390625 
z
" id="DejaVuSans-45"/>
        <path d="M 34.28125 27.484375 
Q 23.390625 27.484375 19.1875 25 
Q 14.984375 22.515625 14.984375 16.5 
Q 14.984375 11.71875 18.140625 8.90625 
Q 21.296875 6.109375 26.703125 6.109375 
Q 34.1875 6.109375 38.703125 11.40625 
Q 43.21875 16.703125 43.21875 25.484375 
L 43.21875 27.484375 
z
M 52.203125 31.203125 
L 52.203125 0 
L 43.21875 0 
L 43.21875 8.296875 
Q 40.140625 3.328125 35.546875 0.953125 
Q 30.953125 -1.421875 24.3125 -1.421875 
Q 15.921875 -1.421875 10.953125 3.296875 
Q 6 8.015625 6 15.921875 
Q 6 25.140625 12.171875 29.828125 
Q 18.359375 34.515625 30.609375 34.515625 
L 43.21875 34.515625 
L 43.21875 35.40625 
Q 43.21875 41.609375 39.140625 45 
Q 35.0625 48.390625 27.6875 48.390625 
Q 23 48.390625 18.546875 47.265625 
Q 14.109375 46.140625 10.015625 43.890625 
L 10.015625 52.203125 
Q 14.9375 54.109375 19.578125 55.046875 
Q 24.21875 56 28.609375 56 
Q 40.484375 56 46.34375 49.84375 
Q 52.203125 43.703125 52.203125 31.203125 
z
" id="DejaVuSans-97"/>
       </defs>
       <use xlink:href="#DejaVuSans-107"/>
       <use x="57.910156" xlink:href="#DejaVuSans-105"/>
       <use x="85.693359" xlink:href="#DejaVuSans-114"/>
       <use x="124.556641" xlink:href="#DejaVuSans-101"/>
       <use x="186.080078" xlink:href="#DejaVuSans-110"/>
       <use x="249.458984" xlink:href="#DejaVuSans-101"/>
       <use x="310.982422" xlink:href="#DejaVuSans-110"/>
       <use x="374.361328" xlink:href="#DejaVuSans-107"/>
       <use x="428.646484" xlink:href="#DejaVuSans-111"/>
       <use x="491.703125" xlink:href="#DejaVuSans-45"/>
       <use x="527.787109" xlink:href="#DejaVuSans-114"/>
       <use x="568.900391" xlink:href="#DejaVuSans-97"/>
       <use x="630.179688" xlink:href="#DejaVuSans-114"/>
       <use x="669.042969" xlink:href="#DejaVuSans-101"/>
      </g>
     </g>
    </g>
    <g id="xtick_2">
     <g id="line2d_2">
      <g>
       <use style="stroke:#000000;stroke-width:0.8;" x="193.610625" xlink:href="#m9e38b8f999" y="288.430125"/>
      </g>
     </g>
     <g id="text_2">
      <!-- kirenenko -->
      <g transform="translate(150.150421 326.501971)rotate(-30)scale(0.1 -0.1)">
       <use xlink:href="#DejaVuSans-107"/>
       <use x="57.910156" xlink:href="#DejaVuSans-105"/>
       <use x="85.693359" xlink:href="#DejaVuSans-114"/>
       <use x="124.556641" xlink:href="#DejaVuSans-101"/>
       <use x="186.080078" xlink:href="#DejaVuSans-110"/>
       <use x="249.458984" xlink:href="#DejaVuSans-101"/>
       <use x="310.982422" xlink:href="#DejaVuSans-110"/>
       <use x="374.361328" xlink:href="#DejaVuSans-107"/>
       <use x="428.646484" xlink:href="#DejaVuSans-111"/>
      </g>
     </g>
    </g>
    <g id="xtick_3">
     <g id="line2d_3">
      <g>
       <use style="stroke:#000000;stroke-width:0.8;" x="282.890625" xlink:href="#m9e38b8f999" y="288.430125"/>
      </g>
     </g>
     <g id="text_3">
      <!-- aflplusplus -->
      <g transform="translate(235.281618 328.897284)rotate(-30)scale(0.1 -0.1)">
       <defs>
        <path d="M 37.109375 75.984375 
L 37.109375 68.5 
L 28.515625 68.5 
Q 23.6875 68.5 21.796875 66.546875 
Q 19.921875 64.59375 19.921875 59.515625 
L 19.921875 54.6875 
L 34.71875 54.6875 
L 34.71875 47.703125 
L 19.921875 47.703125 
L 19.921875 0 
L 10.890625 0 
L 10.890625 47.703125 
L 2.296875 47.703125 
L 2.296875 54.6875 
L 10.890625 54.6875 
L 10.890625 58.5 
Q 10.890625 67.625 15.140625 71.796875 
Q 19.390625 75.984375 28.609375 75.984375 
z
" id="DejaVuSans-102"/>
        <path d="M 9.421875 75.984375 
L 18.40625 75.984375 
L 18.40625 0 
L 9.421875 0 
z
" id="DejaVuSans-108"/>
        <path d="M 18.109375 8.203125 
L 18.109375 -20.796875 
L 9.078125 -20.796875 
L 9.078125 54.6875 
L 18.109375 54.6875 
L 18.109375 46.390625 
Q 20.953125 51.265625 25.265625 53.625 
Q 29.59375 56 35.59375 56 
Q 45.5625 56 51.78125 48.09375 
Q 58.015625 40.1875 58.015625 27.296875 
Q 58.015625 14.40625 51.78125 6.484375 
Q 45.5625 -1.421875 35.59375 -1.421875 
Q 29.59375 -1.421875 25.265625 0.953125 
Q 20.953125 3.328125 18.109375 8.203125 
z
M 48.6875 27.296875 
Q 48.6875 37.203125 44.609375 42.84375 
Q 40.53125 48.484375 33.40625 48.484375 
Q 26.265625 48.484375 22.1875 42.84375 
Q 18.109375 37.203125 18.109375 27.296875 
Q 18.109375 17.390625 22.1875 11.75 
Q 26.265625 6.109375 33.40625 6.109375 
Q 40.53125 6.109375 44.609375 11.75 
Q 48.6875 17.390625 48.6875 27.296875 
z
" id="DejaVuSans-112"/>
        <path d="M 8.5 21.578125 
L 8.5 54.6875 
L 17.484375 54.6875 
L 17.484375 21.921875 
Q 17.484375 14.15625 20.5 10.265625 
Q 23.53125 6.390625 29.59375 6.390625 
Q 36.859375 6.390625 41.078125 11.03125 
Q 45.3125 15.671875 45.3125 23.6875 
L 45.3125 54.6875 
L 54.296875 54.6875 
L 54.296875 0 
L 45.3125 0 
L 45.3125 8.40625 
Q 42.046875 3.421875 37.71875 1 
Q 33.40625 -1.421875 27.6875 -1.421875 
Q 18.265625 -1.421875 13.375 4.4375 
Q 8.5 10.296875 8.5 21.578125 
z
M 31.109375 56 
z
" id="DejaVuSans-117"/>
        <path d="M 44.28125 53.078125 
L 44.28125 44.578125 
Q 40.484375 46.53125 36.375 47.5 
Q 32.28125 48.484375 27.875 48.484375 
Q 21.1875 48.484375 17.84375 46.4375 
Q 14.5 44.390625 14.5 40.28125 
Q 14.5 37.15625 16.890625 35.375 
Q 19.28125 33.59375 26.515625 31.984375 
L 29.59375 31.296875 
Q 39.15625 29.25 43.1875 25.515625 
Q 47.21875 21.78125 47.21875 15.09375 
Q 47.21875 7.46875 41.1875 3.015625 
Q 35.15625 -1.421875 24.609375 -1.421875 
Q 20.21875 -1.421875 15.453125 -0.5625 
Q 10.6875 0.296875 5.421875 2 
L 5.421875 11.28125 
Q 10.40625 8.6875 15.234375 7.390625 
Q 20.0625 6.109375 24.8125 6.109375 
Q 31.15625 6.109375 34.5625 8.28125 
Q 37.984375 10.453125 37.984375 14.40625 
Q 37.984375 18.0625 35.515625 20.015625 
Q 33.0625 21.96875 24.703125 23.78125 
L 21.578125 24.515625 
Q 13.234375 26.265625 9.515625 29.90625 
Q 5.8125 33.546875 5.8125 39.890625 
Q 5.8125 47.609375 11.28125 51.796875 
Q 16.75 56 26.8125 56 
Q 31.78125 56 36.171875 55.265625 
Q 40.578125 54.546875 44.28125 53.078125 
z
" id="DejaVuSans-115"/>
       </defs>
       <use xlink:href="#DejaVuSans-97"/>
       <use x="61.279297" xlink:href="#DejaVuSans-102"/>
       <use x="96.484375" xlink:href="#DejaVuSans-108"/>
       <use x="124.267578" xlink:href="#DejaVuSans-112"/>
       <use x="187.744141" xlink:href="#DejaVuSans-108"/>
       <use x="215.527344" xlink:href="#DejaVuSans-117"/>
       <use x="278.90625" xlink:href="#DejaVuSans-115"/>
       <use x="331.005859" xlink:href="#DejaVuSans-112"/>
       <use x="394.482422" xlink:href="#DejaVuSans-108"/>
       <use x="422.265625" xlink:href="#DejaVuSans-117"/>
       <use x="485.644531" xlink:href="#DejaVuSans-115"/>
      </g>
     </g>
    </g>
    <g id="xtick_4">
     <g id="line2d_4">
      <g>
       <use style="stroke:#000000;stroke-width:0.8;" x="372.170625" xlink:href="#m9e38b8f999" y="288.430125"/>
      </g>
     </g>
     <g id="text_4">
      <!-- honggfuzz -->
      <g transform="translate(326.231424 327.933221)rotate(-30)scale(0.1 -0.1)">
       <defs>
        <path d="M 54.890625 33.015625 
L 54.890625 0 
L 45.90625 0 
L 45.90625 32.71875 
Q 45.90625 40.484375 42.875 44.328125 
Q 39.84375 48.1875 33.796875 48.1875 
Q 26.515625 48.1875 22.3125 43.546875 
Q 18.109375 38.921875 18.109375 30.90625 
L 18.109375 0 
L 9.078125 0 
L 9.078125 75.984375 
L 18.109375 75.984375 
L 18.109375 46.1875 
Q 21.34375 51.125 25.703125 53.5625 
Q 30.078125 56 35.796875 56 
Q 45.21875 56 50.046875 50.171875 
Q 54.890625 44.34375 54.890625 33.015625 
z
" id="DejaVuSans-104"/>
        <path d="M 45.40625 27.984375 
Q 45.40625 37.75 41.375 43.109375 
Q 37.359375 48.484375 30.078125 48.484375 
Q 22.859375 48.484375 18.828125 43.109375 
Q 14.796875 37.75 14.796875 27.984375 
Q 14.796875 18.265625 18.828125 12.890625 
Q 22.859375 7.515625 30.078125 7.515625 
Q 37.359375 7.515625 41.375 12.890625 
Q 45.40625 18.265625 45.40625 27.984375 
z
M 54.390625 6.78125 
Q 54.390625 -7.171875 48.1875 -13.984375 
Q 42 -20.796875 29.203125 -20.796875 
Q 24.46875 -20.796875 20.265625 -20.09375 
Q 16.0625 -19.390625 12.109375 -17.921875 
L 12.109375 -9.1875 
Q 16.0625 -11.328125 19.921875 -12.34375 
Q 23.78125 -13.375 27.78125 -13.375 
Q 36.625 -13.375 41.015625 -8.765625 
Q 45.40625 -4.15625 45.40625 5.171875 
L 45.40625 9.625 
Q 42.625 4.78125 38.28125 2.390625 
Q 33.9375 0 27.875 0 
Q 17.828125 0 11.671875 7.65625 
Q 5.515625 15.328125 5.515625 27.984375 
Q 5.515625 40.671875 11.671875 48.328125 
Q 17.828125 56 27.875 56 
Q 33.9375 56 38.28125 53.609375 
Q 42.625 51.21875 45.40625 46.390625 
L 45.40625 54.6875 
L 54.390625 54.6875 
z
" id="DejaVuSans-103"/>
        <path d="M 5.515625 54.6875 
L 48.1875 54.6875 
L 48.1875 46.484375 
L 14.40625 7.171875 
L 48.1875 7.171875 
L 48.1875 0 
L 4.296875 0 
L 4.296875 8.203125 
L 38.09375 47.515625 
L 5.515625 47.515625 
z
" id="DejaVuSans-122"/>
       </defs>
       <use xlink:href="#DejaVuSans-104"/>
       <use x="63.378906" xlink:href="#DejaVuSans-111"/>
       <use x="124.560547" xlink:href="#DejaVuSans-110"/>
       <use x="187.939453" xlink:href="#DejaVuSans-103"/>
       <use x="251.416016" xlink:href="#DejaVuSans-103"/>
       <use x="314.892578" xlink:href="#DejaVuSans-102"/>
       <use x="350.097656" xlink:href="#DejaVuSans-117"/>
       <use x="413.476562" xlink:href="#DejaVuSans-122"/>
       <use x="465.966797" xlink:href="#DejaVuSans-122"/>
      </g>
     </g>
    </g>
    <g id="text_5">
     <!-- Fuzzer (highest median coverage on the left) -->
     <g transform="translate(125.632656 351.93819)scale(0.1 -0.1)">
      <defs>
       <path d="M 9.8125 72.90625 
L 51.703125 72.90625 
L 51.703125 64.59375 
L 19.671875 64.59375 
L 19.671875 43.109375 
L 48.578125 43.109375 
L 48.578125 34.8125 
L 19.671875 34.8125 
L 19.671875 0 
L 9.8125 0 
z
" id="DejaVuSans-70"/>
       <path id="DejaVuSans-32"/>
       <path d="M 31 75.875 
Q 24.46875 64.65625 21.28125 53.65625 
Q 18.109375 42.671875 18.109375 31.390625 
Q 18.109375 20.125 21.3125 9.0625 
Q 24.515625 -2 31 -13.1875 
L 23.1875 -13.1875 
Q 15.875 -1.703125 12.234375 9.375 
Q 8.59375 20.453125 8.59375 31.390625 
Q 8.59375 42.28125 12.203125 53.3125 
Q 15.828125 64.359375 23.1875 75.875 
z
" id="DejaVuSans-40"/>
       <path d="M 18.3125 70.21875 
L 18.3125 54.6875 
L 36.8125 54.6875 
L 36.8125 47.703125 
L 18.3125 47.703125 
L 18.3125 18.015625 
Q 18.3125 11.328125 20.140625 9.421875 
Q 21.96875 7.515625 27.59375 7.515625 
L 36.8125 7.515625 
L 36.8125 0 
L 27.59375 0 
Q 17.1875 0 13.234375 3.875 
Q 9.28125 7.765625 9.28125 18.015625 
L 9.28125 47.703125 
L 2.6875 47.703125 
L 2.6875 54.6875 
L 9.28125 54.6875 
L 9.28125 70.21875 
z
" id="DejaVuSans-116"/>
       <path d="M 52 44.1875 
Q 55.375 50.25 60.0625 53.125 
Q 64.75 56 71.09375 56 
Q 79.640625 56 84.28125 50.015625 
Q 88.921875 44.046875 88.921875 33.015625 
L 88.921875 0 
L 79.890625 0 
L 79.890625 32.71875 
Q 79.890625 40.578125 77.09375 44.375 
Q 74.3125 48.1875 68.609375 48.1875 
Q 61.625 48.1875 57.5625 43.546875 
Q 53.515625 38.921875 53.515625 30.90625 
L 53.515625 0 
L 44.484375 0 
L 44.484375 32.71875 
Q 44.484375 40.625 41.703125 44.40625 
Q 38.921875 48.1875 33.109375 48.1875 
Q 26.21875 48.1875 22.15625 43.53125 
Q 18.109375 38.875 18.109375 30.90625 
L 18.109375 0 
L 9.078125 0 
L 9.078125 54.6875 
L 18.109375 54.6875 
L 18.109375 46.1875 
Q 21.1875 51.21875 25.484375 53.609375 
Q 29.78125 56 35.6875 56 
Q 41.65625 56 45.828125 52.96875 
Q 50 49.953125 52 44.1875 
z
" id="DejaVuSans-109"/>
       <path d="M 45.40625 46.390625 
L 45.40625 75.984375 
L 54.390625 75.984375 
L 54.390625 0 
L 45.40625 0 
L 45.40625 8.203125 
Q 42.578125 3.328125 38.25 0.953125 
Q 33.9375 -1.421875 27.875 -1.421875 
Q 17.96875 -1.421875 11.734375 6.484375 
Q 5.515625 14.40625 5.515625 27.296875 
Q 5.515625 40.1875 11.734375 48.09375 
Q 17.96875 56 27.875 56 
Q 33.9375 56 38.25 53.625 
Q 42.578125 51.265625 45.40625 46.390625 
z
M 14.796875 27.296875 
Q 14.796875 17.390625 18.875 11.75 
Q 22.953125 6.109375 30.078125 6.109375 
Q 37.203125 6.109375 41.296875 11.75 
Q 45.40625 17.390625 45.40625 27.296875 
Q 45.40625 37.203125 41.296875 42.84375 
Q 37.203125 48.484375 30.078125 48.484375 
Q 22.953125 48.484375 18.875 42.84375 
Q 14.796875 37.203125 14.796875 27.296875 
z
" id="DejaVuSans-100"/>
       <path d="M 48.78125 52.59375 
L 48.78125 44.1875 
Q 44.96875 46.296875 41.140625 47.34375 
Q 37.3125 48.390625 33.40625 48.390625 
Q 24.65625 48.390625 19.8125 42.84375 
Q 14.984375 37.3125 14.984375 27.296875 
Q 14.984375 17.28125 19.8125 11.734375 
Q 24.65625 6.203125 33.40625 6.203125 
Q 37.3125 6.203125 41.140625 7.25 
Q 44.96875 8.296875 48.78125 10.40625 
L 48.78125 2.09375 
Q 45.015625 0.34375 40.984375 -0.53125 
Q 36.96875 -1.421875 32.421875 -1.421875 
Q 20.0625 -1.421875 12.78125 6.34375 
Q 5.515625 14.109375 5.515625 27.296875 
Q 5.515625 40.671875 12.859375 48.328125 
Q 20.21875 56 33.015625 56 
Q 37.15625 56 41.109375 55.140625 
Q 45.0625 54.296875 48.78125 52.59375 
z
" id="DejaVuSans-99"/>
       <path d="M 2.984375 54.6875 
L 12.5 54.6875 
L 29.59375 8.796875 
L 46.6875 54.6875 
L 56.203125 54.6875 
L 35.6875 0 
L 23.484375 0 
z
" id="DejaVuSans-118"/>
       <path d="M 8.015625 75.875 
L 15.828125 75.875 
Q 23.140625 64.359375 26.78125 53.3125 
Q 30.421875 42.28125 30.421875 31.390625 
Q 30.421875 20.453125 26.78125 9.375 
Q 23.140625 -1.703125 15.828125 -13.1875 
L 8.015625 -13.1875 
Q 14.5 -2 17.703125 9.0625 
Q 20.90625 20.125 20.90625 31.390625 
Q 20.90625 42.671875 17.703125 53.65625 
Q 14.5 64.65625 8.015625 75.875 
z
" id="DejaVuSans-41"/>
      </defs>
      <use xlink:href="#DejaVuSans-70"/>
      <use x="52.019531" xlink:href="#DejaVuSans-117"/>
      <use x="115.398438" xlink:href="#DejaVuSans-122"/>
      <use x="167.888672" xlink:href="#DejaVuSans-122"/>
      <use x="220.378906" xlink:href="#DejaVuSans-101"/>
      <use x="281.902344" xlink:href="#DejaVuSans-114"/>
      <use x="323.015625" xlink:href="#DejaVuSans-32"/>
      <use x="354.802734" xlink:href="#DejaVuSans-40"/>
      <use x="393.816406" xlink:href="#DejaVuSans-104"/>
      <use x="457.195312" xlink:href="#DejaVuSans-105"/>
      <use x="484.978516" xlink:href="#DejaVuSans-103"/>
      <use x="548.455078" xlink:href="#DejaVuSans-104"/>
      <use x="611.833984" xlink:href="#DejaVuSans-101"/>
      <use x="673.357422" xlink:href="#DejaVuSans-115"/>
      <use x="725.457031" xlink:href="#DejaVuSans-116"/>
      <use x="764.666016" xlink:href="#DejaVuSans-32"/>
      <use x="796.453125" xlink:href="#DejaVuSans-109"/>
      <use x="893.865234" xlink:href="#DejaVuSans-101"/>
      <use x="955.388672" xlink:href="#DejaVuSans-100"/>
      <use x="1018.865234" xlink:href="#DejaVuSans-105"/>
      <use x="1046.648438" xlink:href="#DejaVuSans-97"/>
      <use x="1107.927734" xlink:href="#DejaVuSans-110"/>
      <use x="1171.306641" xlink:href="#DejaVuSans-32"/>
      <use x="1203.09375" xlink:href="#DejaVuSans-99"/>
      <use x="1258.074219" xlink:href="#DejaVuSans-111"/>
      <use x="1319.255859" xlink:href="#DejaVuSans-118"/>
      <use x="1378.435547" xlink:href="#DejaVuSans-101"/>
      <use x="1439.958984" xlink:href="#DejaVuSans-114"/>
      <use x="1481.072266" xlink:href="#DejaVuSans-97"/>
      <use x="1542.351562" xlink:href="#DejaVuSans-103"/>
      <use x="1605.828125" xlink:href="#DejaVuSans-101"/>
      <use x="1667.351562" xlink:href="#DejaVuSans-32"/>
      <use x="1699.138672" xlink:href="#DejaVuSans-111"/>
      <use x="1760.320312" xlink:href="#DejaVuSans-110"/>
      <use x="1823.699219" xlink:href="#DejaVuSans-32"/>
      <use x="1855.486328" xlink:href="#DejaVuSans-116"/>
      <use x="1894.695312" xlink:href="#DejaVuSans-104"/>
      <use x="1958.074219" xlink:href="#DejaVuSans-101"/>
      <use x="2019.597656" xlink:href="#DejaVuSans-32"/>
      <use x="2051.384766" xlink:href="#DejaVuSans-108"/>
      <use x="2079.167969" xlink:href="#DejaVuSans-101"/>
      <use x="2140.691406" xlink:href="#DejaVuSans-102"/>
      <use x="2174.146484" xlink:href="#DejaVuSans-116"/>
      <use x="2213.355469" xlink:href="#DejaVuSans-41"/>
     </g>
    </g>
   </g>
   <g id="matplotlib.axis_2">
    <g id="ytick_1">
     <g id="line2d_5">
      <defs>
       <path d="M 0 0 
L -3.5 0 
" id="m74ba2057a3" style="stroke:#000000;stroke-width:0.8;"/>
      </defs>
      <g>
       <use style="stroke:#000000;stroke-width:0.8;" x="59.690625" xlink:href="#m74ba2057a3" y="281.910638"/>
      </g>
     </g>
     <g id="text_6">
      <!-- 13680 -->
      <g transform="translate(20.878125 285.709857)scale(0.1 -0.1)">
       <defs>
        <path d="M 12.40625 8.296875 
L 28.515625 8.296875 
L 28.515625 63.921875 
L 10.984375 60.40625 
L 10.984375 69.390625 
L 28.421875 72.90625 
L 38.28125 72.90625 
L 38.28125 8.296875 
L 54.390625 8.296875 
L 54.390625 0 
L 12.40625 0 
z
" id="DejaVuSans-49"/>
        <path d="M 40.578125 39.3125 
Q 47.65625 37.796875 51.625 33 
Q 55.609375 28.21875 55.609375 21.1875 
Q 55.609375 10.40625 48.1875 4.484375 
Q 40.765625 -1.421875 27.09375 -1.421875 
Q 22.515625 -1.421875 17.65625 -0.515625 
Q 12.796875 0.390625 7.625 2.203125 
L 7.625 11.71875 
Q 11.71875 9.328125 16.59375 8.109375 
Q 21.484375 6.890625 26.8125 6.890625 
Q 36.078125 6.890625 40.9375 10.546875 
Q 45.796875 14.203125 45.796875 21.1875 
Q 45.796875 27.640625 41.28125 31.265625 
Q 36.765625 34.90625 28.71875 34.90625 
L 20.21875 34.90625 
L 20.21875 43.015625 
L 29.109375 43.015625 
Q 36.375 43.015625 40.234375 45.921875 
Q 44.09375 48.828125 44.09375 54.296875 
Q 44.09375 59.90625 40.109375 62.90625 
Q 36.140625 65.921875 28.71875 65.921875 
Q 24.65625 65.921875 20.015625 65.03125 
Q 15.375 64.15625 9.8125 62.3125 
L 9.8125 71.09375 
Q 15.4375 72.65625 20.34375 73.4375 
Q 25.25 74.21875 29.59375 74.21875 
Q 40.828125 74.21875 47.359375 69.109375 
Q 53.90625 64.015625 53.90625 55.328125 
Q 53.90625 49.265625 50.4375 45.09375 
Q 46.96875 40.921875 40.578125 39.3125 
z
" id="DejaVuSans-51"/>
        <path d="M 33.015625 40.375 
Q 26.375 40.375 22.484375 35.828125 
Q 18.609375 31.296875 18.609375 23.390625 
Q 18.609375 15.53125 22.484375 10.953125 
Q 26.375 6.390625 33.015625 6.390625 
Q 39.65625 6.390625 43.53125 10.953125 
Q 47.40625 15.53125 47.40625 23.390625 
Q 47.40625 31.296875 43.53125 35.828125 
Q 39.65625 40.375 33.015625 40.375 
z
M 52.59375 71.296875 
L 52.59375 62.3125 
Q 48.875 64.0625 45.09375 64.984375 
Q 41.3125 65.921875 37.59375 65.921875 
Q 27.828125 65.921875 22.671875 59.328125 
Q 17.53125 52.734375 16.796875 39.40625 
Q 19.671875 43.65625 24.015625 45.921875 
Q 28.375 48.1875 33.59375 48.1875 
Q 44.578125 48.1875 50.953125 41.515625 
Q 57.328125 34.859375 57.328125 23.390625 
Q 57.328125 12.15625 50.6875 5.359375 
Q 44.046875 -1.421875 33.015625 -1.421875 
Q 20.359375 -1.421875 13.671875 8.265625 
Q 6.984375 17.96875 6.984375 36.375 
Q 6.984375 53.65625 15.1875 63.9375 
Q 23.390625 74.21875 37.203125 74.21875 
Q 40.921875 74.21875 44.703125 73.484375 
Q 48.484375 72.75 52.59375 71.296875 
z
" id="DejaVuSans-54"/>
        <path d="M 31.78125 34.625 
Q 24.75 34.625 20.71875 30.859375 
Q 16.703125 27.09375 16.703125 20.515625 
Q 16.703125 13.921875 20.71875 10.15625 
Q 24.75 6.390625 31.78125 6.390625 
Q 38.8125 6.390625 42.859375 10.171875 
Q 46.921875 13.96875 46.921875 20.515625 
Q 46.921875 27.09375 42.890625 30.859375 
Q 38.875 34.625 31.78125 34.625 
z
M 21.921875 38.8125 
Q 15.578125 40.375 12.03125 44.71875 
Q 8.5 49.078125 8.5 55.328125 
Q 8.5 64.0625 14.71875 69.140625 
Q 20.953125 74.21875 31.78125 74.21875 
Q 42.671875 74.21875 48.875 69.140625 
Q 55.078125 64.0625 55.078125 55.328125 
Q 55.078125 49.078125 51.53125 44.71875 
Q 48 40.375 41.703125 38.8125 
Q 48.828125 37.15625 52.796875 32.3125 
Q 56.78125 27.484375 56.78125 20.515625 
Q 56.78125 9.90625 50.3125 4.234375 
Q 43.84375 -1.421875 31.78125 -1.421875 
Q 19.734375 -1.421875 13.25 4.234375 
Q 6.78125 9.90625 6.78125 20.515625 
Q 6.78125 27.484375 10.78125 32.3125 
Q 14.796875 37.15625 21.921875 38.8125 
z
M 18.3125 54.390625 
Q 18.3125 48.734375 21.84375 45.5625 
Q 25.390625 42.390625 31.78125 42.390625 
Q 38.140625 42.390625 41.71875 45.5625 
Q 45.3125 48.734375 45.3125 54.390625 
Q 45.3125 60.0625 41.71875 63.234375 
Q 38.140625 66.40625 31.78125 66.40625 
Q 25.390625 66.40625 21.84375 63.234375 
Q 18.3125 60.0625 18.3125 54.390625 
z
" id="DejaVuSans-56"/>
        <path d="M 31.78125 66.40625 
Q 24.171875 66.40625 20.328125 58.90625 
Q 16.5 51.421875 16.5 36.375 
Q 16.5 21.390625 20.328125 13.890625 
Q 24.171875 6.390625 31.78125 6.390625 
Q 39.453125 6.390625 43.28125 13.890625 
Q 47.125 21.390625 47.125 36.375 
Q 47.125 51.421875 43.28125 58.90625 
Q 39.453125 66.40625 31.78125 66.40625 
z
M 31.78125 74.21875 
Q 44.046875 74.21875 50.515625 64.515625 
Q 56.984375 54.828125 56.984375 36.375 
Q 56.984375 17.96875 50.515625 8.265625 
Q 44.046875 -1.421875 31.78125 -1.421875 
Q 19.53125 -1.421875 13.0625 8.265625 
Q 6.59375 17.96875 6.59375 36.375 
Q 6.59375 54.828125 13.0625 64.515625 
Q 19.53125 74.21875 31.78125 74.21875 
z
" id="DejaVuSans-48"/>
       </defs>
       <use xlink:href="#DejaVuSans-49"/>
       <use x="63.623047" xlink:href="#DejaVuSans-51"/>
       <use x="127.246094" xlink:href="#DejaVuSans-54"/>
       <use x="190.869141" xlink:href="#DejaVuSans-56"/>
       <use x="254.492188" xlink:href="#DejaVuSans-48"/>
      </g>
     </g>
    </g>
    <g id="ytick_2">
     <g id="line2d_6">
      <g>
       <use style="stroke:#000000;stroke-width:0.8;" x="59.690625" xlink:href="#m74ba2057a3" y="244.660998"/>
      </g>
     </g>
     <g id="text_7">
      <!-- 13700 -->
      <g transform="translate(20.878125 248.460217)scale(0.1 -0.1)">
       <defs>
        <path d="M 8.203125 72.90625 
L 55.078125 72.90625 
L 55.078125 68.703125 
L 28.609375 0 
L 18.3125 0 
L 43.21875 64.59375 
L 8.203125 64.59375 
z
" id="DejaVuSans-55"/>
       </defs>
       <use xlink:href="#DejaVuSans-49"/>
       <use x="63.623047" xlink:href="#DejaVuSans-51"/>
       <use x="127.246094" xlink:href="#DejaVuSans-55"/>
       <use x="190.869141" xlink:href="#DejaVuSans-48"/>
       <use x="254.492188" xlink:href="#DejaVuSans-48"/>
      </g>
     </g>
    </g>
    <g id="ytick_3">
     <g id="line2d_7">
      <g>
       <use style="stroke:#000000;stroke-width:0.8;" x="59.690625" xlink:href="#m74ba2057a3" y="207.411359"/>
      </g>
     </g>
     <g id="text_8">
      <!-- 13720 -->
      <g transform="translate(20.878125 211.210578)scale(0.1 -0.1)">
       <defs>
        <path d="M 19.1875 8.296875 
L 53.609375 8.296875 
L 53.609375 0 
L 7.328125 0 
L 7.328125 8.296875 
Q 12.9375 14.109375 22.625 23.890625 
Q 32.328125 33.6875 34.8125 36.53125 
Q 39.546875 41.84375 41.421875 45.53125 
Q 43.3125 49.21875 43.3125 52.78125 
Q 43.3125 58.59375 39.234375 62.25 
Q 35.15625 65.921875 28.609375 65.921875 
Q 23.96875 65.921875 18.8125 64.3125 
Q 13.671875 62.703125 7.8125 59.421875 
L 7.8125 69.390625 
Q 13.765625 71.78125 18.9375 73 
Q 24.125 74.21875 28.421875 74.21875 
Q 39.75 74.21875 46.484375 68.546875 
Q 53.21875 62.890625 53.21875 53.421875 
Q 53.21875 48.921875 51.53125 44.890625 
Q 49.859375 40.875 45.40625 35.40625 
Q 44.1875 33.984375 37.640625 27.21875 
Q 31.109375 20.453125 19.1875 8.296875 
z
" id="DejaVuSans-50"/>
       </defs>
       <use xlink:href="#DejaVuSans-49"/>
       <use x="63.623047" xlink:href="#DejaVuSans-51"/>
       <use x="127.246094" xlink:href="#DejaVuSans-55"/>
       <use x="190.869141" xlink:href="#DejaVuSans-50"/>
       <use x="254.492188" xlink:href="#DejaVuSans-48"/>
      </g>
     </g>
    </g>
    <g id="ytick_4">
     <g id="line2d_8">
      <g>
       <use style="stroke:#000000;stroke-width:0.8;" x="59.690625" xlink:href="#m74ba2057a3" y="170.16172"/>
      </g>
     </g>
     <g id="text_9">
      <!-- 13740 -->
      <g transform="translate(20.878125 173.960939)scale(0.1 -0.1)">
       <defs>
        <path d="M 37.796875 64.3125 
L 12.890625 25.390625 
L 37.796875 25.390625 
z
M 35.203125 72.90625 
L 47.609375 72.90625 
L 47.609375 25.390625 
L 58.015625 25.390625 
L 58.015625 17.1875 
L 47.609375 17.1875 
L 47.609375 0 
L 37.796875 0 
L 37.796875 17.1875 
L 4.890625 17.1875 
L 4.890625 26.703125 
z
" id="DejaVuSans-52"/>
       </defs>
       <use xlink:href="#DejaVuSans-49"/>
       <use x="63.623047" xlink:href="#DejaVuSans-51"/>
       <use x="127.246094" xlink:href="#DejaVuSans-55"/>
       <use x="190.869141" xlink:href="#DejaVuSans-52"/>
       <use x="254.492188" xlink:href="#DejaVuSans-48"/>
      </g>
     </g>
    </g>
    <g id="ytick_5">
     <g id="line2d_9">
      <g>
       <use style="stroke:#000000;stroke-width:0.8;" x="59.690625" xlink:href="#m74ba2057a3" y="132.91208"/>
      </g>
     </g>
     <g id="text_10">
      <!-- 13760 -->
      <g transform="translate(20.878125 136.711299)scale(0.1 -0.1)">
       <use xlink:href="#DejaVuSans-49"/>
       <use x="63.623047" xlink:href="#DejaVuSans-51"/>
       <use x="127.246094" xlink:href="#DejaVuSans-55"/>
       <use x="190.869141" xlink:href="#DejaVuSans-54"/>
       <use x="254.492188" xlink:href="#DejaVuSans-48"/>
      </g>
     </g>
    </g>
    <g id="ytick_6">
     <g id="line2d_10">
      <g>
       <use style="stroke:#000000;stroke-width:0.8;" x="59.690625" xlink:href="#m74ba2057a3" y="95.662441"/>
      </g>
     </g>
     <g id="text_11">
      <!-- 13780 -->
      <g transform="translate(20.878125 99.46166)scale(0.1 -0.1)">
       <use xlink:href="#DejaVuSans-49"/>
       <use x="63.623047" xlink:href="#DejaVuSans-51"/>
       <use x="127.246094" xlink:href="#DejaVuSans-55"/>
       <use x="190.869141" xlink:href="#DejaVuSans-56"/>
       <use x="254.492188" xlink:href="#DejaVuSans-48"/>
      </g>
     </g>
    </g>
    <g id="ytick_7">
     <g id="line2d_11">
      <g>
       <use style="stroke:#000000;stroke-width:0.8;" x="59.690625" xlink:href="#m74ba2057a3" y="58.412802"/>
      </g>
     </g>
     <g id="text_12">
      <!-- 13800 -->
      <g transform="translate(20.878125 62.212021)scale(0.1 -0.1)">
       <use xlink:href="#DejaVuSans-49"/>
       <use x="63.623047" xlink:href="#DejaVuSans-51"/>
       <use x="127.246094" xlink:href="#DejaVuSans-56"/>
       <use x="190.869141" xlink:href="#DejaVuSans-48"/>
       <use x="254.492188" xlink:href="#DejaVuSans-48"/>
      </g>
     </g>
    </g>
    <g id="text_13">
     <!-- Reached region coverage -->
     <g transform="translate(14.798438 219.136625)rotate(-90)scale(0.1 -0.1)">
      <defs>
       <path d="M 44.390625 34.1875 
Q 47.5625 33.109375 50.5625 29.59375 
Q 53.5625 26.078125 56.59375 19.921875 
L 66.609375 0 
L 56 0 
L 46.6875 18.703125 
Q 43.0625 26.03125 39.671875 28.421875 
Q 36.28125 30.8125 30.421875 30.8125 
L 19.671875 30.8125 
L 19.671875 0 
L 9.8125 0 
L 9.8125 72.90625 
L 32.078125 72.90625 
Q 44.578125 72.90625 50.734375 67.671875 
Q 56.890625 62.453125 56.890625 51.90625 
Q 56.890625 45.015625 53.6875 40.46875 
Q 50.484375 35.9375 44.390625 34.1875 
z
M 19.671875 64.796875 
L 19.671875 38.921875 
L 32.078125 38.921875 
Q 39.203125 38.921875 42.84375 42.21875 
Q 46.484375 45.515625 46.484375 51.90625 
Q 46.484375 58.296875 42.84375 61.546875 
Q 39.203125 64.796875 32.078125 64.796875 
z
" id="DejaVuSans-82"/>
      </defs>
      <use xlink:href="#DejaVuSans-82"/>
      <use x="64.982422" xlink:href="#DejaVuSans-101"/>
      <use x="126.505859" xlink:href="#DejaVuSans-97"/>
      <use x="187.785156" xlink:href="#DejaVuSans-99"/>
      <use x="242.765625" xlink:href="#DejaVuSans-104"/>
      <use x="306.144531" xlink:href="#DejaVuSans-101"/>
      <use x="367.667969" xlink:href="#DejaVuSans-100"/>
      <use x="431.144531" xlink:href="#DejaVuSans-32"/>
      <use x="462.931641" xlink:href="#DejaVuSans-114"/>
      <use x="501.794922" xlink:href="#DejaVuSans-101"/>
      <use x="563.318359" xlink:href="#DejaVuSans-103"/>
      <use x="626.794922" xlink:href="#DejaVuSans-105"/>
      <use x="654.578125" xlink:href="#DejaVuSans-111"/>
      <use x="715.759766" xlink:href="#DejaVuSans-110"/>
      <use x="779.138672" xlink:href="#DejaVuSans-32"/>
      <use x="810.925781" xlink:href="#DejaVuSans-99"/>
      <use x="865.90625" xlink:href="#DejaVuSans-111"/>
      <use x="927.087891" xlink:href="#DejaVuSans-118"/>
      <use x="986.267578" xlink:href="#DejaVuSans-101"/>
      <use x="1047.791016" xlink:href="#DejaVuSans-114"/>
      <use x="1088.904297" xlink:href="#DejaVuSans-97"/>
      <use x="1150.183594" xlink:href="#DejaVuSans-103"/>
      <use x="1213.660156" xlink:href="#DejaVuSans-101"/>
     </g>
    </g>
   </g>
   <g id="line2d_12">
    <path clip-path="url(#p5f82acfc6b)" d="M 104.330625 166.436756 
L 104.330625 84.487549 
" style="fill:none;stroke:#3f3f3f;stroke-linecap:square;stroke-width:1.5;"/>
   </g>
   <g id="line2d_13">
    <path clip-path="url(#p5f82acfc6b)" d="M 104.330625 121.737189 
L 104.330625 88.212513 
" style="fill:none;stroke:#3f3f3f;stroke-linecap:square;stroke-width:4.5;"/>
   </g>
   <g id="line2d_14">
    <path clip-path="url(#p5f82acfc6b)" d="M 193.610625 132.91208 
L 193.610625 121.737189 
" style="fill:none;stroke:#3f3f3f;stroke-linecap:square;stroke-width:1.5;"/>
   </g>
   <g id="line2d_15">
    <path clip-path="url(#p5f82acfc6b)" d="M 193.610625 132.91208 
L 193.610625 121.737189 
" style="fill:none;stroke:#3f3f3f;stroke-linecap:square;stroke-width:4.5;"/>
   </g>
   <g id="line2d_16">
    <path clip-path="url(#p5f82acfc6b)" d="M 282.890625 183.199094 
L 282.890625 95.662441 
" style="fill:none;stroke:#3f3f3f;stroke-linecap:square;stroke-width:1.5;"/>
   </g>
   <g id="line2d_17">
    <path clip-path="url(#p5f82acfc6b)" d="M 282.890625 170.16172 
L 282.890625 134.774562 
" style="fill:none;stroke:#3f3f3f;stroke-linecap:square;stroke-width:4.5;"/>
   </g>
   <g id="line2d_18">
    <path clip-path="url(#p5f82acfc6b)" d="M 372.170625 270.735746 
L 372.170625 261.423336 
" style="fill:none;stroke:#3f3f3f;stroke-linecap:square;stroke-width:1.5;"/>
   </g>
   <g id="line2d_19">
    <path clip-path="url(#p5f82acfc6b)" d="M 372.170625 270.735746 
L 372.170625 267.010782 
" style="fill:none;stroke:#3f3f3f;stroke-linecap:square;stroke-width:4.5;"/>
   </g>
   <g id="patch_3">
    <path d="M 59.690625 281.910638 
L 59.690625 58.412802 
" style="fill:none;stroke:#000000;stroke-linecap:square;stroke-linejoin:miter;stroke-width:0.8;"/>
   </g>
   <g id="patch_4">
    <path d="M 104.330625 288.430125 
L 372.170625 288.430125 
" style="fill:none;stroke:#000000;stroke-linecap:square;stroke-linejoin:miter;stroke-width:0.8;"/>
   </g>
   <g id="PathCollection_1">
    <defs>
     <path d="M 0 1.5 
C 0.397805 1.5 0.77937 1.341951 1.06066 1.06066 
C 1.341951 0.77937 1.5 0.397805 1.5 0 
C 1.5 -0.397805 1.341951 -0.77937 1.06066 -1.06066 
C 0.77937 -1.341951 0.397805 -1.5 0 -1.5 
C -0.397805 -1.5 -0.77937 -1.341951 -1.06066 -1.06066 
C -1.341951 -0.77937 -1.5 -0.397805 -1.5 0 
C -1.5 0.397805 -1.341951 0.77937 -1.06066 1.06066 
C -0.77937 1.341951 -0.397805 1.5 0 1.5 
z
" id="m6d9071aca0" style="stroke:#3f3f3f;"/>
    </defs>
    <g clip-path="url(#p5f82acfc6b)">
     <use style="fill:#ffffff;stroke:#3f3f3f;" x="104.330625" xlink:href="#m6d9071aca0" y="91.937477"/>
    </g>
   </g>
   <g id="PathCollection_2">
    <g clip-path="url(#p5f82acfc6b)">
     <use style="fill:#ffffff;stroke:#3f3f3f;" x="193.610625" xlink:href="#m6d9071aca0" y="132.91208"/>
    </g>
   </g>
   <g id="PathCollection_3">
    <g clip-path="url(#p5f82acfc6b)">
     <use style="fill:#ffffff;stroke:#3f3f3f;" x="282.890625" xlink:href="#m6d9071aca0" y="164.574274"/>
    </g>
   </g>
   <g id="PathCollection_4">
    <g clip-path="url(#p5f82acfc6b)">
     <use style="fill:#ffffff;stroke:#3f3f3f;" x="372.170625" xlink:href="#m6d9071aca0" y="268.873264"/>
    </g>
   </g>
   <g id="text_14">
    <!-- openssl_x509 (12h, 5 trials/fuzzer) -->
    <g transform="translate(134.442188 16.318125)scale(0.12 -0.12)">
     <defs>
      <path d="M 50.984375 -16.609375 
L 50.984375 -23.578125 
L -0.984375 -23.578125 
L -0.984375 -16.609375 
z
" id="DejaVuSans-95"/>
      <path d="M 54.890625 54.6875 
L 35.109375 28.078125 
L 55.90625 0 
L 45.3125 0 
L 29.390625 21.484375 
L 13.484375 0 
L 2.875 0 
L 24.125 28.609375 
L 4.6875 54.6875 
L 15.28125 54.6875 
L 29.78125 35.203125 
L 44.28125 54.6875 
z
" id="DejaVuSans-120"/>
      <path d="M 10.796875 72.90625 
L 49.515625 72.90625 
L 49.515625 64.59375 
L 19.828125 64.59375 
L 19.828125 46.734375 
Q 21.96875 47.46875 24.109375 47.828125 
Q 26.265625 48.1875 28.421875 48.1875 
Q 40.625 48.1875 47.75 41.5 
Q 54.890625 34.8125 54.890625 23.390625 
Q 54.890625 11.625 47.5625 5.09375 
Q 40.234375 -1.421875 26.90625 -1.421875 
Q 22.3125 -1.421875 17.546875 -0.640625 
Q 12.796875 0.140625 7.71875 1.703125 
L 7.71875 11.625 
Q 12.109375 9.234375 16.796875 8.0625 
Q 21.484375 6.890625 26.703125 6.890625 
Q 35.15625 6.890625 40.078125 11.328125 
Q 45.015625 15.765625 45.015625 23.390625 
Q 45.015625 31 40.078125 35.4375 
Q 35.15625 39.890625 26.703125 39.890625 
Q 22.75 39.890625 18.8125 39.015625 
Q 14.890625 38.140625 10.796875 36.28125 
z
" id="DejaVuSans-53"/>
      <path d="M 10.984375 1.515625 
L 10.984375 10.5 
Q 14.703125 8.734375 18.5 7.8125 
Q 22.3125 6.890625 25.984375 6.890625 
Q 35.75 6.890625 40.890625 13.453125 
Q 46.046875 20.015625 46.78125 33.40625 
Q 43.953125 29.203125 39.59375 26.953125 
Q 35.25 24.703125 29.984375 24.703125 
Q 19.046875 24.703125 12.671875 31.3125 
Q 6.296875 37.9375 6.296875 49.421875 
Q 6.296875 60.640625 12.9375 67.421875 
Q 19.578125 74.21875 30.609375 74.21875 
Q 43.265625 74.21875 49.921875 64.515625 
Q 56.59375 54.828125 56.59375 36.375 
Q 56.59375 19.140625 48.40625 8.859375 
Q 40.234375 -1.421875 26.421875 -1.421875 
Q 22.703125 -1.421875 18.890625 -0.6875 
Q 15.09375 0.046875 10.984375 1.515625 
z
M 30.609375 32.421875 
Q 37.25 32.421875 41.125 36.953125 
Q 45.015625 41.5 45.015625 49.421875 
Q 45.015625 57.28125 41.125 61.84375 
Q 37.25 66.40625 30.609375 66.40625 
Q 23.96875 66.40625 20.09375 61.84375 
Q 16.21875 57.28125 16.21875 49.421875 
Q 16.21875 41.5 20.09375 36.953125 
Q 23.96875 32.421875 30.609375 32.421875 
z
" id="DejaVuSans-57"/>
      <path d="M 11.71875 12.40625 
L 22.015625 12.40625 
L 22.015625 4 
L 14.015625 -11.625 
L 7.71875 -11.625 
L 11.71875 4 
z
" id="DejaVuSans-44"/>
      <path d="M 25.390625 72.90625 
L 33.6875 72.90625 
L 8.296875 -9.28125 
L 0 -9.28125 
z
" id="DejaVuSans-47"/>
     </defs>
     <use xlink:href="#DejaVuSans-111"/>
     <use x="61.181641" xlink:href="#DejaVuSans-112"/>
     <use x="124.658203" xlink:href="#DejaVuSans-101"/>
     <use x="186.181641" xlink:href="#DejaVuSans-110"/>
     <use x="249.560547" xlink:href="#DejaVuSans-115"/>
     <use x="301.660156" xlink:href="#DejaVuSans-115"/>
     <use x="353.759766" xlink:href="#DejaVuSans-108"/>
     <use x="381.542969" xlink:href="#DejaVuSans-95"/>
     <use x="431.542969" xlink:href="#DejaVuSans-120"/>
     <use x="490.722656" xlink:href="#DejaVuSans-53"/>
     <use x="554.345703" xlink:href="#DejaVuSans-48"/>
     <use x="617.96875" xlink:href="#DejaVuSans-57"/>
     <use x="681.591797" xlink:href="#DejaVuSans-32"/>
     <use x="713.378906" xlink:href="#DejaVuSans-40"/>
     <use x="752.392578" xlink:href="#DejaVuSans-49"/>
     <use x="816.015625" xlink:href="#DejaVuSans-50"/>
     <use x="879.638672" xlink:href="#DejaVuSans-104"/>
     <use x="943.017578" xlink:href="#DejaVuSans-44"/>
     <use x="974.804688" xlink:href="#DejaVuSans-32"/>
     <use x="1006.591797" xlink:href="#DejaVuSans-53"/>
     <use x="1070.214844" xlink:href="#DejaVuSans-32"/>
     <use x="1102.001953" xlink:href="#DejaVuSans-116"/>
     <use x="1141.210938" xlink:href="#DejaVuSans-114"/>
     <use x="1182.324219" xlink:href="#DejaVuSans-105"/>
     <use x="1210.107422" xlink:href="#DejaVuSans-97"/>
     <use x="1271.386719" xlink:href="#DejaVuSans-108"/>
     <use x="1299.169922" xlink:href="#DejaVuSans-115"/>
     <use x="1351.269531" xlink:href="#DejaVuSans-47"/>
     <use x="1384.960938" xlink:href="#DejaVuSans-102"/>
     <use x="1420.166016" xlink:href="#DejaVuSans-117"/>
     <use x="1483.544922" xlink:href="#DejaVuSans-122"/>
     <use x="1536.035156" xlink:href="#DejaVuSans-122"/>
     <use x="1588.525391" xlink:href="#DejaVuSans-101"/>
     <use x="1650.048828" xlink:href="#DejaVuSans-114"/>
     <use x="1691.162109" xlink:href="#DejaVuSans-41"/>
    </g>
   </g>
  </g>
 </g>
 <defs>
  <clipPath id="p5f82acfc6b">
   <rect height="266.112" width="357.12" x="59.690625" y="22.318125"/>
  </clipPath>
 </defs>
</svg>
