<?xml version="1.0" encoding="utf-8" standalone="no"?>
<!DOCTYPE svg PUBLIC "-//W3C//DTD SVG 1.1//EN"
  "http://www.w3.org/Graphics/SVG/1.1/DTD/svg11.dtd">
<!-- Created with matplotlib (https://matplotlib.org/) -->
<svg height="361.217877pt" version="1.1" viewBox="0 0 424.010625 361.217877" width="424.010625pt" xmlns="http://www.w3.org/2000/svg" xmlns:xlink="http://www.w3.org/1999/xlink">
 <metadata>
  <rdf:RDF xmlns:cc="http://creativecommons.org/ns#" xmlns:dc="http://purl.org/dc/elements/1.1/" xmlns:rdf="http://www.w3.org/1999/02/22-rdf-syntax-ns#">
   <cc:Work>
    <dc:type rdf:resource="http://purl.org/dc/dcmitype/StillImage"/>
    <dc:date>2020-10-26T17:43:00.279232</dc:date>
    <dc:format>image/svg+xml</dc:format>
    <dc:creator>
     <cc:Agent>
      <dc:title>Matplotlib v3.3.2, https://matplotlib.org/</dc:title>
     </cc:Agent>
    </dc:creator>
   </cc:Work>
  </rdf:RDF>
 </metadata>
 <defs>
  <style type="text/css">*{stroke-linecap:butt;stroke-linejoin:round;}</style>
 </defs>
 <g id="figure_1">
  <g id="patch_1">
   <path d="M 0 361.217877 
L 424.010625 361.217877 
L 424.010625 0 
L 0 0 
z
" style="fill:#ffffff;"/>
  </g>
  <g id="axes_1">
   <g id="patch_2">
    <path d="M 59.690625 288.430125 
L 416.810625 288.430125 
L 416.810625 22.318125 
L 59.690625 22.318125 
z
" style="fill:#ffffff;"/>
   </g>
   <g id="PolyCollection_1">
    <defs>
     <path d="M 104.931152 -179.175724 
L 103.730098 -179.175724 
L 103.627266 -180.666916 
L 103.511148 -182.158108 
L 103.380851 -183.6493 
L 103.235566 -185.140492 
L 103.0746 -186.631685 
L 102.897399 -188.122877 
L 102.703583 -189.614069 
L 102.492971 -191.105261 
L 102.265603 -192.596453 
L 102.021767 -194.087646 
L 101.762012 -195.578838 
L 101.487156 -197.07003 
L 101.198296 -198.561222 
L 100.896801 -200.052414 
L 100.584299 -201.543607 
L 100.262659 -203.034799 
L 99.933962 -204.525991 
L 99.600464 -206.017183 
L 99.264555 -207.508376 
L 98.928709 -208.999568 
L 98.59543 -210.49076 
L 98.267197 -211.981952 
L 97.94641 -213.473144 
L 97.635332 -214.964337 
L 97.33604 -216.455529 
L 97.050377 -217.946721 
L 96.77992 -219.437913 
L 96.525944 -220.929105 
L 96.289408 -222.420298 
L 96.070947 -223.91149 
L 95.870873 -225.402682 
L 95.689195 -226.893874 
L 95.52564 -228.385066 
L 95.379689 -229.876259 
L 95.25062 -231.367451 
L 95.137551 -232.858643 
L 95.039499 -234.349835 
L 94.955423 -235.841027 
L 94.884279 -237.33222 
L 94.825067 -238.823412 
L 94.776867 -240.314604 
L 94.738882 -241.805796 
L 94.710454 -243.296988 
L 94.691088 -244.788181 
L 94.680453 -246.279373 
L 94.678386 -247.770565 
L 94.68488 -249.261757 
L 94.700064 -250.75295 
L 94.724186 -252.244142 
L 94.75758 -253.735334 
L 94.800642 -255.226526 
L 94.8538 -256.717718 
L 94.917484 -258.208911 
L 94.992098 -259.700103 
L 95.078003 -261.191295 
L 95.175496 -262.682487 
L 95.284796 -264.173679 
L 95.406037 -265.664872 
L 95.539262 -267.156064 
L 95.684427 -268.647256 
L 95.841398 -270.138448 
L 96.009959 -271.62964 
L 96.189821 -273.120833 
L 96.380624 -274.612025 
L 96.581945 -276.103217 
L 96.793303 -277.594409 
L 97.014162 -279.085601 
L 97.243932 -280.576794 
L 97.481972 -282.067986 
L 97.727583 -283.559178 
L 97.98001 -285.05037 
L 98.238437 -286.541563 
L 98.501984 -288.032755 
L 98.769708 -289.523947 
L 99.040604 -291.015139 
L 99.313603 -292.506331 
L 99.587584 -293.997524 
L 99.861376 -295.488716 
L 100.133778 -296.979908 
L 100.403565 -298.4711 
L 100.669512 -299.962292 
L 100.930407 -301.453485 
L 101.185077 -302.944677 
L 101.432403 -304.435869 
L 101.671343 -305.927061 
L 101.90095 -307.418253 
L 102.120388 -308.909446 
L 102.328945 -310.400638 
L 102.526046 -311.89183 
L 102.711258 -313.383022 
L 102.884294 -314.874214 
L 103.045012 -316.365407 
L 103.19341 -317.856599 
L 103.32962 -319.347791 
L 103.453898 -320.838983 
L 103.566609 -322.330175 
L 103.668214 -323.821368 
L 103.759252 -325.31256 
L 103.840329 -326.803752 
L 104.820921 -326.803752 
L 104.820921 -326.803752 
L 104.901998 -325.31256 
L 104.993036 -323.821368 
L 105.094641 -322.330175 
L 105.207352 -320.838983 
L 105.33163 -319.347791 
L 105.46784 -317.856599 
L 105.616238 -316.365407 
L 105.776956 -314.874214 
L 105.949992 -313.383022 
L 106.135204 -311.89183 
L 106.332305 -310.400638 
L 106.540862 -308.909446 
L 106.7603 -307.418253 
L 106.989907 -305.927061 
L 107.228847 -304.435869 
L 107.476173 -302.944677 
L 107.730843 -301.453485 
L 107.991738 -299.962292 
L 108.257685 -298.4711 
L 108.527472 -296.979908 
L 108.799874 -295.488716 
L 109.073666 -293.997524 
L 109.347647 -292.506331 
L 109.620646 -291.015139 
L 109.891542 -289.523947 
L 110.159266 -288.032755 
L 110.422813 -286.541563 
L 110.68124 -285.05037 
L 110.933667 -283.559178 
L 111.179278 -282.067986 
L 111.417318 -280.576794 
L 111.647088 -279.085601 
L 111.867947 -277.594409 
L 112.079305 -276.103217 
L 112.280626 -274.612025 
L 112.471429 -273.120833 
L 112.651291 -271.62964 
L 112.819852 -270.138448 
L 112.976823 -268.647256 
L 113.121988 -267.156064 
L 113.255213 -265.664872 
L 113.376454 -264.173679 
L 113.485754 -262.682487 
L 113.583247 -261.191295 
L 113.669152 -259.700103 
L 113.743766 -258.208911 
L 113.80745 -256.717718 
L 113.860608 -255.226526 
L 113.90367 -253.735334 
L 113.937064 -252.244142 
L 113.961186 -250.75295 
L 113.97637 -249.261757 
L 113.982864 -247.770565 
L 113.980797 -246.279373 
L 113.970162 -244.788181 
L 113.950796 -243.296988 
L 113.922368 -241.805796 
L 113.884383 -240.314604 
L 113.836183 -238.823412 
L 113.776971 -237.33222 
L 113.705827 -235.841027 
L 113.621751 -234.349835 
L 113.523699 -232.858643 
L 113.41063 -231.367451 
L 113.281561 -229.876259 
L 113.13561 -228.385066 
L 112.972055 -226.893874 
L 112.790377 -225.402682 
L 112.590303 -223.91149 
L 112.371842 -222.420298 
L 112.135306 -220.929105 
L 111.88133 -219.437913 
L 111.610873 -217.946721 
L 111.32521 -216.455529 
L 111.025918 -214.964337 
L 110.71484 -213.473144 
L 110.394053 -211.981952 
L 110.06582 -210.49076 
L 109.732541 -208.999568 
L 109.396695 -207.508376 
L 109.060786 -206.017183 
L 108.727288 -204.525991 
L 108.398591 -203.034799 
L 108.076951 -201.543607 
L 107.764449 -200.052414 
L 107.462954 -198.561222 
L 107.174094 -197.07003 
L 106.899238 -195.578838 
L 106.639483 -194.087646 
L 106.395647 -192.596453 
L 106.168279 -191.105261 
L 105.957667 -189.614069 
L 105.763851 -188.122877 
L 105.58665 -186.631685 
L 105.425684 -185.140492 
L 105.280399 -183.6493 
L 105.150102 -182.158108 
L 105.033984 -180.666916 
L 104.931152 -179.175724 
z
" id="m8948191b3c" style="stroke:#3f3f3f;stroke-width:1.5;"/>
    </defs>
    <g clip-path="url(#p24583f7bea)">
     <use style="fill:#c7c7c7;stroke:#3f3f3f;stroke-width:1.5;" x="0" xlink:href="#m8948191b3c" y="361.217877"/>
    </g>
   </g>
   <g id="PolyCollection_2">
    <defs>
     <path d="M 194.177143 -169.654686 
L 193.044107 -169.654686 
L 192.946707 -170.988623 
L 192.836875 -172.322559 
L 192.713824 -173.656496 
L 192.576845 -174.990432 
L 192.425331 -176.324369 
L 192.258796 -177.658305 
L 192.076891 -178.992242 
L 191.879421 -180.326178 
L 191.666351 -181.660115 
L 191.437817 -182.994051 
L 191.194124 -184.327988 
L 190.935741 -185.661924 
L 190.663295 -186.995861 
L 190.377554 -188.329797 
L 190.07941 -189.663733 
L 189.769857 -190.99767 
L 189.449967 -192.331606 
L 189.120867 -193.665543 
L 188.783713 -194.999479 
L 188.439671 -196.333416 
L 188.089901 -197.667352 
L 187.735541 -199.001289 
L 187.377702 -200.335225 
L 187.01747 -201.669162 
L 186.655913 -203.003098 
L 186.294092 -204.337035 
L 185.933082 -205.670971 
L 185.573995 -207.004908 
L 185.218009 -208.338844 
L 184.866388 -209.672781 
L 184.520512 -211.006717 
L 184.181898 -212.340654 
L 183.852212 -213.67459 
L 183.533275 -215.008527 
L 183.227063 -216.342463 
L 182.935689 -217.6764 
L 182.661378 -219.010336 
L 182.40643 -220.344273 
L 182.173171 -221.678209 
L 181.9639 -223.012146 
L 181.78082 -224.346082 
L 181.625973 -225.680019 
L 181.501174 -227.013955 
L 181.40794 -228.347891 
L 181.347433 -229.681828 
L 181.320404 -231.015764 
L 181.327156 -232.349701 
L 181.367517 -233.683637 
L 181.440827 -235.017574 
L 181.545946 -236.35151 
L 181.681276 -237.685447 
L 181.844804 -239.019383 
L 182.034151 -240.35332 
L 182.246645 -241.687256 
L 182.479399 -243.021193 
L 182.729392 -244.355129 
L 182.993566 -245.689066 
L 183.268904 -247.023002 
L 183.552526 -248.356939 
L 183.841757 -249.690875 
L 184.134195 -251.024812 
L 184.427765 -252.358748 
L 184.720757 -253.692685 
L 185.011839 -255.026621 
L 185.300067 -256.360558 
L 185.584869 -257.694494 
L 185.866014 -259.028431 
L 186.143568 -260.362367 
L 186.417845 -261.696304 
L 186.689341 -263.03024 
L 186.95867 -264.364177 
L 187.226492 -265.698113 
L 187.493457 -267.032049 
L 187.760135 -268.365986 
L 188.026969 -269.699922 
L 188.294234 -271.033859 
L 188.562004 -272.367795 
L 188.830136 -273.701732 
L 189.098264 -275.035668 
L 189.365808 -276.369605 
L 189.631989 -277.703541 
L 189.89586 -279.037478 
L 190.15634 -280.371414 
L 190.412254 -281.705351 
L 190.662377 -283.039287 
L 190.90548 -284.373224 
L 191.140371 -285.70716 
L 191.365935 -287.041097 
L 191.581168 -288.375033 
L 191.785208 -289.70897 
L 191.977355 -291.042906 
L 192.157083 -292.376843 
L 192.324052 -293.710779 
L 192.478103 -295.044716 
L 192.619258 -296.378652 
L 192.7477 -297.712589 
L 192.863766 -299.046525 
L 192.967921 -300.380462 
L 193.060739 -301.714398 
L 194.160511 -301.714398 
L 194.160511 -301.714398 
L 194.253329 -300.380462 
L 194.357484 -299.046525 
L 194.47355 -297.712589 
L 194.601992 -296.378652 
L 194.743147 -295.044716 
L 194.897198 -293.710779 
L 195.064167 -292.376843 
L 195.243895 -291.042906 
L 195.436042 -289.70897 
L 195.640082 -288.375033 
L 195.855315 -287.041097 
L 196.080879 -285.70716 
L 196.31577 -284.373224 
L 196.558873 -283.039287 
L 196.808996 -281.705351 
L 197.06491 -280.371414 
L 197.32539 -279.037478 
L 197.589261 -277.703541 
L 197.855442 -276.369605 
L 198.122986 -275.035668 
L 198.391114 -273.701732 
L 198.659246 -272.367795 
L 198.927016 -271.033859 
L 199.194281 -269.699922 
L 199.461115 -268.365986 
L 199.727793 -267.032049 
L 199.994758 -265.698113 
L 200.26258 -264.364177 
L 200.531909 -263.03024 
L 200.803405 -261.696304 
L 201.077682 -260.362367 
L 201.355236 -259.028431 
L 201.636381 -257.694494 
L 201.921183 -256.360558 
L 202.209411 -255.026621 
L 202.500493 -253.692685 
L 202.793485 -252.358748 
L 203.087055 -251.024812 
L 203.379493 -249.690875 
L 203.668724 -248.356939 
L 203.952346 -247.023002 
L 204.227684 -245.689066 
L 204.491858 -244.355129 
L 204.741851 -243.021193 
L 204.974605 -241.687256 
L 205.187099 -240.35332 
L 205.376446 -239.019383 
L 205.539974 -237.685447 
L 205.675304 -236.35151 
L 205.780423 -235.017574 
L 205.853733 -233.683637 
L 205.894094 -232.349701 
L 205.900846 -231.015764 
L 205.873817 -229.681828 
L 205.81331 -228.347891 
L 205.720076 -227.013955 
L 205.595277 -225.680019 
L 205.44043 -224.346082 
L 205.25735 -223.012146 
L 205.048079 -221.678209 
L 204.81482 -220.344273 
L 204.559872 -219.010336 
L 204.285561 -217.6764 
L 203.994187 -216.342463 
L 203.687975 -215.008527 
L 203.369038 -213.67459 
L 203.039352 -212.340654 
L 202.700738 -211.006717 
L 202.354862 -209.672781 
L 202.003241 -208.338844 
L 201.647255 -207.004908 
L 201.288168 -205.670971 
L 200.927158 -204.337035 
L 200.565337 -203.003098 
L 200.20378 -201.669162 
L 199.843548 -200.335225 
L 199.485709 -199.001289 
L 199.131349 -197.667352 
L 198.781579 -196.333416 
L 198.437537 -194.999479 
L 198.100383 -193.665543 
L 197.771283 -192.331606 
L 197.451393 -190.99767 
L 197.14184 -189.663733 
L 196.843696 -188.329797 
L 196.557955 -186.995861 
L 196.285509 -185.661924 
L 196.027126 -184.327988 
L 195.783433 -182.994051 
L 195.554899 -181.660115 
L 195.341829 -180.326178 
L 195.144359 -178.992242 
L 194.962454 -177.658305 
L 194.795919 -176.324369 
L 194.644405 -174.990432 
L 194.507426 -173.656496 
L 194.384375 -172.322559 
L 194.274543 -170.988623 
L 194.177143 -169.654686 
z
" id="m98560b28ba" style="stroke:#3f3f3f;stroke-width:1.5;"/>
    </defs>
    <g clip-path="url(#p24583f7bea)">
     <use style="fill:#c03d3e;stroke:#3f3f3f;stroke-width:1.5;" x="0" xlink:href="#m98560b28ba" y="361.217877"/>
    </g>
   </g>
   <g id="PolyCollection_3">
    <defs>
     <path d="M 283.467875 -84.883752 
L 282.313375 -84.883752 
L 282.211729 -87.112794 
L 282.096347 -89.341837 
L 281.966189 -91.570879 
L 281.820282 -93.799921 
L 281.657755 -96.028964 
L 281.477871 -98.258006 
L 281.280063 -100.487049 
L 281.063969 -102.716091 
L 280.829465 -104.945133 
L 280.5767 -107.174176 
L 280.306121 -109.403218 
L 280.018503 -111.63226 
L 279.714967 -113.861303 
L 279.396988 -116.090345 
L 279.066406 -118.319387 
L 278.725418 -120.54843 
L 278.376565 -122.777472 
L 278.022706 -125.006514 
L 277.666992 -127.235557 
L 277.312814 -129.464599 
L 276.963757 -131.693641 
L 276.623542 -133.922684 
L 276.295952 -136.151726 
L 275.984768 -138.380768 
L 275.69369 -140.609811 
L 275.426265 -142.838853 
L 275.185807 -145.067895 
L 274.975325 -147.296938 
L 274.797461 -149.52598 
L 274.654422 -151.755023 
L 274.547934 -153.984065 
L 274.479196 -156.213107 
L 274.448854 -158.44215 
L 274.456978 -160.671192 
L 274.503063 -162.900234 
L 274.586035 -165.129277 
L 274.704267 -167.358319 
L 274.855622 -169.587361 
L 275.03749 -171.816404 
L 275.246845 -174.045446 
L 275.480311 -176.274488 
L 275.734228 -178.503531 
L 276.004732 -180.732573 
L 276.28783 -182.961615 
L 276.579485 -185.190658 
L 276.87569 -187.4197 
L 277.17255 -189.648742 
L 277.466352 -191.877785 
L 277.753634 -194.106827 
L 278.031246 -196.335869 
L 278.296397 -198.564912 
L 278.546702 -200.793954 
L 278.780213 -203.022997 
L 278.99544 -205.252039 
L 279.191362 -207.481081 
L 279.367425 -209.710124 
L 279.523534 -211.939166 
L 279.660032 -214.168208 
L 279.777668 -216.397251 
L 279.877559 -218.626293 
L 279.961146 -220.855335 
L 280.030141 -223.084378 
L 280.08647 -225.31342 
L 280.132216 -227.542462 
L 280.169554 -229.771505 
L 280.200697 -232.000547 
L 280.227834 -234.229589 
L 280.253073 -236.458632 
L 280.278393 -238.687674 
L 280.305601 -240.916716 
L 280.336289 -243.145759 
L 280.371811 -245.374801 
L 280.413257 -247.603843 
L 280.46144 -249.832886 
L 280.516896 -252.061928 
L 280.579883 -254.29097 
L 280.650394 -256.520013 
L 280.728181 -258.749055 
L 280.812769 -260.978098 
L 280.903497 -263.20714 
L 280.999542 -265.436182 
L 281.099959 -267.665225 
L 281.203714 -269.894267 
L 281.309724 -272.123309 
L 281.416886 -274.352352 
L 281.524115 -276.581394 
L 281.630367 -278.810436 
L 281.734666 -281.039479 
L 281.836126 -283.268521 
L 281.933964 -285.497563 
L 282.027513 -287.726606 
L 282.116224 -289.955648 
L 282.199676 -292.18469 
L 282.277567 -294.413733 
L 282.349712 -296.642775 
L 282.416033 -298.871817 
L 282.476553 -301.10086 
L 282.531379 -303.329902 
L 282.580694 -305.558944 
L 283.200556 -305.558944 
L 283.200556 -305.558944 
L 283.249871 -303.329902 
L 283.304697 -301.10086 
L 283.365217 -298.871817 
L 283.431538 -296.642775 
L 283.503683 -294.413733 
L 283.581574 -292.18469 
L 283.665026 -289.955648 
L 283.753737 -287.726606 
L 283.847286 -285.497563 
L 283.945124 -283.268521 
L 284.046584 -281.039479 
L 284.150883 -278.810436 
L 284.257135 -276.581394 
L 284.364364 -274.352352 
L 284.471526 -272.123309 
L 284.577536 -269.894267 
L 284.681291 -267.665225 
L 284.781708 -265.436182 
L 284.877753 -263.20714 
L 284.968481 -260.978098 
L 285.053069 -258.749055 
L 285.130856 -256.520013 
L 285.201367 -254.29097 
L 285.264354 -252.061928 
L 285.31981 -249.832886 
L 285.367993 -247.603843 
L 285.409439 -245.374801 
L 285.444961 -243.145759 
L 285.475649 -240.916716 
L 285.502857 -238.687674 
L 285.528177 -236.458632 
L 285.553416 -234.229589 
L 285.580553 -232.000547 
L 285.611696 -229.771505 
L 285.649034 -227.542462 
L 285.69478 -225.31342 
L 285.751109 -223.084378 
L 285.820104 -220.855335 
L 285.903691 -218.626293 
L 286.003582 -216.397251 
L 286.121218 -214.168208 
L 286.257716 -211.939166 
L 286.413825 -209.710124 
L 286.589888 -207.481081 
L 286.78581 -205.252039 
L 287.001037 -203.022997 
L 287.234548 -200.793954 
L 287.484853 -198.564912 
L 287.750004 -196.335869 
L 288.027616 -194.106827 
L 288.314898 -191.877785 
L 288.6087 -189.648742 
L 288.90556 -187.4197 
L 289.201765 -185.190658 
L 289.49342 -182.961615 
L 289.776518 -180.732573 
L 290.047022 -178.503531 
L 290.300939 -176.274488 
L 290.534405 -174.045446 
L 290.74376 -171.816404 
L 290.925628 -169.587361 
L 291.076983 -167.358319 
L 291.195215 -165.129277 
L 291.278187 -162.900234 
L 291.324272 -160.671192 
L 291.332396 -158.44215 
L 291.302054 -156.213107 
L 291.233316 -153.984065 
L 291.126828 -151.755023 
L 290.983789 -149.52598 
L 290.805925 -147.296938 
L 290.595443 -145.067895 
L 290.354985 -142.838853 
L 290.08756 -140.609811 
L 289.796482 -138.380768 
L 289.485298 -136.151726 
L 289.157708 -133.922684 
L 288.817493 -131.693641 
L 288.468436 -129.464599 
L 288.114258 -127.235557 
L 287.758544 -125.006514 
L 287.404685 -122.777472 
L 287.055832 -120.54843 
L 286.714844 -118.319387 
L 286.384262 -116.090345 
L 286.066283 -113.861303 
L 285.762747 -111.63226 
L 285.475129 -109.403218 
L 285.20455 -107.174176 
L 284.951785 -104.945133 
L 284.717281 -102.716091 
L 284.501187 -100.487049 
L 284.303379 -98.258006 
L 284.123495 -96.028964 
L 283.960968 -93.799921 
L 283.815061 -91.570879 
L 283.684903 -89.341837 
L 283.569521 -87.112794 
L 283.467875 -84.883752 
z
" id="mf2435fb160" style="stroke:#3f3f3f;stroke-width:1.5;"/>
    </defs>
    <g clip-path="url(#p24583f7bea)">
     <use style="fill:#3274a1;stroke:#3f3f3f;stroke-width:1.5;" x="0" xlink:href="#mf2435fb160" y="361.217877"/>
    </g>
   </g>
   <g id="PolyCollection_4">
    <defs>
     <path d="M 373.62723 -105.354428 
L 370.71402 -105.354428 
L 370.479144 -105.83466 
L 370.217468 -106.314893 
L 369.927987 -106.795125 
L 369.610024 -107.275357 
L 369.263289 -107.755589 
L 368.887929 -108.235821 
L 368.48457 -108.716053 
L 368.054351 -109.196285 
L 367.598939 -109.676517 
L 367.120535 -110.15675 
L 366.621848 -110.636982 
L 366.106065 -111.117214 
L 365.576788 -111.597446 
L 365.037952 -112.077678 
L 364.493729 -112.55791 
L 363.948402 -113.038142 
L 363.406239 -113.518374 
L 362.871343 -113.998607 
L 362.347501 -114.478839 
L 361.838038 -114.959071 
L 361.345666 -115.439303 
L 360.872353 -115.919535 
L 360.419212 -116.399767 
L 359.986408 -116.879999 
L 359.573101 -117.360231 
L 359.177421 -117.840464 
L 358.796479 -118.320696 
L 358.426423 -118.800928 
L 358.062525 -119.28116 
L 357.699311 -119.761392 
L 357.330724 -120.241624 
L 356.950311 -120.721856 
L 356.551444 -121.202088 
L 356.127543 -121.682321 
L 355.672313 -122.162553 
L 355.179981 -122.642785 
L 354.645518 -123.123017 
L 354.064845 -123.603249 
L 353.435011 -124.083481 
L 352.754342 -124.563713 
L 352.022548 -125.043945 
L 351.240792 -125.524178 
L 350.411717 -126.00441 
L 349.539428 -126.484642 
L 348.629433 -126.964874 
L 347.688547 -127.445106 
L 346.724768 -127.925338 
L 345.747115 -128.40557 
L 344.765451 -128.885802 
L 343.790289 -129.366035 
L 342.832595 -129.846267 
L 341.903574 -130.326499 
L 341.014477 -130.806731 
L 340.176398 -131.286963 
L 339.4001 -131.767195 
L 338.695837 -132.247427 
L 338.073208 -132.727659 
L 337.541014 -133.207892 
L 337.107146 -133.688124 
L 336.778475 -134.168356 
L 336.56077 -134.648588 
L 336.458625 -135.12882 
L 336.475402 -135.609052 
L 336.613187 -136.089284 
L 336.872762 -136.569516 
L 337.253585 -137.049749 
L 337.753797 -137.529981 
L 338.370225 -138.010213 
L 339.098425 -138.490445 
L 339.932718 -138.970677 
L 340.866267 -139.450909 
L 341.891156 -139.931141 
L 342.998501 -140.411373 
L 344.178568 -140.891606 
L 345.420923 -141.371838 
L 346.714584 -141.85207 
L 348.048197 -142.332302 
L 349.410208 -142.812534 
L 350.789058 -143.292766 
L 352.17336 -143.772998 
L 353.552083 -144.25323 
L 354.914723 -144.733463 
L 356.251458 -145.213695 
L 357.553287 -145.693927 
L 358.812146 -146.174159 
L 360.020994 -146.654391 
L 361.173886 -147.134623 
L 362.265999 -147.614855 
L 363.293649 -148.095087 
L 364.254267 -148.57532 
L 365.146364 -149.055552 
L 365.969459 -149.535784 
L 366.724005 -150.016016 
L 367.411292 -150.496248 
L 368.033335 -150.97648 
L 368.592769 -151.456712 
L 369.092731 -151.936944 
L 369.536742 -152.417177 
L 369.928604 -152.897409 
L 374.412646 -152.897409 
L 374.412646 -152.897409 
L 374.804508 -152.417177 
L 375.248519 -151.936944 
L 375.748481 -151.456712 
L 376.307915 -150.97648 
L 376.929958 -150.496248 
L 377.617245 -150.016016 
L 378.371791 -149.535784 
L 379.194886 -149.055552 
L 380.086983 -148.57532 
L 381.047601 -148.095087 
L 382.075251 -147.614855 
L 383.167364 -147.134623 
L 384.320256 -146.654391 
L 385.529104 -146.174159 
L 386.787963 -145.693927 
L 388.089792 -145.213695 
L 389.426527 -144.733463 
L 390.789167 -144.25323 
L 392.16789 -143.772998 
L 393.552192 -143.292766 
L 394.931042 -142.812534 
L 396.293053 -142.332302 
L 397.626666 -141.85207 
L 398.920327 -141.371838 
L 400.162682 -140.891606 
L 401.342749 -140.411373 
L 402.450094 -139.931141 
L 403.474983 -139.450909 
L 404.408532 -138.970677 
L 405.242825 -138.490445 
L 405.971025 -138.010213 
L 406.587453 -137.529981 
L 407.087665 -137.049749 
L 407.468488 -136.569516 
L 407.728063 -136.089284 
L 407.865848 -135.609052 
L 407.882625 -135.12882 
L 407.78048 -134.648588 
L 407.562775 -134.168356 
L 407.234104 -133.688124 
L 406.800236 -133.207892 
L 406.268042 -132.727659 
L 405.645413 -132.247427 
L 404.94115 -131.767195 
L 404.164852 -131.286963 
L 403.326773 -130.806731 
L 402.437676 -130.326499 
L 401.508655 -129.846267 
L 400.550961 -129.366035 
L 399.575799 -128.885802 
L 398.594135 -128.40557 
L 397.616482 -127.925338 
L 396.652703 -127.445106 
L 395.711817 -126.964874 
L 394.801822 -126.484642 
L 393.929533 -126.00441 
L 393.100458 -125.524178 
L 392.318702 -125.043945 
L 391.586908 -124.563713 
L 390.906239 -124.083481 
L 390.276405 -123.603249 
L 389.695732 -123.123017 
L 389.161269 -122.642785 
L 388.668937 -122.162553 
L 388.213707 -121.682321 
L 387.789806 -121.202088 
L 387.390939 -120.721856 
L 387.010526 -120.241624 
L 386.641939 -119.761392 
L 386.278725 -119.28116 
L 385.914827 -118.800928 
L 385.544771 -118.320696 
L 385.163829 -117.840464 
L 384.768149 -117.360231 
L 384.354842 -116.879999 
L 383.922038 -116.399767 
L 383.468897 -115.919535 
L 382.995584 -115.439303 
L 382.503212 -114.959071 
L 381.993749 -114.478839 
L 381.469907 -113.998607 
L 380.935011 -113.518374 
L 380.392848 -113.038142 
L 379.847521 -112.55791 
L 379.303298 -112.077678 
L 378.764462 -111.597446 
L 378.235185 -111.117214 
L 377.719402 -110.636982 
L 377.220715 -110.15675 
L 376.742311 -109.676517 
L 376.286899 -109.196285 
L 375.85668 -108.716053 
L 375.453321 -108.235821 
L 375.077961 -107.755589 
L 374.731226 -107.275357 
L 374.413263 -106.795125 
L 374.123782 -106.314893 
L 373.862106 -105.83466 
L 373.62723 -105.354428 
z
" id="m8f513a0ee2" style="stroke:#3f3f3f;stroke-width:1.5;"/>
    </defs>
    <g clip-path="url(#p24583f7bea)">
     <use style="fill:#9fd495;stroke:#3f3f3f;stroke-width:1.5;" x="0" xlink:href="#m8f513a0ee2" y="361.217877"/>
    </g>
   </g>
   <g id="matplotlib.axis_1">
    <g id="xtick_1">
     <g id="line2d_1">
      <defs>
       <path d="M 0 0 
L 0 3.5 
" id="m78b0a59a3e" style="stroke:#000000;stroke-width:0.8;"/>
      </defs>
      <g>
       <use style="stroke:#000000;stroke-width:0.8;" x="104.330625" xlink:href="#m78b0a59a3e" y="288.430125"/>
      </g>
     </g>
     <g id="text_1">
      <!-- kirenenko-rare -->
      <g transform="translate(40.022213 338.53869)rotate(-30)scale(0.1 -0.1)">
       <defs>
        <path d="M 9.078125 75.984375 
L 18.109375 75.984375 
L 18.109375 31.109375 
L 44.921875 54.6875 
L 56.390625 54.6875 
L 27.390625 29.109375 
L 57.625 0 
L 45.90625 0 
L 18.109375 26.703125 
L 18.109375 0 
L 9.078125 0 
z
" id="DejaVuSans-107"/>
        <path d="M 9.421875 54.6875 
L 18.40625 54.6875 
L 18.40625 0 
L 9.421875 0 
z
M 9.421875 75.984375 
L 18.40625 75.984375 
L 18.40625 64.59375 
L 9.421875 64.59375 
z
" id="DejaVuSans-105"/>
        <path d="M 41.109375 46.296875 
Q 39.59375 47.171875 37.8125 47.578125 
Q 36.03125 48 33.890625 48 
Q 26.265625 48 22.1875 43.046875 
Q 18.109375 38.09375 18.109375 28.8125 
L 18.109375 0 
L 9.078125 0 
L 9.078125 54.6875 
L 18.109375 54.6875 
L 18.109375 46.1875 
Q 20.953125 51.171875 25.484375 53.578125 
Q 30.03125 56 36.53125 56 
Q 37.453125 56 38.578125 55.875 
Q 39.703125 55.765625 41.0625 55.515625 
z
" id="DejaVuSans-114"/>
        <path d="M 56.203125 29.59375 
L 56.203125 25.203125 
L 14.890625 25.203125 
Q 15.484375 15.921875 20.484375 11.0625 
Q 25.484375 6.203125 34.421875 6.203125 
Q 39.59375 6.203125 44.453125 7.46875 
Q 49.3125 8.734375 54.109375 11.28125 
L 54.109375 2.78125 
Q 49.265625 0.734375 44.1875 -0.34375 
Q 39.109375 -1.421875 33.890625 -1.421875 
Q 20.796875 -1.421875 13.15625 6.1875 
Q 5.515625 13.8125 5.515625 26.8125 
Q 5.515625 40.234375 12.765625 48.109375 
Q 20.015625 56 32.328125 56 
Q 43.359375 56 49.78125 48.890625 
Q 56.203125 41.796875 56.203125 29.59375 
z
M 47.21875 32.234375 
Q 47.125 39.59375 43.09375 43.984375 
Q 39.0625 48.390625 32.421875 48.390625 
Q 24.90625 48.390625 20.390625 44.140625 
Q 15.875 39.890625 15.1875 32.171875 
z
" id="DejaVuSans-101"/>
        <path d="M 54.890625 33.015625 
L 54.890625 0 
L 45.90625 0 
L 45.90625 32.71875 
Q 45.90625 40.484375 42.875 44.328125 
Q 39.84375 48.1875 33.796875 48.1875 
Q 26.515625 48.1875 22.3125 43.546875 
Q 18.109375 38.921875 18.109375 30.90625 
L 18.109375 0 
L 9.078125 0 
L 9.078125 54.6875 
L 18.109375 54.6875 
L 18.109375 46.1875 
Q 21.34375 51.125 25.703125 53.5625 
Q 30.078125 56 35.796875 56 
Q 45.21875 56 50.046875 50.171875 
Q 54.890625 44.34375 54.890625 33.015625 
z
" id="DejaVuSans-110"/>
        <path d="M 30.609375 48.390625 
Q 23.390625 48.390625 19.1875 42.75 
Q 14.984375 37.109375 14.984375 27.296875 
Q 14.984375 17.484375 19.15625 11.84375 
Q 23.34375 6.203125 30.609375 6.203125 
Q 37.796875 6.203125 41.984375 11.859375 
Q 46.1875 17.53125 46.1875 27.296875 
Q 46.1875 37.015625 41.984375 42.703125 
Q 37.796875 48.390625 30.609375 48.390625 
z
M 30.609375 56 
Q 42.328125 56 49.015625 48.375 
Q 55.71875 40.765625 55.71875 27.296875 
Q 55.71875 13.875 49.015625 6.21875 
Q 42.328125 -1.421875 30.609375 -1.421875 
Q 18.84375 -1.421875 12.171875 6.21875 
Q 5.515625 13.875 5.515625 27.296875 
Q 5.515625 40.765625 12.171875 48.375 
Q 18.84375 56 30.609375 56 
z
" id="DejaVuSans-111"/>
        <path d="M 4.890625 31.390625 
L 31.203125 31.390625 
L 31.203125 23.390625 
L 4.890625 23.390625 
z
" id="DejaVuSans-45"/>
        <path d="M 34.28125 27.484375 
Q 23.390625 27.484375 19.1875 25 
Q 14.984375 22.515625 14.984375 16.5 
Q 14.984375 11.71875 18.140625 8.90625 
Q 21.296875 6.109375 26.703125 6.109375 
Q 34.1875 6.109375 38.703125 11.40625 
Q 43.21875 16.703125 43.21875 25.484375 
L 43.21875 27.484375 
z
M 52.203125 31.203125 
L 52.203125 0 
L 43.21875 0 
L 43.21875 8.296875 
Q 40.140625 3.328125 35.546875 0.953125 
Q 30.953125 -1.421875 24.3125 -1.421875 
Q 15.921875 -1.421875 10.953125 3.296875 
Q 6 8.015625 6 15.921875 
Q 6 25.140625 12.171875 29.828125 
Q 18.359375 34.515625 30.609375 34.515625 
L 43.21875 34.515625 
L 43.21875 35.40625 
Q 43.21875 41.609375 39.140625 45 
Q 35.0625 48.390625 27.6875 48.390625 
Q 23 48.390625 18.546875 47.265625 
Q 14.109375 46.140625 10.015625 43.890625 
L 10.015625 52.203125 
Q 14.9375 54.109375 19.578125 55.046875 
Q 24.21875 56 28.609375 56 
Q 40.484375 56 46.34375 49.84375 
Q 52.203125 43.703125 52.203125 31.203125 
z
" id="DejaVuSans-97"/>
       </defs>
       <use xlink:href="#DejaVuSans-107"/>
       <use x="57.910156" xlink:href="#DejaVuSans-105"/>
       <use x="85.693359" xlink:href="#DejaVuSans-114"/>
       <use x="124.556641" xlink:href="#DejaVuSans-101"/>
       <use x="186.080078" xlink:href="#DejaVuSans-110"/>
       <use x="249.458984" xlink:href="#DejaVuSans-101"/>
       <use x="310.982422" xlink:href="#DejaVuSans-110"/>
       <use x="374.361328" xlink:href="#DejaVuSans-107"/>
       <use x="428.646484" xlink:href="#DejaVuSans-111"/>
       <use x="491.703125" xlink:href="#DejaVuSans-45"/>
       <use x="527.787109" xlink:href="#DejaVuSans-114"/>
       <use x="568.900391" xlink:href="#DejaVuSans-97"/>
       <use x="630.179688" xlink:href="#DejaVuSans-114"/>
       <use x="669.042969" xlink:href="#DejaVuSans-101"/>
      </g>
     </g>
    </g>
    <g id="xtick_2">
     <g id="line2d_2">
      <g>
       <use style="stroke:#000000;stroke-width:0.8;" x="193.610625" xlink:href="#m78b0a59a3e" y="288.430125"/>
      </g>
     </g>
     <g id="text_2">
      <!-- kirenenko -->
      <g transform="translate(150.150421 326.501971)rotate(-30)scale(0.1 -0.1)">
       <use xlink:href="#DejaVuSans-107"/>
       <use x="57.910156" xlink:href="#DejaVuSans-105"/>
       <use x="85.693359" xlink:href="#DejaVuSans-114"/>
       <use x="124.556641" xlink:href="#DejaVuSans-101"/>
       <use x="186.080078" xlink:href="#DejaVuSans-110"/>
       <use x="249.458984" xlink:href="#DejaVuSans-101"/>
       <use x="310.982422" xlink:href="#DejaVuSans-110"/>
       <use x="374.361328" xlink:href="#DejaVuSans-107"/>
       <use x="428.646484" xlink:href="#DejaVuSans-111"/>
      </g>
     </g>
    </g>
    <g id="xtick_3">
     <g id="line2d_3">
      <g>
       <use style="stroke:#000000;stroke-width:0.8;" x="282.890625" xlink:href="#m78b0a59a3e" y="288.430125"/>
      </g>
     </g>
     <g id="text_3">
      <!-- aflplusplus -->
      <g transform="translate(235.281618 328.897284)rotate(-30)scale(0.1 -0.1)">
       <defs>
        <path d="M 37.109375 75.984375 
L 37.109375 68.5 
L 28.515625 68.5 
Q 23.6875 68.5 21.796875 66.546875 
Q 19.921875 64.59375 19.921875 59.515625 
L 19.921875 54.6875 
L 34.71875 54.6875 
L 34.71875 47.703125 
L 19.921875 47.703125 
L 19.921875 0 
L 10.890625 0 
L 10.890625 47.703125 
L 2.296875 47.703125 
L 2.296875 54.6875 
L 10.890625 54.6875 
L 10.890625 58.5 
Q 10.890625 67.625 15.140625 71.796875 
Q 19.390625 75.984375 28.609375 75.984375 
z
" id="DejaVuSans-102"/>
        <path d="M 9.421875 75.984375 
L 18.40625 75.984375 
L 18.40625 0 
L 9.421875 0 
z
" id="DejaVuSans-108"/>
        <path d="M 18.109375 8.203125 
L 18.109375 -20.796875 
L 9.078125 -20.796875 
L 9.078125 54.6875 
L 18.109375 54.6875 
L 18.109375 46.390625 
Q 20.953125 51.265625 25.265625 53.625 
Q 29.59375 56 35.59375 56 
Q 45.5625 56 51.78125 48.09375 
Q 58.015625 40.1875 58.015625 27.296875 
Q 58.015625 14.40625 51.78125 6.484375 
Q 45.5625 -1.421875 35.59375 -1.421875 
Q 29.59375 -1.421875 25.265625 0.953125 
Q 20.953125 3.328125 18.109375 8.203125 
z
M 48.6875 27.296875 
Q 48.6875 37.203125 44.609375 42.84375 
Q 40.53125 48.484375 33.40625 48.484375 
Q 26.265625 48.484375 22.1875 42.84375 
Q 18.109375 37.203125 18.109375 27.296875 
Q 18.109375 17.390625 22.1875 11.75 
Q 26.265625 6.109375 33.40625 6.109375 
Q 40.53125 6.109375 44.609375 11.75 
Q 48.6875 17.390625 48.6875 27.296875 
z
" id="DejaVuSans-112"/>
        <path d="M 8.5 21.578125 
L 8.5 54.6875 
L 17.484375 54.6875 
L 17.484375 21.921875 
Q 17.484375 14.15625 20.5 10.265625 
Q 23.53125 6.390625 29.59375 6.390625 
Q 36.859375 6.390625 41.078125 11.03125 
Q 45.3125 15.671875 45.3125 23.6875 
L 45.3125 54.6875 
L 54.296875 54.6875 
L 54.296875 0 
L 45.3125 0 
L 45.3125 8.40625 
Q 42.046875 3.421875 37.71875 1 
Q 33.40625 -1.421875 27.6875 -1.421875 
Q 18.265625 -1.421875 13.375 4.4375 
Q 8.5 10.296875 8.5 21.578125 
z
M 31.109375 56 
z
" id="DejaVuSans-117"/>
        <path d="M 44.28125 53.078125 
L 44.28125 44.578125 
Q 40.484375 46.53125 36.375 47.5 
Q 32.28125 48.484375 27.875 48.484375 
Q 21.1875 48.484375 17.84375 46.4375 
Q 14.5 44.390625 14.5 40.28125 
Q 14.5 37.15625 16.890625 35.375 
Q 19.28125 33.59375 26.515625 31.984375 
L 29.59375 31.296875 
Q 39.15625 29.25 43.1875 25.515625 
Q 47.21875 21.78125 47.21875 15.09375 
Q 47.21875 7.46875 41.1875 3.015625 
Q 35.15625 -1.421875 24.609375 -1.421875 
Q 20.21875 -1.421875 15.453125 -0.5625 
Q 10.6875 0.296875 5.421875 2 
L 5.421875 11.28125 
Q 10.40625 8.6875 15.234375 7.390625 
Q 20.0625 6.109375 24.8125 6.109375 
Q 31.15625 6.109375 34.5625 8.28125 
Q 37.984375 10.453125 37.984375 14.40625 
Q 37.984375 18.0625 35.515625 20.015625 
Q 33.0625 21.96875 24.703125 23.78125 
L 21.578125 24.515625 
Q 13.234375 26.265625 9.515625 29.90625 
Q 5.8125 33.546875 5.8125 39.890625 
Q 5.8125 47.609375 11.28125 51.796875 
Q 16.75 56 26.8125 56 
Q 31.78125 56 36.171875 55.265625 
Q 40.578125 54.546875 44.28125 53.078125 
z
" id="DejaVuSans-115"/>
       </defs>
       <use xlink:href="#DejaVuSans-97"/>
       <use x="61.279297" xlink:href="#DejaVuSans-102"/>
       <use x="96.484375" xlink:href="#DejaVuSans-108"/>
       <use x="124.267578" xlink:href="#DejaVuSans-112"/>
       <use x="187.744141" xlink:href="#DejaVuSans-108"/>
       <use x="215.527344" xlink:href="#DejaVuSans-117"/>
       <use x="278.90625" xlink:href="#DejaVuSans-115"/>
       <use x="331.005859" xlink:href="#DejaVuSans-112"/>
       <use x="394.482422" xlink:href="#DejaVuSans-108"/>
       <use x="422.265625" xlink:href="#DejaVuSans-117"/>
       <use x="485.644531" xlink:href="#DejaVuSans-115"/>
      </g>
     </g>
    </g>
    <g id="xtick_4">
     <g id="line2d_4">
      <g>
       <use style="stroke:#000000;stroke-width:0.8;" x="372.170625" xlink:href="#m78b0a59a3e" y="288.430125"/>
      </g>
     </g>
     <g id="text_4">
      <!-- honggfuzz -->
      <g transform="translate(326.231424 327.933221)rotate(-30)scale(0.1 -0.1)">
       <defs>
        <path d="M 54.890625 33.015625 
L 54.890625 0 
L 45.90625 0 
L 45.90625 32.71875 
Q 45.90625 40.484375 42.875 44.328125 
Q 39.84375 48.1875 33.796875 48.1875 
Q 26.515625 48.1875 22.3125 43.546875 
Q 18.109375 38.921875 18.109375 30.90625 
L 18.109375 0 
L 9.078125 0 
L 9.078125 75.984375 
L 18.109375 75.984375 
L 18.109375 46.1875 
Q 21.34375 51.125 25.703125 53.5625 
Q 30.078125 56 35.796875 56 
Q 45.21875 56 50.046875 50.171875 
Q 54.890625 44.34375 54.890625 33.015625 
z
" id="DejaVuSans-104"/>
        <path d="M 45.40625 27.984375 
Q 45.40625 37.75 41.375 43.109375 
Q 37.359375 48.484375 30.078125 48.484375 
Q 22.859375 48.484375 18.828125 43.109375 
Q 14.796875 37.75 14.796875 27.984375 
Q 14.796875 18.265625 18.828125 12.890625 
Q 22.859375 7.515625 30.078125 7.515625 
Q 37.359375 7.515625 41.375 12.890625 
Q 45.40625 18.265625 45.40625 27.984375 
z
M 54.390625 6.78125 
Q 54.390625 -7.171875 48.1875 -13.984375 
Q 42 -20.796875 29.203125 -20.796875 
Q 24.46875 -20.796875 20.265625 -20.09375 
Q 16.0625 -19.390625 12.109375 -17.921875 
L 12.109375 -9.1875 
Q 16.0625 -11.328125 19.921875 -12.34375 
Q 23.78125 -13.375 27.78125 -13.375 
Q 36.625 -13.375 41.015625 -8.765625 
Q 45.40625 -4.15625 45.40625 5.171875 
L 45.40625 9.625 
Q 42.625 4.78125 38.28125 2.390625 
Q 33.9375 0 27.875 0 
Q 17.828125 0 11.671875 7.65625 
Q 5.515625 15.328125 5.515625 27.984375 
Q 5.515625 40.671875 11.671875 48.328125 
Q 17.828125 56 27.875 56 
Q 33.9375 56 38.28125 53.609375 
Q 42.625 51.21875 45.40625 46.390625 
L 45.40625 54.6875 
L 54.390625 54.6875 
z
" id="DejaVuSans-103"/>
        <path d="M 5.515625 54.6875 
L 48.1875 54.6875 
L 48.1875 46.484375 
L 14.40625 7.171875 
L 48.1875 7.171875 
L 48.1875 0 
L 4.296875 0 
L 4.296875 8.203125 
L 38.09375 47.515625 
L 5.515625 47.515625 
z
" id="DejaVuSans-122"/>
       </defs>
       <use xlink:href="#DejaVuSans-104"/>
       <use x="63.378906" xlink:href="#DejaVuSans-111"/>
       <use x="124.560547" xlink:href="#DejaVuSans-110"/>
       <use x="187.939453" xlink:href="#DejaVuSans-103"/>
       <use x="251.416016" xlink:href="#DejaVuSans-103"/>
       <use x="314.892578" xlink:href="#DejaVuSans-102"/>
       <use x="350.097656" xlink:href="#DejaVuSans-117"/>
       <use x="413.476562" xlink:href="#DejaVuSans-122"/>
       <use x="465.966797" xlink:href="#DejaVuSans-122"/>
      </g>
     </g>
    </g>
    <g id="text_5">
     <!-- Fuzzer (highest median coverage on the left) -->
     <g transform="translate(125.632656 351.93819)scale(0.1 -0.1)">
      <defs>
       <path d="M 9.8125 72.90625 
L 51.703125 72.90625 
L 51.703125 64.59375 
L 19.671875 64.59375 
L 19.671875 43.109375 
L 48.578125 43.109375 
L 48.578125 34.8125 
L 19.671875 34.8125 
L 19.671875 0 
L 9.8125 0 
z
" id="DejaVuSans-70"/>
       <path id="DejaVuSans-32"/>
       <path d="M 31 75.875 
Q 24.46875 64.65625 21.28125 53.65625 
Q 18.109375 42.671875 18.109375 31.390625 
Q 18.109375 20.125 21.3125 9.0625 
Q 24.515625 -2 31 -13.1875 
L 23.1875 -13.1875 
Q 15.875 -1.703125 12.234375 9.375 
Q 8.59375 20.453125 8.59375 31.390625 
Q 8.59375 42.28125 12.203125 53.3125 
Q 15.828125 64.359375 23.1875 75.875 
z
" id="DejaVuSans-40"/>
       <path d="M 18.3125 70.21875 
L 18.3125 54.6875 
L 36.8125 54.6875 
L 36.8125 47.703125 
L 18.3125 47.703125 
L 18.3125 18.015625 
Q 18.3125 11.328125 20.140625 9.421875 
Q 21.96875 7.515625 27.59375 7.515625 
L 36.8125 7.515625 
L 36.8125 0 
L 27.59375 0 
Q 17.1875 0 13.234375 3.875 
Q 9.28125 7.765625 9.28125 18.015625 
L 9.28125 47.703125 
L 2.6875 47.703125 
L 2.6875 54.6875 
L 9.28125 54.6875 
L 9.28125 70.21875 
z
" id="DejaVuSans-116"/>
       <path d="M 52 44.1875 
Q 55.375 50.25 60.0625 53.125 
Q 64.75 56 71.09375 56 
Q 79.640625 56 84.28125 50.015625 
Q 88.921875 44.046875 88.921875 33.015625 
L 88.921875 0 
L 79.890625 0 
L 79.890625 32.71875 
Q 79.890625 40.578125 77.09375 44.375 
Q 74.3125 48.1875 68.609375 48.1875 
Q 61.625 48.1875 57.5625 43.546875 
Q 53.515625 38.921875 53.515625 30.90625 
L 53.515625 0 
L 44.484375 0 
L 44.484375 32.71875 
Q 44.484375 40.625 41.703125 44.40625 
Q 38.921875 48.1875 33.109375 48.1875 
Q 26.21875 48.1875 22.15625 43.53125 
Q 18.109375 38.875 18.109375 30.90625 
L 18.109375 0 
L 9.078125 0 
L 9.078125 54.6875 
L 18.109375 54.6875 
L 18.109375 46.1875 
Q 21.1875 51.21875 25.484375 53.609375 
Q 29.78125 56 35.6875 56 
Q 41.65625 56 45.828125 52.96875 
Q 50 49.953125 52 44.1875 
z
" id="DejaVuSans-109"/>
       <path d="M 45.40625 46.390625 
L 45.40625 75.984375 
L 54.390625 75.984375 
L 54.390625 0 
L 45.40625 0 
L 45.40625 8.203125 
Q 42.578125 3.328125 38.25 0.953125 
Q 33.9375 -1.421875 27.875 -1.421875 
Q 17.96875 -1.421875 11.734375 6.484375 
Q 5.515625 14.40625 5.515625 27.296875 
Q 5.515625 40.1875 11.734375 48.09375 
Q 17.96875 56 27.875 56 
Q 33.9375 56 38.25 53.625 
Q 42.578125 51.265625 45.40625 46.390625 
z
M 14.796875 27.296875 
Q 14.796875 17.390625 18.875 11.75 
Q 22.953125 6.109375 30.078125 6.109375 
Q 37.203125 6.109375 41.296875 11.75 
Q 45.40625 17.390625 45.40625 27.296875 
Q 45.40625 37.203125 41.296875 42.84375 
Q 37.203125 48.484375 30.078125 48.484375 
Q 22.953125 48.484375 18.875 42.84375 
Q 14.796875 37.203125 14.796875 27.296875 
z
" id="DejaVuSans-100"/>
       <path d="M 48.78125 52.59375 
L 48.78125 44.1875 
Q 44.96875 46.296875 41.140625 47.34375 
Q 37.3125 48.390625 33.40625 48.390625 
Q 24.65625 48.390625 19.8125 42.84375 
Q 14.984375 37.3125 14.984375 27.296875 
Q 14.984375 17.28125 19.8125 11.734375 
Q 24.65625 6.203125 33.40625 6.203125 
Q 37.3125 6.203125 41.140625 7.25 
Q 44.96875 8.296875 48.78125 10.40625 
L 48.78125 2.09375 
Q 45.015625 0.34375 40.984375 -0.53125 
Q 36.96875 -1.421875 32.421875 -1.421875 
Q 20.0625 -1.421875 12.78125 6.34375 
Q 5.515625 14.109375 5.515625 27.296875 
Q 5.515625 40.671875 12.859375 48.328125 
Q 20.21875 56 33.015625 56 
Q 37.15625 56 41.109375 55.140625 
Q 45.0625 54.296875 48.78125 52.59375 
z
" id="DejaVuSans-99"/>
       <path d="M 2.984375 54.6875 
L 12.5 54.6875 
L 29.59375 8.796875 
L 46.6875 54.6875 
L 56.203125 54.6875 
L 35.6875 0 
L 23.484375 0 
z
" id="DejaVuSans-118"/>
       <path d="M 8.015625 75.875 
L 15.828125 75.875 
Q 23.140625 64.359375 26.78125 53.3125 
Q 30.421875 42.28125 30.421875 31.390625 
Q 30.421875 20.453125 26.78125 9.375 
Q 23.140625 -1.703125 15.828125 -13.1875 
L 8.015625 -13.1875 
Q 14.5 -2 17.703125 9.0625 
Q 20.90625 20.125 20.90625 31.390625 
Q 20.90625 42.671875 17.703125 53.65625 
Q 14.5 64.65625 8.015625 75.875 
z
" id="DejaVuSans-41"/>
      </defs>
      <use xlink:href="#DejaVuSans-70"/>
      <use x="52.019531" xlink:href="#DejaVuSans-117"/>
      <use x="115.398438" xlink:href="#DejaVuSans-122"/>
      <use x="167.888672" xlink:href="#DejaVuSans-122"/>
      <use x="220.378906" xlink:href="#DejaVuSans-101"/>
      <use x="281.902344" xlink:href="#DejaVuSans-114"/>
      <use x="323.015625" xlink:href="#DejaVuSans-32"/>
      <use x="354.802734" xlink:href="#DejaVuSans-40"/>
      <use x="393.816406" xlink:href="#DejaVuSans-104"/>
      <use x="457.195312" xlink:href="#DejaVuSans-105"/>
      <use x="484.978516" xlink:href="#DejaVuSans-103"/>
      <use x="548.455078" xlink:href="#DejaVuSans-104"/>
      <use x="611.833984" xlink:href="#DejaVuSans-101"/>
      <use x="673.357422" xlink:href="#DejaVuSans-115"/>
      <use x="725.457031" xlink:href="#DejaVuSans-116"/>
      <use x="764.666016" xlink:href="#DejaVuSans-32"/>
      <use x="796.453125" xlink:href="#DejaVuSans-109"/>
      <use x="893.865234" xlink:href="#DejaVuSans-101"/>
      <use x="955.388672" xlink:href="#DejaVuSans-100"/>
      <use x="1018.865234" xlink:href="#DejaVuSans-105"/>
      <use x="1046.648438" xlink:href="#DejaVuSans-97"/>
      <use x="1107.927734" xlink:href="#DejaVuSans-110"/>
      <use x="1171.306641" xlink:href="#DejaVuSans-32"/>
      <use x="1203.09375" xlink:href="#DejaVuSans-99"/>
      <use x="1258.074219" xlink:href="#DejaVuSans-111"/>
      <use x="1319.255859" xlink:href="#DejaVuSans-118"/>
      <use x="1378.435547" xlink:href="#DejaVuSans-101"/>
      <use x="1439.958984" xlink:href="#DejaVuSans-114"/>
      <use x="1481.072266" xlink:href="#DejaVuSans-97"/>
      <use x="1542.351562" xlink:href="#DejaVuSans-103"/>
      <use x="1605.828125" xlink:href="#DejaVuSans-101"/>
      <use x="1667.351562" xlink:href="#DejaVuSans-32"/>
      <use x="1699.138672" xlink:href="#DejaVuSans-111"/>
      <use x="1760.320312" xlink:href="#DejaVuSans-110"/>
      <use x="1823.699219" xlink:href="#DejaVuSans-32"/>
      <use x="1855.486328" xlink:href="#DejaVuSans-116"/>
      <use x="1894.695312" xlink:href="#DejaVuSans-104"/>
      <use x="1958.074219" xlink:href="#DejaVuSans-101"/>
      <use x="2019.597656" xlink:href="#DejaVuSans-32"/>
      <use x="2051.384766" xlink:href="#DejaVuSans-108"/>
      <use x="2079.167969" xlink:href="#DejaVuSans-101"/>
      <use x="2140.691406" xlink:href="#DejaVuSans-102"/>
      <use x="2174.146484" xlink:href="#DejaVuSans-116"/>
      <use x="2213.355469" xlink:href="#DejaVuSans-41"/>
     </g>
    </g>
   </g>
   <g id="matplotlib.axis_2">
    <g id="ytick_1">
     <g id="line2d_5">
      <defs>
       <path d="M 0 0 
L -3.5 0 
" id="m78ed764b54" style="stroke:#000000;stroke-width:0.8;"/>
      </defs>
      <g>
       <use style="stroke:#000000;stroke-width:0.8;" x="59.690625" xlink:href="#m78ed764b54" y="263.996605"/>
      </g>
     </g>
     <g id="text_6">
      <!-- 17500 -->
      <g transform="translate(20.878125 267.795823)scale(0.1 -0.1)">
       <defs>
        <path d="M 12.40625 8.296875 
L 28.515625 8.296875 
L 28.515625 63.921875 
L 10.984375 60.40625 
L 10.984375 69.390625 
L 28.421875 72.90625 
L 38.28125 72.90625 
L 38.28125 8.296875 
L 54.390625 8.296875 
L 54.390625 0 
L 12.40625 0 
z
" id="DejaVuSans-49"/>
        <path d="M 8.203125 72.90625 
L 55.078125 72.90625 
L 55.078125 68.703125 
L 28.609375 0 
L 18.3125 0 
L 43.21875 64.59375 
L 8.203125 64.59375 
z
" id="DejaVuSans-55"/>
        <path d="M 10.796875 72.90625 
L 49.515625 72.90625 
L 49.515625 64.59375 
L 19.828125 64.59375 
L 19.828125 46.734375 
Q 21.96875 47.46875 24.109375 47.828125 
Q 26.265625 48.1875 28.421875 48.1875 
Q 40.625 48.1875 47.75 41.5 
Q 54.890625 34.8125 54.890625 23.390625 
Q 54.890625 11.625 47.5625 5.09375 
Q 40.234375 -1.421875 26.90625 -1.421875 
Q 22.3125 -1.421875 17.546875 -0.640625 
Q 12.796875 0.140625 7.71875 1.703125 
L 7.71875 11.625 
Q 12.109375 9.234375 16.796875 8.0625 
Q 21.484375 6.890625 26.703125 6.890625 
Q 35.15625 6.890625 40.078125 11.328125 
Q 45.015625 15.765625 45.015625 23.390625 
Q 45.015625 31 40.078125 35.4375 
Q 35.15625 39.890625 26.703125 39.890625 
Q 22.75 39.890625 18.8125 39.015625 
Q 14.890625 38.140625 10.796875 36.28125 
z
" id="DejaVuSans-53"/>
        <path d="M 31.78125 66.40625 
Q 24.171875 66.40625 20.328125 58.90625 
Q 16.5 51.421875 16.5 36.375 
Q 16.5 21.390625 20.328125 13.890625 
Q 24.171875 6.390625 31.78125 6.390625 
Q 39.453125 6.390625 43.28125 13.890625 
Q 47.125 21.390625 47.125 36.375 
Q 47.125 51.421875 43.28125 58.90625 
Q 39.453125 66.40625 31.78125 66.40625 
z
M 31.78125 74.21875 
Q 44.046875 74.21875 50.515625 64.515625 
Q 56.984375 54.828125 56.984375 36.375 
Q 56.984375 17.96875 50.515625 8.265625 
Q 44.046875 -1.421875 31.78125 -1.421875 
Q 19.53125 -1.421875 13.0625 8.265625 
Q 6.59375 17.96875 6.59375 36.375 
Q 6.59375 54.828125 13.0625 64.515625 
Q 19.53125 74.21875 31.78125 74.21875 
z
" id="DejaVuSans-48"/>
       </defs>
       <use xlink:href="#DejaVuSans-49"/>
       <use x="63.623047" xlink:href="#DejaVuSans-55"/>
       <use x="127.246094" xlink:href="#DejaVuSans-53"/>
       <use x="190.869141" xlink:href="#DejaVuSans-48"/>
       <use x="254.492188" xlink:href="#DejaVuSans-48"/>
      </g>
     </g>
    </g>
    <g id="ytick_2">
     <g id="line2d_6">
      <g>
       <use style="stroke:#000000;stroke-width:0.8;" x="59.690625" xlink:href="#m78ed764b54" y="227.823537"/>
      </g>
     </g>
     <g id="text_7">
      <!-- 20000 -->
      <g transform="translate(20.878125 231.622755)scale(0.1 -0.1)">
       <defs>
        <path d="M 19.1875 8.296875 
L 53.609375 8.296875 
L 53.609375 0 
L 7.328125 0 
L 7.328125 8.296875 
Q 12.9375 14.109375 22.625 23.890625 
Q 32.328125 33.6875 34.8125 36.53125 
Q 39.546875 41.84375 41.421875 45.53125 
Q 43.3125 49.21875 43.3125 52.78125 
Q 43.3125 58.59375 39.234375 62.25 
Q 35.15625 65.921875 28.609375 65.921875 
Q 23.96875 65.921875 18.8125 64.3125 
Q 13.671875 62.703125 7.8125 59.421875 
L 7.8125 69.390625 
Q 13.765625 71.78125 18.9375 73 
Q 24.125 74.21875 28.421875 74.21875 
Q 39.75 74.21875 46.484375 68.546875 
Q 53.21875 62.890625 53.21875 53.421875 
Q 53.21875 48.921875 51.53125 44.890625 
Q 49.859375 40.875 45.40625 35.40625 
Q 44.1875 33.984375 37.640625 27.21875 
Q 31.109375 20.453125 19.1875 8.296875 
z
" id="DejaVuSans-50"/>
       </defs>
       <use xlink:href="#DejaVuSans-50"/>
       <use x="63.623047" xlink:href="#DejaVuSans-48"/>
       <use x="127.246094" xlink:href="#DejaVuSans-48"/>
       <use x="190.869141" xlink:href="#DejaVuSans-48"/>
       <use x="254.492188" xlink:href="#DejaVuSans-48"/>
      </g>
     </g>
    </g>
    <g id="ytick_3">
     <g id="line2d_7">
      <g>
       <use style="stroke:#000000;stroke-width:0.8;" x="59.690625" xlink:href="#m78ed764b54" y="191.650469"/>
      </g>
     </g>
     <g id="text_8">
      <!-- 22500 -->
      <g transform="translate(20.878125 195.449687)scale(0.1 -0.1)">
       <use xlink:href="#DejaVuSans-50"/>
       <use x="63.623047" xlink:href="#DejaVuSans-50"/>
       <use x="127.246094" xlink:href="#DejaVuSans-53"/>
       <use x="190.869141" xlink:href="#DejaVuSans-48"/>
       <use x="254.492188" xlink:href="#DejaVuSans-48"/>
      </g>
     </g>
    </g>
    <g id="ytick_4">
     <g id="line2d_8">
      <g>
       <use style="stroke:#000000;stroke-width:0.8;" x="59.690625" xlink:href="#m78ed764b54" y="155.477401"/>
      </g>
     </g>
     <g id="text_9">
      <!-- 25000 -->
      <g transform="translate(20.878125 159.276619)scale(0.1 -0.1)">
       <use xlink:href="#DejaVuSans-50"/>
       <use x="63.623047" xlink:href="#DejaVuSans-53"/>
       <use x="127.246094" xlink:href="#DejaVuSans-48"/>
       <use x="190.869141" xlink:href="#DejaVuSans-48"/>
       <use x="254.492188" xlink:href="#DejaVuSans-48"/>
      </g>
     </g>
    </g>
    <g id="ytick_5">
     <g id="line2d_9">
      <g>
       <use style="stroke:#000000;stroke-width:0.8;" x="59.690625" xlink:href="#m78ed764b54" y="119.304333"/>
      </g>
     </g>
     <g id="text_10">
      <!-- 27500 -->
      <g transform="translate(20.878125 123.103551)scale(0.1 -0.1)">
       <use xlink:href="#DejaVuSans-50"/>
       <use x="63.623047" xlink:href="#DejaVuSans-55"/>
       <use x="127.246094" xlink:href="#DejaVuSans-53"/>
       <use x="190.869141" xlink:href="#DejaVuSans-48"/>
       <use x="254.492188" xlink:href="#DejaVuSans-48"/>
      </g>
     </g>
    </g>
    <g id="ytick_6">
     <g id="line2d_10">
      <g>
       <use style="stroke:#000000;stroke-width:0.8;" x="59.690625" xlink:href="#m78ed764b54" y="83.131265"/>
      </g>
     </g>
     <g id="text_11">
      <!-- 30000 -->
      <g transform="translate(20.878125 86.930483)scale(0.1 -0.1)">
       <defs>
        <path d="M 40.578125 39.3125 
Q 47.65625 37.796875 51.625 33 
Q 55.609375 28.21875 55.609375 21.1875 
Q 55.609375 10.40625 48.1875 4.484375 
Q 40.765625 -1.421875 27.09375 -1.421875 
Q 22.515625 -1.421875 17.65625 -0.515625 
Q 12.796875 0.390625 7.625 2.203125 
L 7.625 11.71875 
Q 11.71875 9.328125 16.59375 8.109375 
Q 21.484375 6.890625 26.8125 6.890625 
Q 36.078125 6.890625 40.9375 10.546875 
Q 45.796875 14.203125 45.796875 21.1875 
Q 45.796875 27.640625 41.28125 31.265625 
Q 36.765625 34.90625 28.71875 34.90625 
L 20.21875 34.90625 
L 20.21875 43.015625 
L 29.109375 43.015625 
Q 36.375 43.015625 40.234375 45.921875 
Q 44.09375 48.828125 44.09375 54.296875 
Q 44.09375 59.90625 40.109375 62.90625 
Q 36.140625 65.921875 28.71875 65.921875 
Q 24.65625 65.921875 20.015625 65.03125 
Q 15.375 64.15625 9.8125 62.3125 
L 9.8125 71.09375 
Q 15.4375 72.65625 20.34375 73.4375 
Q 25.25 74.21875 29.59375 74.21875 
Q 40.828125 74.21875 47.359375 69.109375 
Q 53.90625 64.015625 53.90625 55.328125 
Q 53.90625 49.265625 50.4375 45.09375 
Q 46.96875 40.921875 40.578125 39.3125 
z
" id="DejaVuSans-51"/>
       </defs>
       <use xlink:href="#DejaVuSans-51"/>
       <use x="63.623047" xlink:href="#DejaVuSans-48"/>
       <use x="127.246094" xlink:href="#DejaVuSans-48"/>
       <use x="190.869141" xlink:href="#DejaVuSans-48"/>
       <use x="254.492188" xlink:href="#DejaVuSans-48"/>
      </g>
     </g>
    </g>
    <g id="ytick_7">
     <g id="line2d_11">
      <g>
       <use style="stroke:#000000;stroke-width:0.8;" x="59.690625" xlink:href="#m78ed764b54" y="46.958197"/>
      </g>
     </g>
     <g id="text_12">
      <!-- 32500 -->
      <g transform="translate(20.878125 50.757415)scale(0.1 -0.1)">
       <use xlink:href="#DejaVuSans-51"/>
       <use x="63.623047" xlink:href="#DejaVuSans-50"/>
       <use x="127.246094" xlink:href="#DejaVuSans-53"/>
       <use x="190.869141" xlink:href="#DejaVuSans-48"/>
       <use x="254.492188" xlink:href="#DejaVuSans-48"/>
      </g>
     </g>
    </g>
    <g id="text_13">
     <!-- Reached region coverage -->
     <g transform="translate(14.798438 219.136625)rotate(-90)scale(0.1 -0.1)">
      <defs>
       <path d="M 44.390625 34.1875 
Q 47.5625 33.109375 50.5625 29.59375 
Q 53.5625 26.078125 56.59375 19.921875 
L 66.609375 0 
L 56 0 
L 46.6875 18.703125 
Q 43.0625 26.03125 39.671875 28.421875 
Q 36.28125 30.8125 30.421875 30.8125 
L 19.671875 30.8125 
L 19.671875 0 
L 9.8125 0 
L 9.8125 72.90625 
L 32.078125 72.90625 
Q 44.578125 72.90625 50.734375 67.671875 
Q 56.890625 62.453125 56.890625 51.90625 
Q 56.890625 45.015625 53.6875 40.46875 
Q 50.484375 35.9375 44.390625 34.1875 
z
M 19.671875 64.796875 
L 19.671875 38.921875 
L 32.078125 38.921875 
Q 39.203125 38.921875 42.84375 42.21875 
Q 46.484375 45.515625 46.484375 51.90625 
Q 46.484375 58.296875 42.84375 61.546875 
Q 39.203125 64.796875 32.078125 64.796875 
z
" id="DejaVuSans-82"/>
      </defs>
      <use xlink:href="#DejaVuSans-82"/>
      <use x="64.982422" xlink:href="#DejaVuSans-101"/>
      <use x="126.505859" xlink:href="#DejaVuSans-97"/>
      <use x="187.785156" xlink:href="#DejaVuSans-99"/>
      <use x="242.765625" xlink:href="#DejaVuSans-104"/>
      <use x="306.144531" xlink:href="#DejaVuSans-101"/>
      <use x="367.667969" xlink:href="#DejaVuSans-100"/>
      <use x="431.144531" xlink:href="#DejaVuSans-32"/>
      <use x="462.931641" xlink:href="#DejaVuSans-114"/>
      <use x="501.794922" xlink:href="#DejaVuSans-101"/>
      <use x="563.318359" xlink:href="#DejaVuSans-103"/>
      <use x="626.794922" xlink:href="#DejaVuSans-105"/>
      <use x="654.578125" xlink:href="#DejaVuSans-111"/>
      <use x="715.759766" xlink:href="#DejaVuSans-110"/>
      <use x="779.138672" xlink:href="#DejaVuSans-32"/>
      <use x="810.925781" xlink:href="#DejaVuSans-99"/>
      <use x="865.90625" xlink:href="#DejaVuSans-111"/>
      <use x="927.087891" xlink:href="#DejaVuSans-118"/>
      <use x="986.267578" xlink:href="#DejaVuSans-101"/>
      <use x="1047.791016" xlink:href="#DejaVuSans-114"/>
      <use x="1088.904297" xlink:href="#DejaVuSans-97"/>
      <use x="1150.183594" xlink:href="#DejaVuSans-103"/>
      <use x="1213.660156" xlink:href="#DejaVuSans-101"/>
     </g>
    </g>
   </g>
   <g id="line2d_12">
    <path clip-path="url(#p24583f7bea)" d="M 104.330625 142.455096 
L 104.330625 74.001182 
" style="fill:none;stroke:#3f3f3f;stroke-linecap:square;stroke-width:1.5;"/>
   </g>
   <g id="line2d_13">
    <path clip-path="url(#p24583f7bea)" d="M 104.330625 131.559768 
L 104.330625 96.949377 
" style="fill:none;stroke:#3f3f3f;stroke-linecap:square;stroke-width:4.5;"/>
   </g>
   <g id="line2d_14">
    <path clip-path="url(#p24583f7bea)" d="M 193.610625 157.445216 
L 193.610625 93.621454 
" style="fill:none;stroke:#3f3f3f;stroke-linecap:square;stroke-width:1.5;"/>
   </g>
   <g id="line2d_15">
    <path clip-path="url(#p24583f7bea)" d="M 193.610625 136.826567 
L 193.610625 118.349364 
" style="fill:none;stroke:#3f3f3f;stroke-linecap:square;stroke-width:4.5;"/>
   </g>
   <g id="line2d_16">
    <path clip-path="url(#p24583f7bea)" d="M 282.890625 217.029493 
L 282.890625 184.31457 
" style="fill:none;stroke:#3f3f3f;stroke-linecap:square;stroke-width:1.5;"/>
   </g>
   <g id="line2d_17">
    <path clip-path="url(#p24583f7bea)" d="M 282.890625 209.447618 
L 282.890625 184.31457 
" style="fill:none;stroke:#3f3f3f;stroke-linecap:square;stroke-width:4.5;"/>
   </g>
   <g id="line2d_18">
    <path clip-path="url(#p24583f7bea)" d="M 372.170625 231.050174 
L 372.170625 220.979592 
" style="fill:none;stroke:#3f3f3f;stroke-linecap:square;stroke-width:1.5;"/>
   </g>
   <g id="line2d_19">
    <path clip-path="url(#p24583f7bea)" d="M 372.170625 231.050174 
L 372.170625 223.135507 
" style="fill:none;stroke:#3f3f3f;stroke-linecap:square;stroke-width:4.5;"/>
   </g>
   <g id="patch_3">
    <path d="M 59.690625 263.996605 
L 59.690625 46.958197 
" style="fill:none;stroke:#000000;stroke-linecap:square;stroke-linejoin:miter;stroke-width:0.8;"/>
   </g>
   <g id="patch_4">
    <path d="M 104.330625 288.430125 
L 372.170625 288.430125 
" style="fill:none;stroke:#000000;stroke-linecap:square;stroke-linejoin:miter;stroke-width:0.8;"/>
   </g>
   <g id="PathCollection_1">
    <defs>
     <path d="M 0 1.5 
C 0.397805 1.5 0.77937 1.341951 1.06066 1.06066 
C 1.341951 0.77937 1.5 0.397805 1.5 0 
C 1.5 -0.397805 1.341951 -0.77937 1.06066 -1.06066 
C 0.77937 -1.341951 0.397805 -1.5 0 -1.5 
C -0.397805 -1.5 -0.77937 -1.341951 -1.06066 -1.06066 
C -1.341951 -0.77937 -1.5 -0.397805 -1.5 0 
C -1.5 0.397805 -1.341951 0.77937 -1.06066 1.06066 
C -0.77937 1.341951 -0.397805 1.5 0 1.5 
z
" id="m99792572bb" style="stroke:#3f3f3f;"/>
    </defs>
    <g clip-path="url(#p24583f7bea)">
     <use style="fill:#ffffff;stroke:#3f3f3f;" x="104.330625" xlink:href="#m99792572bb" y="108.727328"/>
    </g>
   </g>
   <g id="PathCollection_2">
    <g clip-path="url(#p24583f7bea)">
     <use style="fill:#ffffff;stroke:#3f3f3f;" x="193.610625" xlink:href="#m99792572bb" y="128.868492"/>
    </g>
   </g>
   <g id="PathCollection_3">
    <g clip-path="url(#p24583f7bea)">
     <use style="fill:#ffffff;stroke:#3f3f3f;" x="282.890625" xlink:href="#m99792572bb" y="197.901175"/>
    </g>
   </g>
   <g id="PathCollection_4">
    <g clip-path="url(#p24583f7bea)">
     <use style="fill:#ffffff;stroke:#3f3f3f;" x="372.170625" xlink:href="#m99792572bb" y="228.098452"/>
    </g>
   </g>
   <g id="text_14">
    <!-- sqlite3_ossfuzz (7h:15m, 5 trials/fuzzer) -->
    <g transform="translate(118.390313 16.318125)scale(0.12 -0.12)">
     <defs>
      <path d="M 14.796875 27.296875 
Q 14.796875 17.390625 18.875 11.75 
Q 22.953125 6.109375 30.078125 6.109375 
Q 37.203125 6.109375 41.296875 11.75 
Q 45.40625 17.390625 45.40625 27.296875 
Q 45.40625 37.203125 41.296875 42.84375 
Q 37.203125 48.484375 30.078125 48.484375 
Q 22.953125 48.484375 18.875 42.84375 
Q 14.796875 37.203125 14.796875 27.296875 
z
M 45.40625 8.203125 
Q 42.578125 3.328125 38.25 0.953125 
Q 33.9375 -1.421875 27.875 -1.421875 
Q 17.96875 -1.421875 11.734375 6.484375 
Q 5.515625 14.40625 5.515625 27.296875 
Q 5.515625 40.1875 11.734375 48.09375 
Q 17.96875 56 27.875 56 
Q 33.9375 56 38.25 53.625 
Q 42.578125 51.265625 45.40625 46.390625 
L 45.40625 54.6875 
L 54.390625 54.6875 
L 54.390625 -20.796875 
L 45.40625 -20.796875 
z
" id="DejaVuSans-113"/>
      <path d="M 50.984375 -16.609375 
L 50.984375 -23.578125 
L -0.984375 -23.578125 
L -0.984375 -16.609375 
z
" id="DejaVuSans-95"/>
      <path d="M 11.71875 12.40625 
L 22.015625 12.40625 
L 22.015625 0 
L 11.71875 0 
z
M 11.71875 51.703125 
L 22.015625 51.703125 
L 22.015625 39.3125 
L 11.71875 39.3125 
z
" id="DejaVuSans-58"/>
      <path d="M 11.71875 12.40625 
L 22.015625 12.40625 
L 22.015625 4 
L 14.015625 -11.625 
L 7.71875 -11.625 
L 11.71875 4 
z
" id="DejaVuSans-44"/>
      <path d="M 25.390625 72.90625 
L 33.6875 72.90625 
L 8.296875 -9.28125 
L 0 -9.28125 
z
" id="DejaVuSans-47"/>
     </defs>
     <use xlink:href="#DejaVuSans-115"/>
     <use x="52.099609" xlink:href="#DejaVuSans-113"/>
     <use x="115.576172" xlink:href="#DejaVuSans-108"/>
     <use x="143.359375" xlink:href="#DejaVuSans-105"/>
     <use x="171.142578" xlink:href="#DejaVuSans-116"/>
     <use x="210.351562" xlink:href="#DejaVuSans-101"/>
     <use x="271.875" xlink:href="#DejaVuSans-51"/>
     <use x="335.498047" xlink:href="#DejaVuSans-95"/>
     <use x="385.498047" xlink:href="#DejaVuSans-111"/>
     <use x="446.679688" xlink:href="#DejaVuSans-115"/>
     <use x="498.779297" xlink:href="#DejaVuSans-115"/>
     <use x="550.878906" xlink:href="#DejaVuSans-102"/>
     <use x="586.083984" xlink:href="#DejaVuSans-117"/>
     <use x="649.462891" xlink:href="#DejaVuSans-122"/>
     <use x="701.953125" xlink:href="#DejaVuSans-122"/>
     <use x="754.443359" xlink:href="#DejaVuSans-32"/>
     <use x="786.230469" xlink:href="#DejaVuSans-40"/>
     <use x="825.244141" xlink:href="#DejaVuSans-55"/>
     <use x="888.867188" xlink:href="#DejaVuSans-104"/>
     <use x="952.246094" xlink:href="#DejaVuSans-58"/>
     <use x="985.9375" xlink:href="#DejaVuSans-49"/>
     <use x="1049.560547" xlink:href="#DejaVuSans-53"/>
     <use x="1113.183594" xlink:href="#DejaVuSans-109"/>
     <use x="1210.595703" xlink:href="#DejaVuSans-44"/>
     <use x="1242.382812" xlink:href="#DejaVuSans-32"/>
     <use x="1274.169922" xlink:href="#DejaVuSans-53"/>
     <use x="1337.792969" xlink:href="#DejaVuSans-32"/>
     <use x="1369.580078" xlink:href="#DejaVuSans-116"/>
     <use x="1408.789062" xlink:href="#DejaVuSans-114"/>
     <use x="1449.902344" xlink:href="#DejaVuSans-105"/>
     <use x="1477.685547" xlink:href="#DejaVuSans-97"/>
     <use x="1538.964844" xlink:href="#DejaVuSans-108"/>
     <use x="1566.748047" xlink:href="#DejaVuSans-115"/>
     <use x="1618.847656" xlink:href="#DejaVuSans-47"/>
     <use x="1652.539062" xlink:href="#DejaVuSans-102"/>
     <use x="1687.744141" xlink:href="#DejaVuSans-117"/>
     <use x="1751.123047" xlink:href="#DejaVuSans-122"/>
     <use x="1803.613281" xlink:href="#DejaVuSans-122"/>
     <use x="1856.103516" xlink:href="#DejaVuSans-101"/>
     <use x="1917.626953" xlink:href="#DejaVuSans-114"/>
     <use x="1958.740234" xlink:href="#DejaVuSans-41"/>
    </g>
   </g>
  </g>
 </g>
 <defs>
  <clipPath id="p24583f7bea">
   <rect height="266.112" width="357.12" x="59.690625" y="22.318125"/>
  </clipPath>
 </defs>
</svg>
