<?xml version="1.0" encoding="utf-8" standalone="no"?>
<!DOCTYPE svg PUBLIC "-//W3C//DTD SVG 1.1//EN"
  "http://www.w3.org/Graphics/SVG/1.1/DTD/svg11.dtd">
<!-- Created with matplotlib (https://matplotlib.org/) -->
<svg height="325.986375pt" version="1.1" viewBox="0 0 890.186875 325.986375" width="890.186875pt" xmlns="http://www.w3.org/2000/svg" xmlns:xlink="http://www.w3.org/1999/xlink">
 <metadata>
  <rdf:RDF xmlns:cc="http://creativecommons.org/ns#" xmlns:dc="http://purl.org/dc/elements/1.1/" xmlns:rdf="http://www.w3.org/1999/02/22-rdf-syntax-ns#">
   <cc:Work>
    <dc:type rdf:resource="http://purl.org/dc/dcmitype/StillImage"/>
    <dc:date>2020-10-26T22:26:47.243156</dc:date>
    <dc:format>image/svg+xml</dc:format>
    <dc:creator>
     <cc:Agent>
      <dc:title>Matplotlib v3.3.2, https://matplotlib.org/</dc:title>
     </cc:Agent>
    </dc:creator>
   </cc:Work>
  </rdf:RDF>
 </metadata>
 <defs>
  <style type="text/css">*{stroke-linecap:butt;stroke-linejoin:round;}</style>
 </defs>
 <g id="figure_1">
  <g id="patch_1">
   <path d="M 0 325.986375 
L 890.186875 325.986375 
L 890.186875 0 
L 0 0 
z
" style="fill:#ffffff;"/>
  </g>
  <g id="axes_1">
   <g id="patch_2">
    <path d="M 59.690625 288.430125 
L 773.930625 288.430125 
L 773.930625 22.318125 
L 59.690625 22.318125 
z
" style="fill:#ffffff;"/>
   </g>
   <g id="PolyCollection_1">
    <defs>
     <path d="M 92.15608 -74.488227 
L 92.15608 -57.628425 
L 105.971167 -70.204435 
L 119.786254 -78.292008 
L 133.601341 -91.711008 
L 147.416428 -96.436008 
L 161.231515 -103.651803 
L 175.046602 -105.178823 
L 188.861689 -113.884088 
L 202.676776 -115.561306 
L 216.491863 -119.960876 
L 230.30695 -123.296851 
L 244.122037 -131.563724 
L 257.937124 -136.357565 
L 271.752211 -139.830909 
L 285.567298 -143.154055 
L 299.382385 -147.791439 
L 313.197472 -152.901323 
L 327.012559 -154.418955 
L 340.827646 -156.634386 
L 354.642733 -157.465954 
L 368.45782 -167.436487 
L 382.272907 -169.682896 
L 396.087994 -173.491058 
L 409.903081 -173.763293 
L 423.718169 -182.790859 
L 437.533256 -188.938601 
L 451.348343 -191.737068 
L 465.16343 -194.478194 
L 478.978517 -201.207329 
L 492.793604 -203.186588 
L 506.608691 -205.968392 
L 520.423778 -209.958045 
L 534.238865 -207.858392 
L 548.053952 -214.285488 
L 561.869039 -219.526952 
L 575.684126 -222.243045 
L 589.499213 -225.707002 
L 603.3143 -226.855396 
L 617.129387 -230.031472 
L 630.944474 -231.254965 
L 644.759561 -235.144485 
L 658.574648 -234.571853 
L 672.389735 -238.674154 
L 686.204822 -240.329469 
L 700.019909 -242.391571 
L 713.834996 -244.760329 
L 727.650083 -246.213032 
L 741.46517 -249.491588 
L 741.46517 -291.00173 
L 741.46517 -291.00173 
L 727.650083 -291.57225 
L 713.834996 -291.544088 
L 700.019909 -286.872283 
L 686.204822 -286.061836 
L 672.389735 -284.434684 
L 658.574648 -280.126407 
L 644.759561 -275.441538 
L 630.944474 -271.796091 
L 617.129387 -269.521207 
L 603.3143 -267.014767 
L 589.499213 -265.487747 
L 575.684126 -264.678473 
L 561.869039 -262.270992 
L 548.053952 -260.262084 
L 534.238865 -258.077945 
L 520.423778 -255.718575 
L 506.608691 -255.430694 
L 492.793604 -249.78205 
L 478.978517 -248.014634 
L 465.16343 -244.444286 
L 451.348343 -242.444767 
L 437.533256 -234.822184 
L 423.718169 -230.963955 
L 409.903081 -228.495065 
L 396.087994 -222.953359 
L 382.272907 -221.783061 
L 368.45782 -218.788397 
L 354.642733 -215.186836 
L 340.827646 -214.510942 
L 327.012559 -208.437283 
L 313.197472 -208.240147 
L 299.382385 -200.880099 
L 285.567298 -192.851041 
L 271.752211 -183.053707 
L 257.937124 -180.372035 
L 244.122037 -177.474452 
L 230.30695 -165.424137 
L 216.491863 -157.385379 
L 202.676776 -138.175594 
L 188.861689 -135.093392 
L 175.046602 -129.827051 
L 161.231515 -126.926339 
L 147.416428 -124.507515 
L 133.601341 -120.098558 
L 119.786254 -99.903094 
L 105.971167 -90.074469 
L 92.15608 -74.488227 
z
" id="m22a7f58731" style="stroke:#c7c7c7;stroke-opacity:0.2;"/>
    </defs>
    <g clip-path="url(#pf7d6f85e13)">
     <use style="fill:#c7c7c7;fill-opacity:0.2;stroke:#c7c7c7;stroke-opacity:0.2;" x="0" xlink:href="#m22a7f58731" y="325.986375"/>
    </g>
   </g>
   <g id="PolyCollection_2">
    <defs>
     <path d="M 92.15608 -78.355843 
L 92.15608 -68.683674 
L 105.971167 -81.037515 
L 119.786254 -89.830396 
L 133.601341 -100.920065 
L 147.416428 -103.766329 
L 161.231515 -106.3898 
L 175.046602 -110.754949 
L 188.861689 -112.31811 
L 202.676776 -114.509916 
L 216.491863 -116.462498 
L 230.30695 -119.084717 
L 244.122037 -119.901266 
L 257.937124 -121.365859 
L 271.752211 -124.848591 
L 285.567298 -131.222647 
L 299.382385 -137.374535 
L 313.197472 -140.594419 
L 327.012559 -142.812978 
L 340.827646 -146.167416 
L 354.642733 -148.764601 
L 368.45782 -152.291141 
L 382.272907 -154.425214 
L 396.087994 -160.032631 
L 409.903081 -163.505975 
L 423.718169 -170.017714 
L 437.533256 -175.218343 
L 451.348343 -180.009055 
L 465.16343 -184.439916 
L 478.978517 -185.719733 
L 492.793604 -187.418856 
L 506.608691 -194.401373 
L 520.423778 -198.259602 
L 534.238865 -202.23134 
L 548.053952 -204.232346 
L 561.869039 -210.405512 
L 575.684126 -210.70278 
L 589.499213 -215.117995 
L 603.3143 -217.790906 
L 617.129387 -218.838541 
L 630.944474 -220.328012 
L 644.759561 -224.308276 
L 658.574648 -228.463773 
L 672.389735 -233.714469 
L 686.204822 -236.874899 
L 700.019909 -239.67055 
L 713.834996 -240.974071 
L 727.650083 -242.113078 
L 741.46517 -243.784038 
L 741.46517 -263.62278 
L 741.46517 -263.62278 
L 727.650083 -262.271696 
L 713.834996 -260.3497 
L 700.019909 -259.069882 
L 686.204822 -257.80571 
L 672.389735 -254.460661 
L 658.574648 -253.550081 
L 644.759561 -251.829055 
L 630.944474 -250.264485 
L 617.129387 -248.627945 
L 603.3143 -246.674111 
L 589.499213 -245.658392 
L 575.684126 -243.455478 
L 561.869039 -242.675932 
L 548.053952 -239.090329 
L 534.238865 -235.094419 
L 520.423778 -232.403359 
L 506.608691 -228.723492 
L 492.793604 -227.155793 
L 478.978517 -224.852747 
L 465.16343 -225.744551 
L 451.348343 -223.181786 
L 437.533256 -221.304303 
L 423.718169 -214.991969 
L 409.903081 -213.888243 
L 396.087994 -211.603972 
L 382.272907 -208.240147 
L 368.45782 -205.642962 
L 354.642733 -204.475793 
L 340.827646 -201.740925 
L 327.012559 -196.152283 
L 313.197472 -193.551969 
L 299.382385 -190.404055 
L 285.567298 -185.2222 
L 271.752211 -184.780992 
L 257.937124 -177.105214 
L 244.122037 -172.411505 
L 230.30695 -157.52932 
L 216.491863 -147.20629 
L 202.676776 -141.758459 
L 188.861689 -136.197978 
L 175.046602 -133.804187 
L 161.231515 -130.415329 
L 147.416428 -122.339022 
L 133.601341 -113.758922 
L 119.786254 -101.5182 
L 105.971167 -89.630131 
L 92.15608 -78.355843 
z
" id="m86e5a03d45" style="stroke:#d62728;stroke-opacity:0.2;"/>
    </defs>
    <g clip-path="url(#pf7d6f85e13)">
     <use style="fill:#d62728;fill-opacity:0.2;stroke:#d62728;stroke-opacity:0.2;" x="0" xlink:href="#m86e5a03d45" y="325.986375"/>
    </g>
   </g>
   <g id="PolyCollection_3">
    <defs>
     <path d="M 92.15608 -73.499419 
L 92.15608 -49.65225 
L 105.971167 -70.248243 
L 119.786254 -79.072416 
L 133.601341 -83.741091 
L 147.416428 -90.909949 
L 161.231515 -98.085065 
L 175.046602 -99.684055 
L 188.861689 -100.084584 
L 202.676776 -101.423856 
L 216.491863 -101.295561 
L 230.30695 -103.595478 
L 244.122037 -104.903459 
L 257.937124 -107.644584 
L 271.752211 -107.644584 
L 285.567298 -107.694651 
L 299.382385 -109.127796 
L 313.197472 -109.343707 
L 327.012559 -111.800081 
L 340.827646 -112.225644 
L 354.642733 -112.801406 
L 368.45782 -113.514849 
L 382.272907 -114.907316 
L 396.087994 -113.977962 
L 409.903081 -115.179551 
L 423.718169 -114.656985 
L 437.533256 -115.51124 
L 451.348343 -115.580081 
L 465.16343 -115.623889 
L 478.978517 -115.792863 
L 492.793604 -118.662283 
L 506.608691 -118.530859 
L 520.423778 -118.721737 
L 534.238865 -119.978634 
L 548.053952 -119.300627 
L 561.869039 -119.906663 
L 575.684126 -119.6198 
L 589.499213 -122.227781 
L 603.3143 -120.05475 
L 617.129387 -120.536637 
L 630.944474 -120.079783 
L 644.759561 -120.621124 
L 658.574648 -120.226853 
L 672.389735 -120.251886 
L 686.204822 -120.815131 
L 700.019909 -120.470925 
L 713.834996 -120.892655 
L 727.650083 -120.758806 
L 741.46517 -121.306406 
L 741.46517 -210.15831 
L 741.46517 -210.15831 
L 727.650083 -203.36002 
L 713.834996 -208.800263 
L 700.019909 -205.524055 
L 686.204822 -201.321621 
L 672.389735 -200.310909 
L 658.574648 -198.005985 
L 644.759561 -197.925019 
L 630.944474 -198.740081 
L 617.129387 -198.699402 
L 603.3143 -197.920247 
L 589.499213 -196.524651 
L 575.684126 -195.501422 
L 561.869039 -194.021339 
L 548.053952 -191.142531 
L 534.238865 -189.283823 
L 520.423778 -188.135429 
L 506.608691 -186.78677 
L 492.793604 -185.093906 
L 478.978517 -182.869088 
L 465.16343 -179.95273 
L 451.348343 -172.120495 
L 437.533256 -171.275627 
L 423.718169 -168.766918 
L 409.903081 -166.387912 
L 396.087994 -161.975826 
L 382.272907 -159.322316 
L 368.45782 -158.577581 
L 354.642733 -155.555693 
L 340.827646 -153.358177 
L 327.012559 -151.940677 
L 313.197472 -143.1697 
L 299.382385 -139.954119 
L 285.567298 -138.353955 
L 271.752211 -136.1573 
L 257.937124 -135.525214 
L 244.122037 -132.177035 
L 230.30695 -130.17595 
L 216.491863 -126.56023 
L 202.676776 -121.056075 
L 188.861689 -119.570907 
L 175.046602 -120.098558 
L 161.231515 -116.812962 
L 147.416428 -110.304353 
L 133.601341 -105.773359 
L 119.786254 -100.916935 
L 105.971167 -88.527187 
L 92.15608 -73.499419 
z
" id="m5c85900fe2" style="stroke:#1f77b4;stroke-opacity:0.2;"/>
    </defs>
    <g clip-path="url(#pf7d6f85e13)">
     <use style="fill:#1f77b4;fill-opacity:0.2;stroke:#1f77b4;stroke-opacity:0.2;" x="0" xlink:href="#m5c85900fe2" y="325.986375"/>
    </g>
   </g>
   <g id="PolyCollection_4">
    <defs>
     <path d="M 92.15608 -59.377614 
L 92.15608 -52.429048 
L 105.971167 -57.243541 
L 119.786254 -62.522399 
L 133.601341 -67.331886 
L 147.416428 -73.286637 
L 161.231515 -73.856141 
L 175.046602 -73.474386 
L 188.861689 -74.034502 
L 202.676776 -74.463194 
L 216.491863 -76.353194 
L 230.30695 -76.853856 
L 244.122037 -77.454651 
L 257.937124 -77.864568 
L 271.752211 -78.750114 
L 285.567298 -80.574402 
L 299.382385 -81.888641 
L 313.197472 -83.365594 
L 327.012559 -83.734833 
L 340.827646 -84.651671 
L 354.642733 -85.402664 
L 368.45782 -85.167978 
L 382.272907 -85.424568 
L 396.087994 -85.412051 
L 409.903081 -86.457184 
L 423.718169 -84.839419 
L 437.533256 -86.90778 
L 451.348343 -87.502394 
L 465.16343 -86.882747 
L 478.978517 -87.676375 
L 492.793604 -87.142465 
L 506.608691 -87.364634 
L 520.423778 -88.012366 
L 534.238865 -87.586803 
L 548.053952 -88.538061 
L 561.869039 -88.598923 
L 575.684126 -89.113823 
L 589.499213 -89.546896 
L 603.3143 -89.589452 
L 617.129387 -90.410225 
L 630.944474 -89.630131 
L 644.759561 -89.698972 
L 658.574648 -89.761555 
L 672.389735 -89.993111 
L 686.204822 -93.144154 
L 700.019909 -92.202205 
L 713.834996 -93.150412 
L 727.650083 -92.465131 
L 741.46517 -93.356935 
L 741.46517 -112.306141 
L 741.46517 -112.306141 
L 727.650083 -113.067382 
L 713.834996 -112.74821 
L 700.019909 -112.704402 
L 686.204822 -110.077959 
L 672.389735 -108.680329 
L 658.574648 -108.508227 
L 644.759561 -108.464419 
L 630.944474 -107.22528 
L 617.129387 -106.818492 
L 603.3143 -105.80778 
L 589.499213 -105.970495 
L 575.684126 -104.981687 
L 561.869039 -104.333955 
L 548.053952 -104.080495 
L 534.238865 -102.434568 
L 520.423778 -102.409535 
L 506.608691 -102.121654 
L 492.793604 -101.584381 
L 478.978517 -101.633508 
L 465.16343 -101.554185 
L 451.348343 -101.076522 
L 437.533256 -100.547697 
L 423.718169 -100.072068 
L 409.903081 -99.840512 
L 396.087994 -99.583922 
L 382.272907 -99.245975 
L 368.45782 -98.698376 
L 354.642733 -98.341654 
L 340.827646 -97.947382 
L 327.012559 -97.390396 
L 313.197472 -97.165098 
L 299.382385 -95.544204 
L 285.567298 -94.680561 
L 271.752211 -94.681031 
L 257.937124 -94.361389 
L 244.122037 -92.988245 
L 230.30695 -92.180379 
L 216.491863 -91.263541 
L 202.676776 -87.995156 
L 188.861689 -87.34273 
L 175.046602 -86.804518 
L 161.231515 -86.219369 
L 147.416428 -82.068957 
L 133.601341 -76.603525 
L 119.786254 -71.340313 
L 105.971167 -69.711596 
L 92.15608 -59.377614 
z
" id="m0c991851e6" style="stroke:#98df8a;stroke-opacity:0.2;"/>
    </defs>
    <g clip-path="url(#pf7d6f85e13)">
     <use style="fill:#98df8a;fill-opacity:0.2;stroke:#98df8a;stroke-opacity:0.2;" x="0" xlink:href="#m0c991851e6" y="325.986375"/>
    </g>
   </g>
   <g id="matplotlib.axis_1">
    <g id="xtick_1">
     <g id="line2d_1">
      <defs>
       <path d="M 0 0 
L 0 3.5 
" id="m02bdb6a501" style="stroke:#000000;stroke-width:0.8;"/>
      </defs>
      <g>
       <use style="stroke:#000000;stroke-width:0.8;" x="92.15608" xlink:href="#m02bdb6a501" y="288.430125"/>
      </g>
     </g>
     <g id="text_1">
      <!-- 15m -->
      <g transform="translate(80.923267 303.028562)scale(0.1 -0.1)">
       <defs>
        <path d="M 12.40625 8.296875 
L 28.515625 8.296875 
L 28.515625 63.921875 
L 10.984375 60.40625 
L 10.984375 69.390625 
L 28.421875 72.90625 
L 38.28125 72.90625 
L 38.28125 8.296875 
L 54.390625 8.296875 
L 54.390625 0 
L 12.40625 0 
z
" id="DejaVuSans-49"/>
        <path d="M 10.796875 72.90625 
L 49.515625 72.90625 
L 49.515625 64.59375 
L 19.828125 64.59375 
L 19.828125 46.734375 
Q 21.96875 47.46875 24.109375 47.828125 
Q 26.265625 48.1875 28.421875 48.1875 
Q 40.625 48.1875 47.75 41.5 
Q 54.890625 34.8125 54.890625 23.390625 
Q 54.890625 11.625 47.5625 5.09375 
Q 40.234375 -1.421875 26.90625 -1.421875 
Q 22.3125 -1.421875 17.546875 -0.640625 
Q 12.796875 0.140625 7.71875 1.703125 
L 7.71875 11.625 
Q 12.109375 9.234375 16.796875 8.0625 
Q 21.484375 6.890625 26.703125 6.890625 
Q 35.15625 6.890625 40.078125 11.328125 
Q 45.015625 15.765625 45.015625 23.390625 
Q 45.015625 31 40.078125 35.4375 
Q 35.15625 39.890625 26.703125 39.890625 
Q 22.75 39.890625 18.8125 39.015625 
Q 14.890625 38.140625 10.796875 36.28125 
z
" id="DejaVuSans-53"/>
        <path d="M 52 44.1875 
Q 55.375 50.25 60.0625 53.125 
Q 64.75 56 71.09375 56 
Q 79.640625 56 84.28125 50.015625 
Q 88.921875 44.046875 88.921875 33.015625 
L 88.921875 0 
L 79.890625 0 
L 79.890625 32.71875 
Q 79.890625 40.578125 77.09375 44.375 
Q 74.3125 48.1875 68.609375 48.1875 
Q 61.625 48.1875 57.5625 43.546875 
Q 53.515625 38.921875 53.515625 30.90625 
L 53.515625 0 
L 44.484375 0 
L 44.484375 32.71875 
Q 44.484375 40.625 41.703125 44.40625 
Q 38.921875 48.1875 33.109375 48.1875 
Q 26.21875 48.1875 22.15625 43.53125 
Q 18.109375 38.875 18.109375 30.90625 
L 18.109375 0 
L 9.078125 0 
L 9.078125 54.6875 
L 18.109375 54.6875 
L 18.109375 46.1875 
Q 21.1875 51.21875 25.484375 53.609375 
Q 29.78125 56 35.6875 56 
Q 41.65625 56 45.828125 52.96875 
Q 50 49.953125 52 44.1875 
z
" id="DejaVuSans-109"/>
       </defs>
       <use xlink:href="#DejaVuSans-49"/>
       <use x="63.623047" xlink:href="#DejaVuSans-53"/>
       <use x="127.246094" xlink:href="#DejaVuSans-109"/>
      </g>
     </g>
    </g>
    <g id="xtick_2">
     <g id="line2d_2">
      <g>
       <use style="stroke:#000000;stroke-width:0.8;" x="147.416428" xlink:href="#m02bdb6a501" y="288.430125"/>
      </g>
     </g>
     <g id="text_2">
      <!-- 1h:15m -->
      <g transform="translate(128.14924 303.028562)scale(0.1 -0.1)">
       <defs>
        <path d="M 54.890625 33.015625 
L 54.890625 0 
L 45.90625 0 
L 45.90625 32.71875 
Q 45.90625 40.484375 42.875 44.328125 
Q 39.84375 48.1875 33.796875 48.1875 
Q 26.515625 48.1875 22.3125 43.546875 
Q 18.109375 38.921875 18.109375 30.90625 
L 18.109375 0 
L 9.078125 0 
L 9.078125 75.984375 
L 18.109375 75.984375 
L 18.109375 46.1875 
Q 21.34375 51.125 25.703125 53.5625 
Q 30.078125 56 35.796875 56 
Q 45.21875 56 50.046875 50.171875 
Q 54.890625 44.34375 54.890625 33.015625 
z
" id="DejaVuSans-104"/>
        <path d="M 11.71875 12.40625 
L 22.015625 12.40625 
L 22.015625 0 
L 11.71875 0 
z
M 11.71875 51.703125 
L 22.015625 51.703125 
L 22.015625 39.3125 
L 11.71875 39.3125 
z
" id="DejaVuSans-58"/>
       </defs>
       <use xlink:href="#DejaVuSans-49"/>
       <use x="63.623047" xlink:href="#DejaVuSans-104"/>
       <use x="127.001953" xlink:href="#DejaVuSans-58"/>
       <use x="160.693359" xlink:href="#DejaVuSans-49"/>
       <use x="224.316406" xlink:href="#DejaVuSans-53"/>
       <use x="287.939453" xlink:href="#DejaVuSans-109"/>
      </g>
     </g>
    </g>
    <g id="xtick_3">
     <g id="line2d_3">
      <g>
       <use style="stroke:#000000;stroke-width:0.8;" x="202.676776" xlink:href="#m02bdb6a501" y="288.430125"/>
      </g>
     </g>
     <g id="text_3">
      <!-- 2h:15m -->
      <g transform="translate(183.409588 303.028562)scale(0.1 -0.1)">
       <defs>
        <path d="M 19.1875 8.296875 
L 53.609375 8.296875 
L 53.609375 0 
L 7.328125 0 
L 7.328125 8.296875 
Q 12.9375 14.109375 22.625 23.890625 
Q 32.328125 33.6875 34.8125 36.53125 
Q 39.546875 41.84375 41.421875 45.53125 
Q 43.3125 49.21875 43.3125 52.78125 
Q 43.3125 58.59375 39.234375 62.25 
Q 35.15625 65.921875 28.609375 65.921875 
Q 23.96875 65.921875 18.8125 64.3125 
Q 13.671875 62.703125 7.8125 59.421875 
L 7.8125 69.390625 
Q 13.765625 71.78125 18.9375 73 
Q 24.125 74.21875 28.421875 74.21875 
Q 39.75 74.21875 46.484375 68.546875 
Q 53.21875 62.890625 53.21875 53.421875 
Q 53.21875 48.921875 51.53125 44.890625 
Q 49.859375 40.875 45.40625 35.40625 
Q 44.1875 33.984375 37.640625 27.21875 
Q 31.109375 20.453125 19.1875 8.296875 
z
" id="DejaVuSans-50"/>
       </defs>
       <use xlink:href="#DejaVuSans-50"/>
       <use x="63.623047" xlink:href="#DejaVuSans-104"/>
       <use x="127.001953" xlink:href="#DejaVuSans-58"/>
       <use x="160.693359" xlink:href="#DejaVuSans-49"/>
       <use x="224.316406" xlink:href="#DejaVuSans-53"/>
       <use x="287.939453" xlink:href="#DejaVuSans-109"/>
      </g>
     </g>
    </g>
    <g id="xtick_4">
     <g id="line2d_4">
      <g>
       <use style="stroke:#000000;stroke-width:0.8;" x="257.937124" xlink:href="#m02bdb6a501" y="288.430125"/>
      </g>
     </g>
     <g id="text_4">
      <!-- 3h:15m -->
      <g transform="translate(238.669937 303.028562)scale(0.1 -0.1)">
       <defs>
        <path d="M 40.578125 39.3125 
Q 47.65625 37.796875 51.625 33 
Q 55.609375 28.21875 55.609375 21.1875 
Q 55.609375 10.40625 48.1875 4.484375 
Q 40.765625 -1.421875 27.09375 -1.421875 
Q 22.515625 -1.421875 17.65625 -0.515625 
Q 12.796875 0.390625 7.625 2.203125 
L 7.625 11.71875 
Q 11.71875 9.328125 16.59375 8.109375 
Q 21.484375 6.890625 26.8125 6.890625 
Q 36.078125 6.890625 40.9375 10.546875 
Q 45.796875 14.203125 45.796875 21.1875 
Q 45.796875 27.640625 41.28125 31.265625 
Q 36.765625 34.90625 28.71875 34.90625 
L 20.21875 34.90625 
L 20.21875 43.015625 
L 29.109375 43.015625 
Q 36.375 43.015625 40.234375 45.921875 
Q 44.09375 48.828125 44.09375 54.296875 
Q 44.09375 59.90625 40.109375 62.90625 
Q 36.140625 65.921875 28.71875 65.921875 
Q 24.65625 65.921875 20.015625 65.03125 
Q 15.375 64.15625 9.8125 62.3125 
L 9.8125 71.09375 
Q 15.4375 72.65625 20.34375 73.4375 
Q 25.25 74.21875 29.59375 74.21875 
Q 40.828125 74.21875 47.359375 69.109375 
Q 53.90625 64.015625 53.90625 55.328125 
Q 53.90625 49.265625 50.4375 45.09375 
Q 46.96875 40.921875 40.578125 39.3125 
z
" id="DejaVuSans-51"/>
       </defs>
       <use xlink:href="#DejaVuSans-51"/>
       <use x="63.623047" xlink:href="#DejaVuSans-104"/>
       <use x="127.001953" xlink:href="#DejaVuSans-58"/>
       <use x="160.693359" xlink:href="#DejaVuSans-49"/>
       <use x="224.316406" xlink:href="#DejaVuSans-53"/>
       <use x="287.939453" xlink:href="#DejaVuSans-109"/>
      </g>
     </g>
    </g>
    <g id="xtick_5">
     <g id="line2d_5">
      <g>
       <use style="stroke:#000000;stroke-width:0.8;" x="313.197472" xlink:href="#m02bdb6a501" y="288.430125"/>
      </g>
     </g>
     <g id="text_5">
      <!-- 4h:15m -->
      <g transform="translate(293.930285 303.028562)scale(0.1 -0.1)">
       <defs>
        <path d="M 37.796875 64.3125 
L 12.890625 25.390625 
L 37.796875 25.390625 
z
M 35.203125 72.90625 
L 47.609375 72.90625 
L 47.609375 25.390625 
L 58.015625 25.390625 
L 58.015625 17.1875 
L 47.609375 17.1875 
L 47.609375 0 
L 37.796875 0 
L 37.796875 17.1875 
L 4.890625 17.1875 
L 4.890625 26.703125 
z
" id="DejaVuSans-52"/>
       </defs>
       <use xlink:href="#DejaVuSans-52"/>
       <use x="63.623047" xlink:href="#DejaVuSans-104"/>
       <use x="127.001953" xlink:href="#DejaVuSans-58"/>
       <use x="160.693359" xlink:href="#DejaVuSans-49"/>
       <use x="224.316406" xlink:href="#DejaVuSans-53"/>
       <use x="287.939453" xlink:href="#DejaVuSans-109"/>
      </g>
     </g>
    </g>
    <g id="xtick_6">
     <g id="line2d_6">
      <g>
       <use style="stroke:#000000;stroke-width:0.8;" x="368.45782" xlink:href="#m02bdb6a501" y="288.430125"/>
      </g>
     </g>
     <g id="text_6">
      <!-- 5h:15m -->
      <g transform="translate(349.190633 303.028562)scale(0.1 -0.1)">
       <use xlink:href="#DejaVuSans-53"/>
       <use x="63.623047" xlink:href="#DejaVuSans-104"/>
       <use x="127.001953" xlink:href="#DejaVuSans-58"/>
       <use x="160.693359" xlink:href="#DejaVuSans-49"/>
       <use x="224.316406" xlink:href="#DejaVuSans-53"/>
       <use x="287.939453" xlink:href="#DejaVuSans-109"/>
      </g>
     </g>
    </g>
    <g id="xtick_7">
     <g id="line2d_7">
      <g>
       <use style="stroke:#000000;stroke-width:0.8;" x="423.718169" xlink:href="#m02bdb6a501" y="288.430125"/>
      </g>
     </g>
     <g id="text_7">
      <!-- 6h:15m -->
      <g transform="translate(404.450981 303.028562)scale(0.1 -0.1)">
       <defs>
        <path d="M 33.015625 40.375 
Q 26.375 40.375 22.484375 35.828125 
Q 18.609375 31.296875 18.609375 23.390625 
Q 18.609375 15.53125 22.484375 10.953125 
Q 26.375 6.390625 33.015625 6.390625 
Q 39.65625 6.390625 43.53125 10.953125 
Q 47.40625 15.53125 47.40625 23.390625 
Q 47.40625 31.296875 43.53125 35.828125 
Q 39.65625 40.375 33.015625 40.375 
z
M 52.59375 71.296875 
L 52.59375 62.3125 
Q 48.875 64.0625 45.09375 64.984375 
Q 41.3125 65.921875 37.59375 65.921875 
Q 27.828125 65.921875 22.671875 59.328125 
Q 17.53125 52.734375 16.796875 39.40625 
Q 19.671875 43.65625 24.015625 45.921875 
Q 28.375 48.1875 33.59375 48.1875 
Q 44.578125 48.1875 50.953125 41.515625 
Q 57.328125 34.859375 57.328125 23.390625 
Q 57.328125 12.15625 50.6875 5.359375 
Q 44.046875 -1.421875 33.015625 -1.421875 
Q 20.359375 -1.421875 13.671875 8.265625 
Q 6.984375 17.96875 6.984375 36.375 
Q 6.984375 53.65625 15.1875 63.9375 
Q 23.390625 74.21875 37.203125 74.21875 
Q 40.921875 74.21875 44.703125 73.484375 
Q 48.484375 72.75 52.59375 71.296875 
z
" id="DejaVuSans-54"/>
       </defs>
       <use xlink:href="#DejaVuSans-54"/>
       <use x="63.623047" xlink:href="#DejaVuSans-104"/>
       <use x="127.001953" xlink:href="#DejaVuSans-58"/>
       <use x="160.693359" xlink:href="#DejaVuSans-49"/>
       <use x="224.316406" xlink:href="#DejaVuSans-53"/>
       <use x="287.939453" xlink:href="#DejaVuSans-109"/>
      </g>
     </g>
    </g>
    <g id="xtick_8">
     <g id="line2d_8">
      <g>
       <use style="stroke:#000000;stroke-width:0.8;" x="478.978517" xlink:href="#m02bdb6a501" y="288.430125"/>
      </g>
     </g>
     <g id="text_8">
      <!-- 7h:15m -->
      <g transform="translate(459.711329 303.028562)scale(0.1 -0.1)">
       <defs>
        <path d="M 8.203125 72.90625 
L 55.078125 72.90625 
L 55.078125 68.703125 
L 28.609375 0 
L 18.3125 0 
L 43.21875 64.59375 
L 8.203125 64.59375 
z
" id="DejaVuSans-55"/>
       </defs>
       <use xlink:href="#DejaVuSans-55"/>
       <use x="63.623047" xlink:href="#DejaVuSans-104"/>
       <use x="127.001953" xlink:href="#DejaVuSans-58"/>
       <use x="160.693359" xlink:href="#DejaVuSans-49"/>
       <use x="224.316406" xlink:href="#DejaVuSans-53"/>
       <use x="287.939453" xlink:href="#DejaVuSans-109"/>
      </g>
     </g>
    </g>
    <g id="xtick_9">
     <g id="line2d_9">
      <g>
       <use style="stroke:#000000;stroke-width:0.8;" x="534.238865" xlink:href="#m02bdb6a501" y="288.430125"/>
      </g>
     </g>
     <g id="text_9">
      <!-- 8h:15m -->
      <g transform="translate(514.971677 303.028562)scale(0.1 -0.1)">
       <defs>
        <path d="M 31.78125 34.625 
Q 24.75 34.625 20.71875 30.859375 
Q 16.703125 27.09375 16.703125 20.515625 
Q 16.703125 13.921875 20.71875 10.15625 
Q 24.75 6.390625 31.78125 6.390625 
Q 38.8125 6.390625 42.859375 10.171875 
Q 46.921875 13.96875 46.921875 20.515625 
Q 46.921875 27.09375 42.890625 30.859375 
Q 38.875 34.625 31.78125 34.625 
z
M 21.921875 38.8125 
Q 15.578125 40.375 12.03125 44.71875 
Q 8.5 49.078125 8.5 55.328125 
Q 8.5 64.0625 14.71875 69.140625 
Q 20.953125 74.21875 31.78125 74.21875 
Q 42.671875 74.21875 48.875 69.140625 
Q 55.078125 64.0625 55.078125 55.328125 
Q 55.078125 49.078125 51.53125 44.71875 
Q 48 40.375 41.703125 38.8125 
Q 48.828125 37.15625 52.796875 32.3125 
Q 56.78125 27.484375 56.78125 20.515625 
Q 56.78125 9.90625 50.3125 4.234375 
Q 43.84375 -1.421875 31.78125 -1.421875 
Q 19.734375 -1.421875 13.25 4.234375 
Q 6.78125 9.90625 6.78125 20.515625 
Q 6.78125 27.484375 10.78125 32.3125 
Q 14.796875 37.15625 21.921875 38.8125 
z
M 18.3125 54.390625 
Q 18.3125 48.734375 21.84375 45.5625 
Q 25.390625 42.390625 31.78125 42.390625 
Q 38.140625 42.390625 41.71875 45.5625 
Q 45.3125 48.734375 45.3125 54.390625 
Q 45.3125 60.0625 41.71875 63.234375 
Q 38.140625 66.40625 31.78125 66.40625 
Q 25.390625 66.40625 21.84375 63.234375 
Q 18.3125 60.0625 18.3125 54.390625 
z
" id="DejaVuSans-56"/>
       </defs>
       <use xlink:href="#DejaVuSans-56"/>
       <use x="63.623047" xlink:href="#DejaVuSans-104"/>
       <use x="127.001953" xlink:href="#DejaVuSans-58"/>
       <use x="160.693359" xlink:href="#DejaVuSans-49"/>
       <use x="224.316406" xlink:href="#DejaVuSans-53"/>
       <use x="287.939453" xlink:href="#DejaVuSans-109"/>
      </g>
     </g>
    </g>
    <g id="xtick_10">
     <g id="line2d_10">
      <g>
       <use style="stroke:#000000;stroke-width:0.8;" x="589.499213" xlink:href="#m02bdb6a501" y="288.430125"/>
      </g>
     </g>
     <g id="text_10">
      <!-- 9h:15m -->
      <g transform="translate(570.232026 303.028562)scale(0.1 -0.1)">
       <defs>
        <path d="M 10.984375 1.515625 
L 10.984375 10.5 
Q 14.703125 8.734375 18.5 7.8125 
Q 22.3125 6.890625 25.984375 6.890625 
Q 35.75 6.890625 40.890625 13.453125 
Q 46.046875 20.015625 46.78125 33.40625 
Q 43.953125 29.203125 39.59375 26.953125 
Q 35.25 24.703125 29.984375 24.703125 
Q 19.046875 24.703125 12.671875 31.3125 
Q 6.296875 37.9375 6.296875 49.421875 
Q 6.296875 60.640625 12.9375 67.421875 
Q 19.578125 74.21875 30.609375 74.21875 
Q 43.265625 74.21875 49.921875 64.515625 
Q 56.59375 54.828125 56.59375 36.375 
Q 56.59375 19.140625 48.40625 8.859375 
Q 40.234375 -1.421875 26.421875 -1.421875 
Q 22.703125 -1.421875 18.890625 -0.6875 
Q 15.09375 0.046875 10.984375 1.515625 
z
M 30.609375 32.421875 
Q 37.25 32.421875 41.125 36.953125 
Q 45.015625 41.5 45.015625 49.421875 
Q 45.015625 57.28125 41.125 61.84375 
Q 37.25 66.40625 30.609375 66.40625 
Q 23.96875 66.40625 20.09375 61.84375 
Q 16.21875 57.28125 16.21875 49.421875 
Q 16.21875 41.5 20.09375 36.953125 
Q 23.96875 32.421875 30.609375 32.421875 
z
" id="DejaVuSans-57"/>
       </defs>
       <use xlink:href="#DejaVuSans-57"/>
       <use x="63.623047" xlink:href="#DejaVuSans-104"/>
       <use x="127.001953" xlink:href="#DejaVuSans-58"/>
       <use x="160.693359" xlink:href="#DejaVuSans-49"/>
       <use x="224.316406" xlink:href="#DejaVuSans-53"/>
       <use x="287.939453" xlink:href="#DejaVuSans-109"/>
      </g>
     </g>
    </g>
    <g id="xtick_11">
     <g id="line2d_11">
      <g>
       <use style="stroke:#000000;stroke-width:0.8;" x="644.759561" xlink:href="#m02bdb6a501" y="288.430125"/>
      </g>
     </g>
     <g id="text_11">
      <!-- 10h:15m -->
      <g transform="translate(622.311124 303.028562)scale(0.1 -0.1)">
       <defs>
        <path d="M 31.78125 66.40625 
Q 24.171875 66.40625 20.328125 58.90625 
Q 16.5 51.421875 16.5 36.375 
Q 16.5 21.390625 20.328125 13.890625 
Q 24.171875 6.390625 31.78125 6.390625 
Q 39.453125 6.390625 43.28125 13.890625 
Q 47.125 21.390625 47.125 36.375 
Q 47.125 51.421875 43.28125 58.90625 
Q 39.453125 66.40625 31.78125 66.40625 
z
M 31.78125 74.21875 
Q 44.046875 74.21875 50.515625 64.515625 
Q 56.984375 54.828125 56.984375 36.375 
Q 56.984375 17.96875 50.515625 8.265625 
Q 44.046875 -1.421875 31.78125 -1.421875 
Q 19.53125 -1.421875 13.0625 8.265625 
Q 6.59375 17.96875 6.59375 36.375 
Q 6.59375 54.828125 13.0625 64.515625 
Q 19.53125 74.21875 31.78125 74.21875 
z
" id="DejaVuSans-48"/>
       </defs>
       <use xlink:href="#DejaVuSans-49"/>
       <use x="63.623047" xlink:href="#DejaVuSans-48"/>
       <use x="127.246094" xlink:href="#DejaVuSans-104"/>
       <use x="190.625" xlink:href="#DejaVuSans-58"/>
       <use x="224.316406" xlink:href="#DejaVuSans-49"/>
       <use x="287.939453" xlink:href="#DejaVuSans-53"/>
       <use x="351.5625" xlink:href="#DejaVuSans-109"/>
      </g>
     </g>
    </g>
    <g id="xtick_12">
     <g id="line2d_12">
      <g>
       <use style="stroke:#000000;stroke-width:0.8;" x="700.019909" xlink:href="#m02bdb6a501" y="288.430125"/>
      </g>
     </g>
     <g id="text_12">
      <!-- 11h:15m -->
      <g transform="translate(677.571472 303.028562)scale(0.1 -0.1)">
       <use xlink:href="#DejaVuSans-49"/>
       <use x="63.623047" xlink:href="#DejaVuSans-49"/>
       <use x="127.246094" xlink:href="#DejaVuSans-104"/>
       <use x="190.625" xlink:href="#DejaVuSans-58"/>
       <use x="224.316406" xlink:href="#DejaVuSans-49"/>
       <use x="287.939453" xlink:href="#DejaVuSans-53"/>
       <use x="351.5625" xlink:href="#DejaVuSans-109"/>
      </g>
     </g>
    </g>
    <g id="text_13">
     <!-- Time (hour:minute) -->
     <g transform="translate(368.403594 316.706687)scale(0.1 -0.1)">
      <defs>
       <path d="M -0.296875 72.90625 
L 61.375 72.90625 
L 61.375 64.59375 
L 35.5 64.59375 
L 35.5 0 
L 25.59375 0 
L 25.59375 64.59375 
L -0.296875 64.59375 
z
" id="DejaVuSans-84"/>
       <path d="M 9.421875 54.6875 
L 18.40625 54.6875 
L 18.40625 0 
L 9.421875 0 
z
M 9.421875 75.984375 
L 18.40625 75.984375 
L 18.40625 64.59375 
L 9.421875 64.59375 
z
" id="DejaVuSans-105"/>
       <path d="M 56.203125 29.59375 
L 56.203125 25.203125 
L 14.890625 25.203125 
Q 15.484375 15.921875 20.484375 11.0625 
Q 25.484375 6.203125 34.421875 6.203125 
Q 39.59375 6.203125 44.453125 7.46875 
Q 49.3125 8.734375 54.109375 11.28125 
L 54.109375 2.78125 
Q 49.265625 0.734375 44.1875 -0.34375 
Q 39.109375 -1.421875 33.890625 -1.421875 
Q 20.796875 -1.421875 13.15625 6.1875 
Q 5.515625 13.8125 5.515625 26.8125 
Q 5.515625 40.234375 12.765625 48.109375 
Q 20.015625 56 32.328125 56 
Q 43.359375 56 49.78125 48.890625 
Q 56.203125 41.796875 56.203125 29.59375 
z
M 47.21875 32.234375 
Q 47.125 39.59375 43.09375 43.984375 
Q 39.0625 48.390625 32.421875 48.390625 
Q 24.90625 48.390625 20.390625 44.140625 
Q 15.875 39.890625 15.1875 32.171875 
z
" id="DejaVuSans-101"/>
       <path id="DejaVuSans-32"/>
       <path d="M 31 75.875 
Q 24.46875 64.65625 21.28125 53.65625 
Q 18.109375 42.671875 18.109375 31.390625 
Q 18.109375 20.125 21.3125 9.0625 
Q 24.515625 -2 31 -13.1875 
L 23.1875 -13.1875 
Q 15.875 -1.703125 12.234375 9.375 
Q 8.59375 20.453125 8.59375 31.390625 
Q 8.59375 42.28125 12.203125 53.3125 
Q 15.828125 64.359375 23.1875 75.875 
z
" id="DejaVuSans-40"/>
       <path d="M 30.609375 48.390625 
Q 23.390625 48.390625 19.1875 42.75 
Q 14.984375 37.109375 14.984375 27.296875 
Q 14.984375 17.484375 19.15625 11.84375 
Q 23.34375 6.203125 30.609375 6.203125 
Q 37.796875 6.203125 41.984375 11.859375 
Q 46.1875 17.53125 46.1875 27.296875 
Q 46.1875 37.015625 41.984375 42.703125 
Q 37.796875 48.390625 30.609375 48.390625 
z
M 30.609375 56 
Q 42.328125 56 49.015625 48.375 
Q 55.71875 40.765625 55.71875 27.296875 
Q 55.71875 13.875 49.015625 6.21875 
Q 42.328125 -1.421875 30.609375 -1.421875 
Q 18.84375 -1.421875 12.171875 6.21875 
Q 5.515625 13.875 5.515625 27.296875 
Q 5.515625 40.765625 12.171875 48.375 
Q 18.84375 56 30.609375 56 
z
" id="DejaVuSans-111"/>
       <path d="M 8.5 21.578125 
L 8.5 54.6875 
L 17.484375 54.6875 
L 17.484375 21.921875 
Q 17.484375 14.15625 20.5 10.265625 
Q 23.53125 6.390625 29.59375 6.390625 
Q 36.859375 6.390625 41.078125 11.03125 
Q 45.3125 15.671875 45.3125 23.6875 
L 45.3125 54.6875 
L 54.296875 54.6875 
L 54.296875 0 
L 45.3125 0 
L 45.3125 8.40625 
Q 42.046875 3.421875 37.71875 1 
Q 33.40625 -1.421875 27.6875 -1.421875 
Q 18.265625 -1.421875 13.375 4.4375 
Q 8.5 10.296875 8.5 21.578125 
z
M 31.109375 56 
z
" id="DejaVuSans-117"/>
       <path d="M 41.109375 46.296875 
Q 39.59375 47.171875 37.8125 47.578125 
Q 36.03125 48 33.890625 48 
Q 26.265625 48 22.1875 43.046875 
Q 18.109375 38.09375 18.109375 28.8125 
L 18.109375 0 
L 9.078125 0 
L 9.078125 54.6875 
L 18.109375 54.6875 
L 18.109375 46.1875 
Q 20.953125 51.171875 25.484375 53.578125 
Q 30.03125 56 36.53125 56 
Q 37.453125 56 38.578125 55.875 
Q 39.703125 55.765625 41.0625 55.515625 
z
" id="DejaVuSans-114"/>
       <path d="M 54.890625 33.015625 
L 54.890625 0 
L 45.90625 0 
L 45.90625 32.71875 
Q 45.90625 40.484375 42.875 44.328125 
Q 39.84375 48.1875 33.796875 48.1875 
Q 26.515625 48.1875 22.3125 43.546875 
Q 18.109375 38.921875 18.109375 30.90625 
L 18.109375 0 
L 9.078125 0 
L 9.078125 54.6875 
L 18.109375 54.6875 
L 18.109375 46.1875 
Q 21.34375 51.125 25.703125 53.5625 
Q 30.078125 56 35.796875 56 
Q 45.21875 56 50.046875 50.171875 
Q 54.890625 44.34375 54.890625 33.015625 
z
" id="DejaVuSans-110"/>
       <path d="M 18.3125 70.21875 
L 18.3125 54.6875 
L 36.8125 54.6875 
L 36.8125 47.703125 
L 18.3125 47.703125 
L 18.3125 18.015625 
Q 18.3125 11.328125 20.140625 9.421875 
Q 21.96875 7.515625 27.59375 7.515625 
L 36.8125 7.515625 
L 36.8125 0 
L 27.59375 0 
Q 17.1875 0 13.234375 3.875 
Q 9.28125 7.765625 9.28125 18.015625 
L 9.28125 47.703125 
L 2.6875 47.703125 
L 2.6875 54.6875 
L 9.28125 54.6875 
L 9.28125 70.21875 
z
" id="DejaVuSans-116"/>
       <path d="M 8.015625 75.875 
L 15.828125 75.875 
Q 23.140625 64.359375 26.78125 53.3125 
Q 30.421875 42.28125 30.421875 31.390625 
Q 30.421875 20.453125 26.78125 9.375 
Q 23.140625 -1.703125 15.828125 -13.1875 
L 8.015625 -13.1875 
Q 14.5 -2 17.703125 9.0625 
Q 20.90625 20.125 20.90625 31.390625 
Q 20.90625 42.671875 17.703125 53.65625 
Q 14.5 64.65625 8.015625 75.875 
z
" id="DejaVuSans-41"/>
      </defs>
      <use xlink:href="#DejaVuSans-84"/>
      <use x="57.958984" xlink:href="#DejaVuSans-105"/>
      <use x="85.742188" xlink:href="#DejaVuSans-109"/>
      <use x="183.154297" xlink:href="#DejaVuSans-101"/>
      <use x="244.677734" xlink:href="#DejaVuSans-32"/>
      <use x="276.464844" xlink:href="#DejaVuSans-40"/>
      <use x="315.478516" xlink:href="#DejaVuSans-104"/>
      <use x="378.857422" xlink:href="#DejaVuSans-111"/>
      <use x="440.039062" xlink:href="#DejaVuSans-117"/>
      <use x="503.417969" xlink:href="#DejaVuSans-114"/>
      <use x="542.78125" xlink:href="#DejaVuSans-58"/>
      <use x="576.472656" xlink:href="#DejaVuSans-109"/>
      <use x="673.884766" xlink:href="#DejaVuSans-105"/>
      <use x="701.667969" xlink:href="#DejaVuSans-110"/>
      <use x="765.046875" xlink:href="#DejaVuSans-117"/>
      <use x="828.425781" xlink:href="#DejaVuSans-116"/>
      <use x="867.634766" xlink:href="#DejaVuSans-101"/>
      <use x="929.158203" xlink:href="#DejaVuSans-41"/>
     </g>
    </g>
   </g>
   <g id="matplotlib.axis_2">
    <g id="ytick_1">
     <g id="line2d_13">
      <defs>
       <path d="M 0 0 
L -3.5 0 
" id="meaa53ce80d" style="stroke:#000000;stroke-width:0.8;"/>
      </defs>
      <g>
       <use style="stroke:#000000;stroke-width:0.8;" x="59.690625" xlink:href="#meaa53ce80d" y="260.572651"/>
      </g>
     </g>
     <g id="text_14">
      <!-- 18000 -->
      <g transform="translate(20.878125 264.37187)scale(0.1 -0.1)">
       <use xlink:href="#DejaVuSans-49"/>
       <use x="63.623047" xlink:href="#DejaVuSans-56"/>
       <use x="127.246094" xlink:href="#DejaVuSans-48"/>
       <use x="190.869141" xlink:href="#DejaVuSans-48"/>
       <use x="254.492188" xlink:href="#DejaVuSans-48"/>
      </g>
     </g>
    </g>
    <g id="ytick_2">
     <g id="line2d_14">
      <g>
       <use style="stroke:#000000;stroke-width:0.8;" x="59.690625" xlink:href="#meaa53ce80d" y="229.281261"/>
      </g>
     </g>
     <g id="text_15">
      <!-- 20000 -->
      <g transform="translate(20.878125 233.08048)scale(0.1 -0.1)">
       <use xlink:href="#DejaVuSans-50"/>
       <use x="63.623047" xlink:href="#DejaVuSans-48"/>
       <use x="127.246094" xlink:href="#DejaVuSans-48"/>
       <use x="190.869141" xlink:href="#DejaVuSans-48"/>
       <use x="254.492188" xlink:href="#DejaVuSans-48"/>
      </g>
     </g>
    </g>
    <g id="ytick_3">
     <g id="line2d_15">
      <g>
       <use style="stroke:#000000;stroke-width:0.8;" x="59.690625" xlink:href="#meaa53ce80d" y="197.98987"/>
      </g>
     </g>
     <g id="text_16">
      <!-- 22000 -->
      <g transform="translate(20.878125 201.789089)scale(0.1 -0.1)">
       <use xlink:href="#DejaVuSans-50"/>
       <use x="63.623047" xlink:href="#DejaVuSans-50"/>
       <use x="127.246094" xlink:href="#DejaVuSans-48"/>
       <use x="190.869141" xlink:href="#DejaVuSans-48"/>
       <use x="254.492188" xlink:href="#DejaVuSans-48"/>
      </g>
     </g>
    </g>
    <g id="ytick_4">
     <g id="line2d_16">
      <g>
       <use style="stroke:#000000;stroke-width:0.8;" x="59.690625" xlink:href="#meaa53ce80d" y="166.698479"/>
      </g>
     </g>
     <g id="text_17">
      <!-- 24000 -->
      <g transform="translate(20.878125 170.497698)scale(0.1 -0.1)">
       <use xlink:href="#DejaVuSans-50"/>
       <use x="63.623047" xlink:href="#DejaVuSans-52"/>
       <use x="127.246094" xlink:href="#DejaVuSans-48"/>
       <use x="190.869141" xlink:href="#DejaVuSans-48"/>
       <use x="254.492188" xlink:href="#DejaVuSans-48"/>
      </g>
     </g>
    </g>
    <g id="ytick_5">
     <g id="line2d_17">
      <g>
       <use style="stroke:#000000;stroke-width:0.8;" x="59.690625" xlink:href="#meaa53ce80d" y="135.407089"/>
      </g>
     </g>
     <g id="text_18">
      <!-- 26000 -->
      <g transform="translate(20.878125 139.206307)scale(0.1 -0.1)">
       <use xlink:href="#DejaVuSans-50"/>
       <use x="63.623047" xlink:href="#DejaVuSans-54"/>
       <use x="127.246094" xlink:href="#DejaVuSans-48"/>
       <use x="190.869141" xlink:href="#DejaVuSans-48"/>
       <use x="254.492188" xlink:href="#DejaVuSans-48"/>
      </g>
     </g>
    </g>
    <g id="ytick_6">
     <g id="line2d_18">
      <g>
       <use style="stroke:#000000;stroke-width:0.8;" x="59.690625" xlink:href="#meaa53ce80d" y="104.115698"/>
      </g>
     </g>
     <g id="text_19">
      <!-- 28000 -->
      <g transform="translate(20.878125 107.914917)scale(0.1 -0.1)">
       <use xlink:href="#DejaVuSans-50"/>
       <use x="63.623047" xlink:href="#DejaVuSans-56"/>
       <use x="127.246094" xlink:href="#DejaVuSans-48"/>
       <use x="190.869141" xlink:href="#DejaVuSans-48"/>
       <use x="254.492188" xlink:href="#DejaVuSans-48"/>
      </g>
     </g>
    </g>
    <g id="ytick_7">
     <g id="line2d_19">
      <g>
       <use style="stroke:#000000;stroke-width:0.8;" x="59.690625" xlink:href="#meaa53ce80d" y="72.824307"/>
      </g>
     </g>
     <g id="text_20">
      <!-- 30000 -->
      <g transform="translate(20.878125 76.623526)scale(0.1 -0.1)">
       <use xlink:href="#DejaVuSans-51"/>
       <use x="63.623047" xlink:href="#DejaVuSans-48"/>
       <use x="127.246094" xlink:href="#DejaVuSans-48"/>
       <use x="190.869141" xlink:href="#DejaVuSans-48"/>
       <use x="254.492188" xlink:href="#DejaVuSans-48"/>
      </g>
     </g>
    </g>
    <g id="ytick_8">
     <g id="line2d_20">
      <g>
       <use style="stroke:#000000;stroke-width:0.8;" x="59.690625" xlink:href="#meaa53ce80d" y="41.532916"/>
      </g>
     </g>
     <g id="text_21">
      <!-- 32000 -->
      <g transform="translate(20.878125 45.332135)scale(0.1 -0.1)">
       <use xlink:href="#DejaVuSans-51"/>
       <use x="63.623047" xlink:href="#DejaVuSans-50"/>
       <use x="127.246094" xlink:href="#DejaVuSans-48"/>
       <use x="190.869141" xlink:href="#DejaVuSans-48"/>
       <use x="254.492188" xlink:href="#DejaVuSans-48"/>
      </g>
     </g>
    </g>
    <g id="text_22">
     <!-- Edge coverage -->
     <g transform="translate(14.798437 192.762406)rotate(-90)scale(0.1 -0.1)">
      <defs>
       <path d="M 9.8125 72.90625 
L 55.90625 72.90625 
L 55.90625 64.59375 
L 19.671875 64.59375 
L 19.671875 43.015625 
L 54.390625 43.015625 
L 54.390625 34.71875 
L 19.671875 34.71875 
L 19.671875 8.296875 
L 56.78125 8.296875 
L 56.78125 0 
L 9.8125 0 
z
" id="DejaVuSans-69"/>
       <path d="M 45.40625 46.390625 
L 45.40625 75.984375 
L 54.390625 75.984375 
L 54.390625 0 
L 45.40625 0 
L 45.40625 8.203125 
Q 42.578125 3.328125 38.25 0.953125 
Q 33.9375 -1.421875 27.875 -1.421875 
Q 17.96875 -1.421875 11.734375 6.484375 
Q 5.515625 14.40625 5.515625 27.296875 
Q 5.515625 40.1875 11.734375 48.09375 
Q 17.96875 56 27.875 56 
Q 33.9375 56 38.25 53.625 
Q 42.578125 51.265625 45.40625 46.390625 
z
M 14.796875 27.296875 
Q 14.796875 17.390625 18.875 11.75 
Q 22.953125 6.109375 30.078125 6.109375 
Q 37.203125 6.109375 41.296875 11.75 
Q 45.40625 17.390625 45.40625 27.296875 
Q 45.40625 37.203125 41.296875 42.84375 
Q 37.203125 48.484375 30.078125 48.484375 
Q 22.953125 48.484375 18.875 42.84375 
Q 14.796875 37.203125 14.796875 27.296875 
z
" id="DejaVuSans-100"/>
       <path d="M 45.40625 27.984375 
Q 45.40625 37.75 41.375 43.109375 
Q 37.359375 48.484375 30.078125 48.484375 
Q 22.859375 48.484375 18.828125 43.109375 
Q 14.796875 37.75 14.796875 27.984375 
Q 14.796875 18.265625 18.828125 12.890625 
Q 22.859375 7.515625 30.078125 7.515625 
Q 37.359375 7.515625 41.375 12.890625 
Q 45.40625 18.265625 45.40625 27.984375 
z
M 54.390625 6.78125 
Q 54.390625 -7.171875 48.1875 -13.984375 
Q 42 -20.796875 29.203125 -20.796875 
Q 24.46875 -20.796875 20.265625 -20.09375 
Q 16.0625 -19.390625 12.109375 -17.921875 
L 12.109375 -9.1875 
Q 16.0625 -11.328125 19.921875 -12.34375 
Q 23.78125 -13.375 27.78125 -13.375 
Q 36.625 -13.375 41.015625 -8.765625 
Q 45.40625 -4.15625 45.40625 5.171875 
L 45.40625 9.625 
Q 42.625 4.78125 38.28125 2.390625 
Q 33.9375 0 27.875 0 
Q 17.828125 0 11.671875 7.65625 
Q 5.515625 15.328125 5.515625 27.984375 
Q 5.515625 40.671875 11.671875 48.328125 
Q 17.828125 56 27.875 56 
Q 33.9375 56 38.28125 53.609375 
Q 42.625 51.21875 45.40625 46.390625 
L 45.40625 54.6875 
L 54.390625 54.6875 
z
" id="DejaVuSans-103"/>
       <path d="M 48.78125 52.59375 
L 48.78125 44.1875 
Q 44.96875 46.296875 41.140625 47.34375 
Q 37.3125 48.390625 33.40625 48.390625 
Q 24.65625 48.390625 19.8125 42.84375 
Q 14.984375 37.3125 14.984375 27.296875 
Q 14.984375 17.28125 19.8125 11.734375 
Q 24.65625 6.203125 33.40625 6.203125 
Q 37.3125 6.203125 41.140625 7.25 
Q 44.96875 8.296875 48.78125 10.40625 
L 48.78125 2.09375 
Q 45.015625 0.34375 40.984375 -0.53125 
Q 36.96875 -1.421875 32.421875 -1.421875 
Q 20.0625 -1.421875 12.78125 6.34375 
Q 5.515625 14.109375 5.515625 27.296875 
Q 5.515625 40.671875 12.859375 48.328125 
Q 20.21875 56 33.015625 56 
Q 37.15625 56 41.109375 55.140625 
Q 45.0625 54.296875 48.78125 52.59375 
z
" id="DejaVuSans-99"/>
       <path d="M 2.984375 54.6875 
L 12.5 54.6875 
L 29.59375 8.796875 
L 46.6875 54.6875 
L 56.203125 54.6875 
L 35.6875 0 
L 23.484375 0 
z
" id="DejaVuSans-118"/>
       <path d="M 34.28125 27.484375 
Q 23.390625 27.484375 19.1875 25 
Q 14.984375 22.515625 14.984375 16.5 
Q 14.984375 11.71875 18.140625 8.90625 
Q 21.296875 6.109375 26.703125 6.109375 
Q 34.1875 6.109375 38.703125 11.40625 
Q 43.21875 16.703125 43.21875 25.484375 
L 43.21875 27.484375 
z
M 52.203125 31.203125 
L 52.203125 0 
L 43.21875 0 
L 43.21875 8.296875 
Q 40.140625 3.328125 35.546875 0.953125 
Q 30.953125 -1.421875 24.3125 -1.421875 
Q 15.921875 -1.421875 10.953125 3.296875 
Q 6 8.015625 6 15.921875 
Q 6 25.140625 12.171875 29.828125 
Q 18.359375 34.515625 30.609375 34.515625 
L 43.21875 34.515625 
L 43.21875 35.40625 
Q 43.21875 41.609375 39.140625 45 
Q 35.0625 48.390625 27.6875 48.390625 
Q 23 48.390625 18.546875 47.265625 
Q 14.109375 46.140625 10.015625 43.890625 
L 10.015625 52.203125 
Q 14.9375 54.109375 19.578125 55.046875 
Q 24.21875 56 28.609375 56 
Q 40.484375 56 46.34375 49.84375 
Q 52.203125 43.703125 52.203125 31.203125 
z
" id="DejaVuSans-97"/>
      </defs>
      <use xlink:href="#DejaVuSans-69"/>
      <use x="63.183594" xlink:href="#DejaVuSans-100"/>
      <use x="126.660156" xlink:href="#DejaVuSans-103"/>
      <use x="190.136719" xlink:href="#DejaVuSans-101"/>
      <use x="251.660156" xlink:href="#DejaVuSans-32"/>
      <use x="283.447266" xlink:href="#DejaVuSans-99"/>
      <use x="338.427734" xlink:href="#DejaVuSans-111"/>
      <use x="399.609375" xlink:href="#DejaVuSans-118"/>
      <use x="458.789062" xlink:href="#DejaVuSans-101"/>
      <use x="520.3125" xlink:href="#DejaVuSans-114"/>
      <use x="561.425781" xlink:href="#DejaVuSans-97"/>
      <use x="622.705078" xlink:href="#DejaVuSans-103"/>
      <use x="686.181641" xlink:href="#DejaVuSans-101"/>
     </g>
    </g>
   </g>
   <g id="line2d_21">
    <path clip-path="url(#pf7d6f85e13)" d="M 92.15608 261.564589 
L 105.971167 244.704787 
L 119.786254 234.500665 
L 133.601341 221.474059 
L 147.416428 216.151393 
L 161.231515 211.413877 
L 175.046602 208.869887 
L 188.861689 199.635797 
L 202.676776 197.207585 
L 216.491863 186.596675 
L 230.30695 182.394241 
L 244.122037 174.014406 
L 257.937124 170.215632 
L 271.752211 167.280499 
L 285.567298 159.905118 
L 299.382385 154.864075 
L 313.197472 148.039423 
L 327.012559 145.658148 
L 340.827646 142.485201 
L 354.642733 139.803529 
L 368.45782 133.795582 
L 382.272907 132.293595 
L 396.087994 128.929771 
L 409.903081 124.980797 
L 423.718169 120.024241 
L 437.533256 114.629605 
L 451.348343 110.151807 
L 465.16343 107.776791 
L 478.978517 102.676294 
L 492.793604 99.099688 
L 506.608691 97.344241 
L 520.423778 93.148065 
L 534.238865 90.619721 
L 548.053952 88.135185 
L 561.869039 83.948397 
L 575.684126 81.736095 
L 589.499213 79.796029 
L 603.3143 78.563148 
L 617.129387 76.210036 
L 630.944474 74.276228 
L 644.759561 70.693363 
L 658.574648 67.126145 
L 672.389735 64.431956 
L 686.204822 62.466857 
L 700.019909 60.364075 
L 713.834996 58.054771 
L 727.650083 56.365036 
L 741.46517 54.841145 
" style="fill:none;stroke:#c7c7c7;stroke-linecap:square;stroke-width:1.5;"/>
   </g>
   <g id="line2d_22">
    <path clip-path="url(#pf7d6f85e13)" d="M 92.15608 252.790483 
L 105.971167 240.652552 
L 119.786254 229.816344 
L 133.601341 218.301112 
L 147.416428 212.931509 
L 161.231515 207.58381 
L 175.046602 203.706807 
L 188.861689 201.619671 
L 202.676776 197.852188 
L 216.491863 193.843761 
L 230.30695 187.679357 
L 244.122037 181.555632 
L 257.937124 178.485946 
L 271.752211 173.995632 
L 285.567298 169.208049 
L 299.382385 164.814738 
L 313.197472 161.964092 
L 327.012559 160.524688 
L 340.827646 155.712072 
L 354.642733 152.532867 
L 368.45782 148.580764 
L 382.272907 146.465466 
L 396.087994 142.638529 
L 409.903081 138.874175 
L 423.718169 133.87694 
L 437.533256 130.147006 
L 451.348343 126.473397 
L 465.16343 122.793529 
L 478.978517 120.283959 
L 492.793604 118.788231 
L 506.608691 115.421277 
L 520.423778 112.526824 
L 534.238865 108.771857 
L 548.053952 104.613231 
L 561.869039 100.191757 
L 575.684126 97.228463 
L 589.499213 94.177552 
L 603.3143 92.415847 
L 617.129387 90.394423 
L 630.944474 89.048893 
L 644.759561 86.655102 
L 658.574648 84.286344 
L 672.389735 81.701675 
L 686.204822 78.437983 
L 700.019909 76.566757 
L 713.834996 75.324489 
L 727.650083 73.719241 
L 741.46517 72.185963 
" style="fill:none;stroke:#d62728;stroke-linecap:square;stroke-width:1.5;"/>
   </g>
   <g id="line2d_23">
    <path clip-path="url(#pf7d6f85e13)" d="M 92.15608 265.651244 
L 105.971167 245.433877 
L 119.786254 235.06391 
L 133.601341 230.798893 
L 147.416428 225.426161 
L 161.231515 219.127204 
L 175.046602 217.80045 
L 188.861689 216.714638 
L 202.676776 215.475499 
L 216.491863 212.058479 
L 230.30695 209.101443 
L 244.122037 207.446128 
L 257.937124 204.401476 
L 271.752211 204.085433 
L 285.567298 203.872651 
L 299.382385 201.798032 
L 313.197472 200.608959 
L 327.012559 196.146807 
L 340.827646 195.19242 
L 354.642733 193.853148 
L 368.45782 192.310483 
L 382.272907 191.95689 
L 396.087994 190.736526 
L 409.903081 189.513032 
L 423.718169 188.21131 
L 437.533256 187.08482 
L 451.348343 185.266791 
L 465.16343 183.361145 
L 478.978517 182.685251 
L 492.793604 180.691989 
L 506.608691 180.07242 
L 520.423778 179.190002 
L 534.238865 178.620499 
L 548.053952 177.556592 
L 561.869039 176.458264 
L 575.684126 175.74482 
L 589.499213 175.278579 
L 603.3143 174.283512 
L 617.129387 174.005019 
L 630.944474 173.701493 
L 644.759561 173.185185 
L 658.574648 172.834721 
L 672.389735 172.043049 
L 686.204822 171.701973 
L 700.019909 169.977817 
L 713.834996 168.798132 
L 727.650083 167.6779 
L 741.46517 167.177238 
" style="fill:none;stroke:#1f77b4;stroke-linecap:square;stroke-width:1.5;"/>
   </g>
   <g id="line2d_24">
    <path clip-path="url(#pf7d6f85e13)" d="M 92.15608 270.06333 
L 105.971167 261.92444 
L 119.786254 258.667006 
L 133.601341 253.907585 
L 147.416428 248.153099 
L 161.231515 246.259969 
L 175.046602 245.552784 
L 188.861689 244.908181 
L 202.676776 244.188479 
L 216.491863 242.07944 
L 230.30695 241.322188 
L 244.122037 240.452287 
L 257.937124 239.873397 
L 271.752211 239.200632 
L 285.567298 238.014688 
L 299.382385 236.666029 
L 313.197472 234.847999 
L 327.012559 234.572635 
L 340.827646 233.859191 
L 354.642733 233.449274 
L 368.45782 233.120714 
L 382.272907 232.776509 
L 396.087994 232.648214 
L 409.903081 232.344688 
L 423.718169 232.15694 
L 437.533256 231.690698 
L 451.348343 231.243231 
L 465.16343 231.096161 
L 478.978517 230.870863 
L 492.793604 230.761344 
L 506.608691 230.4453 
L 520.423778 230.22939 
L 534.238865 230.163678 
L 548.053952 228.655433 
L 561.869039 228.511493 
L 575.684126 227.985797 
L 589.499213 227.516426 
L 603.3143 227.456973 
L 617.129387 226.928148 
L 630.944474 226.605847 
L 644.759561 225.714042 
L 658.574648 225.64833 
L 672.389735 225.397999 
L 686.204822 224.274638 
L 700.019909 222.991691 
L 713.834996 222.140565 
L 727.650083 222.056079 
L 741.46517 221.930913 
" style="fill:none;stroke:#98df8a;stroke-linecap:square;stroke-width:1.5;"/>
   </g>
   <g id="line2d_25"/>
   <g id="line2d_26"/>
   <g id="line2d_27"/>
   <g id="line2d_28"/>
   <g id="line2d_29"/>
   <g id="line2d_30">
    <path clip-path="url(#pf7d6f85e13)" d="M 741.46517 288.430125 
L 741.46517 22.318125 
" style="fill:none;stroke:#ff0000;stroke-linecap:square;stroke-width:1.5;"/>
   </g>
   <g id="patch_3">
    <path d="M 59.690625 260.572651 
L 59.690625 41.532916 
" style="fill:none;stroke:#000000;stroke-linecap:square;stroke-linejoin:miter;stroke-width:0.8;"/>
   </g>
   <g id="patch_4">
    <path d="M 92.15608 288.430125 
L 700.019909 288.430125 
" style="fill:none;stroke:#000000;stroke-linecap:square;stroke-linejoin:miter;stroke-width:0.8;"/>
   </g>
   <g id="text_23">
    <!-- sqlite3_ossfuzz (12h, 5 trials/fuzzer) -->
    <g transform="translate(308.633438 16.318125)scale(0.12 -0.12)">
     <defs>
      <path d="M 44.28125 53.078125 
L 44.28125 44.578125 
Q 40.484375 46.53125 36.375 47.5 
Q 32.28125 48.484375 27.875 48.484375 
Q 21.1875 48.484375 17.84375 46.4375 
Q 14.5 44.390625 14.5 40.28125 
Q 14.5 37.15625 16.890625 35.375 
Q 19.28125 33.59375 26.515625 31.984375 
L 29.59375 31.296875 
Q 39.15625 29.25 43.1875 25.515625 
Q 47.21875 21.78125 47.21875 15.09375 
Q 47.21875 7.46875 41.1875 3.015625 
Q 35.15625 -1.421875 24.609375 -1.421875 
Q 20.21875 -1.421875 15.453125 -0.5625 
Q 10.6875 0.296875 5.421875 2 
L 5.421875 11.28125 
Q 10.40625 8.6875 15.234375 7.390625 
Q 20.0625 6.109375 24.8125 6.109375 
Q 31.15625 6.109375 34.5625 8.28125 
Q 37.984375 10.453125 37.984375 14.40625 
Q 37.984375 18.0625 35.515625 20.015625 
Q 33.0625 21.96875 24.703125 23.78125 
L 21.578125 24.515625 
Q 13.234375 26.265625 9.515625 29.90625 
Q 5.8125 33.546875 5.8125 39.890625 
Q 5.8125 47.609375 11.28125 51.796875 
Q 16.75 56 26.8125 56 
Q 31.78125 56 36.171875 55.265625 
Q 40.578125 54.546875 44.28125 53.078125 
z
" id="DejaVuSans-115"/>
      <path d="M 14.796875 27.296875 
Q 14.796875 17.390625 18.875 11.75 
Q 22.953125 6.109375 30.078125 6.109375 
Q 37.203125 6.109375 41.296875 11.75 
Q 45.40625 17.390625 45.40625 27.296875 
Q 45.40625 37.203125 41.296875 42.84375 
Q 37.203125 48.484375 30.078125 48.484375 
Q 22.953125 48.484375 18.875 42.84375 
Q 14.796875 37.203125 14.796875 27.296875 
z
M 45.40625 8.203125 
Q 42.578125 3.328125 38.25 0.953125 
Q 33.9375 -1.421875 27.875 -1.421875 
Q 17.96875 -1.421875 11.734375 6.484375 
Q 5.515625 14.40625 5.515625 27.296875 
Q 5.515625 40.1875 11.734375 48.09375 
Q 17.96875 56 27.875 56 
Q 33.9375 56 38.25 53.625 
Q 42.578125 51.265625 45.40625 46.390625 
L 45.40625 54.6875 
L 54.390625 54.6875 
L 54.390625 -20.796875 
L 45.40625 -20.796875 
z
" id="DejaVuSans-113"/>
      <path d="M 9.421875 75.984375 
L 18.40625 75.984375 
L 18.40625 0 
L 9.421875 0 
z
" id="DejaVuSans-108"/>
      <path d="M 50.984375 -16.609375 
L 50.984375 -23.578125 
L -0.984375 -23.578125 
L -0.984375 -16.609375 
z
" id="DejaVuSans-95"/>
      <path d="M 37.109375 75.984375 
L 37.109375 68.5 
L 28.515625 68.5 
Q 23.6875 68.5 21.796875 66.546875 
Q 19.921875 64.59375 19.921875 59.515625 
L 19.921875 54.6875 
L 34.71875 54.6875 
L 34.71875 47.703125 
L 19.921875 47.703125 
L 19.921875 0 
L 10.890625 0 
L 10.890625 47.703125 
L 2.296875 47.703125 
L 2.296875 54.6875 
L 10.890625 54.6875 
L 10.890625 58.5 
Q 10.890625 67.625 15.140625 71.796875 
Q 19.390625 75.984375 28.609375 75.984375 
z
" id="DejaVuSans-102"/>
      <path d="M 5.515625 54.6875 
L 48.1875 54.6875 
L 48.1875 46.484375 
L 14.40625 7.171875 
L 48.1875 7.171875 
L 48.1875 0 
L 4.296875 0 
L 4.296875 8.203125 
L 38.09375 47.515625 
L 5.515625 47.515625 
z
" id="DejaVuSans-122"/>
      <path d="M 11.71875 12.40625 
L 22.015625 12.40625 
L 22.015625 4 
L 14.015625 -11.625 
L 7.71875 -11.625 
L 11.71875 4 
z
" id="DejaVuSans-44"/>
      <path d="M 25.390625 72.90625 
L 33.6875 72.90625 
L 8.296875 -9.28125 
L 0 -9.28125 
z
" id="DejaVuSans-47"/>
     </defs>
     <use xlink:href="#DejaVuSans-115"/>
     <use x="52.099609" xlink:href="#DejaVuSans-113"/>
     <use x="115.576172" xlink:href="#DejaVuSans-108"/>
     <use x="143.359375" xlink:href="#DejaVuSans-105"/>
     <use x="171.142578" xlink:href="#DejaVuSans-116"/>
     <use x="210.351562" xlink:href="#DejaVuSans-101"/>
     <use x="271.875" xlink:href="#DejaVuSans-51"/>
     <use x="335.498047" xlink:href="#DejaVuSans-95"/>
     <use x="385.498047" xlink:href="#DejaVuSans-111"/>
     <use x="446.679688" xlink:href="#DejaVuSans-115"/>
     <use x="498.779297" xlink:href="#DejaVuSans-115"/>
     <use x="550.878906" xlink:href="#DejaVuSans-102"/>
     <use x="586.083984" xlink:href="#DejaVuSans-117"/>
     <use x="649.462891" xlink:href="#DejaVuSans-122"/>
     <use x="701.953125" xlink:href="#DejaVuSans-122"/>
     <use x="754.443359" xlink:href="#DejaVuSans-32"/>
     <use x="786.230469" xlink:href="#DejaVuSans-40"/>
     <use x="825.244141" xlink:href="#DejaVuSans-49"/>
     <use x="888.867188" xlink:href="#DejaVuSans-50"/>
     <use x="952.490234" xlink:href="#DejaVuSans-104"/>
     <use x="1015.869141" xlink:href="#DejaVuSans-44"/>
     <use x="1047.65625" xlink:href="#DejaVuSans-32"/>
     <use x="1079.443359" xlink:href="#DejaVuSans-53"/>
     <use x="1143.066406" xlink:href="#DejaVuSans-32"/>
     <use x="1174.853516" xlink:href="#DejaVuSans-116"/>
     <use x="1214.0625" xlink:href="#DejaVuSans-114"/>
     <use x="1255.175781" xlink:href="#DejaVuSans-105"/>
     <use x="1282.958984" xlink:href="#DejaVuSans-97"/>
     <use x="1344.238281" xlink:href="#DejaVuSans-108"/>
     <use x="1372.021484" xlink:href="#DejaVuSans-115"/>
     <use x="1424.121094" xlink:href="#DejaVuSans-47"/>
     <use x="1457.8125" xlink:href="#DejaVuSans-102"/>
     <use x="1493.017578" xlink:href="#DejaVuSans-117"/>
     <use x="1556.396484" xlink:href="#DejaVuSans-122"/>
     <use x="1608.886719" xlink:href="#DejaVuSans-122"/>
     <use x="1661.376953" xlink:href="#DejaVuSans-101"/>
     <use x="1722.900391" xlink:href="#DejaVuSans-114"/>
     <use x="1764.013672" xlink:href="#DejaVuSans-41"/>
    </g>
   </g>
   <g id="legend_1">
    <g id="line2d_31">
     <path d="M 777.930625 30.416562 
L 797.930625 30.416562 
" style="fill:none;"/>
    </g>
    <g id="line2d_32"/>
    <g id="text_24">
     <!-- fuzzer -->
     <g transform="translate(805.930625 33.916562)scale(0.1 -0.1)">
      <use xlink:href="#DejaVuSans-102"/>
      <use x="35.205078" xlink:href="#DejaVuSans-117"/>
      <use x="98.583984" xlink:href="#DejaVuSans-122"/>
      <use x="151.074219" xlink:href="#DejaVuSans-122"/>
      <use x="203.564453" xlink:href="#DejaVuSans-101"/>
      <use x="265.087891" xlink:href="#DejaVuSans-114"/>
     </g>
    </g>
    <g id="line2d_33">
     <path d="M 777.930625 45.094688 
L 797.930625 45.094688 
" style="fill:none;stroke:#c7c7c7;stroke-linecap:square;stroke-width:1.5;"/>
    </g>
    <g id="line2d_34"/>
    <g id="text_25">
     <!-- kirenenko-rare -->
     <g transform="translate(805.930625 48.594688)scale(0.1 -0.1)">
      <defs>
       <path d="M 9.078125 75.984375 
L 18.109375 75.984375 
L 18.109375 31.109375 
L 44.921875 54.6875 
L 56.390625 54.6875 
L 27.390625 29.109375 
L 57.625 0 
L 45.90625 0 
L 18.109375 26.703125 
L 18.109375 0 
L 9.078125 0 
z
" id="DejaVuSans-107"/>
       <path d="M 4.890625 31.390625 
L 31.203125 31.390625 
L 31.203125 23.390625 
L 4.890625 23.390625 
z
" id="DejaVuSans-45"/>
      </defs>
      <use xlink:href="#DejaVuSans-107"/>
      <use x="57.910156" xlink:href="#DejaVuSans-105"/>
      <use x="85.693359" xlink:href="#DejaVuSans-114"/>
      <use x="124.556641" xlink:href="#DejaVuSans-101"/>
      <use x="186.080078" xlink:href="#DejaVuSans-110"/>
      <use x="249.458984" xlink:href="#DejaVuSans-101"/>
      <use x="310.982422" xlink:href="#DejaVuSans-110"/>
      <use x="374.361328" xlink:href="#DejaVuSans-107"/>
      <use x="428.646484" xlink:href="#DejaVuSans-111"/>
      <use x="491.703125" xlink:href="#DejaVuSans-45"/>
      <use x="527.787109" xlink:href="#DejaVuSans-114"/>
      <use x="568.900391" xlink:href="#DejaVuSans-97"/>
      <use x="630.179688" xlink:href="#DejaVuSans-114"/>
      <use x="669.042969" xlink:href="#DejaVuSans-101"/>
     </g>
    </g>
    <g id="line2d_35">
     <path d="M 777.930625 59.772812 
L 797.930625 59.772812 
" style="fill:none;stroke:#d62728;stroke-linecap:square;stroke-width:1.5;"/>
    </g>
    <g id="line2d_36"/>
    <g id="text_26">
     <!-- kirenenko -->
     <g transform="translate(805.930625 63.272812)scale(0.1 -0.1)">
      <use xlink:href="#DejaVuSans-107"/>
      <use x="57.910156" xlink:href="#DejaVuSans-105"/>
      <use x="85.693359" xlink:href="#DejaVuSans-114"/>
      <use x="124.556641" xlink:href="#DejaVuSans-101"/>
      <use x="186.080078" xlink:href="#DejaVuSans-110"/>
      <use x="249.458984" xlink:href="#DejaVuSans-101"/>
      <use x="310.982422" xlink:href="#DejaVuSans-110"/>
      <use x="374.361328" xlink:href="#DejaVuSans-107"/>
      <use x="428.646484" xlink:href="#DejaVuSans-111"/>
     </g>
    </g>
    <g id="line2d_37">
     <path d="M 777.930625 74.450938 
L 797.930625 74.450938 
" style="fill:none;stroke:#1f77b4;stroke-linecap:square;stroke-width:1.5;"/>
    </g>
    <g id="line2d_38"/>
    <g id="text_27">
     <!-- aflplusplus -->
     <g transform="translate(805.930625 77.950938)scale(0.1 -0.1)">
      <defs>
       <path d="M 18.109375 8.203125 
L 18.109375 -20.796875 
L 9.078125 -20.796875 
L 9.078125 54.6875 
L 18.109375 54.6875 
L 18.109375 46.390625 
Q 20.953125 51.265625 25.265625 53.625 
Q 29.59375 56 35.59375 56 
Q 45.5625 56 51.78125 48.09375 
Q 58.015625 40.1875 58.015625 27.296875 
Q 58.015625 14.40625 51.78125 6.484375 
Q 45.5625 -1.421875 35.59375 -1.421875 
Q 29.59375 -1.421875 25.265625 0.953125 
Q 20.953125 3.328125 18.109375 8.203125 
z
M 48.6875 27.296875 
Q 48.6875 37.203125 44.609375 42.84375 
Q 40.53125 48.484375 33.40625 48.484375 
Q 26.265625 48.484375 22.1875 42.84375 
Q 18.109375 37.203125 18.109375 27.296875 
Q 18.109375 17.390625 22.1875 11.75 
Q 26.265625 6.109375 33.40625 6.109375 
Q 40.53125 6.109375 44.609375 11.75 
Q 48.6875 17.390625 48.6875 27.296875 
z
" id="DejaVuSans-112"/>
      </defs>
      <use xlink:href="#DejaVuSans-97"/>
      <use x="61.279297" xlink:href="#DejaVuSans-102"/>
      <use x="96.484375" xlink:href="#DejaVuSans-108"/>
      <use x="124.267578" xlink:href="#DejaVuSans-112"/>
      <use x="187.744141" xlink:href="#DejaVuSans-108"/>
      <use x="215.527344" xlink:href="#DejaVuSans-117"/>
      <use x="278.90625" xlink:href="#DejaVuSans-115"/>
      <use x="331.005859" xlink:href="#DejaVuSans-112"/>
      <use x="394.482422" xlink:href="#DejaVuSans-108"/>
      <use x="422.265625" xlink:href="#DejaVuSans-117"/>
      <use x="485.644531" xlink:href="#DejaVuSans-115"/>
     </g>
    </g>
    <g id="line2d_39">
     <path d="M 777.930625 89.129063 
L 797.930625 89.129063 
" style="fill:none;stroke:#98df8a;stroke-linecap:square;stroke-width:1.5;"/>
    </g>
    <g id="line2d_40"/>
    <g id="text_28">
     <!-- honggfuzz -->
     <g transform="translate(805.930625 92.629063)scale(0.1 -0.1)">
      <use xlink:href="#DejaVuSans-104"/>
      <use x="63.378906" xlink:href="#DejaVuSans-111"/>
      <use x="124.560547" xlink:href="#DejaVuSans-110"/>
      <use x="187.939453" xlink:href="#DejaVuSans-103"/>
      <use x="251.416016" xlink:href="#DejaVuSans-103"/>
      <use x="314.892578" xlink:href="#DejaVuSans-102"/>
      <use x="350.097656" xlink:href="#DejaVuSans-117"/>
      <use x="413.476562" xlink:href="#DejaVuSans-122"/>
      <use x="465.966797" xlink:href="#DejaVuSans-122"/>
     </g>
    </g>
   </g>
  </g>
 </g>
 <defs>
  <clipPath id="pf7d6f85e13">
   <rect height="266.112" width="714.24" x="59.690625" y="22.318125"/>
  </clipPath>
 </defs>
</svg>
