<?xml version="1.0" encoding="utf-8" standalone="no"?>
<!DOCTYPE svg PUBLIC "-//W3C//DTD SVG 1.1//EN"
  "http://www.w3.org/Graphics/SVG/1.1/DTD/svg11.dtd">
<!-- Created with matplotlib (https://matplotlib.org/) -->
<svg height="361.217877pt" version="1.1" viewBox="0 0 417.648125 361.217877" width="417.648125pt" xmlns="http://www.w3.org/2000/svg" xmlns:xlink="http://www.w3.org/1999/xlink">
 <metadata>
  <rdf:RDF xmlns:cc="http://creativecommons.org/ns#" xmlns:dc="http://purl.org/dc/elements/1.1/" xmlns:rdf="http://www.w3.org/1999/02/22-rdf-syntax-ns#">
   <cc:Work>
    <dc:type rdf:resource="http://purl.org/dc/dcmitype/StillImage"/>
    <dc:date>2020-10-26T22:26:48.670971</dc:date>
    <dc:format>image/svg+xml</dc:format>
    <dc:creator>
     <cc:Agent>
      <dc:title>Matplotlib v3.3.2, https://matplotlib.org/</dc:title>
     </cc:Agent>
    </dc:creator>
   </cc:Work>
  </rdf:RDF>
 </metadata>
 <defs>
  <style type="text/css">*{stroke-linecap:butt;stroke-linejoin:round;}</style>
 </defs>
 <g id="figure_1">
  <g id="patch_1">
   <path d="M 0 361.217877 
L 417.648125 361.217877 
L 417.648125 0 
L 0 0 
z
" style="fill:#ffffff;"/>
  </g>
  <g id="axes_1">
   <g id="patch_2">
    <path d="M 53.328125 288.430125 
L 410.448125 288.430125 
L 410.448125 22.318125 
L 53.328125 22.318125 
z
" style="fill:#ffffff;"/>
   </g>
   <g id="PolyCollection_1">
    <defs>
     <path d="M 98.572506 -254.343479 
L 97.363744 -254.343479 
L 97.264425 -254.394388 
L 97.153547 -254.445297 
L 97.030662 -254.496206 
L 96.895465 -254.547115 
L 96.747823 -254.598024 
L 96.587795 -254.648933 
L 96.415652 -254.699841 
L 96.23189 -254.75075 
L 96.037241 -254.801659 
L 95.832669 -254.852568 
L 95.619365 -254.903477 
L 95.398726 -254.954386 
L 95.172329 -255.005295 
L 94.941896 -255.056204 
L 94.709246 -255.107113 
L 94.476243 -255.158022 
L 94.244733 -255.208931 
L 94.016485 -255.25984 
L 93.793119 -255.310749 
L 93.576042 -255.361658 
L 93.366386 -255.412567 
L 93.164947 -255.463476 
L 92.972142 -255.514385 
L 92.787966 -255.565294 
L 92.611976 -255.616203 
L 92.443276 -255.667112 
L 92.280532 -255.718021 
L 92.121993 -255.76893 
L 91.965537 -255.819839 
L 91.808729 -255.870747 
L 91.648894 -255.921656 
L 91.483202 -255.972565 
L 91.308765 -256.023474 
L 91.122734 -256.074383 
L 90.922409 -256.125292 
L 90.705336 -256.176201 
L 90.469411 -256.22711 
L 90.212966 -256.278019 
L 89.934853 -256.328928 
L 89.634508 -256.379837 
L 89.312003 -256.430746 
L 88.968077 -256.481655 
L 88.604153 -256.532564 
L 88.22233 -256.583473 
L 87.825366 -256.634382 
L 87.416629 -256.685291 
L 87.000048 -256.7362 
L 86.580035 -256.787109 
L 86.161402 -256.838018 
L 85.749267 -256.888927 
L 85.34895 -256.939836 
L 84.965865 -256.990745 
L 84.605413 -257.041653 
L 84.272866 -257.092562 
L 83.973269 -257.143471 
L 83.711333 -257.19438 
L 83.491347 -257.245289 
L 83.31709 -257.296198 
L 83.191763 -257.347107 
L 83.117932 -257.398016 
L 83.097478 -257.448925 
L 83.131574 -257.499834 
L 83.220663 -257.550743 
L 83.364464 -257.601652 
L 83.561982 -257.652561 
L 83.811537 -257.70347 
L 84.110807 -257.754379 
L 84.456874 -257.805288 
L 84.846292 -257.856197 
L 85.275153 -257.907106 
L 85.739163 -257.958015 
L 86.233723 -258.008924 
L 86.754013 -258.059833 
L 87.295073 -258.110742 
L 87.851889 -258.161651 
L 88.419469 -258.212559 
L 88.992922 -258.263468 
L 89.567526 -258.314377 
L 90.138793 -258.365286 
L 90.702522 -258.416195 
L 91.254852 -258.467104 
L 91.792293 -258.518013 
L 92.311762 -258.568922 
L 92.810601 -258.619831 
L 93.286585 -258.67074 
L 93.737929 -258.721649 
L 94.163281 -258.772558 
L 94.561706 -258.823467 
L 94.932667 -258.874376 
L 95.276 -258.925285 
L 95.591882 -258.976194 
L 95.880795 -259.027103 
L 96.14349 -259.078012 
L 96.380946 -259.128921 
L 96.594333 -259.17983 
L 96.784968 -259.230739 
L 96.954282 -259.281648 
L 97.103778 -259.332557 
L 97.235003 -259.383465 
L 98.701247 -259.383465 
L 98.701247 -259.383465 
L 98.832472 -259.332557 
L 98.981968 -259.281648 
L 99.151282 -259.230739 
L 99.341917 -259.17983 
L 99.555304 -259.128921 
L 99.79276 -259.078012 
L 100.055455 -259.027103 
L 100.344368 -258.976194 
L 100.66025 -258.925285 
L 101.003583 -258.874376 
L 101.374544 -258.823467 
L 101.772969 -258.772558 
L 102.198321 -258.721649 
L 102.649665 -258.67074 
L 103.125649 -258.619831 
L 103.624488 -258.568922 
L 104.143957 -258.518013 
L 104.681398 -258.467104 
L 105.233728 -258.416195 
L 105.797457 -258.365286 
L 106.368724 -258.314377 
L 106.943328 -258.263468 
L 107.516781 -258.212559 
L 108.084361 -258.161651 
L 108.641177 -258.110742 
L 109.182237 -258.059833 
L 109.702527 -258.008924 
L 110.197087 -257.958015 
L 110.661097 -257.907106 
L 111.089958 -257.856197 
L 111.479376 -257.805288 
L 111.825443 -257.754379 
L 112.124713 -257.70347 
L 112.374268 -257.652561 
L 112.571786 -257.601652 
L 112.715587 -257.550743 
L 112.804676 -257.499834 
L 112.838772 -257.448925 
L 112.818318 -257.398016 
L 112.744487 -257.347107 
L 112.61916 -257.296198 
L 112.444903 -257.245289 
L 112.224917 -257.19438 
L 111.962981 -257.143471 
L 111.663384 -257.092562 
L 111.330837 -257.041653 
L 110.970385 -256.990745 
L 110.5873 -256.939836 
L 110.186983 -256.888927 
L 109.774848 -256.838018 
L 109.356215 -256.787109 
L 108.936202 -256.7362 
L 108.519621 -256.685291 
L 108.110884 -256.634382 
L 107.71392 -256.583473 
L 107.332097 -256.532564 
L 106.968173 -256.481655 
L 106.624247 -256.430746 
L 106.301742 -256.379837 
L 106.001397 -256.328928 
L 105.723284 -256.278019 
L 105.466839 -256.22711 
L 105.230914 -256.176201 
L 105.013841 -256.125292 
L 104.813516 -256.074383 
L 104.627485 -256.023474 
L 104.453048 -255.972565 
L 104.287356 -255.921656 
L 104.127521 -255.870747 
L 103.970713 -255.819839 
L 103.814257 -255.76893 
L 103.655718 -255.718021 
L 103.492974 -255.667112 
L 103.324274 -255.616203 
L 103.148284 -255.565294 
L 102.964108 -255.514385 
L 102.771303 -255.463476 
L 102.569864 -255.412567 
L 102.360208 -255.361658 
L 102.143131 -255.310749 
L 101.919765 -255.25984 
L 101.691517 -255.208931 
L 101.460007 -255.158022 
L 101.227004 -255.107113 
L 100.994354 -255.056204 
L 100.763921 -255.005295 
L 100.537524 -254.954386 
L 100.316885 -254.903477 
L 100.103581 -254.852568 
L 99.899009 -254.801659 
L 99.70436 -254.75075 
L 99.520598 -254.699841 
L 99.348455 -254.648933 
L 99.188427 -254.598024 
L 99.040785 -254.547115 
L 98.905588 -254.496206 
L 98.782703 -254.445297 
L 98.671825 -254.394388 
L 98.572506 -254.343479 
z
" id="m3651c6db67" style="stroke:#3f3f3f;stroke-width:1.5;"/>
    </defs>
    <g clip-path="url(#p2eabf8e39d)">
     <use style="fill:#c7c7c7;stroke:#3f3f3f;stroke-width:1.5;" x="0" xlink:href="#m3651c6db67" y="361.217877"/>
    </g>
   </g>
   <g id="PolyCollection_2">
    <defs>
     <path d="M 188.917299 -256.367455 
L 185.578951 -256.367455 
L 185.298439 -256.38657 
L 184.983357 -256.405685 
L 184.631776 -256.4248 
L 184.242055 -256.443915 
L 183.812908 -256.46303 
L 183.343464 -256.482145 
L 182.833328 -256.50126 
L 182.282626 -256.520375 
L 181.69204 -256.53949 
L 181.062833 -256.558605 
L 180.396853 -256.57772 
L 179.696517 -256.596835 
L 178.964783 -256.61595 
L 178.2051 -256.635064 
L 177.421333 -256.654179 
L 176.617681 -256.673294 
L 175.798576 -256.692409 
L 174.968568 -256.711524 
L 174.132206 -256.730639 
L 173.293918 -256.749754 
L 172.457885 -256.768869 
L 171.627932 -256.787984 
L 170.80742 -256.807099 
L 169.999164 -256.826214 
L 169.205363 -256.845329 
L 168.427558 -256.864444 
L 167.666612 -256.883559 
L 166.922723 -256.902674 
L 166.195455 -256.921789 
L 165.483804 -256.940904 
L 164.786283 -256.960019 
L 164.101033 -256.979134 
L 163.425946 -256.998249 
L 162.758806 -257.017364 
L 162.09744 -257.036479 
L 161.439864 -257.055594 
L 160.784437 -257.074709 
L 160.129995 -257.093824 
L 159.475985 -257.112939 
L 158.822566 -257.132054 
L 158.170696 -257.151169 
L 157.522192 -257.170284 
L 156.879753 -257.189399 
L 156.246962 -257.208514 
L 155.628246 -257.227629 
L 155.02881 -257.246744 
L 154.45454 -257.265859 
L 153.91188 -257.284974 
L 153.407679 -257.304089 
L 152.949031 -257.323204 
L 152.543094 -257.342319 
L 152.196906 -257.361434 
L 151.917199 -257.380549 
L 151.710227 -257.399664 
L 151.581596 -257.418779 
L 151.536125 -257.437893 
L 151.577721 -257.457008 
L 151.709287 -257.476123 
L 151.932654 -257.495238 
L 152.248553 -257.514353 
L 152.656606 -257.533468 
L 153.155352 -257.552583 
L 153.742297 -257.571698 
L 154.413986 -257.590813 
L 155.166093 -257.609928 
L 155.993518 -257.629043 
L 156.890504 -257.648158 
L 157.850744 -257.667273 
L 158.867498 -257.686388 
L 159.933697 -257.705503 
L 161.042048 -257.724618 
L 162.185131 -257.743733 
L 163.355477 -257.762848 
L 164.545653 -257.781963 
L 165.748326 -257.801078 
L 166.956323 -257.820193 
L 168.162692 -257.839308 
L 169.360745 -257.858423 
L 170.544111 -257.877538 
L 171.70678 -257.896653 
L 172.843141 -257.915768 
L 173.948026 -257.934883 
L 175.016743 -257.953998 
L 176.045118 -257.973113 
L 177.029516 -257.992228 
L 177.96687 -258.011343 
L 178.8547 -258.030458 
L 179.691119 -258.049573 
L 180.474838 -258.068688 
L 181.205154 -258.087803 
L 181.881934 -258.106918 
L 182.505587 -258.126033 
L 183.077025 -258.145148 
L 183.597622 -258.164263 
L 184.069156 -258.183378 
L 184.493758 -258.202493 
L 184.873849 -258.221607 
L 185.212075 -258.240722 
L 185.51125 -258.259837 
L 188.985 -258.259837 
L 188.985 -258.259837 
L 189.284175 -258.240722 
L 189.622401 -258.221607 
L 190.002492 -258.202493 
L 190.427094 -258.183378 
L 190.898628 -258.164263 
L 191.419225 -258.145148 
L 191.990663 -258.126033 
L 192.614316 -258.106918 
L 193.291096 -258.087803 
L 194.021412 -258.068688 
L 194.805131 -258.049573 
L 195.64155 -258.030458 
L 196.52938 -258.011343 
L 197.466734 -257.992228 
L 198.451132 -257.973113 
L 199.479507 -257.953998 
L 200.548224 -257.934883 
L 201.653109 -257.915768 
L 202.78947 -257.896653 
L 203.952139 -257.877538 
L 205.135505 -257.858423 
L 206.333558 -257.839308 
L 207.539927 -257.820193 
L 208.747924 -257.801078 
L 209.950597 -257.781963 
L 211.140773 -257.762848 
L 212.311119 -257.743733 
L 213.454202 -257.724618 
L 214.562553 -257.705503 
L 215.628752 -257.686388 
L 216.645506 -257.667273 
L 217.605746 -257.648158 
L 218.502732 -257.629043 
L 219.330157 -257.609928 
L 220.082264 -257.590813 
L 220.753953 -257.571698 
L 221.340898 -257.552583 
L 221.839644 -257.533468 
L 222.247697 -257.514353 
L 222.563596 -257.495238 
L 222.786963 -257.476123 
L 222.918529 -257.457008 
L 222.960125 -257.437893 
L 222.914654 -257.418779 
L 222.786023 -257.399664 
L 222.579051 -257.380549 
L 222.299344 -257.361434 
L 221.953156 -257.342319 
L 221.547219 -257.323204 
L 221.088571 -257.304089 
L 220.58437 -257.284974 
L 220.04171 -257.265859 
L 219.46744 -257.246744 
L 218.868004 -257.227629 
L 218.249288 -257.208514 
L 217.616497 -257.189399 
L 216.974058 -257.170284 
L 216.325554 -257.151169 
L 215.673684 -257.132054 
L 215.020265 -257.112939 
L 214.366255 -257.093824 
L 213.711813 -257.074709 
L 213.056386 -257.055594 
L 212.39881 -257.036479 
L 211.737444 -257.017364 
L 211.070304 -256.998249 
L 210.395217 -256.979134 
L 209.709967 -256.960019 
L 209.012446 -256.940904 
L 208.300795 -256.921789 
L 207.573527 -256.902674 
L 206.829638 -256.883559 
L 206.068692 -256.864444 
L 205.290887 -256.845329 
L 204.497086 -256.826214 
L 203.68883 -256.807099 
L 202.868318 -256.787984 
L 202.038365 -256.768869 
L 201.202332 -256.749754 
L 200.364044 -256.730639 
L 199.527682 -256.711524 
L 198.697674 -256.692409 
L 197.878569 -256.673294 
L 197.074917 -256.654179 
L 196.29115 -256.635064 
L 195.531467 -256.61595 
L 194.799733 -256.596835 
L 194.099397 -256.57772 
L 193.433417 -256.558605 
L 192.80421 -256.53949 
L 192.213624 -256.520375 
L 191.662922 -256.50126 
L 191.152786 -256.482145 
L 190.683342 -256.46303 
L 190.254195 -256.443915 
L 189.864474 -256.4248 
L 189.512893 -256.405685 
L 189.197811 -256.38657 
L 188.917299 -256.367455 
z
" id="m35b73cbbbe" style="stroke:#3f3f3f;stroke-width:1.5;"/>
    </defs>
    <g clip-path="url(#p2eabf8e39d)">
     <use style="fill:#c03d3e;stroke:#3f3f3f;stroke-width:1.5;" x="0" xlink:href="#m35b73cbbbe" y="361.217877"/>
    </g>
   </g>
   <g id="PolyCollection_3">
    <defs>
     <path d="M 278.310077 -249.669478 
L 274.746173 -249.669478 
L 274.492451 -249.699615 
L 274.21314 -249.729752 
L 273.907421 -249.759889 
L 273.574742 -249.790026 
L 273.21486 -249.820164 
L 272.827882 -249.850301 
L 272.414303 -249.880438 
L 271.975036 -249.910575 
L 271.511441 -249.940712 
L 271.025336 -249.97085 
L 270.519007 -250.000987 
L 269.995199 -250.031124 
L 269.457099 -250.061261 
L 268.908308 -250.091398 
L 268.352792 -250.121535 
L 267.794826 -250.151673 
L 267.238922 -250.18181 
L 266.689751 -250.211947 
L 266.152043 -250.242084 
L 265.630495 -250.272221 
L 265.129658 -250.302359 
L 264.653833 -250.332496 
L 264.206959 -250.362633 
L 263.79251 -250.39277 
L 263.413397 -250.422907 
L 263.071881 -250.453044 
L 262.769497 -250.483182 
L 262.506998 -250.513319 
L 262.284317 -250.543456 
L 262.100547 -250.573593 
L 261.953943 -250.60373 
L 261.841958 -250.633867 
L 261.76128 -250.664005 
L 261.707915 -250.694142 
L 261.677273 -250.724279 
L 261.664283 -250.754416 
L 261.663517 -250.784553 
L 261.66933 -250.814691 
L 261.67601 -250.844828 
L 261.677931 -250.874965 
L 261.669702 -250.905102 
L 261.646324 -250.935239 
L 261.603323 -250.965376 
L 261.536887 -250.995514 
L 261.443977 -251.025651 
L 261.322419 -251.055788 
L 261.170983 -251.085925 
L 260.989427 -251.116062 
L 260.778524 -251.1462 
L 260.540059 -251.176337 
L 260.276803 -251.206474 
L 259.992458 -251.236611 
L 259.691583 -251.266748 
L 259.37949 -251.296885 
L 259.062135 -251.327023 
L 258.745975 -251.35716 
L 258.437828 -251.387297 
L 258.144714 -251.417434 
L 257.873699 -251.447571 
L 257.631729 -251.477709 
L 257.425477 -251.507846 
L 257.261191 -251.537983 
L 257.144559 -251.56812 
L 257.080577 -251.598257 
L 257.073449 -251.628394 
L 257.126498 -251.658532 
L 257.242096 -251.688669 
L 257.421628 -251.718806 
L 257.665466 -251.748943 
L 257.972977 -251.77908 
L 258.34255 -251.809217 
L 258.771639 -251.839355 
L 259.256836 -251.869492 
L 259.793952 -251.899629 
L 260.378121 -251.929766 
L 261.003905 -251.959903 
L 261.665418 -251.990041 
L 262.356446 -252.020178 
L 263.070577 -252.050315 
L 263.801322 -252.080452 
L 264.542236 -252.110589 
L 265.287029 -252.140726 
L 266.02967 -252.170864 
L 266.764476 -252.201001 
L 267.48619 -252.231138 
L 268.190045 -252.261275 
L 268.87181 -252.291412 
L 269.527825 -252.32155 
L 270.155021 -252.351687 
L 270.750922 -252.381824 
L 271.313636 -252.411961 
L 271.841841 -252.442098 
L 272.334747 -252.472235 
L 272.792066 -252.502373 
L 273.213963 -252.53251 
L 273.601006 -252.562647 
L 273.954115 -252.592784 
L 274.274511 -252.622921 
L 274.563656 -252.653059 
L 278.492594 -252.653059 
L 278.492594 -252.653059 
L 278.781739 -252.622921 
L 279.102135 -252.592784 
L 279.455244 -252.562647 
L 279.842287 -252.53251 
L 280.264184 -252.502373 
L 280.721503 -252.472235 
L 281.214409 -252.442098 
L 281.742614 -252.411961 
L 282.305328 -252.381824 
L 282.901229 -252.351687 
L 283.528425 -252.32155 
L 284.18444 -252.291412 
L 284.866205 -252.261275 
L 285.57006 -252.231138 
L 286.291774 -252.201001 
L 287.02658 -252.170864 
L 287.769221 -252.140726 
L 288.514014 -252.110589 
L 289.254928 -252.080452 
L 289.985673 -252.050315 
L 290.699804 -252.020178 
L 291.390832 -251.990041 
L 292.052345 -251.959903 
L 292.678129 -251.929766 
L 293.262298 -251.899629 
L 293.799414 -251.869492 
L 294.284611 -251.839355 
L 294.7137 -251.809217 
L 295.083273 -251.77908 
L 295.390784 -251.748943 
L 295.634622 -251.718806 
L 295.814154 -251.688669 
L 295.929752 -251.658532 
L 295.982801 -251.628394 
L 295.975673 -251.598257 
L 295.911691 -251.56812 
L 295.795059 -251.537983 
L 295.630773 -251.507846 
L 295.424521 -251.477709 
L 295.182551 -251.447571 
L 294.911536 -251.417434 
L 294.618422 -251.387297 
L 294.310275 -251.35716 
L 293.994115 -251.327023 
L 293.67676 -251.296885 
L 293.364667 -251.266748 
L 293.063792 -251.236611 
L 292.779447 -251.206474 
L 292.516191 -251.176337 
L 292.277726 -251.1462 
L 292.066823 -251.116062 
L 291.885267 -251.085925 
L 291.733831 -251.055788 
L 291.612273 -251.025651 
L 291.519363 -250.995514 
L 291.452927 -250.965376 
L 291.409926 -250.935239 
L 291.386548 -250.905102 
L 291.378319 -250.874965 
L 291.38024 -250.844828 
L 291.38692 -250.814691 
L 291.392733 -250.784553 
L 291.391967 -250.754416 
L 291.378977 -250.724279 
L 291.348335 -250.694142 
L 291.29497 -250.664005 
L 291.214292 -250.633867 
L 291.102307 -250.60373 
L 290.955703 -250.573593 
L 290.771933 -250.543456 
L 290.549252 -250.513319 
L 290.286753 -250.483182 
L 289.984369 -250.453044 
L 289.642853 -250.422907 
L 289.26374 -250.39277 
L 288.849291 -250.362633 
L 288.402417 -250.332496 
L 287.926592 -250.302359 
L 287.425755 -250.272221 
L 286.904207 -250.242084 
L 286.366499 -250.211947 
L 285.817328 -250.18181 
L 285.261424 -250.151673 
L 284.703458 -250.121535 
L 284.147942 -250.091398 
L 283.599151 -250.061261 
L 283.061051 -250.031124 
L 282.537243 -250.000987 
L 282.030914 -249.97085 
L 281.544809 -249.940712 
L 281.081214 -249.910575 
L 280.641947 -249.880438 
L 280.228368 -249.850301 
L 279.84139 -249.820164 
L 279.481508 -249.790026 
L 279.148829 -249.759889 
L 278.84311 -249.729752 
L 278.563799 -249.699615 
L 278.310077 -249.669478 
z
" id="mf748a0a163" style="stroke:#3f3f3f;stroke-width:1.5;"/>
    </defs>
    <g clip-path="url(#p2eabf8e39d)">
     <use style="fill:#9fd495;stroke:#3f3f3f;stroke-width:1.5;" x="0" xlink:href="#mf748a0a163" y="361.217877"/>
    </g>
   </g>
   <g id="PolyCollection_4">
    <defs>
     <path d="M 365.832129 -84.883752 
L 365.784121 -84.883752 
L 365.780441 -87.327388 
L 365.776342 -89.771025 
L 365.7718 -92.214661 
L 365.766798 -94.658298 
L 365.76132 -97.101934 
L 365.755355 -99.54557 
L 365.748899 -101.989207 
L 365.741954 -104.432843 
L 365.734528 -106.876479 
L 365.726639 -109.320116 
L 365.71831 -111.763752 
L 365.709577 -114.207388 
L 365.700481 -116.651025 
L 365.691073 -119.094661 
L 365.681415 -121.538298 
L 365.671574 -123.981934 
L 365.661627 -126.42557 
L 365.651656 -128.869207 
L 365.64175 -131.312843 
L 365.632 -133.756479 
L 365.622502 -136.200116 
L 365.613351 -138.643752 
L 365.604641 -141.087388 
L 365.596465 -143.531025 
L 365.588907 -145.974661 
L 365.582048 -148.418298 
L 365.575958 -150.861934 
L 365.570696 -153.30557 
L 365.566311 -155.749207 
L 365.562834 -158.192843 
L 365.560287 -160.636479 
L 365.558672 -163.080116 
L 365.557979 -165.523752 
L 365.558179 -167.967388 
L 365.559232 -170.411025 
L 365.56108 -172.854661 
L 365.563654 -175.298298 
L 365.566872 -177.741934 
L 365.570645 -180.18557 
L 365.574873 -182.629207 
L 365.579453 -185.072843 
L 365.584279 -187.516479 
L 365.589243 -189.960116 
L 365.594241 -192.403752 
L 365.599172 -194.847388 
L 365.603944 -197.291025 
L 365.608473 -199.734661 
L 365.612685 -202.178298 
L 365.616518 -204.621934 
L 365.619927 -207.06557 
L 365.622879 -209.509207 
L 365.625355 -211.952843 
L 365.627355 -214.396479 
L 365.628889 -216.840116 
L 365.629984 -219.283752 
L 365.63068 -221.727388 
L 365.631028 -224.171025 
L 365.631089 -226.614661 
L 365.630932 -229.058298 
L 365.630633 -231.501934 
L 365.630271 -233.94557 
L 365.629928 -236.389207 
L 365.629683 -238.832843 
L 365.629616 -241.276479 
L 365.6298 -243.720116 
L 365.630302 -246.163752 
L 365.631182 -248.607388 
L 365.63249 -251.051025 
L 365.634267 -253.494661 
L 365.636541 -255.938298 
L 365.63933 -258.381934 
L 365.642641 -260.82557 
L 365.646468 -263.269207 
L 365.650797 -265.712843 
L 365.6556 -268.156479 
L 365.660844 -270.600116 
L 365.666486 -273.043752 
L 365.672476 -275.487388 
L 365.678761 -277.931025 
L 365.685282 -280.374661 
L 365.691979 -282.818298 
L 365.698791 -285.261934 
L 365.705656 -287.70557 
L 365.712517 -290.149207 
L 365.719316 -292.592843 
L 365.726002 -295.036479 
L 365.732527 -297.480116 
L 365.738848 -299.923752 
L 365.744928 -302.367388 
L 365.750737 -304.811025 
L 365.75625 -307.254661 
L 365.761447 -309.698298 
L 365.766315 -312.141934 
L 365.770847 -314.58557 
L 365.77504 -317.029207 
L 365.778897 -319.472843 
L 365.782422 -321.916479 
L 365.785626 -324.360116 
L 365.788521 -326.803752 
L 365.827729 -326.803752 
L 365.827729 -326.803752 
L 365.830624 -324.360116 
L 365.833828 -321.916479 
L 365.837353 -319.472843 
L 365.84121 -317.029207 
L 365.845403 -314.58557 
L 365.849935 -312.141934 
L 365.854803 -309.698298 
L 365.86 -307.254661 
L 365.865513 -304.811025 
L 365.871322 -302.367388 
L 365.877402 -299.923752 
L 365.883723 -297.480116 
L 365.890248 -295.036479 
L 365.896934 -292.592843 
L 365.903733 -290.149207 
L 365.910594 -287.70557 
L 365.917459 -285.261934 
L 365.924271 -282.818298 
L 365.930968 -280.374661 
L 365.937489 -277.931025 
L 365.943774 -275.487388 
L 365.949764 -273.043752 
L 365.955406 -270.600116 
L 365.96065 -268.156479 
L 365.965453 -265.712843 
L 365.969782 -263.269207 
L 365.973609 -260.82557 
L 365.97692 -258.381934 
L 365.979709 -255.938298 
L 365.981983 -253.494661 
L 365.98376 -251.051025 
L 365.985068 -248.607388 
L 365.985948 -246.163752 
L 365.98645 -243.720116 
L 365.986634 -241.276479 
L 365.986567 -238.832843 
L 365.986322 -236.389207 
L 365.985979 -233.94557 
L 365.985617 -231.501934 
L 365.985318 -229.058298 
L 365.985161 -226.614661 
L 365.985222 -224.171025 
L 365.98557 -221.727388 
L 365.986266 -219.283752 
L 365.987361 -216.840116 
L 365.988895 -214.396479 
L 365.990895 -211.952843 
L 365.993371 -209.509207 
L 365.996323 -207.06557 
L 365.999732 -204.621934 
L 366.003565 -202.178298 
L 366.007777 -199.734661 
L 366.012306 -197.291025 
L 366.017078 -194.847388 
L 366.022009 -192.403752 
L 366.027007 -189.960116 
L 366.031971 -187.516479 
L 366.036797 -185.072843 
L 366.041377 -182.629207 
L 366.045605 -180.18557 
L 366.049378 -177.741934 
L 366.052596 -175.298298 
L 366.05517 -172.854661 
L 366.057018 -170.411025 
L 366.058071 -167.967388 
L 366.058271 -165.523752 
L 366.057578 -163.080116 
L 366.055963 -160.636479 
L 366.053416 -158.192843 
L 366.049939 -155.749207 
L 366.045554 -153.30557 
L 366.040292 -150.861934 
L 366.034202 -148.418298 
L 366.027343 -145.974661 
L 366.019785 -143.531025 
L 366.011609 -141.087388 
L 366.002899 -138.643752 
L 365.993748 -136.200116 
L 365.98425 -133.756479 
L 365.9745 -131.312843 
L 365.964594 -128.869207 
L 365.954623 -126.42557 
L 365.944676 -123.981934 
L 365.934835 -121.538298 
L 365.925177 -119.094661 
L 365.915769 -116.651025 
L 365.906673 -114.207388 
L 365.89794 -111.763752 
L 365.889611 -109.320116 
L 365.881722 -106.876479 
L 365.874296 -104.432843 
L 365.867351 -101.989207 
L 365.860895 -99.54557 
L 365.85493 -97.101934 
L 365.849452 -94.658298 
L 365.84445 -92.214661 
L 365.839908 -89.771025 
L 365.835809 -87.327388 
L 365.832129 -84.883752 
z
" id="ma761001e38" style="stroke:#3f3f3f;stroke-width:1.5;"/>
    </defs>
    <g clip-path="url(#p2eabf8e39d)">
     <use style="fill:#3274a1;stroke:#3f3f3f;stroke-width:1.5;" x="0" xlink:href="#ma761001e38" y="361.217877"/>
    </g>
   </g>
   <g id="matplotlib.axis_1">
    <g id="xtick_1">
     <g id="line2d_1">
      <defs>
       <path d="M 0 0 
L 0 3.5 
" id="m7b5de2b7f3" style="stroke:#000000;stroke-width:0.8;"/>
      </defs>
      <g>
       <use style="stroke:#000000;stroke-width:0.8;" x="97.968125" xlink:href="#m7b5de2b7f3" y="288.430125"/>
      </g>
     </g>
     <g id="text_1">
      <!-- kirenenko-rare -->
      <g transform="translate(33.659713 338.53869)rotate(-30)scale(0.1 -0.1)">
       <defs>
        <path d="M 9.078125 75.984375 
L 18.109375 75.984375 
L 18.109375 31.109375 
L 44.921875 54.6875 
L 56.390625 54.6875 
L 27.390625 29.109375 
L 57.625 0 
L 45.90625 0 
L 18.109375 26.703125 
L 18.109375 0 
L 9.078125 0 
z
" id="DejaVuSans-107"/>
        <path d="M 9.421875 54.6875 
L 18.40625 54.6875 
L 18.40625 0 
L 9.421875 0 
z
M 9.421875 75.984375 
L 18.40625 75.984375 
L 18.40625 64.59375 
L 9.421875 64.59375 
z
" id="DejaVuSans-105"/>
        <path d="M 41.109375 46.296875 
Q 39.59375 47.171875 37.8125 47.578125 
Q 36.03125 48 33.890625 48 
Q 26.265625 48 22.1875 43.046875 
Q 18.109375 38.09375 18.109375 28.8125 
L 18.109375 0 
L 9.078125 0 
L 9.078125 54.6875 
L 18.109375 54.6875 
L 18.109375 46.1875 
Q 20.953125 51.171875 25.484375 53.578125 
Q 30.03125 56 36.53125 56 
Q 37.453125 56 38.578125 55.875 
Q 39.703125 55.765625 41.0625 55.515625 
z
" id="DejaVuSans-114"/>
        <path d="M 56.203125 29.59375 
L 56.203125 25.203125 
L 14.890625 25.203125 
Q 15.484375 15.921875 20.484375 11.0625 
Q 25.484375 6.203125 34.421875 6.203125 
Q 39.59375 6.203125 44.453125 7.46875 
Q 49.3125 8.734375 54.109375 11.28125 
L 54.109375 2.78125 
Q 49.265625 0.734375 44.1875 -0.34375 
Q 39.109375 -1.421875 33.890625 -1.421875 
Q 20.796875 -1.421875 13.15625 6.1875 
Q 5.515625 13.8125 5.515625 26.8125 
Q 5.515625 40.234375 12.765625 48.109375 
Q 20.015625 56 32.328125 56 
Q 43.359375 56 49.78125 48.890625 
Q 56.203125 41.796875 56.203125 29.59375 
z
M 47.21875 32.234375 
Q 47.125 39.59375 43.09375 43.984375 
Q 39.0625 48.390625 32.421875 48.390625 
Q 24.90625 48.390625 20.390625 44.140625 
Q 15.875 39.890625 15.1875 32.171875 
z
" id="DejaVuSans-101"/>
        <path d="M 54.890625 33.015625 
L 54.890625 0 
L 45.90625 0 
L 45.90625 32.71875 
Q 45.90625 40.484375 42.875 44.328125 
Q 39.84375 48.1875 33.796875 48.1875 
Q 26.515625 48.1875 22.3125 43.546875 
Q 18.109375 38.921875 18.109375 30.90625 
L 18.109375 0 
L 9.078125 0 
L 9.078125 54.6875 
L 18.109375 54.6875 
L 18.109375 46.1875 
Q 21.34375 51.125 25.703125 53.5625 
Q 30.078125 56 35.796875 56 
Q 45.21875 56 50.046875 50.171875 
Q 54.890625 44.34375 54.890625 33.015625 
z
" id="DejaVuSans-110"/>
        <path d="M 30.609375 48.390625 
Q 23.390625 48.390625 19.1875 42.75 
Q 14.984375 37.109375 14.984375 27.296875 
Q 14.984375 17.484375 19.15625 11.84375 
Q 23.34375 6.203125 30.609375 6.203125 
Q 37.796875 6.203125 41.984375 11.859375 
Q 46.1875 17.53125 46.1875 27.296875 
Q 46.1875 37.015625 41.984375 42.703125 
Q 37.796875 48.390625 30.609375 48.390625 
z
M 30.609375 56 
Q 42.328125 56 49.015625 48.375 
Q 55.71875 40.765625 55.71875 27.296875 
Q 55.71875 13.875 49.015625 6.21875 
Q 42.328125 -1.421875 30.609375 -1.421875 
Q 18.84375 -1.421875 12.171875 6.21875 
Q 5.515625 13.875 5.515625 27.296875 
Q 5.515625 40.765625 12.171875 48.375 
Q 18.84375 56 30.609375 56 
z
" id="DejaVuSans-111"/>
        <path d="M 4.890625 31.390625 
L 31.203125 31.390625 
L 31.203125 23.390625 
L 4.890625 23.390625 
z
" id="DejaVuSans-45"/>
        <path d="M 34.28125 27.484375 
Q 23.390625 27.484375 19.1875 25 
Q 14.984375 22.515625 14.984375 16.5 
Q 14.984375 11.71875 18.140625 8.90625 
Q 21.296875 6.109375 26.703125 6.109375 
Q 34.1875 6.109375 38.703125 11.40625 
Q 43.21875 16.703125 43.21875 25.484375 
L 43.21875 27.484375 
z
M 52.203125 31.203125 
L 52.203125 0 
L 43.21875 0 
L 43.21875 8.296875 
Q 40.140625 3.328125 35.546875 0.953125 
Q 30.953125 -1.421875 24.3125 -1.421875 
Q 15.921875 -1.421875 10.953125 3.296875 
Q 6 8.015625 6 15.921875 
Q 6 25.140625 12.171875 29.828125 
Q 18.359375 34.515625 30.609375 34.515625 
L 43.21875 34.515625 
L 43.21875 35.40625 
Q 43.21875 41.609375 39.140625 45 
Q 35.0625 48.390625 27.6875 48.390625 
Q 23 48.390625 18.546875 47.265625 
Q 14.109375 46.140625 10.015625 43.890625 
L 10.015625 52.203125 
Q 14.9375 54.109375 19.578125 55.046875 
Q 24.21875 56 28.609375 56 
Q 40.484375 56 46.34375 49.84375 
Q 52.203125 43.703125 52.203125 31.203125 
z
" id="DejaVuSans-97"/>
       </defs>
       <use xlink:href="#DejaVuSans-107"/>
       <use x="57.910156" xlink:href="#DejaVuSans-105"/>
       <use x="85.693359" xlink:href="#DejaVuSans-114"/>
       <use x="124.556641" xlink:href="#DejaVuSans-101"/>
       <use x="186.080078" xlink:href="#DejaVuSans-110"/>
       <use x="249.458984" xlink:href="#DejaVuSans-101"/>
       <use x="310.982422" xlink:href="#DejaVuSans-110"/>
       <use x="374.361328" xlink:href="#DejaVuSans-107"/>
       <use x="428.646484" xlink:href="#DejaVuSans-111"/>
       <use x="491.703125" xlink:href="#DejaVuSans-45"/>
       <use x="527.787109" xlink:href="#DejaVuSans-114"/>
       <use x="568.900391" xlink:href="#DejaVuSans-97"/>
       <use x="630.179688" xlink:href="#DejaVuSans-114"/>
       <use x="669.042969" xlink:href="#DejaVuSans-101"/>
      </g>
     </g>
    </g>
    <g id="xtick_2">
     <g id="line2d_2">
      <g>
       <use style="stroke:#000000;stroke-width:0.8;" x="187.248125" xlink:href="#m7b5de2b7f3" y="288.430125"/>
      </g>
     </g>
     <g id="text_2">
      <!-- kirenenko -->
      <g transform="translate(143.787921 326.501971)rotate(-30)scale(0.1 -0.1)">
       <use xlink:href="#DejaVuSans-107"/>
       <use x="57.910156" xlink:href="#DejaVuSans-105"/>
       <use x="85.693359" xlink:href="#DejaVuSans-114"/>
       <use x="124.556641" xlink:href="#DejaVuSans-101"/>
       <use x="186.080078" xlink:href="#DejaVuSans-110"/>
       <use x="249.458984" xlink:href="#DejaVuSans-101"/>
       <use x="310.982422" xlink:href="#DejaVuSans-110"/>
       <use x="374.361328" xlink:href="#DejaVuSans-107"/>
       <use x="428.646484" xlink:href="#DejaVuSans-111"/>
      </g>
     </g>
    </g>
    <g id="xtick_3">
     <g id="line2d_3">
      <g>
       <use style="stroke:#000000;stroke-width:0.8;" x="276.528125" xlink:href="#m7b5de2b7f3" y="288.430125"/>
      </g>
     </g>
     <g id="text_3">
      <!-- honggfuzz -->
      <g transform="translate(230.588924 327.933221)rotate(-30)scale(0.1 -0.1)">
       <defs>
        <path d="M 54.890625 33.015625 
L 54.890625 0 
L 45.90625 0 
L 45.90625 32.71875 
Q 45.90625 40.484375 42.875 44.328125 
Q 39.84375 48.1875 33.796875 48.1875 
Q 26.515625 48.1875 22.3125 43.546875 
Q 18.109375 38.921875 18.109375 30.90625 
L 18.109375 0 
L 9.078125 0 
L 9.078125 75.984375 
L 18.109375 75.984375 
L 18.109375 46.1875 
Q 21.34375 51.125 25.703125 53.5625 
Q 30.078125 56 35.796875 56 
Q 45.21875 56 50.046875 50.171875 
Q 54.890625 44.34375 54.890625 33.015625 
z
" id="DejaVuSans-104"/>
        <path d="M 45.40625 27.984375 
Q 45.40625 37.75 41.375 43.109375 
Q 37.359375 48.484375 30.078125 48.484375 
Q 22.859375 48.484375 18.828125 43.109375 
Q 14.796875 37.75 14.796875 27.984375 
Q 14.796875 18.265625 18.828125 12.890625 
Q 22.859375 7.515625 30.078125 7.515625 
Q 37.359375 7.515625 41.375 12.890625 
Q 45.40625 18.265625 45.40625 27.984375 
z
M 54.390625 6.78125 
Q 54.390625 -7.171875 48.1875 -13.984375 
Q 42 -20.796875 29.203125 -20.796875 
Q 24.46875 -20.796875 20.265625 -20.09375 
Q 16.0625 -19.390625 12.109375 -17.921875 
L 12.109375 -9.1875 
Q 16.0625 -11.328125 19.921875 -12.34375 
Q 23.78125 -13.375 27.78125 -13.375 
Q 36.625 -13.375 41.015625 -8.765625 
Q 45.40625 -4.15625 45.40625 5.171875 
L 45.40625 9.625 
Q 42.625 4.78125 38.28125 2.390625 
Q 33.9375 0 27.875 0 
Q 17.828125 0 11.671875 7.65625 
Q 5.515625 15.328125 5.515625 27.984375 
Q 5.515625 40.671875 11.671875 48.328125 
Q 17.828125 56 27.875 56 
Q 33.9375 56 38.28125 53.609375 
Q 42.625 51.21875 45.40625 46.390625 
L 45.40625 54.6875 
L 54.390625 54.6875 
z
" id="DejaVuSans-103"/>
        <path d="M 37.109375 75.984375 
L 37.109375 68.5 
L 28.515625 68.5 
Q 23.6875 68.5 21.796875 66.546875 
Q 19.921875 64.59375 19.921875 59.515625 
L 19.921875 54.6875 
L 34.71875 54.6875 
L 34.71875 47.703125 
L 19.921875 47.703125 
L 19.921875 0 
L 10.890625 0 
L 10.890625 47.703125 
L 2.296875 47.703125 
L 2.296875 54.6875 
L 10.890625 54.6875 
L 10.890625 58.5 
Q 10.890625 67.625 15.140625 71.796875 
Q 19.390625 75.984375 28.609375 75.984375 
z
" id="DejaVuSans-102"/>
        <path d="M 8.5 21.578125 
L 8.5 54.6875 
L 17.484375 54.6875 
L 17.484375 21.921875 
Q 17.484375 14.15625 20.5 10.265625 
Q 23.53125 6.390625 29.59375 6.390625 
Q 36.859375 6.390625 41.078125 11.03125 
Q 45.3125 15.671875 45.3125 23.6875 
L 45.3125 54.6875 
L 54.296875 54.6875 
L 54.296875 0 
L 45.3125 0 
L 45.3125 8.40625 
Q 42.046875 3.421875 37.71875 1 
Q 33.40625 -1.421875 27.6875 -1.421875 
Q 18.265625 -1.421875 13.375 4.4375 
Q 8.5 10.296875 8.5 21.578125 
z
M 31.109375 56 
z
" id="DejaVuSans-117"/>
        <path d="M 5.515625 54.6875 
L 48.1875 54.6875 
L 48.1875 46.484375 
L 14.40625 7.171875 
L 48.1875 7.171875 
L 48.1875 0 
L 4.296875 0 
L 4.296875 8.203125 
L 38.09375 47.515625 
L 5.515625 47.515625 
z
" id="DejaVuSans-122"/>
       </defs>
       <use xlink:href="#DejaVuSans-104"/>
       <use x="63.378906" xlink:href="#DejaVuSans-111"/>
       <use x="124.560547" xlink:href="#DejaVuSans-110"/>
       <use x="187.939453" xlink:href="#DejaVuSans-103"/>
       <use x="251.416016" xlink:href="#DejaVuSans-103"/>
       <use x="314.892578" xlink:href="#DejaVuSans-102"/>
       <use x="350.097656" xlink:href="#DejaVuSans-117"/>
       <use x="413.476562" xlink:href="#DejaVuSans-122"/>
       <use x="465.966797" xlink:href="#DejaVuSans-122"/>
      </g>
     </g>
    </g>
    <g id="xtick_4">
     <g id="line2d_4">
      <g>
       <use style="stroke:#000000;stroke-width:0.8;" x="365.808125" xlink:href="#m7b5de2b7f3" y="288.430125"/>
      </g>
     </g>
     <g id="text_4">
      <!-- aflplusplus -->
      <g transform="translate(318.199118 328.897284)rotate(-30)scale(0.1 -0.1)">
       <defs>
        <path d="M 9.421875 75.984375 
L 18.40625 75.984375 
L 18.40625 0 
L 9.421875 0 
z
" id="DejaVuSans-108"/>
        <path d="M 18.109375 8.203125 
L 18.109375 -20.796875 
L 9.078125 -20.796875 
L 9.078125 54.6875 
L 18.109375 54.6875 
L 18.109375 46.390625 
Q 20.953125 51.265625 25.265625 53.625 
Q 29.59375 56 35.59375 56 
Q 45.5625 56 51.78125 48.09375 
Q 58.015625 40.1875 58.015625 27.296875 
Q 58.015625 14.40625 51.78125 6.484375 
Q 45.5625 -1.421875 35.59375 -1.421875 
Q 29.59375 -1.421875 25.265625 0.953125 
Q 20.953125 3.328125 18.109375 8.203125 
z
M 48.6875 27.296875 
Q 48.6875 37.203125 44.609375 42.84375 
Q 40.53125 48.484375 33.40625 48.484375 
Q 26.265625 48.484375 22.1875 42.84375 
Q 18.109375 37.203125 18.109375 27.296875 
Q 18.109375 17.390625 22.1875 11.75 
Q 26.265625 6.109375 33.40625 6.109375 
Q 40.53125 6.109375 44.609375 11.75 
Q 48.6875 17.390625 48.6875 27.296875 
z
" id="DejaVuSans-112"/>
        <path d="M 44.28125 53.078125 
L 44.28125 44.578125 
Q 40.484375 46.53125 36.375 47.5 
Q 32.28125 48.484375 27.875 48.484375 
Q 21.1875 48.484375 17.84375 46.4375 
Q 14.5 44.390625 14.5 40.28125 
Q 14.5 37.15625 16.890625 35.375 
Q 19.28125 33.59375 26.515625 31.984375 
L 29.59375 31.296875 
Q 39.15625 29.25 43.1875 25.515625 
Q 47.21875 21.78125 47.21875 15.09375 
Q 47.21875 7.46875 41.1875 3.015625 
Q 35.15625 -1.421875 24.609375 -1.421875 
Q 20.21875 -1.421875 15.453125 -0.5625 
Q 10.6875 0.296875 5.421875 2 
L 5.421875 11.28125 
Q 10.40625 8.6875 15.234375 7.390625 
Q 20.0625 6.109375 24.8125 6.109375 
Q 31.15625 6.109375 34.5625 8.28125 
Q 37.984375 10.453125 37.984375 14.40625 
Q 37.984375 18.0625 35.515625 20.015625 
Q 33.0625 21.96875 24.703125 23.78125 
L 21.578125 24.515625 
Q 13.234375 26.265625 9.515625 29.90625 
Q 5.8125 33.546875 5.8125 39.890625 
Q 5.8125 47.609375 11.28125 51.796875 
Q 16.75 56 26.8125 56 
Q 31.78125 56 36.171875 55.265625 
Q 40.578125 54.546875 44.28125 53.078125 
z
" id="DejaVuSans-115"/>
       </defs>
       <use xlink:href="#DejaVuSans-97"/>
       <use x="61.279297" xlink:href="#DejaVuSans-102"/>
       <use x="96.484375" xlink:href="#DejaVuSans-108"/>
       <use x="124.267578" xlink:href="#DejaVuSans-112"/>
       <use x="187.744141" xlink:href="#DejaVuSans-108"/>
       <use x="215.527344" xlink:href="#DejaVuSans-117"/>
       <use x="278.90625" xlink:href="#DejaVuSans-115"/>
       <use x="331.005859" xlink:href="#DejaVuSans-112"/>
       <use x="394.482422" xlink:href="#DejaVuSans-108"/>
       <use x="422.265625" xlink:href="#DejaVuSans-117"/>
       <use x="485.644531" xlink:href="#DejaVuSans-115"/>
      </g>
     </g>
    </g>
    <g id="text_5">
     <!-- Fuzzer (highest median coverage on the left) -->
     <g transform="translate(119.270156 351.93819)scale(0.1 -0.1)">
      <defs>
       <path d="M 9.8125 72.90625 
L 51.703125 72.90625 
L 51.703125 64.59375 
L 19.671875 64.59375 
L 19.671875 43.109375 
L 48.578125 43.109375 
L 48.578125 34.8125 
L 19.671875 34.8125 
L 19.671875 0 
L 9.8125 0 
z
" id="DejaVuSans-70"/>
       <path id="DejaVuSans-32"/>
       <path d="M 31 75.875 
Q 24.46875 64.65625 21.28125 53.65625 
Q 18.109375 42.671875 18.109375 31.390625 
Q 18.109375 20.125 21.3125 9.0625 
Q 24.515625 -2 31 -13.1875 
L 23.1875 -13.1875 
Q 15.875 -1.703125 12.234375 9.375 
Q 8.59375 20.453125 8.59375 31.390625 
Q 8.59375 42.28125 12.203125 53.3125 
Q 15.828125 64.359375 23.1875 75.875 
z
" id="DejaVuSans-40"/>
       <path d="M 18.3125 70.21875 
L 18.3125 54.6875 
L 36.8125 54.6875 
L 36.8125 47.703125 
L 18.3125 47.703125 
L 18.3125 18.015625 
Q 18.3125 11.328125 20.140625 9.421875 
Q 21.96875 7.515625 27.59375 7.515625 
L 36.8125 7.515625 
L 36.8125 0 
L 27.59375 0 
Q 17.1875 0 13.234375 3.875 
Q 9.28125 7.765625 9.28125 18.015625 
L 9.28125 47.703125 
L 2.6875 47.703125 
L 2.6875 54.6875 
L 9.28125 54.6875 
L 9.28125 70.21875 
z
" id="DejaVuSans-116"/>
       <path d="M 52 44.1875 
Q 55.375 50.25 60.0625 53.125 
Q 64.75 56 71.09375 56 
Q 79.640625 56 84.28125 50.015625 
Q 88.921875 44.046875 88.921875 33.015625 
L 88.921875 0 
L 79.890625 0 
L 79.890625 32.71875 
Q 79.890625 40.578125 77.09375 44.375 
Q 74.3125 48.1875 68.609375 48.1875 
Q 61.625 48.1875 57.5625 43.546875 
Q 53.515625 38.921875 53.515625 30.90625 
L 53.515625 0 
L 44.484375 0 
L 44.484375 32.71875 
Q 44.484375 40.625 41.703125 44.40625 
Q 38.921875 48.1875 33.109375 48.1875 
Q 26.21875 48.1875 22.15625 43.53125 
Q 18.109375 38.875 18.109375 30.90625 
L 18.109375 0 
L 9.078125 0 
L 9.078125 54.6875 
L 18.109375 54.6875 
L 18.109375 46.1875 
Q 21.1875 51.21875 25.484375 53.609375 
Q 29.78125 56 35.6875 56 
Q 41.65625 56 45.828125 52.96875 
Q 50 49.953125 52 44.1875 
z
" id="DejaVuSans-109"/>
       <path d="M 45.40625 46.390625 
L 45.40625 75.984375 
L 54.390625 75.984375 
L 54.390625 0 
L 45.40625 0 
L 45.40625 8.203125 
Q 42.578125 3.328125 38.25 0.953125 
Q 33.9375 -1.421875 27.875 -1.421875 
Q 17.96875 -1.421875 11.734375 6.484375 
Q 5.515625 14.40625 5.515625 27.296875 
Q 5.515625 40.1875 11.734375 48.09375 
Q 17.96875 56 27.875 56 
Q 33.9375 56 38.25 53.625 
Q 42.578125 51.265625 45.40625 46.390625 
z
M 14.796875 27.296875 
Q 14.796875 17.390625 18.875 11.75 
Q 22.953125 6.109375 30.078125 6.109375 
Q 37.203125 6.109375 41.296875 11.75 
Q 45.40625 17.390625 45.40625 27.296875 
Q 45.40625 37.203125 41.296875 42.84375 
Q 37.203125 48.484375 30.078125 48.484375 
Q 22.953125 48.484375 18.875 42.84375 
Q 14.796875 37.203125 14.796875 27.296875 
z
" id="DejaVuSans-100"/>
       <path d="M 48.78125 52.59375 
L 48.78125 44.1875 
Q 44.96875 46.296875 41.140625 47.34375 
Q 37.3125 48.390625 33.40625 48.390625 
Q 24.65625 48.390625 19.8125 42.84375 
Q 14.984375 37.3125 14.984375 27.296875 
Q 14.984375 17.28125 19.8125 11.734375 
Q 24.65625 6.203125 33.40625 6.203125 
Q 37.3125 6.203125 41.140625 7.25 
Q 44.96875 8.296875 48.78125 10.40625 
L 48.78125 2.09375 
Q 45.015625 0.34375 40.984375 -0.53125 
Q 36.96875 -1.421875 32.421875 -1.421875 
Q 20.0625 -1.421875 12.78125 6.34375 
Q 5.515625 14.109375 5.515625 27.296875 
Q 5.515625 40.671875 12.859375 48.328125 
Q 20.21875 56 33.015625 56 
Q 37.15625 56 41.109375 55.140625 
Q 45.0625 54.296875 48.78125 52.59375 
z
" id="DejaVuSans-99"/>
       <path d="M 2.984375 54.6875 
L 12.5 54.6875 
L 29.59375 8.796875 
L 46.6875 54.6875 
L 56.203125 54.6875 
L 35.6875 0 
L 23.484375 0 
z
" id="DejaVuSans-118"/>
       <path d="M 8.015625 75.875 
L 15.828125 75.875 
Q 23.140625 64.359375 26.78125 53.3125 
Q 30.421875 42.28125 30.421875 31.390625 
Q 30.421875 20.453125 26.78125 9.375 
Q 23.140625 -1.703125 15.828125 -13.1875 
L 8.015625 -13.1875 
Q 14.5 -2 17.703125 9.0625 
Q 20.90625 20.125 20.90625 31.390625 
Q 20.90625 42.671875 17.703125 53.65625 
Q 14.5 64.65625 8.015625 75.875 
z
" id="DejaVuSans-41"/>
      </defs>
      <use xlink:href="#DejaVuSans-70"/>
      <use x="52.019531" xlink:href="#DejaVuSans-117"/>
      <use x="115.398438" xlink:href="#DejaVuSans-122"/>
      <use x="167.888672" xlink:href="#DejaVuSans-122"/>
      <use x="220.378906" xlink:href="#DejaVuSans-101"/>
      <use x="281.902344" xlink:href="#DejaVuSans-114"/>
      <use x="323.015625" xlink:href="#DejaVuSans-32"/>
      <use x="354.802734" xlink:href="#DejaVuSans-40"/>
      <use x="393.816406" xlink:href="#DejaVuSans-104"/>
      <use x="457.195312" xlink:href="#DejaVuSans-105"/>
      <use x="484.978516" xlink:href="#DejaVuSans-103"/>
      <use x="548.455078" xlink:href="#DejaVuSans-104"/>
      <use x="611.833984" xlink:href="#DejaVuSans-101"/>
      <use x="673.357422" xlink:href="#DejaVuSans-115"/>
      <use x="725.457031" xlink:href="#DejaVuSans-116"/>
      <use x="764.666016" xlink:href="#DejaVuSans-32"/>
      <use x="796.453125" xlink:href="#DejaVuSans-109"/>
      <use x="893.865234" xlink:href="#DejaVuSans-101"/>
      <use x="955.388672" xlink:href="#DejaVuSans-100"/>
      <use x="1018.865234" xlink:href="#DejaVuSans-105"/>
      <use x="1046.648438" xlink:href="#DejaVuSans-97"/>
      <use x="1107.927734" xlink:href="#DejaVuSans-110"/>
      <use x="1171.306641" xlink:href="#DejaVuSans-32"/>
      <use x="1203.09375" xlink:href="#DejaVuSans-99"/>
      <use x="1258.074219" xlink:href="#DejaVuSans-111"/>
      <use x="1319.255859" xlink:href="#DejaVuSans-118"/>
      <use x="1378.435547" xlink:href="#DejaVuSans-101"/>
      <use x="1439.958984" xlink:href="#DejaVuSans-114"/>
      <use x="1481.072266" xlink:href="#DejaVuSans-97"/>
      <use x="1542.351562" xlink:href="#DejaVuSans-103"/>
      <use x="1605.828125" xlink:href="#DejaVuSans-101"/>
      <use x="1667.351562" xlink:href="#DejaVuSans-32"/>
      <use x="1699.138672" xlink:href="#DejaVuSans-111"/>
      <use x="1760.320312" xlink:href="#DejaVuSans-110"/>
      <use x="1823.699219" xlink:href="#DejaVuSans-32"/>
      <use x="1855.486328" xlink:href="#DejaVuSans-116"/>
      <use x="1894.695312" xlink:href="#DejaVuSans-104"/>
      <use x="1958.074219" xlink:href="#DejaVuSans-101"/>
      <use x="2019.597656" xlink:href="#DejaVuSans-32"/>
      <use x="2051.384766" xlink:href="#DejaVuSans-108"/>
      <use x="2079.167969" xlink:href="#DejaVuSans-101"/>
      <use x="2140.691406" xlink:href="#DejaVuSans-102"/>
      <use x="2174.146484" xlink:href="#DejaVuSans-116"/>
      <use x="2213.355469" xlink:href="#DejaVuSans-41"/>
     </g>
    </g>
   </g>
   <g id="matplotlib.axis_2">
    <g id="ytick_1">
     <g id="line2d_5">
      <defs>
       <path d="M 0 0 
L -3.5 0 
" id="m1a3b3b63fb" style="stroke:#000000;stroke-width:0.8;"/>
      </defs>
      <g>
       <use style="stroke:#000000;stroke-width:0.8;" x="53.328125" xlink:href="#m1a3b3b63fb" y="272.419365"/>
      </g>
     </g>
     <g id="text_6">
      <!-- 1600 -->
      <g transform="translate(20.878125 276.218584)scale(0.1 -0.1)">
       <defs>
        <path d="M 12.40625 8.296875 
L 28.515625 8.296875 
L 28.515625 63.921875 
L 10.984375 60.40625 
L 10.984375 69.390625 
L 28.421875 72.90625 
L 38.28125 72.90625 
L 38.28125 8.296875 
L 54.390625 8.296875 
L 54.390625 0 
L 12.40625 0 
z
" id="DejaVuSans-49"/>
        <path d="M 33.015625 40.375 
Q 26.375 40.375 22.484375 35.828125 
Q 18.609375 31.296875 18.609375 23.390625 
Q 18.609375 15.53125 22.484375 10.953125 
Q 26.375 6.390625 33.015625 6.390625 
Q 39.65625 6.390625 43.53125 10.953125 
Q 47.40625 15.53125 47.40625 23.390625 
Q 47.40625 31.296875 43.53125 35.828125 
Q 39.65625 40.375 33.015625 40.375 
z
M 52.59375 71.296875 
L 52.59375 62.3125 
Q 48.875 64.0625 45.09375 64.984375 
Q 41.3125 65.921875 37.59375 65.921875 
Q 27.828125 65.921875 22.671875 59.328125 
Q 17.53125 52.734375 16.796875 39.40625 
Q 19.671875 43.65625 24.015625 45.921875 
Q 28.375 48.1875 33.59375 48.1875 
Q 44.578125 48.1875 50.953125 41.515625 
Q 57.328125 34.859375 57.328125 23.390625 
Q 57.328125 12.15625 50.6875 5.359375 
Q 44.046875 -1.421875 33.015625 -1.421875 
Q 20.359375 -1.421875 13.671875 8.265625 
Q 6.984375 17.96875 6.984375 36.375 
Q 6.984375 53.65625 15.1875 63.9375 
Q 23.390625 74.21875 37.203125 74.21875 
Q 40.921875 74.21875 44.703125 73.484375 
Q 48.484375 72.75 52.59375 71.296875 
z
" id="DejaVuSans-54"/>
        <path d="M 31.78125 66.40625 
Q 24.171875 66.40625 20.328125 58.90625 
Q 16.5 51.421875 16.5 36.375 
Q 16.5 21.390625 20.328125 13.890625 
Q 24.171875 6.390625 31.78125 6.390625 
Q 39.453125 6.390625 43.28125 13.890625 
Q 47.125 21.390625 47.125 36.375 
Q 47.125 51.421875 43.28125 58.90625 
Q 39.453125 66.40625 31.78125 66.40625 
z
M 31.78125 74.21875 
Q 44.046875 74.21875 50.515625 64.515625 
Q 56.984375 54.828125 56.984375 36.375 
Q 56.984375 17.96875 50.515625 8.265625 
Q 44.046875 -1.421875 31.78125 -1.421875 
Q 19.53125 -1.421875 13.0625 8.265625 
Q 6.59375 17.96875 6.59375 36.375 
Q 6.59375 54.828125 13.0625 64.515625 
Q 19.53125 74.21875 31.78125 74.21875 
z
" id="DejaVuSans-48"/>
       </defs>
       <use xlink:href="#DejaVuSans-49"/>
       <use x="63.623047" xlink:href="#DejaVuSans-54"/>
       <use x="127.246094" xlink:href="#DejaVuSans-48"/>
       <use x="190.869141" xlink:href="#DejaVuSans-48"/>
      </g>
     </g>
    </g>
    <g id="ytick_2">
     <g id="line2d_6">
      <g>
       <use style="stroke:#000000;stroke-width:0.8;" x="53.328125" xlink:href="#m1a3b3b63fb" y="242.407765"/>
      </g>
     </g>
     <g id="text_7">
      <!-- 1700 -->
      <g transform="translate(20.878125 246.206984)scale(0.1 -0.1)">
       <defs>
        <path d="M 8.203125 72.90625 
L 55.078125 72.90625 
L 55.078125 68.703125 
L 28.609375 0 
L 18.3125 0 
L 43.21875 64.59375 
L 8.203125 64.59375 
z
" id="DejaVuSans-55"/>
       </defs>
       <use xlink:href="#DejaVuSans-49"/>
       <use x="63.623047" xlink:href="#DejaVuSans-55"/>
       <use x="127.246094" xlink:href="#DejaVuSans-48"/>
       <use x="190.869141" xlink:href="#DejaVuSans-48"/>
      </g>
     </g>
    </g>
    <g id="ytick_3">
     <g id="line2d_7">
      <g>
       <use style="stroke:#000000;stroke-width:0.8;" x="53.328125" xlink:href="#m1a3b3b63fb" y="212.396165"/>
      </g>
     </g>
     <g id="text_8">
      <!-- 1800 -->
      <g transform="translate(20.878125 216.195384)scale(0.1 -0.1)">
       <defs>
        <path d="M 31.78125 34.625 
Q 24.75 34.625 20.71875 30.859375 
Q 16.703125 27.09375 16.703125 20.515625 
Q 16.703125 13.921875 20.71875 10.15625 
Q 24.75 6.390625 31.78125 6.390625 
Q 38.8125 6.390625 42.859375 10.171875 
Q 46.921875 13.96875 46.921875 20.515625 
Q 46.921875 27.09375 42.890625 30.859375 
Q 38.875 34.625 31.78125 34.625 
z
M 21.921875 38.8125 
Q 15.578125 40.375 12.03125 44.71875 
Q 8.5 49.078125 8.5 55.328125 
Q 8.5 64.0625 14.71875 69.140625 
Q 20.953125 74.21875 31.78125 74.21875 
Q 42.671875 74.21875 48.875 69.140625 
Q 55.078125 64.0625 55.078125 55.328125 
Q 55.078125 49.078125 51.53125 44.71875 
Q 48 40.375 41.703125 38.8125 
Q 48.828125 37.15625 52.796875 32.3125 
Q 56.78125 27.484375 56.78125 20.515625 
Q 56.78125 9.90625 50.3125 4.234375 
Q 43.84375 -1.421875 31.78125 -1.421875 
Q 19.734375 -1.421875 13.25 4.234375 
Q 6.78125 9.90625 6.78125 20.515625 
Q 6.78125 27.484375 10.78125 32.3125 
Q 14.796875 37.15625 21.921875 38.8125 
z
M 18.3125 54.390625 
Q 18.3125 48.734375 21.84375 45.5625 
Q 25.390625 42.390625 31.78125 42.390625 
Q 38.140625 42.390625 41.71875 45.5625 
Q 45.3125 48.734375 45.3125 54.390625 
Q 45.3125 60.0625 41.71875 63.234375 
Q 38.140625 66.40625 31.78125 66.40625 
Q 25.390625 66.40625 21.84375 63.234375 
Q 18.3125 60.0625 18.3125 54.390625 
z
" id="DejaVuSans-56"/>
       </defs>
       <use xlink:href="#DejaVuSans-49"/>
       <use x="63.623047" xlink:href="#DejaVuSans-56"/>
       <use x="127.246094" xlink:href="#DejaVuSans-48"/>
       <use x="190.869141" xlink:href="#DejaVuSans-48"/>
      </g>
     </g>
    </g>
    <g id="ytick_4">
     <g id="line2d_8">
      <g>
       <use style="stroke:#000000;stroke-width:0.8;" x="53.328125" xlink:href="#m1a3b3b63fb" y="182.384565"/>
      </g>
     </g>
     <g id="text_9">
      <!-- 1900 -->
      <g transform="translate(20.878125 186.183784)scale(0.1 -0.1)">
       <defs>
        <path d="M 10.984375 1.515625 
L 10.984375 10.5 
Q 14.703125 8.734375 18.5 7.8125 
Q 22.3125 6.890625 25.984375 6.890625 
Q 35.75 6.890625 40.890625 13.453125 
Q 46.046875 20.015625 46.78125 33.40625 
Q 43.953125 29.203125 39.59375 26.953125 
Q 35.25 24.703125 29.984375 24.703125 
Q 19.046875 24.703125 12.671875 31.3125 
Q 6.296875 37.9375 6.296875 49.421875 
Q 6.296875 60.640625 12.9375 67.421875 
Q 19.578125 74.21875 30.609375 74.21875 
Q 43.265625 74.21875 49.921875 64.515625 
Q 56.59375 54.828125 56.59375 36.375 
Q 56.59375 19.140625 48.40625 8.859375 
Q 40.234375 -1.421875 26.421875 -1.421875 
Q 22.703125 -1.421875 18.890625 -0.6875 
Q 15.09375 0.046875 10.984375 1.515625 
z
M 30.609375 32.421875 
Q 37.25 32.421875 41.125 36.953125 
Q 45.015625 41.5 45.015625 49.421875 
Q 45.015625 57.28125 41.125 61.84375 
Q 37.25 66.40625 30.609375 66.40625 
Q 23.96875 66.40625 20.09375 61.84375 
Q 16.21875 57.28125 16.21875 49.421875 
Q 16.21875 41.5 20.09375 36.953125 
Q 23.96875 32.421875 30.609375 32.421875 
z
" id="DejaVuSans-57"/>
       </defs>
       <use xlink:href="#DejaVuSans-49"/>
       <use x="63.623047" xlink:href="#DejaVuSans-57"/>
       <use x="127.246094" xlink:href="#DejaVuSans-48"/>
       <use x="190.869141" xlink:href="#DejaVuSans-48"/>
      </g>
     </g>
    </g>
    <g id="ytick_5">
     <g id="line2d_9">
      <g>
       <use style="stroke:#000000;stroke-width:0.8;" x="53.328125" xlink:href="#m1a3b3b63fb" y="152.372965"/>
      </g>
     </g>
     <g id="text_10">
      <!-- 2000 -->
      <g transform="translate(20.878125 156.172184)scale(0.1 -0.1)">
       <defs>
        <path d="M 19.1875 8.296875 
L 53.609375 8.296875 
L 53.609375 0 
L 7.328125 0 
L 7.328125 8.296875 
Q 12.9375 14.109375 22.625 23.890625 
Q 32.328125 33.6875 34.8125 36.53125 
Q 39.546875 41.84375 41.421875 45.53125 
Q 43.3125 49.21875 43.3125 52.78125 
Q 43.3125 58.59375 39.234375 62.25 
Q 35.15625 65.921875 28.609375 65.921875 
Q 23.96875 65.921875 18.8125 64.3125 
Q 13.671875 62.703125 7.8125 59.421875 
L 7.8125 69.390625 
Q 13.765625 71.78125 18.9375 73 
Q 24.125 74.21875 28.421875 74.21875 
Q 39.75 74.21875 46.484375 68.546875 
Q 53.21875 62.890625 53.21875 53.421875 
Q 53.21875 48.921875 51.53125 44.890625 
Q 49.859375 40.875 45.40625 35.40625 
Q 44.1875 33.984375 37.640625 27.21875 
Q 31.109375 20.453125 19.1875 8.296875 
z
" id="DejaVuSans-50"/>
       </defs>
       <use xlink:href="#DejaVuSans-50"/>
       <use x="63.623047" xlink:href="#DejaVuSans-48"/>
       <use x="127.246094" xlink:href="#DejaVuSans-48"/>
       <use x="190.869141" xlink:href="#DejaVuSans-48"/>
      </g>
     </g>
    </g>
    <g id="ytick_6">
     <g id="line2d_10">
      <g>
       <use style="stroke:#000000;stroke-width:0.8;" x="53.328125" xlink:href="#m1a3b3b63fb" y="122.361365"/>
      </g>
     </g>
     <g id="text_11">
      <!-- 2100 -->
      <g transform="translate(20.878125 126.160584)scale(0.1 -0.1)">
       <use xlink:href="#DejaVuSans-50"/>
       <use x="63.623047" xlink:href="#DejaVuSans-49"/>
       <use x="127.246094" xlink:href="#DejaVuSans-48"/>
       <use x="190.869141" xlink:href="#DejaVuSans-48"/>
      </g>
     </g>
    </g>
    <g id="ytick_7">
     <g id="line2d_11">
      <g>
       <use style="stroke:#000000;stroke-width:0.8;" x="53.328125" xlink:href="#m1a3b3b63fb" y="92.349765"/>
      </g>
     </g>
     <g id="text_12">
      <!-- 2200 -->
      <g transform="translate(20.878125 96.148984)scale(0.1 -0.1)">
       <use xlink:href="#DejaVuSans-50"/>
       <use x="63.623047" xlink:href="#DejaVuSans-50"/>
       <use x="127.246094" xlink:href="#DejaVuSans-48"/>
       <use x="190.869141" xlink:href="#DejaVuSans-48"/>
      </g>
     </g>
    </g>
    <g id="ytick_8">
     <g id="line2d_12">
      <g>
       <use style="stroke:#000000;stroke-width:0.8;" x="53.328125" xlink:href="#m1a3b3b63fb" y="62.338165"/>
      </g>
     </g>
     <g id="text_13">
      <!-- 2300 -->
      <g transform="translate(20.878125 66.137384)scale(0.1 -0.1)">
       <defs>
        <path d="M 40.578125 39.3125 
Q 47.65625 37.796875 51.625 33 
Q 55.609375 28.21875 55.609375 21.1875 
Q 55.609375 10.40625 48.1875 4.484375 
Q 40.765625 -1.421875 27.09375 -1.421875 
Q 22.515625 -1.421875 17.65625 -0.515625 
Q 12.796875 0.390625 7.625 2.203125 
L 7.625 11.71875 
Q 11.71875 9.328125 16.59375 8.109375 
Q 21.484375 6.890625 26.8125 6.890625 
Q 36.078125 6.890625 40.9375 10.546875 
Q 45.796875 14.203125 45.796875 21.1875 
Q 45.796875 27.640625 41.28125 31.265625 
Q 36.765625 34.90625 28.71875 34.90625 
L 20.21875 34.90625 
L 20.21875 43.015625 
L 29.109375 43.015625 
Q 36.375 43.015625 40.234375 45.921875 
Q 44.09375 48.828125 44.09375 54.296875 
Q 44.09375 59.90625 40.109375 62.90625 
Q 36.140625 65.921875 28.71875 65.921875 
Q 24.65625 65.921875 20.015625 65.03125 
Q 15.375 64.15625 9.8125 62.3125 
L 9.8125 71.09375 
Q 15.4375 72.65625 20.34375 73.4375 
Q 25.25 74.21875 29.59375 74.21875 
Q 40.828125 74.21875 47.359375 69.109375 
Q 53.90625 64.015625 53.90625 55.328125 
Q 53.90625 49.265625 50.4375 45.09375 
Q 46.96875 40.921875 40.578125 39.3125 
z
" id="DejaVuSans-51"/>
       </defs>
       <use xlink:href="#DejaVuSans-50"/>
       <use x="63.623047" xlink:href="#DejaVuSans-51"/>
       <use x="127.246094" xlink:href="#DejaVuSans-48"/>
       <use x="190.869141" xlink:href="#DejaVuSans-48"/>
      </g>
     </g>
    </g>
    <g id="ytick_9">
     <g id="line2d_13">
      <g>
       <use style="stroke:#000000;stroke-width:0.8;" x="53.328125" xlink:href="#m1a3b3b63fb" y="32.326565"/>
      </g>
     </g>
     <g id="text_14">
      <!-- 2400 -->
      <g transform="translate(20.878125 36.125784)scale(0.1 -0.1)">
       <defs>
        <path d="M 37.796875 64.3125 
L 12.890625 25.390625 
L 37.796875 25.390625 
z
M 35.203125 72.90625 
L 47.609375 72.90625 
L 47.609375 25.390625 
L 58.015625 25.390625 
L 58.015625 17.1875 
L 47.609375 17.1875 
L 47.609375 0 
L 37.796875 0 
L 37.796875 17.1875 
L 4.890625 17.1875 
L 4.890625 26.703125 
z
" id="DejaVuSans-52"/>
       </defs>
       <use xlink:href="#DejaVuSans-50"/>
       <use x="63.623047" xlink:href="#DejaVuSans-52"/>
       <use x="127.246094" xlink:href="#DejaVuSans-48"/>
       <use x="190.869141" xlink:href="#DejaVuSans-48"/>
      </g>
     </g>
    </g>
    <g id="text_15">
     <!-- Reached region coverage -->
     <g transform="translate(14.798438 219.136625)rotate(-90)scale(0.1 -0.1)">
      <defs>
       <path d="M 44.390625 34.1875 
Q 47.5625 33.109375 50.5625 29.59375 
Q 53.5625 26.078125 56.59375 19.921875 
L 66.609375 0 
L 56 0 
L 46.6875 18.703125 
Q 43.0625 26.03125 39.671875 28.421875 
Q 36.28125 30.8125 30.421875 30.8125 
L 19.671875 30.8125 
L 19.671875 0 
L 9.8125 0 
L 9.8125 72.90625 
L 32.078125 72.90625 
Q 44.578125 72.90625 50.734375 67.671875 
Q 56.890625 62.453125 56.890625 51.90625 
Q 56.890625 45.015625 53.6875 40.46875 
Q 50.484375 35.9375 44.390625 34.1875 
z
M 19.671875 64.796875 
L 19.671875 38.921875 
L 32.078125 38.921875 
Q 39.203125 38.921875 42.84375 42.21875 
Q 46.484375 45.515625 46.484375 51.90625 
Q 46.484375 58.296875 42.84375 61.546875 
Q 39.203125 64.796875 32.078125 64.796875 
z
" id="DejaVuSans-82"/>
      </defs>
      <use xlink:href="#DejaVuSans-82"/>
      <use x="64.982422" xlink:href="#DejaVuSans-101"/>
      <use x="126.505859" xlink:href="#DejaVuSans-97"/>
      <use x="187.785156" xlink:href="#DejaVuSans-99"/>
      <use x="242.765625" xlink:href="#DejaVuSans-104"/>
      <use x="306.144531" xlink:href="#DejaVuSans-101"/>
      <use x="367.667969" xlink:href="#DejaVuSans-100"/>
      <use x="431.144531" xlink:href="#DejaVuSans-32"/>
      <use x="462.931641" xlink:href="#DejaVuSans-114"/>
      <use x="501.794922" xlink:href="#DejaVuSans-101"/>
      <use x="563.318359" xlink:href="#DejaVuSans-103"/>
      <use x="626.794922" xlink:href="#DejaVuSans-105"/>
      <use x="654.578125" xlink:href="#DejaVuSans-111"/>
      <use x="715.759766" xlink:href="#DejaVuSans-110"/>
      <use x="779.138672" xlink:href="#DejaVuSans-32"/>
      <use x="810.925781" xlink:href="#DejaVuSans-99"/>
      <use x="865.90625" xlink:href="#DejaVuSans-111"/>
      <use x="927.087891" xlink:href="#DejaVuSans-118"/>
      <use x="986.267578" xlink:href="#DejaVuSans-101"/>
      <use x="1047.791016" xlink:href="#DejaVuSans-114"/>
      <use x="1088.904297" xlink:href="#DejaVuSans-97"/>
      <use x="1150.183594" xlink:href="#DejaVuSans-103"/>
      <use x="1213.660156" xlink:href="#DejaVuSans-101"/>
     </g>
    </g>
   </g>
   <g id="line2d_14">
    <path clip-path="url(#p2eabf8e39d)" d="M 97.968125 104.354405 
L 97.968125 103.153941 
" style="fill:none;stroke:#3f3f3f;stroke-linecap:square;stroke-width:1.5;"/>
   </g>
   <g id="line2d_15">
    <path clip-path="url(#p2eabf8e39d)" d="M 97.968125 104.354405 
L 97.968125 103.754173 
" style="fill:none;stroke:#3f3f3f;stroke-linecap:square;stroke-width:4.5;"/>
   </g>
   <g id="line2d_16">
    <path clip-path="url(#p2eabf8e39d)" d="M 187.248125 104.354405 
L 187.248125 103.454057 
" style="fill:none;stroke:#3f3f3f;stroke-linecap:square;stroke-width:1.5;"/>
   </g>
   <g id="line2d_17">
    <path clip-path="url(#p2eabf8e39d)" d="M 187.248125 104.054289 
L 187.248125 103.754173 
" style="fill:none;stroke:#3f3f3f;stroke-linecap:square;stroke-width:4.5;"/>
   </g>
   <g id="line2d_18">
    <path clip-path="url(#p2eabf8e39d)" d="M 276.528125 110.656841 
L 276.528125 109.456377 
" style="fill:none;stroke:#3f3f3f;stroke-linecap:square;stroke-width:1.5;"/>
   </g>
   <g id="line2d_19">
    <path clip-path="url(#p2eabf8e39d)" d="M 276.528125 110.656841 
L 276.528125 109.456377 
" style="fill:none;stroke:#3f3f3f;stroke-linecap:square;stroke-width:4.5;"/>
   </g>
   <g id="line2d_20">
    <path clip-path="url(#p2eabf8e39d)" d="M 365.808125 204.593149 
L 365.808125 106.155101 
" style="fill:none;stroke:#3f3f3f;stroke-linecap:square;stroke-width:1.5;"/>
   </g>
   <g id="line2d_21">
    <path clip-path="url(#p2eabf8e39d)" d="M 365.808125 199.191061 
L 365.808125 110.656841 
" style="fill:none;stroke:#3f3f3f;stroke-linecap:square;stroke-width:4.5;"/>
   </g>
   <g id="patch_3">
    <path d="M 53.328125 272.419365 
L 53.328125 32.326565 
" style="fill:none;stroke:#000000;stroke-linecap:square;stroke-linejoin:miter;stroke-width:0.8;"/>
   </g>
   <g id="patch_4">
    <path d="M 97.968125 288.430125 
L 365.808125 288.430125 
" style="fill:none;stroke:#000000;stroke-linecap:square;stroke-linejoin:miter;stroke-width:0.8;"/>
   </g>
   <g id="PathCollection_1">
    <defs>
     <path d="M 0 1.5 
C 0.397805 1.5 0.77937 1.341951 1.06066 1.06066 
C 1.341951 0.77937 1.5 0.397805 1.5 0 
C 1.5 -0.397805 1.341951 -0.77937 1.06066 -1.06066 
C 0.77937 -1.341951 0.397805 -1.5 0 -1.5 
C -0.397805 -1.5 -0.77937 -1.341951 -1.06066 -1.06066 
C -1.341951 -0.77937 -1.5 -0.397805 -1.5 0 
C -1.5 0.397805 -1.341951 0.77937 -1.06066 1.06066 
C -0.77937 1.341951 -0.397805 1.5 0 1.5 
z
" id="mff3bec1498" style="stroke:#3f3f3f;"/>
    </defs>
    <g clip-path="url(#p2eabf8e39d)">
     <use style="fill:#ffffff;stroke:#3f3f3f;" x="97.968125" xlink:href="#mff3bec1498" y="103.754173"/>
    </g>
   </g>
   <g id="PathCollection_2">
    <g clip-path="url(#p2eabf8e39d)">
     <use style="fill:#ffffff;stroke:#3f3f3f;" x="187.248125" xlink:href="#mff3bec1498" y="103.754173"/>
    </g>
   </g>
   <g id="PathCollection_3">
    <g clip-path="url(#p2eabf8e39d)">
     <use style="fill:#ffffff;stroke:#3f3f3f;" x="276.528125" xlink:href="#mff3bec1498" y="109.756493"/>
    </g>
   </g>
   <g id="PathCollection_4">
    <g clip-path="url(#p2eabf8e39d)">
     <use style="fill:#ffffff;stroke:#3f3f3f;" x="365.808125" xlink:href="#mff3bec1498" y="191.087929"/>
    </g>
   </g>
   <g id="text_16">
    <!-- vorbis-2017-12-11 (12h, 5 trials/fuzzer) -->
    <g transform="translate(113.651563 16.318125)scale(0.12 -0.12)">
     <defs>
      <path d="M 48.6875 27.296875 
Q 48.6875 37.203125 44.609375 42.84375 
Q 40.53125 48.484375 33.40625 48.484375 
Q 26.265625 48.484375 22.1875 42.84375 
Q 18.109375 37.203125 18.109375 27.296875 
Q 18.109375 17.390625 22.1875 11.75 
Q 26.265625 6.109375 33.40625 6.109375 
Q 40.53125 6.109375 44.609375 11.75 
Q 48.6875 17.390625 48.6875 27.296875 
z
M 18.109375 46.390625 
Q 20.953125 51.265625 25.265625 53.625 
Q 29.59375 56 35.59375 56 
Q 45.5625 56 51.78125 48.09375 
Q 58.015625 40.1875 58.015625 27.296875 
Q 58.015625 14.40625 51.78125 6.484375 
Q 45.5625 -1.421875 35.59375 -1.421875 
Q 29.59375 -1.421875 25.265625 0.953125 
Q 20.953125 3.328125 18.109375 8.203125 
L 18.109375 0 
L 9.078125 0 
L 9.078125 75.984375 
L 18.109375 75.984375 
z
" id="DejaVuSans-98"/>
      <path d="M 11.71875 12.40625 
L 22.015625 12.40625 
L 22.015625 4 
L 14.015625 -11.625 
L 7.71875 -11.625 
L 11.71875 4 
z
" id="DejaVuSans-44"/>
      <path d="M 10.796875 72.90625 
L 49.515625 72.90625 
L 49.515625 64.59375 
L 19.828125 64.59375 
L 19.828125 46.734375 
Q 21.96875 47.46875 24.109375 47.828125 
Q 26.265625 48.1875 28.421875 48.1875 
Q 40.625 48.1875 47.75 41.5 
Q 54.890625 34.8125 54.890625 23.390625 
Q 54.890625 11.625 47.5625 5.09375 
Q 40.234375 -1.421875 26.90625 -1.421875 
Q 22.3125 -1.421875 17.546875 -0.640625 
Q 12.796875 0.140625 7.71875 1.703125 
L 7.71875 11.625 
Q 12.109375 9.234375 16.796875 8.0625 
Q 21.484375 6.890625 26.703125 6.890625 
Q 35.15625 6.890625 40.078125 11.328125 
Q 45.015625 15.765625 45.015625 23.390625 
Q 45.015625 31 40.078125 35.4375 
Q 35.15625 39.890625 26.703125 39.890625 
Q 22.75 39.890625 18.8125 39.015625 
Q 14.890625 38.140625 10.796875 36.28125 
z
" id="DejaVuSans-53"/>
      <path d="M 25.390625 72.90625 
L 33.6875 72.90625 
L 8.296875 -9.28125 
L 0 -9.28125 
z
" id="DejaVuSans-47"/>
     </defs>
     <use xlink:href="#DejaVuSans-118"/>
     <use x="59.179688" xlink:href="#DejaVuSans-111"/>
     <use x="120.361328" xlink:href="#DejaVuSans-114"/>
     <use x="161.474609" xlink:href="#DejaVuSans-98"/>
     <use x="224.951172" xlink:href="#DejaVuSans-105"/>
     <use x="252.734375" xlink:href="#DejaVuSans-115"/>
     <use x="304.833984" xlink:href="#DejaVuSans-45"/>
     <use x="340.917969" xlink:href="#DejaVuSans-50"/>
     <use x="404.541016" xlink:href="#DejaVuSans-48"/>
     <use x="468.164062" xlink:href="#DejaVuSans-49"/>
     <use x="531.787109" xlink:href="#DejaVuSans-55"/>
     <use x="595.410156" xlink:href="#DejaVuSans-45"/>
     <use x="631.494141" xlink:href="#DejaVuSans-49"/>
     <use x="695.117188" xlink:href="#DejaVuSans-50"/>
     <use x="758.740234" xlink:href="#DejaVuSans-45"/>
     <use x="794.824219" xlink:href="#DejaVuSans-49"/>
     <use x="858.447266" xlink:href="#DejaVuSans-49"/>
     <use x="922.070312" xlink:href="#DejaVuSans-32"/>
     <use x="953.857422" xlink:href="#DejaVuSans-40"/>
     <use x="992.871094" xlink:href="#DejaVuSans-49"/>
     <use x="1056.494141" xlink:href="#DejaVuSans-50"/>
     <use x="1120.117188" xlink:href="#DejaVuSans-104"/>
     <use x="1183.496094" xlink:href="#DejaVuSans-44"/>
     <use x="1215.283203" xlink:href="#DejaVuSans-32"/>
     <use x="1247.070312" xlink:href="#DejaVuSans-53"/>
     <use x="1310.693359" xlink:href="#DejaVuSans-32"/>
     <use x="1342.480469" xlink:href="#DejaVuSans-116"/>
     <use x="1381.689453" xlink:href="#DejaVuSans-114"/>
     <use x="1422.802734" xlink:href="#DejaVuSans-105"/>
     <use x="1450.585938" xlink:href="#DejaVuSans-97"/>
     <use x="1511.865234" xlink:href="#DejaVuSans-108"/>
     <use x="1539.648438" xlink:href="#DejaVuSans-115"/>
     <use x="1591.748047" xlink:href="#DejaVuSans-47"/>
     <use x="1625.439453" xlink:href="#DejaVuSans-102"/>
     <use x="1660.644531" xlink:href="#DejaVuSans-117"/>
     <use x="1724.023438" xlink:href="#DejaVuSans-122"/>
     <use x="1776.513672" xlink:href="#DejaVuSans-122"/>
     <use x="1829.003906" xlink:href="#DejaVuSans-101"/>
     <use x="1890.527344" xlink:href="#DejaVuSans-114"/>
     <use x="1931.640625" xlink:href="#DejaVuSans-41"/>
    </g>
   </g>
  </g>
 </g>
 <defs>
  <clipPath id="p2eabf8e39d">
   <rect height="266.112" width="357.12" x="53.328125" y="22.318125"/>
  </clipPath>
 </defs>
</svg>
