<?xml version="1.0" encoding="utf-8" standalone="no"?>
<!DOCTYPE svg PUBLIC "-//W3C//DTD SVG 1.1//EN"
  "http://www.w3.org/Graphics/SVG/1.1/DTD/svg11.dtd">
<svg height="367.547803pt" version="1.1" viewBox="0 0 417.648125 367.547803" width="417.648125pt" xmlns="http://www.w3.org/2000/svg" xmlns:xlink="http://www.w3.org/1999/xlink">
 <metadata>
  <rdf:RDF xmlns:cc="http://creativecommons.org/ns#" xmlns:dc="http://purl.org/dc/elements/1.1/" xmlns:rdf="http://www.w3.org/1999/02/22-rdf-syntax-ns#">
   <cc:Work>
    <dc:type rdf:resource="http://purl.org/dc/dcmitype/StillImage"/>
    <dc:date>2021-05-06T08:36:59.665771</dc:date>
    <dc:format>image/svg+xml</dc:format>
    <dc:creator>
     <cc:Agent>
      <dc:title>Matplotlib v3.4.1, https://matplotlib.org/</dc:title>
     </cc:Agent>
    </dc:creator>
   </cc:Work>
  </rdf:RDF>
 </metadata>
 <defs>
  <style type="text/css">*{stroke-linecap:butt;stroke-linejoin:round;}</style>
 </defs>
 <g id="figure_1">
  <g id="patch_1">
   <path d="M 0 367.547803 
L 417.648125 367.547803 
L 417.648125 0 
L 0 0 
z
" style="fill:#ffffff;"/>
  </g>
  <g id="axes_1">
   <g id="patch_2">
    <path d="M 53.328125 288.430125 
L 410.448125 288.430125 
L 410.448125 22.318125 
L 53.328125 22.318125 
z
" style="fill:#ffffff;"/>
   </g>
   <g id="patch_3">
    <path clip-path="url(#pfdc12e3475)" d="M 55.708925 288.430125 
L 74.755325 288.430125 
L 74.755325 35.978669 
L 55.708925 35.978669 
z
" style="fill:#f2a5a3;"/>
   </g>
   <g id="patch_4">
    <path clip-path="url(#pfdc12e3475)" d="M 79.516925 288.430125 
L 98.563325 288.430125 
L 98.563325 39.28462 
L 79.516925 39.28462 
z
" style="fill:#845b53;"/>
   </g>
   <g id="patch_5">
    <path clip-path="url(#pfdc12e3475)" d="M 103.324925 288.430125 
L 122.371325 288.430125 
L 122.371325 39.560115 
L 103.324925 39.560115 
z
" style="fill:#d1d197;"/>
   </g>
   <g id="patch_6">
    <path clip-path="url(#pfdc12e3475)" d="M 127.132925 288.430125 
L 146.179325 288.430125 
L 146.179325 57.807666 
L 127.132925 57.807666 
z
" style="fill:#e1812c;"/>
   </g>
   <g id="patch_7">
    <path clip-path="url(#pfdc12e3475)" d="M 150.940925 288.430125 
L 169.987325 288.430125 
L 169.987325 104.901255 
L 150.940925 104.901255 
z
" style="fill:#7f7f7f;"/>
   </g>
   <g id="patch_8">
    <path clip-path="url(#pfdc12e3475)" d="M 174.748925 288.430125 
L 193.795325 288.430125 
L 193.795325 105.987033 
L 174.748925 105.987033 
z
" style="fill:#c4b5d0;"/>
   </g>
   <g id="patch_9">
    <path clip-path="url(#pfdc12e3475)" d="M 198.556925 288.430125 
L 217.603325 288.430125 
L 217.603325 106.084267 
L 198.556925 106.084267 
z
" style="fill:#3a923a;"/>
   </g>
   <g id="patch_10">
    <path clip-path="url(#pfdc12e3475)" d="M 222.364925 288.430125 
L 241.411325 288.430125 
L 241.411325 106.797315 
L 222.364925 106.797315 
z
" style="fill:#a7d4dc;"/>
   </g>
   <g id="patch_11">
    <path clip-path="url(#pfdc12e3475)" d="M 246.172925 288.430125 
L 265.219325 288.430125 
L 265.219325 108.109972 
L 246.172925 108.109972 
z
" style="fill:#c03d3e;"/>
   </g>
   <g id="patch_12">
    <path clip-path="url(#pfdc12e3475)" d="M 269.980925 288.430125 
L 289.027325 288.430125 
L 289.027325 127.054364 
L 269.980925 127.054364 
z
" style="fill:#c7c7c7;"/>
   </g>
   <g id="patch_13">
    <path clip-path="url(#pfdc12e3475)" d="M 293.788925 288.430125 
L 312.835325 288.430125 
L 312.835325 131.543327 
L 293.788925 131.543327 
z
" style="fill:#3274a1;"/>
   </g>
   <g id="patch_14">
    <path clip-path="url(#pfdc12e3475)" d="M 317.596925 288.430125 
L 336.643325 288.430125 
L 336.643325 132.985629 
L 317.596925 132.985629 
z
" style="fill:#d684bd;"/>
   </g>
   <g id="patch_15">
    <path clip-path="url(#pfdc12e3475)" d="M 341.404925 288.430125 
L 360.451325 288.430125 
L 360.451325 148.251341 
L 341.404925 148.251341 
z
" style="fill:#bea09a;"/>
   </g>
   <g id="patch_16">
    <path clip-path="url(#pfdc12e3475)" d="M 365.212925 288.430125 
L 384.259325 288.430125 
L 384.259325 152.707892 
L 365.212925 152.707892 
z
" style="fill:#b5c8e1;"/>
   </g>
   <g id="patch_17">
    <path clip-path="url(#pfdc12e3475)" d="M 389.020925 288.430125 
L 408.067325 288.430125 
L 408.067325 163.549465 
L 389.020925 163.549465 
z
" style="fill:#9fd495;"/>
   </g>
   <g id="matplotlib.axis_1">
    <g id="xtick_1">
     <g id="line2d_1">
      <defs>
       <path d="M 0 0 
L 0 3.5 
" id="m60e0128faf" style="stroke:#000000;stroke-width:0.8;"/>
      </defs>
      <g>
       <use style="stroke:#000000;stroke-width:0.8;" x="65.232125" xlink:href="#m60e0128faf" y="288.430125"/>
      </g>
     </g>
     <g id="text_1">
      <!-- entropic -->
      <g transform="translate(28.650057 322.530877)rotate(-30)scale(0.1 -0.1)">
       <defs>
        <path d="M 3597 1894 
L 3597 1613 
L 953 1613 
Q 991 1019 1311 708 
Q 1631 397 2203 397 
Q 2534 397 2845 478 
Q 3156 559 3463 722 
L 3463 178 
Q 3153 47 2828 -22 
Q 2503 -91 2169 -91 
Q 1331 -91 842 396 
Q 353 884 353 1716 
Q 353 2575 817 3079 
Q 1281 3584 2069 3584 
Q 2775 3584 3186 3129 
Q 3597 2675 3597 1894 
z
M 3022 2063 
Q 3016 2534 2758 2815 
Q 2500 3097 2075 3097 
Q 1594 3097 1305 2825 
Q 1016 2553 972 2059 
L 3022 2063 
z
" id="DejaVuSans-65" transform="scale(0.015625)"/>
        <path d="M 3513 2113 
L 3513 0 
L 2938 0 
L 2938 2094 
Q 2938 2591 2744 2837 
Q 2550 3084 2163 3084 
Q 1697 3084 1428 2787 
Q 1159 2491 1159 1978 
L 1159 0 
L 581 0 
L 581 3500 
L 1159 3500 
L 1159 2956 
Q 1366 3272 1645 3428 
Q 1925 3584 2291 3584 
Q 2894 3584 3203 3211 
Q 3513 2838 3513 2113 
z
" id="DejaVuSans-6e" transform="scale(0.015625)"/>
        <path d="M 1172 4494 
L 1172 3500 
L 2356 3500 
L 2356 3053 
L 1172 3053 
L 1172 1153 
Q 1172 725 1289 603 
Q 1406 481 1766 481 
L 2356 481 
L 2356 0 
L 1766 0 
Q 1100 0 847 248 
Q 594 497 594 1153 
L 594 3053 
L 172 3053 
L 172 3500 
L 594 3500 
L 594 4494 
L 1172 4494 
z
" id="DejaVuSans-74" transform="scale(0.015625)"/>
        <path d="M 2631 2963 
Q 2534 3019 2420 3045 
Q 2306 3072 2169 3072 
Q 1681 3072 1420 2755 
Q 1159 2438 1159 1844 
L 1159 0 
L 581 0 
L 581 3500 
L 1159 3500 
L 1159 2956 
Q 1341 3275 1631 3429 
Q 1922 3584 2338 3584 
Q 2397 3584 2469 3576 
Q 2541 3569 2628 3553 
L 2631 2963 
z
" id="DejaVuSans-72" transform="scale(0.015625)"/>
        <path d="M 1959 3097 
Q 1497 3097 1228 2736 
Q 959 2375 959 1747 
Q 959 1119 1226 758 
Q 1494 397 1959 397 
Q 2419 397 2687 759 
Q 2956 1122 2956 1747 
Q 2956 2369 2687 2733 
Q 2419 3097 1959 3097 
z
M 1959 3584 
Q 2709 3584 3137 3096 
Q 3566 2609 3566 1747 
Q 3566 888 3137 398 
Q 2709 -91 1959 -91 
Q 1206 -91 779 398 
Q 353 888 353 1747 
Q 353 2609 779 3096 
Q 1206 3584 1959 3584 
z
" id="DejaVuSans-6f" transform="scale(0.015625)"/>
        <path d="M 1159 525 
L 1159 -1331 
L 581 -1331 
L 581 3500 
L 1159 3500 
L 1159 2969 
Q 1341 3281 1617 3432 
Q 1894 3584 2278 3584 
Q 2916 3584 3314 3078 
Q 3713 2572 3713 1747 
Q 3713 922 3314 415 
Q 2916 -91 2278 -91 
Q 1894 -91 1617 61 
Q 1341 213 1159 525 
z
M 3116 1747 
Q 3116 2381 2855 2742 
Q 2594 3103 2138 3103 
Q 1681 3103 1420 2742 
Q 1159 2381 1159 1747 
Q 1159 1113 1420 752 
Q 1681 391 2138 391 
Q 2594 391 2855 752 
Q 3116 1113 3116 1747 
z
" id="DejaVuSans-70" transform="scale(0.015625)"/>
        <path d="M 603 3500 
L 1178 3500 
L 1178 0 
L 603 0 
L 603 3500 
z
M 603 4863 
L 1178 4863 
L 1178 4134 
L 603 4134 
L 603 4863 
z
" id="DejaVuSans-69" transform="scale(0.015625)"/>
        <path d="M 3122 3366 
L 3122 2828 
Q 2878 2963 2633 3030 
Q 2388 3097 2138 3097 
Q 1578 3097 1268 2742 
Q 959 2388 959 1747 
Q 959 1106 1268 751 
Q 1578 397 2138 397 
Q 2388 397 2633 464 
Q 2878 531 3122 666 
L 3122 134 
Q 2881 22 2623 -34 
Q 2366 -91 2075 -91 
Q 1284 -91 818 406 
Q 353 903 353 1747 
Q 353 2603 823 3093 
Q 1294 3584 2113 3584 
Q 2378 3584 2631 3529 
Q 2884 3475 3122 3366 
z
" id="DejaVuSans-63" transform="scale(0.015625)"/>
       </defs>
       <use xlink:href="#DejaVuSans-65"/>
       <use x="61.523438" xlink:href="#DejaVuSans-6e"/>
       <use x="124.902344" xlink:href="#DejaVuSans-74"/>
       <use x="164.111328" xlink:href="#DejaVuSans-72"/>
       <use x="202.974609" xlink:href="#DejaVuSans-6f"/>
       <use x="264.15625" xlink:href="#DejaVuSans-70"/>
       <use x="327.632812" xlink:href="#DejaVuSans-69"/>
       <use x="355.416016" xlink:href="#DejaVuSans-63"/>
      </g>
     </g>
    </g>
    <g id="xtick_2">
     <g id="line2d_2">
      <g>
       <use style="stroke:#000000;stroke-width:0.8;" x="89.040125" xlink:href="#m60e0128faf" y="288.430125"/>
      </g>
     </g>
     <g id="text_2">
      <!-- libfuzzer -->
      <g transform="translate(51.173904 323.272284)rotate(-30)scale(0.1 -0.1)">
       <defs>
        <path d="M 603 4863 
L 1178 4863 
L 1178 0 
L 603 0 
L 603 4863 
z
" id="DejaVuSans-6c" transform="scale(0.015625)"/>
        <path d="M 3116 1747 
Q 3116 2381 2855 2742 
Q 2594 3103 2138 3103 
Q 1681 3103 1420 2742 
Q 1159 2381 1159 1747 
Q 1159 1113 1420 752 
Q 1681 391 2138 391 
Q 2594 391 2855 752 
Q 3116 1113 3116 1747 
z
M 1159 2969 
Q 1341 3281 1617 3432 
Q 1894 3584 2278 3584 
Q 2916 3584 3314 3078 
Q 3713 2572 3713 1747 
Q 3713 922 3314 415 
Q 2916 -91 2278 -91 
Q 1894 -91 1617 61 
Q 1341 213 1159 525 
L 1159 0 
L 581 0 
L 581 4863 
L 1159 4863 
L 1159 2969 
z
" id="DejaVuSans-62" transform="scale(0.015625)"/>
        <path d="M 2375 4863 
L 2375 4384 
L 1825 4384 
Q 1516 4384 1395 4259 
Q 1275 4134 1275 3809 
L 1275 3500 
L 2222 3500 
L 2222 3053 
L 1275 3053 
L 1275 0 
L 697 0 
L 697 3053 
L 147 3053 
L 147 3500 
L 697 3500 
L 697 3744 
Q 697 4328 969 4595 
Q 1241 4863 1831 4863 
L 2375 4863 
z
" id="DejaVuSans-66" transform="scale(0.015625)"/>
        <path d="M 544 1381 
L 544 3500 
L 1119 3500 
L 1119 1403 
Q 1119 906 1312 657 
Q 1506 409 1894 409 
Q 2359 409 2629 706 
Q 2900 1003 2900 1516 
L 2900 3500 
L 3475 3500 
L 3475 0 
L 2900 0 
L 2900 538 
Q 2691 219 2414 64 
Q 2138 -91 1772 -91 
Q 1169 -91 856 284 
Q 544 659 544 1381 
z
M 1991 3584 
L 1991 3584 
z
" id="DejaVuSans-75" transform="scale(0.015625)"/>
        <path d="M 353 3500 
L 3084 3500 
L 3084 2975 
L 922 459 
L 3084 459 
L 3084 0 
L 275 0 
L 275 525 
L 2438 3041 
L 353 3041 
L 353 3500 
z
" id="DejaVuSans-7a" transform="scale(0.015625)"/>
       </defs>
       <use xlink:href="#DejaVuSans-6c"/>
       <use x="27.783203" xlink:href="#DejaVuSans-69"/>
       <use x="55.566406" xlink:href="#DejaVuSans-62"/>
       <use x="119.042969" xlink:href="#DejaVuSans-66"/>
       <use x="154.248047" xlink:href="#DejaVuSans-75"/>
       <use x="217.626953" xlink:href="#DejaVuSans-7a"/>
       <use x="270.117188" xlink:href="#DejaVuSans-7a"/>
       <use x="322.607422" xlink:href="#DejaVuSans-65"/>
       <use x="384.130859" xlink:href="#DejaVuSans-72"/>
      </g>
     </g>
    </g>
    <g id="xtick_3">
     <g id="line2d_3">
      <g>
       <use style="stroke:#000000;stroke-width:0.8;" x="112.848125" xlink:href="#m60e0128faf" y="288.430125"/>
      </g>
     </g>
     <g id="text_3">
      <!-- honggfuzz -->
      <g transform="translate(66.908924 327.933221)rotate(-30)scale(0.1 -0.1)">
       <defs>
        <path d="M 3513 2113 
L 3513 0 
L 2938 0 
L 2938 2094 
Q 2938 2591 2744 2837 
Q 2550 3084 2163 3084 
Q 1697 3084 1428 2787 
Q 1159 2491 1159 1978 
L 1159 0 
L 581 0 
L 581 4863 
L 1159 4863 
L 1159 2956 
Q 1366 3272 1645 3428 
Q 1925 3584 2291 3584 
Q 2894 3584 3203 3211 
Q 3513 2838 3513 2113 
z
" id="DejaVuSans-68" transform="scale(0.015625)"/>
        <path d="M 2906 1791 
Q 2906 2416 2648 2759 
Q 2391 3103 1925 3103 
Q 1463 3103 1205 2759 
Q 947 2416 947 1791 
Q 947 1169 1205 825 
Q 1463 481 1925 481 
Q 2391 481 2648 825 
Q 2906 1169 2906 1791 
z
M 3481 434 
Q 3481 -459 3084 -895 
Q 2688 -1331 1869 -1331 
Q 1566 -1331 1297 -1286 
Q 1028 -1241 775 -1147 
L 775 -588 
Q 1028 -725 1275 -790 
Q 1522 -856 1778 -856 
Q 2344 -856 2625 -561 
Q 2906 -266 2906 331 
L 2906 616 
Q 2728 306 2450 153 
Q 2172 0 1784 0 
Q 1141 0 747 490 
Q 353 981 353 1791 
Q 353 2603 747 3093 
Q 1141 3584 1784 3584 
Q 2172 3584 2450 3431 
Q 2728 3278 2906 2969 
L 2906 3500 
L 3481 3500 
L 3481 434 
z
" id="DejaVuSans-67" transform="scale(0.015625)"/>
       </defs>
       <use xlink:href="#DejaVuSans-68"/>
       <use x="63.378906" xlink:href="#DejaVuSans-6f"/>
       <use x="124.560547" xlink:href="#DejaVuSans-6e"/>
       <use x="187.939453" xlink:href="#DejaVuSans-67"/>
       <use x="251.416016" xlink:href="#DejaVuSans-67"/>
       <use x="314.892578" xlink:href="#DejaVuSans-66"/>
       <use x="350.097656" xlink:href="#DejaVuSans-75"/>
       <use x="413.476562" xlink:href="#DejaVuSans-7a"/>
       <use x="465.966797" xlink:href="#DejaVuSans-7a"/>
      </g>
     </g>
    </g>
    <g id="xtick_4">
     <g id="line2d_4">
      <g>
       <use style="stroke:#000000;stroke-width:0.8;" x="136.656125" xlink:href="#m60e0128faf" y="288.430125"/>
      </g>
     </g>
     <g id="text_4">
      <!-- eclipser -->
      <g transform="translate(101.81558 321.525409)rotate(-30)scale(0.1 -0.1)">
       <defs>
        <path d="M 2834 3397 
L 2834 2853 
Q 2591 2978 2328 3040 
Q 2066 3103 1784 3103 
Q 1356 3103 1142 2972 
Q 928 2841 928 2578 
Q 928 2378 1081 2264 
Q 1234 2150 1697 2047 
L 1894 2003 
Q 2506 1872 2764 1633 
Q 3022 1394 3022 966 
Q 3022 478 2636 193 
Q 2250 -91 1575 -91 
Q 1294 -91 989 -36 
Q 684 19 347 128 
L 347 722 
Q 666 556 975 473 
Q 1284 391 1588 391 
Q 1994 391 2212 530 
Q 2431 669 2431 922 
Q 2431 1156 2273 1281 
Q 2116 1406 1581 1522 
L 1381 1569 
Q 847 1681 609 1914 
Q 372 2147 372 2553 
Q 372 3047 722 3315 
Q 1072 3584 1716 3584 
Q 2034 3584 2315 3537 
Q 2597 3491 2834 3397 
z
" id="DejaVuSans-73" transform="scale(0.015625)"/>
       </defs>
       <use xlink:href="#DejaVuSans-65"/>
       <use x="61.523438" xlink:href="#DejaVuSans-63"/>
       <use x="116.503906" xlink:href="#DejaVuSans-6c"/>
       <use x="144.287109" xlink:href="#DejaVuSans-69"/>
       <use x="172.070312" xlink:href="#DejaVuSans-70"/>
       <use x="235.546875" xlink:href="#DejaVuSans-73"/>
       <use x="287.646484" xlink:href="#DejaVuSans-65"/>
       <use x="349.169922" xlink:href="#DejaVuSans-72"/>
      </g>
     </g>
    </g>
    <g id="xtick_5">
     <g id="line2d_5">
      <g>
       <use style="stroke:#000000;stroke-width:0.8;" x="160.464125" xlink:href="#m60e0128faf" y="288.430125"/>
      </g>
     </g>
     <g id="text_5">
      <!-- jigsaw_z3 -->
      <g transform="translate(117.688936 326.02619)rotate(-30)scale(0.1 -0.1)">
       <defs>
        <path d="M 603 3500 
L 1178 3500 
L 1178 -63 
Q 1178 -731 923 -1031 
Q 669 -1331 103 -1331 
L -116 -1331 
L -116 -844 
L 38 -844 
Q 366 -844 484 -692 
Q 603 -541 603 -63 
L 603 3500 
z
M 603 4863 
L 1178 4863 
L 1178 4134 
L 603 4134 
L 603 4863 
z
" id="DejaVuSans-6a" transform="scale(0.015625)"/>
        <path d="M 2194 1759 
Q 1497 1759 1228 1600 
Q 959 1441 959 1056 
Q 959 750 1161 570 
Q 1363 391 1709 391 
Q 2188 391 2477 730 
Q 2766 1069 2766 1631 
L 2766 1759 
L 2194 1759 
z
M 3341 1997 
L 3341 0 
L 2766 0 
L 2766 531 
Q 2569 213 2275 61 
Q 1981 -91 1556 -91 
Q 1019 -91 701 211 
Q 384 513 384 1019 
Q 384 1609 779 1909 
Q 1175 2209 1959 2209 
L 2766 2209 
L 2766 2266 
Q 2766 2663 2505 2880 
Q 2244 3097 1772 3097 
Q 1472 3097 1187 3025 
Q 903 2953 641 2809 
L 641 3341 
Q 956 3463 1253 3523 
Q 1550 3584 1831 3584 
Q 2591 3584 2966 3190 
Q 3341 2797 3341 1997 
z
" id="DejaVuSans-61" transform="scale(0.015625)"/>
        <path d="M 269 3500 
L 844 3500 
L 1563 769 
L 2278 3500 
L 2956 3500 
L 3675 769 
L 4391 3500 
L 4966 3500 
L 4050 0 
L 3372 0 
L 2619 2869 
L 1863 0 
L 1184 0 
L 269 3500 
z
" id="DejaVuSans-77" transform="scale(0.015625)"/>
        <path d="M 3263 -1063 
L 3263 -1509 
L -63 -1509 
L -63 -1063 
L 3263 -1063 
z
" id="DejaVuSans-5f" transform="scale(0.015625)"/>
        <path d="M 2597 2516 
Q 3050 2419 3304 2112 
Q 3559 1806 3559 1356 
Q 3559 666 3084 287 
Q 2609 -91 1734 -91 
Q 1441 -91 1130 -33 
Q 819 25 488 141 
L 488 750 
Q 750 597 1062 519 
Q 1375 441 1716 441 
Q 2309 441 2620 675 
Q 2931 909 2931 1356 
Q 2931 1769 2642 2001 
Q 2353 2234 1838 2234 
L 1294 2234 
L 1294 2753 
L 1863 2753 
Q 2328 2753 2575 2939 
Q 2822 3125 2822 3475 
Q 2822 3834 2567 4026 
Q 2313 4219 1838 4219 
Q 1578 4219 1281 4162 
Q 984 4106 628 3988 
L 628 4550 
Q 988 4650 1302 4700 
Q 1616 4750 1894 4750 
Q 2613 4750 3031 4423 
Q 3450 4097 3450 3541 
Q 3450 3153 3228 2886 
Q 3006 2619 2597 2516 
z
" id="DejaVuSans-33" transform="scale(0.015625)"/>
       </defs>
       <use xlink:href="#DejaVuSans-6a"/>
       <use x="27.783203" xlink:href="#DejaVuSans-69"/>
       <use x="55.566406" xlink:href="#DejaVuSans-67"/>
       <use x="119.042969" xlink:href="#DejaVuSans-73"/>
       <use x="171.142578" xlink:href="#DejaVuSans-61"/>
       <use x="232.421875" xlink:href="#DejaVuSans-77"/>
       <use x="314.208984" xlink:href="#DejaVuSans-5f"/>
       <use x="364.208984" xlink:href="#DejaVuSans-7a"/>
       <use x="416.699219" xlink:href="#DejaVuSans-33"/>
      </g>
     </g>
    </g>
    <g id="xtick_6">
     <g id="line2d_6">
      <g>
       <use style="stroke:#000000;stroke-width:0.8;" x="184.272125" xlink:href="#m60e0128faf" y="288.430125"/>
      </g>
     </g>
     <g id="text_6">
      <!-- jigsaw_nosample -->
      <g transform="translate(109.278085 344.627752)rotate(-30)scale(0.1 -0.1)">
       <defs>
        <path d="M 3328 2828 
Q 3544 3216 3844 3400 
Q 4144 3584 4550 3584 
Q 5097 3584 5394 3201 
Q 5691 2819 5691 2113 
L 5691 0 
L 5113 0 
L 5113 2094 
Q 5113 2597 4934 2840 
Q 4756 3084 4391 3084 
Q 3944 3084 3684 2787 
Q 3425 2491 3425 1978 
L 3425 0 
L 2847 0 
L 2847 2094 
Q 2847 2600 2669 2842 
Q 2491 3084 2119 3084 
Q 1678 3084 1418 2786 
Q 1159 2488 1159 1978 
L 1159 0 
L 581 0 
L 581 3500 
L 1159 3500 
L 1159 2956 
Q 1356 3278 1631 3431 
Q 1906 3584 2284 3584 
Q 2666 3584 2933 3390 
Q 3200 3197 3328 2828 
z
" id="DejaVuSans-6d" transform="scale(0.015625)"/>
       </defs>
       <use xlink:href="#DejaVuSans-6a"/>
       <use x="27.783203" xlink:href="#DejaVuSans-69"/>
       <use x="55.566406" xlink:href="#DejaVuSans-67"/>
       <use x="119.042969" xlink:href="#DejaVuSans-73"/>
       <use x="171.142578" xlink:href="#DejaVuSans-61"/>
       <use x="232.421875" xlink:href="#DejaVuSans-77"/>
       <use x="314.208984" xlink:href="#DejaVuSans-5f"/>
       <use x="364.208984" xlink:href="#DejaVuSans-6e"/>
       <use x="427.587891" xlink:href="#DejaVuSans-6f"/>
       <use x="488.769531" xlink:href="#DejaVuSans-73"/>
       <use x="540.869141" xlink:href="#DejaVuSans-61"/>
       <use x="602.148438" xlink:href="#DejaVuSans-6d"/>
       <use x="699.560547" xlink:href="#DejaVuSans-70"/>
       <use x="763.037109" xlink:href="#DejaVuSans-6c"/>
       <use x="790.820312" xlink:href="#DejaVuSans-65"/>
      </g>
     </g>
    </g>
    <g id="xtick_7">
     <g id="line2d_7">
      <g>
       <use style="stroke:#000000;stroke-width:0.8;" x="208.080125" xlink:href="#m60e0128faf" y="288.430125"/>
      </g>
     </g>
     <g id="text_7">
      <!-- jigsaw_new -->
      <g transform="translate(157.46064 330.555096)rotate(-30)scale(0.1 -0.1)">
       <use xlink:href="#DejaVuSans-6a"/>
       <use x="27.783203" xlink:href="#DejaVuSans-69"/>
       <use x="55.566406" xlink:href="#DejaVuSans-67"/>
       <use x="119.042969" xlink:href="#DejaVuSans-73"/>
       <use x="171.142578" xlink:href="#DejaVuSans-61"/>
       <use x="232.421875" xlink:href="#DejaVuSans-77"/>
       <use x="314.208984" xlink:href="#DejaVuSans-5f"/>
       <use x="364.208984" xlink:href="#DejaVuSans-6e"/>
       <use x="427.587891" xlink:href="#DejaVuSans-65"/>
       <use x="489.111328" xlink:href="#DejaVuSans-77"/>
      </g>
     </g>
    </g>
    <g id="xtick_8">
     <g id="line2d_8">
      <g>
       <use style="stroke:#000000;stroke-width:0.8;" x="231.888125" xlink:href="#m60e0128faf" y="288.430125"/>
      </g>
     </g>
     <g id="text_8">
      <!-- jigsaw_z3_multi -->
      <g transform="translate(162.6518 341.303534)rotate(-30)scale(0.1 -0.1)">
       <use xlink:href="#DejaVuSans-6a"/>
       <use x="27.783203" xlink:href="#DejaVuSans-69"/>
       <use x="55.566406" xlink:href="#DejaVuSans-67"/>
       <use x="119.042969" xlink:href="#DejaVuSans-73"/>
       <use x="171.142578" xlink:href="#DejaVuSans-61"/>
       <use x="232.421875" xlink:href="#DejaVuSans-77"/>
       <use x="314.208984" xlink:href="#DejaVuSans-5f"/>
       <use x="364.208984" xlink:href="#DejaVuSans-7a"/>
       <use x="416.699219" xlink:href="#DejaVuSans-33"/>
       <use x="480.322266" xlink:href="#DejaVuSans-5f"/>
       <use x="530.322266" xlink:href="#DejaVuSans-6d"/>
       <use x="627.734375" xlink:href="#DejaVuSans-75"/>
       <use x="691.113281" xlink:href="#DejaVuSans-6c"/>
       <use x="718.896484" xlink:href="#DejaVuSans-74"/>
       <use x="758.105469" xlink:href="#DejaVuSans-69"/>
      </g>
     </g>
    </g>
    <g id="xtick_9">
     <g id="line2d_9">
      <g>
       <use style="stroke:#000000;stroke-width:0.8;" x="255.696125" xlink:href="#m60e0128faf" y="288.430125"/>
      </g>
     </g>
     <g id="text_9">
      <!-- aflplusplus -->
      <g transform="translate(208.087118 328.897284)rotate(-30)scale(0.1 -0.1)">
       <use xlink:href="#DejaVuSans-61"/>
       <use x="61.279297" xlink:href="#DejaVuSans-66"/>
       <use x="96.484375" xlink:href="#DejaVuSans-6c"/>
       <use x="124.267578" xlink:href="#DejaVuSans-70"/>
       <use x="187.744141" xlink:href="#DejaVuSans-6c"/>
       <use x="215.527344" xlink:href="#DejaVuSans-75"/>
       <use x="278.90625" xlink:href="#DejaVuSans-73"/>
       <use x="331.005859" xlink:href="#DejaVuSans-70"/>
       <use x="394.482422" xlink:href="#DejaVuSans-6c"/>
       <use x="422.265625" xlink:href="#DejaVuSans-75"/>
       <use x="485.644531" xlink:href="#DejaVuSans-73"/>
      </g>
     </g>
    </g>
    <g id="xtick_10">
     <g id="line2d_10">
      <g>
       <use style="stroke:#000000;stroke-width:0.8;" x="279.504125" xlink:href="#m60e0128faf" y="288.430125"/>
      </g>
     </g>
     <g id="text_10">
      <!-- aflsmart -->
      <g transform="translate(242.493104 322.778534)rotate(-30)scale(0.1 -0.1)">
       <use xlink:href="#DejaVuSans-61"/>
       <use x="61.279297" xlink:href="#DejaVuSans-66"/>
       <use x="96.484375" xlink:href="#DejaVuSans-6c"/>
       <use x="124.267578" xlink:href="#DejaVuSans-73"/>
       <use x="176.367188" xlink:href="#DejaVuSans-6d"/>
       <use x="273.779297" xlink:href="#DejaVuSans-61"/>
       <use x="335.058594" xlink:href="#DejaVuSans-72"/>
       <use x="376.171875" xlink:href="#DejaVuSans-74"/>
      </g>
     </g>
    </g>
    <g id="xtick_11">
     <g id="line2d_11">
      <g>
       <use style="stroke:#000000;stroke-width:0.8;" x="303.312125" xlink:href="#m60e0128faf" y="288.430125"/>
      </g>
     </g>
     <g id="text_11">
      <!-- afl -->
      <g transform="translate(291.510562 308.223846)rotate(-30)scale(0.1 -0.1)">
       <use xlink:href="#DejaVuSans-61"/>
       <use x="61.279297" xlink:href="#DejaVuSans-66"/>
       <use x="96.484375" xlink:href="#DejaVuSans-6c"/>
      </g>
     </g>
    </g>
    <g id="xtick_12">
     <g id="line2d_12">
      <g>
       <use style="stroke:#000000;stroke-width:0.8;" x="327.120125" xlink:href="#m60e0128faf" y="288.430125"/>
      </g>
     </g>
     <g id="text_12">
      <!-- fairfuzz -->
      <g transform="translate(294.13071 320.456659)rotate(-30)scale(0.1 -0.1)">
       <use xlink:href="#DejaVuSans-66"/>
       <use x="35.205078" xlink:href="#DejaVuSans-61"/>
       <use x="96.484375" xlink:href="#DejaVuSans-69"/>
       <use x="124.267578" xlink:href="#DejaVuSans-72"/>
       <use x="165.380859" xlink:href="#DejaVuSans-66"/>
       <use x="200.585938" xlink:href="#DejaVuSans-75"/>
       <use x="263.964844" xlink:href="#DejaVuSans-7a"/>
       <use x="316.455078" xlink:href="#DejaVuSans-7a"/>
      </g>
     </g>
    </g>
    <g id="xtick_13">
     <g id="line2d_13">
      <g>
       <use style="stroke:#000000;stroke-width:0.8;" x="350.928125" xlink:href="#m60e0128faf" y="288.430125"/>
      </g>
     </g>
     <g id="text_13">
      <!-- mopt -->
      <g transform="translate(327.260661 315.074627)rotate(-30)scale(0.1 -0.1)">
       <use xlink:href="#DejaVuSans-6d"/>
       <use x="97.412109" xlink:href="#DejaVuSans-6f"/>
       <use x="158.59375" xlink:href="#DejaVuSans-70"/>
       <use x="222.070312" xlink:href="#DejaVuSans-74"/>
      </g>
     </g>
    </g>
    <g id="xtick_14">
     <g id="line2d_14">
      <g>
       <use style="stroke:#000000;stroke-width:0.8;" x="374.736125" xlink:href="#m60e0128faf" y="288.430125"/>
      </g>
     </g>
     <g id="text_14">
      <!-- lafintel -->
      <g transform="translate(343.91042 319.20744)rotate(-30)scale(0.1 -0.1)">
       <use xlink:href="#DejaVuSans-6c"/>
       <use x="27.783203" xlink:href="#DejaVuSans-61"/>
       <use x="89.0625" xlink:href="#DejaVuSans-66"/>
       <use x="124.267578" xlink:href="#DejaVuSans-69"/>
       <use x="152.050781" xlink:href="#DejaVuSans-6e"/>
       <use x="215.429688" xlink:href="#DejaVuSans-74"/>
       <use x="254.638672" xlink:href="#DejaVuSans-65"/>
       <use x="316.162109" xlink:href="#DejaVuSans-6c"/>
      </g>
     </g>
    </g>
    <g id="xtick_15">
     <g id="line2d_15">
      <g>
       <use style="stroke:#000000;stroke-width:0.8;" x="398.544125" xlink:href="#m60e0128faf" y="288.430125"/>
      </g>
     </g>
     <g id="text_15">
      <!-- aflfast -->
      <g transform="translate(370.480229 317.612909)rotate(-30)scale(0.1 -0.1)">
       <use xlink:href="#DejaVuSans-61"/>
       <use x="61.279297" xlink:href="#DejaVuSans-66"/>
       <use x="96.484375" xlink:href="#DejaVuSans-6c"/>
       <use x="124.267578" xlink:href="#DejaVuSans-66"/>
       <use x="159.472656" xlink:href="#DejaVuSans-61"/>
       <use x="220.751953" xlink:href="#DejaVuSans-73"/>
       <use x="272.851562" xlink:href="#DejaVuSans-74"/>
      </g>
     </g>
    </g>
    <g id="text_16">
     <!-- Fuzzer (highest median coverage on the left) -->
     <g transform="translate(119.270156 358.268115)scale(0.1 -0.1)">
      <defs>
       <path d="M 628 4666 
L 3309 4666 
L 3309 4134 
L 1259 4134 
L 1259 2759 
L 3109 2759 
L 3109 2228 
L 1259 2228 
L 1259 0 
L 628 0 
L 628 4666 
z
" id="DejaVuSans-46" transform="scale(0.015625)"/>
       <path id="DejaVuSans-20" transform="scale(0.015625)"/>
       <path d="M 1984 4856 
Q 1566 4138 1362 3434 
Q 1159 2731 1159 2009 
Q 1159 1288 1364 580 
Q 1569 -128 1984 -844 
L 1484 -844 
Q 1016 -109 783 600 
Q 550 1309 550 2009 
Q 550 2706 781 3412 
Q 1013 4119 1484 4856 
L 1984 4856 
z
" id="DejaVuSans-28" transform="scale(0.015625)"/>
       <path d="M 2906 2969 
L 2906 4863 
L 3481 4863 
L 3481 0 
L 2906 0 
L 2906 525 
Q 2725 213 2448 61 
Q 2172 -91 1784 -91 
Q 1150 -91 751 415 
Q 353 922 353 1747 
Q 353 2572 751 3078 
Q 1150 3584 1784 3584 
Q 2172 3584 2448 3432 
Q 2725 3281 2906 2969 
z
M 947 1747 
Q 947 1113 1208 752 
Q 1469 391 1925 391 
Q 2381 391 2643 752 
Q 2906 1113 2906 1747 
Q 2906 2381 2643 2742 
Q 2381 3103 1925 3103 
Q 1469 3103 1208 2742 
Q 947 2381 947 1747 
z
" id="DejaVuSans-64" transform="scale(0.015625)"/>
       <path d="M 191 3500 
L 800 3500 
L 1894 563 
L 2988 3500 
L 3597 3500 
L 2284 0 
L 1503 0 
L 191 3500 
z
" id="DejaVuSans-76" transform="scale(0.015625)"/>
       <path d="M 513 4856 
L 1013 4856 
Q 1481 4119 1714 3412 
Q 1947 2706 1947 2009 
Q 1947 1309 1714 600 
Q 1481 -109 1013 -844 
L 513 -844 
Q 928 -128 1133 580 
Q 1338 1288 1338 2009 
Q 1338 2731 1133 3434 
Q 928 4138 513 4856 
z
" id="DejaVuSans-29" transform="scale(0.015625)"/>
      </defs>
      <use xlink:href="#DejaVuSans-46"/>
      <use x="52.019531" xlink:href="#DejaVuSans-75"/>
      <use x="115.398438" xlink:href="#DejaVuSans-7a"/>
      <use x="167.888672" xlink:href="#DejaVuSans-7a"/>
      <use x="220.378906" xlink:href="#DejaVuSans-65"/>
      <use x="281.902344" xlink:href="#DejaVuSans-72"/>
      <use x="323.015625" xlink:href="#DejaVuSans-20"/>
      <use x="354.802734" xlink:href="#DejaVuSans-28"/>
      <use x="393.816406" xlink:href="#DejaVuSans-68"/>
      <use x="457.195312" xlink:href="#DejaVuSans-69"/>
      <use x="484.978516" xlink:href="#DejaVuSans-67"/>
      <use x="548.455078" xlink:href="#DejaVuSans-68"/>
      <use x="611.833984" xlink:href="#DejaVuSans-65"/>
      <use x="673.357422" xlink:href="#DejaVuSans-73"/>
      <use x="725.457031" xlink:href="#DejaVuSans-74"/>
      <use x="764.666016" xlink:href="#DejaVuSans-20"/>
      <use x="796.453125" xlink:href="#DejaVuSans-6d"/>
      <use x="893.865234" xlink:href="#DejaVuSans-65"/>
      <use x="955.388672" xlink:href="#DejaVuSans-64"/>
      <use x="1018.865234" xlink:href="#DejaVuSans-69"/>
      <use x="1046.648438" xlink:href="#DejaVuSans-61"/>
      <use x="1107.927734" xlink:href="#DejaVuSans-6e"/>
      <use x="1171.306641" xlink:href="#DejaVuSans-20"/>
      <use x="1203.09375" xlink:href="#DejaVuSans-63"/>
      <use x="1258.074219" xlink:href="#DejaVuSans-6f"/>
      <use x="1319.255859" xlink:href="#DejaVuSans-76"/>
      <use x="1378.435547" xlink:href="#DejaVuSans-65"/>
      <use x="1439.958984" xlink:href="#DejaVuSans-72"/>
      <use x="1481.072266" xlink:href="#DejaVuSans-61"/>
      <use x="1542.351562" xlink:href="#DejaVuSans-67"/>
      <use x="1605.828125" xlink:href="#DejaVuSans-65"/>
      <use x="1667.351562" xlink:href="#DejaVuSans-20"/>
      <use x="1699.138672" xlink:href="#DejaVuSans-6f"/>
      <use x="1760.320312" xlink:href="#DejaVuSans-6e"/>
      <use x="1823.699219" xlink:href="#DejaVuSans-20"/>
      <use x="1855.486328" xlink:href="#DejaVuSans-74"/>
      <use x="1894.695312" xlink:href="#DejaVuSans-68"/>
      <use x="1958.074219" xlink:href="#DejaVuSans-65"/>
      <use x="2019.597656" xlink:href="#DejaVuSans-20"/>
      <use x="2051.384766" xlink:href="#DejaVuSans-6c"/>
      <use x="2079.167969" xlink:href="#DejaVuSans-65"/>
      <use x="2140.691406" xlink:href="#DejaVuSans-66"/>
      <use x="2174.146484" xlink:href="#DejaVuSans-74"/>
      <use x="2213.355469" xlink:href="#DejaVuSans-29"/>
     </g>
    </g>
   </g>
   <g id="matplotlib.axis_2">
    <g id="ytick_1">
     <g id="line2d_16">
      <defs>
       <path d="M 0 0 
L -3.5 0 
" id="m56a6a2f9ae" style="stroke:#000000;stroke-width:0.8;"/>
      </defs>
      <g>
       <use style="stroke:#000000;stroke-width:0.8;" x="53.328125" xlink:href="#m56a6a2f9ae" y="288.430125"/>
      </g>
     </g>
     <g id="text_17">
      <!-- 0 -->
      <g transform="translate(39.965625 292.229344)scale(0.1 -0.1)">
       <defs>
        <path d="M 2034 4250 
Q 1547 4250 1301 3770 
Q 1056 3291 1056 2328 
Q 1056 1369 1301 889 
Q 1547 409 2034 409 
Q 2525 409 2770 889 
Q 3016 1369 3016 2328 
Q 3016 3291 2770 3770 
Q 2525 4250 2034 4250 
z
M 2034 4750 
Q 2819 4750 3233 4129 
Q 3647 3509 3647 2328 
Q 3647 1150 3233 529 
Q 2819 -91 2034 -91 
Q 1250 -91 836 529 
Q 422 1150 422 2328 
Q 422 3509 836 4129 
Q 1250 4750 2034 4750 
z
" id="DejaVuSans-30" transform="scale(0.015625)"/>
       </defs>
       <use xlink:href="#DejaVuSans-30"/>
      </g>
     </g>
    </g>
    <g id="ytick_2">
     <g id="line2d_17">
      <g>
       <use style="stroke:#000000;stroke-width:0.8;" x="53.328125" xlink:href="#m56a6a2f9ae" y="256.018846"/>
      </g>
     </g>
     <g id="text_18">
      <!-- 1000 -->
      <g transform="translate(20.878125 259.818064)scale(0.1 -0.1)">
       <defs>
        <path d="M 794 531 
L 1825 531 
L 1825 4091 
L 703 3866 
L 703 4441 
L 1819 4666 
L 2450 4666 
L 2450 531 
L 3481 531 
L 3481 0 
L 794 0 
L 794 531 
z
" id="DejaVuSans-31" transform="scale(0.015625)"/>
       </defs>
       <use xlink:href="#DejaVuSans-31"/>
       <use x="63.623047" xlink:href="#DejaVuSans-30"/>
       <use x="127.246094" xlink:href="#DejaVuSans-30"/>
       <use x="190.869141" xlink:href="#DejaVuSans-30"/>
      </g>
     </g>
    </g>
    <g id="ytick_3">
     <g id="line2d_18">
      <g>
       <use style="stroke:#000000;stroke-width:0.8;" x="53.328125" xlink:href="#m56a6a2f9ae" y="223.607566"/>
      </g>
     </g>
     <g id="text_19">
      <!-- 2000 -->
      <g transform="translate(20.878125 227.406785)scale(0.1 -0.1)">
       <defs>
        <path d="M 1228 531 
L 3431 531 
L 3431 0 
L 469 0 
L 469 531 
Q 828 903 1448 1529 
Q 2069 2156 2228 2338 
Q 2531 2678 2651 2914 
Q 2772 3150 2772 3378 
Q 2772 3750 2511 3984 
Q 2250 4219 1831 4219 
Q 1534 4219 1204 4116 
Q 875 4013 500 3803 
L 500 4441 
Q 881 4594 1212 4672 
Q 1544 4750 1819 4750 
Q 2544 4750 2975 4387 
Q 3406 4025 3406 3419 
Q 3406 3131 3298 2873 
Q 3191 2616 2906 2266 
Q 2828 2175 2409 1742 
Q 1991 1309 1228 531 
z
" id="DejaVuSans-32" transform="scale(0.015625)"/>
       </defs>
       <use xlink:href="#DejaVuSans-32"/>
       <use x="63.623047" xlink:href="#DejaVuSans-30"/>
       <use x="127.246094" xlink:href="#DejaVuSans-30"/>
       <use x="190.869141" xlink:href="#DejaVuSans-30"/>
      </g>
     </g>
    </g>
    <g id="ytick_4">
     <g id="line2d_19">
      <g>
       <use style="stroke:#000000;stroke-width:0.8;" x="53.328125" xlink:href="#m56a6a2f9ae" y="191.196287"/>
      </g>
     </g>
     <g id="text_20">
      <!-- 3000 -->
      <g transform="translate(20.878125 194.995505)scale(0.1 -0.1)">
       <use xlink:href="#DejaVuSans-33"/>
       <use x="63.623047" xlink:href="#DejaVuSans-30"/>
       <use x="127.246094" xlink:href="#DejaVuSans-30"/>
       <use x="190.869141" xlink:href="#DejaVuSans-30"/>
      </g>
     </g>
    </g>
    <g id="ytick_5">
     <g id="line2d_20">
      <g>
       <use style="stroke:#000000;stroke-width:0.8;" x="53.328125" xlink:href="#m56a6a2f9ae" y="158.785007"/>
      </g>
     </g>
     <g id="text_21">
      <!-- 4000 -->
      <g transform="translate(20.878125 162.584226)scale(0.1 -0.1)">
       <defs>
        <path d="M 2419 4116 
L 825 1625 
L 2419 1625 
L 2419 4116 
z
M 2253 4666 
L 3047 4666 
L 3047 1625 
L 3713 1625 
L 3713 1100 
L 3047 1100 
L 3047 0 
L 2419 0 
L 2419 1100 
L 313 1100 
L 313 1709 
L 2253 4666 
z
" id="DejaVuSans-34" transform="scale(0.015625)"/>
       </defs>
       <use xlink:href="#DejaVuSans-34"/>
       <use x="63.623047" xlink:href="#DejaVuSans-30"/>
       <use x="127.246094" xlink:href="#DejaVuSans-30"/>
       <use x="190.869141" xlink:href="#DejaVuSans-30"/>
      </g>
     </g>
    </g>
    <g id="ytick_6">
     <g id="line2d_21">
      <g>
       <use style="stroke:#000000;stroke-width:0.8;" x="53.328125" xlink:href="#m56a6a2f9ae" y="126.373728"/>
      </g>
     </g>
     <g id="text_22">
      <!-- 5000 -->
      <g transform="translate(20.878125 130.172946)scale(0.1 -0.1)">
       <defs>
        <path d="M 691 4666 
L 3169 4666 
L 3169 4134 
L 1269 4134 
L 1269 2991 
Q 1406 3038 1543 3061 
Q 1681 3084 1819 3084 
Q 2600 3084 3056 2656 
Q 3513 2228 3513 1497 
Q 3513 744 3044 326 
Q 2575 -91 1722 -91 
Q 1428 -91 1123 -41 
Q 819 9 494 109 
L 494 744 
Q 775 591 1075 516 
Q 1375 441 1709 441 
Q 2250 441 2565 725 
Q 2881 1009 2881 1497 
Q 2881 1984 2565 2268 
Q 2250 2553 1709 2553 
Q 1456 2553 1204 2497 
Q 953 2441 691 2322 
L 691 4666 
z
" id="DejaVuSans-35" transform="scale(0.015625)"/>
       </defs>
       <use xlink:href="#DejaVuSans-35"/>
       <use x="63.623047" xlink:href="#DejaVuSans-30"/>
       <use x="127.246094" xlink:href="#DejaVuSans-30"/>
       <use x="190.869141" xlink:href="#DejaVuSans-30"/>
      </g>
     </g>
    </g>
    <g id="ytick_7">
     <g id="line2d_22">
      <g>
       <use style="stroke:#000000;stroke-width:0.8;" x="53.328125" xlink:href="#m56a6a2f9ae" y="93.962448"/>
      </g>
     </g>
     <g id="text_23">
      <!-- 6000 -->
      <g transform="translate(20.878125 97.761667)scale(0.1 -0.1)">
       <defs>
        <path d="M 2113 2584 
Q 1688 2584 1439 2293 
Q 1191 2003 1191 1497 
Q 1191 994 1439 701 
Q 1688 409 2113 409 
Q 2538 409 2786 701 
Q 3034 994 3034 1497 
Q 3034 2003 2786 2293 
Q 2538 2584 2113 2584 
z
M 3366 4563 
L 3366 3988 
Q 3128 4100 2886 4159 
Q 2644 4219 2406 4219 
Q 1781 4219 1451 3797 
Q 1122 3375 1075 2522 
Q 1259 2794 1537 2939 
Q 1816 3084 2150 3084 
Q 2853 3084 3261 2657 
Q 3669 2231 3669 1497 
Q 3669 778 3244 343 
Q 2819 -91 2113 -91 
Q 1303 -91 875 529 
Q 447 1150 447 2328 
Q 447 3434 972 4092 
Q 1497 4750 2381 4750 
Q 2619 4750 2861 4703 
Q 3103 4656 3366 4563 
z
" id="DejaVuSans-36" transform="scale(0.015625)"/>
       </defs>
       <use xlink:href="#DejaVuSans-36"/>
       <use x="63.623047" xlink:href="#DejaVuSans-30"/>
       <use x="127.246094" xlink:href="#DejaVuSans-30"/>
       <use x="190.869141" xlink:href="#DejaVuSans-30"/>
      </g>
     </g>
    </g>
    <g id="ytick_8">
     <g id="line2d_23">
      <g>
       <use style="stroke:#000000;stroke-width:0.8;" x="53.328125" xlink:href="#m56a6a2f9ae" y="61.551169"/>
      </g>
     </g>
     <g id="text_24">
      <!-- 7000 -->
      <g transform="translate(20.878125 65.350387)scale(0.1 -0.1)">
       <defs>
        <path d="M 525 4666 
L 3525 4666 
L 3525 4397 
L 1831 0 
L 1172 0 
L 2766 4134 
L 525 4134 
L 525 4666 
z
" id="DejaVuSans-37" transform="scale(0.015625)"/>
       </defs>
       <use xlink:href="#DejaVuSans-37"/>
       <use x="63.623047" xlink:href="#DejaVuSans-30"/>
       <use x="127.246094" xlink:href="#DejaVuSans-30"/>
       <use x="190.869141" xlink:href="#DejaVuSans-30"/>
      </g>
     </g>
    </g>
    <g id="ytick_9">
     <g id="line2d_24">
      <g>
       <use style="stroke:#000000;stroke-width:0.8;" x="53.328125" xlink:href="#m56a6a2f9ae" y="29.139889"/>
      </g>
     </g>
     <g id="text_25">
      <!-- 8000 -->
      <g transform="translate(20.878125 32.939108)scale(0.1 -0.1)">
       <defs>
        <path d="M 2034 2216 
Q 1584 2216 1326 1975 
Q 1069 1734 1069 1313 
Q 1069 891 1326 650 
Q 1584 409 2034 409 
Q 2484 409 2743 651 
Q 3003 894 3003 1313 
Q 3003 1734 2745 1975 
Q 2488 2216 2034 2216 
z
M 1403 2484 
Q 997 2584 770 2862 
Q 544 3141 544 3541 
Q 544 4100 942 4425 
Q 1341 4750 2034 4750 
Q 2731 4750 3128 4425 
Q 3525 4100 3525 3541 
Q 3525 3141 3298 2862 
Q 3072 2584 2669 2484 
Q 3125 2378 3379 2068 
Q 3634 1759 3634 1313 
Q 3634 634 3220 271 
Q 2806 -91 2034 -91 
Q 1263 -91 848 271 
Q 434 634 434 1313 
Q 434 1759 690 2068 
Q 947 2378 1403 2484 
z
M 1172 3481 
Q 1172 3119 1398 2916 
Q 1625 2713 2034 2713 
Q 2441 2713 2670 2916 
Q 2900 3119 2900 3481 
Q 2900 3844 2670 4047 
Q 2441 4250 2034 4250 
Q 1625 4250 1398 4047 
Q 1172 3844 1172 3481 
z
" id="DejaVuSans-38" transform="scale(0.015625)"/>
       </defs>
       <use xlink:href="#DejaVuSans-38"/>
       <use x="63.623047" xlink:href="#DejaVuSans-30"/>
       <use x="127.246094" xlink:href="#DejaVuSans-30"/>
       <use x="190.869141" xlink:href="#DejaVuSans-30"/>
      </g>
     </g>
    </g>
    <g id="text_26">
     <!-- Reached region coverage -->
     <g transform="translate(14.798438 219.136625)rotate(-90)scale(0.1 -0.1)">
      <defs>
       <path d="M 2841 2188 
Q 3044 2119 3236 1894 
Q 3428 1669 3622 1275 
L 4263 0 
L 3584 0 
L 2988 1197 
Q 2756 1666 2539 1819 
Q 2322 1972 1947 1972 
L 1259 1972 
L 1259 0 
L 628 0 
L 628 4666 
L 2053 4666 
Q 2853 4666 3247 4331 
Q 3641 3997 3641 3322 
Q 3641 2881 3436 2590 
Q 3231 2300 2841 2188 
z
M 1259 4147 
L 1259 2491 
L 2053 2491 
Q 2509 2491 2742 2702 
Q 2975 2913 2975 3322 
Q 2975 3731 2742 3939 
Q 2509 4147 2053 4147 
L 1259 4147 
z
" id="DejaVuSans-52" transform="scale(0.015625)"/>
      </defs>
      <use xlink:href="#DejaVuSans-52"/>
      <use x="64.982422" xlink:href="#DejaVuSans-65"/>
      <use x="126.505859" xlink:href="#DejaVuSans-61"/>
      <use x="187.785156" xlink:href="#DejaVuSans-63"/>
      <use x="242.765625" xlink:href="#DejaVuSans-68"/>
      <use x="306.144531" xlink:href="#DejaVuSans-65"/>
      <use x="367.667969" xlink:href="#DejaVuSans-64"/>
      <use x="431.144531" xlink:href="#DejaVuSans-20"/>
      <use x="462.931641" xlink:href="#DejaVuSans-72"/>
      <use x="501.794922" xlink:href="#DejaVuSans-65"/>
      <use x="563.318359" xlink:href="#DejaVuSans-67"/>
      <use x="626.794922" xlink:href="#DejaVuSans-69"/>
      <use x="654.578125" xlink:href="#DejaVuSans-6f"/>
      <use x="715.759766" xlink:href="#DejaVuSans-6e"/>
      <use x="779.138672" xlink:href="#DejaVuSans-20"/>
      <use x="810.925781" xlink:href="#DejaVuSans-63"/>
      <use x="865.90625" xlink:href="#DejaVuSans-6f"/>
      <use x="927.087891" xlink:href="#DejaVuSans-76"/>
      <use x="986.267578" xlink:href="#DejaVuSans-65"/>
      <use x="1047.791016" xlink:href="#DejaVuSans-72"/>
      <use x="1088.904297" xlink:href="#DejaVuSans-61"/>
      <use x="1150.183594" xlink:href="#DejaVuSans-67"/>
      <use x="1213.660156" xlink:href="#DejaVuSans-65"/>
     </g>
    </g>
   </g>
   <g id="line2d_25">
    <path clip-path="url(#pfdc12e3475)" d="M 65.232125 37.793701 
L 65.232125 34.990125 
" style="fill:none;stroke:#424242;stroke-linecap:square;stroke-width:2.7;"/>
   </g>
   <g id="line2d_26">
    <path clip-path="url(#pfdc12e3475)" d="M 89.040125 41.294119 
L 89.040125 37.453382 
" style="fill:none;stroke:#424242;stroke-linecap:square;stroke-width:2.7;"/>
   </g>
   <g id="line2d_27">
    <path clip-path="url(#pfdc12e3475)" d="M 112.848125 40.419014 
L 112.848125 38.701217 
" style="fill:none;stroke:#424242;stroke-linecap:square;stroke-width:2.7;"/>
   </g>
   <g id="line2d_28">
    <path clip-path="url(#pfdc12e3475)" d="M 136.656125 59.865782 
L 136.656125 56.802916 
" style="fill:none;stroke:#424242;stroke-linecap:square;stroke-width:2.7;"/>
   </g>
   <g id="line2d_29">
    <path clip-path="url(#pfdc12e3475)" d="M 160.464125 107.996532 
L 160.464125 103.183457 
" style="fill:none;stroke:#424242;stroke-linecap:square;stroke-width:2.7;"/>
   </g>
   <g id="line2d_30">
    <path clip-path="url(#pfdc12e3475)" d="M 184.272125 108.239617 
L 184.272125 100.817434 
" style="fill:none;stroke:#424242;stroke-linecap:square;stroke-width:2.7;"/>
   </g>
   <g id="line2d_31">
    <path clip-path="url(#pfdc12e3475)" d="M 208.080125 108.207205 
L 208.080125 103.669626 
" style="fill:none;stroke:#424242;stroke-linecap:square;stroke-width:2.7;"/>
   </g>
   <g id="line2d_32">
    <path clip-path="url(#pfdc12e3475)" d="M 231.888125 108.207205 
L 231.888125 104.166329 
" style="fill:none;stroke:#424242;stroke-linecap:square;stroke-width:2.7;"/>
   </g>
   <g id="line2d_33">
    <path clip-path="url(#pfdc12e3475)" d="M 255.696125 109.390217 
L 255.696125 104.463703 
" style="fill:none;stroke:#424242;stroke-linecap:square;stroke-width:2.7;"/>
   </g>
   <g id="line2d_34">
    <path clip-path="url(#pfdc12e3475)" d="M 279.504125 146.517338 
L 279.504125 123.667386 
" style="fill:none;stroke:#424242;stroke-linecap:square;stroke-width:2.7;"/>
   </g>
   <g id="line2d_35">
    <path clip-path="url(#pfdc12e3475)" d="M 303.312125 146.403898 
L 303.312125 125.579651 
" style="fill:none;stroke:#424242;stroke-linecap:square;stroke-width:2.7;"/>
   </g>
   <g id="line2d_36">
    <path clip-path="url(#pfdc12e3475)" d="M 327.120125 136.712926 
L 327.120125 127.589151 
" style="fill:none;stroke:#424242;stroke-linecap:square;stroke-width:2.7;"/>
   </g>
   <g id="line2d_37">
    <path clip-path="url(#pfdc12e3475)" d="M 350.928125 165.542759 
L 350.928125 137.490796 
" style="fill:none;stroke:#424242;stroke-linecap:square;stroke-width:2.7;"/>
   </g>
   <g id="line2d_38">
    <path clip-path="url(#pfdc12e3475)" d="M 374.736125 164.019429 
L 374.736125 128.610106 
" style="fill:none;stroke:#424242;stroke-linecap:square;stroke-width:2.7;"/>
   </g>
   <g id="line2d_39">
    <path clip-path="url(#pfdc12e3475)" d="M 398.544125 180.532976 
L 398.544125 148.272814 
" style="fill:none;stroke:#424242;stroke-linecap:square;stroke-width:2.7;"/>
   </g>
   <g id="patch_18">
    <path d="M 53.328125 288.430125 
L 53.328125 29.139889 
" style="fill:none;stroke:#000000;stroke-linecap:square;stroke-linejoin:miter;stroke-width:0.8;"/>
   </g>
   <g id="patch_19">
    <path d="M 65.232125 288.430125 
L 398.544125 288.430125 
" style="fill:none;stroke:#000000;stroke-linecap:square;stroke-linejoin:miter;stroke-width:0.8;"/>
   </g>
   <g id="text_27">
    <!-- proj4-2017-08-14 (23h, 20 trials/fuzzer) -->
    <g transform="translate(112.828438 16.318125)scale(0.12 -0.12)">
     <defs>
      <path d="M 313 2009 
L 1997 2009 
L 1997 1497 
L 313 1497 
L 313 2009 
z
" id="DejaVuSans-2d" transform="scale(0.015625)"/>
      <path d="M 750 794 
L 1409 794 
L 1409 256 
L 897 -744 
L 494 -744 
L 750 256 
L 750 794 
z
" id="DejaVuSans-2c" transform="scale(0.015625)"/>
      <path d="M 1625 4666 
L 2156 4666 
L 531 -594 
L 0 -594 
L 1625 4666 
z
" id="DejaVuSans-2f" transform="scale(0.015625)"/>
     </defs>
     <use xlink:href="#DejaVuSans-70"/>
     <use x="63.476562" xlink:href="#DejaVuSans-72"/>
     <use x="102.339844" xlink:href="#DejaVuSans-6f"/>
     <use x="163.521484" xlink:href="#DejaVuSans-6a"/>
     <use x="191.304688" xlink:href="#DejaVuSans-34"/>
     <use x="254.927734" xlink:href="#DejaVuSans-2d"/>
     <use x="291.011719" xlink:href="#DejaVuSans-32"/>
     <use x="354.634766" xlink:href="#DejaVuSans-30"/>
     <use x="418.257812" xlink:href="#DejaVuSans-31"/>
     <use x="481.880859" xlink:href="#DejaVuSans-37"/>
     <use x="545.503906" xlink:href="#DejaVuSans-2d"/>
     <use x="581.587891" xlink:href="#DejaVuSans-30"/>
     <use x="645.210938" xlink:href="#DejaVuSans-38"/>
     <use x="708.833984" xlink:href="#DejaVuSans-2d"/>
     <use x="744.917969" xlink:href="#DejaVuSans-31"/>
     <use x="808.541016" xlink:href="#DejaVuSans-34"/>
     <use x="872.164062" xlink:href="#DejaVuSans-20"/>
     <use x="903.951172" xlink:href="#DejaVuSans-28"/>
     <use x="942.964844" xlink:href="#DejaVuSans-32"/>
     <use x="1006.587891" xlink:href="#DejaVuSans-33"/>
     <use x="1070.210938" xlink:href="#DejaVuSans-68"/>
     <use x="1133.589844" xlink:href="#DejaVuSans-2c"/>
     <use x="1165.376953" xlink:href="#DejaVuSans-20"/>
     <use x="1197.164062" xlink:href="#DejaVuSans-32"/>
     <use x="1260.787109" xlink:href="#DejaVuSans-30"/>
     <use x="1324.410156" xlink:href="#DejaVuSans-20"/>
     <use x="1356.197266" xlink:href="#DejaVuSans-74"/>
     <use x="1395.40625" xlink:href="#DejaVuSans-72"/>
     <use x="1436.519531" xlink:href="#DejaVuSans-69"/>
     <use x="1464.302734" xlink:href="#DejaVuSans-61"/>
     <use x="1525.582031" xlink:href="#DejaVuSans-6c"/>
     <use x="1553.365234" xlink:href="#DejaVuSans-73"/>
     <use x="1605.464844" xlink:href="#DejaVuSans-2f"/>
     <use x="1639.15625" xlink:href="#DejaVuSans-66"/>
     <use x="1674.361328" xlink:href="#DejaVuSans-75"/>
     <use x="1737.740234" xlink:href="#DejaVuSans-7a"/>
     <use x="1790.230469" xlink:href="#DejaVuSans-7a"/>
     <use x="1842.720703" xlink:href="#DejaVuSans-65"/>
     <use x="1904.244141" xlink:href="#DejaVuSans-72"/>
     <use x="1945.357422" xlink:href="#DejaVuSans-29"/>
    </g>
   </g>
  </g>
 </g>
 <defs>
  <clipPath id="pfdc12e3475">
   <rect height="266.112" width="357.12" x="53.328125" y="22.318125"/>
  </clipPath>
 </defs>
</svg>
