<?xml version="1.0" encoding="utf-8" standalone="no"?>
<!DOCTYPE svg PUBLIC "-//W3C//DTD SVG 1.1//EN"
  "http://www.w3.org/Graphics/SVG/1.1/DTD/svg11.dtd">
<svg height="341.285437pt" version="1.1" viewBox="0 0 418.747537 341.285437" width="418.747537pt" xmlns="http://www.w3.org/2000/svg" xmlns:xlink="http://www.w3.org/1999/xlink">
 <metadata>
  <rdf:RDF xmlns:cc="http://creativecommons.org/ns#" xmlns:dc="http://purl.org/dc/elements/1.1/" xmlns:rdf="http://www.w3.org/1999/02/22-rdf-syntax-ns#">
   <cc:Work>
    <dc:type rdf:resource="http://purl.org/dc/dcmitype/StillImage"/>
    <dc:date>2021-05-05T14:45:44.434301</dc:date>
    <dc:format>image/svg+xml</dc:format>
    <dc:creator>
     <cc:Agent>
      <dc:title>Matplotlib v3.4.1, https://matplotlib.org/</dc:title>
     </cc:Agent>
    </dc:creator>
   </cc:Work>
  </rdf:RDF>
 </metadata>
 <defs>
  <style type="text/css">*{stroke-linecap:butt;stroke-linejoin:round;}</style>
 </defs>
 <g id="figure_1">
  <g id="patch_1">
   <path d="M 0 341.285437 
L 418.747537 341.285437 
L 418.747537 0 
L 0 0 
z
" style="fill:#ffffff;"/>
  </g>
  <g id="axes_1">
   <g id="patch_2">
    <path d="M 67.973438 273.312 
L 334.085437 273.312 
L 334.085437 7.2 
L 67.973438 7.2 
z
" style="fill:#ffffff;"/>
   </g>
   <g id="QuadMesh_1">
    <path clip-path="url(#pdbb05374ba)" d="M 67.973438 7.2 
L 92.165437 7.2 
L 92.165437 31.392 
L 67.973438 31.392 
L 67.973438 7.2 
" style="fill:none;stroke:#808080;stroke-width:0.5;"/>
    <path clip-path="url(#pdbb05374ba)" d="M 92.165437 7.2 
L 116.357438 7.2 
L 116.357438 31.392 
L 92.165437 31.392 
L 92.165437 7.2 
" style="fill:#fbd7d4;stroke:#808080;stroke-width:0.5;"/>
    <path clip-path="url(#pdbb05374ba)" d="M 116.357438 7.2 
L 140.549438 7.2 
L 140.549438 31.392 
L 116.357438 31.392 
L 116.357438 7.2 
" style="fill:#fbd7d4;stroke:#808080;stroke-width:0.5;"/>
    <path clip-path="url(#pdbb05374ba)" d="M 140.549438 7.2 
L 164.741437 7.2 
L 164.741437 31.392 
L 140.549438 31.392 
L 140.549438 7.2 
" style="fill:#fbd7d4;stroke:#808080;stroke-width:0.5;"/>
    <path clip-path="url(#pdbb05374ba)" d="M 164.741437 7.2 
L 188.933437 7.2 
L 188.933437 31.392 
L 164.741437 31.392 
L 164.741437 7.2 
" style="fill:#fbd7d4;stroke:#808080;stroke-width:0.5;"/>
    <path clip-path="url(#pdbb05374ba)" d="M 188.933437 7.2 
L 213.125437 7.2 
L 213.125437 31.392 
L 188.933437 31.392 
L 188.933437 7.2 
" style="fill:#238b45;stroke:#808080;stroke-width:0.5;"/>
    <path clip-path="url(#pdbb05374ba)" d="M 213.125437 7.2 
L 237.317437 7.2 
L 237.317437 31.392 
L 213.125437 31.392 
L 213.125437 7.2 
" style="fill:#005a32;stroke:#808080;stroke-width:0.5;"/>
    <path clip-path="url(#pdbb05374ba)" d="M 237.317437 7.2 
L 261.509437 7.2 
L 261.509437 31.392 
L 237.317437 31.392 
L 237.317437 7.2 
" style="fill:#005a32;stroke:#808080;stroke-width:0.5;"/>
    <path clip-path="url(#pdbb05374ba)" d="M 261.509437 7.2 
L 285.701437 7.2 
L 285.701437 31.392 
L 261.509437 31.392 
L 261.509437 7.2 
" style="fill:#238b45;stroke:#808080;stroke-width:0.5;"/>
    <path clip-path="url(#pdbb05374ba)" d="M 285.701437 7.2 
L 309.893437 7.2 
L 309.893437 31.392 
L 285.701437 31.392 
L 285.701437 7.2 
" style="fill:#fbd7d4;stroke:#808080;stroke-width:0.5;"/>
    <path clip-path="url(#pdbb05374ba)" d="M 309.893437 7.2 
L 334.085437 7.2 
L 334.085437 31.392 
L 309.893437 31.392 
L 309.893437 7.2 
" style="fill:#fbd7d4;stroke:#808080;stroke-width:0.5;"/>
    <path clip-path="url(#pdbb05374ba)" d="M 67.973438 31.392 
L 92.165437 31.392 
L 92.165437 55.584 
L 67.973438 55.584 
L 67.973438 31.392 
" style="fill:#fbd7d4;stroke:#808080;stroke-width:0.5;"/>
    <path clip-path="url(#pdbb05374ba)" d="M 92.165437 31.392 
L 116.357438 31.392 
L 116.357438 55.584 
L 92.165437 55.584 
L 92.165437 31.392 
" style="fill:none;stroke:#808080;stroke-width:0.5;"/>
    <path clip-path="url(#pdbb05374ba)" d="M 116.357438 31.392 
L 140.549438 31.392 
L 140.549438 55.584 
L 116.357438 55.584 
L 116.357438 31.392 
" style="fill:#a1d99b;stroke:#808080;stroke-width:0.5;"/>
    <path clip-path="url(#pdbb05374ba)" d="M 140.549438 31.392 
L 164.741437 31.392 
L 164.741437 55.584 
L 140.549438 55.584 
L 140.549438 31.392 
" style="fill:#fbd7d4;stroke:#808080;stroke-width:0.5;"/>
    <path clip-path="url(#pdbb05374ba)" d="M 164.741437 31.392 
L 188.933437 31.392 
L 188.933437 55.584 
L 164.741437 55.584 
L 164.741437 31.392 
" style="fill:#a1d99b;stroke:#808080;stroke-width:0.5;"/>
    <path clip-path="url(#pdbb05374ba)" d="M 188.933437 31.392 
L 213.125437 31.392 
L 213.125437 55.584 
L 188.933437 55.584 
L 188.933437 31.392 
" style="fill:#005a32;stroke:#808080;stroke-width:0.5;"/>
    <path clip-path="url(#pdbb05374ba)" d="M 213.125437 31.392 
L 237.317437 31.392 
L 237.317437 55.584 
L 213.125437 55.584 
L 213.125437 31.392 
" style="fill:#238b45;stroke:#808080;stroke-width:0.5;"/>
    <path clip-path="url(#pdbb05374ba)" d="M 237.317437 31.392 
L 261.509437 31.392 
L 261.509437 55.584 
L 237.317437 55.584 
L 237.317437 31.392 
" style="fill:#a1d99b;stroke:#808080;stroke-width:0.5;"/>
    <path clip-path="url(#pdbb05374ba)" d="M 261.509437 31.392 
L 285.701437 31.392 
L 285.701437 55.584 
L 261.509437 55.584 
L 261.509437 31.392 
" style="fill:#fbd7d4;stroke:#808080;stroke-width:0.5;"/>
    <path clip-path="url(#pdbb05374ba)" d="M 285.701437 31.392 
L 309.893437 31.392 
L 309.893437 55.584 
L 285.701437 55.584 
L 285.701437 31.392 
" style="fill:#fbd7d4;stroke:#808080;stroke-width:0.5;"/>
    <path clip-path="url(#pdbb05374ba)" d="M 309.893437 31.392 
L 334.085437 31.392 
L 334.085437 55.584 
L 309.893437 55.584 
L 309.893437 31.392 
" style="fill:#fbd7d4;stroke:#808080;stroke-width:0.5;"/>
    <path clip-path="url(#pdbb05374ba)" d="M 67.973438 55.584 
L 92.165437 55.584 
L 92.165437 79.776 
L 67.973438 79.776 
L 67.973438 55.584 
" style="fill:#fbd7d4;stroke:#808080;stroke-width:0.5;"/>
    <path clip-path="url(#pdbb05374ba)" d="M 92.165437 55.584 
L 116.357438 55.584 
L 116.357438 79.776 
L 92.165437 79.776 
L 92.165437 55.584 
" style="fill:#a1d99b;stroke:#808080;stroke-width:0.5;"/>
    <path clip-path="url(#pdbb05374ba)" d="M 116.357438 55.584 
L 140.549438 55.584 
L 140.549438 79.776 
L 116.357438 79.776 
L 116.357438 55.584 
" style="fill:none;stroke:#808080;stroke-width:0.5;"/>
    <path clip-path="url(#pdbb05374ba)" d="M 140.549438 55.584 
L 164.741437 55.584 
L 164.741437 79.776 
L 140.549438 79.776 
L 140.549438 55.584 
" style="fill:#fbd7d4;stroke:#808080;stroke-width:0.5;"/>
    <path clip-path="url(#pdbb05374ba)" d="M 164.741437 55.584 
L 188.933437 55.584 
L 188.933437 79.776 
L 164.741437 79.776 
L 164.741437 55.584 
" style="fill:#fbd7d4;stroke:#808080;stroke-width:0.5;"/>
    <path clip-path="url(#pdbb05374ba)" d="M 188.933437 55.584 
L 213.125437 55.584 
L 213.125437 79.776 
L 188.933437 79.776 
L 188.933437 55.584 
" style="fill:#005a32;stroke:#808080;stroke-width:0.5;"/>
    <path clip-path="url(#pdbb05374ba)" d="M 213.125437 55.584 
L 237.317437 55.584 
L 237.317437 79.776 
L 213.125437 79.776 
L 213.125437 55.584 
" style="fill:#005a32;stroke:#808080;stroke-width:0.5;"/>
    <path clip-path="url(#pdbb05374ba)" d="M 237.317437 55.584 
L 261.509437 55.584 
L 261.509437 79.776 
L 237.317437 79.776 
L 237.317437 55.584 
" style="fill:#005a32;stroke:#808080;stroke-width:0.5;"/>
    <path clip-path="url(#pdbb05374ba)" d="M 261.509437 55.584 
L 285.701437 55.584 
L 285.701437 79.776 
L 261.509437 79.776 
L 261.509437 55.584 
" style="fill:#238b45;stroke:#808080;stroke-width:0.5;"/>
    <path clip-path="url(#pdbb05374ba)" d="M 285.701437 55.584 
L 309.893437 55.584 
L 309.893437 79.776 
L 285.701437 79.776 
L 285.701437 55.584 
" style="fill:#a1d99b;stroke:#808080;stroke-width:0.5;"/>
    <path clip-path="url(#pdbb05374ba)" d="M 309.893437 55.584 
L 334.085437 55.584 
L 334.085437 79.776 
L 309.893437 79.776 
L 309.893437 55.584 
" style="fill:#fbd7d4;stroke:#808080;stroke-width:0.5;"/>
    <path clip-path="url(#pdbb05374ba)" d="M 67.973438 79.776 
L 92.165437 79.776 
L 92.165437 103.968 
L 67.973438 103.968 
L 67.973438 79.776 
" style="fill:#fbd7d4;stroke:#808080;stroke-width:0.5;"/>
    <path clip-path="url(#pdbb05374ba)" d="M 92.165437 79.776 
L 116.357438 79.776 
L 116.357438 103.968 
L 92.165437 103.968 
L 92.165437 79.776 
" style="fill:#fbd7d4;stroke:#808080;stroke-width:0.5;"/>
    <path clip-path="url(#pdbb05374ba)" d="M 116.357438 79.776 
L 140.549438 79.776 
L 140.549438 103.968 
L 116.357438 103.968 
L 116.357438 79.776 
" style="fill:#fbd7d4;stroke:#808080;stroke-width:0.5;"/>
    <path clip-path="url(#pdbb05374ba)" d="M 140.549438 79.776 
L 164.741437 79.776 
L 164.741437 103.968 
L 140.549438 103.968 
L 140.549438 79.776 
" style="fill:none;stroke:#808080;stroke-width:0.5;"/>
    <path clip-path="url(#pdbb05374ba)" d="M 164.741437 79.776 
L 188.933437 79.776 
L 188.933437 103.968 
L 164.741437 103.968 
L 164.741437 79.776 
" style="fill:#fbd7d4;stroke:#808080;stroke-width:0.5;"/>
    <path clip-path="url(#pdbb05374ba)" d="M 188.933437 79.776 
L 213.125437 79.776 
L 213.125437 103.968 
L 188.933437 103.968 
L 188.933437 79.776 
" style="fill:#005a32;stroke:#808080;stroke-width:0.5;"/>
    <path clip-path="url(#pdbb05374ba)" d="M 213.125437 79.776 
L 237.317437 79.776 
L 237.317437 103.968 
L 213.125437 103.968 
L 213.125437 79.776 
" style="fill:#005a32;stroke:#808080;stroke-width:0.5;"/>
    <path clip-path="url(#pdbb05374ba)" d="M 237.317437 79.776 
L 261.509437 79.776 
L 261.509437 103.968 
L 237.317437 103.968 
L 237.317437 79.776 
" style="fill:#005a32;stroke:#808080;stroke-width:0.5;"/>
    <path clip-path="url(#pdbb05374ba)" d="M 261.509437 79.776 
L 285.701437 79.776 
L 285.701437 103.968 
L 261.509437 103.968 
L 261.509437 79.776 
" style="fill:#238b45;stroke:#808080;stroke-width:0.5;"/>
    <path clip-path="url(#pdbb05374ba)" d="M 285.701437 79.776 
L 309.893437 79.776 
L 309.893437 103.968 
L 285.701437 103.968 
L 285.701437 79.776 
" style="fill:#fbd7d4;stroke:#808080;stroke-width:0.5;"/>
    <path clip-path="url(#pdbb05374ba)" d="M 309.893437 79.776 
L 334.085437 79.776 
L 334.085437 103.968 
L 309.893437 103.968 
L 309.893437 79.776 
" style="fill:#fbd7d4;stroke:#808080;stroke-width:0.5;"/>
    <path clip-path="url(#pdbb05374ba)" d="M 67.973438 103.968 
L 92.165437 103.968 
L 92.165437 128.16 
L 67.973438 128.16 
L 67.973438 103.968 
" style="fill:#fbd7d4;stroke:#808080;stroke-width:0.5;"/>
    <path clip-path="url(#pdbb05374ba)" d="M 92.165437 103.968 
L 116.357438 103.968 
L 116.357438 128.16 
L 92.165437 128.16 
L 92.165437 103.968 
" style="fill:#a1d99b;stroke:#808080;stroke-width:0.5;"/>
    <path clip-path="url(#pdbb05374ba)" d="M 116.357438 103.968 
L 140.549438 103.968 
L 140.549438 128.16 
L 116.357438 128.16 
L 116.357438 103.968 
" style="fill:#fbd7d4;stroke:#808080;stroke-width:0.5;"/>
    <path clip-path="url(#pdbb05374ba)" d="M 140.549438 103.968 
L 164.741437 103.968 
L 164.741437 128.16 
L 140.549438 128.16 
L 140.549438 103.968 
" style="fill:#fbd7d4;stroke:#808080;stroke-width:0.5;"/>
    <path clip-path="url(#pdbb05374ba)" d="M 164.741437 103.968 
L 188.933437 103.968 
L 188.933437 128.16 
L 164.741437 128.16 
L 164.741437 103.968 
" style="fill:none;stroke:#808080;stroke-width:0.5;"/>
    <path clip-path="url(#pdbb05374ba)" d="M 188.933437 103.968 
L 213.125437 103.968 
L 213.125437 128.16 
L 188.933437 128.16 
L 188.933437 103.968 
" style="fill:#238b45;stroke:#808080;stroke-width:0.5;"/>
    <path clip-path="url(#pdbb05374ba)" d="M 213.125437 103.968 
L 237.317437 103.968 
L 237.317437 128.16 
L 213.125437 128.16 
L 213.125437 103.968 
" style="fill:#005a32;stroke:#808080;stroke-width:0.5;"/>
    <path clip-path="url(#pdbb05374ba)" d="M 237.317437 103.968 
L 261.509437 103.968 
L 261.509437 128.16 
L 237.317437 128.16 
L 237.317437 103.968 
" style="fill:#005a32;stroke:#808080;stroke-width:0.5;"/>
    <path clip-path="url(#pdbb05374ba)" d="M 261.509437 103.968 
L 285.701437 103.968 
L 285.701437 128.16 
L 261.509437 128.16 
L 261.509437 103.968 
" style="fill:#238b45;stroke:#808080;stroke-width:0.5;"/>
    <path clip-path="url(#pdbb05374ba)" d="M 285.701437 103.968 
L 309.893437 103.968 
L 309.893437 128.16 
L 285.701437 128.16 
L 285.701437 103.968 
" style="fill:#fbd7d4;stroke:#808080;stroke-width:0.5;"/>
    <path clip-path="url(#pdbb05374ba)" d="M 309.893437 103.968 
L 334.085437 103.968 
L 334.085437 128.16 
L 309.893437 128.16 
L 309.893437 103.968 
" style="fill:#fbd7d4;stroke:#808080;stroke-width:0.5;"/>
    <path clip-path="url(#pdbb05374ba)" d="M 67.973438 128.16 
L 92.165437 128.16 
L 92.165437 152.352 
L 67.973438 152.352 
L 67.973438 128.16 
" style="fill:#238b45;stroke:#808080;stroke-width:0.5;"/>
    <path clip-path="url(#pdbb05374ba)" d="M 92.165437 128.16 
L 116.357438 128.16 
L 116.357438 152.352 
L 92.165437 152.352 
L 92.165437 128.16 
" style="fill:#005a32;stroke:#808080;stroke-width:0.5;"/>
    <path clip-path="url(#pdbb05374ba)" d="M 116.357438 128.16 
L 140.549438 128.16 
L 140.549438 152.352 
L 116.357438 152.352 
L 116.357438 128.16 
" style="fill:#005a32;stroke:#808080;stroke-width:0.5;"/>
    <path clip-path="url(#pdbb05374ba)" d="M 140.549438 128.16 
L 164.741437 128.16 
L 164.741437 152.352 
L 140.549438 152.352 
L 140.549438 128.16 
" style="fill:#005a32;stroke:#808080;stroke-width:0.5;"/>
    <path clip-path="url(#pdbb05374ba)" d="M 164.741437 128.16 
L 188.933437 128.16 
L 188.933437 152.352 
L 164.741437 152.352 
L 164.741437 128.16 
" style="fill:#238b45;stroke:#808080;stroke-width:0.5;"/>
    <path clip-path="url(#pdbb05374ba)" d="M 188.933437 128.16 
L 213.125437 128.16 
L 213.125437 152.352 
L 188.933437 152.352 
L 188.933437 128.16 
" style="fill:none;stroke:#808080;stroke-width:0.5;"/>
    <path clip-path="url(#pdbb05374ba)" d="M 213.125437 128.16 
L 237.317437 128.16 
L 237.317437 152.352 
L 213.125437 152.352 
L 213.125437 128.16 
" style="fill:#005a32;stroke:#808080;stroke-width:0.5;"/>
    <path clip-path="url(#pdbb05374ba)" d="M 237.317437 128.16 
L 261.509437 128.16 
L 261.509437 152.352 
L 237.317437 152.352 
L 237.317437 128.16 
" style="fill:#005a32;stroke:#808080;stroke-width:0.5;"/>
    <path clip-path="url(#pdbb05374ba)" d="M 261.509437 128.16 
L 285.701437 128.16 
L 285.701437 152.352 
L 261.509437 152.352 
L 261.509437 128.16 
" style="fill:#005a32;stroke:#808080;stroke-width:0.5;"/>
    <path clip-path="url(#pdbb05374ba)" d="M 285.701437 128.16 
L 309.893437 128.16 
L 309.893437 152.352 
L 285.701437 152.352 
L 285.701437 128.16 
" style="fill:#005a32;stroke:#808080;stroke-width:0.5;"/>
    <path clip-path="url(#pdbb05374ba)" d="M 309.893437 128.16 
L 334.085437 128.16 
L 334.085437 152.352 
L 309.893437 152.352 
L 309.893437 128.16 
" style="fill:#238b45;stroke:#808080;stroke-width:0.5;"/>
    <path clip-path="url(#pdbb05374ba)" d="M 67.973438 152.352 
L 92.165437 152.352 
L 92.165437 176.544 
L 67.973438 176.544 
L 67.973438 152.352 
" style="fill:#005a32;stroke:#808080;stroke-width:0.5;"/>
    <path clip-path="url(#pdbb05374ba)" d="M 92.165437 152.352 
L 116.357438 152.352 
L 116.357438 176.544 
L 92.165437 176.544 
L 92.165437 152.352 
" style="fill:#238b45;stroke:#808080;stroke-width:0.5;"/>
    <path clip-path="url(#pdbb05374ba)" d="M 116.357438 152.352 
L 140.549438 152.352 
L 140.549438 176.544 
L 116.357438 176.544 
L 116.357438 152.352 
" style="fill:#005a32;stroke:#808080;stroke-width:0.5;"/>
    <path clip-path="url(#pdbb05374ba)" d="M 140.549438 152.352 
L 164.741437 152.352 
L 164.741437 176.544 
L 140.549438 176.544 
L 140.549438 152.352 
" style="fill:#005a32;stroke:#808080;stroke-width:0.5;"/>
    <path clip-path="url(#pdbb05374ba)" d="M 164.741437 152.352 
L 188.933437 152.352 
L 188.933437 176.544 
L 164.741437 176.544 
L 164.741437 152.352 
" style="fill:#005a32;stroke:#808080;stroke-width:0.5;"/>
    <path clip-path="url(#pdbb05374ba)" d="M 188.933437 152.352 
L 213.125437 152.352 
L 213.125437 176.544 
L 188.933437 176.544 
L 188.933437 152.352 
" style="fill:#005a32;stroke:#808080;stroke-width:0.5;"/>
    <path clip-path="url(#pdbb05374ba)" d="M 213.125437 152.352 
L 237.317437 152.352 
L 237.317437 176.544 
L 213.125437 176.544 
L 213.125437 152.352 
" style="fill:none;stroke:#808080;stroke-width:0.5;"/>
    <path clip-path="url(#pdbb05374ba)" d="M 237.317437 152.352 
L 261.509437 152.352 
L 261.509437 176.544 
L 237.317437 176.544 
L 237.317437 152.352 
" style="fill:#fbd7d4;stroke:#808080;stroke-width:0.5;"/>
    <path clip-path="url(#pdbb05374ba)" d="M 261.509437 152.352 
L 285.701437 152.352 
L 285.701437 176.544 
L 261.509437 176.544 
L 261.509437 152.352 
" style="fill:#fbd7d4;stroke:#808080;stroke-width:0.5;"/>
    <path clip-path="url(#pdbb05374ba)" d="M 285.701437 152.352 
L 309.893437 152.352 
L 309.893437 176.544 
L 285.701437 176.544 
L 285.701437 152.352 
" style="fill:#005a32;stroke:#808080;stroke-width:0.5;"/>
    <path clip-path="url(#pdbb05374ba)" d="M 309.893437 152.352 
L 334.085437 152.352 
L 334.085437 176.544 
L 309.893437 176.544 
L 309.893437 152.352 
" style="fill:#005a32;stroke:#808080;stroke-width:0.5;"/>
    <path clip-path="url(#pdbb05374ba)" d="M 67.973438 176.544 
L 92.165437 176.544 
L 92.165437 200.736 
L 67.973438 200.736 
L 67.973438 176.544 
" style="fill:#005a32;stroke:#808080;stroke-width:0.5;"/>
    <path clip-path="url(#pdbb05374ba)" d="M 92.165437 176.544 
L 116.357438 176.544 
L 116.357438 200.736 
L 92.165437 200.736 
L 92.165437 176.544 
" style="fill:#a1d99b;stroke:#808080;stroke-width:0.5;"/>
    <path clip-path="url(#pdbb05374ba)" d="M 116.357438 176.544 
L 140.549438 176.544 
L 140.549438 200.736 
L 116.357438 200.736 
L 116.357438 176.544 
" style="fill:#005a32;stroke:#808080;stroke-width:0.5;"/>
    <path clip-path="url(#pdbb05374ba)" d="M 140.549438 176.544 
L 164.741437 176.544 
L 164.741437 200.736 
L 140.549438 200.736 
L 140.549438 176.544 
" style="fill:#005a32;stroke:#808080;stroke-width:0.5;"/>
    <path clip-path="url(#pdbb05374ba)" d="M 164.741437 176.544 
L 188.933437 176.544 
L 188.933437 200.736 
L 164.741437 200.736 
L 164.741437 176.544 
" style="fill:#005a32;stroke:#808080;stroke-width:0.5;"/>
    <path clip-path="url(#pdbb05374ba)" d="M 188.933437 176.544 
L 213.125437 176.544 
L 213.125437 200.736 
L 188.933437 200.736 
L 188.933437 176.544 
" style="fill:#005a32;stroke:#808080;stroke-width:0.5;"/>
    <path clip-path="url(#pdbb05374ba)" d="M 213.125437 176.544 
L 237.317437 176.544 
L 237.317437 200.736 
L 213.125437 200.736 
L 213.125437 176.544 
" style="fill:#fbd7d4;stroke:#808080;stroke-width:0.5;"/>
    <path clip-path="url(#pdbb05374ba)" d="M 237.317437 176.544 
L 261.509437 176.544 
L 261.509437 200.736 
L 237.317437 200.736 
L 237.317437 176.544 
" style="fill:none;stroke:#808080;stroke-width:0.5;"/>
    <path clip-path="url(#pdbb05374ba)" d="M 261.509437 176.544 
L 285.701437 176.544 
L 285.701437 200.736 
L 261.509437 200.736 
L 261.509437 176.544 
" style="fill:#fbd7d4;stroke:#808080;stroke-width:0.5;"/>
    <path clip-path="url(#pdbb05374ba)" d="M 285.701437 176.544 
L 309.893437 176.544 
L 309.893437 200.736 
L 285.701437 200.736 
L 285.701437 176.544 
" style="fill:#238b45;stroke:#808080;stroke-width:0.5;"/>
    <path clip-path="url(#pdbb05374ba)" d="M 309.893437 176.544 
L 334.085437 176.544 
L 334.085437 200.736 
L 309.893437 200.736 
L 309.893437 176.544 
" style="fill:#238b45;stroke:#808080;stroke-width:0.5;"/>
    <path clip-path="url(#pdbb05374ba)" d="M 67.973438 200.736 
L 92.165437 200.736 
L 92.165437 224.928 
L 67.973438 224.928 
L 67.973438 200.736 
" style="fill:#238b45;stroke:#808080;stroke-width:0.5;"/>
    <path clip-path="url(#pdbb05374ba)" d="M 92.165437 200.736 
L 116.357438 200.736 
L 116.357438 224.928 
L 92.165437 224.928 
L 92.165437 200.736 
" style="fill:#fbd7d4;stroke:#808080;stroke-width:0.5;"/>
    <path clip-path="url(#pdbb05374ba)" d="M 116.357438 200.736 
L 140.549438 200.736 
L 140.549438 224.928 
L 116.357438 224.928 
L 116.357438 200.736 
" style="fill:#238b45;stroke:#808080;stroke-width:0.5;"/>
    <path clip-path="url(#pdbb05374ba)" d="M 140.549438 200.736 
L 164.741437 200.736 
L 164.741437 224.928 
L 140.549438 224.928 
L 140.549438 200.736 
" style="fill:#238b45;stroke:#808080;stroke-width:0.5;"/>
    <path clip-path="url(#pdbb05374ba)" d="M 164.741437 200.736 
L 188.933437 200.736 
L 188.933437 224.928 
L 164.741437 224.928 
L 164.741437 200.736 
" style="fill:#238b45;stroke:#808080;stroke-width:0.5;"/>
    <path clip-path="url(#pdbb05374ba)" d="M 188.933437 200.736 
L 213.125437 200.736 
L 213.125437 224.928 
L 188.933437 224.928 
L 188.933437 200.736 
" style="fill:#005a32;stroke:#808080;stroke-width:0.5;"/>
    <path clip-path="url(#pdbb05374ba)" d="M 213.125437 200.736 
L 237.317437 200.736 
L 237.317437 224.928 
L 213.125437 224.928 
L 213.125437 200.736 
" style="fill:#fbd7d4;stroke:#808080;stroke-width:0.5;"/>
    <path clip-path="url(#pdbb05374ba)" d="M 237.317437 200.736 
L 261.509437 200.736 
L 261.509437 224.928 
L 237.317437 224.928 
L 237.317437 200.736 
" style="fill:#fbd7d4;stroke:#808080;stroke-width:0.5;"/>
    <path clip-path="url(#pdbb05374ba)" d="M 261.509437 200.736 
L 285.701437 200.736 
L 285.701437 224.928 
L 261.509437 224.928 
L 261.509437 200.736 
" style="fill:none;stroke:#808080;stroke-width:0.5;"/>
    <path clip-path="url(#pdbb05374ba)" d="M 285.701437 200.736 
L 309.893437 200.736 
L 309.893437 224.928 
L 285.701437 224.928 
L 285.701437 200.736 
" style="fill:#a1d99b;stroke:#808080;stroke-width:0.5;"/>
    <path clip-path="url(#pdbb05374ba)" d="M 309.893437 200.736 
L 334.085437 200.736 
L 334.085437 224.928 
L 309.893437 224.928 
L 309.893437 200.736 
" style="fill:#238b45;stroke:#808080;stroke-width:0.5;"/>
    <path clip-path="url(#pdbb05374ba)" d="M 67.973438 224.928 
L 92.165437 224.928 
L 92.165437 249.12 
L 67.973438 249.12 
L 67.973438 224.928 
" style="fill:#fbd7d4;stroke:#808080;stroke-width:0.5;"/>
    <path clip-path="url(#pdbb05374ba)" d="M 92.165437 224.928 
L 116.357438 224.928 
L 116.357438 249.12 
L 92.165437 249.12 
L 92.165437 224.928 
" style="fill:#fbd7d4;stroke:#808080;stroke-width:0.5;"/>
    <path clip-path="url(#pdbb05374ba)" d="M 116.357438 224.928 
L 140.549438 224.928 
L 140.549438 249.12 
L 116.357438 249.12 
L 116.357438 224.928 
" style="fill:#a1d99b;stroke:#808080;stroke-width:0.5;"/>
    <path clip-path="url(#pdbb05374ba)" d="M 140.549438 224.928 
L 164.741437 224.928 
L 164.741437 249.12 
L 140.549438 249.12 
L 140.549438 224.928 
" style="fill:#fbd7d4;stroke:#808080;stroke-width:0.5;"/>
    <path clip-path="url(#pdbb05374ba)" d="M 164.741437 224.928 
L 188.933437 224.928 
L 188.933437 249.12 
L 164.741437 249.12 
L 164.741437 224.928 
" style="fill:#fbd7d4;stroke:#808080;stroke-width:0.5;"/>
    <path clip-path="url(#pdbb05374ba)" d="M 188.933437 224.928 
L 213.125437 224.928 
L 213.125437 249.12 
L 188.933437 249.12 
L 188.933437 224.928 
" style="fill:#005a32;stroke:#808080;stroke-width:0.5;"/>
    <path clip-path="url(#pdbb05374ba)" d="M 213.125437 224.928 
L 237.317437 224.928 
L 237.317437 249.12 
L 213.125437 249.12 
L 213.125437 224.928 
" style="fill:#005a32;stroke:#808080;stroke-width:0.5;"/>
    <path clip-path="url(#pdbb05374ba)" d="M 237.317437 224.928 
L 261.509437 224.928 
L 261.509437 249.12 
L 237.317437 249.12 
L 237.317437 224.928 
" style="fill:#238b45;stroke:#808080;stroke-width:0.5;"/>
    <path clip-path="url(#pdbb05374ba)" d="M 261.509437 224.928 
L 285.701437 224.928 
L 285.701437 249.12 
L 261.509437 249.12 
L 261.509437 224.928 
" style="fill:#a1d99b;stroke:#808080;stroke-width:0.5;"/>
    <path clip-path="url(#pdbb05374ba)" d="M 285.701437 224.928 
L 309.893437 224.928 
L 309.893437 249.12 
L 285.701437 249.12 
L 285.701437 224.928 
" style="fill:none;stroke:#808080;stroke-width:0.5;"/>
    <path clip-path="url(#pdbb05374ba)" d="M 309.893437 224.928 
L 334.085437 224.928 
L 334.085437 249.12 
L 309.893437 249.12 
L 309.893437 224.928 
" style="fill:#fbd7d4;stroke:#808080;stroke-width:0.5;"/>
    <path clip-path="url(#pdbb05374ba)" d="M 67.973438 249.12 
L 92.165437 249.12 
L 92.165437 273.312 
L 67.973438 273.312 
L 67.973438 249.12 
" style="fill:#fbd7d4;stroke:#808080;stroke-width:0.5;"/>
    <path clip-path="url(#pdbb05374ba)" d="M 92.165437 249.12 
L 116.357438 249.12 
L 116.357438 273.312 
L 92.165437 273.312 
L 92.165437 249.12 
" style="fill:#fbd7d4;stroke:#808080;stroke-width:0.5;"/>
    <path clip-path="url(#pdbb05374ba)" d="M 116.357438 249.12 
L 140.549438 249.12 
L 140.549438 273.312 
L 116.357438 273.312 
L 116.357438 249.12 
" style="fill:#fbd7d4;stroke:#808080;stroke-width:0.5;"/>
    <path clip-path="url(#pdbb05374ba)" d="M 140.549438 249.12 
L 164.741437 249.12 
L 164.741437 273.312 
L 140.549438 273.312 
L 140.549438 249.12 
" style="fill:#fbd7d4;stroke:#808080;stroke-width:0.5;"/>
    <path clip-path="url(#pdbb05374ba)" d="M 164.741437 249.12 
L 188.933437 249.12 
L 188.933437 273.312 
L 164.741437 273.312 
L 164.741437 249.12 
" style="fill:#fbd7d4;stroke:#808080;stroke-width:0.5;"/>
    <path clip-path="url(#pdbb05374ba)" d="M 188.933437 249.12 
L 213.125437 249.12 
L 213.125437 273.312 
L 188.933437 273.312 
L 188.933437 249.12 
" style="fill:#238b45;stroke:#808080;stroke-width:0.5;"/>
    <path clip-path="url(#pdbb05374ba)" d="M 213.125437 249.12 
L 237.317437 249.12 
L 237.317437 273.312 
L 213.125437 273.312 
L 213.125437 249.12 
" style="fill:#005a32;stroke:#808080;stroke-width:0.5;"/>
    <path clip-path="url(#pdbb05374ba)" d="M 237.317437 249.12 
L 261.509437 249.12 
L 261.509437 273.312 
L 237.317437 273.312 
L 237.317437 249.12 
" style="fill:#238b45;stroke:#808080;stroke-width:0.5;"/>
    <path clip-path="url(#pdbb05374ba)" d="M 261.509437 249.12 
L 285.701437 249.12 
L 285.701437 273.312 
L 261.509437 273.312 
L 261.509437 249.12 
" style="fill:#238b45;stroke:#808080;stroke-width:0.5;"/>
    <path clip-path="url(#pdbb05374ba)" d="M 285.701437 249.12 
L 309.893437 249.12 
L 309.893437 273.312 
L 285.701437 273.312 
L 285.701437 249.12 
" style="fill:#fbd7d4;stroke:#808080;stroke-width:0.5;"/>
    <path clip-path="url(#pdbb05374ba)" d="M 309.893437 249.12 
L 334.085437 249.12 
L 334.085437 273.312 
L 309.893437 273.312 
L 309.893437 249.12 
" style="fill:none;stroke:#808080;stroke-width:0.5;"/>
   </g>
   <g id="matplotlib.axis_1">
    <g id="xtick_1">
     <g id="line2d_1">
      <defs>
       <path d="M 0 0 
L 0 3.5 
" id="m7fe26c8c09" style="stroke:#000000;stroke-width:0.8;"/>
      </defs>
      <g>
       <use style="stroke:#000000;stroke-width:0.8;" x="80.069438" xlink:href="#m7fe26c8c09" y="273.312"/>
      </g>
     </g>
     <g id="text_1">
      <!-- afl -->
      <g transform="translate(72.471 280.312)rotate(-270)scale(0.1 -0.1)">
       <defs>
        <path d="M 2194 1759 
Q 1497 1759 1228 1600 
Q 959 1441 959 1056 
Q 959 750 1161 570 
Q 1363 391 1709 391 
Q 2188 391 2477 730 
Q 2766 1069 2766 1631 
L 2766 1759 
L 2194 1759 
z
M 3341 1997 
L 3341 0 
L 2766 0 
L 2766 531 
Q 2569 213 2275 61 
Q 1981 -91 1556 -91 
Q 1019 -91 701 211 
Q 384 513 384 1019 
Q 384 1609 779 1909 
Q 1175 2209 1959 2209 
L 2766 2209 
L 2766 2266 
Q 2766 2663 2505 2880 
Q 2244 3097 1772 3097 
Q 1472 3097 1187 3025 
Q 903 2953 641 2809 
L 641 3341 
Q 956 3463 1253 3523 
Q 1550 3584 1831 3584 
Q 2591 3584 2966 3190 
Q 3341 2797 3341 1997 
z
" id="DejaVuSans-61" transform="scale(0.015625)"/>
        <path d="M 2375 4863 
L 2375 4384 
L 1825 4384 
Q 1516 4384 1395 4259 
Q 1275 4134 1275 3809 
L 1275 3500 
L 2222 3500 
L 2222 3053 
L 1275 3053 
L 1275 0 
L 697 0 
L 697 3053 
L 147 3053 
L 147 3500 
L 697 3500 
L 697 3744 
Q 697 4328 969 4595 
Q 1241 4863 1831 4863 
L 2375 4863 
z
" id="DejaVuSans-66" transform="scale(0.015625)"/>
        <path d="M 603 4863 
L 1178 4863 
L 1178 0 
L 603 0 
L 603 4863 
z
" id="DejaVuSans-6c" transform="scale(0.015625)"/>
       </defs>
       <use xlink:href="#DejaVuSans-61"/>
       <use x="61.279297" xlink:href="#DejaVuSans-66"/>
       <use x="96.484375" xlink:href="#DejaVuSans-6c"/>
      </g>
     </g>
    </g>
    <g id="xtick_2">
     <g id="line2d_2">
      <g>
       <use style="stroke:#000000;stroke-width:0.8;" x="104.261437" xlink:href="#m7fe26c8c09" y="273.312"/>
      </g>
     </g>
     <g id="text_2">
      <!-- aflfast -->
      <g transform="translate(96.663 280.312)rotate(-270)scale(0.1 -0.1)">
       <defs>
        <path d="M 2834 3397 
L 2834 2853 
Q 2591 2978 2328 3040 
Q 2066 3103 1784 3103 
Q 1356 3103 1142 2972 
Q 928 2841 928 2578 
Q 928 2378 1081 2264 
Q 1234 2150 1697 2047 
L 1894 2003 
Q 2506 1872 2764 1633 
Q 3022 1394 3022 966 
Q 3022 478 2636 193 
Q 2250 -91 1575 -91 
Q 1294 -91 989 -36 
Q 684 19 347 128 
L 347 722 
Q 666 556 975 473 
Q 1284 391 1588 391 
Q 1994 391 2212 530 
Q 2431 669 2431 922 
Q 2431 1156 2273 1281 
Q 2116 1406 1581 1522 
L 1381 1569 
Q 847 1681 609 1914 
Q 372 2147 372 2553 
Q 372 3047 722 3315 
Q 1072 3584 1716 3584 
Q 2034 3584 2315 3537 
Q 2597 3491 2834 3397 
z
" id="DejaVuSans-73" transform="scale(0.015625)"/>
        <path d="M 1172 4494 
L 1172 3500 
L 2356 3500 
L 2356 3053 
L 1172 3053 
L 1172 1153 
Q 1172 725 1289 603 
Q 1406 481 1766 481 
L 2356 481 
L 2356 0 
L 1766 0 
Q 1100 0 847 248 
Q 594 497 594 1153 
L 594 3053 
L 172 3053 
L 172 3500 
L 594 3500 
L 594 4494 
L 1172 4494 
z
" id="DejaVuSans-74" transform="scale(0.015625)"/>
       </defs>
       <use xlink:href="#DejaVuSans-61"/>
       <use x="61.279297" xlink:href="#DejaVuSans-66"/>
       <use x="96.484375" xlink:href="#DejaVuSans-6c"/>
       <use x="124.267578" xlink:href="#DejaVuSans-66"/>
       <use x="159.472656" xlink:href="#DejaVuSans-61"/>
       <use x="220.751953" xlink:href="#DejaVuSans-73"/>
       <use x="272.851562" xlink:href="#DejaVuSans-74"/>
      </g>
     </g>
    </g>
    <g id="xtick_3">
     <g id="line2d_3">
      <g>
       <use style="stroke:#000000;stroke-width:0.8;" x="128.453438" xlink:href="#m7fe26c8c09" y="273.312"/>
      </g>
     </g>
     <g id="text_3">
      <!-- aflplusplus -->
      <g transform="translate(120.855 280.312)rotate(-270)scale(0.1 -0.1)">
       <defs>
        <path d="M 1159 525 
L 1159 -1331 
L 581 -1331 
L 581 3500 
L 1159 3500 
L 1159 2969 
Q 1341 3281 1617 3432 
Q 1894 3584 2278 3584 
Q 2916 3584 3314 3078 
Q 3713 2572 3713 1747 
Q 3713 922 3314 415 
Q 2916 -91 2278 -91 
Q 1894 -91 1617 61 
Q 1341 213 1159 525 
z
M 3116 1747 
Q 3116 2381 2855 2742 
Q 2594 3103 2138 3103 
Q 1681 3103 1420 2742 
Q 1159 2381 1159 1747 
Q 1159 1113 1420 752 
Q 1681 391 2138 391 
Q 2594 391 2855 752 
Q 3116 1113 3116 1747 
z
" id="DejaVuSans-70" transform="scale(0.015625)"/>
        <path d="M 544 1381 
L 544 3500 
L 1119 3500 
L 1119 1403 
Q 1119 906 1312 657 
Q 1506 409 1894 409 
Q 2359 409 2629 706 
Q 2900 1003 2900 1516 
L 2900 3500 
L 3475 3500 
L 3475 0 
L 2900 0 
L 2900 538 
Q 2691 219 2414 64 
Q 2138 -91 1772 -91 
Q 1169 -91 856 284 
Q 544 659 544 1381 
z
M 1991 3584 
L 1991 3584 
z
" id="DejaVuSans-75" transform="scale(0.015625)"/>
       </defs>
       <use xlink:href="#DejaVuSans-61"/>
       <use x="61.279297" xlink:href="#DejaVuSans-66"/>
       <use x="96.484375" xlink:href="#DejaVuSans-6c"/>
       <use x="124.267578" xlink:href="#DejaVuSans-70"/>
       <use x="187.744141" xlink:href="#DejaVuSans-6c"/>
       <use x="215.527344" xlink:href="#DejaVuSans-75"/>
       <use x="278.90625" xlink:href="#DejaVuSans-73"/>
       <use x="331.005859" xlink:href="#DejaVuSans-70"/>
       <use x="394.482422" xlink:href="#DejaVuSans-6c"/>
       <use x="422.265625" xlink:href="#DejaVuSans-75"/>
       <use x="485.644531" xlink:href="#DejaVuSans-73"/>
      </g>
     </g>
    </g>
    <g id="xtick_4">
     <g id="line2d_4">
      <g>
       <use style="stroke:#000000;stroke-width:0.8;" x="152.645437" xlink:href="#m7fe26c8c09" y="273.312"/>
      </g>
     </g>
     <g id="text_4">
      <!-- aflsmart -->
      <g transform="translate(145.047 280.312)rotate(-270)scale(0.1 -0.1)">
       <defs>
        <path d="M 3328 2828 
Q 3544 3216 3844 3400 
Q 4144 3584 4550 3584 
Q 5097 3584 5394 3201 
Q 5691 2819 5691 2113 
L 5691 0 
L 5113 0 
L 5113 2094 
Q 5113 2597 4934 2840 
Q 4756 3084 4391 3084 
Q 3944 3084 3684 2787 
Q 3425 2491 3425 1978 
L 3425 0 
L 2847 0 
L 2847 2094 
Q 2847 2600 2669 2842 
Q 2491 3084 2119 3084 
Q 1678 3084 1418 2786 
Q 1159 2488 1159 1978 
L 1159 0 
L 581 0 
L 581 3500 
L 1159 3500 
L 1159 2956 
Q 1356 3278 1631 3431 
Q 1906 3584 2284 3584 
Q 2666 3584 2933 3390 
Q 3200 3197 3328 2828 
z
" id="DejaVuSans-6d" transform="scale(0.015625)"/>
        <path d="M 2631 2963 
Q 2534 3019 2420 3045 
Q 2306 3072 2169 3072 
Q 1681 3072 1420 2755 
Q 1159 2438 1159 1844 
L 1159 0 
L 581 0 
L 581 3500 
L 1159 3500 
L 1159 2956 
Q 1341 3275 1631 3429 
Q 1922 3584 2338 3584 
Q 2397 3584 2469 3576 
Q 2541 3569 2628 3553 
L 2631 2963 
z
" id="DejaVuSans-72" transform="scale(0.015625)"/>
       </defs>
       <use xlink:href="#DejaVuSans-61"/>
       <use x="61.279297" xlink:href="#DejaVuSans-66"/>
       <use x="96.484375" xlink:href="#DejaVuSans-6c"/>
       <use x="124.267578" xlink:href="#DejaVuSans-73"/>
       <use x="176.367188" xlink:href="#DejaVuSans-6d"/>
       <use x="273.779297" xlink:href="#DejaVuSans-61"/>
       <use x="335.058594" xlink:href="#DejaVuSans-72"/>
       <use x="376.171875" xlink:href="#DejaVuSans-74"/>
      </g>
     </g>
    </g>
    <g id="xtick_5">
     <g id="line2d_5">
      <g>
       <use style="stroke:#000000;stroke-width:0.8;" x="176.837437" xlink:href="#m7fe26c8c09" y="273.312"/>
      </g>
     </g>
     <g id="text_5">
      <!-- eclipser -->
      <g transform="translate(169.239 280.312)rotate(-270)scale(0.1 -0.1)">
       <defs>
        <path d="M 3597 1894 
L 3597 1613 
L 953 1613 
Q 991 1019 1311 708 
Q 1631 397 2203 397 
Q 2534 397 2845 478 
Q 3156 559 3463 722 
L 3463 178 
Q 3153 47 2828 -22 
Q 2503 -91 2169 -91 
Q 1331 -91 842 396 
Q 353 884 353 1716 
Q 353 2575 817 3079 
Q 1281 3584 2069 3584 
Q 2775 3584 3186 3129 
Q 3597 2675 3597 1894 
z
M 3022 2063 
Q 3016 2534 2758 2815 
Q 2500 3097 2075 3097 
Q 1594 3097 1305 2825 
Q 1016 2553 972 2059 
L 3022 2063 
z
" id="DejaVuSans-65" transform="scale(0.015625)"/>
        <path d="M 3122 3366 
L 3122 2828 
Q 2878 2963 2633 3030 
Q 2388 3097 2138 3097 
Q 1578 3097 1268 2742 
Q 959 2388 959 1747 
Q 959 1106 1268 751 
Q 1578 397 2138 397 
Q 2388 397 2633 464 
Q 2878 531 3122 666 
L 3122 134 
Q 2881 22 2623 -34 
Q 2366 -91 2075 -91 
Q 1284 -91 818 406 
Q 353 903 353 1747 
Q 353 2603 823 3093 
Q 1294 3584 2113 3584 
Q 2378 3584 2631 3529 
Q 2884 3475 3122 3366 
z
" id="DejaVuSans-63" transform="scale(0.015625)"/>
        <path d="M 603 3500 
L 1178 3500 
L 1178 0 
L 603 0 
L 603 3500 
z
M 603 4863 
L 1178 4863 
L 1178 4134 
L 603 4134 
L 603 4863 
z
" id="DejaVuSans-69" transform="scale(0.015625)"/>
       </defs>
       <use xlink:href="#DejaVuSans-65"/>
       <use x="61.523438" xlink:href="#DejaVuSans-63"/>
       <use x="116.503906" xlink:href="#DejaVuSans-6c"/>
       <use x="144.287109" xlink:href="#DejaVuSans-69"/>
       <use x="172.070312" xlink:href="#DejaVuSans-70"/>
       <use x="235.546875" xlink:href="#DejaVuSans-73"/>
       <use x="287.646484" xlink:href="#DejaVuSans-65"/>
       <use x="349.169922" xlink:href="#DejaVuSans-72"/>
      </g>
     </g>
    </g>
    <g id="xtick_6">
     <g id="line2d_6">
      <g>
       <use style="stroke:#000000;stroke-width:0.8;" x="201.029437" xlink:href="#m7fe26c8c09" y="273.312"/>
      </g>
     </g>
     <g id="text_6">
      <!-- entropic -->
      <g transform="translate(193.431 280.312)rotate(-270)scale(0.1 -0.1)">
       <defs>
        <path d="M 3513 2113 
L 3513 0 
L 2938 0 
L 2938 2094 
Q 2938 2591 2744 2837 
Q 2550 3084 2163 3084 
Q 1697 3084 1428 2787 
Q 1159 2491 1159 1978 
L 1159 0 
L 581 0 
L 581 3500 
L 1159 3500 
L 1159 2956 
Q 1366 3272 1645 3428 
Q 1925 3584 2291 3584 
Q 2894 3584 3203 3211 
Q 3513 2838 3513 2113 
z
" id="DejaVuSans-6e" transform="scale(0.015625)"/>
        <path d="M 1959 3097 
Q 1497 3097 1228 2736 
Q 959 2375 959 1747 
Q 959 1119 1226 758 
Q 1494 397 1959 397 
Q 2419 397 2687 759 
Q 2956 1122 2956 1747 
Q 2956 2369 2687 2733 
Q 2419 3097 1959 3097 
z
M 1959 3584 
Q 2709 3584 3137 3096 
Q 3566 2609 3566 1747 
Q 3566 888 3137 398 
Q 2709 -91 1959 -91 
Q 1206 -91 779 398 
Q 353 888 353 1747 
Q 353 2609 779 3096 
Q 1206 3584 1959 3584 
z
" id="DejaVuSans-6f" transform="scale(0.015625)"/>
       </defs>
       <use xlink:href="#DejaVuSans-65"/>
       <use x="61.523438" xlink:href="#DejaVuSans-6e"/>
       <use x="124.902344" xlink:href="#DejaVuSans-74"/>
       <use x="164.111328" xlink:href="#DejaVuSans-72"/>
       <use x="202.974609" xlink:href="#DejaVuSans-6f"/>
       <use x="264.15625" xlink:href="#DejaVuSans-70"/>
       <use x="327.632812" xlink:href="#DejaVuSans-69"/>
       <use x="355.416016" xlink:href="#DejaVuSans-63"/>
      </g>
     </g>
    </g>
    <g id="xtick_7">
     <g id="line2d_7">
      <g>
       <use style="stroke:#000000;stroke-width:0.8;" x="225.221437" xlink:href="#m7fe26c8c09" y="273.312"/>
      </g>
     </g>
     <g id="text_7">
      <!-- fairfuzz -->
      <g transform="translate(217.623 280.312)rotate(-270)scale(0.1 -0.1)">
       <defs>
        <path d="M 353 3500 
L 3084 3500 
L 3084 2975 
L 922 459 
L 3084 459 
L 3084 0 
L 275 0 
L 275 525 
L 2438 3041 
L 353 3041 
L 353 3500 
z
" id="DejaVuSans-7a" transform="scale(0.015625)"/>
       </defs>
       <use xlink:href="#DejaVuSans-66"/>
       <use x="35.205078" xlink:href="#DejaVuSans-61"/>
       <use x="96.484375" xlink:href="#DejaVuSans-69"/>
       <use x="124.267578" xlink:href="#DejaVuSans-72"/>
       <use x="165.380859" xlink:href="#DejaVuSans-66"/>
       <use x="200.585938" xlink:href="#DejaVuSans-75"/>
       <use x="263.964844" xlink:href="#DejaVuSans-7a"/>
       <use x="316.455078" xlink:href="#DejaVuSans-7a"/>
      </g>
     </g>
    </g>
    <g id="xtick_8">
     <g id="line2d_8">
      <g>
       <use style="stroke:#000000;stroke-width:0.8;" x="249.413437" xlink:href="#m7fe26c8c09" y="273.312"/>
      </g>
     </g>
     <g id="text_8">
      <!-- honggfuzz -->
      <g transform="translate(241.815 280.312)rotate(-270)scale(0.1 -0.1)">
       <defs>
        <path d="M 3513 2113 
L 3513 0 
L 2938 0 
L 2938 2094 
Q 2938 2591 2744 2837 
Q 2550 3084 2163 3084 
Q 1697 3084 1428 2787 
Q 1159 2491 1159 1978 
L 1159 0 
L 581 0 
L 581 4863 
L 1159 4863 
L 1159 2956 
Q 1366 3272 1645 3428 
Q 1925 3584 2291 3584 
Q 2894 3584 3203 3211 
Q 3513 2838 3513 2113 
z
" id="DejaVuSans-68" transform="scale(0.015625)"/>
        <path d="M 2906 1791 
Q 2906 2416 2648 2759 
Q 2391 3103 1925 3103 
Q 1463 3103 1205 2759 
Q 947 2416 947 1791 
Q 947 1169 1205 825 
Q 1463 481 1925 481 
Q 2391 481 2648 825 
Q 2906 1169 2906 1791 
z
M 3481 434 
Q 3481 -459 3084 -895 
Q 2688 -1331 1869 -1331 
Q 1566 -1331 1297 -1286 
Q 1028 -1241 775 -1147 
L 775 -588 
Q 1028 -725 1275 -790 
Q 1522 -856 1778 -856 
Q 2344 -856 2625 -561 
Q 2906 -266 2906 331 
L 2906 616 
Q 2728 306 2450 153 
Q 2172 0 1784 0 
Q 1141 0 747 490 
Q 353 981 353 1791 
Q 353 2603 747 3093 
Q 1141 3584 1784 3584 
Q 2172 3584 2450 3431 
Q 2728 3278 2906 2969 
L 2906 3500 
L 3481 3500 
L 3481 434 
z
" id="DejaVuSans-67" transform="scale(0.015625)"/>
       </defs>
       <use xlink:href="#DejaVuSans-68"/>
       <use x="63.378906" xlink:href="#DejaVuSans-6f"/>
       <use x="124.560547" xlink:href="#DejaVuSans-6e"/>
       <use x="187.939453" xlink:href="#DejaVuSans-67"/>
       <use x="251.416016" xlink:href="#DejaVuSans-67"/>
       <use x="314.892578" xlink:href="#DejaVuSans-66"/>
       <use x="350.097656" xlink:href="#DejaVuSans-75"/>
       <use x="413.476562" xlink:href="#DejaVuSans-7a"/>
       <use x="465.966797" xlink:href="#DejaVuSans-7a"/>
      </g>
     </g>
    </g>
    <g id="xtick_9">
     <g id="line2d_9">
      <g>
       <use style="stroke:#000000;stroke-width:0.8;" x="273.605437" xlink:href="#m7fe26c8c09" y="273.312"/>
      </g>
     </g>
     <g id="text_9">
      <!-- lafintel -->
      <g transform="translate(266.007 280.312)rotate(-270)scale(0.1 -0.1)">
       <use xlink:href="#DejaVuSans-6c"/>
       <use x="27.783203" xlink:href="#DejaVuSans-61"/>
       <use x="89.0625" xlink:href="#DejaVuSans-66"/>
       <use x="124.267578" xlink:href="#DejaVuSans-69"/>
       <use x="152.050781" xlink:href="#DejaVuSans-6e"/>
       <use x="215.429688" xlink:href="#DejaVuSans-74"/>
       <use x="254.638672" xlink:href="#DejaVuSans-65"/>
       <use x="316.162109" xlink:href="#DejaVuSans-6c"/>
      </g>
     </g>
    </g>
    <g id="xtick_10">
     <g id="line2d_10">
      <g>
       <use style="stroke:#000000;stroke-width:0.8;" x="297.797437" xlink:href="#m7fe26c8c09" y="273.312"/>
      </g>
     </g>
     <g id="text_10">
      <!-- libfuzzer -->
      <g transform="translate(290.199 280.312)rotate(-270)scale(0.1 -0.1)">
       <defs>
        <path d="M 3116 1747 
Q 3116 2381 2855 2742 
Q 2594 3103 2138 3103 
Q 1681 3103 1420 2742 
Q 1159 2381 1159 1747 
Q 1159 1113 1420 752 
Q 1681 391 2138 391 
Q 2594 391 2855 752 
Q 3116 1113 3116 1747 
z
M 1159 2969 
Q 1341 3281 1617 3432 
Q 1894 3584 2278 3584 
Q 2916 3584 3314 3078 
Q 3713 2572 3713 1747 
Q 3713 922 3314 415 
Q 2916 -91 2278 -91 
Q 1894 -91 1617 61 
Q 1341 213 1159 525 
L 1159 0 
L 581 0 
L 581 4863 
L 1159 4863 
L 1159 2969 
z
" id="DejaVuSans-62" transform="scale(0.015625)"/>
       </defs>
       <use xlink:href="#DejaVuSans-6c"/>
       <use x="27.783203" xlink:href="#DejaVuSans-69"/>
       <use x="55.566406" xlink:href="#DejaVuSans-62"/>
       <use x="119.042969" xlink:href="#DejaVuSans-66"/>
       <use x="154.248047" xlink:href="#DejaVuSans-75"/>
       <use x="217.626953" xlink:href="#DejaVuSans-7a"/>
       <use x="270.117188" xlink:href="#DejaVuSans-7a"/>
       <use x="322.607422" xlink:href="#DejaVuSans-65"/>
       <use x="384.130859" xlink:href="#DejaVuSans-72"/>
      </g>
     </g>
    </g>
    <g id="xtick_11">
     <g id="line2d_11">
      <g>
       <use style="stroke:#000000;stroke-width:0.8;" x="321.989437" xlink:href="#m7fe26c8c09" y="273.312"/>
      </g>
     </g>
     <g id="text_11">
      <!-- mopt -->
      <g transform="translate(314.391 280.312)rotate(-270)scale(0.1 -0.1)">
       <use xlink:href="#DejaVuSans-6d"/>
       <use x="97.412109" xlink:href="#DejaVuSans-6f"/>
       <use x="158.59375" xlink:href="#DejaVuSans-70"/>
       <use x="222.070312" xlink:href="#DejaVuSans-74"/>
      </g>
     </g>
    </g>
   </g>
   <g id="matplotlib.axis_2">
    <g id="ytick_1">
     <g id="line2d_12">
      <defs>
       <path d="M 0 0 
L -3.5 0 
" id="m298b5dc65e" style="stroke:#000000;stroke-width:0.8;"/>
      </defs>
      <g>
       <use style="stroke:#000000;stroke-width:0.8;" x="67.973438" xlink:href="#m298b5dc65e" y="19.296"/>
      </g>
     </g>
     <g id="text_12">
      <!-- afl -->
      <g transform="translate(48.546875 23.095219)scale(0.1 -0.1)">
       <use xlink:href="#DejaVuSans-61"/>
       <use x="61.279297" xlink:href="#DejaVuSans-66"/>
       <use x="96.484375" xlink:href="#DejaVuSans-6c"/>
      </g>
     </g>
    </g>
    <g id="ytick_2">
     <g id="line2d_13">
      <g>
       <use style="stroke:#000000;stroke-width:0.8;" x="67.973438" xlink:href="#m298b5dc65e" y="43.488"/>
      </g>
     </g>
     <g id="text_13">
      <!-- aflfast -->
      <g transform="translate(29.76875 47.287219)scale(0.1 -0.1)">
       <use xlink:href="#DejaVuSans-61"/>
       <use x="61.279297" xlink:href="#DejaVuSans-66"/>
       <use x="96.484375" xlink:href="#DejaVuSans-6c"/>
       <use x="124.267578" xlink:href="#DejaVuSans-66"/>
       <use x="159.472656" xlink:href="#DejaVuSans-61"/>
       <use x="220.751953" xlink:href="#DejaVuSans-73"/>
       <use x="272.851562" xlink:href="#DejaVuSans-74"/>
      </g>
     </g>
    </g>
    <g id="ytick_3">
     <g id="line2d_14">
      <g>
       <use style="stroke:#000000;stroke-width:0.8;" x="67.973438" xlink:href="#m298b5dc65e" y="67.68"/>
      </g>
     </g>
     <g id="text_14">
      <!-- aflplusplus -->
      <g transform="translate(7.2 71.479219)scale(0.1 -0.1)">
       <use xlink:href="#DejaVuSans-61"/>
       <use x="61.279297" xlink:href="#DejaVuSans-66"/>
       <use x="96.484375" xlink:href="#DejaVuSans-6c"/>
       <use x="124.267578" xlink:href="#DejaVuSans-70"/>
       <use x="187.744141" xlink:href="#DejaVuSans-6c"/>
       <use x="215.527344" xlink:href="#DejaVuSans-75"/>
       <use x="278.90625" xlink:href="#DejaVuSans-73"/>
       <use x="331.005859" xlink:href="#DejaVuSans-70"/>
       <use x="394.482422" xlink:href="#DejaVuSans-6c"/>
       <use x="422.265625" xlink:href="#DejaVuSans-75"/>
       <use x="485.644531" xlink:href="#DejaVuSans-73"/>
      </g>
     </g>
    </g>
    <g id="ytick_4">
     <g id="line2d_15">
      <g>
       <use style="stroke:#000000;stroke-width:0.8;" x="67.973438" xlink:href="#m298b5dc65e" y="91.872"/>
      </g>
     </g>
     <g id="text_15">
      <!-- aflsmart -->
      <g transform="translate(19.4375 95.671219)scale(0.1 -0.1)">
       <use xlink:href="#DejaVuSans-61"/>
       <use x="61.279297" xlink:href="#DejaVuSans-66"/>
       <use x="96.484375" xlink:href="#DejaVuSans-6c"/>
       <use x="124.267578" xlink:href="#DejaVuSans-73"/>
       <use x="176.367188" xlink:href="#DejaVuSans-6d"/>
       <use x="273.779297" xlink:href="#DejaVuSans-61"/>
       <use x="335.058594" xlink:href="#DejaVuSans-72"/>
       <use x="376.171875" xlink:href="#DejaVuSans-74"/>
      </g>
     </g>
    </g>
    <g id="ytick_5">
     <g id="line2d_16">
      <g>
       <use style="stroke:#000000;stroke-width:0.8;" x="67.973438" xlink:href="#m298b5dc65e" y="116.064"/>
      </g>
     </g>
     <g id="text_16">
      <!-- eclipser -->
      <g transform="translate(21.94375 119.863219)scale(0.1 -0.1)">
       <use xlink:href="#DejaVuSans-65"/>
       <use x="61.523438" xlink:href="#DejaVuSans-63"/>
       <use x="116.503906" xlink:href="#DejaVuSans-6c"/>
       <use x="144.287109" xlink:href="#DejaVuSans-69"/>
       <use x="172.070312" xlink:href="#DejaVuSans-70"/>
       <use x="235.546875" xlink:href="#DejaVuSans-73"/>
       <use x="287.646484" xlink:href="#DejaVuSans-65"/>
       <use x="349.169922" xlink:href="#DejaVuSans-72"/>
      </g>
     </g>
    </g>
    <g id="ytick_6">
     <g id="line2d_17">
      <g>
       <use style="stroke:#000000;stroke-width:0.8;" x="67.973438" xlink:href="#m298b5dc65e" y="140.256"/>
      </g>
     </g>
     <g id="text_17">
      <!-- entropic -->
      <g transform="translate(19.932812 144.055219)scale(0.1 -0.1)">
       <use xlink:href="#DejaVuSans-65"/>
       <use x="61.523438" xlink:href="#DejaVuSans-6e"/>
       <use x="124.902344" xlink:href="#DejaVuSans-74"/>
       <use x="164.111328" xlink:href="#DejaVuSans-72"/>
       <use x="202.974609" xlink:href="#DejaVuSans-6f"/>
       <use x="264.15625" xlink:href="#DejaVuSans-70"/>
       <use x="327.632812" xlink:href="#DejaVuSans-69"/>
       <use x="355.416016" xlink:href="#DejaVuSans-63"/>
      </g>
     </g>
    </g>
    <g id="ytick_7">
     <g id="line2d_18">
      <g>
       <use style="stroke:#000000;stroke-width:0.8;" x="67.973438" xlink:href="#m298b5dc65e" y="164.448"/>
      </g>
     </g>
     <g id="text_18">
      <!-- fairfuzz -->
      <g transform="translate(24.08125 168.247219)scale(0.1 -0.1)">
       <use xlink:href="#DejaVuSans-66"/>
       <use x="35.205078" xlink:href="#DejaVuSans-61"/>
       <use x="96.484375" xlink:href="#DejaVuSans-69"/>
       <use x="124.267578" xlink:href="#DejaVuSans-72"/>
       <use x="165.380859" xlink:href="#DejaVuSans-66"/>
       <use x="200.585938" xlink:href="#DejaVuSans-75"/>
       <use x="263.964844" xlink:href="#DejaVuSans-7a"/>
       <use x="316.455078" xlink:href="#DejaVuSans-7a"/>
      </g>
     </g>
    </g>
    <g id="ytick_8">
     <g id="line2d_19">
      <g>
       <use style="stroke:#000000;stroke-width:0.8;" x="67.973438" xlink:href="#m298b5dc65e" y="188.64"/>
      </g>
     </g>
     <g id="text_19">
      <!-- honggfuzz -->
      <g transform="translate(9.128125 192.439219)scale(0.1 -0.1)">
       <use xlink:href="#DejaVuSans-68"/>
       <use x="63.378906" xlink:href="#DejaVuSans-6f"/>
       <use x="124.560547" xlink:href="#DejaVuSans-6e"/>
       <use x="187.939453" xlink:href="#DejaVuSans-67"/>
       <use x="251.416016" xlink:href="#DejaVuSans-67"/>
       <use x="314.892578" xlink:href="#DejaVuSans-66"/>
       <use x="350.097656" xlink:href="#DejaVuSans-75"/>
       <use x="413.476562" xlink:href="#DejaVuSans-7a"/>
       <use x="465.966797" xlink:href="#DejaVuSans-7a"/>
      </g>
     </g>
    </g>
    <g id="ytick_9">
     <g id="line2d_20">
      <g>
       <use style="stroke:#000000;stroke-width:0.8;" x="67.973438" xlink:href="#m298b5dc65e" y="212.832"/>
      </g>
     </g>
     <g id="text_20">
      <!-- lafintel -->
      <g transform="translate(26.579687 216.631219)scale(0.1 -0.1)">
       <use xlink:href="#DejaVuSans-6c"/>
       <use x="27.783203" xlink:href="#DejaVuSans-61"/>
       <use x="89.0625" xlink:href="#DejaVuSans-66"/>
       <use x="124.267578" xlink:href="#DejaVuSans-69"/>
       <use x="152.050781" xlink:href="#DejaVuSans-6e"/>
       <use x="215.429688" xlink:href="#DejaVuSans-74"/>
       <use x="254.638672" xlink:href="#DejaVuSans-65"/>
       <use x="316.162109" xlink:href="#DejaVuSans-6c"/>
      </g>
     </g>
    </g>
    <g id="ytick_10">
     <g id="line2d_21">
      <g>
       <use style="stroke:#000000;stroke-width:0.8;" x="67.973438" xlink:href="#m298b5dc65e" y="237.024"/>
      </g>
     </g>
     <g id="text_21">
      <!-- libfuzzer -->
      <g transform="translate(18.45 240.823219)scale(0.1 -0.1)">
       <use xlink:href="#DejaVuSans-6c"/>
       <use x="27.783203" xlink:href="#DejaVuSans-69"/>
       <use x="55.566406" xlink:href="#DejaVuSans-62"/>
       <use x="119.042969" xlink:href="#DejaVuSans-66"/>
       <use x="154.248047" xlink:href="#DejaVuSans-75"/>
       <use x="217.626953" xlink:href="#DejaVuSans-7a"/>
       <use x="270.117188" xlink:href="#DejaVuSans-7a"/>
       <use x="322.607422" xlink:href="#DejaVuSans-65"/>
       <use x="384.130859" xlink:href="#DejaVuSans-72"/>
      </g>
     </g>
    </g>
    <g id="ytick_11">
     <g id="line2d_22">
      <g>
       <use style="stroke:#000000;stroke-width:0.8;" x="67.973438" xlink:href="#m298b5dc65e" y="261.216"/>
      </g>
     </g>
     <g id="text_22">
      <!-- mopt -->
      <g transform="translate(34.845313 265.015219)scale(0.1 -0.1)">
       <use xlink:href="#DejaVuSans-6d"/>
       <use x="97.412109" xlink:href="#DejaVuSans-6f"/>
       <use x="158.59375" xlink:href="#DejaVuSans-70"/>
       <use x="222.070312" xlink:href="#DejaVuSans-74"/>
      </g>
     </g>
    </g>
   </g>
  </g>
  <g id="axes_2">
   <g id="patch_3">
    <path d="M 351.941438 204.192 
L 358.335037 204.192 
L 358.335037 76.32 
L 351.941438 76.32 
z
" style="fill:#ffffff;"/>
   </g>
   <g id="patch_4">
    <path clip-path="url(#p365047ef03)" d="M 351.941438 204.192 
L 351.941438 172.224 
L 351.941438 108.288 
L 351.941438 76.32 
L 358.335037 76.32 
L 358.335037 108.288 
L 358.335037 172.224 
L 358.335037 204.192 
L 358.335037 204.192 
z
" style="fill:#ffffff;stroke:#ffffff;stroke-linejoin:miter;stroke-width:0.01;"/>
   </g>
   <g id="QuadMesh_2">
    <path clip-path="url(#p365047ef03)" d="M 351.941438 204.192 
L 358.335037 204.192 
L 358.335037 172.224 
L 351.941438 172.224 
L 351.941438 204.192 
" style="fill:#005a32;"/>
    <path clip-path="url(#p365047ef03)" d="M 351.941438 172.224 
L 358.335037 172.224 
L 358.335037 140.256 
L 351.941438 140.256 
L 351.941438 172.224 
" style="fill:#238b45;"/>
    <path clip-path="url(#p365047ef03)" d="M 351.941438 140.256 
L 358.335037 140.256 
L 358.335037 108.288 
L 351.941438 108.288 
L 351.941438 140.256 
" style="fill:#a1d99b;"/>
    <path clip-path="url(#p365047ef03)" d="M 351.941438 108.288 
L 358.335037 108.288 
L 358.335037 76.32 
L 351.941438 76.32 
L 351.941438 108.288 
" style="fill:#fbd7d4;"/>
   </g>
   <g id="matplotlib.axis_3"/>
   <g id="matplotlib.axis_4">
    <g id="ytick_12">
     <g id="line2d_23"/>
     <g id="text_23">
      <!-- p &lt; 0.001 -->
      <g transform="translate(361.835037 192.007219)scale(0.1 -0.1)">
       <defs>
        <path id="DejaVuSans-20" transform="scale(0.015625)"/>
        <path d="M 4684 3150 
L 1459 2003 
L 4684 863 
L 4684 294 
L 678 1747 
L 678 2266 
L 4684 3719 
L 4684 3150 
z
" id="DejaVuSans-3c" transform="scale(0.015625)"/>
        <path d="M 2034 4250 
Q 1547 4250 1301 3770 
Q 1056 3291 1056 2328 
Q 1056 1369 1301 889 
Q 1547 409 2034 409 
Q 2525 409 2770 889 
Q 3016 1369 3016 2328 
Q 3016 3291 2770 3770 
Q 2525 4250 2034 4250 
z
M 2034 4750 
Q 2819 4750 3233 4129 
Q 3647 3509 3647 2328 
Q 3647 1150 3233 529 
Q 2819 -91 2034 -91 
Q 1250 -91 836 529 
Q 422 1150 422 2328 
Q 422 3509 836 4129 
Q 1250 4750 2034 4750 
z
" id="DejaVuSans-30" transform="scale(0.015625)"/>
        <path d="M 684 794 
L 1344 794 
L 1344 0 
L 684 0 
L 684 794 
z
" id="DejaVuSans-2e" transform="scale(0.015625)"/>
        <path d="M 794 531 
L 1825 531 
L 1825 4091 
L 703 3866 
L 703 4441 
L 1819 4666 
L 2450 4666 
L 2450 531 
L 3481 531 
L 3481 0 
L 794 0 
L 794 531 
z
" id="DejaVuSans-31" transform="scale(0.015625)"/>
       </defs>
       <use xlink:href="#DejaVuSans-70"/>
       <use x="63.476562" xlink:href="#DejaVuSans-20"/>
       <use x="95.263672" xlink:href="#DejaVuSans-3c"/>
       <use x="179.052734" xlink:href="#DejaVuSans-20"/>
       <use x="210.839844" xlink:href="#DejaVuSans-30"/>
       <use x="274.462891" xlink:href="#DejaVuSans-2e"/>
       <use x="306.25" xlink:href="#DejaVuSans-30"/>
       <use x="369.873047" xlink:href="#DejaVuSans-30"/>
       <use x="433.496094" xlink:href="#DejaVuSans-31"/>
      </g>
     </g>
    </g>
    <g id="ytick_13">
     <g id="line2d_24"/>
     <g id="text_24">
      <!-- p &lt; 0.01 -->
      <g transform="translate(361.835037 161.815219)scale(0.1 -0.1)">
       <use xlink:href="#DejaVuSans-70"/>
       <use x="63.476562" xlink:href="#DejaVuSans-20"/>
       <use x="95.263672" xlink:href="#DejaVuSans-3c"/>
       <use x="179.052734" xlink:href="#DejaVuSans-20"/>
       <use x="210.839844" xlink:href="#DejaVuSans-30"/>
       <use x="274.462891" xlink:href="#DejaVuSans-2e"/>
       <use x="306.25" xlink:href="#DejaVuSans-30"/>
       <use x="369.873047" xlink:href="#DejaVuSans-31"/>
      </g>
     </g>
    </g>
    <g id="ytick_14">
     <g id="line2d_25"/>
     <g id="text_25">
      <!-- p &lt; 0.05 -->
      <g transform="translate(361.835037 128.071219)scale(0.1 -0.1)">
       <defs>
        <path d="M 691 4666 
L 3169 4666 
L 3169 4134 
L 1269 4134 
L 1269 2991 
Q 1406 3038 1543 3061 
Q 1681 3084 1819 3084 
Q 2600 3084 3056 2656 
Q 3513 2228 3513 1497 
Q 3513 744 3044 326 
Q 2575 -91 1722 -91 
Q 1428 -91 1123 -41 
Q 819 9 494 109 
L 494 744 
Q 775 591 1075 516 
Q 1375 441 1709 441 
Q 2250 441 2565 725 
Q 2881 1009 2881 1497 
Q 2881 1984 2565 2268 
Q 2250 2553 1709 2553 
Q 1456 2553 1204 2497 
Q 953 2441 691 2322 
L 691 4666 
z
" id="DejaVuSans-35" transform="scale(0.015625)"/>
       </defs>
       <use xlink:href="#DejaVuSans-70"/>
       <use x="63.476562" xlink:href="#DejaVuSans-20"/>
       <use x="95.263672" xlink:href="#DejaVuSans-3c"/>
       <use x="179.052734" xlink:href="#DejaVuSans-20"/>
       <use x="210.839844" xlink:href="#DejaVuSans-30"/>
       <use x="274.462891" xlink:href="#DejaVuSans-2e"/>
       <use x="306.25" xlink:href="#DejaVuSans-30"/>
       <use x="369.873047" xlink:href="#DejaVuSans-35"/>
      </g>
     </g>
    </g>
    <g id="ytick_15">
     <g id="line2d_26"/>
     <g id="text_26">
      <!-- NS -->
      <g transform="translate(361.835037 96.944482)scale(0.1 -0.1)">
       <defs>
        <path d="M 628 4666 
L 1478 4666 
L 3547 763 
L 3547 4666 
L 4159 4666 
L 4159 0 
L 3309 0 
L 1241 3903 
L 1241 0 
L 628 0 
L 628 4666 
z
" id="DejaVuSans-4e" transform="scale(0.015625)"/>
        <path d="M 3425 4513 
L 3425 3897 
Q 3066 4069 2747 4153 
Q 2428 4238 2131 4238 
Q 1616 4238 1336 4038 
Q 1056 3838 1056 3469 
Q 1056 3159 1242 3001 
Q 1428 2844 1947 2747 
L 2328 2669 
Q 3034 2534 3370 2195 
Q 3706 1856 3706 1288 
Q 3706 609 3251 259 
Q 2797 -91 1919 -91 
Q 1588 -91 1214 -16 
Q 841 59 441 206 
L 441 856 
Q 825 641 1194 531 
Q 1563 422 1919 422 
Q 2459 422 2753 634 
Q 3047 847 3047 1241 
Q 3047 1584 2836 1778 
Q 2625 1972 2144 2069 
L 1759 2144 
Q 1053 2284 737 2584 
Q 422 2884 422 3419 
Q 422 4038 858 4394 
Q 1294 4750 2059 4750 
Q 2388 4750 2728 4690 
Q 3069 4631 3425 4513 
z
" id="DejaVuSans-53" transform="scale(0.015625)"/>
       </defs>
       <use xlink:href="#DejaVuSans-4e"/>
       <use x="74.804688" xlink:href="#DejaVuSans-53"/>
      </g>
     </g>
    </g>
   </g>
   <g id="LineCollection_1"/>
   <g id="patch_5">
    <path d="M 351.941438 204.192 
L 351.941438 172.224 
L 351.941438 108.288 
L 351.941438 76.32 
L 358.335037 76.32 
L 358.335037 108.288 
L 358.335037 172.224 
L 358.335037 204.192 
z
" style="fill:none;stroke:#808080;stroke-linecap:square;stroke-linejoin:miter;"/>
   </g>
  </g>
 </g>
 <defs>
  <clipPath id="pdbb05374ba">
   <rect height="266.112" width="266.112" x="67.973438" y="7.2"/>
  </clipPath>
  <clipPath id="p365047ef03">
   <rect height="127.872" width="6.3936" x="351.941438" y="76.32"/>
  </clipPath>
 </defs>
</svg>
