<?xml version="1.0" encoding="utf-8" standalone="no"?>
<!DOCTYPE svg PUBLIC "-//W3C//DTD SVG 1.1//EN"
  "http://www.w3.org/Graphics/SVG/1.1/DTD/svg11.dtd">
<!-- Created with matplotlib (https://matplotlib.org/) -->
<svg height="351.576471pt" version="1.1" viewBox="0 0 417.648125 351.576471" width="417.648125pt" xmlns="http://www.w3.org/2000/svg" xmlns:xlink="http://www.w3.org/1999/xlink">
 <metadata>
  <rdf:RDF xmlns:cc="http://creativecommons.org/ns#" xmlns:dc="http://purl.org/dc/elements/1.1/" xmlns:rdf="http://www.w3.org/1999/02/22-rdf-syntax-ns#">
   <cc:Work>
    <dc:type rdf:resource="http://purl.org/dc/dcmitype/StillImage"/>
    <dc:date>2020-10-23T20:49:49.987568</dc:date>
    <dc:format>image/svg+xml</dc:format>
    <dc:creator>
     <cc:Agent>
      <dc:title>Matplotlib v3.3.2, https://matplotlib.org/</dc:title>
     </cc:Agent>
    </dc:creator>
   </cc:Work>
  </rdf:RDF>
 </metadata>
 <defs>
  <style type="text/css">*{stroke-linecap:butt;stroke-linejoin:round;}</style>
 </defs>
 <g id="figure_1">
  <g id="patch_1">
   <path d="M 0 351.576471 
L 417.648125 351.576471 
L 417.648125 0 
L 0 0 
z
" style="fill:#ffffff;"/>
  </g>
  <g id="axes_1">
   <g id="patch_2">
    <path d="M 53.328125 288.430125 
L 410.448125 288.430125 
L 410.448125 22.318125 
L 53.328125 22.318125 
z
" style="fill:#ffffff;"/>
   </g>
   <g id="PolyCollection_1">
    <defs>
     <path d="M 113.381106 -75.242346 
L 112.315144 -75.242346 
L 112.223653 -77.685982 
L 112.120136 -80.129619 
L 112.003723 -82.573255 
L 111.873613 -85.016891 
L 111.729094 -87.460528 
L 111.56958 -89.904164 
L 111.394638 -92.3478 
L 111.204014 -94.791437 
L 110.997672 -97.235073 
L 110.775809 -99.678709 
L 110.538889 -102.122346 
L 110.287658 -104.565982 
L 110.023159 -107.009619 
L 109.74674 -109.453255 
L 109.460055 -111.896891 
L 109.165055 -114.340528 
L 108.863971 -116.784164 
L 108.55929 -119.2278 
L 108.253718 -121.671437 
L 107.950135 -124.115073 
L 107.651547 -126.558709 
L 107.361025 -129.002346 
L 107.081642 -131.445982 
L 106.816404 -133.889619 
L 106.568183 -136.333255 
L 106.339647 -138.776891 
L 106.133195 -141.220528 
L 105.950896 -143.664164 
L 105.794437 -146.1078 
L 105.665075 -148.551437 
L 105.563611 -150.995073 
L 105.490361 -153.438709 
L 105.445156 -155.882346 
L 105.427345 -158.325982 
L 105.435814 -160.769619 
L 105.469022 -163.213255 
L 105.525044 -165.656891 
L 105.601628 -168.100528 
L 105.696257 -170.544164 
L 105.806222 -172.9878 
L 105.928695 -175.431437 
L 106.060806 -177.875073 
L 106.199716 -180.318709 
L 106.342689 -182.762346 
L 106.487159 -185.205982 
L 106.630787 -187.649619 
L 106.771506 -190.093255 
L 106.907566 -192.536891 
L 107.037557 -194.980528 
L 107.160425 -197.424164 
L 107.275477 -199.8678 
L 107.382378 -202.311437 
L 107.481128 -204.755073 
L 107.572044 -207.198709 
L 107.655726 -209.642346 
L 107.733017 -212.085982 
L 107.804961 -214.529619 
L 107.872761 -216.973255 
L 107.937731 -219.416891 
L 108.001246 -221.860528 
L 108.064704 -224.304164 
L 108.129479 -226.7478 
L 108.196883 -229.191437 
L 108.268133 -231.635073 
L 108.344317 -234.078709 
L 108.426375 -236.522346 
L 108.515076 -238.965982 
L 108.611003 -241.409619 
L 108.714548 -243.853255 
L 108.825904 -246.296891 
L 108.94507 -248.740528 
L 109.071854 -251.184164 
L 109.205887 -253.6278 
L 109.346632 -256.071437 
L 109.493405 -258.515073 
L 109.645392 -260.958709 
L 109.801675 -263.402346 
L 109.961249 -265.845982 
L 110.123051 -268.289619 
L 110.285985 -270.733255 
L 110.448942 -273.176891 
L 110.610827 -275.620528 
L 110.770579 -278.064164 
L 110.927191 -280.5078 
L 111.079727 -282.951437 
L 111.22734 -285.395073 
L 111.369278 -287.838709 
L 111.504901 -290.282346 
L 111.633677 -292.725982 
L 111.755195 -295.169619 
L 111.869156 -297.613255 
L 111.975376 -300.056891 
L 112.073778 -302.500528 
L 112.164385 -304.944164 
L 112.247312 -307.3878 
L 112.322755 -309.831437 
L 112.390978 -312.275073 
L 112.452306 -314.718709 
L 112.507108 -317.162346 
L 113.189142 -317.162346 
L 113.189142 -317.162346 
L 113.243944 -314.718709 
L 113.305272 -312.275073 
L 113.373495 -309.831437 
L 113.448938 -307.3878 
L 113.531865 -304.944164 
L 113.622472 -302.500528 
L 113.720874 -300.056891 
L 113.827094 -297.613255 
L 113.941055 -295.169619 
L 114.062573 -292.725982 
L 114.191349 -290.282346 
L 114.326972 -287.838709 
L 114.46891 -285.395073 
L 114.616523 -282.951437 
L 114.769059 -280.5078 
L 114.925671 -278.064164 
L 115.085423 -275.620528 
L 115.247308 -273.176891 
L 115.410265 -270.733255 
L 115.573199 -268.289619 
L 115.735001 -265.845982 
L 115.894575 -263.402346 
L 116.050858 -260.958709 
L 116.202845 -258.515073 
L 116.349618 -256.071437 
L 116.490363 -253.6278 
L 116.624396 -251.184164 
L 116.75118 -248.740528 
L 116.870346 -246.296891 
L 116.981702 -243.853255 
L 117.085247 -241.409619 
L 117.181174 -238.965982 
L 117.269875 -236.522346 
L 117.351933 -234.078709 
L 117.428117 -231.635073 
L 117.499367 -229.191437 
L 117.566771 -226.7478 
L 117.631546 -224.304164 
L 117.695004 -221.860528 
L 117.758519 -219.416891 
L 117.823489 -216.973255 
L 117.891289 -214.529619 
L 117.963233 -212.085982 
L 118.040524 -209.642346 
L 118.124206 -207.198709 
L 118.215122 -204.755073 
L 118.313872 -202.311437 
L 118.420773 -199.8678 
L 118.535825 -197.424164 
L 118.658693 -194.980528 
L 118.788684 -192.536891 
L 118.924744 -190.093255 
L 119.065463 -187.649619 
L 119.209091 -185.205982 
L 119.353561 -182.762346 
L 119.496534 -180.318709 
L 119.635444 -177.875073 
L 119.767555 -175.431437 
L 119.890028 -172.9878 
L 119.999993 -170.544164 
L 120.094622 -168.100528 
L 120.171206 -165.656891 
L 120.227228 -163.213255 
L 120.260436 -160.769619 
L 120.268905 -158.325982 
L 120.251094 -155.882346 
L 120.205889 -153.438709 
L 120.132639 -150.995073 
L 120.031175 -148.551437 
L 119.901813 -146.1078 
L 119.745354 -143.664164 
L 119.563055 -141.220528 
L 119.356603 -138.776891 
L 119.128067 -136.333255 
L 118.879846 -133.889619 
L 118.614608 -131.445982 
L 118.335225 -129.002346 
L 118.044703 -126.558709 
L 117.746115 -124.115073 
L 117.442532 -121.671437 
L 117.13696 -119.2278 
L 116.832279 -116.784164 
L 116.531195 -114.340528 
L 116.236195 -111.896891 
L 115.94951 -109.453255 
L 115.673091 -107.009619 
L 115.408592 -104.565982 
L 115.157361 -102.122346 
L 114.920441 -99.678709 
L 114.698578 -97.235073 
L 114.492236 -94.791437 
L 114.301612 -92.3478 
L 114.12667 -89.904164 
L 113.967156 -87.460528 
L 113.822637 -85.016891 
L 113.692527 -82.573255 
L 113.576114 -80.129619 
L 113.472597 -77.685982 
L 113.381106 -75.242346 
z
" id="mda1abc12b6" style="stroke:#3f3f3f;stroke-width:1.5;"/>
    </defs>
    <g clip-path="url(#p20037f33ed)">
     <use style="fill:#c03d3e;stroke:#3f3f3f;stroke-width:1.5;" x="0" xlink:href="#mda1abc12b6" y="351.576471"/>
    </g>
   </g>
   <g id="PolyCollection_2">
    <defs>
     <path d="M 234.786246 -128.001739 
L 228.990004 -128.001739 
L 228.494828 -128.349277 
L 227.93558 -128.696816 
L 227.307849 -129.044354 
L 226.607598 -129.391893 
L 225.831295 -129.739431 
L 224.976049 -130.086969 
L 224.039745 -130.434508 
L 223.021175 -130.782046 
L 221.920155 -131.129585 
L 220.737633 -131.477123 
L 219.475775 -131.824661 
L 218.138023 -132.1722 
L 216.729126 -132.519738 
L 215.25514 -132.867277 
L 213.723389 -133.214815 
L 212.142394 -133.562353 
L 210.521758 -133.909892 
L 208.872021 -134.25743 
L 207.204482 -134.604969 
L 205.530991 -134.952507 
L 203.863719 -135.300045 
L 202.21491 -135.647584 
L 200.596628 -135.995122 
L 199.020507 -136.342661 
L 197.497503 -136.690199 
L 196.037669 -137.037738 
L 194.649953 -137.385276 
L 193.342036 -137.732814 
L 192.120195 -138.080353 
L 190.989224 -138.427891 
L 189.952395 -138.77543 
L 189.011461 -139.122968 
L 188.166711 -139.470506 
L 187.417067 -139.818045 
L 186.760216 -140.165583 
L 186.192774 -140.513122 
L 185.71048 -140.86066 
L 185.308396 -141.208198 
L 184.981127 -141.555737 
L 184.723031 -141.903275 
L 184.528431 -142.250814 
L 184.391802 -142.598352 
L 184.307944 -142.94589 
L 184.272125 -143.293429 
L 184.280201 -143.640967 
L 184.328697 -143.988506 
L 184.414868 -144.336044 
L 184.536715 -144.683582 
L 184.692991 -145.031121 
L 184.883166 -145.378659 
L 185.107379 -145.726198 
L 185.366376 -146.073736 
L 185.661422 -146.421275 
L 185.99422 -146.768813 
L 186.366811 -147.116351 
L 186.781478 -147.46389 
L 187.24065 -147.811428 
L 187.746805 -148.158967 
L 188.302379 -148.506505 
L 188.909677 -148.854043 
L 189.570788 -149.201582 
L 190.287511 -149.54912 
L 191.061274 -149.896659 
L 191.893072 -150.244197 
L 192.783396 -150.591735 
L 193.73218 -150.939274 
L 194.73875 -151.286812 
L 195.801779 -151.634351 
L 196.919254 -151.981889 
L 198.088459 -152.329427 
L 199.305957 -152.676966 
L 200.567607 -153.024504 
L 201.868577 -153.372043 
L 203.203388 -153.719581 
L 204.565968 -154.067119 
L 205.949729 -154.414658 
L 207.347652 -154.762196 
L 208.752395 -155.109735 
L 210.156407 -155.457273 
L 211.552056 -155.804812 
L 212.931756 -156.15235 
L 214.2881 -156.499888 
L 215.61399 -156.847427 
L 216.902761 -157.194965 
L 218.148286 -157.542504 
L 219.345083 -157.890042 
L 220.488387 -158.23758 
L 221.574214 -158.585119 
L 222.599404 -158.932657 
L 223.561638 -159.280196 
L 224.459437 -159.627734 
L 225.29214 -159.975272 
L 226.059866 -160.322811 
L 226.763457 -160.670349 
L 227.404413 -161.017888 
L 227.984808 -161.365426 
L 228.507209 -161.712964 
L 228.974585 -162.060503 
L 229.390217 -162.408041 
L 234.386033 -162.408041 
L 234.386033 -162.408041 
L 234.801665 -162.060503 
L 235.269041 -161.712964 
L 235.791442 -161.365426 
L 236.371837 -161.017888 
L 237.012793 -160.670349 
L 237.716384 -160.322811 
L 238.48411 -159.975272 
L 239.316813 -159.627734 
L 240.214612 -159.280196 
L 241.176846 -158.932657 
L 242.202036 -158.585119 
L 243.287863 -158.23758 
L 244.431167 -157.890042 
L 245.627964 -157.542504 
L 246.873489 -157.194965 
L 248.16226 -156.847427 
L 249.48815 -156.499888 
L 250.844494 -156.15235 
L 252.224194 -155.804812 
L 253.619843 -155.457273 
L 255.023855 -155.109735 
L 256.428598 -154.762196 
L 257.826521 -154.414658 
L 259.210282 -154.067119 
L 260.572862 -153.719581 
L 261.907673 -153.372043 
L 263.208643 -153.024504 
L 264.470293 -152.676966 
L 265.687791 -152.329427 
L 266.856996 -151.981889 
L 267.974471 -151.634351 
L 269.0375 -151.286812 
L 270.04407 -150.939274 
L 270.992854 -150.591735 
L 271.883178 -150.244197 
L 272.714976 -149.896659 
L 273.488739 -149.54912 
L 274.205462 -149.201582 
L 274.866573 -148.854043 
L 275.473871 -148.506505 
L 276.029445 -148.158967 
L 276.5356 -147.811428 
L 276.994772 -147.46389 
L 277.409439 -147.116351 
L 277.78203 -146.768813 
L 278.114828 -146.421275 
L 278.409874 -146.073736 
L 278.668871 -145.726198 
L 278.893084 -145.378659 
L 279.083259 -145.031121 
L 279.239535 -144.683582 
L 279.361382 -144.336044 
L 279.447553 -143.988506 
L 279.496049 -143.640967 
L 279.504125 -143.293429 
L 279.468306 -142.94589 
L 279.384448 -142.598352 
L 279.247819 -142.250814 
L 279.053219 -141.903275 
L 278.795123 -141.555737 
L 278.467854 -141.208198 
L 278.06577 -140.86066 
L 277.583476 -140.513122 
L 277.016034 -140.165583 
L 276.359183 -139.818045 
L 275.609539 -139.470506 
L 274.764789 -139.122968 
L 273.823855 -138.77543 
L 272.787026 -138.427891 
L 271.656055 -138.080353 
L 270.434214 -137.732814 
L 269.126297 -137.385276 
L 267.738581 -137.037738 
L 266.278747 -136.690199 
L 264.755743 -136.342661 
L 263.179622 -135.995122 
L 261.56134 -135.647584 
L 259.912531 -135.300045 
L 258.245259 -134.952507 
L 256.571768 -134.604969 
L 254.904229 -134.25743 
L 253.254492 -133.909892 
L 251.633856 -133.562353 
L 250.052861 -133.214815 
L 248.52111 -132.867277 
L 247.047124 -132.519738 
L 245.638227 -132.1722 
L 244.300475 -131.824661 
L 243.038617 -131.477123 
L 241.856095 -131.129585 
L 240.755075 -130.782046 
L 239.736505 -130.434508 
L 238.800201 -130.086969 
L 237.944955 -129.739431 
L 237.168652 -129.391893 
L 236.468401 -129.044354 
L 235.84067 -128.696816 
L 235.281422 -128.349277 
L 234.786246 -128.001739 
z
" id="m1e9204def7" style="stroke:#3f3f3f;stroke-width:1.5;"/>
    </defs>
    <g clip-path="url(#p20037f33ed)">
     <use style="fill:#3274a1;stroke:#3f3f3f;stroke-width:1.5;" x="0" xlink:href="#m1e9204def7" y="351.576471"/>
    </g>
   </g>
   <g id="PolyCollection_3">
    <defs>
     <path d="M 353.818245 -80.988741 
L 348.038005 -80.988741 
L 347.559353 -81.747282 
L 347.021923 -82.505822 
L 346.422383 -83.264363 
L 345.757922 -84.022903 
L 345.026388 -84.781444 
L 344.226436 -85.539984 
L 343.357666 -86.298525 
L 342.420762 -87.057065 
L 341.417615 -87.815606 
L 340.351426 -88.574146 
L 339.22679 -89.332687 
L 338.049751 -90.091227 
L 336.827821 -90.849768 
L 335.569961 -91.608308 
L 334.286523 -92.366849 
L 332.989148 -93.125389 
L 331.690621 -93.88393 
L 330.404685 -94.64247 
L 329.145808 -95.401011 
L 327.928926 -96.159551 
L 326.769149 -96.918092 
L 325.681445 -97.676632 
L 324.680316 -98.435173 
L 323.779465 -99.193713 
L 322.991472 -99.952254 
L 322.327487 -100.710794 
L 321.796949 -101.469335 
L 321.407341 -102.227875 
L 321.16399 -102.986416 
L 321.069922 -103.744956 
L 321.125767 -104.503497 
L 321.329728 -105.262037 
L 321.677613 -106.020578 
L 322.162925 -106.779118 
L 322.777007 -107.537659 
L 323.509247 -108.296199 
L 324.347318 -109.05474 
L 325.277468 -109.81328 
L 326.28483 -110.571821 
L 327.353756 -111.330361 
L 328.468155 -112.088902 
L 329.611841 -112.847442 
L 330.76886 -113.605983 
L 331.923804 -114.364523 
L 333.062101 -115.123064 
L 334.17027 -115.881604 
L 335.23614 -116.640145 
L 336.249029 -117.398685 
L 337.199882 -118.157226 
L 338.081361 -118.915766 
L 338.887899 -119.674307 
L 339.615708 -120.432847 
L 340.262749 -121.191388 
L 340.828673 -121.949928 
L 341.314715 -122.708469 
L 341.72358 -123.467009 
L 342.059293 -124.225549 
L 342.32703 -124.98409 
L 342.532945 -125.74263 
L 342.683975 -126.501171 
L 342.78765 -127.259711 
L 342.851898 -128.018252 
L 342.884847 -128.776792 
L 342.894646 -129.535333 
L 342.889282 -130.293873 
L 342.876425 -131.052414 
L 342.863273 -131.810954 
L 342.856425 -132.569495 
L 342.861775 -133.328035 
L 342.884424 -134.086576 
L 342.928611 -134.845116 
L 342.99768 -135.603657 
L 343.094056 -136.362197 
L 343.219253 -137.120738 
L 343.3739 -137.879278 
L 343.557791 -138.637819 
L 343.769945 -139.396359 
L 344.008687 -140.1549 
L 344.271742 -140.91344 
L 344.556335 -141.671981 
L 344.859297 -142.430521 
L 345.177174 -143.189062 
L 345.506336 -143.947602 
L 345.843081 -144.706143 
L 346.183734 -145.464683 
L 346.52473 -146.223224 
L 346.862699 -146.981764 
L 347.194526 -147.740305 
L 347.517408 -148.498845 
L 347.828888 -149.257386 
L 348.126882 -150.015926 
L 348.409694 -150.774467 
L 348.676014 -151.533007 
L 348.92491 -152.291548 
L 349.155806 -153.050088 
L 349.368462 -153.808629 
L 349.562934 -154.567169 
L 349.739545 -155.32571 
L 349.89884 -156.08425 
L 351.95741 -156.08425 
L 351.95741 -156.08425 
L 352.116705 -155.32571 
L 352.293316 -154.567169 
L 352.487788 -153.808629 
L 352.700444 -153.050088 
L 352.93134 -152.291548 
L 353.180236 -151.533007 
L 353.446556 -150.774467 
L 353.729368 -150.015926 
L 354.027362 -149.257386 
L 354.338842 -148.498845 
L 354.661724 -147.740305 
L 354.993551 -146.981764 
L 355.33152 -146.223224 
L 355.672516 -145.464683 
L 356.013169 -144.706143 
L 356.349914 -143.947602 
L 356.679076 -143.189062 
L 356.996953 -142.430521 
L 357.299915 -141.671981 
L 357.584508 -140.91344 
L 357.847563 -140.1549 
L 358.086305 -139.396359 
L 358.298459 -138.637819 
L 358.48235 -137.879278 
L 358.636997 -137.120738 
L 358.762194 -136.362197 
L 358.85857 -135.603657 
L 358.927639 -134.845116 
L 358.971826 -134.086576 
L 358.994475 -133.328035 
L 358.999825 -132.569495 
L 358.992977 -131.810954 
L 358.979825 -131.052414 
L 358.966968 -130.293873 
L 358.961604 -129.535333 
L 358.971403 -128.776792 
L 359.004352 -128.018252 
L 359.0686 -127.259711 
L 359.172275 -126.501171 
L 359.323305 -125.74263 
L 359.52922 -124.98409 
L 359.796957 -124.225549 
L 360.13267 -123.467009 
L 360.541535 -122.708469 
L 361.027577 -121.949928 
L 361.593501 -121.191388 
L 362.240542 -120.432847 
L 362.968351 -119.674307 
L 363.774889 -118.915766 
L 364.656368 -118.157226 
L 365.607221 -117.398685 
L 366.62011 -116.640145 
L 367.68598 -115.881604 
L 368.794149 -115.123064 
L 369.932446 -114.364523 
L 371.08739 -113.605983 
L 372.244409 -112.847442 
L 373.388095 -112.088902 
L 374.502494 -111.330361 
L 375.57142 -110.571821 
L 376.578782 -109.81328 
L 377.508932 -109.05474 
L 378.347003 -108.296199 
L 379.079243 -107.537659 
L 379.693325 -106.779118 
L 380.178637 -106.020578 
L 380.526522 -105.262037 
L 380.730483 -104.503497 
L 380.786328 -103.744956 
L 380.69226 -102.986416 
L 380.448909 -102.227875 
L 380.059301 -101.469335 
L 379.528763 -100.710794 
L 378.864778 -99.952254 
L 378.076785 -99.193713 
L 377.175934 -98.435173 
L 376.174805 -97.676632 
L 375.087101 -96.918092 
L 373.927324 -96.159551 
L 372.710442 -95.401011 
L 371.451565 -94.64247 
L 370.165629 -93.88393 
L 368.867102 -93.125389 
L 367.569727 -92.366849 
L 366.286289 -91.608308 
L 365.028429 -90.849768 
L 363.806499 -90.091227 
L 362.62946 -89.332687 
L 361.504824 -88.574146 
L 360.438635 -87.815606 
L 359.435488 -87.057065 
L 358.498584 -86.298525 
L 357.629814 -85.539984 
L 356.829862 -84.781444 
L 356.098328 -84.022903 
L 355.433867 -83.264363 
L 354.834327 -82.505822 
L 354.296897 -81.747282 
L 353.818245 -80.988741 
z
" id="mff30df549f" style="stroke:#3f3f3f;stroke-width:1.5;"/>
    </defs>
    <g clip-path="url(#p20037f33ed)">
     <use style="fill:#9fd495;stroke:#3f3f3f;stroke-width:1.5;" x="0" xlink:href="#mff30df549f" y="351.576471"/>
    </g>
   </g>
   <g id="matplotlib.axis_1">
    <g id="xtick_1">
     <g id="line2d_1">
      <defs>
       <path d="M 0 0 
L 0 3.5 
" id="m6e09fc1b1e" style="stroke:#000000;stroke-width:0.8;"/>
      </defs>
      <g>
       <use style="stroke:#000000;stroke-width:0.8;" x="112.848125" xlink:href="#m6e09fc1b1e" y="288.430125"/>
      </g>
     </g>
     <g id="text_1">
      <!-- kirenenko -->
      <g transform="translate(69.387921 326.501971)rotate(-30)scale(0.1 -0.1)">
       <defs>
        <path d="M 9.078125 75.984375 
L 18.109375 75.984375 
L 18.109375 31.109375 
L 44.921875 54.6875 
L 56.390625 54.6875 
L 27.390625 29.109375 
L 57.625 0 
L 45.90625 0 
L 18.109375 26.703125 
L 18.109375 0 
L 9.078125 0 
z
" id="DejaVuSans-107"/>
        <path d="M 9.421875 54.6875 
L 18.40625 54.6875 
L 18.40625 0 
L 9.421875 0 
z
M 9.421875 75.984375 
L 18.40625 75.984375 
L 18.40625 64.59375 
L 9.421875 64.59375 
z
" id="DejaVuSans-105"/>
        <path d="M 41.109375 46.296875 
Q 39.59375 47.171875 37.8125 47.578125 
Q 36.03125 48 33.890625 48 
Q 26.265625 48 22.1875 43.046875 
Q 18.109375 38.09375 18.109375 28.8125 
L 18.109375 0 
L 9.078125 0 
L 9.078125 54.6875 
L 18.109375 54.6875 
L 18.109375 46.1875 
Q 20.953125 51.171875 25.484375 53.578125 
Q 30.03125 56 36.53125 56 
Q 37.453125 56 38.578125 55.875 
Q 39.703125 55.765625 41.0625 55.515625 
z
" id="DejaVuSans-114"/>
        <path d="M 56.203125 29.59375 
L 56.203125 25.203125 
L 14.890625 25.203125 
Q 15.484375 15.921875 20.484375 11.0625 
Q 25.484375 6.203125 34.421875 6.203125 
Q 39.59375 6.203125 44.453125 7.46875 
Q 49.3125 8.734375 54.109375 11.28125 
L 54.109375 2.78125 
Q 49.265625 0.734375 44.1875 -0.34375 
Q 39.109375 -1.421875 33.890625 -1.421875 
Q 20.796875 -1.421875 13.15625 6.1875 
Q 5.515625 13.8125 5.515625 26.8125 
Q 5.515625 40.234375 12.765625 48.109375 
Q 20.015625 56 32.328125 56 
Q 43.359375 56 49.78125 48.890625 
Q 56.203125 41.796875 56.203125 29.59375 
z
M 47.21875 32.234375 
Q 47.125 39.59375 43.09375 43.984375 
Q 39.0625 48.390625 32.421875 48.390625 
Q 24.90625 48.390625 20.390625 44.140625 
Q 15.875 39.890625 15.1875 32.171875 
z
" id="DejaVuSans-101"/>
        <path d="M 54.890625 33.015625 
L 54.890625 0 
L 45.90625 0 
L 45.90625 32.71875 
Q 45.90625 40.484375 42.875 44.328125 
Q 39.84375 48.1875 33.796875 48.1875 
Q 26.515625 48.1875 22.3125 43.546875 
Q 18.109375 38.921875 18.109375 30.90625 
L 18.109375 0 
L 9.078125 0 
L 9.078125 54.6875 
L 18.109375 54.6875 
L 18.109375 46.1875 
Q 21.34375 51.125 25.703125 53.5625 
Q 30.078125 56 35.796875 56 
Q 45.21875 56 50.046875 50.171875 
Q 54.890625 44.34375 54.890625 33.015625 
z
" id="DejaVuSans-110"/>
        <path d="M 30.609375 48.390625 
Q 23.390625 48.390625 19.1875 42.75 
Q 14.984375 37.109375 14.984375 27.296875 
Q 14.984375 17.484375 19.15625 11.84375 
Q 23.34375 6.203125 30.609375 6.203125 
Q 37.796875 6.203125 41.984375 11.859375 
Q 46.1875 17.53125 46.1875 27.296875 
Q 46.1875 37.015625 41.984375 42.703125 
Q 37.796875 48.390625 30.609375 48.390625 
z
M 30.609375 56 
Q 42.328125 56 49.015625 48.375 
Q 55.71875 40.765625 55.71875 27.296875 
Q 55.71875 13.875 49.015625 6.21875 
Q 42.328125 -1.421875 30.609375 -1.421875 
Q 18.84375 -1.421875 12.171875 6.21875 
Q 5.515625 13.875 5.515625 27.296875 
Q 5.515625 40.765625 12.171875 48.375 
Q 18.84375 56 30.609375 56 
z
" id="DejaVuSans-111"/>
       </defs>
       <use xlink:href="#DejaVuSans-107"/>
       <use x="57.910156" xlink:href="#DejaVuSans-105"/>
       <use x="85.693359" xlink:href="#DejaVuSans-114"/>
       <use x="124.556641" xlink:href="#DejaVuSans-101"/>
       <use x="186.080078" xlink:href="#DejaVuSans-110"/>
       <use x="249.458984" xlink:href="#DejaVuSans-101"/>
       <use x="310.982422" xlink:href="#DejaVuSans-110"/>
       <use x="374.361328" xlink:href="#DejaVuSans-107"/>
       <use x="428.646484" xlink:href="#DejaVuSans-111"/>
      </g>
     </g>
    </g>
    <g id="xtick_2">
     <g id="line2d_2">
      <g>
       <use style="stroke:#000000;stroke-width:0.8;" x="231.888125" xlink:href="#m6e09fc1b1e" y="288.430125"/>
      </g>
     </g>
     <g id="text_2">
      <!-- aflplusplus -->
      <g transform="translate(184.279118 328.897284)rotate(-30)scale(0.1 -0.1)">
       <defs>
        <path d="M 34.28125 27.484375 
Q 23.390625 27.484375 19.1875 25 
Q 14.984375 22.515625 14.984375 16.5 
Q 14.984375 11.71875 18.140625 8.90625 
Q 21.296875 6.109375 26.703125 6.109375 
Q 34.1875 6.109375 38.703125 11.40625 
Q 43.21875 16.703125 43.21875 25.484375 
L 43.21875 27.484375 
z
M 52.203125 31.203125 
L 52.203125 0 
L 43.21875 0 
L 43.21875 8.296875 
Q 40.140625 3.328125 35.546875 0.953125 
Q 30.953125 -1.421875 24.3125 -1.421875 
Q 15.921875 -1.421875 10.953125 3.296875 
Q 6 8.015625 6 15.921875 
Q 6 25.140625 12.171875 29.828125 
Q 18.359375 34.515625 30.609375 34.515625 
L 43.21875 34.515625 
L 43.21875 35.40625 
Q 43.21875 41.609375 39.140625 45 
Q 35.0625 48.390625 27.6875 48.390625 
Q 23 48.390625 18.546875 47.265625 
Q 14.109375 46.140625 10.015625 43.890625 
L 10.015625 52.203125 
Q 14.9375 54.109375 19.578125 55.046875 
Q 24.21875 56 28.609375 56 
Q 40.484375 56 46.34375 49.84375 
Q 52.203125 43.703125 52.203125 31.203125 
z
" id="DejaVuSans-97"/>
        <path d="M 37.109375 75.984375 
L 37.109375 68.5 
L 28.515625 68.5 
Q 23.6875 68.5 21.796875 66.546875 
Q 19.921875 64.59375 19.921875 59.515625 
L 19.921875 54.6875 
L 34.71875 54.6875 
L 34.71875 47.703125 
L 19.921875 47.703125 
L 19.921875 0 
L 10.890625 0 
L 10.890625 47.703125 
L 2.296875 47.703125 
L 2.296875 54.6875 
L 10.890625 54.6875 
L 10.890625 58.5 
Q 10.890625 67.625 15.140625 71.796875 
Q 19.390625 75.984375 28.609375 75.984375 
z
" id="DejaVuSans-102"/>
        <path d="M 9.421875 75.984375 
L 18.40625 75.984375 
L 18.40625 0 
L 9.421875 0 
z
" id="DejaVuSans-108"/>
        <path d="M 18.109375 8.203125 
L 18.109375 -20.796875 
L 9.078125 -20.796875 
L 9.078125 54.6875 
L 18.109375 54.6875 
L 18.109375 46.390625 
Q 20.953125 51.265625 25.265625 53.625 
Q 29.59375 56 35.59375 56 
Q 45.5625 56 51.78125 48.09375 
Q 58.015625 40.1875 58.015625 27.296875 
Q 58.015625 14.40625 51.78125 6.484375 
Q 45.5625 -1.421875 35.59375 -1.421875 
Q 29.59375 -1.421875 25.265625 0.953125 
Q 20.953125 3.328125 18.109375 8.203125 
z
M 48.6875 27.296875 
Q 48.6875 37.203125 44.609375 42.84375 
Q 40.53125 48.484375 33.40625 48.484375 
Q 26.265625 48.484375 22.1875 42.84375 
Q 18.109375 37.203125 18.109375 27.296875 
Q 18.109375 17.390625 22.1875 11.75 
Q 26.265625 6.109375 33.40625 6.109375 
Q 40.53125 6.109375 44.609375 11.75 
Q 48.6875 17.390625 48.6875 27.296875 
z
" id="DejaVuSans-112"/>
        <path d="M 8.5 21.578125 
L 8.5 54.6875 
L 17.484375 54.6875 
L 17.484375 21.921875 
Q 17.484375 14.15625 20.5 10.265625 
Q 23.53125 6.390625 29.59375 6.390625 
Q 36.859375 6.390625 41.078125 11.03125 
Q 45.3125 15.671875 45.3125 23.6875 
L 45.3125 54.6875 
L 54.296875 54.6875 
L 54.296875 0 
L 45.3125 0 
L 45.3125 8.40625 
Q 42.046875 3.421875 37.71875 1 
Q 33.40625 -1.421875 27.6875 -1.421875 
Q 18.265625 -1.421875 13.375 4.4375 
Q 8.5 10.296875 8.5 21.578125 
z
M 31.109375 56 
z
" id="DejaVuSans-117"/>
        <path d="M 44.28125 53.078125 
L 44.28125 44.578125 
Q 40.484375 46.53125 36.375 47.5 
Q 32.28125 48.484375 27.875 48.484375 
Q 21.1875 48.484375 17.84375 46.4375 
Q 14.5 44.390625 14.5 40.28125 
Q 14.5 37.15625 16.890625 35.375 
Q 19.28125 33.59375 26.515625 31.984375 
L 29.59375 31.296875 
Q 39.15625 29.25 43.1875 25.515625 
Q 47.21875 21.78125 47.21875 15.09375 
Q 47.21875 7.46875 41.1875 3.015625 
Q 35.15625 -1.421875 24.609375 -1.421875 
Q 20.21875 -1.421875 15.453125 -0.5625 
Q 10.6875 0.296875 5.421875 2 
L 5.421875 11.28125 
Q 10.40625 8.6875 15.234375 7.390625 
Q 20.0625 6.109375 24.8125 6.109375 
Q 31.15625 6.109375 34.5625 8.28125 
Q 37.984375 10.453125 37.984375 14.40625 
Q 37.984375 18.0625 35.515625 20.015625 
Q 33.0625 21.96875 24.703125 23.78125 
L 21.578125 24.515625 
Q 13.234375 26.265625 9.515625 29.90625 
Q 5.8125 33.546875 5.8125 39.890625 
Q 5.8125 47.609375 11.28125 51.796875 
Q 16.75 56 26.8125 56 
Q 31.78125 56 36.171875 55.265625 
Q 40.578125 54.546875 44.28125 53.078125 
z
" id="DejaVuSans-115"/>
       </defs>
       <use xlink:href="#DejaVuSans-97"/>
       <use x="61.279297" xlink:href="#DejaVuSans-102"/>
       <use x="96.484375" xlink:href="#DejaVuSans-108"/>
       <use x="124.267578" xlink:href="#DejaVuSans-112"/>
       <use x="187.744141" xlink:href="#DejaVuSans-108"/>
       <use x="215.527344" xlink:href="#DejaVuSans-117"/>
       <use x="278.90625" xlink:href="#DejaVuSans-115"/>
       <use x="331.005859" xlink:href="#DejaVuSans-112"/>
       <use x="394.482422" xlink:href="#DejaVuSans-108"/>
       <use x="422.265625" xlink:href="#DejaVuSans-117"/>
       <use x="485.644531" xlink:href="#DejaVuSans-115"/>
      </g>
     </g>
    </g>
    <g id="xtick_3">
     <g id="line2d_3">
      <g>
       <use style="stroke:#000000;stroke-width:0.8;" x="350.928125" xlink:href="#m6e09fc1b1e" y="288.430125"/>
      </g>
     </g>
     <g id="text_3">
      <!-- honggfuzz -->
      <g transform="translate(304.988924 327.933221)rotate(-30)scale(0.1 -0.1)">
       <defs>
        <path d="M 54.890625 33.015625 
L 54.890625 0 
L 45.90625 0 
L 45.90625 32.71875 
Q 45.90625 40.484375 42.875 44.328125 
Q 39.84375 48.1875 33.796875 48.1875 
Q 26.515625 48.1875 22.3125 43.546875 
Q 18.109375 38.921875 18.109375 30.90625 
L 18.109375 0 
L 9.078125 0 
L 9.078125 75.984375 
L 18.109375 75.984375 
L 18.109375 46.1875 
Q 21.34375 51.125 25.703125 53.5625 
Q 30.078125 56 35.796875 56 
Q 45.21875 56 50.046875 50.171875 
Q 54.890625 44.34375 54.890625 33.015625 
z
" id="DejaVuSans-104"/>
        <path d="M 45.40625 27.984375 
Q 45.40625 37.75 41.375 43.109375 
Q 37.359375 48.484375 30.078125 48.484375 
Q 22.859375 48.484375 18.828125 43.109375 
Q 14.796875 37.75 14.796875 27.984375 
Q 14.796875 18.265625 18.828125 12.890625 
Q 22.859375 7.515625 30.078125 7.515625 
Q 37.359375 7.515625 41.375 12.890625 
Q 45.40625 18.265625 45.40625 27.984375 
z
M 54.390625 6.78125 
Q 54.390625 -7.171875 48.1875 -13.984375 
Q 42 -20.796875 29.203125 -20.796875 
Q 24.46875 -20.796875 20.265625 -20.09375 
Q 16.0625 -19.390625 12.109375 -17.921875 
L 12.109375 -9.1875 
Q 16.0625 -11.328125 19.921875 -12.34375 
Q 23.78125 -13.375 27.78125 -13.375 
Q 36.625 -13.375 41.015625 -8.765625 
Q 45.40625 -4.15625 45.40625 5.171875 
L 45.40625 9.625 
Q 42.625 4.78125 38.28125 2.390625 
Q 33.9375 0 27.875 0 
Q 17.828125 0 11.671875 7.65625 
Q 5.515625 15.328125 5.515625 27.984375 
Q 5.515625 40.671875 11.671875 48.328125 
Q 17.828125 56 27.875 56 
Q 33.9375 56 38.28125 53.609375 
Q 42.625 51.21875 45.40625 46.390625 
L 45.40625 54.6875 
L 54.390625 54.6875 
z
" id="DejaVuSans-103"/>
        <path d="M 5.515625 54.6875 
L 48.1875 54.6875 
L 48.1875 46.484375 
L 14.40625 7.171875 
L 48.1875 7.171875 
L 48.1875 0 
L 4.296875 0 
L 4.296875 8.203125 
L 38.09375 47.515625 
L 5.515625 47.515625 
z
" id="DejaVuSans-122"/>
       </defs>
       <use xlink:href="#DejaVuSans-104"/>
       <use x="63.378906" xlink:href="#DejaVuSans-111"/>
       <use x="124.560547" xlink:href="#DejaVuSans-110"/>
       <use x="187.939453" xlink:href="#DejaVuSans-103"/>
       <use x="251.416016" xlink:href="#DejaVuSans-103"/>
       <use x="314.892578" xlink:href="#DejaVuSans-102"/>
       <use x="350.097656" xlink:href="#DejaVuSans-117"/>
       <use x="413.476562" xlink:href="#DejaVuSans-122"/>
       <use x="465.966797" xlink:href="#DejaVuSans-122"/>
      </g>
     </g>
    </g>
    <g id="text_4">
     <!-- Fuzzer (highest median coverage on the left) -->
     <g transform="translate(119.270156 342.296783)scale(0.1 -0.1)">
      <defs>
       <path d="M 9.8125 72.90625 
L 51.703125 72.90625 
L 51.703125 64.59375 
L 19.671875 64.59375 
L 19.671875 43.109375 
L 48.578125 43.109375 
L 48.578125 34.8125 
L 19.671875 34.8125 
L 19.671875 0 
L 9.8125 0 
z
" id="DejaVuSans-70"/>
       <path id="DejaVuSans-32"/>
       <path d="M 31 75.875 
Q 24.46875 64.65625 21.28125 53.65625 
Q 18.109375 42.671875 18.109375 31.390625 
Q 18.109375 20.125 21.3125 9.0625 
Q 24.515625 -2 31 -13.1875 
L 23.1875 -13.1875 
Q 15.875 -1.703125 12.234375 9.375 
Q 8.59375 20.453125 8.59375 31.390625 
Q 8.59375 42.28125 12.203125 53.3125 
Q 15.828125 64.359375 23.1875 75.875 
z
" id="DejaVuSans-40"/>
       <path d="M 18.3125 70.21875 
L 18.3125 54.6875 
L 36.8125 54.6875 
L 36.8125 47.703125 
L 18.3125 47.703125 
L 18.3125 18.015625 
Q 18.3125 11.328125 20.140625 9.421875 
Q 21.96875 7.515625 27.59375 7.515625 
L 36.8125 7.515625 
L 36.8125 0 
L 27.59375 0 
Q 17.1875 0 13.234375 3.875 
Q 9.28125 7.765625 9.28125 18.015625 
L 9.28125 47.703125 
L 2.6875 47.703125 
L 2.6875 54.6875 
L 9.28125 54.6875 
L 9.28125 70.21875 
z
" id="DejaVuSans-116"/>
       <path d="M 52 44.1875 
Q 55.375 50.25 60.0625 53.125 
Q 64.75 56 71.09375 56 
Q 79.640625 56 84.28125 50.015625 
Q 88.921875 44.046875 88.921875 33.015625 
L 88.921875 0 
L 79.890625 0 
L 79.890625 32.71875 
Q 79.890625 40.578125 77.09375 44.375 
Q 74.3125 48.1875 68.609375 48.1875 
Q 61.625 48.1875 57.5625 43.546875 
Q 53.515625 38.921875 53.515625 30.90625 
L 53.515625 0 
L 44.484375 0 
L 44.484375 32.71875 
Q 44.484375 40.625 41.703125 44.40625 
Q 38.921875 48.1875 33.109375 48.1875 
Q 26.21875 48.1875 22.15625 43.53125 
Q 18.109375 38.875 18.109375 30.90625 
L 18.109375 0 
L 9.078125 0 
L 9.078125 54.6875 
L 18.109375 54.6875 
L 18.109375 46.1875 
Q 21.1875 51.21875 25.484375 53.609375 
Q 29.78125 56 35.6875 56 
Q 41.65625 56 45.828125 52.96875 
Q 50 49.953125 52 44.1875 
z
" id="DejaVuSans-109"/>
       <path d="M 45.40625 46.390625 
L 45.40625 75.984375 
L 54.390625 75.984375 
L 54.390625 0 
L 45.40625 0 
L 45.40625 8.203125 
Q 42.578125 3.328125 38.25 0.953125 
Q 33.9375 -1.421875 27.875 -1.421875 
Q 17.96875 -1.421875 11.734375 6.484375 
Q 5.515625 14.40625 5.515625 27.296875 
Q 5.515625 40.1875 11.734375 48.09375 
Q 17.96875 56 27.875 56 
Q 33.9375 56 38.25 53.625 
Q 42.578125 51.265625 45.40625 46.390625 
z
M 14.796875 27.296875 
Q 14.796875 17.390625 18.875 11.75 
Q 22.953125 6.109375 30.078125 6.109375 
Q 37.203125 6.109375 41.296875 11.75 
Q 45.40625 17.390625 45.40625 27.296875 
Q 45.40625 37.203125 41.296875 42.84375 
Q 37.203125 48.484375 30.078125 48.484375 
Q 22.953125 48.484375 18.875 42.84375 
Q 14.796875 37.203125 14.796875 27.296875 
z
" id="DejaVuSans-100"/>
       <path d="M 48.78125 52.59375 
L 48.78125 44.1875 
Q 44.96875 46.296875 41.140625 47.34375 
Q 37.3125 48.390625 33.40625 48.390625 
Q 24.65625 48.390625 19.8125 42.84375 
Q 14.984375 37.3125 14.984375 27.296875 
Q 14.984375 17.28125 19.8125 11.734375 
Q 24.65625 6.203125 33.40625 6.203125 
Q 37.3125 6.203125 41.140625 7.25 
Q 44.96875 8.296875 48.78125 10.40625 
L 48.78125 2.09375 
Q 45.015625 0.34375 40.984375 -0.53125 
Q 36.96875 -1.421875 32.421875 -1.421875 
Q 20.0625 -1.421875 12.78125 6.34375 
Q 5.515625 14.109375 5.515625 27.296875 
Q 5.515625 40.671875 12.859375 48.328125 
Q 20.21875 56 33.015625 56 
Q 37.15625 56 41.109375 55.140625 
Q 45.0625 54.296875 48.78125 52.59375 
z
" id="DejaVuSans-99"/>
       <path d="M 2.984375 54.6875 
L 12.5 54.6875 
L 29.59375 8.796875 
L 46.6875 54.6875 
L 56.203125 54.6875 
L 35.6875 0 
L 23.484375 0 
z
" id="DejaVuSans-118"/>
       <path d="M 8.015625 75.875 
L 15.828125 75.875 
Q 23.140625 64.359375 26.78125 53.3125 
Q 30.421875 42.28125 30.421875 31.390625 
Q 30.421875 20.453125 26.78125 9.375 
Q 23.140625 -1.703125 15.828125 -13.1875 
L 8.015625 -13.1875 
Q 14.5 -2 17.703125 9.0625 
Q 20.90625 20.125 20.90625 31.390625 
Q 20.90625 42.671875 17.703125 53.65625 
Q 14.5 64.65625 8.015625 75.875 
z
" id="DejaVuSans-41"/>
      </defs>
      <use xlink:href="#DejaVuSans-70"/>
      <use x="52.019531" xlink:href="#DejaVuSans-117"/>
      <use x="115.398438" xlink:href="#DejaVuSans-122"/>
      <use x="167.888672" xlink:href="#DejaVuSans-122"/>
      <use x="220.378906" xlink:href="#DejaVuSans-101"/>
      <use x="281.902344" xlink:href="#DejaVuSans-114"/>
      <use x="323.015625" xlink:href="#DejaVuSans-32"/>
      <use x="354.802734" xlink:href="#DejaVuSans-40"/>
      <use x="393.816406" xlink:href="#DejaVuSans-104"/>
      <use x="457.195312" xlink:href="#DejaVuSans-105"/>
      <use x="484.978516" xlink:href="#DejaVuSans-103"/>
      <use x="548.455078" xlink:href="#DejaVuSans-104"/>
      <use x="611.833984" xlink:href="#DejaVuSans-101"/>
      <use x="673.357422" xlink:href="#DejaVuSans-115"/>
      <use x="725.457031" xlink:href="#DejaVuSans-116"/>
      <use x="764.666016" xlink:href="#DejaVuSans-32"/>
      <use x="796.453125" xlink:href="#DejaVuSans-109"/>
      <use x="893.865234" xlink:href="#DejaVuSans-101"/>
      <use x="955.388672" xlink:href="#DejaVuSans-100"/>
      <use x="1018.865234" xlink:href="#DejaVuSans-105"/>
      <use x="1046.648438" xlink:href="#DejaVuSans-97"/>
      <use x="1107.927734" xlink:href="#DejaVuSans-110"/>
      <use x="1171.306641" xlink:href="#DejaVuSans-32"/>
      <use x="1203.09375" xlink:href="#DejaVuSans-99"/>
      <use x="1258.074219" xlink:href="#DejaVuSans-111"/>
      <use x="1319.255859" xlink:href="#DejaVuSans-118"/>
      <use x="1378.435547" xlink:href="#DejaVuSans-101"/>
      <use x="1439.958984" xlink:href="#DejaVuSans-114"/>
      <use x="1481.072266" xlink:href="#DejaVuSans-97"/>
      <use x="1542.351562" xlink:href="#DejaVuSans-103"/>
      <use x="1605.828125" xlink:href="#DejaVuSans-101"/>
      <use x="1667.351562" xlink:href="#DejaVuSans-32"/>
      <use x="1699.138672" xlink:href="#DejaVuSans-111"/>
      <use x="1760.320312" xlink:href="#DejaVuSans-110"/>
      <use x="1823.699219" xlink:href="#DejaVuSans-32"/>
      <use x="1855.486328" xlink:href="#DejaVuSans-116"/>
      <use x="1894.695312" xlink:href="#DejaVuSans-104"/>
      <use x="1958.074219" xlink:href="#DejaVuSans-101"/>
      <use x="2019.597656" xlink:href="#DejaVuSans-32"/>
      <use x="2051.384766" xlink:href="#DejaVuSans-108"/>
      <use x="2079.167969" xlink:href="#DejaVuSans-101"/>
      <use x="2140.691406" xlink:href="#DejaVuSans-102"/>
      <use x="2174.146484" xlink:href="#DejaVuSans-116"/>
      <use x="2213.355469" xlink:href="#DejaVuSans-41"/>
     </g>
    </g>
   </g>
   <g id="matplotlib.axis_2">
    <g id="ytick_1">
     <g id="line2d_4">
      <defs>
       <path d="M 0 0 
L -3.5 0 
" id="m8b912a606d" style="stroke:#000000;stroke-width:0.8;"/>
      </defs>
      <g>
       <use style="stroke:#000000;stroke-width:0.8;" x="53.328125" xlink:href="#m8b912a606d" y="288.24823"/>
      </g>
     </g>
     <g id="text_5">
      <!-- 1850 -->
      <g transform="translate(20.878125 292.047449)scale(0.1 -0.1)">
       <defs>
        <path d="M 12.40625 8.296875 
L 28.515625 8.296875 
L 28.515625 63.921875 
L 10.984375 60.40625 
L 10.984375 69.390625 
L 28.421875 72.90625 
L 38.28125 72.90625 
L 38.28125 8.296875 
L 54.390625 8.296875 
L 54.390625 0 
L 12.40625 0 
z
" id="DejaVuSans-49"/>
        <path d="M 31.78125 34.625 
Q 24.75 34.625 20.71875 30.859375 
Q 16.703125 27.09375 16.703125 20.515625 
Q 16.703125 13.921875 20.71875 10.15625 
Q 24.75 6.390625 31.78125 6.390625 
Q 38.8125 6.390625 42.859375 10.171875 
Q 46.921875 13.96875 46.921875 20.515625 
Q 46.921875 27.09375 42.890625 30.859375 
Q 38.875 34.625 31.78125 34.625 
z
M 21.921875 38.8125 
Q 15.578125 40.375 12.03125 44.71875 
Q 8.5 49.078125 8.5 55.328125 
Q 8.5 64.0625 14.71875 69.140625 
Q 20.953125 74.21875 31.78125 74.21875 
Q 42.671875 74.21875 48.875 69.140625 
Q 55.078125 64.0625 55.078125 55.328125 
Q 55.078125 49.078125 51.53125 44.71875 
Q 48 40.375 41.703125 38.8125 
Q 48.828125 37.15625 52.796875 32.3125 
Q 56.78125 27.484375 56.78125 20.515625 
Q 56.78125 9.90625 50.3125 4.234375 
Q 43.84375 -1.421875 31.78125 -1.421875 
Q 19.734375 -1.421875 13.25 4.234375 
Q 6.78125 9.90625 6.78125 20.515625 
Q 6.78125 27.484375 10.78125 32.3125 
Q 14.796875 37.15625 21.921875 38.8125 
z
M 18.3125 54.390625 
Q 18.3125 48.734375 21.84375 45.5625 
Q 25.390625 42.390625 31.78125 42.390625 
Q 38.140625 42.390625 41.71875 45.5625 
Q 45.3125 48.734375 45.3125 54.390625 
Q 45.3125 60.0625 41.71875 63.234375 
Q 38.140625 66.40625 31.78125 66.40625 
Q 25.390625 66.40625 21.84375 63.234375 
Q 18.3125 60.0625 18.3125 54.390625 
z
" id="DejaVuSans-56"/>
        <path d="M 10.796875 72.90625 
L 49.515625 72.90625 
L 49.515625 64.59375 
L 19.828125 64.59375 
L 19.828125 46.734375 
Q 21.96875 47.46875 24.109375 47.828125 
Q 26.265625 48.1875 28.421875 48.1875 
Q 40.625 48.1875 47.75 41.5 
Q 54.890625 34.8125 54.890625 23.390625 
Q 54.890625 11.625 47.5625 5.09375 
Q 40.234375 -1.421875 26.90625 -1.421875 
Q 22.3125 -1.421875 17.546875 -0.640625 
Q 12.796875 0.140625 7.71875 1.703125 
L 7.71875 11.625 
Q 12.109375 9.234375 16.796875 8.0625 
Q 21.484375 6.890625 26.703125 6.890625 
Q 35.15625 6.890625 40.078125 11.328125 
Q 45.015625 15.765625 45.015625 23.390625 
Q 45.015625 31 40.078125 35.4375 
Q 35.15625 39.890625 26.703125 39.890625 
Q 22.75 39.890625 18.8125 39.015625 
Q 14.890625 38.140625 10.796875 36.28125 
z
" id="DejaVuSans-53"/>
        <path d="M 31.78125 66.40625 
Q 24.171875 66.40625 20.328125 58.90625 
Q 16.5 51.421875 16.5 36.375 
Q 16.5 21.390625 20.328125 13.890625 
Q 24.171875 6.390625 31.78125 6.390625 
Q 39.453125 6.390625 43.28125 13.890625 
Q 47.125 21.390625 47.125 36.375 
Q 47.125 51.421875 43.28125 58.90625 
Q 39.453125 66.40625 31.78125 66.40625 
z
M 31.78125 74.21875 
Q 44.046875 74.21875 50.515625 64.515625 
Q 56.984375 54.828125 56.984375 36.375 
Q 56.984375 17.96875 50.515625 8.265625 
Q 44.046875 -1.421875 31.78125 -1.421875 
Q 19.53125 -1.421875 13.0625 8.265625 
Q 6.59375 17.96875 6.59375 36.375 
Q 6.59375 54.828125 13.0625 64.515625 
Q 19.53125 74.21875 31.78125 74.21875 
z
" id="DejaVuSans-48"/>
       </defs>
       <use xlink:href="#DejaVuSans-49"/>
       <use x="63.623047" xlink:href="#DejaVuSans-56"/>
       <use x="127.246094" xlink:href="#DejaVuSans-53"/>
       <use x="190.869141" xlink:href="#DejaVuSans-48"/>
      </g>
     </g>
    </g>
    <g id="ytick_2">
     <g id="line2d_5">
      <g>
       <use style="stroke:#000000;stroke-width:0.8;" x="53.328125" xlink:href="#m8b912a606d" y="241.461573"/>
      </g>
     </g>
     <g id="text_6">
      <!-- 1900 -->
      <g transform="translate(20.878125 245.260792)scale(0.1 -0.1)">
       <defs>
        <path d="M 10.984375 1.515625 
L 10.984375 10.5 
Q 14.703125 8.734375 18.5 7.8125 
Q 22.3125 6.890625 25.984375 6.890625 
Q 35.75 6.890625 40.890625 13.453125 
Q 46.046875 20.015625 46.78125 33.40625 
Q 43.953125 29.203125 39.59375 26.953125 
Q 35.25 24.703125 29.984375 24.703125 
Q 19.046875 24.703125 12.671875 31.3125 
Q 6.296875 37.9375 6.296875 49.421875 
Q 6.296875 60.640625 12.9375 67.421875 
Q 19.578125 74.21875 30.609375 74.21875 
Q 43.265625 74.21875 49.921875 64.515625 
Q 56.59375 54.828125 56.59375 36.375 
Q 56.59375 19.140625 48.40625 8.859375 
Q 40.234375 -1.421875 26.421875 -1.421875 
Q 22.703125 -1.421875 18.890625 -0.6875 
Q 15.09375 0.046875 10.984375 1.515625 
z
M 30.609375 32.421875 
Q 37.25 32.421875 41.125 36.953125 
Q 45.015625 41.5 45.015625 49.421875 
Q 45.015625 57.28125 41.125 61.84375 
Q 37.25 66.40625 30.609375 66.40625 
Q 23.96875 66.40625 20.09375 61.84375 
Q 16.21875 57.28125 16.21875 49.421875 
Q 16.21875 41.5 20.09375 36.953125 
Q 23.96875 32.421875 30.609375 32.421875 
z
" id="DejaVuSans-57"/>
       </defs>
       <use xlink:href="#DejaVuSans-49"/>
       <use x="63.623047" xlink:href="#DejaVuSans-57"/>
       <use x="127.246094" xlink:href="#DejaVuSans-48"/>
       <use x="190.869141" xlink:href="#DejaVuSans-48"/>
      </g>
     </g>
    </g>
    <g id="ytick_3">
     <g id="line2d_6">
      <g>
       <use style="stroke:#000000;stroke-width:0.8;" x="53.328125" xlink:href="#m8b912a606d" y="194.674917"/>
      </g>
     </g>
     <g id="text_7">
      <!-- 1950 -->
      <g transform="translate(20.878125 198.474135)scale(0.1 -0.1)">
       <use xlink:href="#DejaVuSans-49"/>
       <use x="63.623047" xlink:href="#DejaVuSans-57"/>
       <use x="127.246094" xlink:href="#DejaVuSans-53"/>
       <use x="190.869141" xlink:href="#DejaVuSans-48"/>
      </g>
     </g>
    </g>
    <g id="ytick_4">
     <g id="line2d_7">
      <g>
       <use style="stroke:#000000;stroke-width:0.8;" x="53.328125" xlink:href="#m8b912a606d" y="147.88826"/>
      </g>
     </g>
     <g id="text_8">
      <!-- 2000 -->
      <g transform="translate(20.878125 151.687479)scale(0.1 -0.1)">
       <defs>
        <path d="M 19.1875 8.296875 
L 53.609375 8.296875 
L 53.609375 0 
L 7.328125 0 
L 7.328125 8.296875 
Q 12.9375 14.109375 22.625 23.890625 
Q 32.328125 33.6875 34.8125 36.53125 
Q 39.546875 41.84375 41.421875 45.53125 
Q 43.3125 49.21875 43.3125 52.78125 
Q 43.3125 58.59375 39.234375 62.25 
Q 35.15625 65.921875 28.609375 65.921875 
Q 23.96875 65.921875 18.8125 64.3125 
Q 13.671875 62.703125 7.8125 59.421875 
L 7.8125 69.390625 
Q 13.765625 71.78125 18.9375 73 
Q 24.125 74.21875 28.421875 74.21875 
Q 39.75 74.21875 46.484375 68.546875 
Q 53.21875 62.890625 53.21875 53.421875 
Q 53.21875 48.921875 51.53125 44.890625 
Q 49.859375 40.875 45.40625 35.40625 
Q 44.1875 33.984375 37.640625 27.21875 
Q 31.109375 20.453125 19.1875 8.296875 
z
" id="DejaVuSans-50"/>
       </defs>
       <use xlink:href="#DejaVuSans-50"/>
       <use x="63.623047" xlink:href="#DejaVuSans-48"/>
       <use x="127.246094" xlink:href="#DejaVuSans-48"/>
       <use x="190.869141" xlink:href="#DejaVuSans-48"/>
      </g>
     </g>
    </g>
    <g id="ytick_5">
     <g id="line2d_8">
      <g>
       <use style="stroke:#000000;stroke-width:0.8;" x="53.328125" xlink:href="#m8b912a606d" y="101.101603"/>
      </g>
     </g>
     <g id="text_9">
      <!-- 2050 -->
      <g transform="translate(20.878125 104.900822)scale(0.1 -0.1)">
       <use xlink:href="#DejaVuSans-50"/>
       <use x="63.623047" xlink:href="#DejaVuSans-48"/>
       <use x="127.246094" xlink:href="#DejaVuSans-53"/>
       <use x="190.869141" xlink:href="#DejaVuSans-48"/>
      </g>
     </g>
    </g>
    <g id="ytick_6">
     <g id="line2d_9">
      <g>
       <use style="stroke:#000000;stroke-width:0.8;" x="53.328125" xlink:href="#m8b912a606d" y="54.314947"/>
      </g>
     </g>
     <g id="text_10">
      <!-- 2100 -->
      <g transform="translate(20.878125 58.114165)scale(0.1 -0.1)">
       <use xlink:href="#DejaVuSans-50"/>
       <use x="63.623047" xlink:href="#DejaVuSans-49"/>
       <use x="127.246094" xlink:href="#DejaVuSans-48"/>
       <use x="190.869141" xlink:href="#DejaVuSans-48"/>
      </g>
     </g>
    </g>
    <g id="text_11">
     <!-- Reached region coverage -->
     <g transform="translate(14.798438 219.136625)rotate(-90)scale(0.1 -0.1)">
      <defs>
       <path d="M 44.390625 34.1875 
Q 47.5625 33.109375 50.5625 29.59375 
Q 53.5625 26.078125 56.59375 19.921875 
L 66.609375 0 
L 56 0 
L 46.6875 18.703125 
Q 43.0625 26.03125 39.671875 28.421875 
Q 36.28125 30.8125 30.421875 30.8125 
L 19.671875 30.8125 
L 19.671875 0 
L 9.8125 0 
L 9.8125 72.90625 
L 32.078125 72.90625 
Q 44.578125 72.90625 50.734375 67.671875 
Q 56.890625 62.453125 56.890625 51.90625 
Q 56.890625 45.015625 53.6875 40.46875 
Q 50.484375 35.9375 44.390625 34.1875 
z
M 19.671875 64.796875 
L 19.671875 38.921875 
L 32.078125 38.921875 
Q 39.203125 38.921875 42.84375 42.21875 
Q 46.484375 45.515625 46.484375 51.90625 
Q 46.484375 58.296875 42.84375 61.546875 
Q 39.203125 64.796875 32.078125 64.796875 
z
" id="DejaVuSans-82"/>
      </defs>
      <use xlink:href="#DejaVuSans-82"/>
      <use x="64.982422" xlink:href="#DejaVuSans-101"/>
      <use x="126.505859" xlink:href="#DejaVuSans-97"/>
      <use x="187.785156" xlink:href="#DejaVuSans-99"/>
      <use x="242.765625" xlink:href="#DejaVuSans-104"/>
      <use x="306.144531" xlink:href="#DejaVuSans-101"/>
      <use x="367.667969" xlink:href="#DejaVuSans-100"/>
      <use x="431.144531" xlink:href="#DejaVuSans-32"/>
      <use x="462.931641" xlink:href="#DejaVuSans-114"/>
      <use x="501.794922" xlink:href="#DejaVuSans-101"/>
      <use x="563.318359" xlink:href="#DejaVuSans-103"/>
      <use x="626.794922" xlink:href="#DejaVuSans-105"/>
      <use x="654.578125" xlink:href="#DejaVuSans-111"/>
      <use x="715.759766" xlink:href="#DejaVuSans-110"/>
      <use x="779.138672" xlink:href="#DejaVuSans-32"/>
      <use x="810.925781" xlink:href="#DejaVuSans-99"/>
      <use x="865.90625" xlink:href="#DejaVuSans-111"/>
      <use x="927.087891" xlink:href="#DejaVuSans-118"/>
      <use x="986.267578" xlink:href="#DejaVuSans-101"/>
      <use x="1047.791016" xlink:href="#DejaVuSans-114"/>
      <use x="1088.904297" xlink:href="#DejaVuSans-97"/>
      <use x="1150.183594" xlink:href="#DejaVuSans-103"/>
      <use x="1213.660156" xlink:href="#DejaVuSans-101"/>
     </g>
    </g>
   </g>
   <g id="line2d_10">
    <path clip-path="url(#p20037f33ed)" d="M 112.848125 209.646647 
L 112.848125 101.101603 
" style="fill:none;stroke:#3f3f3f;stroke-linecap:square;stroke-width:1.5;"/>
   </g>
   <g id="line2d_11">
    <path clip-path="url(#p20037f33ed)" d="M 112.848125 194.674917 
L 112.848125 136.659462 
" style="fill:none;stroke:#3f3f3f;stroke-linecap:square;stroke-width:4.5;"/>
   </g>
   <g id="line2d_12">
    <path clip-path="url(#p20037f33ed)" d="M 231.888125 214.325312 
L 231.888125 198.417849 
" style="fill:none;stroke:#3f3f3f;stroke-linecap:square;stroke-width:1.5;"/>
   </g>
   <g id="line2d_13">
    <path clip-path="url(#p20037f33ed)" d="M 231.888125 211.518113 
L 231.888125 203.096515 
" style="fill:none;stroke:#3f3f3f;stroke-linecap:square;stroke-width:4.5;"/>
   </g>
   <g id="line2d_14">
    <path clip-path="url(#p20037f33ed)" d="M 350.928125 249.883171 
L 350.928125 244.268773 
" style="fill:none;stroke:#3f3f3f;stroke-linecap:square;stroke-width:1.5;"/>
   </g>
   <g id="line2d_15">
    <path clip-path="url(#p20037f33ed)" d="M 350.928125 248.947438 
L 350.928125 244.268773 
" style="fill:none;stroke:#3f3f3f;stroke-linecap:square;stroke-width:4.5;"/>
   </g>
   <g id="patch_3">
    <path d="M 53.328125 288.24823 
L 53.328125 54.314947 
" style="fill:none;stroke:#000000;stroke-linecap:square;stroke-linejoin:miter;stroke-width:0.8;"/>
   </g>
   <g id="patch_4">
    <path d="M 112.848125 288.430125 
L 350.928125 288.430125 
" style="fill:none;stroke:#000000;stroke-linecap:square;stroke-linejoin:miter;stroke-width:0.8;"/>
   </g>
   <g id="PathCollection_1">
    <defs>
     <path d="M 0 1.5 
C 0.397805 1.5 0.77937 1.341951 1.06066 1.06066 
C 1.341951 0.77937 1.5 0.397805 1.5 0 
C 1.5 -0.397805 1.341951 -0.77937 1.06066 -1.06066 
C 0.77937 -1.341951 0.397805 -1.5 0 -1.5 
C -0.397805 -1.5 -0.77937 -1.341951 -1.06066 -1.06066 
C -1.341951 -0.77937 -1.5 -0.397805 -1.5 0 
C -1.5 0.397805 -1.341951 0.77937 -1.06066 1.06066 
C -0.77937 1.341951 -0.397805 1.5 0 1.5 
z
" id="ma592d622c9" style="stroke:#3f3f3f;"/>
    </defs>
    <g clip-path="url(#p20037f33ed)">
     <use style="fill:#ffffff;stroke:#3f3f3f;" x="112.848125" xlink:href="#ma592d622c9" y="191.867717"/>
    </g>
   </g>
   <g id="PathCollection_2">
    <g clip-path="url(#p20037f33ed)">
     <use style="fill:#ffffff;stroke:#3f3f3f;" x="231.888125" xlink:href="#ma592d622c9" y="206.839447"/>
    </g>
   </g>
   <g id="PathCollection_3">
    <g clip-path="url(#p20037f33ed)">
     <use style="fill:#ffffff;stroke:#3f3f3f;" x="350.928125" xlink:href="#ma592d622c9" y="248.011705"/>
    </g>
   </g>
   <g id="text_12">
    <!-- libpng-1.2.56 (20m, 5 trials/fuzzer) -->
    <g transform="translate(127.1225 16.318125)scale(0.12 -0.12)">
     <defs>
      <path d="M 48.6875 27.296875 
Q 48.6875 37.203125 44.609375 42.84375 
Q 40.53125 48.484375 33.40625 48.484375 
Q 26.265625 48.484375 22.1875 42.84375 
Q 18.109375 37.203125 18.109375 27.296875 
Q 18.109375 17.390625 22.1875 11.75 
Q 26.265625 6.109375 33.40625 6.109375 
Q 40.53125 6.109375 44.609375 11.75 
Q 48.6875 17.390625 48.6875 27.296875 
z
M 18.109375 46.390625 
Q 20.953125 51.265625 25.265625 53.625 
Q 29.59375 56 35.59375 56 
Q 45.5625 56 51.78125 48.09375 
Q 58.015625 40.1875 58.015625 27.296875 
Q 58.015625 14.40625 51.78125 6.484375 
Q 45.5625 -1.421875 35.59375 -1.421875 
Q 29.59375 -1.421875 25.265625 0.953125 
Q 20.953125 3.328125 18.109375 8.203125 
L 18.109375 0 
L 9.078125 0 
L 9.078125 75.984375 
L 18.109375 75.984375 
z
" id="DejaVuSans-98"/>
      <path d="M 4.890625 31.390625 
L 31.203125 31.390625 
L 31.203125 23.390625 
L 4.890625 23.390625 
z
" id="DejaVuSans-45"/>
      <path d="M 10.6875 12.40625 
L 21 12.40625 
L 21 0 
L 10.6875 0 
z
" id="DejaVuSans-46"/>
      <path d="M 33.015625 40.375 
Q 26.375 40.375 22.484375 35.828125 
Q 18.609375 31.296875 18.609375 23.390625 
Q 18.609375 15.53125 22.484375 10.953125 
Q 26.375 6.390625 33.015625 6.390625 
Q 39.65625 6.390625 43.53125 10.953125 
Q 47.40625 15.53125 47.40625 23.390625 
Q 47.40625 31.296875 43.53125 35.828125 
Q 39.65625 40.375 33.015625 40.375 
z
M 52.59375 71.296875 
L 52.59375 62.3125 
Q 48.875 64.0625 45.09375 64.984375 
Q 41.3125 65.921875 37.59375 65.921875 
Q 27.828125 65.921875 22.671875 59.328125 
Q 17.53125 52.734375 16.796875 39.40625 
Q 19.671875 43.65625 24.015625 45.921875 
Q 28.375 48.1875 33.59375 48.1875 
Q 44.578125 48.1875 50.953125 41.515625 
Q 57.328125 34.859375 57.328125 23.390625 
Q 57.328125 12.15625 50.6875 5.359375 
Q 44.046875 -1.421875 33.015625 -1.421875 
Q 20.359375 -1.421875 13.671875 8.265625 
Q 6.984375 17.96875 6.984375 36.375 
Q 6.984375 53.65625 15.1875 63.9375 
Q 23.390625 74.21875 37.203125 74.21875 
Q 40.921875 74.21875 44.703125 73.484375 
Q 48.484375 72.75 52.59375 71.296875 
z
" id="DejaVuSans-54"/>
      <path d="M 11.71875 12.40625 
L 22.015625 12.40625 
L 22.015625 4 
L 14.015625 -11.625 
L 7.71875 -11.625 
L 11.71875 4 
z
" id="DejaVuSans-44"/>
      <path d="M 25.390625 72.90625 
L 33.6875 72.90625 
L 8.296875 -9.28125 
L 0 -9.28125 
z
" id="DejaVuSans-47"/>
     </defs>
     <use xlink:href="#DejaVuSans-108"/>
     <use x="27.783203" xlink:href="#DejaVuSans-105"/>
     <use x="55.566406" xlink:href="#DejaVuSans-98"/>
     <use x="119.042969" xlink:href="#DejaVuSans-112"/>
     <use x="182.519531" xlink:href="#DejaVuSans-110"/>
     <use x="245.898438" xlink:href="#DejaVuSans-103"/>
     <use x="309.375" xlink:href="#DejaVuSans-45"/>
     <use x="345.458984" xlink:href="#DejaVuSans-49"/>
     <use x="409.082031" xlink:href="#DejaVuSans-46"/>
     <use x="440.869141" xlink:href="#DejaVuSans-50"/>
     <use x="504.492188" xlink:href="#DejaVuSans-46"/>
     <use x="536.279297" xlink:href="#DejaVuSans-53"/>
     <use x="599.902344" xlink:href="#DejaVuSans-54"/>
     <use x="663.525391" xlink:href="#DejaVuSans-32"/>
     <use x="695.3125" xlink:href="#DejaVuSans-40"/>
     <use x="734.326172" xlink:href="#DejaVuSans-50"/>
     <use x="797.949219" xlink:href="#DejaVuSans-48"/>
     <use x="861.572266" xlink:href="#DejaVuSans-109"/>
     <use x="958.984375" xlink:href="#DejaVuSans-44"/>
     <use x="990.771484" xlink:href="#DejaVuSans-32"/>
     <use x="1022.558594" xlink:href="#DejaVuSans-53"/>
     <use x="1086.181641" xlink:href="#DejaVuSans-32"/>
     <use x="1117.96875" xlink:href="#DejaVuSans-116"/>
     <use x="1157.177734" xlink:href="#DejaVuSans-114"/>
     <use x="1198.291016" xlink:href="#DejaVuSans-105"/>
     <use x="1226.074219" xlink:href="#DejaVuSans-97"/>
     <use x="1287.353516" xlink:href="#DejaVuSans-108"/>
     <use x="1315.136719" xlink:href="#DejaVuSans-115"/>
     <use x="1367.236328" xlink:href="#DejaVuSans-47"/>
     <use x="1400.927734" xlink:href="#DejaVuSans-102"/>
     <use x="1436.132812" xlink:href="#DejaVuSans-117"/>
     <use x="1499.511719" xlink:href="#DejaVuSans-122"/>
     <use x="1552.001953" xlink:href="#DejaVuSans-122"/>
     <use x="1604.492188" xlink:href="#DejaVuSans-101"/>
     <use x="1666.015625" xlink:href="#DejaVuSans-114"/>
     <use x="1707.128906" xlink:href="#DejaVuSans-41"/>
    </g>
   </g>
  </g>
 </g>
 <defs>
  <clipPath id="p20037f33ed">
   <rect height="266.112" width="357.12" x="53.328125" y="22.318125"/>
  </clipPath>
 </defs>
</svg>
