<?xml version="1.0" encoding="utf-8" standalone="no"?>
<!DOCTYPE svg PUBLIC "-//W3C//DTD SVG 1.1//EN"
  "http://www.w3.org/Graphics/SVG/1.1/DTD/svg11.dtd">
<!-- Created with matplotlib (https://matplotlib.org/) -->
<svg height="325.986375pt" version="1.1" viewBox="0 0 867.857187 325.986375" width="867.857187pt" xmlns="http://www.w3.org/2000/svg" xmlns:xlink="http://www.w3.org/1999/xlink">
 <metadata>
  <rdf:RDF xmlns:cc="http://creativecommons.org/ns#" xmlns:dc="http://purl.org/dc/elements/1.1/" xmlns:rdf="http://www.w3.org/1999/02/22-rdf-syntax-ns#">
   <cc:Work>
    <dc:type rdf:resource="http://purl.org/dc/dcmitype/StillImage"/>
    <dc:date>2021-02-28T19:27:17.348153</dc:date>
    <dc:format>image/svg+xml</dc:format>
    <dc:creator>
     <cc:Agent>
      <dc:title>Matplotlib v3.3.3, https://matplotlib.org/</dc:title>
     </cc:Agent>
    </dc:creator>
   </cc:Work>
  </rdf:RDF>
 </metadata>
 <defs>
  <style type="text/css">*{stroke-linecap:butt;stroke-linejoin:round;}</style>
 </defs>
 <g id="figure_1">
  <g id="patch_1">
   <path d="M 0 325.986375 
L 867.857188 325.986375 
L 867.857188 0 
L 0 0 
z
" style="fill:#ffffff;"/>
  </g>
  <g id="axes_1">
   <g id="patch_2">
    <path d="M 53.328125 288.430125 
L 767.568125 288.430125 
L 767.568125 22.318125 
L 53.328125 22.318125 
z
" style="fill:#ffffff;"/>
   </g>
   <g id="PolyCollection_1">
    <defs>
     <path d="M 85.79358 -60.356675 
L 85.79358 -49.65225 
L 184.398407 -106.118091 
L 242.078533 -159.907825 
L 283.003234 -169.274197 
L 314.746899 -173.555967 
L 340.683361 -176.499684 
L 362.612327 -181.584285 
L 381.608062 -192.823931 
L 398.363487 -193.091542 
L 413.351726 -193.626763 
L 426.910237 -194.161985 
L 439.288188 -194.429595 
L 450.674799 -199.246586 
L 461.217155 -199.781808 
L 471.031852 -200.317029 
L 480.212889 -201.387471 
L 488.837148 -203.795967 
L 496.968315 -203.795967 
L 504.659739 -203.795967 
L 511.956553 -204.331188 
L 518.897281 -204.331188 
L 525.515065 -204.866409 
L 531.838626 -204.866409 
L 537.893016 -205.669241 
L 543.700218 -205.669241 
L 549.279627 -205.669241 
L 554.648441 -205.936852 
L 559.821982 -205.936852 
L 564.813957 -205.936852 
L 569.63668 -211.289064 
L 574.301252 -211.556675 
L 578.817717 -211.556675 
L 583.195191 -212.091896 
L 587.441975 -212.091896 
L 591.565646 -212.091896 
L 595.573142 -212.091896 
L 599.47083 -212.091896 
L 603.264566 -212.091896 
L 606.959753 -212.091896 
L 610.561381 -212.091896 
L 614.07407 -212.091896 
L 617.502108 -212.091896 
L 620.849479 -212.091896 
L 624.119892 -212.091896 
L 627.316806 -212.359507 
L 630.443453 -212.894728 
L 633.502855 -212.894728 
L 636.497843 -212.894728 
L 639.431075 -212.894728 
L 642.305045 -213.162338 
L 645.122101 -213.162338 
L 647.884454 -215.035613 
L 650.594187 -215.035613 
L 653.253268 -215.035613 
L 655.863556 -215.035613 
L 658.426809 -215.035613 
L 660.944693 -215.035613 
L 663.418785 -215.035613 
L 665.850582 -215.035613 
L 668.241507 -215.035613 
L 670.592911 -215.035613 
L 672.906079 -215.570834 
L 675.182235 -215.570834 
L 677.422544 -216.106055 
L 679.628118 -216.106055 
L 681.800019 -216.106055 
L 683.939257 -216.373666 
L 686.046802 -216.373666 
L 688.123579 -216.373666 
L 690.170474 -216.373666 
L 692.188333 -216.373666 
L 694.177969 -216.373666 
L 696.140162 -216.373666 
L 698.075657 -216.908887 
L 699.985172 -216.908887 
L 701.869394 -216.908887 
L 703.728985 -217.711719 
L 705.564581 -217.711719 
L 707.376792 -217.711719 
L 709.166208 -217.711719 
L 710.933395 -217.711719 
L 712.678898 -217.711719 
L 714.403242 -217.711719 
L 716.106936 -218.24694 
L 717.790467 -218.24694 
L 719.454307 -218.24694 
L 721.098911 -218.24694 
L 722.724719 -218.24694 
L 724.332157 -218.24694 
L 725.921634 -218.514551 
L 727.493547 -218.514551 
L 729.04828 -222.796321 
L 730.586206 -222.796321 
L 732.107682 -222.796321 
L 733.613058 -222.796321 
L 735.10267 -222.796321 
L 735.10267 -266.952073 
L 735.10267 -266.952073 
L 733.613058 -266.684462 
L 732.107682 -266.684462 
L 730.586206 -266.684462 
L 729.04828 -266.684462 
L 727.493547 -266.684462 
L 725.921634 -266.684462 
L 724.332157 -266.684462 
L 722.724719 -266.684462 
L 721.098911 -266.684462 
L 719.454307 -266.684462 
L 717.790467 -266.684462 
L 716.106936 -266.684462 
L 714.403242 -266.684462 
L 712.678898 -266.684462 
L 710.933395 -266.684462 
L 709.166208 -266.684462 
L 707.376792 -266.416852 
L 705.564581 -266.416852 
L 703.728985 -266.416852 
L 701.869394 -266.416852 
L 699.985172 -266.416852 
L 698.075657 -266.416852 
L 696.140162 -266.416852 
L 694.177969 -266.416852 
L 692.188333 -266.149241 
L 690.170474 -265.346409 
L 688.123579 -263.205524 
L 686.046802 -263.205524 
L 683.939257 -263.205524 
L 681.800019 -263.205524 
L 679.628118 -263.205524 
L 677.422544 -263.205524 
L 675.182235 -263.205524 
L 672.906079 -258.923754 
L 670.592911 -258.923754 
L 668.241507 -258.923754 
L 665.850582 -258.923754 
L 663.418785 -258.923754 
L 660.944693 -258.923754 
L 658.426809 -258.923754 
L 655.863556 -258.923754 
L 653.253268 -258.923754 
L 650.594187 -258.923754 
L 647.884454 -258.923754 
L 645.122101 -258.923754 
L 642.305045 -258.656144 
L 639.431075 -258.656144 
L 636.497843 -258.656144 
L 633.502855 -258.388533 
L 630.443453 -258.388533 
L 627.316806 -258.388533 
L 624.119892 -257.853312 
L 620.849479 -257.853312 
L 617.502108 -257.853312 
L 614.07407 -257.585701 
L 610.561381 -257.585701 
L 606.959753 -257.585701 
L 603.264566 -257.585701 
L 599.47083 -257.585701 
L 595.573142 -254.374374 
L 591.565646 -254.374374 
L 587.441975 -254.374374 
L 583.195191 -254.106763 
L 578.817717 -254.106763 
L 574.301252 -253.036321 
L 569.63668 -252.5011 
L 564.813957 -252.233489 
L 559.821982 -251.698268 
L 554.648441 -251.698268 
L 549.279627 -251.698268 
L 543.700218 -251.698268 
L 537.893016 -251.698268 
L 531.838626 -251.430657 
L 525.515065 -251.163046 
L 518.897281 -250.627825 
L 511.956553 -250.092604 
L 504.659739 -250.092604 
L 496.968315 -249.289772 
L 488.837148 -249.289772 
L 480.212889 -248.21933 
L 471.031852 -245.275613 
L 461.217155 -243.93756 
L 450.674799 -243.402338 
L 439.288188 -242.599507 
L 426.910237 -242.599507 
L 413.351726 -242.599507 
L 398.363487 -234.303577 
L 381.608062 -232.697914 
L 362.612327 -190.415436 
L 340.683361 -189.880215 
L 314.746899 -188.00694 
L 283.003234 -181.316675 
L 242.078533 -163.921985 
L 184.398407 -118.69579 
L 85.79358 -60.356675 
z
" id="m6662ee0a91" style="stroke:#98df8a;stroke-opacity:0.2;"/>
    </defs>
    <g clip-path="url(#p8215094d57)">
     <use style="fill:#98df8a;fill-opacity:0.2;stroke:#98df8a;stroke-opacity:0.2;" x="0" xlink:href="#m6662ee0a91" y="325.986375"/>
    </g>
   </g>
   <g id="PolyCollection_2">
    <defs>
     <path d="M 85.79358 -135.822869 
L 85.79358 -135.555259 
L 184.398407 -145.189241 
L 242.078533 -147.330126 
L 283.003234 -151.344285 
L 314.746899 -152.682338 
L 340.683361 -154.020392 
L 362.612327 -156.161277 
L 381.608062 -156.428887 
L 398.363487 -157.49933 
L 413.351726 -160.175436 
L 426.910237 -160.710657 
L 439.288188 -160.710657 
L 450.674799 -160.978268 
L 461.217155 -160.978268 
L 471.031852 -161.245878 
L 480.212889 -162.316321 
L 488.837148 -162.583931 
L 496.968315 -162.583931 
L 504.659739 -162.583931 
L 511.956553 -170.61225 
L 518.897281 -173.555967 
L 525.515065 -173.555967 
L 531.838626 -173.823577 
L 537.893016 -174.091188 
L 543.700218 -174.091188 
L 549.279627 -174.89402 
L 554.648441 -174.89402 
L 559.821982 -174.89402 
L 564.813957 -174.89402 
L 569.63668 -174.89402 
L 574.301252 -174.89402 
L 578.817717 -175.429241 
L 583.195191 -175.429241 
L 587.441975 -175.429241 
L 591.565646 -175.696852 
L 595.573142 -175.696852 
L 599.47083 -175.964462 
L 603.264566 -175.964462 
L 606.959753 -175.964462 
L 610.561381 -175.964462 
L 614.07407 -176.767294 
L 617.502108 -176.767294 
L 620.849479 -176.767294 
L 624.119892 -176.767294 
L 627.316806 -179.978622 
L 630.443453 -179.978622 
L 633.502855 -179.978622 
L 636.497843 -179.978622 
L 639.431075 -179.978622 
L 642.305045 -179.978622 
L 645.122101 -180.513843 
L 647.884454 -180.513843 
L 650.594187 -180.513843 
L 653.253268 -180.513843 
L 655.863556 -180.513843 
L 658.426809 -180.513843 
L 660.944693 -181.316675 
L 663.418785 -181.316675 
L 665.850582 -181.316675 
L 668.241507 -181.316675 
L 670.592911 -181.851896 
L 672.906079 -181.851896 
L 675.182235 -181.851896 
L 677.422544 -181.851896 
L 679.628118 -181.851896 
L 681.800019 -181.851896 
L 683.939257 -181.851896 
L 686.046802 -181.851896 
L 688.123579 -181.851896 
L 690.170474 -181.851896 
L 692.188333 -181.851896 
L 694.177969 -181.851896 
L 696.140162 -181.851896 
L 698.075657 -181.851896 
L 699.985172 -181.851896 
L 701.869394 -181.851896 
L 703.728985 -181.851896 
L 705.564581 -181.851896 
L 707.376792 -181.851896 
L 709.166208 -181.851896 
L 710.933395 -181.851896 
L 712.678898 -181.851896 
L 714.403242 -181.851896 
L 716.106936 -181.851896 
L 717.790467 -181.851896 
L 719.454307 -183.992781 
L 721.098911 -183.992781 
L 722.724719 -183.992781 
L 724.332157 -183.992781 
L 725.921634 -183.992781 
L 727.493547 -183.992781 
L 729.04828 -183.992781 
L 730.586206 -183.992781 
L 732.107682 -183.992781 
L 733.613058 -183.992781 
L 735.10267 -183.992781 
L 735.10267 -291.57225 
L 735.10267 -291.57225 
L 733.613058 -291.57225 
L 732.107682 -186.401277 
L 730.586206 -186.401277 
L 729.04828 -186.401277 
L 727.493547 -186.401277 
L 725.921634 -186.401277 
L 724.332157 -186.133666 
L 722.724719 -186.133666 
L 721.098911 -186.133666 
L 719.454307 -186.133666 
L 717.790467 -186.133666 
L 716.106936 -186.133666 
L 714.403242 -186.133666 
L 712.678898 -186.133666 
L 710.933395 -186.133666 
L 709.166208 -186.133666 
L 707.376792 -185.866055 
L 705.564581 -185.866055 
L 703.728985 -185.866055 
L 701.869394 -185.866055 
L 699.985172 -185.866055 
L 698.075657 -185.866055 
L 696.140162 -185.866055 
L 694.177969 -185.866055 
L 692.188333 -185.598445 
L 690.170474 -185.598445 
L 688.123579 -184.528002 
L 686.046802 -184.528002 
L 683.939257 -184.528002 
L 681.800019 -184.528002 
L 679.628118 -184.528002 
L 677.422544 -184.528002 
L 675.182235 -184.528002 
L 672.906079 -183.45756 
L 670.592911 -183.45756 
L 668.241507 -183.45756 
L 665.850582 -183.45756 
L 663.418785 -183.45756 
L 660.944693 -182.922338 
L 658.426809 -181.316675 
L 655.863556 -181.316675 
L 653.253268 -181.316675 
L 650.594187 -181.316675 
L 647.884454 -181.316675 
L 645.122101 -181.316675 
L 642.305045 -180.513843 
L 639.431075 -180.513843 
L 636.497843 -180.513843 
L 633.502855 -180.513843 
L 630.443453 -180.513843 
L 627.316806 -180.513843 
L 624.119892 -179.978622 
L 620.849479 -179.978622 
L 617.502108 -179.978622 
L 614.07407 -179.978622 
L 610.561381 -179.978622 
L 606.959753 -179.978622 
L 603.264566 -179.978622 
L 599.47083 -179.978622 
L 595.573142 -179.4434 
L 591.565646 -179.4434 
L 587.441975 -178.908179 
L 583.195191 -178.908179 
L 578.817717 -178.908179 
L 574.301252 -178.908179 
L 569.63668 -178.908179 
L 564.813957 -178.908179 
L 559.821982 -178.908179 
L 554.648441 -178.908179 
L 549.279627 -178.908179 
L 543.700218 -178.640569 
L 537.893016 -178.640569 
L 531.838626 -178.372958 
L 525.515065 -178.372958 
L 518.897281 -176.767294 
L 511.956553 -176.767294 
L 504.659739 -176.767294 
L 496.968315 -176.767294 
L 488.837148 -176.499684 
L 480.212889 -176.499684 
L 471.031852 -176.499684 
L 461.217155 -172.753135 
L 450.674799 -172.485524 
L 439.288188 -171.682692 
L 426.910237 -171.147471 
L 413.351726 -170.879861 
L 398.363487 -170.61225 
L 381.608062 -169.541808 
L 362.612327 -168.738976 
L 340.683361 -166.865701 
L 314.746899 -166.598091 
L 283.003234 -159.640215 
L 242.078533 -154.555613 
L 184.398407 -151.879507 
L 85.79358 -135.822869 
z
" id="m13546653ee" style="stroke:#1f77b4;stroke-opacity:0.2;"/>
    </defs>
    <g clip-path="url(#p8215094d57)">
     <use style="fill:#1f77b4;fill-opacity:0.2;stroke:#1f77b4;stroke-opacity:0.2;" x="0" xlink:href="#m13546653ee" y="325.986375"/>
    </g>
   </g>
   <g id="matplotlib.axis_1">
    <g id="xtick_1">
     <g id="line2d_1">
      <defs>
       <path d="M 0 0 
L 0 3.5 
" id="m8bb9bc766b" style="stroke:#000000;stroke-width:0.8;"/>
      </defs>
      <g>
       <use style="stroke:#000000;stroke-width:0.8;" x="85.79358" xlink:href="#m8bb9bc766b" y="288.430125"/>
      </g>
     </g>
     <g id="text_1">
      <!-- 14m -->
      <g transform="translate(74.560767 303.028562)scale(0.1 -0.1)">
       <defs>
        <path d="M 12.40625 8.296875 
L 28.515625 8.296875 
L 28.515625 63.921875 
L 10.984375 60.40625 
L 10.984375 69.390625 
L 28.421875 72.90625 
L 38.28125 72.90625 
L 38.28125 8.296875 
L 54.390625 8.296875 
L 54.390625 0 
L 12.40625 0 
z
" id="DejaVuSans-49"/>
        <path d="M 37.796875 64.3125 
L 12.890625 25.390625 
L 37.796875 25.390625 
z
M 35.203125 72.90625 
L 47.609375 72.90625 
L 47.609375 25.390625 
L 58.015625 25.390625 
L 58.015625 17.1875 
L 47.609375 17.1875 
L 47.609375 0 
L 37.796875 0 
L 37.796875 17.1875 
L 4.890625 17.1875 
L 4.890625 26.703125 
z
" id="DejaVuSans-52"/>
        <path d="M 52 44.1875 
Q 55.375 50.25 60.0625 53.125 
Q 64.75 56 71.09375 56 
Q 79.640625 56 84.28125 50.015625 
Q 88.921875 44.046875 88.921875 33.015625 
L 88.921875 0 
L 79.890625 0 
L 79.890625 32.71875 
Q 79.890625 40.578125 77.09375 44.375 
Q 74.3125 48.1875 68.609375 48.1875 
Q 61.625 48.1875 57.5625 43.546875 
Q 53.515625 38.921875 53.515625 30.90625 
L 53.515625 0 
L 44.484375 0 
L 44.484375 32.71875 
Q 44.484375 40.625 41.703125 44.40625 
Q 38.921875 48.1875 33.109375 48.1875 
Q 26.21875 48.1875 22.15625 43.53125 
Q 18.109375 38.875 18.109375 30.90625 
L 18.109375 0 
L 9.078125 0 
L 9.078125 54.6875 
L 18.109375 54.6875 
L 18.109375 46.1875 
Q 21.1875 51.21875 25.484375 53.609375 
Q 29.78125 56 35.6875 56 
Q 41.65625 56 45.828125 52.96875 
Q 50 49.953125 52 44.1875 
z
" id="DejaVuSans-109"/>
       </defs>
       <use xlink:href="#DejaVuSans-49"/>
       <use x="63.623047" xlink:href="#DejaVuSans-52"/>
       <use x="127.246094" xlink:href="#DejaVuSans-109"/>
      </g>
     </g>
    </g>
    <g id="xtick_2">
     <g id="line2d_2">
      <g>
       <use style="stroke:#000000;stroke-width:0.8;" x="144.821828" xlink:href="#m8bb9bc766b" y="288.430125"/>
      </g>
     </g>
     <g id="text_2">
      <!-- 22m -->
      <g transform="translate(133.589016 303.028562)scale(0.1 -0.1)">
       <defs>
        <path d="M 19.1875 8.296875 
L 53.609375 8.296875 
L 53.609375 0 
L 7.328125 0 
L 7.328125 8.296875 
Q 12.9375 14.109375 22.625 23.890625 
Q 32.328125 33.6875 34.8125 36.53125 
Q 39.546875 41.84375 41.421875 45.53125 
Q 43.3125 49.21875 43.3125 52.78125 
Q 43.3125 58.59375 39.234375 62.25 
Q 35.15625 65.921875 28.609375 65.921875 
Q 23.96875 65.921875 18.8125 64.3125 
Q 13.671875 62.703125 7.8125 59.421875 
L 7.8125 69.390625 
Q 13.765625 71.78125 18.9375 73 
Q 24.125 74.21875 28.421875 74.21875 
Q 39.75 74.21875 46.484375 68.546875 
Q 53.21875 62.890625 53.21875 53.421875 
Q 53.21875 48.921875 51.53125 44.890625 
Q 49.859375 40.875 45.40625 35.40625 
Q 44.1875 33.984375 37.640625 27.21875 
Q 31.109375 20.453125 19.1875 8.296875 
z
" id="DejaVuSans-50"/>
       </defs>
       <use xlink:href="#DejaVuSans-50"/>
       <use x="63.623047" xlink:href="#DejaVuSans-50"/>
       <use x="127.246094" xlink:href="#DejaVuSans-109"/>
      </g>
     </g>
    </g>
    <g id="xtick_3">
     <g id="line2d_3">
      <g>
       <use style="stroke:#000000;stroke-width:0.8;" x="203.850077" xlink:href="#m8bb9bc766b" y="288.430125"/>
      </g>
     </g>
     <g id="text_3">
      <!-- 34m -->
      <g transform="translate(192.617265 303.028562)scale(0.1 -0.1)">
       <defs>
        <path d="M 40.578125 39.3125 
Q 47.65625 37.796875 51.625 33 
Q 55.609375 28.21875 55.609375 21.1875 
Q 55.609375 10.40625 48.1875 4.484375 
Q 40.765625 -1.421875 27.09375 -1.421875 
Q 22.515625 -1.421875 17.65625 -0.515625 
Q 12.796875 0.390625 7.625 2.203125 
L 7.625 11.71875 
Q 11.71875 9.328125 16.59375 8.109375 
Q 21.484375 6.890625 26.8125 6.890625 
Q 36.078125 6.890625 40.9375 10.546875 
Q 45.796875 14.203125 45.796875 21.1875 
Q 45.796875 27.640625 41.28125 31.265625 
Q 36.765625 34.90625 28.71875 34.90625 
L 20.21875 34.90625 
L 20.21875 43.015625 
L 29.109375 43.015625 
Q 36.375 43.015625 40.234375 45.921875 
Q 44.09375 48.828125 44.09375 54.296875 
Q 44.09375 59.90625 40.109375 62.90625 
Q 36.140625 65.921875 28.71875 65.921875 
Q 24.65625 65.921875 20.015625 65.03125 
Q 15.375 64.15625 9.8125 62.3125 
L 9.8125 71.09375 
Q 15.4375 72.65625 20.34375 73.4375 
Q 25.25 74.21875 29.59375 74.21875 
Q 40.828125 74.21875 47.359375 69.109375 
Q 53.90625 64.015625 53.90625 55.328125 
Q 53.90625 49.265625 50.4375 45.09375 
Q 46.96875 40.921875 40.578125 39.3125 
z
" id="DejaVuSans-51"/>
       </defs>
       <use xlink:href="#DejaVuSans-51"/>
       <use x="63.623047" xlink:href="#DejaVuSans-52"/>
       <use x="127.246094" xlink:href="#DejaVuSans-109"/>
      </g>
     </g>
    </g>
    <g id="xtick_4">
     <g id="line2d_4">
      <g>
       <use style="stroke:#000000;stroke-width:0.8;" x="262.878326" xlink:href="#m8bb9bc766b" y="288.430125"/>
      </g>
     </g>
     <g id="text_4">
      <!-- 52m -->
      <g transform="translate(251.645514 303.028562)scale(0.1 -0.1)">
       <defs>
        <path d="M 10.796875 72.90625 
L 49.515625 72.90625 
L 49.515625 64.59375 
L 19.828125 64.59375 
L 19.828125 46.734375 
Q 21.96875 47.46875 24.109375 47.828125 
Q 26.265625 48.1875 28.421875 48.1875 
Q 40.625 48.1875 47.75 41.5 
Q 54.890625 34.8125 54.890625 23.390625 
Q 54.890625 11.625 47.5625 5.09375 
Q 40.234375 -1.421875 26.90625 -1.421875 
Q 22.3125 -1.421875 17.546875 -0.640625 
Q 12.796875 0.140625 7.71875 1.703125 
L 7.71875 11.625 
Q 12.109375 9.234375 16.796875 8.0625 
Q 21.484375 6.890625 26.703125 6.890625 
Q 35.15625 6.890625 40.078125 11.328125 
Q 45.015625 15.765625 45.015625 23.390625 
Q 45.015625 31 40.078125 35.4375 
Q 35.15625 39.890625 26.703125 39.890625 
Q 22.75 39.890625 18.8125 39.015625 
Q 14.890625 38.140625 10.796875 36.28125 
z
" id="DejaVuSans-53"/>
       </defs>
       <use xlink:href="#DejaVuSans-53"/>
       <use x="63.623047" xlink:href="#DejaVuSans-50"/>
       <use x="127.246094" xlink:href="#DejaVuSans-109"/>
      </g>
     </g>
    </g>
    <g id="xtick_5">
     <g id="line2d_5">
      <g>
       <use style="stroke:#000000;stroke-width:0.8;" x="321.906575" xlink:href="#m8bb9bc766b" y="288.430125"/>
      </g>
     </g>
     <g id="text_5">
      <!-- 1h:18m -->
      <g transform="translate(302.639387 303.028562)scale(0.1 -0.1)">
       <defs>
        <path d="M 54.890625 33.015625 
L 54.890625 0 
L 45.90625 0 
L 45.90625 32.71875 
Q 45.90625 40.484375 42.875 44.328125 
Q 39.84375 48.1875 33.796875 48.1875 
Q 26.515625 48.1875 22.3125 43.546875 
Q 18.109375 38.921875 18.109375 30.90625 
L 18.109375 0 
L 9.078125 0 
L 9.078125 75.984375 
L 18.109375 75.984375 
L 18.109375 46.1875 
Q 21.34375 51.125 25.703125 53.5625 
Q 30.078125 56 35.796875 56 
Q 45.21875 56 50.046875 50.171875 
Q 54.890625 44.34375 54.890625 33.015625 
z
" id="DejaVuSans-104"/>
        <path d="M 11.71875 12.40625 
L 22.015625 12.40625 
L 22.015625 0 
L 11.71875 0 
z
M 11.71875 51.703125 
L 22.015625 51.703125 
L 22.015625 39.3125 
L 11.71875 39.3125 
z
" id="DejaVuSans-58"/>
        <path d="M 31.78125 34.625 
Q 24.75 34.625 20.71875 30.859375 
Q 16.703125 27.09375 16.703125 20.515625 
Q 16.703125 13.921875 20.71875 10.15625 
Q 24.75 6.390625 31.78125 6.390625 
Q 38.8125 6.390625 42.859375 10.171875 
Q 46.921875 13.96875 46.921875 20.515625 
Q 46.921875 27.09375 42.890625 30.859375 
Q 38.875 34.625 31.78125 34.625 
z
M 21.921875 38.8125 
Q 15.578125 40.375 12.03125 44.71875 
Q 8.5 49.078125 8.5 55.328125 
Q 8.5 64.0625 14.71875 69.140625 
Q 20.953125 74.21875 31.78125 74.21875 
Q 42.671875 74.21875 48.875 69.140625 
Q 55.078125 64.0625 55.078125 55.328125 
Q 55.078125 49.078125 51.53125 44.71875 
Q 48 40.375 41.703125 38.8125 
Q 48.828125 37.15625 52.796875 32.3125 
Q 56.78125 27.484375 56.78125 20.515625 
Q 56.78125 9.90625 50.3125 4.234375 
Q 43.84375 -1.421875 31.78125 -1.421875 
Q 19.734375 -1.421875 13.25 4.234375 
Q 6.78125 9.90625 6.78125 20.515625 
Q 6.78125 27.484375 10.78125 32.3125 
Q 14.796875 37.15625 21.921875 38.8125 
z
M 18.3125 54.390625 
Q 18.3125 48.734375 21.84375 45.5625 
Q 25.390625 42.390625 31.78125 42.390625 
Q 38.140625 42.390625 41.71875 45.5625 
Q 45.3125 48.734375 45.3125 54.390625 
Q 45.3125 60.0625 41.71875 63.234375 
Q 38.140625 66.40625 31.78125 66.40625 
Q 25.390625 66.40625 21.84375 63.234375 
Q 18.3125 60.0625 18.3125 54.390625 
z
" id="DejaVuSans-56"/>
       </defs>
       <use xlink:href="#DejaVuSans-49"/>
       <use x="63.623047" xlink:href="#DejaVuSans-104"/>
       <use x="127.001953" xlink:href="#DejaVuSans-58"/>
       <use x="160.693359" xlink:href="#DejaVuSans-49"/>
       <use x="224.316406" xlink:href="#DejaVuSans-56"/>
       <use x="287.939453" xlink:href="#DejaVuSans-109"/>
      </g>
     </g>
    </g>
    <g id="xtick_6">
     <g id="line2d_6">
      <g>
       <use style="stroke:#000000;stroke-width:0.8;" x="380.934824" xlink:href="#m8bb9bc766b" y="288.430125"/>
      </g>
     </g>
     <g id="text_6">
      <!-- 1h:59m -->
      <g transform="translate(361.667636 303.028562)scale(0.1 -0.1)">
       <defs>
        <path d="M 10.984375 1.515625 
L 10.984375 10.5 
Q 14.703125 8.734375 18.5 7.8125 
Q 22.3125 6.890625 25.984375 6.890625 
Q 35.75 6.890625 40.890625 13.453125 
Q 46.046875 20.015625 46.78125 33.40625 
Q 43.953125 29.203125 39.59375 26.953125 
Q 35.25 24.703125 29.984375 24.703125 
Q 19.046875 24.703125 12.671875 31.3125 
Q 6.296875 37.9375 6.296875 49.421875 
Q 6.296875 60.640625 12.9375 67.421875 
Q 19.578125 74.21875 30.609375 74.21875 
Q 43.265625 74.21875 49.921875 64.515625 
Q 56.59375 54.828125 56.59375 36.375 
Q 56.59375 19.140625 48.40625 8.859375 
Q 40.234375 -1.421875 26.421875 -1.421875 
Q 22.703125 -1.421875 18.890625 -0.6875 
Q 15.09375 0.046875 10.984375 1.515625 
z
M 30.609375 32.421875 
Q 37.25 32.421875 41.125 36.953125 
Q 45.015625 41.5 45.015625 49.421875 
Q 45.015625 57.28125 41.125 61.84375 
Q 37.25 66.40625 30.609375 66.40625 
Q 23.96875 66.40625 20.09375 61.84375 
Q 16.21875 57.28125 16.21875 49.421875 
Q 16.21875 41.5 20.09375 36.953125 
Q 23.96875 32.421875 30.609375 32.421875 
z
" id="DejaVuSans-57"/>
       </defs>
       <use xlink:href="#DejaVuSans-49"/>
       <use x="63.623047" xlink:href="#DejaVuSans-104"/>
       <use x="127.001953" xlink:href="#DejaVuSans-58"/>
       <use x="160.693359" xlink:href="#DejaVuSans-53"/>
       <use x="224.316406" xlink:href="#DejaVuSans-57"/>
       <use x="287.939453" xlink:href="#DejaVuSans-109"/>
      </g>
     </g>
    </g>
    <g id="xtick_7">
     <g id="line2d_7">
      <g>
       <use style="stroke:#000000;stroke-width:0.8;" x="439.963073" xlink:href="#m8bb9bc766b" y="288.430125"/>
      </g>
     </g>
     <g id="text_7">
      <!-- 3h -->
      <g transform="translate(433.613073 303.028562)scale(0.1 -0.1)">
       <use xlink:href="#DejaVuSans-51"/>
       <use x="63.623047" xlink:href="#DejaVuSans-104"/>
      </g>
     </g>
    </g>
    <g id="xtick_8">
     <g id="line2d_8">
      <g>
       <use style="stroke:#000000;stroke-width:0.8;" x="498.991322" xlink:href="#m8bb9bc766b" y="288.430125"/>
      </g>
     </g>
     <g id="text_8">
      <!-- 4h:33m -->
      <g transform="translate(479.724134 303.028562)scale(0.1 -0.1)">
       <use xlink:href="#DejaVuSans-52"/>
       <use x="63.623047" xlink:href="#DejaVuSans-104"/>
       <use x="127.001953" xlink:href="#DejaVuSans-58"/>
       <use x="160.693359" xlink:href="#DejaVuSans-51"/>
       <use x="224.316406" xlink:href="#DejaVuSans-51"/>
       <use x="287.939453" xlink:href="#DejaVuSans-109"/>
      </g>
     </g>
    </g>
    <g id="xtick_9">
     <g id="line2d_9">
      <g>
       <use style="stroke:#000000;stroke-width:0.8;" x="558.01957" xlink:href="#m8bb9bc766b" y="288.430125"/>
      </g>
     </g>
     <g id="text_9">
      <!-- 6h:54m -->
      <g transform="translate(538.752383 303.028562)scale(0.1 -0.1)">
       <defs>
        <path d="M 33.015625 40.375 
Q 26.375 40.375 22.484375 35.828125 
Q 18.609375 31.296875 18.609375 23.390625 
Q 18.609375 15.53125 22.484375 10.953125 
Q 26.375 6.390625 33.015625 6.390625 
Q 39.65625 6.390625 43.53125 10.953125 
Q 47.40625 15.53125 47.40625 23.390625 
Q 47.40625 31.296875 43.53125 35.828125 
Q 39.65625 40.375 33.015625 40.375 
z
M 52.59375 71.296875 
L 52.59375 62.3125 
Q 48.875 64.0625 45.09375 64.984375 
Q 41.3125 65.921875 37.59375 65.921875 
Q 27.828125 65.921875 22.671875 59.328125 
Q 17.53125 52.734375 16.796875 39.40625 
Q 19.671875 43.65625 24.015625 45.921875 
Q 28.375 48.1875 33.59375 48.1875 
Q 44.578125 48.1875 50.953125 41.515625 
Q 57.328125 34.859375 57.328125 23.390625 
Q 57.328125 12.15625 50.6875 5.359375 
Q 44.046875 -1.421875 33.015625 -1.421875 
Q 20.359375 -1.421875 13.671875 8.265625 
Q 6.984375 17.96875 6.984375 36.375 
Q 6.984375 53.65625 15.1875 63.9375 
Q 23.390625 74.21875 37.203125 74.21875 
Q 40.921875 74.21875 44.703125 73.484375 
Q 48.484375 72.75 52.59375 71.296875 
z
" id="DejaVuSans-54"/>
       </defs>
       <use xlink:href="#DejaVuSans-54"/>
       <use x="63.623047" xlink:href="#DejaVuSans-104"/>
       <use x="127.001953" xlink:href="#DejaVuSans-58"/>
       <use x="160.693359" xlink:href="#DejaVuSans-53"/>
       <use x="224.316406" xlink:href="#DejaVuSans-52"/>
       <use x="287.939453" xlink:href="#DejaVuSans-109"/>
      </g>
     </g>
    </g>
    <g id="xtick_10">
     <g id="line2d_10">
      <g>
       <use style="stroke:#000000;stroke-width:0.8;" x="617.047819" xlink:href="#m8bb9bc766b" y="288.430125"/>
      </g>
     </g>
     <g id="text_10">
      <!-- 10h:27m -->
      <g transform="translate(594.599382 303.028562)scale(0.1 -0.1)">
       <defs>
        <path d="M 31.78125 66.40625 
Q 24.171875 66.40625 20.328125 58.90625 
Q 16.5 51.421875 16.5 36.375 
Q 16.5 21.390625 20.328125 13.890625 
Q 24.171875 6.390625 31.78125 6.390625 
Q 39.453125 6.390625 43.28125 13.890625 
Q 47.125 21.390625 47.125 36.375 
Q 47.125 51.421875 43.28125 58.90625 
Q 39.453125 66.40625 31.78125 66.40625 
z
M 31.78125 74.21875 
Q 44.046875 74.21875 50.515625 64.515625 
Q 56.984375 54.828125 56.984375 36.375 
Q 56.984375 17.96875 50.515625 8.265625 
Q 44.046875 -1.421875 31.78125 -1.421875 
Q 19.53125 -1.421875 13.0625 8.265625 
Q 6.59375 17.96875 6.59375 36.375 
Q 6.59375 54.828125 13.0625 64.515625 
Q 19.53125 74.21875 31.78125 74.21875 
z
" id="DejaVuSans-48"/>
        <path d="M 8.203125 72.90625 
L 55.078125 72.90625 
L 55.078125 68.703125 
L 28.609375 0 
L 18.3125 0 
L 43.21875 64.59375 
L 8.203125 64.59375 
z
" id="DejaVuSans-55"/>
       </defs>
       <use xlink:href="#DejaVuSans-49"/>
       <use x="63.623047" xlink:href="#DejaVuSans-48"/>
       <use x="127.246094" xlink:href="#DejaVuSans-104"/>
       <use x="190.625" xlink:href="#DejaVuSans-58"/>
       <use x="224.316406" xlink:href="#DejaVuSans-50"/>
       <use x="287.939453" xlink:href="#DejaVuSans-55"/>
       <use x="351.5625" xlink:href="#DejaVuSans-109"/>
      </g>
     </g>
    </g>
    <g id="xtick_11">
     <g id="line2d_11">
      <g>
       <use style="stroke:#000000;stroke-width:0.8;" x="676.076068" xlink:href="#m8bb9bc766b" y="288.430125"/>
      </g>
     </g>
     <g id="text_11">
      <!-- 15h:50m -->
      <g transform="translate(653.627631 303.028562)scale(0.1 -0.1)">
       <use xlink:href="#DejaVuSans-49"/>
       <use x="63.623047" xlink:href="#DejaVuSans-53"/>
       <use x="127.246094" xlink:href="#DejaVuSans-104"/>
       <use x="190.625" xlink:href="#DejaVuSans-58"/>
       <use x="224.316406" xlink:href="#DejaVuSans-53"/>
       <use x="287.939453" xlink:href="#DejaVuSans-48"/>
       <use x="351.5625" xlink:href="#DejaVuSans-109"/>
      </g>
     </g>
    </g>
    <g id="xtick_12">
     <g id="line2d_12">
      <g>
       <use style="stroke:#000000;stroke-width:0.8;" x="735.104317" xlink:href="#m8bb9bc766b" y="288.430125"/>
      </g>
     </g>
     <g id="text_12">
      <!-- 24h -->
      <g transform="translate(725.573067 303.028562)scale(0.1 -0.1)">
       <use xlink:href="#DejaVuSans-50"/>
       <use x="63.623047" xlink:href="#DejaVuSans-52"/>
       <use x="127.246094" xlink:href="#DejaVuSans-104"/>
      </g>
     </g>
    </g>
    <g id="xtick_13">
     <g id="line2d_13">
      <defs>
       <path d="M 0 0 
L 0 2 
" id="m5d43d63005" style="stroke:#000000;stroke-width:0.6;"/>
      </defs>
      <g>
       <use style="stroke:#000000;stroke-width:0.6;" x="69.038154" xlink:href="#m5d43d63005" y="288.430125"/>
      </g>
     </g>
    </g>
    <g id="xtick_14">
     <g id="line2d_14">
      <g>
       <use style="stroke:#000000;stroke-width:0.6;" x="199.386646" xlink:href="#m5d43d63005" y="288.430125"/>
      </g>
     </g>
    </g>
    <g id="xtick_15">
     <g id="line2d_15">
      <g>
       <use style="stroke:#000000;stroke-width:0.6;" x="257.066772" xlink:href="#m5d43d63005" y="288.430125"/>
      </g>
     </g>
    </g>
    <g id="xtick_16">
     <g id="line2d_16">
      <g>
       <use style="stroke:#000000;stroke-width:0.6;" x="297.991473" xlink:href="#m5d43d63005" y="288.430125"/>
      </g>
     </g>
    </g>
    <g id="xtick_17">
     <g id="line2d_17">
      <g>
       <use style="stroke:#000000;stroke-width:0.6;" x="329.735137" xlink:href="#m5d43d63005" y="288.430125"/>
      </g>
     </g>
    </g>
    <g id="xtick_18">
     <g id="line2d_18">
      <g>
       <use style="stroke:#000000;stroke-width:0.6;" x="355.6716" xlink:href="#m5d43d63005" y="288.430125"/>
      </g>
     </g>
    </g>
    <g id="xtick_19">
     <g id="line2d_19">
      <g>
       <use style="stroke:#000000;stroke-width:0.6;" x="377.600566" xlink:href="#m5d43d63005" y="288.430125"/>
      </g>
     </g>
    </g>
    <g id="xtick_20">
     <g id="line2d_20">
      <g>
       <use style="stroke:#000000;stroke-width:0.6;" x="396.596301" xlink:href="#m5d43d63005" y="288.430125"/>
      </g>
     </g>
    </g>
    <g id="xtick_21">
     <g id="line2d_21">
      <g>
       <use style="stroke:#000000;stroke-width:0.6;" x="413.351726" xlink:href="#m5d43d63005" y="288.430125"/>
      </g>
     </g>
    </g>
    <g id="xtick_22">
     <g id="line2d_22">
      <g>
       <use style="stroke:#000000;stroke-width:0.6;" x="526.944792" xlink:href="#m5d43d63005" y="288.430125"/>
      </g>
     </g>
    </g>
    <g id="xtick_23">
     <g id="line2d_23">
      <g>
       <use style="stroke:#000000;stroke-width:0.6;" x="584.624919" xlink:href="#m5d43d63005" y="288.430125"/>
      </g>
     </g>
    </g>
    <g id="xtick_24">
     <g id="line2d_24">
      <g>
       <use style="stroke:#000000;stroke-width:0.6;" x="625.54962" xlink:href="#m5d43d63005" y="288.430125"/>
      </g>
     </g>
    </g>
    <g id="xtick_25">
     <g id="line2d_25">
      <g>
       <use style="stroke:#000000;stroke-width:0.6;" x="657.293284" xlink:href="#m5d43d63005" y="288.430125"/>
      </g>
     </g>
    </g>
    <g id="xtick_26">
     <g id="line2d_26">
      <g>
       <use style="stroke:#000000;stroke-width:0.6;" x="683.229746" xlink:href="#m5d43d63005" y="288.430125"/>
      </g>
     </g>
    </g>
    <g id="xtick_27">
     <g id="line2d_27">
      <g>
       <use style="stroke:#000000;stroke-width:0.6;" x="705.158712" xlink:href="#m5d43d63005" y="288.430125"/>
      </g>
     </g>
    </g>
    <g id="xtick_28">
     <g id="line2d_28">
      <g>
       <use style="stroke:#000000;stroke-width:0.6;" x="724.154447" xlink:href="#m5d43d63005" y="288.430125"/>
      </g>
     </g>
    </g>
    <g id="xtick_29">
     <g id="line2d_29">
      <g>
       <use style="stroke:#000000;stroke-width:0.6;" x="740.909872" xlink:href="#m5d43d63005" y="288.430125"/>
      </g>
     </g>
    </g>
    <g id="text_13">
     <!-- Time (hour:minute) -->
     <g transform="translate(362.041094 316.706687)scale(0.1 -0.1)">
      <defs>
       <path d="M -0.296875 72.90625 
L 61.375 72.90625 
L 61.375 64.59375 
L 35.5 64.59375 
L 35.5 0 
L 25.59375 0 
L 25.59375 64.59375 
L -0.296875 64.59375 
z
" id="DejaVuSans-84"/>
       <path d="M 9.421875 54.6875 
L 18.40625 54.6875 
L 18.40625 0 
L 9.421875 0 
z
M 9.421875 75.984375 
L 18.40625 75.984375 
L 18.40625 64.59375 
L 9.421875 64.59375 
z
" id="DejaVuSans-105"/>
       <path d="M 56.203125 29.59375 
L 56.203125 25.203125 
L 14.890625 25.203125 
Q 15.484375 15.921875 20.484375 11.0625 
Q 25.484375 6.203125 34.421875 6.203125 
Q 39.59375 6.203125 44.453125 7.46875 
Q 49.3125 8.734375 54.109375 11.28125 
L 54.109375 2.78125 
Q 49.265625 0.734375 44.1875 -0.34375 
Q 39.109375 -1.421875 33.890625 -1.421875 
Q 20.796875 -1.421875 13.15625 6.1875 
Q 5.515625 13.8125 5.515625 26.8125 
Q 5.515625 40.234375 12.765625 48.109375 
Q 20.015625 56 32.328125 56 
Q 43.359375 56 49.78125 48.890625 
Q 56.203125 41.796875 56.203125 29.59375 
z
M 47.21875 32.234375 
Q 47.125 39.59375 43.09375 43.984375 
Q 39.0625 48.390625 32.421875 48.390625 
Q 24.90625 48.390625 20.390625 44.140625 
Q 15.875 39.890625 15.1875 32.171875 
z
" id="DejaVuSans-101"/>
       <path id="DejaVuSans-32"/>
       <path d="M 31 75.875 
Q 24.46875 64.65625 21.28125 53.65625 
Q 18.109375 42.671875 18.109375 31.390625 
Q 18.109375 20.125 21.3125 9.0625 
Q 24.515625 -2 31 -13.1875 
L 23.1875 -13.1875 
Q 15.875 -1.703125 12.234375 9.375 
Q 8.59375 20.453125 8.59375 31.390625 
Q 8.59375 42.28125 12.203125 53.3125 
Q 15.828125 64.359375 23.1875 75.875 
z
" id="DejaVuSans-40"/>
       <path d="M 30.609375 48.390625 
Q 23.390625 48.390625 19.1875 42.75 
Q 14.984375 37.109375 14.984375 27.296875 
Q 14.984375 17.484375 19.15625 11.84375 
Q 23.34375 6.203125 30.609375 6.203125 
Q 37.796875 6.203125 41.984375 11.859375 
Q 46.1875 17.53125 46.1875 27.296875 
Q 46.1875 37.015625 41.984375 42.703125 
Q 37.796875 48.390625 30.609375 48.390625 
z
M 30.609375 56 
Q 42.328125 56 49.015625 48.375 
Q 55.71875 40.765625 55.71875 27.296875 
Q 55.71875 13.875 49.015625 6.21875 
Q 42.328125 -1.421875 30.609375 -1.421875 
Q 18.84375 -1.421875 12.171875 6.21875 
Q 5.515625 13.875 5.515625 27.296875 
Q 5.515625 40.765625 12.171875 48.375 
Q 18.84375 56 30.609375 56 
z
" id="DejaVuSans-111"/>
       <path d="M 8.5 21.578125 
L 8.5 54.6875 
L 17.484375 54.6875 
L 17.484375 21.921875 
Q 17.484375 14.15625 20.5 10.265625 
Q 23.53125 6.390625 29.59375 6.390625 
Q 36.859375 6.390625 41.078125 11.03125 
Q 45.3125 15.671875 45.3125 23.6875 
L 45.3125 54.6875 
L 54.296875 54.6875 
L 54.296875 0 
L 45.3125 0 
L 45.3125 8.40625 
Q 42.046875 3.421875 37.71875 1 
Q 33.40625 -1.421875 27.6875 -1.421875 
Q 18.265625 -1.421875 13.375 4.4375 
Q 8.5 10.296875 8.5 21.578125 
z
M 31.109375 56 
z
" id="DejaVuSans-117"/>
       <path d="M 41.109375 46.296875 
Q 39.59375 47.171875 37.8125 47.578125 
Q 36.03125 48 33.890625 48 
Q 26.265625 48 22.1875 43.046875 
Q 18.109375 38.09375 18.109375 28.8125 
L 18.109375 0 
L 9.078125 0 
L 9.078125 54.6875 
L 18.109375 54.6875 
L 18.109375 46.1875 
Q 20.953125 51.171875 25.484375 53.578125 
Q 30.03125 56 36.53125 56 
Q 37.453125 56 38.578125 55.875 
Q 39.703125 55.765625 41.0625 55.515625 
z
" id="DejaVuSans-114"/>
       <path d="M 54.890625 33.015625 
L 54.890625 0 
L 45.90625 0 
L 45.90625 32.71875 
Q 45.90625 40.484375 42.875 44.328125 
Q 39.84375 48.1875 33.796875 48.1875 
Q 26.515625 48.1875 22.3125 43.546875 
Q 18.109375 38.921875 18.109375 30.90625 
L 18.109375 0 
L 9.078125 0 
L 9.078125 54.6875 
L 18.109375 54.6875 
L 18.109375 46.1875 
Q 21.34375 51.125 25.703125 53.5625 
Q 30.078125 56 35.796875 56 
Q 45.21875 56 50.046875 50.171875 
Q 54.890625 44.34375 54.890625 33.015625 
z
" id="DejaVuSans-110"/>
       <path d="M 18.3125 70.21875 
L 18.3125 54.6875 
L 36.8125 54.6875 
L 36.8125 47.703125 
L 18.3125 47.703125 
L 18.3125 18.015625 
Q 18.3125 11.328125 20.140625 9.421875 
Q 21.96875 7.515625 27.59375 7.515625 
L 36.8125 7.515625 
L 36.8125 0 
L 27.59375 0 
Q 17.1875 0 13.234375 3.875 
Q 9.28125 7.765625 9.28125 18.015625 
L 9.28125 47.703125 
L 2.6875 47.703125 
L 2.6875 54.6875 
L 9.28125 54.6875 
L 9.28125 70.21875 
z
" id="DejaVuSans-116"/>
       <path d="M 8.015625 75.875 
L 15.828125 75.875 
Q 23.140625 64.359375 26.78125 53.3125 
Q 30.421875 42.28125 30.421875 31.390625 
Q 30.421875 20.453125 26.78125 9.375 
Q 23.140625 -1.703125 15.828125 -13.1875 
L 8.015625 -13.1875 
Q 14.5 -2 17.703125 9.0625 
Q 20.90625 20.125 20.90625 31.390625 
Q 20.90625 42.671875 17.703125 53.65625 
Q 14.5 64.65625 8.015625 75.875 
z
" id="DejaVuSans-41"/>
      </defs>
      <use xlink:href="#DejaVuSans-84"/>
      <use x="57.958984" xlink:href="#DejaVuSans-105"/>
      <use x="85.742188" xlink:href="#DejaVuSans-109"/>
      <use x="183.154297" xlink:href="#DejaVuSans-101"/>
      <use x="244.677734" xlink:href="#DejaVuSans-32"/>
      <use x="276.464844" xlink:href="#DejaVuSans-40"/>
      <use x="315.478516" xlink:href="#DejaVuSans-104"/>
      <use x="378.857422" xlink:href="#DejaVuSans-111"/>
      <use x="440.039062" xlink:href="#DejaVuSans-117"/>
      <use x="503.417969" xlink:href="#DejaVuSans-114"/>
      <use x="542.78125" xlink:href="#DejaVuSans-58"/>
      <use x="576.472656" xlink:href="#DejaVuSans-109"/>
      <use x="673.884766" xlink:href="#DejaVuSans-105"/>
      <use x="701.667969" xlink:href="#DejaVuSans-110"/>
      <use x="765.046875" xlink:href="#DejaVuSans-117"/>
      <use x="828.425781" xlink:href="#DejaVuSans-116"/>
      <use x="867.634766" xlink:href="#DejaVuSans-101"/>
      <use x="929.158203" xlink:href="#DejaVuSans-41"/>
     </g>
    </g>
   </g>
   <g id="matplotlib.axis_2">
    <g id="ytick_1">
     <g id="line2d_30">
      <defs>
       <path d="M 0 0 
L -3.5 0 
" id="mb9717a951d" style="stroke:#000000;stroke-width:0.8;"/>
      </defs>
      <g>
       <use style="stroke:#000000;stroke-width:0.8;" x="53.328125" xlink:href="#mb9717a951d" y="248.502621"/>
      </g>
     </g>
     <g id="text_14">
      <!-- 8000 -->
      <g transform="translate(20.878125 252.301839)scale(0.1 -0.1)">
       <use xlink:href="#DejaVuSans-56"/>
       <use x="63.623047" xlink:href="#DejaVuSans-48"/>
       <use x="127.246094" xlink:href="#DejaVuSans-48"/>
       <use x="190.869141" xlink:href="#DejaVuSans-48"/>
      </g>
     </g>
    </g>
    <g id="ytick_2">
     <g id="line2d_31">
      <g>
       <use style="stroke:#000000;stroke-width:0.8;" x="53.328125" xlink:href="#mb9717a951d" y="194.980497"/>
      </g>
     </g>
     <g id="text_15">
      <!-- 8200 -->
      <g transform="translate(20.878125 198.779715)scale(0.1 -0.1)">
       <use xlink:href="#DejaVuSans-56"/>
       <use x="63.623047" xlink:href="#DejaVuSans-50"/>
       <use x="127.246094" xlink:href="#DejaVuSans-48"/>
       <use x="190.869141" xlink:href="#DejaVuSans-48"/>
      </g>
     </g>
    </g>
    <g id="ytick_3">
     <g id="line2d_32">
      <g>
       <use style="stroke:#000000;stroke-width:0.8;" x="53.328125" xlink:href="#mb9717a951d" y="141.458373"/>
      </g>
     </g>
     <g id="text_16">
      <!-- 8400 -->
      <g transform="translate(20.878125 145.257592)scale(0.1 -0.1)">
       <use xlink:href="#DejaVuSans-56"/>
       <use x="63.623047" xlink:href="#DejaVuSans-52"/>
       <use x="127.246094" xlink:href="#DejaVuSans-48"/>
       <use x="190.869141" xlink:href="#DejaVuSans-48"/>
      </g>
     </g>
    </g>
    <g id="ytick_4">
     <g id="line2d_33">
      <g>
       <use style="stroke:#000000;stroke-width:0.8;" x="53.328125" xlink:href="#mb9717a951d" y="87.936249"/>
      </g>
     </g>
     <g id="text_17">
      <!-- 8600 -->
      <g transform="translate(20.878125 91.735468)scale(0.1 -0.1)">
       <use xlink:href="#DejaVuSans-56"/>
       <use x="63.623047" xlink:href="#DejaVuSans-54"/>
       <use x="127.246094" xlink:href="#DejaVuSans-48"/>
       <use x="190.869141" xlink:href="#DejaVuSans-48"/>
      </g>
     </g>
    </g>
    <g id="ytick_5">
     <g id="line2d_34">
      <g>
       <use style="stroke:#000000;stroke-width:0.8;" x="53.328125" xlink:href="#mb9717a951d" y="34.414125"/>
      </g>
     </g>
     <g id="text_18">
      <!-- 8800 -->
      <g transform="translate(20.878125 38.213344)scale(0.1 -0.1)">
       <use xlink:href="#DejaVuSans-56"/>
       <use x="63.623047" xlink:href="#DejaVuSans-56"/>
       <use x="127.246094" xlink:href="#DejaVuSans-48"/>
       <use x="190.869141" xlink:href="#DejaVuSans-48"/>
      </g>
     </g>
    </g>
    <g id="text_19">
     <!-- Code region coverage -->
     <g transform="translate(14.798438 210.379594)rotate(-90)scale(0.1 -0.1)">
      <defs>
       <path d="M 64.40625 67.28125 
L 64.40625 56.890625 
Q 59.421875 61.53125 53.78125 63.8125 
Q 48.140625 66.109375 41.796875 66.109375 
Q 29.296875 66.109375 22.65625 58.46875 
Q 16.015625 50.828125 16.015625 36.375 
Q 16.015625 21.96875 22.65625 14.328125 
Q 29.296875 6.6875 41.796875 6.6875 
Q 48.140625 6.6875 53.78125 8.984375 
Q 59.421875 11.28125 64.40625 15.921875 
L 64.40625 5.609375 
Q 59.234375 2.09375 53.4375 0.328125 
Q 47.65625 -1.421875 41.21875 -1.421875 
Q 24.65625 -1.421875 15.125 8.703125 
Q 5.609375 18.84375 5.609375 36.375 
Q 5.609375 53.953125 15.125 64.078125 
Q 24.65625 74.21875 41.21875 74.21875 
Q 47.75 74.21875 53.53125 72.484375 
Q 59.328125 70.75 64.40625 67.28125 
z
" id="DejaVuSans-67"/>
       <path d="M 45.40625 46.390625 
L 45.40625 75.984375 
L 54.390625 75.984375 
L 54.390625 0 
L 45.40625 0 
L 45.40625 8.203125 
Q 42.578125 3.328125 38.25 0.953125 
Q 33.9375 -1.421875 27.875 -1.421875 
Q 17.96875 -1.421875 11.734375 6.484375 
Q 5.515625 14.40625 5.515625 27.296875 
Q 5.515625 40.1875 11.734375 48.09375 
Q 17.96875 56 27.875 56 
Q 33.9375 56 38.25 53.625 
Q 42.578125 51.265625 45.40625 46.390625 
z
M 14.796875 27.296875 
Q 14.796875 17.390625 18.875 11.75 
Q 22.953125 6.109375 30.078125 6.109375 
Q 37.203125 6.109375 41.296875 11.75 
Q 45.40625 17.390625 45.40625 27.296875 
Q 45.40625 37.203125 41.296875 42.84375 
Q 37.203125 48.484375 30.078125 48.484375 
Q 22.953125 48.484375 18.875 42.84375 
Q 14.796875 37.203125 14.796875 27.296875 
z
" id="DejaVuSans-100"/>
       <path d="M 45.40625 27.984375 
Q 45.40625 37.75 41.375 43.109375 
Q 37.359375 48.484375 30.078125 48.484375 
Q 22.859375 48.484375 18.828125 43.109375 
Q 14.796875 37.75 14.796875 27.984375 
Q 14.796875 18.265625 18.828125 12.890625 
Q 22.859375 7.515625 30.078125 7.515625 
Q 37.359375 7.515625 41.375 12.890625 
Q 45.40625 18.265625 45.40625 27.984375 
z
M 54.390625 6.78125 
Q 54.390625 -7.171875 48.1875 -13.984375 
Q 42 -20.796875 29.203125 -20.796875 
Q 24.46875 -20.796875 20.265625 -20.09375 
Q 16.0625 -19.390625 12.109375 -17.921875 
L 12.109375 -9.1875 
Q 16.0625 -11.328125 19.921875 -12.34375 
Q 23.78125 -13.375 27.78125 -13.375 
Q 36.625 -13.375 41.015625 -8.765625 
Q 45.40625 -4.15625 45.40625 5.171875 
L 45.40625 9.625 
Q 42.625 4.78125 38.28125 2.390625 
Q 33.9375 0 27.875 0 
Q 17.828125 0 11.671875 7.65625 
Q 5.515625 15.328125 5.515625 27.984375 
Q 5.515625 40.671875 11.671875 48.328125 
Q 17.828125 56 27.875 56 
Q 33.9375 56 38.28125 53.609375 
Q 42.625 51.21875 45.40625 46.390625 
L 45.40625 54.6875 
L 54.390625 54.6875 
z
" id="DejaVuSans-103"/>
       <path d="M 48.78125 52.59375 
L 48.78125 44.1875 
Q 44.96875 46.296875 41.140625 47.34375 
Q 37.3125 48.390625 33.40625 48.390625 
Q 24.65625 48.390625 19.8125 42.84375 
Q 14.984375 37.3125 14.984375 27.296875 
Q 14.984375 17.28125 19.8125 11.734375 
Q 24.65625 6.203125 33.40625 6.203125 
Q 37.3125 6.203125 41.140625 7.25 
Q 44.96875 8.296875 48.78125 10.40625 
L 48.78125 2.09375 
Q 45.015625 0.34375 40.984375 -0.53125 
Q 36.96875 -1.421875 32.421875 -1.421875 
Q 20.0625 -1.421875 12.78125 6.34375 
Q 5.515625 14.109375 5.515625 27.296875 
Q 5.515625 40.671875 12.859375 48.328125 
Q 20.21875 56 33.015625 56 
Q 37.15625 56 41.109375 55.140625 
Q 45.0625 54.296875 48.78125 52.59375 
z
" id="DejaVuSans-99"/>
       <path d="M 2.984375 54.6875 
L 12.5 54.6875 
L 29.59375 8.796875 
L 46.6875 54.6875 
L 56.203125 54.6875 
L 35.6875 0 
L 23.484375 0 
z
" id="DejaVuSans-118"/>
       <path d="M 34.28125 27.484375 
Q 23.390625 27.484375 19.1875 25 
Q 14.984375 22.515625 14.984375 16.5 
Q 14.984375 11.71875 18.140625 8.90625 
Q 21.296875 6.109375 26.703125 6.109375 
Q 34.1875 6.109375 38.703125 11.40625 
Q 43.21875 16.703125 43.21875 25.484375 
L 43.21875 27.484375 
z
M 52.203125 31.203125 
L 52.203125 0 
L 43.21875 0 
L 43.21875 8.296875 
Q 40.140625 3.328125 35.546875 0.953125 
Q 30.953125 -1.421875 24.3125 -1.421875 
Q 15.921875 -1.421875 10.953125 3.296875 
Q 6 8.015625 6 15.921875 
Q 6 25.140625 12.171875 29.828125 
Q 18.359375 34.515625 30.609375 34.515625 
L 43.21875 34.515625 
L 43.21875 35.40625 
Q 43.21875 41.609375 39.140625 45 
Q 35.0625 48.390625 27.6875 48.390625 
Q 23 48.390625 18.546875 47.265625 
Q 14.109375 46.140625 10.015625 43.890625 
L 10.015625 52.203125 
Q 14.9375 54.109375 19.578125 55.046875 
Q 24.21875 56 28.609375 56 
Q 40.484375 56 46.34375 49.84375 
Q 52.203125 43.703125 52.203125 31.203125 
z
" id="DejaVuSans-97"/>
      </defs>
      <use xlink:href="#DejaVuSans-67"/>
      <use x="69.824219" xlink:href="#DejaVuSans-111"/>
      <use x="131.005859" xlink:href="#DejaVuSans-100"/>
      <use x="194.482422" xlink:href="#DejaVuSans-101"/>
      <use x="256.005859" xlink:href="#DejaVuSans-32"/>
      <use x="287.792969" xlink:href="#DejaVuSans-114"/>
      <use x="326.65625" xlink:href="#DejaVuSans-101"/>
      <use x="388.179688" xlink:href="#DejaVuSans-103"/>
      <use x="451.65625" xlink:href="#DejaVuSans-105"/>
      <use x="479.439453" xlink:href="#DejaVuSans-111"/>
      <use x="540.621094" xlink:href="#DejaVuSans-110"/>
      <use x="604" xlink:href="#DejaVuSans-32"/>
      <use x="635.787109" xlink:href="#DejaVuSans-99"/>
      <use x="690.767578" xlink:href="#DejaVuSans-111"/>
      <use x="751.949219" xlink:href="#DejaVuSans-118"/>
      <use x="811.128906" xlink:href="#DejaVuSans-101"/>
      <use x="872.652344" xlink:href="#DejaVuSans-114"/>
      <use x="913.765625" xlink:href="#DejaVuSans-97"/>
      <use x="975.044922" xlink:href="#DejaVuSans-103"/>
      <use x="1038.521484" xlink:href="#DejaVuSans-101"/>
     </g>
    </g>
   </g>
   <g id="line2d_35">
    <path clip-path="url(#p8215094d57)" d="M 85.79358 270.981913 
L 184.398407 213.579435 
L 242.078533 164.07147 
L 283.003234 150.690939 
L 314.746899 145.204921 
L 340.683361 142.796426 
L 362.612327 139.986514 
L 381.608062 113.225452 
L 398.363487 112.288815 
L 413.351726 107.87324 
L 426.910237 107.605629 
L 439.288188 107.471824 
L 450.674799 104.661913 
L 461.217155 104.126691 
L 471.031852 103.190054 
L 480.212889 101.182975 
L 488.837148 99.443506 
L 496.968315 99.443506 
L 504.659739 99.04209 
L 511.956553 98.774479 
L 518.897281 98.506868 
L 525.515065 97.971647 
L 531.838626 97.837842 
L 537.893016 97.302621 
L 543.700218 97.302621 
L 549.279627 97.302621 
L 554.648441 97.168815 
L 559.821982 97.168815 
L 564.813957 96.901205 
L 569.63668 94.091293 
L 574.301252 93.689877 
L 578.817717 93.154656 
L 583.195191 92.887045 
L 587.441975 92.75324 
L 591.565646 92.75324 
L 595.573142 92.75324 
L 599.47083 91.147576 
L 603.264566 91.147576 
L 606.959753 91.147576 
L 610.561381 91.147576 
L 614.07407 91.147576 
L 617.502108 91.013771 
L 620.849479 91.013771 
L 624.119892 91.013771 
L 627.316806 90.612355 
L 630.443453 90.344744 
L 633.502855 90.344744 
L 636.497843 90.210939 
L 639.431075 90.210939 
L 642.305045 90.077134 
L 645.122101 89.943329 
L 647.884454 89.006691 
L 650.594187 89.006691 
L 653.253268 89.006691 
L 655.863556 89.006691 
L 658.426809 89.006691 
L 660.944693 89.006691 
L 663.418785 89.006691 
L 665.850582 89.006691 
L 668.241507 89.006691 
L 670.592911 89.006691 
L 672.906079 88.739081 
L 675.182235 86.598196 
L 677.422544 86.330585 
L 679.628118 86.330585 
L 681.800019 86.330585 
L 683.939257 86.19678 
L 686.046802 86.19678 
L 688.123579 86.19678 
L 690.170474 85.126337 
L 692.188333 84.724921 
L 694.177969 84.591116 
L 696.140162 84.591116 
L 698.075657 84.323506 
L 699.985172 84.323506 
L 701.869394 84.323506 
L 703.728985 83.92209 
L 705.564581 83.92209 
L 707.376792 83.92209 
L 709.166208 83.788284 
L 710.933395 83.788284 
L 712.678898 83.788284 
L 714.403242 83.788284 
L 716.106936 83.520674 
L 717.790467 83.520674 
L 719.454307 83.520674 
L 721.098911 83.520674 
L 722.724719 83.520674 
L 724.332157 83.520674 
L 725.921634 83.386868 
L 727.493547 83.386868 
L 729.04828 81.245983 
L 730.586206 81.245983 
L 732.107682 81.245983 
L 733.613058 81.245983 
L 735.10267 81.112178 
" style="fill:none;stroke:#98df8a;stroke-linecap:square;stroke-width:1.5;"/>
    <defs>
     <path d="M -0 3 
L 3 -3 
L -3 -3 
z
" id="ma186a9ac4b" style="stroke:#ffffff;stroke-linejoin:miter;stroke-width:0.75;"/>
    </defs>
    <g clip-path="url(#p8215094d57)">
     <use style="fill:#98df8a;stroke:#ffffff;stroke-linejoin:miter;stroke-width:0.75;" x="85.79358" xlink:href="#ma186a9ac4b" y="270.981913"/>
     <use style="fill:#98df8a;stroke:#ffffff;stroke-linejoin:miter;stroke-width:0.75;" x="184.398407" xlink:href="#ma186a9ac4b" y="213.579435"/>
     <use style="fill:#98df8a;stroke:#ffffff;stroke-linejoin:miter;stroke-width:0.75;" x="242.078533" xlink:href="#ma186a9ac4b" y="164.07147"/>
     <use style="fill:#98df8a;stroke:#ffffff;stroke-linejoin:miter;stroke-width:0.75;" x="283.003234" xlink:href="#ma186a9ac4b" y="150.690939"/>
     <use style="fill:#98df8a;stroke:#ffffff;stroke-linejoin:miter;stroke-width:0.75;" x="314.746899" xlink:href="#ma186a9ac4b" y="145.204921"/>
     <use style="fill:#98df8a;stroke:#ffffff;stroke-linejoin:miter;stroke-width:0.75;" x="340.683361" xlink:href="#ma186a9ac4b" y="142.796426"/>
     <use style="fill:#98df8a;stroke:#ffffff;stroke-linejoin:miter;stroke-width:0.75;" x="362.612327" xlink:href="#ma186a9ac4b" y="139.986514"/>
     <use style="fill:#98df8a;stroke:#ffffff;stroke-linejoin:miter;stroke-width:0.75;" x="381.608062" xlink:href="#ma186a9ac4b" y="113.225452"/>
     <use style="fill:#98df8a;stroke:#ffffff;stroke-linejoin:miter;stroke-width:0.75;" x="398.363487" xlink:href="#ma186a9ac4b" y="112.288815"/>
     <use style="fill:#98df8a;stroke:#ffffff;stroke-linejoin:miter;stroke-width:0.75;" x="413.351726" xlink:href="#ma186a9ac4b" y="107.87324"/>
     <use style="fill:#98df8a;stroke:#ffffff;stroke-linejoin:miter;stroke-width:0.75;" x="426.910237" xlink:href="#ma186a9ac4b" y="107.605629"/>
     <use style="fill:#98df8a;stroke:#ffffff;stroke-linejoin:miter;stroke-width:0.75;" x="439.288188" xlink:href="#ma186a9ac4b" y="107.471824"/>
     <use style="fill:#98df8a;stroke:#ffffff;stroke-linejoin:miter;stroke-width:0.75;" x="450.674799" xlink:href="#ma186a9ac4b" y="104.661913"/>
     <use style="fill:#98df8a;stroke:#ffffff;stroke-linejoin:miter;stroke-width:0.75;" x="461.217155" xlink:href="#ma186a9ac4b" y="104.126691"/>
     <use style="fill:#98df8a;stroke:#ffffff;stroke-linejoin:miter;stroke-width:0.75;" x="471.031852" xlink:href="#ma186a9ac4b" y="103.190054"/>
     <use style="fill:#98df8a;stroke:#ffffff;stroke-linejoin:miter;stroke-width:0.75;" x="480.212889" xlink:href="#ma186a9ac4b" y="101.182975"/>
     <use style="fill:#98df8a;stroke:#ffffff;stroke-linejoin:miter;stroke-width:0.75;" x="488.837148" xlink:href="#ma186a9ac4b" y="99.443506"/>
     <use style="fill:#98df8a;stroke:#ffffff;stroke-linejoin:miter;stroke-width:0.75;" x="496.968315" xlink:href="#ma186a9ac4b" y="99.443506"/>
     <use style="fill:#98df8a;stroke:#ffffff;stroke-linejoin:miter;stroke-width:0.75;" x="504.659739" xlink:href="#ma186a9ac4b" y="99.04209"/>
     <use style="fill:#98df8a;stroke:#ffffff;stroke-linejoin:miter;stroke-width:0.75;" x="511.956553" xlink:href="#ma186a9ac4b" y="98.774479"/>
     <use style="fill:#98df8a;stroke:#ffffff;stroke-linejoin:miter;stroke-width:0.75;" x="518.897281" xlink:href="#ma186a9ac4b" y="98.506868"/>
     <use style="fill:#98df8a;stroke:#ffffff;stroke-linejoin:miter;stroke-width:0.75;" x="525.515065" xlink:href="#ma186a9ac4b" y="97.971647"/>
     <use style="fill:#98df8a;stroke:#ffffff;stroke-linejoin:miter;stroke-width:0.75;" x="531.838626" xlink:href="#ma186a9ac4b" y="97.837842"/>
     <use style="fill:#98df8a;stroke:#ffffff;stroke-linejoin:miter;stroke-width:0.75;" x="537.893016" xlink:href="#ma186a9ac4b" y="97.302621"/>
     <use style="fill:#98df8a;stroke:#ffffff;stroke-linejoin:miter;stroke-width:0.75;" x="543.700218" xlink:href="#ma186a9ac4b" y="97.302621"/>
     <use style="fill:#98df8a;stroke:#ffffff;stroke-linejoin:miter;stroke-width:0.75;" x="549.279627" xlink:href="#ma186a9ac4b" y="97.302621"/>
     <use style="fill:#98df8a;stroke:#ffffff;stroke-linejoin:miter;stroke-width:0.75;" x="554.648441" xlink:href="#ma186a9ac4b" y="97.168815"/>
     <use style="fill:#98df8a;stroke:#ffffff;stroke-linejoin:miter;stroke-width:0.75;" x="559.821982" xlink:href="#ma186a9ac4b" y="97.168815"/>
     <use style="fill:#98df8a;stroke:#ffffff;stroke-linejoin:miter;stroke-width:0.75;" x="564.813957" xlink:href="#ma186a9ac4b" y="96.901205"/>
     <use style="fill:#98df8a;stroke:#ffffff;stroke-linejoin:miter;stroke-width:0.75;" x="569.63668" xlink:href="#ma186a9ac4b" y="94.091293"/>
     <use style="fill:#98df8a;stroke:#ffffff;stroke-linejoin:miter;stroke-width:0.75;" x="574.301252" xlink:href="#ma186a9ac4b" y="93.689877"/>
     <use style="fill:#98df8a;stroke:#ffffff;stroke-linejoin:miter;stroke-width:0.75;" x="578.817717" xlink:href="#ma186a9ac4b" y="93.154656"/>
     <use style="fill:#98df8a;stroke:#ffffff;stroke-linejoin:miter;stroke-width:0.75;" x="583.195191" xlink:href="#ma186a9ac4b" y="92.887045"/>
     <use style="fill:#98df8a;stroke:#ffffff;stroke-linejoin:miter;stroke-width:0.75;" x="587.441975" xlink:href="#ma186a9ac4b" y="92.75324"/>
     <use style="fill:#98df8a;stroke:#ffffff;stroke-linejoin:miter;stroke-width:0.75;" x="591.565646" xlink:href="#ma186a9ac4b" y="92.75324"/>
     <use style="fill:#98df8a;stroke:#ffffff;stroke-linejoin:miter;stroke-width:0.75;" x="595.573142" xlink:href="#ma186a9ac4b" y="92.75324"/>
     <use style="fill:#98df8a;stroke:#ffffff;stroke-linejoin:miter;stroke-width:0.75;" x="599.47083" xlink:href="#ma186a9ac4b" y="91.147576"/>
     <use style="fill:#98df8a;stroke:#ffffff;stroke-linejoin:miter;stroke-width:0.75;" x="603.264566" xlink:href="#ma186a9ac4b" y="91.147576"/>
     <use style="fill:#98df8a;stroke:#ffffff;stroke-linejoin:miter;stroke-width:0.75;" x="606.959753" xlink:href="#ma186a9ac4b" y="91.147576"/>
     <use style="fill:#98df8a;stroke:#ffffff;stroke-linejoin:miter;stroke-width:0.75;" x="610.561381" xlink:href="#ma186a9ac4b" y="91.147576"/>
     <use style="fill:#98df8a;stroke:#ffffff;stroke-linejoin:miter;stroke-width:0.75;" x="614.07407" xlink:href="#ma186a9ac4b" y="91.147576"/>
     <use style="fill:#98df8a;stroke:#ffffff;stroke-linejoin:miter;stroke-width:0.75;" x="617.502108" xlink:href="#ma186a9ac4b" y="91.013771"/>
     <use style="fill:#98df8a;stroke:#ffffff;stroke-linejoin:miter;stroke-width:0.75;" x="620.849479" xlink:href="#ma186a9ac4b" y="91.013771"/>
     <use style="fill:#98df8a;stroke:#ffffff;stroke-linejoin:miter;stroke-width:0.75;" x="624.119892" xlink:href="#ma186a9ac4b" y="91.013771"/>
     <use style="fill:#98df8a;stroke:#ffffff;stroke-linejoin:miter;stroke-width:0.75;" x="627.316806" xlink:href="#ma186a9ac4b" y="90.612355"/>
     <use style="fill:#98df8a;stroke:#ffffff;stroke-linejoin:miter;stroke-width:0.75;" x="630.443453" xlink:href="#ma186a9ac4b" y="90.344744"/>
     <use style="fill:#98df8a;stroke:#ffffff;stroke-linejoin:miter;stroke-width:0.75;" x="633.502855" xlink:href="#ma186a9ac4b" y="90.344744"/>
     <use style="fill:#98df8a;stroke:#ffffff;stroke-linejoin:miter;stroke-width:0.75;" x="636.497843" xlink:href="#ma186a9ac4b" y="90.210939"/>
     <use style="fill:#98df8a;stroke:#ffffff;stroke-linejoin:miter;stroke-width:0.75;" x="639.431075" xlink:href="#ma186a9ac4b" y="90.210939"/>
     <use style="fill:#98df8a;stroke:#ffffff;stroke-linejoin:miter;stroke-width:0.75;" x="642.305045" xlink:href="#ma186a9ac4b" y="90.077134"/>
     <use style="fill:#98df8a;stroke:#ffffff;stroke-linejoin:miter;stroke-width:0.75;" x="645.122101" xlink:href="#ma186a9ac4b" y="89.943329"/>
     <use style="fill:#98df8a;stroke:#ffffff;stroke-linejoin:miter;stroke-width:0.75;" x="647.884454" xlink:href="#ma186a9ac4b" y="89.006691"/>
     <use style="fill:#98df8a;stroke:#ffffff;stroke-linejoin:miter;stroke-width:0.75;" x="650.594187" xlink:href="#ma186a9ac4b" y="89.006691"/>
     <use style="fill:#98df8a;stroke:#ffffff;stroke-linejoin:miter;stroke-width:0.75;" x="653.253268" xlink:href="#ma186a9ac4b" y="89.006691"/>
     <use style="fill:#98df8a;stroke:#ffffff;stroke-linejoin:miter;stroke-width:0.75;" x="655.863556" xlink:href="#ma186a9ac4b" y="89.006691"/>
     <use style="fill:#98df8a;stroke:#ffffff;stroke-linejoin:miter;stroke-width:0.75;" x="658.426809" xlink:href="#ma186a9ac4b" y="89.006691"/>
     <use style="fill:#98df8a;stroke:#ffffff;stroke-linejoin:miter;stroke-width:0.75;" x="660.944693" xlink:href="#ma186a9ac4b" y="89.006691"/>
     <use style="fill:#98df8a;stroke:#ffffff;stroke-linejoin:miter;stroke-width:0.75;" x="663.418785" xlink:href="#ma186a9ac4b" y="89.006691"/>
     <use style="fill:#98df8a;stroke:#ffffff;stroke-linejoin:miter;stroke-width:0.75;" x="665.850582" xlink:href="#ma186a9ac4b" y="89.006691"/>
     <use style="fill:#98df8a;stroke:#ffffff;stroke-linejoin:miter;stroke-width:0.75;" x="668.241507" xlink:href="#ma186a9ac4b" y="89.006691"/>
     <use style="fill:#98df8a;stroke:#ffffff;stroke-linejoin:miter;stroke-width:0.75;" x="670.592911" xlink:href="#ma186a9ac4b" y="89.006691"/>
     <use style="fill:#98df8a;stroke:#ffffff;stroke-linejoin:miter;stroke-width:0.75;" x="672.906079" xlink:href="#ma186a9ac4b" y="88.739081"/>
     <use style="fill:#98df8a;stroke:#ffffff;stroke-linejoin:miter;stroke-width:0.75;" x="675.182235" xlink:href="#ma186a9ac4b" y="86.598196"/>
     <use style="fill:#98df8a;stroke:#ffffff;stroke-linejoin:miter;stroke-width:0.75;" x="677.422544" xlink:href="#ma186a9ac4b" y="86.330585"/>
     <use style="fill:#98df8a;stroke:#ffffff;stroke-linejoin:miter;stroke-width:0.75;" x="679.628118" xlink:href="#ma186a9ac4b" y="86.330585"/>
     <use style="fill:#98df8a;stroke:#ffffff;stroke-linejoin:miter;stroke-width:0.75;" x="681.800019" xlink:href="#ma186a9ac4b" y="86.330585"/>
     <use style="fill:#98df8a;stroke:#ffffff;stroke-linejoin:miter;stroke-width:0.75;" x="683.939257" xlink:href="#ma186a9ac4b" y="86.19678"/>
     <use style="fill:#98df8a;stroke:#ffffff;stroke-linejoin:miter;stroke-width:0.75;" x="686.046802" xlink:href="#ma186a9ac4b" y="86.19678"/>
     <use style="fill:#98df8a;stroke:#ffffff;stroke-linejoin:miter;stroke-width:0.75;" x="688.123579" xlink:href="#ma186a9ac4b" y="86.19678"/>
     <use style="fill:#98df8a;stroke:#ffffff;stroke-linejoin:miter;stroke-width:0.75;" x="690.170474" xlink:href="#ma186a9ac4b" y="85.126337"/>
     <use style="fill:#98df8a;stroke:#ffffff;stroke-linejoin:miter;stroke-width:0.75;" x="692.188333" xlink:href="#ma186a9ac4b" y="84.724921"/>
     <use style="fill:#98df8a;stroke:#ffffff;stroke-linejoin:miter;stroke-width:0.75;" x="694.177969" xlink:href="#ma186a9ac4b" y="84.591116"/>
     <use style="fill:#98df8a;stroke:#ffffff;stroke-linejoin:miter;stroke-width:0.75;" x="696.140162" xlink:href="#ma186a9ac4b" y="84.591116"/>
     <use style="fill:#98df8a;stroke:#ffffff;stroke-linejoin:miter;stroke-width:0.75;" x="698.075657" xlink:href="#ma186a9ac4b" y="84.323506"/>
     <use style="fill:#98df8a;stroke:#ffffff;stroke-linejoin:miter;stroke-width:0.75;" x="699.985172" xlink:href="#ma186a9ac4b" y="84.323506"/>
     <use style="fill:#98df8a;stroke:#ffffff;stroke-linejoin:miter;stroke-width:0.75;" x="701.869394" xlink:href="#ma186a9ac4b" y="84.323506"/>
     <use style="fill:#98df8a;stroke:#ffffff;stroke-linejoin:miter;stroke-width:0.75;" x="703.728985" xlink:href="#ma186a9ac4b" y="83.92209"/>
     <use style="fill:#98df8a;stroke:#ffffff;stroke-linejoin:miter;stroke-width:0.75;" x="705.564581" xlink:href="#ma186a9ac4b" y="83.92209"/>
     <use style="fill:#98df8a;stroke:#ffffff;stroke-linejoin:miter;stroke-width:0.75;" x="707.376792" xlink:href="#ma186a9ac4b" y="83.92209"/>
     <use style="fill:#98df8a;stroke:#ffffff;stroke-linejoin:miter;stroke-width:0.75;" x="709.166208" xlink:href="#ma186a9ac4b" y="83.788284"/>
     <use style="fill:#98df8a;stroke:#ffffff;stroke-linejoin:miter;stroke-width:0.75;" x="710.933395" xlink:href="#ma186a9ac4b" y="83.788284"/>
     <use style="fill:#98df8a;stroke:#ffffff;stroke-linejoin:miter;stroke-width:0.75;" x="712.678898" xlink:href="#ma186a9ac4b" y="83.788284"/>
     <use style="fill:#98df8a;stroke:#ffffff;stroke-linejoin:miter;stroke-width:0.75;" x="714.403242" xlink:href="#ma186a9ac4b" y="83.788284"/>
     <use style="fill:#98df8a;stroke:#ffffff;stroke-linejoin:miter;stroke-width:0.75;" x="716.106936" xlink:href="#ma186a9ac4b" y="83.520674"/>
     <use style="fill:#98df8a;stroke:#ffffff;stroke-linejoin:miter;stroke-width:0.75;" x="717.790467" xlink:href="#ma186a9ac4b" y="83.520674"/>
     <use style="fill:#98df8a;stroke:#ffffff;stroke-linejoin:miter;stroke-width:0.75;" x="719.454307" xlink:href="#ma186a9ac4b" y="83.520674"/>
     <use style="fill:#98df8a;stroke:#ffffff;stroke-linejoin:miter;stroke-width:0.75;" x="721.098911" xlink:href="#ma186a9ac4b" y="83.520674"/>
     <use style="fill:#98df8a;stroke:#ffffff;stroke-linejoin:miter;stroke-width:0.75;" x="722.724719" xlink:href="#ma186a9ac4b" y="83.520674"/>
     <use style="fill:#98df8a;stroke:#ffffff;stroke-linejoin:miter;stroke-width:0.75;" x="724.332157" xlink:href="#ma186a9ac4b" y="83.520674"/>
     <use style="fill:#98df8a;stroke:#ffffff;stroke-linejoin:miter;stroke-width:0.75;" x="725.921634" xlink:href="#ma186a9ac4b" y="83.386868"/>
     <use style="fill:#98df8a;stroke:#ffffff;stroke-linejoin:miter;stroke-width:0.75;" x="727.493547" xlink:href="#ma186a9ac4b" y="83.386868"/>
     <use style="fill:#98df8a;stroke:#ffffff;stroke-linejoin:miter;stroke-width:0.75;" x="729.04828" xlink:href="#ma186a9ac4b" y="81.245983"/>
     <use style="fill:#98df8a;stroke:#ffffff;stroke-linejoin:miter;stroke-width:0.75;" x="730.586206" xlink:href="#ma186a9ac4b" y="81.245983"/>
     <use style="fill:#98df8a;stroke:#ffffff;stroke-linejoin:miter;stroke-width:0.75;" x="732.107682" xlink:href="#ma186a9ac4b" y="81.245983"/>
     <use style="fill:#98df8a;stroke:#ffffff;stroke-linejoin:miter;stroke-width:0.75;" x="733.613058" xlink:href="#ma186a9ac4b" y="81.245983"/>
     <use style="fill:#98df8a;stroke:#ffffff;stroke-linejoin:miter;stroke-width:0.75;" x="735.10267" xlink:href="#ma186a9ac4b" y="81.112178"/>
    </g>
   </g>
   <g id="line2d_36">
    <path clip-path="url(#p8215094d57)" d="M 85.79358 190.297311 
L 184.398407 177.452001 
L 242.078533 175.043506 
L 283.003234 170.494125 
L 314.746899 166.34616 
L 340.683361 165.543329 
L 362.612327 163.536249 
L 381.608062 163.001028 
L 398.363487 161.930585 
L 413.351726 160.458727 
L 426.910237 160.057311 
L 439.288188 159.7897 
L 450.674799 159.254479 
L 461.217155 159.120674 
L 471.031852 157.113594 
L 480.212889 156.578373 
L 488.837148 156.444567 
L 496.968315 156.310762 
L 504.659739 156.310762 
L 511.956553 152.296603 
L 518.897281 150.824744 
L 525.515065 150.021913 
L 531.838626 149.888107 
L 537.893016 149.620497 
L 543.700218 149.620497 
L 549.279627 149.085275 
L 554.648441 149.085275 
L 559.821982 149.085275 
L 564.813957 149.085275 
L 569.63668 149.085275 
L 574.301252 149.085275 
L 578.817717 148.817665 
L 583.195191 148.817665 
L 587.441975 148.817665 
L 591.565646 148.416249 
L 595.573142 148.416249 
L 599.47083 148.014833 
L 603.264566 148.014833 
L 606.959753 148.014833 
L 610.561381 148.014833 
L 614.07407 147.613417 
L 617.502108 147.613417 
L 620.849479 147.613417 
L 624.119892 147.613417 
L 627.316806 145.740143 
L 630.443453 145.740143 
L 633.502855 145.740143 
L 636.497843 145.740143 
L 639.431075 145.740143 
L 642.305045 145.740143 
L 645.122101 145.071116 
L 647.884454 145.071116 
L 650.594187 145.071116 
L 653.253268 145.071116 
L 655.863556 145.071116 
L 658.426809 145.071116 
L 660.944693 143.866868 
L 663.418785 143.599258 
L 665.850582 143.599258 
L 668.241507 143.599258 
L 670.592911 143.331647 
L 672.906079 143.331647 
L 675.182235 142.796426 
L 677.422544 142.796426 
L 679.628118 142.796426 
L 681.800019 142.796426 
L 683.939257 142.796426 
L 686.046802 142.796426 
L 688.123579 142.796426 
L 690.170474 142.261205 
L 692.188333 142.261205 
L 694.177969 142.127399 
L 696.140162 142.127399 
L 698.075657 142.127399 
L 699.985172 142.127399 
L 701.869394 142.127399 
L 703.728985 142.127399 
L 705.564581 142.127399 
L 707.376792 142.127399 
L 709.166208 141.993594 
L 710.933395 141.993594 
L 712.678898 141.993594 
L 714.403242 141.993594 
L 716.106936 141.993594 
L 717.790467 141.993594 
L 719.454307 140.923152 
L 721.098911 140.923152 
L 722.724719 140.923152 
L 724.332157 140.923152 
L 725.921634 140.789346 
L 727.493547 140.789346 
L 729.04828 140.789346 
L 730.586206 140.789346 
L 732.107682 140.789346 
L 733.613058 88.20386 
L 735.10267 88.20386 
" style="fill:none;stroke:#1f77b4;stroke-linecap:square;stroke-width:1.5;"/>
    <defs>
     <path d="M 0 3 
C 0.795609 3 1.55874 2.683901 2.12132 2.12132 
C 2.683901 1.55874 3 0.795609 3 0 
C 3 -0.795609 2.683901 -1.55874 2.12132 -2.12132 
C 1.55874 -2.683901 0.795609 -3 0 -3 
C -0.795609 -3 -1.55874 -2.683901 -2.12132 -2.12132 
C -2.683901 -1.55874 -3 -0.795609 -3 0 
C -3 0.795609 -2.683901 1.55874 -2.12132 2.12132 
C -1.55874 2.683901 -0.795609 3 0 3 
z
" id="m6fddca0c6d" style="stroke:#ffffff;stroke-width:0.75;"/>
    </defs>
    <g clip-path="url(#p8215094d57)">
     <use style="fill:#1f77b4;stroke:#ffffff;stroke-width:0.75;" x="85.79358" xlink:href="#m6fddca0c6d" y="190.297311"/>
     <use style="fill:#1f77b4;stroke:#ffffff;stroke-width:0.75;" x="184.398407" xlink:href="#m6fddca0c6d" y="177.452001"/>
     <use style="fill:#1f77b4;stroke:#ffffff;stroke-width:0.75;" x="242.078533" xlink:href="#m6fddca0c6d" y="175.043506"/>
     <use style="fill:#1f77b4;stroke:#ffffff;stroke-width:0.75;" x="283.003234" xlink:href="#m6fddca0c6d" y="170.494125"/>
     <use style="fill:#1f77b4;stroke:#ffffff;stroke-width:0.75;" x="314.746899" xlink:href="#m6fddca0c6d" y="166.34616"/>
     <use style="fill:#1f77b4;stroke:#ffffff;stroke-width:0.75;" x="340.683361" xlink:href="#m6fddca0c6d" y="165.543329"/>
     <use style="fill:#1f77b4;stroke:#ffffff;stroke-width:0.75;" x="362.612327" xlink:href="#m6fddca0c6d" y="163.536249"/>
     <use style="fill:#1f77b4;stroke:#ffffff;stroke-width:0.75;" x="381.608062" xlink:href="#m6fddca0c6d" y="163.001028"/>
     <use style="fill:#1f77b4;stroke:#ffffff;stroke-width:0.75;" x="398.363487" xlink:href="#m6fddca0c6d" y="161.930585"/>
     <use style="fill:#1f77b4;stroke:#ffffff;stroke-width:0.75;" x="413.351726" xlink:href="#m6fddca0c6d" y="160.458727"/>
     <use style="fill:#1f77b4;stroke:#ffffff;stroke-width:0.75;" x="426.910237" xlink:href="#m6fddca0c6d" y="160.057311"/>
     <use style="fill:#1f77b4;stroke:#ffffff;stroke-width:0.75;" x="439.288188" xlink:href="#m6fddca0c6d" y="159.7897"/>
     <use style="fill:#1f77b4;stroke:#ffffff;stroke-width:0.75;" x="450.674799" xlink:href="#m6fddca0c6d" y="159.254479"/>
     <use style="fill:#1f77b4;stroke:#ffffff;stroke-width:0.75;" x="461.217155" xlink:href="#m6fddca0c6d" y="159.120674"/>
     <use style="fill:#1f77b4;stroke:#ffffff;stroke-width:0.75;" x="471.031852" xlink:href="#m6fddca0c6d" y="157.113594"/>
     <use style="fill:#1f77b4;stroke:#ffffff;stroke-width:0.75;" x="480.212889" xlink:href="#m6fddca0c6d" y="156.578373"/>
     <use style="fill:#1f77b4;stroke:#ffffff;stroke-width:0.75;" x="488.837148" xlink:href="#m6fddca0c6d" y="156.444567"/>
     <use style="fill:#1f77b4;stroke:#ffffff;stroke-width:0.75;" x="496.968315" xlink:href="#m6fddca0c6d" y="156.310762"/>
     <use style="fill:#1f77b4;stroke:#ffffff;stroke-width:0.75;" x="504.659739" xlink:href="#m6fddca0c6d" y="156.310762"/>
     <use style="fill:#1f77b4;stroke:#ffffff;stroke-width:0.75;" x="511.956553" xlink:href="#m6fddca0c6d" y="152.296603"/>
     <use style="fill:#1f77b4;stroke:#ffffff;stroke-width:0.75;" x="518.897281" xlink:href="#m6fddca0c6d" y="150.824744"/>
     <use style="fill:#1f77b4;stroke:#ffffff;stroke-width:0.75;" x="525.515065" xlink:href="#m6fddca0c6d" y="150.021913"/>
     <use style="fill:#1f77b4;stroke:#ffffff;stroke-width:0.75;" x="531.838626" xlink:href="#m6fddca0c6d" y="149.888107"/>
     <use style="fill:#1f77b4;stroke:#ffffff;stroke-width:0.75;" x="537.893016" xlink:href="#m6fddca0c6d" y="149.620497"/>
     <use style="fill:#1f77b4;stroke:#ffffff;stroke-width:0.75;" x="543.700218" xlink:href="#m6fddca0c6d" y="149.620497"/>
     <use style="fill:#1f77b4;stroke:#ffffff;stroke-width:0.75;" x="549.279627" xlink:href="#m6fddca0c6d" y="149.085275"/>
     <use style="fill:#1f77b4;stroke:#ffffff;stroke-width:0.75;" x="554.648441" xlink:href="#m6fddca0c6d" y="149.085275"/>
     <use style="fill:#1f77b4;stroke:#ffffff;stroke-width:0.75;" x="559.821982" xlink:href="#m6fddca0c6d" y="149.085275"/>
     <use style="fill:#1f77b4;stroke:#ffffff;stroke-width:0.75;" x="564.813957" xlink:href="#m6fddca0c6d" y="149.085275"/>
     <use style="fill:#1f77b4;stroke:#ffffff;stroke-width:0.75;" x="569.63668" xlink:href="#m6fddca0c6d" y="149.085275"/>
     <use style="fill:#1f77b4;stroke:#ffffff;stroke-width:0.75;" x="574.301252" xlink:href="#m6fddca0c6d" y="149.085275"/>
     <use style="fill:#1f77b4;stroke:#ffffff;stroke-width:0.75;" x="578.817717" xlink:href="#m6fddca0c6d" y="148.817665"/>
     <use style="fill:#1f77b4;stroke:#ffffff;stroke-width:0.75;" x="583.195191" xlink:href="#m6fddca0c6d" y="148.817665"/>
     <use style="fill:#1f77b4;stroke:#ffffff;stroke-width:0.75;" x="587.441975" xlink:href="#m6fddca0c6d" y="148.817665"/>
     <use style="fill:#1f77b4;stroke:#ffffff;stroke-width:0.75;" x="591.565646" xlink:href="#m6fddca0c6d" y="148.416249"/>
     <use style="fill:#1f77b4;stroke:#ffffff;stroke-width:0.75;" x="595.573142" xlink:href="#m6fddca0c6d" y="148.416249"/>
     <use style="fill:#1f77b4;stroke:#ffffff;stroke-width:0.75;" x="599.47083" xlink:href="#m6fddca0c6d" y="148.014833"/>
     <use style="fill:#1f77b4;stroke:#ffffff;stroke-width:0.75;" x="603.264566" xlink:href="#m6fddca0c6d" y="148.014833"/>
     <use style="fill:#1f77b4;stroke:#ffffff;stroke-width:0.75;" x="606.959753" xlink:href="#m6fddca0c6d" y="148.014833"/>
     <use style="fill:#1f77b4;stroke:#ffffff;stroke-width:0.75;" x="610.561381" xlink:href="#m6fddca0c6d" y="148.014833"/>
     <use style="fill:#1f77b4;stroke:#ffffff;stroke-width:0.75;" x="614.07407" xlink:href="#m6fddca0c6d" y="147.613417"/>
     <use style="fill:#1f77b4;stroke:#ffffff;stroke-width:0.75;" x="617.502108" xlink:href="#m6fddca0c6d" y="147.613417"/>
     <use style="fill:#1f77b4;stroke:#ffffff;stroke-width:0.75;" x="620.849479" xlink:href="#m6fddca0c6d" y="147.613417"/>
     <use style="fill:#1f77b4;stroke:#ffffff;stroke-width:0.75;" x="624.119892" xlink:href="#m6fddca0c6d" y="147.613417"/>
     <use style="fill:#1f77b4;stroke:#ffffff;stroke-width:0.75;" x="627.316806" xlink:href="#m6fddca0c6d" y="145.740143"/>
     <use style="fill:#1f77b4;stroke:#ffffff;stroke-width:0.75;" x="630.443453" xlink:href="#m6fddca0c6d" y="145.740143"/>
     <use style="fill:#1f77b4;stroke:#ffffff;stroke-width:0.75;" x="633.502855" xlink:href="#m6fddca0c6d" y="145.740143"/>
     <use style="fill:#1f77b4;stroke:#ffffff;stroke-width:0.75;" x="636.497843" xlink:href="#m6fddca0c6d" y="145.740143"/>
     <use style="fill:#1f77b4;stroke:#ffffff;stroke-width:0.75;" x="639.431075" xlink:href="#m6fddca0c6d" y="145.740143"/>
     <use style="fill:#1f77b4;stroke:#ffffff;stroke-width:0.75;" x="642.305045" xlink:href="#m6fddca0c6d" y="145.740143"/>
     <use style="fill:#1f77b4;stroke:#ffffff;stroke-width:0.75;" x="645.122101" xlink:href="#m6fddca0c6d" y="145.071116"/>
     <use style="fill:#1f77b4;stroke:#ffffff;stroke-width:0.75;" x="647.884454" xlink:href="#m6fddca0c6d" y="145.071116"/>
     <use style="fill:#1f77b4;stroke:#ffffff;stroke-width:0.75;" x="650.594187" xlink:href="#m6fddca0c6d" y="145.071116"/>
     <use style="fill:#1f77b4;stroke:#ffffff;stroke-width:0.75;" x="653.253268" xlink:href="#m6fddca0c6d" y="145.071116"/>
     <use style="fill:#1f77b4;stroke:#ffffff;stroke-width:0.75;" x="655.863556" xlink:href="#m6fddca0c6d" y="145.071116"/>
     <use style="fill:#1f77b4;stroke:#ffffff;stroke-width:0.75;" x="658.426809" xlink:href="#m6fddca0c6d" y="145.071116"/>
     <use style="fill:#1f77b4;stroke:#ffffff;stroke-width:0.75;" x="660.944693" xlink:href="#m6fddca0c6d" y="143.866868"/>
     <use style="fill:#1f77b4;stroke:#ffffff;stroke-width:0.75;" x="663.418785" xlink:href="#m6fddca0c6d" y="143.599258"/>
     <use style="fill:#1f77b4;stroke:#ffffff;stroke-width:0.75;" x="665.850582" xlink:href="#m6fddca0c6d" y="143.599258"/>
     <use style="fill:#1f77b4;stroke:#ffffff;stroke-width:0.75;" x="668.241507" xlink:href="#m6fddca0c6d" y="143.599258"/>
     <use style="fill:#1f77b4;stroke:#ffffff;stroke-width:0.75;" x="670.592911" xlink:href="#m6fddca0c6d" y="143.331647"/>
     <use style="fill:#1f77b4;stroke:#ffffff;stroke-width:0.75;" x="672.906079" xlink:href="#m6fddca0c6d" y="143.331647"/>
     <use style="fill:#1f77b4;stroke:#ffffff;stroke-width:0.75;" x="675.182235" xlink:href="#m6fddca0c6d" y="142.796426"/>
     <use style="fill:#1f77b4;stroke:#ffffff;stroke-width:0.75;" x="677.422544" xlink:href="#m6fddca0c6d" y="142.796426"/>
     <use style="fill:#1f77b4;stroke:#ffffff;stroke-width:0.75;" x="679.628118" xlink:href="#m6fddca0c6d" y="142.796426"/>
     <use style="fill:#1f77b4;stroke:#ffffff;stroke-width:0.75;" x="681.800019" xlink:href="#m6fddca0c6d" y="142.796426"/>
     <use style="fill:#1f77b4;stroke:#ffffff;stroke-width:0.75;" x="683.939257" xlink:href="#m6fddca0c6d" y="142.796426"/>
     <use style="fill:#1f77b4;stroke:#ffffff;stroke-width:0.75;" x="686.046802" xlink:href="#m6fddca0c6d" y="142.796426"/>
     <use style="fill:#1f77b4;stroke:#ffffff;stroke-width:0.75;" x="688.123579" xlink:href="#m6fddca0c6d" y="142.796426"/>
     <use style="fill:#1f77b4;stroke:#ffffff;stroke-width:0.75;" x="690.170474" xlink:href="#m6fddca0c6d" y="142.261205"/>
     <use style="fill:#1f77b4;stroke:#ffffff;stroke-width:0.75;" x="692.188333" xlink:href="#m6fddca0c6d" y="142.261205"/>
     <use style="fill:#1f77b4;stroke:#ffffff;stroke-width:0.75;" x="694.177969" xlink:href="#m6fddca0c6d" y="142.127399"/>
     <use style="fill:#1f77b4;stroke:#ffffff;stroke-width:0.75;" x="696.140162" xlink:href="#m6fddca0c6d" y="142.127399"/>
     <use style="fill:#1f77b4;stroke:#ffffff;stroke-width:0.75;" x="698.075657" xlink:href="#m6fddca0c6d" y="142.127399"/>
     <use style="fill:#1f77b4;stroke:#ffffff;stroke-width:0.75;" x="699.985172" xlink:href="#m6fddca0c6d" y="142.127399"/>
     <use style="fill:#1f77b4;stroke:#ffffff;stroke-width:0.75;" x="701.869394" xlink:href="#m6fddca0c6d" y="142.127399"/>
     <use style="fill:#1f77b4;stroke:#ffffff;stroke-width:0.75;" x="703.728985" xlink:href="#m6fddca0c6d" y="142.127399"/>
     <use style="fill:#1f77b4;stroke:#ffffff;stroke-width:0.75;" x="705.564581" xlink:href="#m6fddca0c6d" y="142.127399"/>
     <use style="fill:#1f77b4;stroke:#ffffff;stroke-width:0.75;" x="707.376792" xlink:href="#m6fddca0c6d" y="142.127399"/>
     <use style="fill:#1f77b4;stroke:#ffffff;stroke-width:0.75;" x="709.166208" xlink:href="#m6fddca0c6d" y="141.993594"/>
     <use style="fill:#1f77b4;stroke:#ffffff;stroke-width:0.75;" x="710.933395" xlink:href="#m6fddca0c6d" y="141.993594"/>
     <use style="fill:#1f77b4;stroke:#ffffff;stroke-width:0.75;" x="712.678898" xlink:href="#m6fddca0c6d" y="141.993594"/>
     <use style="fill:#1f77b4;stroke:#ffffff;stroke-width:0.75;" x="714.403242" xlink:href="#m6fddca0c6d" y="141.993594"/>
     <use style="fill:#1f77b4;stroke:#ffffff;stroke-width:0.75;" x="716.106936" xlink:href="#m6fddca0c6d" y="141.993594"/>
     <use style="fill:#1f77b4;stroke:#ffffff;stroke-width:0.75;" x="717.790467" xlink:href="#m6fddca0c6d" y="141.993594"/>
     <use style="fill:#1f77b4;stroke:#ffffff;stroke-width:0.75;" x="719.454307" xlink:href="#m6fddca0c6d" y="140.923152"/>
     <use style="fill:#1f77b4;stroke:#ffffff;stroke-width:0.75;" x="721.098911" xlink:href="#m6fddca0c6d" y="140.923152"/>
     <use style="fill:#1f77b4;stroke:#ffffff;stroke-width:0.75;" x="722.724719" xlink:href="#m6fddca0c6d" y="140.923152"/>
     <use style="fill:#1f77b4;stroke:#ffffff;stroke-width:0.75;" x="724.332157" xlink:href="#m6fddca0c6d" y="140.923152"/>
     <use style="fill:#1f77b4;stroke:#ffffff;stroke-width:0.75;" x="725.921634" xlink:href="#m6fddca0c6d" y="140.789346"/>
     <use style="fill:#1f77b4;stroke:#ffffff;stroke-width:0.75;" x="727.493547" xlink:href="#m6fddca0c6d" y="140.789346"/>
     <use style="fill:#1f77b4;stroke:#ffffff;stroke-width:0.75;" x="729.04828" xlink:href="#m6fddca0c6d" y="140.789346"/>
     <use style="fill:#1f77b4;stroke:#ffffff;stroke-width:0.75;" x="730.586206" xlink:href="#m6fddca0c6d" y="140.789346"/>
     <use style="fill:#1f77b4;stroke:#ffffff;stroke-width:0.75;" x="732.107682" xlink:href="#m6fddca0c6d" y="140.789346"/>
     <use style="fill:#1f77b4;stroke:#ffffff;stroke-width:0.75;" x="733.613058" xlink:href="#m6fddca0c6d" y="88.20386"/>
     <use style="fill:#1f77b4;stroke:#ffffff;stroke-width:0.75;" x="735.10267" xlink:href="#m6fddca0c6d" y="88.20386"/>
    </g>
   </g>
   <g id="line2d_37"/>
   <g id="line2d_38"/>
   <g id="line2d_39">
    <path clip-path="url(#p8215094d57)" d="M 735.10267 288.430125 
L 735.10267 22.318125 
" style="fill:none;stroke:#ff0000;stroke-linecap:square;stroke-width:1.5;"/>
   </g>
   <g id="patch_3">
    <path d="M 53.328125 248.502621 
L 53.328125 34.414125 
" style="fill:none;stroke:#000000;stroke-linecap:square;stroke-linejoin:miter;stroke-width:0.8;"/>
   </g>
   <g id="patch_4">
    <path d="M 85.79358 288.430125 
L 735.104317 288.430125 
" style="fill:none;stroke:#000000;stroke-linecap:square;stroke-linejoin:miter;stroke-width:0.8;"/>
   </g>
   <g id="text_20">
    <!-- harfbuzz-1.3.2 (24h, 2 trials/fuzzer) -->
    <g transform="translate(304.1375 16.318125)scale(0.12 -0.12)">
     <defs>
      <path d="M 37.109375 75.984375 
L 37.109375 68.5 
L 28.515625 68.5 
Q 23.6875 68.5 21.796875 66.546875 
Q 19.921875 64.59375 19.921875 59.515625 
L 19.921875 54.6875 
L 34.71875 54.6875 
L 34.71875 47.703125 
L 19.921875 47.703125 
L 19.921875 0 
L 10.890625 0 
L 10.890625 47.703125 
L 2.296875 47.703125 
L 2.296875 54.6875 
L 10.890625 54.6875 
L 10.890625 58.5 
Q 10.890625 67.625 15.140625 71.796875 
Q 19.390625 75.984375 28.609375 75.984375 
z
" id="DejaVuSans-102"/>
      <path d="M 48.6875 27.296875 
Q 48.6875 37.203125 44.609375 42.84375 
Q 40.53125 48.484375 33.40625 48.484375 
Q 26.265625 48.484375 22.1875 42.84375 
Q 18.109375 37.203125 18.109375 27.296875 
Q 18.109375 17.390625 22.1875 11.75 
Q 26.265625 6.109375 33.40625 6.109375 
Q 40.53125 6.109375 44.609375 11.75 
Q 48.6875 17.390625 48.6875 27.296875 
z
M 18.109375 46.390625 
Q 20.953125 51.265625 25.265625 53.625 
Q 29.59375 56 35.59375 56 
Q 45.5625 56 51.78125 48.09375 
Q 58.015625 40.1875 58.015625 27.296875 
Q 58.015625 14.40625 51.78125 6.484375 
Q 45.5625 -1.421875 35.59375 -1.421875 
Q 29.59375 -1.421875 25.265625 0.953125 
Q 20.953125 3.328125 18.109375 8.203125 
L 18.109375 0 
L 9.078125 0 
L 9.078125 75.984375 
L 18.109375 75.984375 
z
" id="DejaVuSans-98"/>
      <path d="M 5.515625 54.6875 
L 48.1875 54.6875 
L 48.1875 46.484375 
L 14.40625 7.171875 
L 48.1875 7.171875 
L 48.1875 0 
L 4.296875 0 
L 4.296875 8.203125 
L 38.09375 47.515625 
L 5.515625 47.515625 
z
" id="DejaVuSans-122"/>
      <path d="M 4.890625 31.390625 
L 31.203125 31.390625 
L 31.203125 23.390625 
L 4.890625 23.390625 
z
" id="DejaVuSans-45"/>
      <path d="M 10.6875 12.40625 
L 21 12.40625 
L 21 0 
L 10.6875 0 
z
" id="DejaVuSans-46"/>
      <path d="M 11.71875 12.40625 
L 22.015625 12.40625 
L 22.015625 4 
L 14.015625 -11.625 
L 7.71875 -11.625 
L 11.71875 4 
z
" id="DejaVuSans-44"/>
      <path d="M 9.421875 75.984375 
L 18.40625 75.984375 
L 18.40625 0 
L 9.421875 0 
z
" id="DejaVuSans-108"/>
      <path d="M 44.28125 53.078125 
L 44.28125 44.578125 
Q 40.484375 46.53125 36.375 47.5 
Q 32.28125 48.484375 27.875 48.484375 
Q 21.1875 48.484375 17.84375 46.4375 
Q 14.5 44.390625 14.5 40.28125 
Q 14.5 37.15625 16.890625 35.375 
Q 19.28125 33.59375 26.515625 31.984375 
L 29.59375 31.296875 
Q 39.15625 29.25 43.1875 25.515625 
Q 47.21875 21.78125 47.21875 15.09375 
Q 47.21875 7.46875 41.1875 3.015625 
Q 35.15625 -1.421875 24.609375 -1.421875 
Q 20.21875 -1.421875 15.453125 -0.5625 
Q 10.6875 0.296875 5.421875 2 
L 5.421875 11.28125 
Q 10.40625 8.6875 15.234375 7.390625 
Q 20.0625 6.109375 24.8125 6.109375 
Q 31.15625 6.109375 34.5625 8.28125 
Q 37.984375 10.453125 37.984375 14.40625 
Q 37.984375 18.0625 35.515625 20.015625 
Q 33.0625 21.96875 24.703125 23.78125 
L 21.578125 24.515625 
Q 13.234375 26.265625 9.515625 29.90625 
Q 5.8125 33.546875 5.8125 39.890625 
Q 5.8125 47.609375 11.28125 51.796875 
Q 16.75 56 26.8125 56 
Q 31.78125 56 36.171875 55.265625 
Q 40.578125 54.546875 44.28125 53.078125 
z
" id="DejaVuSans-115"/>
      <path d="M 25.390625 72.90625 
L 33.6875 72.90625 
L 8.296875 -9.28125 
L 0 -9.28125 
z
" id="DejaVuSans-47"/>
     </defs>
     <use xlink:href="#DejaVuSans-104"/>
     <use x="63.378906" xlink:href="#DejaVuSans-97"/>
     <use x="124.658203" xlink:href="#DejaVuSans-114"/>
     <use x="165.771484" xlink:href="#DejaVuSans-102"/>
     <use x="200.976562" xlink:href="#DejaVuSans-98"/>
     <use x="264.453125" xlink:href="#DejaVuSans-117"/>
     <use x="327.832031" xlink:href="#DejaVuSans-122"/>
     <use x="380.322266" xlink:href="#DejaVuSans-122"/>
     <use x="432.8125" xlink:href="#DejaVuSans-45"/>
     <use x="468.896484" xlink:href="#DejaVuSans-49"/>
     <use x="532.519531" xlink:href="#DejaVuSans-46"/>
     <use x="564.306641" xlink:href="#DejaVuSans-51"/>
     <use x="627.929688" xlink:href="#DejaVuSans-46"/>
     <use x="659.716797" xlink:href="#DejaVuSans-50"/>
     <use x="723.339844" xlink:href="#DejaVuSans-32"/>
     <use x="755.126953" xlink:href="#DejaVuSans-40"/>
     <use x="794.140625" xlink:href="#DejaVuSans-50"/>
     <use x="857.763672" xlink:href="#DejaVuSans-52"/>
     <use x="921.386719" xlink:href="#DejaVuSans-104"/>
     <use x="984.765625" xlink:href="#DejaVuSans-44"/>
     <use x="1016.552734" xlink:href="#DejaVuSans-32"/>
     <use x="1048.339844" xlink:href="#DejaVuSans-50"/>
     <use x="1111.962891" xlink:href="#DejaVuSans-32"/>
     <use x="1143.75" xlink:href="#DejaVuSans-116"/>
     <use x="1182.958984" xlink:href="#DejaVuSans-114"/>
     <use x="1224.072266" xlink:href="#DejaVuSans-105"/>
     <use x="1251.855469" xlink:href="#DejaVuSans-97"/>
     <use x="1313.134766" xlink:href="#DejaVuSans-108"/>
     <use x="1340.917969" xlink:href="#DejaVuSans-115"/>
     <use x="1393.017578" xlink:href="#DejaVuSans-47"/>
     <use x="1426.708984" xlink:href="#DejaVuSans-102"/>
     <use x="1461.914062" xlink:href="#DejaVuSans-117"/>
     <use x="1525.292969" xlink:href="#DejaVuSans-122"/>
     <use x="1577.783203" xlink:href="#DejaVuSans-122"/>
     <use x="1630.273438" xlink:href="#DejaVuSans-101"/>
     <use x="1691.796875" xlink:href="#DejaVuSans-114"/>
     <use x="1732.910156" xlink:href="#DejaVuSans-41"/>
    </g>
   </g>
   <g id="legend_1">
    <g id="line2d_40">
     <path d="M 771.568125 30.416562 
L 791.568125 30.416562 
" style="fill:none;stroke:#98df8a;stroke-linecap:square;stroke-width:1.5;"/>
    </g>
    <g id="line2d_41">
     <defs>
      <path d="M -0 3 
L 3 -3 
L -3 -3 
z
" id="mde73c1a3c5" style="stroke:#98df8a;stroke-linejoin:miter;"/>
     </defs>
     <g>
      <use style="fill:#98df8a;stroke:#98df8a;stroke-linejoin:miter;" x="781.568125" xlink:href="#mde73c1a3c5" y="30.416562"/>
     </g>
    </g>
    <g id="text_21">
     <!-- jigsaw_new -->
     <g transform="translate(799.568125 33.916562)scale(0.1 -0.1)">
      <defs>
       <path d="M 9.421875 54.6875 
L 18.40625 54.6875 
L 18.40625 -0.984375 
Q 18.40625 -11.421875 14.421875 -16.109375 
Q 10.453125 -20.796875 1.609375 -20.796875 
L -1.8125 -20.796875 
L -1.8125 -13.1875 
L 0.59375 -13.1875 
Q 5.71875 -13.1875 7.5625 -10.8125 
Q 9.421875 -8.453125 9.421875 -0.984375 
z
M 9.421875 75.984375 
L 18.40625 75.984375 
L 18.40625 64.59375 
L 9.421875 64.59375 
z
" id="DejaVuSans-106"/>
       <path d="M 4.203125 54.6875 
L 13.1875 54.6875 
L 24.421875 12.015625 
L 35.59375 54.6875 
L 46.1875 54.6875 
L 57.421875 12.015625 
L 68.609375 54.6875 
L 77.59375 54.6875 
L 63.28125 0 
L 52.6875 0 
L 40.921875 44.828125 
L 29.109375 0 
L 18.5 0 
z
" id="DejaVuSans-119"/>
       <path d="M 50.984375 -16.609375 
L 50.984375 -23.578125 
L -0.984375 -23.578125 
L -0.984375 -16.609375 
z
" id="DejaVuSans-95"/>
      </defs>
      <use xlink:href="#DejaVuSans-106"/>
      <use x="27.783203" xlink:href="#DejaVuSans-105"/>
      <use x="55.566406" xlink:href="#DejaVuSans-103"/>
      <use x="119.042969" xlink:href="#DejaVuSans-115"/>
      <use x="171.142578" xlink:href="#DejaVuSans-97"/>
      <use x="232.421875" xlink:href="#DejaVuSans-119"/>
      <use x="314.208984" xlink:href="#DejaVuSans-95"/>
      <use x="364.208984" xlink:href="#DejaVuSans-110"/>
      <use x="427.587891" xlink:href="#DejaVuSans-101"/>
      <use x="489.111328" xlink:href="#DejaVuSans-119"/>
     </g>
    </g>
    <g id="line2d_42">
     <path d="M 771.568125 45.372813 
L 791.568125 45.372813 
" style="fill:none;stroke:#1f77b4;stroke-linecap:square;stroke-width:1.5;"/>
    </g>
    <g id="line2d_43">
     <defs>
      <path d="M 0 3 
C 0.795609 3 1.55874 2.683901 2.12132 2.12132 
C 2.683901 1.55874 3 0.795609 3 0 
C 3 -0.795609 2.683901 -1.55874 2.12132 -2.12132 
C 1.55874 -2.683901 0.795609 -3 0 -3 
C -0.795609 -3 -1.55874 -2.683901 -2.12132 -2.12132 
C -2.683901 -1.55874 -3 -0.795609 -3 0 
C -3 0.795609 -2.683901 1.55874 -2.12132 2.12132 
C -1.55874 2.683901 -0.795609 3 0 3 
z
" id="m3e23e3ab31" style="stroke:#1f77b4;"/>
     </defs>
     <g>
      <use style="fill:#1f77b4;stroke:#1f77b4;" x="781.568125" xlink:href="#m3e23e3ab31" y="45.372813"/>
     </g>
    </g>
    <g id="text_22">
     <!-- aflplusplus -->
     <g transform="translate(799.568125 48.872813)scale(0.1 -0.1)">
      <defs>
       <path d="M 18.109375 8.203125 
L 18.109375 -20.796875 
L 9.078125 -20.796875 
L 9.078125 54.6875 
L 18.109375 54.6875 
L 18.109375 46.390625 
Q 20.953125 51.265625 25.265625 53.625 
Q 29.59375 56 35.59375 56 
Q 45.5625 56 51.78125 48.09375 
Q 58.015625 40.1875 58.015625 27.296875 
Q 58.015625 14.40625 51.78125 6.484375 
Q 45.5625 -1.421875 35.59375 -1.421875 
Q 29.59375 -1.421875 25.265625 0.953125 
Q 20.953125 3.328125 18.109375 8.203125 
z
M 48.6875 27.296875 
Q 48.6875 37.203125 44.609375 42.84375 
Q 40.53125 48.484375 33.40625 48.484375 
Q 26.265625 48.484375 22.1875 42.84375 
Q 18.109375 37.203125 18.109375 27.296875 
Q 18.109375 17.390625 22.1875 11.75 
Q 26.265625 6.109375 33.40625 6.109375 
Q 40.53125 6.109375 44.609375 11.75 
Q 48.6875 17.390625 48.6875 27.296875 
z
" id="DejaVuSans-112"/>
      </defs>
      <use xlink:href="#DejaVuSans-97"/>
      <use x="61.279297" xlink:href="#DejaVuSans-102"/>
      <use x="96.484375" xlink:href="#DejaVuSans-108"/>
      <use x="124.267578" xlink:href="#DejaVuSans-112"/>
      <use x="187.744141" xlink:href="#DejaVuSans-108"/>
      <use x="215.527344" xlink:href="#DejaVuSans-117"/>
      <use x="278.90625" xlink:href="#DejaVuSans-115"/>
      <use x="331.005859" xlink:href="#DejaVuSans-112"/>
      <use x="394.482422" xlink:href="#DejaVuSans-108"/>
      <use x="422.265625" xlink:href="#DejaVuSans-117"/>
      <use x="485.644531" xlink:href="#DejaVuSans-115"/>
     </g>
    </g>
   </g>
  </g>
 </g>
 <defs>
  <clipPath id="p8215094d57">
   <rect height="266.112" width="714.24" x="53.328125" y="22.318125"/>
  </clipPath>
 </defs>
</svg>
