<?xml version="1.0" encoding="utf-8" standalone="no"?>
<!DOCTYPE svg PUBLIC "-//W3C//DTD SVG 1.1//EN"
  "http://www.w3.org/Graphics/SVG/1.1/DTD/svg11.dtd">
<!-- Created with matplotlib (https://matplotlib.org/) -->
<svg height="325.986375pt" version="1.1" viewBox="0 0 874.219687 325.986375" width="874.219687pt" xmlns="http://www.w3.org/2000/svg" xmlns:xlink="http://www.w3.org/1999/xlink">
 <metadata>
  <rdf:RDF xmlns:cc="http://creativecommons.org/ns#" xmlns:dc="http://purl.org/dc/elements/1.1/" xmlns:rdf="http://www.w3.org/1999/02/22-rdf-syntax-ns#">
   <cc:Work>
    <dc:type rdf:resource="http://purl.org/dc/dcmitype/StillImage"/>
    <dc:date>2021-02-28T19:27:51.553010</dc:date>
    <dc:format>image/svg+xml</dc:format>
    <dc:creator>
     <cc:Agent>
      <dc:title>Matplotlib v3.3.3, https://matplotlib.org/</dc:title>
     </cc:Agent>
    </dc:creator>
   </cc:Work>
  </rdf:RDF>
 </metadata>
 <defs>
  <style type="text/css">*{stroke-linecap:butt;stroke-linejoin:round;}</style>
 </defs>
 <g id="figure_1">
  <g id="patch_1">
   <path d="M 0 325.986375 
L 874.219687 325.986375 
L 874.219687 0 
L 0 0 
z
" style="fill:#ffffff;"/>
  </g>
  <g id="axes_1">
   <g id="patch_2">
    <path d="M 59.690625 288.430125 
L 773.930625 288.430125 
L 773.930625 22.318125 
L 59.690625 22.318125 
z
" style="fill:#ffffff;"/>
   </g>
   <g id="PolyCollection_1">
    <defs>
     <path d="M 92.15608 -136.109563 
L 92.15608 -135.106578 
L 190.760907 -161.083892 
L 248.441033 -176.63016 
L 289.365734 -183.851653 
L 321.109399 -202.20628 
L 347.045861 -214.242101 
L 368.974827 -216.047474 
L 387.970562 -219.357325 
L 404.725987 -220.861802 
L 419.714226 -222.065384 
L 433.272737 -223.268966 
L 445.650688 -232.095235 
L 457.037299 -232.396131 
L 467.579655 -233.499414 
L 477.394352 -235.605683 
L 486.575389 -235.80628 
L 495.199648 -235.80628 
L 503.330815 -236.107175 
L 511.022239 -237.912549 
L 518.319053 -238.51434 
L 525.259781 -239.517325 
L 531.877565 -239.517325 
L 538.201126 -239.717922 
L 544.255516 -239.918519 
L 550.062718 -240.119116 
L 555.642127 -242.325683 
L 561.010941 -243.328668 
L 566.184482 -243.930459 
L 571.176457 -244.131056 
L 575.99918 -251.553146 
L 580.663752 -251.553146 
L 585.180217 -251.653444 
L 589.557691 -251.854041 
L 593.804475 -251.854041 
L 597.928146 -251.854041 
L 601.935642 -251.854041 
L 605.83333 -253.25822 
L 609.627066 -254.862996 
L 613.322253 -256.267175 
L 616.923881 -256.868966 
L 620.43657 -257.370459 
L 623.864608 -257.470757 
L 627.211979 -257.470757 
L 630.482392 -257.470757 
L 633.679306 -257.571056 
L 636.805953 -257.671354 
L 639.865355 -257.671354 
L 642.860343 -257.771653 
L 645.793575 -257.771653 
L 648.667545 -257.871951 
L 651.484601 -258.874937 
L 654.246954 -259.175832 
L 656.956687 -259.97822 
L 659.615768 -260.780608 
L 662.226056 -260.780608 
L 664.789309 -260.880907 
L 667.307193 -261.382399 
L 669.781285 -261.382399 
L 672.213082 -262.084489 
L 674.604007 -262.084489 
L 676.955411 -262.184787 
L 679.268579 -262.184787 
L 681.544735 -262.184787 
L 683.785044 -262.184787 
L 685.990618 -262.184787 
L 688.162519 -262.184787 
L 690.301757 -262.184787 
L 692.409302 -262.184787 
L 694.486079 -262.184787 
L 696.532974 -262.184787 
L 698.550833 -262.184787 
L 700.540469 -262.184787 
L 702.502662 -262.184787 
L 704.438157 -262.184787 
L 706.347672 -262.385384 
L 708.231894 -262.385384 
L 710.091485 -262.385384 
L 711.927081 -262.485683 
L 713.739292 -262.485683 
L 715.528708 -262.485683 
L 717.295895 -262.485683 
L 719.041398 -262.485683 
L 720.765742 -262.485683 
L 722.469436 -262.485683 
L 724.152967 -262.485683 
L 725.816807 -263.187772 
L 727.461411 -263.187772 
L 729.087219 -263.187772 
L 730.694657 -263.689265 
L 732.284134 -263.689265 
L 733.856047 -263.689265 
L 735.41078 -263.689265 
L 736.948706 -263.689265 
L 738.470182 -263.789563 
L 739.975558 -263.789563 
L 741.46517 -263.789563 
L 741.46517 -291.57225 
L 741.46517 -291.57225 
L 739.975558 -291.57225 
L 738.470182 -291.57225 
L 736.948706 -291.57225 
L 735.41078 -283.448071 
L 733.856047 -283.448071 
L 732.284134 -283.147175 
L 730.694657 -283.147175 
L 729.087219 -283.147175 
L 727.461411 -283.147175 
L 725.816807 -283.046877 
L 724.152967 -283.046877 
L 722.469436 -283.046877 
L 720.765742 -282.946578 
L 719.041398 -282.946578 
L 717.295895 -282.946578 
L 715.528708 -282.946578 
L 713.739292 -282.946578 
L 711.927081 -282.946578 
L 710.091485 -282.84628 
L 708.231894 -282.745981 
L 706.347672 -282.645683 
L 704.438157 -282.043892 
L 702.502662 -281.943593 
L 700.540469 -281.943593 
L 698.550833 -281.943593 
L 696.532974 -281.642698 
L 694.486079 -281.642698 
L 692.409302 -281.642698 
L 690.301757 -281.341802 
L 688.162519 -281.341802 
L 685.990618 -281.341802 
L 683.785044 -280.439116 
L 681.544735 -280.439116 
L 679.268579 -278.332847 
L 676.955411 -278.332847 
L 674.604007 -278.332847 
L 672.213082 -278.332847 
L 669.781285 -278.332847 
L 667.307193 -278.332847 
L 664.789309 -276.728071 
L 662.226056 -276.728071 
L 659.615768 -276.728071 
L 656.956687 -276.728071 
L 654.246954 -276.427175 
L 651.484601 -276.226578 
L 648.667545 -276.226578 
L 645.793575 -276.226578 
L 642.860343 -276.226578 
L 639.865355 -276.226578 
L 636.805953 -275.925683 
L 633.679306 -275.825384 
L 630.482392 -275.825384 
L 627.211979 -275.624787 
L 623.864608 -275.524489 
L 620.43657 -275.42419 
L 616.923881 -275.42419 
L 613.322253 -275.323892 
L 609.627066 -275.323892 
L 605.83333 -275.323892 
L 601.935642 -275.223593 
L 597.928146 -275.223593 
L 593.804475 -274.320907 
L 589.557691 -273.518519 
L 585.180217 -272.916728 
L 580.663752 -271.713146 
L 575.99918 -271.41225 
L 571.176457 -265.895832 
L 566.184482 -265.594937 
L 561.010941 -265.594937 
L 555.642127 -265.494638 
L 550.062718 -264.892847 
L 544.255516 -263.99016 
L 538.201126 -263.889862 
L 531.877565 -263.488668 
L 525.259781 -259.97822 
L 518.319053 -259.877922 
L 511.022239 -259.175832 
L 503.330815 -257.771653 
L 495.199648 -256.267175 
L 486.575389 -256.267175 
L 477.394352 -255.464787 
L 467.579655 -255.364489 
L 457.037299 -254.762698 
L 445.650688 -248.744787 
L 433.272737 -248.042698 
L 419.714226 -247.641504 
L 404.725987 -241.523295 
L 387.970562 -239.116131 
L 368.974827 -228.183593 
L 347.045861 -214.94419 
L 321.109399 -212.336429 
L 289.365734 -193.079116 
L 248.441033 -184.654041 
L 190.760907 -167.101802 
L 92.15608 -136.109563 
z
" id="m32cfb36836" style="stroke:#1f77b4;stroke-opacity:0.2;"/>
    </defs>
    <g clip-path="url(#p6c96f8d4a2)">
     <use style="fill:#1f77b4;fill-opacity:0.2;stroke:#1f77b4;stroke-opacity:0.2;" x="0" xlink:href="#m32cfb36836" y="325.986375"/>
    </g>
   </g>
   <g id="PolyCollection_2">
    <defs>
     <path d="M 92.15608 -61.186578 
L 92.15608 -49.65225 
L 190.760907 -87.163892 
L 248.441033 -96.591951 
L 289.365734 -100.904787 
L 321.109399 -108.728071 
L 347.045861 -117.955534 
L 368.974827 -118.757922 
L 387.970562 -118.958519 
L 404.725987 -119.660608 
L 419.714226 -124.775832 
L 433.272737 -128.888071 
L 445.650688 -129.690459 
L 457.037299 -130.392549 
L 467.579655 -130.492847 
L 477.394352 -131.796728 
L 486.575389 -131.997325 
L 495.199648 -131.997325 
L 503.330815 -132.498817 
L 511.022239 -132.900011 
L 518.319053 -139.118519 
L 525.259781 -139.319116 
L 531.877565 -139.319116 
L 538.201126 -141.425384 
L 544.255516 -144.735235 
L 550.062718 -145.036131 
L 555.642127 -145.136429 
L 561.010941 -145.236728 
L 566.184482 -145.337026 
L 571.176457 -145.437325 
L 575.99918 -145.437325 
L 580.663752 -157.372847 
L 585.180217 -157.372847 
L 589.557691 -157.372847 
L 593.804475 -160.682698 
L 597.928146 -160.682698 
L 601.935642 -160.883295 
L 605.83333 -162.187175 
L 609.627066 -162.287474 
L 613.322253 -162.287474 
L 616.923881 -162.287474 
L 620.43657 -162.688668 
L 623.864608 -162.688668 
L 627.211979 -162.989563 
L 630.482392 -163.19016 
L 633.679306 -163.19016 
L 636.805953 -163.691653 
L 639.865355 -163.691653 
L 642.860343 -163.691653 
L 645.793575 -163.691653 
L 648.667545 -165.497026 
L 651.484601 -166.500011 
L 654.246954 -166.500011 
L 656.956687 -166.700608 
L 659.615768 -167.202101 
L 662.226056 -167.202101 
L 664.789309 -167.202101 
L 667.307193 -167.202101 
L 669.781285 -167.202101 
L 672.213082 -167.202101 
L 674.604007 -170.311354 
L 676.955411 -171.414638 
L 679.268579 -171.414638 
L 681.544735 -171.414638 
L 683.785044 -172.818817 
L 685.990618 -172.818817 
L 688.162519 -178.435534 
L 690.301757 -178.736429 
L 692.409302 -178.736429 
L 694.486079 -178.736429 
L 696.532974 -178.736429 
L 698.550833 -178.736429 
L 700.540469 -178.937026 
L 702.502662 -180.642101 
L 704.438157 -180.642101 
L 706.347672 -181.444489 
L 708.231894 -181.444489 
L 710.091485 -181.544787 
L 711.927081 -181.544787 
L 713.739292 -181.544787 
L 715.528708 -181.845683 
L 717.295895 -181.845683 
L 719.041398 -181.845683 
L 720.765742 -181.845683 
L 722.469436 -181.845683 
L 724.152967 -181.845683 
L 725.816807 -181.845683 
L 727.461411 -182.04628 
L 729.087219 -182.04628 
L 730.694657 -182.146578 
L 732.284134 -182.547772 
L 733.856047 -182.547772 
L 735.41078 -182.547772 
L 736.948706 -182.648071 
L 738.470182 -182.648071 
L 739.975558 -182.748369 
L 741.46517 -182.848668 
L 741.46517 -189.468369 
L 741.46517 -189.468369 
L 739.975558 -189.468369 
L 738.470182 -189.468369 
L 736.948706 -189.468369 
L 735.41078 -189.468369 
L 733.856047 -189.468369 
L 732.284134 -189.468369 
L 730.694657 -189.468369 
L 729.087219 -189.468369 
L 727.461411 -189.468369 
L 725.816807 -189.468369 
L 724.152967 -189.468369 
L 722.469436 -188.06419 
L 720.765742 -188.06419 
L 719.041398 -188.06419 
L 717.295895 -188.06419 
L 715.528708 -182.648071 
L 713.739292 -182.648071 
L 711.927081 -182.648071 
L 710.091485 -182.648071 
L 708.231894 -182.648071 
L 706.347672 -182.648071 
L 704.438157 -182.648071 
L 702.502662 -182.246877 
L 700.540469 -182.246877 
L 698.550833 -182.246877 
L 696.532974 -182.246877 
L 694.486079 -182.146578 
L 692.409302 -182.146578 
L 690.301757 -181.143593 
L 688.162519 -181.043295 
L 685.990618 -181.043295 
L 683.785044 -181.043295 
L 681.544735 -181.043295 
L 679.268579 -181.043295 
L 676.955411 -181.043295 
L 674.604007 -181.043295 
L 672.213082 -181.043295 
L 669.781285 -181.043295 
L 667.307193 -181.043295 
L 664.789309 -181.043295 
L 662.226056 -180.942996 
L 659.615768 -177.131653 
L 656.956687 -176.429563 
L 654.246954 -176.429563 
L 651.484601 -176.228966 
L 648.667545 -176.128668 
L 645.793575 -176.028369 
L 642.860343 -176.028369 
L 639.865355 -175.727474 
L 636.805953 -175.426578 
L 633.679306 -175.32628 
L 630.482392 -175.32628 
L 627.211979 -175.32628 
L 623.864608 -175.225981 
L 620.43657 -175.225981 
L 616.923881 -175.225981 
L 613.322253 -175.225981 
L 609.627066 -175.025384 
L 605.83333 -174.523892 
L 601.935642 -174.423593 
L 597.928146 -174.222996 
L 593.804475 -173.821802 
L 589.557691 -173.721504 
L 585.180217 -173.119713 
L 580.663752 -172.818817 
L 575.99918 -169.308369 
L 571.176457 -169.007474 
L 566.184482 -169.007474 
L 561.010941 -168.907175 
L 555.642127 -168.405683 
L 550.062718 -167.703593 
L 544.255516 -167.603295 
L 538.201126 -166.098817 
L 531.877565 -165.89822 
L 525.259781 -164.895235 
L 518.319053 -163.390757 
L 511.022239 -161.785981 
L 503.330815 -155.467175 
L 495.199648 -151.455235 
L 486.575389 -150.351951 
L 477.394352 -145.236728 
L 467.579655 -144.534638 
L 457.037299 -144.43434 
L 445.650688 -144.133444 
L 433.272737 -142.127474 
L 419.714226 -141.926877 
L 404.725987 -140.823593 
L 387.970562 -140.322101 
L 368.974827 -135.908966 
L 347.045861 -134.203892 
L 321.109399 -130.593146 
L 289.365734 -129.790757 
L 248.441033 -128.787772 
L 190.760907 -88.768668 
L 92.15608 -61.186578 
z
" id="mc9a1704315" style="stroke:#98df8a;stroke-opacity:0.2;"/>
    </defs>
    <g clip-path="url(#p6c96f8d4a2)">
     <use style="fill:#98df8a;fill-opacity:0.2;stroke:#98df8a;stroke-opacity:0.2;" x="0" xlink:href="#mc9a1704315" y="325.986375"/>
    </g>
   </g>
   <g id="matplotlib.axis_1">
    <g id="xtick_1">
     <g id="line2d_1">
      <defs>
       <path d="M 0 0 
L 0 3.5 
" id="m07fa629421" style="stroke:#000000;stroke-width:0.8;"/>
      </defs>
      <g>
       <use style="stroke:#000000;stroke-width:0.8;" x="92.15608" xlink:href="#m07fa629421" y="288.430125"/>
      </g>
     </g>
     <g id="text_1">
      <!-- 14m -->
      <g transform="translate(80.923267 303.028562)scale(0.1 -0.1)">
       <defs>
        <path d="M 12.40625 8.296875 
L 28.515625 8.296875 
L 28.515625 63.921875 
L 10.984375 60.40625 
L 10.984375 69.390625 
L 28.421875 72.90625 
L 38.28125 72.90625 
L 38.28125 8.296875 
L 54.390625 8.296875 
L 54.390625 0 
L 12.40625 0 
z
" id="DejaVuSans-49"/>
        <path d="M 37.796875 64.3125 
L 12.890625 25.390625 
L 37.796875 25.390625 
z
M 35.203125 72.90625 
L 47.609375 72.90625 
L 47.609375 25.390625 
L 58.015625 25.390625 
L 58.015625 17.1875 
L 47.609375 17.1875 
L 47.609375 0 
L 37.796875 0 
L 37.796875 17.1875 
L 4.890625 17.1875 
L 4.890625 26.703125 
z
" id="DejaVuSans-52"/>
        <path d="M 52 44.1875 
Q 55.375 50.25 60.0625 53.125 
Q 64.75 56 71.09375 56 
Q 79.640625 56 84.28125 50.015625 
Q 88.921875 44.046875 88.921875 33.015625 
L 88.921875 0 
L 79.890625 0 
L 79.890625 32.71875 
Q 79.890625 40.578125 77.09375 44.375 
Q 74.3125 48.1875 68.609375 48.1875 
Q 61.625 48.1875 57.5625 43.546875 
Q 53.515625 38.921875 53.515625 30.90625 
L 53.515625 0 
L 44.484375 0 
L 44.484375 32.71875 
Q 44.484375 40.625 41.703125 44.40625 
Q 38.921875 48.1875 33.109375 48.1875 
Q 26.21875 48.1875 22.15625 43.53125 
Q 18.109375 38.875 18.109375 30.90625 
L 18.109375 0 
L 9.078125 0 
L 9.078125 54.6875 
L 18.109375 54.6875 
L 18.109375 46.1875 
Q 21.1875 51.21875 25.484375 53.609375 
Q 29.78125 56 35.6875 56 
Q 41.65625 56 45.828125 52.96875 
Q 50 49.953125 52 44.1875 
z
" id="DejaVuSans-109"/>
       </defs>
       <use xlink:href="#DejaVuSans-49"/>
       <use x="63.623047" xlink:href="#DejaVuSans-52"/>
       <use x="127.246094" xlink:href="#DejaVuSans-109"/>
      </g>
     </g>
    </g>
    <g id="xtick_2">
     <g id="line2d_2">
      <g>
       <use style="stroke:#000000;stroke-width:0.8;" x="151.184328" xlink:href="#m07fa629421" y="288.430125"/>
      </g>
     </g>
     <g id="text_2">
      <!-- 22m -->
      <g transform="translate(139.951516 303.028562)scale(0.1 -0.1)">
       <defs>
        <path d="M 19.1875 8.296875 
L 53.609375 8.296875 
L 53.609375 0 
L 7.328125 0 
L 7.328125 8.296875 
Q 12.9375 14.109375 22.625 23.890625 
Q 32.328125 33.6875 34.8125 36.53125 
Q 39.546875 41.84375 41.421875 45.53125 
Q 43.3125 49.21875 43.3125 52.78125 
Q 43.3125 58.59375 39.234375 62.25 
Q 35.15625 65.921875 28.609375 65.921875 
Q 23.96875 65.921875 18.8125 64.3125 
Q 13.671875 62.703125 7.8125 59.421875 
L 7.8125 69.390625 
Q 13.765625 71.78125 18.9375 73 
Q 24.125 74.21875 28.421875 74.21875 
Q 39.75 74.21875 46.484375 68.546875 
Q 53.21875 62.890625 53.21875 53.421875 
Q 53.21875 48.921875 51.53125 44.890625 
Q 49.859375 40.875 45.40625 35.40625 
Q 44.1875 33.984375 37.640625 27.21875 
Q 31.109375 20.453125 19.1875 8.296875 
z
" id="DejaVuSans-50"/>
       </defs>
       <use xlink:href="#DejaVuSans-50"/>
       <use x="63.623047" xlink:href="#DejaVuSans-50"/>
       <use x="127.246094" xlink:href="#DejaVuSans-109"/>
      </g>
     </g>
    </g>
    <g id="xtick_3">
     <g id="line2d_3">
      <g>
       <use style="stroke:#000000;stroke-width:0.8;" x="210.212577" xlink:href="#m07fa629421" y="288.430125"/>
      </g>
     </g>
     <g id="text_3">
      <!-- 34m -->
      <g transform="translate(198.979765 303.028562)scale(0.1 -0.1)">
       <defs>
        <path d="M 40.578125 39.3125 
Q 47.65625 37.796875 51.625 33 
Q 55.609375 28.21875 55.609375 21.1875 
Q 55.609375 10.40625 48.1875 4.484375 
Q 40.765625 -1.421875 27.09375 -1.421875 
Q 22.515625 -1.421875 17.65625 -0.515625 
Q 12.796875 0.390625 7.625 2.203125 
L 7.625 11.71875 
Q 11.71875 9.328125 16.59375 8.109375 
Q 21.484375 6.890625 26.8125 6.890625 
Q 36.078125 6.890625 40.9375 10.546875 
Q 45.796875 14.203125 45.796875 21.1875 
Q 45.796875 27.640625 41.28125 31.265625 
Q 36.765625 34.90625 28.71875 34.90625 
L 20.21875 34.90625 
L 20.21875 43.015625 
L 29.109375 43.015625 
Q 36.375 43.015625 40.234375 45.921875 
Q 44.09375 48.828125 44.09375 54.296875 
Q 44.09375 59.90625 40.109375 62.90625 
Q 36.140625 65.921875 28.71875 65.921875 
Q 24.65625 65.921875 20.015625 65.03125 
Q 15.375 64.15625 9.8125 62.3125 
L 9.8125 71.09375 
Q 15.4375 72.65625 20.34375 73.4375 
Q 25.25 74.21875 29.59375 74.21875 
Q 40.828125 74.21875 47.359375 69.109375 
Q 53.90625 64.015625 53.90625 55.328125 
Q 53.90625 49.265625 50.4375 45.09375 
Q 46.96875 40.921875 40.578125 39.3125 
z
" id="DejaVuSans-51"/>
       </defs>
       <use xlink:href="#DejaVuSans-51"/>
       <use x="63.623047" xlink:href="#DejaVuSans-52"/>
       <use x="127.246094" xlink:href="#DejaVuSans-109"/>
      </g>
     </g>
    </g>
    <g id="xtick_4">
     <g id="line2d_4">
      <g>
       <use style="stroke:#000000;stroke-width:0.8;" x="269.240826" xlink:href="#m07fa629421" y="288.430125"/>
      </g>
     </g>
     <g id="text_4">
      <!-- 52m -->
      <g transform="translate(258.008014 303.028562)scale(0.1 -0.1)">
       <defs>
        <path d="M 10.796875 72.90625 
L 49.515625 72.90625 
L 49.515625 64.59375 
L 19.828125 64.59375 
L 19.828125 46.734375 
Q 21.96875 47.46875 24.109375 47.828125 
Q 26.265625 48.1875 28.421875 48.1875 
Q 40.625 48.1875 47.75 41.5 
Q 54.890625 34.8125 54.890625 23.390625 
Q 54.890625 11.625 47.5625 5.09375 
Q 40.234375 -1.421875 26.90625 -1.421875 
Q 22.3125 -1.421875 17.546875 -0.640625 
Q 12.796875 0.140625 7.71875 1.703125 
L 7.71875 11.625 
Q 12.109375 9.234375 16.796875 8.0625 
Q 21.484375 6.890625 26.703125 6.890625 
Q 35.15625 6.890625 40.078125 11.328125 
Q 45.015625 15.765625 45.015625 23.390625 
Q 45.015625 31 40.078125 35.4375 
Q 35.15625 39.890625 26.703125 39.890625 
Q 22.75 39.890625 18.8125 39.015625 
Q 14.890625 38.140625 10.796875 36.28125 
z
" id="DejaVuSans-53"/>
       </defs>
       <use xlink:href="#DejaVuSans-53"/>
       <use x="63.623047" xlink:href="#DejaVuSans-50"/>
       <use x="127.246094" xlink:href="#DejaVuSans-109"/>
      </g>
     </g>
    </g>
    <g id="xtick_5">
     <g id="line2d_5">
      <g>
       <use style="stroke:#000000;stroke-width:0.8;" x="328.269075" xlink:href="#m07fa629421" y="288.430125"/>
      </g>
     </g>
     <g id="text_5">
      <!-- 1h:18m -->
      <g transform="translate(309.001887 303.028562)scale(0.1 -0.1)">
       <defs>
        <path d="M 54.890625 33.015625 
L 54.890625 0 
L 45.90625 0 
L 45.90625 32.71875 
Q 45.90625 40.484375 42.875 44.328125 
Q 39.84375 48.1875 33.796875 48.1875 
Q 26.515625 48.1875 22.3125 43.546875 
Q 18.109375 38.921875 18.109375 30.90625 
L 18.109375 0 
L 9.078125 0 
L 9.078125 75.984375 
L 18.109375 75.984375 
L 18.109375 46.1875 
Q 21.34375 51.125 25.703125 53.5625 
Q 30.078125 56 35.796875 56 
Q 45.21875 56 50.046875 50.171875 
Q 54.890625 44.34375 54.890625 33.015625 
z
" id="DejaVuSans-104"/>
        <path d="M 11.71875 12.40625 
L 22.015625 12.40625 
L 22.015625 0 
L 11.71875 0 
z
M 11.71875 51.703125 
L 22.015625 51.703125 
L 22.015625 39.3125 
L 11.71875 39.3125 
z
" id="DejaVuSans-58"/>
        <path d="M 31.78125 34.625 
Q 24.75 34.625 20.71875 30.859375 
Q 16.703125 27.09375 16.703125 20.515625 
Q 16.703125 13.921875 20.71875 10.15625 
Q 24.75 6.390625 31.78125 6.390625 
Q 38.8125 6.390625 42.859375 10.171875 
Q 46.921875 13.96875 46.921875 20.515625 
Q 46.921875 27.09375 42.890625 30.859375 
Q 38.875 34.625 31.78125 34.625 
z
M 21.921875 38.8125 
Q 15.578125 40.375 12.03125 44.71875 
Q 8.5 49.078125 8.5 55.328125 
Q 8.5 64.0625 14.71875 69.140625 
Q 20.953125 74.21875 31.78125 74.21875 
Q 42.671875 74.21875 48.875 69.140625 
Q 55.078125 64.0625 55.078125 55.328125 
Q 55.078125 49.078125 51.53125 44.71875 
Q 48 40.375 41.703125 38.8125 
Q 48.828125 37.15625 52.796875 32.3125 
Q 56.78125 27.484375 56.78125 20.515625 
Q 56.78125 9.90625 50.3125 4.234375 
Q 43.84375 -1.421875 31.78125 -1.421875 
Q 19.734375 -1.421875 13.25 4.234375 
Q 6.78125 9.90625 6.78125 20.515625 
Q 6.78125 27.484375 10.78125 32.3125 
Q 14.796875 37.15625 21.921875 38.8125 
z
M 18.3125 54.390625 
Q 18.3125 48.734375 21.84375 45.5625 
Q 25.390625 42.390625 31.78125 42.390625 
Q 38.140625 42.390625 41.71875 45.5625 
Q 45.3125 48.734375 45.3125 54.390625 
Q 45.3125 60.0625 41.71875 63.234375 
Q 38.140625 66.40625 31.78125 66.40625 
Q 25.390625 66.40625 21.84375 63.234375 
Q 18.3125 60.0625 18.3125 54.390625 
z
" id="DejaVuSans-56"/>
       </defs>
       <use xlink:href="#DejaVuSans-49"/>
       <use x="63.623047" xlink:href="#DejaVuSans-104"/>
       <use x="127.001953" xlink:href="#DejaVuSans-58"/>
       <use x="160.693359" xlink:href="#DejaVuSans-49"/>
       <use x="224.316406" xlink:href="#DejaVuSans-56"/>
       <use x="287.939453" xlink:href="#DejaVuSans-109"/>
      </g>
     </g>
    </g>
    <g id="xtick_6">
     <g id="line2d_6">
      <g>
       <use style="stroke:#000000;stroke-width:0.8;" x="387.297324" xlink:href="#m07fa629421" y="288.430125"/>
      </g>
     </g>
     <g id="text_6">
      <!-- 1h:59m -->
      <g transform="translate(368.030136 303.028562)scale(0.1 -0.1)">
       <defs>
        <path d="M 10.984375 1.515625 
L 10.984375 10.5 
Q 14.703125 8.734375 18.5 7.8125 
Q 22.3125 6.890625 25.984375 6.890625 
Q 35.75 6.890625 40.890625 13.453125 
Q 46.046875 20.015625 46.78125 33.40625 
Q 43.953125 29.203125 39.59375 26.953125 
Q 35.25 24.703125 29.984375 24.703125 
Q 19.046875 24.703125 12.671875 31.3125 
Q 6.296875 37.9375 6.296875 49.421875 
Q 6.296875 60.640625 12.9375 67.421875 
Q 19.578125 74.21875 30.609375 74.21875 
Q 43.265625 74.21875 49.921875 64.515625 
Q 56.59375 54.828125 56.59375 36.375 
Q 56.59375 19.140625 48.40625 8.859375 
Q 40.234375 -1.421875 26.421875 -1.421875 
Q 22.703125 -1.421875 18.890625 -0.6875 
Q 15.09375 0.046875 10.984375 1.515625 
z
M 30.609375 32.421875 
Q 37.25 32.421875 41.125 36.953125 
Q 45.015625 41.5 45.015625 49.421875 
Q 45.015625 57.28125 41.125 61.84375 
Q 37.25 66.40625 30.609375 66.40625 
Q 23.96875 66.40625 20.09375 61.84375 
Q 16.21875 57.28125 16.21875 49.421875 
Q 16.21875 41.5 20.09375 36.953125 
Q 23.96875 32.421875 30.609375 32.421875 
z
" id="DejaVuSans-57"/>
       </defs>
       <use xlink:href="#DejaVuSans-49"/>
       <use x="63.623047" xlink:href="#DejaVuSans-104"/>
       <use x="127.001953" xlink:href="#DejaVuSans-58"/>
       <use x="160.693359" xlink:href="#DejaVuSans-53"/>
       <use x="224.316406" xlink:href="#DejaVuSans-57"/>
       <use x="287.939453" xlink:href="#DejaVuSans-109"/>
      </g>
     </g>
    </g>
    <g id="xtick_7">
     <g id="line2d_7">
      <g>
       <use style="stroke:#000000;stroke-width:0.8;" x="446.325573" xlink:href="#m07fa629421" y="288.430125"/>
      </g>
     </g>
     <g id="text_7">
      <!-- 3h -->
      <g transform="translate(439.975573 303.028562)scale(0.1 -0.1)">
       <use xlink:href="#DejaVuSans-51"/>
       <use x="63.623047" xlink:href="#DejaVuSans-104"/>
      </g>
     </g>
    </g>
    <g id="xtick_8">
     <g id="line2d_8">
      <g>
       <use style="stroke:#000000;stroke-width:0.8;" x="505.353822" xlink:href="#m07fa629421" y="288.430125"/>
      </g>
     </g>
     <g id="text_8">
      <!-- 4h:33m -->
      <g transform="translate(486.086634 303.028562)scale(0.1 -0.1)">
       <use xlink:href="#DejaVuSans-52"/>
       <use x="63.623047" xlink:href="#DejaVuSans-104"/>
       <use x="127.001953" xlink:href="#DejaVuSans-58"/>
       <use x="160.693359" xlink:href="#DejaVuSans-51"/>
       <use x="224.316406" xlink:href="#DejaVuSans-51"/>
       <use x="287.939453" xlink:href="#DejaVuSans-109"/>
      </g>
     </g>
    </g>
    <g id="xtick_9">
     <g id="line2d_9">
      <g>
       <use style="stroke:#000000;stroke-width:0.8;" x="564.38207" xlink:href="#m07fa629421" y="288.430125"/>
      </g>
     </g>
     <g id="text_9">
      <!-- 6h:54m -->
      <g transform="translate(545.114883 303.028562)scale(0.1 -0.1)">
       <defs>
        <path d="M 33.015625 40.375 
Q 26.375 40.375 22.484375 35.828125 
Q 18.609375 31.296875 18.609375 23.390625 
Q 18.609375 15.53125 22.484375 10.953125 
Q 26.375 6.390625 33.015625 6.390625 
Q 39.65625 6.390625 43.53125 10.953125 
Q 47.40625 15.53125 47.40625 23.390625 
Q 47.40625 31.296875 43.53125 35.828125 
Q 39.65625 40.375 33.015625 40.375 
z
M 52.59375 71.296875 
L 52.59375 62.3125 
Q 48.875 64.0625 45.09375 64.984375 
Q 41.3125 65.921875 37.59375 65.921875 
Q 27.828125 65.921875 22.671875 59.328125 
Q 17.53125 52.734375 16.796875 39.40625 
Q 19.671875 43.65625 24.015625 45.921875 
Q 28.375 48.1875 33.59375 48.1875 
Q 44.578125 48.1875 50.953125 41.515625 
Q 57.328125 34.859375 57.328125 23.390625 
Q 57.328125 12.15625 50.6875 5.359375 
Q 44.046875 -1.421875 33.015625 -1.421875 
Q 20.359375 -1.421875 13.671875 8.265625 
Q 6.984375 17.96875 6.984375 36.375 
Q 6.984375 53.65625 15.1875 63.9375 
Q 23.390625 74.21875 37.203125 74.21875 
Q 40.921875 74.21875 44.703125 73.484375 
Q 48.484375 72.75 52.59375 71.296875 
z
" id="DejaVuSans-54"/>
       </defs>
       <use xlink:href="#DejaVuSans-54"/>
       <use x="63.623047" xlink:href="#DejaVuSans-104"/>
       <use x="127.001953" xlink:href="#DejaVuSans-58"/>
       <use x="160.693359" xlink:href="#DejaVuSans-53"/>
       <use x="224.316406" xlink:href="#DejaVuSans-52"/>
       <use x="287.939453" xlink:href="#DejaVuSans-109"/>
      </g>
     </g>
    </g>
    <g id="xtick_10">
     <g id="line2d_10">
      <g>
       <use style="stroke:#000000;stroke-width:0.8;" x="623.410319" xlink:href="#m07fa629421" y="288.430125"/>
      </g>
     </g>
     <g id="text_10">
      <!-- 10h:27m -->
      <g transform="translate(600.961882 303.028562)scale(0.1 -0.1)">
       <defs>
        <path d="M 31.78125 66.40625 
Q 24.171875 66.40625 20.328125 58.90625 
Q 16.5 51.421875 16.5 36.375 
Q 16.5 21.390625 20.328125 13.890625 
Q 24.171875 6.390625 31.78125 6.390625 
Q 39.453125 6.390625 43.28125 13.890625 
Q 47.125 21.390625 47.125 36.375 
Q 47.125 51.421875 43.28125 58.90625 
Q 39.453125 66.40625 31.78125 66.40625 
z
M 31.78125 74.21875 
Q 44.046875 74.21875 50.515625 64.515625 
Q 56.984375 54.828125 56.984375 36.375 
Q 56.984375 17.96875 50.515625 8.265625 
Q 44.046875 -1.421875 31.78125 -1.421875 
Q 19.53125 -1.421875 13.0625 8.265625 
Q 6.59375 17.96875 6.59375 36.375 
Q 6.59375 54.828125 13.0625 64.515625 
Q 19.53125 74.21875 31.78125 74.21875 
z
" id="DejaVuSans-48"/>
        <path d="M 8.203125 72.90625 
L 55.078125 72.90625 
L 55.078125 68.703125 
L 28.609375 0 
L 18.3125 0 
L 43.21875 64.59375 
L 8.203125 64.59375 
z
" id="DejaVuSans-55"/>
       </defs>
       <use xlink:href="#DejaVuSans-49"/>
       <use x="63.623047" xlink:href="#DejaVuSans-48"/>
       <use x="127.246094" xlink:href="#DejaVuSans-104"/>
       <use x="190.625" xlink:href="#DejaVuSans-58"/>
       <use x="224.316406" xlink:href="#DejaVuSans-50"/>
       <use x="287.939453" xlink:href="#DejaVuSans-55"/>
       <use x="351.5625" xlink:href="#DejaVuSans-109"/>
      </g>
     </g>
    </g>
    <g id="xtick_11">
     <g id="line2d_11">
      <g>
       <use style="stroke:#000000;stroke-width:0.8;" x="682.438568" xlink:href="#m07fa629421" y="288.430125"/>
      </g>
     </g>
     <g id="text_11">
      <!-- 15h:50m -->
      <g transform="translate(659.990131 303.028562)scale(0.1 -0.1)">
       <use xlink:href="#DejaVuSans-49"/>
       <use x="63.623047" xlink:href="#DejaVuSans-53"/>
       <use x="127.246094" xlink:href="#DejaVuSans-104"/>
       <use x="190.625" xlink:href="#DejaVuSans-58"/>
       <use x="224.316406" xlink:href="#DejaVuSans-53"/>
       <use x="287.939453" xlink:href="#DejaVuSans-48"/>
       <use x="351.5625" xlink:href="#DejaVuSans-109"/>
      </g>
     </g>
    </g>
    <g id="xtick_12">
     <g id="line2d_12">
      <g>
       <use style="stroke:#000000;stroke-width:0.8;" x="741.466817" xlink:href="#m07fa629421" y="288.430125"/>
      </g>
     </g>
     <g id="text_12">
      <!-- 24h -->
      <g transform="translate(731.935567 303.028562)scale(0.1 -0.1)">
       <use xlink:href="#DejaVuSans-50"/>
       <use x="63.623047" xlink:href="#DejaVuSans-52"/>
       <use x="127.246094" xlink:href="#DejaVuSans-104"/>
      </g>
     </g>
    </g>
    <g id="xtick_13">
     <g id="line2d_13">
      <defs>
       <path d="M 0 0 
L 0 2 
" id="m1efcb3cc48" style="stroke:#000000;stroke-width:0.6;"/>
      </defs>
      <g>
       <use style="stroke:#000000;stroke-width:0.6;" x="75.400654" xlink:href="#m1efcb3cc48" y="288.430125"/>
      </g>
     </g>
    </g>
    <g id="xtick_14">
     <g id="line2d_14">
      <g>
       <use style="stroke:#000000;stroke-width:0.6;" x="205.749146" xlink:href="#m1efcb3cc48" y="288.430125"/>
      </g>
     </g>
    </g>
    <g id="xtick_15">
     <g id="line2d_15">
      <g>
       <use style="stroke:#000000;stroke-width:0.6;" x="263.429272" xlink:href="#m1efcb3cc48" y="288.430125"/>
      </g>
     </g>
    </g>
    <g id="xtick_16">
     <g id="line2d_16">
      <g>
       <use style="stroke:#000000;stroke-width:0.6;" x="304.353973" xlink:href="#m1efcb3cc48" y="288.430125"/>
      </g>
     </g>
    </g>
    <g id="xtick_17">
     <g id="line2d_17">
      <g>
       <use style="stroke:#000000;stroke-width:0.6;" x="336.097637" xlink:href="#m1efcb3cc48" y="288.430125"/>
      </g>
     </g>
    </g>
    <g id="xtick_18">
     <g id="line2d_18">
      <g>
       <use style="stroke:#000000;stroke-width:0.6;" x="362.0341" xlink:href="#m1efcb3cc48" y="288.430125"/>
      </g>
     </g>
    </g>
    <g id="xtick_19">
     <g id="line2d_19">
      <g>
       <use style="stroke:#000000;stroke-width:0.6;" x="383.963066" xlink:href="#m1efcb3cc48" y="288.430125"/>
      </g>
     </g>
    </g>
    <g id="xtick_20">
     <g id="line2d_20">
      <g>
       <use style="stroke:#000000;stroke-width:0.6;" x="402.958801" xlink:href="#m1efcb3cc48" y="288.430125"/>
      </g>
     </g>
    </g>
    <g id="xtick_21">
     <g id="line2d_21">
      <g>
       <use style="stroke:#000000;stroke-width:0.6;" x="419.714226" xlink:href="#m1efcb3cc48" y="288.430125"/>
      </g>
     </g>
    </g>
    <g id="xtick_22">
     <g id="line2d_22">
      <g>
       <use style="stroke:#000000;stroke-width:0.6;" x="533.307292" xlink:href="#m1efcb3cc48" y="288.430125"/>
      </g>
     </g>
    </g>
    <g id="xtick_23">
     <g id="line2d_23">
      <g>
       <use style="stroke:#000000;stroke-width:0.6;" x="590.987419" xlink:href="#m1efcb3cc48" y="288.430125"/>
      </g>
     </g>
    </g>
    <g id="xtick_24">
     <g id="line2d_24">
      <g>
       <use style="stroke:#000000;stroke-width:0.6;" x="631.91212" xlink:href="#m1efcb3cc48" y="288.430125"/>
      </g>
     </g>
    </g>
    <g id="xtick_25">
     <g id="line2d_25">
      <g>
       <use style="stroke:#000000;stroke-width:0.6;" x="663.655784" xlink:href="#m1efcb3cc48" y="288.430125"/>
      </g>
     </g>
    </g>
    <g id="xtick_26">
     <g id="line2d_26">
      <g>
       <use style="stroke:#000000;stroke-width:0.6;" x="689.592246" xlink:href="#m1efcb3cc48" y="288.430125"/>
      </g>
     </g>
    </g>
    <g id="xtick_27">
     <g id="line2d_27">
      <g>
       <use style="stroke:#000000;stroke-width:0.6;" x="711.521212" xlink:href="#m1efcb3cc48" y="288.430125"/>
      </g>
     </g>
    </g>
    <g id="xtick_28">
     <g id="line2d_28">
      <g>
       <use style="stroke:#000000;stroke-width:0.6;" x="730.516947" xlink:href="#m1efcb3cc48" y="288.430125"/>
      </g>
     </g>
    </g>
    <g id="xtick_29">
     <g id="line2d_29">
      <g>
       <use style="stroke:#000000;stroke-width:0.6;" x="747.272372" xlink:href="#m1efcb3cc48" y="288.430125"/>
      </g>
     </g>
    </g>
    <g id="text_13">
     <!-- Time (hour:minute) -->
     <g transform="translate(368.403594 316.706687)scale(0.1 -0.1)">
      <defs>
       <path d="M -0.296875 72.90625 
L 61.375 72.90625 
L 61.375 64.59375 
L 35.5 64.59375 
L 35.5 0 
L 25.59375 0 
L 25.59375 64.59375 
L -0.296875 64.59375 
z
" id="DejaVuSans-84"/>
       <path d="M 9.421875 54.6875 
L 18.40625 54.6875 
L 18.40625 0 
L 9.421875 0 
z
M 9.421875 75.984375 
L 18.40625 75.984375 
L 18.40625 64.59375 
L 9.421875 64.59375 
z
" id="DejaVuSans-105"/>
       <path d="M 56.203125 29.59375 
L 56.203125 25.203125 
L 14.890625 25.203125 
Q 15.484375 15.921875 20.484375 11.0625 
Q 25.484375 6.203125 34.421875 6.203125 
Q 39.59375 6.203125 44.453125 7.46875 
Q 49.3125 8.734375 54.109375 11.28125 
L 54.109375 2.78125 
Q 49.265625 0.734375 44.1875 -0.34375 
Q 39.109375 -1.421875 33.890625 -1.421875 
Q 20.796875 -1.421875 13.15625 6.1875 
Q 5.515625 13.8125 5.515625 26.8125 
Q 5.515625 40.234375 12.765625 48.109375 
Q 20.015625 56 32.328125 56 
Q 43.359375 56 49.78125 48.890625 
Q 56.203125 41.796875 56.203125 29.59375 
z
M 47.21875 32.234375 
Q 47.125 39.59375 43.09375 43.984375 
Q 39.0625 48.390625 32.421875 48.390625 
Q 24.90625 48.390625 20.390625 44.140625 
Q 15.875 39.890625 15.1875 32.171875 
z
" id="DejaVuSans-101"/>
       <path id="DejaVuSans-32"/>
       <path d="M 31 75.875 
Q 24.46875 64.65625 21.28125 53.65625 
Q 18.109375 42.671875 18.109375 31.390625 
Q 18.109375 20.125 21.3125 9.0625 
Q 24.515625 -2 31 -13.1875 
L 23.1875 -13.1875 
Q 15.875 -1.703125 12.234375 9.375 
Q 8.59375 20.453125 8.59375 31.390625 
Q 8.59375 42.28125 12.203125 53.3125 
Q 15.828125 64.359375 23.1875 75.875 
z
" id="DejaVuSans-40"/>
       <path d="M 30.609375 48.390625 
Q 23.390625 48.390625 19.1875 42.75 
Q 14.984375 37.109375 14.984375 27.296875 
Q 14.984375 17.484375 19.15625 11.84375 
Q 23.34375 6.203125 30.609375 6.203125 
Q 37.796875 6.203125 41.984375 11.859375 
Q 46.1875 17.53125 46.1875 27.296875 
Q 46.1875 37.015625 41.984375 42.703125 
Q 37.796875 48.390625 30.609375 48.390625 
z
M 30.609375 56 
Q 42.328125 56 49.015625 48.375 
Q 55.71875 40.765625 55.71875 27.296875 
Q 55.71875 13.875 49.015625 6.21875 
Q 42.328125 -1.421875 30.609375 -1.421875 
Q 18.84375 -1.421875 12.171875 6.21875 
Q 5.515625 13.875 5.515625 27.296875 
Q 5.515625 40.765625 12.171875 48.375 
Q 18.84375 56 30.609375 56 
z
" id="DejaVuSans-111"/>
       <path d="M 8.5 21.578125 
L 8.5 54.6875 
L 17.484375 54.6875 
L 17.484375 21.921875 
Q 17.484375 14.15625 20.5 10.265625 
Q 23.53125 6.390625 29.59375 6.390625 
Q 36.859375 6.390625 41.078125 11.03125 
Q 45.3125 15.671875 45.3125 23.6875 
L 45.3125 54.6875 
L 54.296875 54.6875 
L 54.296875 0 
L 45.3125 0 
L 45.3125 8.40625 
Q 42.046875 3.421875 37.71875 1 
Q 33.40625 -1.421875 27.6875 -1.421875 
Q 18.265625 -1.421875 13.375 4.4375 
Q 8.5 10.296875 8.5 21.578125 
z
M 31.109375 56 
z
" id="DejaVuSans-117"/>
       <path d="M 41.109375 46.296875 
Q 39.59375 47.171875 37.8125 47.578125 
Q 36.03125 48 33.890625 48 
Q 26.265625 48 22.1875 43.046875 
Q 18.109375 38.09375 18.109375 28.8125 
L 18.109375 0 
L 9.078125 0 
L 9.078125 54.6875 
L 18.109375 54.6875 
L 18.109375 46.1875 
Q 20.953125 51.171875 25.484375 53.578125 
Q 30.03125 56 36.53125 56 
Q 37.453125 56 38.578125 55.875 
Q 39.703125 55.765625 41.0625 55.515625 
z
" id="DejaVuSans-114"/>
       <path d="M 54.890625 33.015625 
L 54.890625 0 
L 45.90625 0 
L 45.90625 32.71875 
Q 45.90625 40.484375 42.875 44.328125 
Q 39.84375 48.1875 33.796875 48.1875 
Q 26.515625 48.1875 22.3125 43.546875 
Q 18.109375 38.921875 18.109375 30.90625 
L 18.109375 0 
L 9.078125 0 
L 9.078125 54.6875 
L 18.109375 54.6875 
L 18.109375 46.1875 
Q 21.34375 51.125 25.703125 53.5625 
Q 30.078125 56 35.796875 56 
Q 45.21875 56 50.046875 50.171875 
Q 54.890625 44.34375 54.890625 33.015625 
z
" id="DejaVuSans-110"/>
       <path d="M 18.3125 70.21875 
L 18.3125 54.6875 
L 36.8125 54.6875 
L 36.8125 47.703125 
L 18.3125 47.703125 
L 18.3125 18.015625 
Q 18.3125 11.328125 20.140625 9.421875 
Q 21.96875 7.515625 27.59375 7.515625 
L 36.8125 7.515625 
L 36.8125 0 
L 27.59375 0 
Q 17.1875 0 13.234375 3.875 
Q 9.28125 7.765625 9.28125 18.015625 
L 9.28125 47.703125 
L 2.6875 47.703125 
L 2.6875 54.6875 
L 9.28125 54.6875 
L 9.28125 70.21875 
z
" id="DejaVuSans-116"/>
       <path d="M 8.015625 75.875 
L 15.828125 75.875 
Q 23.140625 64.359375 26.78125 53.3125 
Q 30.421875 42.28125 30.421875 31.390625 
Q 30.421875 20.453125 26.78125 9.375 
Q 23.140625 -1.703125 15.828125 -13.1875 
L 8.015625 -13.1875 
Q 14.5 -2 17.703125 9.0625 
Q 20.90625 20.125 20.90625 31.390625 
Q 20.90625 42.671875 17.703125 53.65625 
Q 14.5 64.65625 8.015625 75.875 
z
" id="DejaVuSans-41"/>
      </defs>
      <use xlink:href="#DejaVuSans-84"/>
      <use x="57.958984" xlink:href="#DejaVuSans-105"/>
      <use x="85.742188" xlink:href="#DejaVuSans-109"/>
      <use x="183.154297" xlink:href="#DejaVuSans-101"/>
      <use x="244.677734" xlink:href="#DejaVuSans-32"/>
      <use x="276.464844" xlink:href="#DejaVuSans-40"/>
      <use x="315.478516" xlink:href="#DejaVuSans-104"/>
      <use x="378.857422" xlink:href="#DejaVuSans-111"/>
      <use x="440.039062" xlink:href="#DejaVuSans-117"/>
      <use x="503.417969" xlink:href="#DejaVuSans-114"/>
      <use x="542.78125" xlink:href="#DejaVuSans-58"/>
      <use x="576.472656" xlink:href="#DejaVuSans-109"/>
      <use x="673.884766" xlink:href="#DejaVuSans-105"/>
      <use x="701.667969" xlink:href="#DejaVuSans-110"/>
      <use x="765.046875" xlink:href="#DejaVuSans-117"/>
      <use x="828.425781" xlink:href="#DejaVuSans-116"/>
      <use x="867.634766" xlink:href="#DejaVuSans-101"/>
      <use x="929.158203" xlink:href="#DejaVuSans-41"/>
     </g>
    </g>
   </g>
   <g id="matplotlib.axis_2">
    <g id="ytick_1">
     <g id="line2d_30">
      <defs>
       <path d="M 0 0 
L -3.5 0 
" id="mb52fc1d65a" style="stroke:#000000;stroke-width:0.8;"/>
      </defs>
      <g>
       <use style="stroke:#000000;stroke-width:0.8;" x="59.690625" xlink:href="#mb52fc1d65a" y="255.070841"/>
      </g>
     </g>
     <g id="text_14">
      <!-- 17000 -->
      <g transform="translate(20.878125 258.87006)scale(0.1 -0.1)">
       <use xlink:href="#DejaVuSans-49"/>
       <use x="63.623047" xlink:href="#DejaVuSans-55"/>
       <use x="127.246094" xlink:href="#DejaVuSans-48"/>
       <use x="190.869141" xlink:href="#DejaVuSans-48"/>
       <use x="254.492188" xlink:href="#DejaVuSans-48"/>
      </g>
     </g>
    </g>
    <g id="ytick_2">
     <g id="line2d_31">
      <g>
       <use style="stroke:#000000;stroke-width:0.8;" x="59.690625" xlink:href="#mb52fc1d65a" y="204.921588"/>
      </g>
     </g>
     <g id="text_15">
      <!-- 17500 -->
      <g transform="translate(20.878125 208.720806)scale(0.1 -0.1)">
       <use xlink:href="#DejaVuSans-49"/>
       <use x="63.623047" xlink:href="#DejaVuSans-55"/>
       <use x="127.246094" xlink:href="#DejaVuSans-53"/>
       <use x="190.869141" xlink:href="#DejaVuSans-48"/>
       <use x="254.492188" xlink:href="#DejaVuSans-48"/>
      </g>
     </g>
    </g>
    <g id="ytick_3">
     <g id="line2d_32">
      <g>
       <use style="stroke:#000000;stroke-width:0.8;" x="59.690625" xlink:href="#mb52fc1d65a" y="154.772334"/>
      </g>
     </g>
     <g id="text_16">
      <!-- 18000 -->
      <g transform="translate(20.878125 158.571553)scale(0.1 -0.1)">
       <use xlink:href="#DejaVuSans-49"/>
       <use x="63.623047" xlink:href="#DejaVuSans-56"/>
       <use x="127.246094" xlink:href="#DejaVuSans-48"/>
       <use x="190.869141" xlink:href="#DejaVuSans-48"/>
       <use x="254.492188" xlink:href="#DejaVuSans-48"/>
      </g>
     </g>
    </g>
    <g id="ytick_4">
     <g id="line2d_33">
      <g>
       <use style="stroke:#000000;stroke-width:0.8;" x="59.690625" xlink:href="#mb52fc1d65a" y="104.62308"/>
      </g>
     </g>
     <g id="text_17">
      <!-- 18500 -->
      <g transform="translate(20.878125 108.422299)scale(0.1 -0.1)">
       <use xlink:href="#DejaVuSans-49"/>
       <use x="63.623047" xlink:href="#DejaVuSans-56"/>
       <use x="127.246094" xlink:href="#DejaVuSans-53"/>
       <use x="190.869141" xlink:href="#DejaVuSans-48"/>
       <use x="254.492188" xlink:href="#DejaVuSans-48"/>
      </g>
     </g>
    </g>
    <g id="ytick_5">
     <g id="line2d_34">
      <g>
       <use style="stroke:#000000;stroke-width:0.8;" x="59.690625" xlink:href="#mb52fc1d65a" y="54.473826"/>
      </g>
     </g>
     <g id="text_18">
      <!-- 19000 -->
      <g transform="translate(20.878125 58.273045)scale(0.1 -0.1)">
       <use xlink:href="#DejaVuSans-49"/>
       <use x="63.623047" xlink:href="#DejaVuSans-57"/>
       <use x="127.246094" xlink:href="#DejaVuSans-48"/>
       <use x="190.869141" xlink:href="#DejaVuSans-48"/>
       <use x="254.492188" xlink:href="#DejaVuSans-48"/>
      </g>
     </g>
    </g>
    <g id="text_19">
     <!-- Code region coverage -->
     <g transform="translate(14.798438 210.379594)rotate(-90)scale(0.1 -0.1)">
      <defs>
       <path d="M 64.40625 67.28125 
L 64.40625 56.890625 
Q 59.421875 61.53125 53.78125 63.8125 
Q 48.140625 66.109375 41.796875 66.109375 
Q 29.296875 66.109375 22.65625 58.46875 
Q 16.015625 50.828125 16.015625 36.375 
Q 16.015625 21.96875 22.65625 14.328125 
Q 29.296875 6.6875 41.796875 6.6875 
Q 48.140625 6.6875 53.78125 8.984375 
Q 59.421875 11.28125 64.40625 15.921875 
L 64.40625 5.609375 
Q 59.234375 2.09375 53.4375 0.328125 
Q 47.65625 -1.421875 41.21875 -1.421875 
Q 24.65625 -1.421875 15.125 8.703125 
Q 5.609375 18.84375 5.609375 36.375 
Q 5.609375 53.953125 15.125 64.078125 
Q 24.65625 74.21875 41.21875 74.21875 
Q 47.75 74.21875 53.53125 72.484375 
Q 59.328125 70.75 64.40625 67.28125 
z
" id="DejaVuSans-67"/>
       <path d="M 45.40625 46.390625 
L 45.40625 75.984375 
L 54.390625 75.984375 
L 54.390625 0 
L 45.40625 0 
L 45.40625 8.203125 
Q 42.578125 3.328125 38.25 0.953125 
Q 33.9375 -1.421875 27.875 -1.421875 
Q 17.96875 -1.421875 11.734375 6.484375 
Q 5.515625 14.40625 5.515625 27.296875 
Q 5.515625 40.1875 11.734375 48.09375 
Q 17.96875 56 27.875 56 
Q 33.9375 56 38.25 53.625 
Q 42.578125 51.265625 45.40625 46.390625 
z
M 14.796875 27.296875 
Q 14.796875 17.390625 18.875 11.75 
Q 22.953125 6.109375 30.078125 6.109375 
Q 37.203125 6.109375 41.296875 11.75 
Q 45.40625 17.390625 45.40625 27.296875 
Q 45.40625 37.203125 41.296875 42.84375 
Q 37.203125 48.484375 30.078125 48.484375 
Q 22.953125 48.484375 18.875 42.84375 
Q 14.796875 37.203125 14.796875 27.296875 
z
" id="DejaVuSans-100"/>
       <path d="M 45.40625 27.984375 
Q 45.40625 37.75 41.375 43.109375 
Q 37.359375 48.484375 30.078125 48.484375 
Q 22.859375 48.484375 18.828125 43.109375 
Q 14.796875 37.75 14.796875 27.984375 
Q 14.796875 18.265625 18.828125 12.890625 
Q 22.859375 7.515625 30.078125 7.515625 
Q 37.359375 7.515625 41.375 12.890625 
Q 45.40625 18.265625 45.40625 27.984375 
z
M 54.390625 6.78125 
Q 54.390625 -7.171875 48.1875 -13.984375 
Q 42 -20.796875 29.203125 -20.796875 
Q 24.46875 -20.796875 20.265625 -20.09375 
Q 16.0625 -19.390625 12.109375 -17.921875 
L 12.109375 -9.1875 
Q 16.0625 -11.328125 19.921875 -12.34375 
Q 23.78125 -13.375 27.78125 -13.375 
Q 36.625 -13.375 41.015625 -8.765625 
Q 45.40625 -4.15625 45.40625 5.171875 
L 45.40625 9.625 
Q 42.625 4.78125 38.28125 2.390625 
Q 33.9375 0 27.875 0 
Q 17.828125 0 11.671875 7.65625 
Q 5.515625 15.328125 5.515625 27.984375 
Q 5.515625 40.671875 11.671875 48.328125 
Q 17.828125 56 27.875 56 
Q 33.9375 56 38.28125 53.609375 
Q 42.625 51.21875 45.40625 46.390625 
L 45.40625 54.6875 
L 54.390625 54.6875 
z
" id="DejaVuSans-103"/>
       <path d="M 48.78125 52.59375 
L 48.78125 44.1875 
Q 44.96875 46.296875 41.140625 47.34375 
Q 37.3125 48.390625 33.40625 48.390625 
Q 24.65625 48.390625 19.8125 42.84375 
Q 14.984375 37.3125 14.984375 27.296875 
Q 14.984375 17.28125 19.8125 11.734375 
Q 24.65625 6.203125 33.40625 6.203125 
Q 37.3125 6.203125 41.140625 7.25 
Q 44.96875 8.296875 48.78125 10.40625 
L 48.78125 2.09375 
Q 45.015625 0.34375 40.984375 -0.53125 
Q 36.96875 -1.421875 32.421875 -1.421875 
Q 20.0625 -1.421875 12.78125 6.34375 
Q 5.515625 14.109375 5.515625 27.296875 
Q 5.515625 40.671875 12.859375 48.328125 
Q 20.21875 56 33.015625 56 
Q 37.15625 56 41.109375 55.140625 
Q 45.0625 54.296875 48.78125 52.59375 
z
" id="DejaVuSans-99"/>
       <path d="M 2.984375 54.6875 
L 12.5 54.6875 
L 29.59375 8.796875 
L 46.6875 54.6875 
L 56.203125 54.6875 
L 35.6875 0 
L 23.484375 0 
z
" id="DejaVuSans-118"/>
       <path d="M 34.28125 27.484375 
Q 23.390625 27.484375 19.1875 25 
Q 14.984375 22.515625 14.984375 16.5 
Q 14.984375 11.71875 18.140625 8.90625 
Q 21.296875 6.109375 26.703125 6.109375 
Q 34.1875 6.109375 38.703125 11.40625 
Q 43.21875 16.703125 43.21875 25.484375 
L 43.21875 27.484375 
z
M 52.203125 31.203125 
L 52.203125 0 
L 43.21875 0 
L 43.21875 8.296875 
Q 40.140625 3.328125 35.546875 0.953125 
Q 30.953125 -1.421875 24.3125 -1.421875 
Q 15.921875 -1.421875 10.953125 3.296875 
Q 6 8.015625 6 15.921875 
Q 6 25.140625 12.171875 29.828125 
Q 18.359375 34.515625 30.609375 34.515625 
L 43.21875 34.515625 
L 43.21875 35.40625 
Q 43.21875 41.609375 39.140625 45 
Q 35.0625 48.390625 27.6875 48.390625 
Q 23 48.390625 18.546875 47.265625 
Q 14.109375 46.140625 10.015625 43.890625 
L 10.015625 52.203125 
Q 14.9375 54.109375 19.578125 55.046875 
Q 24.21875 56 28.609375 56 
Q 40.484375 56 46.34375 49.84375 
Q 52.203125 43.703125 52.203125 31.203125 
z
" id="DejaVuSans-97"/>
      </defs>
      <use xlink:href="#DejaVuSans-67"/>
      <use x="69.824219" xlink:href="#DejaVuSans-111"/>
      <use x="131.005859" xlink:href="#DejaVuSans-100"/>
      <use x="194.482422" xlink:href="#DejaVuSans-101"/>
      <use x="256.005859" xlink:href="#DejaVuSans-32"/>
      <use x="287.792969" xlink:href="#DejaVuSans-114"/>
      <use x="326.65625" xlink:href="#DejaVuSans-101"/>
      <use x="388.179688" xlink:href="#DejaVuSans-103"/>
      <use x="451.65625" xlink:href="#DejaVuSans-105"/>
      <use x="479.439453" xlink:href="#DejaVuSans-111"/>
      <use x="540.621094" xlink:href="#DejaVuSans-110"/>
      <use x="604" xlink:href="#DejaVuSans-32"/>
      <use x="635.787109" xlink:href="#DejaVuSans-99"/>
      <use x="690.767578" xlink:href="#DejaVuSans-111"/>
      <use x="751.949219" xlink:href="#DejaVuSans-118"/>
      <use x="811.128906" xlink:href="#DejaVuSans-101"/>
      <use x="872.652344" xlink:href="#DejaVuSans-114"/>
      <use x="913.765625" xlink:href="#DejaVuSans-97"/>
      <use x="975.044922" xlink:href="#DejaVuSans-103"/>
      <use x="1038.521484" xlink:href="#DejaVuSans-101"/>
     </g>
    </g>
   </g>
   <g id="line2d_35">
    <path clip-path="url(#p6c96f8d4a2)" d="M 92.15608 190.378304 
L 190.760907 161.893528 
L 248.441033 145.344274 
L 289.365734 137.520991 
L 321.109399 118.715021 
L 347.045861 111.393229 
L 368.974827 103.870841 
L 387.970562 96.749647 
L 404.725987 94.793826 
L 419.714226 91.132931 
L 433.272737 90.330543 
L 445.650688 85.566364 
L 457.037299 82.406961 
L 467.579655 81.554424 
L 477.394352 80.45114 
L 486.575389 79.949647 
L 495.199648 79.949647 
L 503.330815 79.046961 
L 511.022239 77.442185 
L 518.319053 76.790244 
L 525.259781 76.238603 
L 531.877565 74.483379 
L 538.201126 74.182483 
L 544.255516 74.032035 
L 550.062718 73.480394 
L 555.642127 72.076215 
L 561.010941 71.524573 
L 566.184482 71.223677 
L 571.176457 70.972931 
L 575.99918 64.503677 
L 580.663752 64.353229 
L 585.180217 63.701289 
L 589.557691 63.300095 
L 593.804475 62.898901 
L 597.928146 62.447558 
L 601.935642 62.447558 
L 605.83333 61.695319 
L 609.627066 60.892931 
L 613.322253 60.190841 
L 616.923881 59.839797 
L 620.43657 59.58905 
L 623.864608 59.488752 
L 627.211979 59.438603 
L 630.482392 59.338304 
L 633.679306 59.288155 
L 636.805953 59.187856 
L 639.865355 59.037409 
L 642.860343 58.987259 
L 645.793575 58.987259 
L 648.667545 58.93711 
L 651.484601 58.435618 
L 654.246954 58.184871 
L 656.956687 57.633229 
L 659.615768 57.232035 
L 662.226056 57.232035 
L 664.789309 57.181886 
L 667.307193 56.128752 
L 669.781285 56.128752 
L 672.213082 55.777707 
L 674.604007 55.777707 
L 676.955411 55.727558 
L 679.268579 55.727558 
L 681.544735 54.674424 
L 683.785044 54.674424 
L 685.990618 54.22308 
L 688.162519 54.22308 
L 690.301757 54.22308 
L 692.409302 54.072632 
L 694.486079 54.072632 
L 696.532974 54.072632 
L 698.550833 53.922185 
L 700.540469 53.922185 
L 702.502662 53.922185 
L 704.438157 53.872035 
L 706.347672 53.470841 
L 708.231894 53.420692 
L 710.091485 53.370543 
L 711.927081 53.270244 
L 713.739292 53.270244 
L 715.528708 53.270244 
L 717.295895 53.270244 
L 719.041398 53.270244 
L 720.765742 53.270244 
L 722.469436 53.220095 
L 724.152967 53.220095 
L 725.816807 52.86905 
L 727.461411 52.818901 
L 729.087219 52.818901 
L 730.694657 52.568155 
L 732.284134 52.568155 
L 733.856047 52.417707 
L 735.41078 52.417707 
L 736.948706 48.355618 
L 738.470182 48.305468 
L 739.975558 48.305468 
L 741.46517 48.305468 
" style="fill:none;stroke:#1f77b4;stroke-linecap:square;stroke-width:1.5;"/>
    <defs>
     <path d="M 0 3 
C 0.795609 3 1.55874 2.683901 2.12132 2.12132 
C 2.683901 1.55874 3 0.795609 3 0 
C 3 -0.795609 2.683901 -1.55874 2.12132 -2.12132 
C 1.55874 -2.683901 0.795609 -3 0 -3 
C -0.795609 -3 -1.55874 -2.683901 -2.12132 -2.12132 
C -2.683901 -1.55874 -3 -0.795609 -3 0 
C -3 0.795609 -2.683901 1.55874 -2.12132 2.12132 
C -1.55874 2.683901 -0.795609 3 0 3 
z
" id="m0b76297316" style="stroke:#ffffff;stroke-width:0.75;"/>
    </defs>
    <g clip-path="url(#p6c96f8d4a2)">
     <use style="fill:#1f77b4;stroke:#ffffff;stroke-width:0.75;" x="92.15608" xlink:href="#m0b76297316" y="190.378304"/>
     <use style="fill:#1f77b4;stroke:#ffffff;stroke-width:0.75;" x="190.760907" xlink:href="#m0b76297316" y="161.893528"/>
     <use style="fill:#1f77b4;stroke:#ffffff;stroke-width:0.75;" x="248.441033" xlink:href="#m0b76297316" y="145.344274"/>
     <use style="fill:#1f77b4;stroke:#ffffff;stroke-width:0.75;" x="289.365734" xlink:href="#m0b76297316" y="137.520991"/>
     <use style="fill:#1f77b4;stroke:#ffffff;stroke-width:0.75;" x="321.109399" xlink:href="#m0b76297316" y="118.715021"/>
     <use style="fill:#1f77b4;stroke:#ffffff;stroke-width:0.75;" x="347.045861" xlink:href="#m0b76297316" y="111.393229"/>
     <use style="fill:#1f77b4;stroke:#ffffff;stroke-width:0.75;" x="368.974827" xlink:href="#m0b76297316" y="103.870841"/>
     <use style="fill:#1f77b4;stroke:#ffffff;stroke-width:0.75;" x="387.970562" xlink:href="#m0b76297316" y="96.749647"/>
     <use style="fill:#1f77b4;stroke:#ffffff;stroke-width:0.75;" x="404.725987" xlink:href="#m0b76297316" y="94.793826"/>
     <use style="fill:#1f77b4;stroke:#ffffff;stroke-width:0.75;" x="419.714226" xlink:href="#m0b76297316" y="91.132931"/>
     <use style="fill:#1f77b4;stroke:#ffffff;stroke-width:0.75;" x="433.272737" xlink:href="#m0b76297316" y="90.330543"/>
     <use style="fill:#1f77b4;stroke:#ffffff;stroke-width:0.75;" x="445.650688" xlink:href="#m0b76297316" y="85.566364"/>
     <use style="fill:#1f77b4;stroke:#ffffff;stroke-width:0.75;" x="457.037299" xlink:href="#m0b76297316" y="82.406961"/>
     <use style="fill:#1f77b4;stroke:#ffffff;stroke-width:0.75;" x="467.579655" xlink:href="#m0b76297316" y="81.554424"/>
     <use style="fill:#1f77b4;stroke:#ffffff;stroke-width:0.75;" x="477.394352" xlink:href="#m0b76297316" y="80.45114"/>
     <use style="fill:#1f77b4;stroke:#ffffff;stroke-width:0.75;" x="486.575389" xlink:href="#m0b76297316" y="79.949647"/>
     <use style="fill:#1f77b4;stroke:#ffffff;stroke-width:0.75;" x="495.199648" xlink:href="#m0b76297316" y="79.949647"/>
     <use style="fill:#1f77b4;stroke:#ffffff;stroke-width:0.75;" x="503.330815" xlink:href="#m0b76297316" y="79.046961"/>
     <use style="fill:#1f77b4;stroke:#ffffff;stroke-width:0.75;" x="511.022239" xlink:href="#m0b76297316" y="77.442185"/>
     <use style="fill:#1f77b4;stroke:#ffffff;stroke-width:0.75;" x="518.319053" xlink:href="#m0b76297316" y="76.790244"/>
     <use style="fill:#1f77b4;stroke:#ffffff;stroke-width:0.75;" x="525.259781" xlink:href="#m0b76297316" y="76.238603"/>
     <use style="fill:#1f77b4;stroke:#ffffff;stroke-width:0.75;" x="531.877565" xlink:href="#m0b76297316" y="74.483379"/>
     <use style="fill:#1f77b4;stroke:#ffffff;stroke-width:0.75;" x="538.201126" xlink:href="#m0b76297316" y="74.182483"/>
     <use style="fill:#1f77b4;stroke:#ffffff;stroke-width:0.75;" x="544.255516" xlink:href="#m0b76297316" y="74.032035"/>
     <use style="fill:#1f77b4;stroke:#ffffff;stroke-width:0.75;" x="550.062718" xlink:href="#m0b76297316" y="73.480394"/>
     <use style="fill:#1f77b4;stroke:#ffffff;stroke-width:0.75;" x="555.642127" xlink:href="#m0b76297316" y="72.076215"/>
     <use style="fill:#1f77b4;stroke:#ffffff;stroke-width:0.75;" x="561.010941" xlink:href="#m0b76297316" y="71.524573"/>
     <use style="fill:#1f77b4;stroke:#ffffff;stroke-width:0.75;" x="566.184482" xlink:href="#m0b76297316" y="71.223677"/>
     <use style="fill:#1f77b4;stroke:#ffffff;stroke-width:0.75;" x="571.176457" xlink:href="#m0b76297316" y="70.972931"/>
     <use style="fill:#1f77b4;stroke:#ffffff;stroke-width:0.75;" x="575.99918" xlink:href="#m0b76297316" y="64.503677"/>
     <use style="fill:#1f77b4;stroke:#ffffff;stroke-width:0.75;" x="580.663752" xlink:href="#m0b76297316" y="64.353229"/>
     <use style="fill:#1f77b4;stroke:#ffffff;stroke-width:0.75;" x="585.180217" xlink:href="#m0b76297316" y="63.701289"/>
     <use style="fill:#1f77b4;stroke:#ffffff;stroke-width:0.75;" x="589.557691" xlink:href="#m0b76297316" y="63.300095"/>
     <use style="fill:#1f77b4;stroke:#ffffff;stroke-width:0.75;" x="593.804475" xlink:href="#m0b76297316" y="62.898901"/>
     <use style="fill:#1f77b4;stroke:#ffffff;stroke-width:0.75;" x="597.928146" xlink:href="#m0b76297316" y="62.447558"/>
     <use style="fill:#1f77b4;stroke:#ffffff;stroke-width:0.75;" x="601.935642" xlink:href="#m0b76297316" y="62.447558"/>
     <use style="fill:#1f77b4;stroke:#ffffff;stroke-width:0.75;" x="605.83333" xlink:href="#m0b76297316" y="61.695319"/>
     <use style="fill:#1f77b4;stroke:#ffffff;stroke-width:0.75;" x="609.627066" xlink:href="#m0b76297316" y="60.892931"/>
     <use style="fill:#1f77b4;stroke:#ffffff;stroke-width:0.75;" x="613.322253" xlink:href="#m0b76297316" y="60.190841"/>
     <use style="fill:#1f77b4;stroke:#ffffff;stroke-width:0.75;" x="616.923881" xlink:href="#m0b76297316" y="59.839797"/>
     <use style="fill:#1f77b4;stroke:#ffffff;stroke-width:0.75;" x="620.43657" xlink:href="#m0b76297316" y="59.58905"/>
     <use style="fill:#1f77b4;stroke:#ffffff;stroke-width:0.75;" x="623.864608" xlink:href="#m0b76297316" y="59.488752"/>
     <use style="fill:#1f77b4;stroke:#ffffff;stroke-width:0.75;" x="627.211979" xlink:href="#m0b76297316" y="59.438603"/>
     <use style="fill:#1f77b4;stroke:#ffffff;stroke-width:0.75;" x="630.482392" xlink:href="#m0b76297316" y="59.338304"/>
     <use style="fill:#1f77b4;stroke:#ffffff;stroke-width:0.75;" x="633.679306" xlink:href="#m0b76297316" y="59.288155"/>
     <use style="fill:#1f77b4;stroke:#ffffff;stroke-width:0.75;" x="636.805953" xlink:href="#m0b76297316" y="59.187856"/>
     <use style="fill:#1f77b4;stroke:#ffffff;stroke-width:0.75;" x="639.865355" xlink:href="#m0b76297316" y="59.037409"/>
     <use style="fill:#1f77b4;stroke:#ffffff;stroke-width:0.75;" x="642.860343" xlink:href="#m0b76297316" y="58.987259"/>
     <use style="fill:#1f77b4;stroke:#ffffff;stroke-width:0.75;" x="645.793575" xlink:href="#m0b76297316" y="58.987259"/>
     <use style="fill:#1f77b4;stroke:#ffffff;stroke-width:0.75;" x="648.667545" xlink:href="#m0b76297316" y="58.93711"/>
     <use style="fill:#1f77b4;stroke:#ffffff;stroke-width:0.75;" x="651.484601" xlink:href="#m0b76297316" y="58.435618"/>
     <use style="fill:#1f77b4;stroke:#ffffff;stroke-width:0.75;" x="654.246954" xlink:href="#m0b76297316" y="58.184871"/>
     <use style="fill:#1f77b4;stroke:#ffffff;stroke-width:0.75;" x="656.956687" xlink:href="#m0b76297316" y="57.633229"/>
     <use style="fill:#1f77b4;stroke:#ffffff;stroke-width:0.75;" x="659.615768" xlink:href="#m0b76297316" y="57.232035"/>
     <use style="fill:#1f77b4;stroke:#ffffff;stroke-width:0.75;" x="662.226056" xlink:href="#m0b76297316" y="57.232035"/>
     <use style="fill:#1f77b4;stroke:#ffffff;stroke-width:0.75;" x="664.789309" xlink:href="#m0b76297316" y="57.181886"/>
     <use style="fill:#1f77b4;stroke:#ffffff;stroke-width:0.75;" x="667.307193" xlink:href="#m0b76297316" y="56.128752"/>
     <use style="fill:#1f77b4;stroke:#ffffff;stroke-width:0.75;" x="669.781285" xlink:href="#m0b76297316" y="56.128752"/>
     <use style="fill:#1f77b4;stroke:#ffffff;stroke-width:0.75;" x="672.213082" xlink:href="#m0b76297316" y="55.777707"/>
     <use style="fill:#1f77b4;stroke:#ffffff;stroke-width:0.75;" x="674.604007" xlink:href="#m0b76297316" y="55.777707"/>
     <use style="fill:#1f77b4;stroke:#ffffff;stroke-width:0.75;" x="676.955411" xlink:href="#m0b76297316" y="55.727558"/>
     <use style="fill:#1f77b4;stroke:#ffffff;stroke-width:0.75;" x="679.268579" xlink:href="#m0b76297316" y="55.727558"/>
     <use style="fill:#1f77b4;stroke:#ffffff;stroke-width:0.75;" x="681.544735" xlink:href="#m0b76297316" y="54.674424"/>
     <use style="fill:#1f77b4;stroke:#ffffff;stroke-width:0.75;" x="683.785044" xlink:href="#m0b76297316" y="54.674424"/>
     <use style="fill:#1f77b4;stroke:#ffffff;stroke-width:0.75;" x="685.990618" xlink:href="#m0b76297316" y="54.22308"/>
     <use style="fill:#1f77b4;stroke:#ffffff;stroke-width:0.75;" x="688.162519" xlink:href="#m0b76297316" y="54.22308"/>
     <use style="fill:#1f77b4;stroke:#ffffff;stroke-width:0.75;" x="690.301757" xlink:href="#m0b76297316" y="54.22308"/>
     <use style="fill:#1f77b4;stroke:#ffffff;stroke-width:0.75;" x="692.409302" xlink:href="#m0b76297316" y="54.072632"/>
     <use style="fill:#1f77b4;stroke:#ffffff;stroke-width:0.75;" x="694.486079" xlink:href="#m0b76297316" y="54.072632"/>
     <use style="fill:#1f77b4;stroke:#ffffff;stroke-width:0.75;" x="696.532974" xlink:href="#m0b76297316" y="54.072632"/>
     <use style="fill:#1f77b4;stroke:#ffffff;stroke-width:0.75;" x="698.550833" xlink:href="#m0b76297316" y="53.922185"/>
     <use style="fill:#1f77b4;stroke:#ffffff;stroke-width:0.75;" x="700.540469" xlink:href="#m0b76297316" y="53.922185"/>
     <use style="fill:#1f77b4;stroke:#ffffff;stroke-width:0.75;" x="702.502662" xlink:href="#m0b76297316" y="53.922185"/>
     <use style="fill:#1f77b4;stroke:#ffffff;stroke-width:0.75;" x="704.438157" xlink:href="#m0b76297316" y="53.872035"/>
     <use style="fill:#1f77b4;stroke:#ffffff;stroke-width:0.75;" x="706.347672" xlink:href="#m0b76297316" y="53.470841"/>
     <use style="fill:#1f77b4;stroke:#ffffff;stroke-width:0.75;" x="708.231894" xlink:href="#m0b76297316" y="53.420692"/>
     <use style="fill:#1f77b4;stroke:#ffffff;stroke-width:0.75;" x="710.091485" xlink:href="#m0b76297316" y="53.370543"/>
     <use style="fill:#1f77b4;stroke:#ffffff;stroke-width:0.75;" x="711.927081" xlink:href="#m0b76297316" y="53.270244"/>
     <use style="fill:#1f77b4;stroke:#ffffff;stroke-width:0.75;" x="713.739292" xlink:href="#m0b76297316" y="53.270244"/>
     <use style="fill:#1f77b4;stroke:#ffffff;stroke-width:0.75;" x="715.528708" xlink:href="#m0b76297316" y="53.270244"/>
     <use style="fill:#1f77b4;stroke:#ffffff;stroke-width:0.75;" x="717.295895" xlink:href="#m0b76297316" y="53.270244"/>
     <use style="fill:#1f77b4;stroke:#ffffff;stroke-width:0.75;" x="719.041398" xlink:href="#m0b76297316" y="53.270244"/>
     <use style="fill:#1f77b4;stroke:#ffffff;stroke-width:0.75;" x="720.765742" xlink:href="#m0b76297316" y="53.270244"/>
     <use style="fill:#1f77b4;stroke:#ffffff;stroke-width:0.75;" x="722.469436" xlink:href="#m0b76297316" y="53.220095"/>
     <use style="fill:#1f77b4;stroke:#ffffff;stroke-width:0.75;" x="724.152967" xlink:href="#m0b76297316" y="53.220095"/>
     <use style="fill:#1f77b4;stroke:#ffffff;stroke-width:0.75;" x="725.816807" xlink:href="#m0b76297316" y="52.86905"/>
     <use style="fill:#1f77b4;stroke:#ffffff;stroke-width:0.75;" x="727.461411" xlink:href="#m0b76297316" y="52.818901"/>
     <use style="fill:#1f77b4;stroke:#ffffff;stroke-width:0.75;" x="729.087219" xlink:href="#m0b76297316" y="52.818901"/>
     <use style="fill:#1f77b4;stroke:#ffffff;stroke-width:0.75;" x="730.694657" xlink:href="#m0b76297316" y="52.568155"/>
     <use style="fill:#1f77b4;stroke:#ffffff;stroke-width:0.75;" x="732.284134" xlink:href="#m0b76297316" y="52.568155"/>
     <use style="fill:#1f77b4;stroke:#ffffff;stroke-width:0.75;" x="733.856047" xlink:href="#m0b76297316" y="52.417707"/>
     <use style="fill:#1f77b4;stroke:#ffffff;stroke-width:0.75;" x="735.41078" xlink:href="#m0b76297316" y="52.417707"/>
     <use style="fill:#1f77b4;stroke:#ffffff;stroke-width:0.75;" x="736.948706" xlink:href="#m0b76297316" y="48.355618"/>
     <use style="fill:#1f77b4;stroke:#ffffff;stroke-width:0.75;" x="738.470182" xlink:href="#m0b76297316" y="48.305468"/>
     <use style="fill:#1f77b4;stroke:#ffffff;stroke-width:0.75;" x="739.975558" xlink:href="#m0b76297316" y="48.305468"/>
     <use style="fill:#1f77b4;stroke:#ffffff;stroke-width:0.75;" x="741.46517" xlink:href="#m0b76297316" y="48.305468"/>
    </g>
   </g>
   <g id="line2d_36">
    <path clip-path="url(#p6c96f8d4a2)" d="M 92.15608 270.566961 
L 190.760907 238.020095 
L 248.441033 213.296513 
L 289.365734 210.638603 
L 321.109399 206.325767 
L 347.045861 199.906662 
L 368.974827 198.652931 
L 387.970562 196.346065 
L 404.725987 195.744274 
L 419.714226 192.635021 
L 433.272737 190.478603 
L 445.650688 189.074424 
L 457.037299 188.572931 
L 467.579655 188.472632 
L 477.394352 187.469647 
L 486.575389 184.811737 
L 495.199648 184.260095 
L 503.330815 182.003379 
L 511.022239 178.643379 
L 518.319053 174.731737 
L 525.259781 173.8792 
L 531.877565 173.377707 
L 538.201126 172.224274 
L 544.255516 169.81711 
L 550.062718 169.616513 
L 555.642127 169.215319 
L 561.010941 168.914424 
L 566.184482 168.814125 
L 571.176457 168.763976 
L 575.99918 168.613528 
L 580.663752 160.890543 
L 585.180217 160.740095 
L 589.557691 160.4392 
L 593.804475 158.734125 
L 597.928146 158.533528 
L 601.935642 158.332931 
L 605.83333 157.630841 
L 609.627066 157.329946 
L 613.322253 157.229647 
L 616.923881 157.229647 
L 620.43657 157.02905 
L 623.864608 157.02905 
L 627.211979 156.828453 
L 630.482392 156.728155 
L 633.679306 156.728155 
L 636.805953 156.427259 
L 639.865355 156.276812 
L 642.860343 156.126364 
L 645.793575 156.126364 
L 648.667545 155.173528 
L 651.484601 154.621886 
L 654.246954 154.521588 
L 656.956687 154.421289 
L 659.615768 153.819498 
L 662.226056 151.913826 
L 664.789309 151.863677 
L 667.307193 151.863677 
L 669.781285 151.863677 
L 672.213082 151.863677 
L 674.604007 150.30905 
L 676.955411 149.757409 
L 679.268579 149.757409 
L 681.544735 149.757409 
L 683.785044 149.055319 
L 685.990618 149.055319 
L 688.162519 146.246961 
L 690.301757 146.046364 
L 692.409302 145.544871 
L 694.486079 145.544871 
L 696.532974 145.494722 
L 698.550833 145.494722 
L 700.540469 145.394424 
L 702.502662 144.541886 
L 704.438157 144.341289 
L 706.347672 143.940095 
L 708.231894 143.940095 
L 710.091485 143.889946 
L 711.927081 143.889946 
L 713.739292 143.889946 
L 715.528708 143.739498 
L 717.295895 141.031438 
L 719.041398 141.031438 
L 720.765742 141.031438 
L 722.469436 141.031438 
L 724.152967 140.329349 
L 725.816807 140.329349 
L 727.461411 140.22905 
L 729.087219 140.22905 
L 730.694657 140.178901 
L 732.284134 139.978304 
L 733.856047 139.978304 
L 735.41078 139.978304 
L 736.948706 139.928155 
L 738.470182 139.928155 
L 739.975558 139.878006 
L 741.46517 139.827856 
" style="fill:none;stroke:#98df8a;stroke-linecap:square;stroke-width:1.5;"/>
    <defs>
     <path d="M -0 3 
L 3 -3 
L -3 -3 
z
" id="m52b5b7519a" style="stroke:#ffffff;stroke-linejoin:miter;stroke-width:0.75;"/>
    </defs>
    <g clip-path="url(#p6c96f8d4a2)">
     <use style="fill:#98df8a;stroke:#ffffff;stroke-linejoin:miter;stroke-width:0.75;" x="92.15608" xlink:href="#m52b5b7519a" y="270.566961"/>
     <use style="fill:#98df8a;stroke:#ffffff;stroke-linejoin:miter;stroke-width:0.75;" x="190.760907" xlink:href="#m52b5b7519a" y="238.020095"/>
     <use style="fill:#98df8a;stroke:#ffffff;stroke-linejoin:miter;stroke-width:0.75;" x="248.441033" xlink:href="#m52b5b7519a" y="213.296513"/>
     <use style="fill:#98df8a;stroke:#ffffff;stroke-linejoin:miter;stroke-width:0.75;" x="289.365734" xlink:href="#m52b5b7519a" y="210.638603"/>
     <use style="fill:#98df8a;stroke:#ffffff;stroke-linejoin:miter;stroke-width:0.75;" x="321.109399" xlink:href="#m52b5b7519a" y="206.325767"/>
     <use style="fill:#98df8a;stroke:#ffffff;stroke-linejoin:miter;stroke-width:0.75;" x="347.045861" xlink:href="#m52b5b7519a" y="199.906662"/>
     <use style="fill:#98df8a;stroke:#ffffff;stroke-linejoin:miter;stroke-width:0.75;" x="368.974827" xlink:href="#m52b5b7519a" y="198.652931"/>
     <use style="fill:#98df8a;stroke:#ffffff;stroke-linejoin:miter;stroke-width:0.75;" x="387.970562" xlink:href="#m52b5b7519a" y="196.346065"/>
     <use style="fill:#98df8a;stroke:#ffffff;stroke-linejoin:miter;stroke-width:0.75;" x="404.725987" xlink:href="#m52b5b7519a" y="195.744274"/>
     <use style="fill:#98df8a;stroke:#ffffff;stroke-linejoin:miter;stroke-width:0.75;" x="419.714226" xlink:href="#m52b5b7519a" y="192.635021"/>
     <use style="fill:#98df8a;stroke:#ffffff;stroke-linejoin:miter;stroke-width:0.75;" x="433.272737" xlink:href="#m52b5b7519a" y="190.478603"/>
     <use style="fill:#98df8a;stroke:#ffffff;stroke-linejoin:miter;stroke-width:0.75;" x="445.650688" xlink:href="#m52b5b7519a" y="189.074424"/>
     <use style="fill:#98df8a;stroke:#ffffff;stroke-linejoin:miter;stroke-width:0.75;" x="457.037299" xlink:href="#m52b5b7519a" y="188.572931"/>
     <use style="fill:#98df8a;stroke:#ffffff;stroke-linejoin:miter;stroke-width:0.75;" x="467.579655" xlink:href="#m52b5b7519a" y="188.472632"/>
     <use style="fill:#98df8a;stroke:#ffffff;stroke-linejoin:miter;stroke-width:0.75;" x="477.394352" xlink:href="#m52b5b7519a" y="187.469647"/>
     <use style="fill:#98df8a;stroke:#ffffff;stroke-linejoin:miter;stroke-width:0.75;" x="486.575389" xlink:href="#m52b5b7519a" y="184.811737"/>
     <use style="fill:#98df8a;stroke:#ffffff;stroke-linejoin:miter;stroke-width:0.75;" x="495.199648" xlink:href="#m52b5b7519a" y="184.260095"/>
     <use style="fill:#98df8a;stroke:#ffffff;stroke-linejoin:miter;stroke-width:0.75;" x="503.330815" xlink:href="#m52b5b7519a" y="182.003379"/>
     <use style="fill:#98df8a;stroke:#ffffff;stroke-linejoin:miter;stroke-width:0.75;" x="511.022239" xlink:href="#m52b5b7519a" y="178.643379"/>
     <use style="fill:#98df8a;stroke:#ffffff;stroke-linejoin:miter;stroke-width:0.75;" x="518.319053" xlink:href="#m52b5b7519a" y="174.731737"/>
     <use style="fill:#98df8a;stroke:#ffffff;stroke-linejoin:miter;stroke-width:0.75;" x="525.259781" xlink:href="#m52b5b7519a" y="173.8792"/>
     <use style="fill:#98df8a;stroke:#ffffff;stroke-linejoin:miter;stroke-width:0.75;" x="531.877565" xlink:href="#m52b5b7519a" y="173.377707"/>
     <use style="fill:#98df8a;stroke:#ffffff;stroke-linejoin:miter;stroke-width:0.75;" x="538.201126" xlink:href="#m52b5b7519a" y="172.224274"/>
     <use style="fill:#98df8a;stroke:#ffffff;stroke-linejoin:miter;stroke-width:0.75;" x="544.255516" xlink:href="#m52b5b7519a" y="169.81711"/>
     <use style="fill:#98df8a;stroke:#ffffff;stroke-linejoin:miter;stroke-width:0.75;" x="550.062718" xlink:href="#m52b5b7519a" y="169.616513"/>
     <use style="fill:#98df8a;stroke:#ffffff;stroke-linejoin:miter;stroke-width:0.75;" x="555.642127" xlink:href="#m52b5b7519a" y="169.215319"/>
     <use style="fill:#98df8a;stroke:#ffffff;stroke-linejoin:miter;stroke-width:0.75;" x="561.010941" xlink:href="#m52b5b7519a" y="168.914424"/>
     <use style="fill:#98df8a;stroke:#ffffff;stroke-linejoin:miter;stroke-width:0.75;" x="566.184482" xlink:href="#m52b5b7519a" y="168.814125"/>
     <use style="fill:#98df8a;stroke:#ffffff;stroke-linejoin:miter;stroke-width:0.75;" x="571.176457" xlink:href="#m52b5b7519a" y="168.763976"/>
     <use style="fill:#98df8a;stroke:#ffffff;stroke-linejoin:miter;stroke-width:0.75;" x="575.99918" xlink:href="#m52b5b7519a" y="168.613528"/>
     <use style="fill:#98df8a;stroke:#ffffff;stroke-linejoin:miter;stroke-width:0.75;" x="580.663752" xlink:href="#m52b5b7519a" y="160.890543"/>
     <use style="fill:#98df8a;stroke:#ffffff;stroke-linejoin:miter;stroke-width:0.75;" x="585.180217" xlink:href="#m52b5b7519a" y="160.740095"/>
     <use style="fill:#98df8a;stroke:#ffffff;stroke-linejoin:miter;stroke-width:0.75;" x="589.557691" xlink:href="#m52b5b7519a" y="160.4392"/>
     <use style="fill:#98df8a;stroke:#ffffff;stroke-linejoin:miter;stroke-width:0.75;" x="593.804475" xlink:href="#m52b5b7519a" y="158.734125"/>
     <use style="fill:#98df8a;stroke:#ffffff;stroke-linejoin:miter;stroke-width:0.75;" x="597.928146" xlink:href="#m52b5b7519a" y="158.533528"/>
     <use style="fill:#98df8a;stroke:#ffffff;stroke-linejoin:miter;stroke-width:0.75;" x="601.935642" xlink:href="#m52b5b7519a" y="158.332931"/>
     <use style="fill:#98df8a;stroke:#ffffff;stroke-linejoin:miter;stroke-width:0.75;" x="605.83333" xlink:href="#m52b5b7519a" y="157.630841"/>
     <use style="fill:#98df8a;stroke:#ffffff;stroke-linejoin:miter;stroke-width:0.75;" x="609.627066" xlink:href="#m52b5b7519a" y="157.329946"/>
     <use style="fill:#98df8a;stroke:#ffffff;stroke-linejoin:miter;stroke-width:0.75;" x="613.322253" xlink:href="#m52b5b7519a" y="157.229647"/>
     <use style="fill:#98df8a;stroke:#ffffff;stroke-linejoin:miter;stroke-width:0.75;" x="616.923881" xlink:href="#m52b5b7519a" y="157.229647"/>
     <use style="fill:#98df8a;stroke:#ffffff;stroke-linejoin:miter;stroke-width:0.75;" x="620.43657" xlink:href="#m52b5b7519a" y="157.02905"/>
     <use style="fill:#98df8a;stroke:#ffffff;stroke-linejoin:miter;stroke-width:0.75;" x="623.864608" xlink:href="#m52b5b7519a" y="157.02905"/>
     <use style="fill:#98df8a;stroke:#ffffff;stroke-linejoin:miter;stroke-width:0.75;" x="627.211979" xlink:href="#m52b5b7519a" y="156.828453"/>
     <use style="fill:#98df8a;stroke:#ffffff;stroke-linejoin:miter;stroke-width:0.75;" x="630.482392" xlink:href="#m52b5b7519a" y="156.728155"/>
     <use style="fill:#98df8a;stroke:#ffffff;stroke-linejoin:miter;stroke-width:0.75;" x="633.679306" xlink:href="#m52b5b7519a" y="156.728155"/>
     <use style="fill:#98df8a;stroke:#ffffff;stroke-linejoin:miter;stroke-width:0.75;" x="636.805953" xlink:href="#m52b5b7519a" y="156.427259"/>
     <use style="fill:#98df8a;stroke:#ffffff;stroke-linejoin:miter;stroke-width:0.75;" x="639.865355" xlink:href="#m52b5b7519a" y="156.276812"/>
     <use style="fill:#98df8a;stroke:#ffffff;stroke-linejoin:miter;stroke-width:0.75;" x="642.860343" xlink:href="#m52b5b7519a" y="156.126364"/>
     <use style="fill:#98df8a;stroke:#ffffff;stroke-linejoin:miter;stroke-width:0.75;" x="645.793575" xlink:href="#m52b5b7519a" y="156.126364"/>
     <use style="fill:#98df8a;stroke:#ffffff;stroke-linejoin:miter;stroke-width:0.75;" x="648.667545" xlink:href="#m52b5b7519a" y="155.173528"/>
     <use style="fill:#98df8a;stroke:#ffffff;stroke-linejoin:miter;stroke-width:0.75;" x="651.484601" xlink:href="#m52b5b7519a" y="154.621886"/>
     <use style="fill:#98df8a;stroke:#ffffff;stroke-linejoin:miter;stroke-width:0.75;" x="654.246954" xlink:href="#m52b5b7519a" y="154.521588"/>
     <use style="fill:#98df8a;stroke:#ffffff;stroke-linejoin:miter;stroke-width:0.75;" x="656.956687" xlink:href="#m52b5b7519a" y="154.421289"/>
     <use style="fill:#98df8a;stroke:#ffffff;stroke-linejoin:miter;stroke-width:0.75;" x="659.615768" xlink:href="#m52b5b7519a" y="153.819498"/>
     <use style="fill:#98df8a;stroke:#ffffff;stroke-linejoin:miter;stroke-width:0.75;" x="662.226056" xlink:href="#m52b5b7519a" y="151.913826"/>
     <use style="fill:#98df8a;stroke:#ffffff;stroke-linejoin:miter;stroke-width:0.75;" x="664.789309" xlink:href="#m52b5b7519a" y="151.863677"/>
     <use style="fill:#98df8a;stroke:#ffffff;stroke-linejoin:miter;stroke-width:0.75;" x="667.307193" xlink:href="#m52b5b7519a" y="151.863677"/>
     <use style="fill:#98df8a;stroke:#ffffff;stroke-linejoin:miter;stroke-width:0.75;" x="669.781285" xlink:href="#m52b5b7519a" y="151.863677"/>
     <use style="fill:#98df8a;stroke:#ffffff;stroke-linejoin:miter;stroke-width:0.75;" x="672.213082" xlink:href="#m52b5b7519a" y="151.863677"/>
     <use style="fill:#98df8a;stroke:#ffffff;stroke-linejoin:miter;stroke-width:0.75;" x="674.604007" xlink:href="#m52b5b7519a" y="150.30905"/>
     <use style="fill:#98df8a;stroke:#ffffff;stroke-linejoin:miter;stroke-width:0.75;" x="676.955411" xlink:href="#m52b5b7519a" y="149.757409"/>
     <use style="fill:#98df8a;stroke:#ffffff;stroke-linejoin:miter;stroke-width:0.75;" x="679.268579" xlink:href="#m52b5b7519a" y="149.757409"/>
     <use style="fill:#98df8a;stroke:#ffffff;stroke-linejoin:miter;stroke-width:0.75;" x="681.544735" xlink:href="#m52b5b7519a" y="149.757409"/>
     <use style="fill:#98df8a;stroke:#ffffff;stroke-linejoin:miter;stroke-width:0.75;" x="683.785044" xlink:href="#m52b5b7519a" y="149.055319"/>
     <use style="fill:#98df8a;stroke:#ffffff;stroke-linejoin:miter;stroke-width:0.75;" x="685.990618" xlink:href="#m52b5b7519a" y="149.055319"/>
     <use style="fill:#98df8a;stroke:#ffffff;stroke-linejoin:miter;stroke-width:0.75;" x="688.162519" xlink:href="#m52b5b7519a" y="146.246961"/>
     <use style="fill:#98df8a;stroke:#ffffff;stroke-linejoin:miter;stroke-width:0.75;" x="690.301757" xlink:href="#m52b5b7519a" y="146.046364"/>
     <use style="fill:#98df8a;stroke:#ffffff;stroke-linejoin:miter;stroke-width:0.75;" x="692.409302" xlink:href="#m52b5b7519a" y="145.544871"/>
     <use style="fill:#98df8a;stroke:#ffffff;stroke-linejoin:miter;stroke-width:0.75;" x="694.486079" xlink:href="#m52b5b7519a" y="145.544871"/>
     <use style="fill:#98df8a;stroke:#ffffff;stroke-linejoin:miter;stroke-width:0.75;" x="696.532974" xlink:href="#m52b5b7519a" y="145.494722"/>
     <use style="fill:#98df8a;stroke:#ffffff;stroke-linejoin:miter;stroke-width:0.75;" x="698.550833" xlink:href="#m52b5b7519a" y="145.494722"/>
     <use style="fill:#98df8a;stroke:#ffffff;stroke-linejoin:miter;stroke-width:0.75;" x="700.540469" xlink:href="#m52b5b7519a" y="145.394424"/>
     <use style="fill:#98df8a;stroke:#ffffff;stroke-linejoin:miter;stroke-width:0.75;" x="702.502662" xlink:href="#m52b5b7519a" y="144.541886"/>
     <use style="fill:#98df8a;stroke:#ffffff;stroke-linejoin:miter;stroke-width:0.75;" x="704.438157" xlink:href="#m52b5b7519a" y="144.341289"/>
     <use style="fill:#98df8a;stroke:#ffffff;stroke-linejoin:miter;stroke-width:0.75;" x="706.347672" xlink:href="#m52b5b7519a" y="143.940095"/>
     <use style="fill:#98df8a;stroke:#ffffff;stroke-linejoin:miter;stroke-width:0.75;" x="708.231894" xlink:href="#m52b5b7519a" y="143.940095"/>
     <use style="fill:#98df8a;stroke:#ffffff;stroke-linejoin:miter;stroke-width:0.75;" x="710.091485" xlink:href="#m52b5b7519a" y="143.889946"/>
     <use style="fill:#98df8a;stroke:#ffffff;stroke-linejoin:miter;stroke-width:0.75;" x="711.927081" xlink:href="#m52b5b7519a" y="143.889946"/>
     <use style="fill:#98df8a;stroke:#ffffff;stroke-linejoin:miter;stroke-width:0.75;" x="713.739292" xlink:href="#m52b5b7519a" y="143.889946"/>
     <use style="fill:#98df8a;stroke:#ffffff;stroke-linejoin:miter;stroke-width:0.75;" x="715.528708" xlink:href="#m52b5b7519a" y="143.739498"/>
     <use style="fill:#98df8a;stroke:#ffffff;stroke-linejoin:miter;stroke-width:0.75;" x="717.295895" xlink:href="#m52b5b7519a" y="141.031438"/>
     <use style="fill:#98df8a;stroke:#ffffff;stroke-linejoin:miter;stroke-width:0.75;" x="719.041398" xlink:href="#m52b5b7519a" y="141.031438"/>
     <use style="fill:#98df8a;stroke:#ffffff;stroke-linejoin:miter;stroke-width:0.75;" x="720.765742" xlink:href="#m52b5b7519a" y="141.031438"/>
     <use style="fill:#98df8a;stroke:#ffffff;stroke-linejoin:miter;stroke-width:0.75;" x="722.469436" xlink:href="#m52b5b7519a" y="141.031438"/>
     <use style="fill:#98df8a;stroke:#ffffff;stroke-linejoin:miter;stroke-width:0.75;" x="724.152967" xlink:href="#m52b5b7519a" y="140.329349"/>
     <use style="fill:#98df8a;stroke:#ffffff;stroke-linejoin:miter;stroke-width:0.75;" x="725.816807" xlink:href="#m52b5b7519a" y="140.329349"/>
     <use style="fill:#98df8a;stroke:#ffffff;stroke-linejoin:miter;stroke-width:0.75;" x="727.461411" xlink:href="#m52b5b7519a" y="140.22905"/>
     <use style="fill:#98df8a;stroke:#ffffff;stroke-linejoin:miter;stroke-width:0.75;" x="729.087219" xlink:href="#m52b5b7519a" y="140.22905"/>
     <use style="fill:#98df8a;stroke:#ffffff;stroke-linejoin:miter;stroke-width:0.75;" x="730.694657" xlink:href="#m52b5b7519a" y="140.178901"/>
     <use style="fill:#98df8a;stroke:#ffffff;stroke-linejoin:miter;stroke-width:0.75;" x="732.284134" xlink:href="#m52b5b7519a" y="139.978304"/>
     <use style="fill:#98df8a;stroke:#ffffff;stroke-linejoin:miter;stroke-width:0.75;" x="733.856047" xlink:href="#m52b5b7519a" y="139.978304"/>
     <use style="fill:#98df8a;stroke:#ffffff;stroke-linejoin:miter;stroke-width:0.75;" x="735.41078" xlink:href="#m52b5b7519a" y="139.978304"/>
     <use style="fill:#98df8a;stroke:#ffffff;stroke-linejoin:miter;stroke-width:0.75;" x="736.948706" xlink:href="#m52b5b7519a" y="139.928155"/>
     <use style="fill:#98df8a;stroke:#ffffff;stroke-linejoin:miter;stroke-width:0.75;" x="738.470182" xlink:href="#m52b5b7519a" y="139.928155"/>
     <use style="fill:#98df8a;stroke:#ffffff;stroke-linejoin:miter;stroke-width:0.75;" x="739.975558" xlink:href="#m52b5b7519a" y="139.878006"/>
     <use style="fill:#98df8a;stroke:#ffffff;stroke-linejoin:miter;stroke-width:0.75;" x="741.46517" xlink:href="#m52b5b7519a" y="139.827856"/>
    </g>
   </g>
   <g id="line2d_37"/>
   <g id="line2d_38"/>
   <g id="line2d_39">
    <path clip-path="url(#p6c96f8d4a2)" d="M 741.46517 288.430125 
L 741.46517 22.318125 
" style="fill:none;stroke:#ff0000;stroke-linecap:square;stroke-width:1.5;"/>
   </g>
   <g id="patch_3">
    <path d="M 59.690625 255.070841 
L 59.690625 54.473826 
" style="fill:none;stroke:#000000;stroke-linecap:square;stroke-linejoin:miter;stroke-width:0.8;"/>
   </g>
   <g id="patch_4">
    <path d="M 92.15608 288.430125 
L 741.466817 288.430125 
" style="fill:none;stroke:#000000;stroke-linecap:square;stroke-linejoin:miter;stroke-width:0.8;"/>
   </g>
   <g id="text_20">
    <!-- libxslt_xpath (24h, 2 trials/fuzzer) -->
    <g transform="translate(315.868125 16.318125)scale(0.12 -0.12)">
     <defs>
      <path d="M 9.421875 75.984375 
L 18.40625 75.984375 
L 18.40625 0 
L 9.421875 0 
z
" id="DejaVuSans-108"/>
      <path d="M 48.6875 27.296875 
Q 48.6875 37.203125 44.609375 42.84375 
Q 40.53125 48.484375 33.40625 48.484375 
Q 26.265625 48.484375 22.1875 42.84375 
Q 18.109375 37.203125 18.109375 27.296875 
Q 18.109375 17.390625 22.1875 11.75 
Q 26.265625 6.109375 33.40625 6.109375 
Q 40.53125 6.109375 44.609375 11.75 
Q 48.6875 17.390625 48.6875 27.296875 
z
M 18.109375 46.390625 
Q 20.953125 51.265625 25.265625 53.625 
Q 29.59375 56 35.59375 56 
Q 45.5625 56 51.78125 48.09375 
Q 58.015625 40.1875 58.015625 27.296875 
Q 58.015625 14.40625 51.78125 6.484375 
Q 45.5625 -1.421875 35.59375 -1.421875 
Q 29.59375 -1.421875 25.265625 0.953125 
Q 20.953125 3.328125 18.109375 8.203125 
L 18.109375 0 
L 9.078125 0 
L 9.078125 75.984375 
L 18.109375 75.984375 
z
" id="DejaVuSans-98"/>
      <path d="M 54.890625 54.6875 
L 35.109375 28.078125 
L 55.90625 0 
L 45.3125 0 
L 29.390625 21.484375 
L 13.484375 0 
L 2.875 0 
L 24.125 28.609375 
L 4.6875 54.6875 
L 15.28125 54.6875 
L 29.78125 35.203125 
L 44.28125 54.6875 
z
" id="DejaVuSans-120"/>
      <path d="M 44.28125 53.078125 
L 44.28125 44.578125 
Q 40.484375 46.53125 36.375 47.5 
Q 32.28125 48.484375 27.875 48.484375 
Q 21.1875 48.484375 17.84375 46.4375 
Q 14.5 44.390625 14.5 40.28125 
Q 14.5 37.15625 16.890625 35.375 
Q 19.28125 33.59375 26.515625 31.984375 
L 29.59375 31.296875 
Q 39.15625 29.25 43.1875 25.515625 
Q 47.21875 21.78125 47.21875 15.09375 
Q 47.21875 7.46875 41.1875 3.015625 
Q 35.15625 -1.421875 24.609375 -1.421875 
Q 20.21875 -1.421875 15.453125 -0.5625 
Q 10.6875 0.296875 5.421875 2 
L 5.421875 11.28125 
Q 10.40625 8.6875 15.234375 7.390625 
Q 20.0625 6.109375 24.8125 6.109375 
Q 31.15625 6.109375 34.5625 8.28125 
Q 37.984375 10.453125 37.984375 14.40625 
Q 37.984375 18.0625 35.515625 20.015625 
Q 33.0625 21.96875 24.703125 23.78125 
L 21.578125 24.515625 
Q 13.234375 26.265625 9.515625 29.90625 
Q 5.8125 33.546875 5.8125 39.890625 
Q 5.8125 47.609375 11.28125 51.796875 
Q 16.75 56 26.8125 56 
Q 31.78125 56 36.171875 55.265625 
Q 40.578125 54.546875 44.28125 53.078125 
z
" id="DejaVuSans-115"/>
      <path d="M 50.984375 -16.609375 
L 50.984375 -23.578125 
L -0.984375 -23.578125 
L -0.984375 -16.609375 
z
" id="DejaVuSans-95"/>
      <path d="M 18.109375 8.203125 
L 18.109375 -20.796875 
L 9.078125 -20.796875 
L 9.078125 54.6875 
L 18.109375 54.6875 
L 18.109375 46.390625 
Q 20.953125 51.265625 25.265625 53.625 
Q 29.59375 56 35.59375 56 
Q 45.5625 56 51.78125 48.09375 
Q 58.015625 40.1875 58.015625 27.296875 
Q 58.015625 14.40625 51.78125 6.484375 
Q 45.5625 -1.421875 35.59375 -1.421875 
Q 29.59375 -1.421875 25.265625 0.953125 
Q 20.953125 3.328125 18.109375 8.203125 
z
M 48.6875 27.296875 
Q 48.6875 37.203125 44.609375 42.84375 
Q 40.53125 48.484375 33.40625 48.484375 
Q 26.265625 48.484375 22.1875 42.84375 
Q 18.109375 37.203125 18.109375 27.296875 
Q 18.109375 17.390625 22.1875 11.75 
Q 26.265625 6.109375 33.40625 6.109375 
Q 40.53125 6.109375 44.609375 11.75 
Q 48.6875 17.390625 48.6875 27.296875 
z
" id="DejaVuSans-112"/>
      <path d="M 11.71875 12.40625 
L 22.015625 12.40625 
L 22.015625 4 
L 14.015625 -11.625 
L 7.71875 -11.625 
L 11.71875 4 
z
" id="DejaVuSans-44"/>
      <path d="M 25.390625 72.90625 
L 33.6875 72.90625 
L 8.296875 -9.28125 
L 0 -9.28125 
z
" id="DejaVuSans-47"/>
      <path d="M 37.109375 75.984375 
L 37.109375 68.5 
L 28.515625 68.5 
Q 23.6875 68.5 21.796875 66.546875 
Q 19.921875 64.59375 19.921875 59.515625 
L 19.921875 54.6875 
L 34.71875 54.6875 
L 34.71875 47.703125 
L 19.921875 47.703125 
L 19.921875 0 
L 10.890625 0 
L 10.890625 47.703125 
L 2.296875 47.703125 
L 2.296875 54.6875 
L 10.890625 54.6875 
L 10.890625 58.5 
Q 10.890625 67.625 15.140625 71.796875 
Q 19.390625 75.984375 28.609375 75.984375 
z
" id="DejaVuSans-102"/>
      <path d="M 5.515625 54.6875 
L 48.1875 54.6875 
L 48.1875 46.484375 
L 14.40625 7.171875 
L 48.1875 7.171875 
L 48.1875 0 
L 4.296875 0 
L 4.296875 8.203125 
L 38.09375 47.515625 
L 5.515625 47.515625 
z
" id="DejaVuSans-122"/>
     </defs>
     <use xlink:href="#DejaVuSans-108"/>
     <use x="27.783203" xlink:href="#DejaVuSans-105"/>
     <use x="55.566406" xlink:href="#DejaVuSans-98"/>
     <use x="119.042969" xlink:href="#DejaVuSans-120"/>
     <use x="178.222656" xlink:href="#DejaVuSans-115"/>
     <use x="230.322266" xlink:href="#DejaVuSans-108"/>
     <use x="258.105469" xlink:href="#DejaVuSans-116"/>
     <use x="297.314453" xlink:href="#DejaVuSans-95"/>
     <use x="347.314453" xlink:href="#DejaVuSans-120"/>
     <use x="406.494141" xlink:href="#DejaVuSans-112"/>
     <use x="469.970703" xlink:href="#DejaVuSans-97"/>
     <use x="531.25" xlink:href="#DejaVuSans-116"/>
     <use x="570.458984" xlink:href="#DejaVuSans-104"/>
     <use x="633.837891" xlink:href="#DejaVuSans-32"/>
     <use x="665.625" xlink:href="#DejaVuSans-40"/>
     <use x="704.638672" xlink:href="#DejaVuSans-50"/>
     <use x="768.261719" xlink:href="#DejaVuSans-52"/>
     <use x="831.884766" xlink:href="#DejaVuSans-104"/>
     <use x="895.263672" xlink:href="#DejaVuSans-44"/>
     <use x="927.050781" xlink:href="#DejaVuSans-32"/>
     <use x="958.837891" xlink:href="#DejaVuSans-50"/>
     <use x="1022.460938" xlink:href="#DejaVuSans-32"/>
     <use x="1054.248047" xlink:href="#DejaVuSans-116"/>
     <use x="1093.457031" xlink:href="#DejaVuSans-114"/>
     <use x="1134.570312" xlink:href="#DejaVuSans-105"/>
     <use x="1162.353516" xlink:href="#DejaVuSans-97"/>
     <use x="1223.632812" xlink:href="#DejaVuSans-108"/>
     <use x="1251.416016" xlink:href="#DejaVuSans-115"/>
     <use x="1303.515625" xlink:href="#DejaVuSans-47"/>
     <use x="1337.207031" xlink:href="#DejaVuSans-102"/>
     <use x="1372.412109" xlink:href="#DejaVuSans-117"/>
     <use x="1435.791016" xlink:href="#DejaVuSans-122"/>
     <use x="1488.28125" xlink:href="#DejaVuSans-122"/>
     <use x="1540.771484" xlink:href="#DejaVuSans-101"/>
     <use x="1602.294922" xlink:href="#DejaVuSans-114"/>
     <use x="1643.408203" xlink:href="#DejaVuSans-41"/>
    </g>
   </g>
   <g id="legend_1">
    <g id="line2d_40">
     <path d="M 777.930625 30.416562 
L 797.930625 30.416562 
" style="fill:none;stroke:#1f77b4;stroke-linecap:square;stroke-width:1.5;"/>
    </g>
    <g id="line2d_41">
     <defs>
      <path d="M 0 3 
C 0.795609 3 1.55874 2.683901 2.12132 2.12132 
C 2.683901 1.55874 3 0.795609 3 0 
C 3 -0.795609 2.683901 -1.55874 2.12132 -2.12132 
C 1.55874 -2.683901 0.795609 -3 0 -3 
C -0.795609 -3 -1.55874 -2.683901 -2.12132 -2.12132 
C -2.683901 -1.55874 -3 -0.795609 -3 0 
C -3 0.795609 -2.683901 1.55874 -2.12132 2.12132 
C -1.55874 2.683901 -0.795609 3 0 3 
z
" id="m341d55b5f3" style="stroke:#1f77b4;"/>
     </defs>
     <g>
      <use style="fill:#1f77b4;stroke:#1f77b4;" x="787.930625" xlink:href="#m341d55b5f3" y="30.416562"/>
     </g>
    </g>
    <g id="text_21">
     <!-- aflplusplus -->
     <g transform="translate(805.930625 33.916562)scale(0.1 -0.1)">
      <use xlink:href="#DejaVuSans-97"/>
      <use x="61.279297" xlink:href="#DejaVuSans-102"/>
      <use x="96.484375" xlink:href="#DejaVuSans-108"/>
      <use x="124.267578" xlink:href="#DejaVuSans-112"/>
      <use x="187.744141" xlink:href="#DejaVuSans-108"/>
      <use x="215.527344" xlink:href="#DejaVuSans-117"/>
      <use x="278.90625" xlink:href="#DejaVuSans-115"/>
      <use x="331.005859" xlink:href="#DejaVuSans-112"/>
      <use x="394.482422" xlink:href="#DejaVuSans-108"/>
      <use x="422.265625" xlink:href="#DejaVuSans-117"/>
      <use x="485.644531" xlink:href="#DejaVuSans-115"/>
     </g>
    </g>
    <g id="line2d_42">
     <path d="M 777.930625 45.094688 
L 797.930625 45.094688 
" style="fill:none;stroke:#98df8a;stroke-linecap:square;stroke-width:1.5;"/>
    </g>
    <g id="line2d_43">
     <defs>
      <path d="M -0 3 
L 3 -3 
L -3 -3 
z
" id="md50a8070a6" style="stroke:#98df8a;stroke-linejoin:miter;"/>
     </defs>
     <g>
      <use style="fill:#98df8a;stroke:#98df8a;stroke-linejoin:miter;" x="787.930625" xlink:href="#md50a8070a6" y="45.094688"/>
     </g>
    </g>
    <g id="text_22">
     <!-- jigsaw_new -->
     <g transform="translate(805.930625 48.594688)scale(0.1 -0.1)">
      <defs>
       <path d="M 9.421875 54.6875 
L 18.40625 54.6875 
L 18.40625 -0.984375 
Q 18.40625 -11.421875 14.421875 -16.109375 
Q 10.453125 -20.796875 1.609375 -20.796875 
L -1.8125 -20.796875 
L -1.8125 -13.1875 
L 0.59375 -13.1875 
Q 5.71875 -13.1875 7.5625 -10.8125 
Q 9.421875 -8.453125 9.421875 -0.984375 
z
M 9.421875 75.984375 
L 18.40625 75.984375 
L 18.40625 64.59375 
L 9.421875 64.59375 
z
" id="DejaVuSans-106"/>
       <path d="M 4.203125 54.6875 
L 13.1875 54.6875 
L 24.421875 12.015625 
L 35.59375 54.6875 
L 46.1875 54.6875 
L 57.421875 12.015625 
L 68.609375 54.6875 
L 77.59375 54.6875 
L 63.28125 0 
L 52.6875 0 
L 40.921875 44.828125 
L 29.109375 0 
L 18.5 0 
z
" id="DejaVuSans-119"/>
      </defs>
      <use xlink:href="#DejaVuSans-106"/>
      <use x="27.783203" xlink:href="#DejaVuSans-105"/>
      <use x="55.566406" xlink:href="#DejaVuSans-103"/>
      <use x="119.042969" xlink:href="#DejaVuSans-115"/>
      <use x="171.142578" xlink:href="#DejaVuSans-97"/>
      <use x="232.421875" xlink:href="#DejaVuSans-119"/>
      <use x="314.208984" xlink:href="#DejaVuSans-95"/>
      <use x="364.208984" xlink:href="#DejaVuSans-110"/>
      <use x="427.587891" xlink:href="#DejaVuSans-101"/>
      <use x="489.111328" xlink:href="#DejaVuSans-119"/>
     </g>
    </g>
   </g>
  </g>
 </g>
 <defs>
  <clipPath id="p6c96f8d4a2">
   <rect height="266.112" width="714.24" x="59.690625" y="22.318125"/>
  </clipPath>
 </defs>
</svg>
