<?xml version="1.0" encoding="utf-8" standalone="no"?>
<!DOCTYPE svg PUBLIC "-//W3C//DTD SVG 1.1//EN"
  "http://www.w3.org/Graphics/SVG/1.1/DTD/svg11.dtd">
<!-- Created with matplotlib (https://matplotlib.org/) -->
<svg height="351.576471pt" version="1.1" viewBox="0 0 424.010625 351.576471" width="424.010625pt" xmlns="http://www.w3.org/2000/svg" xmlns:xlink="http://www.w3.org/1999/xlink">
 <metadata>
  <rdf:RDF xmlns:cc="http://creativecommons.org/ns#" xmlns:dc="http://purl.org/dc/elements/1.1/" xmlns:rdf="http://www.w3.org/1999/02/22-rdf-syntax-ns#">
   <cc:Work>
    <dc:type rdf:resource="http://purl.org/dc/dcmitype/StillImage"/>
    <dc:date>2020-10-18T03:31:45.667034</dc:date>
    <dc:format>image/svg+xml</dc:format>
    <dc:creator>
     <cc:Agent>
      <dc:title>Matplotlib v3.3.2, https://matplotlib.org/</dc:title>
     </cc:Agent>
    </dc:creator>
   </cc:Work>
  </rdf:RDF>
 </metadata>
 <defs>
  <style type="text/css">*{stroke-linecap:butt;stroke-linejoin:round;}</style>
 </defs>
 <g id="figure_1">
  <g id="patch_1">
   <path d="M 0 351.576471 
L 424.010625 351.576471 
L 424.010625 0 
L 0 0 
z
" style="fill:#ffffff;"/>
  </g>
  <g id="axes_1">
   <g id="patch_2">
    <path d="M 59.690625 288.430125 
L 416.810625 288.430125 
L 416.810625 22.318125 
L 59.690625 22.318125 
z
" style="fill:#ffffff;"/>
   </g>
   <g id="PolyCollection_1">
    <defs>
     <path d="M 119.218332 -85.733168 
L 119.202918 -85.733168 
L 119.201797 -88.070837 
L 119.200558 -90.408505 
L 119.199199 -92.746174 
L 119.197716 -95.083842 
L 119.196108 -97.421511 
L 119.194374 -99.759179 
L 119.192517 -102.096848 
L 119.19054 -104.434516 
L 119.188448 -106.772184 
L 119.186251 -109.109853 
L 119.183959 -111.447521 
L 119.181583 -113.78519 
L 119.179138 -116.122858 
L 119.176641 -118.460527 
L 119.17411 -120.798195 
L 119.171566 -123.135864 
L 119.169029 -125.473532 
L 119.166522 -127.811201 
L 119.164067 -130.148869 
L 119.161687 -132.486538 
L 119.159403 -134.824206 
L 119.157236 -137.161874 
L 119.155205 -139.499543 
L 119.153327 -141.837211 
L 119.151617 -144.17488 
L 119.150085 -146.512548 
L 119.14874 -148.850217 
L 119.147584 -151.187885 
L 119.146619 -153.525554 
L 119.145839 -155.863222 
L 119.145237 -158.200891 
L 119.144799 -160.538559 
L 119.144509 -162.876228 
L 119.144348 -165.213896 
L 119.144292 -167.551564 
L 119.144317 -169.889233 
L 119.144394 -172.226901 
L 119.144495 -174.56457 
L 119.144592 -176.902238 
L 119.144654 -179.239907 
L 119.144656 -181.577575 
L 119.144571 -183.915244 
L 119.144376 -186.252912 
L 119.14405 -188.590581 
L 119.14358 -190.928249 
L 119.142952 -193.265918 
L 119.142161 -195.603586 
L 119.141204 -197.941254 
L 119.140087 -200.278923 
L 119.138818 -202.616591 
L 119.137412 -204.95426 
L 119.135889 -207.291928 
L 119.134272 -209.629597 
L 119.132589 -211.967265 
L 119.130872 -214.304934 
L 119.129155 -216.642602 
L 119.127475 -218.980271 
L 119.125868 -221.317939 
L 119.124371 -223.655607 
L 119.123023 -225.993276 
L 119.121857 -228.330944 
L 119.120906 -230.668613 
L 119.120201 -233.006281 
L 119.119768 -235.34395 
L 119.119627 -237.681618 
L 119.119796 -240.019287 
L 119.120286 -242.356955 
L 119.121104 -244.694624 
L 119.122251 -247.032292 
L 119.123721 -249.369961 
L 119.125506 -251.707629 
L 119.127591 -254.045297 
L 119.129957 -256.382966 
L 119.13258 -258.720634 
L 119.135435 -261.058303 
L 119.138492 -263.395971 
L 119.14172 -265.73364 
L 119.145085 -268.071308 
L 119.148556 -270.408977 
L 119.152098 -272.746645 
L 119.155678 -275.084314 
L 119.159265 -277.421982 
L 119.162828 -279.759651 
L 119.16634 -282.097319 
L 119.169774 -284.434987 
L 119.173109 -286.772656 
L 119.176324 -289.110324 
L 119.179402 -291.447993 
L 119.182331 -293.785661 
L 119.185098 -296.12333 
L 119.187698 -298.460998 
L 119.190124 -300.798667 
L 119.192376 -303.136335 
L 119.194453 -305.474004 
L 119.196357 -307.811672 
L 119.198094 -310.14934 
L 119.199668 -312.487009 
L 119.201087 -314.824677 
L 119.20236 -317.162346 
L 119.21889 -317.162346 
L 119.21889 -317.162346 
L 119.220163 -314.824677 
L 119.221582 -312.487009 
L 119.223156 -310.14934 
L 119.224893 -307.811672 
L 119.226797 -305.474004 
L 119.228874 -303.136335 
L 119.231126 -300.798667 
L 119.233552 -298.460998 
L 119.236152 -296.12333 
L 119.238919 -293.785661 
L 119.241848 -291.447993 
L 119.244926 -289.110324 
L 119.248141 -286.772656 
L 119.251476 -284.434987 
L 119.25491 -282.097319 
L 119.258422 -279.759651 
L 119.261985 -277.421982 
L 119.265572 -275.084314 
L 119.269152 -272.746645 
L 119.272694 -270.408977 
L 119.276165 -268.071308 
L 119.27953 -265.73364 
L 119.282758 -263.395971 
L 119.285815 -261.058303 
L 119.28867 -258.720634 
L 119.291293 -256.382966 
L 119.293659 -254.045297 
L 119.295744 -251.707629 
L 119.297529 -249.369961 
L 119.298999 -247.032292 
L 119.300146 -244.694624 
L 119.300964 -242.356955 
L 119.301454 -240.019287 
L 119.301623 -237.681618 
L 119.301482 -235.34395 
L 119.301049 -233.006281 
L 119.300344 -230.668613 
L 119.299393 -228.330944 
L 119.298227 -225.993276 
L 119.296879 -223.655607 
L 119.295382 -221.317939 
L 119.293775 -218.980271 
L 119.292095 -216.642602 
L 119.290378 -214.304934 
L 119.288661 -211.967265 
L 119.286978 -209.629597 
L 119.285361 -207.291928 
L 119.283838 -204.95426 
L 119.282432 -202.616591 
L 119.281163 -200.278923 
L 119.280046 -197.941254 
L 119.279089 -195.603586 
L 119.278298 -193.265918 
L 119.27767 -190.928249 
L 119.2772 -188.590581 
L 119.276874 -186.252912 
L 119.276679 -183.915244 
L 119.276594 -181.577575 
L 119.276596 -179.239907 
L 119.276658 -176.902238 
L 119.276755 -174.56457 
L 119.276856 -172.226901 
L 119.276933 -169.889233 
L 119.276958 -167.551564 
L 119.276902 -165.213896 
L 119.276741 -162.876228 
L 119.276451 -160.538559 
L 119.276013 -158.200891 
L 119.275411 -155.863222 
L 119.274631 -153.525554 
L 119.273666 -151.187885 
L 119.27251 -148.850217 
L 119.271165 -146.512548 
L 119.269633 -144.17488 
L 119.267923 -141.837211 
L 119.266045 -139.499543 
L 119.264014 -137.161874 
L 119.261847 -134.824206 
L 119.259563 -132.486538 
L 119.257183 -130.148869 
L 119.254728 -127.811201 
L 119.252221 -125.473532 
L 119.249684 -123.135864 
L 119.24714 -120.798195 
L 119.244609 -118.460527 
L 119.242112 -116.122858 
L 119.239667 -113.78519 
L 119.237291 -111.447521 
L 119.234999 -109.109853 
L 119.232802 -106.772184 
L 119.23071 -104.434516 
L 119.228733 -102.096848 
L 119.226876 -99.759179 
L 119.225142 -97.421511 
L 119.223534 -95.083842 
L 119.222051 -92.746174 
L 119.220692 -90.408505 
L 119.219453 -88.070837 
L 119.218332 -85.733168 
z
" id="mf13112dad5" style="stroke:#3f3f3f;stroke-width:1.5;"/>
    </defs>
    <g clip-path="url(#p3bc47fedb8)">
     <use style="fill:#3274a1;stroke:#3f3f3f;stroke-width:1.5;" x="0" xlink:href="#mf13112dad5" y="351.576471"/>
    </g>
   </g>
   <g id="PolyCollection_2">
    <defs>
     <path d="M 238.483957 -126.394476 
L 238.017293 -126.394476 
L 237.981218 -126.512054 
L 237.941137 -126.629632 
L 237.896887 -126.747211 
L 237.848347 -126.864789 
L 237.795447 -126.982368 
L 237.73818 -127.099946 
L 237.6766 -127.217525 
L 237.610839 -127.335103 
L 237.541107 -127.452681 
L 237.467694 -127.57026 
L 237.390977 -127.687838 
L 237.311417 -127.805417 
L 237.229557 -127.922995 
L 237.146018 -128.040573 
L 237.061489 -128.158152 
L 236.976721 -128.27573 
L 236.892511 -128.393309 
L 236.809691 -128.510887 
L 236.729109 -128.628466 
L 236.651615 -128.746044 
L 236.578039 -128.863622 
L 236.509174 -128.981201 
L 236.445759 -129.098779 
L 236.38846 -129.216358 
L 236.337854 -129.333936 
L 236.294415 -129.451515 
L 236.258505 -129.569093 
L 236.230361 -129.686671 
L 236.210095 -129.80425 
L 236.19769 -129.921828 
L 236.193001 -130.039407 
L 236.195761 -130.156985 
L 236.205592 -130.274564 
L 236.222013 -130.392142 
L 236.244457 -130.50972 
L 236.272284 -130.627299 
L 236.304801 -130.744877 
L 236.34128 -130.862456 
L 236.380975 -130.980034 
L 236.423143 -131.097613 
L 236.467055 -131.215191 
L 236.512018 -131.332769 
L 236.557387 -131.450348 
L 236.602572 -131.567926 
L 236.647053 -131.685505 
L 236.690384 -131.803083 
L 236.732197 -131.920661 
L 236.772204 -132.03824 
L 236.810196 -132.155818 
L 236.846041 -132.273397 
L 236.879681 -132.390975 
L 236.911124 -132.508554 
L 236.94044 -132.626132 
L 236.967751 -132.74371 
L 236.993226 -132.861289 
L 237.017069 -132.978867 
L 237.039515 -133.096446 
L 237.06082 -133.214024 
L 237.081254 -133.331603 
L 237.101092 -133.449181 
L 237.120612 -133.566759 
L 237.140083 -133.684338 
L 237.159763 -133.801916 
L 237.179893 -133.919495 
L 237.200695 -134.037073 
L 237.222362 -134.154652 
L 237.245062 -134.27223 
L 237.26893 -134.389808 
L 237.294071 -134.507387 
L 237.32055 -134.624965 
L 237.348403 -134.742544 
L 237.377627 -134.860122 
L 237.408185 -134.977701 
L 237.440007 -135.095279 
L 237.472992 -135.212857 
L 237.507008 -135.330436 
L 237.541901 -135.448014 
L 237.577492 -135.565593 
L 237.613586 -135.683171 
L 237.649974 -135.800749 
L 237.686441 -135.918328 
L 237.722765 -136.035906 
L 237.758728 -136.153485 
L 237.794116 -136.271063 
L 237.828726 -136.388642 
L 237.862369 -136.50622 
L 237.894872 -136.623798 
L 237.926082 -136.741377 
L 237.95587 -136.858955 
L 237.984128 -136.976534 
L 238.010774 -137.094112 
L 238.035747 -137.211691 
L 238.059013 -137.329269 
L 238.080559 -137.446847 
L 238.100394 -137.564426 
L 238.118547 -137.682004 
L 238.13506 -137.799583 
L 238.149996 -137.917161 
L 238.163424 -138.03474 
L 238.337826 -138.03474 
L 238.337826 -138.03474 
L 238.351254 -137.917161 
L 238.36619 -137.799583 
L 238.382703 -137.682004 
L 238.400856 -137.564426 
L 238.420691 -137.446847 
L 238.442237 -137.329269 
L 238.465503 -137.211691 
L 238.490476 -137.094112 
L 238.517122 -136.976534 
L 238.54538 -136.858955 
L 238.575168 -136.741377 
L 238.606378 -136.623798 
L 238.638881 -136.50622 
L 238.672524 -136.388642 
L 238.707134 -136.271063 
L 238.742522 -136.153485 
L 238.778485 -136.035906 
L 238.814809 -135.918328 
L 238.851276 -135.800749 
L 238.887664 -135.683171 
L 238.923758 -135.565593 
L 238.959349 -135.448014 
L 238.994242 -135.330436 
L 239.028258 -135.212857 
L 239.061243 -135.095279 
L 239.093065 -134.977701 
L 239.123623 -134.860122 
L 239.152847 -134.742544 
L 239.1807 -134.624965 
L 239.207179 -134.507387 
L 239.23232 -134.389808 
L 239.256188 -134.27223 
L 239.278888 -134.154652 
L 239.300555 -134.037073 
L 239.321357 -133.919495 
L 239.341487 -133.801916 
L 239.361167 -133.684338 
L 239.380638 -133.566759 
L 239.400158 -133.449181 
L 239.419996 -133.331603 
L 239.44043 -133.214024 
L 239.461735 -133.096446 
L 239.484181 -132.978867 
L 239.508024 -132.861289 
L 239.533499 -132.74371 
L 239.56081 -132.626132 
L 239.590126 -132.508554 
L 239.621569 -132.390975 
L 239.655209 -132.273397 
L 239.691054 -132.155818 
L 239.729046 -132.03824 
L 239.769053 -131.920661 
L 239.810866 -131.803083 
L 239.854197 -131.685505 
L 239.898678 -131.567926 
L 239.943863 -131.450348 
L 239.989232 -131.332769 
L 240.034195 -131.215191 
L 240.078107 -131.097613 
L 240.120275 -130.980034 
L 240.15997 -130.862456 
L 240.196449 -130.744877 
L 240.228966 -130.627299 
L 240.256793 -130.50972 
L 240.279237 -130.392142 
L 240.295658 -130.274564 
L 240.305489 -130.156985 
L 240.308249 -130.039407 
L 240.30356 -129.921828 
L 240.291155 -129.80425 
L 240.270889 -129.686671 
L 240.242745 -129.569093 
L 240.206835 -129.451515 
L 240.163396 -129.333936 
L 240.11279 -129.216358 
L 240.055491 -129.098779 
L 239.992076 -128.981201 
L 239.923211 -128.863622 
L 239.849635 -128.746044 
L 239.772141 -128.628466 
L 239.691559 -128.510887 
L 239.608739 -128.393309 
L 239.524529 -128.27573 
L 239.439761 -128.158152 
L 239.355232 -128.040573 
L 239.271693 -127.922995 
L 239.189833 -127.805417 
L 239.110273 -127.687838 
L 239.033556 -127.57026 
L 238.960143 -127.452681 
L 238.890411 -127.335103 
L 238.82465 -127.217525 
L 238.76307 -127.099946 
L 238.705803 -126.982368 
L 238.652903 -126.864789 
L 238.604363 -126.747211 
L 238.560113 -126.629632 
L 238.520032 -126.512054 
L 238.483957 -126.394476 
z
" id="m6ba1c41318" style="stroke:#3f3f3f;stroke-width:1.5;"/>
    </defs>
    <g clip-path="url(#p3bc47fedb8)">
     <use style="fill:#9fd495;stroke:#3f3f3f;stroke-width:1.5;" x="0" xlink:href="#m6ba1c41318" y="351.576471"/>
    </g>
   </g>
   <g id="PolyCollection_3">
    <defs>
     <path d="M 358.898297 -75.242346 
L 355.682953 -75.242346 
L 355.440268 -75.248554 
L 355.17182 -75.254762 
L 354.876806 -75.260971 
L 354.554747 -75.267179 
L 354.205533 -75.273387 
L 353.829481 -75.279595 
L 353.427377 -75.285803 
L 353.000517 -75.292012 
L 352.550734 -75.29822 
L 352.080415 -75.304428 
L 351.592506 -75.310636 
L 351.090497 -75.316844 
L 350.578394 -75.323053 
L 350.060671 -75.329261 
L 349.542205 -75.335469 
L 349.028189 -75.341677 
L 348.524039 -75.347885 
L 348.03527 -75.354094 
L 347.567368 -75.360302 
L 347.125652 -75.36651 
L 346.715125 -75.372718 
L 346.340323 -75.378927 
L 346.00516 -75.385135 
L 345.712788 -75.391343 
L 345.465456 -75.397551 
L 345.264384 -75.403759 
L 345.10966 -75.409968 
L 345.000147 -75.416176 
L 344.933427 -75.422384 
L 344.905758 -75.428592 
L 344.91207 -75.4348 
L 344.945984 -75.441009 
L 344.999867 -75.447217 
L 345.064911 -75.453425 
L 345.13125 -75.459633 
L 345.188103 -75.465842 
L 345.223938 -75.47205 
L 345.226675 -75.478258 
L 345.183903 -75.484466 
L 345.083118 -75.490674 
L 344.91198 -75.496883 
L 344.658581 -75.503091 
L 344.311727 -75.509299 
L 343.861218 -75.515507 
L 343.298126 -75.521715 
L 342.615076 -75.527924 
L 341.806504 -75.534132 
L 340.868901 -75.54034 
L 339.801029 -75.546548 
L 338.604105 -75.552757 
L 337.281946 -75.558965 
L 335.841064 -75.565173 
L 334.290712 -75.571381 
L 332.642868 -75.577589 
L 330.912159 -75.583798 
L 329.115718 -75.590006 
L 327.272976 -75.596214 
L 325.405381 -75.602422 
L 323.536065 -75.60863 
L 321.68944 -75.614839 
L 319.890757 -75.621047 
L 318.165611 -75.627255 
L 316.539425 -75.633463 
L 315.036916 -75.639671 
L 313.68156 -75.64588 
L 312.49507 -75.652088 
L 311.496906 -75.658296 
L 310.703827 -75.664504 
L 310.129509 -75.670713 
L 309.784228 -75.676921 
L 309.674625 -75.683129 
L 309.803571 -75.689337 
L 310.170116 -75.695545 
L 310.769534 -75.701754 
L 311.593475 -75.707962 
L 312.630188 -75.71417 
L 313.86484 -75.720378 
L 315.279895 -75.726586 
L 316.855556 -75.732795 
L 318.570244 -75.739003 
L 320.401109 -75.745211 
L 322.324544 -75.751419 
L 324.316703 -75.757628 
L 326.353987 -75.763836 
L 328.413509 -75.770044 
L 330.4735 -75.776252 
L 332.513672 -75.78246 
L 334.515514 -75.788669 
L 336.462519 -75.794877 
L 338.34035 -75.801085 
L 340.136935 -75.807293 
L 341.842502 -75.813501 
L 343.449546 -75.81971 
L 344.952757 -75.825918 
L 346.348891 -75.832126 
L 347.636609 -75.838334 
L 348.816289 -75.844543 
L 349.889818 -75.850751 
L 350.860371 -75.856959 
L 363.720879 -75.856959 
L 363.720879 -75.856959 
L 364.691432 -75.850751 
L 365.764961 -75.844543 
L 366.944641 -75.838334 
L 368.232359 -75.832126 
L 369.628493 -75.825918 
L 371.131704 -75.81971 
L 372.738748 -75.813501 
L 374.444315 -75.807293 
L 376.2409 -75.801085 
L 378.118731 -75.794877 
L 380.065736 -75.788669 
L 382.067578 -75.78246 
L 384.10775 -75.776252 
L 386.167741 -75.770044 
L 388.227263 -75.763836 
L 390.264547 -75.757628 
L 392.256706 -75.751419 
L 394.180141 -75.745211 
L 396.011006 -75.739003 
L 397.725694 -75.732795 
L 399.301355 -75.726586 
L 400.71641 -75.720378 
L 401.951062 -75.71417 
L 402.987775 -75.707962 
L 403.811716 -75.701754 
L 404.411134 -75.695545 
L 404.777679 -75.689337 
L 404.906625 -75.683129 
L 404.797022 -75.676921 
L 404.451741 -75.670713 
L 403.877423 -75.664504 
L 403.084344 -75.658296 
L 402.08618 -75.652088 
L 400.89969 -75.64588 
L 399.544334 -75.639671 
L 398.041825 -75.633463 
L 396.415639 -75.627255 
L 394.690493 -75.621047 
L 392.89181 -75.614839 
L 391.045185 -75.60863 
L 389.175869 -75.602422 
L 387.308274 -75.596214 
L 385.465532 -75.590006 
L 383.669091 -75.583798 
L 381.938382 -75.577589 
L 380.290538 -75.571381 
L 378.740186 -75.565173 
L 377.299304 -75.558965 
L 375.977145 -75.552757 
L 374.780221 -75.546548 
L 373.712349 -75.54034 
L 372.774746 -75.534132 
L 371.966174 -75.527924 
L 371.283124 -75.521715 
L 370.720032 -75.515507 
L 370.269523 -75.509299 
L 369.922669 -75.503091 
L 369.66927 -75.496883 
L 369.498132 -75.490674 
L 369.397347 -75.484466 
L 369.354575 -75.478258 
L 369.357312 -75.47205 
L 369.393147 -75.465842 
L 369.45 -75.459633 
L 369.516339 -75.453425 
L 369.581383 -75.447217 
L 369.635266 -75.441009 
L 369.66918 -75.4348 
L 369.675492 -75.428592 
L 369.647823 -75.422384 
L 369.581103 -75.416176 
L 369.47159 -75.409968 
L 369.316866 -75.403759 
L 369.115794 -75.397551 
L 368.868462 -75.391343 
L 368.57609 -75.385135 
L 368.240927 -75.378927 
L 367.866125 -75.372718 
L 367.455598 -75.36651 
L 367.013882 -75.360302 
L 366.54598 -75.354094 
L 366.057211 -75.347885 
L 365.553061 -75.341677 
L 365.039045 -75.335469 
L 364.520579 -75.329261 
L 364.002856 -75.323053 
L 363.490753 -75.316844 
L 362.988744 -75.310636 
L 362.500835 -75.304428 
L 362.030516 -75.29822 
L 361.580733 -75.292012 
L 361.153873 -75.285803 
L 360.751769 -75.279595 
L 360.375717 -75.273387 
L 360.026503 -75.267179 
L 359.704444 -75.260971 
L 359.40943 -75.254762 
L 359.140982 -75.248554 
L 358.898297 -75.242346 
z
" id="mf886186a1f" style="stroke:#3f3f3f;stroke-width:1.5;"/>
    </defs>
    <g clip-path="url(#p3bc47fedb8)">
     <use style="fill:#c03d3e;stroke:#3f3f3f;stroke-width:1.5;" x="0" xlink:href="#mf886186a1f" y="351.576471"/>
    </g>
   </g>
   <g id="matplotlib.axis_1">
    <g id="xtick_1">
     <g id="line2d_1">
      <defs>
       <path d="M 0 0 
L 0 3.5 
" id="m908bcabb56" style="stroke:#000000;stroke-width:0.8;"/>
      </defs>
      <g>
       <use style="stroke:#000000;stroke-width:0.8;" x="119.210625" xlink:href="#m908bcabb56" y="288.430125"/>
      </g>
     </g>
     <g id="text_1">
      <!-- aflplusplus -->
      <g transform="translate(71.601618 328.897284)rotate(-30)scale(0.1 -0.1)">
       <defs>
        <path d="M 34.28125 27.484375 
Q 23.390625 27.484375 19.1875 25 
Q 14.984375 22.515625 14.984375 16.5 
Q 14.984375 11.71875 18.140625 8.90625 
Q 21.296875 6.109375 26.703125 6.109375 
Q 34.1875 6.109375 38.703125 11.40625 
Q 43.21875 16.703125 43.21875 25.484375 
L 43.21875 27.484375 
z
M 52.203125 31.203125 
L 52.203125 0 
L 43.21875 0 
L 43.21875 8.296875 
Q 40.140625 3.328125 35.546875 0.953125 
Q 30.953125 -1.421875 24.3125 -1.421875 
Q 15.921875 -1.421875 10.953125 3.296875 
Q 6 8.015625 6 15.921875 
Q 6 25.140625 12.171875 29.828125 
Q 18.359375 34.515625 30.609375 34.515625 
L 43.21875 34.515625 
L 43.21875 35.40625 
Q 43.21875 41.609375 39.140625 45 
Q 35.0625 48.390625 27.6875 48.390625 
Q 23 48.390625 18.546875 47.265625 
Q 14.109375 46.140625 10.015625 43.890625 
L 10.015625 52.203125 
Q 14.9375 54.109375 19.578125 55.046875 
Q 24.21875 56 28.609375 56 
Q 40.484375 56 46.34375 49.84375 
Q 52.203125 43.703125 52.203125 31.203125 
z
" id="DejaVuSans-97"/>
        <path d="M 37.109375 75.984375 
L 37.109375 68.5 
L 28.515625 68.5 
Q 23.6875 68.5 21.796875 66.546875 
Q 19.921875 64.59375 19.921875 59.515625 
L 19.921875 54.6875 
L 34.71875 54.6875 
L 34.71875 47.703125 
L 19.921875 47.703125 
L 19.921875 0 
L 10.890625 0 
L 10.890625 47.703125 
L 2.296875 47.703125 
L 2.296875 54.6875 
L 10.890625 54.6875 
L 10.890625 58.5 
Q 10.890625 67.625 15.140625 71.796875 
Q 19.390625 75.984375 28.609375 75.984375 
z
" id="DejaVuSans-102"/>
        <path d="M 9.421875 75.984375 
L 18.40625 75.984375 
L 18.40625 0 
L 9.421875 0 
z
" id="DejaVuSans-108"/>
        <path d="M 18.109375 8.203125 
L 18.109375 -20.796875 
L 9.078125 -20.796875 
L 9.078125 54.6875 
L 18.109375 54.6875 
L 18.109375 46.390625 
Q 20.953125 51.265625 25.265625 53.625 
Q 29.59375 56 35.59375 56 
Q 45.5625 56 51.78125 48.09375 
Q 58.015625 40.1875 58.015625 27.296875 
Q 58.015625 14.40625 51.78125 6.484375 
Q 45.5625 -1.421875 35.59375 -1.421875 
Q 29.59375 -1.421875 25.265625 0.953125 
Q 20.953125 3.328125 18.109375 8.203125 
z
M 48.6875 27.296875 
Q 48.6875 37.203125 44.609375 42.84375 
Q 40.53125 48.484375 33.40625 48.484375 
Q 26.265625 48.484375 22.1875 42.84375 
Q 18.109375 37.203125 18.109375 27.296875 
Q 18.109375 17.390625 22.1875 11.75 
Q 26.265625 6.109375 33.40625 6.109375 
Q 40.53125 6.109375 44.609375 11.75 
Q 48.6875 17.390625 48.6875 27.296875 
z
" id="DejaVuSans-112"/>
        <path d="M 8.5 21.578125 
L 8.5 54.6875 
L 17.484375 54.6875 
L 17.484375 21.921875 
Q 17.484375 14.15625 20.5 10.265625 
Q 23.53125 6.390625 29.59375 6.390625 
Q 36.859375 6.390625 41.078125 11.03125 
Q 45.3125 15.671875 45.3125 23.6875 
L 45.3125 54.6875 
L 54.296875 54.6875 
L 54.296875 0 
L 45.3125 0 
L 45.3125 8.40625 
Q 42.046875 3.421875 37.71875 1 
Q 33.40625 -1.421875 27.6875 -1.421875 
Q 18.265625 -1.421875 13.375 4.4375 
Q 8.5 10.296875 8.5 21.578125 
z
M 31.109375 56 
z
" id="DejaVuSans-117"/>
        <path d="M 44.28125 53.078125 
L 44.28125 44.578125 
Q 40.484375 46.53125 36.375 47.5 
Q 32.28125 48.484375 27.875 48.484375 
Q 21.1875 48.484375 17.84375 46.4375 
Q 14.5 44.390625 14.5 40.28125 
Q 14.5 37.15625 16.890625 35.375 
Q 19.28125 33.59375 26.515625 31.984375 
L 29.59375 31.296875 
Q 39.15625 29.25 43.1875 25.515625 
Q 47.21875 21.78125 47.21875 15.09375 
Q 47.21875 7.46875 41.1875 3.015625 
Q 35.15625 -1.421875 24.609375 -1.421875 
Q 20.21875 -1.421875 15.453125 -0.5625 
Q 10.6875 0.296875 5.421875 2 
L 5.421875 11.28125 
Q 10.40625 8.6875 15.234375 7.390625 
Q 20.0625 6.109375 24.8125 6.109375 
Q 31.15625 6.109375 34.5625 8.28125 
Q 37.984375 10.453125 37.984375 14.40625 
Q 37.984375 18.0625 35.515625 20.015625 
Q 33.0625 21.96875 24.703125 23.78125 
L 21.578125 24.515625 
Q 13.234375 26.265625 9.515625 29.90625 
Q 5.8125 33.546875 5.8125 39.890625 
Q 5.8125 47.609375 11.28125 51.796875 
Q 16.75 56 26.8125 56 
Q 31.78125 56 36.171875 55.265625 
Q 40.578125 54.546875 44.28125 53.078125 
z
" id="DejaVuSans-115"/>
       </defs>
       <use xlink:href="#DejaVuSans-97"/>
       <use x="61.279297" xlink:href="#DejaVuSans-102"/>
       <use x="96.484375" xlink:href="#DejaVuSans-108"/>
       <use x="124.267578" xlink:href="#DejaVuSans-112"/>
       <use x="187.744141" xlink:href="#DejaVuSans-108"/>
       <use x="215.527344" xlink:href="#DejaVuSans-117"/>
       <use x="278.90625" xlink:href="#DejaVuSans-115"/>
       <use x="331.005859" xlink:href="#DejaVuSans-112"/>
       <use x="394.482422" xlink:href="#DejaVuSans-108"/>
       <use x="422.265625" xlink:href="#DejaVuSans-117"/>
       <use x="485.644531" xlink:href="#DejaVuSans-115"/>
      </g>
     </g>
    </g>
    <g id="xtick_2">
     <g id="line2d_2">
      <g>
       <use style="stroke:#000000;stroke-width:0.8;" x="238.250625" xlink:href="#m908bcabb56" y="288.430125"/>
      </g>
     </g>
     <g id="text_2">
      <!-- honggfuzz -->
      <g transform="translate(192.311424 327.933221)rotate(-30)scale(0.1 -0.1)">
       <defs>
        <path d="M 54.890625 33.015625 
L 54.890625 0 
L 45.90625 0 
L 45.90625 32.71875 
Q 45.90625 40.484375 42.875 44.328125 
Q 39.84375 48.1875 33.796875 48.1875 
Q 26.515625 48.1875 22.3125 43.546875 
Q 18.109375 38.921875 18.109375 30.90625 
L 18.109375 0 
L 9.078125 0 
L 9.078125 75.984375 
L 18.109375 75.984375 
L 18.109375 46.1875 
Q 21.34375 51.125 25.703125 53.5625 
Q 30.078125 56 35.796875 56 
Q 45.21875 56 50.046875 50.171875 
Q 54.890625 44.34375 54.890625 33.015625 
z
" id="DejaVuSans-104"/>
        <path d="M 30.609375 48.390625 
Q 23.390625 48.390625 19.1875 42.75 
Q 14.984375 37.109375 14.984375 27.296875 
Q 14.984375 17.484375 19.15625 11.84375 
Q 23.34375 6.203125 30.609375 6.203125 
Q 37.796875 6.203125 41.984375 11.859375 
Q 46.1875 17.53125 46.1875 27.296875 
Q 46.1875 37.015625 41.984375 42.703125 
Q 37.796875 48.390625 30.609375 48.390625 
z
M 30.609375 56 
Q 42.328125 56 49.015625 48.375 
Q 55.71875 40.765625 55.71875 27.296875 
Q 55.71875 13.875 49.015625 6.21875 
Q 42.328125 -1.421875 30.609375 -1.421875 
Q 18.84375 -1.421875 12.171875 6.21875 
Q 5.515625 13.875 5.515625 27.296875 
Q 5.515625 40.765625 12.171875 48.375 
Q 18.84375 56 30.609375 56 
z
" id="DejaVuSans-111"/>
        <path d="M 54.890625 33.015625 
L 54.890625 0 
L 45.90625 0 
L 45.90625 32.71875 
Q 45.90625 40.484375 42.875 44.328125 
Q 39.84375 48.1875 33.796875 48.1875 
Q 26.515625 48.1875 22.3125 43.546875 
Q 18.109375 38.921875 18.109375 30.90625 
L 18.109375 0 
L 9.078125 0 
L 9.078125 54.6875 
L 18.109375 54.6875 
L 18.109375 46.1875 
Q 21.34375 51.125 25.703125 53.5625 
Q 30.078125 56 35.796875 56 
Q 45.21875 56 50.046875 50.171875 
Q 54.890625 44.34375 54.890625 33.015625 
z
" id="DejaVuSans-110"/>
        <path d="M 45.40625 27.984375 
Q 45.40625 37.75 41.375 43.109375 
Q 37.359375 48.484375 30.078125 48.484375 
Q 22.859375 48.484375 18.828125 43.109375 
Q 14.796875 37.75 14.796875 27.984375 
Q 14.796875 18.265625 18.828125 12.890625 
Q 22.859375 7.515625 30.078125 7.515625 
Q 37.359375 7.515625 41.375 12.890625 
Q 45.40625 18.265625 45.40625 27.984375 
z
M 54.390625 6.78125 
Q 54.390625 -7.171875 48.1875 -13.984375 
Q 42 -20.796875 29.203125 -20.796875 
Q 24.46875 -20.796875 20.265625 -20.09375 
Q 16.0625 -19.390625 12.109375 -17.921875 
L 12.109375 -9.1875 
Q 16.0625 -11.328125 19.921875 -12.34375 
Q 23.78125 -13.375 27.78125 -13.375 
Q 36.625 -13.375 41.015625 -8.765625 
Q 45.40625 -4.15625 45.40625 5.171875 
L 45.40625 9.625 
Q 42.625 4.78125 38.28125 2.390625 
Q 33.9375 0 27.875 0 
Q 17.828125 0 11.671875 7.65625 
Q 5.515625 15.328125 5.515625 27.984375 
Q 5.515625 40.671875 11.671875 48.328125 
Q 17.828125 56 27.875 56 
Q 33.9375 56 38.28125 53.609375 
Q 42.625 51.21875 45.40625 46.390625 
L 45.40625 54.6875 
L 54.390625 54.6875 
z
" id="DejaVuSans-103"/>
        <path d="M 5.515625 54.6875 
L 48.1875 54.6875 
L 48.1875 46.484375 
L 14.40625 7.171875 
L 48.1875 7.171875 
L 48.1875 0 
L 4.296875 0 
L 4.296875 8.203125 
L 38.09375 47.515625 
L 5.515625 47.515625 
z
" id="DejaVuSans-122"/>
       </defs>
       <use xlink:href="#DejaVuSans-104"/>
       <use x="63.378906" xlink:href="#DejaVuSans-111"/>
       <use x="124.560547" xlink:href="#DejaVuSans-110"/>
       <use x="187.939453" xlink:href="#DejaVuSans-103"/>
       <use x="251.416016" xlink:href="#DejaVuSans-103"/>
       <use x="314.892578" xlink:href="#DejaVuSans-102"/>
       <use x="350.097656" xlink:href="#DejaVuSans-117"/>
       <use x="413.476562" xlink:href="#DejaVuSans-122"/>
       <use x="465.966797" xlink:href="#DejaVuSans-122"/>
      </g>
     </g>
    </g>
    <g id="xtick_3">
     <g id="line2d_3">
      <g>
       <use style="stroke:#000000;stroke-width:0.8;" x="357.290625" xlink:href="#m908bcabb56" y="288.430125"/>
      </g>
     </g>
     <g id="text_3">
      <!-- klee -->
      <g transform="translate(338.172501 312.448065)rotate(-30)scale(0.1 -0.1)">
       <defs>
        <path d="M 9.078125 75.984375 
L 18.109375 75.984375 
L 18.109375 31.109375 
L 44.921875 54.6875 
L 56.390625 54.6875 
L 27.390625 29.109375 
L 57.625 0 
L 45.90625 0 
L 18.109375 26.703125 
L 18.109375 0 
L 9.078125 0 
z
" id="DejaVuSans-107"/>
        <path d="M 56.203125 29.59375 
L 56.203125 25.203125 
L 14.890625 25.203125 
Q 15.484375 15.921875 20.484375 11.0625 
Q 25.484375 6.203125 34.421875 6.203125 
Q 39.59375 6.203125 44.453125 7.46875 
Q 49.3125 8.734375 54.109375 11.28125 
L 54.109375 2.78125 
Q 49.265625 0.734375 44.1875 -0.34375 
Q 39.109375 -1.421875 33.890625 -1.421875 
Q 20.796875 -1.421875 13.15625 6.1875 
Q 5.515625 13.8125 5.515625 26.8125 
Q 5.515625 40.234375 12.765625 48.109375 
Q 20.015625 56 32.328125 56 
Q 43.359375 56 49.78125 48.890625 
Q 56.203125 41.796875 56.203125 29.59375 
z
M 47.21875 32.234375 
Q 47.125 39.59375 43.09375 43.984375 
Q 39.0625 48.390625 32.421875 48.390625 
Q 24.90625 48.390625 20.390625 44.140625 
Q 15.875 39.890625 15.1875 32.171875 
z
" id="DejaVuSans-101"/>
       </defs>
       <use xlink:href="#DejaVuSans-107"/>
       <use x="57.910156" xlink:href="#DejaVuSans-108"/>
       <use x="85.693359" xlink:href="#DejaVuSans-101"/>
       <use x="147.216797" xlink:href="#DejaVuSans-101"/>
      </g>
     </g>
    </g>
    <g id="text_4">
     <!-- Fuzzer (highest median coverage on the left) -->
     <g transform="translate(125.632656 342.296783)scale(0.1 -0.1)">
      <defs>
       <path d="M 9.8125 72.90625 
L 51.703125 72.90625 
L 51.703125 64.59375 
L 19.671875 64.59375 
L 19.671875 43.109375 
L 48.578125 43.109375 
L 48.578125 34.8125 
L 19.671875 34.8125 
L 19.671875 0 
L 9.8125 0 
z
" id="DejaVuSans-70"/>
       <path d="M 41.109375 46.296875 
Q 39.59375 47.171875 37.8125 47.578125 
Q 36.03125 48 33.890625 48 
Q 26.265625 48 22.1875 43.046875 
Q 18.109375 38.09375 18.109375 28.8125 
L 18.109375 0 
L 9.078125 0 
L 9.078125 54.6875 
L 18.109375 54.6875 
L 18.109375 46.1875 
Q 20.953125 51.171875 25.484375 53.578125 
Q 30.03125 56 36.53125 56 
Q 37.453125 56 38.578125 55.875 
Q 39.703125 55.765625 41.0625 55.515625 
z
" id="DejaVuSans-114"/>
       <path id="DejaVuSans-32"/>
       <path d="M 31 75.875 
Q 24.46875 64.65625 21.28125 53.65625 
Q 18.109375 42.671875 18.109375 31.390625 
Q 18.109375 20.125 21.3125 9.0625 
Q 24.515625 -2 31 -13.1875 
L 23.1875 -13.1875 
Q 15.875 -1.703125 12.234375 9.375 
Q 8.59375 20.453125 8.59375 31.390625 
Q 8.59375 42.28125 12.203125 53.3125 
Q 15.828125 64.359375 23.1875 75.875 
z
" id="DejaVuSans-40"/>
       <path d="M 9.421875 54.6875 
L 18.40625 54.6875 
L 18.40625 0 
L 9.421875 0 
z
M 9.421875 75.984375 
L 18.40625 75.984375 
L 18.40625 64.59375 
L 9.421875 64.59375 
z
" id="DejaVuSans-105"/>
       <path d="M 18.3125 70.21875 
L 18.3125 54.6875 
L 36.8125 54.6875 
L 36.8125 47.703125 
L 18.3125 47.703125 
L 18.3125 18.015625 
Q 18.3125 11.328125 20.140625 9.421875 
Q 21.96875 7.515625 27.59375 7.515625 
L 36.8125 7.515625 
L 36.8125 0 
L 27.59375 0 
Q 17.1875 0 13.234375 3.875 
Q 9.28125 7.765625 9.28125 18.015625 
L 9.28125 47.703125 
L 2.6875 47.703125 
L 2.6875 54.6875 
L 9.28125 54.6875 
L 9.28125 70.21875 
z
" id="DejaVuSans-116"/>
       <path d="M 52 44.1875 
Q 55.375 50.25 60.0625 53.125 
Q 64.75 56 71.09375 56 
Q 79.640625 56 84.28125 50.015625 
Q 88.921875 44.046875 88.921875 33.015625 
L 88.921875 0 
L 79.890625 0 
L 79.890625 32.71875 
Q 79.890625 40.578125 77.09375 44.375 
Q 74.3125 48.1875 68.609375 48.1875 
Q 61.625 48.1875 57.5625 43.546875 
Q 53.515625 38.921875 53.515625 30.90625 
L 53.515625 0 
L 44.484375 0 
L 44.484375 32.71875 
Q 44.484375 40.625 41.703125 44.40625 
Q 38.921875 48.1875 33.109375 48.1875 
Q 26.21875 48.1875 22.15625 43.53125 
Q 18.109375 38.875 18.109375 30.90625 
L 18.109375 0 
L 9.078125 0 
L 9.078125 54.6875 
L 18.109375 54.6875 
L 18.109375 46.1875 
Q 21.1875 51.21875 25.484375 53.609375 
Q 29.78125 56 35.6875 56 
Q 41.65625 56 45.828125 52.96875 
Q 50 49.953125 52 44.1875 
z
" id="DejaVuSans-109"/>
       <path d="M 45.40625 46.390625 
L 45.40625 75.984375 
L 54.390625 75.984375 
L 54.390625 0 
L 45.40625 0 
L 45.40625 8.203125 
Q 42.578125 3.328125 38.25 0.953125 
Q 33.9375 -1.421875 27.875 -1.421875 
Q 17.96875 -1.421875 11.734375 6.484375 
Q 5.515625 14.40625 5.515625 27.296875 
Q 5.515625 40.1875 11.734375 48.09375 
Q 17.96875 56 27.875 56 
Q 33.9375 56 38.25 53.625 
Q 42.578125 51.265625 45.40625 46.390625 
z
M 14.796875 27.296875 
Q 14.796875 17.390625 18.875 11.75 
Q 22.953125 6.109375 30.078125 6.109375 
Q 37.203125 6.109375 41.296875 11.75 
Q 45.40625 17.390625 45.40625 27.296875 
Q 45.40625 37.203125 41.296875 42.84375 
Q 37.203125 48.484375 30.078125 48.484375 
Q 22.953125 48.484375 18.875 42.84375 
Q 14.796875 37.203125 14.796875 27.296875 
z
" id="DejaVuSans-100"/>
       <path d="M 48.78125 52.59375 
L 48.78125 44.1875 
Q 44.96875 46.296875 41.140625 47.34375 
Q 37.3125 48.390625 33.40625 48.390625 
Q 24.65625 48.390625 19.8125 42.84375 
Q 14.984375 37.3125 14.984375 27.296875 
Q 14.984375 17.28125 19.8125 11.734375 
Q 24.65625 6.203125 33.40625 6.203125 
Q 37.3125 6.203125 41.140625 7.25 
Q 44.96875 8.296875 48.78125 10.40625 
L 48.78125 2.09375 
Q 45.015625 0.34375 40.984375 -0.53125 
Q 36.96875 -1.421875 32.421875 -1.421875 
Q 20.0625 -1.421875 12.78125 6.34375 
Q 5.515625 14.109375 5.515625 27.296875 
Q 5.515625 40.671875 12.859375 48.328125 
Q 20.21875 56 33.015625 56 
Q 37.15625 56 41.109375 55.140625 
Q 45.0625 54.296875 48.78125 52.59375 
z
" id="DejaVuSans-99"/>
       <path d="M 2.984375 54.6875 
L 12.5 54.6875 
L 29.59375 8.796875 
L 46.6875 54.6875 
L 56.203125 54.6875 
L 35.6875 0 
L 23.484375 0 
z
" id="DejaVuSans-118"/>
       <path d="M 8.015625 75.875 
L 15.828125 75.875 
Q 23.140625 64.359375 26.78125 53.3125 
Q 30.421875 42.28125 30.421875 31.390625 
Q 30.421875 20.453125 26.78125 9.375 
Q 23.140625 -1.703125 15.828125 -13.1875 
L 8.015625 -13.1875 
Q 14.5 -2 17.703125 9.0625 
Q 20.90625 20.125 20.90625 31.390625 
Q 20.90625 42.671875 17.703125 53.65625 
Q 14.5 64.65625 8.015625 75.875 
z
" id="DejaVuSans-41"/>
      </defs>
      <use xlink:href="#DejaVuSans-70"/>
      <use x="52.019531" xlink:href="#DejaVuSans-117"/>
      <use x="115.398438" xlink:href="#DejaVuSans-122"/>
      <use x="167.888672" xlink:href="#DejaVuSans-122"/>
      <use x="220.378906" xlink:href="#DejaVuSans-101"/>
      <use x="281.902344" xlink:href="#DejaVuSans-114"/>
      <use x="323.015625" xlink:href="#DejaVuSans-32"/>
      <use x="354.802734" xlink:href="#DejaVuSans-40"/>
      <use x="393.816406" xlink:href="#DejaVuSans-104"/>
      <use x="457.195312" xlink:href="#DejaVuSans-105"/>
      <use x="484.978516" xlink:href="#DejaVuSans-103"/>
      <use x="548.455078" xlink:href="#DejaVuSans-104"/>
      <use x="611.833984" xlink:href="#DejaVuSans-101"/>
      <use x="673.357422" xlink:href="#DejaVuSans-115"/>
      <use x="725.457031" xlink:href="#DejaVuSans-116"/>
      <use x="764.666016" xlink:href="#DejaVuSans-32"/>
      <use x="796.453125" xlink:href="#DejaVuSans-109"/>
      <use x="893.865234" xlink:href="#DejaVuSans-101"/>
      <use x="955.388672" xlink:href="#DejaVuSans-100"/>
      <use x="1018.865234" xlink:href="#DejaVuSans-105"/>
      <use x="1046.648438" xlink:href="#DejaVuSans-97"/>
      <use x="1107.927734" xlink:href="#DejaVuSans-110"/>
      <use x="1171.306641" xlink:href="#DejaVuSans-32"/>
      <use x="1203.09375" xlink:href="#DejaVuSans-99"/>
      <use x="1258.074219" xlink:href="#DejaVuSans-111"/>
      <use x="1319.255859" xlink:href="#DejaVuSans-118"/>
      <use x="1378.435547" xlink:href="#DejaVuSans-101"/>
      <use x="1439.958984" xlink:href="#DejaVuSans-114"/>
      <use x="1481.072266" xlink:href="#DejaVuSans-97"/>
      <use x="1542.351562" xlink:href="#DejaVuSans-103"/>
      <use x="1605.828125" xlink:href="#DejaVuSans-101"/>
      <use x="1667.351562" xlink:href="#DejaVuSans-32"/>
      <use x="1699.138672" xlink:href="#DejaVuSans-111"/>
      <use x="1760.320312" xlink:href="#DejaVuSans-110"/>
      <use x="1823.699219" xlink:href="#DejaVuSans-32"/>
      <use x="1855.486328" xlink:href="#DejaVuSans-116"/>
      <use x="1894.695312" xlink:href="#DejaVuSans-104"/>
      <use x="1958.074219" xlink:href="#DejaVuSans-101"/>
      <use x="2019.597656" xlink:href="#DejaVuSans-32"/>
      <use x="2051.384766" xlink:href="#DejaVuSans-108"/>
      <use x="2079.167969" xlink:href="#DejaVuSans-101"/>
      <use x="2140.691406" xlink:href="#DejaVuSans-102"/>
      <use x="2174.146484" xlink:href="#DejaVuSans-116"/>
      <use x="2213.355469" xlink:href="#DejaVuSans-41"/>
     </g>
    </g>
   </g>
   <g id="matplotlib.axis_2">
    <g id="ytick_1">
     <g id="line2d_4">
      <defs>
       <path d="M 0 0 
L -3.5 0 
" id="m167254e5e3" style="stroke:#000000;stroke-width:0.8;"/>
      </defs>
      <g>
       <use style="stroke:#000000;stroke-width:0.8;" x="59.690625" xlink:href="#m167254e5e3" y="253.55641"/>
      </g>
     </g>
     <g id="text_5">
      <!-- 4000 -->
      <g transform="translate(27.240625 257.355629)scale(0.1 -0.1)">
       <defs>
        <path d="M 37.796875 64.3125 
L 12.890625 25.390625 
L 37.796875 25.390625 
z
M 35.203125 72.90625 
L 47.609375 72.90625 
L 47.609375 25.390625 
L 58.015625 25.390625 
L 58.015625 17.1875 
L 47.609375 17.1875 
L 47.609375 0 
L 37.796875 0 
L 37.796875 17.1875 
L 4.890625 17.1875 
L 4.890625 26.703125 
z
" id="DejaVuSans-52"/>
        <path d="M 31.78125 66.40625 
Q 24.171875 66.40625 20.328125 58.90625 
Q 16.5 51.421875 16.5 36.375 
Q 16.5 21.390625 20.328125 13.890625 
Q 24.171875 6.390625 31.78125 6.390625 
Q 39.453125 6.390625 43.28125 13.890625 
Q 47.125 21.390625 47.125 36.375 
Q 47.125 51.421875 43.28125 58.90625 
Q 39.453125 66.40625 31.78125 66.40625 
z
M 31.78125 74.21875 
Q 44.046875 74.21875 50.515625 64.515625 
Q 56.984375 54.828125 56.984375 36.375 
Q 56.984375 17.96875 50.515625 8.265625 
Q 44.046875 -1.421875 31.78125 -1.421875 
Q 19.53125 -1.421875 13.0625 8.265625 
Q 6.59375 17.96875 6.59375 36.375 
Q 6.59375 54.828125 13.0625 64.515625 
Q 19.53125 74.21875 31.78125 74.21875 
z
" id="DejaVuSans-48"/>
       </defs>
       <use xlink:href="#DejaVuSans-52"/>
       <use x="63.623047" xlink:href="#DejaVuSans-48"/>
       <use x="127.246094" xlink:href="#DejaVuSans-48"/>
       <use x="190.869141" xlink:href="#DejaVuSans-48"/>
      </g>
     </g>
    </g>
    <g id="ytick_2">
     <g id="line2d_5">
      <g>
       <use style="stroke:#000000;stroke-width:0.8;" x="59.690625" xlink:href="#m167254e5e3" y="212.382964"/>
      </g>
     </g>
     <g id="text_6">
      <!-- 6000 -->
      <g transform="translate(27.240625 216.182183)scale(0.1 -0.1)">
       <defs>
        <path d="M 33.015625 40.375 
Q 26.375 40.375 22.484375 35.828125 
Q 18.609375 31.296875 18.609375 23.390625 
Q 18.609375 15.53125 22.484375 10.953125 
Q 26.375 6.390625 33.015625 6.390625 
Q 39.65625 6.390625 43.53125 10.953125 
Q 47.40625 15.53125 47.40625 23.390625 
Q 47.40625 31.296875 43.53125 35.828125 
Q 39.65625 40.375 33.015625 40.375 
z
M 52.59375 71.296875 
L 52.59375 62.3125 
Q 48.875 64.0625 45.09375 64.984375 
Q 41.3125 65.921875 37.59375 65.921875 
Q 27.828125 65.921875 22.671875 59.328125 
Q 17.53125 52.734375 16.796875 39.40625 
Q 19.671875 43.65625 24.015625 45.921875 
Q 28.375 48.1875 33.59375 48.1875 
Q 44.578125 48.1875 50.953125 41.515625 
Q 57.328125 34.859375 57.328125 23.390625 
Q 57.328125 12.15625 50.6875 5.359375 
Q 44.046875 -1.421875 33.015625 -1.421875 
Q 20.359375 -1.421875 13.671875 8.265625 
Q 6.984375 17.96875 6.984375 36.375 
Q 6.984375 53.65625 15.1875 63.9375 
Q 23.390625 74.21875 37.203125 74.21875 
Q 40.921875 74.21875 44.703125 73.484375 
Q 48.484375 72.75 52.59375 71.296875 
z
" id="DejaVuSans-54"/>
       </defs>
       <use xlink:href="#DejaVuSans-54"/>
       <use x="63.623047" xlink:href="#DejaVuSans-48"/>
       <use x="127.246094" xlink:href="#DejaVuSans-48"/>
       <use x="190.869141" xlink:href="#DejaVuSans-48"/>
      </g>
     </g>
    </g>
    <g id="ytick_3">
     <g id="line2d_6">
      <g>
       <use style="stroke:#000000;stroke-width:0.8;" x="59.690625" xlink:href="#m167254e5e3" y="171.209518"/>
      </g>
     </g>
     <g id="text_7">
      <!-- 8000 -->
      <g transform="translate(27.240625 175.008737)scale(0.1 -0.1)">
       <defs>
        <path d="M 31.78125 34.625 
Q 24.75 34.625 20.71875 30.859375 
Q 16.703125 27.09375 16.703125 20.515625 
Q 16.703125 13.921875 20.71875 10.15625 
Q 24.75 6.390625 31.78125 6.390625 
Q 38.8125 6.390625 42.859375 10.171875 
Q 46.921875 13.96875 46.921875 20.515625 
Q 46.921875 27.09375 42.890625 30.859375 
Q 38.875 34.625 31.78125 34.625 
z
M 21.921875 38.8125 
Q 15.578125 40.375 12.03125 44.71875 
Q 8.5 49.078125 8.5 55.328125 
Q 8.5 64.0625 14.71875 69.140625 
Q 20.953125 74.21875 31.78125 74.21875 
Q 42.671875 74.21875 48.875 69.140625 
Q 55.078125 64.0625 55.078125 55.328125 
Q 55.078125 49.078125 51.53125 44.71875 
Q 48 40.375 41.703125 38.8125 
Q 48.828125 37.15625 52.796875 32.3125 
Q 56.78125 27.484375 56.78125 20.515625 
Q 56.78125 9.90625 50.3125 4.234375 
Q 43.84375 -1.421875 31.78125 -1.421875 
Q 19.734375 -1.421875 13.25 4.234375 
Q 6.78125 9.90625 6.78125 20.515625 
Q 6.78125 27.484375 10.78125 32.3125 
Q 14.796875 37.15625 21.921875 38.8125 
z
M 18.3125 54.390625 
Q 18.3125 48.734375 21.84375 45.5625 
Q 25.390625 42.390625 31.78125 42.390625 
Q 38.140625 42.390625 41.71875 45.5625 
Q 45.3125 48.734375 45.3125 54.390625 
Q 45.3125 60.0625 41.71875 63.234375 
Q 38.140625 66.40625 31.78125 66.40625 
Q 25.390625 66.40625 21.84375 63.234375 
Q 18.3125 60.0625 18.3125 54.390625 
z
" id="DejaVuSans-56"/>
       </defs>
       <use xlink:href="#DejaVuSans-56"/>
       <use x="63.623047" xlink:href="#DejaVuSans-48"/>
       <use x="127.246094" xlink:href="#DejaVuSans-48"/>
       <use x="190.869141" xlink:href="#DejaVuSans-48"/>
      </g>
     </g>
    </g>
    <g id="ytick_4">
     <g id="line2d_7">
      <g>
       <use style="stroke:#000000;stroke-width:0.8;" x="59.690625" xlink:href="#m167254e5e3" y="130.036072"/>
      </g>
     </g>
     <g id="text_8">
      <!-- 10000 -->
      <g transform="translate(20.878125 133.835291)scale(0.1 -0.1)">
       <defs>
        <path d="M 12.40625 8.296875 
L 28.515625 8.296875 
L 28.515625 63.921875 
L 10.984375 60.40625 
L 10.984375 69.390625 
L 28.421875 72.90625 
L 38.28125 72.90625 
L 38.28125 8.296875 
L 54.390625 8.296875 
L 54.390625 0 
L 12.40625 0 
z
" id="DejaVuSans-49"/>
       </defs>
       <use xlink:href="#DejaVuSans-49"/>
       <use x="63.623047" xlink:href="#DejaVuSans-48"/>
       <use x="127.246094" xlink:href="#DejaVuSans-48"/>
       <use x="190.869141" xlink:href="#DejaVuSans-48"/>
       <use x="254.492188" xlink:href="#DejaVuSans-48"/>
      </g>
     </g>
    </g>
    <g id="ytick_5">
     <g id="line2d_8">
      <g>
       <use style="stroke:#000000;stroke-width:0.8;" x="59.690625" xlink:href="#m167254e5e3" y="88.862626"/>
      </g>
     </g>
     <g id="text_9">
      <!-- 12000 -->
      <g transform="translate(20.878125 92.661845)scale(0.1 -0.1)">
       <defs>
        <path d="M 19.1875 8.296875 
L 53.609375 8.296875 
L 53.609375 0 
L 7.328125 0 
L 7.328125 8.296875 
Q 12.9375 14.109375 22.625 23.890625 
Q 32.328125 33.6875 34.8125 36.53125 
Q 39.546875 41.84375 41.421875 45.53125 
Q 43.3125 49.21875 43.3125 52.78125 
Q 43.3125 58.59375 39.234375 62.25 
Q 35.15625 65.921875 28.609375 65.921875 
Q 23.96875 65.921875 18.8125 64.3125 
Q 13.671875 62.703125 7.8125 59.421875 
L 7.8125 69.390625 
Q 13.765625 71.78125 18.9375 73 
Q 24.125 74.21875 28.421875 74.21875 
Q 39.75 74.21875 46.484375 68.546875 
Q 53.21875 62.890625 53.21875 53.421875 
Q 53.21875 48.921875 51.53125 44.890625 
Q 49.859375 40.875 45.40625 35.40625 
Q 44.1875 33.984375 37.640625 27.21875 
Q 31.109375 20.453125 19.1875 8.296875 
z
" id="DejaVuSans-50"/>
       </defs>
       <use xlink:href="#DejaVuSans-49"/>
       <use x="63.623047" xlink:href="#DejaVuSans-50"/>
       <use x="127.246094" xlink:href="#DejaVuSans-48"/>
       <use x="190.869141" xlink:href="#DejaVuSans-48"/>
       <use x="254.492188" xlink:href="#DejaVuSans-48"/>
      </g>
     </g>
    </g>
    <g id="ytick_6">
     <g id="line2d_9">
      <g>
       <use style="stroke:#000000;stroke-width:0.8;" x="59.690625" xlink:href="#m167254e5e3" y="47.68918"/>
      </g>
     </g>
     <g id="text_10">
      <!-- 14000 -->
      <g transform="translate(20.878125 51.488399)scale(0.1 -0.1)">
       <use xlink:href="#DejaVuSans-49"/>
       <use x="63.623047" xlink:href="#DejaVuSans-52"/>
       <use x="127.246094" xlink:href="#DejaVuSans-48"/>
       <use x="190.869141" xlink:href="#DejaVuSans-48"/>
       <use x="254.492188" xlink:href="#DejaVuSans-48"/>
      </g>
     </g>
    </g>
    <g id="text_11">
     <!-- Reached region coverage -->
     <g transform="translate(14.798438 219.136625)rotate(-90)scale(0.1 -0.1)">
      <defs>
       <path d="M 44.390625 34.1875 
Q 47.5625 33.109375 50.5625 29.59375 
Q 53.5625 26.078125 56.59375 19.921875 
L 66.609375 0 
L 56 0 
L 46.6875 18.703125 
Q 43.0625 26.03125 39.671875 28.421875 
Q 36.28125 30.8125 30.421875 30.8125 
L 19.671875 30.8125 
L 19.671875 0 
L 9.8125 0 
L 9.8125 72.90625 
L 32.078125 72.90625 
Q 44.578125 72.90625 50.734375 67.671875 
Q 56.890625 62.453125 56.890625 51.90625 
Q 56.890625 45.015625 53.6875 40.46875 
Q 50.484375 35.9375 44.390625 34.1875 
z
M 19.671875 64.796875 
L 19.671875 38.921875 
L 32.078125 38.921875 
Q 39.203125 38.921875 42.84375 42.21875 
Q 46.484375 45.515625 46.484375 51.90625 
Q 46.484375 58.296875 42.84375 61.546875 
Q 39.203125 64.796875 32.078125 64.796875 
z
" id="DejaVuSans-82"/>
      </defs>
      <use xlink:href="#DejaVuSans-82"/>
      <use x="64.982422" xlink:href="#DejaVuSans-101"/>
      <use x="126.505859" xlink:href="#DejaVuSans-97"/>
      <use x="187.785156" xlink:href="#DejaVuSans-99"/>
      <use x="242.765625" xlink:href="#DejaVuSans-104"/>
      <use x="306.144531" xlink:href="#DejaVuSans-101"/>
      <use x="367.667969" xlink:href="#DejaVuSans-100"/>
      <use x="431.144531" xlink:href="#DejaVuSans-32"/>
      <use x="462.931641" xlink:href="#DejaVuSans-114"/>
      <use x="501.794922" xlink:href="#DejaVuSans-101"/>
      <use x="563.318359" xlink:href="#DejaVuSans-103"/>
      <use x="626.794922" xlink:href="#DejaVuSans-105"/>
      <use x="654.578125" xlink:href="#DejaVuSans-111"/>
      <use x="715.759766" xlink:href="#DejaVuSans-110"/>
      <use x="779.138672" xlink:href="#DejaVuSans-32"/>
      <use x="810.925781" xlink:href="#DejaVuSans-99"/>
      <use x="865.90625" xlink:href="#DejaVuSans-111"/>
      <use x="927.087891" xlink:href="#DejaVuSans-118"/>
      <use x="986.267578" xlink:href="#DejaVuSans-101"/>
      <use x="1047.791016" xlink:href="#DejaVuSans-114"/>
      <use x="1088.904297" xlink:href="#DejaVuSans-97"/>
      <use x="1150.183594" xlink:href="#DejaVuSans-103"/>
      <use x="1213.660156" xlink:href="#DejaVuSans-101"/>
     </g>
    </g>
   </g>
   <g id="line2d_10">
    <path clip-path="url(#p3bc47fedb8)" d="M 119.210625 197.251723 
L 119.210625 103.005705 
" style="fill:none;stroke:#3f3f3f;stroke-linecap:square;stroke-width:1.5;"/>
   </g>
   <g id="line2d_11">
    <path clip-path="url(#p3bc47fedb8)" d="M 119.210625 195.357744 
L 119.210625 108.317079 
" style="fill:none;stroke:#3f3f3f;stroke-linecap:square;stroke-width:4.5;"/>
   </g>
   <g id="line2d_12">
    <path clip-path="url(#p3bc47fedb8)" d="M 238.250625 221.89403 
L 238.250625 216.829696 
" style="fill:none;stroke:#3f3f3f;stroke-linecap:square;stroke-width:1.5;"/>
   </g>
   <g id="line2d_13">
    <path clip-path="url(#p3bc47fedb8)" d="M 238.250625 221.852857 
L 238.250625 219.032476 
" style="fill:none;stroke:#3f3f3f;stroke-linecap:square;stroke-width:4.5;"/>
   </g>
   <g id="line2d_14">
    <path clip-path="url(#p3bc47fedb8)" d="M 357.290625 275.893005 
L 357.290625 275.893005 
" style="fill:none;stroke:#3f3f3f;stroke-linecap:square;stroke-width:1.5;"/>
   </g>
   <g id="line2d_15">
    <path clip-path="url(#p3bc47fedb8)" d="M 357.290625 275.893005 
L 357.290625 275.893005 
" style="fill:none;stroke:#3f3f3f;stroke-linecap:square;stroke-width:4.5;"/>
   </g>
   <g id="patch_3">
    <path d="M 59.690625 253.55641 
L 59.690625 47.68918 
" style="fill:none;stroke:#000000;stroke-linecap:square;stroke-linejoin:miter;stroke-width:0.8;"/>
   </g>
   <g id="patch_4">
    <path d="M 119.210625 288.430125 
L 357.290625 288.430125 
" style="fill:none;stroke:#000000;stroke-linecap:square;stroke-linejoin:miter;stroke-width:0.8;"/>
   </g>
   <g id="PathCollection_1">
    <defs>
     <path d="M 0 1.5 
C 0.397805 1.5 0.77937 1.341951 1.06066 1.06066 
C 1.341951 0.77937 1.5 0.397805 1.5 0 
C 1.5 -0.397805 1.341951 -0.77937 1.06066 -1.06066 
C 0.77937 -1.341951 0.397805 -1.5 0 -1.5 
C -0.397805 -1.5 -0.77937 -1.341951 -1.06066 -1.06066 
C -1.341951 -0.77937 -1.5 -0.397805 -1.5 0 
C -1.5 0.397805 -1.341951 0.77937 -1.06066 1.06066 
C -0.77937 1.341951 -0.397805 1.5 0 1.5 
z
" id="m8795351f78" style="stroke:#3f3f3f;"/>
    </defs>
    <g clip-path="url(#p3bc47fedb8)">
     <use style="fill:#ffffff;stroke:#3f3f3f;" x="119.210625" xlink:href="#m8795351f78" y="120.895567"/>
    </g>
   </g>
   <g id="PathCollection_2">
    <g clip-path="url(#p3bc47fedb8)">
     <use style="fill:#ffffff;stroke:#3f3f3f;" x="238.250625" xlink:href="#m8795351f78" y="221.70875"/>
    </g>
   </g>
   <g id="PathCollection_3">
    <g clip-path="url(#p3bc47fedb8)">
     <use style="fill:#ffffff;stroke:#3f3f3f;" x="357.290625" xlink:href="#m8795351f78" y="275.893005"/>
    </g>
   </g>
   <g id="text_12">
    <!-- libxml2-v2.9.2 (3h:15m, 5 trials/fuzzer) -->
    <g transform="translate(120.808125 16.318125)scale(0.12 -0.12)">
     <defs>
      <path d="M 48.6875 27.296875 
Q 48.6875 37.203125 44.609375 42.84375 
Q 40.53125 48.484375 33.40625 48.484375 
Q 26.265625 48.484375 22.1875 42.84375 
Q 18.109375 37.203125 18.109375 27.296875 
Q 18.109375 17.390625 22.1875 11.75 
Q 26.265625 6.109375 33.40625 6.109375 
Q 40.53125 6.109375 44.609375 11.75 
Q 48.6875 17.390625 48.6875 27.296875 
z
M 18.109375 46.390625 
Q 20.953125 51.265625 25.265625 53.625 
Q 29.59375 56 35.59375 56 
Q 45.5625 56 51.78125 48.09375 
Q 58.015625 40.1875 58.015625 27.296875 
Q 58.015625 14.40625 51.78125 6.484375 
Q 45.5625 -1.421875 35.59375 -1.421875 
Q 29.59375 -1.421875 25.265625 0.953125 
Q 20.953125 3.328125 18.109375 8.203125 
L 18.109375 0 
L 9.078125 0 
L 9.078125 75.984375 
L 18.109375 75.984375 
z
" id="DejaVuSans-98"/>
      <path d="M 54.890625 54.6875 
L 35.109375 28.078125 
L 55.90625 0 
L 45.3125 0 
L 29.390625 21.484375 
L 13.484375 0 
L 2.875 0 
L 24.125 28.609375 
L 4.6875 54.6875 
L 15.28125 54.6875 
L 29.78125 35.203125 
L 44.28125 54.6875 
z
" id="DejaVuSans-120"/>
      <path d="M 4.890625 31.390625 
L 31.203125 31.390625 
L 31.203125 23.390625 
L 4.890625 23.390625 
z
" id="DejaVuSans-45"/>
      <path d="M 10.6875 12.40625 
L 21 12.40625 
L 21 0 
L 10.6875 0 
z
" id="DejaVuSans-46"/>
      <path d="M 10.984375 1.515625 
L 10.984375 10.5 
Q 14.703125 8.734375 18.5 7.8125 
Q 22.3125 6.890625 25.984375 6.890625 
Q 35.75 6.890625 40.890625 13.453125 
Q 46.046875 20.015625 46.78125 33.40625 
Q 43.953125 29.203125 39.59375 26.953125 
Q 35.25 24.703125 29.984375 24.703125 
Q 19.046875 24.703125 12.671875 31.3125 
Q 6.296875 37.9375 6.296875 49.421875 
Q 6.296875 60.640625 12.9375 67.421875 
Q 19.578125 74.21875 30.609375 74.21875 
Q 43.265625 74.21875 49.921875 64.515625 
Q 56.59375 54.828125 56.59375 36.375 
Q 56.59375 19.140625 48.40625 8.859375 
Q 40.234375 -1.421875 26.421875 -1.421875 
Q 22.703125 -1.421875 18.890625 -0.6875 
Q 15.09375 0.046875 10.984375 1.515625 
z
M 30.609375 32.421875 
Q 37.25 32.421875 41.125 36.953125 
Q 45.015625 41.5 45.015625 49.421875 
Q 45.015625 57.28125 41.125 61.84375 
Q 37.25 66.40625 30.609375 66.40625 
Q 23.96875 66.40625 20.09375 61.84375 
Q 16.21875 57.28125 16.21875 49.421875 
Q 16.21875 41.5 20.09375 36.953125 
Q 23.96875 32.421875 30.609375 32.421875 
z
" id="DejaVuSans-57"/>
      <path d="M 40.578125 39.3125 
Q 47.65625 37.796875 51.625 33 
Q 55.609375 28.21875 55.609375 21.1875 
Q 55.609375 10.40625 48.1875 4.484375 
Q 40.765625 -1.421875 27.09375 -1.421875 
Q 22.515625 -1.421875 17.65625 -0.515625 
Q 12.796875 0.390625 7.625 2.203125 
L 7.625 11.71875 
Q 11.71875 9.328125 16.59375 8.109375 
Q 21.484375 6.890625 26.8125 6.890625 
Q 36.078125 6.890625 40.9375 10.546875 
Q 45.796875 14.203125 45.796875 21.1875 
Q 45.796875 27.640625 41.28125 31.265625 
Q 36.765625 34.90625 28.71875 34.90625 
L 20.21875 34.90625 
L 20.21875 43.015625 
L 29.109375 43.015625 
Q 36.375 43.015625 40.234375 45.921875 
Q 44.09375 48.828125 44.09375 54.296875 
Q 44.09375 59.90625 40.109375 62.90625 
Q 36.140625 65.921875 28.71875 65.921875 
Q 24.65625 65.921875 20.015625 65.03125 
Q 15.375 64.15625 9.8125 62.3125 
L 9.8125 71.09375 
Q 15.4375 72.65625 20.34375 73.4375 
Q 25.25 74.21875 29.59375 74.21875 
Q 40.828125 74.21875 47.359375 69.109375 
Q 53.90625 64.015625 53.90625 55.328125 
Q 53.90625 49.265625 50.4375 45.09375 
Q 46.96875 40.921875 40.578125 39.3125 
z
" id="DejaVuSans-51"/>
      <path d="M 11.71875 12.40625 
L 22.015625 12.40625 
L 22.015625 0 
L 11.71875 0 
z
M 11.71875 51.703125 
L 22.015625 51.703125 
L 22.015625 39.3125 
L 11.71875 39.3125 
z
" id="DejaVuSans-58"/>
      <path d="M 10.796875 72.90625 
L 49.515625 72.90625 
L 49.515625 64.59375 
L 19.828125 64.59375 
L 19.828125 46.734375 
Q 21.96875 47.46875 24.109375 47.828125 
Q 26.265625 48.1875 28.421875 48.1875 
Q 40.625 48.1875 47.75 41.5 
Q 54.890625 34.8125 54.890625 23.390625 
Q 54.890625 11.625 47.5625 5.09375 
Q 40.234375 -1.421875 26.90625 -1.421875 
Q 22.3125 -1.421875 17.546875 -0.640625 
Q 12.796875 0.140625 7.71875 1.703125 
L 7.71875 11.625 
Q 12.109375 9.234375 16.796875 8.0625 
Q 21.484375 6.890625 26.703125 6.890625 
Q 35.15625 6.890625 40.078125 11.328125 
Q 45.015625 15.765625 45.015625 23.390625 
Q 45.015625 31 40.078125 35.4375 
Q 35.15625 39.890625 26.703125 39.890625 
Q 22.75 39.890625 18.8125 39.015625 
Q 14.890625 38.140625 10.796875 36.28125 
z
" id="DejaVuSans-53"/>
      <path d="M 11.71875 12.40625 
L 22.015625 12.40625 
L 22.015625 4 
L 14.015625 -11.625 
L 7.71875 -11.625 
L 11.71875 4 
z
" id="DejaVuSans-44"/>
      <path d="M 25.390625 72.90625 
L 33.6875 72.90625 
L 8.296875 -9.28125 
L 0 -9.28125 
z
" id="DejaVuSans-47"/>
     </defs>
     <use xlink:href="#DejaVuSans-108"/>
     <use x="27.783203" xlink:href="#DejaVuSans-105"/>
     <use x="55.566406" xlink:href="#DejaVuSans-98"/>
     <use x="119.042969" xlink:href="#DejaVuSans-120"/>
     <use x="178.222656" xlink:href="#DejaVuSans-109"/>
     <use x="275.634766" xlink:href="#DejaVuSans-108"/>
     <use x="303.417969" xlink:href="#DejaVuSans-50"/>
     <use x="367.041016" xlink:href="#DejaVuSans-45"/>
     <use x="400.5" xlink:href="#DejaVuSans-118"/>
     <use x="459.679688" xlink:href="#DejaVuSans-50"/>
     <use x="523.302734" xlink:href="#DejaVuSans-46"/>
     <use x="555.089844" xlink:href="#DejaVuSans-57"/>
     <use x="618.712891" xlink:href="#DejaVuSans-46"/>
     <use x="650.5" xlink:href="#DejaVuSans-50"/>
     <use x="714.123047" xlink:href="#DejaVuSans-32"/>
     <use x="745.910156" xlink:href="#DejaVuSans-40"/>
     <use x="784.923828" xlink:href="#DejaVuSans-51"/>
     <use x="848.546875" xlink:href="#DejaVuSans-104"/>
     <use x="911.925781" xlink:href="#DejaVuSans-58"/>
     <use x="945.617188" xlink:href="#DejaVuSans-49"/>
     <use x="1009.240234" xlink:href="#DejaVuSans-53"/>
     <use x="1072.863281" xlink:href="#DejaVuSans-109"/>
     <use x="1170.275391" xlink:href="#DejaVuSans-44"/>
     <use x="1202.0625" xlink:href="#DejaVuSans-32"/>
     <use x="1233.849609" xlink:href="#DejaVuSans-53"/>
     <use x="1297.472656" xlink:href="#DejaVuSans-32"/>
     <use x="1329.259766" xlink:href="#DejaVuSans-116"/>
     <use x="1368.46875" xlink:href="#DejaVuSans-114"/>
     <use x="1409.582031" xlink:href="#DejaVuSans-105"/>
     <use x="1437.365234" xlink:href="#DejaVuSans-97"/>
     <use x="1498.644531" xlink:href="#DejaVuSans-108"/>
     <use x="1526.427734" xlink:href="#DejaVuSans-115"/>
     <use x="1578.527344" xlink:href="#DejaVuSans-47"/>
     <use x="1612.21875" xlink:href="#DejaVuSans-102"/>
     <use x="1647.423828" xlink:href="#DejaVuSans-117"/>
     <use x="1710.802734" xlink:href="#DejaVuSans-122"/>
     <use x="1763.292969" xlink:href="#DejaVuSans-122"/>
     <use x="1815.783203" xlink:href="#DejaVuSans-101"/>
     <use x="1877.306641" xlink:href="#DejaVuSans-114"/>
     <use x="1918.419922" xlink:href="#DejaVuSans-41"/>
    </g>
   </g>
  </g>
 </g>
 <defs>
  <clipPath id="p3bc47fedb8">
   <rect height="266.112" width="357.12" x="59.690625" y="22.318125"/>
  </clipPath>
 </defs>
</svg>
