<?xml version="1.0" encoding="utf-8" standalone="no"?>
<!DOCTYPE svg PUBLIC "-//W3C//DTD SVG 1.1//EN"
  "http://www.w3.org/Graphics/SVG/1.1/DTD/svg11.dtd">
<!-- Created with matplotlib (https://matplotlib.org/) -->
<svg height="355.523584pt" version="1.1" viewBox="0 0 424.010625 355.523584" width="424.010625pt" xmlns="http://www.w3.org/2000/svg" xmlns:xlink="http://www.w3.org/1999/xlink">
 <metadata>
  <rdf:RDF xmlns:cc="http://creativecommons.org/ns#" xmlns:dc="http://purl.org/dc/elements/1.1/" xmlns:rdf="http://www.w3.org/1999/02/22-rdf-syntax-ns#">
   <cc:Work>
    <dc:type rdf:resource="http://purl.org/dc/dcmitype/StillImage"/>
    <dc:date>2020-10-26T05:59:19.782130</dc:date>
    <dc:format>image/svg+xml</dc:format>
    <dc:creator>
     <cc:Agent>
      <dc:title>Matplotlib v3.3.2, https://matplotlib.org/</dc:title>
     </cc:Agent>
    </dc:creator>
   </cc:Work>
  </rdf:RDF>
 </metadata>
 <defs>
  <style type="text/css">*{stroke-linecap:butt;stroke-linejoin:round;}</style>
 </defs>
 <g id="figure_1">
  <g id="patch_1">
   <path d="M 0 355.523584 
L 424.010625 355.523584 
L 424.010625 0 
L 0 0 
z
" style="fill:#ffffff;"/>
  </g>
  <g id="axes_1">
   <g id="patch_2">
    <path d="M 59.690625 288.430125 
L 416.810625 288.430125 
L 416.810625 22.318125 
L 59.690625 22.318125 
z
" style="fill:#ffffff;"/>
   </g>
   <g id="PolyCollection_1">
    <defs>
     <path d="M 104.506875 -163.438853 
L 104.154375 -163.438853 
L 104.124098 -163.626081 
L 104.090053 -163.813308 
L 104.05204 -164.000535 
L 104.009894 -164.187763 
L 103.963492 -164.37499 
L 103.912754 -164.562218 
L 103.857654 -164.749445 
L 103.798218 -164.936673 
L 103.734526 -165.1239 
L 103.666708 -165.311128 
L 103.594943 -165.498355 
L 103.519449 -165.685583 
L 103.440476 -165.87281 
L 103.358296 -166.060037 
L 103.273185 -166.247265 
L 103.185414 -166.434492 
L 103.095236 -166.62172 
L 103.002868 -166.808947 
L 102.908485 -166.996175 
L 102.812208 -167.183402 
L 102.714099 -167.37063 
L 102.614162 -167.557857 
L 102.512345 -167.745085 
L 102.408551 -167.932312 
L 102.302652 -168.119539 
L 102.194506 -168.306767 
L 102.083984 -168.493994 
L 101.970996 -168.681222 
L 101.855518 -168.868449 
L 101.737626 -169.055677 
L 101.617519 -169.242904 
L 101.495546 -169.430132 
L 101.372229 -169.617359 
L 101.248271 -169.804587 
L 101.124566 -169.991814 
L 101.002193 -170.179041 
L 100.882402 -170.366269 
L 100.766593 -170.553496 
L 100.656283 -170.740724 
L 100.55306 -170.927951 
L 100.458544 -171.115179 
L 100.374322 -171.302406 
L 100.301905 -171.489634 
L 100.242661 -171.676861 
L 100.19777 -171.864089 
L 100.168171 -172.051316 
L 100.154523 -172.238543 
L 100.157177 -172.425771 
L 100.176153 -172.612998 
L 100.211138 -172.800226 
L 100.261489 -172.987453 
L 100.326255 -173.174681 
L 100.404209 -173.361908 
L 100.493886 -173.549136 
L 100.59364 -173.736363 
L 100.701696 -173.923591 
L 100.816216 -174.110818 
L 100.935353 -174.298045 
L 101.057317 -174.485273 
L 101.18043 -174.6725 
L 101.303168 -174.859728 
L 101.424208 -175.046955 
L 101.54245 -175.234183 
L 101.657043 -175.42141 
L 101.767384 -175.608638 
L 101.87312 -175.795865 
L 101.97413 -175.983093 
L 102.070503 -176.17032 
L 102.162508 -176.357548 
L 102.250557 -176.544775 
L 102.335168 -176.732002 
L 102.416922 -176.91923 
L 102.496425 -177.106457 
L 102.57427 -177.293685 
L 102.651006 -177.480912 
L 102.72711 -177.66814 
L 102.802963 -177.855367 
L 102.878838 -178.042595 
L 102.954894 -178.229822 
L 103.031171 -178.41705 
L 103.107597 -178.604277 
L 103.183997 -178.791504 
L 103.26011 -178.978732 
L 103.335602 -179.165959 
L 103.410089 -179.353187 
L 103.483155 -179.540414 
L 103.554375 -179.727642 
L 103.623329 -179.914869 
L 103.689621 -180.102097 
L 103.752896 -180.289324 
L 103.812847 -180.476552 
L 103.869225 -180.663779 
L 103.921844 -180.851006 
L 103.970586 -181.038234 
L 104.015394 -181.225461 
L 104.056275 -181.412689 
L 104.093292 -181.599916 
L 104.12656 -181.787144 
L 104.156234 -181.974371 
L 104.505016 -181.974371 
L 104.505016 -181.974371 
L 104.53469 -181.787144 
L 104.567958 -181.599916 
L 104.604975 -181.412689 
L 104.645856 -181.225461 
L 104.690664 -181.038234 
L 104.739406 -180.851006 
L 104.792025 -180.663779 
L 104.848403 -180.476552 
L 104.908354 -180.289324 
L 104.971629 -180.102097 
L 105.037921 -179.914869 
L 105.106875 -179.727642 
L 105.178095 -179.540414 
L 105.251161 -179.353187 
L 105.325648 -179.165959 
L 105.40114 -178.978732 
L 105.477253 -178.791504 
L 105.553653 -178.604277 
L 105.630079 -178.41705 
L 105.706356 -178.229822 
L 105.782412 -178.042595 
L 105.858287 -177.855367 
L 105.93414 -177.66814 
L 106.010244 -177.480912 
L 106.08698 -177.293685 
L 106.164825 -177.106457 
L 106.244328 -176.91923 
L 106.326082 -176.732002 
L 106.410693 -176.544775 
L 106.498742 -176.357548 
L 106.590747 -176.17032 
L 106.68712 -175.983093 
L 106.78813 -175.795865 
L 106.893866 -175.608638 
L 107.004207 -175.42141 
L 107.1188 -175.234183 
L 107.237042 -175.046955 
L 107.358082 -174.859728 
L 107.48082 -174.6725 
L 107.603933 -174.485273 
L 107.725897 -174.298045 
L 107.845034 -174.110818 
L 107.959554 -173.923591 
L 108.06761 -173.736363 
L 108.167364 -173.549136 
L 108.257041 -173.361908 
L 108.334995 -173.174681 
L 108.399761 -172.987453 
L 108.450112 -172.800226 
L 108.485097 -172.612998 
L 108.504073 -172.425771 
L 108.506727 -172.238543 
L 108.493079 -172.051316 
L 108.46348 -171.864089 
L 108.418589 -171.676861 
L 108.359345 -171.489634 
L 108.286928 -171.302406 
L 108.202706 -171.115179 
L 108.10819 -170.927951 
L 108.004967 -170.740724 
L 107.894657 -170.553496 
L 107.778848 -170.366269 
L 107.659057 -170.179041 
L 107.536684 -169.991814 
L 107.412979 -169.804587 
L 107.289021 -169.617359 
L 107.165704 -169.430132 
L 107.043731 -169.242904 
L 106.923624 -169.055677 
L 106.805732 -168.868449 
L 106.690254 -168.681222 
L 106.577266 -168.493994 
L 106.466744 -168.306767 
L 106.358598 -168.119539 
L 106.252699 -167.932312 
L 106.148905 -167.745085 
L 106.047088 -167.557857 
L 105.947151 -167.37063 
L 105.849042 -167.183402 
L 105.752765 -166.996175 
L 105.658382 -166.808947 
L 105.566014 -166.62172 
L 105.475836 -166.434492 
L 105.388065 -166.247265 
L 105.302954 -166.060037 
L 105.220774 -165.87281 
L 105.141801 -165.685583 
L 105.066307 -165.498355 
L 104.994542 -165.311128 
L 104.926724 -165.1239 
L 104.863032 -164.936673 
L 104.803596 -164.749445 
L 104.748496 -164.562218 
L 104.697758 -164.37499 
L 104.651356 -164.187763 
L 104.60921 -164.000535 
L 104.571197 -163.813308 
L 104.537152 -163.626081 
L 104.506875 -163.438853 
z
" id="m2c8790d865" style="stroke:#3f3f3f;stroke-width:1.5;"/>
    </defs>
    <g clip-path="url(#p039bd8c03a)">
     <use style="fill:#c03d3e;stroke:#3f3f3f;stroke-width:1.5;" x="0" xlink:href="#m2c8790d865" y="355.523584"/>
    </g>
   </g>
   <g id="PolyCollection_2">
    <defs>
     <path d="M 193.863184 -161.229262 
L 193.358066 -161.229262 
L 193.317542 -161.351558 
L 193.272404 -161.473854 
L 193.22247 -161.59615 
L 193.167615 -161.718445 
L 193.107776 -161.840741 
L 193.042961 -161.963037 
L 192.973256 -162.085333 
L 192.898831 -162.207629 
L 192.81994 -162.329925 
L 192.736925 -162.452221 
L 192.650207 -162.574517 
L 192.560286 -162.696813 
L 192.467727 -162.819109 
L 192.373147 -162.941405 
L 192.277199 -163.063701 
L 192.180555 -163.185997 
L 192.083878 -163.308293 
L 191.987806 -163.430589 
L 191.892924 -163.552885 
L 191.799739 -163.675181 
L 191.708662 -163.797476 
L 191.619986 -163.919772 
L 191.533866 -164.042068 
L 191.450312 -164.164364 
L 191.369179 -164.28666 
L 191.290169 -164.408956 
L 191.212829 -164.531252 
L 191.136572 -164.653548 
L 191.060687 -164.775844 
L 190.984369 -164.89814 
L 190.906742 -165.020436 
L 190.826897 -165.142732 
L 190.743924 -165.265028 
L 190.656952 -165.387324 
L 190.565182 -165.50962 
L 190.467929 -165.631916 
L 190.364649 -165.754212 
L 190.254968 -165.876508 
L 190.138705 -165.998803 
L 190.015889 -166.121099 
L 189.886765 -166.243395 
L 189.751796 -166.365691 
L 189.611657 -166.487987 
L 189.467221 -166.610283 
L 189.319542 -166.732579 
L 189.169827 -166.854875 
L 189.01941 -166.977171 
L 188.869718 -167.099467 
L 188.722242 -167.221763 
L 188.578505 -167.344059 
L 188.440027 -167.466355 
L 188.308302 -167.588651 
L 188.184769 -167.710947 
L 188.070793 -167.833243 
L 187.967649 -167.955539 
L 187.876506 -168.077835 
L 187.798422 -168.20013 
L 187.734336 -168.322426 
L 187.685064 -168.444722 
L 187.651302 -168.567018 
L 187.63362 -168.689314 
L 187.632469 -168.81161 
L 187.648174 -168.933906 
L 187.680939 -169.056202 
L 187.730839 -169.178498 
L 187.797825 -169.300794 
L 187.88171 -169.42309 
L 187.982172 -169.545386 
L 188.098747 -169.667682 
L 188.230822 -169.789978 
L 188.377639 -169.912274 
L 188.538287 -170.03457 
L 188.711709 -170.156866 
L 188.89671 -170.279162 
L 189.09196 -170.401457 
L 189.296015 -170.523753 
L 189.507328 -170.646049 
L 189.724277 -170.768345 
L 189.945185 -170.890641 
L 190.168348 -171.012937 
L 190.392066 -171.135233 
L 190.614668 -171.257529 
L 190.834544 -171.379825 
L 191.050172 -171.502121 
L 191.260142 -171.624417 
L 191.463178 -171.746713 
L 191.658156 -171.869009 
L 191.84412 -171.991305 
L 192.020288 -172.113601 
L 192.186054 -172.235897 
L 192.340995 -172.358193 
L 192.484858 -172.480489 
L 192.617557 -172.602784 
L 192.739158 -172.72508 
L 192.849862 -172.847376 
L 192.949995 -172.969672 
L 193.039981 -173.091968 
L 193.120331 -173.214264 
L 193.191617 -173.33656 
L 194.029633 -173.33656 
L 194.029633 -173.33656 
L 194.100919 -173.214264 
L 194.181269 -173.091968 
L 194.271255 -172.969672 
L 194.371388 -172.847376 
L 194.482092 -172.72508 
L 194.603693 -172.602784 
L 194.736392 -172.480489 
L 194.880255 -172.358193 
L 195.035196 -172.235897 
L 195.200962 -172.113601 
L 195.37713 -171.991305 
L 195.563094 -171.869009 
L 195.758072 -171.746713 
L 195.961108 -171.624417 
L 196.171078 -171.502121 
L 196.386706 -171.379825 
L 196.606582 -171.257529 
L 196.829184 -171.135233 
L 197.052902 -171.012937 
L 197.276065 -170.890641 
L 197.496973 -170.768345 
L 197.713922 -170.646049 
L 197.925235 -170.523753 
L 198.12929 -170.401457 
L 198.32454 -170.279162 
L 198.509541 -170.156866 
L 198.682963 -170.03457 
L 198.843611 -169.912274 
L 198.990428 -169.789978 
L 199.122503 -169.667682 
L 199.239078 -169.545386 
L 199.33954 -169.42309 
L 199.423425 -169.300794 
L 199.490411 -169.178498 
L 199.540311 -169.056202 
L 199.573076 -168.933906 
L 199.588781 -168.81161 
L 199.58763 -168.689314 
L 199.569948 -168.567018 
L 199.536186 -168.444722 
L 199.486914 -168.322426 
L 199.422828 -168.20013 
L 199.344744 -168.077835 
L 199.253601 -167.955539 
L 199.150457 -167.833243 
L 199.036481 -167.710947 
L 198.912948 -167.588651 
L 198.781223 -167.466355 
L 198.642745 -167.344059 
L 198.499008 -167.221763 
L 198.351532 -167.099467 
L 198.20184 -166.977171 
L 198.051423 -166.854875 
L 197.901708 -166.732579 
L 197.754029 -166.610283 
L 197.609593 -166.487987 
L 197.469454 -166.365691 
L 197.334485 -166.243395 
L 197.205361 -166.121099 
L 197.082545 -165.998803 
L 196.966282 -165.876508 
L 196.856601 -165.754212 
L 196.753321 -165.631916 
L 196.656068 -165.50962 
L 196.564298 -165.387324 
L 196.477326 -165.265028 
L 196.394353 -165.142732 
L 196.314508 -165.020436 
L 196.236881 -164.89814 
L 196.160563 -164.775844 
L 196.084678 -164.653548 
L 196.008421 -164.531252 
L 195.931081 -164.408956 
L 195.852071 -164.28666 
L 195.770938 -164.164364 
L 195.687384 -164.042068 
L 195.601264 -163.919772 
L 195.512588 -163.797476 
L 195.421511 -163.675181 
L 195.328326 -163.552885 
L 195.233444 -163.430589 
L 195.137372 -163.308293 
L 195.040695 -163.185997 
L 194.944051 -163.063701 
L 194.848103 -162.941405 
L 194.753523 -162.819109 
L 194.660964 -162.696813 
L 194.571043 -162.574517 
L 194.484325 -162.452221 
L 194.40131 -162.329925 
L 194.322419 -162.207629 
L 194.247994 -162.085333 
L 194.178289 -161.963037 
L 194.113474 -161.840741 
L 194.053635 -161.718445 
L 193.99878 -161.59615 
L 193.948846 -161.473854 
L 193.903708 -161.351558 
L 193.863184 -161.229262 
z
" id="m7ff44c63c5" style="stroke:#3f3f3f;stroke-width:1.5;"/>
    </defs>
    <g clip-path="url(#p039bd8c03a)">
     <use style="fill:#3274a1;stroke:#3f3f3f;stroke-width:1.5;" x="0" xlink:href="#m7ff44c63c5" y="355.523584"/>
    </g>
   </g>
   <g id="PolyCollection_3">
    <defs>
     <path d="M 284.538789 -163.130643 
L 281.242461 -163.130643 
L 280.946353 -163.153372 
L 280.608825 -163.176101 
L 280.226313 -163.19883 
L 279.795319 -163.221559 
L 279.312484 -163.244288 
L 278.774659 -163.267017 
L 278.178988 -163.289746 
L 277.522985 -163.312475 
L 276.80462 -163.335204 
L 276.022401 -163.357933 
L 275.175453 -163.380662 
L 274.263599 -163.403391 
L 273.287429 -163.42612 
L 272.248367 -163.448849 
L 271.148727 -163.471578 
L 269.991762 -163.494307 
L 268.7817 -163.517036 
L 267.523768 -163.539765 
L 266.2242 -163.562494 
L 264.890237 -163.585223 
L 263.530099 -163.607952 
L 262.152949 -163.630681 
L 260.768829 -163.65341 
L 259.388584 -163.676139 
L 258.023755 -163.698868 
L 256.686459 -163.721597 
L 255.389235 -163.744326 
L 254.144878 -163.767055 
L 252.966245 -163.789784 
L 251.866048 -163.812513 
L 250.856622 -163.835242 
L 249.949691 -163.857971 
L 249.156121 -163.8807 
L 248.485671 -163.903429 
L 247.946757 -163.926158 
L 247.546224 -163.948887 
L 247.289141 -163.971616 
L 247.178625 -163.994345 
L 247.215705 -164.017074 
L 247.399225 -164.039803 
L 247.725805 -164.062532 
L 248.189847 -164.085261 
L 248.783603 -164.10799 
L 249.497302 -164.130719 
L 250.319331 -164.153448 
L 251.23647 -164.176177 
L 252.234173 -164.198906 
L 253.296894 -164.221635 
L 254.408441 -164.244364 
L 255.552347 -164.267093 
L 256.712255 -164.289822 
L 257.872302 -164.312551 
L 259.017481 -164.33528 
L 260.133984 -164.358009 
L 261.209502 -164.380738 
L 262.233478 -164.403467 
L 263.197314 -164.426196 
L 264.094504 -164.448925 
L 264.920714 -164.471654 
L 265.67379 -164.494383 
L 266.353702 -164.517112 
L 266.962428 -164.539841 
L 267.503778 -164.56257 
L 267.983174 -164.585299 
L 268.407384 -164.608028 
L 268.784231 -164.630757 
L 269.122275 -164.653486 
L 269.430494 -164.676215 
L 269.717967 -164.698944 
L 269.993567 -164.721673 
L 270.265682 -164.744402 
L 270.541968 -164.767131 
L 270.829136 -164.78986 
L 271.132796 -164.812589 
L 271.457337 -164.835318 
L 271.805862 -164.858047 
L 272.180174 -164.880776 
L 272.580805 -164.903505 
L 273.007089 -164.926234 
L 273.457267 -164.948963 
L 273.928634 -164.971692 
L 274.417692 -164.994421 
L 274.92033 -165.01715 
L 275.432006 -165.039879 
L 275.947932 -165.062608 
L 276.463243 -165.085337 
L 276.973165 -165.108066 
L 277.473153 -165.130795 
L 277.959016 -165.153524 
L 278.427016 -165.176253 
L 278.873935 -165.198982 
L 279.297126 -165.221711 
L 279.694535 -165.24444 
L 280.064704 -165.267169 
L 280.406747 -165.289898 
L 280.72032 -165.312627 
L 281.005569 -165.335356 
L 281.263075 -165.358085 
L 281.493787 -165.380814 
L 284.287463 -165.380814 
L 284.287463 -165.380814 
L 284.518175 -165.358085 
L 284.775681 -165.335356 
L 285.06093 -165.312627 
L 285.374503 -165.289898 
L 285.716546 -165.267169 
L 286.086715 -165.24444 
L 286.484124 -165.221711 
L 286.907315 -165.198982 
L 287.354234 -165.176253 
L 287.822234 -165.153524 
L 288.308097 -165.130795 
L 288.808085 -165.108066 
L 289.318007 -165.085337 
L 289.833318 -165.062608 
L 290.349244 -165.039879 
L 290.86092 -165.01715 
L 291.363558 -164.994421 
L 291.852616 -164.971692 
L 292.323983 -164.948963 
L 292.774161 -164.926234 
L 293.200445 -164.903505 
L 293.601076 -164.880776 
L 293.975388 -164.858047 
L 294.323913 -164.835318 
L 294.648454 -164.812589 
L 294.952114 -164.78986 
L 295.239282 -164.767131 
L 295.515568 -164.744402 
L 295.787683 -164.721673 
L 296.063283 -164.698944 
L 296.350756 -164.676215 
L 296.658975 -164.653486 
L 296.997019 -164.630757 
L 297.373866 -164.608028 
L 297.798076 -164.585299 
L 298.277472 -164.56257 
L 298.818822 -164.539841 
L 299.427548 -164.517112 
L 300.10746 -164.494383 
L 300.860536 -164.471654 
L 301.686746 -164.448925 
L 302.583936 -164.426196 
L 303.547772 -164.403467 
L 304.571748 -164.380738 
L 305.647266 -164.358009 
L 306.763769 -164.33528 
L 307.908948 -164.312551 
L 309.068995 -164.289822 
L 310.228903 -164.267093 
L 311.372809 -164.244364 
L 312.484356 -164.221635 
L 313.547077 -164.198906 
L 314.54478 -164.176177 
L 315.461919 -164.153448 
L 316.283948 -164.130719 
L 316.997647 -164.10799 
L 317.591403 -164.085261 
L 318.055445 -164.062532 
L 318.382025 -164.039803 
L 318.565545 -164.017074 
L 318.602625 -163.994345 
L 318.492109 -163.971616 
L 318.235026 -163.948887 
L 317.834493 -163.926158 
L 317.295579 -163.903429 
L 316.625129 -163.8807 
L 315.831559 -163.857971 
L 314.924628 -163.835242 
L 313.915202 -163.812513 
L 312.815005 -163.789784 
L 311.636372 -163.767055 
L 310.392015 -163.744326 
L 309.094791 -163.721597 
L 307.757495 -163.698868 
L 306.392666 -163.676139 
L 305.012421 -163.65341 
L 303.628301 -163.630681 
L 302.251151 -163.607952 
L 300.891013 -163.585223 
L 299.55705 -163.562494 
L 298.257482 -163.539765 
L 296.99955 -163.517036 
L 295.789488 -163.494307 
L 294.632523 -163.471578 
L 293.532883 -163.448849 
L 292.493821 -163.42612 
L 291.517651 -163.403391 
L 290.605797 -163.380662 
L 289.758849 -163.357933 
L 288.97663 -163.335204 
L 288.258265 -163.312475 
L 287.602262 -163.289746 
L 287.006591 -163.267017 
L 286.468766 -163.244288 
L 285.985931 -163.221559 
L 285.554937 -163.19883 
L 285.172425 -163.176101 
L 284.834897 -163.153372 
L 284.538789 -163.130643 
z
" id="mca94002ebc" style="stroke:#3f3f3f;stroke-width:1.5;"/>
    </defs>
    <g clip-path="url(#p039bd8c03a)">
     <use style="fill:#9fd495;stroke:#3f3f3f;stroke-width:1.5;" x="0" xlink:href="#mca94002ebc" y="355.523584"/>
    </g>
   </g>
   <g id="PolyCollection_4">
    <defs>
     <path d="M 372.198622 -79.189459 
L 372.142628 -79.189459 
L 372.138455 -81.633096 
L 372.133829 -84.076732 
L 372.128728 -86.520368 
L 372.123136 -88.964005 
L 372.117043 -91.407641 
L 372.110442 -93.851277 
L 372.103335 -96.294914 
L 372.095729 -98.73855 
L 372.087641 -101.182186 
L 372.079096 -103.625823 
L 372.070128 -106.069459 
L 372.060779 -108.513096 
L 372.051103 -110.956732 
L 372.041159 -113.400368 
L 372.03102 -115.844005 
L 372.020762 -118.287641 
L 372.010471 -120.731277 
L 372.000237 -123.174914 
L 371.990156 -125.61855 
L 371.980327 -128.062186 
L 371.970847 -130.505823 
L 371.961816 -132.949459 
L 371.953329 -135.393096 
L 371.945475 -137.836732 
L 371.938339 -140.280368 
L 371.931993 -142.724005 
L 371.926501 -145.167641 
L 371.921913 -147.611277 
L 371.918266 -150.054914 
L 371.915581 -152.49855 
L 371.913865 -154.942186 
L 371.913106 -157.385823 
L 371.913278 -159.829459 
L 371.91434 -162.273096 
L 371.916234 -164.716732 
L 371.918889 -167.160368 
L 371.922223 -169.604005 
L 371.926142 -172.047641 
L 371.930547 -174.491277 
L 371.935329 -176.934914 
L 371.940379 -179.37855 
L 371.945587 -181.822186 
L 371.950843 -184.265823 
L 371.956044 -186.709459 
L 371.961092 -189.153096 
L 371.965899 -191.596732 
L 371.970387 -194.040368 
L 371.974492 -196.484005 
L 371.978162 -198.927641 
L 371.981362 -201.371277 
L 371.984071 -203.814914 
L 371.986283 -206.25855 
L 371.988009 -208.702186 
L 371.989272 -211.145823 
L 371.99011 -213.589459 
L 371.990573 -216.033096 
L 371.990721 -218.476732 
L 371.990624 -220.920368 
L 371.990357 -223.364005 
L 371.99 -225.807641 
L 371.989634 -228.251277 
L 371.989343 -230.694914 
L 371.989207 -233.13855 
L 371.989302 -235.582186 
L 371.989697 -238.025823 
L 371.990456 -240.469459 
L 371.991631 -242.913096 
L 371.993267 -245.356732 
L 371.995396 -247.800368 
L 371.99804 -250.244005 
L 372.001209 -252.687641 
L 372.0049 -255.131277 
L 372.009103 -257.574914 
L 372.013793 -260.01855 
L 372.01894 -262.462186 
L 372.024504 -264.905823 
L 372.030436 -267.349459 
L 372.036684 -269.793096 
L 372.043192 -272.236732 
L 372.0499 -274.680368 
L 372.056746 -277.124005 
L 372.06367 -279.567641 
L 372.070612 -282.011277 
L 372.077514 -284.454914 
L 372.084323 -286.89855 
L 372.090989 -289.342186 
L 372.097467 -291.785823 
L 372.103719 -294.229459 
L 372.10971 -296.673096 
L 372.115414 -299.116732 
L 372.120809 -301.560368 
L 372.12588 -304.004005 
L 372.130615 -306.447641 
L 372.135011 -308.891277 
L 372.139068 -311.334914 
L 372.142789 -313.77855 
L 372.146182 -316.222186 
L 372.149259 -318.665823 
L 372.152033 -321.109459 
L 372.189217 -321.109459 
L 372.189217 -321.109459 
L 372.191991 -318.665823 
L 372.195068 -316.222186 
L 372.198461 -313.77855 
L 372.202182 -311.334914 
L 372.206239 -308.891277 
L 372.210635 -306.447641 
L 372.21537 -304.004005 
L 372.220441 -301.560368 
L 372.225836 -299.116732 
L 372.23154 -296.673096 
L 372.237531 -294.229459 
L 372.243783 -291.785823 
L 372.250261 -289.342186 
L 372.256927 -286.89855 
L 372.263736 -284.454914 
L 372.270638 -282.011277 
L 372.27758 -279.567641 
L 372.284504 -277.124005 
L 372.29135 -274.680368 
L 372.298058 -272.236732 
L 372.304566 -269.793096 
L 372.310814 -267.349459 
L 372.316746 -264.905823 
L 372.32231 -262.462186 
L 372.327457 -260.01855 
L 372.332147 -257.574914 
L 372.33635 -255.131277 
L 372.340041 -252.687641 
L 372.34321 -250.244005 
L 372.345854 -247.800368 
L 372.347983 -245.356732 
L 372.349619 -242.913096 
L 372.350794 -240.469459 
L 372.351553 -238.025823 
L 372.351948 -235.582186 
L 372.352043 -233.13855 
L 372.351907 -230.694914 
L 372.351616 -228.251277 
L 372.35125 -225.807641 
L 372.350893 -223.364005 
L 372.350626 -220.920368 
L 372.350529 -218.476732 
L 372.350677 -216.033096 
L 372.35114 -213.589459 
L 372.351978 -211.145823 
L 372.353241 -208.702186 
L 372.354967 -206.25855 
L 372.357179 -203.814914 
L 372.359888 -201.371277 
L 372.363088 -198.927641 
L 372.366758 -196.484005 
L 372.370863 -194.040368 
L 372.375351 -191.596732 
L 372.380158 -189.153096 
L 372.385206 -186.709459 
L 372.390407 -184.265823 
L 372.395663 -181.822186 
L 372.400871 -179.37855 
L 372.405921 -176.934914 
L 372.410703 -174.491277 
L 372.415108 -172.047641 
L 372.419027 -169.604005 
L 372.422361 -167.160368 
L 372.425016 -164.716732 
L 372.42691 -162.273096 
L 372.427972 -159.829459 
L 372.428144 -157.385823 
L 372.427385 -154.942186 
L 372.425669 -152.49855 
L 372.422984 -150.054914 
L 372.419337 -147.611277 
L 372.414749 -145.167641 
L 372.409257 -142.724005 
L 372.402911 -140.280368 
L 372.395775 -137.836732 
L 372.387921 -135.393096 
L 372.379434 -132.949459 
L 372.370403 -130.505823 
L 372.360923 -128.062186 
L 372.351094 -125.61855 
L 372.341013 -123.174914 
L 372.330779 -120.731277 
L 372.320488 -118.287641 
L 372.31023 -115.844005 
L 372.300091 -113.400368 
L 372.290147 -110.956732 
L 372.280471 -108.513096 
L 372.271122 -106.069459 
L 372.262154 -103.625823 
L 372.253609 -101.182186 
L 372.245521 -98.73855 
L 372.237915 -96.294914 
L 372.230808 -93.851277 
L 372.224207 -91.407641 
L 372.218114 -88.964005 
L 372.212522 -86.520368 
L 372.207421 -84.076732 
L 372.202795 -81.633096 
L 372.198622 -79.189459 
z
" id="m04de46bfee" style="stroke:#3f3f3f;stroke-width:1.5;"/>
    </defs>
    <g clip-path="url(#p039bd8c03a)">
     <use style="fill:#c7c7c7;stroke:#3f3f3f;stroke-width:1.5;" x="0" xlink:href="#m04de46bfee" y="355.523584"/>
    </g>
   </g>
   <g id="matplotlib.axis_1">
    <g id="xtick_1">
     <g id="line2d_1">
      <defs>
       <path d="M 0 0 
L 0 3.5 
" id="mab62b38b1b" style="stroke:#000000;stroke-width:0.8;"/>
      </defs>
      <g>
       <use style="stroke:#000000;stroke-width:0.8;" x="104.330625" xlink:href="#mab62b38b1b" y="288.430125"/>
      </g>
     </g>
     <g id="text_1">
      <!-- kirenenko -->
      <g transform="translate(60.870421 326.501971)rotate(-30)scale(0.1 -0.1)">
       <defs>
        <path d="M 9.078125 75.984375 
L 18.109375 75.984375 
L 18.109375 31.109375 
L 44.921875 54.6875 
L 56.390625 54.6875 
L 27.390625 29.109375 
L 57.625 0 
L 45.90625 0 
L 18.109375 26.703125 
L 18.109375 0 
L 9.078125 0 
z
" id="DejaVuSans-107"/>
        <path d="M 9.421875 54.6875 
L 18.40625 54.6875 
L 18.40625 0 
L 9.421875 0 
z
M 9.421875 75.984375 
L 18.40625 75.984375 
L 18.40625 64.59375 
L 9.421875 64.59375 
z
" id="DejaVuSans-105"/>
        <path d="M 41.109375 46.296875 
Q 39.59375 47.171875 37.8125 47.578125 
Q 36.03125 48 33.890625 48 
Q 26.265625 48 22.1875 43.046875 
Q 18.109375 38.09375 18.109375 28.8125 
L 18.109375 0 
L 9.078125 0 
L 9.078125 54.6875 
L 18.109375 54.6875 
L 18.109375 46.1875 
Q 20.953125 51.171875 25.484375 53.578125 
Q 30.03125 56 36.53125 56 
Q 37.453125 56 38.578125 55.875 
Q 39.703125 55.765625 41.0625 55.515625 
z
" id="DejaVuSans-114"/>
        <path d="M 56.203125 29.59375 
L 56.203125 25.203125 
L 14.890625 25.203125 
Q 15.484375 15.921875 20.484375 11.0625 
Q 25.484375 6.203125 34.421875 6.203125 
Q 39.59375 6.203125 44.453125 7.46875 
Q 49.3125 8.734375 54.109375 11.28125 
L 54.109375 2.78125 
Q 49.265625 0.734375 44.1875 -0.34375 
Q 39.109375 -1.421875 33.890625 -1.421875 
Q 20.796875 -1.421875 13.15625 6.1875 
Q 5.515625 13.8125 5.515625 26.8125 
Q 5.515625 40.234375 12.765625 48.109375 
Q 20.015625 56 32.328125 56 
Q 43.359375 56 49.78125 48.890625 
Q 56.203125 41.796875 56.203125 29.59375 
z
M 47.21875 32.234375 
Q 47.125 39.59375 43.09375 43.984375 
Q 39.0625 48.390625 32.421875 48.390625 
Q 24.90625 48.390625 20.390625 44.140625 
Q 15.875 39.890625 15.1875 32.171875 
z
" id="DejaVuSans-101"/>
        <path d="M 54.890625 33.015625 
L 54.890625 0 
L 45.90625 0 
L 45.90625 32.71875 
Q 45.90625 40.484375 42.875 44.328125 
Q 39.84375 48.1875 33.796875 48.1875 
Q 26.515625 48.1875 22.3125 43.546875 
Q 18.109375 38.921875 18.109375 30.90625 
L 18.109375 0 
L 9.078125 0 
L 9.078125 54.6875 
L 18.109375 54.6875 
L 18.109375 46.1875 
Q 21.34375 51.125 25.703125 53.5625 
Q 30.078125 56 35.796875 56 
Q 45.21875 56 50.046875 50.171875 
Q 54.890625 44.34375 54.890625 33.015625 
z
" id="DejaVuSans-110"/>
        <path d="M 30.609375 48.390625 
Q 23.390625 48.390625 19.1875 42.75 
Q 14.984375 37.109375 14.984375 27.296875 
Q 14.984375 17.484375 19.15625 11.84375 
Q 23.34375 6.203125 30.609375 6.203125 
Q 37.796875 6.203125 41.984375 11.859375 
Q 46.1875 17.53125 46.1875 27.296875 
Q 46.1875 37.015625 41.984375 42.703125 
Q 37.796875 48.390625 30.609375 48.390625 
z
M 30.609375 56 
Q 42.328125 56 49.015625 48.375 
Q 55.71875 40.765625 55.71875 27.296875 
Q 55.71875 13.875 49.015625 6.21875 
Q 42.328125 -1.421875 30.609375 -1.421875 
Q 18.84375 -1.421875 12.171875 6.21875 
Q 5.515625 13.875 5.515625 27.296875 
Q 5.515625 40.765625 12.171875 48.375 
Q 18.84375 56 30.609375 56 
z
" id="DejaVuSans-111"/>
       </defs>
       <use xlink:href="#DejaVuSans-107"/>
       <use x="57.910156" xlink:href="#DejaVuSans-105"/>
       <use x="85.693359" xlink:href="#DejaVuSans-114"/>
       <use x="124.556641" xlink:href="#DejaVuSans-101"/>
       <use x="186.080078" xlink:href="#DejaVuSans-110"/>
       <use x="249.458984" xlink:href="#DejaVuSans-101"/>
       <use x="310.982422" xlink:href="#DejaVuSans-110"/>
       <use x="374.361328" xlink:href="#DejaVuSans-107"/>
       <use x="428.646484" xlink:href="#DejaVuSans-111"/>
      </g>
     </g>
    </g>
    <g id="xtick_2">
     <g id="line2d_2">
      <g>
       <use style="stroke:#000000;stroke-width:0.8;" x="193.610625" xlink:href="#mab62b38b1b" y="288.430125"/>
      </g>
     </g>
     <g id="text_2">
      <!-- aflplusplus -->
      <g transform="translate(146.001618 328.897284)rotate(-30)scale(0.1 -0.1)">
       <defs>
        <path d="M 34.28125 27.484375 
Q 23.390625 27.484375 19.1875 25 
Q 14.984375 22.515625 14.984375 16.5 
Q 14.984375 11.71875 18.140625 8.90625 
Q 21.296875 6.109375 26.703125 6.109375 
Q 34.1875 6.109375 38.703125 11.40625 
Q 43.21875 16.703125 43.21875 25.484375 
L 43.21875 27.484375 
z
M 52.203125 31.203125 
L 52.203125 0 
L 43.21875 0 
L 43.21875 8.296875 
Q 40.140625 3.328125 35.546875 0.953125 
Q 30.953125 -1.421875 24.3125 -1.421875 
Q 15.921875 -1.421875 10.953125 3.296875 
Q 6 8.015625 6 15.921875 
Q 6 25.140625 12.171875 29.828125 
Q 18.359375 34.515625 30.609375 34.515625 
L 43.21875 34.515625 
L 43.21875 35.40625 
Q 43.21875 41.609375 39.140625 45 
Q 35.0625 48.390625 27.6875 48.390625 
Q 23 48.390625 18.546875 47.265625 
Q 14.109375 46.140625 10.015625 43.890625 
L 10.015625 52.203125 
Q 14.9375 54.109375 19.578125 55.046875 
Q 24.21875 56 28.609375 56 
Q 40.484375 56 46.34375 49.84375 
Q 52.203125 43.703125 52.203125 31.203125 
z
" id="DejaVuSans-97"/>
        <path d="M 37.109375 75.984375 
L 37.109375 68.5 
L 28.515625 68.5 
Q 23.6875 68.5 21.796875 66.546875 
Q 19.921875 64.59375 19.921875 59.515625 
L 19.921875 54.6875 
L 34.71875 54.6875 
L 34.71875 47.703125 
L 19.921875 47.703125 
L 19.921875 0 
L 10.890625 0 
L 10.890625 47.703125 
L 2.296875 47.703125 
L 2.296875 54.6875 
L 10.890625 54.6875 
L 10.890625 58.5 
Q 10.890625 67.625 15.140625 71.796875 
Q 19.390625 75.984375 28.609375 75.984375 
z
" id="DejaVuSans-102"/>
        <path d="M 9.421875 75.984375 
L 18.40625 75.984375 
L 18.40625 0 
L 9.421875 0 
z
" id="DejaVuSans-108"/>
        <path d="M 18.109375 8.203125 
L 18.109375 -20.796875 
L 9.078125 -20.796875 
L 9.078125 54.6875 
L 18.109375 54.6875 
L 18.109375 46.390625 
Q 20.953125 51.265625 25.265625 53.625 
Q 29.59375 56 35.59375 56 
Q 45.5625 56 51.78125 48.09375 
Q 58.015625 40.1875 58.015625 27.296875 
Q 58.015625 14.40625 51.78125 6.484375 
Q 45.5625 -1.421875 35.59375 -1.421875 
Q 29.59375 -1.421875 25.265625 0.953125 
Q 20.953125 3.328125 18.109375 8.203125 
z
M 48.6875 27.296875 
Q 48.6875 37.203125 44.609375 42.84375 
Q 40.53125 48.484375 33.40625 48.484375 
Q 26.265625 48.484375 22.1875 42.84375 
Q 18.109375 37.203125 18.109375 27.296875 
Q 18.109375 17.390625 22.1875 11.75 
Q 26.265625 6.109375 33.40625 6.109375 
Q 40.53125 6.109375 44.609375 11.75 
Q 48.6875 17.390625 48.6875 27.296875 
z
" id="DejaVuSans-112"/>
        <path d="M 8.5 21.578125 
L 8.5 54.6875 
L 17.484375 54.6875 
L 17.484375 21.921875 
Q 17.484375 14.15625 20.5 10.265625 
Q 23.53125 6.390625 29.59375 6.390625 
Q 36.859375 6.390625 41.078125 11.03125 
Q 45.3125 15.671875 45.3125 23.6875 
L 45.3125 54.6875 
L 54.296875 54.6875 
L 54.296875 0 
L 45.3125 0 
L 45.3125 8.40625 
Q 42.046875 3.421875 37.71875 1 
Q 33.40625 -1.421875 27.6875 -1.421875 
Q 18.265625 -1.421875 13.375 4.4375 
Q 8.5 10.296875 8.5 21.578125 
z
M 31.109375 56 
z
" id="DejaVuSans-117"/>
        <path d="M 44.28125 53.078125 
L 44.28125 44.578125 
Q 40.484375 46.53125 36.375 47.5 
Q 32.28125 48.484375 27.875 48.484375 
Q 21.1875 48.484375 17.84375 46.4375 
Q 14.5 44.390625 14.5 40.28125 
Q 14.5 37.15625 16.890625 35.375 
Q 19.28125 33.59375 26.515625 31.984375 
L 29.59375 31.296875 
Q 39.15625 29.25 43.1875 25.515625 
Q 47.21875 21.78125 47.21875 15.09375 
Q 47.21875 7.46875 41.1875 3.015625 
Q 35.15625 -1.421875 24.609375 -1.421875 
Q 20.21875 -1.421875 15.453125 -0.5625 
Q 10.6875 0.296875 5.421875 2 
L 5.421875 11.28125 
Q 10.40625 8.6875 15.234375 7.390625 
Q 20.0625 6.109375 24.8125 6.109375 
Q 31.15625 6.109375 34.5625 8.28125 
Q 37.984375 10.453125 37.984375 14.40625 
Q 37.984375 18.0625 35.515625 20.015625 
Q 33.0625 21.96875 24.703125 23.78125 
L 21.578125 24.515625 
Q 13.234375 26.265625 9.515625 29.90625 
Q 5.8125 33.546875 5.8125 39.890625 
Q 5.8125 47.609375 11.28125 51.796875 
Q 16.75 56 26.8125 56 
Q 31.78125 56 36.171875 55.265625 
Q 40.578125 54.546875 44.28125 53.078125 
z
" id="DejaVuSans-115"/>
       </defs>
       <use xlink:href="#DejaVuSans-97"/>
       <use x="61.279297" xlink:href="#DejaVuSans-102"/>
       <use x="96.484375" xlink:href="#DejaVuSans-108"/>
       <use x="124.267578" xlink:href="#DejaVuSans-112"/>
       <use x="187.744141" xlink:href="#DejaVuSans-108"/>
       <use x="215.527344" xlink:href="#DejaVuSans-117"/>
       <use x="278.90625" xlink:href="#DejaVuSans-115"/>
       <use x="331.005859" xlink:href="#DejaVuSans-112"/>
       <use x="394.482422" xlink:href="#DejaVuSans-108"/>
       <use x="422.265625" xlink:href="#DejaVuSans-117"/>
       <use x="485.644531" xlink:href="#DejaVuSans-115"/>
      </g>
     </g>
    </g>
    <g id="xtick_3">
     <g id="line2d_3">
      <g>
       <use style="stroke:#000000;stroke-width:0.8;" x="282.890625" xlink:href="#mab62b38b1b" y="288.430125"/>
      </g>
     </g>
     <g id="text_3">
      <!-- honggfuzz -->
      <g transform="translate(236.951424 327.933221)rotate(-30)scale(0.1 -0.1)">
       <defs>
        <path d="M 54.890625 33.015625 
L 54.890625 0 
L 45.90625 0 
L 45.90625 32.71875 
Q 45.90625 40.484375 42.875 44.328125 
Q 39.84375 48.1875 33.796875 48.1875 
Q 26.515625 48.1875 22.3125 43.546875 
Q 18.109375 38.921875 18.109375 30.90625 
L 18.109375 0 
L 9.078125 0 
L 9.078125 75.984375 
L 18.109375 75.984375 
L 18.109375 46.1875 
Q 21.34375 51.125 25.703125 53.5625 
Q 30.078125 56 35.796875 56 
Q 45.21875 56 50.046875 50.171875 
Q 54.890625 44.34375 54.890625 33.015625 
z
" id="DejaVuSans-104"/>
        <path d="M 45.40625 27.984375 
Q 45.40625 37.75 41.375 43.109375 
Q 37.359375 48.484375 30.078125 48.484375 
Q 22.859375 48.484375 18.828125 43.109375 
Q 14.796875 37.75 14.796875 27.984375 
Q 14.796875 18.265625 18.828125 12.890625 
Q 22.859375 7.515625 30.078125 7.515625 
Q 37.359375 7.515625 41.375 12.890625 
Q 45.40625 18.265625 45.40625 27.984375 
z
M 54.390625 6.78125 
Q 54.390625 -7.171875 48.1875 -13.984375 
Q 42 -20.796875 29.203125 -20.796875 
Q 24.46875 -20.796875 20.265625 -20.09375 
Q 16.0625 -19.390625 12.109375 -17.921875 
L 12.109375 -9.1875 
Q 16.0625 -11.328125 19.921875 -12.34375 
Q 23.78125 -13.375 27.78125 -13.375 
Q 36.625 -13.375 41.015625 -8.765625 
Q 45.40625 -4.15625 45.40625 5.171875 
L 45.40625 9.625 
Q 42.625 4.78125 38.28125 2.390625 
Q 33.9375 0 27.875 0 
Q 17.828125 0 11.671875 7.65625 
Q 5.515625 15.328125 5.515625 27.984375 
Q 5.515625 40.671875 11.671875 48.328125 
Q 17.828125 56 27.875 56 
Q 33.9375 56 38.28125 53.609375 
Q 42.625 51.21875 45.40625 46.390625 
L 45.40625 54.6875 
L 54.390625 54.6875 
z
" id="DejaVuSans-103"/>
        <path d="M 5.515625 54.6875 
L 48.1875 54.6875 
L 48.1875 46.484375 
L 14.40625 7.171875 
L 48.1875 7.171875 
L 48.1875 0 
L 4.296875 0 
L 4.296875 8.203125 
L 38.09375 47.515625 
L 5.515625 47.515625 
z
" id="DejaVuSans-122"/>
       </defs>
       <use xlink:href="#DejaVuSans-104"/>
       <use x="63.378906" xlink:href="#DejaVuSans-111"/>
       <use x="124.560547" xlink:href="#DejaVuSans-110"/>
       <use x="187.939453" xlink:href="#DejaVuSans-103"/>
       <use x="251.416016" xlink:href="#DejaVuSans-103"/>
       <use x="314.892578" xlink:href="#DejaVuSans-102"/>
       <use x="350.097656" xlink:href="#DejaVuSans-117"/>
       <use x="413.476562" xlink:href="#DejaVuSans-122"/>
       <use x="465.966797" xlink:href="#DejaVuSans-122"/>
      </g>
     </g>
    </g>
    <g id="xtick_4">
     <g id="line2d_4">
      <g>
       <use style="stroke:#000000;stroke-width:0.8;" x="372.170625" xlink:href="#mab62b38b1b" y="288.430125"/>
      </g>
     </g>
     <g id="text_4">
      <!-- weizz_qemu -->
      <g transform="translate(318.003143 332.603534)rotate(-30)scale(0.1 -0.1)">
       <defs>
        <path d="M 4.203125 54.6875 
L 13.1875 54.6875 
L 24.421875 12.015625 
L 35.59375 54.6875 
L 46.1875 54.6875 
L 57.421875 12.015625 
L 68.609375 54.6875 
L 77.59375 54.6875 
L 63.28125 0 
L 52.6875 0 
L 40.921875 44.828125 
L 29.109375 0 
L 18.5 0 
z
" id="DejaVuSans-119"/>
        <path d="M 50.984375 -16.609375 
L 50.984375 -23.578125 
L -0.984375 -23.578125 
L -0.984375 -16.609375 
z
" id="DejaVuSans-95"/>
        <path d="M 14.796875 27.296875 
Q 14.796875 17.390625 18.875 11.75 
Q 22.953125 6.109375 30.078125 6.109375 
Q 37.203125 6.109375 41.296875 11.75 
Q 45.40625 17.390625 45.40625 27.296875 
Q 45.40625 37.203125 41.296875 42.84375 
Q 37.203125 48.484375 30.078125 48.484375 
Q 22.953125 48.484375 18.875 42.84375 
Q 14.796875 37.203125 14.796875 27.296875 
z
M 45.40625 8.203125 
Q 42.578125 3.328125 38.25 0.953125 
Q 33.9375 -1.421875 27.875 -1.421875 
Q 17.96875 -1.421875 11.734375 6.484375 
Q 5.515625 14.40625 5.515625 27.296875 
Q 5.515625 40.1875 11.734375 48.09375 
Q 17.96875 56 27.875 56 
Q 33.9375 56 38.25 53.625 
Q 42.578125 51.265625 45.40625 46.390625 
L 45.40625 54.6875 
L 54.390625 54.6875 
L 54.390625 -20.796875 
L 45.40625 -20.796875 
z
" id="DejaVuSans-113"/>
        <path d="M 52 44.1875 
Q 55.375 50.25 60.0625 53.125 
Q 64.75 56 71.09375 56 
Q 79.640625 56 84.28125 50.015625 
Q 88.921875 44.046875 88.921875 33.015625 
L 88.921875 0 
L 79.890625 0 
L 79.890625 32.71875 
Q 79.890625 40.578125 77.09375 44.375 
Q 74.3125 48.1875 68.609375 48.1875 
Q 61.625 48.1875 57.5625 43.546875 
Q 53.515625 38.921875 53.515625 30.90625 
L 53.515625 0 
L 44.484375 0 
L 44.484375 32.71875 
Q 44.484375 40.625 41.703125 44.40625 
Q 38.921875 48.1875 33.109375 48.1875 
Q 26.21875 48.1875 22.15625 43.53125 
Q 18.109375 38.875 18.109375 30.90625 
L 18.109375 0 
L 9.078125 0 
L 9.078125 54.6875 
L 18.109375 54.6875 
L 18.109375 46.1875 
Q 21.1875 51.21875 25.484375 53.609375 
Q 29.78125 56 35.6875 56 
Q 41.65625 56 45.828125 52.96875 
Q 50 49.953125 52 44.1875 
z
" id="DejaVuSans-109"/>
       </defs>
       <use xlink:href="#DejaVuSans-119"/>
       <use x="81.787109" xlink:href="#DejaVuSans-101"/>
       <use x="143.310547" xlink:href="#DejaVuSans-105"/>
       <use x="171.09375" xlink:href="#DejaVuSans-122"/>
       <use x="223.583984" xlink:href="#DejaVuSans-122"/>
       <use x="276.074219" xlink:href="#DejaVuSans-95"/>
       <use x="326.074219" xlink:href="#DejaVuSans-113"/>
       <use x="389.550781" xlink:href="#DejaVuSans-101"/>
       <use x="451.074219" xlink:href="#DejaVuSans-109"/>
       <use x="548.486328" xlink:href="#DejaVuSans-117"/>
      </g>
     </g>
    </g>
    <g id="text_5">
     <!-- Fuzzer (highest median coverage on the left) -->
     <g transform="translate(125.632656 346.243897)scale(0.1 -0.1)">
      <defs>
       <path d="M 9.8125 72.90625 
L 51.703125 72.90625 
L 51.703125 64.59375 
L 19.671875 64.59375 
L 19.671875 43.109375 
L 48.578125 43.109375 
L 48.578125 34.8125 
L 19.671875 34.8125 
L 19.671875 0 
L 9.8125 0 
z
" id="DejaVuSans-70"/>
       <path id="DejaVuSans-32"/>
       <path d="M 31 75.875 
Q 24.46875 64.65625 21.28125 53.65625 
Q 18.109375 42.671875 18.109375 31.390625 
Q 18.109375 20.125 21.3125 9.0625 
Q 24.515625 -2 31 -13.1875 
L 23.1875 -13.1875 
Q 15.875 -1.703125 12.234375 9.375 
Q 8.59375 20.453125 8.59375 31.390625 
Q 8.59375 42.28125 12.203125 53.3125 
Q 15.828125 64.359375 23.1875 75.875 
z
" id="DejaVuSans-40"/>
       <path d="M 18.3125 70.21875 
L 18.3125 54.6875 
L 36.8125 54.6875 
L 36.8125 47.703125 
L 18.3125 47.703125 
L 18.3125 18.015625 
Q 18.3125 11.328125 20.140625 9.421875 
Q 21.96875 7.515625 27.59375 7.515625 
L 36.8125 7.515625 
L 36.8125 0 
L 27.59375 0 
Q 17.1875 0 13.234375 3.875 
Q 9.28125 7.765625 9.28125 18.015625 
L 9.28125 47.703125 
L 2.6875 47.703125 
L 2.6875 54.6875 
L 9.28125 54.6875 
L 9.28125 70.21875 
z
" id="DejaVuSans-116"/>
       <path d="M 45.40625 46.390625 
L 45.40625 75.984375 
L 54.390625 75.984375 
L 54.390625 0 
L 45.40625 0 
L 45.40625 8.203125 
Q 42.578125 3.328125 38.25 0.953125 
Q 33.9375 -1.421875 27.875 -1.421875 
Q 17.96875 -1.421875 11.734375 6.484375 
Q 5.515625 14.40625 5.515625 27.296875 
Q 5.515625 40.1875 11.734375 48.09375 
Q 17.96875 56 27.875 56 
Q 33.9375 56 38.25 53.625 
Q 42.578125 51.265625 45.40625 46.390625 
z
M 14.796875 27.296875 
Q 14.796875 17.390625 18.875 11.75 
Q 22.953125 6.109375 30.078125 6.109375 
Q 37.203125 6.109375 41.296875 11.75 
Q 45.40625 17.390625 45.40625 27.296875 
Q 45.40625 37.203125 41.296875 42.84375 
Q 37.203125 48.484375 30.078125 48.484375 
Q 22.953125 48.484375 18.875 42.84375 
Q 14.796875 37.203125 14.796875 27.296875 
z
" id="DejaVuSans-100"/>
       <path d="M 48.78125 52.59375 
L 48.78125 44.1875 
Q 44.96875 46.296875 41.140625 47.34375 
Q 37.3125 48.390625 33.40625 48.390625 
Q 24.65625 48.390625 19.8125 42.84375 
Q 14.984375 37.3125 14.984375 27.296875 
Q 14.984375 17.28125 19.8125 11.734375 
Q 24.65625 6.203125 33.40625 6.203125 
Q 37.3125 6.203125 41.140625 7.25 
Q 44.96875 8.296875 48.78125 10.40625 
L 48.78125 2.09375 
Q 45.015625 0.34375 40.984375 -0.53125 
Q 36.96875 -1.421875 32.421875 -1.421875 
Q 20.0625 -1.421875 12.78125 6.34375 
Q 5.515625 14.109375 5.515625 27.296875 
Q 5.515625 40.671875 12.859375 48.328125 
Q 20.21875 56 33.015625 56 
Q 37.15625 56 41.109375 55.140625 
Q 45.0625 54.296875 48.78125 52.59375 
z
" id="DejaVuSans-99"/>
       <path d="M 2.984375 54.6875 
L 12.5 54.6875 
L 29.59375 8.796875 
L 46.6875 54.6875 
L 56.203125 54.6875 
L 35.6875 0 
L 23.484375 0 
z
" id="DejaVuSans-118"/>
       <path d="M 8.015625 75.875 
L 15.828125 75.875 
Q 23.140625 64.359375 26.78125 53.3125 
Q 30.421875 42.28125 30.421875 31.390625 
Q 30.421875 20.453125 26.78125 9.375 
Q 23.140625 -1.703125 15.828125 -13.1875 
L 8.015625 -13.1875 
Q 14.5 -2 17.703125 9.0625 
Q 20.90625 20.125 20.90625 31.390625 
Q 20.90625 42.671875 17.703125 53.65625 
Q 14.5 64.65625 8.015625 75.875 
z
" id="DejaVuSans-41"/>
      </defs>
      <use xlink:href="#DejaVuSans-70"/>
      <use x="52.019531" xlink:href="#DejaVuSans-117"/>
      <use x="115.398438" xlink:href="#DejaVuSans-122"/>
      <use x="167.888672" xlink:href="#DejaVuSans-122"/>
      <use x="220.378906" xlink:href="#DejaVuSans-101"/>
      <use x="281.902344" xlink:href="#DejaVuSans-114"/>
      <use x="323.015625" xlink:href="#DejaVuSans-32"/>
      <use x="354.802734" xlink:href="#DejaVuSans-40"/>
      <use x="393.816406" xlink:href="#DejaVuSans-104"/>
      <use x="457.195312" xlink:href="#DejaVuSans-105"/>
      <use x="484.978516" xlink:href="#DejaVuSans-103"/>
      <use x="548.455078" xlink:href="#DejaVuSans-104"/>
      <use x="611.833984" xlink:href="#DejaVuSans-101"/>
      <use x="673.357422" xlink:href="#DejaVuSans-115"/>
      <use x="725.457031" xlink:href="#DejaVuSans-116"/>
      <use x="764.666016" xlink:href="#DejaVuSans-32"/>
      <use x="796.453125" xlink:href="#DejaVuSans-109"/>
      <use x="893.865234" xlink:href="#DejaVuSans-101"/>
      <use x="955.388672" xlink:href="#DejaVuSans-100"/>
      <use x="1018.865234" xlink:href="#DejaVuSans-105"/>
      <use x="1046.648438" xlink:href="#DejaVuSans-97"/>
      <use x="1107.927734" xlink:href="#DejaVuSans-110"/>
      <use x="1171.306641" xlink:href="#DejaVuSans-32"/>
      <use x="1203.09375" xlink:href="#DejaVuSans-99"/>
      <use x="1258.074219" xlink:href="#DejaVuSans-111"/>
      <use x="1319.255859" xlink:href="#DejaVuSans-118"/>
      <use x="1378.435547" xlink:href="#DejaVuSans-101"/>
      <use x="1439.958984" xlink:href="#DejaVuSans-114"/>
      <use x="1481.072266" xlink:href="#DejaVuSans-97"/>
      <use x="1542.351562" xlink:href="#DejaVuSans-103"/>
      <use x="1605.828125" xlink:href="#DejaVuSans-101"/>
      <use x="1667.351562" xlink:href="#DejaVuSans-32"/>
      <use x="1699.138672" xlink:href="#DejaVuSans-111"/>
      <use x="1760.320312" xlink:href="#DejaVuSans-110"/>
      <use x="1823.699219" xlink:href="#DejaVuSans-32"/>
      <use x="1855.486328" xlink:href="#DejaVuSans-116"/>
      <use x="1894.695312" xlink:href="#DejaVuSans-104"/>
      <use x="1958.074219" xlink:href="#DejaVuSans-101"/>
      <use x="2019.597656" xlink:href="#DejaVuSans-32"/>
      <use x="2051.384766" xlink:href="#DejaVuSans-108"/>
      <use x="2079.167969" xlink:href="#DejaVuSans-101"/>
      <use x="2140.691406" xlink:href="#DejaVuSans-102"/>
      <use x="2174.146484" xlink:href="#DejaVuSans-116"/>
      <use x="2213.355469" xlink:href="#DejaVuSans-41"/>
     </g>
    </g>
   </g>
   <g id="matplotlib.axis_2">
    <g id="ytick_1">
     <g id="line2d_5">
      <defs>
       <path d="M 0 0 
L -3.5 0 
" id="mb455395834" style="stroke:#000000;stroke-width:0.8;"/>
      </defs>
      <g>
       <use style="stroke:#000000;stroke-width:0.8;" x="59.690625" xlink:href="#mb455395834" y="263.848149"/>
      </g>
     </g>
     <g id="text_6">
      <!-- 6000 -->
      <g transform="translate(27.240625 267.647368)scale(0.1 -0.1)">
       <defs>
        <path d="M 33.015625 40.375 
Q 26.375 40.375 22.484375 35.828125 
Q 18.609375 31.296875 18.609375 23.390625 
Q 18.609375 15.53125 22.484375 10.953125 
Q 26.375 6.390625 33.015625 6.390625 
Q 39.65625 6.390625 43.53125 10.953125 
Q 47.40625 15.53125 47.40625 23.390625 
Q 47.40625 31.296875 43.53125 35.828125 
Q 39.65625 40.375 33.015625 40.375 
z
M 52.59375 71.296875 
L 52.59375 62.3125 
Q 48.875 64.0625 45.09375 64.984375 
Q 41.3125 65.921875 37.59375 65.921875 
Q 27.828125 65.921875 22.671875 59.328125 
Q 17.53125 52.734375 16.796875 39.40625 
Q 19.671875 43.65625 24.015625 45.921875 
Q 28.375 48.1875 33.59375 48.1875 
Q 44.578125 48.1875 50.953125 41.515625 
Q 57.328125 34.859375 57.328125 23.390625 
Q 57.328125 12.15625 50.6875 5.359375 
Q 44.046875 -1.421875 33.015625 -1.421875 
Q 20.359375 -1.421875 13.671875 8.265625 
Q 6.984375 17.96875 6.984375 36.375 
Q 6.984375 53.65625 15.1875 63.9375 
Q 23.390625 74.21875 37.203125 74.21875 
Q 40.921875 74.21875 44.703125 73.484375 
Q 48.484375 72.75 52.59375 71.296875 
z
" id="DejaVuSans-54"/>
        <path d="M 31.78125 66.40625 
Q 24.171875 66.40625 20.328125 58.90625 
Q 16.5 51.421875 16.5 36.375 
Q 16.5 21.390625 20.328125 13.890625 
Q 24.171875 6.390625 31.78125 6.390625 
Q 39.453125 6.390625 43.28125 13.890625 
Q 47.125 21.390625 47.125 36.375 
Q 47.125 51.421875 43.28125 58.90625 
Q 39.453125 66.40625 31.78125 66.40625 
z
M 31.78125 74.21875 
Q 44.046875 74.21875 50.515625 64.515625 
Q 56.984375 54.828125 56.984375 36.375 
Q 56.984375 17.96875 50.515625 8.265625 
Q 44.046875 -1.421875 31.78125 -1.421875 
Q 19.53125 -1.421875 13.0625 8.265625 
Q 6.59375 17.96875 6.59375 36.375 
Q 6.59375 54.828125 13.0625 64.515625 
Q 19.53125 74.21875 31.78125 74.21875 
z
" id="DejaVuSans-48"/>
       </defs>
       <use xlink:href="#DejaVuSans-54"/>
       <use x="63.623047" xlink:href="#DejaVuSans-48"/>
       <use x="127.246094" xlink:href="#DejaVuSans-48"/>
       <use x="190.869141" xlink:href="#DejaVuSans-48"/>
      </g>
     </g>
    </g>
    <g id="ytick_2">
     <g id="line2d_6">
      <g>
       <use style="stroke:#000000;stroke-width:0.8;" x="59.690625" xlink:href="#mb455395834" y="227.810268"/>
      </g>
     </g>
     <g id="text_7">
      <!-- 7000 -->
      <g transform="translate(27.240625 231.609486)scale(0.1 -0.1)">
       <defs>
        <path d="M 8.203125 72.90625 
L 55.078125 72.90625 
L 55.078125 68.703125 
L 28.609375 0 
L 18.3125 0 
L 43.21875 64.59375 
L 8.203125 64.59375 
z
" id="DejaVuSans-55"/>
       </defs>
       <use xlink:href="#DejaVuSans-55"/>
       <use x="63.623047" xlink:href="#DejaVuSans-48"/>
       <use x="127.246094" xlink:href="#DejaVuSans-48"/>
       <use x="190.869141" xlink:href="#DejaVuSans-48"/>
      </g>
     </g>
    </g>
    <g id="ytick_3">
     <g id="line2d_7">
      <g>
       <use style="stroke:#000000;stroke-width:0.8;" x="59.690625" xlink:href="#mb455395834" y="191.772386"/>
      </g>
     </g>
     <g id="text_8">
      <!-- 8000 -->
      <g transform="translate(27.240625 195.571604)scale(0.1 -0.1)">
       <defs>
        <path d="M 31.78125 34.625 
Q 24.75 34.625 20.71875 30.859375 
Q 16.703125 27.09375 16.703125 20.515625 
Q 16.703125 13.921875 20.71875 10.15625 
Q 24.75 6.390625 31.78125 6.390625 
Q 38.8125 6.390625 42.859375 10.171875 
Q 46.921875 13.96875 46.921875 20.515625 
Q 46.921875 27.09375 42.890625 30.859375 
Q 38.875 34.625 31.78125 34.625 
z
M 21.921875 38.8125 
Q 15.578125 40.375 12.03125 44.71875 
Q 8.5 49.078125 8.5 55.328125 
Q 8.5 64.0625 14.71875 69.140625 
Q 20.953125 74.21875 31.78125 74.21875 
Q 42.671875 74.21875 48.875 69.140625 
Q 55.078125 64.0625 55.078125 55.328125 
Q 55.078125 49.078125 51.53125 44.71875 
Q 48 40.375 41.703125 38.8125 
Q 48.828125 37.15625 52.796875 32.3125 
Q 56.78125 27.484375 56.78125 20.515625 
Q 56.78125 9.90625 50.3125 4.234375 
Q 43.84375 -1.421875 31.78125 -1.421875 
Q 19.734375 -1.421875 13.25 4.234375 
Q 6.78125 9.90625 6.78125 20.515625 
Q 6.78125 27.484375 10.78125 32.3125 
Q 14.796875 37.15625 21.921875 38.8125 
z
M 18.3125 54.390625 
Q 18.3125 48.734375 21.84375 45.5625 
Q 25.390625 42.390625 31.78125 42.390625 
Q 38.140625 42.390625 41.71875 45.5625 
Q 45.3125 48.734375 45.3125 54.390625 
Q 45.3125 60.0625 41.71875 63.234375 
Q 38.140625 66.40625 31.78125 66.40625 
Q 25.390625 66.40625 21.84375 63.234375 
Q 18.3125 60.0625 18.3125 54.390625 
z
" id="DejaVuSans-56"/>
       </defs>
       <use xlink:href="#DejaVuSans-56"/>
       <use x="63.623047" xlink:href="#DejaVuSans-48"/>
       <use x="127.246094" xlink:href="#DejaVuSans-48"/>
       <use x="190.869141" xlink:href="#DejaVuSans-48"/>
      </g>
     </g>
    </g>
    <g id="ytick_4">
     <g id="line2d_8">
      <g>
       <use style="stroke:#000000;stroke-width:0.8;" x="59.690625" xlink:href="#mb455395834" y="155.734504"/>
      </g>
     </g>
     <g id="text_9">
      <!-- 9000 -->
      <g transform="translate(27.240625 159.533723)scale(0.1 -0.1)">
       <defs>
        <path d="M 10.984375 1.515625 
L 10.984375 10.5 
Q 14.703125 8.734375 18.5 7.8125 
Q 22.3125 6.890625 25.984375 6.890625 
Q 35.75 6.890625 40.890625 13.453125 
Q 46.046875 20.015625 46.78125 33.40625 
Q 43.953125 29.203125 39.59375 26.953125 
Q 35.25 24.703125 29.984375 24.703125 
Q 19.046875 24.703125 12.671875 31.3125 
Q 6.296875 37.9375 6.296875 49.421875 
Q 6.296875 60.640625 12.9375 67.421875 
Q 19.578125 74.21875 30.609375 74.21875 
Q 43.265625 74.21875 49.921875 64.515625 
Q 56.59375 54.828125 56.59375 36.375 
Q 56.59375 19.140625 48.40625 8.859375 
Q 40.234375 -1.421875 26.421875 -1.421875 
Q 22.703125 -1.421875 18.890625 -0.6875 
Q 15.09375 0.046875 10.984375 1.515625 
z
M 30.609375 32.421875 
Q 37.25 32.421875 41.125 36.953125 
Q 45.015625 41.5 45.015625 49.421875 
Q 45.015625 57.28125 41.125 61.84375 
Q 37.25 66.40625 30.609375 66.40625 
Q 23.96875 66.40625 20.09375 61.84375 
Q 16.21875 57.28125 16.21875 49.421875 
Q 16.21875 41.5 20.09375 36.953125 
Q 23.96875 32.421875 30.609375 32.421875 
z
" id="DejaVuSans-57"/>
       </defs>
       <use xlink:href="#DejaVuSans-57"/>
       <use x="63.623047" xlink:href="#DejaVuSans-48"/>
       <use x="127.246094" xlink:href="#DejaVuSans-48"/>
       <use x="190.869141" xlink:href="#DejaVuSans-48"/>
      </g>
     </g>
    </g>
    <g id="ytick_5">
     <g id="line2d_9">
      <g>
       <use style="stroke:#000000;stroke-width:0.8;" x="59.690625" xlink:href="#mb455395834" y="119.696622"/>
      </g>
     </g>
     <g id="text_10">
      <!-- 10000 -->
      <g transform="translate(20.878125 123.495841)scale(0.1 -0.1)">
       <defs>
        <path d="M 12.40625 8.296875 
L 28.515625 8.296875 
L 28.515625 63.921875 
L 10.984375 60.40625 
L 10.984375 69.390625 
L 28.421875 72.90625 
L 38.28125 72.90625 
L 38.28125 8.296875 
L 54.390625 8.296875 
L 54.390625 0 
L 12.40625 0 
z
" id="DejaVuSans-49"/>
       </defs>
       <use xlink:href="#DejaVuSans-49"/>
       <use x="63.623047" xlink:href="#DejaVuSans-48"/>
       <use x="127.246094" xlink:href="#DejaVuSans-48"/>
       <use x="190.869141" xlink:href="#DejaVuSans-48"/>
       <use x="254.492188" xlink:href="#DejaVuSans-48"/>
      </g>
     </g>
    </g>
    <g id="ytick_6">
     <g id="line2d_10">
      <g>
       <use style="stroke:#000000;stroke-width:0.8;" x="59.690625" xlink:href="#mb455395834" y="83.65874"/>
      </g>
     </g>
     <g id="text_11">
      <!-- 11000 -->
      <g transform="translate(20.878125 87.457959)scale(0.1 -0.1)">
       <use xlink:href="#DejaVuSans-49"/>
       <use x="63.623047" xlink:href="#DejaVuSans-49"/>
       <use x="127.246094" xlink:href="#DejaVuSans-48"/>
       <use x="190.869141" xlink:href="#DejaVuSans-48"/>
       <use x="254.492188" xlink:href="#DejaVuSans-48"/>
      </g>
     </g>
    </g>
    <g id="ytick_7">
     <g id="line2d_11">
      <g>
       <use style="stroke:#000000;stroke-width:0.8;" x="59.690625" xlink:href="#mb455395834" y="47.620858"/>
      </g>
     </g>
     <g id="text_12">
      <!-- 12000 -->
      <g transform="translate(20.878125 51.420077)scale(0.1 -0.1)">
       <defs>
        <path d="M 19.1875 8.296875 
L 53.609375 8.296875 
L 53.609375 0 
L 7.328125 0 
L 7.328125 8.296875 
Q 12.9375 14.109375 22.625 23.890625 
Q 32.328125 33.6875 34.8125 36.53125 
Q 39.546875 41.84375 41.421875 45.53125 
Q 43.3125 49.21875 43.3125 52.78125 
Q 43.3125 58.59375 39.234375 62.25 
Q 35.15625 65.921875 28.609375 65.921875 
Q 23.96875 65.921875 18.8125 64.3125 
Q 13.671875 62.703125 7.8125 59.421875 
L 7.8125 69.390625 
Q 13.765625 71.78125 18.9375 73 
Q 24.125 74.21875 28.421875 74.21875 
Q 39.75 74.21875 46.484375 68.546875 
Q 53.21875 62.890625 53.21875 53.421875 
Q 53.21875 48.921875 51.53125 44.890625 
Q 49.859375 40.875 45.40625 35.40625 
Q 44.1875 33.984375 37.640625 27.21875 
Q 31.109375 20.453125 19.1875 8.296875 
z
" id="DejaVuSans-50"/>
       </defs>
       <use xlink:href="#DejaVuSans-49"/>
       <use x="63.623047" xlink:href="#DejaVuSans-50"/>
       <use x="127.246094" xlink:href="#DejaVuSans-48"/>
       <use x="190.869141" xlink:href="#DejaVuSans-48"/>
       <use x="254.492188" xlink:href="#DejaVuSans-48"/>
      </g>
     </g>
    </g>
    <g id="text_13">
     <!-- Reached region coverage -->
     <g transform="translate(14.798438 219.136625)rotate(-90)scale(0.1 -0.1)">
      <defs>
       <path d="M 44.390625 34.1875 
Q 47.5625 33.109375 50.5625 29.59375 
Q 53.5625 26.078125 56.59375 19.921875 
L 66.609375 0 
L 56 0 
L 46.6875 18.703125 
Q 43.0625 26.03125 39.671875 28.421875 
Q 36.28125 30.8125 30.421875 30.8125 
L 19.671875 30.8125 
L 19.671875 0 
L 9.8125 0 
L 9.8125 72.90625 
L 32.078125 72.90625 
Q 44.578125 72.90625 50.734375 67.671875 
Q 56.890625 62.453125 56.890625 51.90625 
Q 56.890625 45.015625 53.6875 40.46875 
Q 50.484375 35.9375 44.390625 34.1875 
z
M 19.671875 64.796875 
L 19.671875 38.921875 
L 32.078125 38.921875 
Q 39.203125 38.921875 42.84375 42.21875 
Q 46.484375 45.515625 46.484375 51.90625 
Q 46.484375 58.296875 42.84375 61.546875 
Q 39.203125 64.796875 32.078125 64.796875 
z
" id="DejaVuSans-82"/>
      </defs>
      <use xlink:href="#DejaVuSans-82"/>
      <use x="64.982422" xlink:href="#DejaVuSans-101"/>
      <use x="126.505859" xlink:href="#DejaVuSans-97"/>
      <use x="187.785156" xlink:href="#DejaVuSans-99"/>
      <use x="242.765625" xlink:href="#DejaVuSans-104"/>
      <use x="306.144531" xlink:href="#DejaVuSans-101"/>
      <use x="367.667969" xlink:href="#DejaVuSans-100"/>
      <use x="431.144531" xlink:href="#DejaVuSans-32"/>
      <use x="462.931641" xlink:href="#DejaVuSans-114"/>
      <use x="501.794922" xlink:href="#DejaVuSans-101"/>
      <use x="563.318359" xlink:href="#DejaVuSans-103"/>
      <use x="626.794922" xlink:href="#DejaVuSans-105"/>
      <use x="654.578125" xlink:href="#DejaVuSans-111"/>
      <use x="715.759766" xlink:href="#DejaVuSans-110"/>
      <use x="779.138672" xlink:href="#DejaVuSans-32"/>
      <use x="810.925781" xlink:href="#DejaVuSans-99"/>
      <use x="865.90625" xlink:href="#DejaVuSans-111"/>
      <use x="927.087891" xlink:href="#DejaVuSans-118"/>
      <use x="986.267578" xlink:href="#DejaVuSans-101"/>
      <use x="1047.791016" xlink:href="#DejaVuSans-114"/>
      <use x="1088.904297" xlink:href="#DejaVuSans-97"/>
      <use x="1150.183594" xlink:href="#DejaVuSans-103"/>
      <use x="1213.660156" xlink:href="#DejaVuSans-101"/>
     </g>
    </g>
   </g>
   <g id="line2d_12">
    <path clip-path="url(#p039bd8c03a)" d="M 104.330625 183.519711 
L 104.330625 182.51065 
" style="fill:none;stroke:#3f3f3f;stroke-linecap:square;stroke-width:1.5;"/>
   </g>
   <g id="line2d_13">
    <path clip-path="url(#p039bd8c03a)" d="M 104.330625 183.519711 
L 104.330625 182.51065 
" style="fill:none;stroke:#3f3f3f;stroke-linecap:square;stroke-width:4.5;"/>
   </g>
   <g id="line2d_14">
    <path clip-path="url(#p039bd8c03a)" d="M 193.610625 191.051628 
L 193.610625 185.429718 
" style="fill:none;stroke:#3f3f3f;stroke-linecap:square;stroke-width:1.5;"/>
   </g>
   <g id="line2d_15">
    <path clip-path="url(#p039bd8c03a)" d="M 193.610625 187.95237 
L 193.610625 185.790097 
" style="fill:none;stroke:#3f3f3f;stroke-linecap:square;stroke-width:4.5;"/>
   </g>
   <g id="line2d_16">
    <path clip-path="url(#p039bd8c03a)" d="M 282.890625 191.520121 
L 282.890625 191.339931 
" style="fill:none;stroke:#3f3f3f;stroke-linecap:square;stroke-width:1.5;"/>
   </g>
   <g id="line2d_17">
    <path clip-path="url(#p039bd8c03a)" d="M 282.890625 191.520121 
L 282.890625 191.339931 
" style="fill:none;stroke:#3f3f3f;stroke-linecap:square;stroke-width:4.5;"/>
   </g>
   <g id="line2d_18">
    <path clip-path="url(#p039bd8c03a)" d="M 372.170625 204.313569 
L 372.170625 106.434681 
" style="fill:none;stroke:#3f3f3f;stroke-linecap:square;stroke-width:1.5;"/>
   </g>
   <g id="line2d_19">
    <path clip-path="url(#p039bd8c03a)" d="M 372.170625 202.223371 
L 372.170625 114.002637 
" style="fill:none;stroke:#3f3f3f;stroke-linecap:square;stroke-width:4.5;"/>
   </g>
   <g id="patch_3">
    <path d="M 59.690625 263.848149 
L 59.690625 47.620858 
" style="fill:none;stroke:#000000;stroke-linecap:square;stroke-linejoin:miter;stroke-width:0.8;"/>
   </g>
   <g id="patch_4">
    <path d="M 104.330625 288.430125 
L 372.170625 288.430125 
" style="fill:none;stroke:#000000;stroke-linecap:square;stroke-linejoin:miter;stroke-width:0.8;"/>
   </g>
   <g id="PathCollection_1">
    <defs>
     <path d="M 0 1.5 
C 0.397805 1.5 0.77937 1.341951 1.06066 1.06066 
C 1.341951 0.77937 1.5 0.397805 1.5 0 
C 1.5 -0.397805 1.341951 -0.77937 1.06066 -1.06066 
C 0.77937 -1.341951 0.397805 -1.5 0 -1.5 
C -0.397805 -1.5 -0.77937 -1.341951 -1.06066 -1.06066 
C -1.341951 -0.77937 -1.5 -0.397805 -1.5 0 
C -1.5 0.397805 -1.341951 0.77937 -1.06066 1.06066 
C -0.77937 1.341951 -0.397805 1.5 0 1.5 
z
" id="mc8ed760079" style="stroke:#3f3f3f;"/>
    </defs>
    <g clip-path="url(#p039bd8c03a)">
     <use style="fill:#ffffff;stroke:#3f3f3f;" x="104.330625" xlink:href="#mc8ed760079" y="183.267446"/>
    </g>
   </g>
   <g id="PathCollection_2">
    <g clip-path="url(#p039bd8c03a)">
     <use style="fill:#ffffff;stroke:#3f3f3f;" x="193.610625" xlink:href="#mc8ed760079" y="187.591991"/>
    </g>
   </g>
   <g id="PathCollection_3">
    <g clip-path="url(#p039bd8c03a)">
     <use style="fill:#ffffff;stroke:#3f3f3f;" x="282.890625" xlink:href="#mc8ed760079" y="191.520121"/>
    </g>
   </g>
   <g id="PathCollection_4">
    <g clip-path="url(#p039bd8c03a)">
     <use style="fill:#ffffff;stroke:#3f3f3f;" x="372.170625" xlink:href="#mc8ed760079" y="195.232022"/>
    </g>
   </g>
   <g id="text_14">
    <!-- mbedtls_fuzz_dtlsclient (17h:15m, 5 trials/fuzzer) -->
    <g transform="translate(89.893125 16.318125)scale(0.12 -0.12)">
     <defs>
      <path d="M 48.6875 27.296875 
Q 48.6875 37.203125 44.609375 42.84375 
Q 40.53125 48.484375 33.40625 48.484375 
Q 26.265625 48.484375 22.1875 42.84375 
Q 18.109375 37.203125 18.109375 27.296875 
Q 18.109375 17.390625 22.1875 11.75 
Q 26.265625 6.109375 33.40625 6.109375 
Q 40.53125 6.109375 44.609375 11.75 
Q 48.6875 17.390625 48.6875 27.296875 
z
M 18.109375 46.390625 
Q 20.953125 51.265625 25.265625 53.625 
Q 29.59375 56 35.59375 56 
Q 45.5625 56 51.78125 48.09375 
Q 58.015625 40.1875 58.015625 27.296875 
Q 58.015625 14.40625 51.78125 6.484375 
Q 45.5625 -1.421875 35.59375 -1.421875 
Q 29.59375 -1.421875 25.265625 0.953125 
Q 20.953125 3.328125 18.109375 8.203125 
L 18.109375 0 
L 9.078125 0 
L 9.078125 75.984375 
L 18.109375 75.984375 
z
" id="DejaVuSans-98"/>
      <path d="M 11.71875 12.40625 
L 22.015625 12.40625 
L 22.015625 0 
L 11.71875 0 
z
M 11.71875 51.703125 
L 22.015625 51.703125 
L 22.015625 39.3125 
L 11.71875 39.3125 
z
" id="DejaVuSans-58"/>
      <path d="M 10.796875 72.90625 
L 49.515625 72.90625 
L 49.515625 64.59375 
L 19.828125 64.59375 
L 19.828125 46.734375 
Q 21.96875 47.46875 24.109375 47.828125 
Q 26.265625 48.1875 28.421875 48.1875 
Q 40.625 48.1875 47.75 41.5 
Q 54.890625 34.8125 54.890625 23.390625 
Q 54.890625 11.625 47.5625 5.09375 
Q 40.234375 -1.421875 26.90625 -1.421875 
Q 22.3125 -1.421875 17.546875 -0.640625 
Q 12.796875 0.140625 7.71875 1.703125 
L 7.71875 11.625 
Q 12.109375 9.234375 16.796875 8.0625 
Q 21.484375 6.890625 26.703125 6.890625 
Q 35.15625 6.890625 40.078125 11.328125 
Q 45.015625 15.765625 45.015625 23.390625 
Q 45.015625 31 40.078125 35.4375 
Q 35.15625 39.890625 26.703125 39.890625 
Q 22.75 39.890625 18.8125 39.015625 
Q 14.890625 38.140625 10.796875 36.28125 
z
" id="DejaVuSans-53"/>
      <path d="M 11.71875 12.40625 
L 22.015625 12.40625 
L 22.015625 4 
L 14.015625 -11.625 
L 7.71875 -11.625 
L 11.71875 4 
z
" id="DejaVuSans-44"/>
      <path d="M 25.390625 72.90625 
L 33.6875 72.90625 
L 8.296875 -9.28125 
L 0 -9.28125 
z
" id="DejaVuSans-47"/>
     </defs>
     <use xlink:href="#DejaVuSans-109"/>
     <use x="97.412109" xlink:href="#DejaVuSans-98"/>
     <use x="160.888672" xlink:href="#DejaVuSans-101"/>
     <use x="222.412109" xlink:href="#DejaVuSans-100"/>
     <use x="285.888672" xlink:href="#DejaVuSans-116"/>
     <use x="325.097656" xlink:href="#DejaVuSans-108"/>
     <use x="352.880859" xlink:href="#DejaVuSans-115"/>
     <use x="404.980469" xlink:href="#DejaVuSans-95"/>
     <use x="454.980469" xlink:href="#DejaVuSans-102"/>
     <use x="490.185547" xlink:href="#DejaVuSans-117"/>
     <use x="553.564453" xlink:href="#DejaVuSans-122"/>
     <use x="606.054688" xlink:href="#DejaVuSans-122"/>
     <use x="658.544922" xlink:href="#DejaVuSans-95"/>
     <use x="708.544922" xlink:href="#DejaVuSans-100"/>
     <use x="772.021484" xlink:href="#DejaVuSans-116"/>
     <use x="811.230469" xlink:href="#DejaVuSans-108"/>
     <use x="839.013672" xlink:href="#DejaVuSans-115"/>
     <use x="891.113281" xlink:href="#DejaVuSans-99"/>
     <use x="946.09375" xlink:href="#DejaVuSans-108"/>
     <use x="973.876953" xlink:href="#DejaVuSans-105"/>
     <use x="1001.660156" xlink:href="#DejaVuSans-101"/>
     <use x="1063.183594" xlink:href="#DejaVuSans-110"/>
     <use x="1126.5625" xlink:href="#DejaVuSans-116"/>
     <use x="1165.771484" xlink:href="#DejaVuSans-32"/>
     <use x="1197.558594" xlink:href="#DejaVuSans-40"/>
     <use x="1236.572266" xlink:href="#DejaVuSans-49"/>
     <use x="1300.195312" xlink:href="#DejaVuSans-55"/>
     <use x="1363.818359" xlink:href="#DejaVuSans-104"/>
     <use x="1427.197266" xlink:href="#DejaVuSans-58"/>
     <use x="1460.888672" xlink:href="#DejaVuSans-49"/>
     <use x="1524.511719" xlink:href="#DejaVuSans-53"/>
     <use x="1588.134766" xlink:href="#DejaVuSans-109"/>
     <use x="1685.546875" xlink:href="#DejaVuSans-44"/>
     <use x="1717.333984" xlink:href="#DejaVuSans-32"/>
     <use x="1749.121094" xlink:href="#DejaVuSans-53"/>
     <use x="1812.744141" xlink:href="#DejaVuSans-32"/>
     <use x="1844.53125" xlink:href="#DejaVuSans-116"/>
     <use x="1883.740234" xlink:href="#DejaVuSans-114"/>
     <use x="1924.853516" xlink:href="#DejaVuSans-105"/>
     <use x="1952.636719" xlink:href="#DejaVuSans-97"/>
     <use x="2013.916016" xlink:href="#DejaVuSans-108"/>
     <use x="2041.699219" xlink:href="#DejaVuSans-115"/>
     <use x="2093.798828" xlink:href="#DejaVuSans-47"/>
     <use x="2127.490234" xlink:href="#DejaVuSans-102"/>
     <use x="2162.695312" xlink:href="#DejaVuSans-117"/>
     <use x="2226.074219" xlink:href="#DejaVuSans-122"/>
     <use x="2278.564453" xlink:href="#DejaVuSans-122"/>
     <use x="2331.054688" xlink:href="#DejaVuSans-101"/>
     <use x="2392.578125" xlink:href="#DejaVuSans-114"/>
     <use x="2433.691406" xlink:href="#DejaVuSans-41"/>
    </g>
   </g>
  </g>
 </g>
 <defs>
  <clipPath id="p039bd8c03a">
   <rect height="266.112" width="357.12" x="59.690625" y="22.318125"/>
  </clipPath>
 </defs>
</svg>
