<?xml version="1.0" encoding="utf-8" standalone="no"?>
<!DOCTYPE svg PUBLIC "-//W3C//DTD SVG 1.1//EN"
  "http://www.w3.org/Graphics/SVG/1.1/DTD/svg11.dtd">
<!-- Created with matplotlib (https://matplotlib.org/) -->
<svg height="355.523584pt" version="1.1" viewBox="0 0 424.010625 355.523584" width="424.010625pt" xmlns="http://www.w3.org/2000/svg" xmlns:xlink="http://www.w3.org/1999/xlink">
 <metadata>
  <rdf:RDF xmlns:cc="http://creativecommons.org/ns#" xmlns:dc="http://purl.org/dc/elements/1.1/" xmlns:rdf="http://www.w3.org/1999/02/22-rdf-syntax-ns#">
   <cc:Work>
    <dc:type rdf:resource="http://purl.org/dc/dcmitype/StillImage"/>
    <dc:date>2020-10-26T05:59:38.349178</dc:date>
    <dc:format>image/svg+xml</dc:format>
    <dc:creator>
     <cc:Agent>
      <dc:title>Matplotlib v3.3.2, https://matplotlib.org/</dc:title>
     </cc:Agent>
    </dc:creator>
   </cc:Work>
  </rdf:RDF>
 </metadata>
 <defs>
  <style type="text/css">*{stroke-linecap:butt;stroke-linejoin:round;}</style>
 </defs>
 <g id="figure_1">
  <g id="patch_1">
   <path d="M 0 355.523584 
L 424.010625 355.523584 
L 424.010625 0 
L 0 0 
z
" style="fill:#ffffff;"/>
  </g>
  <g id="axes_1">
   <g id="patch_2">
    <path d="M 59.690625 288.430125 
L 416.810625 288.430125 
L 416.810625 22.318125 
L 59.690625 22.318125 
z
" style="fill:#ffffff;"/>
   </g>
   <g id="PolyCollection_1">
    <defs>
     <path d="M 104.830689 -210.1164 
L 103.830561 -210.1164 
L 103.757286 -211.237542 
L 103.676148 -212.358684 
L 103.586791 -213.479826 
L 103.488923 -214.600968 
L 103.382332 -215.72211 
L 103.266899 -216.843252 
L 103.142609 -217.964394 
L 103.009566 -219.085536 
L 102.868005 -220.206678 
L 102.718302 -221.32782 
L 102.560977 -222.448962 
L 102.396705 -223.570104 
L 102.226314 -224.691246 
L 102.050782 -225.812388 
L 101.871237 -226.93353 
L 101.68894 -228.054672 
L 101.50528 -229.175814 
L 101.32175 -230.296956 
L 101.139926 -231.418098 
L 100.961449 -232.53924 
L 100.787989 -233.660382 
L 100.62122 -234.781524 
L 100.462786 -235.902666 
L 100.314267 -237.023808 
L 100.177149 -238.14495 
L 100.052785 -239.266092 
L 99.942372 -240.387234 
L 99.846914 -241.508376 
L 99.767203 -242.629518 
L 99.703793 -243.75066 
L 99.656988 -244.871802 
L 99.626829 -245.992944 
L 99.613088 -247.114086 
L 99.615275 -248.235228 
L 99.632637 -249.35637 
L 99.664181 -250.477512 
L 99.70869 -251.598654 
L 99.764747 -252.719796 
L 99.830772 -253.840938 
L 99.905049 -254.96208 
L 99.985774 -256.083223 
L 100.071086 -257.204365 
L 100.159116 -258.325507 
L 100.248028 -259.446649 
L 100.33606 -260.567791 
L 100.421562 -261.688933 
L 100.503035 -262.810075 
L 100.579163 -263.931217 
L 100.648841 -265.052359 
L 100.711196 -266.173501 
L 100.765604 -267.294643 
L 100.811702 -268.415785 
L 100.849387 -269.536927 
L 100.878816 -270.658069 
L 100.900396 -271.779211 
L 100.914765 -272.900353 
L 100.922774 -274.021495 
L 100.925458 -275.142637 
L 100.924007 -276.263779 
L 100.91973 -277.384921 
L 100.914019 -278.506063 
L 100.908312 -279.627205 
L 100.904054 -280.748347 
L 100.902661 -281.869489 
L 100.905484 -282.990631 
L 100.913774 -284.111773 
L 100.928654 -285.232915 
L 100.951096 -286.354057 
L 100.981898 -287.475199 
L 101.021667 -288.596341 
L 101.070813 -289.717483 
L 101.129542 -290.838625 
L 101.197858 -291.959767 
L 101.275566 -293.080909 
L 101.362287 -294.202051 
L 101.457473 -295.323193 
L 101.560419 -296.444335 
L 101.670292 -297.565477 
L 101.786152 -298.686619 
L 101.906977 -299.807761 
L 102.031686 -300.928903 
L 102.159171 -302.050045 
L 102.288316 -303.171187 
L 102.41802 -304.292329 
L 102.547226 -305.413471 
L 102.674929 -306.534613 
L 102.800201 -307.655755 
L 102.922199 -308.776897 
L 103.040176 -309.898039 
L 103.153492 -311.019181 
L 103.26161 -312.140323 
L 103.364105 -313.261465 
L 103.460657 -314.382607 
L 103.55105 -315.503749 
L 103.635165 -316.624891 
L 103.712973 -317.746033 
L 103.784528 -318.867175 
L 103.849951 -319.988317 
L 103.909431 -321.109459 
L 104.751819 -321.109459 
L 104.751819 -321.109459 
L 104.811299 -319.988317 
L 104.876722 -318.867175 
L 104.948277 -317.746033 
L 105.026085 -316.624891 
L 105.1102 -315.503749 
L 105.200593 -314.382607 
L 105.297145 -313.261465 
L 105.39964 -312.140323 
L 105.507758 -311.019181 
L 105.621074 -309.898039 
L 105.739051 -308.776897 
L 105.861049 -307.655755 
L 105.986321 -306.534613 
L 106.114024 -305.413471 
L 106.24323 -304.292329 
L 106.372934 -303.171187 
L 106.502079 -302.050045 
L 106.629564 -300.928903 
L 106.754273 -299.807761 
L 106.875098 -298.686619 
L 106.990958 -297.565477 
L 107.100831 -296.444335 
L 107.203777 -295.323193 
L 107.298963 -294.202051 
L 107.385684 -293.080909 
L 107.463392 -291.959767 
L 107.531708 -290.838625 
L 107.590437 -289.717483 
L 107.639583 -288.596341 
L 107.679352 -287.475199 
L 107.710154 -286.354057 
L 107.732596 -285.232915 
L 107.747476 -284.111773 
L 107.755766 -282.990631 
L 107.758589 -281.869489 
L 107.757196 -280.748347 
L 107.752938 -279.627205 
L 107.747231 -278.506063 
L 107.74152 -277.384921 
L 107.737243 -276.263779 
L 107.735792 -275.142637 
L 107.738476 -274.021495 
L 107.746485 -272.900353 
L 107.760854 -271.779211 
L 107.782434 -270.658069 
L 107.811863 -269.536927 
L 107.849548 -268.415785 
L 107.895646 -267.294643 
L 107.950054 -266.173501 
L 108.012409 -265.052359 
L 108.082087 -263.931217 
L 108.158215 -262.810075 
L 108.239688 -261.688933 
L 108.32519 -260.567791 
L 108.413222 -259.446649 
L 108.502134 -258.325507 
L 108.590164 -257.204365 
L 108.675476 -256.083223 
L 108.756201 -254.96208 
L 108.830478 -253.840938 
L 108.896503 -252.719796 
L 108.95256 -251.598654 
L 108.997069 -250.477512 
L 109.028613 -249.35637 
L 109.045975 -248.235228 
L 109.048162 -247.114086 
L 109.034421 -245.992944 
L 109.004262 -244.871802 
L 108.957457 -243.75066 
L 108.894047 -242.629518 
L 108.814336 -241.508376 
L 108.718878 -240.387234 
L 108.608465 -239.266092 
L 108.484101 -238.14495 
L 108.346983 -237.023808 
L 108.198464 -235.902666 
L 108.04003 -234.781524 
L 107.873261 -233.660382 
L 107.699801 -232.53924 
L 107.521324 -231.418098 
L 107.3395 -230.296956 
L 107.15597 -229.175814 
L 106.97231 -228.054672 
L 106.790013 -226.93353 
L 106.610468 -225.812388 
L 106.434936 -224.691246 
L 106.264545 -223.570104 
L 106.100273 -222.448962 
L 105.942948 -221.32782 
L 105.793245 -220.206678 
L 105.651684 -219.085536 
L 105.518641 -217.964394 
L 105.394351 -216.843252 
L 105.278918 -215.72211 
L 105.172327 -214.600968 
L 105.074459 -213.479826 
L 104.985102 -212.358684 
L 104.903964 -211.237542 
L 104.830689 -210.1164 
z
" id="m6a17c11f63" style="stroke:#3f3f3f;stroke-width:1.5;"/>
    </defs>
    <g clip-path="url(#p0c00b6b137)">
     <use style="fill:#c03d3e;stroke:#3f3f3f;stroke-width:1.5;" x="0" xlink:href="#m6a17c11f63" y="355.523584"/>
    </g>
   </g>
   <g id="PolyCollection_2">
    <defs>
     <path d="M 193.843023 -151.450312 
L 193.378227 -151.450312 
L 193.339113 -152.975768 
L 193.294895 -154.501223 
L 193.245185 -156.026679 
L 193.18961 -157.552135 
L 193.12783 -159.07759 
L 193.059541 -160.603046 
L 192.984491 -162.128502 
L 192.902492 -163.653957 
L 192.813427 -165.179413 
L 192.717266 -166.704868 
L 192.614077 -168.230324 
L 192.504033 -169.75578 
L 192.387422 -171.281235 
L 192.264652 -172.806691 
L 192.136259 -174.332147 
L 192.002904 -175.857602 
L 191.865377 -177.383058 
L 191.724585 -178.908514 
L 191.581553 -180.433969 
L 191.437405 -181.959425 
L 191.293355 -183.48488 
L 191.150683 -185.010336 
L 191.010721 -186.535792 
L 190.874822 -188.061247 
L 190.744338 -189.586703 
L 190.62059 -191.112159 
L 190.504841 -192.637614 
L 190.398265 -194.16307 
L 190.301924 -195.688526 
L 190.216731 -197.213981 
L 190.143439 -198.739437 
L 190.082607 -200.264892 
L 190.034595 -201.790348 
L 189.999543 -203.315804 
L 189.977367 -204.841259 
L 189.967761 -206.366715 
L 189.970196 -207.892171 
L 189.983935 -209.417626 
L 190.00805 -210.943082 
L 190.041441 -212.468538 
L 190.082864 -213.993993 
L 190.130967 -215.519449 
L 190.184318 -217.044904 
L 190.241449 -218.57036 
L 190.300888 -220.095816 
L 190.361204 -221.621271 
L 190.421041 -223.146727 
L 190.479156 -224.672183 
L 190.534448 -226.197638 
L 190.585989 -227.723094 
L 190.633045 -229.24855 
L 190.675093 -230.774005 
L 190.71183 -232.299461 
L 190.74318 -233.824916 
L 190.769287 -235.350372 
L 190.790506 -236.875828 
L 190.807389 -238.401283 
L 190.820661 -239.926739 
L 190.831193 -241.452195 
L 190.839972 -242.97765 
L 190.848069 -244.503106 
L 190.856602 -246.028562 
L 190.866699 -247.554017 
L 190.879466 -249.079473 
L 190.895951 -250.604928 
L 190.917112 -252.130384 
L 190.943794 -253.65584 
L 190.9767 -255.181295 
L 191.01638 -256.706751 
L 191.06321 -258.232207 
L 191.117395 -259.757662 
L 191.178957 -261.283118 
L 191.247748 -262.808574 
L 191.323453 -264.334029 
L 191.405603 -265.859485 
L 191.493598 -267.38494 
L 191.586719 -268.910396 
L 191.684156 -270.435852 
L 191.785031 -271.961307 
L 191.888419 -273.486763 
L 191.993375 -275.012219 
L 192.098957 -276.537674 
L 192.204246 -278.06313 
L 192.308367 -279.588586 
L 192.410503 -281.114041 
L 192.509912 -282.639497 
L 192.605936 -284.164952 
L 192.698009 -285.690408 
L 192.785662 -287.215864 
L 192.868523 -288.741319 
L 192.946318 -290.266775 
L 193.018866 -291.792231 
L 193.086077 -293.317686 
L 193.147938 -294.843142 
L 193.204514 -296.368598 
L 193.255929 -297.894053 
L 193.302365 -299.419509 
L 193.344047 -300.944964 
L 193.381234 -302.47042 
L 193.840016 -302.47042 
L 193.840016 -302.47042 
L 193.877203 -300.944964 
L 193.918885 -299.419509 
L 193.965321 -297.894053 
L 194.016736 -296.368598 
L 194.073312 -294.843142 
L 194.135173 -293.317686 
L 194.202384 -291.792231 
L 194.274932 -290.266775 
L 194.352727 -288.741319 
L 194.435588 -287.215864 
L 194.523241 -285.690408 
L 194.615314 -284.164952 
L 194.711338 -282.639497 
L 194.810747 -281.114041 
L 194.912883 -279.588586 
L 195.017004 -278.06313 
L 195.122293 -276.537674 
L 195.227875 -275.012219 
L 195.332831 -273.486763 
L 195.436219 -271.961307 
L 195.537094 -270.435852 
L 195.634531 -268.910396 
L 195.727652 -267.38494 
L 195.815647 -265.859485 
L 195.897797 -264.334029 
L 195.973502 -262.808574 
L 196.042293 -261.283118 
L 196.103855 -259.757662 
L 196.15804 -258.232207 
L 196.20487 -256.706751 
L 196.24455 -255.181295 
L 196.277456 -253.65584 
L 196.304138 -252.130384 
L 196.325299 -250.604928 
L 196.341784 -249.079473 
L 196.354551 -247.554017 
L 196.364648 -246.028562 
L 196.373181 -244.503106 
L 196.381278 -242.97765 
L 196.390057 -241.452195 
L 196.400589 -239.926739 
L 196.413861 -238.401283 
L 196.430744 -236.875828 
L 196.451963 -235.350372 
L 196.47807 -233.824916 
L 196.50942 -232.299461 
L 196.546157 -230.774005 
L 196.588205 -229.24855 
L 196.635261 -227.723094 
L 196.686802 -226.197638 
L 196.742094 -224.672183 
L 196.800209 -223.146727 
L 196.860046 -221.621271 
L 196.920362 -220.095816 
L 196.979801 -218.57036 
L 197.036932 -217.044904 
L 197.090283 -215.519449 
L 197.138386 -213.993993 
L 197.179809 -212.468538 
L 197.2132 -210.943082 
L 197.237315 -209.417626 
L 197.251054 -207.892171 
L 197.253489 -206.366715 
L 197.243883 -204.841259 
L 197.221707 -203.315804 
L 197.186655 -201.790348 
L 197.138643 -200.264892 
L 197.077811 -198.739437 
L 197.004519 -197.213981 
L 196.919326 -195.688526 
L 196.822985 -194.16307 
L 196.716409 -192.637614 
L 196.60066 -191.112159 
L 196.476912 -189.586703 
L 196.346428 -188.061247 
L 196.210529 -186.535792 
L 196.070567 -185.010336 
L 195.927895 -183.48488 
L 195.783845 -181.959425 
L 195.639697 -180.433969 
L 195.496665 -178.908514 
L 195.355873 -177.383058 
L 195.218346 -175.857602 
L 195.084991 -174.332147 
L 194.956598 -172.806691 
L 194.833828 -171.281235 
L 194.717217 -169.75578 
L 194.607173 -168.230324 
L 194.503984 -166.704868 
L 194.407823 -165.179413 
L 194.318758 -163.653957 
L 194.236759 -162.128502 
L 194.161709 -160.603046 
L 194.09342 -159.07759 
L 194.03164 -157.552135 
L 193.976065 -156.026679 
L 193.926355 -154.501223 
L 193.882137 -152.975768 
L 193.843023 -151.450312 
z
" id="mcffd67ec5c" style="stroke:#3f3f3f;stroke-width:1.5;"/>
    </defs>
    <g clip-path="url(#p0c00b6b137)">
     <use style="fill:#3274a1;stroke:#3f3f3f;stroke-width:1.5;" x="0" xlink:href="#mcffd67ec5c" y="355.523584"/>
    </g>
   </g>
   <g id="PolyCollection_3">
    <defs>
     <path d="M 283.38521 -79.189459 
L 282.39604 -79.189459 
L 282.32087 -80.203988 
L 282.237188 -81.218518 
L 282.144538 -82.233047 
L 282.042524 -83.247576 
L 281.93083 -84.262106 
L 281.80923 -85.276635 
L 281.67761 -86.291164 
L 281.535977 -87.305693 
L 281.384481 -88.320223 
L 281.223422 -89.334752 
L 281.053263 -90.349281 
L 280.874638 -91.36381 
L 280.688357 -92.37834 
L 280.495405 -93.392869 
L 280.296944 -94.407398 
L 280.094299 -95.421928 
L 279.88895 -96.436457 
L 279.682516 -97.450986 
L 279.47673 -98.465515 
L 279.273416 -99.480045 
L 279.07446 -100.494574 
L 278.881772 -101.509103 
L 278.697258 -102.523632 
L 278.522776 -103.538162 
L 278.360097 -104.552691 
L 278.210872 -105.56722 
L 278.076589 -106.58175 
L 277.95854 -107.596279 
L 277.857787 -108.610808 
L 277.775137 -109.625337 
L 277.711118 -110.639867 
L 277.665961 -111.654396 
L 277.639592 -112.668925 
L 277.63163 -113.683454 
L 277.641389 -114.697984 
L 277.667892 -115.712513 
L 277.709891 -116.727042 
L 277.765892 -117.741572 
L 277.834188 -118.756101 
L 277.912897 -119.77063 
L 278.000007 -120.785159 
L 278.093418 -121.799689 
L 278.190995 -122.814218 
L 278.290614 -123.828747 
L 278.390212 -124.843276 
L 278.487836 -125.857806 
L 278.581684 -126.872335 
L 278.67015 -127.886864 
L 278.751855 -128.901394 
L 278.825677 -129.915923 
L 278.890775 -130.930452 
L 278.946604 -131.944981 
L 278.992918 -132.959511 
L 279.029775 -133.97404 
L 279.057524 -134.988569 
L 279.076792 -136.003098 
L 279.088462 -137.017628 
L 279.09364 -138.032157 
L 279.093625 -139.046686 
L 279.089869 -140.061216 
L 279.083935 -141.075745 
L 279.077454 -142.090274 
L 279.072081 -143.104803 
L 279.06945 -144.119333 
L 279.071132 -145.133862 
L 279.078598 -146.148391 
L 279.093178 -147.16292 
L 279.116037 -148.17745 
L 279.148142 -149.191979 
L 279.190251 -150.206508 
L 279.242891 -151.221038 
L 279.306356 -152.235567 
L 279.380707 -153.250096 
L 279.465772 -154.264625 
L 279.561167 -155.279155 
L 279.6663 -156.293684 
L 279.780405 -157.308213 
L 279.902554 -158.322742 
L 280.031694 -159.337272 
L 280.166669 -160.351801 
L 280.306255 -161.36633 
L 280.449186 -162.38086 
L 280.594185 -163.395389 
L 280.739991 -164.409918 
L 280.885385 -165.424447 
L 281.029209 -166.438977 
L 281.170391 -167.453506 
L 281.307956 -168.468035 
L 281.441038 -169.482564 
L 281.568892 -170.497094 
L 281.690895 -171.511623 
L 281.806552 -172.526152 
L 281.915488 -173.540682 
L 282.017451 -174.555211 
L 282.112298 -175.56974 
L 282.199992 -176.584269 
L 282.280592 -177.598799 
L 282.354237 -178.613328 
L 282.421139 -179.627857 
L 283.360111 -179.627857 
L 283.360111 -179.627857 
L 283.427013 -178.613328 
L 283.500658 -177.598799 
L 283.581258 -176.584269 
L 283.668952 -175.56974 
L 283.763799 -174.555211 
L 283.865762 -173.540682 
L 283.974698 -172.526152 
L 284.090355 -171.511623 
L 284.212358 -170.497094 
L 284.340212 -169.482564 
L 284.473294 -168.468035 
L 284.610859 -167.453506 
L 284.752041 -166.438977 
L 284.895865 -165.424447 
L 285.041259 -164.409918 
L 285.187065 -163.395389 
L 285.332064 -162.38086 
L 285.474995 -161.36633 
L 285.614581 -160.351801 
L 285.749556 -159.337272 
L 285.878696 -158.322742 
L 286.000845 -157.308213 
L 286.11495 -156.293684 
L 286.220083 -155.279155 
L 286.315478 -154.264625 
L 286.400543 -153.250096 
L 286.474894 -152.235567 
L 286.538359 -151.221038 
L 286.590999 -150.206508 
L 286.633108 -149.191979 
L 286.665213 -148.17745 
L 286.688072 -147.16292 
L 286.702652 -146.148391 
L 286.710118 -145.133862 
L 286.7118 -144.119333 
L 286.709169 -143.104803 
L 286.703796 -142.090274 
L 286.697315 -141.075745 
L 286.691381 -140.061216 
L 286.687625 -139.046686 
L 286.68761 -138.032157 
L 286.692788 -137.017628 
L 286.704458 -136.003098 
L 286.723726 -134.988569 
L 286.751475 -133.97404 
L 286.788332 -132.959511 
L 286.834646 -131.944981 
L 286.890475 -130.930452 
L 286.955573 -129.915923 
L 287.029395 -128.901394 
L 287.1111 -127.886864 
L 287.199566 -126.872335 
L 287.293414 -125.857806 
L 287.391038 -124.843276 
L 287.490636 -123.828747 
L 287.590255 -122.814218 
L 287.687832 -121.799689 
L 287.781243 -120.785159 
L 287.868353 -119.77063 
L 287.947062 -118.756101 
L 288.015358 -117.741572 
L 288.071359 -116.727042 
L 288.113358 -115.712513 
L 288.139861 -114.697984 
L 288.14962 -113.683454 
L 288.141658 -112.668925 
L 288.115289 -111.654396 
L 288.070132 -110.639867 
L 288.006113 -109.625337 
L 287.923463 -108.610808 
L 287.82271 -107.596279 
L 287.704661 -106.58175 
L 287.570378 -105.56722 
L 287.421153 -104.552691 
L 287.258474 -103.538162 
L 287.083992 -102.523632 
L 286.899478 -101.509103 
L 286.70679 -100.494574 
L 286.507834 -99.480045 
L 286.30452 -98.465515 
L 286.098734 -97.450986 
L 285.8923 -96.436457 
L 285.686951 -95.421928 
L 285.484306 -94.407398 
L 285.285845 -93.392869 
L 285.092893 -92.37834 
L 284.906612 -91.36381 
L 284.727987 -90.349281 
L 284.557828 -89.334752 
L 284.396769 -88.320223 
L 284.245273 -87.305693 
L 284.10364 -86.291164 
L 283.97202 -85.276635 
L 283.85042 -84.262106 
L 283.738726 -83.247576 
L 283.636712 -82.233047 
L 283.544062 -81.218518 
L 283.46038 -80.203988 
L 283.38521 -79.189459 
z
" id="m873e04cd6e" style="stroke:#3f3f3f;stroke-width:1.5;"/>
    </defs>
    <g clip-path="url(#p0c00b6b137)">
     <use style="fill:#c7c7c7;stroke:#3f3f3f;stroke-width:1.5;" x="0" xlink:href="#m873e04cd6e" y="355.523584"/>
    </g>
   </g>
   <g id="PolyCollection_4">
    <defs>
     <path d="M 376.752647 -98.521987 
L 367.588603 -98.521987 
L 366.991186 -98.681162 
L 366.338403 -98.840338 
L 365.628605 -98.999514 
L 364.860628 -99.158689 
L 364.033873 -99.317865 
L 363.148377 -99.47704 
L 362.204883 -99.636216 
L 361.204898 -99.795392 
L 360.15075 -99.954567 
L 359.045624 -100.113743 
L 357.89359 -100.272919 
L 356.699612 -100.432094 
L 355.469539 -100.59127 
L 354.21008 -100.750445 
L 352.928753 -100.909621 
L 351.633824 -101.068797 
L 350.33421 -101.227972 
L 349.039376 -101.387148 
L 347.759208 -101.546323 
L 346.503866 -101.705499 
L 345.283631 -101.864675 
L 344.108732 -102.02385 
L 342.989175 -102.183026 
L 341.934558 -102.342202 
L 340.953901 -102.501377 
L 340.055465 -102.660553 
L 339.246595 -102.819728 
L 338.533574 -102.978904 
L 337.92149 -103.13808 
L 337.41413 -103.297255 
L 337.013907 -103.456431 
L 336.7218 -103.615607 
L 336.537342 -103.774782 
L 336.458625 -103.933958 
L 336.482349 -104.093133 
L 336.603894 -104.252309 
L 336.817424 -104.411485 
L 337.116022 -104.57066 
L 337.491845 -104.729836 
L 337.936298 -104.889011 
L 338.440228 -105.048187 
L 338.994124 -105.207363 
L 339.588328 -105.366538 
L 340.213234 -105.525714 
L 340.859497 -105.68489 
L 341.518219 -105.844065 
L 342.181122 -106.003241 
L 342.840707 -106.162416 
L 343.490377 -106.321592 
L 344.124548 -106.480768 
L 344.73872 -106.639943 
L 345.329521 -106.799119 
L 345.894723 -106.958295 
L 346.433228 -107.11747 
L 346.945017 -107.276646 
L 347.431089 -107.435821 
L 347.89336 -107.594997 
L 348.334548 -107.754173 
L 348.75805 -107.913348 
L 349.167791 -108.072524 
L 349.568079 -108.2317 
L 349.963451 -108.390875 
L 350.35852 -108.550051 
L 350.757828 -108.709226 
L 351.16571 -108.868402 
L 351.586172 -109.027578 
L 352.022774 -109.186753 
L 352.478547 -109.345929 
L 352.955913 -109.505104 
L 353.456641 -109.66428 
L 353.98181 -109.823456 
L 354.531798 -109.982631 
L 355.106294 -110.141807 
L 355.704324 -110.300983 
L 356.324291 -110.460158 
L 356.964036 -110.619334 
L 357.620904 -110.778509 
L 358.291824 -110.937685 
L 358.973392 -111.096861 
L 359.66196 -111.256036 
L 360.353723 -111.415212 
L 361.044808 -111.574388 
L 361.731357 -111.733563 
L 362.409604 -111.892739 
L 363.075947 -112.051914 
L 363.72701 -112.21109 
L 364.359694 -112.370266 
L 364.971221 -112.529441 
L 365.559163 -112.688617 
L 366.121467 -112.847792 
L 366.656466 -113.006968 
L 367.162878 -113.166144 
L 367.639805 -113.325319 
L 368.086714 -113.484495 
L 368.503421 -113.643671 
L 368.890062 -113.802846 
L 369.247066 -113.962022 
L 369.575121 -114.121197 
L 369.875139 -114.280373 
L 374.466111 -114.280373 
L 374.466111 -114.280373 
L 374.766129 -114.121197 
L 375.094184 -113.962022 
L 375.451188 -113.802846 
L 375.837829 -113.643671 
L 376.254536 -113.484495 
L 376.701445 -113.325319 
L 377.178372 -113.166144 
L 377.684784 -113.006968 
L 378.219783 -112.847792 
L 378.782087 -112.688617 
L 379.370029 -112.529441 
L 379.981556 -112.370266 
L 380.61424 -112.21109 
L 381.265303 -112.051914 
L 381.931646 -111.892739 
L 382.609893 -111.733563 
L 383.296442 -111.574388 
L 383.987527 -111.415212 
L 384.67929 -111.256036 
L 385.367858 -111.096861 
L 386.049426 -110.937685 
L 386.720346 -110.778509 
L 387.377214 -110.619334 
L 388.016959 -110.460158 
L 388.636926 -110.300983 
L 389.234956 -110.141807 
L 389.809452 -109.982631 
L 390.35944 -109.823456 
L 390.884609 -109.66428 
L 391.385337 -109.505104 
L 391.862703 -109.345929 
L 392.318476 -109.186753 
L 392.755078 -109.027578 
L 393.17554 -108.868402 
L 393.583422 -108.709226 
L 393.98273 -108.550051 
L 394.377799 -108.390875 
L 394.773171 -108.2317 
L 395.173459 -108.072524 
L 395.5832 -107.913348 
L 396.006702 -107.754173 
L 396.44789 -107.594997 
L 396.910161 -107.435821 
L 397.396233 -107.276646 
L 397.908022 -107.11747 
L 398.446527 -106.958295 
L 399.011729 -106.799119 
L 399.60253 -106.639943 
L 400.216702 -106.480768 
L 400.850873 -106.321592 
L 401.500543 -106.162416 
L 402.160128 -106.003241 
L 402.823031 -105.844065 
L 403.481753 -105.68489 
L 404.128016 -105.525714 
L 404.752922 -105.366538 
L 405.347126 -105.207363 
L 405.901022 -105.048187 
L 406.404952 -104.889011 
L 406.849405 -104.729836 
L 407.225228 -104.57066 
L 407.523826 -104.411485 
L 407.737356 -104.252309 
L 407.858901 -104.093133 
L 407.882625 -103.933958 
L 407.803908 -103.774782 
L 407.61945 -103.615607 
L 407.327343 -103.456431 
L 406.92712 -103.297255 
L 406.41976 -103.13808 
L 405.807676 -102.978904 
L 405.094655 -102.819728 
L 404.285785 -102.660553 
L 403.387349 -102.501377 
L 402.406692 -102.342202 
L 401.352075 -102.183026 
L 400.232518 -102.02385 
L 399.057619 -101.864675 
L 397.837384 -101.705499 
L 396.582042 -101.546323 
L 395.301874 -101.387148 
L 394.00704 -101.227972 
L 392.707426 -101.068797 
L 391.412497 -100.909621 
L 390.13117 -100.750445 
L 388.871711 -100.59127 
L 387.641638 -100.432094 
L 386.44766 -100.272919 
L 385.295626 -100.113743 
L 384.1905 -99.954567 
L 383.136352 -99.795392 
L 382.136367 -99.636216 
L 381.192873 -99.47704 
L 380.307377 -99.317865 
L 379.480622 -99.158689 
L 378.712645 -98.999514 
L 378.002847 -98.840338 
L 377.350064 -98.681162 
L 376.752647 -98.521987 
z
" id="m1da972eb47" style="stroke:#3f3f3f;stroke-width:1.5;"/>
    </defs>
    <g clip-path="url(#p0c00b6b137)">
     <use style="fill:#9fd495;stroke:#3f3f3f;stroke-width:1.5;" x="0" xlink:href="#m1da972eb47" y="355.523584"/>
    </g>
   </g>
   <g id="matplotlib.axis_1">
    <g id="xtick_1">
     <g id="line2d_1">
      <defs>
       <path d="M 0 0 
L 0 3.5 
" id="m151d9c4876" style="stroke:#000000;stroke-width:0.8;"/>
      </defs>
      <g>
       <use style="stroke:#000000;stroke-width:0.8;" x="104.330625" xlink:href="#m151d9c4876" y="288.430125"/>
      </g>
     </g>
     <g id="text_1">
      <!-- kirenenko -->
      <g transform="translate(60.870421 326.501971)rotate(-30)scale(0.1 -0.1)">
       <defs>
        <path d="M 9.078125 75.984375 
L 18.109375 75.984375 
L 18.109375 31.109375 
L 44.921875 54.6875 
L 56.390625 54.6875 
L 27.390625 29.109375 
L 57.625 0 
L 45.90625 0 
L 18.109375 26.703125 
L 18.109375 0 
L 9.078125 0 
z
" id="DejaVuSans-107"/>
        <path d="M 9.421875 54.6875 
L 18.40625 54.6875 
L 18.40625 0 
L 9.421875 0 
z
M 9.421875 75.984375 
L 18.40625 75.984375 
L 18.40625 64.59375 
L 9.421875 64.59375 
z
" id="DejaVuSans-105"/>
        <path d="M 41.109375 46.296875 
Q 39.59375 47.171875 37.8125 47.578125 
Q 36.03125 48 33.890625 48 
Q 26.265625 48 22.1875 43.046875 
Q 18.109375 38.09375 18.109375 28.8125 
L 18.109375 0 
L 9.078125 0 
L 9.078125 54.6875 
L 18.109375 54.6875 
L 18.109375 46.1875 
Q 20.953125 51.171875 25.484375 53.578125 
Q 30.03125 56 36.53125 56 
Q 37.453125 56 38.578125 55.875 
Q 39.703125 55.765625 41.0625 55.515625 
z
" id="DejaVuSans-114"/>
        <path d="M 56.203125 29.59375 
L 56.203125 25.203125 
L 14.890625 25.203125 
Q 15.484375 15.921875 20.484375 11.0625 
Q 25.484375 6.203125 34.421875 6.203125 
Q 39.59375 6.203125 44.453125 7.46875 
Q 49.3125 8.734375 54.109375 11.28125 
L 54.109375 2.78125 
Q 49.265625 0.734375 44.1875 -0.34375 
Q 39.109375 -1.421875 33.890625 -1.421875 
Q 20.796875 -1.421875 13.15625 6.1875 
Q 5.515625 13.8125 5.515625 26.8125 
Q 5.515625 40.234375 12.765625 48.109375 
Q 20.015625 56 32.328125 56 
Q 43.359375 56 49.78125 48.890625 
Q 56.203125 41.796875 56.203125 29.59375 
z
M 47.21875 32.234375 
Q 47.125 39.59375 43.09375 43.984375 
Q 39.0625 48.390625 32.421875 48.390625 
Q 24.90625 48.390625 20.390625 44.140625 
Q 15.875 39.890625 15.1875 32.171875 
z
" id="DejaVuSans-101"/>
        <path d="M 54.890625 33.015625 
L 54.890625 0 
L 45.90625 0 
L 45.90625 32.71875 
Q 45.90625 40.484375 42.875 44.328125 
Q 39.84375 48.1875 33.796875 48.1875 
Q 26.515625 48.1875 22.3125 43.546875 
Q 18.109375 38.921875 18.109375 30.90625 
L 18.109375 0 
L 9.078125 0 
L 9.078125 54.6875 
L 18.109375 54.6875 
L 18.109375 46.1875 
Q 21.34375 51.125 25.703125 53.5625 
Q 30.078125 56 35.796875 56 
Q 45.21875 56 50.046875 50.171875 
Q 54.890625 44.34375 54.890625 33.015625 
z
" id="DejaVuSans-110"/>
        <path d="M 30.609375 48.390625 
Q 23.390625 48.390625 19.1875 42.75 
Q 14.984375 37.109375 14.984375 27.296875 
Q 14.984375 17.484375 19.15625 11.84375 
Q 23.34375 6.203125 30.609375 6.203125 
Q 37.796875 6.203125 41.984375 11.859375 
Q 46.1875 17.53125 46.1875 27.296875 
Q 46.1875 37.015625 41.984375 42.703125 
Q 37.796875 48.390625 30.609375 48.390625 
z
M 30.609375 56 
Q 42.328125 56 49.015625 48.375 
Q 55.71875 40.765625 55.71875 27.296875 
Q 55.71875 13.875 49.015625 6.21875 
Q 42.328125 -1.421875 30.609375 -1.421875 
Q 18.84375 -1.421875 12.171875 6.21875 
Q 5.515625 13.875 5.515625 27.296875 
Q 5.515625 40.765625 12.171875 48.375 
Q 18.84375 56 30.609375 56 
z
" id="DejaVuSans-111"/>
       </defs>
       <use xlink:href="#DejaVuSans-107"/>
       <use x="57.910156" xlink:href="#DejaVuSans-105"/>
       <use x="85.693359" xlink:href="#DejaVuSans-114"/>
       <use x="124.556641" xlink:href="#DejaVuSans-101"/>
       <use x="186.080078" xlink:href="#DejaVuSans-110"/>
       <use x="249.458984" xlink:href="#DejaVuSans-101"/>
       <use x="310.982422" xlink:href="#DejaVuSans-110"/>
       <use x="374.361328" xlink:href="#DejaVuSans-107"/>
       <use x="428.646484" xlink:href="#DejaVuSans-111"/>
      </g>
     </g>
    </g>
    <g id="xtick_2">
     <g id="line2d_2">
      <g>
       <use style="stroke:#000000;stroke-width:0.8;" x="193.610625" xlink:href="#m151d9c4876" y="288.430125"/>
      </g>
     </g>
     <g id="text_2">
      <!-- aflplusplus -->
      <g transform="translate(146.001618 328.897284)rotate(-30)scale(0.1 -0.1)">
       <defs>
        <path d="M 34.28125 27.484375 
Q 23.390625 27.484375 19.1875 25 
Q 14.984375 22.515625 14.984375 16.5 
Q 14.984375 11.71875 18.140625 8.90625 
Q 21.296875 6.109375 26.703125 6.109375 
Q 34.1875 6.109375 38.703125 11.40625 
Q 43.21875 16.703125 43.21875 25.484375 
L 43.21875 27.484375 
z
M 52.203125 31.203125 
L 52.203125 0 
L 43.21875 0 
L 43.21875 8.296875 
Q 40.140625 3.328125 35.546875 0.953125 
Q 30.953125 -1.421875 24.3125 -1.421875 
Q 15.921875 -1.421875 10.953125 3.296875 
Q 6 8.015625 6 15.921875 
Q 6 25.140625 12.171875 29.828125 
Q 18.359375 34.515625 30.609375 34.515625 
L 43.21875 34.515625 
L 43.21875 35.40625 
Q 43.21875 41.609375 39.140625 45 
Q 35.0625 48.390625 27.6875 48.390625 
Q 23 48.390625 18.546875 47.265625 
Q 14.109375 46.140625 10.015625 43.890625 
L 10.015625 52.203125 
Q 14.9375 54.109375 19.578125 55.046875 
Q 24.21875 56 28.609375 56 
Q 40.484375 56 46.34375 49.84375 
Q 52.203125 43.703125 52.203125 31.203125 
z
" id="DejaVuSans-97"/>
        <path d="M 37.109375 75.984375 
L 37.109375 68.5 
L 28.515625 68.5 
Q 23.6875 68.5 21.796875 66.546875 
Q 19.921875 64.59375 19.921875 59.515625 
L 19.921875 54.6875 
L 34.71875 54.6875 
L 34.71875 47.703125 
L 19.921875 47.703125 
L 19.921875 0 
L 10.890625 0 
L 10.890625 47.703125 
L 2.296875 47.703125 
L 2.296875 54.6875 
L 10.890625 54.6875 
L 10.890625 58.5 
Q 10.890625 67.625 15.140625 71.796875 
Q 19.390625 75.984375 28.609375 75.984375 
z
" id="DejaVuSans-102"/>
        <path d="M 9.421875 75.984375 
L 18.40625 75.984375 
L 18.40625 0 
L 9.421875 0 
z
" id="DejaVuSans-108"/>
        <path d="M 18.109375 8.203125 
L 18.109375 -20.796875 
L 9.078125 -20.796875 
L 9.078125 54.6875 
L 18.109375 54.6875 
L 18.109375 46.390625 
Q 20.953125 51.265625 25.265625 53.625 
Q 29.59375 56 35.59375 56 
Q 45.5625 56 51.78125 48.09375 
Q 58.015625 40.1875 58.015625 27.296875 
Q 58.015625 14.40625 51.78125 6.484375 
Q 45.5625 -1.421875 35.59375 -1.421875 
Q 29.59375 -1.421875 25.265625 0.953125 
Q 20.953125 3.328125 18.109375 8.203125 
z
M 48.6875 27.296875 
Q 48.6875 37.203125 44.609375 42.84375 
Q 40.53125 48.484375 33.40625 48.484375 
Q 26.265625 48.484375 22.1875 42.84375 
Q 18.109375 37.203125 18.109375 27.296875 
Q 18.109375 17.390625 22.1875 11.75 
Q 26.265625 6.109375 33.40625 6.109375 
Q 40.53125 6.109375 44.609375 11.75 
Q 48.6875 17.390625 48.6875 27.296875 
z
" id="DejaVuSans-112"/>
        <path d="M 8.5 21.578125 
L 8.5 54.6875 
L 17.484375 54.6875 
L 17.484375 21.921875 
Q 17.484375 14.15625 20.5 10.265625 
Q 23.53125 6.390625 29.59375 6.390625 
Q 36.859375 6.390625 41.078125 11.03125 
Q 45.3125 15.671875 45.3125 23.6875 
L 45.3125 54.6875 
L 54.296875 54.6875 
L 54.296875 0 
L 45.3125 0 
L 45.3125 8.40625 
Q 42.046875 3.421875 37.71875 1 
Q 33.40625 -1.421875 27.6875 -1.421875 
Q 18.265625 -1.421875 13.375 4.4375 
Q 8.5 10.296875 8.5 21.578125 
z
M 31.109375 56 
z
" id="DejaVuSans-117"/>
        <path d="M 44.28125 53.078125 
L 44.28125 44.578125 
Q 40.484375 46.53125 36.375 47.5 
Q 32.28125 48.484375 27.875 48.484375 
Q 21.1875 48.484375 17.84375 46.4375 
Q 14.5 44.390625 14.5 40.28125 
Q 14.5 37.15625 16.890625 35.375 
Q 19.28125 33.59375 26.515625 31.984375 
L 29.59375 31.296875 
Q 39.15625 29.25 43.1875 25.515625 
Q 47.21875 21.78125 47.21875 15.09375 
Q 47.21875 7.46875 41.1875 3.015625 
Q 35.15625 -1.421875 24.609375 -1.421875 
Q 20.21875 -1.421875 15.453125 -0.5625 
Q 10.6875 0.296875 5.421875 2 
L 5.421875 11.28125 
Q 10.40625 8.6875 15.234375 7.390625 
Q 20.0625 6.109375 24.8125 6.109375 
Q 31.15625 6.109375 34.5625 8.28125 
Q 37.984375 10.453125 37.984375 14.40625 
Q 37.984375 18.0625 35.515625 20.015625 
Q 33.0625 21.96875 24.703125 23.78125 
L 21.578125 24.515625 
Q 13.234375 26.265625 9.515625 29.90625 
Q 5.8125 33.546875 5.8125 39.890625 
Q 5.8125 47.609375 11.28125 51.796875 
Q 16.75 56 26.8125 56 
Q 31.78125 56 36.171875 55.265625 
Q 40.578125 54.546875 44.28125 53.078125 
z
" id="DejaVuSans-115"/>
       </defs>
       <use xlink:href="#DejaVuSans-97"/>
       <use x="61.279297" xlink:href="#DejaVuSans-102"/>
       <use x="96.484375" xlink:href="#DejaVuSans-108"/>
       <use x="124.267578" xlink:href="#DejaVuSans-112"/>
       <use x="187.744141" xlink:href="#DejaVuSans-108"/>
       <use x="215.527344" xlink:href="#DejaVuSans-117"/>
       <use x="278.90625" xlink:href="#DejaVuSans-115"/>
       <use x="331.005859" xlink:href="#DejaVuSans-112"/>
       <use x="394.482422" xlink:href="#DejaVuSans-108"/>
       <use x="422.265625" xlink:href="#DejaVuSans-117"/>
       <use x="485.644531" xlink:href="#DejaVuSans-115"/>
      </g>
     </g>
    </g>
    <g id="xtick_3">
     <g id="line2d_3">
      <g>
       <use style="stroke:#000000;stroke-width:0.8;" x="282.890625" xlink:href="#m151d9c4876" y="288.430125"/>
      </g>
     </g>
     <g id="text_3">
      <!-- weizz_qemu -->
      <g transform="translate(228.723143 332.603534)rotate(-30)scale(0.1 -0.1)">
       <defs>
        <path d="M 4.203125 54.6875 
L 13.1875 54.6875 
L 24.421875 12.015625 
L 35.59375 54.6875 
L 46.1875 54.6875 
L 57.421875 12.015625 
L 68.609375 54.6875 
L 77.59375 54.6875 
L 63.28125 0 
L 52.6875 0 
L 40.921875 44.828125 
L 29.109375 0 
L 18.5 0 
z
" id="DejaVuSans-119"/>
        <path d="M 5.515625 54.6875 
L 48.1875 54.6875 
L 48.1875 46.484375 
L 14.40625 7.171875 
L 48.1875 7.171875 
L 48.1875 0 
L 4.296875 0 
L 4.296875 8.203125 
L 38.09375 47.515625 
L 5.515625 47.515625 
z
" id="DejaVuSans-122"/>
        <path d="M 50.984375 -16.609375 
L 50.984375 -23.578125 
L -0.984375 -23.578125 
L -0.984375 -16.609375 
z
" id="DejaVuSans-95"/>
        <path d="M 14.796875 27.296875 
Q 14.796875 17.390625 18.875 11.75 
Q 22.953125 6.109375 30.078125 6.109375 
Q 37.203125 6.109375 41.296875 11.75 
Q 45.40625 17.390625 45.40625 27.296875 
Q 45.40625 37.203125 41.296875 42.84375 
Q 37.203125 48.484375 30.078125 48.484375 
Q 22.953125 48.484375 18.875 42.84375 
Q 14.796875 37.203125 14.796875 27.296875 
z
M 45.40625 8.203125 
Q 42.578125 3.328125 38.25 0.953125 
Q 33.9375 -1.421875 27.875 -1.421875 
Q 17.96875 -1.421875 11.734375 6.484375 
Q 5.515625 14.40625 5.515625 27.296875 
Q 5.515625 40.1875 11.734375 48.09375 
Q 17.96875 56 27.875 56 
Q 33.9375 56 38.25 53.625 
Q 42.578125 51.265625 45.40625 46.390625 
L 45.40625 54.6875 
L 54.390625 54.6875 
L 54.390625 -20.796875 
L 45.40625 -20.796875 
z
" id="DejaVuSans-113"/>
        <path d="M 52 44.1875 
Q 55.375 50.25 60.0625 53.125 
Q 64.75 56 71.09375 56 
Q 79.640625 56 84.28125 50.015625 
Q 88.921875 44.046875 88.921875 33.015625 
L 88.921875 0 
L 79.890625 0 
L 79.890625 32.71875 
Q 79.890625 40.578125 77.09375 44.375 
Q 74.3125 48.1875 68.609375 48.1875 
Q 61.625 48.1875 57.5625 43.546875 
Q 53.515625 38.921875 53.515625 30.90625 
L 53.515625 0 
L 44.484375 0 
L 44.484375 32.71875 
Q 44.484375 40.625 41.703125 44.40625 
Q 38.921875 48.1875 33.109375 48.1875 
Q 26.21875 48.1875 22.15625 43.53125 
Q 18.109375 38.875 18.109375 30.90625 
L 18.109375 0 
L 9.078125 0 
L 9.078125 54.6875 
L 18.109375 54.6875 
L 18.109375 46.1875 
Q 21.1875 51.21875 25.484375 53.609375 
Q 29.78125 56 35.6875 56 
Q 41.65625 56 45.828125 52.96875 
Q 50 49.953125 52 44.1875 
z
" id="DejaVuSans-109"/>
       </defs>
       <use xlink:href="#DejaVuSans-119"/>
       <use x="81.787109" xlink:href="#DejaVuSans-101"/>
       <use x="143.310547" xlink:href="#DejaVuSans-105"/>
       <use x="171.09375" xlink:href="#DejaVuSans-122"/>
       <use x="223.583984" xlink:href="#DejaVuSans-122"/>
       <use x="276.074219" xlink:href="#DejaVuSans-95"/>
       <use x="326.074219" xlink:href="#DejaVuSans-113"/>
       <use x="389.550781" xlink:href="#DejaVuSans-101"/>
       <use x="451.074219" xlink:href="#DejaVuSans-109"/>
       <use x="548.486328" xlink:href="#DejaVuSans-117"/>
      </g>
     </g>
    </g>
    <g id="xtick_4">
     <g id="line2d_4">
      <g>
       <use style="stroke:#000000;stroke-width:0.8;" x="372.170625" xlink:href="#m151d9c4876" y="288.430125"/>
      </g>
     </g>
     <g id="text_4">
      <!-- honggfuzz -->
      <g transform="translate(326.231424 327.933221)rotate(-30)scale(0.1 -0.1)">
       <defs>
        <path d="M 54.890625 33.015625 
L 54.890625 0 
L 45.90625 0 
L 45.90625 32.71875 
Q 45.90625 40.484375 42.875 44.328125 
Q 39.84375 48.1875 33.796875 48.1875 
Q 26.515625 48.1875 22.3125 43.546875 
Q 18.109375 38.921875 18.109375 30.90625 
L 18.109375 0 
L 9.078125 0 
L 9.078125 75.984375 
L 18.109375 75.984375 
L 18.109375 46.1875 
Q 21.34375 51.125 25.703125 53.5625 
Q 30.078125 56 35.796875 56 
Q 45.21875 56 50.046875 50.171875 
Q 54.890625 44.34375 54.890625 33.015625 
z
" id="DejaVuSans-104"/>
        <path d="M 45.40625 27.984375 
Q 45.40625 37.75 41.375 43.109375 
Q 37.359375 48.484375 30.078125 48.484375 
Q 22.859375 48.484375 18.828125 43.109375 
Q 14.796875 37.75 14.796875 27.984375 
Q 14.796875 18.265625 18.828125 12.890625 
Q 22.859375 7.515625 30.078125 7.515625 
Q 37.359375 7.515625 41.375 12.890625 
Q 45.40625 18.265625 45.40625 27.984375 
z
M 54.390625 6.78125 
Q 54.390625 -7.171875 48.1875 -13.984375 
Q 42 -20.796875 29.203125 -20.796875 
Q 24.46875 -20.796875 20.265625 -20.09375 
Q 16.0625 -19.390625 12.109375 -17.921875 
L 12.109375 -9.1875 
Q 16.0625 -11.328125 19.921875 -12.34375 
Q 23.78125 -13.375 27.78125 -13.375 
Q 36.625 -13.375 41.015625 -8.765625 
Q 45.40625 -4.15625 45.40625 5.171875 
L 45.40625 9.625 
Q 42.625 4.78125 38.28125 2.390625 
Q 33.9375 0 27.875 0 
Q 17.828125 0 11.671875 7.65625 
Q 5.515625 15.328125 5.515625 27.984375 
Q 5.515625 40.671875 11.671875 48.328125 
Q 17.828125 56 27.875 56 
Q 33.9375 56 38.28125 53.609375 
Q 42.625 51.21875 45.40625 46.390625 
L 45.40625 54.6875 
L 54.390625 54.6875 
z
" id="DejaVuSans-103"/>
       </defs>
       <use xlink:href="#DejaVuSans-104"/>
       <use x="63.378906" xlink:href="#DejaVuSans-111"/>
       <use x="124.560547" xlink:href="#DejaVuSans-110"/>
       <use x="187.939453" xlink:href="#DejaVuSans-103"/>
       <use x="251.416016" xlink:href="#DejaVuSans-103"/>
       <use x="314.892578" xlink:href="#DejaVuSans-102"/>
       <use x="350.097656" xlink:href="#DejaVuSans-117"/>
       <use x="413.476562" xlink:href="#DejaVuSans-122"/>
       <use x="465.966797" xlink:href="#DejaVuSans-122"/>
      </g>
     </g>
    </g>
    <g id="text_5">
     <!-- Fuzzer (highest median coverage on the left) -->
     <g transform="translate(125.632656 346.243897)scale(0.1 -0.1)">
      <defs>
       <path d="M 9.8125 72.90625 
L 51.703125 72.90625 
L 51.703125 64.59375 
L 19.671875 64.59375 
L 19.671875 43.109375 
L 48.578125 43.109375 
L 48.578125 34.8125 
L 19.671875 34.8125 
L 19.671875 0 
L 9.8125 0 
z
" id="DejaVuSans-70"/>
       <path id="DejaVuSans-32"/>
       <path d="M 31 75.875 
Q 24.46875 64.65625 21.28125 53.65625 
Q 18.109375 42.671875 18.109375 31.390625 
Q 18.109375 20.125 21.3125 9.0625 
Q 24.515625 -2 31 -13.1875 
L 23.1875 -13.1875 
Q 15.875 -1.703125 12.234375 9.375 
Q 8.59375 20.453125 8.59375 31.390625 
Q 8.59375 42.28125 12.203125 53.3125 
Q 15.828125 64.359375 23.1875 75.875 
z
" id="DejaVuSans-40"/>
       <path d="M 18.3125 70.21875 
L 18.3125 54.6875 
L 36.8125 54.6875 
L 36.8125 47.703125 
L 18.3125 47.703125 
L 18.3125 18.015625 
Q 18.3125 11.328125 20.140625 9.421875 
Q 21.96875 7.515625 27.59375 7.515625 
L 36.8125 7.515625 
L 36.8125 0 
L 27.59375 0 
Q 17.1875 0 13.234375 3.875 
Q 9.28125 7.765625 9.28125 18.015625 
L 9.28125 47.703125 
L 2.6875 47.703125 
L 2.6875 54.6875 
L 9.28125 54.6875 
L 9.28125 70.21875 
z
" id="DejaVuSans-116"/>
       <path d="M 45.40625 46.390625 
L 45.40625 75.984375 
L 54.390625 75.984375 
L 54.390625 0 
L 45.40625 0 
L 45.40625 8.203125 
Q 42.578125 3.328125 38.25 0.953125 
Q 33.9375 -1.421875 27.875 -1.421875 
Q 17.96875 -1.421875 11.734375 6.484375 
Q 5.515625 14.40625 5.515625 27.296875 
Q 5.515625 40.1875 11.734375 48.09375 
Q 17.96875 56 27.875 56 
Q 33.9375 56 38.25 53.625 
Q 42.578125 51.265625 45.40625 46.390625 
z
M 14.796875 27.296875 
Q 14.796875 17.390625 18.875 11.75 
Q 22.953125 6.109375 30.078125 6.109375 
Q 37.203125 6.109375 41.296875 11.75 
Q 45.40625 17.390625 45.40625 27.296875 
Q 45.40625 37.203125 41.296875 42.84375 
Q 37.203125 48.484375 30.078125 48.484375 
Q 22.953125 48.484375 18.875 42.84375 
Q 14.796875 37.203125 14.796875 27.296875 
z
" id="DejaVuSans-100"/>
       <path d="M 48.78125 52.59375 
L 48.78125 44.1875 
Q 44.96875 46.296875 41.140625 47.34375 
Q 37.3125 48.390625 33.40625 48.390625 
Q 24.65625 48.390625 19.8125 42.84375 
Q 14.984375 37.3125 14.984375 27.296875 
Q 14.984375 17.28125 19.8125 11.734375 
Q 24.65625 6.203125 33.40625 6.203125 
Q 37.3125 6.203125 41.140625 7.25 
Q 44.96875 8.296875 48.78125 10.40625 
L 48.78125 2.09375 
Q 45.015625 0.34375 40.984375 -0.53125 
Q 36.96875 -1.421875 32.421875 -1.421875 
Q 20.0625 -1.421875 12.78125 6.34375 
Q 5.515625 14.109375 5.515625 27.296875 
Q 5.515625 40.671875 12.859375 48.328125 
Q 20.21875 56 33.015625 56 
Q 37.15625 56 41.109375 55.140625 
Q 45.0625 54.296875 48.78125 52.59375 
z
" id="DejaVuSans-99"/>
       <path d="M 2.984375 54.6875 
L 12.5 54.6875 
L 29.59375 8.796875 
L 46.6875 54.6875 
L 56.203125 54.6875 
L 35.6875 0 
L 23.484375 0 
z
" id="DejaVuSans-118"/>
       <path d="M 8.015625 75.875 
L 15.828125 75.875 
Q 23.140625 64.359375 26.78125 53.3125 
Q 30.421875 42.28125 30.421875 31.390625 
Q 30.421875 20.453125 26.78125 9.375 
Q 23.140625 -1.703125 15.828125 -13.1875 
L 8.015625 -13.1875 
Q 14.5 -2 17.703125 9.0625 
Q 20.90625 20.125 20.90625 31.390625 
Q 20.90625 42.671875 17.703125 53.65625 
Q 14.5 64.65625 8.015625 75.875 
z
" id="DejaVuSans-41"/>
      </defs>
      <use xlink:href="#DejaVuSans-70"/>
      <use x="52.019531" xlink:href="#DejaVuSans-117"/>
      <use x="115.398438" xlink:href="#DejaVuSans-122"/>
      <use x="167.888672" xlink:href="#DejaVuSans-122"/>
      <use x="220.378906" xlink:href="#DejaVuSans-101"/>
      <use x="281.902344" xlink:href="#DejaVuSans-114"/>
      <use x="323.015625" xlink:href="#DejaVuSans-32"/>
      <use x="354.802734" xlink:href="#DejaVuSans-40"/>
      <use x="393.816406" xlink:href="#DejaVuSans-104"/>
      <use x="457.195312" xlink:href="#DejaVuSans-105"/>
      <use x="484.978516" xlink:href="#DejaVuSans-103"/>
      <use x="548.455078" xlink:href="#DejaVuSans-104"/>
      <use x="611.833984" xlink:href="#DejaVuSans-101"/>
      <use x="673.357422" xlink:href="#DejaVuSans-115"/>
      <use x="725.457031" xlink:href="#DejaVuSans-116"/>
      <use x="764.666016" xlink:href="#DejaVuSans-32"/>
      <use x="796.453125" xlink:href="#DejaVuSans-109"/>
      <use x="893.865234" xlink:href="#DejaVuSans-101"/>
      <use x="955.388672" xlink:href="#DejaVuSans-100"/>
      <use x="1018.865234" xlink:href="#DejaVuSans-105"/>
      <use x="1046.648438" xlink:href="#DejaVuSans-97"/>
      <use x="1107.927734" xlink:href="#DejaVuSans-110"/>
      <use x="1171.306641" xlink:href="#DejaVuSans-32"/>
      <use x="1203.09375" xlink:href="#DejaVuSans-99"/>
      <use x="1258.074219" xlink:href="#DejaVuSans-111"/>
      <use x="1319.255859" xlink:href="#DejaVuSans-118"/>
      <use x="1378.435547" xlink:href="#DejaVuSans-101"/>
      <use x="1439.958984" xlink:href="#DejaVuSans-114"/>
      <use x="1481.072266" xlink:href="#DejaVuSans-97"/>
      <use x="1542.351562" xlink:href="#DejaVuSans-103"/>
      <use x="1605.828125" xlink:href="#DejaVuSans-101"/>
      <use x="1667.351562" xlink:href="#DejaVuSans-32"/>
      <use x="1699.138672" xlink:href="#DejaVuSans-111"/>
      <use x="1760.320312" xlink:href="#DejaVuSans-110"/>
      <use x="1823.699219" xlink:href="#DejaVuSans-32"/>
      <use x="1855.486328" xlink:href="#DejaVuSans-116"/>
      <use x="1894.695312" xlink:href="#DejaVuSans-104"/>
      <use x="1958.074219" xlink:href="#DejaVuSans-101"/>
      <use x="2019.597656" xlink:href="#DejaVuSans-32"/>
      <use x="2051.384766" xlink:href="#DejaVuSans-108"/>
      <use x="2079.167969" xlink:href="#DejaVuSans-101"/>
      <use x="2140.691406" xlink:href="#DejaVuSans-102"/>
      <use x="2174.146484" xlink:href="#DejaVuSans-116"/>
      <use x="2213.355469" xlink:href="#DejaVuSans-41"/>
     </g>
    </g>
   </g>
   <g id="matplotlib.axis_2">
    <g id="ytick_1">
     <g id="line2d_5">
      <defs>
       <path d="M 0 0 
L -3.5 0 
" id="m8def7ac9ab" style="stroke:#000000;stroke-width:0.8;"/>
      </defs>
      <g>
       <use style="stroke:#000000;stroke-width:0.8;" x="59.690625" xlink:href="#m8def7ac9ab" y="262.926891"/>
      </g>
     </g>
     <g id="text_6">
      <!-- 13680 -->
      <g transform="translate(20.878125 266.72611)scale(0.1 -0.1)">
       <defs>
        <path d="M 12.40625 8.296875 
L 28.515625 8.296875 
L 28.515625 63.921875 
L 10.984375 60.40625 
L 10.984375 69.390625 
L 28.421875 72.90625 
L 38.28125 72.90625 
L 38.28125 8.296875 
L 54.390625 8.296875 
L 54.390625 0 
L 12.40625 0 
z
" id="DejaVuSans-49"/>
        <path d="M 40.578125 39.3125 
Q 47.65625 37.796875 51.625 33 
Q 55.609375 28.21875 55.609375 21.1875 
Q 55.609375 10.40625 48.1875 4.484375 
Q 40.765625 -1.421875 27.09375 -1.421875 
Q 22.515625 -1.421875 17.65625 -0.515625 
Q 12.796875 0.390625 7.625 2.203125 
L 7.625 11.71875 
Q 11.71875 9.328125 16.59375 8.109375 
Q 21.484375 6.890625 26.8125 6.890625 
Q 36.078125 6.890625 40.9375 10.546875 
Q 45.796875 14.203125 45.796875 21.1875 
Q 45.796875 27.640625 41.28125 31.265625 
Q 36.765625 34.90625 28.71875 34.90625 
L 20.21875 34.90625 
L 20.21875 43.015625 
L 29.109375 43.015625 
Q 36.375 43.015625 40.234375 45.921875 
Q 44.09375 48.828125 44.09375 54.296875 
Q 44.09375 59.90625 40.109375 62.90625 
Q 36.140625 65.921875 28.71875 65.921875 
Q 24.65625 65.921875 20.015625 65.03125 
Q 15.375 64.15625 9.8125 62.3125 
L 9.8125 71.09375 
Q 15.4375 72.65625 20.34375 73.4375 
Q 25.25 74.21875 29.59375 74.21875 
Q 40.828125 74.21875 47.359375 69.109375 
Q 53.90625 64.015625 53.90625 55.328125 
Q 53.90625 49.265625 50.4375 45.09375 
Q 46.96875 40.921875 40.578125 39.3125 
z
" id="DejaVuSans-51"/>
        <path d="M 33.015625 40.375 
Q 26.375 40.375 22.484375 35.828125 
Q 18.609375 31.296875 18.609375 23.390625 
Q 18.609375 15.53125 22.484375 10.953125 
Q 26.375 6.390625 33.015625 6.390625 
Q 39.65625 6.390625 43.53125 10.953125 
Q 47.40625 15.53125 47.40625 23.390625 
Q 47.40625 31.296875 43.53125 35.828125 
Q 39.65625 40.375 33.015625 40.375 
z
M 52.59375 71.296875 
L 52.59375 62.3125 
Q 48.875 64.0625 45.09375 64.984375 
Q 41.3125 65.921875 37.59375 65.921875 
Q 27.828125 65.921875 22.671875 59.328125 
Q 17.53125 52.734375 16.796875 39.40625 
Q 19.671875 43.65625 24.015625 45.921875 
Q 28.375 48.1875 33.59375 48.1875 
Q 44.578125 48.1875 50.953125 41.515625 
Q 57.328125 34.859375 57.328125 23.390625 
Q 57.328125 12.15625 50.6875 5.359375 
Q 44.046875 -1.421875 33.015625 -1.421875 
Q 20.359375 -1.421875 13.671875 8.265625 
Q 6.984375 17.96875 6.984375 36.375 
Q 6.984375 53.65625 15.1875 63.9375 
Q 23.390625 74.21875 37.203125 74.21875 
Q 40.921875 74.21875 44.703125 73.484375 
Q 48.484375 72.75 52.59375 71.296875 
z
" id="DejaVuSans-54"/>
        <path d="M 31.78125 34.625 
Q 24.75 34.625 20.71875 30.859375 
Q 16.703125 27.09375 16.703125 20.515625 
Q 16.703125 13.921875 20.71875 10.15625 
Q 24.75 6.390625 31.78125 6.390625 
Q 38.8125 6.390625 42.859375 10.171875 
Q 46.921875 13.96875 46.921875 20.515625 
Q 46.921875 27.09375 42.890625 30.859375 
Q 38.875 34.625 31.78125 34.625 
z
M 21.921875 38.8125 
Q 15.578125 40.375 12.03125 44.71875 
Q 8.5 49.078125 8.5 55.328125 
Q 8.5 64.0625 14.71875 69.140625 
Q 20.953125 74.21875 31.78125 74.21875 
Q 42.671875 74.21875 48.875 69.140625 
Q 55.078125 64.0625 55.078125 55.328125 
Q 55.078125 49.078125 51.53125 44.71875 
Q 48 40.375 41.703125 38.8125 
Q 48.828125 37.15625 52.796875 32.3125 
Q 56.78125 27.484375 56.78125 20.515625 
Q 56.78125 9.90625 50.3125 4.234375 
Q 43.84375 -1.421875 31.78125 -1.421875 
Q 19.734375 -1.421875 13.25 4.234375 
Q 6.78125 9.90625 6.78125 20.515625 
Q 6.78125 27.484375 10.78125 32.3125 
Q 14.796875 37.15625 21.921875 38.8125 
z
M 18.3125 54.390625 
Q 18.3125 48.734375 21.84375 45.5625 
Q 25.390625 42.390625 31.78125 42.390625 
Q 38.140625 42.390625 41.71875 45.5625 
Q 45.3125 48.734375 45.3125 54.390625 
Q 45.3125 60.0625 41.71875 63.234375 
Q 38.140625 66.40625 31.78125 66.40625 
Q 25.390625 66.40625 21.84375 63.234375 
Q 18.3125 60.0625 18.3125 54.390625 
z
" id="DejaVuSans-56"/>
        <path d="M 31.78125 66.40625 
Q 24.171875 66.40625 20.328125 58.90625 
Q 16.5 51.421875 16.5 36.375 
Q 16.5 21.390625 20.328125 13.890625 
Q 24.171875 6.390625 31.78125 6.390625 
Q 39.453125 6.390625 43.28125 13.890625 
Q 47.125 21.390625 47.125 36.375 
Q 47.125 51.421875 43.28125 58.90625 
Q 39.453125 66.40625 31.78125 66.40625 
z
M 31.78125 74.21875 
Q 44.046875 74.21875 50.515625 64.515625 
Q 56.984375 54.828125 56.984375 36.375 
Q 56.984375 17.96875 50.515625 8.265625 
Q 44.046875 -1.421875 31.78125 -1.421875 
Q 19.53125 -1.421875 13.0625 8.265625 
Q 6.59375 17.96875 6.59375 36.375 
Q 6.59375 54.828125 13.0625 64.515625 
Q 19.53125 74.21875 31.78125 74.21875 
z
" id="DejaVuSans-48"/>
       </defs>
       <use xlink:href="#DejaVuSans-49"/>
       <use x="63.623047" xlink:href="#DejaVuSans-51"/>
       <use x="127.246094" xlink:href="#DejaVuSans-54"/>
       <use x="190.869141" xlink:href="#DejaVuSans-56"/>
       <use x="254.492188" xlink:href="#DejaVuSans-48"/>
      </g>
     </g>
    </g>
    <g id="ytick_2">
     <g id="line2d_6">
      <g>
       <use style="stroke:#000000;stroke-width:0.8;" x="59.690625" xlink:href="#m8def7ac9ab" y="226.114926"/>
      </g>
     </g>
     <g id="text_7">
      <!-- 13700 -->
      <g transform="translate(20.878125 229.914145)scale(0.1 -0.1)">
       <defs>
        <path d="M 8.203125 72.90625 
L 55.078125 72.90625 
L 55.078125 68.703125 
L 28.609375 0 
L 18.3125 0 
L 43.21875 64.59375 
L 8.203125 64.59375 
z
" id="DejaVuSans-55"/>
       </defs>
       <use xlink:href="#DejaVuSans-49"/>
       <use x="63.623047" xlink:href="#DejaVuSans-51"/>
       <use x="127.246094" xlink:href="#DejaVuSans-55"/>
       <use x="190.869141" xlink:href="#DejaVuSans-48"/>
       <use x="254.492188" xlink:href="#DejaVuSans-48"/>
      </g>
     </g>
    </g>
    <g id="ytick_3">
     <g id="line2d_7">
      <g>
       <use style="stroke:#000000;stroke-width:0.8;" x="59.690625" xlink:href="#m8def7ac9ab" y="189.302961"/>
      </g>
     </g>
     <g id="text_8">
      <!-- 13720 -->
      <g transform="translate(20.878125 193.10218)scale(0.1 -0.1)">
       <defs>
        <path d="M 19.1875 8.296875 
L 53.609375 8.296875 
L 53.609375 0 
L 7.328125 0 
L 7.328125 8.296875 
Q 12.9375 14.109375 22.625 23.890625 
Q 32.328125 33.6875 34.8125 36.53125 
Q 39.546875 41.84375 41.421875 45.53125 
Q 43.3125 49.21875 43.3125 52.78125 
Q 43.3125 58.59375 39.234375 62.25 
Q 35.15625 65.921875 28.609375 65.921875 
Q 23.96875 65.921875 18.8125 64.3125 
Q 13.671875 62.703125 7.8125 59.421875 
L 7.8125 69.390625 
Q 13.765625 71.78125 18.9375 73 
Q 24.125 74.21875 28.421875 74.21875 
Q 39.75 74.21875 46.484375 68.546875 
Q 53.21875 62.890625 53.21875 53.421875 
Q 53.21875 48.921875 51.53125 44.890625 
Q 49.859375 40.875 45.40625 35.40625 
Q 44.1875 33.984375 37.640625 27.21875 
Q 31.109375 20.453125 19.1875 8.296875 
z
" id="DejaVuSans-50"/>
       </defs>
       <use xlink:href="#DejaVuSans-49"/>
       <use x="63.623047" xlink:href="#DejaVuSans-51"/>
       <use x="127.246094" xlink:href="#DejaVuSans-55"/>
       <use x="190.869141" xlink:href="#DejaVuSans-50"/>
       <use x="254.492188" xlink:href="#DejaVuSans-48"/>
      </g>
     </g>
    </g>
    <g id="ytick_4">
     <g id="line2d_8">
      <g>
       <use style="stroke:#000000;stroke-width:0.8;" x="59.690625" xlink:href="#m8def7ac9ab" y="152.490996"/>
      </g>
     </g>
     <g id="text_9">
      <!-- 13740 -->
      <g transform="translate(20.878125 156.290214)scale(0.1 -0.1)">
       <defs>
        <path d="M 37.796875 64.3125 
L 12.890625 25.390625 
L 37.796875 25.390625 
z
M 35.203125 72.90625 
L 47.609375 72.90625 
L 47.609375 25.390625 
L 58.015625 25.390625 
L 58.015625 17.1875 
L 47.609375 17.1875 
L 47.609375 0 
L 37.796875 0 
L 37.796875 17.1875 
L 4.890625 17.1875 
L 4.890625 26.703125 
z
" id="DejaVuSans-52"/>
       </defs>
       <use xlink:href="#DejaVuSans-49"/>
       <use x="63.623047" xlink:href="#DejaVuSans-51"/>
       <use x="127.246094" xlink:href="#DejaVuSans-55"/>
       <use x="190.869141" xlink:href="#DejaVuSans-52"/>
       <use x="254.492188" xlink:href="#DejaVuSans-48"/>
      </g>
     </g>
    </g>
    <g id="ytick_5">
     <g id="line2d_9">
      <g>
       <use style="stroke:#000000;stroke-width:0.8;" x="59.690625" xlink:href="#m8def7ac9ab" y="115.67903"/>
      </g>
     </g>
     <g id="text_10">
      <!-- 13760 -->
      <g transform="translate(20.878125 119.478249)scale(0.1 -0.1)">
       <use xlink:href="#DejaVuSans-49"/>
       <use x="63.623047" xlink:href="#DejaVuSans-51"/>
       <use x="127.246094" xlink:href="#DejaVuSans-55"/>
       <use x="190.869141" xlink:href="#DejaVuSans-54"/>
       <use x="254.492188" xlink:href="#DejaVuSans-48"/>
      </g>
     </g>
    </g>
    <g id="ytick_6">
     <g id="line2d_10">
      <g>
       <use style="stroke:#000000;stroke-width:0.8;" x="59.690625" xlink:href="#m8def7ac9ab" y="78.867065"/>
      </g>
     </g>
     <g id="text_11">
      <!-- 13780 -->
      <g transform="translate(20.878125 82.666284)scale(0.1 -0.1)">
       <use xlink:href="#DejaVuSans-49"/>
       <use x="63.623047" xlink:href="#DejaVuSans-51"/>
       <use x="127.246094" xlink:href="#DejaVuSans-55"/>
       <use x="190.869141" xlink:href="#DejaVuSans-56"/>
       <use x="254.492188" xlink:href="#DejaVuSans-48"/>
      </g>
     </g>
    </g>
    <g id="ytick_7">
     <g id="line2d_11">
      <g>
       <use style="stroke:#000000;stroke-width:0.8;" x="59.690625" xlink:href="#m8def7ac9ab" y="42.0551"/>
      </g>
     </g>
     <g id="text_12">
      <!-- 13800 -->
      <g transform="translate(20.878125 45.854318)scale(0.1 -0.1)">
       <use xlink:href="#DejaVuSans-49"/>
       <use x="63.623047" xlink:href="#DejaVuSans-51"/>
       <use x="127.246094" xlink:href="#DejaVuSans-56"/>
       <use x="190.869141" xlink:href="#DejaVuSans-48"/>
       <use x="254.492188" xlink:href="#DejaVuSans-48"/>
      </g>
     </g>
    </g>
    <g id="text_13">
     <!-- Reached region coverage -->
     <g transform="translate(14.798438 219.136625)rotate(-90)scale(0.1 -0.1)">
      <defs>
       <path d="M 44.390625 34.1875 
Q 47.5625 33.109375 50.5625 29.59375 
Q 53.5625 26.078125 56.59375 19.921875 
L 66.609375 0 
L 56 0 
L 46.6875 18.703125 
Q 43.0625 26.03125 39.671875 28.421875 
Q 36.28125 30.8125 30.421875 30.8125 
L 19.671875 30.8125 
L 19.671875 0 
L 9.8125 0 
L 9.8125 72.90625 
L 32.078125 72.90625 
Q 44.578125 72.90625 50.734375 67.671875 
Q 56.890625 62.453125 56.890625 51.90625 
Q 56.890625 45.015625 53.6875 40.46875 
Q 50.484375 35.9375 44.390625 34.1875 
z
M 19.671875 64.796875 
L 19.671875 38.921875 
L 32.078125 38.921875 
Q 39.203125 38.921875 42.84375 42.21875 
Q 46.484375 45.515625 46.484375 51.90625 
Q 46.484375 58.296875 42.84375 61.546875 
Q 39.203125 64.796875 32.078125 64.796875 
z
" id="DejaVuSans-82"/>
      </defs>
      <use xlink:href="#DejaVuSans-82"/>
      <use x="64.982422" xlink:href="#DejaVuSans-101"/>
      <use x="126.505859" xlink:href="#DejaVuSans-97"/>
      <use x="187.785156" xlink:href="#DejaVuSans-99"/>
      <use x="242.765625" xlink:href="#DejaVuSans-104"/>
      <use x="306.144531" xlink:href="#DejaVuSans-101"/>
      <use x="367.667969" xlink:href="#DejaVuSans-100"/>
      <use x="431.144531" xlink:href="#DejaVuSans-32"/>
      <use x="462.931641" xlink:href="#DejaVuSans-114"/>
      <use x="501.794922" xlink:href="#DejaVuSans-101"/>
      <use x="563.318359" xlink:href="#DejaVuSans-103"/>
      <use x="626.794922" xlink:href="#DejaVuSans-105"/>
      <use x="654.578125" xlink:href="#DejaVuSans-111"/>
      <use x="715.759766" xlink:href="#DejaVuSans-110"/>
      <use x="779.138672" xlink:href="#DejaVuSans-32"/>
      <use x="810.925781" xlink:href="#DejaVuSans-99"/>
      <use x="865.90625" xlink:href="#DejaVuSans-111"/>
      <use x="927.087891" xlink:href="#DejaVuSans-118"/>
      <use x="986.267578" xlink:href="#DejaVuSans-101"/>
      <use x="1047.791016" xlink:href="#DejaVuSans-114"/>
      <use x="1088.904297" xlink:href="#DejaVuSans-97"/>
      <use x="1150.183594" xlink:href="#DejaVuSans-103"/>
      <use x="1213.660156" xlink:href="#DejaVuSans-101"/>
     </g>
    </g>
   </g>
   <g id="line2d_12">
    <path clip-path="url(#p0c00b6b137)" d="M 104.330625 111.997834 
L 104.330625 67.823475 
" style="fill:none;stroke:#3f3f3f;stroke-linecap:square;stroke-width:1.5;"/>
   </g>
   <g id="line2d_13">
    <path clip-path="url(#p0c00b6b137)" d="M 104.330625 111.997834 
L 104.330625 67.823475 
" style="fill:none;stroke:#3f3f3f;stroke-linecap:square;stroke-width:4.5;"/>
   </g>
   <g id="line2d_14">
    <path clip-path="url(#p0c00b6b137)" d="M 193.610625 161.693987 
L 193.610625 95.432449 
" style="fill:none;stroke:#3f3f3f;stroke-linecap:square;stroke-width:1.5;"/>
   </g>
   <g id="line2d_15">
    <path clip-path="url(#p0c00b6b137)" d="M 193.610625 148.809799 
L 193.610625 104.635441 
" style="fill:none;stroke:#3f3f3f;stroke-linecap:square;stroke-width:4.5;"/>
   </g>
   <g id="line2d_16">
    <path clip-path="url(#p0c00b6b137)" d="M 282.890625 246.361507 
L 282.890625 205.868345 
" style="fill:none;stroke:#3f3f3f;stroke-linecap:square;stroke-width:1.5;"/>
   </g>
   <g id="line2d_17">
    <path clip-path="url(#p0c00b6b137)" d="M 282.890625 244.520909 
L 282.890625 205.868345 
" style="fill:none;stroke:#3f3f3f;stroke-linecap:square;stroke-width:4.5;"/>
   </g>
   <g id="line2d_18">
    <path clip-path="url(#p0c00b6b137)" d="M 372.170625 251.883302 
L 372.170625 246.361507 
" style="fill:none;stroke:#3f3f3f;stroke-linecap:square;stroke-width:1.5;"/>
   </g>
   <g id="line2d_19">
    <path clip-path="url(#p0c00b6b137)" d="M 372.170625 251.883302 
L 372.170625 249.122404 
" style="fill:none;stroke:#3f3f3f;stroke-linecap:square;stroke-width:4.5;"/>
   </g>
   <g id="patch_3">
    <path d="M 59.690625 262.926891 
L 59.690625 42.0551 
" style="fill:none;stroke:#000000;stroke-linecap:square;stroke-linejoin:miter;stroke-width:0.8;"/>
   </g>
   <g id="patch_4">
    <path d="M 104.330625 288.430125 
L 372.170625 288.430125 
" style="fill:none;stroke:#000000;stroke-linecap:square;stroke-linejoin:miter;stroke-width:0.8;"/>
   </g>
   <g id="PathCollection_1">
    <defs>
     <path d="M 0 1.5 
C 0.397805 1.5 0.77937 1.341951 1.06066 1.06066 
C 1.341951 0.77937 1.5 0.397805 1.5 0 
C 1.5 -0.397805 1.341951 -0.77937 1.06066 -1.06066 
C 0.77937 -1.341951 0.397805 -1.5 0 -1.5 
C -0.397805 -1.5 -0.77937 -1.341951 -1.06066 -1.06066 
C -1.341951 -0.77937 -1.5 -0.397805 -1.5 0 
C -1.5 0.397805 -1.341951 0.77937 -1.06066 1.06066 
C -0.77937 1.341951 -0.397805 1.5 0 1.5 
z
" id="m9cd8e05991" style="stroke:#3f3f3f;"/>
    </defs>
    <g clip-path="url(#p0c00b6b137)">
     <use style="fill:#ffffff;stroke:#3f3f3f;" x="104.330625" xlink:href="#m9cd8e05991" y="104.635441"/>
    </g>
   </g>
   <g id="PathCollection_2">
    <g clip-path="url(#p0c00b6b137)">
     <use style="fill:#ffffff;stroke:#3f3f3f;" x="193.610625" xlink:href="#m9cd8e05991" y="145.128602"/>
    </g>
   </g>
   <g id="PathCollection_3">
    <g clip-path="url(#p0c00b6b137)">
     <use style="fill:#ffffff;stroke:#3f3f3f;" x="282.890625" xlink:href="#m9cd8e05991" y="238.999114"/>
    </g>
   </g>
   <g id="PathCollection_4">
    <g clip-path="url(#p0c00b6b137)">
     <use style="fill:#ffffff;stroke:#3f3f3f;" x="372.170625" xlink:href="#m9cd8e05991" y="251.883302"/>
    </g>
   </g>
   <g id="text_14">
    <!-- openssl_x509 (17h:15m, 3 trials/fuzzer) -->
    <g transform="translate(118.941563 16.318125)scale(0.12 -0.12)">
     <defs>
      <path d="M 54.890625 54.6875 
L 35.109375 28.078125 
L 55.90625 0 
L 45.3125 0 
L 29.390625 21.484375 
L 13.484375 0 
L 2.875 0 
L 24.125 28.609375 
L 4.6875 54.6875 
L 15.28125 54.6875 
L 29.78125 35.203125 
L 44.28125 54.6875 
z
" id="DejaVuSans-120"/>
      <path d="M 10.796875 72.90625 
L 49.515625 72.90625 
L 49.515625 64.59375 
L 19.828125 64.59375 
L 19.828125 46.734375 
Q 21.96875 47.46875 24.109375 47.828125 
Q 26.265625 48.1875 28.421875 48.1875 
Q 40.625 48.1875 47.75 41.5 
Q 54.890625 34.8125 54.890625 23.390625 
Q 54.890625 11.625 47.5625 5.09375 
Q 40.234375 -1.421875 26.90625 -1.421875 
Q 22.3125 -1.421875 17.546875 -0.640625 
Q 12.796875 0.140625 7.71875 1.703125 
L 7.71875 11.625 
Q 12.109375 9.234375 16.796875 8.0625 
Q 21.484375 6.890625 26.703125 6.890625 
Q 35.15625 6.890625 40.078125 11.328125 
Q 45.015625 15.765625 45.015625 23.390625 
Q 45.015625 31 40.078125 35.4375 
Q 35.15625 39.890625 26.703125 39.890625 
Q 22.75 39.890625 18.8125 39.015625 
Q 14.890625 38.140625 10.796875 36.28125 
z
" id="DejaVuSans-53"/>
      <path d="M 10.984375 1.515625 
L 10.984375 10.5 
Q 14.703125 8.734375 18.5 7.8125 
Q 22.3125 6.890625 25.984375 6.890625 
Q 35.75 6.890625 40.890625 13.453125 
Q 46.046875 20.015625 46.78125 33.40625 
Q 43.953125 29.203125 39.59375 26.953125 
Q 35.25 24.703125 29.984375 24.703125 
Q 19.046875 24.703125 12.671875 31.3125 
Q 6.296875 37.9375 6.296875 49.421875 
Q 6.296875 60.640625 12.9375 67.421875 
Q 19.578125 74.21875 30.609375 74.21875 
Q 43.265625 74.21875 49.921875 64.515625 
Q 56.59375 54.828125 56.59375 36.375 
Q 56.59375 19.140625 48.40625 8.859375 
Q 40.234375 -1.421875 26.421875 -1.421875 
Q 22.703125 -1.421875 18.890625 -0.6875 
Q 15.09375 0.046875 10.984375 1.515625 
z
M 30.609375 32.421875 
Q 37.25 32.421875 41.125 36.953125 
Q 45.015625 41.5 45.015625 49.421875 
Q 45.015625 57.28125 41.125 61.84375 
Q 37.25 66.40625 30.609375 66.40625 
Q 23.96875 66.40625 20.09375 61.84375 
Q 16.21875 57.28125 16.21875 49.421875 
Q 16.21875 41.5 20.09375 36.953125 
Q 23.96875 32.421875 30.609375 32.421875 
z
" id="DejaVuSans-57"/>
      <path d="M 11.71875 12.40625 
L 22.015625 12.40625 
L 22.015625 0 
L 11.71875 0 
z
M 11.71875 51.703125 
L 22.015625 51.703125 
L 22.015625 39.3125 
L 11.71875 39.3125 
z
" id="DejaVuSans-58"/>
      <path d="M 11.71875 12.40625 
L 22.015625 12.40625 
L 22.015625 4 
L 14.015625 -11.625 
L 7.71875 -11.625 
L 11.71875 4 
z
" id="DejaVuSans-44"/>
      <path d="M 25.390625 72.90625 
L 33.6875 72.90625 
L 8.296875 -9.28125 
L 0 -9.28125 
z
" id="DejaVuSans-47"/>
     </defs>
     <use xlink:href="#DejaVuSans-111"/>
     <use x="61.181641" xlink:href="#DejaVuSans-112"/>
     <use x="124.658203" xlink:href="#DejaVuSans-101"/>
     <use x="186.181641" xlink:href="#DejaVuSans-110"/>
     <use x="249.560547" xlink:href="#DejaVuSans-115"/>
     <use x="301.660156" xlink:href="#DejaVuSans-115"/>
     <use x="353.759766" xlink:href="#DejaVuSans-108"/>
     <use x="381.542969" xlink:href="#DejaVuSans-95"/>
     <use x="431.542969" xlink:href="#DejaVuSans-120"/>
     <use x="490.722656" xlink:href="#DejaVuSans-53"/>
     <use x="554.345703" xlink:href="#DejaVuSans-48"/>
     <use x="617.96875" xlink:href="#DejaVuSans-57"/>
     <use x="681.591797" xlink:href="#DejaVuSans-32"/>
     <use x="713.378906" xlink:href="#DejaVuSans-40"/>
     <use x="752.392578" xlink:href="#DejaVuSans-49"/>
     <use x="816.015625" xlink:href="#DejaVuSans-55"/>
     <use x="879.638672" xlink:href="#DejaVuSans-104"/>
     <use x="943.017578" xlink:href="#DejaVuSans-58"/>
     <use x="976.708984" xlink:href="#DejaVuSans-49"/>
     <use x="1040.332031" xlink:href="#DejaVuSans-53"/>
     <use x="1103.955078" xlink:href="#DejaVuSans-109"/>
     <use x="1201.367188" xlink:href="#DejaVuSans-44"/>
     <use x="1233.154297" xlink:href="#DejaVuSans-32"/>
     <use x="1264.941406" xlink:href="#DejaVuSans-51"/>
     <use x="1328.564453" xlink:href="#DejaVuSans-32"/>
     <use x="1360.351562" xlink:href="#DejaVuSans-116"/>
     <use x="1399.560547" xlink:href="#DejaVuSans-114"/>
     <use x="1440.673828" xlink:href="#DejaVuSans-105"/>
     <use x="1468.457031" xlink:href="#DejaVuSans-97"/>
     <use x="1529.736328" xlink:href="#DejaVuSans-108"/>
     <use x="1557.519531" xlink:href="#DejaVuSans-115"/>
     <use x="1609.619141" xlink:href="#DejaVuSans-47"/>
     <use x="1643.310547" xlink:href="#DejaVuSans-102"/>
     <use x="1678.515625" xlink:href="#DejaVuSans-117"/>
     <use x="1741.894531" xlink:href="#DejaVuSans-122"/>
     <use x="1794.384766" xlink:href="#DejaVuSans-122"/>
     <use x="1846.875" xlink:href="#DejaVuSans-101"/>
     <use x="1908.398438" xlink:href="#DejaVuSans-114"/>
     <use x="1949.511719" xlink:href="#DejaVuSans-41"/>
    </g>
   </g>
  </g>
 </g>
 <defs>
  <clipPath id="p0c00b6b137">
   <rect height="266.112" width="357.12" x="59.690625" y="22.318125"/>
  </clipPath>
 </defs>
</svg>
