<?xml version="1.0" encoding="utf-8" standalone="no"?>
<!DOCTYPE svg PUBLIC "-//W3C//DTD SVG 1.1//EN"
  "http://www.w3.org/Graphics/SVG/1.1/DTD/svg11.dtd">
<!-- Created with matplotlib (https://matplotlib.org/) -->
<svg height="355.523584pt" version="1.1" viewBox="0 0 424.010625 355.523584" width="424.010625pt" xmlns="http://www.w3.org/2000/svg" xmlns:xlink="http://www.w3.org/1999/xlink">
 <metadata>
  <rdf:RDF xmlns:cc="http://creativecommons.org/ns#" xmlns:dc="http://purl.org/dc/elements/1.1/" xmlns:rdf="http://www.w3.org/1999/02/22-rdf-syntax-ns#">
   <cc:Work>
    <dc:type rdf:resource="http://purl.org/dc/dcmitype/StillImage"/>
    <dc:date>2020-10-25T18:29:25.669844</dc:date>
    <dc:format>image/svg+xml</dc:format>
    <dc:creator>
     <cc:Agent>
      <dc:title>Matplotlib v3.3.2, https://matplotlib.org/</dc:title>
     </cc:Agent>
    </dc:creator>
   </cc:Work>
  </rdf:RDF>
 </metadata>
 <defs>
  <style type="text/css">*{stroke-linecap:butt;stroke-linejoin:round;}</style>
 </defs>
 <g id="figure_1">
  <g id="patch_1">
   <path d="M 0 355.523584 
L 424.010625 355.523584 
L 424.010625 0 
L 0 0 
z
" style="fill:#ffffff;"/>
  </g>
  <g id="axes_1">
   <g id="patch_2">
    <path d="M 59.690625 288.430125 
L 416.810625 288.430125 
L 416.810625 22.318125 
L 59.690625 22.318125 
z
" style="fill:#ffffff;"/>
   </g>
   <g id="PolyCollection_1">
    <defs>
     <path d="M 104.382777 -174.717404 
L 104.278473 -174.717404 
L 104.270292 -176.196112 
L 104.261209 -177.67482 
L 104.251193 -179.153527 
L 104.240228 -180.632235 
L 104.228309 -182.110942 
L 104.215448 -183.58965 
L 104.201673 -185.068358 
L 104.187031 -186.547065 
L 104.171589 -188.025773 
L 104.155433 -189.504481 
L 104.138669 -190.983188 
L 104.12142 -192.461896 
L 104.103828 -193.940603 
L 104.086048 -195.419311 
L 104.068246 -196.898019 
L 104.050598 -198.376726 
L 104.033281 -199.855434 
L 104.016471 -201.334142 
L 104.000337 -202.812849 
L 103.985034 -204.291557 
L 103.970702 -205.770264 
L 103.957453 -207.248972 
L 103.945372 -208.72768 
L 103.93451 -210.206387 
L 103.924878 -211.685095 
L 103.916446 -213.163803 
L 103.909143 -214.64251 
L 103.902849 -216.121218 
L 103.897403 -217.599925 
L 103.8926 -219.078633 
L 103.888194 -220.557341 
L 103.883906 -222.036048 
L 103.879425 -223.514756 
L 103.874417 -224.993464 
L 103.868533 -226.472171 
L 103.861416 -227.950879 
L 103.852711 -229.429586 
L 103.842077 -230.908294 
L 103.82919 -232.387002 
L 103.81376 -233.865709 
L 103.795535 -235.344417 
L 103.774313 -236.823125 
L 103.749947 -238.301832 
L 103.722351 -239.78054 
L 103.69151 -241.259247 
L 103.657478 -242.737955 
L 103.620384 -244.216663 
L 103.580431 -245.69537 
L 103.537898 -247.174078 
L 103.493131 -248.652786 
L 103.446545 -250.131493 
L 103.398615 -251.610201 
L 103.349871 -253.088908 
L 103.300883 -254.567616 
L 103.252259 -256.046324 
L 103.20463 -257.525031 
L 103.158636 -259.003739 
L 103.114921 -260.482447 
L 103.074112 -261.961154 
L 103.036813 -263.439862 
L 103.003593 -264.918569 
L 102.974969 -266.397277 
L 102.951404 -267.875985 
L 102.933291 -269.354692 
L 102.920949 -270.8334 
L 102.914613 -272.312108 
L 102.914436 -273.790815 
L 102.920478 -275.269523 
L 102.932715 -276.74823 
L 102.951028 -278.226938 
L 102.975219 -279.705646 
L 103.005006 -281.184353 
L 103.040034 -282.663061 
L 103.07988 -284.141769 
L 103.124068 -285.620476 
L 103.172072 -287.099184 
L 103.223331 -288.577891 
L 103.27726 -290.056599 
L 103.33326 -291.535307 
L 103.390732 -293.014014 
L 103.449085 -294.492722 
L 103.507747 -295.97143 
L 103.566176 -297.450137 
L 103.623865 -298.928845 
L 103.680352 -300.407552 
L 103.735223 -301.88626 
L 103.788117 -303.364968 
L 103.838729 -304.843675 
L 103.886809 -306.322383 
L 103.932164 -307.801091 
L 103.974655 -309.279798 
L 104.014197 -310.758506 
L 104.050751 -312.237213 
L 104.084323 -313.715921 
L 104.114958 -315.194629 
L 104.142737 -316.673336 
L 104.167767 -318.152044 
L 104.190181 -319.630752 
L 104.210128 -321.109459 
L 104.451122 -321.109459 
L 104.451122 -321.109459 
L 104.471069 -319.630752 
L 104.493483 -318.152044 
L 104.518513 -316.673336 
L 104.546292 -315.194629 
L 104.576927 -313.715921 
L 104.610499 -312.237213 
L 104.647053 -310.758506 
L 104.686595 -309.279798 
L 104.729086 -307.801091 
L 104.774441 -306.322383 
L 104.822521 -304.843675 
L 104.873133 -303.364968 
L 104.926027 -301.88626 
L 104.980898 -300.407552 
L 105.037385 -298.928845 
L 105.095074 -297.450137 
L 105.153503 -295.97143 
L 105.212165 -294.492722 
L 105.270518 -293.014014 
L 105.32799 -291.535307 
L 105.38399 -290.056599 
L 105.437919 -288.577891 
L 105.489178 -287.099184 
L 105.537182 -285.620476 
L 105.58137 -284.141769 
L 105.621216 -282.663061 
L 105.656244 -281.184353 
L 105.686031 -279.705646 
L 105.710222 -278.226938 
L 105.728535 -276.74823 
L 105.740772 -275.269523 
L 105.746814 -273.790815 
L 105.746637 -272.312108 
L 105.740301 -270.8334 
L 105.727959 -269.354692 
L 105.709846 -267.875985 
L 105.686281 -266.397277 
L 105.657657 -264.918569 
L 105.624437 -263.439862 
L 105.587138 -261.961154 
L 105.546329 -260.482447 
L 105.502614 -259.003739 
L 105.45662 -257.525031 
L 105.408991 -256.046324 
L 105.360367 -254.567616 
L 105.311379 -253.088908 
L 105.262635 -251.610201 
L 105.214705 -250.131493 
L 105.168119 -248.652786 
L 105.123352 -247.174078 
L 105.080819 -245.69537 
L 105.040866 -244.216663 
L 105.003772 -242.737955 
L 104.96974 -241.259247 
L 104.938899 -239.78054 
L 104.911303 -238.301832 
L 104.886937 -236.823125 
L 104.865715 -235.344417 
L 104.84749 -233.865709 
L 104.83206 -232.387002 
L 104.819173 -230.908294 
L 104.808539 -229.429586 
L 104.799834 -227.950879 
L 104.792717 -226.472171 
L 104.786833 -224.993464 
L 104.781825 -223.514756 
L 104.777344 -222.036048 
L 104.773056 -220.557341 
L 104.76865 -219.078633 
L 104.763847 -217.599925 
L 104.758401 -216.121218 
L 104.752107 -214.64251 
L 104.744804 -213.163803 
L 104.736372 -211.685095 
L 104.72674 -210.206387 
L 104.715878 -208.72768 
L 104.703797 -207.248972 
L 104.690548 -205.770264 
L 104.676216 -204.291557 
L 104.660913 -202.812849 
L 104.644779 -201.334142 
L 104.627969 -199.855434 
L 104.610652 -198.376726 
L 104.593004 -196.898019 
L 104.575202 -195.419311 
L 104.557422 -193.940603 
L 104.53983 -192.461896 
L 104.522581 -190.983188 
L 104.505817 -189.504481 
L 104.489661 -188.025773 
L 104.474219 -186.547065 
L 104.459577 -185.068358 
L 104.445802 -183.58965 
L 104.432941 -182.110942 
L 104.421022 -180.632235 
L 104.410057 -179.153527 
L 104.400041 -177.67482 
L 104.390958 -176.196112 
L 104.382777 -174.717404 
z
" id="mf428625b24" style="stroke:#3f3f3f;stroke-width:1.5;"/>
    </defs>
    <g clip-path="url(#pa08152008c)">
     <use style="fill:#c03d3e;stroke:#3f3f3f;stroke-width:1.5;" x="0" xlink:href="#mf428625b24" y="355.523584"/>
    </g>
   </g>
   <g id="PolyCollection_2">
    <defs>
     <path d="M 193.789106 -180.858453 
L 193.432144 -180.858453 
L 193.40253 -182.017655 
L 193.369268 -183.176856 
L 193.332148 -184.336058 
L 193.290991 -185.49526 
L 193.245658 -186.654461 
L 193.196061 -187.813663 
L 193.142166 -188.972865 
L 193.084008 -190.132066 
L 193.021694 -191.291268 
L 192.955412 -192.45047 
L 192.885434 -193.609671 
L 192.812122 -194.768873 
L 192.735927 -195.928074 
L 192.65739 -197.087276 
L 192.577138 -198.246478 
L 192.495877 -199.405679 
L 192.414385 -200.564881 
L 192.333499 -201.724083 
L 192.254106 -202.883284 
L 192.177119 -204.042486 
L 192.103468 -205.201687 
L 192.034078 -206.360889 
L 191.969845 -207.520091 
L 191.911624 -208.679292 
L 191.860204 -209.838494 
L 191.816289 -210.997696 
L 191.780483 -212.156897 
L 191.753276 -213.316099 
L 191.735026 -214.4753 
L 191.725955 -215.634502 
L 191.726142 -216.793704 
L 191.735515 -217.952905 
L 191.753861 -219.112107 
L 191.780822 -220.271309 
L 191.815907 -221.43051 
L 191.858505 -222.589712 
L 191.907894 -223.748913 
L 191.963261 -224.908115 
L 192.023721 -226.067317 
L 192.088333 -227.226518 
L 192.156123 -228.38572 
L 192.226103 -229.544922 
L 192.297294 -230.704123 
L 192.36874 -231.863325 
L 192.439532 -233.022526 
L 192.508819 -234.181728 
L 192.575826 -235.34093 
L 192.639862 -236.500131 
L 192.700333 -237.659333 
L 192.756748 -238.818535 
L 192.80872 -239.977736 
L 192.855973 -241.136938 
L 192.898338 -242.296139 
L 192.935751 -243.455341 
L 192.968248 -244.614543 
L 192.99596 -245.773744 
L 193.019103 -246.932946 
L 193.037967 -248.092148 
L 193.052909 -249.251349 
L 193.064339 -250.410551 
L 193.07271 -251.569752 
L 193.078504 -252.728954 
L 193.08222 -253.888156 
L 193.084363 -255.047357 
L 193.085433 -256.206559 
L 193.085913 -257.365761 
L 193.086258 -258.524962 
L 193.086891 -259.684164 
L 193.08819 -260.843365 
L 193.090487 -262.002567 
L 193.094059 -263.161769 
L 193.099127 -264.32097 
L 193.105856 -265.480172 
L 193.11435 -266.639374 
L 193.124659 -267.798575 
L 193.136779 -268.957777 
L 193.150656 -270.116978 
L 193.166189 -271.27618 
L 193.183241 -272.435382 
L 193.201641 -273.594583 
L 193.22119 -274.753785 
L 193.241673 -275.912987 
L 193.26286 -277.072188 
L 193.284519 -278.23139 
L 193.306417 -279.390592 
L 193.328326 -280.549793 
L 193.350033 -281.708995 
L 193.37134 -282.868196 
L 193.392068 -284.027398 
L 193.412059 -285.1866 
L 193.431182 -286.345801 
L 193.449327 -287.505003 
L 193.466412 -288.664205 
L 193.482376 -289.823406 
L 193.497183 -290.982608 
L 193.510817 -292.141809 
L 193.523284 -293.301011 
L 193.534603 -294.460213 
L 193.54481 -295.619414 
L 193.67644 -295.619414 
L 193.67644 -295.619414 
L 193.686647 -294.460213 
L 193.697966 -293.301011 
L 193.710433 -292.141809 
L 193.724067 -290.982608 
L 193.738874 -289.823406 
L 193.754838 -288.664205 
L 193.771923 -287.505003 
L 193.790068 -286.345801 
L 193.809191 -285.1866 
L 193.829182 -284.027398 
L 193.84991 -282.868196 
L 193.871217 -281.708995 
L 193.892924 -280.549793 
L 193.914833 -279.390592 
L 193.936731 -278.23139 
L 193.95839 -277.072188 
L 193.979577 -275.912987 
L 194.00006 -274.753785 
L 194.019609 -273.594583 
L 194.038009 -272.435382 
L 194.055061 -271.27618 
L 194.070594 -270.116978 
L 194.084471 -268.957777 
L 194.096591 -267.798575 
L 194.1069 -266.639374 
L 194.115394 -265.480172 
L 194.122123 -264.32097 
L 194.127191 -263.161769 
L 194.130763 -262.002567 
L 194.13306 -260.843365 
L 194.134359 -259.684164 
L 194.134992 -258.524962 
L 194.135337 -257.365761 
L 194.135817 -256.206559 
L 194.136887 -255.047357 
L 194.13903 -253.888156 
L 194.142746 -252.728954 
L 194.14854 -251.569752 
L 194.156911 -250.410551 
L 194.168341 -249.251349 
L 194.183283 -248.092148 
L 194.202147 -246.932946 
L 194.22529 -245.773744 
L 194.253002 -244.614543 
L 194.285499 -243.455341 
L 194.322912 -242.296139 
L 194.365277 -241.136938 
L 194.41253 -239.977736 
L 194.464502 -238.818535 
L 194.520917 -237.659333 
L 194.581388 -236.500131 
L 194.645424 -235.34093 
L 194.712431 -234.181728 
L 194.781718 -233.022526 
L 194.85251 -231.863325 
L 194.923956 -230.704123 
L 194.995147 -229.544922 
L 195.065127 -228.38572 
L 195.132917 -227.226518 
L 195.197529 -226.067317 
L 195.257989 -224.908115 
L 195.313356 -223.748913 
L 195.362745 -222.589712 
L 195.405343 -221.43051 
L 195.440428 -220.271309 
L 195.467389 -219.112107 
L 195.485735 -217.952905 
L 195.495108 -216.793704 
L 195.495295 -215.634502 
L 195.486224 -214.4753 
L 195.467974 -213.316099 
L 195.440767 -212.156897 
L 195.404961 -210.997696 
L 195.361046 -209.838494 
L 195.309626 -208.679292 
L 195.251405 -207.520091 
L 195.187172 -206.360889 
L 195.117782 -205.201687 
L 195.044131 -204.042486 
L 194.967144 -202.883284 
L 194.887751 -201.724083 
L 194.806865 -200.564881 
L 194.725373 -199.405679 
L 194.644112 -198.246478 
L 194.56386 -197.087276 
L 194.485323 -195.928074 
L 194.409128 -194.768873 
L 194.335816 -193.609671 
L 194.265838 -192.45047 
L 194.199556 -191.291268 
L 194.137242 -190.132066 
L 194.079084 -188.972865 
L 194.025189 -187.813663 
L 193.975592 -186.654461 
L 193.930259 -185.49526 
L 193.889102 -184.336058 
L 193.851982 -183.176856 
L 193.81872 -182.017655 
L 193.789106 -180.858453 
z
" id="m0b469465c1" style="stroke:#3f3f3f;stroke-width:1.5;"/>
    </defs>
    <g clip-path="url(#pa08152008c)">
     <use style="fill:#3274a1;stroke:#3f3f3f;stroke-width:1.5;" x="0" xlink:href="#m0b469465c1" y="355.523584"/>
    </g>
   </g>
   <g id="PolyCollection_3">
    <defs>
     <path d="M 283.092678 -79.189459 
L 282.688572 -79.189459 
L 282.655883 -80.361272 
L 282.619322 -81.533084 
L 282.578696 -82.704897 
L 282.533848 -83.876709 
L 282.48467 -85.048522 
L 282.431113 -86.220334 
L 282.373191 -87.392147 
L 282.310991 -88.563959 
L 282.244685 -89.735771 
L 282.17453 -90.907584 
L 282.100875 -92.079396 
L 282.024164 -93.251209 
L 281.944932 -94.423021 
L 281.86381 -95.594834 
L 281.78151 -96.766646 
L 281.698825 -97.938459 
L 281.616614 -99.110271 
L 281.53579 -100.282084 
L 281.4573 -101.453896 
L 281.382114 -102.625709 
L 281.311198 -103.797521 
L 281.245499 -104.969334 
L 281.18592 -106.141146 
L 281.133299 -107.312959 
L 281.088389 -108.484771 
L 281.05184 -109.656584 
L 281.024182 -110.828396 
L 281.005809 -112.000209 
L 280.99697 -113.172021 
L 280.99776 -114.343833 
L 281.008118 -115.515646 
L 281.027828 -116.687458 
L 281.05652 -117.859271 
L 281.093682 -119.031083 
L 281.13867 -120.202896 
L 281.190724 -121.374708 
L 281.248984 -122.546521 
L 281.312514 -123.718333 
L 281.380316 -124.890146 
L 281.45136 -126.061958 
L 281.524602 -127.233771 
L 281.599005 -128.405583 
L 281.673562 -129.577396 
L 281.747317 -130.749208 
L 281.819376 -131.921021 
L 281.888927 -133.092833 
L 281.955253 -134.264646 
L 282.017736 -135.436458 
L 282.075868 -136.608271 
L 282.129256 -137.780083 
L 282.177619 -138.951895 
L 282.220788 -140.123708 
L 282.258706 -141.29552 
L 282.291417 -142.467333 
L 282.319062 -143.639145 
L 282.341868 -144.810958 
L 282.360139 -145.98277 
L 282.374245 -147.154583 
L 282.384609 -148.326395 
L 282.391697 -149.498208 
L 282.396002 -150.67002 
L 282.398037 -151.841833 
L 282.39832 -153.013645 
L 282.397364 -154.185458 
L 282.395665 -155.35727 
L 282.393696 -156.529083 
L 282.391895 -157.700895 
L 282.39066 -158.872708 
L 282.390343 -160.04452 
L 282.391243 -161.216333 
L 282.393607 -162.388145 
L 282.397624 -163.559958 
L 282.403427 -164.73177 
L 282.411092 -165.903582 
L 282.420643 -167.075395 
L 282.432053 -168.247207 
L 282.445247 -169.41902 
L 282.46011 -170.590832 
L 282.476493 -171.762645 
L 282.494216 -172.934457 
L 282.513076 -174.10627 
L 282.532856 -175.278082 
L 282.553328 -176.449895 
L 282.574261 -177.621707 
L 282.595426 -178.79352 
L 282.616604 -179.965332 
L 282.637587 -181.137145 
L 282.658182 -182.308957 
L 282.678218 -183.48077 
L 282.697545 -184.652582 
L 282.716034 -185.824395 
L 282.733583 -186.996207 
L 282.75011 -188.16802 
L 282.765561 -189.339832 
L 282.779898 -190.511644 
L 282.793109 -191.683457 
L 282.805197 -192.855269 
L 282.816181 -194.027082 
L 282.826095 -195.198894 
L 282.955155 -195.198894 
L 282.955155 -195.198894 
L 282.965069 -194.027082 
L 282.976053 -192.855269 
L 282.988141 -191.683457 
L 283.001352 -190.511644 
L 283.015689 -189.339832 
L 283.03114 -188.16802 
L 283.047667 -186.996207 
L 283.065216 -185.824395 
L 283.083705 -184.652582 
L 283.103032 -183.48077 
L 283.123068 -182.308957 
L 283.143663 -181.137145 
L 283.164646 -179.965332 
L 283.185824 -178.79352 
L 283.206989 -177.621707 
L 283.227922 -176.449895 
L 283.248394 -175.278082 
L 283.268174 -174.10627 
L 283.287034 -172.934457 
L 283.304757 -171.762645 
L 283.32114 -170.590832 
L 283.336003 -169.41902 
L 283.349197 -168.247207 
L 283.360607 -167.075395 
L 283.370158 -165.903582 
L 283.377823 -164.73177 
L 283.383626 -163.559958 
L 283.387643 -162.388145 
L 283.390007 -161.216333 
L 283.390907 -160.04452 
L 283.39059 -158.872708 
L 283.389355 -157.700895 
L 283.387554 -156.529083 
L 283.385585 -155.35727 
L 283.383886 -154.185458 
L 283.38293 -153.013645 
L 283.383213 -151.841833 
L 283.385248 -150.67002 
L 283.389553 -149.498208 
L 283.396641 -148.326395 
L 283.407005 -147.154583 
L 283.421111 -145.98277 
L 283.439382 -144.810958 
L 283.462188 -143.639145 
L 283.489833 -142.467333 
L 283.522544 -141.29552 
L 283.560462 -140.123708 
L 283.603631 -138.951895 
L 283.651994 -137.780083 
L 283.705382 -136.608271 
L 283.763514 -135.436458 
L 283.825997 -134.264646 
L 283.892323 -133.092833 
L 283.961874 -131.921021 
L 284.033933 -130.749208 
L 284.107688 -129.577396 
L 284.182245 -128.405583 
L 284.256648 -127.233771 
L 284.32989 -126.061958 
L 284.400934 -124.890146 
L 284.468736 -123.718333 
L 284.532266 -122.546521 
L 284.590526 -121.374708 
L 284.64258 -120.202896 
L 284.687568 -119.031083 
L 284.72473 -117.859271 
L 284.753422 -116.687458 
L 284.773132 -115.515646 
L 284.78349 -114.343833 
L 284.78428 -113.172021 
L 284.775441 -112.000209 
L 284.757068 -110.828396 
L 284.72941 -109.656584 
L 284.692861 -108.484771 
L 284.647951 -107.312959 
L 284.59533 -106.141146 
L 284.535751 -104.969334 
L 284.470052 -103.797521 
L 284.399136 -102.625709 
L 284.32395 -101.453896 
L 284.24546 -100.282084 
L 284.164636 -99.110271 
L 284.082425 -97.938459 
L 283.99974 -96.766646 
L 283.91744 -95.594834 
L 283.836318 -94.423021 
L 283.757086 -93.251209 
L 283.680375 -92.079396 
L 283.60672 -90.907584 
L 283.536565 -89.735771 
L 283.470259 -88.563959 
L 283.408059 -87.392147 
L 283.350137 -86.220334 
L 283.29658 -85.048522 
L 283.247402 -83.876709 
L 283.202554 -82.704897 
L 283.161928 -81.533084 
L 283.125367 -80.361272 
L 283.092678 -79.189459 
z
" id="ma5fbd5dd0e" style="stroke:#3f3f3f;stroke-width:1.5;"/>
    </defs>
    <g clip-path="url(#pa08152008c)">
     <use style="fill:#c7c7c7;stroke:#3f3f3f;stroke-width:1.5;" x="0" xlink:href="#ma5fbd5dd0e" y="355.523584"/>
    </g>
   </g>
   <g id="PolyCollection_4">
    <defs>
     <path d="M 376.953745 -107.616316 
L 367.387505 -107.616316 
L 366.713205 -107.670948 
L 365.971773 -107.725579 
L 365.161189 -107.78021 
L 364.280153 -107.834842 
L 363.328203 -107.889473 
L 362.305828 -107.944105 
L 361.214574 -107.998736 
L 360.057134 -108.053368 
L 358.837424 -108.107999 
L 357.560633 -108.16263 
L 356.233257 -108.217262 
L 354.863093 -108.271893 
L 353.459213 -108.326525 
L 352.031899 -108.381156 
L 350.592544 -108.435787 
L 349.153521 -108.490419 
L 347.728017 -108.54505 
L 346.329838 -108.599682 
L 344.973184 -108.654313 
L 343.672403 -108.708944 
L 342.441722 -108.763576 
L 341.294975 -108.818207 
L 340.245319 -108.872839 
L 339.304959 -108.92747 
L 338.484875 -108.982102 
L 337.79458 -109.036733 
L 337.241895 -109.091364 
L 336.832758 -109.145996 
L 336.571079 -109.200627 
L 336.458625 -109.255259 
L 336.494971 -109.30989 
L 336.677486 -109.364521 
L 337.001377 -109.419153 
L 337.459781 -109.473784 
L 338.043904 -109.528416 
L 338.743212 -109.583047 
L 339.545646 -109.637679 
L 340.437886 -109.69231 
L 341.40563 -109.746941 
L 342.433898 -109.801573 
L 343.507341 -109.856204 
L 344.610559 -109.910836 
L 345.728403 -109.965467 
L 346.846275 -110.020098 
L 347.950395 -110.07473 
L 349.028055 -110.129361 
L 350.067825 -110.183993 
L 351.059733 -110.238624 
L 351.995403 -110.293255 
L 352.868152 -110.347887 
L 353.673037 -110.402518 
L 354.406874 -110.45715 
L 355.068203 -110.511781 
L 355.657224 -110.566413 
L 356.175696 -110.621044 
L 356.6268 -110.675675 
L 357.014987 -110.730307 
L 357.345796 -110.784938 
L 357.625659 -110.83957 
L 357.861698 -110.894201 
L 358.061518 -110.948832 
L 358.232991 -111.003464 
L 358.384063 -111.058095 
L 358.522552 -111.112727 
L 358.655978 -111.167358 
L 358.791395 -111.22199 
L 358.935256 -111.276621 
L 359.093294 -111.331252 
L 359.270431 -111.385884 
L 359.470711 -111.440515 
L 359.697258 -111.495147 
L 359.95226 -111.549778 
L 360.23698 -111.604409 
L 360.551779 -111.659041 
L 360.896175 -111.713672 
L 361.268906 -111.768304 
L 361.668011 -111.822935 
L 362.090927 -111.877566 
L 362.534589 -111.932198 
L 362.995536 -111.986829 
L 363.470024 -112.041461 
L 363.954126 -112.096092 
L 364.44384 -112.150724 
L 364.935185 -112.205355 
L 365.424288 -112.259986 
L 365.907464 -112.314618 
L 366.381279 -112.369249 
L 366.842608 -112.423881 
L 367.288676 -112.478512 
L 367.717086 -112.533143 
L 368.125838 -112.587775 
L 368.513337 -112.642406 
L 368.878383 -112.697038 
L 369.220165 -112.751669 
L 369.538235 -112.806301 
L 369.832485 -112.860932 
L 370.10311 -112.915563 
L 370.350577 -112.970195 
L 370.575585 -113.024826 
L 373.765665 -113.024826 
L 373.765665 -113.024826 
L 373.990673 -112.970195 
L 374.23814 -112.915563 
L 374.508765 -112.860932 
L 374.803015 -112.806301 
L 375.121085 -112.751669 
L 375.462867 -112.697038 
L 375.827913 -112.642406 
L 376.215412 -112.587775 
L 376.624164 -112.533143 
L 377.052574 -112.478512 
L 377.498642 -112.423881 
L 377.959971 -112.369249 
L 378.433786 -112.314618 
L 378.916962 -112.259986 
L 379.406065 -112.205355 
L 379.89741 -112.150724 
L 380.387124 -112.096092 
L 380.871226 -112.041461 
L 381.345714 -111.986829 
L 381.806661 -111.932198 
L 382.250323 -111.877566 
L 382.673239 -111.822935 
L 383.072344 -111.768304 
L 383.445075 -111.713672 
L 383.789471 -111.659041 
L 384.10427 -111.604409 
L 384.38899 -111.549778 
L 384.643992 -111.495147 
L 384.870539 -111.440515 
L 385.070819 -111.385884 
L 385.247956 -111.331252 
L 385.405994 -111.276621 
L 385.549855 -111.22199 
L 385.685272 -111.167358 
L 385.818698 -111.112727 
L 385.957187 -111.058095 
L 386.108259 -111.003464 
L 386.279732 -110.948832 
L 386.479552 -110.894201 
L 386.715591 -110.83957 
L 386.995454 -110.784938 
L 387.326263 -110.730307 
L 387.71445 -110.675675 
L 388.165554 -110.621044 
L 388.684026 -110.566413 
L 389.273047 -110.511781 
L 389.934376 -110.45715 
L 390.668213 -110.402518 
L 391.473098 -110.347887 
L 392.345847 -110.293255 
L 393.281517 -110.238624 
L 394.273425 -110.183993 
L 395.313195 -110.129361 
L 396.390855 -110.07473 
L 397.494975 -110.020098 
L 398.612847 -109.965467 
L 399.730691 -109.910836 
L 400.833909 -109.856204 
L 401.907352 -109.801573 
L 402.93562 -109.746941 
L 403.903364 -109.69231 
L 404.795604 -109.637679 
L 405.598038 -109.583047 
L 406.297346 -109.528416 
L 406.881469 -109.473784 
L 407.339873 -109.419153 
L 407.663764 -109.364521 
L 407.846279 -109.30989 
L 407.882625 -109.255259 
L 407.770171 -109.200627 
L 407.508492 -109.145996 
L 407.099355 -109.091364 
L 406.54667 -109.036733 
L 405.856375 -108.982102 
L 405.036291 -108.92747 
L 404.095931 -108.872839 
L 403.046275 -108.818207 
L 401.899528 -108.763576 
L 400.668847 -108.708944 
L 399.368066 -108.654313 
L 398.011412 -108.599682 
L 396.613233 -108.54505 
L 395.187729 -108.490419 
L 393.748706 -108.435787 
L 392.309351 -108.381156 
L 390.882037 -108.326525 
L 389.478157 -108.271893 
L 388.107993 -108.217262 
L 386.780617 -108.16263 
L 385.503826 -108.107999 
L 384.284116 -108.053368 
L 383.126676 -107.998736 
L 382.035422 -107.944105 
L 381.013047 -107.889473 
L 380.061097 -107.834842 
L 379.180061 -107.78021 
L 378.369477 -107.725579 
L 377.628045 -107.670948 
L 376.953745 -107.616316 
z
" id="m6a6a0d52f1" style="stroke:#3f3f3f;stroke-width:1.5;"/>
    </defs>
    <g clip-path="url(#pa08152008c)">
     <use style="fill:#9fd495;stroke:#3f3f3f;stroke-width:1.5;" x="0" xlink:href="#m6a6a0d52f1" y="355.523584"/>
    </g>
   </g>
   <g id="matplotlib.axis_1">
    <g id="xtick_1">
     <g id="line2d_1">
      <defs>
       <path d="M 0 0 
L 0 3.5 
" id="mab52cf3ab7" style="stroke:#000000;stroke-width:0.8;"/>
      </defs>
      <g>
       <use style="stroke:#000000;stroke-width:0.8;" x="104.330625" xlink:href="#mab52cf3ab7" y="288.430125"/>
      </g>
     </g>
     <g id="text_1">
      <!-- kirenenko -->
      <g transform="translate(60.870421 326.501971)rotate(-30)scale(0.1 -0.1)">
       <defs>
        <path d="M 9.078125 75.984375 
L 18.109375 75.984375 
L 18.109375 31.109375 
L 44.921875 54.6875 
L 56.390625 54.6875 
L 27.390625 29.109375 
L 57.625 0 
L 45.90625 0 
L 18.109375 26.703125 
L 18.109375 0 
L 9.078125 0 
z
" id="DejaVuSans-107"/>
        <path d="M 9.421875 54.6875 
L 18.40625 54.6875 
L 18.40625 0 
L 9.421875 0 
z
M 9.421875 75.984375 
L 18.40625 75.984375 
L 18.40625 64.59375 
L 9.421875 64.59375 
z
" id="DejaVuSans-105"/>
        <path d="M 41.109375 46.296875 
Q 39.59375 47.171875 37.8125 47.578125 
Q 36.03125 48 33.890625 48 
Q 26.265625 48 22.1875 43.046875 
Q 18.109375 38.09375 18.109375 28.8125 
L 18.109375 0 
L 9.078125 0 
L 9.078125 54.6875 
L 18.109375 54.6875 
L 18.109375 46.1875 
Q 20.953125 51.171875 25.484375 53.578125 
Q 30.03125 56 36.53125 56 
Q 37.453125 56 38.578125 55.875 
Q 39.703125 55.765625 41.0625 55.515625 
z
" id="DejaVuSans-114"/>
        <path d="M 56.203125 29.59375 
L 56.203125 25.203125 
L 14.890625 25.203125 
Q 15.484375 15.921875 20.484375 11.0625 
Q 25.484375 6.203125 34.421875 6.203125 
Q 39.59375 6.203125 44.453125 7.46875 
Q 49.3125 8.734375 54.109375 11.28125 
L 54.109375 2.78125 
Q 49.265625 0.734375 44.1875 -0.34375 
Q 39.109375 -1.421875 33.890625 -1.421875 
Q 20.796875 -1.421875 13.15625 6.1875 
Q 5.515625 13.8125 5.515625 26.8125 
Q 5.515625 40.234375 12.765625 48.109375 
Q 20.015625 56 32.328125 56 
Q 43.359375 56 49.78125 48.890625 
Q 56.203125 41.796875 56.203125 29.59375 
z
M 47.21875 32.234375 
Q 47.125 39.59375 43.09375 43.984375 
Q 39.0625 48.390625 32.421875 48.390625 
Q 24.90625 48.390625 20.390625 44.140625 
Q 15.875 39.890625 15.1875 32.171875 
z
" id="DejaVuSans-101"/>
        <path d="M 54.890625 33.015625 
L 54.890625 0 
L 45.90625 0 
L 45.90625 32.71875 
Q 45.90625 40.484375 42.875 44.328125 
Q 39.84375 48.1875 33.796875 48.1875 
Q 26.515625 48.1875 22.3125 43.546875 
Q 18.109375 38.921875 18.109375 30.90625 
L 18.109375 0 
L 9.078125 0 
L 9.078125 54.6875 
L 18.109375 54.6875 
L 18.109375 46.1875 
Q 21.34375 51.125 25.703125 53.5625 
Q 30.078125 56 35.796875 56 
Q 45.21875 56 50.046875 50.171875 
Q 54.890625 44.34375 54.890625 33.015625 
z
" id="DejaVuSans-110"/>
        <path d="M 30.609375 48.390625 
Q 23.390625 48.390625 19.1875 42.75 
Q 14.984375 37.109375 14.984375 27.296875 
Q 14.984375 17.484375 19.15625 11.84375 
Q 23.34375 6.203125 30.609375 6.203125 
Q 37.796875 6.203125 41.984375 11.859375 
Q 46.1875 17.53125 46.1875 27.296875 
Q 46.1875 37.015625 41.984375 42.703125 
Q 37.796875 48.390625 30.609375 48.390625 
z
M 30.609375 56 
Q 42.328125 56 49.015625 48.375 
Q 55.71875 40.765625 55.71875 27.296875 
Q 55.71875 13.875 49.015625 6.21875 
Q 42.328125 -1.421875 30.609375 -1.421875 
Q 18.84375 -1.421875 12.171875 6.21875 
Q 5.515625 13.875 5.515625 27.296875 
Q 5.515625 40.765625 12.171875 48.375 
Q 18.84375 56 30.609375 56 
z
" id="DejaVuSans-111"/>
       </defs>
       <use xlink:href="#DejaVuSans-107"/>
       <use x="57.910156" xlink:href="#DejaVuSans-105"/>
       <use x="85.693359" xlink:href="#DejaVuSans-114"/>
       <use x="124.556641" xlink:href="#DejaVuSans-101"/>
       <use x="186.080078" xlink:href="#DejaVuSans-110"/>
       <use x="249.458984" xlink:href="#DejaVuSans-101"/>
       <use x="310.982422" xlink:href="#DejaVuSans-110"/>
       <use x="374.361328" xlink:href="#DejaVuSans-107"/>
       <use x="428.646484" xlink:href="#DejaVuSans-111"/>
      </g>
     </g>
    </g>
    <g id="xtick_2">
     <g id="line2d_2">
      <g>
       <use style="stroke:#000000;stroke-width:0.8;" x="193.610625" xlink:href="#mab52cf3ab7" y="288.430125"/>
      </g>
     </g>
     <g id="text_2">
      <!-- aflplusplus -->
      <g transform="translate(146.001618 328.897284)rotate(-30)scale(0.1 -0.1)">
       <defs>
        <path d="M 34.28125 27.484375 
Q 23.390625 27.484375 19.1875 25 
Q 14.984375 22.515625 14.984375 16.5 
Q 14.984375 11.71875 18.140625 8.90625 
Q 21.296875 6.109375 26.703125 6.109375 
Q 34.1875 6.109375 38.703125 11.40625 
Q 43.21875 16.703125 43.21875 25.484375 
L 43.21875 27.484375 
z
M 52.203125 31.203125 
L 52.203125 0 
L 43.21875 0 
L 43.21875 8.296875 
Q 40.140625 3.328125 35.546875 0.953125 
Q 30.953125 -1.421875 24.3125 -1.421875 
Q 15.921875 -1.421875 10.953125 3.296875 
Q 6 8.015625 6 15.921875 
Q 6 25.140625 12.171875 29.828125 
Q 18.359375 34.515625 30.609375 34.515625 
L 43.21875 34.515625 
L 43.21875 35.40625 
Q 43.21875 41.609375 39.140625 45 
Q 35.0625 48.390625 27.6875 48.390625 
Q 23 48.390625 18.546875 47.265625 
Q 14.109375 46.140625 10.015625 43.890625 
L 10.015625 52.203125 
Q 14.9375 54.109375 19.578125 55.046875 
Q 24.21875 56 28.609375 56 
Q 40.484375 56 46.34375 49.84375 
Q 52.203125 43.703125 52.203125 31.203125 
z
" id="DejaVuSans-97"/>
        <path d="M 37.109375 75.984375 
L 37.109375 68.5 
L 28.515625 68.5 
Q 23.6875 68.5 21.796875 66.546875 
Q 19.921875 64.59375 19.921875 59.515625 
L 19.921875 54.6875 
L 34.71875 54.6875 
L 34.71875 47.703125 
L 19.921875 47.703125 
L 19.921875 0 
L 10.890625 0 
L 10.890625 47.703125 
L 2.296875 47.703125 
L 2.296875 54.6875 
L 10.890625 54.6875 
L 10.890625 58.5 
Q 10.890625 67.625 15.140625 71.796875 
Q 19.390625 75.984375 28.609375 75.984375 
z
" id="DejaVuSans-102"/>
        <path d="M 9.421875 75.984375 
L 18.40625 75.984375 
L 18.40625 0 
L 9.421875 0 
z
" id="DejaVuSans-108"/>
        <path d="M 18.109375 8.203125 
L 18.109375 -20.796875 
L 9.078125 -20.796875 
L 9.078125 54.6875 
L 18.109375 54.6875 
L 18.109375 46.390625 
Q 20.953125 51.265625 25.265625 53.625 
Q 29.59375 56 35.59375 56 
Q 45.5625 56 51.78125 48.09375 
Q 58.015625 40.1875 58.015625 27.296875 
Q 58.015625 14.40625 51.78125 6.484375 
Q 45.5625 -1.421875 35.59375 -1.421875 
Q 29.59375 -1.421875 25.265625 0.953125 
Q 20.953125 3.328125 18.109375 8.203125 
z
M 48.6875 27.296875 
Q 48.6875 37.203125 44.609375 42.84375 
Q 40.53125 48.484375 33.40625 48.484375 
Q 26.265625 48.484375 22.1875 42.84375 
Q 18.109375 37.203125 18.109375 27.296875 
Q 18.109375 17.390625 22.1875 11.75 
Q 26.265625 6.109375 33.40625 6.109375 
Q 40.53125 6.109375 44.609375 11.75 
Q 48.6875 17.390625 48.6875 27.296875 
z
" id="DejaVuSans-112"/>
        <path d="M 8.5 21.578125 
L 8.5 54.6875 
L 17.484375 54.6875 
L 17.484375 21.921875 
Q 17.484375 14.15625 20.5 10.265625 
Q 23.53125 6.390625 29.59375 6.390625 
Q 36.859375 6.390625 41.078125 11.03125 
Q 45.3125 15.671875 45.3125 23.6875 
L 45.3125 54.6875 
L 54.296875 54.6875 
L 54.296875 0 
L 45.3125 0 
L 45.3125 8.40625 
Q 42.046875 3.421875 37.71875 1 
Q 33.40625 -1.421875 27.6875 -1.421875 
Q 18.265625 -1.421875 13.375 4.4375 
Q 8.5 10.296875 8.5 21.578125 
z
M 31.109375 56 
z
" id="DejaVuSans-117"/>
        <path d="M 44.28125 53.078125 
L 44.28125 44.578125 
Q 40.484375 46.53125 36.375 47.5 
Q 32.28125 48.484375 27.875 48.484375 
Q 21.1875 48.484375 17.84375 46.4375 
Q 14.5 44.390625 14.5 40.28125 
Q 14.5 37.15625 16.890625 35.375 
Q 19.28125 33.59375 26.515625 31.984375 
L 29.59375 31.296875 
Q 39.15625 29.25 43.1875 25.515625 
Q 47.21875 21.78125 47.21875 15.09375 
Q 47.21875 7.46875 41.1875 3.015625 
Q 35.15625 -1.421875 24.609375 -1.421875 
Q 20.21875 -1.421875 15.453125 -0.5625 
Q 10.6875 0.296875 5.421875 2 
L 5.421875 11.28125 
Q 10.40625 8.6875 15.234375 7.390625 
Q 20.0625 6.109375 24.8125 6.109375 
Q 31.15625 6.109375 34.5625 8.28125 
Q 37.984375 10.453125 37.984375 14.40625 
Q 37.984375 18.0625 35.515625 20.015625 
Q 33.0625 21.96875 24.703125 23.78125 
L 21.578125 24.515625 
Q 13.234375 26.265625 9.515625 29.90625 
Q 5.8125 33.546875 5.8125 39.890625 
Q 5.8125 47.609375 11.28125 51.796875 
Q 16.75 56 26.8125 56 
Q 31.78125 56 36.171875 55.265625 
Q 40.578125 54.546875 44.28125 53.078125 
z
" id="DejaVuSans-115"/>
       </defs>
       <use xlink:href="#DejaVuSans-97"/>
       <use x="61.279297" xlink:href="#DejaVuSans-102"/>
       <use x="96.484375" xlink:href="#DejaVuSans-108"/>
       <use x="124.267578" xlink:href="#DejaVuSans-112"/>
       <use x="187.744141" xlink:href="#DejaVuSans-108"/>
       <use x="215.527344" xlink:href="#DejaVuSans-117"/>
       <use x="278.90625" xlink:href="#DejaVuSans-115"/>
       <use x="331.005859" xlink:href="#DejaVuSans-112"/>
       <use x="394.482422" xlink:href="#DejaVuSans-108"/>
       <use x="422.265625" xlink:href="#DejaVuSans-117"/>
       <use x="485.644531" xlink:href="#DejaVuSans-115"/>
      </g>
     </g>
    </g>
    <g id="xtick_3">
     <g id="line2d_3">
      <g>
       <use style="stroke:#000000;stroke-width:0.8;" x="282.890625" xlink:href="#mab52cf3ab7" y="288.430125"/>
      </g>
     </g>
     <g id="text_3">
      <!-- weizz_qemu -->
      <g transform="translate(228.723143 332.603534)rotate(-30)scale(0.1 -0.1)">
       <defs>
        <path d="M 4.203125 54.6875 
L 13.1875 54.6875 
L 24.421875 12.015625 
L 35.59375 54.6875 
L 46.1875 54.6875 
L 57.421875 12.015625 
L 68.609375 54.6875 
L 77.59375 54.6875 
L 63.28125 0 
L 52.6875 0 
L 40.921875 44.828125 
L 29.109375 0 
L 18.5 0 
z
" id="DejaVuSans-119"/>
        <path d="M 5.515625 54.6875 
L 48.1875 54.6875 
L 48.1875 46.484375 
L 14.40625 7.171875 
L 48.1875 7.171875 
L 48.1875 0 
L 4.296875 0 
L 4.296875 8.203125 
L 38.09375 47.515625 
L 5.515625 47.515625 
z
" id="DejaVuSans-122"/>
        <path d="M 50.984375 -16.609375 
L 50.984375 -23.578125 
L -0.984375 -23.578125 
L -0.984375 -16.609375 
z
" id="DejaVuSans-95"/>
        <path d="M 14.796875 27.296875 
Q 14.796875 17.390625 18.875 11.75 
Q 22.953125 6.109375 30.078125 6.109375 
Q 37.203125 6.109375 41.296875 11.75 
Q 45.40625 17.390625 45.40625 27.296875 
Q 45.40625 37.203125 41.296875 42.84375 
Q 37.203125 48.484375 30.078125 48.484375 
Q 22.953125 48.484375 18.875 42.84375 
Q 14.796875 37.203125 14.796875 27.296875 
z
M 45.40625 8.203125 
Q 42.578125 3.328125 38.25 0.953125 
Q 33.9375 -1.421875 27.875 -1.421875 
Q 17.96875 -1.421875 11.734375 6.484375 
Q 5.515625 14.40625 5.515625 27.296875 
Q 5.515625 40.1875 11.734375 48.09375 
Q 17.96875 56 27.875 56 
Q 33.9375 56 38.25 53.625 
Q 42.578125 51.265625 45.40625 46.390625 
L 45.40625 54.6875 
L 54.390625 54.6875 
L 54.390625 -20.796875 
L 45.40625 -20.796875 
z
" id="DejaVuSans-113"/>
        <path d="M 52 44.1875 
Q 55.375 50.25 60.0625 53.125 
Q 64.75 56 71.09375 56 
Q 79.640625 56 84.28125 50.015625 
Q 88.921875 44.046875 88.921875 33.015625 
L 88.921875 0 
L 79.890625 0 
L 79.890625 32.71875 
Q 79.890625 40.578125 77.09375 44.375 
Q 74.3125 48.1875 68.609375 48.1875 
Q 61.625 48.1875 57.5625 43.546875 
Q 53.515625 38.921875 53.515625 30.90625 
L 53.515625 0 
L 44.484375 0 
L 44.484375 32.71875 
Q 44.484375 40.625 41.703125 44.40625 
Q 38.921875 48.1875 33.109375 48.1875 
Q 26.21875 48.1875 22.15625 43.53125 
Q 18.109375 38.875 18.109375 30.90625 
L 18.109375 0 
L 9.078125 0 
L 9.078125 54.6875 
L 18.109375 54.6875 
L 18.109375 46.1875 
Q 21.1875 51.21875 25.484375 53.609375 
Q 29.78125 56 35.6875 56 
Q 41.65625 56 45.828125 52.96875 
Q 50 49.953125 52 44.1875 
z
" id="DejaVuSans-109"/>
       </defs>
       <use xlink:href="#DejaVuSans-119"/>
       <use x="81.787109" xlink:href="#DejaVuSans-101"/>
       <use x="143.310547" xlink:href="#DejaVuSans-105"/>
       <use x="171.09375" xlink:href="#DejaVuSans-122"/>
       <use x="223.583984" xlink:href="#DejaVuSans-122"/>
       <use x="276.074219" xlink:href="#DejaVuSans-95"/>
       <use x="326.074219" xlink:href="#DejaVuSans-113"/>
       <use x="389.550781" xlink:href="#DejaVuSans-101"/>
       <use x="451.074219" xlink:href="#DejaVuSans-109"/>
       <use x="548.486328" xlink:href="#DejaVuSans-117"/>
      </g>
     </g>
    </g>
    <g id="xtick_4">
     <g id="line2d_4">
      <g>
       <use style="stroke:#000000;stroke-width:0.8;" x="372.170625" xlink:href="#mab52cf3ab7" y="288.430125"/>
      </g>
     </g>
     <g id="text_4">
      <!-- honggfuzz -->
      <g transform="translate(326.231424 327.933221)rotate(-30)scale(0.1 -0.1)">
       <defs>
        <path d="M 54.890625 33.015625 
L 54.890625 0 
L 45.90625 0 
L 45.90625 32.71875 
Q 45.90625 40.484375 42.875 44.328125 
Q 39.84375 48.1875 33.796875 48.1875 
Q 26.515625 48.1875 22.3125 43.546875 
Q 18.109375 38.921875 18.109375 30.90625 
L 18.109375 0 
L 9.078125 0 
L 9.078125 75.984375 
L 18.109375 75.984375 
L 18.109375 46.1875 
Q 21.34375 51.125 25.703125 53.5625 
Q 30.078125 56 35.796875 56 
Q 45.21875 56 50.046875 50.171875 
Q 54.890625 44.34375 54.890625 33.015625 
z
" id="DejaVuSans-104"/>
        <path d="M 45.40625 27.984375 
Q 45.40625 37.75 41.375 43.109375 
Q 37.359375 48.484375 30.078125 48.484375 
Q 22.859375 48.484375 18.828125 43.109375 
Q 14.796875 37.75 14.796875 27.984375 
Q 14.796875 18.265625 18.828125 12.890625 
Q 22.859375 7.515625 30.078125 7.515625 
Q 37.359375 7.515625 41.375 12.890625 
Q 45.40625 18.265625 45.40625 27.984375 
z
M 54.390625 6.78125 
Q 54.390625 -7.171875 48.1875 -13.984375 
Q 42 -20.796875 29.203125 -20.796875 
Q 24.46875 -20.796875 20.265625 -20.09375 
Q 16.0625 -19.390625 12.109375 -17.921875 
L 12.109375 -9.1875 
Q 16.0625 -11.328125 19.921875 -12.34375 
Q 23.78125 -13.375 27.78125 -13.375 
Q 36.625 -13.375 41.015625 -8.765625 
Q 45.40625 -4.15625 45.40625 5.171875 
L 45.40625 9.625 
Q 42.625 4.78125 38.28125 2.390625 
Q 33.9375 0 27.875 0 
Q 17.828125 0 11.671875 7.65625 
Q 5.515625 15.328125 5.515625 27.984375 
Q 5.515625 40.671875 11.671875 48.328125 
Q 17.828125 56 27.875 56 
Q 33.9375 56 38.28125 53.609375 
Q 42.625 51.21875 45.40625 46.390625 
L 45.40625 54.6875 
L 54.390625 54.6875 
z
" id="DejaVuSans-103"/>
       </defs>
       <use xlink:href="#DejaVuSans-104"/>
       <use x="63.378906" xlink:href="#DejaVuSans-111"/>
       <use x="124.560547" xlink:href="#DejaVuSans-110"/>
       <use x="187.939453" xlink:href="#DejaVuSans-103"/>
       <use x="251.416016" xlink:href="#DejaVuSans-103"/>
       <use x="314.892578" xlink:href="#DejaVuSans-102"/>
       <use x="350.097656" xlink:href="#DejaVuSans-117"/>
       <use x="413.476562" xlink:href="#DejaVuSans-122"/>
       <use x="465.966797" xlink:href="#DejaVuSans-122"/>
      </g>
     </g>
    </g>
    <g id="text_5">
     <!-- Fuzzer (highest median coverage on the left) -->
     <g transform="translate(125.632656 346.243897)scale(0.1 -0.1)">
      <defs>
       <path d="M 9.8125 72.90625 
L 51.703125 72.90625 
L 51.703125 64.59375 
L 19.671875 64.59375 
L 19.671875 43.109375 
L 48.578125 43.109375 
L 48.578125 34.8125 
L 19.671875 34.8125 
L 19.671875 0 
L 9.8125 0 
z
" id="DejaVuSans-70"/>
       <path id="DejaVuSans-32"/>
       <path d="M 31 75.875 
Q 24.46875 64.65625 21.28125 53.65625 
Q 18.109375 42.671875 18.109375 31.390625 
Q 18.109375 20.125 21.3125 9.0625 
Q 24.515625 -2 31 -13.1875 
L 23.1875 -13.1875 
Q 15.875 -1.703125 12.234375 9.375 
Q 8.59375 20.453125 8.59375 31.390625 
Q 8.59375 42.28125 12.203125 53.3125 
Q 15.828125 64.359375 23.1875 75.875 
z
" id="DejaVuSans-40"/>
       <path d="M 18.3125 70.21875 
L 18.3125 54.6875 
L 36.8125 54.6875 
L 36.8125 47.703125 
L 18.3125 47.703125 
L 18.3125 18.015625 
Q 18.3125 11.328125 20.140625 9.421875 
Q 21.96875 7.515625 27.59375 7.515625 
L 36.8125 7.515625 
L 36.8125 0 
L 27.59375 0 
Q 17.1875 0 13.234375 3.875 
Q 9.28125 7.765625 9.28125 18.015625 
L 9.28125 47.703125 
L 2.6875 47.703125 
L 2.6875 54.6875 
L 9.28125 54.6875 
L 9.28125 70.21875 
z
" id="DejaVuSans-116"/>
       <path d="M 45.40625 46.390625 
L 45.40625 75.984375 
L 54.390625 75.984375 
L 54.390625 0 
L 45.40625 0 
L 45.40625 8.203125 
Q 42.578125 3.328125 38.25 0.953125 
Q 33.9375 -1.421875 27.875 -1.421875 
Q 17.96875 -1.421875 11.734375 6.484375 
Q 5.515625 14.40625 5.515625 27.296875 
Q 5.515625 40.1875 11.734375 48.09375 
Q 17.96875 56 27.875 56 
Q 33.9375 56 38.25 53.625 
Q 42.578125 51.265625 45.40625 46.390625 
z
M 14.796875 27.296875 
Q 14.796875 17.390625 18.875 11.75 
Q 22.953125 6.109375 30.078125 6.109375 
Q 37.203125 6.109375 41.296875 11.75 
Q 45.40625 17.390625 45.40625 27.296875 
Q 45.40625 37.203125 41.296875 42.84375 
Q 37.203125 48.484375 30.078125 48.484375 
Q 22.953125 48.484375 18.875 42.84375 
Q 14.796875 37.203125 14.796875 27.296875 
z
" id="DejaVuSans-100"/>
       <path d="M 48.78125 52.59375 
L 48.78125 44.1875 
Q 44.96875 46.296875 41.140625 47.34375 
Q 37.3125 48.390625 33.40625 48.390625 
Q 24.65625 48.390625 19.8125 42.84375 
Q 14.984375 37.3125 14.984375 27.296875 
Q 14.984375 17.28125 19.8125 11.734375 
Q 24.65625 6.203125 33.40625 6.203125 
Q 37.3125 6.203125 41.140625 7.25 
Q 44.96875 8.296875 48.78125 10.40625 
L 48.78125 2.09375 
Q 45.015625 0.34375 40.984375 -0.53125 
Q 36.96875 -1.421875 32.421875 -1.421875 
Q 20.0625 -1.421875 12.78125 6.34375 
Q 5.515625 14.109375 5.515625 27.296875 
Q 5.515625 40.671875 12.859375 48.328125 
Q 20.21875 56 33.015625 56 
Q 37.15625 56 41.109375 55.140625 
Q 45.0625 54.296875 48.78125 52.59375 
z
" id="DejaVuSans-99"/>
       <path d="M 2.984375 54.6875 
L 12.5 54.6875 
L 29.59375 8.796875 
L 46.6875 54.6875 
L 56.203125 54.6875 
L 35.6875 0 
L 23.484375 0 
z
" id="DejaVuSans-118"/>
       <path d="M 8.015625 75.875 
L 15.828125 75.875 
Q 23.140625 64.359375 26.78125 53.3125 
Q 30.421875 42.28125 30.421875 31.390625 
Q 30.421875 20.453125 26.78125 9.375 
Q 23.140625 -1.703125 15.828125 -13.1875 
L 8.015625 -13.1875 
Q 14.5 -2 17.703125 9.0625 
Q 20.90625 20.125 20.90625 31.390625 
Q 20.90625 42.671875 17.703125 53.65625 
Q 14.5 64.65625 8.015625 75.875 
z
" id="DejaVuSans-41"/>
      </defs>
      <use xlink:href="#DejaVuSans-70"/>
      <use x="52.019531" xlink:href="#DejaVuSans-117"/>
      <use x="115.398438" xlink:href="#DejaVuSans-122"/>
      <use x="167.888672" xlink:href="#DejaVuSans-122"/>
      <use x="220.378906" xlink:href="#DejaVuSans-101"/>
      <use x="281.902344" xlink:href="#DejaVuSans-114"/>
      <use x="323.015625" xlink:href="#DejaVuSans-32"/>
      <use x="354.802734" xlink:href="#DejaVuSans-40"/>
      <use x="393.816406" xlink:href="#DejaVuSans-104"/>
      <use x="457.195312" xlink:href="#DejaVuSans-105"/>
      <use x="484.978516" xlink:href="#DejaVuSans-103"/>
      <use x="548.455078" xlink:href="#DejaVuSans-104"/>
      <use x="611.833984" xlink:href="#DejaVuSans-101"/>
      <use x="673.357422" xlink:href="#DejaVuSans-115"/>
      <use x="725.457031" xlink:href="#DejaVuSans-116"/>
      <use x="764.666016" xlink:href="#DejaVuSans-32"/>
      <use x="796.453125" xlink:href="#DejaVuSans-109"/>
      <use x="893.865234" xlink:href="#DejaVuSans-101"/>
      <use x="955.388672" xlink:href="#DejaVuSans-100"/>
      <use x="1018.865234" xlink:href="#DejaVuSans-105"/>
      <use x="1046.648438" xlink:href="#DejaVuSans-97"/>
      <use x="1107.927734" xlink:href="#DejaVuSans-110"/>
      <use x="1171.306641" xlink:href="#DejaVuSans-32"/>
      <use x="1203.09375" xlink:href="#DejaVuSans-99"/>
      <use x="1258.074219" xlink:href="#DejaVuSans-111"/>
      <use x="1319.255859" xlink:href="#DejaVuSans-118"/>
      <use x="1378.435547" xlink:href="#DejaVuSans-101"/>
      <use x="1439.958984" xlink:href="#DejaVuSans-114"/>
      <use x="1481.072266" xlink:href="#DejaVuSans-97"/>
      <use x="1542.351562" xlink:href="#DejaVuSans-103"/>
      <use x="1605.828125" xlink:href="#DejaVuSans-101"/>
      <use x="1667.351562" xlink:href="#DejaVuSans-32"/>
      <use x="1699.138672" xlink:href="#DejaVuSans-111"/>
      <use x="1760.320312" xlink:href="#DejaVuSans-110"/>
      <use x="1823.699219" xlink:href="#DejaVuSans-32"/>
      <use x="1855.486328" xlink:href="#DejaVuSans-116"/>
      <use x="1894.695312" xlink:href="#DejaVuSans-104"/>
      <use x="1958.074219" xlink:href="#DejaVuSans-101"/>
      <use x="2019.597656" xlink:href="#DejaVuSans-32"/>
      <use x="2051.384766" xlink:href="#DejaVuSans-108"/>
      <use x="2079.167969" xlink:href="#DejaVuSans-101"/>
      <use x="2140.691406" xlink:href="#DejaVuSans-102"/>
      <use x="2174.146484" xlink:href="#DejaVuSans-116"/>
      <use x="2213.355469" xlink:href="#DejaVuSans-41"/>
     </g>
    </g>
   </g>
   <g id="matplotlib.axis_2">
    <g id="ytick_1">
     <g id="line2d_5">
      <defs>
       <path d="M 0 0 
L -3.5 0 
" id="mc6c83ef4f4" style="stroke:#000000;stroke-width:0.8;"/>
      </defs>
      <g>
       <use style="stroke:#000000;stroke-width:0.8;" x="59.690625" xlink:href="#mc6c83ef4f4" y="259.177288"/>
      </g>
     </g>
     <g id="text_6">
      <!-- 13680 -->
      <g transform="translate(20.878125 262.976507)scale(0.1 -0.1)">
       <defs>
        <path d="M 12.40625 8.296875 
L 28.515625 8.296875 
L 28.515625 63.921875 
L 10.984375 60.40625 
L 10.984375 69.390625 
L 28.421875 72.90625 
L 38.28125 72.90625 
L 38.28125 8.296875 
L 54.390625 8.296875 
L 54.390625 0 
L 12.40625 0 
z
" id="DejaVuSans-49"/>
        <path d="M 40.578125 39.3125 
Q 47.65625 37.796875 51.625 33 
Q 55.609375 28.21875 55.609375 21.1875 
Q 55.609375 10.40625 48.1875 4.484375 
Q 40.765625 -1.421875 27.09375 -1.421875 
Q 22.515625 -1.421875 17.65625 -0.515625 
Q 12.796875 0.390625 7.625 2.203125 
L 7.625 11.71875 
Q 11.71875 9.328125 16.59375 8.109375 
Q 21.484375 6.890625 26.8125 6.890625 
Q 36.078125 6.890625 40.9375 10.546875 
Q 45.796875 14.203125 45.796875 21.1875 
Q 45.796875 27.640625 41.28125 31.265625 
Q 36.765625 34.90625 28.71875 34.90625 
L 20.21875 34.90625 
L 20.21875 43.015625 
L 29.109375 43.015625 
Q 36.375 43.015625 40.234375 45.921875 
Q 44.09375 48.828125 44.09375 54.296875 
Q 44.09375 59.90625 40.109375 62.90625 
Q 36.140625 65.921875 28.71875 65.921875 
Q 24.65625 65.921875 20.015625 65.03125 
Q 15.375 64.15625 9.8125 62.3125 
L 9.8125 71.09375 
Q 15.4375 72.65625 20.34375 73.4375 
Q 25.25 74.21875 29.59375 74.21875 
Q 40.828125 74.21875 47.359375 69.109375 
Q 53.90625 64.015625 53.90625 55.328125 
Q 53.90625 49.265625 50.4375 45.09375 
Q 46.96875 40.921875 40.578125 39.3125 
z
" id="DejaVuSans-51"/>
        <path d="M 33.015625 40.375 
Q 26.375 40.375 22.484375 35.828125 
Q 18.609375 31.296875 18.609375 23.390625 
Q 18.609375 15.53125 22.484375 10.953125 
Q 26.375 6.390625 33.015625 6.390625 
Q 39.65625 6.390625 43.53125 10.953125 
Q 47.40625 15.53125 47.40625 23.390625 
Q 47.40625 31.296875 43.53125 35.828125 
Q 39.65625 40.375 33.015625 40.375 
z
M 52.59375 71.296875 
L 52.59375 62.3125 
Q 48.875 64.0625 45.09375 64.984375 
Q 41.3125 65.921875 37.59375 65.921875 
Q 27.828125 65.921875 22.671875 59.328125 
Q 17.53125 52.734375 16.796875 39.40625 
Q 19.671875 43.65625 24.015625 45.921875 
Q 28.375 48.1875 33.59375 48.1875 
Q 44.578125 48.1875 50.953125 41.515625 
Q 57.328125 34.859375 57.328125 23.390625 
Q 57.328125 12.15625 50.6875 5.359375 
Q 44.046875 -1.421875 33.015625 -1.421875 
Q 20.359375 -1.421875 13.671875 8.265625 
Q 6.984375 17.96875 6.984375 36.375 
Q 6.984375 53.65625 15.1875 63.9375 
Q 23.390625 74.21875 37.203125 74.21875 
Q 40.921875 74.21875 44.703125 73.484375 
Q 48.484375 72.75 52.59375 71.296875 
z
" id="DejaVuSans-54"/>
        <path d="M 31.78125 34.625 
Q 24.75 34.625 20.71875 30.859375 
Q 16.703125 27.09375 16.703125 20.515625 
Q 16.703125 13.921875 20.71875 10.15625 
Q 24.75 6.390625 31.78125 6.390625 
Q 38.8125 6.390625 42.859375 10.171875 
Q 46.921875 13.96875 46.921875 20.515625 
Q 46.921875 27.09375 42.890625 30.859375 
Q 38.875 34.625 31.78125 34.625 
z
M 21.921875 38.8125 
Q 15.578125 40.375 12.03125 44.71875 
Q 8.5 49.078125 8.5 55.328125 
Q 8.5 64.0625 14.71875 69.140625 
Q 20.953125 74.21875 31.78125 74.21875 
Q 42.671875 74.21875 48.875 69.140625 
Q 55.078125 64.0625 55.078125 55.328125 
Q 55.078125 49.078125 51.53125 44.71875 
Q 48 40.375 41.703125 38.8125 
Q 48.828125 37.15625 52.796875 32.3125 
Q 56.78125 27.484375 56.78125 20.515625 
Q 56.78125 9.90625 50.3125 4.234375 
Q 43.84375 -1.421875 31.78125 -1.421875 
Q 19.734375 -1.421875 13.25 4.234375 
Q 6.78125 9.90625 6.78125 20.515625 
Q 6.78125 27.484375 10.78125 32.3125 
Q 14.796875 37.15625 21.921875 38.8125 
z
M 18.3125 54.390625 
Q 18.3125 48.734375 21.84375 45.5625 
Q 25.390625 42.390625 31.78125 42.390625 
Q 38.140625 42.390625 41.71875 45.5625 
Q 45.3125 48.734375 45.3125 54.390625 
Q 45.3125 60.0625 41.71875 63.234375 
Q 38.140625 66.40625 31.78125 66.40625 
Q 25.390625 66.40625 21.84375 63.234375 
Q 18.3125 60.0625 18.3125 54.390625 
z
" id="DejaVuSans-56"/>
        <path d="M 31.78125 66.40625 
Q 24.171875 66.40625 20.328125 58.90625 
Q 16.5 51.421875 16.5 36.375 
Q 16.5 21.390625 20.328125 13.890625 
Q 24.171875 6.390625 31.78125 6.390625 
Q 39.453125 6.390625 43.28125 13.890625 
Q 47.125 21.390625 47.125 36.375 
Q 47.125 51.421875 43.28125 58.90625 
Q 39.453125 66.40625 31.78125 66.40625 
z
M 31.78125 74.21875 
Q 44.046875 74.21875 50.515625 64.515625 
Q 56.984375 54.828125 56.984375 36.375 
Q 56.984375 17.96875 50.515625 8.265625 
Q 44.046875 -1.421875 31.78125 -1.421875 
Q 19.53125 -1.421875 13.0625 8.265625 
Q 6.59375 17.96875 6.59375 36.375 
Q 6.59375 54.828125 13.0625 64.515625 
Q 19.53125 74.21875 31.78125 74.21875 
z
" id="DejaVuSans-48"/>
       </defs>
       <use xlink:href="#DejaVuSans-49"/>
       <use x="63.623047" xlink:href="#DejaVuSans-51"/>
       <use x="127.246094" xlink:href="#DejaVuSans-54"/>
       <use x="190.869141" xlink:href="#DejaVuSans-56"/>
       <use x="254.492188" xlink:href="#DejaVuSans-48"/>
      </g>
     </g>
    </g>
    <g id="ytick_2">
     <g id="line2d_6">
      <g>
       <use style="stroke:#000000;stroke-width:0.8;" x="59.690625" xlink:href="#mc6c83ef4f4" y="216.179519"/>
      </g>
     </g>
     <g id="text_7">
      <!-- 13700 -->
      <g transform="translate(20.878125 219.978738)scale(0.1 -0.1)">
       <defs>
        <path d="M 8.203125 72.90625 
L 55.078125 72.90625 
L 55.078125 68.703125 
L 28.609375 0 
L 18.3125 0 
L 43.21875 64.59375 
L 8.203125 64.59375 
z
" id="DejaVuSans-55"/>
       </defs>
       <use xlink:href="#DejaVuSans-49"/>
       <use x="63.623047" xlink:href="#DejaVuSans-51"/>
       <use x="127.246094" xlink:href="#DejaVuSans-55"/>
       <use x="190.869141" xlink:href="#DejaVuSans-48"/>
       <use x="254.492188" xlink:href="#DejaVuSans-48"/>
      </g>
     </g>
    </g>
    <g id="ytick_3">
     <g id="line2d_7">
      <g>
       <use style="stroke:#000000;stroke-width:0.8;" x="59.690625" xlink:href="#mc6c83ef4f4" y="173.18175"/>
      </g>
     </g>
     <g id="text_8">
      <!-- 13720 -->
      <g transform="translate(20.878125 176.980969)scale(0.1 -0.1)">
       <defs>
        <path d="M 19.1875 8.296875 
L 53.609375 8.296875 
L 53.609375 0 
L 7.328125 0 
L 7.328125 8.296875 
Q 12.9375 14.109375 22.625 23.890625 
Q 32.328125 33.6875 34.8125 36.53125 
Q 39.546875 41.84375 41.421875 45.53125 
Q 43.3125 49.21875 43.3125 52.78125 
Q 43.3125 58.59375 39.234375 62.25 
Q 35.15625 65.921875 28.609375 65.921875 
Q 23.96875 65.921875 18.8125 64.3125 
Q 13.671875 62.703125 7.8125 59.421875 
L 7.8125 69.390625 
Q 13.765625 71.78125 18.9375 73 
Q 24.125 74.21875 28.421875 74.21875 
Q 39.75 74.21875 46.484375 68.546875 
Q 53.21875 62.890625 53.21875 53.421875 
Q 53.21875 48.921875 51.53125 44.890625 
Q 49.859375 40.875 45.40625 35.40625 
Q 44.1875 33.984375 37.640625 27.21875 
Q 31.109375 20.453125 19.1875 8.296875 
z
" id="DejaVuSans-50"/>
       </defs>
       <use xlink:href="#DejaVuSans-49"/>
       <use x="63.623047" xlink:href="#DejaVuSans-51"/>
       <use x="127.246094" xlink:href="#DejaVuSans-55"/>
       <use x="190.869141" xlink:href="#DejaVuSans-50"/>
       <use x="254.492188" xlink:href="#DejaVuSans-48"/>
      </g>
     </g>
    </g>
    <g id="ytick_4">
     <g id="line2d_8">
      <g>
       <use style="stroke:#000000;stroke-width:0.8;" x="59.690625" xlink:href="#mc6c83ef4f4" y="130.183981"/>
      </g>
     </g>
     <g id="text_9">
      <!-- 13740 -->
      <g transform="translate(20.878125 133.9832)scale(0.1 -0.1)">
       <defs>
        <path d="M 37.796875 64.3125 
L 12.890625 25.390625 
L 37.796875 25.390625 
z
M 35.203125 72.90625 
L 47.609375 72.90625 
L 47.609375 25.390625 
L 58.015625 25.390625 
L 58.015625 17.1875 
L 47.609375 17.1875 
L 47.609375 0 
L 37.796875 0 
L 37.796875 17.1875 
L 4.890625 17.1875 
L 4.890625 26.703125 
z
" id="DejaVuSans-52"/>
       </defs>
       <use xlink:href="#DejaVuSans-49"/>
       <use x="63.623047" xlink:href="#DejaVuSans-51"/>
       <use x="127.246094" xlink:href="#DejaVuSans-55"/>
       <use x="190.869141" xlink:href="#DejaVuSans-52"/>
       <use x="254.492188" xlink:href="#DejaVuSans-48"/>
      </g>
     </g>
    </g>
    <g id="ytick_5">
     <g id="line2d_9">
      <g>
       <use style="stroke:#000000;stroke-width:0.8;" x="59.690625" xlink:href="#mc6c83ef4f4" y="87.186212"/>
      </g>
     </g>
     <g id="text_10">
      <!-- 13760 -->
      <g transform="translate(20.878125 90.985431)scale(0.1 -0.1)">
       <use xlink:href="#DejaVuSans-49"/>
       <use x="63.623047" xlink:href="#DejaVuSans-51"/>
       <use x="127.246094" xlink:href="#DejaVuSans-55"/>
       <use x="190.869141" xlink:href="#DejaVuSans-54"/>
       <use x="254.492188" xlink:href="#DejaVuSans-48"/>
      </g>
     </g>
    </g>
    <g id="ytick_6">
     <g id="line2d_10">
      <g>
       <use style="stroke:#000000;stroke-width:0.8;" x="59.690625" xlink:href="#mc6c83ef4f4" y="44.188443"/>
      </g>
     </g>
     <g id="text_11">
      <!-- 13780 -->
      <g transform="translate(20.878125 47.987662)scale(0.1 -0.1)">
       <use xlink:href="#DejaVuSans-49"/>
       <use x="63.623047" xlink:href="#DejaVuSans-51"/>
       <use x="127.246094" xlink:href="#DejaVuSans-55"/>
       <use x="190.869141" xlink:href="#DejaVuSans-56"/>
       <use x="254.492188" xlink:href="#DejaVuSans-48"/>
      </g>
     </g>
    </g>
    <g id="text_12">
     <!-- Reached region coverage -->
     <g transform="translate(14.798438 219.136625)rotate(-90)scale(0.1 -0.1)">
      <defs>
       <path d="M 44.390625 34.1875 
Q 47.5625 33.109375 50.5625 29.59375 
Q 53.5625 26.078125 56.59375 19.921875 
L 66.609375 0 
L 56 0 
L 46.6875 18.703125 
Q 43.0625 26.03125 39.671875 28.421875 
Q 36.28125 30.8125 30.421875 30.8125 
L 19.671875 30.8125 
L 19.671875 0 
L 9.8125 0 
L 9.8125 72.90625 
L 32.078125 72.90625 
Q 44.578125 72.90625 50.734375 67.671875 
Q 56.890625 62.453125 56.890625 51.90625 
Q 56.890625 45.015625 53.6875 40.46875 
Q 50.484375 35.9375 44.390625 34.1875 
z
M 19.671875 64.796875 
L 19.671875 38.921875 
L 32.078125 38.921875 
Q 39.203125 38.921875 42.84375 42.21875 
Q 46.484375 45.515625 46.484375 51.90625 
Q 46.484375 58.296875 42.84375 61.546875 
Q 39.203125 64.796875 32.078125 64.796875 
z
" id="DejaVuSans-82"/>
      </defs>
      <use xlink:href="#DejaVuSans-82"/>
      <use x="64.982422" xlink:href="#DejaVuSans-101"/>
      <use x="126.505859" xlink:href="#DejaVuSans-97"/>
      <use x="187.785156" xlink:href="#DejaVuSans-99"/>
      <use x="242.765625" xlink:href="#DejaVuSans-104"/>
      <use x="306.144531" xlink:href="#DejaVuSans-101"/>
      <use x="367.667969" xlink:href="#DejaVuSans-100"/>
      <use x="431.144531" xlink:href="#DejaVuSans-32"/>
      <use x="462.931641" xlink:href="#DejaVuSans-114"/>
      <use x="501.794922" xlink:href="#DejaVuSans-101"/>
      <use x="563.318359" xlink:href="#DejaVuSans-103"/>
      <use x="626.794922" xlink:href="#DejaVuSans-105"/>
      <use x="654.578125" xlink:href="#DejaVuSans-111"/>
      <use x="715.759766" xlink:href="#DejaVuSans-110"/>
      <use x="779.138672" xlink:href="#DejaVuSans-32"/>
      <use x="810.925781" xlink:href="#DejaVuSans-99"/>
      <use x="865.90625" xlink:href="#DejaVuSans-111"/>
      <use x="927.087891" xlink:href="#DejaVuSans-118"/>
      <use x="986.267578" xlink:href="#DejaVuSans-101"/>
      <use x="1047.791016" xlink:href="#DejaVuSans-114"/>
      <use x="1088.904297" xlink:href="#DejaVuSans-97"/>
      <use x="1150.183594" xlink:href="#DejaVuSans-103"/>
      <use x="1213.660156" xlink:href="#DejaVuSans-101"/>
     </g>
    </g>
   </g>
   <g id="line2d_11">
    <path clip-path="url(#pa08152008c)" d="M 104.330625 93.635878 
L 104.330625 74.286881 
" style="fill:none;stroke:#3f3f3f;stroke-linecap:square;stroke-width:1.5;"/>
   </g>
   <g id="line2d_12">
    <path clip-path="url(#pa08152008c)" d="M 104.330625 93.635878 
L 104.330625 74.286881 
" style="fill:none;stroke:#3f3f3f;stroke-linecap:square;stroke-width:4.5;"/>
   </g>
   <g id="line2d_13">
    <path clip-path="url(#pa08152008c)" d="M 193.610625 143.083312 
L 193.610625 132.33387 
" style="fill:none;stroke:#3f3f3f;stroke-linecap:square;stroke-width:1.5;"/>
   </g>
   <g id="line2d_14">
    <path clip-path="url(#pa08152008c)" d="M 193.610625 140.933423 
L 193.610625 132.33387 
" style="fill:none;stroke:#3f3f3f;stroke-linecap:square;stroke-width:4.5;"/>
   </g>
   <g id="line2d_15">
    <path clip-path="url(#pa08152008c)" d="M 282.890625 244.128069 
L 282.890625 239.828292 
" style="fill:none;stroke:#3f3f3f;stroke-linecap:square;stroke-width:1.5;"/>
   </g>
   <g id="line2d_16">
    <path clip-path="url(#pa08152008c)" d="M 282.890625 244.128069 
L 282.890625 239.828292 
" style="fill:none;stroke:#3f3f3f;stroke-linecap:square;stroke-width:4.5;"/>
   </g>
   <g id="line2d_17">
    <path clip-path="url(#pa08152008c)" d="M 372.170625 246.277957 
L 372.170625 246.277957 
" style="fill:none;stroke:#3f3f3f;stroke-linecap:square;stroke-width:1.5;"/>
   </g>
   <g id="line2d_18">
    <path clip-path="url(#pa08152008c)" d="M 372.170625 246.277957 
L 372.170625 245.740485 
" style="fill:none;stroke:#3f3f3f;stroke-linecap:square;stroke-width:4.5;"/>
   </g>
   <g id="patch_3">
    <path d="M 59.690625 259.177288 
L 59.690625 44.188443 
" style="fill:none;stroke:#000000;stroke-linecap:square;stroke-linejoin:miter;stroke-width:0.8;"/>
   </g>
   <g id="patch_4">
    <path d="M 104.330625 288.430125 
L 372.170625 288.430125 
" style="fill:none;stroke:#000000;stroke-linecap:square;stroke-linejoin:miter;stroke-width:0.8;"/>
   </g>
   <g id="PathCollection_1">
    <defs>
     <path d="M 0 1.5 
C 0.397805 1.5 0.77937 1.341951 1.06066 1.06066 
C 1.341951 0.77937 1.5 0.397805 1.5 0 
C 1.5 -0.397805 1.341951 -0.77937 1.06066 -1.06066 
C 0.77937 -1.341951 0.397805 -1.5 0 -1.5 
C -0.397805 -1.5 -0.77937 -1.341951 -1.06066 -1.06066 
C -1.341951 -0.77937 -1.5 -0.397805 -1.5 0 
C -1.5 0.397805 -1.341951 0.77937 -1.06066 1.06066 
C -0.77937 1.341951 -0.397805 1.5 0 1.5 
z
" id="m4c390bfbf3" style="stroke:#3f3f3f;"/>
    </defs>
    <g clip-path="url(#pa08152008c)">
     <use style="fill:#ffffff;stroke:#3f3f3f;" x="104.330625" xlink:href="#m4c390bfbf3" y="87.186212"/>
    </g>
   </g>
   <g id="PathCollection_2">
    <g clip-path="url(#pa08152008c)">
     <use style="fill:#ffffff;stroke:#3f3f3f;" x="193.610625" xlink:href="#m4c390bfbf3" y="140.933423"/>
    </g>
   </g>
   <g id="PathCollection_3">
    <g clip-path="url(#pa08152008c)">
     <use style="fill:#ffffff;stroke:#3f3f3f;" x="282.890625" xlink:href="#m4c390bfbf3" y="239.828292"/>
    </g>
   </g>
   <g id="PathCollection_4">
    <g clip-path="url(#pa08152008c)">
     <use style="fill:#ffffff;stroke:#3f3f3f;" x="372.170625" xlink:href="#m4c390bfbf3" y="246.277957"/>
    </g>
   </g>
   <g id="text_13">
    <!-- openssl_x509 (5h:45m, 4 trials/fuzzer) -->
    <g transform="translate(122.759063 16.318125)scale(0.12 -0.12)">
     <defs>
      <path d="M 54.890625 54.6875 
L 35.109375 28.078125 
L 55.90625 0 
L 45.3125 0 
L 29.390625 21.484375 
L 13.484375 0 
L 2.875 0 
L 24.125 28.609375 
L 4.6875 54.6875 
L 15.28125 54.6875 
L 29.78125 35.203125 
L 44.28125 54.6875 
z
" id="DejaVuSans-120"/>
      <path d="M 10.796875 72.90625 
L 49.515625 72.90625 
L 49.515625 64.59375 
L 19.828125 64.59375 
L 19.828125 46.734375 
Q 21.96875 47.46875 24.109375 47.828125 
Q 26.265625 48.1875 28.421875 48.1875 
Q 40.625 48.1875 47.75 41.5 
Q 54.890625 34.8125 54.890625 23.390625 
Q 54.890625 11.625 47.5625 5.09375 
Q 40.234375 -1.421875 26.90625 -1.421875 
Q 22.3125 -1.421875 17.546875 -0.640625 
Q 12.796875 0.140625 7.71875 1.703125 
L 7.71875 11.625 
Q 12.109375 9.234375 16.796875 8.0625 
Q 21.484375 6.890625 26.703125 6.890625 
Q 35.15625 6.890625 40.078125 11.328125 
Q 45.015625 15.765625 45.015625 23.390625 
Q 45.015625 31 40.078125 35.4375 
Q 35.15625 39.890625 26.703125 39.890625 
Q 22.75 39.890625 18.8125 39.015625 
Q 14.890625 38.140625 10.796875 36.28125 
z
" id="DejaVuSans-53"/>
      <path d="M 10.984375 1.515625 
L 10.984375 10.5 
Q 14.703125 8.734375 18.5 7.8125 
Q 22.3125 6.890625 25.984375 6.890625 
Q 35.75 6.890625 40.890625 13.453125 
Q 46.046875 20.015625 46.78125 33.40625 
Q 43.953125 29.203125 39.59375 26.953125 
Q 35.25 24.703125 29.984375 24.703125 
Q 19.046875 24.703125 12.671875 31.3125 
Q 6.296875 37.9375 6.296875 49.421875 
Q 6.296875 60.640625 12.9375 67.421875 
Q 19.578125 74.21875 30.609375 74.21875 
Q 43.265625 74.21875 49.921875 64.515625 
Q 56.59375 54.828125 56.59375 36.375 
Q 56.59375 19.140625 48.40625 8.859375 
Q 40.234375 -1.421875 26.421875 -1.421875 
Q 22.703125 -1.421875 18.890625 -0.6875 
Q 15.09375 0.046875 10.984375 1.515625 
z
M 30.609375 32.421875 
Q 37.25 32.421875 41.125 36.953125 
Q 45.015625 41.5 45.015625 49.421875 
Q 45.015625 57.28125 41.125 61.84375 
Q 37.25 66.40625 30.609375 66.40625 
Q 23.96875 66.40625 20.09375 61.84375 
Q 16.21875 57.28125 16.21875 49.421875 
Q 16.21875 41.5 20.09375 36.953125 
Q 23.96875 32.421875 30.609375 32.421875 
z
" id="DejaVuSans-57"/>
      <path d="M 11.71875 12.40625 
L 22.015625 12.40625 
L 22.015625 0 
L 11.71875 0 
z
M 11.71875 51.703125 
L 22.015625 51.703125 
L 22.015625 39.3125 
L 11.71875 39.3125 
z
" id="DejaVuSans-58"/>
      <path d="M 11.71875 12.40625 
L 22.015625 12.40625 
L 22.015625 4 
L 14.015625 -11.625 
L 7.71875 -11.625 
L 11.71875 4 
z
" id="DejaVuSans-44"/>
      <path d="M 25.390625 72.90625 
L 33.6875 72.90625 
L 8.296875 -9.28125 
L 0 -9.28125 
z
" id="DejaVuSans-47"/>
     </defs>
     <use xlink:href="#DejaVuSans-111"/>
     <use x="61.181641" xlink:href="#DejaVuSans-112"/>
     <use x="124.658203" xlink:href="#DejaVuSans-101"/>
     <use x="186.181641" xlink:href="#DejaVuSans-110"/>
     <use x="249.560547" xlink:href="#DejaVuSans-115"/>
     <use x="301.660156" xlink:href="#DejaVuSans-115"/>
     <use x="353.759766" xlink:href="#DejaVuSans-108"/>
     <use x="381.542969" xlink:href="#DejaVuSans-95"/>
     <use x="431.542969" xlink:href="#DejaVuSans-120"/>
     <use x="490.722656" xlink:href="#DejaVuSans-53"/>
     <use x="554.345703" xlink:href="#DejaVuSans-48"/>
     <use x="617.96875" xlink:href="#DejaVuSans-57"/>
     <use x="681.591797" xlink:href="#DejaVuSans-32"/>
     <use x="713.378906" xlink:href="#DejaVuSans-40"/>
     <use x="752.392578" xlink:href="#DejaVuSans-53"/>
     <use x="816.015625" xlink:href="#DejaVuSans-104"/>
     <use x="879.394531" xlink:href="#DejaVuSans-58"/>
     <use x="913.085938" xlink:href="#DejaVuSans-52"/>
     <use x="976.708984" xlink:href="#DejaVuSans-53"/>
     <use x="1040.332031" xlink:href="#DejaVuSans-109"/>
     <use x="1137.744141" xlink:href="#DejaVuSans-44"/>
     <use x="1169.53125" xlink:href="#DejaVuSans-32"/>
     <use x="1201.318359" xlink:href="#DejaVuSans-52"/>
     <use x="1264.941406" xlink:href="#DejaVuSans-32"/>
     <use x="1296.728516" xlink:href="#DejaVuSans-116"/>
     <use x="1335.9375" xlink:href="#DejaVuSans-114"/>
     <use x="1377.050781" xlink:href="#DejaVuSans-105"/>
     <use x="1404.833984" xlink:href="#DejaVuSans-97"/>
     <use x="1466.113281" xlink:href="#DejaVuSans-108"/>
     <use x="1493.896484" xlink:href="#DejaVuSans-115"/>
     <use x="1545.996094" xlink:href="#DejaVuSans-47"/>
     <use x="1579.6875" xlink:href="#DejaVuSans-102"/>
     <use x="1614.892578" xlink:href="#DejaVuSans-117"/>
     <use x="1678.271484" xlink:href="#DejaVuSans-122"/>
     <use x="1730.761719" xlink:href="#DejaVuSans-122"/>
     <use x="1783.251953" xlink:href="#DejaVuSans-101"/>
     <use x="1844.775391" xlink:href="#DejaVuSans-114"/>
     <use x="1885.888672" xlink:href="#DejaVuSans-41"/>
    </g>
   </g>
  </g>
 </g>
 <defs>
  <clipPath id="pa08152008c">
   <rect height="266.112" width="357.12" x="59.690625" y="22.318125"/>
  </clipPath>
 </defs>
</svg>
