<?xml version="1.0" encoding="utf-8" standalone="no"?>
<!DOCTYPE svg PUBLIC "-//W3C//DTD SVG 1.1//EN"
  "http://www.w3.org/Graphics/SVG/1.1/DTD/svg11.dtd">
<!-- Created with matplotlib (https://matplotlib.org/) -->
<svg height="325.986375pt" version="1.1" viewBox="0 0 871.594687 325.986375" width="871.594687pt" xmlns="http://www.w3.org/2000/svg" xmlns:xlink="http://www.w3.org/1999/xlink">
 <metadata>
  <rdf:RDF xmlns:cc="http://creativecommons.org/ns#" xmlns:dc="http://purl.org/dc/elements/1.1/" xmlns:rdf="http://www.w3.org/1999/02/22-rdf-syntax-ns#">
   <cc:Work>
    <dc:type rdf:resource="http://purl.org/dc/dcmitype/StillImage"/>
    <dc:date>2021-07-13T20:57:00.134464</dc:date>
    <dc:format>image/svg+xml</dc:format>
    <dc:creator>
     <cc:Agent>
      <dc:title>Matplotlib v3.3.3, https://matplotlib.org/</dc:title>
     </cc:Agent>
    </dc:creator>
   </cc:Work>
  </rdf:RDF>
 </metadata>
 <defs>
  <style type="text/css">*{stroke-linecap:butt;stroke-linejoin:round;}</style>
 </defs>
 <g id="figure_1">
  <g id="patch_1">
   <path d="M 0 325.986375 
L 871.594688 325.986375 
L 871.594688 0 
L 0 0 
z
" style="fill:#ffffff;"/>
  </g>
  <g id="axes_1">
   <g id="patch_2">
    <path d="M 53.328125 288.430125 
L 767.568125 288.430125 
L 767.568125 22.318125 
L 53.328125 22.318125 
z
" style="fill:#ffffff;"/>
   </g>
   <g id="PolyCollection_1">
    <defs>
     <path d="M 85.79358 -175.717705 
L 85.79358 -168.255886 
L 92.928844 -191.819523 
L 100.064109 -209.49225 
L 107.199374 -224.415886 
L 114.334638 -246.21225 
L 121.469903 -257.994068 
L 128.605168 -266.241341 
L 135.740433 -267.81225 
L 142.875697 -269.579523 
L 150.010962 -270.168614 
L 157.146227 -270.168614 
L 164.281492 -270.757705 
L 171.416756 -270.757705 
L 178.552021 -271.543159 
L 185.687286 -271.543159 
L 192.822551 -271.543159 
L 199.957815 -271.638886 
L 207.09308 -271.543159 
L 214.228345 -271.837705 
L 221.36361 -271.739523 
L 228.498874 -272.034068 
L 235.634139 -272.13225 
L 242.769404 -272.227977 
L 249.904668 -272.328614 
L 257.039933 -272.328614 
L 264.175198 -272.328614 
L 271.310463 -272.328614 
L 278.445727 -272.328614 
L 285.580992 -272.328614 
L 292.716257 -272.328614 
L 299.851522 -272.524977 
L 306.986786 -272.524977 
L 314.122051 -272.328614 
L 321.257316 -272.524977 
L 328.392581 -272.623159 
L 335.527845 -272.623159 
L 342.66311 -272.623159 
L 349.798375 -272.623159 
L 356.933639 -272.623159 
L 364.068904 -272.524977 
L 371.204169 -272.623159 
L 378.339434 -272.721341 
L 385.474698 -272.917705 
L 392.609963 -272.917705 
L 399.745228 -272.917705 
L 406.880493 -272.917705 
L 414.015757 -272.917705 
L 421.151022 -272.917705 
L 428.286287 -272.917705 
L 435.421552 -272.917705 
L 442.556816 -273.114068 
L 449.692081 -273.015886 
L 456.827346 -272.917705 
L 463.962611 -273.015886 
L 471.097875 -273.111614 
L 478.23314 -273.015886 
L 485.368405 -273.015886 
L 492.503669 -273.015886 
L 499.638934 -273.015886 
L 506.774199 -273.114068 
L 513.909464 -273.114068 
L 521.044728 -273.114068 
L 528.179993 -273.114068 
L 535.315258 -273.114068 
L 542.450523 -273.114068 
L 549.585787 -273.114068 
L 556.721052 -273.114068 
L 563.856317 -273.114068 
L 570.991582 -273.114068 
L 578.126846 -273.114068 
L 585.262111 -273.114068 
L 592.397376 -273.114068 
L 599.53264 -273.114068 
L 606.667905 -273.114068 
L 613.80317 -273.114068 
L 620.938435 -273.114068 
L 628.073699 -273.114068 
L 635.208964 -273.114068 
L 642.344229 -273.114068 
L 649.479494 -273.114068 
L 656.614758 -273.114068 
L 663.750023 -273.114068 
L 670.885288 -273.114068 
L 678.020553 -273.899523 
L 685.155817 -274.29225 
L 692.291082 -274.29225 
L 699.426347 -274.478795 
L 706.561612 -274.488614 
L 713.696876 -274.478795 
L 720.832141 -274.488614 
L 727.967406 -275.077705 
L 735.10267 -275.843523 
L 735.10267 -291.081341 
L 735.10267 -291.081341 
L 727.967406 -291.081341 
L 720.832141 -291.081341 
L 713.696876 -291.081341 
L 706.561612 -291.57225 
L 699.426347 -291.57225 
L 692.291082 -291.081341 
L 685.155817 -291.081341 
L 678.020553 -291.081341 
L 670.885288 -291.093614 
L 663.750023 -290.602705 
L 656.614758 -291.081341 
L 649.479494 -291.081341 
L 642.344229 -290.983159 
L 635.208964 -290.983159 
L 628.073699 -291.179523 
L 620.938435 -291.179523 
L 613.80317 -290.884977 
L 606.667905 -290.099523 
L 599.53264 -289.510432 
L 592.397376 -289.510432 
L 585.262111 -289.314068 
L 578.126846 -289.314068 
L 570.991582 -289.215886 
L 563.856317 -289.215886 
L 556.721052 -289.117705 
L 549.585787 -289.608614 
L 542.450523 -289.117705 
L 535.315258 -288.33225 
L 528.179993 -288.33225 
L 521.044728 -288.364159 
L 513.909464 -289.608614 
L 506.774199 -288.33225 
L 499.638934 -288.33225 
L 492.503669 -288.33225 
L 485.368405 -288.33225 
L 478.23314 -288.33225 
L 471.097875 -288.33225 
L 463.962611 -289.608614 
L 456.827346 -288.33225 
L 449.692081 -288.33225 
L 442.556816 -288.33225 
L 435.421552 -288.33225 
L 428.286287 -288.33225 
L 421.151022 -288.33225 
L 414.015757 -289.510432 
L 406.880493 -288.33225 
L 399.745228 -288.234068 
L 392.609963 -288.261068 
L 385.474698 -289.41225 
L 378.339434 -288.234068 
L 371.204169 -288.234068 
L 364.068904 -287.055886 
L 356.933639 -286.859523 
L 349.798375 -286.859523 
L 342.66311 -286.859523 
L 335.527845 -286.663159 
L 328.392581 -286.466795 
L 321.257316 -286.466795 
L 314.122051 -286.466795 
L 306.986786 -286.466795 
L 299.851522 -286.466795 
L 292.716257 -286.17225 
L 285.580992 -286.074068 
L 278.445727 -286.17225 
L 271.310463 -286.17225 
L 264.175198 -286.17225 
L 257.039933 -286.074068 
L 249.904668 -286.074068 
L 242.769404 -285.975886 
L 235.634139 -285.975886 
L 228.498874 -285.877705 
L 221.36361 -285.877705 
L 214.228345 -285.877705 
L 207.09308 -285.681341 
L 199.957815 -285.779523 
L 192.822551 -285.779523 
L 185.687286 -284.601341 
L 178.552021 -284.503159 
L 171.416756 -284.503159 
L 164.281492 -278.808614 
L 157.146227 -278.808614 
L 150.010962 -278.808614 
L 142.875697 -278.514068 
L 135.740433 -276.746795 
L 128.605168 -269.780795 
L 121.469903 -268.794068 
L 114.334638 -259.663159 
L 107.199374 -241.499523 
L 100.064109 -216.463159 
L 92.928844 -200.85225 
L 85.79358 -175.717705 
z
" id="m85b5bba029" style="stroke:#1f77b4;stroke-opacity:0.2;"/>
    </defs>
    <g clip-path="url(#pa05c9e1390)">
     <use style="fill:#1f77b4;fill-opacity:0.2;stroke:#1f77b4;stroke-opacity:0.2;" x="0" xlink:href="#m85b5bba029" y="325.986375"/>
    </g>
   </g>
   <g id="PolyCollection_2">
    <defs>
     <path d="M 85.79358 -67.030432 
L 85.79358 -49.65225 
L 92.928844 -91.870432 
L 100.064109 -118.858159 
L 107.199374 -146.85225 
L 114.334638 -151.074068 
L 121.469903 -156.57225 
L 128.605168 -162.364977 
L 135.740433 -166.783159 
L 142.875697 -170.121341 
L 150.010962 -174.441341 
L 157.146227 -174.735886 
L 164.281492 -178.466795 
L 171.416756 -188.874068 
L 178.552021 -191.230432 
L 185.687286 -192.114068 
L 192.822551 -194.961341 
L 199.957815 -196.53225 
L 207.09308 -195.45225 
L 214.228345 -201.244977 
L 221.36361 -205.466795 
L 228.498874 -207.037705 
L 235.634139 -208.019523 
L 242.769404 -208.215886 
L 249.904668 -209.197705 
L 257.039933 -211.554068 
L 264.175198 -212.241341 
L 271.310463 -215.464159 
L 278.445727 -216.659523 
L 285.580992 -216.517159 
L 292.716257 -220.095886 
L 299.851522 -220.783159 
L 306.986786 -221.077705 
L 314.122051 -224.121341 
L 321.257316 -225.576886 
L 328.392581 -227.85225 
L 335.527845 -228.048614 
L 342.66311 -226.968614 
L 349.798375 -231.583159 
L 356.933639 -231.779523 
L 364.068904 -234.626795 
L 371.204169 -235.41225 
L 378.339434 -235.019523 
L 385.474698 -235.903159 
L 392.609963 -235.804977 
L 399.745228 -235.804977 
L 406.880493 -236.001341 
L 414.015757 -235.804977 
L 421.151022 -236.295886 
L 428.286287 -236.391614 
L 435.421552 -236.295886 
L 442.556816 -236.295886 
L 449.692081 -236.394068 
L 456.827346 -236.49225 
L 463.962611 -236.49225 
L 471.097875 -235.804977 
L 478.23314 -236.49225 
L 485.368405 -236.688614 
L 492.503669 -236.688614 
L 499.638934 -236.786795 
L 506.774199 -236.786795 
L 513.909464 -236.983159 
L 521.044728 -236.983159 
L 528.179993 -236.983159 
L 535.315258 -236.49225 
L 542.450523 -236.983159 
L 549.585787 -236.394068 
L 556.721052 -236.983159 
L 563.856317 -236.983159 
L 570.991582 -236.983159 
L 578.126846 -237.081341 
L 585.262111 -236.983159 
L 592.397376 -236.983159 
L 599.53264 -237.078886 
L 606.667905 -237.375886 
L 613.80317 -237.370977 
L 620.938435 -237.375886 
L 628.073699 -237.081341 
L 635.208964 -237.375886 
L 642.344229 -237.375886 
L 649.479494 -237.375886 
L 656.614758 -237.57225 
L 663.750023 -238.156432 
L 670.885288 -238.161341 
L 678.020553 -238.161341 
L 685.155817 -238.161341 
L 692.291082 -238.161341 
L 699.426347 -238.161341 
L 706.561612 -238.161341 
L 713.696876 -238.161341 
L 720.832141 -238.161341 
L 727.967406 -238.161341 
L 735.10267 -238.161341 
L 735.10267 -275.470432 
L 735.10267 -275.470432 
L 727.967406 -274.135159 
L 720.832141 -275.666795 
L 713.696876 -274.095886 
L 706.561612 -275.666795 
L 699.426347 -275.666795 
L 692.291082 -275.175886 
L 685.155817 -275.175886 
L 678.020553 -275.175886 
L 670.885288 -275.175886 
L 663.750023 -275.666795 
L 656.614758 -275.175886 
L 649.479494 -274.783159 
L 642.344229 -275.490068 
L 635.208964 -275.274068 
L 628.073699 -274.783159 
L 620.938435 -273.21225 
L 613.80317 -273.015886 
L 606.667905 -273.015886 
L 599.53264 -273.028159 
L 592.397376 -272.917705 
L 585.262111 -272.917705 
L 578.126846 -272.922614 
L 570.991582 -272.721341 
L 563.856317 -272.05125 
L 556.721052 -271.739523 
L 549.585787 -271.739523 
L 542.450523 -271.739523 
L 535.315258 -271.543159 
L 528.179993 -271.739523 
L 521.044728 -271.739523 
L 513.909464 -272.623159 
L 506.774199 -271.739523 
L 499.638934 -271.948159 
L 492.503669 -271.739523 
L 485.368405 -270.463159 
L 478.23314 -268.794068 
L 471.097875 -268.794068 
L 463.962611 -268.401341 
L 456.827346 -268.204977 
L 449.692081 -264.081341 
L 442.556816 -264.081341 
L 435.421552 -263.983159 
L 428.286287 -263.49225 
L 421.151022 -260.485432 
L 414.015757 -261.33225 
L 406.880493 -260.055886 
L 399.745228 -259.957705 
L 392.609963 -259.957705 
L 385.474698 -259.957705 
L 378.339434 -259.957705 
L 371.204169 -259.957705 
L 364.068904 -258.484977 
L 356.933639 -258.484977 
L 349.798375 -258.288614 
L 342.66311 -256.835523 
L 335.527845 -257.208614 
L 328.392581 -254.066795 
L 321.257316 -252.247977 
L 314.122051 -253.975977 
L 306.986786 -252.569523 
L 299.851522 -251.514068 
L 292.716257 -251.514068 
L 285.580992 -246.997705 
L 278.445727 -245.721341 
L 271.310463 -245.524977 
L 264.175198 -242.874068 
L 257.039933 -241.008614 
L 249.904668 -240.81225 
L 242.769404 -232.663159 
L 235.634139 -231.288614 
L 228.498874 -229.324977 
L 221.36361 -226.084977 
L 214.228345 -222.943159 
L 207.09308 -222.550432 
L 199.957815 -221.274068 
L 192.822551 -218.426795 
L 185.687286 -215.284977 
L 178.552021 -214.401341 
L 171.416756 -214.008614 
L 164.281492 -204.877705 
L 157.146227 -203.532614 
L 150.010962 -197.317705 
L 142.875697 -190.837705 
L 135.740433 -189.168614 
L 128.605168 -186.910432 
L 121.469903 -179.154068 
L 114.334638 -177.583159 
L 107.199374 -174.244977 
L 100.064109 -160.008614 
L 92.928844 -148.815886 
L 85.79358 -67.030432 
z
" id="ma8188f55d9" style="stroke:#98df8a;stroke-opacity:0.2;"/>
    </defs>
    <g clip-path="url(#pa05c9e1390)">
     <use style="fill:#98df8a;fill-opacity:0.2;stroke:#98df8a;stroke-opacity:0.2;" x="0" xlink:href="#ma8188f55d9" y="325.986375"/>
    </g>
   </g>
   <g id="matplotlib.axis_1">
    <g id="xtick_1">
     <g id="line2d_1">
      <defs>
       <path d="M 0 0 
L 0 3.5 
" id="m751c0d72d5" style="stroke:#000000;stroke-width:0.8;"/>
      </defs>
      <g>
       <use style="stroke:#000000;stroke-width:0.8;" x="85.79358" xlink:href="#m751c0d72d5" y="288.430125"/>
      </g>
     </g>
     <g id="text_1">
      <!-- 15m -->
      <g transform="translate(74.560767 303.028562)scale(0.1 -0.1)">
       <defs>
        <path d="M 12.40625 8.296875 
L 28.515625 8.296875 
L 28.515625 63.921875 
L 10.984375 60.40625 
L 10.984375 69.390625 
L 28.421875 72.90625 
L 38.28125 72.90625 
L 38.28125 8.296875 
L 54.390625 8.296875 
L 54.390625 0 
L 12.40625 0 
z
" id="DejaVuSans-49"/>
        <path d="M 10.796875 72.90625 
L 49.515625 72.90625 
L 49.515625 64.59375 
L 19.828125 64.59375 
L 19.828125 46.734375 
Q 21.96875 47.46875 24.109375 47.828125 
Q 26.265625 48.1875 28.421875 48.1875 
Q 40.625 48.1875 47.75 41.5 
Q 54.890625 34.8125 54.890625 23.390625 
Q 54.890625 11.625 47.5625 5.09375 
Q 40.234375 -1.421875 26.90625 -1.421875 
Q 22.3125 -1.421875 17.546875 -0.640625 
Q 12.796875 0.140625 7.71875 1.703125 
L 7.71875 11.625 
Q 12.109375 9.234375 16.796875 8.0625 
Q 21.484375 6.890625 26.703125 6.890625 
Q 35.15625 6.890625 40.078125 11.328125 
Q 45.015625 15.765625 45.015625 23.390625 
Q 45.015625 31 40.078125 35.4375 
Q 35.15625 39.890625 26.703125 39.890625 
Q 22.75 39.890625 18.8125 39.015625 
Q 14.890625 38.140625 10.796875 36.28125 
z
" id="DejaVuSans-53"/>
        <path d="M 52 44.1875 
Q 55.375 50.25 60.0625 53.125 
Q 64.75 56 71.09375 56 
Q 79.640625 56 84.28125 50.015625 
Q 88.921875 44.046875 88.921875 33.015625 
L 88.921875 0 
L 79.890625 0 
L 79.890625 32.71875 
Q 79.890625 40.578125 77.09375 44.375 
Q 74.3125 48.1875 68.609375 48.1875 
Q 61.625 48.1875 57.5625 43.546875 
Q 53.515625 38.921875 53.515625 30.90625 
L 53.515625 0 
L 44.484375 0 
L 44.484375 32.71875 
Q 44.484375 40.625 41.703125 44.40625 
Q 38.921875 48.1875 33.109375 48.1875 
Q 26.21875 48.1875 22.15625 43.53125 
Q 18.109375 38.875 18.109375 30.90625 
L 18.109375 0 
L 9.078125 0 
L 9.078125 54.6875 
L 18.109375 54.6875 
L 18.109375 46.1875 
Q 21.1875 51.21875 25.484375 53.609375 
Q 29.78125 56 35.6875 56 
Q 41.65625 56 45.828125 52.96875 
Q 50 49.953125 52 44.1875 
z
" id="DejaVuSans-109"/>
       </defs>
       <use xlink:href="#DejaVuSans-49"/>
       <use x="63.623047" xlink:href="#DejaVuSans-53"/>
       <use x="127.246094" xlink:href="#DejaVuSans-109"/>
      </g>
     </g>
    </g>
    <g id="xtick_2">
     <g id="line2d_2">
      <g>
       <use style="stroke:#000000;stroke-width:0.8;" x="140.497276" xlink:href="#m751c0d72d5" y="288.430125"/>
      </g>
     </g>
     <g id="text_2">
      <!-- 2h:10m -->
      <g transform="translate(121.230088 303.028562)scale(0.1 -0.1)">
       <defs>
        <path d="M 19.1875 8.296875 
L 53.609375 8.296875 
L 53.609375 0 
L 7.328125 0 
L 7.328125 8.296875 
Q 12.9375 14.109375 22.625 23.890625 
Q 32.328125 33.6875 34.8125 36.53125 
Q 39.546875 41.84375 41.421875 45.53125 
Q 43.3125 49.21875 43.3125 52.78125 
Q 43.3125 58.59375 39.234375 62.25 
Q 35.15625 65.921875 28.609375 65.921875 
Q 23.96875 65.921875 18.8125 64.3125 
Q 13.671875 62.703125 7.8125 59.421875 
L 7.8125 69.390625 
Q 13.765625 71.78125 18.9375 73 
Q 24.125 74.21875 28.421875 74.21875 
Q 39.75 74.21875 46.484375 68.546875 
Q 53.21875 62.890625 53.21875 53.421875 
Q 53.21875 48.921875 51.53125 44.890625 
Q 49.859375 40.875 45.40625 35.40625 
Q 44.1875 33.984375 37.640625 27.21875 
Q 31.109375 20.453125 19.1875 8.296875 
z
" id="DejaVuSans-50"/>
        <path d="M 54.890625 33.015625 
L 54.890625 0 
L 45.90625 0 
L 45.90625 32.71875 
Q 45.90625 40.484375 42.875 44.328125 
Q 39.84375 48.1875 33.796875 48.1875 
Q 26.515625 48.1875 22.3125 43.546875 
Q 18.109375 38.921875 18.109375 30.90625 
L 18.109375 0 
L 9.078125 0 
L 9.078125 75.984375 
L 18.109375 75.984375 
L 18.109375 46.1875 
Q 21.34375 51.125 25.703125 53.5625 
Q 30.078125 56 35.796875 56 
Q 45.21875 56 50.046875 50.171875 
Q 54.890625 44.34375 54.890625 33.015625 
z
" id="DejaVuSans-104"/>
        <path d="M 11.71875 12.40625 
L 22.015625 12.40625 
L 22.015625 0 
L 11.71875 0 
z
M 11.71875 51.703125 
L 22.015625 51.703125 
L 22.015625 39.3125 
L 11.71875 39.3125 
z
" id="DejaVuSans-58"/>
        <path d="M 31.78125 66.40625 
Q 24.171875 66.40625 20.328125 58.90625 
Q 16.5 51.421875 16.5 36.375 
Q 16.5 21.390625 20.328125 13.890625 
Q 24.171875 6.390625 31.78125 6.390625 
Q 39.453125 6.390625 43.28125 13.890625 
Q 47.125 21.390625 47.125 36.375 
Q 47.125 51.421875 43.28125 58.90625 
Q 39.453125 66.40625 31.78125 66.40625 
z
M 31.78125 74.21875 
Q 44.046875 74.21875 50.515625 64.515625 
Q 56.984375 54.828125 56.984375 36.375 
Q 56.984375 17.96875 50.515625 8.265625 
Q 44.046875 -1.421875 31.78125 -1.421875 
Q 19.53125 -1.421875 13.0625 8.265625 
Q 6.59375 17.96875 6.59375 36.375 
Q 6.59375 54.828125 13.0625 64.515625 
Q 19.53125 74.21875 31.78125 74.21875 
z
" id="DejaVuSans-48"/>
       </defs>
       <use xlink:href="#DejaVuSans-50"/>
       <use x="63.623047" xlink:href="#DejaVuSans-104"/>
       <use x="127.001953" xlink:href="#DejaVuSans-58"/>
       <use x="160.693359" xlink:href="#DejaVuSans-49"/>
       <use x="224.316406" xlink:href="#DejaVuSans-48"/>
       <use x="287.939453" xlink:href="#DejaVuSans-109"/>
      </g>
     </g>
    </g>
    <g id="xtick_3">
     <g id="line2d_3">
      <g>
       <use style="stroke:#000000;stroke-width:0.8;" x="195.200972" xlink:href="#m751c0d72d5" y="288.430125"/>
      </g>
     </g>
     <g id="text_3">
      <!-- 4h:5m -->
      <g transform="translate(179.115035 303.028562)scale(0.1 -0.1)">
       <defs>
        <path d="M 37.796875 64.3125 
L 12.890625 25.390625 
L 37.796875 25.390625 
z
M 35.203125 72.90625 
L 47.609375 72.90625 
L 47.609375 25.390625 
L 58.015625 25.390625 
L 58.015625 17.1875 
L 47.609375 17.1875 
L 47.609375 0 
L 37.796875 0 
L 37.796875 17.1875 
L 4.890625 17.1875 
L 4.890625 26.703125 
z
" id="DejaVuSans-52"/>
       </defs>
       <use xlink:href="#DejaVuSans-52"/>
       <use x="63.623047" xlink:href="#DejaVuSans-104"/>
       <use x="127.001953" xlink:href="#DejaVuSans-58"/>
       <use x="160.693359" xlink:href="#DejaVuSans-53"/>
       <use x="224.316406" xlink:href="#DejaVuSans-109"/>
      </g>
     </g>
    </g>
    <g id="xtick_4">
     <g id="line2d_4">
      <g>
       <use style="stroke:#000000;stroke-width:0.8;" x="249.904668" xlink:href="#m751c0d72d5" y="288.430125"/>
      </g>
     </g>
     <g id="text_4">
      <!-- 6h -->
      <g transform="translate(243.554668 303.028562)scale(0.1 -0.1)">
       <defs>
        <path d="M 33.015625 40.375 
Q 26.375 40.375 22.484375 35.828125 
Q 18.609375 31.296875 18.609375 23.390625 
Q 18.609375 15.53125 22.484375 10.953125 
Q 26.375 6.390625 33.015625 6.390625 
Q 39.65625 6.390625 43.53125 10.953125 
Q 47.40625 15.53125 47.40625 23.390625 
Q 47.40625 31.296875 43.53125 35.828125 
Q 39.65625 40.375 33.015625 40.375 
z
M 52.59375 71.296875 
L 52.59375 62.3125 
Q 48.875 64.0625 45.09375 64.984375 
Q 41.3125 65.921875 37.59375 65.921875 
Q 27.828125 65.921875 22.671875 59.328125 
Q 17.53125 52.734375 16.796875 39.40625 
Q 19.671875 43.65625 24.015625 45.921875 
Q 28.375 48.1875 33.59375 48.1875 
Q 44.578125 48.1875 50.953125 41.515625 
Q 57.328125 34.859375 57.328125 23.390625 
Q 57.328125 12.15625 50.6875 5.359375 
Q 44.046875 -1.421875 33.015625 -1.421875 
Q 20.359375 -1.421875 13.671875 8.265625 
Q 6.984375 17.96875 6.984375 36.375 
Q 6.984375 53.65625 15.1875 63.9375 
Q 23.390625 74.21875 37.203125 74.21875 
Q 40.921875 74.21875 44.703125 73.484375 
Q 48.484375 72.75 52.59375 71.296875 
z
" id="DejaVuSans-54"/>
       </defs>
       <use xlink:href="#DejaVuSans-54"/>
       <use x="63.623047" xlink:href="#DejaVuSans-104"/>
      </g>
     </g>
    </g>
    <g id="xtick_5">
     <g id="line2d_5">
      <g>
       <use style="stroke:#000000;stroke-width:0.8;" x="304.608365" xlink:href="#m751c0d72d5" y="288.430125"/>
      </g>
     </g>
     <g id="text_5">
      <!-- 7h:55m -->
      <g transform="translate(285.341177 303.028562)scale(0.1 -0.1)">
       <defs>
        <path d="M 8.203125 72.90625 
L 55.078125 72.90625 
L 55.078125 68.703125 
L 28.609375 0 
L 18.3125 0 
L 43.21875 64.59375 
L 8.203125 64.59375 
z
" id="DejaVuSans-55"/>
       </defs>
       <use xlink:href="#DejaVuSans-55"/>
       <use x="63.623047" xlink:href="#DejaVuSans-104"/>
       <use x="127.001953" xlink:href="#DejaVuSans-58"/>
       <use x="160.693359" xlink:href="#DejaVuSans-53"/>
       <use x="224.316406" xlink:href="#DejaVuSans-53"/>
       <use x="287.939453" xlink:href="#DejaVuSans-109"/>
      </g>
     </g>
    </g>
    <g id="xtick_6">
     <g id="line2d_6">
      <g>
       <use style="stroke:#000000;stroke-width:0.8;" x="359.312061" xlink:href="#m751c0d72d5" y="288.430125"/>
      </g>
     </g>
     <g id="text_6">
      <!-- 9h:50m -->
      <g transform="translate(340.044874 303.028562)scale(0.1 -0.1)">
       <defs>
        <path d="M 10.984375 1.515625 
L 10.984375 10.5 
Q 14.703125 8.734375 18.5 7.8125 
Q 22.3125 6.890625 25.984375 6.890625 
Q 35.75 6.890625 40.890625 13.453125 
Q 46.046875 20.015625 46.78125 33.40625 
Q 43.953125 29.203125 39.59375 26.953125 
Q 35.25 24.703125 29.984375 24.703125 
Q 19.046875 24.703125 12.671875 31.3125 
Q 6.296875 37.9375 6.296875 49.421875 
Q 6.296875 60.640625 12.9375 67.421875 
Q 19.578125 74.21875 30.609375 74.21875 
Q 43.265625 74.21875 49.921875 64.515625 
Q 56.59375 54.828125 56.59375 36.375 
Q 56.59375 19.140625 48.40625 8.859375 
Q 40.234375 -1.421875 26.421875 -1.421875 
Q 22.703125 -1.421875 18.890625 -0.6875 
Q 15.09375 0.046875 10.984375 1.515625 
z
M 30.609375 32.421875 
Q 37.25 32.421875 41.125 36.953125 
Q 45.015625 41.5 45.015625 49.421875 
Q 45.015625 57.28125 41.125 61.84375 
Q 37.25 66.40625 30.609375 66.40625 
Q 23.96875 66.40625 20.09375 61.84375 
Q 16.21875 57.28125 16.21875 49.421875 
Q 16.21875 41.5 20.09375 36.953125 
Q 23.96875 32.421875 30.609375 32.421875 
z
" id="DejaVuSans-57"/>
       </defs>
       <use xlink:href="#DejaVuSans-57"/>
       <use x="63.623047" xlink:href="#DejaVuSans-104"/>
       <use x="127.001953" xlink:href="#DejaVuSans-58"/>
       <use x="160.693359" xlink:href="#DejaVuSans-53"/>
       <use x="224.316406" xlink:href="#DejaVuSans-48"/>
       <use x="287.939453" xlink:href="#DejaVuSans-109"/>
      </g>
     </g>
    </g>
    <g id="xtick_7">
     <g id="line2d_7">
      <g>
       <use style="stroke:#000000;stroke-width:0.8;" x="414.015757" xlink:href="#m751c0d72d5" y="288.430125"/>
      </g>
     </g>
     <g id="text_7">
      <!-- 11h:45m -->
      <g transform="translate(391.56732 303.028562)scale(0.1 -0.1)">
       <use xlink:href="#DejaVuSans-49"/>
       <use x="63.623047" xlink:href="#DejaVuSans-49"/>
       <use x="127.246094" xlink:href="#DejaVuSans-104"/>
       <use x="190.625" xlink:href="#DejaVuSans-58"/>
       <use x="224.316406" xlink:href="#DejaVuSans-52"/>
       <use x="287.939453" xlink:href="#DejaVuSans-53"/>
       <use x="351.5625" xlink:href="#DejaVuSans-109"/>
      </g>
     </g>
    </g>
    <g id="xtick_8">
     <g id="line2d_8">
      <g>
       <use style="stroke:#000000;stroke-width:0.8;" x="468.719454" xlink:href="#m751c0d72d5" y="288.430125"/>
      </g>
     </g>
     <g id="text_8">
      <!-- 13h:40m -->
      <g transform="translate(446.271016 303.028562)scale(0.1 -0.1)">
       <defs>
        <path d="M 40.578125 39.3125 
Q 47.65625 37.796875 51.625 33 
Q 55.609375 28.21875 55.609375 21.1875 
Q 55.609375 10.40625 48.1875 4.484375 
Q 40.765625 -1.421875 27.09375 -1.421875 
Q 22.515625 -1.421875 17.65625 -0.515625 
Q 12.796875 0.390625 7.625 2.203125 
L 7.625 11.71875 
Q 11.71875 9.328125 16.59375 8.109375 
Q 21.484375 6.890625 26.8125 6.890625 
Q 36.078125 6.890625 40.9375 10.546875 
Q 45.796875 14.203125 45.796875 21.1875 
Q 45.796875 27.640625 41.28125 31.265625 
Q 36.765625 34.90625 28.71875 34.90625 
L 20.21875 34.90625 
L 20.21875 43.015625 
L 29.109375 43.015625 
Q 36.375 43.015625 40.234375 45.921875 
Q 44.09375 48.828125 44.09375 54.296875 
Q 44.09375 59.90625 40.109375 62.90625 
Q 36.140625 65.921875 28.71875 65.921875 
Q 24.65625 65.921875 20.015625 65.03125 
Q 15.375 64.15625 9.8125 62.3125 
L 9.8125 71.09375 
Q 15.4375 72.65625 20.34375 73.4375 
Q 25.25 74.21875 29.59375 74.21875 
Q 40.828125 74.21875 47.359375 69.109375 
Q 53.90625 64.015625 53.90625 55.328125 
Q 53.90625 49.265625 50.4375 45.09375 
Q 46.96875 40.921875 40.578125 39.3125 
z
" id="DejaVuSans-51"/>
       </defs>
       <use xlink:href="#DejaVuSans-49"/>
       <use x="63.623047" xlink:href="#DejaVuSans-51"/>
       <use x="127.246094" xlink:href="#DejaVuSans-104"/>
       <use x="190.625" xlink:href="#DejaVuSans-58"/>
       <use x="224.316406" xlink:href="#DejaVuSans-52"/>
       <use x="287.939453" xlink:href="#DejaVuSans-48"/>
       <use x="351.5625" xlink:href="#DejaVuSans-109"/>
      </g>
     </g>
    </g>
    <g id="xtick_9">
     <g id="line2d_9">
      <g>
       <use style="stroke:#000000;stroke-width:0.8;" x="523.42315" xlink:href="#m751c0d72d5" y="288.430125"/>
      </g>
     </g>
     <g id="text_9">
      <!-- 15h:35m -->
      <g transform="translate(500.974712 303.028562)scale(0.1 -0.1)">
       <use xlink:href="#DejaVuSans-49"/>
       <use x="63.623047" xlink:href="#DejaVuSans-53"/>
       <use x="127.246094" xlink:href="#DejaVuSans-104"/>
       <use x="190.625" xlink:href="#DejaVuSans-58"/>
       <use x="224.316406" xlink:href="#DejaVuSans-51"/>
       <use x="287.939453" xlink:href="#DejaVuSans-53"/>
       <use x="351.5625" xlink:href="#DejaVuSans-109"/>
      </g>
     </g>
    </g>
    <g id="xtick_10">
     <g id="line2d_10">
      <g>
       <use style="stroke:#000000;stroke-width:0.8;" x="578.126846" xlink:href="#m751c0d72d5" y="288.430125"/>
      </g>
     </g>
     <g id="text_10">
      <!-- 17h:30m -->
      <g transform="translate(555.678409 303.028562)scale(0.1 -0.1)">
       <use xlink:href="#DejaVuSans-49"/>
       <use x="63.623047" xlink:href="#DejaVuSans-55"/>
       <use x="127.246094" xlink:href="#DejaVuSans-104"/>
       <use x="190.625" xlink:href="#DejaVuSans-58"/>
       <use x="224.316406" xlink:href="#DejaVuSans-51"/>
       <use x="287.939453" xlink:href="#DejaVuSans-48"/>
       <use x="351.5625" xlink:href="#DejaVuSans-109"/>
      </g>
     </g>
    </g>
    <g id="xtick_11">
     <g id="line2d_11">
      <g>
       <use style="stroke:#000000;stroke-width:0.8;" x="632.830543" xlink:href="#m751c0d72d5" y="288.430125"/>
      </g>
     </g>
     <g id="text_11">
      <!-- 19h:25m -->
      <g transform="translate(610.382105 303.028562)scale(0.1 -0.1)">
       <use xlink:href="#DejaVuSans-49"/>
       <use x="63.623047" xlink:href="#DejaVuSans-57"/>
       <use x="127.246094" xlink:href="#DejaVuSans-104"/>
       <use x="190.625" xlink:href="#DejaVuSans-58"/>
       <use x="224.316406" xlink:href="#DejaVuSans-50"/>
       <use x="287.939453" xlink:href="#DejaVuSans-53"/>
       <use x="351.5625" xlink:href="#DejaVuSans-109"/>
      </g>
     </g>
    </g>
    <g id="xtick_12">
     <g id="line2d_12">
      <g>
       <use style="stroke:#000000;stroke-width:0.8;" x="687.534239" xlink:href="#m751c0d72d5" y="288.430125"/>
      </g>
     </g>
     <g id="text_12">
      <!-- 21h:20m -->
      <g transform="translate(665.085801 303.028562)scale(0.1 -0.1)">
       <use xlink:href="#DejaVuSans-50"/>
       <use x="63.623047" xlink:href="#DejaVuSans-49"/>
       <use x="127.246094" xlink:href="#DejaVuSans-104"/>
       <use x="190.625" xlink:href="#DejaVuSans-58"/>
       <use x="224.316406" xlink:href="#DejaVuSans-50"/>
       <use x="287.939453" xlink:href="#DejaVuSans-48"/>
       <use x="351.5625" xlink:href="#DejaVuSans-109"/>
      </g>
     </g>
    </g>
    <g id="text_13">
     <!-- Time (hour:minute) -->
     <g transform="translate(362.041094 316.706687)scale(0.1 -0.1)">
      <defs>
       <path d="M -0.296875 72.90625 
L 61.375 72.90625 
L 61.375 64.59375 
L 35.5 64.59375 
L 35.5 0 
L 25.59375 0 
L 25.59375 64.59375 
L -0.296875 64.59375 
z
" id="DejaVuSans-84"/>
       <path d="M 9.421875 54.6875 
L 18.40625 54.6875 
L 18.40625 0 
L 9.421875 0 
z
M 9.421875 75.984375 
L 18.40625 75.984375 
L 18.40625 64.59375 
L 9.421875 64.59375 
z
" id="DejaVuSans-105"/>
       <path d="M 56.203125 29.59375 
L 56.203125 25.203125 
L 14.890625 25.203125 
Q 15.484375 15.921875 20.484375 11.0625 
Q 25.484375 6.203125 34.421875 6.203125 
Q 39.59375 6.203125 44.453125 7.46875 
Q 49.3125 8.734375 54.109375 11.28125 
L 54.109375 2.78125 
Q 49.265625 0.734375 44.1875 -0.34375 
Q 39.109375 -1.421875 33.890625 -1.421875 
Q 20.796875 -1.421875 13.15625 6.1875 
Q 5.515625 13.8125 5.515625 26.8125 
Q 5.515625 40.234375 12.765625 48.109375 
Q 20.015625 56 32.328125 56 
Q 43.359375 56 49.78125 48.890625 
Q 56.203125 41.796875 56.203125 29.59375 
z
M 47.21875 32.234375 
Q 47.125 39.59375 43.09375 43.984375 
Q 39.0625 48.390625 32.421875 48.390625 
Q 24.90625 48.390625 20.390625 44.140625 
Q 15.875 39.890625 15.1875 32.171875 
z
" id="DejaVuSans-101"/>
       <path id="DejaVuSans-32"/>
       <path d="M 31 75.875 
Q 24.46875 64.65625 21.28125 53.65625 
Q 18.109375 42.671875 18.109375 31.390625 
Q 18.109375 20.125 21.3125 9.0625 
Q 24.515625 -2 31 -13.1875 
L 23.1875 -13.1875 
Q 15.875 -1.703125 12.234375 9.375 
Q 8.59375 20.453125 8.59375 31.390625 
Q 8.59375 42.28125 12.203125 53.3125 
Q 15.828125 64.359375 23.1875 75.875 
z
" id="DejaVuSans-40"/>
       <path d="M 30.609375 48.390625 
Q 23.390625 48.390625 19.1875 42.75 
Q 14.984375 37.109375 14.984375 27.296875 
Q 14.984375 17.484375 19.15625 11.84375 
Q 23.34375 6.203125 30.609375 6.203125 
Q 37.796875 6.203125 41.984375 11.859375 
Q 46.1875 17.53125 46.1875 27.296875 
Q 46.1875 37.015625 41.984375 42.703125 
Q 37.796875 48.390625 30.609375 48.390625 
z
M 30.609375 56 
Q 42.328125 56 49.015625 48.375 
Q 55.71875 40.765625 55.71875 27.296875 
Q 55.71875 13.875 49.015625 6.21875 
Q 42.328125 -1.421875 30.609375 -1.421875 
Q 18.84375 -1.421875 12.171875 6.21875 
Q 5.515625 13.875 5.515625 27.296875 
Q 5.515625 40.765625 12.171875 48.375 
Q 18.84375 56 30.609375 56 
z
" id="DejaVuSans-111"/>
       <path d="M 8.5 21.578125 
L 8.5 54.6875 
L 17.484375 54.6875 
L 17.484375 21.921875 
Q 17.484375 14.15625 20.5 10.265625 
Q 23.53125 6.390625 29.59375 6.390625 
Q 36.859375 6.390625 41.078125 11.03125 
Q 45.3125 15.671875 45.3125 23.6875 
L 45.3125 54.6875 
L 54.296875 54.6875 
L 54.296875 0 
L 45.3125 0 
L 45.3125 8.40625 
Q 42.046875 3.421875 37.71875 1 
Q 33.40625 -1.421875 27.6875 -1.421875 
Q 18.265625 -1.421875 13.375 4.4375 
Q 8.5 10.296875 8.5 21.578125 
z
M 31.109375 56 
z
" id="DejaVuSans-117"/>
       <path d="M 41.109375 46.296875 
Q 39.59375 47.171875 37.8125 47.578125 
Q 36.03125 48 33.890625 48 
Q 26.265625 48 22.1875 43.046875 
Q 18.109375 38.09375 18.109375 28.8125 
L 18.109375 0 
L 9.078125 0 
L 9.078125 54.6875 
L 18.109375 54.6875 
L 18.109375 46.1875 
Q 20.953125 51.171875 25.484375 53.578125 
Q 30.03125 56 36.53125 56 
Q 37.453125 56 38.578125 55.875 
Q 39.703125 55.765625 41.0625 55.515625 
z
" id="DejaVuSans-114"/>
       <path d="M 54.890625 33.015625 
L 54.890625 0 
L 45.90625 0 
L 45.90625 32.71875 
Q 45.90625 40.484375 42.875 44.328125 
Q 39.84375 48.1875 33.796875 48.1875 
Q 26.515625 48.1875 22.3125 43.546875 
Q 18.109375 38.921875 18.109375 30.90625 
L 18.109375 0 
L 9.078125 0 
L 9.078125 54.6875 
L 18.109375 54.6875 
L 18.109375 46.1875 
Q 21.34375 51.125 25.703125 53.5625 
Q 30.078125 56 35.796875 56 
Q 45.21875 56 50.046875 50.171875 
Q 54.890625 44.34375 54.890625 33.015625 
z
" id="DejaVuSans-110"/>
       <path d="M 18.3125 70.21875 
L 18.3125 54.6875 
L 36.8125 54.6875 
L 36.8125 47.703125 
L 18.3125 47.703125 
L 18.3125 18.015625 
Q 18.3125 11.328125 20.140625 9.421875 
Q 21.96875 7.515625 27.59375 7.515625 
L 36.8125 7.515625 
L 36.8125 0 
L 27.59375 0 
Q 17.1875 0 13.234375 3.875 
Q 9.28125 7.765625 9.28125 18.015625 
L 9.28125 47.703125 
L 2.6875 47.703125 
L 2.6875 54.6875 
L 9.28125 54.6875 
L 9.28125 70.21875 
z
" id="DejaVuSans-116"/>
       <path d="M 8.015625 75.875 
L 15.828125 75.875 
Q 23.140625 64.359375 26.78125 53.3125 
Q 30.421875 42.28125 30.421875 31.390625 
Q 30.421875 20.453125 26.78125 9.375 
Q 23.140625 -1.703125 15.828125 -13.1875 
L 8.015625 -13.1875 
Q 14.5 -2 17.703125 9.0625 
Q 20.90625 20.125 20.90625 31.390625 
Q 20.90625 42.671875 17.703125 53.65625 
Q 14.5 64.65625 8.015625 75.875 
z
" id="DejaVuSans-41"/>
      </defs>
      <use xlink:href="#DejaVuSans-84"/>
      <use x="57.958984" xlink:href="#DejaVuSans-105"/>
      <use x="85.742188" xlink:href="#DejaVuSans-109"/>
      <use x="183.154297" xlink:href="#DejaVuSans-101"/>
      <use x="244.677734" xlink:href="#DejaVuSans-32"/>
      <use x="276.464844" xlink:href="#DejaVuSans-40"/>
      <use x="315.478516" xlink:href="#DejaVuSans-104"/>
      <use x="378.857422" xlink:href="#DejaVuSans-111"/>
      <use x="440.039062" xlink:href="#DejaVuSans-117"/>
      <use x="503.417969" xlink:href="#DejaVuSans-114"/>
      <use x="542.78125" xlink:href="#DejaVuSans-58"/>
      <use x="576.472656" xlink:href="#DejaVuSans-109"/>
      <use x="673.884766" xlink:href="#DejaVuSans-105"/>
      <use x="701.667969" xlink:href="#DejaVuSans-110"/>
      <use x="765.046875" xlink:href="#DejaVuSans-117"/>
      <use x="828.425781" xlink:href="#DejaVuSans-116"/>
      <use x="867.634766" xlink:href="#DejaVuSans-101"/>
      <use x="929.158203" xlink:href="#DejaVuSans-41"/>
     </g>
    </g>
   </g>
   <g id="matplotlib.axis_2">
    <g id="ytick_1">
     <g id="line2d_13">
      <defs>
       <path d="M 0 0 
L -3.5 0 
" id="m2ea9dfadc3" style="stroke:#000000;stroke-width:0.8;"/>
      </defs>
      <g>
       <use style="stroke:#000000;stroke-width:0.8;" x="53.328125" xlink:href="#m2ea9dfadc3" y="269.854125"/>
      </g>
     </g>
     <g id="text_14">
      <!-- 2800 -->
      <g transform="translate(20.878125 273.653344)scale(0.1 -0.1)">
       <defs>
        <path d="M 31.78125 34.625 
Q 24.75 34.625 20.71875 30.859375 
Q 16.703125 27.09375 16.703125 20.515625 
Q 16.703125 13.921875 20.71875 10.15625 
Q 24.75 6.390625 31.78125 6.390625 
Q 38.8125 6.390625 42.859375 10.171875 
Q 46.921875 13.96875 46.921875 20.515625 
Q 46.921875 27.09375 42.890625 30.859375 
Q 38.875 34.625 31.78125 34.625 
z
M 21.921875 38.8125 
Q 15.578125 40.375 12.03125 44.71875 
Q 8.5 49.078125 8.5 55.328125 
Q 8.5 64.0625 14.71875 69.140625 
Q 20.953125 74.21875 31.78125 74.21875 
Q 42.671875 74.21875 48.875 69.140625 
Q 55.078125 64.0625 55.078125 55.328125 
Q 55.078125 49.078125 51.53125 44.71875 
Q 48 40.375 41.703125 38.8125 
Q 48.828125 37.15625 52.796875 32.3125 
Q 56.78125 27.484375 56.78125 20.515625 
Q 56.78125 9.90625 50.3125 4.234375 
Q 43.84375 -1.421875 31.78125 -1.421875 
Q 19.734375 -1.421875 13.25 4.234375 
Q 6.78125 9.90625 6.78125 20.515625 
Q 6.78125 27.484375 10.78125 32.3125 
Q 14.796875 37.15625 21.921875 38.8125 
z
M 18.3125 54.390625 
Q 18.3125 48.734375 21.84375 45.5625 
Q 25.390625 42.390625 31.78125 42.390625 
Q 38.140625 42.390625 41.71875 45.5625 
Q 45.3125 48.734375 45.3125 54.390625 
Q 45.3125 60.0625 41.71875 63.234375 
Q 38.140625 66.40625 31.78125 66.40625 
Q 25.390625 66.40625 21.84375 63.234375 
Q 18.3125 60.0625 18.3125 54.390625 
z
" id="DejaVuSans-56"/>
       </defs>
       <use xlink:href="#DejaVuSans-50"/>
       <use x="63.623047" xlink:href="#DejaVuSans-56"/>
       <use x="127.246094" xlink:href="#DejaVuSans-48"/>
       <use x="190.869141" xlink:href="#DejaVuSans-48"/>
      </g>
     </g>
    </g>
    <g id="ytick_2">
     <g id="line2d_14">
      <g>
       <use style="stroke:#000000;stroke-width:0.8;" x="53.328125" xlink:href="#m2ea9dfadc3" y="230.581398"/>
      </g>
     </g>
     <g id="text_15">
      <!-- 3000 -->
      <g transform="translate(20.878125 234.380616)scale(0.1 -0.1)">
       <use xlink:href="#DejaVuSans-51"/>
       <use x="63.623047" xlink:href="#DejaVuSans-48"/>
       <use x="127.246094" xlink:href="#DejaVuSans-48"/>
       <use x="190.869141" xlink:href="#DejaVuSans-48"/>
      </g>
     </g>
    </g>
    <g id="ytick_3">
     <g id="line2d_15">
      <g>
       <use style="stroke:#000000;stroke-width:0.8;" x="53.328125" xlink:href="#m2ea9dfadc3" y="191.30867"/>
      </g>
     </g>
     <g id="text_16">
      <!-- 3200 -->
      <g transform="translate(20.878125 195.107889)scale(0.1 -0.1)">
       <use xlink:href="#DejaVuSans-51"/>
       <use x="63.623047" xlink:href="#DejaVuSans-50"/>
       <use x="127.246094" xlink:href="#DejaVuSans-48"/>
       <use x="190.869141" xlink:href="#DejaVuSans-48"/>
      </g>
     </g>
    </g>
    <g id="ytick_4">
     <g id="line2d_16">
      <g>
       <use style="stroke:#000000;stroke-width:0.8;" x="53.328125" xlink:href="#m2ea9dfadc3" y="152.035943"/>
      </g>
     </g>
     <g id="text_17">
      <!-- 3400 -->
      <g transform="translate(20.878125 155.835162)scale(0.1 -0.1)">
       <use xlink:href="#DejaVuSans-51"/>
       <use x="63.623047" xlink:href="#DejaVuSans-52"/>
       <use x="127.246094" xlink:href="#DejaVuSans-48"/>
       <use x="190.869141" xlink:href="#DejaVuSans-48"/>
      </g>
     </g>
    </g>
    <g id="ytick_5">
     <g id="line2d_17">
      <g>
       <use style="stroke:#000000;stroke-width:0.8;" x="53.328125" xlink:href="#m2ea9dfadc3" y="112.763216"/>
      </g>
     </g>
     <g id="text_18">
      <!-- 3600 -->
      <g transform="translate(20.878125 116.562435)scale(0.1 -0.1)">
       <use xlink:href="#DejaVuSans-51"/>
       <use x="63.623047" xlink:href="#DejaVuSans-54"/>
       <use x="127.246094" xlink:href="#DejaVuSans-48"/>
       <use x="190.869141" xlink:href="#DejaVuSans-48"/>
      </g>
     </g>
    </g>
    <g id="ytick_6">
     <g id="line2d_18">
      <g>
       <use style="stroke:#000000;stroke-width:0.8;" x="53.328125" xlink:href="#m2ea9dfadc3" y="73.490489"/>
      </g>
     </g>
     <g id="text_19">
      <!-- 3800 -->
      <g transform="translate(20.878125 77.289707)scale(0.1 -0.1)">
       <use xlink:href="#DejaVuSans-51"/>
       <use x="63.623047" xlink:href="#DejaVuSans-56"/>
       <use x="127.246094" xlink:href="#DejaVuSans-48"/>
       <use x="190.869141" xlink:href="#DejaVuSans-48"/>
      </g>
     </g>
    </g>
    <g id="ytick_7">
     <g id="line2d_19">
      <g>
       <use style="stroke:#000000;stroke-width:0.8;" x="53.328125" xlink:href="#m2ea9dfadc3" y="34.217761"/>
      </g>
     </g>
     <g id="text_20">
      <!-- 4000 -->
      <g transform="translate(20.878125 38.01698)scale(0.1 -0.1)">
       <use xlink:href="#DejaVuSans-52"/>
       <use x="63.623047" xlink:href="#DejaVuSans-48"/>
       <use x="127.246094" xlink:href="#DejaVuSans-48"/>
       <use x="190.869141" xlink:href="#DejaVuSans-48"/>
      </g>
     </g>
    </g>
    <g id="text_21">
     <!-- Code region coverage -->
     <g transform="translate(14.798438 210.379594)rotate(-90)scale(0.1 -0.1)">
      <defs>
       <path d="M 64.40625 67.28125 
L 64.40625 56.890625 
Q 59.421875 61.53125 53.78125 63.8125 
Q 48.140625 66.109375 41.796875 66.109375 
Q 29.296875 66.109375 22.65625 58.46875 
Q 16.015625 50.828125 16.015625 36.375 
Q 16.015625 21.96875 22.65625 14.328125 
Q 29.296875 6.6875 41.796875 6.6875 
Q 48.140625 6.6875 53.78125 8.984375 
Q 59.421875 11.28125 64.40625 15.921875 
L 64.40625 5.609375 
Q 59.234375 2.09375 53.4375 0.328125 
Q 47.65625 -1.421875 41.21875 -1.421875 
Q 24.65625 -1.421875 15.125 8.703125 
Q 5.609375 18.84375 5.609375 36.375 
Q 5.609375 53.953125 15.125 64.078125 
Q 24.65625 74.21875 41.21875 74.21875 
Q 47.75 74.21875 53.53125 72.484375 
Q 59.328125 70.75 64.40625 67.28125 
z
" id="DejaVuSans-67"/>
       <path d="M 45.40625 46.390625 
L 45.40625 75.984375 
L 54.390625 75.984375 
L 54.390625 0 
L 45.40625 0 
L 45.40625 8.203125 
Q 42.578125 3.328125 38.25 0.953125 
Q 33.9375 -1.421875 27.875 -1.421875 
Q 17.96875 -1.421875 11.734375 6.484375 
Q 5.515625 14.40625 5.515625 27.296875 
Q 5.515625 40.1875 11.734375 48.09375 
Q 17.96875 56 27.875 56 
Q 33.9375 56 38.25 53.625 
Q 42.578125 51.265625 45.40625 46.390625 
z
M 14.796875 27.296875 
Q 14.796875 17.390625 18.875 11.75 
Q 22.953125 6.109375 30.078125 6.109375 
Q 37.203125 6.109375 41.296875 11.75 
Q 45.40625 17.390625 45.40625 27.296875 
Q 45.40625 37.203125 41.296875 42.84375 
Q 37.203125 48.484375 30.078125 48.484375 
Q 22.953125 48.484375 18.875 42.84375 
Q 14.796875 37.203125 14.796875 27.296875 
z
" id="DejaVuSans-100"/>
       <path d="M 45.40625 27.984375 
Q 45.40625 37.75 41.375 43.109375 
Q 37.359375 48.484375 30.078125 48.484375 
Q 22.859375 48.484375 18.828125 43.109375 
Q 14.796875 37.75 14.796875 27.984375 
Q 14.796875 18.265625 18.828125 12.890625 
Q 22.859375 7.515625 30.078125 7.515625 
Q 37.359375 7.515625 41.375 12.890625 
Q 45.40625 18.265625 45.40625 27.984375 
z
M 54.390625 6.78125 
Q 54.390625 -7.171875 48.1875 -13.984375 
Q 42 -20.796875 29.203125 -20.796875 
Q 24.46875 -20.796875 20.265625 -20.09375 
Q 16.0625 -19.390625 12.109375 -17.921875 
L 12.109375 -9.1875 
Q 16.0625 -11.328125 19.921875 -12.34375 
Q 23.78125 -13.375 27.78125 -13.375 
Q 36.625 -13.375 41.015625 -8.765625 
Q 45.40625 -4.15625 45.40625 5.171875 
L 45.40625 9.625 
Q 42.625 4.78125 38.28125 2.390625 
Q 33.9375 0 27.875 0 
Q 17.828125 0 11.671875 7.65625 
Q 5.515625 15.328125 5.515625 27.984375 
Q 5.515625 40.671875 11.671875 48.328125 
Q 17.828125 56 27.875 56 
Q 33.9375 56 38.28125 53.609375 
Q 42.625 51.21875 45.40625 46.390625 
L 45.40625 54.6875 
L 54.390625 54.6875 
z
" id="DejaVuSans-103"/>
       <path d="M 48.78125 52.59375 
L 48.78125 44.1875 
Q 44.96875 46.296875 41.140625 47.34375 
Q 37.3125 48.390625 33.40625 48.390625 
Q 24.65625 48.390625 19.8125 42.84375 
Q 14.984375 37.3125 14.984375 27.296875 
Q 14.984375 17.28125 19.8125 11.734375 
Q 24.65625 6.203125 33.40625 6.203125 
Q 37.3125 6.203125 41.140625 7.25 
Q 44.96875 8.296875 48.78125 10.40625 
L 48.78125 2.09375 
Q 45.015625 0.34375 40.984375 -0.53125 
Q 36.96875 -1.421875 32.421875 -1.421875 
Q 20.0625 -1.421875 12.78125 6.34375 
Q 5.515625 14.109375 5.515625 27.296875 
Q 5.515625 40.671875 12.859375 48.328125 
Q 20.21875 56 33.015625 56 
Q 37.15625 56 41.109375 55.140625 
Q 45.0625 54.296875 48.78125 52.59375 
z
" id="DejaVuSans-99"/>
       <path d="M 2.984375 54.6875 
L 12.5 54.6875 
L 29.59375 8.796875 
L 46.6875 54.6875 
L 56.203125 54.6875 
L 35.6875 0 
L 23.484375 0 
z
" id="DejaVuSans-118"/>
       <path d="M 34.28125 27.484375 
Q 23.390625 27.484375 19.1875 25 
Q 14.984375 22.515625 14.984375 16.5 
Q 14.984375 11.71875 18.140625 8.90625 
Q 21.296875 6.109375 26.703125 6.109375 
Q 34.1875 6.109375 38.703125 11.40625 
Q 43.21875 16.703125 43.21875 25.484375 
L 43.21875 27.484375 
z
M 52.203125 31.203125 
L 52.203125 0 
L 43.21875 0 
L 43.21875 8.296875 
Q 40.140625 3.328125 35.546875 0.953125 
Q 30.953125 -1.421875 24.3125 -1.421875 
Q 15.921875 -1.421875 10.953125 3.296875 
Q 6 8.015625 6 15.921875 
Q 6 25.140625 12.171875 29.828125 
Q 18.359375 34.515625 30.609375 34.515625 
L 43.21875 34.515625 
L 43.21875 35.40625 
Q 43.21875 41.609375 39.140625 45 
Q 35.0625 48.390625 27.6875 48.390625 
Q 23 48.390625 18.546875 47.265625 
Q 14.109375 46.140625 10.015625 43.890625 
L 10.015625 52.203125 
Q 14.9375 54.109375 19.578125 55.046875 
Q 24.21875 56 28.609375 56 
Q 40.484375 56 46.34375 49.84375 
Q 52.203125 43.703125 52.203125 31.203125 
z
" id="DejaVuSans-97"/>
      </defs>
      <use xlink:href="#DejaVuSans-67"/>
      <use x="69.824219" xlink:href="#DejaVuSans-111"/>
      <use x="131.005859" xlink:href="#DejaVuSans-100"/>
      <use x="194.482422" xlink:href="#DejaVuSans-101"/>
      <use x="256.005859" xlink:href="#DejaVuSans-32"/>
      <use x="287.792969" xlink:href="#DejaVuSans-114"/>
      <use x="326.65625" xlink:href="#DejaVuSans-101"/>
      <use x="388.179688" xlink:href="#DejaVuSans-103"/>
      <use x="451.65625" xlink:href="#DejaVuSans-105"/>
      <use x="479.439453" xlink:href="#DejaVuSans-111"/>
      <use x="540.621094" xlink:href="#DejaVuSans-110"/>
      <use x="604" xlink:href="#DejaVuSans-32"/>
      <use x="635.787109" xlink:href="#DejaVuSans-99"/>
      <use x="690.767578" xlink:href="#DejaVuSans-111"/>
      <use x="751.949219" xlink:href="#DejaVuSans-118"/>
      <use x="811.128906" xlink:href="#DejaVuSans-101"/>
      <use x="872.652344" xlink:href="#DejaVuSans-114"/>
      <use x="913.765625" xlink:href="#DejaVuSans-97"/>
      <use x="975.044922" xlink:href="#DejaVuSans-103"/>
      <use x="1038.521484" xlink:href="#DejaVuSans-101"/>
     </g>
    </g>
   </g>
   <g id="line2d_20">
    <path clip-path="url(#pa05c9e1390)" d="M 85.79358 154.981398 
L 92.928844 130.926852 
L 100.064109 114.03958 
L 107.199374 90.181398 
L 114.334638 73.490489 
L 121.469903 60.235943 
L 128.605168 58.075943 
L 135.740433 56.014125 
L 142.875697 55.22867 
L 150.010962 54.443216 
L 157.146227 54.14867 
L 164.281492 53.06867 
L 171.416756 52.381398 
L 178.552021 51.301398 
L 185.687286 51.105034 
L 192.822551 50.712307 
L 199.957815 50.712307 
L 207.09308 50.515943 
L 214.228345 50.417761 
L 221.36361 50.417761 
L 228.498874 50.31958 
L 235.634139 50.31958 
L 242.769404 50.31958 
L 249.904668 50.221398 
L 257.039933 50.025034 
L 264.175198 49.926852 
L 271.310463 49.337761 
L 278.445727 49.337761 
L 285.580992 49.337761 
L 292.716257 49.337761 
L 299.851522 49.337761 
L 306.986786 49.337761 
L 314.122051 49.337761 
L 321.257316 48.650489 
L 328.392581 46.195943 
L 335.527845 45.410489 
L 342.66311 45.410489 
L 349.798375 45.410489 
L 356.933639 45.410489 
L 364.068904 42.857761 
L 371.204169 42.75958 
L 378.339434 42.75958 
L 385.474698 42.75958 
L 392.609963 42.75958 
L 399.745228 42.75958 
L 406.880493 42.75958 
L 414.015757 42.75958 
L 421.151022 42.75958 
L 428.286287 42.75958 
L 435.421552 42.75958 
L 442.556816 42.75958 
L 449.692081 42.75958 
L 456.827346 42.661398 
L 463.962611 42.661398 
L 471.097875 42.661398 
L 478.23314 42.661398 
L 485.368405 42.661398 
L 492.503669 42.563216 
L 499.638934 42.563216 
L 506.774199 42.563216 
L 513.909464 42.366852 
L 521.044728 42.366852 
L 528.179993 42.366852 
L 535.315258 42.366852 
L 542.450523 42.366852 
L 549.585787 42.366852 
L 556.721052 42.366852 
L 563.856317 42.366852 
L 570.991582 42.26867 
L 578.126846 42.26867 
L 585.262111 42.170489 
L 592.397376 42.170489 
L 599.53264 42.072307 
L 606.667905 42.072307 
L 613.80317 42.072307 
L 620.938435 42.072307 
L 628.073699 42.072307 
L 635.208964 42.072307 
L 642.344229 42.072307 
L 649.479494 42.072307 
L 656.614758 42.072307 
L 663.750023 42.072307 
L 670.885288 42.072307 
L 678.020553 42.072307 
L 685.155817 42.072307 
L 692.291082 41.974125 
L 699.426347 41.875943 
L 706.561612 41.875943 
L 713.696876 41.875943 
L 720.832141 41.875943 
L 727.967406 41.875943 
L 735.10267 41.875943 
" style="fill:none;stroke:#1f77b4;stroke-linecap:square;stroke-width:1.5;"/>
    <defs>
     <path d="M 0 3 
C 0.795609 3 1.55874 2.683901 2.12132 2.12132 
C 2.683901 1.55874 3 0.795609 3 0 
C 3 -0.795609 2.683901 -1.55874 2.12132 -2.12132 
C 1.55874 -2.683901 0.795609 -3 0 -3 
C -0.795609 -3 -1.55874 -2.683901 -2.12132 -2.12132 
C -2.683901 -1.55874 -3 -0.795609 -3 0 
C -3 0.795609 -2.683901 1.55874 -2.12132 2.12132 
C -1.55874 2.683901 -0.795609 3 0 3 
z
" id="m2ab3b00693" style="stroke:#ffffff;stroke-width:0.75;"/>
    </defs>
    <g clip-path="url(#pa05c9e1390)">
     <use style="fill:#1f77b4;stroke:#ffffff;stroke-width:0.75;" x="85.79358" xlink:href="#m2ab3b00693" y="154.981398"/>
     <use style="fill:#1f77b4;stroke:#ffffff;stroke-width:0.75;" x="92.928844" xlink:href="#m2ab3b00693" y="130.926852"/>
     <use style="fill:#1f77b4;stroke:#ffffff;stroke-width:0.75;" x="100.064109" xlink:href="#m2ab3b00693" y="114.03958"/>
     <use style="fill:#1f77b4;stroke:#ffffff;stroke-width:0.75;" x="107.199374" xlink:href="#m2ab3b00693" y="90.181398"/>
     <use style="fill:#1f77b4;stroke:#ffffff;stroke-width:0.75;" x="114.334638" xlink:href="#m2ab3b00693" y="73.490489"/>
     <use style="fill:#1f77b4;stroke:#ffffff;stroke-width:0.75;" x="121.469903" xlink:href="#m2ab3b00693" y="60.235943"/>
     <use style="fill:#1f77b4;stroke:#ffffff;stroke-width:0.75;" x="128.605168" xlink:href="#m2ab3b00693" y="58.075943"/>
     <use style="fill:#1f77b4;stroke:#ffffff;stroke-width:0.75;" x="135.740433" xlink:href="#m2ab3b00693" y="56.014125"/>
     <use style="fill:#1f77b4;stroke:#ffffff;stroke-width:0.75;" x="142.875697" xlink:href="#m2ab3b00693" y="55.22867"/>
     <use style="fill:#1f77b4;stroke:#ffffff;stroke-width:0.75;" x="150.010962" xlink:href="#m2ab3b00693" y="54.443216"/>
     <use style="fill:#1f77b4;stroke:#ffffff;stroke-width:0.75;" x="157.146227" xlink:href="#m2ab3b00693" y="54.14867"/>
     <use style="fill:#1f77b4;stroke:#ffffff;stroke-width:0.75;" x="164.281492" xlink:href="#m2ab3b00693" y="53.06867"/>
     <use style="fill:#1f77b4;stroke:#ffffff;stroke-width:0.75;" x="171.416756" xlink:href="#m2ab3b00693" y="52.381398"/>
     <use style="fill:#1f77b4;stroke:#ffffff;stroke-width:0.75;" x="178.552021" xlink:href="#m2ab3b00693" y="51.301398"/>
     <use style="fill:#1f77b4;stroke:#ffffff;stroke-width:0.75;" x="185.687286" xlink:href="#m2ab3b00693" y="51.105034"/>
     <use style="fill:#1f77b4;stroke:#ffffff;stroke-width:0.75;" x="192.822551" xlink:href="#m2ab3b00693" y="50.712307"/>
     <use style="fill:#1f77b4;stroke:#ffffff;stroke-width:0.75;" x="199.957815" xlink:href="#m2ab3b00693" y="50.712307"/>
     <use style="fill:#1f77b4;stroke:#ffffff;stroke-width:0.75;" x="207.09308" xlink:href="#m2ab3b00693" y="50.515943"/>
     <use style="fill:#1f77b4;stroke:#ffffff;stroke-width:0.75;" x="214.228345" xlink:href="#m2ab3b00693" y="50.417761"/>
     <use style="fill:#1f77b4;stroke:#ffffff;stroke-width:0.75;" x="221.36361" xlink:href="#m2ab3b00693" y="50.417761"/>
     <use style="fill:#1f77b4;stroke:#ffffff;stroke-width:0.75;" x="228.498874" xlink:href="#m2ab3b00693" y="50.31958"/>
     <use style="fill:#1f77b4;stroke:#ffffff;stroke-width:0.75;" x="235.634139" xlink:href="#m2ab3b00693" y="50.31958"/>
     <use style="fill:#1f77b4;stroke:#ffffff;stroke-width:0.75;" x="242.769404" xlink:href="#m2ab3b00693" y="50.31958"/>
     <use style="fill:#1f77b4;stroke:#ffffff;stroke-width:0.75;" x="249.904668" xlink:href="#m2ab3b00693" y="50.221398"/>
     <use style="fill:#1f77b4;stroke:#ffffff;stroke-width:0.75;" x="257.039933" xlink:href="#m2ab3b00693" y="50.025034"/>
     <use style="fill:#1f77b4;stroke:#ffffff;stroke-width:0.75;" x="264.175198" xlink:href="#m2ab3b00693" y="49.926852"/>
     <use style="fill:#1f77b4;stroke:#ffffff;stroke-width:0.75;" x="271.310463" xlink:href="#m2ab3b00693" y="49.337761"/>
     <use style="fill:#1f77b4;stroke:#ffffff;stroke-width:0.75;" x="278.445727" xlink:href="#m2ab3b00693" y="49.337761"/>
     <use style="fill:#1f77b4;stroke:#ffffff;stroke-width:0.75;" x="285.580992" xlink:href="#m2ab3b00693" y="49.337761"/>
     <use style="fill:#1f77b4;stroke:#ffffff;stroke-width:0.75;" x="292.716257" xlink:href="#m2ab3b00693" y="49.337761"/>
     <use style="fill:#1f77b4;stroke:#ffffff;stroke-width:0.75;" x="299.851522" xlink:href="#m2ab3b00693" y="49.337761"/>
     <use style="fill:#1f77b4;stroke:#ffffff;stroke-width:0.75;" x="306.986786" xlink:href="#m2ab3b00693" y="49.337761"/>
     <use style="fill:#1f77b4;stroke:#ffffff;stroke-width:0.75;" x="314.122051" xlink:href="#m2ab3b00693" y="49.337761"/>
     <use style="fill:#1f77b4;stroke:#ffffff;stroke-width:0.75;" x="321.257316" xlink:href="#m2ab3b00693" y="48.650489"/>
     <use style="fill:#1f77b4;stroke:#ffffff;stroke-width:0.75;" x="328.392581" xlink:href="#m2ab3b00693" y="46.195943"/>
     <use style="fill:#1f77b4;stroke:#ffffff;stroke-width:0.75;" x="335.527845" xlink:href="#m2ab3b00693" y="45.410489"/>
     <use style="fill:#1f77b4;stroke:#ffffff;stroke-width:0.75;" x="342.66311" xlink:href="#m2ab3b00693" y="45.410489"/>
     <use style="fill:#1f77b4;stroke:#ffffff;stroke-width:0.75;" x="349.798375" xlink:href="#m2ab3b00693" y="45.410489"/>
     <use style="fill:#1f77b4;stroke:#ffffff;stroke-width:0.75;" x="356.933639" xlink:href="#m2ab3b00693" y="45.410489"/>
     <use style="fill:#1f77b4;stroke:#ffffff;stroke-width:0.75;" x="364.068904" xlink:href="#m2ab3b00693" y="42.857761"/>
     <use style="fill:#1f77b4;stroke:#ffffff;stroke-width:0.75;" x="371.204169" xlink:href="#m2ab3b00693" y="42.75958"/>
     <use style="fill:#1f77b4;stroke:#ffffff;stroke-width:0.75;" x="378.339434" xlink:href="#m2ab3b00693" y="42.75958"/>
     <use style="fill:#1f77b4;stroke:#ffffff;stroke-width:0.75;" x="385.474698" xlink:href="#m2ab3b00693" y="42.75958"/>
     <use style="fill:#1f77b4;stroke:#ffffff;stroke-width:0.75;" x="392.609963" xlink:href="#m2ab3b00693" y="42.75958"/>
     <use style="fill:#1f77b4;stroke:#ffffff;stroke-width:0.75;" x="399.745228" xlink:href="#m2ab3b00693" y="42.75958"/>
     <use style="fill:#1f77b4;stroke:#ffffff;stroke-width:0.75;" x="406.880493" xlink:href="#m2ab3b00693" y="42.75958"/>
     <use style="fill:#1f77b4;stroke:#ffffff;stroke-width:0.75;" x="414.015757" xlink:href="#m2ab3b00693" y="42.75958"/>
     <use style="fill:#1f77b4;stroke:#ffffff;stroke-width:0.75;" x="421.151022" xlink:href="#m2ab3b00693" y="42.75958"/>
     <use style="fill:#1f77b4;stroke:#ffffff;stroke-width:0.75;" x="428.286287" xlink:href="#m2ab3b00693" y="42.75958"/>
     <use style="fill:#1f77b4;stroke:#ffffff;stroke-width:0.75;" x="435.421552" xlink:href="#m2ab3b00693" y="42.75958"/>
     <use style="fill:#1f77b4;stroke:#ffffff;stroke-width:0.75;" x="442.556816" xlink:href="#m2ab3b00693" y="42.75958"/>
     <use style="fill:#1f77b4;stroke:#ffffff;stroke-width:0.75;" x="449.692081" xlink:href="#m2ab3b00693" y="42.75958"/>
     <use style="fill:#1f77b4;stroke:#ffffff;stroke-width:0.75;" x="456.827346" xlink:href="#m2ab3b00693" y="42.661398"/>
     <use style="fill:#1f77b4;stroke:#ffffff;stroke-width:0.75;" x="463.962611" xlink:href="#m2ab3b00693" y="42.661398"/>
     <use style="fill:#1f77b4;stroke:#ffffff;stroke-width:0.75;" x="471.097875" xlink:href="#m2ab3b00693" y="42.661398"/>
     <use style="fill:#1f77b4;stroke:#ffffff;stroke-width:0.75;" x="478.23314" xlink:href="#m2ab3b00693" y="42.661398"/>
     <use style="fill:#1f77b4;stroke:#ffffff;stroke-width:0.75;" x="485.368405" xlink:href="#m2ab3b00693" y="42.661398"/>
     <use style="fill:#1f77b4;stroke:#ffffff;stroke-width:0.75;" x="492.503669" xlink:href="#m2ab3b00693" y="42.563216"/>
     <use style="fill:#1f77b4;stroke:#ffffff;stroke-width:0.75;" x="499.638934" xlink:href="#m2ab3b00693" y="42.563216"/>
     <use style="fill:#1f77b4;stroke:#ffffff;stroke-width:0.75;" x="506.774199" xlink:href="#m2ab3b00693" y="42.563216"/>
     <use style="fill:#1f77b4;stroke:#ffffff;stroke-width:0.75;" x="513.909464" xlink:href="#m2ab3b00693" y="42.366852"/>
     <use style="fill:#1f77b4;stroke:#ffffff;stroke-width:0.75;" x="521.044728" xlink:href="#m2ab3b00693" y="42.366852"/>
     <use style="fill:#1f77b4;stroke:#ffffff;stroke-width:0.75;" x="528.179993" xlink:href="#m2ab3b00693" y="42.366852"/>
     <use style="fill:#1f77b4;stroke:#ffffff;stroke-width:0.75;" x="535.315258" xlink:href="#m2ab3b00693" y="42.366852"/>
     <use style="fill:#1f77b4;stroke:#ffffff;stroke-width:0.75;" x="542.450523" xlink:href="#m2ab3b00693" y="42.366852"/>
     <use style="fill:#1f77b4;stroke:#ffffff;stroke-width:0.75;" x="549.585787" xlink:href="#m2ab3b00693" y="42.366852"/>
     <use style="fill:#1f77b4;stroke:#ffffff;stroke-width:0.75;" x="556.721052" xlink:href="#m2ab3b00693" y="42.366852"/>
     <use style="fill:#1f77b4;stroke:#ffffff;stroke-width:0.75;" x="563.856317" xlink:href="#m2ab3b00693" y="42.366852"/>
     <use style="fill:#1f77b4;stroke:#ffffff;stroke-width:0.75;" x="570.991582" xlink:href="#m2ab3b00693" y="42.26867"/>
     <use style="fill:#1f77b4;stroke:#ffffff;stroke-width:0.75;" x="578.126846" xlink:href="#m2ab3b00693" y="42.26867"/>
     <use style="fill:#1f77b4;stroke:#ffffff;stroke-width:0.75;" x="585.262111" xlink:href="#m2ab3b00693" y="42.170489"/>
     <use style="fill:#1f77b4;stroke:#ffffff;stroke-width:0.75;" x="592.397376" xlink:href="#m2ab3b00693" y="42.170489"/>
     <use style="fill:#1f77b4;stroke:#ffffff;stroke-width:0.75;" x="599.53264" xlink:href="#m2ab3b00693" y="42.072307"/>
     <use style="fill:#1f77b4;stroke:#ffffff;stroke-width:0.75;" x="606.667905" xlink:href="#m2ab3b00693" y="42.072307"/>
     <use style="fill:#1f77b4;stroke:#ffffff;stroke-width:0.75;" x="613.80317" xlink:href="#m2ab3b00693" y="42.072307"/>
     <use style="fill:#1f77b4;stroke:#ffffff;stroke-width:0.75;" x="620.938435" xlink:href="#m2ab3b00693" y="42.072307"/>
     <use style="fill:#1f77b4;stroke:#ffffff;stroke-width:0.75;" x="628.073699" xlink:href="#m2ab3b00693" y="42.072307"/>
     <use style="fill:#1f77b4;stroke:#ffffff;stroke-width:0.75;" x="635.208964" xlink:href="#m2ab3b00693" y="42.072307"/>
     <use style="fill:#1f77b4;stroke:#ffffff;stroke-width:0.75;" x="642.344229" xlink:href="#m2ab3b00693" y="42.072307"/>
     <use style="fill:#1f77b4;stroke:#ffffff;stroke-width:0.75;" x="649.479494" xlink:href="#m2ab3b00693" y="42.072307"/>
     <use style="fill:#1f77b4;stroke:#ffffff;stroke-width:0.75;" x="656.614758" xlink:href="#m2ab3b00693" y="42.072307"/>
     <use style="fill:#1f77b4;stroke:#ffffff;stroke-width:0.75;" x="663.750023" xlink:href="#m2ab3b00693" y="42.072307"/>
     <use style="fill:#1f77b4;stroke:#ffffff;stroke-width:0.75;" x="670.885288" xlink:href="#m2ab3b00693" y="42.072307"/>
     <use style="fill:#1f77b4;stroke:#ffffff;stroke-width:0.75;" x="678.020553" xlink:href="#m2ab3b00693" y="42.072307"/>
     <use style="fill:#1f77b4;stroke:#ffffff;stroke-width:0.75;" x="685.155817" xlink:href="#m2ab3b00693" y="42.072307"/>
     <use style="fill:#1f77b4;stroke:#ffffff;stroke-width:0.75;" x="692.291082" xlink:href="#m2ab3b00693" y="41.974125"/>
     <use style="fill:#1f77b4;stroke:#ffffff;stroke-width:0.75;" x="699.426347" xlink:href="#m2ab3b00693" y="41.875943"/>
     <use style="fill:#1f77b4;stroke:#ffffff;stroke-width:0.75;" x="706.561612" xlink:href="#m2ab3b00693" y="41.875943"/>
     <use style="fill:#1f77b4;stroke:#ffffff;stroke-width:0.75;" x="713.696876" xlink:href="#m2ab3b00693" y="41.875943"/>
     <use style="fill:#1f77b4;stroke:#ffffff;stroke-width:0.75;" x="720.832141" xlink:href="#m2ab3b00693" y="41.875943"/>
     <use style="fill:#1f77b4;stroke:#ffffff;stroke-width:0.75;" x="727.967406" xlink:href="#m2ab3b00693" y="41.875943"/>
     <use style="fill:#1f77b4;stroke:#ffffff;stroke-width:0.75;" x="735.10267" xlink:href="#m2ab3b00693" y="41.875943"/>
    </g>
   </g>
   <g id="line2d_21">
    <path clip-path="url(#pa05c9e1390)" d="M 85.79358 268.47958 
L 92.928844 215.657761 
L 100.064109 180.606852 
L 107.199374 171.181398 
L 114.334638 163.130489 
L 121.469903 160.185034 
L 128.605168 156.945034 
L 135.740433 148.403216 
L 142.875697 147.814125 
L 150.010962 144.672307 
L 157.146227 142.11958 
L 164.281492 135.934125 
L 171.416756 129.061398 
L 178.552021 126.803216 
L 185.687286 122.581398 
L 192.822551 121.59958 
L 199.957815 116.985034 
L 207.09308 116.494125 
L 214.228345 116.003216 
L 221.36361 111.38867 
L 228.498874 110.112307 
L 235.634139 106.774125 
L 242.769404 100.686852 
L 249.904668 97.250489 
L 257.039933 97.250489 
L 264.175198 97.054125 
L 271.310463 95.483216 
L 278.445727 95.286852 
L 285.580992 94.697761 
L 292.716257 92.832307 
L 299.851522 91.850489 
L 306.986786 91.850489 
L 314.122051 89.19958 
L 321.257316 89.101398 
L 328.392581 87.62867 
L 335.527845 87.62867 
L 342.66311 87.62867 
L 349.798375 84.87958 
L 356.933639 84.87958 
L 364.068904 82.425034 
L 371.204169 82.425034 
L 378.339434 82.425034 
L 385.474698 82.326852 
L 392.609963 80.55958 
L 399.745228 80.55958 
L 406.880493 80.55958 
L 414.015757 80.55958 
L 421.151022 80.55958 
L 428.286287 80.55958 
L 435.421552 80.55958 
L 442.556816 80.55958 
L 449.692081 80.461398 
L 456.827346 76.632307 
L 463.962611 74.766852 
L 471.097875 73.883216 
L 478.23314 73.883216 
L 485.368405 73.785034 
L 492.503669 73.686852 
L 499.638934 73.686852 
L 506.774199 73.686852 
L 513.909464 73.686852 
L 521.044728 73.490489 
L 528.179993 73.392307 
L 535.315258 73.392307 
L 542.450523 73.392307 
L 549.585787 73.392307 
L 556.721052 71.625034 
L 563.856317 71.625034 
L 570.991582 71.625034 
L 578.126846 71.625034 
L 585.262111 68.581398 
L 592.397376 68.18867 
L 599.53264 68.18867 
L 606.667905 68.18867 
L 613.80317 68.18867 
L 620.938435 68.18867 
L 628.073699 68.18867 
L 635.208964 68.090489 
L 642.344229 68.090489 
L 649.479494 68.090489 
L 656.614758 68.090489 
L 663.750023 67.403216 
L 670.885288 67.206852 
L 678.020553 61.70867 
L 685.155817 59.646852 
L 692.291082 59.646852 
L 699.426347 59.646852 
L 706.561612 59.646852 
L 713.696876 59.646852 
L 720.832141 59.54867 
L 727.967406 58.665034 
L 735.10267 58.665034 
" style="fill:none;stroke:#98df8a;stroke-linecap:square;stroke-width:1.5;"/>
    <defs>
     <path d="M -0 3 
L 3 -3 
L -3 -3 
z
" id="m89e1076958" style="stroke:#ffffff;stroke-linejoin:miter;stroke-width:0.75;"/>
    </defs>
    <g clip-path="url(#pa05c9e1390)">
     <use style="fill:#98df8a;stroke:#ffffff;stroke-linejoin:miter;stroke-width:0.75;" x="85.79358" xlink:href="#m89e1076958" y="268.47958"/>
     <use style="fill:#98df8a;stroke:#ffffff;stroke-linejoin:miter;stroke-width:0.75;" x="92.928844" xlink:href="#m89e1076958" y="215.657761"/>
     <use style="fill:#98df8a;stroke:#ffffff;stroke-linejoin:miter;stroke-width:0.75;" x="100.064109" xlink:href="#m89e1076958" y="180.606852"/>
     <use style="fill:#98df8a;stroke:#ffffff;stroke-linejoin:miter;stroke-width:0.75;" x="107.199374" xlink:href="#m89e1076958" y="171.181398"/>
     <use style="fill:#98df8a;stroke:#ffffff;stroke-linejoin:miter;stroke-width:0.75;" x="114.334638" xlink:href="#m89e1076958" y="163.130489"/>
     <use style="fill:#98df8a;stroke:#ffffff;stroke-linejoin:miter;stroke-width:0.75;" x="121.469903" xlink:href="#m89e1076958" y="160.185034"/>
     <use style="fill:#98df8a;stroke:#ffffff;stroke-linejoin:miter;stroke-width:0.75;" x="128.605168" xlink:href="#m89e1076958" y="156.945034"/>
     <use style="fill:#98df8a;stroke:#ffffff;stroke-linejoin:miter;stroke-width:0.75;" x="135.740433" xlink:href="#m89e1076958" y="148.403216"/>
     <use style="fill:#98df8a;stroke:#ffffff;stroke-linejoin:miter;stroke-width:0.75;" x="142.875697" xlink:href="#m89e1076958" y="147.814125"/>
     <use style="fill:#98df8a;stroke:#ffffff;stroke-linejoin:miter;stroke-width:0.75;" x="150.010962" xlink:href="#m89e1076958" y="144.672307"/>
     <use style="fill:#98df8a;stroke:#ffffff;stroke-linejoin:miter;stroke-width:0.75;" x="157.146227" xlink:href="#m89e1076958" y="142.11958"/>
     <use style="fill:#98df8a;stroke:#ffffff;stroke-linejoin:miter;stroke-width:0.75;" x="164.281492" xlink:href="#m89e1076958" y="135.934125"/>
     <use style="fill:#98df8a;stroke:#ffffff;stroke-linejoin:miter;stroke-width:0.75;" x="171.416756" xlink:href="#m89e1076958" y="129.061398"/>
     <use style="fill:#98df8a;stroke:#ffffff;stroke-linejoin:miter;stroke-width:0.75;" x="178.552021" xlink:href="#m89e1076958" y="126.803216"/>
     <use style="fill:#98df8a;stroke:#ffffff;stroke-linejoin:miter;stroke-width:0.75;" x="185.687286" xlink:href="#m89e1076958" y="122.581398"/>
     <use style="fill:#98df8a;stroke:#ffffff;stroke-linejoin:miter;stroke-width:0.75;" x="192.822551" xlink:href="#m89e1076958" y="121.59958"/>
     <use style="fill:#98df8a;stroke:#ffffff;stroke-linejoin:miter;stroke-width:0.75;" x="199.957815" xlink:href="#m89e1076958" y="116.985034"/>
     <use style="fill:#98df8a;stroke:#ffffff;stroke-linejoin:miter;stroke-width:0.75;" x="207.09308" xlink:href="#m89e1076958" y="116.494125"/>
     <use style="fill:#98df8a;stroke:#ffffff;stroke-linejoin:miter;stroke-width:0.75;" x="214.228345" xlink:href="#m89e1076958" y="116.003216"/>
     <use style="fill:#98df8a;stroke:#ffffff;stroke-linejoin:miter;stroke-width:0.75;" x="221.36361" xlink:href="#m89e1076958" y="111.38867"/>
     <use style="fill:#98df8a;stroke:#ffffff;stroke-linejoin:miter;stroke-width:0.75;" x="228.498874" xlink:href="#m89e1076958" y="110.112307"/>
     <use style="fill:#98df8a;stroke:#ffffff;stroke-linejoin:miter;stroke-width:0.75;" x="235.634139" xlink:href="#m89e1076958" y="106.774125"/>
     <use style="fill:#98df8a;stroke:#ffffff;stroke-linejoin:miter;stroke-width:0.75;" x="242.769404" xlink:href="#m89e1076958" y="100.686852"/>
     <use style="fill:#98df8a;stroke:#ffffff;stroke-linejoin:miter;stroke-width:0.75;" x="249.904668" xlink:href="#m89e1076958" y="97.250489"/>
     <use style="fill:#98df8a;stroke:#ffffff;stroke-linejoin:miter;stroke-width:0.75;" x="257.039933" xlink:href="#m89e1076958" y="97.250489"/>
     <use style="fill:#98df8a;stroke:#ffffff;stroke-linejoin:miter;stroke-width:0.75;" x="264.175198" xlink:href="#m89e1076958" y="97.054125"/>
     <use style="fill:#98df8a;stroke:#ffffff;stroke-linejoin:miter;stroke-width:0.75;" x="271.310463" xlink:href="#m89e1076958" y="95.483216"/>
     <use style="fill:#98df8a;stroke:#ffffff;stroke-linejoin:miter;stroke-width:0.75;" x="278.445727" xlink:href="#m89e1076958" y="95.286852"/>
     <use style="fill:#98df8a;stroke:#ffffff;stroke-linejoin:miter;stroke-width:0.75;" x="285.580992" xlink:href="#m89e1076958" y="94.697761"/>
     <use style="fill:#98df8a;stroke:#ffffff;stroke-linejoin:miter;stroke-width:0.75;" x="292.716257" xlink:href="#m89e1076958" y="92.832307"/>
     <use style="fill:#98df8a;stroke:#ffffff;stroke-linejoin:miter;stroke-width:0.75;" x="299.851522" xlink:href="#m89e1076958" y="91.850489"/>
     <use style="fill:#98df8a;stroke:#ffffff;stroke-linejoin:miter;stroke-width:0.75;" x="306.986786" xlink:href="#m89e1076958" y="91.850489"/>
     <use style="fill:#98df8a;stroke:#ffffff;stroke-linejoin:miter;stroke-width:0.75;" x="314.122051" xlink:href="#m89e1076958" y="89.19958"/>
     <use style="fill:#98df8a;stroke:#ffffff;stroke-linejoin:miter;stroke-width:0.75;" x="321.257316" xlink:href="#m89e1076958" y="89.101398"/>
     <use style="fill:#98df8a;stroke:#ffffff;stroke-linejoin:miter;stroke-width:0.75;" x="328.392581" xlink:href="#m89e1076958" y="87.62867"/>
     <use style="fill:#98df8a;stroke:#ffffff;stroke-linejoin:miter;stroke-width:0.75;" x="335.527845" xlink:href="#m89e1076958" y="87.62867"/>
     <use style="fill:#98df8a;stroke:#ffffff;stroke-linejoin:miter;stroke-width:0.75;" x="342.66311" xlink:href="#m89e1076958" y="87.62867"/>
     <use style="fill:#98df8a;stroke:#ffffff;stroke-linejoin:miter;stroke-width:0.75;" x="349.798375" xlink:href="#m89e1076958" y="84.87958"/>
     <use style="fill:#98df8a;stroke:#ffffff;stroke-linejoin:miter;stroke-width:0.75;" x="356.933639" xlink:href="#m89e1076958" y="84.87958"/>
     <use style="fill:#98df8a;stroke:#ffffff;stroke-linejoin:miter;stroke-width:0.75;" x="364.068904" xlink:href="#m89e1076958" y="82.425034"/>
     <use style="fill:#98df8a;stroke:#ffffff;stroke-linejoin:miter;stroke-width:0.75;" x="371.204169" xlink:href="#m89e1076958" y="82.425034"/>
     <use style="fill:#98df8a;stroke:#ffffff;stroke-linejoin:miter;stroke-width:0.75;" x="378.339434" xlink:href="#m89e1076958" y="82.425034"/>
     <use style="fill:#98df8a;stroke:#ffffff;stroke-linejoin:miter;stroke-width:0.75;" x="385.474698" xlink:href="#m89e1076958" y="82.326852"/>
     <use style="fill:#98df8a;stroke:#ffffff;stroke-linejoin:miter;stroke-width:0.75;" x="392.609963" xlink:href="#m89e1076958" y="80.55958"/>
     <use style="fill:#98df8a;stroke:#ffffff;stroke-linejoin:miter;stroke-width:0.75;" x="399.745228" xlink:href="#m89e1076958" y="80.55958"/>
     <use style="fill:#98df8a;stroke:#ffffff;stroke-linejoin:miter;stroke-width:0.75;" x="406.880493" xlink:href="#m89e1076958" y="80.55958"/>
     <use style="fill:#98df8a;stroke:#ffffff;stroke-linejoin:miter;stroke-width:0.75;" x="414.015757" xlink:href="#m89e1076958" y="80.55958"/>
     <use style="fill:#98df8a;stroke:#ffffff;stroke-linejoin:miter;stroke-width:0.75;" x="421.151022" xlink:href="#m89e1076958" y="80.55958"/>
     <use style="fill:#98df8a;stroke:#ffffff;stroke-linejoin:miter;stroke-width:0.75;" x="428.286287" xlink:href="#m89e1076958" y="80.55958"/>
     <use style="fill:#98df8a;stroke:#ffffff;stroke-linejoin:miter;stroke-width:0.75;" x="435.421552" xlink:href="#m89e1076958" y="80.55958"/>
     <use style="fill:#98df8a;stroke:#ffffff;stroke-linejoin:miter;stroke-width:0.75;" x="442.556816" xlink:href="#m89e1076958" y="80.55958"/>
     <use style="fill:#98df8a;stroke:#ffffff;stroke-linejoin:miter;stroke-width:0.75;" x="449.692081" xlink:href="#m89e1076958" y="80.461398"/>
     <use style="fill:#98df8a;stroke:#ffffff;stroke-linejoin:miter;stroke-width:0.75;" x="456.827346" xlink:href="#m89e1076958" y="76.632307"/>
     <use style="fill:#98df8a;stroke:#ffffff;stroke-linejoin:miter;stroke-width:0.75;" x="463.962611" xlink:href="#m89e1076958" y="74.766852"/>
     <use style="fill:#98df8a;stroke:#ffffff;stroke-linejoin:miter;stroke-width:0.75;" x="471.097875" xlink:href="#m89e1076958" y="73.883216"/>
     <use style="fill:#98df8a;stroke:#ffffff;stroke-linejoin:miter;stroke-width:0.75;" x="478.23314" xlink:href="#m89e1076958" y="73.883216"/>
     <use style="fill:#98df8a;stroke:#ffffff;stroke-linejoin:miter;stroke-width:0.75;" x="485.368405" xlink:href="#m89e1076958" y="73.785034"/>
     <use style="fill:#98df8a;stroke:#ffffff;stroke-linejoin:miter;stroke-width:0.75;" x="492.503669" xlink:href="#m89e1076958" y="73.686852"/>
     <use style="fill:#98df8a;stroke:#ffffff;stroke-linejoin:miter;stroke-width:0.75;" x="499.638934" xlink:href="#m89e1076958" y="73.686852"/>
     <use style="fill:#98df8a;stroke:#ffffff;stroke-linejoin:miter;stroke-width:0.75;" x="506.774199" xlink:href="#m89e1076958" y="73.686852"/>
     <use style="fill:#98df8a;stroke:#ffffff;stroke-linejoin:miter;stroke-width:0.75;" x="513.909464" xlink:href="#m89e1076958" y="73.686852"/>
     <use style="fill:#98df8a;stroke:#ffffff;stroke-linejoin:miter;stroke-width:0.75;" x="521.044728" xlink:href="#m89e1076958" y="73.490489"/>
     <use style="fill:#98df8a;stroke:#ffffff;stroke-linejoin:miter;stroke-width:0.75;" x="528.179993" xlink:href="#m89e1076958" y="73.392307"/>
     <use style="fill:#98df8a;stroke:#ffffff;stroke-linejoin:miter;stroke-width:0.75;" x="535.315258" xlink:href="#m89e1076958" y="73.392307"/>
     <use style="fill:#98df8a;stroke:#ffffff;stroke-linejoin:miter;stroke-width:0.75;" x="542.450523" xlink:href="#m89e1076958" y="73.392307"/>
     <use style="fill:#98df8a;stroke:#ffffff;stroke-linejoin:miter;stroke-width:0.75;" x="549.585787" xlink:href="#m89e1076958" y="73.392307"/>
     <use style="fill:#98df8a;stroke:#ffffff;stroke-linejoin:miter;stroke-width:0.75;" x="556.721052" xlink:href="#m89e1076958" y="71.625034"/>
     <use style="fill:#98df8a;stroke:#ffffff;stroke-linejoin:miter;stroke-width:0.75;" x="563.856317" xlink:href="#m89e1076958" y="71.625034"/>
     <use style="fill:#98df8a;stroke:#ffffff;stroke-linejoin:miter;stroke-width:0.75;" x="570.991582" xlink:href="#m89e1076958" y="71.625034"/>
     <use style="fill:#98df8a;stroke:#ffffff;stroke-linejoin:miter;stroke-width:0.75;" x="578.126846" xlink:href="#m89e1076958" y="71.625034"/>
     <use style="fill:#98df8a;stroke:#ffffff;stroke-linejoin:miter;stroke-width:0.75;" x="585.262111" xlink:href="#m89e1076958" y="68.581398"/>
     <use style="fill:#98df8a;stroke:#ffffff;stroke-linejoin:miter;stroke-width:0.75;" x="592.397376" xlink:href="#m89e1076958" y="68.18867"/>
     <use style="fill:#98df8a;stroke:#ffffff;stroke-linejoin:miter;stroke-width:0.75;" x="599.53264" xlink:href="#m89e1076958" y="68.18867"/>
     <use style="fill:#98df8a;stroke:#ffffff;stroke-linejoin:miter;stroke-width:0.75;" x="606.667905" xlink:href="#m89e1076958" y="68.18867"/>
     <use style="fill:#98df8a;stroke:#ffffff;stroke-linejoin:miter;stroke-width:0.75;" x="613.80317" xlink:href="#m89e1076958" y="68.18867"/>
     <use style="fill:#98df8a;stroke:#ffffff;stroke-linejoin:miter;stroke-width:0.75;" x="620.938435" xlink:href="#m89e1076958" y="68.18867"/>
     <use style="fill:#98df8a;stroke:#ffffff;stroke-linejoin:miter;stroke-width:0.75;" x="628.073699" xlink:href="#m89e1076958" y="68.18867"/>
     <use style="fill:#98df8a;stroke:#ffffff;stroke-linejoin:miter;stroke-width:0.75;" x="635.208964" xlink:href="#m89e1076958" y="68.090489"/>
     <use style="fill:#98df8a;stroke:#ffffff;stroke-linejoin:miter;stroke-width:0.75;" x="642.344229" xlink:href="#m89e1076958" y="68.090489"/>
     <use style="fill:#98df8a;stroke:#ffffff;stroke-linejoin:miter;stroke-width:0.75;" x="649.479494" xlink:href="#m89e1076958" y="68.090489"/>
     <use style="fill:#98df8a;stroke:#ffffff;stroke-linejoin:miter;stroke-width:0.75;" x="656.614758" xlink:href="#m89e1076958" y="68.090489"/>
     <use style="fill:#98df8a;stroke:#ffffff;stroke-linejoin:miter;stroke-width:0.75;" x="663.750023" xlink:href="#m89e1076958" y="67.403216"/>
     <use style="fill:#98df8a;stroke:#ffffff;stroke-linejoin:miter;stroke-width:0.75;" x="670.885288" xlink:href="#m89e1076958" y="67.206852"/>
     <use style="fill:#98df8a;stroke:#ffffff;stroke-linejoin:miter;stroke-width:0.75;" x="678.020553" xlink:href="#m89e1076958" y="61.70867"/>
     <use style="fill:#98df8a;stroke:#ffffff;stroke-linejoin:miter;stroke-width:0.75;" x="685.155817" xlink:href="#m89e1076958" y="59.646852"/>
     <use style="fill:#98df8a;stroke:#ffffff;stroke-linejoin:miter;stroke-width:0.75;" x="692.291082" xlink:href="#m89e1076958" y="59.646852"/>
     <use style="fill:#98df8a;stroke:#ffffff;stroke-linejoin:miter;stroke-width:0.75;" x="699.426347" xlink:href="#m89e1076958" y="59.646852"/>
     <use style="fill:#98df8a;stroke:#ffffff;stroke-linejoin:miter;stroke-width:0.75;" x="706.561612" xlink:href="#m89e1076958" y="59.646852"/>
     <use style="fill:#98df8a;stroke:#ffffff;stroke-linejoin:miter;stroke-width:0.75;" x="713.696876" xlink:href="#m89e1076958" y="59.646852"/>
     <use style="fill:#98df8a;stroke:#ffffff;stroke-linejoin:miter;stroke-width:0.75;" x="720.832141" xlink:href="#m89e1076958" y="59.54867"/>
     <use style="fill:#98df8a;stroke:#ffffff;stroke-linejoin:miter;stroke-width:0.75;" x="727.967406" xlink:href="#m89e1076958" y="58.665034"/>
     <use style="fill:#98df8a;stroke:#ffffff;stroke-linejoin:miter;stroke-width:0.75;" x="735.10267" xlink:href="#m89e1076958" y="58.665034"/>
    </g>
   </g>
   <g id="line2d_22"/>
   <g id="line2d_23"/>
   <g id="line2d_24">
    <path clip-path="url(#pa05c9e1390)" d="M 735.10267 288.430125 
L 735.10267 22.318125 
" style="fill:none;stroke:#ff0000;stroke-linecap:square;stroke-width:1.5;"/>
   </g>
   <g id="patch_3">
    <path d="M 53.328125 269.854125 
L 53.328125 34.217761 
" style="fill:none;stroke:#000000;stroke-linecap:square;stroke-linejoin:miter;stroke-width:0.8;"/>
   </g>
   <g id="patch_4">
    <path d="M 85.79358 288.430125 
L 687.534239 288.430125 
" style="fill:none;stroke:#000000;stroke-linecap:square;stroke-linejoin:miter;stroke-width:0.8;"/>
   </g>
   <g id="text_22">
    <!-- lcms-2017-03-21 (23h, 20 trials/fuzzer) -->
    <g transform="translate(292.74875 16.318125)scale(0.12 -0.12)">
     <defs>
      <path d="M 9.421875 75.984375 
L 18.40625 75.984375 
L 18.40625 0 
L 9.421875 0 
z
" id="DejaVuSans-108"/>
      <path d="M 44.28125 53.078125 
L 44.28125 44.578125 
Q 40.484375 46.53125 36.375 47.5 
Q 32.28125 48.484375 27.875 48.484375 
Q 21.1875 48.484375 17.84375 46.4375 
Q 14.5 44.390625 14.5 40.28125 
Q 14.5 37.15625 16.890625 35.375 
Q 19.28125 33.59375 26.515625 31.984375 
L 29.59375 31.296875 
Q 39.15625 29.25 43.1875 25.515625 
Q 47.21875 21.78125 47.21875 15.09375 
Q 47.21875 7.46875 41.1875 3.015625 
Q 35.15625 -1.421875 24.609375 -1.421875 
Q 20.21875 -1.421875 15.453125 -0.5625 
Q 10.6875 0.296875 5.421875 2 
L 5.421875 11.28125 
Q 10.40625 8.6875 15.234375 7.390625 
Q 20.0625 6.109375 24.8125 6.109375 
Q 31.15625 6.109375 34.5625 8.28125 
Q 37.984375 10.453125 37.984375 14.40625 
Q 37.984375 18.0625 35.515625 20.015625 
Q 33.0625 21.96875 24.703125 23.78125 
L 21.578125 24.515625 
Q 13.234375 26.265625 9.515625 29.90625 
Q 5.8125 33.546875 5.8125 39.890625 
Q 5.8125 47.609375 11.28125 51.796875 
Q 16.75 56 26.8125 56 
Q 31.78125 56 36.171875 55.265625 
Q 40.578125 54.546875 44.28125 53.078125 
z
" id="DejaVuSans-115"/>
      <path d="M 4.890625 31.390625 
L 31.203125 31.390625 
L 31.203125 23.390625 
L 4.890625 23.390625 
z
" id="DejaVuSans-45"/>
      <path d="M 11.71875 12.40625 
L 22.015625 12.40625 
L 22.015625 4 
L 14.015625 -11.625 
L 7.71875 -11.625 
L 11.71875 4 
z
" id="DejaVuSans-44"/>
      <path d="M 25.390625 72.90625 
L 33.6875 72.90625 
L 8.296875 -9.28125 
L 0 -9.28125 
z
" id="DejaVuSans-47"/>
      <path d="M 37.109375 75.984375 
L 37.109375 68.5 
L 28.515625 68.5 
Q 23.6875 68.5 21.796875 66.546875 
Q 19.921875 64.59375 19.921875 59.515625 
L 19.921875 54.6875 
L 34.71875 54.6875 
L 34.71875 47.703125 
L 19.921875 47.703125 
L 19.921875 0 
L 10.890625 0 
L 10.890625 47.703125 
L 2.296875 47.703125 
L 2.296875 54.6875 
L 10.890625 54.6875 
L 10.890625 58.5 
Q 10.890625 67.625 15.140625 71.796875 
Q 19.390625 75.984375 28.609375 75.984375 
z
" id="DejaVuSans-102"/>
      <path d="M 5.515625 54.6875 
L 48.1875 54.6875 
L 48.1875 46.484375 
L 14.40625 7.171875 
L 48.1875 7.171875 
L 48.1875 0 
L 4.296875 0 
L 4.296875 8.203125 
L 38.09375 47.515625 
L 5.515625 47.515625 
z
" id="DejaVuSans-122"/>
     </defs>
     <use xlink:href="#DejaVuSans-108"/>
     <use x="27.783203" xlink:href="#DejaVuSans-99"/>
     <use x="82.763672" xlink:href="#DejaVuSans-109"/>
     <use x="180.175781" xlink:href="#DejaVuSans-115"/>
     <use x="232.275391" xlink:href="#DejaVuSans-45"/>
     <use x="268.359375" xlink:href="#DejaVuSans-50"/>
     <use x="331.982422" xlink:href="#DejaVuSans-48"/>
     <use x="395.605469" xlink:href="#DejaVuSans-49"/>
     <use x="459.228516" xlink:href="#DejaVuSans-55"/>
     <use x="522.851562" xlink:href="#DejaVuSans-45"/>
     <use x="558.935547" xlink:href="#DejaVuSans-48"/>
     <use x="622.558594" xlink:href="#DejaVuSans-51"/>
     <use x="686.181641" xlink:href="#DejaVuSans-45"/>
     <use x="722.265625" xlink:href="#DejaVuSans-50"/>
     <use x="785.888672" xlink:href="#DejaVuSans-49"/>
     <use x="849.511719" xlink:href="#DejaVuSans-32"/>
     <use x="881.298828" xlink:href="#DejaVuSans-40"/>
     <use x="920.3125" xlink:href="#DejaVuSans-50"/>
     <use x="983.935547" xlink:href="#DejaVuSans-51"/>
     <use x="1047.558594" xlink:href="#DejaVuSans-104"/>
     <use x="1110.9375" xlink:href="#DejaVuSans-44"/>
     <use x="1142.724609" xlink:href="#DejaVuSans-32"/>
     <use x="1174.511719" xlink:href="#DejaVuSans-50"/>
     <use x="1238.134766" xlink:href="#DejaVuSans-48"/>
     <use x="1301.757812" xlink:href="#DejaVuSans-32"/>
     <use x="1333.544922" xlink:href="#DejaVuSans-116"/>
     <use x="1372.753906" xlink:href="#DejaVuSans-114"/>
     <use x="1413.867188" xlink:href="#DejaVuSans-105"/>
     <use x="1441.650391" xlink:href="#DejaVuSans-97"/>
     <use x="1502.929688" xlink:href="#DejaVuSans-108"/>
     <use x="1530.712891" xlink:href="#DejaVuSans-115"/>
     <use x="1582.8125" xlink:href="#DejaVuSans-47"/>
     <use x="1616.503906" xlink:href="#DejaVuSans-102"/>
     <use x="1651.708984" xlink:href="#DejaVuSans-117"/>
     <use x="1715.087891" xlink:href="#DejaVuSans-122"/>
     <use x="1767.578125" xlink:href="#DejaVuSans-122"/>
     <use x="1820.068359" xlink:href="#DejaVuSans-101"/>
     <use x="1881.591797" xlink:href="#DejaVuSans-114"/>
     <use x="1922.705078" xlink:href="#DejaVuSans-41"/>
    </g>
   </g>
   <g id="legend_1">
    <g id="line2d_25">
     <path d="M 771.568125 30.416563 
L 791.568125 30.416563 
" style="fill:none;stroke:#1f77b4;stroke-linecap:square;stroke-width:1.5;"/>
    </g>
    <g id="line2d_26">
     <defs>
      <path d="M 0 3 
C 0.795609 3 1.55874 2.683901 2.12132 2.12132 
C 2.683901 1.55874 3 0.795609 3 0 
C 3 -0.795609 2.683901 -1.55874 2.12132 -2.12132 
C 1.55874 -2.683901 0.795609 -3 0 -3 
C -0.795609 -3 -1.55874 -2.683901 -2.12132 -2.12132 
C -2.683901 -1.55874 -3 -0.795609 -3 0 
C -3 0.795609 -2.683901 1.55874 -2.12132 2.12132 
C -1.55874 2.683901 -0.795609 3 0 3 
z
" id="md0d3acc5b2" style="stroke:#1f77b4;"/>
     </defs>
     <g>
      <use style="fill:#1f77b4;stroke:#1f77b4;" x="781.568125" xlink:href="#md0d3acc5b2" y="30.416563"/>
     </g>
    </g>
    <g id="text_23">
     <!-- jigsaw_fixed -->
     <g transform="translate(799.568125 33.916563)scale(0.1 -0.1)">
      <defs>
       <path d="M 9.421875 54.6875 
L 18.40625 54.6875 
L 18.40625 -0.984375 
Q 18.40625 -11.421875 14.421875 -16.109375 
Q 10.453125 -20.796875 1.609375 -20.796875 
L -1.8125 -20.796875 
L -1.8125 -13.1875 
L 0.59375 -13.1875 
Q 5.71875 -13.1875 7.5625 -10.8125 
Q 9.421875 -8.453125 9.421875 -0.984375 
z
M 9.421875 75.984375 
L 18.40625 75.984375 
L 18.40625 64.59375 
L 9.421875 64.59375 
z
" id="DejaVuSans-106"/>
       <path d="M 4.203125 54.6875 
L 13.1875 54.6875 
L 24.421875 12.015625 
L 35.59375 54.6875 
L 46.1875 54.6875 
L 57.421875 12.015625 
L 68.609375 54.6875 
L 77.59375 54.6875 
L 63.28125 0 
L 52.6875 0 
L 40.921875 44.828125 
L 29.109375 0 
L 18.5 0 
z
" id="DejaVuSans-119"/>
       <path d="M 50.984375 -16.609375 
L 50.984375 -23.578125 
L -0.984375 -23.578125 
L -0.984375 -16.609375 
z
" id="DejaVuSans-95"/>
       <path d="M 54.890625 54.6875 
L 35.109375 28.078125 
L 55.90625 0 
L 45.3125 0 
L 29.390625 21.484375 
L 13.484375 0 
L 2.875 0 
L 24.125 28.609375 
L 4.6875 54.6875 
L 15.28125 54.6875 
L 29.78125 35.203125 
L 44.28125 54.6875 
z
" id="DejaVuSans-120"/>
      </defs>
      <use xlink:href="#DejaVuSans-106"/>
      <use x="27.783203" xlink:href="#DejaVuSans-105"/>
      <use x="55.566406" xlink:href="#DejaVuSans-103"/>
      <use x="119.042969" xlink:href="#DejaVuSans-115"/>
      <use x="171.142578" xlink:href="#DejaVuSans-97"/>
      <use x="232.421875" xlink:href="#DejaVuSans-119"/>
      <use x="314.208984" xlink:href="#DejaVuSans-95"/>
      <use x="364.208984" xlink:href="#DejaVuSans-102"/>
      <use x="399.414062" xlink:href="#DejaVuSans-105"/>
      <use x="427.197266" xlink:href="#DejaVuSans-120"/>
      <use x="483.251953" xlink:href="#DejaVuSans-101"/>
      <use x="544.775391" xlink:href="#DejaVuSans-100"/>
     </g>
    </g>
    <g id="line2d_27">
     <path d="M 771.568125 45.372813 
L 791.568125 45.372813 
" style="fill:none;stroke:#98df8a;stroke-linecap:square;stroke-width:1.5;"/>
    </g>
    <g id="line2d_28">
     <defs>
      <path d="M -0 3 
L 3 -3 
L -3 -3 
z
" id="mbd775059ba" style="stroke:#98df8a;stroke-linejoin:miter;"/>
     </defs>
     <g>
      <use style="fill:#98df8a;stroke:#98df8a;stroke-linejoin:miter;" x="781.568125" xlink:href="#mbd775059ba" y="45.372813"/>
     </g>
    </g>
    <g id="text_24">
     <!-- z3_fixed -->
     <g transform="translate(799.568125 48.872813)scale(0.1 -0.1)">
      <use xlink:href="#DejaVuSans-122"/>
      <use x="52.490234" xlink:href="#DejaVuSans-51"/>
      <use x="116.113281" xlink:href="#DejaVuSans-95"/>
      <use x="166.113281" xlink:href="#DejaVuSans-102"/>
      <use x="201.318359" xlink:href="#DejaVuSans-105"/>
      <use x="229.101562" xlink:href="#DejaVuSans-120"/>
      <use x="285.15625" xlink:href="#DejaVuSans-101"/>
      <use x="346.679688" xlink:href="#DejaVuSans-100"/>
     </g>
    </g>
   </g>
  </g>
 </g>
 <defs>
  <clipPath id="pa05c9e1390">
   <rect height="266.112" width="714.24" x="53.328125" y="22.318125"/>
  </clipPath>
 </defs>
</svg>
