<?xml version="1.0" encoding="utf-8" standalone="no"?>
<!DOCTYPE svg PUBLIC "-//W3C//DTD SVG 1.1//EN"
  "http://www.w3.org/Graphics/SVG/1.1/DTD/svg11.dtd">
<!-- Created with matplotlib (https://matplotlib.org/) -->
<svg height="325.986375pt" version="1.1" viewBox="0 0 871.594687 325.986375" width="871.594687pt" xmlns="http://www.w3.org/2000/svg" xmlns:xlink="http://www.w3.org/1999/xlink">
 <metadata>
  <rdf:RDF xmlns:cc="http://creativecommons.org/ns#" xmlns:dc="http://purl.org/dc/elements/1.1/" xmlns:rdf="http://www.w3.org/1999/02/22-rdf-syntax-ns#">
   <cc:Work>
    <dc:type rdf:resource="http://purl.org/dc/dcmitype/StillImage"/>
    <dc:date>2021-07-13T20:58:07.002811</dc:date>
    <dc:format>image/svg+xml</dc:format>
    <dc:creator>
     <cc:Agent>
      <dc:title>Matplotlib v3.3.3, https://matplotlib.org/</dc:title>
     </cc:Agent>
    </dc:creator>
   </cc:Work>
  </rdf:RDF>
 </metadata>
 <defs>
  <style type="text/css">*{stroke-linecap:butt;stroke-linejoin:round;}</style>
 </defs>
 <g id="figure_1">
  <g id="patch_1">
   <path d="M 0 325.986375 
L 871.594688 325.986375 
L 871.594688 0 
L 0 0 
z
" style="fill:#ffffff;"/>
  </g>
  <g id="axes_1">
   <g id="patch_2">
    <path d="M 53.328125 288.430125 
L 767.568125 288.430125 
L 767.568125 22.318125 
L 53.328125 22.318125 
z
" style="fill:#ffffff;"/>
   </g>
   <g id="PolyCollection_1">
    <defs>
     <path d="M 85.79358 -94.989306 
L 85.79358 -74.798714 
L 187.645356 -97.742569 
L 247.224826 -136.104693 
L 289.497132 -148.948663 
L 322.286081 -153.174921 
L 349.076602 -159.232098 
L 371.727665 -178.321385 
L 391.348909 -194.657409 
L 408.656072 -196.107461 
L 424.137857 -202.366544 
L 438.142835 -206.037561 
L 450.928379 -207.505968 
L 462.689938 -211.544086 
L 473.579442 -212.46184 
L 483.717327 -217.234162 
L 493.200685 -217.601264 
L 502.108931 -217.601264 
L 510.507849 -217.601264 
L 518.452543 -220.354526 
L 525.989634 -225.861051 
L 533.158912 -226.030836 
L 539.994612 -226.590666 
L 546.526401 -239.076711 
L 552.780155 -237.966229 
L 558.778582 -239.810915 
L 564.541715 -239.994465 
L 570.087318 -250.089761 
L 575.431218 -250.089761 
L 580.587574 -250.089761 
L 585.569103 -254.678532 
L 590.387275 -254.678532 
L 595.052462 -254.678532 
L 599.574082 -254.678532 
L 603.960707 -253.026575 
L 608.220167 -254.862083 
L 612.359625 -254.862083 
L 616.385659 -254.862083 
L 620.304319 -257.771364 
L 624.121185 -259.221415 
L 627.84141 -260.185057 
L 631.469769 -260.185057 
L 635.010688 -261.102811 
L 638.468284 -261.098223 
L 641.846388 -264.773828 
L 645.148573 -266.425786 
L 648.378177 -266.609336 
L 651.538321 -266.609336 
L 654.631932 -266.609336 
L 657.661751 -266.792887 
L 660.630358 -266.792887 
L 663.540177 -266.792887 
L 666.393491 -267.159989 
L 669.192453 -265.875133 
L 671.939095 -265.875133 
L 674.635337 -265.875133 
L 677.282995 -265.875133 
L 679.883789 -265.875133 
L 682.43935 -265.875133 
L 684.951224 -265.875133 
L 687.42088 -267.710642 
L 689.849713 -267.710642 
L 692.239051 -267.710642 
L 694.590158 -267.710642 
L 696.904238 -267.710642 
L 699.18244 -267.710642 
L 701.425858 -267.710642 
L 703.63554 -267.710642 
L 705.812484 -268.444845 
L 707.957647 -268.444845 
L 710.071943 -271.014557 
L 712.156248 -272.482963 
L 714.211401 -275.052675 
L 716.238207 -275.052675 
L 718.237436 -275.052675 
L 720.209828 -275.052675 
L 722.156096 -275.052675 
L 724.076921 -275.052675 
L 725.972961 -275.052675 
L 727.844847 -275.052675 
L 729.693186 -275.052675 
L 731.518565 -275.052675 
L 733.321545 -275.052675 
L 735.10267 -275.052675 
L 735.10267 -291.57225 
L 735.10267 -291.57225 
L 733.321545 -287.901233 
L 731.518565 -287.901233 
L 729.693186 -287.901233 
L 727.844847 -287.901233 
L 725.972961 -287.901233 
L 724.076921 -287.901233 
L 722.156096 -287.901233 
L 720.209828 -287.901233 
L 718.237436 -287.901233 
L 716.238207 -287.534132 
L 714.211401 -287.534132 
L 712.156248 -287.534132 
L 710.071943 -287.534132 
L 707.957647 -287.534132 
L 705.812484 -287.534132 
L 703.63554 -287.534132 
L 701.425858 -287.534132 
L 699.18244 -287.534132 
L 696.904238 -287.534132 
L 694.590158 -287.534132 
L 692.239051 -287.534132 
L 689.849713 -287.534132 
L 687.42088 -287.534132 
L 684.951224 -287.534132 
L 682.43935 -284.96442 
L 679.883789 -284.96442 
L 677.282995 -284.96442 
L 674.635337 -284.96442 
L 671.939095 -284.96442 
L 669.192453 -284.96442 
L 666.393491 -284.230217 
L 663.540177 -284.230217 
L 660.630358 -284.046666 
L 657.661751 -284.046666 
L 654.631932 -283.496013 
L 651.538321 -283.128912 
L 648.378177 -282.578259 
L 645.148573 -282.76181 
L 641.846388 -282.76181 
L 638.468284 -282.578259 
L 635.010688 -282.578259 
L 631.469769 -282.578259 
L 627.84141 -282.027607 
L 624.121185 -280.5592 
L 620.304319 -279.090793 
L 616.385659 -278.723692 
L 612.359625 -275.419777 
L 608.220167 -276.15398 
L 603.960707 -276.15398 
L 599.574082 -274.318472 
L 595.052462 -273.217167 
L 590.387275 -273.217167 
L 585.569103 -272.850065 
L 580.587574 -270.096802 
L 575.431218 -270.096802 
L 570.087318 -270.096802 
L 564.541715 -267.173755 
L 558.778582 -267.159989 
L 552.780155 -266.058684 
L 546.526401 -266.058684 
L 539.994612 -267.710642 
L 533.158912 -265.691582 
L 525.989634 -265.324481 
L 518.452543 -265.324481 
L 510.507849 -265.691582 
L 502.108931 -264.223176 
L 493.200685 -262.020566 
L 483.717327 -260.185057 
L 473.579442 -259.083752 
L 462.689938 -257.982447 
L 450.928379 -250.28249 
L 438.142835 -248.988456 
L 424.137857 -241.279321 
L 408.656072 -238.158957 
L 391.348909 -227.329458 
L 371.727665 -215.215103 
L 349.076602 -201.265239 
L 322.286081 -192.63835 
L 289.497132 -181.441749 
L 247.224826 -147.668396 
L 187.645356 -121.420626 
L 85.79358 -94.989306 
z
" id="mb328662ced" style="stroke:#1f77b4;stroke-opacity:0.2;"/>
    </defs>
    <g clip-path="url(#p693aa44674)">
     <use style="fill:#1f77b4;fill-opacity:0.2;stroke:#1f77b4;stroke-opacity:0.2;" x="0" xlink:href="#mb328662ced" y="325.986375"/>
    </g>
   </g>
   <g id="PolyCollection_2">
    <defs>
     <path d="M 85.79358 -65.07052 
L 85.79358 -49.65225 
L 187.645356 -72.412553 
L 247.224826 -103.249094 
L 289.497132 -125.642296 
L 322.286081 -137.756651 
L 349.076602 -143.079625 
L 371.727665 -156.478836 
L 391.348909 -177.954283 
L 408.656072 -179.606241 
L 424.137857 -183.460808 
L 438.142835 -201.44879 
L 450.928379 -193.923206 
L 462.689938 -212.645391 
L 473.579442 -218.519018 
L 483.717327 -237.608305 
L 493.200685 -240.178016 
L 502.108931 -240.178016 
L 510.507849 -240.178016 
L 510.507849 -240.545118 
L 510.507849 -240.545118 
L 502.108931 -240.545118 
L 493.200685 -240.545118 
L 483.717327 -240.178016 
L 473.579442 -234.671491 
L 462.689938 -257.064693 
L 450.928379 -280.5592 
L 438.142835 -223.658441 
L 424.137857 -210.809883 
L 408.656072 -202.550095 
L 391.348909 -202.182994 
L 371.727665 -186.948274 
L 349.076602 -187.315376 
L 322.286081 -184.011461 
L 289.497132 -184.011461 
L 247.224826 -123.072584 
L 187.645356 -91.134739 
L 85.79358 -65.07052 
z
" id="m97262fc64a" style="stroke:#98df8a;stroke-opacity:0.2;"/>
    </defs>
    <g clip-path="url(#p693aa44674)">
     <use style="fill:#98df8a;fill-opacity:0.2;stroke:#98df8a;stroke-opacity:0.2;" x="0" xlink:href="#m97262fc64a" y="325.986375"/>
    </g>
   </g>
   <g id="matplotlib.axis_1">
    <g id="xtick_1">
     <g id="line2d_1">
      <defs>
       <path d="M 0 0 
L 0 3.5 
" id="m9bce217e02" style="stroke:#000000;stroke-width:0.8;"/>
      </defs>
      <g>
       <use style="stroke:#000000;stroke-width:0.8;" x="85.79358" xlink:href="#m9bce217e02" y="288.430125"/>
      </g>
     </g>
     <g id="text_1">
      <!-- 14m -->
      <g transform="translate(74.560767 303.028562)scale(0.1 -0.1)">
       <defs>
        <path d="M 12.40625 8.296875 
L 28.515625 8.296875 
L 28.515625 63.921875 
L 10.984375 60.40625 
L 10.984375 69.390625 
L 28.421875 72.90625 
L 38.28125 72.90625 
L 38.28125 8.296875 
L 54.390625 8.296875 
L 54.390625 0 
L 12.40625 0 
z
" id="DejaVuSans-49"/>
        <path d="M 37.796875 64.3125 
L 12.890625 25.390625 
L 37.796875 25.390625 
z
M 35.203125 72.90625 
L 47.609375 72.90625 
L 47.609375 25.390625 
L 58.015625 25.390625 
L 58.015625 17.1875 
L 47.609375 17.1875 
L 47.609375 0 
L 37.796875 0 
L 37.796875 17.1875 
L 4.890625 17.1875 
L 4.890625 26.703125 
z
" id="DejaVuSans-52"/>
        <path d="M 52 44.1875 
Q 55.375 50.25 60.0625 53.125 
Q 64.75 56 71.09375 56 
Q 79.640625 56 84.28125 50.015625 
Q 88.921875 44.046875 88.921875 33.015625 
L 88.921875 0 
L 79.890625 0 
L 79.890625 32.71875 
Q 79.890625 40.578125 77.09375 44.375 
Q 74.3125 48.1875 68.609375 48.1875 
Q 61.625 48.1875 57.5625 43.546875 
Q 53.515625 38.921875 53.515625 30.90625 
L 53.515625 0 
L 44.484375 0 
L 44.484375 32.71875 
Q 44.484375 40.625 41.703125 44.40625 
Q 38.921875 48.1875 33.109375 48.1875 
Q 26.21875 48.1875 22.15625 43.53125 
Q 18.109375 38.875 18.109375 30.90625 
L 18.109375 0 
L 9.078125 0 
L 9.078125 54.6875 
L 18.109375 54.6875 
L 18.109375 46.1875 
Q 21.1875 51.21875 25.484375 53.609375 
Q 29.78125 56 35.6875 56 
Q 41.65625 56 45.828125 52.96875 
Q 50 49.953125 52 44.1875 
z
" id="DejaVuSans-109"/>
       </defs>
       <use xlink:href="#DejaVuSans-49"/>
       <use x="63.623047" xlink:href="#DejaVuSans-52"/>
       <use x="127.246094" xlink:href="#DejaVuSans-109"/>
      </g>
     </g>
    </g>
    <g id="xtick_2">
     <g id="line2d_2">
      <g>
       <use style="stroke:#000000;stroke-width:0.8;" x="144.821858" xlink:href="#m9bce217e02" y="288.430125"/>
      </g>
     </g>
     <g id="text_2">
      <!-- 22m -->
      <g transform="translate(133.589045 303.028562)scale(0.1 -0.1)">
       <defs>
        <path d="M 19.1875 8.296875 
L 53.609375 8.296875 
L 53.609375 0 
L 7.328125 0 
L 7.328125 8.296875 
Q 12.9375 14.109375 22.625 23.890625 
Q 32.328125 33.6875 34.8125 36.53125 
Q 39.546875 41.84375 41.421875 45.53125 
Q 43.3125 49.21875 43.3125 52.78125 
Q 43.3125 58.59375 39.234375 62.25 
Q 35.15625 65.921875 28.609375 65.921875 
Q 23.96875 65.921875 18.8125 64.3125 
Q 13.671875 62.703125 7.8125 59.421875 
L 7.8125 69.390625 
Q 13.765625 71.78125 18.9375 73 
Q 24.125 74.21875 28.421875 74.21875 
Q 39.75 74.21875 46.484375 68.546875 
Q 53.21875 62.890625 53.21875 53.421875 
Q 53.21875 48.921875 51.53125 44.890625 
Q 49.859375 40.875 45.40625 35.40625 
Q 44.1875 33.984375 37.640625 27.21875 
Q 31.109375 20.453125 19.1875 8.296875 
z
" id="DejaVuSans-50"/>
       </defs>
       <use xlink:href="#DejaVuSans-50"/>
       <use x="63.623047" xlink:href="#DejaVuSans-50"/>
       <use x="127.246094" xlink:href="#DejaVuSans-109"/>
      </g>
     </g>
    </g>
    <g id="xtick_3">
     <g id="line2d_3">
      <g>
       <use style="stroke:#000000;stroke-width:0.8;" x="203.850136" xlink:href="#m9bce217e02" y="288.430125"/>
      </g>
     </g>
     <g id="text_3">
      <!-- 33m -->
      <g transform="translate(192.617323 303.028562)scale(0.1 -0.1)">
       <defs>
        <path d="M 40.578125 39.3125 
Q 47.65625 37.796875 51.625 33 
Q 55.609375 28.21875 55.609375 21.1875 
Q 55.609375 10.40625 48.1875 4.484375 
Q 40.765625 -1.421875 27.09375 -1.421875 
Q 22.515625 -1.421875 17.65625 -0.515625 
Q 12.796875 0.390625 7.625 2.203125 
L 7.625 11.71875 
Q 11.71875 9.328125 16.59375 8.109375 
Q 21.484375 6.890625 26.8125 6.890625 
Q 36.078125 6.890625 40.9375 10.546875 
Q 45.796875 14.203125 45.796875 21.1875 
Q 45.796875 27.640625 41.28125 31.265625 
Q 36.765625 34.90625 28.71875 34.90625 
L 20.21875 34.90625 
L 20.21875 43.015625 
L 29.109375 43.015625 
Q 36.375 43.015625 40.234375 45.921875 
Q 44.09375 48.828125 44.09375 54.296875 
Q 44.09375 59.90625 40.109375 62.90625 
Q 36.140625 65.921875 28.71875 65.921875 
Q 24.65625 65.921875 20.015625 65.03125 
Q 15.375 64.15625 9.8125 62.3125 
L 9.8125 71.09375 
Q 15.4375 72.65625 20.34375 73.4375 
Q 25.25 74.21875 29.59375 74.21875 
Q 40.828125 74.21875 47.359375 69.109375 
Q 53.90625 64.015625 53.90625 55.328125 
Q 53.90625 49.265625 50.4375 45.09375 
Q 46.96875 40.921875 40.578125 39.3125 
z
" id="DejaVuSans-51"/>
       </defs>
       <use xlink:href="#DejaVuSans-51"/>
       <use x="63.623047" xlink:href="#DejaVuSans-51"/>
       <use x="127.246094" xlink:href="#DejaVuSans-109"/>
      </g>
     </g>
    </g>
    <g id="xtick_4">
     <g id="line2d_4">
      <g>
       <use style="stroke:#000000;stroke-width:0.8;" x="262.878414" xlink:href="#m9bce217e02" y="288.430125"/>
      </g>
     </g>
     <g id="text_4">
      <!-- 50m -->
      <g transform="translate(251.645601 303.028562)scale(0.1 -0.1)">
       <defs>
        <path d="M 10.796875 72.90625 
L 49.515625 72.90625 
L 49.515625 64.59375 
L 19.828125 64.59375 
L 19.828125 46.734375 
Q 21.96875 47.46875 24.109375 47.828125 
Q 26.265625 48.1875 28.421875 48.1875 
Q 40.625 48.1875 47.75 41.5 
Q 54.890625 34.8125 54.890625 23.390625 
Q 54.890625 11.625 47.5625 5.09375 
Q 40.234375 -1.421875 26.90625 -1.421875 
Q 22.3125 -1.421875 17.546875 -0.640625 
Q 12.796875 0.140625 7.71875 1.703125 
L 7.71875 11.625 
Q 12.109375 9.234375 16.796875 8.0625 
Q 21.484375 6.890625 26.703125 6.890625 
Q 35.15625 6.890625 40.078125 11.328125 
Q 45.015625 15.765625 45.015625 23.390625 
Q 45.015625 31 40.078125 35.4375 
Q 35.15625 39.890625 26.703125 39.890625 
Q 22.75 39.890625 18.8125 39.015625 
Q 14.890625 38.140625 10.796875 36.28125 
z
" id="DejaVuSans-53"/>
        <path d="M 31.78125 66.40625 
Q 24.171875 66.40625 20.328125 58.90625 
Q 16.5 51.421875 16.5 36.375 
Q 16.5 21.390625 20.328125 13.890625 
Q 24.171875 6.390625 31.78125 6.390625 
Q 39.453125 6.390625 43.28125 13.890625 
Q 47.125 21.390625 47.125 36.375 
Q 47.125 51.421875 43.28125 58.90625 
Q 39.453125 66.40625 31.78125 66.40625 
z
M 31.78125 74.21875 
Q 44.046875 74.21875 50.515625 64.515625 
Q 56.984375 54.828125 56.984375 36.375 
Q 56.984375 17.96875 50.515625 8.265625 
Q 44.046875 -1.421875 31.78125 -1.421875 
Q 19.53125 -1.421875 13.0625 8.265625 
Q 6.59375 17.96875 6.59375 36.375 
Q 6.59375 54.828125 13.0625 64.515625 
Q 19.53125 74.21875 31.78125 74.21875 
z
" id="DejaVuSans-48"/>
       </defs>
       <use xlink:href="#DejaVuSans-53"/>
       <use x="63.623047" xlink:href="#DejaVuSans-48"/>
       <use x="127.246094" xlink:href="#DejaVuSans-109"/>
      </g>
     </g>
    </g>
    <g id="xtick_5">
     <g id="line2d_5">
      <g>
       <use style="stroke:#000000;stroke-width:0.8;" x="321.906692" xlink:href="#m9bce217e02" y="288.430125"/>
      </g>
     </g>
     <g id="text_5">
      <!-- 1h:14m -->
      <g transform="translate(302.639504 303.028562)scale(0.1 -0.1)">
       <defs>
        <path d="M 54.890625 33.015625 
L 54.890625 0 
L 45.90625 0 
L 45.90625 32.71875 
Q 45.90625 40.484375 42.875 44.328125 
Q 39.84375 48.1875 33.796875 48.1875 
Q 26.515625 48.1875 22.3125 43.546875 
Q 18.109375 38.921875 18.109375 30.90625 
L 18.109375 0 
L 9.078125 0 
L 9.078125 75.984375 
L 18.109375 75.984375 
L 18.109375 46.1875 
Q 21.34375 51.125 25.703125 53.5625 
Q 30.078125 56 35.796875 56 
Q 45.21875 56 50.046875 50.171875 
Q 54.890625 44.34375 54.890625 33.015625 
z
" id="DejaVuSans-104"/>
        <path d="M 11.71875 12.40625 
L 22.015625 12.40625 
L 22.015625 0 
L 11.71875 0 
z
M 11.71875 51.703125 
L 22.015625 51.703125 
L 22.015625 39.3125 
L 11.71875 39.3125 
z
" id="DejaVuSans-58"/>
       </defs>
       <use xlink:href="#DejaVuSans-49"/>
       <use x="63.623047" xlink:href="#DejaVuSans-104"/>
       <use x="127.001953" xlink:href="#DejaVuSans-58"/>
       <use x="160.693359" xlink:href="#DejaVuSans-49"/>
       <use x="224.316406" xlink:href="#DejaVuSans-52"/>
       <use x="287.939453" xlink:href="#DejaVuSans-109"/>
      </g>
     </g>
    </g>
    <g id="xtick_6">
     <g id="line2d_6">
      <g>
       <use style="stroke:#000000;stroke-width:0.8;" x="380.93497" xlink:href="#m9bce217e02" y="288.430125"/>
      </g>
     </g>
     <g id="text_6">
      <!-- 1h:51m -->
      <g transform="translate(361.667782 303.028562)scale(0.1 -0.1)">
       <use xlink:href="#DejaVuSans-49"/>
       <use x="63.623047" xlink:href="#DejaVuSans-104"/>
       <use x="127.001953" xlink:href="#DejaVuSans-58"/>
       <use x="160.693359" xlink:href="#DejaVuSans-53"/>
       <use x="224.316406" xlink:href="#DejaVuSans-49"/>
       <use x="287.939453" xlink:href="#DejaVuSans-109"/>
      </g>
     </g>
    </g>
    <g id="xtick_7">
     <g id="line2d_7">
      <g>
       <use style="stroke:#000000;stroke-width:0.8;" x="439.963248" xlink:href="#m9bce217e02" y="288.430125"/>
      </g>
     </g>
     <g id="text_7">
      <!-- 2h:47m -->
      <g transform="translate(420.69606 303.028562)scale(0.1 -0.1)">
       <defs>
        <path d="M 8.203125 72.90625 
L 55.078125 72.90625 
L 55.078125 68.703125 
L 28.609375 0 
L 18.3125 0 
L 43.21875 64.59375 
L 8.203125 64.59375 
z
" id="DejaVuSans-55"/>
       </defs>
       <use xlink:href="#DejaVuSans-50"/>
       <use x="63.623047" xlink:href="#DejaVuSans-104"/>
       <use x="127.001953" xlink:href="#DejaVuSans-58"/>
       <use x="160.693359" xlink:href="#DejaVuSans-52"/>
       <use x="224.316406" xlink:href="#DejaVuSans-55"/>
       <use x="287.939453" xlink:href="#DejaVuSans-109"/>
      </g>
     </g>
    </g>
    <g id="xtick_8">
     <g id="line2d_8">
      <g>
       <use style="stroke:#000000;stroke-width:0.8;" x="498.991526" xlink:href="#m9bce217e02" y="288.430125"/>
      </g>
     </g>
     <g id="text_8">
      <!-- 4h:9m -->
      <g transform="translate(482.905588 303.028562)scale(0.1 -0.1)">
       <defs>
        <path d="M 10.984375 1.515625 
L 10.984375 10.5 
Q 14.703125 8.734375 18.5 7.8125 
Q 22.3125 6.890625 25.984375 6.890625 
Q 35.75 6.890625 40.890625 13.453125 
Q 46.046875 20.015625 46.78125 33.40625 
Q 43.953125 29.203125 39.59375 26.953125 
Q 35.25 24.703125 29.984375 24.703125 
Q 19.046875 24.703125 12.671875 31.3125 
Q 6.296875 37.9375 6.296875 49.421875 
Q 6.296875 60.640625 12.9375 67.421875 
Q 19.578125 74.21875 30.609375 74.21875 
Q 43.265625 74.21875 49.921875 64.515625 
Q 56.59375 54.828125 56.59375 36.375 
Q 56.59375 19.140625 48.40625 8.859375 
Q 40.234375 -1.421875 26.421875 -1.421875 
Q 22.703125 -1.421875 18.890625 -0.6875 
Q 15.09375 0.046875 10.984375 1.515625 
z
M 30.609375 32.421875 
Q 37.25 32.421875 41.125 36.953125 
Q 45.015625 41.5 45.015625 49.421875 
Q 45.015625 57.28125 41.125 61.84375 
Q 37.25 66.40625 30.609375 66.40625 
Q 23.96875 66.40625 20.09375 61.84375 
Q 16.21875 57.28125 16.21875 49.421875 
Q 16.21875 41.5 20.09375 36.953125 
Q 23.96875 32.421875 30.609375 32.421875 
z
" id="DejaVuSans-57"/>
       </defs>
       <use xlink:href="#DejaVuSans-52"/>
       <use x="63.623047" xlink:href="#DejaVuSans-104"/>
       <use x="127.001953" xlink:href="#DejaVuSans-58"/>
       <use x="160.693359" xlink:href="#DejaVuSans-57"/>
       <use x="224.316406" xlink:href="#DejaVuSans-109"/>
      </g>
     </g>
    </g>
    <g id="xtick_9">
     <g id="line2d_9">
      <g>
       <use style="stroke:#000000;stroke-width:0.8;" x="558.019804" xlink:href="#m9bce217e02" y="288.430125"/>
      </g>
     </g>
     <g id="text_9">
      <!-- 6h:13m -->
      <g transform="translate(538.752616 303.028562)scale(0.1 -0.1)">
       <defs>
        <path d="M 33.015625 40.375 
Q 26.375 40.375 22.484375 35.828125 
Q 18.609375 31.296875 18.609375 23.390625 
Q 18.609375 15.53125 22.484375 10.953125 
Q 26.375 6.390625 33.015625 6.390625 
Q 39.65625 6.390625 43.53125 10.953125 
Q 47.40625 15.53125 47.40625 23.390625 
Q 47.40625 31.296875 43.53125 35.828125 
Q 39.65625 40.375 33.015625 40.375 
z
M 52.59375 71.296875 
L 52.59375 62.3125 
Q 48.875 64.0625 45.09375 64.984375 
Q 41.3125 65.921875 37.59375 65.921875 
Q 27.828125 65.921875 22.671875 59.328125 
Q 17.53125 52.734375 16.796875 39.40625 
Q 19.671875 43.65625 24.015625 45.921875 
Q 28.375 48.1875 33.59375 48.1875 
Q 44.578125 48.1875 50.953125 41.515625 
Q 57.328125 34.859375 57.328125 23.390625 
Q 57.328125 12.15625 50.6875 5.359375 
Q 44.046875 -1.421875 33.015625 -1.421875 
Q 20.359375 -1.421875 13.671875 8.265625 
Q 6.984375 17.96875 6.984375 36.375 
Q 6.984375 53.65625 15.1875 63.9375 
Q 23.390625 74.21875 37.203125 74.21875 
Q 40.921875 74.21875 44.703125 73.484375 
Q 48.484375 72.75 52.59375 71.296875 
z
" id="DejaVuSans-54"/>
       </defs>
       <use xlink:href="#DejaVuSans-54"/>
       <use x="63.623047" xlink:href="#DejaVuSans-104"/>
       <use x="127.001953" xlink:href="#DejaVuSans-58"/>
       <use x="160.693359" xlink:href="#DejaVuSans-49"/>
       <use x="224.316406" xlink:href="#DejaVuSans-51"/>
       <use x="287.939453" xlink:href="#DejaVuSans-109"/>
      </g>
     </g>
    </g>
    <g id="xtick_10">
     <g id="line2d_10">
      <g>
       <use style="stroke:#000000;stroke-width:0.8;" x="617.048082" xlink:href="#m9bce217e02" y="288.430125"/>
      </g>
     </g>
     <g id="text_10">
      <!-- 9h:17m -->
      <g transform="translate(597.780894 303.028562)scale(0.1 -0.1)">
       <use xlink:href="#DejaVuSans-57"/>
       <use x="63.623047" xlink:href="#DejaVuSans-104"/>
       <use x="127.001953" xlink:href="#DejaVuSans-58"/>
       <use x="160.693359" xlink:href="#DejaVuSans-49"/>
       <use x="224.316406" xlink:href="#DejaVuSans-55"/>
       <use x="287.939453" xlink:href="#DejaVuSans-109"/>
      </g>
     </g>
    </g>
    <g id="xtick_11">
     <g id="line2d_11">
      <g>
       <use style="stroke:#000000;stroke-width:0.8;" x="676.07636" xlink:href="#m9bce217e02" y="288.430125"/>
      </g>
     </g>
     <g id="text_11">
      <!-- 13h:53m -->
      <g transform="translate(653.627922 303.028562)scale(0.1 -0.1)">
       <use xlink:href="#DejaVuSans-49"/>
       <use x="63.623047" xlink:href="#DejaVuSans-51"/>
       <use x="127.246094" xlink:href="#DejaVuSans-104"/>
       <use x="190.625" xlink:href="#DejaVuSans-58"/>
       <use x="224.316406" xlink:href="#DejaVuSans-53"/>
       <use x="287.939453" xlink:href="#DejaVuSans-51"/>
       <use x="351.5625" xlink:href="#DejaVuSans-109"/>
      </g>
     </g>
    </g>
    <g id="xtick_12">
     <g id="line2d_12">
      <g>
       <use style="stroke:#000000;stroke-width:0.8;" x="735.104638" xlink:href="#m9bce217e02" y="288.430125"/>
      </g>
     </g>
     <g id="text_12">
      <!-- 20h:45m -->
      <g transform="translate(712.6562 303.028562)scale(0.1 -0.1)">
       <use xlink:href="#DejaVuSans-50"/>
       <use x="63.623047" xlink:href="#DejaVuSans-48"/>
       <use x="127.246094" xlink:href="#DejaVuSans-104"/>
       <use x="190.625" xlink:href="#DejaVuSans-58"/>
       <use x="224.316406" xlink:href="#DejaVuSans-52"/>
       <use x="287.939453" xlink:href="#DejaVuSans-53"/>
       <use x="351.5625" xlink:href="#DejaVuSans-109"/>
      </g>
     </g>
    </g>
    <g id="xtick_13">
     <g id="line2d_13">
      <defs>
       <path d="M 0 0 
L 0 2 
" id="m0ab1e5efad" style="stroke:#000000;stroke-width:0.6;"/>
      </defs>
      <g>
       <use style="stroke:#000000;stroke-width:0.6;" x="68.486416" xlink:href="#m0ab1e5efad" y="288.430125"/>
      </g>
     </g>
    </g>
    <g id="xtick_14">
     <g id="line2d_14">
      <g>
       <use style="stroke:#000000;stroke-width:0.6;" x="203.127141" xlink:href="#m0ab1e5efad" y="288.430125"/>
      </g>
     </g>
    </g>
    <g id="xtick_15">
     <g id="line2d_15">
      <g>
       <use style="stroke:#000000;stroke-width:0.6;" x="262.706611" xlink:href="#m0ab1e5efad" y="288.430125"/>
      </g>
     </g>
    </g>
    <g id="xtick_16">
     <g id="line2d_16">
      <g>
       <use style="stroke:#000000;stroke-width:0.6;" x="304.978918" xlink:href="#m0ab1e5efad" y="288.430125"/>
      </g>
     </g>
    </g>
    <g id="xtick_17">
     <g id="line2d_17">
      <g>
       <use style="stroke:#000000;stroke-width:0.6;" x="337.767866" xlink:href="#m0ab1e5efad" y="288.430125"/>
      </g>
     </g>
    </g>
    <g id="xtick_18">
     <g id="line2d_18">
      <g>
       <use style="stroke:#000000;stroke-width:0.6;" x="364.558387" xlink:href="#m0ab1e5efad" y="288.430125"/>
      </g>
     </g>
    </g>
    <g id="xtick_19">
     <g id="line2d_19">
      <g>
       <use style="stroke:#000000;stroke-width:0.6;" x="387.209451" xlink:href="#m0ab1e5efad" y="288.430125"/>
      </g>
     </g>
    </g>
    <g id="xtick_20">
     <g id="line2d_20">
      <g>
       <use style="stroke:#000000;stroke-width:0.6;" x="406.830694" xlink:href="#m0ab1e5efad" y="288.430125"/>
      </g>
     </g>
    </g>
    <g id="xtick_21">
     <g id="line2d_21">
      <g>
       <use style="stroke:#000000;stroke-width:0.6;" x="424.137857" xlink:href="#m0ab1e5efad" y="288.430125"/>
      </g>
     </g>
    </g>
    <g id="xtick_22">
     <g id="line2d_22">
      <g>
       <use style="stroke:#000000;stroke-width:0.6;" x="541.471419" xlink:href="#m0ab1e5efad" y="288.430125"/>
      </g>
     </g>
    </g>
    <g id="xtick_23">
     <g id="line2d_23">
      <g>
       <use style="stroke:#000000;stroke-width:0.6;" x="601.050889" xlink:href="#m0ab1e5efad" y="288.430125"/>
      </g>
     </g>
    </g>
    <g id="xtick_24">
     <g id="line2d_24">
      <g>
       <use style="stroke:#000000;stroke-width:0.6;" x="643.323195" xlink:href="#m0ab1e5efad" y="288.430125"/>
      </g>
     </g>
    </g>
    <g id="xtick_25">
     <g id="line2d_25">
      <g>
       <use style="stroke:#000000;stroke-width:0.6;" x="676.112143" xlink:href="#m0ab1e5efad" y="288.430125"/>
      </g>
     </g>
    </g>
    <g id="xtick_26">
     <g id="line2d_26">
      <g>
       <use style="stroke:#000000;stroke-width:0.6;" x="702.902665" xlink:href="#m0ab1e5efad" y="288.430125"/>
      </g>
     </g>
    </g>
    <g id="xtick_27">
     <g id="line2d_27">
      <g>
       <use style="stroke:#000000;stroke-width:0.6;" x="725.553728" xlink:href="#m0ab1e5efad" y="288.430125"/>
      </g>
     </g>
    </g>
    <g id="xtick_28">
     <g id="line2d_28">
      <g>
       <use style="stroke:#000000;stroke-width:0.6;" x="745.174972" xlink:href="#m0ab1e5efad" y="288.430125"/>
      </g>
     </g>
    </g>
    <g id="xtick_29">
     <g id="line2d_29">
      <g>
       <use style="stroke:#000000;stroke-width:0.6;" x="762.482135" xlink:href="#m0ab1e5efad" y="288.430125"/>
      </g>
     </g>
    </g>
    <g id="text_13">
     <!-- Time (hour:minute) -->
     <g transform="translate(362.041094 316.706687)scale(0.1 -0.1)">
      <defs>
       <path d="M -0.296875 72.90625 
L 61.375 72.90625 
L 61.375 64.59375 
L 35.5 64.59375 
L 35.5 0 
L 25.59375 0 
L 25.59375 64.59375 
L -0.296875 64.59375 
z
" id="DejaVuSans-84"/>
       <path d="M 9.421875 54.6875 
L 18.40625 54.6875 
L 18.40625 0 
L 9.421875 0 
z
M 9.421875 75.984375 
L 18.40625 75.984375 
L 18.40625 64.59375 
L 9.421875 64.59375 
z
" id="DejaVuSans-105"/>
       <path d="M 56.203125 29.59375 
L 56.203125 25.203125 
L 14.890625 25.203125 
Q 15.484375 15.921875 20.484375 11.0625 
Q 25.484375 6.203125 34.421875 6.203125 
Q 39.59375 6.203125 44.453125 7.46875 
Q 49.3125 8.734375 54.109375 11.28125 
L 54.109375 2.78125 
Q 49.265625 0.734375 44.1875 -0.34375 
Q 39.109375 -1.421875 33.890625 -1.421875 
Q 20.796875 -1.421875 13.15625 6.1875 
Q 5.515625 13.8125 5.515625 26.8125 
Q 5.515625 40.234375 12.765625 48.109375 
Q 20.015625 56 32.328125 56 
Q 43.359375 56 49.78125 48.890625 
Q 56.203125 41.796875 56.203125 29.59375 
z
M 47.21875 32.234375 
Q 47.125 39.59375 43.09375 43.984375 
Q 39.0625 48.390625 32.421875 48.390625 
Q 24.90625 48.390625 20.390625 44.140625 
Q 15.875 39.890625 15.1875 32.171875 
z
" id="DejaVuSans-101"/>
       <path id="DejaVuSans-32"/>
       <path d="M 31 75.875 
Q 24.46875 64.65625 21.28125 53.65625 
Q 18.109375 42.671875 18.109375 31.390625 
Q 18.109375 20.125 21.3125 9.0625 
Q 24.515625 -2 31 -13.1875 
L 23.1875 -13.1875 
Q 15.875 -1.703125 12.234375 9.375 
Q 8.59375 20.453125 8.59375 31.390625 
Q 8.59375 42.28125 12.203125 53.3125 
Q 15.828125 64.359375 23.1875 75.875 
z
" id="DejaVuSans-40"/>
       <path d="M 30.609375 48.390625 
Q 23.390625 48.390625 19.1875 42.75 
Q 14.984375 37.109375 14.984375 27.296875 
Q 14.984375 17.484375 19.15625 11.84375 
Q 23.34375 6.203125 30.609375 6.203125 
Q 37.796875 6.203125 41.984375 11.859375 
Q 46.1875 17.53125 46.1875 27.296875 
Q 46.1875 37.015625 41.984375 42.703125 
Q 37.796875 48.390625 30.609375 48.390625 
z
M 30.609375 56 
Q 42.328125 56 49.015625 48.375 
Q 55.71875 40.765625 55.71875 27.296875 
Q 55.71875 13.875 49.015625 6.21875 
Q 42.328125 -1.421875 30.609375 -1.421875 
Q 18.84375 -1.421875 12.171875 6.21875 
Q 5.515625 13.875 5.515625 27.296875 
Q 5.515625 40.765625 12.171875 48.375 
Q 18.84375 56 30.609375 56 
z
" id="DejaVuSans-111"/>
       <path d="M 8.5 21.578125 
L 8.5 54.6875 
L 17.484375 54.6875 
L 17.484375 21.921875 
Q 17.484375 14.15625 20.5 10.265625 
Q 23.53125 6.390625 29.59375 6.390625 
Q 36.859375 6.390625 41.078125 11.03125 
Q 45.3125 15.671875 45.3125 23.6875 
L 45.3125 54.6875 
L 54.296875 54.6875 
L 54.296875 0 
L 45.3125 0 
L 45.3125 8.40625 
Q 42.046875 3.421875 37.71875 1 
Q 33.40625 -1.421875 27.6875 -1.421875 
Q 18.265625 -1.421875 13.375 4.4375 
Q 8.5 10.296875 8.5 21.578125 
z
M 31.109375 56 
z
" id="DejaVuSans-117"/>
       <path d="M 41.109375 46.296875 
Q 39.59375 47.171875 37.8125 47.578125 
Q 36.03125 48 33.890625 48 
Q 26.265625 48 22.1875 43.046875 
Q 18.109375 38.09375 18.109375 28.8125 
L 18.109375 0 
L 9.078125 0 
L 9.078125 54.6875 
L 18.109375 54.6875 
L 18.109375 46.1875 
Q 20.953125 51.171875 25.484375 53.578125 
Q 30.03125 56 36.53125 56 
Q 37.453125 56 38.578125 55.875 
Q 39.703125 55.765625 41.0625 55.515625 
z
" id="DejaVuSans-114"/>
       <path d="M 54.890625 33.015625 
L 54.890625 0 
L 45.90625 0 
L 45.90625 32.71875 
Q 45.90625 40.484375 42.875 44.328125 
Q 39.84375 48.1875 33.796875 48.1875 
Q 26.515625 48.1875 22.3125 43.546875 
Q 18.109375 38.921875 18.109375 30.90625 
L 18.109375 0 
L 9.078125 0 
L 9.078125 54.6875 
L 18.109375 54.6875 
L 18.109375 46.1875 
Q 21.34375 51.125 25.703125 53.5625 
Q 30.078125 56 35.796875 56 
Q 45.21875 56 50.046875 50.171875 
Q 54.890625 44.34375 54.890625 33.015625 
z
" id="DejaVuSans-110"/>
       <path d="M 18.3125 70.21875 
L 18.3125 54.6875 
L 36.8125 54.6875 
L 36.8125 47.703125 
L 18.3125 47.703125 
L 18.3125 18.015625 
Q 18.3125 11.328125 20.140625 9.421875 
Q 21.96875 7.515625 27.59375 7.515625 
L 36.8125 7.515625 
L 36.8125 0 
L 27.59375 0 
Q 17.1875 0 13.234375 3.875 
Q 9.28125 7.765625 9.28125 18.015625 
L 9.28125 47.703125 
L 2.6875 47.703125 
L 2.6875 54.6875 
L 9.28125 54.6875 
L 9.28125 70.21875 
z
" id="DejaVuSans-116"/>
       <path d="M 8.015625 75.875 
L 15.828125 75.875 
Q 23.140625 64.359375 26.78125 53.3125 
Q 30.421875 42.28125 30.421875 31.390625 
Q 30.421875 20.453125 26.78125 9.375 
Q 23.140625 -1.703125 15.828125 -13.1875 
L 8.015625 -13.1875 
Q 14.5 -2 17.703125 9.0625 
Q 20.90625 20.125 20.90625 31.390625 
Q 20.90625 42.671875 17.703125 53.65625 
Q 14.5 64.65625 8.015625 75.875 
z
" id="DejaVuSans-41"/>
      </defs>
      <use xlink:href="#DejaVuSans-84"/>
      <use x="57.958984" xlink:href="#DejaVuSans-105"/>
      <use x="85.742188" xlink:href="#DejaVuSans-109"/>
      <use x="183.154297" xlink:href="#DejaVuSans-101"/>
      <use x="244.677734" xlink:href="#DejaVuSans-32"/>
      <use x="276.464844" xlink:href="#DejaVuSans-40"/>
      <use x="315.478516" xlink:href="#DejaVuSans-104"/>
      <use x="378.857422" xlink:href="#DejaVuSans-111"/>
      <use x="440.039062" xlink:href="#DejaVuSans-117"/>
      <use x="503.417969" xlink:href="#DejaVuSans-114"/>
      <use x="542.78125" xlink:href="#DejaVuSans-58"/>
      <use x="576.472656" xlink:href="#DejaVuSans-109"/>
      <use x="673.884766" xlink:href="#DejaVuSans-105"/>
      <use x="701.667969" xlink:href="#DejaVuSans-110"/>
      <use x="765.046875" xlink:href="#DejaVuSans-117"/>
      <use x="828.425781" xlink:href="#DejaVuSans-116"/>
      <use x="867.634766" xlink:href="#DejaVuSans-101"/>
      <use x="929.158203" xlink:href="#DejaVuSans-41"/>
     </g>
    </g>
   </g>
   <g id="matplotlib.axis_2">
    <g id="ytick_1">
     <g id="line2d_30">
      <defs>
       <path d="M 0 0 
L -3.5 0 
" id="md13275a69c" style="stroke:#000000;stroke-width:0.8;"/>
      </defs>
      <g>
       <use style="stroke:#000000;stroke-width:0.8;" x="53.328125" xlink:href="#md13275a69c" y="274.131515"/>
      </g>
     </g>
     <g id="text_14">
      <!-- 7600 -->
      <g transform="translate(20.878125 277.930734)scale(0.1 -0.1)">
       <use xlink:href="#DejaVuSans-55"/>
       <use x="63.623047" xlink:href="#DejaVuSans-54"/>
       <use x="127.246094" xlink:href="#DejaVuSans-48"/>
       <use x="190.869141" xlink:href="#DejaVuSans-48"/>
      </g>
     </g>
    </g>
    <g id="ytick_2">
     <g id="line2d_31">
      <g>
       <use style="stroke:#000000;stroke-width:0.8;" x="53.328125" xlink:href="#md13275a69c" y="237.421348"/>
      </g>
     </g>
     <g id="text_15">
      <!-- 7700 -->
      <g transform="translate(20.878125 241.220567)scale(0.1 -0.1)">
       <use xlink:href="#DejaVuSans-55"/>
       <use x="63.623047" xlink:href="#DejaVuSans-55"/>
       <use x="127.246094" xlink:href="#DejaVuSans-48"/>
       <use x="190.869141" xlink:href="#DejaVuSans-48"/>
      </g>
     </g>
    </g>
    <g id="ytick_3">
     <g id="line2d_32">
      <g>
       <use style="stroke:#000000;stroke-width:0.8;" x="53.328125" xlink:href="#md13275a69c" y="200.711181"/>
      </g>
     </g>
     <g id="text_16">
      <!-- 7800 -->
      <g transform="translate(20.878125 204.5104)scale(0.1 -0.1)">
       <defs>
        <path d="M 31.78125 34.625 
Q 24.75 34.625 20.71875 30.859375 
Q 16.703125 27.09375 16.703125 20.515625 
Q 16.703125 13.921875 20.71875 10.15625 
Q 24.75 6.390625 31.78125 6.390625 
Q 38.8125 6.390625 42.859375 10.171875 
Q 46.921875 13.96875 46.921875 20.515625 
Q 46.921875 27.09375 42.890625 30.859375 
Q 38.875 34.625 31.78125 34.625 
z
M 21.921875 38.8125 
Q 15.578125 40.375 12.03125 44.71875 
Q 8.5 49.078125 8.5 55.328125 
Q 8.5 64.0625 14.71875 69.140625 
Q 20.953125 74.21875 31.78125 74.21875 
Q 42.671875 74.21875 48.875 69.140625 
Q 55.078125 64.0625 55.078125 55.328125 
Q 55.078125 49.078125 51.53125 44.71875 
Q 48 40.375 41.703125 38.8125 
Q 48.828125 37.15625 52.796875 32.3125 
Q 56.78125 27.484375 56.78125 20.515625 
Q 56.78125 9.90625 50.3125 4.234375 
Q 43.84375 -1.421875 31.78125 -1.421875 
Q 19.734375 -1.421875 13.25 4.234375 
Q 6.78125 9.90625 6.78125 20.515625 
Q 6.78125 27.484375 10.78125 32.3125 
Q 14.796875 37.15625 21.921875 38.8125 
z
M 18.3125 54.390625 
Q 18.3125 48.734375 21.84375 45.5625 
Q 25.390625 42.390625 31.78125 42.390625 
Q 38.140625 42.390625 41.71875 45.5625 
Q 45.3125 48.734375 45.3125 54.390625 
Q 45.3125 60.0625 41.71875 63.234375 
Q 38.140625 66.40625 31.78125 66.40625 
Q 25.390625 66.40625 21.84375 63.234375 
Q 18.3125 60.0625 18.3125 54.390625 
z
" id="DejaVuSans-56"/>
       </defs>
       <use xlink:href="#DejaVuSans-55"/>
       <use x="63.623047" xlink:href="#DejaVuSans-56"/>
       <use x="127.246094" xlink:href="#DejaVuSans-48"/>
       <use x="190.869141" xlink:href="#DejaVuSans-48"/>
      </g>
     </g>
    </g>
    <g id="ytick_4">
     <g id="line2d_33">
      <g>
       <use style="stroke:#000000;stroke-width:0.8;" x="53.328125" xlink:href="#md13275a69c" y="164.001014"/>
      </g>
     </g>
     <g id="text_17">
      <!-- 7900 -->
      <g transform="translate(20.878125 167.800233)scale(0.1 -0.1)">
       <use xlink:href="#DejaVuSans-55"/>
       <use x="63.623047" xlink:href="#DejaVuSans-57"/>
       <use x="127.246094" xlink:href="#DejaVuSans-48"/>
       <use x="190.869141" xlink:href="#DejaVuSans-48"/>
      </g>
     </g>
    </g>
    <g id="ytick_5">
     <g id="line2d_34">
      <g>
       <use style="stroke:#000000;stroke-width:0.8;" x="53.328125" xlink:href="#md13275a69c" y="127.290847"/>
      </g>
     </g>
     <g id="text_18">
      <!-- 8000 -->
      <g transform="translate(20.878125 131.090066)scale(0.1 -0.1)">
       <use xlink:href="#DejaVuSans-56"/>
       <use x="63.623047" xlink:href="#DejaVuSans-48"/>
       <use x="127.246094" xlink:href="#DejaVuSans-48"/>
       <use x="190.869141" xlink:href="#DejaVuSans-48"/>
      </g>
     </g>
    </g>
    <g id="ytick_6">
     <g id="line2d_35">
      <g>
       <use style="stroke:#000000;stroke-width:0.8;" x="53.328125" xlink:href="#md13275a69c" y="90.58068"/>
      </g>
     </g>
     <g id="text_19">
      <!-- 8100 -->
      <g transform="translate(20.878125 94.379899)scale(0.1 -0.1)">
       <use xlink:href="#DejaVuSans-56"/>
       <use x="63.623047" xlink:href="#DejaVuSans-49"/>
       <use x="127.246094" xlink:href="#DejaVuSans-48"/>
       <use x="190.869141" xlink:href="#DejaVuSans-48"/>
      </g>
     </g>
    </g>
    <g id="ytick_7">
     <g id="line2d_36">
      <g>
       <use style="stroke:#000000;stroke-width:0.8;" x="53.328125" xlink:href="#md13275a69c" y="53.870513"/>
      </g>
     </g>
     <g id="text_20">
      <!-- 8200 -->
      <g transform="translate(20.878125 57.669732)scale(0.1 -0.1)">
       <use xlink:href="#DejaVuSans-56"/>
       <use x="63.623047" xlink:href="#DejaVuSans-50"/>
       <use x="127.246094" xlink:href="#DejaVuSans-48"/>
       <use x="190.869141" xlink:href="#DejaVuSans-48"/>
      </g>
     </g>
    </g>
    <g id="text_21">
     <!-- Code region coverage -->
     <g transform="translate(14.798438 210.379594)rotate(-90)scale(0.1 -0.1)">
      <defs>
       <path d="M 64.40625 67.28125 
L 64.40625 56.890625 
Q 59.421875 61.53125 53.78125 63.8125 
Q 48.140625 66.109375 41.796875 66.109375 
Q 29.296875 66.109375 22.65625 58.46875 
Q 16.015625 50.828125 16.015625 36.375 
Q 16.015625 21.96875 22.65625 14.328125 
Q 29.296875 6.6875 41.796875 6.6875 
Q 48.140625 6.6875 53.78125 8.984375 
Q 59.421875 11.28125 64.40625 15.921875 
L 64.40625 5.609375 
Q 59.234375 2.09375 53.4375 0.328125 
Q 47.65625 -1.421875 41.21875 -1.421875 
Q 24.65625 -1.421875 15.125 8.703125 
Q 5.609375 18.84375 5.609375 36.375 
Q 5.609375 53.953125 15.125 64.078125 
Q 24.65625 74.21875 41.21875 74.21875 
Q 47.75 74.21875 53.53125 72.484375 
Q 59.328125 70.75 64.40625 67.28125 
z
" id="DejaVuSans-67"/>
       <path d="M 45.40625 46.390625 
L 45.40625 75.984375 
L 54.390625 75.984375 
L 54.390625 0 
L 45.40625 0 
L 45.40625 8.203125 
Q 42.578125 3.328125 38.25 0.953125 
Q 33.9375 -1.421875 27.875 -1.421875 
Q 17.96875 -1.421875 11.734375 6.484375 
Q 5.515625 14.40625 5.515625 27.296875 
Q 5.515625 40.1875 11.734375 48.09375 
Q 17.96875 56 27.875 56 
Q 33.9375 56 38.25 53.625 
Q 42.578125 51.265625 45.40625 46.390625 
z
M 14.796875 27.296875 
Q 14.796875 17.390625 18.875 11.75 
Q 22.953125 6.109375 30.078125 6.109375 
Q 37.203125 6.109375 41.296875 11.75 
Q 45.40625 17.390625 45.40625 27.296875 
Q 45.40625 37.203125 41.296875 42.84375 
Q 37.203125 48.484375 30.078125 48.484375 
Q 22.953125 48.484375 18.875 42.84375 
Q 14.796875 37.203125 14.796875 27.296875 
z
" id="DejaVuSans-100"/>
       <path d="M 45.40625 27.984375 
Q 45.40625 37.75 41.375 43.109375 
Q 37.359375 48.484375 30.078125 48.484375 
Q 22.859375 48.484375 18.828125 43.109375 
Q 14.796875 37.75 14.796875 27.984375 
Q 14.796875 18.265625 18.828125 12.890625 
Q 22.859375 7.515625 30.078125 7.515625 
Q 37.359375 7.515625 41.375 12.890625 
Q 45.40625 18.265625 45.40625 27.984375 
z
M 54.390625 6.78125 
Q 54.390625 -7.171875 48.1875 -13.984375 
Q 42 -20.796875 29.203125 -20.796875 
Q 24.46875 -20.796875 20.265625 -20.09375 
Q 16.0625 -19.390625 12.109375 -17.921875 
L 12.109375 -9.1875 
Q 16.0625 -11.328125 19.921875 -12.34375 
Q 23.78125 -13.375 27.78125 -13.375 
Q 36.625 -13.375 41.015625 -8.765625 
Q 45.40625 -4.15625 45.40625 5.171875 
L 45.40625 9.625 
Q 42.625 4.78125 38.28125 2.390625 
Q 33.9375 0 27.875 0 
Q 17.828125 0 11.671875 7.65625 
Q 5.515625 15.328125 5.515625 27.984375 
Q 5.515625 40.671875 11.671875 48.328125 
Q 17.828125 56 27.875 56 
Q 33.9375 56 38.28125 53.609375 
Q 42.625 51.21875 45.40625 46.390625 
L 45.40625 54.6875 
L 54.390625 54.6875 
z
" id="DejaVuSans-103"/>
       <path d="M 48.78125 52.59375 
L 48.78125 44.1875 
Q 44.96875 46.296875 41.140625 47.34375 
Q 37.3125 48.390625 33.40625 48.390625 
Q 24.65625 48.390625 19.8125 42.84375 
Q 14.984375 37.3125 14.984375 27.296875 
Q 14.984375 17.28125 19.8125 11.734375 
Q 24.65625 6.203125 33.40625 6.203125 
Q 37.3125 6.203125 41.140625 7.25 
Q 44.96875 8.296875 48.78125 10.40625 
L 48.78125 2.09375 
Q 45.015625 0.34375 40.984375 -0.53125 
Q 36.96875 -1.421875 32.421875 -1.421875 
Q 20.0625 -1.421875 12.78125 6.34375 
Q 5.515625 14.109375 5.515625 27.296875 
Q 5.515625 40.671875 12.859375 48.328125 
Q 20.21875 56 33.015625 56 
Q 37.15625 56 41.109375 55.140625 
Q 45.0625 54.296875 48.78125 52.59375 
z
" id="DejaVuSans-99"/>
       <path d="M 2.984375 54.6875 
L 12.5 54.6875 
L 29.59375 8.796875 
L 46.6875 54.6875 
L 56.203125 54.6875 
L 35.6875 0 
L 23.484375 0 
z
" id="DejaVuSans-118"/>
       <path d="M 34.28125 27.484375 
Q 23.390625 27.484375 19.1875 25 
Q 14.984375 22.515625 14.984375 16.5 
Q 14.984375 11.71875 18.140625 8.90625 
Q 21.296875 6.109375 26.703125 6.109375 
Q 34.1875 6.109375 38.703125 11.40625 
Q 43.21875 16.703125 43.21875 25.484375 
L 43.21875 27.484375 
z
M 52.203125 31.203125 
L 52.203125 0 
L 43.21875 0 
L 43.21875 8.296875 
Q 40.140625 3.328125 35.546875 0.953125 
Q 30.953125 -1.421875 24.3125 -1.421875 
Q 15.921875 -1.421875 10.953125 3.296875 
Q 6 8.015625 6 15.921875 
Q 6 25.140625 12.171875 29.828125 
Q 18.359375 34.515625 30.609375 34.515625 
L 43.21875 34.515625 
L 43.21875 35.40625 
Q 43.21875 41.609375 39.140625 45 
Q 35.0625 48.390625 27.6875 48.390625 
Q 23 48.390625 18.546875 47.265625 
Q 14.109375 46.140625 10.015625 43.890625 
L 10.015625 52.203125 
Q 14.9375 54.109375 19.578125 55.046875 
Q 24.21875 56 28.609375 56 
Q 40.484375 56 46.34375 49.84375 
Q 52.203125 43.703125 52.203125 31.203125 
z
" id="DejaVuSans-97"/>
      </defs>
      <use xlink:href="#DejaVuSans-67"/>
      <use x="69.824219" xlink:href="#DejaVuSans-111"/>
      <use x="131.005859" xlink:href="#DejaVuSans-100"/>
      <use x="194.482422" xlink:href="#DejaVuSans-101"/>
      <use x="256.005859" xlink:href="#DejaVuSans-32"/>
      <use x="287.792969" xlink:href="#DejaVuSans-114"/>
      <use x="326.65625" xlink:href="#DejaVuSans-101"/>
      <use x="388.179688" xlink:href="#DejaVuSans-103"/>
      <use x="451.65625" xlink:href="#DejaVuSans-105"/>
      <use x="479.439453" xlink:href="#DejaVuSans-111"/>
      <use x="540.621094" xlink:href="#DejaVuSans-110"/>
      <use x="604" xlink:href="#DejaVuSans-32"/>
      <use x="635.787109" xlink:href="#DejaVuSans-99"/>
      <use x="690.767578" xlink:href="#DejaVuSans-111"/>
      <use x="751.949219" xlink:href="#DejaVuSans-118"/>
      <use x="811.128906" xlink:href="#DejaVuSans-101"/>
      <use x="872.652344" xlink:href="#DejaVuSans-114"/>
      <use x="913.765625" xlink:href="#DejaVuSans-97"/>
      <use x="975.044922" xlink:href="#DejaVuSans-103"/>
      <use x="1038.521484" xlink:href="#DejaVuSans-101"/>
     </g>
    </g>
   </g>
   <g id="line2d_37">
    <path clip-path="url(#p693aa44674)" d="M 85.79358 243.111424 
L 187.645356 216.129451 
L 247.224826 181.988996 
L 289.497132 165.469421 
L 322.286081 154.089269 
L 349.076602 134.44933 
L 371.727665 125.63889 
L 391.348909 122.702076 
L 408.656072 114.62584 
L 424.137857 111.505476 
L 438.142835 94.80235 
L 450.928379 94.80235 
L 462.689938 84.890605 
L 473.579442 83.605749 
L 483.717327 81.77024 
L 493.200685 76.814368 
L 502.108931 76.263715 
L 510.507849 76.263715 
L 518.452543 67.269724 
L 525.989634 67.269724 
L 533.158912 66.35197 
L 539.994612 66.35197 
L 546.526401 65.801318 
L 552.780155 65.801318 
L 558.778582 64.14936 
L 564.541715 64.14936 
L 570.087318 62.680954 
L 575.431218 62.680954 
L 580.587574 62.313852 
L 585.569103 59.927691 
L 590.387275 59.193488 
L 595.052462 59.193488 
L 599.574082 59.009937 
L 603.960707 59.009937 
L 608.220167 58.092183 
L 612.359625 57.908632 
L 616.385659 54.971818 
L 620.304319 53.13631 
L 624.121185 53.13631 
L 627.84141 52.952759 
L 631.469769 52.952759 
L 635.010688 52.952759 
L 638.468284 52.952759 
L 641.846388 51.667903 
L 645.148573 51.667903 
L 648.378177 50.383048 
L 651.538321 50.383048 
L 654.631932 50.199497 
L 657.661751 50.015946 
L 660.630358 50.015946 
L 663.540177 50.015946 
L 666.393491 49.832395 
L 669.192453 49.832395 
L 671.939095 49.832395 
L 674.635337 49.832395 
L 677.282995 49.832395 
L 679.883789 49.465293 
L 682.43935 49.465293 
L 684.951224 43.591667 
L 687.42088 43.591667 
L 689.849713 43.591667 
L 692.239051 43.591667 
L 694.590158 43.591667 
L 696.904238 43.591667 
L 699.18244 43.591667 
L 701.425858 43.591667 
L 703.63554 43.591667 
L 705.812484 43.591667 
L 707.957647 43.591667 
L 710.071943 43.591667 
L 712.156248 42.857463 
L 714.211401 42.490362 
L 716.238207 42.490362 
L 718.237436 42.490362 
L 720.209828 42.490362 
L 722.156096 42.490362 
L 724.076921 42.12326 
L 725.972961 42.12326 
L 727.844847 42.12326 
L 729.693186 42.12326 
L 731.518565 42.12326 
L 733.321545 42.12326 
L 735.10267 42.12326 
" style="fill:none;stroke:#1f77b4;stroke-linecap:square;stroke-width:1.5;"/>
    <defs>
     <path d="M 0 3 
C 0.795609 3 1.55874 2.683901 2.12132 2.12132 
C 2.683901 1.55874 3 0.795609 3 0 
C 3 -0.795609 2.683901 -1.55874 2.12132 -2.12132 
C 1.55874 -2.683901 0.795609 -3 0 -3 
C -0.795609 -3 -1.55874 -2.683901 -2.12132 -2.12132 
C -2.683901 -1.55874 -3 -0.795609 -3 0 
C -3 0.795609 -2.683901 1.55874 -2.12132 2.12132 
C -1.55874 2.683901 -0.795609 3 0 3 
z
" id="m984745c384" style="stroke:#ffffff;stroke-width:0.75;"/>
    </defs>
    <g clip-path="url(#p693aa44674)">
     <use style="fill:#1f77b4;stroke:#ffffff;stroke-width:0.75;" x="85.79358" xlink:href="#m984745c384" y="243.111424"/>
     <use style="fill:#1f77b4;stroke:#ffffff;stroke-width:0.75;" x="187.645356" xlink:href="#m984745c384" y="216.129451"/>
     <use style="fill:#1f77b4;stroke:#ffffff;stroke-width:0.75;" x="247.224826" xlink:href="#m984745c384" y="181.988996"/>
     <use style="fill:#1f77b4;stroke:#ffffff;stroke-width:0.75;" x="289.497132" xlink:href="#m984745c384" y="165.469421"/>
     <use style="fill:#1f77b4;stroke:#ffffff;stroke-width:0.75;" x="322.286081" xlink:href="#m984745c384" y="154.089269"/>
     <use style="fill:#1f77b4;stroke:#ffffff;stroke-width:0.75;" x="349.076602" xlink:href="#m984745c384" y="134.44933"/>
     <use style="fill:#1f77b4;stroke:#ffffff;stroke-width:0.75;" x="371.727665" xlink:href="#m984745c384" y="125.63889"/>
     <use style="fill:#1f77b4;stroke:#ffffff;stroke-width:0.75;" x="391.348909" xlink:href="#m984745c384" y="122.702076"/>
     <use style="fill:#1f77b4;stroke:#ffffff;stroke-width:0.75;" x="408.656072" xlink:href="#m984745c384" y="114.62584"/>
     <use style="fill:#1f77b4;stroke:#ffffff;stroke-width:0.75;" x="424.137857" xlink:href="#m984745c384" y="111.505476"/>
     <use style="fill:#1f77b4;stroke:#ffffff;stroke-width:0.75;" x="438.142835" xlink:href="#m984745c384" y="94.80235"/>
     <use style="fill:#1f77b4;stroke:#ffffff;stroke-width:0.75;" x="450.928379" xlink:href="#m984745c384" y="94.80235"/>
     <use style="fill:#1f77b4;stroke:#ffffff;stroke-width:0.75;" x="462.689938" xlink:href="#m984745c384" y="84.890605"/>
     <use style="fill:#1f77b4;stroke:#ffffff;stroke-width:0.75;" x="473.579442" xlink:href="#m984745c384" y="83.605749"/>
     <use style="fill:#1f77b4;stroke:#ffffff;stroke-width:0.75;" x="483.717327" xlink:href="#m984745c384" y="81.77024"/>
     <use style="fill:#1f77b4;stroke:#ffffff;stroke-width:0.75;" x="493.200685" xlink:href="#m984745c384" y="76.814368"/>
     <use style="fill:#1f77b4;stroke:#ffffff;stroke-width:0.75;" x="502.108931" xlink:href="#m984745c384" y="76.263715"/>
     <use style="fill:#1f77b4;stroke:#ffffff;stroke-width:0.75;" x="510.507849" xlink:href="#m984745c384" y="76.263715"/>
     <use style="fill:#1f77b4;stroke:#ffffff;stroke-width:0.75;" x="518.452543" xlink:href="#m984745c384" y="67.269724"/>
     <use style="fill:#1f77b4;stroke:#ffffff;stroke-width:0.75;" x="525.989634" xlink:href="#m984745c384" y="67.269724"/>
     <use style="fill:#1f77b4;stroke:#ffffff;stroke-width:0.75;" x="533.158912" xlink:href="#m984745c384" y="66.35197"/>
     <use style="fill:#1f77b4;stroke:#ffffff;stroke-width:0.75;" x="539.994612" xlink:href="#m984745c384" y="66.35197"/>
     <use style="fill:#1f77b4;stroke:#ffffff;stroke-width:0.75;" x="546.526401" xlink:href="#m984745c384" y="65.801318"/>
     <use style="fill:#1f77b4;stroke:#ffffff;stroke-width:0.75;" x="552.780155" xlink:href="#m984745c384" y="65.801318"/>
     <use style="fill:#1f77b4;stroke:#ffffff;stroke-width:0.75;" x="558.778582" xlink:href="#m984745c384" y="64.14936"/>
     <use style="fill:#1f77b4;stroke:#ffffff;stroke-width:0.75;" x="564.541715" xlink:href="#m984745c384" y="64.14936"/>
     <use style="fill:#1f77b4;stroke:#ffffff;stroke-width:0.75;" x="570.087318" xlink:href="#m984745c384" y="62.680954"/>
     <use style="fill:#1f77b4;stroke:#ffffff;stroke-width:0.75;" x="575.431218" xlink:href="#m984745c384" y="62.680954"/>
     <use style="fill:#1f77b4;stroke:#ffffff;stroke-width:0.75;" x="580.587574" xlink:href="#m984745c384" y="62.313852"/>
     <use style="fill:#1f77b4;stroke:#ffffff;stroke-width:0.75;" x="585.569103" xlink:href="#m984745c384" y="59.927691"/>
     <use style="fill:#1f77b4;stroke:#ffffff;stroke-width:0.75;" x="590.387275" xlink:href="#m984745c384" y="59.193488"/>
     <use style="fill:#1f77b4;stroke:#ffffff;stroke-width:0.75;" x="595.052462" xlink:href="#m984745c384" y="59.193488"/>
     <use style="fill:#1f77b4;stroke:#ffffff;stroke-width:0.75;" x="599.574082" xlink:href="#m984745c384" y="59.009937"/>
     <use style="fill:#1f77b4;stroke:#ffffff;stroke-width:0.75;" x="603.960707" xlink:href="#m984745c384" y="59.009937"/>
     <use style="fill:#1f77b4;stroke:#ffffff;stroke-width:0.75;" x="608.220167" xlink:href="#m984745c384" y="58.092183"/>
     <use style="fill:#1f77b4;stroke:#ffffff;stroke-width:0.75;" x="612.359625" xlink:href="#m984745c384" y="57.908632"/>
     <use style="fill:#1f77b4;stroke:#ffffff;stroke-width:0.75;" x="616.385659" xlink:href="#m984745c384" y="54.971818"/>
     <use style="fill:#1f77b4;stroke:#ffffff;stroke-width:0.75;" x="620.304319" xlink:href="#m984745c384" y="53.13631"/>
     <use style="fill:#1f77b4;stroke:#ffffff;stroke-width:0.75;" x="624.121185" xlink:href="#m984745c384" y="53.13631"/>
     <use style="fill:#1f77b4;stroke:#ffffff;stroke-width:0.75;" x="627.84141" xlink:href="#m984745c384" y="52.952759"/>
     <use style="fill:#1f77b4;stroke:#ffffff;stroke-width:0.75;" x="631.469769" xlink:href="#m984745c384" y="52.952759"/>
     <use style="fill:#1f77b4;stroke:#ffffff;stroke-width:0.75;" x="635.010688" xlink:href="#m984745c384" y="52.952759"/>
     <use style="fill:#1f77b4;stroke:#ffffff;stroke-width:0.75;" x="638.468284" xlink:href="#m984745c384" y="52.952759"/>
     <use style="fill:#1f77b4;stroke:#ffffff;stroke-width:0.75;" x="641.846388" xlink:href="#m984745c384" y="51.667903"/>
     <use style="fill:#1f77b4;stroke:#ffffff;stroke-width:0.75;" x="645.148573" xlink:href="#m984745c384" y="51.667903"/>
     <use style="fill:#1f77b4;stroke:#ffffff;stroke-width:0.75;" x="648.378177" xlink:href="#m984745c384" y="50.383048"/>
     <use style="fill:#1f77b4;stroke:#ffffff;stroke-width:0.75;" x="651.538321" xlink:href="#m984745c384" y="50.383048"/>
     <use style="fill:#1f77b4;stroke:#ffffff;stroke-width:0.75;" x="654.631932" xlink:href="#m984745c384" y="50.199497"/>
     <use style="fill:#1f77b4;stroke:#ffffff;stroke-width:0.75;" x="657.661751" xlink:href="#m984745c384" y="50.015946"/>
     <use style="fill:#1f77b4;stroke:#ffffff;stroke-width:0.75;" x="660.630358" xlink:href="#m984745c384" y="50.015946"/>
     <use style="fill:#1f77b4;stroke:#ffffff;stroke-width:0.75;" x="663.540177" xlink:href="#m984745c384" y="50.015946"/>
     <use style="fill:#1f77b4;stroke:#ffffff;stroke-width:0.75;" x="666.393491" xlink:href="#m984745c384" y="49.832395"/>
     <use style="fill:#1f77b4;stroke:#ffffff;stroke-width:0.75;" x="669.192453" xlink:href="#m984745c384" y="49.832395"/>
     <use style="fill:#1f77b4;stroke:#ffffff;stroke-width:0.75;" x="671.939095" xlink:href="#m984745c384" y="49.832395"/>
     <use style="fill:#1f77b4;stroke:#ffffff;stroke-width:0.75;" x="674.635337" xlink:href="#m984745c384" y="49.832395"/>
     <use style="fill:#1f77b4;stroke:#ffffff;stroke-width:0.75;" x="677.282995" xlink:href="#m984745c384" y="49.832395"/>
     <use style="fill:#1f77b4;stroke:#ffffff;stroke-width:0.75;" x="679.883789" xlink:href="#m984745c384" y="49.465293"/>
     <use style="fill:#1f77b4;stroke:#ffffff;stroke-width:0.75;" x="682.43935" xlink:href="#m984745c384" y="49.465293"/>
     <use style="fill:#1f77b4;stroke:#ffffff;stroke-width:0.75;" x="684.951224" xlink:href="#m984745c384" y="43.591667"/>
     <use style="fill:#1f77b4;stroke:#ffffff;stroke-width:0.75;" x="687.42088" xlink:href="#m984745c384" y="43.591667"/>
     <use style="fill:#1f77b4;stroke:#ffffff;stroke-width:0.75;" x="689.849713" xlink:href="#m984745c384" y="43.591667"/>
     <use style="fill:#1f77b4;stroke:#ffffff;stroke-width:0.75;" x="692.239051" xlink:href="#m984745c384" y="43.591667"/>
     <use style="fill:#1f77b4;stroke:#ffffff;stroke-width:0.75;" x="694.590158" xlink:href="#m984745c384" y="43.591667"/>
     <use style="fill:#1f77b4;stroke:#ffffff;stroke-width:0.75;" x="696.904238" xlink:href="#m984745c384" y="43.591667"/>
     <use style="fill:#1f77b4;stroke:#ffffff;stroke-width:0.75;" x="699.18244" xlink:href="#m984745c384" y="43.591667"/>
     <use style="fill:#1f77b4;stroke:#ffffff;stroke-width:0.75;" x="701.425858" xlink:href="#m984745c384" y="43.591667"/>
     <use style="fill:#1f77b4;stroke:#ffffff;stroke-width:0.75;" x="703.63554" xlink:href="#m984745c384" y="43.591667"/>
     <use style="fill:#1f77b4;stroke:#ffffff;stroke-width:0.75;" x="705.812484" xlink:href="#m984745c384" y="43.591667"/>
     <use style="fill:#1f77b4;stroke:#ffffff;stroke-width:0.75;" x="707.957647" xlink:href="#m984745c384" y="43.591667"/>
     <use style="fill:#1f77b4;stroke:#ffffff;stroke-width:0.75;" x="710.071943" xlink:href="#m984745c384" y="43.591667"/>
     <use style="fill:#1f77b4;stroke:#ffffff;stroke-width:0.75;" x="712.156248" xlink:href="#m984745c384" y="42.857463"/>
     <use style="fill:#1f77b4;stroke:#ffffff;stroke-width:0.75;" x="714.211401" xlink:href="#m984745c384" y="42.490362"/>
     <use style="fill:#1f77b4;stroke:#ffffff;stroke-width:0.75;" x="716.238207" xlink:href="#m984745c384" y="42.490362"/>
     <use style="fill:#1f77b4;stroke:#ffffff;stroke-width:0.75;" x="718.237436" xlink:href="#m984745c384" y="42.490362"/>
     <use style="fill:#1f77b4;stroke:#ffffff;stroke-width:0.75;" x="720.209828" xlink:href="#m984745c384" y="42.490362"/>
     <use style="fill:#1f77b4;stroke:#ffffff;stroke-width:0.75;" x="722.156096" xlink:href="#m984745c384" y="42.490362"/>
     <use style="fill:#1f77b4;stroke:#ffffff;stroke-width:0.75;" x="724.076921" xlink:href="#m984745c384" y="42.12326"/>
     <use style="fill:#1f77b4;stroke:#ffffff;stroke-width:0.75;" x="725.972961" xlink:href="#m984745c384" y="42.12326"/>
     <use style="fill:#1f77b4;stroke:#ffffff;stroke-width:0.75;" x="727.844847" xlink:href="#m984745c384" y="42.12326"/>
     <use style="fill:#1f77b4;stroke:#ffffff;stroke-width:0.75;" x="729.693186" xlink:href="#m984745c384" y="42.12326"/>
     <use style="fill:#1f77b4;stroke:#ffffff;stroke-width:0.75;" x="731.518565" xlink:href="#m984745c384" y="42.12326"/>
     <use style="fill:#1f77b4;stroke:#ffffff;stroke-width:0.75;" x="733.321545" xlink:href="#m984745c384" y="42.12326"/>
     <use style="fill:#1f77b4;stroke:#ffffff;stroke-width:0.75;" x="735.10267" xlink:href="#m984745c384" y="42.12326"/>
    </g>
   </g>
   <g id="line2d_38">
    <path clip-path="url(#p693aa44674)" d="M 85.79358 267.890787 
L 187.645356 242.560771 
L 247.224826 219.616917 
L 289.497132 177.583776 
L 322.286081 170.608844 
L 349.076602 153.355066 
L 371.727665 143.076219 
L 391.348909 138.120347 
L 408.656072 132.430271 
L 424.137857 128.208601 
L 438.142835 113.157433 
L 450.928379 113.340984 
L 462.689938 99.39112 
L 473.579442 99.39112 
L 483.717327 87.093215 
L 493.200685 85.624808 
L 502.108931 85.624808 
L 510.507849 85.624808 
L 518.452543 85.441257 
L 525.989634 81.036037 
L 533.158912 79.200529 
L 539.994612 70.022987 
L 546.526401 69.288784 
L 552.780155 69.288784 
L 558.778582 60.845445 
L 564.541715 60.111242 
L 570.087318 59.009937 
L 575.431218 59.009937 
L 580.587574 59.009937 
L 585.569103 59.009937 
L 590.387275 59.009937 
L 595.052462 59.009937 
L 599.574082 59.009937 
L 603.960707 59.009937 
L 608.220167 59.009937 
L 612.359625 59.009937 
L 616.385659 59.009937 
L 620.304319 59.009937 
L 624.121185 59.009937 
L 627.84141 59.009937 
L 631.469769 59.009937 
L 635.010688 59.009937 
L 638.468284 59.009937 
L 641.846388 59.009937 
L 645.148573 59.009937 
L 648.378177 59.009937 
L 651.538321 59.009937 
L 654.631932 58.642835 
L 657.661751 58.642835 
L 660.630358 58.642835 
L 663.540177 58.642835 
L 666.393491 58.642835 
L 669.192453 58.642835 
L 671.939095 58.642835 
L 674.635337 58.642835 
L 677.282995 58.642835 
L 679.883789 58.642835 
L 682.43935 58.642835 
L 684.951224 58.642835 
L 687.42088 58.642835 
L 689.849713 58.642835 
L 692.239051 58.275733 
L 694.590158 58.275733 
L 696.904238 58.275733 
L 699.18244 58.275733 
L 701.425858 58.275733 
L 703.63554 58.275733 
L 705.812484 58.275733 
L 707.957647 58.275733 
L 710.071943 58.275733 
L 712.156248 58.275733 
L 714.211401 58.275733 
L 716.238207 58.275733 
L 718.237436 58.275733 
L 720.209828 58.275733 
L 722.156096 57.54153 
L 724.076921 57.54153 
L 725.972961 46.52848 
L 727.844847 46.52848 
L 729.693186 46.52848 
L 731.518565 46.52848 
L 733.321545 46.52848 
L 735.10267 46.52848 
" style="fill:none;stroke:#98df8a;stroke-linecap:square;stroke-width:1.5;"/>
    <defs>
     <path d="M -0 3 
L 3 -3 
L -3 -3 
z
" id="m25427599a8" style="stroke:#ffffff;stroke-linejoin:miter;stroke-width:0.75;"/>
    </defs>
    <g clip-path="url(#p693aa44674)">
     <use style="fill:#98df8a;stroke:#ffffff;stroke-linejoin:miter;stroke-width:0.75;" x="85.79358" xlink:href="#m25427599a8" y="267.890787"/>
     <use style="fill:#98df8a;stroke:#ffffff;stroke-linejoin:miter;stroke-width:0.75;" x="187.645356" xlink:href="#m25427599a8" y="242.560771"/>
     <use style="fill:#98df8a;stroke:#ffffff;stroke-linejoin:miter;stroke-width:0.75;" x="247.224826" xlink:href="#m25427599a8" y="219.616917"/>
     <use style="fill:#98df8a;stroke:#ffffff;stroke-linejoin:miter;stroke-width:0.75;" x="289.497132" xlink:href="#m25427599a8" y="177.583776"/>
     <use style="fill:#98df8a;stroke:#ffffff;stroke-linejoin:miter;stroke-width:0.75;" x="322.286081" xlink:href="#m25427599a8" y="170.608844"/>
     <use style="fill:#98df8a;stroke:#ffffff;stroke-linejoin:miter;stroke-width:0.75;" x="349.076602" xlink:href="#m25427599a8" y="153.355066"/>
     <use style="fill:#98df8a;stroke:#ffffff;stroke-linejoin:miter;stroke-width:0.75;" x="371.727665" xlink:href="#m25427599a8" y="143.076219"/>
     <use style="fill:#98df8a;stroke:#ffffff;stroke-linejoin:miter;stroke-width:0.75;" x="391.348909" xlink:href="#m25427599a8" y="138.120347"/>
     <use style="fill:#98df8a;stroke:#ffffff;stroke-linejoin:miter;stroke-width:0.75;" x="408.656072" xlink:href="#m25427599a8" y="132.430271"/>
     <use style="fill:#98df8a;stroke:#ffffff;stroke-linejoin:miter;stroke-width:0.75;" x="424.137857" xlink:href="#m25427599a8" y="128.208601"/>
     <use style="fill:#98df8a;stroke:#ffffff;stroke-linejoin:miter;stroke-width:0.75;" x="438.142835" xlink:href="#m25427599a8" y="113.157433"/>
     <use style="fill:#98df8a;stroke:#ffffff;stroke-linejoin:miter;stroke-width:0.75;" x="450.928379" xlink:href="#m25427599a8" y="113.340984"/>
     <use style="fill:#98df8a;stroke:#ffffff;stroke-linejoin:miter;stroke-width:0.75;" x="462.689938" xlink:href="#m25427599a8" y="99.39112"/>
     <use style="fill:#98df8a;stroke:#ffffff;stroke-linejoin:miter;stroke-width:0.75;" x="473.579442" xlink:href="#m25427599a8" y="99.39112"/>
     <use style="fill:#98df8a;stroke:#ffffff;stroke-linejoin:miter;stroke-width:0.75;" x="483.717327" xlink:href="#m25427599a8" y="87.093215"/>
     <use style="fill:#98df8a;stroke:#ffffff;stroke-linejoin:miter;stroke-width:0.75;" x="493.200685" xlink:href="#m25427599a8" y="85.624808"/>
     <use style="fill:#98df8a;stroke:#ffffff;stroke-linejoin:miter;stroke-width:0.75;" x="502.108931" xlink:href="#m25427599a8" y="85.624808"/>
     <use style="fill:#98df8a;stroke:#ffffff;stroke-linejoin:miter;stroke-width:0.75;" x="510.507849" xlink:href="#m25427599a8" y="85.624808"/>
     <use style="fill:#98df8a;stroke:#ffffff;stroke-linejoin:miter;stroke-width:0.75;" x="518.452543" xlink:href="#m25427599a8" y="85.441257"/>
     <use style="fill:#98df8a;stroke:#ffffff;stroke-linejoin:miter;stroke-width:0.75;" x="525.989634" xlink:href="#m25427599a8" y="81.036037"/>
     <use style="fill:#98df8a;stroke:#ffffff;stroke-linejoin:miter;stroke-width:0.75;" x="533.158912" xlink:href="#m25427599a8" y="79.200529"/>
     <use style="fill:#98df8a;stroke:#ffffff;stroke-linejoin:miter;stroke-width:0.75;" x="539.994612" xlink:href="#m25427599a8" y="70.022987"/>
     <use style="fill:#98df8a;stroke:#ffffff;stroke-linejoin:miter;stroke-width:0.75;" x="546.526401" xlink:href="#m25427599a8" y="69.288784"/>
     <use style="fill:#98df8a;stroke:#ffffff;stroke-linejoin:miter;stroke-width:0.75;" x="552.780155" xlink:href="#m25427599a8" y="69.288784"/>
     <use style="fill:#98df8a;stroke:#ffffff;stroke-linejoin:miter;stroke-width:0.75;" x="558.778582" xlink:href="#m25427599a8" y="60.845445"/>
     <use style="fill:#98df8a;stroke:#ffffff;stroke-linejoin:miter;stroke-width:0.75;" x="564.541715" xlink:href="#m25427599a8" y="60.111242"/>
     <use style="fill:#98df8a;stroke:#ffffff;stroke-linejoin:miter;stroke-width:0.75;" x="570.087318" xlink:href="#m25427599a8" y="59.009937"/>
     <use style="fill:#98df8a;stroke:#ffffff;stroke-linejoin:miter;stroke-width:0.75;" x="575.431218" xlink:href="#m25427599a8" y="59.009937"/>
     <use style="fill:#98df8a;stroke:#ffffff;stroke-linejoin:miter;stroke-width:0.75;" x="580.587574" xlink:href="#m25427599a8" y="59.009937"/>
     <use style="fill:#98df8a;stroke:#ffffff;stroke-linejoin:miter;stroke-width:0.75;" x="585.569103" xlink:href="#m25427599a8" y="59.009937"/>
     <use style="fill:#98df8a;stroke:#ffffff;stroke-linejoin:miter;stroke-width:0.75;" x="590.387275" xlink:href="#m25427599a8" y="59.009937"/>
     <use style="fill:#98df8a;stroke:#ffffff;stroke-linejoin:miter;stroke-width:0.75;" x="595.052462" xlink:href="#m25427599a8" y="59.009937"/>
     <use style="fill:#98df8a;stroke:#ffffff;stroke-linejoin:miter;stroke-width:0.75;" x="599.574082" xlink:href="#m25427599a8" y="59.009937"/>
     <use style="fill:#98df8a;stroke:#ffffff;stroke-linejoin:miter;stroke-width:0.75;" x="603.960707" xlink:href="#m25427599a8" y="59.009937"/>
     <use style="fill:#98df8a;stroke:#ffffff;stroke-linejoin:miter;stroke-width:0.75;" x="608.220167" xlink:href="#m25427599a8" y="59.009937"/>
     <use style="fill:#98df8a;stroke:#ffffff;stroke-linejoin:miter;stroke-width:0.75;" x="612.359625" xlink:href="#m25427599a8" y="59.009937"/>
     <use style="fill:#98df8a;stroke:#ffffff;stroke-linejoin:miter;stroke-width:0.75;" x="616.385659" xlink:href="#m25427599a8" y="59.009937"/>
     <use style="fill:#98df8a;stroke:#ffffff;stroke-linejoin:miter;stroke-width:0.75;" x="620.304319" xlink:href="#m25427599a8" y="59.009937"/>
     <use style="fill:#98df8a;stroke:#ffffff;stroke-linejoin:miter;stroke-width:0.75;" x="624.121185" xlink:href="#m25427599a8" y="59.009937"/>
     <use style="fill:#98df8a;stroke:#ffffff;stroke-linejoin:miter;stroke-width:0.75;" x="627.84141" xlink:href="#m25427599a8" y="59.009937"/>
     <use style="fill:#98df8a;stroke:#ffffff;stroke-linejoin:miter;stroke-width:0.75;" x="631.469769" xlink:href="#m25427599a8" y="59.009937"/>
     <use style="fill:#98df8a;stroke:#ffffff;stroke-linejoin:miter;stroke-width:0.75;" x="635.010688" xlink:href="#m25427599a8" y="59.009937"/>
     <use style="fill:#98df8a;stroke:#ffffff;stroke-linejoin:miter;stroke-width:0.75;" x="638.468284" xlink:href="#m25427599a8" y="59.009937"/>
     <use style="fill:#98df8a;stroke:#ffffff;stroke-linejoin:miter;stroke-width:0.75;" x="641.846388" xlink:href="#m25427599a8" y="59.009937"/>
     <use style="fill:#98df8a;stroke:#ffffff;stroke-linejoin:miter;stroke-width:0.75;" x="645.148573" xlink:href="#m25427599a8" y="59.009937"/>
     <use style="fill:#98df8a;stroke:#ffffff;stroke-linejoin:miter;stroke-width:0.75;" x="648.378177" xlink:href="#m25427599a8" y="59.009937"/>
     <use style="fill:#98df8a;stroke:#ffffff;stroke-linejoin:miter;stroke-width:0.75;" x="651.538321" xlink:href="#m25427599a8" y="59.009937"/>
     <use style="fill:#98df8a;stroke:#ffffff;stroke-linejoin:miter;stroke-width:0.75;" x="654.631932" xlink:href="#m25427599a8" y="58.642835"/>
     <use style="fill:#98df8a;stroke:#ffffff;stroke-linejoin:miter;stroke-width:0.75;" x="657.661751" xlink:href="#m25427599a8" y="58.642835"/>
     <use style="fill:#98df8a;stroke:#ffffff;stroke-linejoin:miter;stroke-width:0.75;" x="660.630358" xlink:href="#m25427599a8" y="58.642835"/>
     <use style="fill:#98df8a;stroke:#ffffff;stroke-linejoin:miter;stroke-width:0.75;" x="663.540177" xlink:href="#m25427599a8" y="58.642835"/>
     <use style="fill:#98df8a;stroke:#ffffff;stroke-linejoin:miter;stroke-width:0.75;" x="666.393491" xlink:href="#m25427599a8" y="58.642835"/>
     <use style="fill:#98df8a;stroke:#ffffff;stroke-linejoin:miter;stroke-width:0.75;" x="669.192453" xlink:href="#m25427599a8" y="58.642835"/>
     <use style="fill:#98df8a;stroke:#ffffff;stroke-linejoin:miter;stroke-width:0.75;" x="671.939095" xlink:href="#m25427599a8" y="58.642835"/>
     <use style="fill:#98df8a;stroke:#ffffff;stroke-linejoin:miter;stroke-width:0.75;" x="674.635337" xlink:href="#m25427599a8" y="58.642835"/>
     <use style="fill:#98df8a;stroke:#ffffff;stroke-linejoin:miter;stroke-width:0.75;" x="677.282995" xlink:href="#m25427599a8" y="58.642835"/>
     <use style="fill:#98df8a;stroke:#ffffff;stroke-linejoin:miter;stroke-width:0.75;" x="679.883789" xlink:href="#m25427599a8" y="58.642835"/>
     <use style="fill:#98df8a;stroke:#ffffff;stroke-linejoin:miter;stroke-width:0.75;" x="682.43935" xlink:href="#m25427599a8" y="58.642835"/>
     <use style="fill:#98df8a;stroke:#ffffff;stroke-linejoin:miter;stroke-width:0.75;" x="684.951224" xlink:href="#m25427599a8" y="58.642835"/>
     <use style="fill:#98df8a;stroke:#ffffff;stroke-linejoin:miter;stroke-width:0.75;" x="687.42088" xlink:href="#m25427599a8" y="58.642835"/>
     <use style="fill:#98df8a;stroke:#ffffff;stroke-linejoin:miter;stroke-width:0.75;" x="689.849713" xlink:href="#m25427599a8" y="58.642835"/>
     <use style="fill:#98df8a;stroke:#ffffff;stroke-linejoin:miter;stroke-width:0.75;" x="692.239051" xlink:href="#m25427599a8" y="58.275733"/>
     <use style="fill:#98df8a;stroke:#ffffff;stroke-linejoin:miter;stroke-width:0.75;" x="694.590158" xlink:href="#m25427599a8" y="58.275733"/>
     <use style="fill:#98df8a;stroke:#ffffff;stroke-linejoin:miter;stroke-width:0.75;" x="696.904238" xlink:href="#m25427599a8" y="58.275733"/>
     <use style="fill:#98df8a;stroke:#ffffff;stroke-linejoin:miter;stroke-width:0.75;" x="699.18244" xlink:href="#m25427599a8" y="58.275733"/>
     <use style="fill:#98df8a;stroke:#ffffff;stroke-linejoin:miter;stroke-width:0.75;" x="701.425858" xlink:href="#m25427599a8" y="58.275733"/>
     <use style="fill:#98df8a;stroke:#ffffff;stroke-linejoin:miter;stroke-width:0.75;" x="703.63554" xlink:href="#m25427599a8" y="58.275733"/>
     <use style="fill:#98df8a;stroke:#ffffff;stroke-linejoin:miter;stroke-width:0.75;" x="705.812484" xlink:href="#m25427599a8" y="58.275733"/>
     <use style="fill:#98df8a;stroke:#ffffff;stroke-linejoin:miter;stroke-width:0.75;" x="707.957647" xlink:href="#m25427599a8" y="58.275733"/>
     <use style="fill:#98df8a;stroke:#ffffff;stroke-linejoin:miter;stroke-width:0.75;" x="710.071943" xlink:href="#m25427599a8" y="58.275733"/>
     <use style="fill:#98df8a;stroke:#ffffff;stroke-linejoin:miter;stroke-width:0.75;" x="712.156248" xlink:href="#m25427599a8" y="58.275733"/>
     <use style="fill:#98df8a;stroke:#ffffff;stroke-linejoin:miter;stroke-width:0.75;" x="714.211401" xlink:href="#m25427599a8" y="58.275733"/>
     <use style="fill:#98df8a;stroke:#ffffff;stroke-linejoin:miter;stroke-width:0.75;" x="716.238207" xlink:href="#m25427599a8" y="58.275733"/>
     <use style="fill:#98df8a;stroke:#ffffff;stroke-linejoin:miter;stroke-width:0.75;" x="718.237436" xlink:href="#m25427599a8" y="58.275733"/>
     <use style="fill:#98df8a;stroke:#ffffff;stroke-linejoin:miter;stroke-width:0.75;" x="720.209828" xlink:href="#m25427599a8" y="58.275733"/>
     <use style="fill:#98df8a;stroke:#ffffff;stroke-linejoin:miter;stroke-width:0.75;" x="722.156096" xlink:href="#m25427599a8" y="57.54153"/>
     <use style="fill:#98df8a;stroke:#ffffff;stroke-linejoin:miter;stroke-width:0.75;" x="724.076921" xlink:href="#m25427599a8" y="57.54153"/>
     <use style="fill:#98df8a;stroke:#ffffff;stroke-linejoin:miter;stroke-width:0.75;" x="725.972961" xlink:href="#m25427599a8" y="46.52848"/>
     <use style="fill:#98df8a;stroke:#ffffff;stroke-linejoin:miter;stroke-width:0.75;" x="727.844847" xlink:href="#m25427599a8" y="46.52848"/>
     <use style="fill:#98df8a;stroke:#ffffff;stroke-linejoin:miter;stroke-width:0.75;" x="729.693186" xlink:href="#m25427599a8" y="46.52848"/>
     <use style="fill:#98df8a;stroke:#ffffff;stroke-linejoin:miter;stroke-width:0.75;" x="731.518565" xlink:href="#m25427599a8" y="46.52848"/>
     <use style="fill:#98df8a;stroke:#ffffff;stroke-linejoin:miter;stroke-width:0.75;" x="733.321545" xlink:href="#m25427599a8" y="46.52848"/>
     <use style="fill:#98df8a;stroke:#ffffff;stroke-linejoin:miter;stroke-width:0.75;" x="735.10267" xlink:href="#m25427599a8" y="46.52848"/>
    </g>
   </g>
   <g id="line2d_39"/>
   <g id="line2d_40"/>
   <g id="line2d_41">
    <path clip-path="url(#p693aa44674)" d="M 735.10267 288.430125 
L 735.10267 22.318125 
" style="fill:none;stroke:#ff0000;stroke-linecap:square;stroke-width:1.5;"/>
   </g>
   <g id="patch_3">
    <path d="M 53.328125 274.131515 
L 53.328125 53.870513 
" style="fill:none;stroke:#000000;stroke-linecap:square;stroke-linejoin:miter;stroke-width:0.8;"/>
   </g>
   <g id="patch_4">
    <path d="M 85.79358 288.430125 
L 735.104638 288.430125 
" style="fill:none;stroke:#000000;stroke-linecap:square;stroke-linejoin:miter;stroke-width:0.8;"/>
   </g>
   <g id="text_22">
    <!-- mbedtls_fuzz_dtlsclient (20h:45m, 1 trials/fuzzer) -->
    <g transform="translate(262.090625 16.318125)scale(0.12 -0.12)">
     <defs>
      <path d="M 48.6875 27.296875 
Q 48.6875 37.203125 44.609375 42.84375 
Q 40.53125 48.484375 33.40625 48.484375 
Q 26.265625 48.484375 22.1875 42.84375 
Q 18.109375 37.203125 18.109375 27.296875 
Q 18.109375 17.390625 22.1875 11.75 
Q 26.265625 6.109375 33.40625 6.109375 
Q 40.53125 6.109375 44.609375 11.75 
Q 48.6875 17.390625 48.6875 27.296875 
z
M 18.109375 46.390625 
Q 20.953125 51.265625 25.265625 53.625 
Q 29.59375 56 35.59375 56 
Q 45.5625 56 51.78125 48.09375 
Q 58.015625 40.1875 58.015625 27.296875 
Q 58.015625 14.40625 51.78125 6.484375 
Q 45.5625 -1.421875 35.59375 -1.421875 
Q 29.59375 -1.421875 25.265625 0.953125 
Q 20.953125 3.328125 18.109375 8.203125 
L 18.109375 0 
L 9.078125 0 
L 9.078125 75.984375 
L 18.109375 75.984375 
z
" id="DejaVuSans-98"/>
      <path d="M 9.421875 75.984375 
L 18.40625 75.984375 
L 18.40625 0 
L 9.421875 0 
z
" id="DejaVuSans-108"/>
      <path d="M 44.28125 53.078125 
L 44.28125 44.578125 
Q 40.484375 46.53125 36.375 47.5 
Q 32.28125 48.484375 27.875 48.484375 
Q 21.1875 48.484375 17.84375 46.4375 
Q 14.5 44.390625 14.5 40.28125 
Q 14.5 37.15625 16.890625 35.375 
Q 19.28125 33.59375 26.515625 31.984375 
L 29.59375 31.296875 
Q 39.15625 29.25 43.1875 25.515625 
Q 47.21875 21.78125 47.21875 15.09375 
Q 47.21875 7.46875 41.1875 3.015625 
Q 35.15625 -1.421875 24.609375 -1.421875 
Q 20.21875 -1.421875 15.453125 -0.5625 
Q 10.6875 0.296875 5.421875 2 
L 5.421875 11.28125 
Q 10.40625 8.6875 15.234375 7.390625 
Q 20.0625 6.109375 24.8125 6.109375 
Q 31.15625 6.109375 34.5625 8.28125 
Q 37.984375 10.453125 37.984375 14.40625 
Q 37.984375 18.0625 35.515625 20.015625 
Q 33.0625 21.96875 24.703125 23.78125 
L 21.578125 24.515625 
Q 13.234375 26.265625 9.515625 29.90625 
Q 5.8125 33.546875 5.8125 39.890625 
Q 5.8125 47.609375 11.28125 51.796875 
Q 16.75 56 26.8125 56 
Q 31.78125 56 36.171875 55.265625 
Q 40.578125 54.546875 44.28125 53.078125 
z
" id="DejaVuSans-115"/>
      <path d="M 50.984375 -16.609375 
L 50.984375 -23.578125 
L -0.984375 -23.578125 
L -0.984375 -16.609375 
z
" id="DejaVuSans-95"/>
      <path d="M 37.109375 75.984375 
L 37.109375 68.5 
L 28.515625 68.5 
Q 23.6875 68.5 21.796875 66.546875 
Q 19.921875 64.59375 19.921875 59.515625 
L 19.921875 54.6875 
L 34.71875 54.6875 
L 34.71875 47.703125 
L 19.921875 47.703125 
L 19.921875 0 
L 10.890625 0 
L 10.890625 47.703125 
L 2.296875 47.703125 
L 2.296875 54.6875 
L 10.890625 54.6875 
L 10.890625 58.5 
Q 10.890625 67.625 15.140625 71.796875 
Q 19.390625 75.984375 28.609375 75.984375 
z
" id="DejaVuSans-102"/>
      <path d="M 5.515625 54.6875 
L 48.1875 54.6875 
L 48.1875 46.484375 
L 14.40625 7.171875 
L 48.1875 7.171875 
L 48.1875 0 
L 4.296875 0 
L 4.296875 8.203125 
L 38.09375 47.515625 
L 5.515625 47.515625 
z
" id="DejaVuSans-122"/>
      <path d="M 11.71875 12.40625 
L 22.015625 12.40625 
L 22.015625 4 
L 14.015625 -11.625 
L 7.71875 -11.625 
L 11.71875 4 
z
" id="DejaVuSans-44"/>
      <path d="M 25.390625 72.90625 
L 33.6875 72.90625 
L 8.296875 -9.28125 
L 0 -9.28125 
z
" id="DejaVuSans-47"/>
     </defs>
     <use xlink:href="#DejaVuSans-109"/>
     <use x="97.412109" xlink:href="#DejaVuSans-98"/>
     <use x="160.888672" xlink:href="#DejaVuSans-101"/>
     <use x="222.412109" xlink:href="#DejaVuSans-100"/>
     <use x="285.888672" xlink:href="#DejaVuSans-116"/>
     <use x="325.097656" xlink:href="#DejaVuSans-108"/>
     <use x="352.880859" xlink:href="#DejaVuSans-115"/>
     <use x="404.980469" xlink:href="#DejaVuSans-95"/>
     <use x="454.980469" xlink:href="#DejaVuSans-102"/>
     <use x="490.185547" xlink:href="#DejaVuSans-117"/>
     <use x="553.564453" xlink:href="#DejaVuSans-122"/>
     <use x="606.054688" xlink:href="#DejaVuSans-122"/>
     <use x="658.544922" xlink:href="#DejaVuSans-95"/>
     <use x="708.544922" xlink:href="#DejaVuSans-100"/>
     <use x="772.021484" xlink:href="#DejaVuSans-116"/>
     <use x="811.230469" xlink:href="#DejaVuSans-108"/>
     <use x="839.013672" xlink:href="#DejaVuSans-115"/>
     <use x="891.113281" xlink:href="#DejaVuSans-99"/>
     <use x="946.09375" xlink:href="#DejaVuSans-108"/>
     <use x="973.876953" xlink:href="#DejaVuSans-105"/>
     <use x="1001.660156" xlink:href="#DejaVuSans-101"/>
     <use x="1063.183594" xlink:href="#DejaVuSans-110"/>
     <use x="1126.5625" xlink:href="#DejaVuSans-116"/>
     <use x="1165.771484" xlink:href="#DejaVuSans-32"/>
     <use x="1197.558594" xlink:href="#DejaVuSans-40"/>
     <use x="1236.572266" xlink:href="#DejaVuSans-50"/>
     <use x="1300.195312" xlink:href="#DejaVuSans-48"/>
     <use x="1363.818359" xlink:href="#DejaVuSans-104"/>
     <use x="1427.197266" xlink:href="#DejaVuSans-58"/>
     <use x="1460.888672" xlink:href="#DejaVuSans-52"/>
     <use x="1524.511719" xlink:href="#DejaVuSans-53"/>
     <use x="1588.134766" xlink:href="#DejaVuSans-109"/>
     <use x="1685.546875" xlink:href="#DejaVuSans-44"/>
     <use x="1717.333984" xlink:href="#DejaVuSans-32"/>
     <use x="1749.121094" xlink:href="#DejaVuSans-49"/>
     <use x="1812.744141" xlink:href="#DejaVuSans-32"/>
     <use x="1844.53125" xlink:href="#DejaVuSans-116"/>
     <use x="1883.740234" xlink:href="#DejaVuSans-114"/>
     <use x="1924.853516" xlink:href="#DejaVuSans-105"/>
     <use x="1952.636719" xlink:href="#DejaVuSans-97"/>
     <use x="2013.916016" xlink:href="#DejaVuSans-108"/>
     <use x="2041.699219" xlink:href="#DejaVuSans-115"/>
     <use x="2093.798828" xlink:href="#DejaVuSans-47"/>
     <use x="2127.490234" xlink:href="#DejaVuSans-102"/>
     <use x="2162.695312" xlink:href="#DejaVuSans-117"/>
     <use x="2226.074219" xlink:href="#DejaVuSans-122"/>
     <use x="2278.564453" xlink:href="#DejaVuSans-122"/>
     <use x="2331.054688" xlink:href="#DejaVuSans-101"/>
     <use x="2392.578125" xlink:href="#DejaVuSans-114"/>
     <use x="2433.691406" xlink:href="#DejaVuSans-41"/>
    </g>
   </g>
   <g id="legend_1">
    <g id="line2d_42">
     <path d="M 771.568125 30.416563 
L 791.568125 30.416563 
" style="fill:none;stroke:#1f77b4;stroke-linecap:square;stroke-width:1.5;"/>
    </g>
    <g id="line2d_43">
     <defs>
      <path d="M 0 3 
C 0.795609 3 1.55874 2.683901 2.12132 2.12132 
C 2.683901 1.55874 3 0.795609 3 0 
C 3 -0.795609 2.683901 -1.55874 2.12132 -2.12132 
C 1.55874 -2.683901 0.795609 -3 0 -3 
C -0.795609 -3 -1.55874 -2.683901 -2.12132 -2.12132 
C -2.683901 -1.55874 -3 -0.795609 -3 0 
C -3 0.795609 -2.683901 1.55874 -2.12132 2.12132 
C -1.55874 2.683901 -0.795609 3 0 3 
z
" id="ma81fee20a3" style="stroke:#1f77b4;"/>
     </defs>
     <g>
      <use style="fill:#1f77b4;stroke:#1f77b4;" x="781.568125" xlink:href="#ma81fee20a3" y="30.416563"/>
     </g>
    </g>
    <g id="text_23">
     <!-- jigsaw_fixed -->
     <g transform="translate(799.568125 33.916563)scale(0.1 -0.1)">
      <defs>
       <path d="M 9.421875 54.6875 
L 18.40625 54.6875 
L 18.40625 -0.984375 
Q 18.40625 -11.421875 14.421875 -16.109375 
Q 10.453125 -20.796875 1.609375 -20.796875 
L -1.8125 -20.796875 
L -1.8125 -13.1875 
L 0.59375 -13.1875 
Q 5.71875 -13.1875 7.5625 -10.8125 
Q 9.421875 -8.453125 9.421875 -0.984375 
z
M 9.421875 75.984375 
L 18.40625 75.984375 
L 18.40625 64.59375 
L 9.421875 64.59375 
z
" id="DejaVuSans-106"/>
       <path d="M 4.203125 54.6875 
L 13.1875 54.6875 
L 24.421875 12.015625 
L 35.59375 54.6875 
L 46.1875 54.6875 
L 57.421875 12.015625 
L 68.609375 54.6875 
L 77.59375 54.6875 
L 63.28125 0 
L 52.6875 0 
L 40.921875 44.828125 
L 29.109375 0 
L 18.5 0 
z
" id="DejaVuSans-119"/>
       <path d="M 54.890625 54.6875 
L 35.109375 28.078125 
L 55.90625 0 
L 45.3125 0 
L 29.390625 21.484375 
L 13.484375 0 
L 2.875 0 
L 24.125 28.609375 
L 4.6875 54.6875 
L 15.28125 54.6875 
L 29.78125 35.203125 
L 44.28125 54.6875 
z
" id="DejaVuSans-120"/>
      </defs>
      <use xlink:href="#DejaVuSans-106"/>
      <use x="27.783203" xlink:href="#DejaVuSans-105"/>
      <use x="55.566406" xlink:href="#DejaVuSans-103"/>
      <use x="119.042969" xlink:href="#DejaVuSans-115"/>
      <use x="171.142578" xlink:href="#DejaVuSans-97"/>
      <use x="232.421875" xlink:href="#DejaVuSans-119"/>
      <use x="314.208984" xlink:href="#DejaVuSans-95"/>
      <use x="364.208984" xlink:href="#DejaVuSans-102"/>
      <use x="399.414062" xlink:href="#DejaVuSans-105"/>
      <use x="427.197266" xlink:href="#DejaVuSans-120"/>
      <use x="483.251953" xlink:href="#DejaVuSans-101"/>
      <use x="544.775391" xlink:href="#DejaVuSans-100"/>
     </g>
    </g>
    <g id="line2d_44">
     <path d="M 771.568125 45.372813 
L 791.568125 45.372813 
" style="fill:none;stroke:#98df8a;stroke-linecap:square;stroke-width:1.5;"/>
    </g>
    <g id="line2d_45">
     <defs>
      <path d="M -0 3 
L 3 -3 
L -3 -3 
z
" id="m1b77ca9535" style="stroke:#98df8a;stroke-linejoin:miter;"/>
     </defs>
     <g>
      <use style="fill:#98df8a;stroke:#98df8a;stroke-linejoin:miter;" x="781.568125" xlink:href="#m1b77ca9535" y="45.372813"/>
     </g>
    </g>
    <g id="text_24">
     <!-- z3_fixed -->
     <g transform="translate(799.568125 48.872813)scale(0.1 -0.1)">
      <use xlink:href="#DejaVuSans-122"/>
      <use x="52.490234" xlink:href="#DejaVuSans-51"/>
      <use x="116.113281" xlink:href="#DejaVuSans-95"/>
      <use x="166.113281" xlink:href="#DejaVuSans-102"/>
      <use x="201.318359" xlink:href="#DejaVuSans-105"/>
      <use x="229.101562" xlink:href="#DejaVuSans-120"/>
      <use x="285.15625" xlink:href="#DejaVuSans-101"/>
      <use x="346.679688" xlink:href="#DejaVuSans-100"/>
     </g>
    </g>
   </g>
  </g>
 </g>
 <defs>
  <clipPath id="p693aa44674">
   <rect height="266.112" width="714.24" x="53.328125" y="22.318125"/>
  </clipPath>
 </defs>
</svg>
