<?xml version="1.0" encoding="utf-8" standalone="no"?>
<!DOCTYPE svg PUBLIC "-//W3C//DTD SVG 1.1//EN"
  "http://www.w3.org/Graphics/SVG/1.1/DTD/svg11.dtd">
<!-- Created with matplotlib (https://matplotlib.org/) -->
<svg height="351.576471pt" version="1.1" viewBox="0 0 417.648125 351.576471" width="417.648125pt" xmlns="http://www.w3.org/2000/svg" xmlns:xlink="http://www.w3.org/1999/xlink">
 <metadata>
  <rdf:RDF xmlns:cc="http://creativecommons.org/ns#" xmlns:dc="http://purl.org/dc/elements/1.1/" xmlns:rdf="http://www.w3.org/1999/02/22-rdf-syntax-ns#">
   <cc:Work>
    <dc:type rdf:resource="http://purl.org/dc/dcmitype/StillImage"/>
    <dc:date>2020-10-17T07:51:18.140894</dc:date>
    <dc:format>image/svg+xml</dc:format>
    <dc:creator>
     <cc:Agent>
      <dc:title>Matplotlib v3.3.2, https://matplotlib.org/</dc:title>
     </cc:Agent>
    </dc:creator>
   </cc:Work>
  </rdf:RDF>
 </metadata>
 <defs>
  <style type="text/css">*{stroke-linecap:butt;stroke-linejoin:round;}</style>
 </defs>
 <g id="figure_1">
  <g id="patch_1">
   <path d="M 0 351.576471 
L 417.648125 351.576471 
L 417.648125 0 
L 0 0 
z
" style="fill:#ffffff;"/>
  </g>
  <g id="axes_1">
   <g id="patch_2">
    <path d="M 53.328125 288.430125 
L 410.448125 288.430125 
L 410.448125 22.318125 
L 53.328125 22.318125 
z
" style="fill:#ffffff;"/>
   </g>
   <g id="PolyCollection_1">
    <defs>
     <path d="M 89.383328 -290.693381 
L 88.696922 -290.693381 
L 88.639797 -290.839345 
L 88.575498 -290.985308 
L 88.503559 -291.131272 
L 88.423554 -291.277236 
L 88.335119 -291.4232 
L 88.237963 -291.569163 
L 88.131881 -291.715127 
L 88.016772 -291.861091 
L 87.892651 -292.007054 
L 87.759656 -292.153018 
L 87.618065 -292.298982 
L 87.468296 -292.444946 
L 87.310913 -292.590909 
L 87.146625 -292.736873 
L 86.976283 -292.882837 
L 86.800869 -293.0288 
L 86.621486 -293.174764 
L 86.439339 -293.320728 
L 86.255717 -293.466692 
L 86.071964 -293.612655 
L 85.889459 -293.758619 
L 85.709579 -293.904583 
L 85.533674 -294.050546 
L 85.363034 -294.19651 
L 85.198858 -294.342474 
L 85.042226 -294.488438 
L 84.894073 -294.634401 
L 84.755167 -294.780365 
L 84.626087 -294.926329 
L 84.507218 -295.072293 
L 84.398735 -295.218256 
L 84.300607 -295.36422 
L 84.212603 -295.510184 
L 84.1343 -295.656147 
L 84.065099 -295.802111 
L 84.004255 -295.948075 
L 83.950894 -296.094039 
L 83.904052 -296.240002 
L 83.862702 -296.385966 
L 83.825794 -296.53193 
L 83.792288 -296.677893 
L 83.761191 -296.823857 
L 83.731587 -296.969821 
L 83.702672 -297.115785 
L 83.673777 -297.261748 
L 83.644392 -297.407712 
L 83.614188 -297.553676 
L 83.58302 -297.699639 
L 83.550944 -297.845603 
L 83.518207 -297.991567 
L 83.485254 -298.137531 
L 83.452705 -298.283494 
L 83.421351 -298.429458 
L 83.392124 -298.575422 
L 83.366081 -298.721385 
L 83.344369 -298.867349 
L 83.3282 -299.013313 
L 83.318817 -299.159277 
L 83.31746 -299.30524 
L 83.325336 -299.451204 
L 83.343582 -299.597168 
L 83.373237 -299.743132 
L 83.415212 -299.889095 
L 83.470263 -300.035059 
L 83.538973 -300.181023 
L 83.621726 -300.326986 
L 83.718702 -300.47295 
L 83.829862 -300.618914 
L 83.954948 -300.764878 
L 84.093484 -300.910841 
L 84.244782 -301.056805 
L 84.407957 -301.202769 
L 84.581941 -301.348732 
L 84.765504 -301.494696 
L 84.957282 -301.64066 
L 85.155801 -301.786624 
L 85.359508 -301.932587 
L 85.566803 -302.078551 
L 85.776067 -302.224515 
L 85.985695 -302.370478 
L 86.194127 -302.516442 
L 86.399871 -302.662406 
L 86.60153 -302.80837 
L 86.797825 -302.954333 
L 86.987607 -303.100297 
L 87.169876 -303.246261 
L 87.343787 -303.392224 
L 87.508656 -303.538188 
L 87.663961 -303.684152 
L 87.809338 -303.830116 
L 87.944577 -303.976079 
L 88.069612 -304.122043 
L 88.184506 -304.268007 
L 88.289444 -304.413971 
L 88.384713 -304.559934 
L 88.470686 -304.705898 
L 88.547811 -304.851862 
L 88.616589 -304.997825 
L 88.677563 -305.143789 
L 89.402687 -305.143789 
L 89.402687 -305.143789 
L 89.463661 -304.997825 
L 89.532439 -304.851862 
L 89.609564 -304.705898 
L 89.695537 -304.559934 
L 89.790806 -304.413971 
L 89.895744 -304.268007 
L 90.010638 -304.122043 
L 90.135673 -303.976079 
L 90.270912 -303.830116 
L 90.416289 -303.684152 
L 90.571594 -303.538188 
L 90.736463 -303.392224 
L 90.910374 -303.246261 
L 91.092643 -303.100297 
L 91.282425 -302.954333 
L 91.47872 -302.80837 
L 91.680379 -302.662406 
L 91.886123 -302.516442 
L 92.094555 -302.370478 
L 92.304183 -302.224515 
L 92.513447 -302.078551 
L 92.720742 -301.932587 
L 92.924449 -301.786624 
L 93.122968 -301.64066 
L 93.314746 -301.494696 
L 93.498309 -301.348732 
L 93.672293 -301.202769 
L 93.835468 -301.056805 
L 93.986766 -300.910841 
L 94.125302 -300.764878 
L 94.250388 -300.618914 
L 94.361548 -300.47295 
L 94.458524 -300.326986 
L 94.541277 -300.181023 
L 94.609987 -300.035059 
L 94.665038 -299.889095 
L 94.707013 -299.743132 
L 94.736668 -299.597168 
L 94.754914 -299.451204 
L 94.76279 -299.30524 
L 94.761433 -299.159277 
L 94.75205 -299.013313 
L 94.735881 -298.867349 
L 94.714169 -298.721385 
L 94.688126 -298.575422 
L 94.658899 -298.429458 
L 94.627545 -298.283494 
L 94.594996 -298.137531 
L 94.562043 -297.991567 
L 94.529306 -297.845603 
L 94.49723 -297.699639 
L 94.466062 -297.553676 
L 94.435858 -297.407712 
L 94.406473 -297.261748 
L 94.377578 -297.115785 
L 94.348663 -296.969821 
L 94.319059 -296.823857 
L 94.287962 -296.677893 
L 94.254456 -296.53193 
L 94.217548 -296.385966 
L 94.176198 -296.240002 
L 94.129356 -296.094039 
L 94.075995 -295.948075 
L 94.015151 -295.802111 
L 93.94595 -295.656147 
L 93.867647 -295.510184 
L 93.779643 -295.36422 
L 93.681515 -295.218256 
L 93.573032 -295.072293 
L 93.454163 -294.926329 
L 93.325083 -294.780365 
L 93.186177 -294.634401 
L 93.038024 -294.488438 
L 92.881392 -294.342474 
L 92.717216 -294.19651 
L 92.546576 -294.050546 
L 92.370671 -293.904583 
L 92.190791 -293.758619 
L 92.008286 -293.612655 
L 91.824533 -293.466692 
L 91.640911 -293.320728 
L 91.458764 -293.174764 
L 91.279381 -293.0288 
L 91.103967 -292.882837 
L 90.933625 -292.736873 
L 90.769337 -292.590909 
L 90.611954 -292.444946 
L 90.462185 -292.298982 
L 90.320594 -292.153018 
L 90.187599 -292.007054 
L 90.063478 -291.861091 
L 89.948369 -291.715127 
L 89.842287 -291.569163 
L 89.745131 -291.4232 
L 89.656696 -291.277236 
L 89.576691 -291.131272 
L 89.504752 -290.985308 
L 89.440453 -290.839345 
L 89.383328 -290.693381 
z
" id="mabc5616211" style="stroke:#3f3f3f;stroke-width:1.5;"/>
    </defs>
    <g clip-path="url(#p1d3843e263)">
     <use style="fill:#3274a1;stroke:#3f3f3f;stroke-width:1.5;" x="0" xlink:href="#mabc5616211" y="351.576471"/>
    </g>
   </g>
   <g id="PolyCollection_2">
    <defs>
     <path d="M 162.285662 -294.634542 
L 158.642588 -294.634542 
L 158.323801 -294.668329 
L 157.961929 -294.702117 
L 157.553617 -294.735905 
L 157.095703 -294.769692 
L 156.585306 -294.80348 
L 156.019931 -294.837268 
L 155.397576 -294.871056 
L 154.716843 -294.904843 
L 153.97704 -294.938631 
L 153.17829 -294.972419 
L 152.321622 -295.006206 
L 151.409052 -295.039994 
L 150.443648 -295.073782 
L 149.429573 -295.107569 
L 148.3721 -295.141357 
L 147.277608 -295.175145 
L 146.153536 -295.208933 
L 145.008315 -295.24272 
L 143.851263 -295.276508 
L 142.69245 -295.310296 
L 141.542531 -295.344083 
L 140.412555 -295.377871 
L 139.313754 -295.411659 
L 138.257308 -295.445446 
L 137.254109 -295.479234 
L 136.314518 -295.513022 
L 135.448122 -295.54681 
L 134.663516 -295.580597 
L 133.968092 -295.614385 
L 133.367869 -295.648173 
L 132.867344 -295.68196 
L 132.469393 -295.715748 
L 132.175214 -295.749536 
L 131.98431 -295.783323 
L 131.894525 -295.817111 
L 131.902123 -295.850899 
L 132.00191 -295.884687 
L 132.187396 -295.918474 
L 132.450987 -295.952262 
L 132.784204 -295.98605 
L 133.177921 -296.019837 
L 133.622609 -296.053625 
L 134.108586 -296.087413 
L 134.626257 -296.1212 
L 135.166342 -296.154988 
L 135.720078 -296.188776 
L 136.279402 -296.222563 
L 136.837102 -296.256351 
L 137.386926 -296.290139 
L 137.923669 -296.323927 
L 138.44322 -296.357714 
L 138.942574 -296.391502 
L 139.419813 -296.42529 
L 139.874066 -296.459077 
L 140.305434 -296.492865 
L 140.714905 -296.526653 
L 141.10425 -296.56044 
L 141.475899 -296.594228 
L 141.832827 -296.628016 
L 142.178419 -296.661804 
L 142.516344 -296.695591 
L 142.850432 -296.729379 
L 143.184548 -296.763167 
L 143.522481 -296.796954 
L 143.867838 -296.830742 
L 144.223948 -296.86453 
L 144.593777 -296.898317 
L 144.97986 -296.932105 
L 145.384232 -296.965893 
L 145.808394 -296.999681 
L 146.253272 -297.033468 
L 146.719202 -297.067256 
L 147.20593 -297.101044 
L 147.71262 -297.134831 
L 148.237881 -297.168619 
L 148.779803 -297.202407 
L 149.336014 -297.236194 
L 149.903736 -297.269982 
L 150.479858 -297.30377 
L 151.061015 -297.337558 
L 151.643669 -297.371345 
L 152.224196 -297.405133 
L 152.798966 -297.438921 
L 153.364432 -297.472708 
L 153.9172 -297.506496 
L 154.454103 -297.540284 
L 154.972259 -297.574071 
L 155.469119 -297.607859 
L 155.942511 -297.641647 
L 156.390659 -297.675435 
L 156.812204 -297.709222 
L 157.206199 -297.74301 
L 157.572106 -297.776798 
L 157.909774 -297.810585 
L 158.219416 -297.844373 
L 158.501567 -297.878161 
L 158.757054 -297.911948 
L 158.98695 -297.945736 
L 159.192524 -297.979524 
L 161.735726 -297.979524 
L 161.735726 -297.979524 
L 161.9413 -297.945736 
L 162.171196 -297.911948 
L 162.426683 -297.878161 
L 162.708834 -297.844373 
L 163.018476 -297.810585 
L 163.356144 -297.776798 
L 163.722051 -297.74301 
L 164.116046 -297.709222 
L 164.537591 -297.675435 
L 164.985739 -297.641647 
L 165.459131 -297.607859 
L 165.955991 -297.574071 
L 166.474147 -297.540284 
L 167.01105 -297.506496 
L 167.563818 -297.472708 
L 168.129284 -297.438921 
L 168.704054 -297.405133 
L 169.284581 -297.371345 
L 169.867235 -297.337558 
L 170.448392 -297.30377 
L 171.024514 -297.269982 
L 171.592236 -297.236194 
L 172.148447 -297.202407 
L 172.690369 -297.168619 
L 173.21563 -297.134831 
L 173.72232 -297.101044 
L 174.209048 -297.067256 
L 174.674978 -297.033468 
L 175.119856 -296.999681 
L 175.544018 -296.965893 
L 175.94839 -296.932105 
L 176.334473 -296.898317 
L 176.704302 -296.86453 
L 177.060412 -296.830742 
L 177.405769 -296.796954 
L 177.743702 -296.763167 
L 178.077818 -296.729379 
L 178.411906 -296.695591 
L 178.749831 -296.661804 
L 179.095423 -296.628016 
L 179.452351 -296.594228 
L 179.824 -296.56044 
L 180.213345 -296.526653 
L 180.622816 -296.492865 
L 181.054184 -296.459077 
L 181.508437 -296.42529 
L 181.985676 -296.391502 
L 182.48503 -296.357714 
L 183.004581 -296.323927 
L 183.541324 -296.290139 
L 184.091148 -296.256351 
L 184.648848 -296.222563 
L 185.208172 -296.188776 
L 185.761908 -296.154988 
L 186.301993 -296.1212 
L 186.819664 -296.087413 
L 187.305641 -296.053625 
L 187.750329 -296.019837 
L 188.144046 -295.98605 
L 188.477263 -295.952262 
L 188.740854 -295.918474 
L 188.92634 -295.884687 
L 189.026127 -295.850899 
L 189.033725 -295.817111 
L 188.94394 -295.783323 
L 188.753036 -295.749536 
L 188.458857 -295.715748 
L 188.060906 -295.68196 
L 187.560381 -295.648173 
L 186.960158 -295.614385 
L 186.264734 -295.580597 
L 185.480128 -295.54681 
L 184.613732 -295.513022 
L 183.674141 -295.479234 
L 182.670942 -295.445446 
L 181.614496 -295.411659 
L 180.515695 -295.377871 
L 179.385719 -295.344083 
L 178.2358 -295.310296 
L 177.076987 -295.276508 
L 175.919935 -295.24272 
L 174.774714 -295.208933 
L 173.650642 -295.175145 
L 172.55615 -295.141357 
L 171.498677 -295.107569 
L 170.484602 -295.073782 
L 169.519198 -295.039994 
L 168.606628 -295.006206 
L 167.74996 -294.972419 
L 166.95121 -294.938631 
L 166.211407 -294.904843 
L 165.530674 -294.871056 
L 164.908319 -294.837268 
L 164.342944 -294.80348 
L 163.832547 -294.769692 
L 163.374633 -294.735905 
L 162.966321 -294.702117 
L 162.604449 -294.668329 
L 162.285662 -294.634542 
z
" id="m47e15b5ae8" style="stroke:#3f3f3f;stroke-width:1.5;"/>
    </defs>
    <g clip-path="url(#p1d3843e263)">
     <use style="fill:#c7c7c7;stroke:#3f3f3f;stroke-width:1.5;" x="0" xlink:href="#m47e15b5ae8" y="351.576471"/>
    </g>
   </g>
   <g id="PolyCollection_3">
    <defs>
     <path d="M 231.961747 -258.772153 
L 231.814503 -258.772153 
L 231.802298 -259.361953 
L 231.788676 -259.951753 
L 231.773589 -260.541553 
L 231.75701 -261.131353 
L 231.738937 -261.721153 
L 231.719394 -262.310953 
L 231.698437 -262.900753 
L 231.676153 -263.490553 
L 231.652664 -264.080353 
L 231.628123 -264.670153 
L 231.602719 -265.259952 
L 231.576667 -265.849752 
L 231.550211 -266.439552 
L 231.523615 -267.029352 
L 231.497154 -267.619152 
L 231.471112 -268.208952 
L 231.445769 -268.798752 
L 231.421389 -269.388552 
L 231.398215 -269.978352 
L 231.376452 -270.568152 
L 231.356263 -271.157952 
L 231.337753 -271.747752 
L 231.320966 -272.337552 
L 231.305871 -272.927351 
L 231.292365 -273.517151 
L 231.280263 -274.106951 
L 231.269303 -274.696751 
L 231.259143 -275.286551 
L 231.249373 -275.876351 
L 231.239519 -276.466151 
L 231.229055 -277.055951 
L 231.217418 -277.645751 
L 231.204022 -278.235551 
L 231.18828 -278.825351 
L 231.169621 -279.415151 
L 231.147507 -280.004951 
L 231.12146 -280.594751 
L 231.091077 -281.18455 
L 231.056049 -281.77435 
L 231.016178 -282.36415 
L 230.971389 -282.95395 
L 230.921743 -283.54375 
L 230.867442 -284.13355 
L 230.80883 -284.72335 
L 230.746394 -285.31315 
L 230.680755 -285.90295 
L 230.612657 -286.49275 
L 230.542955 -287.08255 
L 230.472593 -287.67235 
L 230.402583 -288.26215 
L 230.333981 -288.851949 
L 230.267861 -289.441749 
L 230.205288 -290.031549 
L 230.147291 -290.621349 
L 230.094837 -291.211149 
L 230.048808 -291.800949 
L 230.00998 -292.390749 
L 229.979006 -292.980549 
L 229.956399 -293.570349 
L 229.942527 -294.160149 
L 229.937604 -294.749949 
L 229.941694 -295.339749 
L 229.954709 -295.929549 
L 229.976421 -296.519348 
L 230.006473 -297.109148 
L 230.04439 -297.698948 
L 230.089596 -298.288748 
L 230.141435 -298.878548 
L 230.199183 -299.468348 
L 230.262074 -300.058148 
L 230.329312 -300.647948 
L 230.40009 -301.237748 
L 230.473607 -301.827548 
L 230.549079 -302.417348 
L 230.625756 -303.007148 
L 230.702927 -303.596948 
L 230.779928 -304.186748 
L 230.856152 -304.776547 
L 230.931051 -305.366347 
L 231.004137 -305.956147 
L 231.074986 -306.545947 
L 231.143236 -307.135747 
L 231.208585 -307.725547 
L 231.270792 -308.315347 
L 231.329672 -308.905147 
L 231.385091 -309.494947 
L 231.436968 -310.084747 
L 231.485265 -310.674547 
L 231.529988 -311.264347 
L 231.571179 -311.854147 
L 231.608913 -312.443946 
L 231.643293 -313.033746 
L 231.67445 -313.623546 
L 231.702531 -314.213346 
L 231.727701 -314.803146 
L 231.750139 -315.392946 
L 231.770028 -315.982746 
L 231.78756 -316.572546 
L 231.802926 -317.162346 
L 231.973324 -317.162346 
L 231.973324 -317.162346 
L 231.98869 -316.572546 
L 232.006222 -315.982746 
L 232.026111 -315.392946 
L 232.048549 -314.803146 
L 232.073719 -314.213346 
L 232.1018 -313.623546 
L 232.132957 -313.033746 
L 232.167337 -312.443946 
L 232.205071 -311.854147 
L 232.246262 -311.264347 
L 232.290985 -310.674547 
L 232.339282 -310.084747 
L 232.391159 -309.494947 
L 232.446578 -308.905147 
L 232.505458 -308.315347 
L 232.567665 -307.725547 
L 232.633014 -307.135747 
L 232.701264 -306.545947 
L 232.772113 -305.956147 
L 232.845199 -305.366347 
L 232.920098 -304.776547 
L 232.996322 -304.186748 
L 233.073323 -303.596948 
L 233.150494 -303.007148 
L 233.227171 -302.417348 
L 233.302643 -301.827548 
L 233.37616 -301.237748 
L 233.446938 -300.647948 
L 233.514176 -300.058148 
L 233.577067 -299.468348 
L 233.634815 -298.878548 
L 233.686654 -298.288748 
L 233.73186 -297.698948 
L 233.769777 -297.109148 
L 233.799829 -296.519348 
L 233.821541 -295.929549 
L 233.834556 -295.339749 
L 233.838646 -294.749949 
L 233.833723 -294.160149 
L 233.819851 -293.570349 
L 233.797244 -292.980549 
L 233.76627 -292.390749 
L 233.727442 -291.800949 
L 233.681413 -291.211149 
L 233.628959 -290.621349 
L 233.570962 -290.031549 
L 233.508389 -289.441749 
L 233.442269 -288.851949 
L 233.373667 -288.26215 
L 233.303657 -287.67235 
L 233.233295 -287.08255 
L 233.163593 -286.49275 
L 233.095495 -285.90295 
L 233.029856 -285.31315 
L 232.96742 -284.72335 
L 232.908808 -284.13355 
L 232.854507 -283.54375 
L 232.804861 -282.95395 
L 232.760072 -282.36415 
L 232.720201 -281.77435 
L 232.685173 -281.18455 
L 232.65479 -280.594751 
L 232.628743 -280.004951 
L 232.606629 -279.415151 
L 232.58797 -278.825351 
L 232.572228 -278.235551 
L 232.558832 -277.645751 
L 232.547195 -277.055951 
L 232.536731 -276.466151 
L 232.526877 -275.876351 
L 232.517107 -275.286551 
L 232.506947 -274.696751 
L 232.495987 -274.106951 
L 232.483885 -273.517151 
L 232.470379 -272.927351 
L 232.455284 -272.337552 
L 232.438497 -271.747752 
L 232.419987 -271.157952 
L 232.399798 -270.568152 
L 232.378035 -269.978352 
L 232.354861 -269.388552 
L 232.330481 -268.798752 
L 232.305138 -268.208952 
L 232.279096 -267.619152 
L 232.252635 -267.029352 
L 232.226039 -266.439552 
L 232.199583 -265.849752 
L 232.173531 -265.259952 
L 232.148127 -264.670153 
L 232.123586 -264.080353 
L 232.100097 -263.490553 
L 232.077813 -262.900753 
L 232.056856 -262.310953 
L 232.037313 -261.721153 
L 232.01924 -261.131353 
L 232.002661 -260.541553 
L 231.987574 -259.951753 
L 231.973952 -259.361953 
L 231.961747 -258.772153 
z
" id="m8ffe176750" style="stroke:#3f3f3f;stroke-width:1.5;"/>
    </defs>
    <g clip-path="url(#p1d3843e263)">
     <use style="fill:#e1812c;stroke:#3f3f3f;stroke-width:1.5;" x="0" xlink:href="#m8ffe176750" y="351.576471"/>
    </g>
   </g>
   <g id="PolyCollection_4">
    <defs>
     <path d="M 303.389666 -215.776633 
L 303.234584 -215.776633 
L 303.222829 -216.793888 
L 303.209755 -217.811142 
L 303.195294 -218.828396 
L 303.179389 -219.84565 
L 303.161993 -220.862904 
L 303.143077 -221.880159 
L 303.122627 -222.897413 
L 303.100647 -223.914667 
L 303.077165 -224.931921 
L 303.052232 -225.949175 
L 303.025922 -226.966429 
L 302.998335 -227.983684 
L 302.9696 -229.000938 
L 302.939868 -230.018192 
L 302.909319 -231.035446 
L 302.878155 -232.0527 
L 302.8466 -233.069955 
L 302.8149 -234.087209 
L 302.783314 -235.104463 
L 302.752115 -236.121717 
L 302.721584 -237.138971 
L 302.692002 -238.156226 
L 302.66365 -239.17348 
L 302.6368 -240.190734 
L 302.61171 -241.207988 
L 302.58862 -242.225242 
L 302.567743 -243.242497 
L 302.549263 -244.259751 
L 302.533332 -245.277005 
L 302.520062 -246.294259 
L 302.509524 -247.311513 
L 302.501746 -248.328768 
L 302.496712 -249.346022 
L 302.494363 -250.363276 
L 302.494593 -251.38053 
L 302.497258 -252.397784 
L 302.502172 -253.415038 
L 302.509118 -254.432293 
L 302.517845 -255.449547 
L 302.528082 -256.466801 
L 302.539538 -257.484055 
L 302.55191 -258.501309 
L 302.564893 -259.518564 
L 302.578183 -260.535818 
L 302.591487 -261.553072 
L 302.60453 -262.570326 
L 302.617059 -263.58758 
L 302.62885 -264.604835 
L 302.639715 -265.622089 
L 302.649503 -266.639343 
L 302.658105 -267.656597 
L 302.665456 -268.673851 
L 302.671536 -269.691106 
L 302.676368 -270.70836 
L 302.680019 -271.725614 
L 302.682597 -272.742868 
L 302.684243 -273.760122 
L 302.685136 -274.777377 
L 302.685476 -275.794631 
L 302.685488 -276.811885 
L 302.68541 -277.829139 
L 302.685486 -278.846393 
L 302.685964 -279.863647 
L 302.687083 -280.880902 
L 302.689071 -281.898156 
L 302.692137 -282.91541 
L 302.696466 -283.932664 
L 302.702217 -284.949918 
L 302.709514 -285.967173 
L 302.718447 -286.984427 
L 302.729072 -288.001681 
L 302.741405 -289.018935 
L 302.755428 -290.036189 
L 302.771086 -291.053444 
L 302.788293 -292.070698 
L 302.80693 -293.087952 
L 302.826855 -294.105206 
L 302.847903 -295.12246 
L 302.869892 -296.139715 
L 302.892626 -297.156969 
L 302.915903 -298.174223 
L 302.939517 -299.191477 
L 302.963264 -300.208731 
L 302.986945 -301.225986 
L 303.010374 -302.24324 
L 303.033373 -303.260494 
L 303.055783 -304.277748 
L 303.077462 -305.295002 
L 303.098287 -306.312257 
L 303.118156 -307.329511 
L 303.136986 -308.346765 
L 303.154716 -309.364019 
L 303.171303 -310.381273 
L 303.186724 -311.398527 
L 303.200974 -312.415782 
L 303.21406 -313.433036 
L 303.226008 -314.45029 
L 303.236851 -315.467544 
L 303.246635 -316.484798 
L 303.377615 -316.484798 
L 303.377615 -316.484798 
L 303.387399 -315.467544 
L 303.398242 -314.45029 
L 303.41019 -313.433036 
L 303.423276 -312.415782 
L 303.437526 -311.398527 
L 303.452947 -310.381273 
L 303.469534 -309.364019 
L 303.487264 -308.346765 
L 303.506094 -307.329511 
L 303.525963 -306.312257 
L 303.546788 -305.295002 
L 303.568467 -304.277748 
L 303.590877 -303.260494 
L 303.613876 -302.24324 
L 303.637305 -301.225986 
L 303.660986 -300.208731 
L 303.684733 -299.191477 
L 303.708347 -298.174223 
L 303.731624 -297.156969 
L 303.754358 -296.139715 
L 303.776347 -295.12246 
L 303.797395 -294.105206 
L 303.81732 -293.087952 
L 303.835957 -292.070698 
L 303.853164 -291.053444 
L 303.868822 -290.036189 
L 303.882845 -289.018935 
L 303.895178 -288.001681 
L 303.905803 -286.984427 
L 303.914736 -285.967173 
L 303.922033 -284.949918 
L 303.927784 -283.932664 
L 303.932113 -282.91541 
L 303.935179 -281.898156 
L 303.937167 -280.880902 
L 303.938286 -279.863647 
L 303.938764 -278.846393 
L 303.93884 -277.829139 
L 303.938762 -276.811885 
L 303.938774 -275.794631 
L 303.939114 -274.777377 
L 303.940007 -273.760122 
L 303.941653 -272.742868 
L 303.944231 -271.725614 
L 303.947882 -270.70836 
L 303.952714 -269.691106 
L 303.958794 -268.673851 
L 303.966145 -267.656597 
L 303.974747 -266.639343 
L 303.984535 -265.622089 
L 303.9954 -264.604835 
L 304.007191 -263.58758 
L 304.01972 -262.570326 
L 304.032763 -261.553072 
L 304.046067 -260.535818 
L 304.059357 -259.518564 
L 304.07234 -258.501309 
L 304.084712 -257.484055 
L 304.096168 -256.466801 
L 304.106405 -255.449547 
L 304.115132 -254.432293 
L 304.122078 -253.415038 
L 304.126992 -252.397784 
L 304.129657 -251.38053 
L 304.129887 -250.363276 
L 304.127538 -249.346022 
L 304.122504 -248.328768 
L 304.114726 -247.311513 
L 304.104188 -246.294259 
L 304.090918 -245.277005 
L 304.074987 -244.259751 
L 304.056507 -243.242497 
L 304.03563 -242.225242 
L 304.01254 -241.207988 
L 303.98745 -240.190734 
L 303.9606 -239.17348 
L 303.932248 -238.156226 
L 303.902666 -237.138971 
L 303.872135 -236.121717 
L 303.840936 -235.104463 
L 303.80935 -234.087209 
L 303.77765 -233.069955 
L 303.746095 -232.0527 
L 303.714931 -231.035446 
L 303.684382 -230.018192 
L 303.65465 -229.000938 
L 303.625915 -227.983684 
L 303.598328 -226.966429 
L 303.572018 -225.949175 
L 303.547085 -224.931921 
L 303.523603 -223.914667 
L 303.501623 -222.897413 
L 303.481173 -221.880159 
L 303.462257 -220.862904 
L 303.444861 -219.84565 
L 303.428956 -218.828396 
L 303.414495 -217.811142 
L 303.401421 -216.793888 
L 303.389666 -215.776633 
z
" id="mca9bfe869d" style="stroke:#3f3f3f;stroke-width:1.5;"/>
    </defs>
    <g clip-path="url(#p1d3843e263)">
     <use style="fill:#9fd495;stroke:#3f3f3f;stroke-width:1.5;" x="0" xlink:href="#mca9bfe869d" y="351.576471"/>
    </g>
   </g>
   <g id="matplotlib.axis_1">
    <g id="xtick_1">
     <g id="line2d_1">
      <defs>
       <path d="M 0 0 
L 0 3.5 
" id="m50510ef3d9" style="stroke:#000000;stroke-width:0.8;"/>
      </defs>
      <g>
       <use style="stroke:#000000;stroke-width:0.8;" x="89.040125" xlink:href="#m50510ef3d9" y="288.430125"/>
      </g>
     </g>
     <g id="text_1">
      <!-- aflplusplus -->
      <g transform="translate(41.431118 328.897284)rotate(-30)scale(0.1 -0.1)">
       <defs>
        <path d="M 34.28125 27.484375 
Q 23.390625 27.484375 19.1875 25 
Q 14.984375 22.515625 14.984375 16.5 
Q 14.984375 11.71875 18.140625 8.90625 
Q 21.296875 6.109375 26.703125 6.109375 
Q 34.1875 6.109375 38.703125 11.40625 
Q 43.21875 16.703125 43.21875 25.484375 
L 43.21875 27.484375 
z
M 52.203125 31.203125 
L 52.203125 0 
L 43.21875 0 
L 43.21875 8.296875 
Q 40.140625 3.328125 35.546875 0.953125 
Q 30.953125 -1.421875 24.3125 -1.421875 
Q 15.921875 -1.421875 10.953125 3.296875 
Q 6 8.015625 6 15.921875 
Q 6 25.140625 12.171875 29.828125 
Q 18.359375 34.515625 30.609375 34.515625 
L 43.21875 34.515625 
L 43.21875 35.40625 
Q 43.21875 41.609375 39.140625 45 
Q 35.0625 48.390625 27.6875 48.390625 
Q 23 48.390625 18.546875 47.265625 
Q 14.109375 46.140625 10.015625 43.890625 
L 10.015625 52.203125 
Q 14.9375 54.109375 19.578125 55.046875 
Q 24.21875 56 28.609375 56 
Q 40.484375 56 46.34375 49.84375 
Q 52.203125 43.703125 52.203125 31.203125 
z
" id="DejaVuSans-97"/>
        <path d="M 37.109375 75.984375 
L 37.109375 68.5 
L 28.515625 68.5 
Q 23.6875 68.5 21.796875 66.546875 
Q 19.921875 64.59375 19.921875 59.515625 
L 19.921875 54.6875 
L 34.71875 54.6875 
L 34.71875 47.703125 
L 19.921875 47.703125 
L 19.921875 0 
L 10.890625 0 
L 10.890625 47.703125 
L 2.296875 47.703125 
L 2.296875 54.6875 
L 10.890625 54.6875 
L 10.890625 58.5 
Q 10.890625 67.625 15.140625 71.796875 
Q 19.390625 75.984375 28.609375 75.984375 
z
" id="DejaVuSans-102"/>
        <path d="M 9.421875 75.984375 
L 18.40625 75.984375 
L 18.40625 0 
L 9.421875 0 
z
" id="DejaVuSans-108"/>
        <path d="M 18.109375 8.203125 
L 18.109375 -20.796875 
L 9.078125 -20.796875 
L 9.078125 54.6875 
L 18.109375 54.6875 
L 18.109375 46.390625 
Q 20.953125 51.265625 25.265625 53.625 
Q 29.59375 56 35.59375 56 
Q 45.5625 56 51.78125 48.09375 
Q 58.015625 40.1875 58.015625 27.296875 
Q 58.015625 14.40625 51.78125 6.484375 
Q 45.5625 -1.421875 35.59375 -1.421875 
Q 29.59375 -1.421875 25.265625 0.953125 
Q 20.953125 3.328125 18.109375 8.203125 
z
M 48.6875 27.296875 
Q 48.6875 37.203125 44.609375 42.84375 
Q 40.53125 48.484375 33.40625 48.484375 
Q 26.265625 48.484375 22.1875 42.84375 
Q 18.109375 37.203125 18.109375 27.296875 
Q 18.109375 17.390625 22.1875 11.75 
Q 26.265625 6.109375 33.40625 6.109375 
Q 40.53125 6.109375 44.609375 11.75 
Q 48.6875 17.390625 48.6875 27.296875 
z
" id="DejaVuSans-112"/>
        <path d="M 8.5 21.578125 
L 8.5 54.6875 
L 17.484375 54.6875 
L 17.484375 21.921875 
Q 17.484375 14.15625 20.5 10.265625 
Q 23.53125 6.390625 29.59375 6.390625 
Q 36.859375 6.390625 41.078125 11.03125 
Q 45.3125 15.671875 45.3125 23.6875 
L 45.3125 54.6875 
L 54.296875 54.6875 
L 54.296875 0 
L 45.3125 0 
L 45.3125 8.40625 
Q 42.046875 3.421875 37.71875 1 
Q 33.40625 -1.421875 27.6875 -1.421875 
Q 18.265625 -1.421875 13.375 4.4375 
Q 8.5 10.296875 8.5 21.578125 
z
M 31.109375 56 
z
" id="DejaVuSans-117"/>
        <path d="M 44.28125 53.078125 
L 44.28125 44.578125 
Q 40.484375 46.53125 36.375 47.5 
Q 32.28125 48.484375 27.875 48.484375 
Q 21.1875 48.484375 17.84375 46.4375 
Q 14.5 44.390625 14.5 40.28125 
Q 14.5 37.15625 16.890625 35.375 
Q 19.28125 33.59375 26.515625 31.984375 
L 29.59375 31.296875 
Q 39.15625 29.25 43.1875 25.515625 
Q 47.21875 21.78125 47.21875 15.09375 
Q 47.21875 7.46875 41.1875 3.015625 
Q 35.15625 -1.421875 24.609375 -1.421875 
Q 20.21875 -1.421875 15.453125 -0.5625 
Q 10.6875 0.296875 5.421875 2 
L 5.421875 11.28125 
Q 10.40625 8.6875 15.234375 7.390625 
Q 20.0625 6.109375 24.8125 6.109375 
Q 31.15625 6.109375 34.5625 8.28125 
Q 37.984375 10.453125 37.984375 14.40625 
Q 37.984375 18.0625 35.515625 20.015625 
Q 33.0625 21.96875 24.703125 23.78125 
L 21.578125 24.515625 
Q 13.234375 26.265625 9.515625 29.90625 
Q 5.8125 33.546875 5.8125 39.890625 
Q 5.8125 47.609375 11.28125 51.796875 
Q 16.75 56 26.8125 56 
Q 31.78125 56 36.171875 55.265625 
Q 40.578125 54.546875 44.28125 53.078125 
z
" id="DejaVuSans-115"/>
       </defs>
       <use xlink:href="#DejaVuSans-97"/>
       <use x="61.279297" xlink:href="#DejaVuSans-102"/>
       <use x="96.484375" xlink:href="#DejaVuSans-108"/>
       <use x="124.267578" xlink:href="#DejaVuSans-112"/>
       <use x="187.744141" xlink:href="#DejaVuSans-108"/>
       <use x="215.527344" xlink:href="#DejaVuSans-117"/>
       <use x="278.90625" xlink:href="#DejaVuSans-115"/>
       <use x="331.005859" xlink:href="#DejaVuSans-112"/>
       <use x="394.482422" xlink:href="#DejaVuSans-108"/>
       <use x="422.265625" xlink:href="#DejaVuSans-117"/>
       <use x="485.644531" xlink:href="#DejaVuSans-115"/>
      </g>
     </g>
    </g>
    <g id="xtick_2">
     <g id="line2d_2">
      <g>
       <use style="stroke:#000000;stroke-width:0.8;" x="160.464125" xlink:href="#m50510ef3d9" y="288.430125"/>
      </g>
     </g>
     <g id="text_2">
      <!-- lafintel -->
      <g transform="translate(129.63842 319.20744)rotate(-30)scale(0.1 -0.1)">
       <defs>
        <path d="M 9.421875 54.6875 
L 18.40625 54.6875 
L 18.40625 0 
L 9.421875 0 
z
M 9.421875 75.984375 
L 18.40625 75.984375 
L 18.40625 64.59375 
L 9.421875 64.59375 
z
" id="DejaVuSans-105"/>
        <path d="M 54.890625 33.015625 
L 54.890625 0 
L 45.90625 0 
L 45.90625 32.71875 
Q 45.90625 40.484375 42.875 44.328125 
Q 39.84375 48.1875 33.796875 48.1875 
Q 26.515625 48.1875 22.3125 43.546875 
Q 18.109375 38.921875 18.109375 30.90625 
L 18.109375 0 
L 9.078125 0 
L 9.078125 54.6875 
L 18.109375 54.6875 
L 18.109375 46.1875 
Q 21.34375 51.125 25.703125 53.5625 
Q 30.078125 56 35.796875 56 
Q 45.21875 56 50.046875 50.171875 
Q 54.890625 44.34375 54.890625 33.015625 
z
" id="DejaVuSans-110"/>
        <path d="M 18.3125 70.21875 
L 18.3125 54.6875 
L 36.8125 54.6875 
L 36.8125 47.703125 
L 18.3125 47.703125 
L 18.3125 18.015625 
Q 18.3125 11.328125 20.140625 9.421875 
Q 21.96875 7.515625 27.59375 7.515625 
L 36.8125 7.515625 
L 36.8125 0 
L 27.59375 0 
Q 17.1875 0 13.234375 3.875 
Q 9.28125 7.765625 9.28125 18.015625 
L 9.28125 47.703125 
L 2.6875 47.703125 
L 2.6875 54.6875 
L 9.28125 54.6875 
L 9.28125 70.21875 
z
" id="DejaVuSans-116"/>
        <path d="M 56.203125 29.59375 
L 56.203125 25.203125 
L 14.890625 25.203125 
Q 15.484375 15.921875 20.484375 11.0625 
Q 25.484375 6.203125 34.421875 6.203125 
Q 39.59375 6.203125 44.453125 7.46875 
Q 49.3125 8.734375 54.109375 11.28125 
L 54.109375 2.78125 
Q 49.265625 0.734375 44.1875 -0.34375 
Q 39.109375 -1.421875 33.890625 -1.421875 
Q 20.796875 -1.421875 13.15625 6.1875 
Q 5.515625 13.8125 5.515625 26.8125 
Q 5.515625 40.234375 12.765625 48.109375 
Q 20.015625 56 32.328125 56 
Q 43.359375 56 49.78125 48.890625 
Q 56.203125 41.796875 56.203125 29.59375 
z
M 47.21875 32.234375 
Q 47.125 39.59375 43.09375 43.984375 
Q 39.0625 48.390625 32.421875 48.390625 
Q 24.90625 48.390625 20.390625 44.140625 
Q 15.875 39.890625 15.1875 32.171875 
z
" id="DejaVuSans-101"/>
       </defs>
       <use xlink:href="#DejaVuSans-108"/>
       <use x="27.783203" xlink:href="#DejaVuSans-97"/>
       <use x="89.0625" xlink:href="#DejaVuSans-102"/>
       <use x="124.267578" xlink:href="#DejaVuSans-105"/>
       <use x="152.050781" xlink:href="#DejaVuSans-110"/>
       <use x="215.429688" xlink:href="#DejaVuSans-116"/>
       <use x="254.638672" xlink:href="#DejaVuSans-101"/>
       <use x="316.162109" xlink:href="#DejaVuSans-108"/>
      </g>
     </g>
    </g>
    <g id="xtick_3">
     <g id="line2d_3">
      <g>
       <use style="stroke:#000000;stroke-width:0.8;" x="231.888125" xlink:href="#m50510ef3d9" y="288.430125"/>
      </g>
     </g>
     <g id="text_3">
      <!-- libfuzzer -->
      <g transform="translate(194.021904 323.272284)rotate(-30)scale(0.1 -0.1)">
       <defs>
        <path d="M 48.6875 27.296875 
Q 48.6875 37.203125 44.609375 42.84375 
Q 40.53125 48.484375 33.40625 48.484375 
Q 26.265625 48.484375 22.1875 42.84375 
Q 18.109375 37.203125 18.109375 27.296875 
Q 18.109375 17.390625 22.1875 11.75 
Q 26.265625 6.109375 33.40625 6.109375 
Q 40.53125 6.109375 44.609375 11.75 
Q 48.6875 17.390625 48.6875 27.296875 
z
M 18.109375 46.390625 
Q 20.953125 51.265625 25.265625 53.625 
Q 29.59375 56 35.59375 56 
Q 45.5625 56 51.78125 48.09375 
Q 58.015625 40.1875 58.015625 27.296875 
Q 58.015625 14.40625 51.78125 6.484375 
Q 45.5625 -1.421875 35.59375 -1.421875 
Q 29.59375 -1.421875 25.265625 0.953125 
Q 20.953125 3.328125 18.109375 8.203125 
L 18.109375 0 
L 9.078125 0 
L 9.078125 75.984375 
L 18.109375 75.984375 
z
" id="DejaVuSans-98"/>
        <path d="M 5.515625 54.6875 
L 48.1875 54.6875 
L 48.1875 46.484375 
L 14.40625 7.171875 
L 48.1875 7.171875 
L 48.1875 0 
L 4.296875 0 
L 4.296875 8.203125 
L 38.09375 47.515625 
L 5.515625 47.515625 
z
" id="DejaVuSans-122"/>
        <path d="M 41.109375 46.296875 
Q 39.59375 47.171875 37.8125 47.578125 
Q 36.03125 48 33.890625 48 
Q 26.265625 48 22.1875 43.046875 
Q 18.109375 38.09375 18.109375 28.8125 
L 18.109375 0 
L 9.078125 0 
L 9.078125 54.6875 
L 18.109375 54.6875 
L 18.109375 46.1875 
Q 20.953125 51.171875 25.484375 53.578125 
Q 30.03125 56 36.53125 56 
Q 37.453125 56 38.578125 55.875 
Q 39.703125 55.765625 41.0625 55.515625 
z
" id="DejaVuSans-114"/>
       </defs>
       <use xlink:href="#DejaVuSans-108"/>
       <use x="27.783203" xlink:href="#DejaVuSans-105"/>
       <use x="55.566406" xlink:href="#DejaVuSans-98"/>
       <use x="119.042969" xlink:href="#DejaVuSans-102"/>
       <use x="154.248047" xlink:href="#DejaVuSans-117"/>
       <use x="217.626953" xlink:href="#DejaVuSans-122"/>
       <use x="270.117188" xlink:href="#DejaVuSans-122"/>
       <use x="322.607422" xlink:href="#DejaVuSans-101"/>
       <use x="384.130859" xlink:href="#DejaVuSans-114"/>
      </g>
     </g>
    </g>
    <g id="xtick_4">
     <g id="line2d_4">
      <g>
       <use style="stroke:#000000;stroke-width:0.8;" x="303.312125" xlink:href="#m50510ef3d9" y="288.430125"/>
      </g>
     </g>
     <g id="text_4">
      <!-- honggfuzz -->
      <g transform="translate(257.372924 327.933221)rotate(-30)scale(0.1 -0.1)">
       <defs>
        <path d="M 54.890625 33.015625 
L 54.890625 0 
L 45.90625 0 
L 45.90625 32.71875 
Q 45.90625 40.484375 42.875 44.328125 
Q 39.84375 48.1875 33.796875 48.1875 
Q 26.515625 48.1875 22.3125 43.546875 
Q 18.109375 38.921875 18.109375 30.90625 
L 18.109375 0 
L 9.078125 0 
L 9.078125 75.984375 
L 18.109375 75.984375 
L 18.109375 46.1875 
Q 21.34375 51.125 25.703125 53.5625 
Q 30.078125 56 35.796875 56 
Q 45.21875 56 50.046875 50.171875 
Q 54.890625 44.34375 54.890625 33.015625 
z
" id="DejaVuSans-104"/>
        <path d="M 30.609375 48.390625 
Q 23.390625 48.390625 19.1875 42.75 
Q 14.984375 37.109375 14.984375 27.296875 
Q 14.984375 17.484375 19.15625 11.84375 
Q 23.34375 6.203125 30.609375 6.203125 
Q 37.796875 6.203125 41.984375 11.859375 
Q 46.1875 17.53125 46.1875 27.296875 
Q 46.1875 37.015625 41.984375 42.703125 
Q 37.796875 48.390625 30.609375 48.390625 
z
M 30.609375 56 
Q 42.328125 56 49.015625 48.375 
Q 55.71875 40.765625 55.71875 27.296875 
Q 55.71875 13.875 49.015625 6.21875 
Q 42.328125 -1.421875 30.609375 -1.421875 
Q 18.84375 -1.421875 12.171875 6.21875 
Q 5.515625 13.875 5.515625 27.296875 
Q 5.515625 40.765625 12.171875 48.375 
Q 18.84375 56 30.609375 56 
z
" id="DejaVuSans-111"/>
        <path d="M 45.40625 27.984375 
Q 45.40625 37.75 41.375 43.109375 
Q 37.359375 48.484375 30.078125 48.484375 
Q 22.859375 48.484375 18.828125 43.109375 
Q 14.796875 37.75 14.796875 27.984375 
Q 14.796875 18.265625 18.828125 12.890625 
Q 22.859375 7.515625 30.078125 7.515625 
Q 37.359375 7.515625 41.375 12.890625 
Q 45.40625 18.265625 45.40625 27.984375 
z
M 54.390625 6.78125 
Q 54.390625 -7.171875 48.1875 -13.984375 
Q 42 -20.796875 29.203125 -20.796875 
Q 24.46875 -20.796875 20.265625 -20.09375 
Q 16.0625 -19.390625 12.109375 -17.921875 
L 12.109375 -9.1875 
Q 16.0625 -11.328125 19.921875 -12.34375 
Q 23.78125 -13.375 27.78125 -13.375 
Q 36.625 -13.375 41.015625 -8.765625 
Q 45.40625 -4.15625 45.40625 5.171875 
L 45.40625 9.625 
Q 42.625 4.78125 38.28125 2.390625 
Q 33.9375 0 27.875 0 
Q 17.828125 0 11.671875 7.65625 
Q 5.515625 15.328125 5.515625 27.984375 
Q 5.515625 40.671875 11.671875 48.328125 
Q 17.828125 56 27.875 56 
Q 33.9375 56 38.28125 53.609375 
Q 42.625 51.21875 45.40625 46.390625 
L 45.40625 54.6875 
L 54.390625 54.6875 
z
" id="DejaVuSans-103"/>
       </defs>
       <use xlink:href="#DejaVuSans-104"/>
       <use x="63.378906" xlink:href="#DejaVuSans-111"/>
       <use x="124.560547" xlink:href="#DejaVuSans-110"/>
       <use x="187.939453" xlink:href="#DejaVuSans-103"/>
       <use x="251.416016" xlink:href="#DejaVuSans-103"/>
       <use x="314.892578" xlink:href="#DejaVuSans-102"/>
       <use x="350.097656" xlink:href="#DejaVuSans-117"/>
       <use x="413.476562" xlink:href="#DejaVuSans-122"/>
       <use x="465.966797" xlink:href="#DejaVuSans-122"/>
      </g>
     </g>
    </g>
    <g id="xtick_5">
     <g id="line2d_5">
      <g>
       <use style="stroke:#000000;stroke-width:0.8;" x="374.736125" xlink:href="#m50510ef3d9" y="288.430125"/>
      </g>
     </g>
     <g id="text_5">
      <!-- klee -->
      <g transform="translate(355.618001 312.448065)rotate(-30)scale(0.1 -0.1)">
       <defs>
        <path d="M 9.078125 75.984375 
L 18.109375 75.984375 
L 18.109375 31.109375 
L 44.921875 54.6875 
L 56.390625 54.6875 
L 27.390625 29.109375 
L 57.625 0 
L 45.90625 0 
L 18.109375 26.703125 
L 18.109375 0 
L 9.078125 0 
z
" id="DejaVuSans-107"/>
       </defs>
       <use xlink:href="#DejaVuSans-107"/>
       <use x="57.910156" xlink:href="#DejaVuSans-108"/>
       <use x="85.693359" xlink:href="#DejaVuSans-101"/>
       <use x="147.216797" xlink:href="#DejaVuSans-101"/>
      </g>
     </g>
    </g>
    <g id="text_6">
     <!-- Fuzzer (highest median coverage on the left) -->
     <g transform="translate(119.270156 342.296783)scale(0.1 -0.1)">
      <defs>
       <path d="M 9.8125 72.90625 
L 51.703125 72.90625 
L 51.703125 64.59375 
L 19.671875 64.59375 
L 19.671875 43.109375 
L 48.578125 43.109375 
L 48.578125 34.8125 
L 19.671875 34.8125 
L 19.671875 0 
L 9.8125 0 
z
" id="DejaVuSans-70"/>
       <path id="DejaVuSans-32"/>
       <path d="M 31 75.875 
Q 24.46875 64.65625 21.28125 53.65625 
Q 18.109375 42.671875 18.109375 31.390625 
Q 18.109375 20.125 21.3125 9.0625 
Q 24.515625 -2 31 -13.1875 
L 23.1875 -13.1875 
Q 15.875 -1.703125 12.234375 9.375 
Q 8.59375 20.453125 8.59375 31.390625 
Q 8.59375 42.28125 12.203125 53.3125 
Q 15.828125 64.359375 23.1875 75.875 
z
" id="DejaVuSans-40"/>
       <path d="M 52 44.1875 
Q 55.375 50.25 60.0625 53.125 
Q 64.75 56 71.09375 56 
Q 79.640625 56 84.28125 50.015625 
Q 88.921875 44.046875 88.921875 33.015625 
L 88.921875 0 
L 79.890625 0 
L 79.890625 32.71875 
Q 79.890625 40.578125 77.09375 44.375 
Q 74.3125 48.1875 68.609375 48.1875 
Q 61.625 48.1875 57.5625 43.546875 
Q 53.515625 38.921875 53.515625 30.90625 
L 53.515625 0 
L 44.484375 0 
L 44.484375 32.71875 
Q 44.484375 40.625 41.703125 44.40625 
Q 38.921875 48.1875 33.109375 48.1875 
Q 26.21875 48.1875 22.15625 43.53125 
Q 18.109375 38.875 18.109375 30.90625 
L 18.109375 0 
L 9.078125 0 
L 9.078125 54.6875 
L 18.109375 54.6875 
L 18.109375 46.1875 
Q 21.1875 51.21875 25.484375 53.609375 
Q 29.78125 56 35.6875 56 
Q 41.65625 56 45.828125 52.96875 
Q 50 49.953125 52 44.1875 
z
" id="DejaVuSans-109"/>
       <path d="M 45.40625 46.390625 
L 45.40625 75.984375 
L 54.390625 75.984375 
L 54.390625 0 
L 45.40625 0 
L 45.40625 8.203125 
Q 42.578125 3.328125 38.25 0.953125 
Q 33.9375 -1.421875 27.875 -1.421875 
Q 17.96875 -1.421875 11.734375 6.484375 
Q 5.515625 14.40625 5.515625 27.296875 
Q 5.515625 40.1875 11.734375 48.09375 
Q 17.96875 56 27.875 56 
Q 33.9375 56 38.25 53.625 
Q 42.578125 51.265625 45.40625 46.390625 
z
M 14.796875 27.296875 
Q 14.796875 17.390625 18.875 11.75 
Q 22.953125 6.109375 30.078125 6.109375 
Q 37.203125 6.109375 41.296875 11.75 
Q 45.40625 17.390625 45.40625 27.296875 
Q 45.40625 37.203125 41.296875 42.84375 
Q 37.203125 48.484375 30.078125 48.484375 
Q 22.953125 48.484375 18.875 42.84375 
Q 14.796875 37.203125 14.796875 27.296875 
z
" id="DejaVuSans-100"/>
       <path d="M 48.78125 52.59375 
L 48.78125 44.1875 
Q 44.96875 46.296875 41.140625 47.34375 
Q 37.3125 48.390625 33.40625 48.390625 
Q 24.65625 48.390625 19.8125 42.84375 
Q 14.984375 37.3125 14.984375 27.296875 
Q 14.984375 17.28125 19.8125 11.734375 
Q 24.65625 6.203125 33.40625 6.203125 
Q 37.3125 6.203125 41.140625 7.25 
Q 44.96875 8.296875 48.78125 10.40625 
L 48.78125 2.09375 
Q 45.015625 0.34375 40.984375 -0.53125 
Q 36.96875 -1.421875 32.421875 -1.421875 
Q 20.0625 -1.421875 12.78125 6.34375 
Q 5.515625 14.109375 5.515625 27.296875 
Q 5.515625 40.671875 12.859375 48.328125 
Q 20.21875 56 33.015625 56 
Q 37.15625 56 41.109375 55.140625 
Q 45.0625 54.296875 48.78125 52.59375 
z
" id="DejaVuSans-99"/>
       <path d="M 2.984375 54.6875 
L 12.5 54.6875 
L 29.59375 8.796875 
L 46.6875 54.6875 
L 56.203125 54.6875 
L 35.6875 0 
L 23.484375 0 
z
" id="DejaVuSans-118"/>
       <path d="M 8.015625 75.875 
L 15.828125 75.875 
Q 23.140625 64.359375 26.78125 53.3125 
Q 30.421875 42.28125 30.421875 31.390625 
Q 30.421875 20.453125 26.78125 9.375 
Q 23.140625 -1.703125 15.828125 -13.1875 
L 8.015625 -13.1875 
Q 14.5 -2 17.703125 9.0625 
Q 20.90625 20.125 20.90625 31.390625 
Q 20.90625 42.671875 17.703125 53.65625 
Q 14.5 64.65625 8.015625 75.875 
z
" id="DejaVuSans-41"/>
      </defs>
      <use xlink:href="#DejaVuSans-70"/>
      <use x="52.019531" xlink:href="#DejaVuSans-117"/>
      <use x="115.398438" xlink:href="#DejaVuSans-122"/>
      <use x="167.888672" xlink:href="#DejaVuSans-122"/>
      <use x="220.378906" xlink:href="#DejaVuSans-101"/>
      <use x="281.902344" xlink:href="#DejaVuSans-114"/>
      <use x="323.015625" xlink:href="#DejaVuSans-32"/>
      <use x="354.802734" xlink:href="#DejaVuSans-40"/>
      <use x="393.816406" xlink:href="#DejaVuSans-104"/>
      <use x="457.195312" xlink:href="#DejaVuSans-105"/>
      <use x="484.978516" xlink:href="#DejaVuSans-103"/>
      <use x="548.455078" xlink:href="#DejaVuSans-104"/>
      <use x="611.833984" xlink:href="#DejaVuSans-101"/>
      <use x="673.357422" xlink:href="#DejaVuSans-115"/>
      <use x="725.457031" xlink:href="#DejaVuSans-116"/>
      <use x="764.666016" xlink:href="#DejaVuSans-32"/>
      <use x="796.453125" xlink:href="#DejaVuSans-109"/>
      <use x="893.865234" xlink:href="#DejaVuSans-101"/>
      <use x="955.388672" xlink:href="#DejaVuSans-100"/>
      <use x="1018.865234" xlink:href="#DejaVuSans-105"/>
      <use x="1046.648438" xlink:href="#DejaVuSans-97"/>
      <use x="1107.927734" xlink:href="#DejaVuSans-110"/>
      <use x="1171.306641" xlink:href="#DejaVuSans-32"/>
      <use x="1203.09375" xlink:href="#DejaVuSans-99"/>
      <use x="1258.074219" xlink:href="#DejaVuSans-111"/>
      <use x="1319.255859" xlink:href="#DejaVuSans-118"/>
      <use x="1378.435547" xlink:href="#DejaVuSans-101"/>
      <use x="1439.958984" xlink:href="#DejaVuSans-114"/>
      <use x="1481.072266" xlink:href="#DejaVuSans-97"/>
      <use x="1542.351562" xlink:href="#DejaVuSans-103"/>
      <use x="1605.828125" xlink:href="#DejaVuSans-101"/>
      <use x="1667.351562" xlink:href="#DejaVuSans-32"/>
      <use x="1699.138672" xlink:href="#DejaVuSans-111"/>
      <use x="1760.320312" xlink:href="#DejaVuSans-110"/>
      <use x="1823.699219" xlink:href="#DejaVuSans-32"/>
      <use x="1855.486328" xlink:href="#DejaVuSans-116"/>
      <use x="1894.695312" xlink:href="#DejaVuSans-104"/>
      <use x="1958.074219" xlink:href="#DejaVuSans-101"/>
      <use x="2019.597656" xlink:href="#DejaVuSans-32"/>
      <use x="2051.384766" xlink:href="#DejaVuSans-108"/>
      <use x="2079.167969" xlink:href="#DejaVuSans-101"/>
      <use x="2140.691406" xlink:href="#DejaVuSans-102"/>
      <use x="2174.146484" xlink:href="#DejaVuSans-116"/>
      <use x="2213.355469" xlink:href="#DejaVuSans-41"/>
     </g>
    </g>
   </g>
   <g id="matplotlib.axis_2">
    <g id="ytick_1">
     <g id="line2d_6">
      <defs>
       <path d="M 0 0 
L -3.5 0 
" id="m581b9be7b3" style="stroke:#000000;stroke-width:0.8;"/>
      </defs>
      <g>
       <use style="stroke:#000000;stroke-width:0.8;" x="53.328125" xlink:href="#m581b9be7b3" y="281.410515"/>
      </g>
     </g>
     <g id="text_7">
      <!-- 500 -->
      <g transform="translate(27.240625 285.209733)scale(0.1 -0.1)">
       <defs>
        <path d="M 10.796875 72.90625 
L 49.515625 72.90625 
L 49.515625 64.59375 
L 19.828125 64.59375 
L 19.828125 46.734375 
Q 21.96875 47.46875 24.109375 47.828125 
Q 26.265625 48.1875 28.421875 48.1875 
Q 40.625 48.1875 47.75 41.5 
Q 54.890625 34.8125 54.890625 23.390625 
Q 54.890625 11.625 47.5625 5.09375 
Q 40.234375 -1.421875 26.90625 -1.421875 
Q 22.3125 -1.421875 17.546875 -0.640625 
Q 12.796875 0.140625 7.71875 1.703125 
L 7.71875 11.625 
Q 12.109375 9.234375 16.796875 8.0625 
Q 21.484375 6.890625 26.703125 6.890625 
Q 35.15625 6.890625 40.078125 11.328125 
Q 45.015625 15.765625 45.015625 23.390625 
Q 45.015625 31 40.078125 35.4375 
Q 35.15625 39.890625 26.703125 39.890625 
Q 22.75 39.890625 18.8125 39.015625 
Q 14.890625 38.140625 10.796875 36.28125 
z
" id="DejaVuSans-53"/>
        <path d="M 31.78125 66.40625 
Q 24.171875 66.40625 20.328125 58.90625 
Q 16.5 51.421875 16.5 36.375 
Q 16.5 21.390625 20.328125 13.890625 
Q 24.171875 6.390625 31.78125 6.390625 
Q 39.453125 6.390625 43.28125 13.890625 
Q 47.125 21.390625 47.125 36.375 
Q 47.125 51.421875 43.28125 58.90625 
Q 39.453125 66.40625 31.78125 66.40625 
z
M 31.78125 74.21875 
Q 44.046875 74.21875 50.515625 64.515625 
Q 56.984375 54.828125 56.984375 36.375 
Q 56.984375 17.96875 50.515625 8.265625 
Q 44.046875 -1.421875 31.78125 -1.421875 
Q 19.53125 -1.421875 13.0625 8.265625 
Q 6.59375 17.96875 6.59375 36.375 
Q 6.59375 54.828125 13.0625 64.515625 
Q 19.53125 74.21875 31.78125 74.21875 
z
" id="DejaVuSans-48"/>
       </defs>
       <use xlink:href="#DejaVuSans-53"/>
       <use x="63.623047" xlink:href="#DejaVuSans-48"/>
       <use x="127.246094" xlink:href="#DejaVuSans-48"/>
      </g>
     </g>
    </g>
    <g id="ytick_2">
     <g id="line2d_7">
      <g>
       <use style="stroke:#000000;stroke-width:0.8;" x="53.328125" xlink:href="#m581b9be7b3" y="241.121707"/>
      </g>
     </g>
     <g id="text_8">
      <!-- 1000 -->
      <g transform="translate(20.878125 244.920926)scale(0.1 -0.1)">
       <defs>
        <path d="M 12.40625 8.296875 
L 28.515625 8.296875 
L 28.515625 63.921875 
L 10.984375 60.40625 
L 10.984375 69.390625 
L 28.421875 72.90625 
L 38.28125 72.90625 
L 38.28125 8.296875 
L 54.390625 8.296875 
L 54.390625 0 
L 12.40625 0 
z
" id="DejaVuSans-49"/>
       </defs>
       <use xlink:href="#DejaVuSans-49"/>
       <use x="63.623047" xlink:href="#DejaVuSans-48"/>
       <use x="127.246094" xlink:href="#DejaVuSans-48"/>
       <use x="190.869141" xlink:href="#DejaVuSans-48"/>
      </g>
     </g>
    </g>
    <g id="ytick_3">
     <g id="line2d_8">
      <g>
       <use style="stroke:#000000;stroke-width:0.8;" x="53.328125" xlink:href="#m581b9be7b3" y="200.8329"/>
      </g>
     </g>
     <g id="text_9">
      <!-- 1500 -->
      <g transform="translate(20.878125 204.632118)scale(0.1 -0.1)">
       <use xlink:href="#DejaVuSans-49"/>
       <use x="63.623047" xlink:href="#DejaVuSans-53"/>
       <use x="127.246094" xlink:href="#DejaVuSans-48"/>
       <use x="190.869141" xlink:href="#DejaVuSans-48"/>
      </g>
     </g>
    </g>
    <g id="ytick_4">
     <g id="line2d_9">
      <g>
       <use style="stroke:#000000;stroke-width:0.8;" x="53.328125" xlink:href="#m581b9be7b3" y="160.544092"/>
      </g>
     </g>
     <g id="text_10">
      <!-- 2000 -->
      <g transform="translate(20.878125 164.343311)scale(0.1 -0.1)">
       <defs>
        <path d="M 19.1875 8.296875 
L 53.609375 8.296875 
L 53.609375 0 
L 7.328125 0 
L 7.328125 8.296875 
Q 12.9375 14.109375 22.625 23.890625 
Q 32.328125 33.6875 34.8125 36.53125 
Q 39.546875 41.84375 41.421875 45.53125 
Q 43.3125 49.21875 43.3125 52.78125 
Q 43.3125 58.59375 39.234375 62.25 
Q 35.15625 65.921875 28.609375 65.921875 
Q 23.96875 65.921875 18.8125 64.3125 
Q 13.671875 62.703125 7.8125 59.421875 
L 7.8125 69.390625 
Q 13.765625 71.78125 18.9375 73 
Q 24.125 74.21875 28.421875 74.21875 
Q 39.75 74.21875 46.484375 68.546875 
Q 53.21875 62.890625 53.21875 53.421875 
Q 53.21875 48.921875 51.53125 44.890625 
Q 49.859375 40.875 45.40625 35.40625 
Q 44.1875 33.984375 37.640625 27.21875 
Q 31.109375 20.453125 19.1875 8.296875 
z
" id="DejaVuSans-50"/>
       </defs>
       <use xlink:href="#DejaVuSans-50"/>
       <use x="63.623047" xlink:href="#DejaVuSans-48"/>
       <use x="127.246094" xlink:href="#DejaVuSans-48"/>
       <use x="190.869141" xlink:href="#DejaVuSans-48"/>
      </g>
     </g>
    </g>
    <g id="ytick_5">
     <g id="line2d_10">
      <g>
       <use style="stroke:#000000;stroke-width:0.8;" x="53.328125" xlink:href="#m581b9be7b3" y="120.255285"/>
      </g>
     </g>
     <g id="text_11">
      <!-- 2500 -->
      <g transform="translate(20.878125 124.054503)scale(0.1 -0.1)">
       <use xlink:href="#DejaVuSans-50"/>
       <use x="63.623047" xlink:href="#DejaVuSans-53"/>
       <use x="127.246094" xlink:href="#DejaVuSans-48"/>
       <use x="190.869141" xlink:href="#DejaVuSans-48"/>
      </g>
     </g>
    </g>
    <g id="ytick_6">
     <g id="line2d_11">
      <g>
       <use style="stroke:#000000;stroke-width:0.8;" x="53.328125" xlink:href="#m581b9be7b3" y="79.966477"/>
      </g>
     </g>
     <g id="text_12">
      <!-- 3000 -->
      <g transform="translate(20.878125 83.765696)scale(0.1 -0.1)">
       <defs>
        <path d="M 40.578125 39.3125 
Q 47.65625 37.796875 51.625 33 
Q 55.609375 28.21875 55.609375 21.1875 
Q 55.609375 10.40625 48.1875 4.484375 
Q 40.765625 -1.421875 27.09375 -1.421875 
Q 22.515625 -1.421875 17.65625 -0.515625 
Q 12.796875 0.390625 7.625 2.203125 
L 7.625 11.71875 
Q 11.71875 9.328125 16.59375 8.109375 
Q 21.484375 6.890625 26.8125 6.890625 
Q 36.078125 6.890625 40.9375 10.546875 
Q 45.796875 14.203125 45.796875 21.1875 
Q 45.796875 27.640625 41.28125 31.265625 
Q 36.765625 34.90625 28.71875 34.90625 
L 20.21875 34.90625 
L 20.21875 43.015625 
L 29.109375 43.015625 
Q 36.375 43.015625 40.234375 45.921875 
Q 44.09375 48.828125 44.09375 54.296875 
Q 44.09375 59.90625 40.109375 62.90625 
Q 36.140625 65.921875 28.71875 65.921875 
Q 24.65625 65.921875 20.015625 65.03125 
Q 15.375 64.15625 9.8125 62.3125 
L 9.8125 71.09375 
Q 15.4375 72.65625 20.34375 73.4375 
Q 25.25 74.21875 29.59375 74.21875 
Q 40.828125 74.21875 47.359375 69.109375 
Q 53.90625 64.015625 53.90625 55.328125 
Q 53.90625 49.265625 50.4375 45.09375 
Q 46.96875 40.921875 40.578125 39.3125 
z
" id="DejaVuSans-51"/>
       </defs>
       <use xlink:href="#DejaVuSans-51"/>
       <use x="63.623047" xlink:href="#DejaVuSans-48"/>
       <use x="127.246094" xlink:href="#DejaVuSans-48"/>
       <use x="190.869141" xlink:href="#DejaVuSans-48"/>
      </g>
     </g>
    </g>
    <g id="ytick_7">
     <g id="line2d_12">
      <g>
       <use style="stroke:#000000;stroke-width:0.8;" x="53.328125" xlink:href="#m581b9be7b3" y="39.67767"/>
      </g>
     </g>
     <g id="text_13">
      <!-- 3500 -->
      <g transform="translate(20.878125 43.476888)scale(0.1 -0.1)">
       <use xlink:href="#DejaVuSans-51"/>
       <use x="63.623047" xlink:href="#DejaVuSans-53"/>
       <use x="127.246094" xlink:href="#DejaVuSans-48"/>
       <use x="190.869141" xlink:href="#DejaVuSans-48"/>
      </g>
     </g>
    </g>
    <g id="text_14">
     <!-- Reached region coverage -->
     <g transform="translate(14.798438 219.136625)rotate(-90)scale(0.1 -0.1)">
      <defs>
       <path d="M 44.390625 34.1875 
Q 47.5625 33.109375 50.5625 29.59375 
Q 53.5625 26.078125 56.59375 19.921875 
L 66.609375 0 
L 56 0 
L 46.6875 18.703125 
Q 43.0625 26.03125 39.671875 28.421875 
Q 36.28125 30.8125 30.421875 30.8125 
L 19.671875 30.8125 
L 19.671875 0 
L 9.8125 0 
L 9.8125 72.90625 
L 32.078125 72.90625 
Q 44.578125 72.90625 50.734375 67.671875 
Q 56.890625 62.453125 56.890625 51.90625 
Q 56.890625 45.015625 53.6875 40.46875 
Q 50.484375 35.9375 44.390625 34.1875 
z
M 19.671875 64.796875 
L 19.671875 38.921875 
L 32.078125 38.921875 
Q 39.203125 38.921875 42.84375 42.21875 
Q 46.484375 45.515625 46.484375 51.90625 
Q 46.484375 58.296875 42.84375 61.546875 
Q 39.203125 64.796875 32.078125 64.796875 
z
" id="DejaVuSans-82"/>
      </defs>
      <use xlink:href="#DejaVuSans-82"/>
      <use x="64.982422" xlink:href="#DejaVuSans-101"/>
      <use x="126.505859" xlink:href="#DejaVuSans-97"/>
      <use x="187.785156" xlink:href="#DejaVuSans-99"/>
      <use x="242.765625" xlink:href="#DejaVuSans-104"/>
      <use x="306.144531" xlink:href="#DejaVuSans-101"/>
      <use x="367.667969" xlink:href="#DejaVuSans-100"/>
      <use x="431.144531" xlink:href="#DejaVuSans-32"/>
      <use x="462.931641" xlink:href="#DejaVuSans-114"/>
      <use x="501.794922" xlink:href="#DejaVuSans-101"/>
      <use x="563.318359" xlink:href="#DejaVuSans-103"/>
      <use x="626.794922" xlink:href="#DejaVuSans-105"/>
      <use x="654.578125" xlink:href="#DejaVuSans-111"/>
      <use x="715.759766" xlink:href="#DejaVuSans-110"/>
      <use x="779.138672" xlink:href="#DejaVuSans-32"/>
      <use x="810.925781" xlink:href="#DejaVuSans-99"/>
      <use x="865.90625" xlink:href="#DejaVuSans-111"/>
      <use x="927.087891" xlink:href="#DejaVuSans-118"/>
      <use x="986.267578" xlink:href="#DejaVuSans-101"/>
      <use x="1047.791016" xlink:href="#DejaVuSans-114"/>
      <use x="1088.904297" xlink:href="#DejaVuSans-97"/>
      <use x="1150.183594" xlink:href="#DejaVuSans-103"/>
      <use x="1213.660156" xlink:href="#DejaVuSans-101"/>
     </g>
    </g>
   </g>
   <g id="line2d_13">
    <path clip-path="url(#p1d3843e263)" d="M 89.040125 56.921279 
L 89.040125 50.394492 
" style="fill:none;stroke:#3f3f3f;stroke-linecap:square;stroke-width:1.5;"/>
   </g>
   <g id="line2d_14">
    <path clip-path="url(#p1d3843e263)" d="M 89.040125 55.632037 
L 89.040125 51.522579 
" style="fill:none;stroke:#3f3f3f;stroke-linecap:square;stroke-width:4.5;"/>
   </g>
   <g id="line2d_15">
    <path clip-path="url(#p1d3843e263)" d="M 160.464125 56.034925 
L 160.464125 54.503951 
" style="fill:none;stroke:#3f3f3f;stroke-linecap:square;stroke-width:1.5;"/>
   </g>
   <g id="line2d_16">
    <path clip-path="url(#p1d3843e263)" d="M 160.464125 55.793193 
L 160.464125 55.067994 
" style="fill:none;stroke:#3f3f3f;stroke-linecap:square;stroke-width:4.5;"/>
   </g>
   <g id="line2d_17">
    <path clip-path="url(#p1d3843e263)" d="M 231.888125 58.93572 
L 231.888125 57.485323 
" style="fill:none;stroke:#3f3f3f;stroke-linecap:square;stroke-width:1.5;"/>
   </g>
   <g id="line2d_18">
    <path clip-path="url(#p1d3843e263)" d="M 231.888125 58.93572 
L 231.888125 57.485323 
" style="fill:none;stroke:#3f3f3f;stroke-linecap:square;stroke-width:4.5;"/>
   </g>
   <g id="line2d_19">
    <path clip-path="url(#p1d3843e263)" d="M 303.312125 106.154202 
L 303.312125 64.737308 
" style="fill:none;stroke:#3f3f3f;stroke-linecap:square;stroke-width:1.5;"/>
   </g>
   <g id="line2d_20">
    <path clip-path="url(#p1d3843e263)" d="M 303.312125 105.267848 
L 303.312125 66.832326 
" style="fill:none;stroke:#3f3f3f;stroke-linecap:square;stroke-width:4.5;"/>
   </g>
   <g id="line2d_21">
    <path clip-path="url(#p1d3843e263)" d="M 346.166525 276.334125 
L 403.305725 276.334125 
" style="fill:none;stroke:#3f3f3f;stroke-linecap:square;stroke-width:1.5;"/>
   </g>
   <g id="patch_3">
    <path d="M 53.328125 281.410515 
L 53.328125 39.67767 
" style="fill:none;stroke:#000000;stroke-linecap:square;stroke-linejoin:miter;stroke-width:0.8;"/>
   </g>
   <g id="patch_4">
    <path d="M 89.040125 288.430125 
L 374.736125 288.430125 
" style="fill:none;stroke:#000000;stroke-linecap:square;stroke-linejoin:miter;stroke-width:0.8;"/>
   </g>
   <g id="PathCollection_1">
    <defs>
     <path d="M 0 1.5 
C 0.397805 1.5 0.77937 1.341951 1.06066 1.06066 
C 1.341951 0.77937 1.5 0.397805 1.5 0 
C 1.5 -0.397805 1.341951 -0.77937 1.06066 -1.06066 
C 0.77937 -1.341951 0.397805 -1.5 0 -1.5 
C -0.397805 -1.5 -0.77937 -1.341951 -1.06066 -1.06066 
C -1.341951 -0.77937 -1.5 -0.397805 -1.5 0 
C -1.5 0.397805 -1.341951 0.77937 -1.06066 1.06066 
C -0.77937 1.341951 -0.397805 1.5 0 1.5 
z
" id="m8c85b1d6f2" style="stroke:#3f3f3f;"/>
    </defs>
    <g clip-path="url(#p1d3843e263)">
     <use style="fill:#ffffff;stroke:#3f3f3f;" x="89.040125" xlink:href="#m8c85b1d6f2" y="53.214709"/>
    </g>
   </g>
   <g id="PathCollection_2">
    <g clip-path="url(#p1d3843e263)">
     <use style="fill:#ffffff;stroke:#3f3f3f;" x="160.464125" xlink:href="#m8c85b1d6f2" y="55.712615"/>
    </g>
   </g>
   <g id="PathCollection_3">
    <g clip-path="url(#p1d3843e263)">
     <use style="fill:#ffffff;stroke:#3f3f3f;" x="231.888125" xlink:href="#m8c85b1d6f2" y="58.210521"/>
    </g>
   </g>
   <g id="PathCollection_4">
    <g clip-path="url(#p1d3843e263)">
     <use style="fill:#ffffff;stroke:#3f3f3f;" x="303.312125" xlink:href="#m8c85b1d6f2" y="95.517957"/>
    </g>
   </g>
   <g id="text_15">
    <!-- libjpeg-turbo-07-2017 (1h:15m, 5 trials/fuzzer) -->
    <g transform="translate(91.560313 16.318125)scale(0.12 -0.12)">
     <defs>
      <path d="M 9.421875 54.6875 
L 18.40625 54.6875 
L 18.40625 -0.984375 
Q 18.40625 -11.421875 14.421875 -16.109375 
Q 10.453125 -20.796875 1.609375 -20.796875 
L -1.8125 -20.796875 
L -1.8125 -13.1875 
L 0.59375 -13.1875 
Q 5.71875 -13.1875 7.5625 -10.8125 
Q 9.421875 -8.453125 9.421875 -0.984375 
z
M 9.421875 75.984375 
L 18.40625 75.984375 
L 18.40625 64.59375 
L 9.421875 64.59375 
z
" id="DejaVuSans-106"/>
      <path d="M 4.890625 31.390625 
L 31.203125 31.390625 
L 31.203125 23.390625 
L 4.890625 23.390625 
z
" id="DejaVuSans-45"/>
      <path d="M 8.203125 72.90625 
L 55.078125 72.90625 
L 55.078125 68.703125 
L 28.609375 0 
L 18.3125 0 
L 43.21875 64.59375 
L 8.203125 64.59375 
z
" id="DejaVuSans-55"/>
      <path d="M 11.71875 12.40625 
L 22.015625 12.40625 
L 22.015625 0 
L 11.71875 0 
z
M 11.71875 51.703125 
L 22.015625 51.703125 
L 22.015625 39.3125 
L 11.71875 39.3125 
z
" id="DejaVuSans-58"/>
      <path d="M 11.71875 12.40625 
L 22.015625 12.40625 
L 22.015625 4 
L 14.015625 -11.625 
L 7.71875 -11.625 
L 11.71875 4 
z
" id="DejaVuSans-44"/>
      <path d="M 25.390625 72.90625 
L 33.6875 72.90625 
L 8.296875 -9.28125 
L 0 -9.28125 
z
" id="DejaVuSans-47"/>
     </defs>
     <use xlink:href="#DejaVuSans-108"/>
     <use x="27.783203" xlink:href="#DejaVuSans-105"/>
     <use x="55.566406" xlink:href="#DejaVuSans-98"/>
     <use x="119.042969" xlink:href="#DejaVuSans-106"/>
     <use x="146.826172" xlink:href="#DejaVuSans-112"/>
     <use x="210.302734" xlink:href="#DejaVuSans-101"/>
     <use x="271.826172" xlink:href="#DejaVuSans-103"/>
     <use x="335.302734" xlink:href="#DejaVuSans-45"/>
     <use x="371.386719" xlink:href="#DejaVuSans-116"/>
     <use x="410.595703" xlink:href="#DejaVuSans-117"/>
     <use x="473.974609" xlink:href="#DejaVuSans-114"/>
     <use x="515.087891" xlink:href="#DejaVuSans-98"/>
     <use x="578.564453" xlink:href="#DejaVuSans-111"/>
     <use x="641.621094" xlink:href="#DejaVuSans-45"/>
     <use x="677.705078" xlink:href="#DejaVuSans-48"/>
     <use x="741.328125" xlink:href="#DejaVuSans-55"/>
     <use x="804.951172" xlink:href="#DejaVuSans-45"/>
     <use x="841.035156" xlink:href="#DejaVuSans-50"/>
     <use x="904.658203" xlink:href="#DejaVuSans-48"/>
     <use x="968.28125" xlink:href="#DejaVuSans-49"/>
     <use x="1031.904297" xlink:href="#DejaVuSans-55"/>
     <use x="1095.527344" xlink:href="#DejaVuSans-32"/>
     <use x="1127.314453" xlink:href="#DejaVuSans-40"/>
     <use x="1166.328125" xlink:href="#DejaVuSans-49"/>
     <use x="1229.951172" xlink:href="#DejaVuSans-104"/>
     <use x="1293.330078" xlink:href="#DejaVuSans-58"/>
     <use x="1327.021484" xlink:href="#DejaVuSans-49"/>
     <use x="1390.644531" xlink:href="#DejaVuSans-53"/>
     <use x="1454.267578" xlink:href="#DejaVuSans-109"/>
     <use x="1551.679688" xlink:href="#DejaVuSans-44"/>
     <use x="1583.466797" xlink:href="#DejaVuSans-32"/>
     <use x="1615.253906" xlink:href="#DejaVuSans-53"/>
     <use x="1678.876953" xlink:href="#DejaVuSans-32"/>
     <use x="1710.664062" xlink:href="#DejaVuSans-116"/>
     <use x="1749.873047" xlink:href="#DejaVuSans-114"/>
     <use x="1790.986328" xlink:href="#DejaVuSans-105"/>
     <use x="1818.769531" xlink:href="#DejaVuSans-97"/>
     <use x="1880.048828" xlink:href="#DejaVuSans-108"/>
     <use x="1907.832031" xlink:href="#DejaVuSans-115"/>
     <use x="1959.931641" xlink:href="#DejaVuSans-47"/>
     <use x="1993.623047" xlink:href="#DejaVuSans-102"/>
     <use x="2028.828125" xlink:href="#DejaVuSans-117"/>
     <use x="2092.207031" xlink:href="#DejaVuSans-122"/>
     <use x="2144.697266" xlink:href="#DejaVuSans-122"/>
     <use x="2197.1875" xlink:href="#DejaVuSans-101"/>
     <use x="2258.710938" xlink:href="#DejaVuSans-114"/>
     <use x="2299.824219" xlink:href="#DejaVuSans-41"/>
    </g>
   </g>
  </g>
 </g>
 <defs>
  <clipPath id="p1d3843e263">
   <rect height="266.112" width="357.12" x="53.328125" y="22.318125"/>
  </clipPath>
 </defs>
</svg>
