<?xml version="1.0" encoding="utf-8" standalone="no"?>
<!DOCTYPE svg PUBLIC "-//W3C//DTD SVG 1.1//EN"
  "http://www.w3.org/Graphics/SVG/1.1/DTD/svg11.dtd">
<!-- Created with matplotlib (https://matplotlib.org/) -->
<svg height="351.576471pt" version="1.1" viewBox="0 0 417.648125 351.576471" width="417.648125pt" xmlns="http://www.w3.org/2000/svg" xmlns:xlink="http://www.w3.org/1999/xlink">
 <metadata>
  <rdf:RDF xmlns:cc="http://creativecommons.org/ns#" xmlns:dc="http://purl.org/dc/elements/1.1/" xmlns:rdf="http://www.w3.org/1999/02/22-rdf-syntax-ns#">
   <cc:Work>
    <dc:type rdf:resource="http://purl.org/dc/dcmitype/StillImage"/>
    <dc:date>2020-10-17T07:19:06.879331</dc:date>
    <dc:format>image/svg+xml</dc:format>
    <dc:creator>
     <cc:Agent>
      <dc:title>Matplotlib v3.3.2, https://matplotlib.org/</dc:title>
     </cc:Agent>
    </dc:creator>
   </cc:Work>
  </rdf:RDF>
 </metadata>
 <defs>
  <style type="text/css">*{stroke-linecap:butt;stroke-linejoin:round;}</style>
 </defs>
 <g id="figure_1">
  <g id="patch_1">
   <path d="M 0 351.576471 
L 417.648125 351.576471 
L 417.648125 0 
L 0 0 
z
" style="fill:#ffffff;"/>
  </g>
  <g id="axes_1">
   <g id="patch_2">
    <path d="M 53.328125 288.430125 
L 410.448125 288.430125 
L 410.448125 22.318125 
L 53.328125 22.318125 
z
" style="fill:#ffffff;"/>
   </g>
   <g id="PolyCollection_1">
    <defs>
     <path d="M 89.442679 -236.565867 
L 88.637571 -236.565867 
L 88.573479 -237.089907 
L 88.502171 -237.613947 
L 88.423381 -238.137986 
L 88.336932 -238.662026 
L 88.24275 -239.186066 
L 88.140878 -239.710106 
L 88.031485 -240.234145 
L 87.914876 -240.758185 
L 87.791498 -241.282225 
L 87.661939 -241.806265 
L 87.526926 -242.330305 
L 87.387313 -242.854344 
L 87.244065 -243.378384 
L 87.098242 -243.902424 
L 86.950969 -244.426464 
L 86.803405 -244.950504 
L 86.656711 -245.474543 
L 86.51201 -245.998583 
L 86.370345 -246.522623 
L 86.232642 -247.046663 
L 86.099668 -247.570703 
L 85.971997 -248.094742 
L 85.849976 -248.618782 
L 85.733701 -249.142822 
L 85.622995 -249.666862 
L 85.517406 -250.190901 
L 85.416199 -250.714941 
L 85.318373 -251.238981 
L 85.222679 -251.763021 
L 85.127653 -252.287061 
L 85.031655 -252.8111 
L 84.932921 -253.33514 
L 84.829615 -253.85918 
L 84.719894 -254.38322 
L 84.601967 -254.90726 
L 84.474163 -255.431299 
L 84.334991 -255.955339 
L 84.183196 -256.479379 
L 84.017816 -257.003419 
L 83.838221 -257.527459 
L 83.644147 -258.051498 
L 83.43572 -258.575538 
L 83.213471 -259.099578 
L 82.978328 -259.623618 
L 82.731613 -260.147658 
L 82.475014 -260.671697 
L 82.210554 -261.195737 
L 81.940556 -261.719777 
L 81.66759 -262.243817 
L 81.394426 -262.767856 
L 81.12398 -263.291896 
L 80.859257 -263.815936 
L 80.603299 -264.339976 
L 80.359129 -264.864016 
L 80.129708 -265.388055 
L 79.91788 -265.912095 
L 79.726342 -266.436135 
L 79.557597 -266.960175 
L 79.41393 -267.484215 
L 79.29738 -268.008254 
L 79.209713 -268.532294 
L 79.152406 -269.056334 
L 79.126632 -269.580374 
L 79.133246 -270.104414 
L 79.172773 -270.628453 
L 79.245406 -271.152493 
L 79.350996 -271.676533 
L 79.489053 -272.200573 
L 79.658746 -272.724612 
L 79.858913 -273.248652 
L 80.088063 -273.772692 
L 80.344396 -274.296732 
L 80.625823 -274.820772 
L 80.929984 -275.344811 
L 81.254288 -275.868851 
L 81.595942 -276.392891 
L 81.95199 -276.916931 
L 82.319367 -277.440971 
L 82.694934 -277.96501 
L 83.075538 -278.48905 
L 83.458058 -279.01309 
L 83.839458 -279.53713 
L 84.21683 -280.06117 
L 84.587443 -280.585209 
L 84.948783 -281.109249 
L 85.298583 -281.633289 
L 85.634854 -282.157329 
L 85.955903 -282.681369 
L 86.260347 -283.205408 
L 86.547113 -283.729448 
L 86.81544 -284.253488 
L 87.064868 -284.777528 
L 87.295218 -285.301567 
L 87.506575 -285.825607 
L 87.69926 -286.349647 
L 87.873801 -286.873687 
L 88.030903 -287.397727 
L 88.171414 -287.921766 
L 88.296297 -288.445806 
L 89.783953 -288.445806 
L 89.783953 -288.445806 
L 89.908836 -287.921766 
L 90.049347 -287.397727 
L 90.206449 -286.873687 
L 90.38099 -286.349647 
L 90.573675 -285.825607 
L 90.785032 -285.301567 
L 91.015382 -284.777528 
L 91.26481 -284.253488 
L 91.533137 -283.729448 
L 91.819903 -283.205408 
L 92.124347 -282.681369 
L 92.445396 -282.157329 
L 92.781667 -281.633289 
L 93.131467 -281.109249 
L 93.492807 -280.585209 
L 93.86342 -280.06117 
L 94.240792 -279.53713 
L 94.622192 -279.01309 
L 95.004712 -278.48905 
L 95.385316 -277.96501 
L 95.760883 -277.440971 
L 96.12826 -276.916931 
L 96.484308 -276.392891 
L 96.825962 -275.868851 
L 97.150266 -275.344811 
L 97.454427 -274.820772 
L 97.735854 -274.296732 
L 97.992187 -273.772692 
L 98.221337 -273.248652 
L 98.421504 -272.724612 
L 98.591197 -272.200573 
L 98.729254 -271.676533 
L 98.834844 -271.152493 
L 98.907477 -270.628453 
L 98.947004 -270.104414 
L 98.953618 -269.580374 
L 98.927844 -269.056334 
L 98.870537 -268.532294 
L 98.78287 -268.008254 
L 98.66632 -267.484215 
L 98.522653 -266.960175 
L 98.353908 -266.436135 
L 98.16237 -265.912095 
L 97.950542 -265.388055 
L 97.721121 -264.864016 
L 97.476951 -264.339976 
L 97.220993 -263.815936 
L 96.95627 -263.291896 
L 96.685824 -262.767856 
L 96.41266 -262.243817 
L 96.139694 -261.719777 
L 95.869696 -261.195737 
L 95.605236 -260.671697 
L 95.348637 -260.147658 
L 95.101922 -259.623618 
L 94.866779 -259.099578 
L 94.64453 -258.575538 
L 94.436103 -258.051498 
L 94.242029 -257.527459 
L 94.062434 -257.003419 
L 93.897054 -256.479379 
L 93.745259 -255.955339 
L 93.606087 -255.431299 
L 93.478283 -254.90726 
L 93.360356 -254.38322 
L 93.250635 -253.85918 
L 93.147329 -253.33514 
L 93.048595 -252.8111 
L 92.952597 -252.287061 
L 92.857571 -251.763021 
L 92.761877 -251.238981 
L 92.664051 -250.714941 
L 92.562844 -250.190901 
L 92.457255 -249.666862 
L 92.346549 -249.142822 
L 92.230274 -248.618782 
L 92.108253 -248.094742 
L 91.980582 -247.570703 
L 91.847608 -247.046663 
L 91.709905 -246.522623 
L 91.56824 -245.998583 
L 91.423539 -245.474543 
L 91.276845 -244.950504 
L 91.129281 -244.426464 
L 90.982008 -243.902424 
L 90.836185 -243.378384 
L 90.692937 -242.854344 
L 90.553324 -242.330305 
L 90.418311 -241.806265 
L 90.288752 -241.282225 
L 90.165374 -240.758185 
L 90.048765 -240.234145 
L 89.939372 -239.710106 
L 89.8375 -239.186066 
L 89.743318 -238.662026 
L 89.656869 -238.137986 
L 89.578079 -237.613947 
L 89.506771 -237.089907 
L 89.442679 -236.565867 
z
" id="m40be332d28" style="stroke:#3f3f3f;stroke-width:1.5;"/>
    </defs>
    <g clip-path="url(#pe24f10a218)">
     <use style="fill:#3274a1;stroke:#3f3f3f;stroke-width:1.5;" x="0" xlink:href="#m40be332d28" y="351.576471"/>
    </g>
   </g>
   <g id="PolyCollection_2">
    <defs>
     <path d="M 160.548322 -75.242346 
L 160.379928 -75.242346 
L 160.366877 -77.685982 
L 160.352405 -80.129619 
L 160.336469 -82.573255 
L 160.319041 -85.016891 
L 160.300117 -87.460528 
L 160.279717 -89.904164 
L 160.257889 -92.3478 
L 160.234711 -94.791437 
L 160.21029 -97.235073 
L 160.184768 -99.678709 
L 160.158316 -102.122346 
L 160.131137 -104.565982 
L 160.103464 -107.009619 
L 160.075554 -109.453255 
L 160.047685 -111.896891 
L 160.020153 -114.340528 
L 159.993261 -116.784164 
L 159.967315 -119.2278 
L 159.942616 -121.671437 
L 159.91945 -124.115073 
L 159.898079 -126.558709 
L 159.878733 -129.002346 
L 159.861601 -131.445982 
L 159.846822 -133.889619 
L 159.834479 -136.333255 
L 159.824589 -138.776891 
L 159.817102 -141.220528 
L 159.811893 -143.664164 
L 159.808763 -146.1078 
L 159.807437 -148.551437 
L 159.807564 -150.995073 
L 159.808723 -153.438709 
L 159.810426 -155.882346 
L 159.812126 -158.325982 
L 159.813226 -160.769619 
L 159.813089 -163.213255 
L 159.81105 -165.656891 
L 159.806431 -168.100528 
L 159.798553 -170.544164 
L 159.786752 -172.9878 
L 159.770397 -175.431437 
L 159.748905 -177.875073 
L 159.721756 -180.318709 
L 159.688511 -182.762346 
L 159.648826 -185.205982 
L 159.602467 -187.649619 
L 159.549319 -190.093255 
L 159.489405 -192.536891 
L 159.422882 -194.980528 
L 159.350061 -197.424164 
L 159.271397 -199.8678 
L 159.187497 -202.311437 
L 159.099112 -204.755073 
L 159.007131 -207.198709 
L 158.912571 -209.642346 
L 158.816557 -212.085982 
L 158.72031 -214.529619 
L 158.62512 -216.973255 
L 158.532328 -219.416891 
L 158.443291 -221.860528 
L 158.359361 -224.304164 
L 158.281854 -226.7478 
L 158.212017 -229.191437 
L 158.151006 -231.635073 
L 158.099855 -234.078709 
L 158.059454 -236.522346 
L 158.030526 -238.965982 
L 158.013612 -241.409619 
L 158.009058 -243.853255 
L 158.017009 -246.296891 
L 158.037402 -248.740528 
L 158.069975 -251.184164 
L 158.114271 -253.6278 
L 158.169651 -256.071437 
L 158.235315 -258.515073 
L 158.310319 -260.958709 
L 158.393599 -263.402346 
L 158.484001 -265.845982 
L 158.580306 -268.289619 
L 158.681257 -270.733255 
L 158.78559 -273.176891 
L 158.892056 -275.620528 
L 158.999451 -278.064164 
L 159.106631 -280.5078 
L 159.212539 -282.951437 
L 159.316214 -285.395073 
L 159.416804 -287.838709 
L 159.513576 -290.282346 
L 159.605919 -292.725982 
L 159.693347 -295.169619 
L 159.775491 -297.613255 
L 159.852104 -300.056891 
L 159.923042 -302.500528 
L 159.988265 -304.944164 
L 160.047819 -307.3878 
L 160.10183 -309.831437 
L 160.150488 -312.275073 
L 160.194035 -314.718709 
L 160.232757 -317.162346 
L 160.695493 -317.162346 
L 160.695493 -317.162346 
L 160.734215 -314.718709 
L 160.777762 -312.275073 
L 160.82642 -309.831437 
L 160.880431 -307.3878 
L 160.939985 -304.944164 
L 161.005208 -302.500528 
L 161.076146 -300.056891 
L 161.152759 -297.613255 
L 161.234903 -295.169619 
L 161.322331 -292.725982 
L 161.414674 -290.282346 
L 161.511446 -287.838709 
L 161.612036 -285.395073 
L 161.715711 -282.951437 
L 161.821619 -280.5078 
L 161.928799 -278.064164 
L 162.036194 -275.620528 
L 162.14266 -273.176891 
L 162.246993 -270.733255 
L 162.347944 -268.289619 
L 162.444249 -265.845982 
L 162.534651 -263.402346 
L 162.617931 -260.958709 
L 162.692935 -258.515073 
L 162.758599 -256.071437 
L 162.813979 -253.6278 
L 162.858275 -251.184164 
L 162.890848 -248.740528 
L 162.911241 -246.296891 
L 162.919192 -243.853255 
L 162.914638 -241.409619 
L 162.897724 -238.965982 
L 162.868796 -236.522346 
L 162.828395 -234.078709 
L 162.777244 -231.635073 
L 162.716233 -229.191437 
L 162.646396 -226.7478 
L 162.568889 -224.304164 
L 162.484959 -221.860528 
L 162.395922 -219.416891 
L 162.30313 -216.973255 
L 162.20794 -214.529619 
L 162.111693 -212.085982 
L 162.015679 -209.642346 
L 161.921119 -207.198709 
L 161.829138 -204.755073 
L 161.740753 -202.311437 
L 161.656853 -199.8678 
L 161.578189 -197.424164 
L 161.505368 -194.980528 
L 161.438845 -192.536891 
L 161.378931 -190.093255 
L 161.325783 -187.649619 
L 161.279424 -185.205982 
L 161.239739 -182.762346 
L 161.206494 -180.318709 
L 161.179345 -177.875073 
L 161.157853 -175.431437 
L 161.141498 -172.9878 
L 161.129697 -170.544164 
L 161.121819 -168.100528 
L 161.1172 -165.656891 
L 161.115161 -163.213255 
L 161.115024 -160.769619 
L 161.116124 -158.325982 
L 161.117824 -155.882346 
L 161.119527 -153.438709 
L 161.120686 -150.995073 
L 161.120813 -148.551437 
L 161.119487 -146.1078 
L 161.116357 -143.664164 
L 161.111148 -141.220528 
L 161.103661 -138.776891 
L 161.093771 -136.333255 
L 161.081428 -133.889619 
L 161.066649 -131.445982 
L 161.049517 -129.002346 
L 161.030171 -126.558709 
L 161.0088 -124.115073 
L 160.985634 -121.671437 
L 160.960935 -119.2278 
L 160.934989 -116.784164 
L 160.908097 -114.340528 
L 160.880565 -111.896891 
L 160.852696 -109.453255 
L 160.824786 -107.009619 
L 160.797113 -104.565982 
L 160.769934 -102.122346 
L 160.743482 -99.678709 
L 160.71796 -97.235073 
L 160.693539 -94.791437 
L 160.670361 -92.3478 
L 160.648533 -89.904164 
L 160.628133 -87.460528 
L 160.609209 -85.016891 
L 160.591781 -82.573255 
L 160.575845 -80.129619 
L 160.561373 -77.685982 
L 160.548322 -75.242346 
z
" id="m73b684525e" style="stroke:#3f3f3f;stroke-width:1.5;"/>
    </defs>
    <g clip-path="url(#pe24f10a218)">
     <use style="fill:#c7c7c7;stroke:#3f3f3f;stroke-width:1.5;" x="0" xlink:href="#m73b684525e" y="351.576471"/>
    </g>
   </g>
   <g id="PolyCollection_3">
    <defs>
     <path d="M 232.742099 -218.972707 
L 231.034151 -218.972707 
L 230.883727 -219.327618 
L 230.71308 -219.68253 
L 230.5207 -220.037442 
L 230.305173 -220.392353 
L 230.065232 -220.747265 
L 229.799788 -221.102177 
L 229.507984 -221.457088 
L 229.189232 -221.812 
L 228.843252 -222.166911 
L 228.470112 -222.521823 
L 228.070257 -222.876735 
L 227.64453 -223.231646 
L 227.19419 -223.586558 
L 226.720918 -223.94147 
L 226.226814 -224.296381 
L 225.714383 -224.651293 
L 225.186511 -225.006205 
L 224.646438 -225.361116 
L 224.097709 -225.716028 
L 223.544134 -226.07094 
L 222.989727 -226.425851 
L 222.438652 -226.780763 
L 221.895162 -227.135675 
L 221.363537 -227.490586 
L 220.848021 -227.845498 
L 220.352769 -228.200409 
L 219.881789 -228.555321 
L 219.438892 -228.910233 
L 219.02765 -229.265144 
L 218.651353 -229.620056 
L 218.312975 -229.974968 
L 218.015147 -230.329879 
L 217.760126 -230.684791 
L 217.549776 -231.039703 
L 217.385547 -231.394614 
L 217.268455 -231.749526 
L 217.19907 -232.104438 
L 217.177499 -232.459349 
L 217.203377 -232.814261 
L 217.275853 -233.169173 
L 217.393591 -233.524084 
L 217.554768 -233.878996 
L 217.757078 -234.233908 
L 217.997752 -234.588819 
L 218.27358 -234.943731 
L 218.580944 -235.298642 
L 218.91587 -235.653554 
L 219.274082 -236.008466 
L 219.651074 -236.363377 
L 220.04219 -236.718289 
L 220.442715 -237.073201 
L 220.847968 -237.428112 
L 221.253404 -237.783024 
L 221.654714 -238.137936 
L 222.047921 -238.492847 
L 222.42947 -238.847759 
L 222.796312 -239.202671 
L 223.145962 -239.557582 
L 223.476554 -239.912494 
L 223.78687 -240.267406 
L 224.076347 -240.622317 
L 224.345067 -240.977229 
L 224.593724 -241.33214 
L 224.82357 -241.687052 
L 225.03635 -242.041964 
L 225.234208 -242.396875 
L 225.419601 -242.751787 
L 225.595188 -243.106699 
L 225.763727 -243.46161 
L 225.927968 -243.816522 
L 226.090551 -244.171434 
L 226.253916 -244.526345 
L 226.420223 -244.881257 
L 226.591283 -245.236169 
L 226.768514 -245.59108 
L 226.952908 -245.945992 
L 227.145014 -246.300904 
L 227.344947 -246.655815 
L 227.552408 -247.010727 
L 227.766711 -247.365638 
L 227.986839 -247.72055 
L 228.211492 -248.075462 
L 228.439151 -248.430373 
L 228.668146 -248.785285 
L 228.896718 -249.140197 
L 229.123083 -249.495108 
L 229.345494 -249.85002 
L 229.562291 -250.204932 
L 229.77195 -250.559843 
L 229.973113 -250.914755 
L 230.164625 -251.269667 
L 230.345542 -251.624578 
L 230.515148 -251.97949 
L 230.67295 -252.334402 
L 230.818674 -252.689313 
L 230.952252 -253.044225 
L 231.073802 -253.399137 
L 231.183609 -253.754048 
L 231.282098 -254.10896 
L 232.494152 -254.10896 
L 232.494152 -254.10896 
L 232.592641 -253.754048 
L 232.702448 -253.399137 
L 232.823998 -253.044225 
L 232.957576 -252.689313 
L 233.1033 -252.334402 
L 233.261102 -251.97949 
L 233.430708 -251.624578 
L 233.611625 -251.269667 
L 233.803137 -250.914755 
L 234.0043 -250.559843 
L 234.213959 -250.204932 
L 234.430756 -249.85002 
L 234.653167 -249.495108 
L 234.879532 -249.140197 
L 235.108104 -248.785285 
L 235.337099 -248.430373 
L 235.564758 -248.075462 
L 235.789411 -247.72055 
L 236.009539 -247.365638 
L 236.223842 -247.010727 
L 236.431303 -246.655815 
L 236.631236 -246.300904 
L 236.823342 -245.945992 
L 237.007736 -245.59108 
L 237.184967 -245.236169 
L 237.356027 -244.881257 
L 237.522334 -244.526345 
L 237.685699 -244.171434 
L 237.848282 -243.816522 
L 238.012523 -243.46161 
L 238.181062 -243.106699 
L 238.356649 -242.751787 
L 238.542042 -242.396875 
L 238.7399 -242.041964 
L 238.95268 -241.687052 
L 239.182526 -241.33214 
L 239.431183 -240.977229 
L 239.699903 -240.622317 
L 239.98938 -240.267406 
L 240.299696 -239.912494 
L 240.630288 -239.557582 
L 240.979938 -239.202671 
L 241.34678 -238.847759 
L 241.728329 -238.492847 
L 242.121536 -238.137936 
L 242.522846 -237.783024 
L 242.928282 -237.428112 
L 243.333535 -237.073201 
L 243.73406 -236.718289 
L 244.125176 -236.363377 
L 244.502168 -236.008466 
L 244.86038 -235.653554 
L 245.195306 -235.298642 
L 245.50267 -234.943731 
L 245.778498 -234.588819 
L 246.019172 -234.233908 
L 246.221482 -233.878996 
L 246.382659 -233.524084 
L 246.500397 -233.169173 
L 246.572873 -232.814261 
L 246.598751 -232.459349 
L 246.57718 -232.104438 
L 246.507795 -231.749526 
L 246.390703 -231.394614 
L 246.226474 -231.039703 
L 246.016124 -230.684791 
L 245.761103 -230.329879 
L 245.463275 -229.974968 
L 245.124897 -229.620056 
L 244.7486 -229.265144 
L 244.337358 -228.910233 
L 243.894461 -228.555321 
L 243.423481 -228.200409 
L 242.928229 -227.845498 
L 242.412713 -227.490586 
L 241.881088 -227.135675 
L 241.337598 -226.780763 
L 240.786523 -226.425851 
L 240.232116 -226.07094 
L 239.678541 -225.716028 
L 239.129812 -225.361116 
L 238.589739 -225.006205 
L 238.061867 -224.651293 
L 237.549436 -224.296381 
L 237.055332 -223.94147 
L 236.58206 -223.586558 
L 236.13172 -223.231646 
L 235.705993 -222.876735 
L 235.306138 -222.521823 
L 234.932998 -222.166911 
L 234.587018 -221.812 
L 234.268266 -221.457088 
L 233.976462 -221.102177 
L 233.711018 -220.747265 
L 233.471077 -220.392353 
L 233.25555 -220.037442 
L 233.06317 -219.68253 
L 232.892523 -219.327618 
L 232.742099 -218.972707 
z
" id="mb72119bbb0" style="stroke:#3f3f3f;stroke-width:1.5;"/>
    </defs>
    <g clip-path="url(#pe24f10a218)">
     <use style="fill:#e1812c;stroke:#3f3f3f;stroke-width:1.5;" x="0" xlink:href="#mb72119bbb0" y="351.576471"/>
    </g>
   </g>
   <g id="PolyCollection_4">
    <defs>
     <path d="M 305.995159 -225.151067 
L 300.629091 -225.151067 
L 300.19828 -225.311798 
L 299.716065 -225.472529 
L 299.179589 -225.633259 
L 298.586414 -225.79399 
L 297.934636 -225.954721 
L 297.222999 -226.115452 
L 296.451006 -226.276182 
L 295.619027 -226.436913 
L 294.728399 -226.597644 
L 293.78151 -226.758374 
L 292.781862 -226.919105 
L 291.734116 -227.079836 
L 290.644111 -227.240566 
L 289.51885 -227.401297 
L 288.366455 -227.562028 
L 287.196087 -227.722759 
L 286.017834 -227.883489 
L 284.842562 -228.04422 
L 283.681735 -228.204951 
L 282.547203 -228.365681 
L 281.450975 -228.526412 
L 280.404957 -228.687143 
L 279.420698 -228.847874 
L 278.50911 -229.008604 
L 277.680214 -229.169335 
L 276.942879 -229.330066 
L 276.304597 -229.490796 
L 275.77128 -229.651527 
L 275.34709 -229.812258 
L 275.034325 -229.972988 
L 274.83334 -230.133719 
L 274.742525 -230.29445 
L 274.758339 -230.455181 
L 274.875392 -230.615911 
L 275.086583 -230.776642 
L 275.383281 -230.937373 
L 275.755552 -231.098103 
L 276.192419 -231.258834 
L 276.682149 -231.419565 
L 277.21256 -231.580296 
L 277.771333 -231.741026 
L 278.346322 -231.901757 
L 278.925861 -232.062488 
L 279.499038 -232.223218 
L 280.055954 -232.383949 
L 280.587936 -232.54468 
L 281.087715 -232.70541 
L 281.54956 -232.866141 
L 281.969357 -233.026872 
L 282.344652 -233.187603 
L 282.674633 -233.348333 
L 282.960075 -233.509064 
L 283.203241 -233.669795 
L 283.407748 -233.830525 
L 283.578394 -233.991256 
L 283.720969 -234.151987 
L 283.842042 -234.312717 
L 283.948738 -234.473448 
L 284.048514 -234.634179 
L 284.148929 -234.79491 
L 284.257429 -234.95564 
L 284.381146 -235.116371 
L 284.526714 -235.277102 
L 284.700104 -235.437832 
L 284.906494 -235.598563 
L 285.150161 -235.759294 
L 285.4344 -235.920025 
L 285.761482 -236.080755 
L 286.132631 -236.241486 
L 286.548034 -236.402217 
L 287.00688 -236.562947 
L 287.507414 -236.723678 
L 288.047021 -236.884409 
L 288.622318 -237.045139 
L 289.229266 -237.20587 
L 289.86329 -237.366601 
L 290.519402 -237.527332 
L 291.192332 -237.688062 
L 291.876648 -237.848793 
L 292.566885 -238.009524 
L 293.257655 -238.170254 
L 293.943753 -238.330985 
L 294.62025 -238.491716 
L 295.282575 -238.652447 
L 295.926574 -238.813177 
L 296.54857 -238.973908 
L 297.145393 -239.134639 
L 297.7144 -239.295369 
L 298.253488 -239.4561 
L 298.761085 -239.616831 
L 299.236133 -239.777561 
L 299.678065 -239.938292 
L 300.086764 -240.099023 
L 300.462529 -240.259754 
L 300.80602 -240.420484 
L 301.118219 -240.581215 
L 301.40037 -240.741946 
L 301.653934 -240.902676 
L 301.880536 -241.063407 
L 304.743714 -241.063407 
L 304.743714 -241.063407 
L 304.970316 -240.902676 
L 305.22388 -240.741946 
L 305.506031 -240.581215 
L 305.81823 -240.420484 
L 306.161721 -240.259754 
L 306.537486 -240.099023 
L 306.946185 -239.938292 
L 307.388117 -239.777561 
L 307.863165 -239.616831 
L 308.370762 -239.4561 
L 308.90985 -239.295369 
L 309.478857 -239.134639 
L 310.07568 -238.973908 
L 310.697676 -238.813177 
L 311.341675 -238.652447 
L 312.004 -238.491716 
L 312.680497 -238.330985 
L 313.366595 -238.170254 
L 314.057365 -238.009524 
L 314.747602 -237.848793 
L 315.431918 -237.688062 
L 316.104848 -237.527332 
L 316.76096 -237.366601 
L 317.394984 -237.20587 
L 318.001932 -237.045139 
L 318.577229 -236.884409 
L 319.116836 -236.723678 
L 319.61737 -236.562947 
L 320.076216 -236.402217 
L 320.491619 -236.241486 
L 320.862768 -236.080755 
L 321.18985 -235.920025 
L 321.474089 -235.759294 
L 321.717756 -235.598563 
L 321.924146 -235.437832 
L 322.097536 -235.277102 
L 322.243104 -235.116371 
L 322.366821 -234.95564 
L 322.475321 -234.79491 
L 322.575736 -234.634179 
L 322.675512 -234.473448 
L 322.782208 -234.312717 
L 322.903281 -234.151987 
L 323.045856 -233.991256 
L 323.216502 -233.830525 
L 323.421009 -233.669795 
L 323.664175 -233.509064 
L 323.949617 -233.348333 
L 324.279598 -233.187603 
L 324.654893 -233.026872 
L 325.07469 -232.866141 
L 325.536535 -232.70541 
L 326.036314 -232.54468 
L 326.568296 -232.383949 
L 327.125212 -232.223218 
L 327.698389 -232.062488 
L 328.277928 -231.901757 
L 328.852917 -231.741026 
L 329.41169 -231.580296 
L 329.942101 -231.419565 
L 330.431831 -231.258834 
L 330.868698 -231.098103 
L 331.240969 -230.937373 
L 331.537667 -230.776642 
L 331.748858 -230.615911 
L 331.865911 -230.455181 
L 331.881725 -230.29445 
L 331.79091 -230.133719 
L 331.589925 -229.972988 
L 331.27716 -229.812258 
L 330.85297 -229.651527 
L 330.319653 -229.490796 
L 329.681371 -229.330066 
L 328.944036 -229.169335 
L 328.11514 -229.008604 
L 327.203552 -228.847874 
L 326.219293 -228.687143 
L 325.173275 -228.526412 
L 324.077047 -228.365681 
L 322.942515 -228.204951 
L 321.781688 -228.04422 
L 320.606416 -227.883489 
L 319.428163 -227.722759 
L 318.257795 -227.562028 
L 317.1054 -227.401297 
L 315.980139 -227.240566 
L 314.890134 -227.079836 
L 313.842388 -226.919105 
L 312.84274 -226.758374 
L 311.895851 -226.597644 
L 311.005223 -226.436913 
L 310.173244 -226.276182 
L 309.401251 -226.115452 
L 308.689614 -225.954721 
L 308.037836 -225.79399 
L 307.444661 -225.633259 
L 306.908185 -225.472529 
L 306.42597 -225.311798 
L 305.995159 -225.151067 
z
" id="mc64433a97b" style="stroke:#3f3f3f;stroke-width:1.5;"/>
    </defs>
    <g clip-path="url(#pe24f10a218)">
     <use style="fill:#9fd495;stroke:#3f3f3f;stroke-width:1.5;" x="0" xlink:href="#mc64433a97b" y="351.576471"/>
    </g>
   </g>
   <g id="matplotlib.axis_1">
    <g id="xtick_1">
     <g id="line2d_1">
      <defs>
       <path d="M 0 0 
L 0 3.5 
" id="m1476d3fece" style="stroke:#000000;stroke-width:0.8;"/>
      </defs>
      <g>
       <use style="stroke:#000000;stroke-width:0.8;" x="89.040125" xlink:href="#m1476d3fece" y="288.430125"/>
      </g>
     </g>
     <g id="text_1">
      <!-- aflplusplus -->
      <g transform="translate(41.431118 328.897284)rotate(-30)scale(0.1 -0.1)">
       <defs>
        <path d="M 34.28125 27.484375 
Q 23.390625 27.484375 19.1875 25 
Q 14.984375 22.515625 14.984375 16.5 
Q 14.984375 11.71875 18.140625 8.90625 
Q 21.296875 6.109375 26.703125 6.109375 
Q 34.1875 6.109375 38.703125 11.40625 
Q 43.21875 16.703125 43.21875 25.484375 
L 43.21875 27.484375 
z
M 52.203125 31.203125 
L 52.203125 0 
L 43.21875 0 
L 43.21875 8.296875 
Q 40.140625 3.328125 35.546875 0.953125 
Q 30.953125 -1.421875 24.3125 -1.421875 
Q 15.921875 -1.421875 10.953125 3.296875 
Q 6 8.015625 6 15.921875 
Q 6 25.140625 12.171875 29.828125 
Q 18.359375 34.515625 30.609375 34.515625 
L 43.21875 34.515625 
L 43.21875 35.40625 
Q 43.21875 41.609375 39.140625 45 
Q 35.0625 48.390625 27.6875 48.390625 
Q 23 48.390625 18.546875 47.265625 
Q 14.109375 46.140625 10.015625 43.890625 
L 10.015625 52.203125 
Q 14.9375 54.109375 19.578125 55.046875 
Q 24.21875 56 28.609375 56 
Q 40.484375 56 46.34375 49.84375 
Q 52.203125 43.703125 52.203125 31.203125 
z
" id="DejaVuSans-97"/>
        <path d="M 37.109375 75.984375 
L 37.109375 68.5 
L 28.515625 68.5 
Q 23.6875 68.5 21.796875 66.546875 
Q 19.921875 64.59375 19.921875 59.515625 
L 19.921875 54.6875 
L 34.71875 54.6875 
L 34.71875 47.703125 
L 19.921875 47.703125 
L 19.921875 0 
L 10.890625 0 
L 10.890625 47.703125 
L 2.296875 47.703125 
L 2.296875 54.6875 
L 10.890625 54.6875 
L 10.890625 58.5 
Q 10.890625 67.625 15.140625 71.796875 
Q 19.390625 75.984375 28.609375 75.984375 
z
" id="DejaVuSans-102"/>
        <path d="M 9.421875 75.984375 
L 18.40625 75.984375 
L 18.40625 0 
L 9.421875 0 
z
" id="DejaVuSans-108"/>
        <path d="M 18.109375 8.203125 
L 18.109375 -20.796875 
L 9.078125 -20.796875 
L 9.078125 54.6875 
L 18.109375 54.6875 
L 18.109375 46.390625 
Q 20.953125 51.265625 25.265625 53.625 
Q 29.59375 56 35.59375 56 
Q 45.5625 56 51.78125 48.09375 
Q 58.015625 40.1875 58.015625 27.296875 
Q 58.015625 14.40625 51.78125 6.484375 
Q 45.5625 -1.421875 35.59375 -1.421875 
Q 29.59375 -1.421875 25.265625 0.953125 
Q 20.953125 3.328125 18.109375 8.203125 
z
M 48.6875 27.296875 
Q 48.6875 37.203125 44.609375 42.84375 
Q 40.53125 48.484375 33.40625 48.484375 
Q 26.265625 48.484375 22.1875 42.84375 
Q 18.109375 37.203125 18.109375 27.296875 
Q 18.109375 17.390625 22.1875 11.75 
Q 26.265625 6.109375 33.40625 6.109375 
Q 40.53125 6.109375 44.609375 11.75 
Q 48.6875 17.390625 48.6875 27.296875 
z
" id="DejaVuSans-112"/>
        <path d="M 8.5 21.578125 
L 8.5 54.6875 
L 17.484375 54.6875 
L 17.484375 21.921875 
Q 17.484375 14.15625 20.5 10.265625 
Q 23.53125 6.390625 29.59375 6.390625 
Q 36.859375 6.390625 41.078125 11.03125 
Q 45.3125 15.671875 45.3125 23.6875 
L 45.3125 54.6875 
L 54.296875 54.6875 
L 54.296875 0 
L 45.3125 0 
L 45.3125 8.40625 
Q 42.046875 3.421875 37.71875 1 
Q 33.40625 -1.421875 27.6875 -1.421875 
Q 18.265625 -1.421875 13.375 4.4375 
Q 8.5 10.296875 8.5 21.578125 
z
M 31.109375 56 
z
" id="DejaVuSans-117"/>
        <path d="M 44.28125 53.078125 
L 44.28125 44.578125 
Q 40.484375 46.53125 36.375 47.5 
Q 32.28125 48.484375 27.875 48.484375 
Q 21.1875 48.484375 17.84375 46.4375 
Q 14.5 44.390625 14.5 40.28125 
Q 14.5 37.15625 16.890625 35.375 
Q 19.28125 33.59375 26.515625 31.984375 
L 29.59375 31.296875 
Q 39.15625 29.25 43.1875 25.515625 
Q 47.21875 21.78125 47.21875 15.09375 
Q 47.21875 7.46875 41.1875 3.015625 
Q 35.15625 -1.421875 24.609375 -1.421875 
Q 20.21875 -1.421875 15.453125 -0.5625 
Q 10.6875 0.296875 5.421875 2 
L 5.421875 11.28125 
Q 10.40625 8.6875 15.234375 7.390625 
Q 20.0625 6.109375 24.8125 6.109375 
Q 31.15625 6.109375 34.5625 8.28125 
Q 37.984375 10.453125 37.984375 14.40625 
Q 37.984375 18.0625 35.515625 20.015625 
Q 33.0625 21.96875 24.703125 23.78125 
L 21.578125 24.515625 
Q 13.234375 26.265625 9.515625 29.90625 
Q 5.8125 33.546875 5.8125 39.890625 
Q 5.8125 47.609375 11.28125 51.796875 
Q 16.75 56 26.8125 56 
Q 31.78125 56 36.171875 55.265625 
Q 40.578125 54.546875 44.28125 53.078125 
z
" id="DejaVuSans-115"/>
       </defs>
       <use xlink:href="#DejaVuSans-97"/>
       <use x="61.279297" xlink:href="#DejaVuSans-102"/>
       <use x="96.484375" xlink:href="#DejaVuSans-108"/>
       <use x="124.267578" xlink:href="#DejaVuSans-112"/>
       <use x="187.744141" xlink:href="#DejaVuSans-108"/>
       <use x="215.527344" xlink:href="#DejaVuSans-117"/>
       <use x="278.90625" xlink:href="#DejaVuSans-115"/>
       <use x="331.005859" xlink:href="#DejaVuSans-112"/>
       <use x="394.482422" xlink:href="#DejaVuSans-108"/>
       <use x="422.265625" xlink:href="#DejaVuSans-117"/>
       <use x="485.644531" xlink:href="#DejaVuSans-115"/>
      </g>
     </g>
    </g>
    <g id="xtick_2">
     <g id="line2d_2">
      <g>
       <use style="stroke:#000000;stroke-width:0.8;" x="160.464125" xlink:href="#m1476d3fece" y="288.430125"/>
      </g>
     </g>
     <g id="text_2">
      <!-- lafintel -->
      <g transform="translate(129.63842 319.20744)rotate(-30)scale(0.1 -0.1)">
       <defs>
        <path d="M 9.421875 54.6875 
L 18.40625 54.6875 
L 18.40625 0 
L 9.421875 0 
z
M 9.421875 75.984375 
L 18.40625 75.984375 
L 18.40625 64.59375 
L 9.421875 64.59375 
z
" id="DejaVuSans-105"/>
        <path d="M 54.890625 33.015625 
L 54.890625 0 
L 45.90625 0 
L 45.90625 32.71875 
Q 45.90625 40.484375 42.875 44.328125 
Q 39.84375 48.1875 33.796875 48.1875 
Q 26.515625 48.1875 22.3125 43.546875 
Q 18.109375 38.921875 18.109375 30.90625 
L 18.109375 0 
L 9.078125 0 
L 9.078125 54.6875 
L 18.109375 54.6875 
L 18.109375 46.1875 
Q 21.34375 51.125 25.703125 53.5625 
Q 30.078125 56 35.796875 56 
Q 45.21875 56 50.046875 50.171875 
Q 54.890625 44.34375 54.890625 33.015625 
z
" id="DejaVuSans-110"/>
        <path d="M 18.3125 70.21875 
L 18.3125 54.6875 
L 36.8125 54.6875 
L 36.8125 47.703125 
L 18.3125 47.703125 
L 18.3125 18.015625 
Q 18.3125 11.328125 20.140625 9.421875 
Q 21.96875 7.515625 27.59375 7.515625 
L 36.8125 7.515625 
L 36.8125 0 
L 27.59375 0 
Q 17.1875 0 13.234375 3.875 
Q 9.28125 7.765625 9.28125 18.015625 
L 9.28125 47.703125 
L 2.6875 47.703125 
L 2.6875 54.6875 
L 9.28125 54.6875 
L 9.28125 70.21875 
z
" id="DejaVuSans-116"/>
        <path d="M 56.203125 29.59375 
L 56.203125 25.203125 
L 14.890625 25.203125 
Q 15.484375 15.921875 20.484375 11.0625 
Q 25.484375 6.203125 34.421875 6.203125 
Q 39.59375 6.203125 44.453125 7.46875 
Q 49.3125 8.734375 54.109375 11.28125 
L 54.109375 2.78125 
Q 49.265625 0.734375 44.1875 -0.34375 
Q 39.109375 -1.421875 33.890625 -1.421875 
Q 20.796875 -1.421875 13.15625 6.1875 
Q 5.515625 13.8125 5.515625 26.8125 
Q 5.515625 40.234375 12.765625 48.109375 
Q 20.015625 56 32.328125 56 
Q 43.359375 56 49.78125 48.890625 
Q 56.203125 41.796875 56.203125 29.59375 
z
M 47.21875 32.234375 
Q 47.125 39.59375 43.09375 43.984375 
Q 39.0625 48.390625 32.421875 48.390625 
Q 24.90625 48.390625 20.390625 44.140625 
Q 15.875 39.890625 15.1875 32.171875 
z
" id="DejaVuSans-101"/>
       </defs>
       <use xlink:href="#DejaVuSans-108"/>
       <use x="27.783203" xlink:href="#DejaVuSans-97"/>
       <use x="89.0625" xlink:href="#DejaVuSans-102"/>
       <use x="124.267578" xlink:href="#DejaVuSans-105"/>
       <use x="152.050781" xlink:href="#DejaVuSans-110"/>
       <use x="215.429688" xlink:href="#DejaVuSans-116"/>
       <use x="254.638672" xlink:href="#DejaVuSans-101"/>
       <use x="316.162109" xlink:href="#DejaVuSans-108"/>
      </g>
     </g>
    </g>
    <g id="xtick_3">
     <g id="line2d_3">
      <g>
       <use style="stroke:#000000;stroke-width:0.8;" x="231.888125" xlink:href="#m1476d3fece" y="288.430125"/>
      </g>
     </g>
     <g id="text_3">
      <!-- libfuzzer -->
      <g transform="translate(194.021904 323.272284)rotate(-30)scale(0.1 -0.1)">
       <defs>
        <path d="M 48.6875 27.296875 
Q 48.6875 37.203125 44.609375 42.84375 
Q 40.53125 48.484375 33.40625 48.484375 
Q 26.265625 48.484375 22.1875 42.84375 
Q 18.109375 37.203125 18.109375 27.296875 
Q 18.109375 17.390625 22.1875 11.75 
Q 26.265625 6.109375 33.40625 6.109375 
Q 40.53125 6.109375 44.609375 11.75 
Q 48.6875 17.390625 48.6875 27.296875 
z
M 18.109375 46.390625 
Q 20.953125 51.265625 25.265625 53.625 
Q 29.59375 56 35.59375 56 
Q 45.5625 56 51.78125 48.09375 
Q 58.015625 40.1875 58.015625 27.296875 
Q 58.015625 14.40625 51.78125 6.484375 
Q 45.5625 -1.421875 35.59375 -1.421875 
Q 29.59375 -1.421875 25.265625 0.953125 
Q 20.953125 3.328125 18.109375 8.203125 
L 18.109375 0 
L 9.078125 0 
L 9.078125 75.984375 
L 18.109375 75.984375 
z
" id="DejaVuSans-98"/>
        <path d="M 5.515625 54.6875 
L 48.1875 54.6875 
L 48.1875 46.484375 
L 14.40625 7.171875 
L 48.1875 7.171875 
L 48.1875 0 
L 4.296875 0 
L 4.296875 8.203125 
L 38.09375 47.515625 
L 5.515625 47.515625 
z
" id="DejaVuSans-122"/>
        <path d="M 41.109375 46.296875 
Q 39.59375 47.171875 37.8125 47.578125 
Q 36.03125 48 33.890625 48 
Q 26.265625 48 22.1875 43.046875 
Q 18.109375 38.09375 18.109375 28.8125 
L 18.109375 0 
L 9.078125 0 
L 9.078125 54.6875 
L 18.109375 54.6875 
L 18.109375 46.1875 
Q 20.953125 51.171875 25.484375 53.578125 
Q 30.03125 56 36.53125 56 
Q 37.453125 56 38.578125 55.875 
Q 39.703125 55.765625 41.0625 55.515625 
z
" id="DejaVuSans-114"/>
       </defs>
       <use xlink:href="#DejaVuSans-108"/>
       <use x="27.783203" xlink:href="#DejaVuSans-105"/>
       <use x="55.566406" xlink:href="#DejaVuSans-98"/>
       <use x="119.042969" xlink:href="#DejaVuSans-102"/>
       <use x="154.248047" xlink:href="#DejaVuSans-117"/>
       <use x="217.626953" xlink:href="#DejaVuSans-122"/>
       <use x="270.117188" xlink:href="#DejaVuSans-122"/>
       <use x="322.607422" xlink:href="#DejaVuSans-101"/>
       <use x="384.130859" xlink:href="#DejaVuSans-114"/>
      </g>
     </g>
    </g>
    <g id="xtick_4">
     <g id="line2d_4">
      <g>
       <use style="stroke:#000000;stroke-width:0.8;" x="303.312125" xlink:href="#m1476d3fece" y="288.430125"/>
      </g>
     </g>
     <g id="text_4">
      <!-- honggfuzz -->
      <g transform="translate(257.372924 327.933221)rotate(-30)scale(0.1 -0.1)">
       <defs>
        <path d="M 54.890625 33.015625 
L 54.890625 0 
L 45.90625 0 
L 45.90625 32.71875 
Q 45.90625 40.484375 42.875 44.328125 
Q 39.84375 48.1875 33.796875 48.1875 
Q 26.515625 48.1875 22.3125 43.546875 
Q 18.109375 38.921875 18.109375 30.90625 
L 18.109375 0 
L 9.078125 0 
L 9.078125 75.984375 
L 18.109375 75.984375 
L 18.109375 46.1875 
Q 21.34375 51.125 25.703125 53.5625 
Q 30.078125 56 35.796875 56 
Q 45.21875 56 50.046875 50.171875 
Q 54.890625 44.34375 54.890625 33.015625 
z
" id="DejaVuSans-104"/>
        <path d="M 30.609375 48.390625 
Q 23.390625 48.390625 19.1875 42.75 
Q 14.984375 37.109375 14.984375 27.296875 
Q 14.984375 17.484375 19.15625 11.84375 
Q 23.34375 6.203125 30.609375 6.203125 
Q 37.796875 6.203125 41.984375 11.859375 
Q 46.1875 17.53125 46.1875 27.296875 
Q 46.1875 37.015625 41.984375 42.703125 
Q 37.796875 48.390625 30.609375 48.390625 
z
M 30.609375 56 
Q 42.328125 56 49.015625 48.375 
Q 55.71875 40.765625 55.71875 27.296875 
Q 55.71875 13.875 49.015625 6.21875 
Q 42.328125 -1.421875 30.609375 -1.421875 
Q 18.84375 -1.421875 12.171875 6.21875 
Q 5.515625 13.875 5.515625 27.296875 
Q 5.515625 40.765625 12.171875 48.375 
Q 18.84375 56 30.609375 56 
z
" id="DejaVuSans-111"/>
        <path d="M 45.40625 27.984375 
Q 45.40625 37.75 41.375 43.109375 
Q 37.359375 48.484375 30.078125 48.484375 
Q 22.859375 48.484375 18.828125 43.109375 
Q 14.796875 37.75 14.796875 27.984375 
Q 14.796875 18.265625 18.828125 12.890625 
Q 22.859375 7.515625 30.078125 7.515625 
Q 37.359375 7.515625 41.375 12.890625 
Q 45.40625 18.265625 45.40625 27.984375 
z
M 54.390625 6.78125 
Q 54.390625 -7.171875 48.1875 -13.984375 
Q 42 -20.796875 29.203125 -20.796875 
Q 24.46875 -20.796875 20.265625 -20.09375 
Q 16.0625 -19.390625 12.109375 -17.921875 
L 12.109375 -9.1875 
Q 16.0625 -11.328125 19.921875 -12.34375 
Q 23.78125 -13.375 27.78125 -13.375 
Q 36.625 -13.375 41.015625 -8.765625 
Q 45.40625 -4.15625 45.40625 5.171875 
L 45.40625 9.625 
Q 42.625 4.78125 38.28125 2.390625 
Q 33.9375 0 27.875 0 
Q 17.828125 0 11.671875 7.65625 
Q 5.515625 15.328125 5.515625 27.984375 
Q 5.515625 40.671875 11.671875 48.328125 
Q 17.828125 56 27.875 56 
Q 33.9375 56 38.28125 53.609375 
Q 42.625 51.21875 45.40625 46.390625 
L 45.40625 54.6875 
L 54.390625 54.6875 
z
" id="DejaVuSans-103"/>
       </defs>
       <use xlink:href="#DejaVuSans-104"/>
       <use x="63.378906" xlink:href="#DejaVuSans-111"/>
       <use x="124.560547" xlink:href="#DejaVuSans-110"/>
       <use x="187.939453" xlink:href="#DejaVuSans-103"/>
       <use x="251.416016" xlink:href="#DejaVuSans-103"/>
       <use x="314.892578" xlink:href="#DejaVuSans-102"/>
       <use x="350.097656" xlink:href="#DejaVuSans-117"/>
       <use x="413.476562" xlink:href="#DejaVuSans-122"/>
       <use x="465.966797" xlink:href="#DejaVuSans-122"/>
      </g>
     </g>
    </g>
    <g id="xtick_5">
     <g id="line2d_5">
      <g>
       <use style="stroke:#000000;stroke-width:0.8;" x="374.736125" xlink:href="#m1476d3fece" y="288.430125"/>
      </g>
     </g>
     <g id="text_5">
      <!-- klee -->
      <g transform="translate(355.618001 312.448065)rotate(-30)scale(0.1 -0.1)">
       <defs>
        <path d="M 9.078125 75.984375 
L 18.109375 75.984375 
L 18.109375 31.109375 
L 44.921875 54.6875 
L 56.390625 54.6875 
L 27.390625 29.109375 
L 57.625 0 
L 45.90625 0 
L 18.109375 26.703125 
L 18.109375 0 
L 9.078125 0 
z
" id="DejaVuSans-107"/>
       </defs>
       <use xlink:href="#DejaVuSans-107"/>
       <use x="57.910156" xlink:href="#DejaVuSans-108"/>
       <use x="85.693359" xlink:href="#DejaVuSans-101"/>
       <use x="147.216797" xlink:href="#DejaVuSans-101"/>
      </g>
     </g>
    </g>
    <g id="text_6">
     <!-- Fuzzer (highest median coverage on the left) -->
     <g transform="translate(119.270156 342.296783)scale(0.1 -0.1)">
      <defs>
       <path d="M 9.8125 72.90625 
L 51.703125 72.90625 
L 51.703125 64.59375 
L 19.671875 64.59375 
L 19.671875 43.109375 
L 48.578125 43.109375 
L 48.578125 34.8125 
L 19.671875 34.8125 
L 19.671875 0 
L 9.8125 0 
z
" id="DejaVuSans-70"/>
       <path id="DejaVuSans-32"/>
       <path d="M 31 75.875 
Q 24.46875 64.65625 21.28125 53.65625 
Q 18.109375 42.671875 18.109375 31.390625 
Q 18.109375 20.125 21.3125 9.0625 
Q 24.515625 -2 31 -13.1875 
L 23.1875 -13.1875 
Q 15.875 -1.703125 12.234375 9.375 
Q 8.59375 20.453125 8.59375 31.390625 
Q 8.59375 42.28125 12.203125 53.3125 
Q 15.828125 64.359375 23.1875 75.875 
z
" id="DejaVuSans-40"/>
       <path d="M 52 44.1875 
Q 55.375 50.25 60.0625 53.125 
Q 64.75 56 71.09375 56 
Q 79.640625 56 84.28125 50.015625 
Q 88.921875 44.046875 88.921875 33.015625 
L 88.921875 0 
L 79.890625 0 
L 79.890625 32.71875 
Q 79.890625 40.578125 77.09375 44.375 
Q 74.3125 48.1875 68.609375 48.1875 
Q 61.625 48.1875 57.5625 43.546875 
Q 53.515625 38.921875 53.515625 30.90625 
L 53.515625 0 
L 44.484375 0 
L 44.484375 32.71875 
Q 44.484375 40.625 41.703125 44.40625 
Q 38.921875 48.1875 33.109375 48.1875 
Q 26.21875 48.1875 22.15625 43.53125 
Q 18.109375 38.875 18.109375 30.90625 
L 18.109375 0 
L 9.078125 0 
L 9.078125 54.6875 
L 18.109375 54.6875 
L 18.109375 46.1875 
Q 21.1875 51.21875 25.484375 53.609375 
Q 29.78125 56 35.6875 56 
Q 41.65625 56 45.828125 52.96875 
Q 50 49.953125 52 44.1875 
z
" id="DejaVuSans-109"/>
       <path d="M 45.40625 46.390625 
L 45.40625 75.984375 
L 54.390625 75.984375 
L 54.390625 0 
L 45.40625 0 
L 45.40625 8.203125 
Q 42.578125 3.328125 38.25 0.953125 
Q 33.9375 -1.421875 27.875 -1.421875 
Q 17.96875 -1.421875 11.734375 6.484375 
Q 5.515625 14.40625 5.515625 27.296875 
Q 5.515625 40.1875 11.734375 48.09375 
Q 17.96875 56 27.875 56 
Q 33.9375 56 38.25 53.625 
Q 42.578125 51.265625 45.40625 46.390625 
z
M 14.796875 27.296875 
Q 14.796875 17.390625 18.875 11.75 
Q 22.953125 6.109375 30.078125 6.109375 
Q 37.203125 6.109375 41.296875 11.75 
Q 45.40625 17.390625 45.40625 27.296875 
Q 45.40625 37.203125 41.296875 42.84375 
Q 37.203125 48.484375 30.078125 48.484375 
Q 22.953125 48.484375 18.875 42.84375 
Q 14.796875 37.203125 14.796875 27.296875 
z
" id="DejaVuSans-100"/>
       <path d="M 48.78125 52.59375 
L 48.78125 44.1875 
Q 44.96875 46.296875 41.140625 47.34375 
Q 37.3125 48.390625 33.40625 48.390625 
Q 24.65625 48.390625 19.8125 42.84375 
Q 14.984375 37.3125 14.984375 27.296875 
Q 14.984375 17.28125 19.8125 11.734375 
Q 24.65625 6.203125 33.40625 6.203125 
Q 37.3125 6.203125 41.140625 7.25 
Q 44.96875 8.296875 48.78125 10.40625 
L 48.78125 2.09375 
Q 45.015625 0.34375 40.984375 -0.53125 
Q 36.96875 -1.421875 32.421875 -1.421875 
Q 20.0625 -1.421875 12.78125 6.34375 
Q 5.515625 14.109375 5.515625 27.296875 
Q 5.515625 40.671875 12.859375 48.328125 
Q 20.21875 56 33.015625 56 
Q 37.15625 56 41.109375 55.140625 
Q 45.0625 54.296875 48.78125 52.59375 
z
" id="DejaVuSans-99"/>
       <path d="M 2.984375 54.6875 
L 12.5 54.6875 
L 29.59375 8.796875 
L 46.6875 54.6875 
L 56.203125 54.6875 
L 35.6875 0 
L 23.484375 0 
z
" id="DejaVuSans-118"/>
       <path d="M 8.015625 75.875 
L 15.828125 75.875 
Q 23.140625 64.359375 26.78125 53.3125 
Q 30.421875 42.28125 30.421875 31.390625 
Q 30.421875 20.453125 26.78125 9.375 
Q 23.140625 -1.703125 15.828125 -13.1875 
L 8.015625 -13.1875 
Q 14.5 -2 17.703125 9.0625 
Q 20.90625 20.125 20.90625 31.390625 
Q 20.90625 42.671875 17.703125 53.65625 
Q 14.5 64.65625 8.015625 75.875 
z
" id="DejaVuSans-41"/>
      </defs>
      <use xlink:href="#DejaVuSans-70"/>
      <use x="52.019531" xlink:href="#DejaVuSans-117"/>
      <use x="115.398438" xlink:href="#DejaVuSans-122"/>
      <use x="167.888672" xlink:href="#DejaVuSans-122"/>
      <use x="220.378906" xlink:href="#DejaVuSans-101"/>
      <use x="281.902344" xlink:href="#DejaVuSans-114"/>
      <use x="323.015625" xlink:href="#DejaVuSans-32"/>
      <use x="354.802734" xlink:href="#DejaVuSans-40"/>
      <use x="393.816406" xlink:href="#DejaVuSans-104"/>
      <use x="457.195312" xlink:href="#DejaVuSans-105"/>
      <use x="484.978516" xlink:href="#DejaVuSans-103"/>
      <use x="548.455078" xlink:href="#DejaVuSans-104"/>
      <use x="611.833984" xlink:href="#DejaVuSans-101"/>
      <use x="673.357422" xlink:href="#DejaVuSans-115"/>
      <use x="725.457031" xlink:href="#DejaVuSans-116"/>
      <use x="764.666016" xlink:href="#DejaVuSans-32"/>
      <use x="796.453125" xlink:href="#DejaVuSans-109"/>
      <use x="893.865234" xlink:href="#DejaVuSans-101"/>
      <use x="955.388672" xlink:href="#DejaVuSans-100"/>
      <use x="1018.865234" xlink:href="#DejaVuSans-105"/>
      <use x="1046.648438" xlink:href="#DejaVuSans-97"/>
      <use x="1107.927734" xlink:href="#DejaVuSans-110"/>
      <use x="1171.306641" xlink:href="#DejaVuSans-32"/>
      <use x="1203.09375" xlink:href="#DejaVuSans-99"/>
      <use x="1258.074219" xlink:href="#DejaVuSans-111"/>
      <use x="1319.255859" xlink:href="#DejaVuSans-118"/>
      <use x="1378.435547" xlink:href="#DejaVuSans-101"/>
      <use x="1439.958984" xlink:href="#DejaVuSans-114"/>
      <use x="1481.072266" xlink:href="#DejaVuSans-97"/>
      <use x="1542.351562" xlink:href="#DejaVuSans-103"/>
      <use x="1605.828125" xlink:href="#DejaVuSans-101"/>
      <use x="1667.351562" xlink:href="#DejaVuSans-32"/>
      <use x="1699.138672" xlink:href="#DejaVuSans-111"/>
      <use x="1760.320312" xlink:href="#DejaVuSans-110"/>
      <use x="1823.699219" xlink:href="#DejaVuSans-32"/>
      <use x="1855.486328" xlink:href="#DejaVuSans-116"/>
      <use x="1894.695312" xlink:href="#DejaVuSans-104"/>
      <use x="1958.074219" xlink:href="#DejaVuSans-101"/>
      <use x="2019.597656" xlink:href="#DejaVuSans-32"/>
      <use x="2051.384766" xlink:href="#DejaVuSans-108"/>
      <use x="2079.167969" xlink:href="#DejaVuSans-101"/>
      <use x="2140.691406" xlink:href="#DejaVuSans-102"/>
      <use x="2174.146484" xlink:href="#DejaVuSans-116"/>
      <use x="2213.355469" xlink:href="#DejaVuSans-41"/>
     </g>
    </g>
   </g>
   <g id="matplotlib.axis_2">
    <g id="ytick_1">
     <g id="line2d_6">
      <defs>
       <path d="M 0 0 
L -3.5 0 
" id="m0942150924" style="stroke:#000000;stroke-width:0.8;"/>
      </defs>
      <g>
       <use style="stroke:#000000;stroke-width:0.8;" x="53.328125" xlink:href="#m0942150924" y="246.978456"/>
      </g>
     </g>
     <g id="text_7">
      <!-- 0 -->
      <g transform="translate(39.965625 250.777675)scale(0.1 -0.1)">
       <defs>
        <path d="M 31.78125 66.40625 
Q 24.171875 66.40625 20.328125 58.90625 
Q 16.5 51.421875 16.5 36.375 
Q 16.5 21.390625 20.328125 13.890625 
Q 24.171875 6.390625 31.78125 6.390625 
Q 39.453125 6.390625 43.28125 13.890625 
Q 47.125 21.390625 47.125 36.375 
Q 47.125 51.421875 43.28125 58.90625 
Q 39.453125 66.40625 31.78125 66.40625 
z
M 31.78125 74.21875 
Q 44.046875 74.21875 50.515625 64.515625 
Q 56.984375 54.828125 56.984375 36.375 
Q 56.984375 17.96875 50.515625 8.265625 
Q 44.046875 -1.421875 31.78125 -1.421875 
Q 19.53125 -1.421875 13.0625 8.265625 
Q 6.59375 17.96875 6.59375 36.375 
Q 6.59375 54.828125 13.0625 64.515625 
Q 19.53125 74.21875 31.78125 74.21875 
z
" id="DejaVuSans-48"/>
       </defs>
       <use xlink:href="#DejaVuSans-48"/>
      </g>
     </g>
    </g>
    <g id="ytick_2">
     <g id="line2d_7">
      <g>
       <use style="stroke:#000000;stroke-width:0.8;" x="53.328125" xlink:href="#m0942150924" y="196.852967"/>
      </g>
     </g>
     <g id="text_8">
      <!-- 2000 -->
      <g transform="translate(20.878125 200.652186)scale(0.1 -0.1)">
       <defs>
        <path d="M 19.1875 8.296875 
L 53.609375 8.296875 
L 53.609375 0 
L 7.328125 0 
L 7.328125 8.296875 
Q 12.9375 14.109375 22.625 23.890625 
Q 32.328125 33.6875 34.8125 36.53125 
Q 39.546875 41.84375 41.421875 45.53125 
Q 43.3125 49.21875 43.3125 52.78125 
Q 43.3125 58.59375 39.234375 62.25 
Q 35.15625 65.921875 28.609375 65.921875 
Q 23.96875 65.921875 18.8125 64.3125 
Q 13.671875 62.703125 7.8125 59.421875 
L 7.8125 69.390625 
Q 13.765625 71.78125 18.9375 73 
Q 24.125 74.21875 28.421875 74.21875 
Q 39.75 74.21875 46.484375 68.546875 
Q 53.21875 62.890625 53.21875 53.421875 
Q 53.21875 48.921875 51.53125 44.890625 
Q 49.859375 40.875 45.40625 35.40625 
Q 44.1875 33.984375 37.640625 27.21875 
Q 31.109375 20.453125 19.1875 8.296875 
z
" id="DejaVuSans-50"/>
       </defs>
       <use xlink:href="#DejaVuSans-50"/>
       <use x="63.623047" xlink:href="#DejaVuSans-48"/>
       <use x="127.246094" xlink:href="#DejaVuSans-48"/>
       <use x="190.869141" xlink:href="#DejaVuSans-48"/>
      </g>
     </g>
    </g>
    <g id="ytick_3">
     <g id="line2d_8">
      <g>
       <use style="stroke:#000000;stroke-width:0.8;" x="53.328125" xlink:href="#m0942150924" y="146.727478"/>
      </g>
     </g>
     <g id="text_9">
      <!-- 4000 -->
      <g transform="translate(20.878125 150.526697)scale(0.1 -0.1)">
       <defs>
        <path d="M 37.796875 64.3125 
L 12.890625 25.390625 
L 37.796875 25.390625 
z
M 35.203125 72.90625 
L 47.609375 72.90625 
L 47.609375 25.390625 
L 58.015625 25.390625 
L 58.015625 17.1875 
L 47.609375 17.1875 
L 47.609375 0 
L 37.796875 0 
L 37.796875 17.1875 
L 4.890625 17.1875 
L 4.890625 26.703125 
z
" id="DejaVuSans-52"/>
       </defs>
       <use xlink:href="#DejaVuSans-52"/>
       <use x="63.623047" xlink:href="#DejaVuSans-48"/>
       <use x="127.246094" xlink:href="#DejaVuSans-48"/>
       <use x="190.869141" xlink:href="#DejaVuSans-48"/>
      </g>
     </g>
    </g>
    <g id="ytick_4">
     <g id="line2d_9">
      <g>
       <use style="stroke:#000000;stroke-width:0.8;" x="53.328125" xlink:href="#m0942150924" y="96.601989"/>
      </g>
     </g>
     <g id="text_10">
      <!-- 6000 -->
      <g transform="translate(20.878125 100.401208)scale(0.1 -0.1)">
       <defs>
        <path d="M 33.015625 40.375 
Q 26.375 40.375 22.484375 35.828125 
Q 18.609375 31.296875 18.609375 23.390625 
Q 18.609375 15.53125 22.484375 10.953125 
Q 26.375 6.390625 33.015625 6.390625 
Q 39.65625 6.390625 43.53125 10.953125 
Q 47.40625 15.53125 47.40625 23.390625 
Q 47.40625 31.296875 43.53125 35.828125 
Q 39.65625 40.375 33.015625 40.375 
z
M 52.59375 71.296875 
L 52.59375 62.3125 
Q 48.875 64.0625 45.09375 64.984375 
Q 41.3125 65.921875 37.59375 65.921875 
Q 27.828125 65.921875 22.671875 59.328125 
Q 17.53125 52.734375 16.796875 39.40625 
Q 19.671875 43.65625 24.015625 45.921875 
Q 28.375 48.1875 33.59375 48.1875 
Q 44.578125 48.1875 50.953125 41.515625 
Q 57.328125 34.859375 57.328125 23.390625 
Q 57.328125 12.15625 50.6875 5.359375 
Q 44.046875 -1.421875 33.015625 -1.421875 
Q 20.359375 -1.421875 13.671875 8.265625 
Q 6.984375 17.96875 6.984375 36.375 
Q 6.984375 53.65625 15.1875 63.9375 
Q 23.390625 74.21875 37.203125 74.21875 
Q 40.921875 74.21875 44.703125 73.484375 
Q 48.484375 72.75 52.59375 71.296875 
z
" id="DejaVuSans-54"/>
       </defs>
       <use xlink:href="#DejaVuSans-54"/>
       <use x="63.623047" xlink:href="#DejaVuSans-48"/>
       <use x="127.246094" xlink:href="#DejaVuSans-48"/>
       <use x="190.869141" xlink:href="#DejaVuSans-48"/>
      </g>
     </g>
    </g>
    <g id="ytick_5">
     <g id="line2d_10">
      <g>
       <use style="stroke:#000000;stroke-width:0.8;" x="53.328125" xlink:href="#m0942150924" y="46.4765"/>
      </g>
     </g>
     <g id="text_11">
      <!-- 8000 -->
      <g transform="translate(20.878125 50.275719)scale(0.1 -0.1)">
       <defs>
        <path d="M 31.78125 34.625 
Q 24.75 34.625 20.71875 30.859375 
Q 16.703125 27.09375 16.703125 20.515625 
Q 16.703125 13.921875 20.71875 10.15625 
Q 24.75 6.390625 31.78125 6.390625 
Q 38.8125 6.390625 42.859375 10.171875 
Q 46.921875 13.96875 46.921875 20.515625 
Q 46.921875 27.09375 42.890625 30.859375 
Q 38.875 34.625 31.78125 34.625 
z
M 21.921875 38.8125 
Q 15.578125 40.375 12.03125 44.71875 
Q 8.5 49.078125 8.5 55.328125 
Q 8.5 64.0625 14.71875 69.140625 
Q 20.953125 74.21875 31.78125 74.21875 
Q 42.671875 74.21875 48.875 69.140625 
Q 55.078125 64.0625 55.078125 55.328125 
Q 55.078125 49.078125 51.53125 44.71875 
Q 48 40.375 41.703125 38.8125 
Q 48.828125 37.15625 52.796875 32.3125 
Q 56.78125 27.484375 56.78125 20.515625 
Q 56.78125 9.90625 50.3125 4.234375 
Q 43.84375 -1.421875 31.78125 -1.421875 
Q 19.734375 -1.421875 13.25 4.234375 
Q 6.78125 9.90625 6.78125 20.515625 
Q 6.78125 27.484375 10.78125 32.3125 
Q 14.796875 37.15625 21.921875 38.8125 
z
M 18.3125 54.390625 
Q 18.3125 48.734375 21.84375 45.5625 
Q 25.390625 42.390625 31.78125 42.390625 
Q 38.140625 42.390625 41.71875 45.5625 
Q 45.3125 48.734375 45.3125 54.390625 
Q 45.3125 60.0625 41.71875 63.234375 
Q 38.140625 66.40625 31.78125 66.40625 
Q 25.390625 66.40625 21.84375 63.234375 
Q 18.3125 60.0625 18.3125 54.390625 
z
" id="DejaVuSans-56"/>
       </defs>
       <use xlink:href="#DejaVuSans-56"/>
       <use x="63.623047" xlink:href="#DejaVuSans-48"/>
       <use x="127.246094" xlink:href="#DejaVuSans-48"/>
       <use x="190.869141" xlink:href="#DejaVuSans-48"/>
      </g>
     </g>
    </g>
    <g id="text_12">
     <!-- Reached region coverage -->
     <g transform="translate(14.798438 219.136625)rotate(-90)scale(0.1 -0.1)">
      <defs>
       <path d="M 44.390625 34.1875 
Q 47.5625 33.109375 50.5625 29.59375 
Q 53.5625 26.078125 56.59375 19.921875 
L 66.609375 0 
L 56 0 
L 46.6875 18.703125 
Q 43.0625 26.03125 39.671875 28.421875 
Q 36.28125 30.8125 30.421875 30.8125 
L 19.671875 30.8125 
L 19.671875 0 
L 9.8125 0 
L 9.8125 72.90625 
L 32.078125 72.90625 
Q 44.578125 72.90625 50.734375 67.671875 
Q 56.890625 62.453125 56.890625 51.90625 
Q 56.890625 45.015625 53.6875 40.46875 
Q 50.484375 35.9375 44.390625 34.1875 
z
M 19.671875 64.796875 
L 19.671875 38.921875 
L 32.078125 38.921875 
Q 39.203125 38.921875 42.84375 42.21875 
Q 46.484375 45.515625 46.484375 51.90625 
Q 46.484375 58.296875 42.84375 61.546875 
Q 39.203125 64.796875 32.078125 64.796875 
z
" id="DejaVuSans-82"/>
      </defs>
      <use xlink:href="#DejaVuSans-82"/>
      <use x="64.982422" xlink:href="#DejaVuSans-101"/>
      <use x="126.505859" xlink:href="#DejaVuSans-97"/>
      <use x="187.785156" xlink:href="#DejaVuSans-99"/>
      <use x="242.765625" xlink:href="#DejaVuSans-104"/>
      <use x="306.144531" xlink:href="#DejaVuSans-101"/>
      <use x="367.667969" xlink:href="#DejaVuSans-100"/>
      <use x="431.144531" xlink:href="#DejaVuSans-32"/>
      <use x="462.931641" xlink:href="#DejaVuSans-114"/>
      <use x="501.794922" xlink:href="#DejaVuSans-101"/>
      <use x="563.318359" xlink:href="#DejaVuSans-103"/>
      <use x="626.794922" xlink:href="#DejaVuSans-105"/>
      <use x="654.578125" xlink:href="#DejaVuSans-111"/>
      <use x="715.759766" xlink:href="#DejaVuSans-110"/>
      <use x="779.138672" xlink:href="#DejaVuSans-32"/>
      <use x="810.925781" xlink:href="#DejaVuSans-99"/>
      <use x="865.90625" xlink:href="#DejaVuSans-111"/>
      <use x="927.087891" xlink:href="#DejaVuSans-118"/>
      <use x="986.267578" xlink:href="#DejaVuSans-101"/>
      <use x="1047.791016" xlink:href="#DejaVuSans-114"/>
      <use x="1088.904297" xlink:href="#DejaVuSans-97"/>
      <use x="1150.183594" xlink:href="#DejaVuSans-103"/>
      <use x="1213.660156" xlink:href="#DejaVuSans-101"/>
     </g>
    </g>
   </g>
   <g id="line2d_11">
    <path clip-path="url(#pe24f10a218)" d="M 89.040125 87.128272 
L 89.040125 77.103174 
" style="fill:none;stroke:#3f3f3f;stroke-linecap:square;stroke-width:1.5;"/>
   </g>
   <g id="line2d_12">
    <path clip-path="url(#pe24f10a218)" d="M 89.040125 87.128272 
L 89.040125 77.98037 
" style="fill:none;stroke:#3f3f3f;stroke-linecap:square;stroke-width:4.5;"/>
   </g>
   <g id="line2d_13">
    <path clip-path="url(#pe24f10a218)" d="M 160.464125 117.328879 
L 160.464125 101.013032 
" style="fill:none;stroke:#3f3f3f;stroke-linecap:square;stroke-width:1.5;"/>
   </g>
   <g id="line2d_14">
    <path clip-path="url(#pe24f10a218)" d="M 160.464125 117.328879 
L 160.464125 105.875205 
" style="fill:none;stroke:#3f3f3f;stroke-linecap:square;stroke-width:4.5;"/>
   </g>
   <g id="line2d_15">
    <path clip-path="url(#pe24f10a218)" d="M 231.888125 123.318875 
L 231.888125 115.975491 
" style="fill:none;stroke:#3f3f3f;stroke-linecap:square;stroke-width:1.5;"/>
   </g>
   <g id="line2d_16">
    <path clip-path="url(#pe24f10a218)" d="M 231.888125 121.26373 
L 231.888125 115.975491 
" style="fill:none;stroke:#3f3f3f;stroke-linecap:square;stroke-width:4.5;"/>
   </g>
   <g id="line2d_17">
    <path clip-path="url(#pe24f10a218)" d="M 303.312125 121.890298 
L 303.312125 115.048169 
" style="fill:none;stroke:#3f3f3f;stroke-linecap:square;stroke-width:1.5;"/>
   </g>
   <g id="line2d_18">
    <path clip-path="url(#pe24f10a218)" d="M 303.312125 121.414106 
L 303.312125 116.802561 
" style="fill:none;stroke:#3f3f3f;stroke-linecap:square;stroke-width:4.5;"/>
   </g>
   <g id="line2d_19">
    <path clip-path="url(#pe24f10a218)" d="M 346.166525 193.845438 
L 403.305725 193.845438 
" style="fill:none;stroke:#3f3f3f;stroke-linecap:square;stroke-width:1.5;"/>
   </g>
   <g id="patch_3">
    <path d="M 53.328125 246.978456 
L 53.328125 46.4765 
" style="fill:none;stroke:#000000;stroke-linecap:square;stroke-linejoin:miter;stroke-width:0.8;"/>
   </g>
   <g id="patch_4">
    <path d="M 89.040125 288.430125 
L 374.736125 288.430125 
" style="fill:none;stroke:#000000;stroke-linecap:square;stroke-linejoin:miter;stroke-width:0.8;"/>
   </g>
   <g id="PathCollection_1">
    <defs>
     <path d="M 0 1.5 
C 0.397805 1.5 0.77937 1.341951 1.06066 1.06066 
C 1.341951 0.77937 1.5 0.397805 1.5 0 
C 1.5 -0.397805 1.341951 -0.77937 1.06066 -1.06066 
C 0.77937 -1.341951 0.397805 -1.5 0 -1.5 
C -0.397805 -1.5 -0.77937 -1.341951 -1.06066 -1.06066 
C -1.341951 -0.77937 -1.5 -0.397805 -1.5 0 
C -1.5 0.397805 -1.341951 0.77937 -1.06066 1.06066 
C -0.77937 1.341951 -0.397805 1.5 0 1.5 
z
" id="m8752cc8568" style="stroke:#3f3f3f;"/>
    </defs>
    <g clip-path="url(#pe24f10a218)">
     <use style="fill:#ffffff;stroke:#3f3f3f;" x="89.040125" xlink:href="#m8752cc8568" y="84.747311"/>
    </g>
   </g>
   <g id="PathCollection_2">
    <g clip-path="url(#pe24f10a218)">
     <use style="fill:#ffffff;stroke:#3f3f3f;" x="160.464125" xlink:href="#m8752cc8568" y="107.228593"/>
    </g>
   </g>
   <g id="PathCollection_3">
    <g clip-path="url(#pe24f10a218)">
     <use style="fill:#ffffff;stroke:#3f3f3f;" x="231.888125" xlink:href="#m8752cc8568" y="117.103314"/>
    </g>
   </g>
   <g id="PathCollection_4">
    <g clip-path="url(#pe24f10a218)">
     <use style="fill:#ffffff;stroke:#3f3f3f;" x="303.312125" xlink:href="#m8752cc8568" y="121.213604"/>
    </g>
   </g>
   <g id="text_13">
    <!-- libxml2-v2.9.2 (30m, 5 trials/fuzzer) -->
    <g transform="translate(124.086875 16.318125)scale(0.12 -0.12)">
     <defs>
      <path d="M 54.890625 54.6875 
L 35.109375 28.078125 
L 55.90625 0 
L 45.3125 0 
L 29.390625 21.484375 
L 13.484375 0 
L 2.875 0 
L 24.125 28.609375 
L 4.6875 54.6875 
L 15.28125 54.6875 
L 29.78125 35.203125 
L 44.28125 54.6875 
z
" id="DejaVuSans-120"/>
      <path d="M 4.890625 31.390625 
L 31.203125 31.390625 
L 31.203125 23.390625 
L 4.890625 23.390625 
z
" id="DejaVuSans-45"/>
      <path d="M 10.6875 12.40625 
L 21 12.40625 
L 21 0 
L 10.6875 0 
z
" id="DejaVuSans-46"/>
      <path d="M 10.984375 1.515625 
L 10.984375 10.5 
Q 14.703125 8.734375 18.5 7.8125 
Q 22.3125 6.890625 25.984375 6.890625 
Q 35.75 6.890625 40.890625 13.453125 
Q 46.046875 20.015625 46.78125 33.40625 
Q 43.953125 29.203125 39.59375 26.953125 
Q 35.25 24.703125 29.984375 24.703125 
Q 19.046875 24.703125 12.671875 31.3125 
Q 6.296875 37.9375 6.296875 49.421875 
Q 6.296875 60.640625 12.9375 67.421875 
Q 19.578125 74.21875 30.609375 74.21875 
Q 43.265625 74.21875 49.921875 64.515625 
Q 56.59375 54.828125 56.59375 36.375 
Q 56.59375 19.140625 48.40625 8.859375 
Q 40.234375 -1.421875 26.421875 -1.421875 
Q 22.703125 -1.421875 18.890625 -0.6875 
Q 15.09375 0.046875 10.984375 1.515625 
z
M 30.609375 32.421875 
Q 37.25 32.421875 41.125 36.953125 
Q 45.015625 41.5 45.015625 49.421875 
Q 45.015625 57.28125 41.125 61.84375 
Q 37.25 66.40625 30.609375 66.40625 
Q 23.96875 66.40625 20.09375 61.84375 
Q 16.21875 57.28125 16.21875 49.421875 
Q 16.21875 41.5 20.09375 36.953125 
Q 23.96875 32.421875 30.609375 32.421875 
z
" id="DejaVuSans-57"/>
      <path d="M 40.578125 39.3125 
Q 47.65625 37.796875 51.625 33 
Q 55.609375 28.21875 55.609375 21.1875 
Q 55.609375 10.40625 48.1875 4.484375 
Q 40.765625 -1.421875 27.09375 -1.421875 
Q 22.515625 -1.421875 17.65625 -0.515625 
Q 12.796875 0.390625 7.625 2.203125 
L 7.625 11.71875 
Q 11.71875 9.328125 16.59375 8.109375 
Q 21.484375 6.890625 26.8125 6.890625 
Q 36.078125 6.890625 40.9375 10.546875 
Q 45.796875 14.203125 45.796875 21.1875 
Q 45.796875 27.640625 41.28125 31.265625 
Q 36.765625 34.90625 28.71875 34.90625 
L 20.21875 34.90625 
L 20.21875 43.015625 
L 29.109375 43.015625 
Q 36.375 43.015625 40.234375 45.921875 
Q 44.09375 48.828125 44.09375 54.296875 
Q 44.09375 59.90625 40.109375 62.90625 
Q 36.140625 65.921875 28.71875 65.921875 
Q 24.65625 65.921875 20.015625 65.03125 
Q 15.375 64.15625 9.8125 62.3125 
L 9.8125 71.09375 
Q 15.4375 72.65625 20.34375 73.4375 
Q 25.25 74.21875 29.59375 74.21875 
Q 40.828125 74.21875 47.359375 69.109375 
Q 53.90625 64.015625 53.90625 55.328125 
Q 53.90625 49.265625 50.4375 45.09375 
Q 46.96875 40.921875 40.578125 39.3125 
z
" id="DejaVuSans-51"/>
      <path d="M 11.71875 12.40625 
L 22.015625 12.40625 
L 22.015625 4 
L 14.015625 -11.625 
L 7.71875 -11.625 
L 11.71875 4 
z
" id="DejaVuSans-44"/>
      <path d="M 10.796875 72.90625 
L 49.515625 72.90625 
L 49.515625 64.59375 
L 19.828125 64.59375 
L 19.828125 46.734375 
Q 21.96875 47.46875 24.109375 47.828125 
Q 26.265625 48.1875 28.421875 48.1875 
Q 40.625 48.1875 47.75 41.5 
Q 54.890625 34.8125 54.890625 23.390625 
Q 54.890625 11.625 47.5625 5.09375 
Q 40.234375 -1.421875 26.90625 -1.421875 
Q 22.3125 -1.421875 17.546875 -0.640625 
Q 12.796875 0.140625 7.71875 1.703125 
L 7.71875 11.625 
Q 12.109375 9.234375 16.796875 8.0625 
Q 21.484375 6.890625 26.703125 6.890625 
Q 35.15625 6.890625 40.078125 11.328125 
Q 45.015625 15.765625 45.015625 23.390625 
Q 45.015625 31 40.078125 35.4375 
Q 35.15625 39.890625 26.703125 39.890625 
Q 22.75 39.890625 18.8125 39.015625 
Q 14.890625 38.140625 10.796875 36.28125 
z
" id="DejaVuSans-53"/>
      <path d="M 25.390625 72.90625 
L 33.6875 72.90625 
L 8.296875 -9.28125 
L 0 -9.28125 
z
" id="DejaVuSans-47"/>
     </defs>
     <use xlink:href="#DejaVuSans-108"/>
     <use x="27.783203" xlink:href="#DejaVuSans-105"/>
     <use x="55.566406" xlink:href="#DejaVuSans-98"/>
     <use x="119.042969" xlink:href="#DejaVuSans-120"/>
     <use x="178.222656" xlink:href="#DejaVuSans-109"/>
     <use x="275.634766" xlink:href="#DejaVuSans-108"/>
     <use x="303.417969" xlink:href="#DejaVuSans-50"/>
     <use x="367.041016" xlink:href="#DejaVuSans-45"/>
     <use x="400.5" xlink:href="#DejaVuSans-118"/>
     <use x="459.679688" xlink:href="#DejaVuSans-50"/>
     <use x="523.302734" xlink:href="#DejaVuSans-46"/>
     <use x="555.089844" xlink:href="#DejaVuSans-57"/>
     <use x="618.712891" xlink:href="#DejaVuSans-46"/>
     <use x="650.5" xlink:href="#DejaVuSans-50"/>
     <use x="714.123047" xlink:href="#DejaVuSans-32"/>
     <use x="745.910156" xlink:href="#DejaVuSans-40"/>
     <use x="784.923828" xlink:href="#DejaVuSans-51"/>
     <use x="848.546875" xlink:href="#DejaVuSans-48"/>
     <use x="912.169922" xlink:href="#DejaVuSans-109"/>
     <use x="1009.582031" xlink:href="#DejaVuSans-44"/>
     <use x="1041.369141" xlink:href="#DejaVuSans-32"/>
     <use x="1073.15625" xlink:href="#DejaVuSans-53"/>
     <use x="1136.779297" xlink:href="#DejaVuSans-32"/>
     <use x="1168.566406" xlink:href="#DejaVuSans-116"/>
     <use x="1207.775391" xlink:href="#DejaVuSans-114"/>
     <use x="1248.888672" xlink:href="#DejaVuSans-105"/>
     <use x="1276.671875" xlink:href="#DejaVuSans-97"/>
     <use x="1337.951172" xlink:href="#DejaVuSans-108"/>
     <use x="1365.734375" xlink:href="#DejaVuSans-115"/>
     <use x="1417.833984" xlink:href="#DejaVuSans-47"/>
     <use x="1451.525391" xlink:href="#DejaVuSans-102"/>
     <use x="1486.730469" xlink:href="#DejaVuSans-117"/>
     <use x="1550.109375" xlink:href="#DejaVuSans-122"/>
     <use x="1602.599609" xlink:href="#DejaVuSans-122"/>
     <use x="1655.089844" xlink:href="#DejaVuSans-101"/>
     <use x="1716.613281" xlink:href="#DejaVuSans-114"/>
     <use x="1757.726562" xlink:href="#DejaVuSans-41"/>
    </g>
   </g>
  </g>
 </g>
 <defs>
  <clipPath id="pe24f10a218">
   <rect height="266.112" width="357.12" x="53.328125" y="22.318125"/>
  </clipPath>
 </defs>
</svg>
