<?xml version="1.0" encoding="utf-8" standalone="no"?>
<!DOCTYPE svg PUBLIC "-//W3C//DTD SVG 1.1//EN"
  "http://www.w3.org/Graphics/SVG/1.1/DTD/svg11.dtd">
<!-- Created with matplotlib (https://matplotlib.org/) -->
<svg height="351.576471pt" version="1.1" viewBox="0 0 417.648125 351.576471" width="417.648125pt" xmlns="http://www.w3.org/2000/svg" xmlns:xlink="http://www.w3.org/1999/xlink">
 <metadata>
  <rdf:RDF xmlns:cc="http://creativecommons.org/ns#" xmlns:dc="http://purl.org/dc/elements/1.1/" xmlns:rdf="http://www.w3.org/1999/02/22-rdf-syntax-ns#">
   <cc:Work>
    <dc:type rdf:resource="http://purl.org/dc/dcmitype/StillImage"/>
    <dc:date>2020-10-18T03:31:50.205945</dc:date>
    <dc:format>image/svg+xml</dc:format>
    <dc:creator>
     <cc:Agent>
      <dc:title>Matplotlib v3.3.2, https://matplotlib.org/</dc:title>
     </cc:Agent>
    </dc:creator>
   </cc:Work>
  </rdf:RDF>
 </metadata>
 <defs>
  <style type="text/css">*{stroke-linecap:butt;stroke-linejoin:round;}</style>
 </defs>
 <g id="figure_1">
  <g id="patch_1">
   <path d="M 0 351.576471 
L 417.648125 351.576471 
L 417.648125 0 
L 0 0 
z
" style="fill:#ffffff;"/>
  </g>
  <g id="axes_1">
   <g id="patch_2">
    <path d="M 53.328125 288.430125 
L 410.448125 288.430125 
L 410.448125 22.318125 
L 53.328125 22.318125 
z
" style="fill:#ffffff;"/>
   </g>
   <g id="PolyCollection_1">
    <defs>
     <path d="M 145.033822 -150.00233 
L 140.182428 -150.00233 
L 139.810057 -151.331616 
L 139.397528 -152.660903 
L 138.943582 -153.99019 
L 138.447478 -155.319477 
L 137.909078 -156.648764 
L 137.328928 -157.978051 
L 136.708338 -159.307337 
L 136.049439 -160.636624 
L 135.355228 -161.965911 
L 134.629594 -163.295198 
L 133.877318 -164.624485 
L 133.10405 -165.953772 
L 132.31625 -167.283058 
L 131.521114 -168.612345 
L 130.726448 -169.941632 
L 129.940536 -171.270919 
L 129.171959 -172.600206 
L 128.429407 -173.929493 
L 127.721452 -175.258779 
L 127.056321 -176.588066 
L 126.441651 -177.917353 
L 125.884236 -179.24664 
L 125.389788 -180.575927 
L 124.962698 -181.905214 
L 124.605822 -183.2345 
L 124.320287 -184.563787 
L 124.105331 -185.893074 
L 123.95818 -187.222361 
L 123.873962 -188.551648 
L 123.845678 -189.880935 
L 123.864212 -191.210221 
L 123.918393 -192.539508 
L 123.995119 -193.868795 
L 124.079517 -195.198082 
L 124.155164 -196.527369 
L 124.204353 -197.856655 
L 124.2084 -199.185942 
L 124.147993 -200.515229 
L 124.003576 -201.844516 
L 123.755762 -203.173803 
L 123.385768 -204.50309 
L 122.875864 -205.832376 
L 122.209833 -207.161663 
L 121.373423 -208.49095 
L 120.354797 -209.820237 
L 119.144953 -211.149524 
L 117.738119 -212.478811 
L 116.132099 -213.808097 
L 114.32857 -215.137384 
L 112.333311 -216.466671 
L 110.156356 -217.795958 
L 107.812061 -219.125245 
L 105.319075 -220.454532 
L 102.70021 -221.783818 
L 99.982208 -223.113105 
L 97.195392 -224.442392 
L 94.373223 -225.771679 
L 91.55175 -227.100966 
L 88.768963 -228.430253 
L 86.064078 -229.759539 
L 83.476752 -231.088826 
L 81.046258 -232.418113 
L 78.810635 -233.7474 
L 76.805842 -235.076687 
L 75.064943 -236.405974 
L 73.617338 -237.73526 
L 72.48808 -239.064547 
L 71.69728 -240.393834 
L 71.259641 -241.723121 
L 71.184125 -243.052408 
L 71.473757 -244.381694 
L 72.125595 -245.710981 
L 73.13084 -247.040268 
L 74.475108 -248.369555 
L 76.138825 -249.698842 
L 78.097759 -251.028129 
L 80.323656 -252.357415 
L 82.784951 -253.686702 
L 85.447549 -255.015989 
L 88.275632 -256.345276 
L 91.23248 -257.674563 
L 94.28127 -259.00385 
L 97.385836 -260.333136 
L 100.511368 -261.662423 
L 103.625032 -262.99171 
L 106.696502 -264.320997 
L 109.698381 -265.650284 
L 112.606527 -266.979571 
L 115.400263 -268.308857 
L 118.062483 -269.638144 
L 120.579666 -270.967431 
L 122.941791 -272.296718 
L 125.142177 -273.626005 
L 127.177263 -274.955292 
L 129.046323 -276.284578 
L 130.751156 -277.613865 
L 132.295745 -278.943152 
L 133.685904 -280.272439 
L 134.928928 -281.601726 
L 150.287322 -281.601726 
L 150.287322 -281.601726 
L 151.530346 -280.272439 
L 152.920505 -278.943152 
L 154.465094 -277.613865 
L 156.169927 -276.284578 
L 158.038987 -274.955292 
L 160.074073 -273.626005 
L 162.274459 -272.296718 
L 164.636584 -270.967431 
L 167.153767 -269.638144 
L 169.815987 -268.308857 
L 172.609723 -266.979571 
L 175.517869 -265.650284 
L 178.519748 -264.320997 
L 181.591218 -262.99171 
L 184.704882 -261.662423 
L 187.830414 -260.333136 
L 190.93498 -259.00385 
L 193.98377 -257.674563 
L 196.940618 -256.345276 
L 199.768701 -255.015989 
L 202.431299 -253.686702 
L 204.892594 -252.357415 
L 207.118491 -251.028129 
L 209.077425 -249.698842 
L 210.741142 -248.369555 
L 212.08541 -247.040268 
L 213.090655 -245.710981 
L 213.742493 -244.381694 
L 214.032125 -243.052408 
L 213.956609 -241.723121 
L 213.51897 -240.393834 
L 212.72817 -239.064547 
L 211.598912 -237.73526 
L 210.151307 -236.405974 
L 208.410408 -235.076687 
L 206.405615 -233.7474 
L 204.169992 -232.418113 
L 201.739498 -231.088826 
L 199.152172 -229.759539 
L 196.447287 -228.430253 
L 193.6645 -227.100966 
L 190.843027 -225.771679 
L 188.020858 -224.442392 
L 185.234042 -223.113105 
L 182.51604 -221.783818 
L 179.897175 -220.454532 
L 177.404189 -219.125245 
L 175.059894 -217.795958 
L 172.882939 -216.466671 
L 170.88768 -215.137384 
L 169.084151 -213.808097 
L 167.478131 -212.478811 
L 166.071297 -211.149524 
L 164.861453 -209.820237 
L 163.842827 -208.49095 
L 163.006417 -207.161663 
L 162.340386 -205.832376 
L 161.830482 -204.50309 
L 161.460488 -203.173803 
L 161.212674 -201.844516 
L 161.068257 -200.515229 
L 161.00785 -199.185942 
L 161.011897 -197.856655 
L 161.061086 -196.527369 
L 161.136733 -195.198082 
L 161.221131 -193.868795 
L 161.297857 -192.539508 
L 161.352038 -191.210221 
L 161.370572 -189.880935 
L 161.342288 -188.551648 
L 161.25807 -187.222361 
L 161.110919 -185.893074 
L 160.895963 -184.563787 
L 160.610428 -183.2345 
L 160.253552 -181.905214 
L 159.826462 -180.575927 
L 159.332014 -179.24664 
L 158.774599 -177.917353 
L 158.159929 -176.588066 
L 157.494798 -175.258779 
L 156.786843 -173.929493 
L 156.044291 -172.600206 
L 155.275714 -171.270919 
L 154.489802 -169.941632 
L 153.695136 -168.612345 
L 152.9 -167.283058 
L 152.1122 -165.953772 
L 151.338932 -164.624485 
L 150.586656 -163.295198 
L 149.861022 -161.965911 
L 149.166811 -160.636624 
L 148.507912 -159.307337 
L 147.887322 -157.978051 
L 147.307172 -156.648764 
L 146.768772 -155.319477 
L 146.272668 -153.99019 
L 145.818722 -152.660903 
L 145.406193 -151.331616 
L 145.033822 -150.00233 
z
" id="m51ba62f32b" style="stroke:#3f3f3f;stroke-width:1.5;"/>
    </defs>
    <g clip-path="url(#pe18e034e8f)">
     <use style="fill:#9fd495;stroke:#3f3f3f;stroke-width:1.5;" x="0" xlink:href="#m51ba62f32b" y="351.576471"/>
    </g>
   </g>
   <g id="PolyCollection_2">
    <defs>
     <path d="M 323.98495 -75.242346 
L 318.3513 -75.242346 
L 317.883861 -77.685982 
L 317.35864 -80.129619 
L 316.772207 -82.573255 
L 316.121588 -85.016891 
L 315.40439 -87.460528 
L 314.618935 -89.904164 
L 313.764387 -92.3478 
L 312.840871 -94.791437 
L 311.849583 -97.235073 
L 310.792884 -99.678709 
L 309.674375 -102.122346 
L 308.498936 -104.565982 
L 307.272748 -107.009619 
L 306.003275 -109.453255 
L 304.699208 -111.896891 
L 303.370379 -114.340528 
L 302.027634 -116.784164 
L 300.682672 -119.2278 
L 299.347851 -121.671437 
L 298.035966 -124.115073 
L 296.760011 -126.558709 
L 295.532914 -129.002346 
L 294.367276 -131.445982 
L 293.275106 -133.889619 
L 292.267562 -136.333255 
L 291.354712 -138.776891 
L 290.545324 -141.220528 
L 289.846683 -143.664164 
L 289.264443 -146.1078 
L 288.802531 -148.551437 
L 288.463085 -150.995073 
L 288.246446 -153.438709 
L 288.15119 -155.882346 
L 288.174205 -158.325982 
L 288.310804 -160.769619 
L 288.554879 -163.213255 
L 288.89907 -165.656891 
L 289.334968 -168.100528 
L 289.853322 -170.544164 
L 290.444259 -172.9878 
L 291.0975 -175.431437 
L 291.802572 -177.875073 
L 292.549006 -180.318709 
L 293.32653 -182.762346 
L 294.125224 -185.205982 
L 294.935676 -187.649619 
L 295.749103 -190.093255 
L 296.557456 -192.536891 
L 297.353499 -194.980528 
L 298.130876 -197.424164 
L 298.884154 -199.8678 
L 299.608848 -202.311437 
L 300.301436 -204.755073 
L 300.959356 -207.198709 
L 301.580991 -209.642346 
L 302.16564 -212.085982 
L 302.713485 -214.529619 
L 303.225532 -216.973255 
L 303.703558 -219.416891 
L 304.150031 -221.860528 
L 304.568032 -224.304164 
L 304.96116 -226.7478 
L 305.333424 -229.191437 
L 305.689137 -231.635073 
L 306.032797 -234.078709 
L 306.368963 -236.522346 
L 306.702134 -238.965982 
L 307.036628 -241.409619 
L 307.376466 -243.853255 
L 307.725264 -246.296891 
L 308.086142 -248.740528 
L 308.461642 -251.184164 
L 308.853668 -253.6278 
L 309.263443 -256.071437 
L 309.691491 -258.515073 
L 310.137637 -260.958709 
L 310.60103 -263.402346 
L 311.080188 -265.845982 
L 311.573057 -268.289619 
L 312.077086 -270.733255 
L 312.589324 -273.176891 
L 313.106506 -275.620528 
L 313.625166 -278.064164 
L 314.141737 -280.5078 
L 314.652649 -282.951437 
L 315.154431 -285.395073 
L 315.643794 -287.838709 
L 316.117705 -290.282346 
L 316.573452 -292.725982 
L 317.008691 -295.169619 
L 317.42148 -297.613255 
L 317.810298 -300.056891 
L 318.17405 -302.500528 
L 318.512057 -304.944164 
L 318.824043 -307.3878 
L 319.1101 -309.831437 
L 319.370658 -312.275073 
L 319.606441 -314.718709 
L 319.81842 -317.162346 
L 322.51783 -317.162346 
L 322.51783 -317.162346 
L 322.729809 -314.718709 
L 322.965592 -312.275073 
L 323.22615 -309.831437 
L 323.512207 -307.3878 
L 323.824193 -304.944164 
L 324.1622 -302.500528 
L 324.525952 -300.056891 
L 324.91477 -297.613255 
L 325.327559 -295.169619 
L 325.762798 -292.725982 
L 326.218545 -290.282346 
L 326.692456 -287.838709 
L 327.181819 -285.395073 
L 327.683601 -282.951437 
L 328.194513 -280.5078 
L 328.711084 -278.064164 
L 329.229744 -275.620528 
L 329.746926 -273.176891 
L 330.259164 -270.733255 
L 330.763193 -268.289619 
L 331.256062 -265.845982 
L 331.73522 -263.402346 
L 332.198613 -260.958709 
L 332.644759 -258.515073 
L 333.072807 -256.071437 
L 333.482582 -253.6278 
L 333.874608 -251.184164 
L 334.250108 -248.740528 
L 334.610986 -246.296891 
L 334.959784 -243.853255 
L 335.299622 -241.409619 
L 335.634116 -238.965982 
L 335.967287 -236.522346 
L 336.303453 -234.078709 
L 336.647113 -231.635073 
L 337.002826 -229.191437 
L 337.37509 -226.7478 
L 337.768218 -224.304164 
L 338.186219 -221.860528 
L 338.632692 -219.416891 
L 339.110718 -216.973255 
L 339.622765 -214.529619 
L 340.17061 -212.085982 
L 340.755259 -209.642346 
L 341.376894 -207.198709 
L 342.034814 -204.755073 
L 342.727402 -202.311437 
L 343.452096 -199.8678 
L 344.205374 -197.424164 
L 344.982751 -194.980528 
L 345.778794 -192.536891 
L 346.587147 -190.093255 
L 347.400574 -187.649619 
L 348.211026 -185.205982 
L 349.00972 -182.762346 
L 349.787244 -180.318709 
L 350.533678 -177.875073 
L 351.23875 -175.431437 
L 351.891991 -172.9878 
L 352.482928 -170.544164 
L 353.001282 -168.100528 
L 353.43718 -165.656891 
L 353.781371 -163.213255 
L 354.025446 -160.769619 
L 354.162045 -158.325982 
L 354.18506 -155.882346 
L 354.089804 -153.438709 
L 353.873165 -150.995073 
L 353.533719 -148.551437 
L 353.071807 -146.1078 
L 352.489567 -143.664164 
L 351.790926 -141.220528 
L 350.981538 -138.776891 
L 350.068688 -136.333255 
L 349.061144 -133.889619 
L 347.968974 -131.445982 
L 346.803336 -129.002346 
L 345.576239 -126.558709 
L 344.300284 -124.115073 
L 342.988399 -121.671437 
L 341.653578 -119.2278 
L 340.308616 -116.784164 
L 338.965871 -114.340528 
L 337.637042 -111.896891 
L 336.332975 -109.453255 
L 335.063502 -107.009619 
L 333.837314 -104.565982 
L 332.661875 -102.122346 
L 331.543366 -99.678709 
L 330.486667 -97.235073 
L 329.495379 -94.791437 
L 328.571863 -92.3478 
L 327.717315 -89.904164 
L 326.93186 -87.460528 
L 326.214662 -85.016891 
L 325.564043 -82.573255 
L 324.97761 -80.129619 
L 324.452389 -77.685982 
L 323.98495 -75.242346 
z
" id="m23072e9e9e" style="stroke:#3f3f3f;stroke-width:1.5;"/>
    </defs>
    <g clip-path="url(#pe18e034e8f)">
     <use style="fill:#3274a1;stroke:#3f3f3f;stroke-width:1.5;" x="0" xlink:href="#m23072e9e9e" y="351.576471"/>
    </g>
   </g>
   <g id="matplotlib.axis_1">
    <g id="xtick_1">
     <g id="line2d_1">
      <defs>
       <path d="M 0 0 
L 0 3.5 
" id="maab24ce498" style="stroke:#000000;stroke-width:0.8;"/>
      </defs>
      <g>
       <use style="stroke:#000000;stroke-width:0.8;" x="142.608125" xlink:href="#maab24ce498" y="288.430125"/>
      </g>
     </g>
     <g id="text_1">
      <!-- honggfuzz -->
      <g transform="translate(96.668924 327.933221)rotate(-30)scale(0.1 -0.1)">
       <defs>
        <path d="M 54.890625 33.015625 
L 54.890625 0 
L 45.90625 0 
L 45.90625 32.71875 
Q 45.90625 40.484375 42.875 44.328125 
Q 39.84375 48.1875 33.796875 48.1875 
Q 26.515625 48.1875 22.3125 43.546875 
Q 18.109375 38.921875 18.109375 30.90625 
L 18.109375 0 
L 9.078125 0 
L 9.078125 75.984375 
L 18.109375 75.984375 
L 18.109375 46.1875 
Q 21.34375 51.125 25.703125 53.5625 
Q 30.078125 56 35.796875 56 
Q 45.21875 56 50.046875 50.171875 
Q 54.890625 44.34375 54.890625 33.015625 
z
" id="DejaVuSans-104"/>
        <path d="M 30.609375 48.390625 
Q 23.390625 48.390625 19.1875 42.75 
Q 14.984375 37.109375 14.984375 27.296875 
Q 14.984375 17.484375 19.15625 11.84375 
Q 23.34375 6.203125 30.609375 6.203125 
Q 37.796875 6.203125 41.984375 11.859375 
Q 46.1875 17.53125 46.1875 27.296875 
Q 46.1875 37.015625 41.984375 42.703125 
Q 37.796875 48.390625 30.609375 48.390625 
z
M 30.609375 56 
Q 42.328125 56 49.015625 48.375 
Q 55.71875 40.765625 55.71875 27.296875 
Q 55.71875 13.875 49.015625 6.21875 
Q 42.328125 -1.421875 30.609375 -1.421875 
Q 18.84375 -1.421875 12.171875 6.21875 
Q 5.515625 13.875 5.515625 27.296875 
Q 5.515625 40.765625 12.171875 48.375 
Q 18.84375 56 30.609375 56 
z
" id="DejaVuSans-111"/>
        <path d="M 54.890625 33.015625 
L 54.890625 0 
L 45.90625 0 
L 45.90625 32.71875 
Q 45.90625 40.484375 42.875 44.328125 
Q 39.84375 48.1875 33.796875 48.1875 
Q 26.515625 48.1875 22.3125 43.546875 
Q 18.109375 38.921875 18.109375 30.90625 
L 18.109375 0 
L 9.078125 0 
L 9.078125 54.6875 
L 18.109375 54.6875 
L 18.109375 46.1875 
Q 21.34375 51.125 25.703125 53.5625 
Q 30.078125 56 35.796875 56 
Q 45.21875 56 50.046875 50.171875 
Q 54.890625 44.34375 54.890625 33.015625 
z
" id="DejaVuSans-110"/>
        <path d="M 45.40625 27.984375 
Q 45.40625 37.75 41.375 43.109375 
Q 37.359375 48.484375 30.078125 48.484375 
Q 22.859375 48.484375 18.828125 43.109375 
Q 14.796875 37.75 14.796875 27.984375 
Q 14.796875 18.265625 18.828125 12.890625 
Q 22.859375 7.515625 30.078125 7.515625 
Q 37.359375 7.515625 41.375 12.890625 
Q 45.40625 18.265625 45.40625 27.984375 
z
M 54.390625 6.78125 
Q 54.390625 -7.171875 48.1875 -13.984375 
Q 42 -20.796875 29.203125 -20.796875 
Q 24.46875 -20.796875 20.265625 -20.09375 
Q 16.0625 -19.390625 12.109375 -17.921875 
L 12.109375 -9.1875 
Q 16.0625 -11.328125 19.921875 -12.34375 
Q 23.78125 -13.375 27.78125 -13.375 
Q 36.625 -13.375 41.015625 -8.765625 
Q 45.40625 -4.15625 45.40625 5.171875 
L 45.40625 9.625 
Q 42.625 4.78125 38.28125 2.390625 
Q 33.9375 0 27.875 0 
Q 17.828125 0 11.671875 7.65625 
Q 5.515625 15.328125 5.515625 27.984375 
Q 5.515625 40.671875 11.671875 48.328125 
Q 17.828125 56 27.875 56 
Q 33.9375 56 38.28125 53.609375 
Q 42.625 51.21875 45.40625 46.390625 
L 45.40625 54.6875 
L 54.390625 54.6875 
z
" id="DejaVuSans-103"/>
        <path d="M 37.109375 75.984375 
L 37.109375 68.5 
L 28.515625 68.5 
Q 23.6875 68.5 21.796875 66.546875 
Q 19.921875 64.59375 19.921875 59.515625 
L 19.921875 54.6875 
L 34.71875 54.6875 
L 34.71875 47.703125 
L 19.921875 47.703125 
L 19.921875 0 
L 10.890625 0 
L 10.890625 47.703125 
L 2.296875 47.703125 
L 2.296875 54.6875 
L 10.890625 54.6875 
L 10.890625 58.5 
Q 10.890625 67.625 15.140625 71.796875 
Q 19.390625 75.984375 28.609375 75.984375 
z
" id="DejaVuSans-102"/>
        <path d="M 8.5 21.578125 
L 8.5 54.6875 
L 17.484375 54.6875 
L 17.484375 21.921875 
Q 17.484375 14.15625 20.5 10.265625 
Q 23.53125 6.390625 29.59375 6.390625 
Q 36.859375 6.390625 41.078125 11.03125 
Q 45.3125 15.671875 45.3125 23.6875 
L 45.3125 54.6875 
L 54.296875 54.6875 
L 54.296875 0 
L 45.3125 0 
L 45.3125 8.40625 
Q 42.046875 3.421875 37.71875 1 
Q 33.40625 -1.421875 27.6875 -1.421875 
Q 18.265625 -1.421875 13.375 4.4375 
Q 8.5 10.296875 8.5 21.578125 
z
M 31.109375 56 
z
" id="DejaVuSans-117"/>
        <path d="M 5.515625 54.6875 
L 48.1875 54.6875 
L 48.1875 46.484375 
L 14.40625 7.171875 
L 48.1875 7.171875 
L 48.1875 0 
L 4.296875 0 
L 4.296875 8.203125 
L 38.09375 47.515625 
L 5.515625 47.515625 
z
" id="DejaVuSans-122"/>
       </defs>
       <use xlink:href="#DejaVuSans-104"/>
       <use x="63.378906" xlink:href="#DejaVuSans-111"/>
       <use x="124.560547" xlink:href="#DejaVuSans-110"/>
       <use x="187.939453" xlink:href="#DejaVuSans-103"/>
       <use x="251.416016" xlink:href="#DejaVuSans-103"/>
       <use x="314.892578" xlink:href="#DejaVuSans-102"/>
       <use x="350.097656" xlink:href="#DejaVuSans-117"/>
       <use x="413.476562" xlink:href="#DejaVuSans-122"/>
       <use x="465.966797" xlink:href="#DejaVuSans-122"/>
      </g>
     </g>
    </g>
    <g id="xtick_2">
     <g id="line2d_2">
      <g>
       <use style="stroke:#000000;stroke-width:0.8;" x="321.168125" xlink:href="#maab24ce498" y="288.430125"/>
      </g>
     </g>
     <g id="text_2">
      <!-- aflplusplus -->
      <g transform="translate(273.559118 328.897284)rotate(-30)scale(0.1 -0.1)">
       <defs>
        <path d="M 34.28125 27.484375 
Q 23.390625 27.484375 19.1875 25 
Q 14.984375 22.515625 14.984375 16.5 
Q 14.984375 11.71875 18.140625 8.90625 
Q 21.296875 6.109375 26.703125 6.109375 
Q 34.1875 6.109375 38.703125 11.40625 
Q 43.21875 16.703125 43.21875 25.484375 
L 43.21875 27.484375 
z
M 52.203125 31.203125 
L 52.203125 0 
L 43.21875 0 
L 43.21875 8.296875 
Q 40.140625 3.328125 35.546875 0.953125 
Q 30.953125 -1.421875 24.3125 -1.421875 
Q 15.921875 -1.421875 10.953125 3.296875 
Q 6 8.015625 6 15.921875 
Q 6 25.140625 12.171875 29.828125 
Q 18.359375 34.515625 30.609375 34.515625 
L 43.21875 34.515625 
L 43.21875 35.40625 
Q 43.21875 41.609375 39.140625 45 
Q 35.0625 48.390625 27.6875 48.390625 
Q 23 48.390625 18.546875 47.265625 
Q 14.109375 46.140625 10.015625 43.890625 
L 10.015625 52.203125 
Q 14.9375 54.109375 19.578125 55.046875 
Q 24.21875 56 28.609375 56 
Q 40.484375 56 46.34375 49.84375 
Q 52.203125 43.703125 52.203125 31.203125 
z
" id="DejaVuSans-97"/>
        <path d="M 9.421875 75.984375 
L 18.40625 75.984375 
L 18.40625 0 
L 9.421875 0 
z
" id="DejaVuSans-108"/>
        <path d="M 18.109375 8.203125 
L 18.109375 -20.796875 
L 9.078125 -20.796875 
L 9.078125 54.6875 
L 18.109375 54.6875 
L 18.109375 46.390625 
Q 20.953125 51.265625 25.265625 53.625 
Q 29.59375 56 35.59375 56 
Q 45.5625 56 51.78125 48.09375 
Q 58.015625 40.1875 58.015625 27.296875 
Q 58.015625 14.40625 51.78125 6.484375 
Q 45.5625 -1.421875 35.59375 -1.421875 
Q 29.59375 -1.421875 25.265625 0.953125 
Q 20.953125 3.328125 18.109375 8.203125 
z
M 48.6875 27.296875 
Q 48.6875 37.203125 44.609375 42.84375 
Q 40.53125 48.484375 33.40625 48.484375 
Q 26.265625 48.484375 22.1875 42.84375 
Q 18.109375 37.203125 18.109375 27.296875 
Q 18.109375 17.390625 22.1875 11.75 
Q 26.265625 6.109375 33.40625 6.109375 
Q 40.53125 6.109375 44.609375 11.75 
Q 48.6875 17.390625 48.6875 27.296875 
z
" id="DejaVuSans-112"/>
        <path d="M 44.28125 53.078125 
L 44.28125 44.578125 
Q 40.484375 46.53125 36.375 47.5 
Q 32.28125 48.484375 27.875 48.484375 
Q 21.1875 48.484375 17.84375 46.4375 
Q 14.5 44.390625 14.5 40.28125 
Q 14.5 37.15625 16.890625 35.375 
Q 19.28125 33.59375 26.515625 31.984375 
L 29.59375 31.296875 
Q 39.15625 29.25 43.1875 25.515625 
Q 47.21875 21.78125 47.21875 15.09375 
Q 47.21875 7.46875 41.1875 3.015625 
Q 35.15625 -1.421875 24.609375 -1.421875 
Q 20.21875 -1.421875 15.453125 -0.5625 
Q 10.6875 0.296875 5.421875 2 
L 5.421875 11.28125 
Q 10.40625 8.6875 15.234375 7.390625 
Q 20.0625 6.109375 24.8125 6.109375 
Q 31.15625 6.109375 34.5625 8.28125 
Q 37.984375 10.453125 37.984375 14.40625 
Q 37.984375 18.0625 35.515625 20.015625 
Q 33.0625 21.96875 24.703125 23.78125 
L 21.578125 24.515625 
Q 13.234375 26.265625 9.515625 29.90625 
Q 5.8125 33.546875 5.8125 39.890625 
Q 5.8125 47.609375 11.28125 51.796875 
Q 16.75 56 26.8125 56 
Q 31.78125 56 36.171875 55.265625 
Q 40.578125 54.546875 44.28125 53.078125 
z
" id="DejaVuSans-115"/>
       </defs>
       <use xlink:href="#DejaVuSans-97"/>
       <use x="61.279297" xlink:href="#DejaVuSans-102"/>
       <use x="96.484375" xlink:href="#DejaVuSans-108"/>
       <use x="124.267578" xlink:href="#DejaVuSans-112"/>
       <use x="187.744141" xlink:href="#DejaVuSans-108"/>
       <use x="215.527344" xlink:href="#DejaVuSans-117"/>
       <use x="278.90625" xlink:href="#DejaVuSans-115"/>
       <use x="331.005859" xlink:href="#DejaVuSans-112"/>
       <use x="394.482422" xlink:href="#DejaVuSans-108"/>
       <use x="422.265625" xlink:href="#DejaVuSans-117"/>
       <use x="485.644531" xlink:href="#DejaVuSans-115"/>
      </g>
     </g>
    </g>
    <g id="text_3">
     <!-- Fuzzer (highest median coverage on the left) -->
     <g transform="translate(119.270156 342.296783)scale(0.1 -0.1)">
      <defs>
       <path d="M 9.8125 72.90625 
L 51.703125 72.90625 
L 51.703125 64.59375 
L 19.671875 64.59375 
L 19.671875 43.109375 
L 48.578125 43.109375 
L 48.578125 34.8125 
L 19.671875 34.8125 
L 19.671875 0 
L 9.8125 0 
z
" id="DejaVuSans-70"/>
       <path d="M 56.203125 29.59375 
L 56.203125 25.203125 
L 14.890625 25.203125 
Q 15.484375 15.921875 20.484375 11.0625 
Q 25.484375 6.203125 34.421875 6.203125 
Q 39.59375 6.203125 44.453125 7.46875 
Q 49.3125 8.734375 54.109375 11.28125 
L 54.109375 2.78125 
Q 49.265625 0.734375 44.1875 -0.34375 
Q 39.109375 -1.421875 33.890625 -1.421875 
Q 20.796875 -1.421875 13.15625 6.1875 
Q 5.515625 13.8125 5.515625 26.8125 
Q 5.515625 40.234375 12.765625 48.109375 
Q 20.015625 56 32.328125 56 
Q 43.359375 56 49.78125 48.890625 
Q 56.203125 41.796875 56.203125 29.59375 
z
M 47.21875 32.234375 
Q 47.125 39.59375 43.09375 43.984375 
Q 39.0625 48.390625 32.421875 48.390625 
Q 24.90625 48.390625 20.390625 44.140625 
Q 15.875 39.890625 15.1875 32.171875 
z
" id="DejaVuSans-101"/>
       <path d="M 41.109375 46.296875 
Q 39.59375 47.171875 37.8125 47.578125 
Q 36.03125 48 33.890625 48 
Q 26.265625 48 22.1875 43.046875 
Q 18.109375 38.09375 18.109375 28.8125 
L 18.109375 0 
L 9.078125 0 
L 9.078125 54.6875 
L 18.109375 54.6875 
L 18.109375 46.1875 
Q 20.953125 51.171875 25.484375 53.578125 
Q 30.03125 56 36.53125 56 
Q 37.453125 56 38.578125 55.875 
Q 39.703125 55.765625 41.0625 55.515625 
z
" id="DejaVuSans-114"/>
       <path id="DejaVuSans-32"/>
       <path d="M 31 75.875 
Q 24.46875 64.65625 21.28125 53.65625 
Q 18.109375 42.671875 18.109375 31.390625 
Q 18.109375 20.125 21.3125 9.0625 
Q 24.515625 -2 31 -13.1875 
L 23.1875 -13.1875 
Q 15.875 -1.703125 12.234375 9.375 
Q 8.59375 20.453125 8.59375 31.390625 
Q 8.59375 42.28125 12.203125 53.3125 
Q 15.828125 64.359375 23.1875 75.875 
z
" id="DejaVuSans-40"/>
       <path d="M 9.421875 54.6875 
L 18.40625 54.6875 
L 18.40625 0 
L 9.421875 0 
z
M 9.421875 75.984375 
L 18.40625 75.984375 
L 18.40625 64.59375 
L 9.421875 64.59375 
z
" id="DejaVuSans-105"/>
       <path d="M 18.3125 70.21875 
L 18.3125 54.6875 
L 36.8125 54.6875 
L 36.8125 47.703125 
L 18.3125 47.703125 
L 18.3125 18.015625 
Q 18.3125 11.328125 20.140625 9.421875 
Q 21.96875 7.515625 27.59375 7.515625 
L 36.8125 7.515625 
L 36.8125 0 
L 27.59375 0 
Q 17.1875 0 13.234375 3.875 
Q 9.28125 7.765625 9.28125 18.015625 
L 9.28125 47.703125 
L 2.6875 47.703125 
L 2.6875 54.6875 
L 9.28125 54.6875 
L 9.28125 70.21875 
z
" id="DejaVuSans-116"/>
       <path d="M 52 44.1875 
Q 55.375 50.25 60.0625 53.125 
Q 64.75 56 71.09375 56 
Q 79.640625 56 84.28125 50.015625 
Q 88.921875 44.046875 88.921875 33.015625 
L 88.921875 0 
L 79.890625 0 
L 79.890625 32.71875 
Q 79.890625 40.578125 77.09375 44.375 
Q 74.3125 48.1875 68.609375 48.1875 
Q 61.625 48.1875 57.5625 43.546875 
Q 53.515625 38.921875 53.515625 30.90625 
L 53.515625 0 
L 44.484375 0 
L 44.484375 32.71875 
Q 44.484375 40.625 41.703125 44.40625 
Q 38.921875 48.1875 33.109375 48.1875 
Q 26.21875 48.1875 22.15625 43.53125 
Q 18.109375 38.875 18.109375 30.90625 
L 18.109375 0 
L 9.078125 0 
L 9.078125 54.6875 
L 18.109375 54.6875 
L 18.109375 46.1875 
Q 21.1875 51.21875 25.484375 53.609375 
Q 29.78125 56 35.6875 56 
Q 41.65625 56 45.828125 52.96875 
Q 50 49.953125 52 44.1875 
z
" id="DejaVuSans-109"/>
       <path d="M 45.40625 46.390625 
L 45.40625 75.984375 
L 54.390625 75.984375 
L 54.390625 0 
L 45.40625 0 
L 45.40625 8.203125 
Q 42.578125 3.328125 38.25 0.953125 
Q 33.9375 -1.421875 27.875 -1.421875 
Q 17.96875 -1.421875 11.734375 6.484375 
Q 5.515625 14.40625 5.515625 27.296875 
Q 5.515625 40.1875 11.734375 48.09375 
Q 17.96875 56 27.875 56 
Q 33.9375 56 38.25 53.625 
Q 42.578125 51.265625 45.40625 46.390625 
z
M 14.796875 27.296875 
Q 14.796875 17.390625 18.875 11.75 
Q 22.953125 6.109375 30.078125 6.109375 
Q 37.203125 6.109375 41.296875 11.75 
Q 45.40625 17.390625 45.40625 27.296875 
Q 45.40625 37.203125 41.296875 42.84375 
Q 37.203125 48.484375 30.078125 48.484375 
Q 22.953125 48.484375 18.875 42.84375 
Q 14.796875 37.203125 14.796875 27.296875 
z
" id="DejaVuSans-100"/>
       <path d="M 48.78125 52.59375 
L 48.78125 44.1875 
Q 44.96875 46.296875 41.140625 47.34375 
Q 37.3125 48.390625 33.40625 48.390625 
Q 24.65625 48.390625 19.8125 42.84375 
Q 14.984375 37.3125 14.984375 27.296875 
Q 14.984375 17.28125 19.8125 11.734375 
Q 24.65625 6.203125 33.40625 6.203125 
Q 37.3125 6.203125 41.140625 7.25 
Q 44.96875 8.296875 48.78125 10.40625 
L 48.78125 2.09375 
Q 45.015625 0.34375 40.984375 -0.53125 
Q 36.96875 -1.421875 32.421875 -1.421875 
Q 20.0625 -1.421875 12.78125 6.34375 
Q 5.515625 14.109375 5.515625 27.296875 
Q 5.515625 40.671875 12.859375 48.328125 
Q 20.21875 56 33.015625 56 
Q 37.15625 56 41.109375 55.140625 
Q 45.0625 54.296875 48.78125 52.59375 
z
" id="DejaVuSans-99"/>
       <path d="M 2.984375 54.6875 
L 12.5 54.6875 
L 29.59375 8.796875 
L 46.6875 54.6875 
L 56.203125 54.6875 
L 35.6875 0 
L 23.484375 0 
z
" id="DejaVuSans-118"/>
       <path d="M 8.015625 75.875 
L 15.828125 75.875 
Q 23.140625 64.359375 26.78125 53.3125 
Q 30.421875 42.28125 30.421875 31.390625 
Q 30.421875 20.453125 26.78125 9.375 
Q 23.140625 -1.703125 15.828125 -13.1875 
L 8.015625 -13.1875 
Q 14.5 -2 17.703125 9.0625 
Q 20.90625 20.125 20.90625 31.390625 
Q 20.90625 42.671875 17.703125 53.65625 
Q 14.5 64.65625 8.015625 75.875 
z
" id="DejaVuSans-41"/>
      </defs>
      <use xlink:href="#DejaVuSans-70"/>
      <use x="52.019531" xlink:href="#DejaVuSans-117"/>
      <use x="115.398438" xlink:href="#DejaVuSans-122"/>
      <use x="167.888672" xlink:href="#DejaVuSans-122"/>
      <use x="220.378906" xlink:href="#DejaVuSans-101"/>
      <use x="281.902344" xlink:href="#DejaVuSans-114"/>
      <use x="323.015625" xlink:href="#DejaVuSans-32"/>
      <use x="354.802734" xlink:href="#DejaVuSans-40"/>
      <use x="393.816406" xlink:href="#DejaVuSans-104"/>
      <use x="457.195312" xlink:href="#DejaVuSans-105"/>
      <use x="484.978516" xlink:href="#DejaVuSans-103"/>
      <use x="548.455078" xlink:href="#DejaVuSans-104"/>
      <use x="611.833984" xlink:href="#DejaVuSans-101"/>
      <use x="673.357422" xlink:href="#DejaVuSans-115"/>
      <use x="725.457031" xlink:href="#DejaVuSans-116"/>
      <use x="764.666016" xlink:href="#DejaVuSans-32"/>
      <use x="796.453125" xlink:href="#DejaVuSans-109"/>
      <use x="893.865234" xlink:href="#DejaVuSans-101"/>
      <use x="955.388672" xlink:href="#DejaVuSans-100"/>
      <use x="1018.865234" xlink:href="#DejaVuSans-105"/>
      <use x="1046.648438" xlink:href="#DejaVuSans-97"/>
      <use x="1107.927734" xlink:href="#DejaVuSans-110"/>
      <use x="1171.306641" xlink:href="#DejaVuSans-32"/>
      <use x="1203.09375" xlink:href="#DejaVuSans-99"/>
      <use x="1258.074219" xlink:href="#DejaVuSans-111"/>
      <use x="1319.255859" xlink:href="#DejaVuSans-118"/>
      <use x="1378.435547" xlink:href="#DejaVuSans-101"/>
      <use x="1439.958984" xlink:href="#DejaVuSans-114"/>
      <use x="1481.072266" xlink:href="#DejaVuSans-97"/>
      <use x="1542.351562" xlink:href="#DejaVuSans-103"/>
      <use x="1605.828125" xlink:href="#DejaVuSans-101"/>
      <use x="1667.351562" xlink:href="#DejaVuSans-32"/>
      <use x="1699.138672" xlink:href="#DejaVuSans-111"/>
      <use x="1760.320312" xlink:href="#DejaVuSans-110"/>
      <use x="1823.699219" xlink:href="#DejaVuSans-32"/>
      <use x="1855.486328" xlink:href="#DejaVuSans-116"/>
      <use x="1894.695312" xlink:href="#DejaVuSans-104"/>
      <use x="1958.074219" xlink:href="#DejaVuSans-101"/>
      <use x="2019.597656" xlink:href="#DejaVuSans-32"/>
      <use x="2051.384766" xlink:href="#DejaVuSans-108"/>
      <use x="2079.167969" xlink:href="#DejaVuSans-101"/>
      <use x="2140.691406" xlink:href="#DejaVuSans-102"/>
      <use x="2174.146484" xlink:href="#DejaVuSans-116"/>
      <use x="2213.355469" xlink:href="#DejaVuSans-41"/>
     </g>
    </g>
   </g>
   <g id="matplotlib.axis_2">
    <g id="ytick_1">
     <g id="line2d_3">
      <defs>
       <path d="M 0 0 
L -3.5 0 
" id="m4dd4d22749" style="stroke:#000000;stroke-width:0.8;"/>
      </defs>
      <g>
       <use style="stroke:#000000;stroke-width:0.8;" x="53.328125" xlink:href="#m4dd4d22749" y="260.762578"/>
      </g>
     </g>
     <g id="text_4">
      <!-- 7700 -->
      <g transform="translate(20.878125 264.561797)scale(0.1 -0.1)">
       <defs>
        <path d="M 8.203125 72.90625 
L 55.078125 72.90625 
L 55.078125 68.703125 
L 28.609375 0 
L 18.3125 0 
L 43.21875 64.59375 
L 8.203125 64.59375 
z
" id="DejaVuSans-55"/>
        <path d="M 31.78125 66.40625 
Q 24.171875 66.40625 20.328125 58.90625 
Q 16.5 51.421875 16.5 36.375 
Q 16.5 21.390625 20.328125 13.890625 
Q 24.171875 6.390625 31.78125 6.390625 
Q 39.453125 6.390625 43.28125 13.890625 
Q 47.125 21.390625 47.125 36.375 
Q 47.125 51.421875 43.28125 58.90625 
Q 39.453125 66.40625 31.78125 66.40625 
z
M 31.78125 74.21875 
Q 44.046875 74.21875 50.515625 64.515625 
Q 56.984375 54.828125 56.984375 36.375 
Q 56.984375 17.96875 50.515625 8.265625 
Q 44.046875 -1.421875 31.78125 -1.421875 
Q 19.53125 -1.421875 13.0625 8.265625 
Q 6.59375 17.96875 6.59375 36.375 
Q 6.59375 54.828125 13.0625 64.515625 
Q 19.53125 74.21875 31.78125 74.21875 
z
" id="DejaVuSans-48"/>
       </defs>
       <use xlink:href="#DejaVuSans-55"/>
       <use x="63.623047" xlink:href="#DejaVuSans-55"/>
       <use x="127.246094" xlink:href="#DejaVuSans-48"/>
       <use x="190.869141" xlink:href="#DejaVuSans-48"/>
      </g>
     </g>
    </g>
    <g id="ytick_2">
     <g id="line2d_4">
      <g>
       <use style="stroke:#000000;stroke-width:0.8;" x="53.328125" xlink:href="#m4dd4d22749" y="228.631952"/>
      </g>
     </g>
     <g id="text_5">
      <!-- 7750 -->
      <g transform="translate(20.878125 232.431171)scale(0.1 -0.1)">
       <defs>
        <path d="M 10.796875 72.90625 
L 49.515625 72.90625 
L 49.515625 64.59375 
L 19.828125 64.59375 
L 19.828125 46.734375 
Q 21.96875 47.46875 24.109375 47.828125 
Q 26.265625 48.1875 28.421875 48.1875 
Q 40.625 48.1875 47.75 41.5 
Q 54.890625 34.8125 54.890625 23.390625 
Q 54.890625 11.625 47.5625 5.09375 
Q 40.234375 -1.421875 26.90625 -1.421875 
Q 22.3125 -1.421875 17.546875 -0.640625 
Q 12.796875 0.140625 7.71875 1.703125 
L 7.71875 11.625 
Q 12.109375 9.234375 16.796875 8.0625 
Q 21.484375 6.890625 26.703125 6.890625 
Q 35.15625 6.890625 40.078125 11.328125 
Q 45.015625 15.765625 45.015625 23.390625 
Q 45.015625 31 40.078125 35.4375 
Q 35.15625 39.890625 26.703125 39.890625 
Q 22.75 39.890625 18.8125 39.015625 
Q 14.890625 38.140625 10.796875 36.28125 
z
" id="DejaVuSans-53"/>
       </defs>
       <use xlink:href="#DejaVuSans-55"/>
       <use x="63.623047" xlink:href="#DejaVuSans-55"/>
       <use x="127.246094" xlink:href="#DejaVuSans-53"/>
       <use x="190.869141" xlink:href="#DejaVuSans-48"/>
      </g>
     </g>
    </g>
    <g id="ytick_3">
     <g id="line2d_5">
      <g>
       <use style="stroke:#000000;stroke-width:0.8;" x="53.328125" xlink:href="#m4dd4d22749" y="196.501326"/>
      </g>
     </g>
     <g id="text_6">
      <!-- 7800 -->
      <g transform="translate(20.878125 200.300545)scale(0.1 -0.1)">
       <defs>
        <path d="M 31.78125 34.625 
Q 24.75 34.625 20.71875 30.859375 
Q 16.703125 27.09375 16.703125 20.515625 
Q 16.703125 13.921875 20.71875 10.15625 
Q 24.75 6.390625 31.78125 6.390625 
Q 38.8125 6.390625 42.859375 10.171875 
Q 46.921875 13.96875 46.921875 20.515625 
Q 46.921875 27.09375 42.890625 30.859375 
Q 38.875 34.625 31.78125 34.625 
z
M 21.921875 38.8125 
Q 15.578125 40.375 12.03125 44.71875 
Q 8.5 49.078125 8.5 55.328125 
Q 8.5 64.0625 14.71875 69.140625 
Q 20.953125 74.21875 31.78125 74.21875 
Q 42.671875 74.21875 48.875 69.140625 
Q 55.078125 64.0625 55.078125 55.328125 
Q 55.078125 49.078125 51.53125 44.71875 
Q 48 40.375 41.703125 38.8125 
Q 48.828125 37.15625 52.796875 32.3125 
Q 56.78125 27.484375 56.78125 20.515625 
Q 56.78125 9.90625 50.3125 4.234375 
Q 43.84375 -1.421875 31.78125 -1.421875 
Q 19.734375 -1.421875 13.25 4.234375 
Q 6.78125 9.90625 6.78125 20.515625 
Q 6.78125 27.484375 10.78125 32.3125 
Q 14.796875 37.15625 21.921875 38.8125 
z
M 18.3125 54.390625 
Q 18.3125 48.734375 21.84375 45.5625 
Q 25.390625 42.390625 31.78125 42.390625 
Q 38.140625 42.390625 41.71875 45.5625 
Q 45.3125 48.734375 45.3125 54.390625 
Q 45.3125 60.0625 41.71875 63.234375 
Q 38.140625 66.40625 31.78125 66.40625 
Q 25.390625 66.40625 21.84375 63.234375 
Q 18.3125 60.0625 18.3125 54.390625 
z
" id="DejaVuSans-56"/>
       </defs>
       <use xlink:href="#DejaVuSans-55"/>
       <use x="63.623047" xlink:href="#DejaVuSans-56"/>
       <use x="127.246094" xlink:href="#DejaVuSans-48"/>
       <use x="190.869141" xlink:href="#DejaVuSans-48"/>
      </g>
     </g>
    </g>
    <g id="ytick_4">
     <g id="line2d_6">
      <g>
       <use style="stroke:#000000;stroke-width:0.8;" x="53.328125" xlink:href="#m4dd4d22749" y="164.3707"/>
      </g>
     </g>
     <g id="text_7">
      <!-- 7850 -->
      <g transform="translate(20.878125 168.169919)scale(0.1 -0.1)">
       <use xlink:href="#DejaVuSans-55"/>
       <use x="63.623047" xlink:href="#DejaVuSans-56"/>
       <use x="127.246094" xlink:href="#DejaVuSans-53"/>
       <use x="190.869141" xlink:href="#DejaVuSans-48"/>
      </g>
     </g>
    </g>
    <g id="ytick_5">
     <g id="line2d_7">
      <g>
       <use style="stroke:#000000;stroke-width:0.8;" x="53.328125" xlink:href="#m4dd4d22749" y="132.240074"/>
      </g>
     </g>
     <g id="text_8">
      <!-- 7900 -->
      <g transform="translate(20.878125 136.039293)scale(0.1 -0.1)">
       <defs>
        <path d="M 10.984375 1.515625 
L 10.984375 10.5 
Q 14.703125 8.734375 18.5 7.8125 
Q 22.3125 6.890625 25.984375 6.890625 
Q 35.75 6.890625 40.890625 13.453125 
Q 46.046875 20.015625 46.78125 33.40625 
Q 43.953125 29.203125 39.59375 26.953125 
Q 35.25 24.703125 29.984375 24.703125 
Q 19.046875 24.703125 12.671875 31.3125 
Q 6.296875 37.9375 6.296875 49.421875 
Q 6.296875 60.640625 12.9375 67.421875 
Q 19.578125 74.21875 30.609375 74.21875 
Q 43.265625 74.21875 49.921875 64.515625 
Q 56.59375 54.828125 56.59375 36.375 
Q 56.59375 19.140625 48.40625 8.859375 
Q 40.234375 -1.421875 26.421875 -1.421875 
Q 22.703125 -1.421875 18.890625 -0.6875 
Q 15.09375 0.046875 10.984375 1.515625 
z
M 30.609375 32.421875 
Q 37.25 32.421875 41.125 36.953125 
Q 45.015625 41.5 45.015625 49.421875 
Q 45.015625 57.28125 41.125 61.84375 
Q 37.25 66.40625 30.609375 66.40625 
Q 23.96875 66.40625 20.09375 61.84375 
Q 16.21875 57.28125 16.21875 49.421875 
Q 16.21875 41.5 20.09375 36.953125 
Q 23.96875 32.421875 30.609375 32.421875 
z
" id="DejaVuSans-57"/>
       </defs>
       <use xlink:href="#DejaVuSans-55"/>
       <use x="63.623047" xlink:href="#DejaVuSans-57"/>
       <use x="127.246094" xlink:href="#DejaVuSans-48"/>
       <use x="190.869141" xlink:href="#DejaVuSans-48"/>
      </g>
     </g>
    </g>
    <g id="ytick_6">
     <g id="line2d_8">
      <g>
       <use style="stroke:#000000;stroke-width:0.8;" x="53.328125" xlink:href="#m4dd4d22749" y="100.109448"/>
      </g>
     </g>
     <g id="text_9">
      <!-- 7950 -->
      <g transform="translate(20.878125 103.908667)scale(0.1 -0.1)">
       <use xlink:href="#DejaVuSans-55"/>
       <use x="63.623047" xlink:href="#DejaVuSans-57"/>
       <use x="127.246094" xlink:href="#DejaVuSans-53"/>
       <use x="190.869141" xlink:href="#DejaVuSans-48"/>
      </g>
     </g>
    </g>
    <g id="ytick_7">
     <g id="line2d_9">
      <g>
       <use style="stroke:#000000;stroke-width:0.8;" x="53.328125" xlink:href="#m4dd4d22749" y="67.978822"/>
      </g>
     </g>
     <g id="text_10">
      <!-- 8000 -->
      <g transform="translate(20.878125 71.778041)scale(0.1 -0.1)">
       <use xlink:href="#DejaVuSans-56"/>
       <use x="63.623047" xlink:href="#DejaVuSans-48"/>
       <use x="127.246094" xlink:href="#DejaVuSans-48"/>
       <use x="190.869141" xlink:href="#DejaVuSans-48"/>
      </g>
     </g>
    </g>
    <g id="ytick_8">
     <g id="line2d_10">
      <g>
       <use style="stroke:#000000;stroke-width:0.8;" x="53.328125" xlink:href="#m4dd4d22749" y="35.848197"/>
      </g>
     </g>
     <g id="text_11">
      <!-- 8050 -->
      <g transform="translate(20.878125 39.647415)scale(0.1 -0.1)">
       <use xlink:href="#DejaVuSans-56"/>
       <use x="63.623047" xlink:href="#DejaVuSans-48"/>
       <use x="127.246094" xlink:href="#DejaVuSans-53"/>
       <use x="190.869141" xlink:href="#DejaVuSans-48"/>
      </g>
     </g>
    </g>
    <g id="text_12">
     <!-- Reached region coverage -->
     <g transform="translate(14.798438 219.136625)rotate(-90)scale(0.1 -0.1)">
      <defs>
       <path d="M 44.390625 34.1875 
Q 47.5625 33.109375 50.5625 29.59375 
Q 53.5625 26.078125 56.59375 19.921875 
L 66.609375 0 
L 56 0 
L 46.6875 18.703125 
Q 43.0625 26.03125 39.671875 28.421875 
Q 36.28125 30.8125 30.421875 30.8125 
L 19.671875 30.8125 
L 19.671875 0 
L 9.8125 0 
L 9.8125 72.90625 
L 32.078125 72.90625 
Q 44.578125 72.90625 50.734375 67.671875 
Q 56.890625 62.453125 56.890625 51.90625 
Q 56.890625 45.015625 53.6875 40.46875 
Q 50.484375 35.9375 44.390625 34.1875 
z
M 19.671875 64.796875 
L 19.671875 38.921875 
L 32.078125 38.921875 
Q 39.203125 38.921875 42.84375 42.21875 
Q 46.484375 45.515625 46.484375 51.90625 
Q 46.484375 58.296875 42.84375 61.546875 
Q 39.203125 64.796875 32.078125 64.796875 
z
" id="DejaVuSans-82"/>
      </defs>
      <use xlink:href="#DejaVuSans-82"/>
      <use x="64.982422" xlink:href="#DejaVuSans-101"/>
      <use x="126.505859" xlink:href="#DejaVuSans-97"/>
      <use x="187.785156" xlink:href="#DejaVuSans-99"/>
      <use x="242.765625" xlink:href="#DejaVuSans-104"/>
      <use x="306.144531" xlink:href="#DejaVuSans-101"/>
      <use x="367.667969" xlink:href="#DejaVuSans-100"/>
      <use x="431.144531" xlink:href="#DejaVuSans-32"/>
      <use x="462.931641" xlink:href="#DejaVuSans-114"/>
      <use x="501.794922" xlink:href="#DejaVuSans-101"/>
      <use x="563.318359" xlink:href="#DejaVuSans-103"/>
      <use x="626.794922" xlink:href="#DejaVuSans-105"/>
      <use x="654.578125" xlink:href="#DejaVuSans-111"/>
      <use x="715.759766" xlink:href="#DejaVuSans-110"/>
      <use x="779.138672" xlink:href="#DejaVuSans-32"/>
      <use x="810.925781" xlink:href="#DejaVuSans-99"/>
      <use x="865.90625" xlink:href="#DejaVuSans-111"/>
      <use x="927.087891" xlink:href="#DejaVuSans-118"/>
      <use x="986.267578" xlink:href="#DejaVuSans-101"/>
      <use x="1047.791016" xlink:href="#DejaVuSans-114"/>
      <use x="1088.904297" xlink:href="#DejaVuSans-97"/>
      <use x="1150.183594" xlink:href="#DejaVuSans-103"/>
      <use x="1213.660156" xlink:href="#DejaVuSans-101"/>
     </g>
    </g>
   </g>
   <g id="line2d_11">
    <path clip-path="url(#pe18e034e8f)" d="M 142.608125 111.033861 
L 142.608125 106.535574 
" style="fill:none;stroke:#3f3f3f;stroke-linecap:square;stroke-width:1.5;"/>
   </g>
   <g id="line2d_12">
    <path clip-path="url(#pe18e034e8f)" d="M 142.608125 111.033861 
L 142.608125 107.178186 
" style="fill:none;stroke:#3f3f3f;stroke-linecap:square;stroke-width:4.5;"/>
   </g>
   <g id="line2d_13">
    <path clip-path="url(#pe18e034e8f)" d="M 321.168125 209.996189 
L 321.168125 100.752061 
" style="fill:none;stroke:#3f3f3f;stroke-linecap:square;stroke-width:1.5;"/>
   </g>
   <g id="line2d_14">
    <path clip-path="url(#pe18e034e8f)" d="M 321.168125 206.783126 
L 321.168125 155.374125 
" style="fill:none;stroke:#3f3f3f;stroke-linecap:square;stroke-width:4.5;"/>
   </g>
   <g id="patch_3">
    <path d="M 53.328125 260.762578 
L 53.328125 35.848197 
" style="fill:none;stroke:#000000;stroke-linecap:square;stroke-linejoin:miter;stroke-width:0.8;"/>
   </g>
   <g id="patch_4">
    <path d="M 142.608125 288.430125 
L 321.168125 288.430125 
" style="fill:none;stroke:#000000;stroke-linecap:square;stroke-linejoin:miter;stroke-width:0.8;"/>
   </g>
   <g id="PathCollection_1">
    <defs>
     <path d="M 0 1.5 
C 0.397805 1.5 0.77937 1.341951 1.06066 1.06066 
C 1.341951 0.77937 1.5 0.397805 1.5 0 
C 1.5 -0.397805 1.341951 -0.77937 1.06066 -1.06066 
C 0.77937 -1.341951 0.397805 -1.5 0 -1.5 
C -0.397805 -1.5 -0.77937 -1.341951 -1.06066 -1.06066 
C -1.341951 -0.77937 -1.5 -0.397805 -1.5 0 
C -1.5 0.397805 -1.341951 0.77937 -1.06066 1.06066 
C -0.77937 1.341951 -0.397805 1.5 0 1.5 
z
" id="mdf19d73432" style="stroke:#3f3f3f;"/>
    </defs>
    <g clip-path="url(#pe18e034e8f)">
     <use style="fill:#ffffff;stroke:#3f3f3f;" x="142.608125" xlink:href="#mdf19d73432" y="110.391249"/>
    </g>
   </g>
   <g id="PathCollection_2">
    <g clip-path="url(#pe18e034e8f)">
     <use style="fill:#ffffff;stroke:#3f3f3f;" x="321.168125" xlink:href="#mdf19d73432" y="191.360426"/>
    </g>
   </g>
   <g id="text_13">
    <!-- mbedtls_fuzz_dtlsclient (3h:15m, 5 trials/fuzzer) -->
    <g transform="translate(87.348125 16.318125)scale(0.12 -0.12)">
     <defs>
      <path d="M 48.6875 27.296875 
Q 48.6875 37.203125 44.609375 42.84375 
Q 40.53125 48.484375 33.40625 48.484375 
Q 26.265625 48.484375 22.1875 42.84375 
Q 18.109375 37.203125 18.109375 27.296875 
Q 18.109375 17.390625 22.1875 11.75 
Q 26.265625 6.109375 33.40625 6.109375 
Q 40.53125 6.109375 44.609375 11.75 
Q 48.6875 17.390625 48.6875 27.296875 
z
M 18.109375 46.390625 
Q 20.953125 51.265625 25.265625 53.625 
Q 29.59375 56 35.59375 56 
Q 45.5625 56 51.78125 48.09375 
Q 58.015625 40.1875 58.015625 27.296875 
Q 58.015625 14.40625 51.78125 6.484375 
Q 45.5625 -1.421875 35.59375 -1.421875 
Q 29.59375 -1.421875 25.265625 0.953125 
Q 20.953125 3.328125 18.109375 8.203125 
L 18.109375 0 
L 9.078125 0 
L 9.078125 75.984375 
L 18.109375 75.984375 
z
" id="DejaVuSans-98"/>
      <path d="M 50.984375 -16.609375 
L 50.984375 -23.578125 
L -0.984375 -23.578125 
L -0.984375 -16.609375 
z
" id="DejaVuSans-95"/>
      <path d="M 40.578125 39.3125 
Q 47.65625 37.796875 51.625 33 
Q 55.609375 28.21875 55.609375 21.1875 
Q 55.609375 10.40625 48.1875 4.484375 
Q 40.765625 -1.421875 27.09375 -1.421875 
Q 22.515625 -1.421875 17.65625 -0.515625 
Q 12.796875 0.390625 7.625 2.203125 
L 7.625 11.71875 
Q 11.71875 9.328125 16.59375 8.109375 
Q 21.484375 6.890625 26.8125 6.890625 
Q 36.078125 6.890625 40.9375 10.546875 
Q 45.796875 14.203125 45.796875 21.1875 
Q 45.796875 27.640625 41.28125 31.265625 
Q 36.765625 34.90625 28.71875 34.90625 
L 20.21875 34.90625 
L 20.21875 43.015625 
L 29.109375 43.015625 
Q 36.375 43.015625 40.234375 45.921875 
Q 44.09375 48.828125 44.09375 54.296875 
Q 44.09375 59.90625 40.109375 62.90625 
Q 36.140625 65.921875 28.71875 65.921875 
Q 24.65625 65.921875 20.015625 65.03125 
Q 15.375 64.15625 9.8125 62.3125 
L 9.8125 71.09375 
Q 15.4375 72.65625 20.34375 73.4375 
Q 25.25 74.21875 29.59375 74.21875 
Q 40.828125 74.21875 47.359375 69.109375 
Q 53.90625 64.015625 53.90625 55.328125 
Q 53.90625 49.265625 50.4375 45.09375 
Q 46.96875 40.921875 40.578125 39.3125 
z
" id="DejaVuSans-51"/>
      <path d="M 11.71875 12.40625 
L 22.015625 12.40625 
L 22.015625 0 
L 11.71875 0 
z
M 11.71875 51.703125 
L 22.015625 51.703125 
L 22.015625 39.3125 
L 11.71875 39.3125 
z
" id="DejaVuSans-58"/>
      <path d="M 12.40625 8.296875 
L 28.515625 8.296875 
L 28.515625 63.921875 
L 10.984375 60.40625 
L 10.984375 69.390625 
L 28.421875 72.90625 
L 38.28125 72.90625 
L 38.28125 8.296875 
L 54.390625 8.296875 
L 54.390625 0 
L 12.40625 0 
z
" id="DejaVuSans-49"/>
      <path d="M 11.71875 12.40625 
L 22.015625 12.40625 
L 22.015625 4 
L 14.015625 -11.625 
L 7.71875 -11.625 
L 11.71875 4 
z
" id="DejaVuSans-44"/>
      <path d="M 25.390625 72.90625 
L 33.6875 72.90625 
L 8.296875 -9.28125 
L 0 -9.28125 
z
" id="DejaVuSans-47"/>
     </defs>
     <use xlink:href="#DejaVuSans-109"/>
     <use x="97.412109" xlink:href="#DejaVuSans-98"/>
     <use x="160.888672" xlink:href="#DejaVuSans-101"/>
     <use x="222.412109" xlink:href="#DejaVuSans-100"/>
     <use x="285.888672" xlink:href="#DejaVuSans-116"/>
     <use x="325.097656" xlink:href="#DejaVuSans-108"/>
     <use x="352.880859" xlink:href="#DejaVuSans-115"/>
     <use x="404.980469" xlink:href="#DejaVuSans-95"/>
     <use x="454.980469" xlink:href="#DejaVuSans-102"/>
     <use x="490.185547" xlink:href="#DejaVuSans-117"/>
     <use x="553.564453" xlink:href="#DejaVuSans-122"/>
     <use x="606.054688" xlink:href="#DejaVuSans-122"/>
     <use x="658.544922" xlink:href="#DejaVuSans-95"/>
     <use x="708.544922" xlink:href="#DejaVuSans-100"/>
     <use x="772.021484" xlink:href="#DejaVuSans-116"/>
     <use x="811.230469" xlink:href="#DejaVuSans-108"/>
     <use x="839.013672" xlink:href="#DejaVuSans-115"/>
     <use x="891.113281" xlink:href="#DejaVuSans-99"/>
     <use x="946.09375" xlink:href="#DejaVuSans-108"/>
     <use x="973.876953" xlink:href="#DejaVuSans-105"/>
     <use x="1001.660156" xlink:href="#DejaVuSans-101"/>
     <use x="1063.183594" xlink:href="#DejaVuSans-110"/>
     <use x="1126.5625" xlink:href="#DejaVuSans-116"/>
     <use x="1165.771484" xlink:href="#DejaVuSans-32"/>
     <use x="1197.558594" xlink:href="#DejaVuSans-40"/>
     <use x="1236.572266" xlink:href="#DejaVuSans-51"/>
     <use x="1300.195312" xlink:href="#DejaVuSans-104"/>
     <use x="1363.574219" xlink:href="#DejaVuSans-58"/>
     <use x="1397.265625" xlink:href="#DejaVuSans-49"/>
     <use x="1460.888672" xlink:href="#DejaVuSans-53"/>
     <use x="1524.511719" xlink:href="#DejaVuSans-109"/>
     <use x="1621.923828" xlink:href="#DejaVuSans-44"/>
     <use x="1653.710938" xlink:href="#DejaVuSans-32"/>
     <use x="1685.498047" xlink:href="#DejaVuSans-53"/>
     <use x="1749.121094" xlink:href="#DejaVuSans-32"/>
     <use x="1780.908203" xlink:href="#DejaVuSans-116"/>
     <use x="1820.117188" xlink:href="#DejaVuSans-114"/>
     <use x="1861.230469" xlink:href="#DejaVuSans-105"/>
     <use x="1889.013672" xlink:href="#DejaVuSans-97"/>
     <use x="1950.292969" xlink:href="#DejaVuSans-108"/>
     <use x="1978.076172" xlink:href="#DejaVuSans-115"/>
     <use x="2030.175781" xlink:href="#DejaVuSans-47"/>
     <use x="2063.867188" xlink:href="#DejaVuSans-102"/>
     <use x="2099.072266" xlink:href="#DejaVuSans-117"/>
     <use x="2162.451172" xlink:href="#DejaVuSans-122"/>
     <use x="2214.941406" xlink:href="#DejaVuSans-122"/>
     <use x="2267.431641" xlink:href="#DejaVuSans-101"/>
     <use x="2328.955078" xlink:href="#DejaVuSans-114"/>
     <use x="2370.068359" xlink:href="#DejaVuSans-41"/>
    </g>
   </g>
  </g>
 </g>
 <defs>
  <clipPath id="pe18e034e8f">
   <rect height="266.112" width="357.12" x="53.328125" y="22.318125"/>
  </clipPath>
 </defs>
</svg>
