<?xml version="1.0" encoding="utf-8" standalone="no"?>
<!DOCTYPE svg PUBLIC "-//W3C//DTD SVG 1.1//EN"
  "http://www.w3.org/Graphics/SVG/1.1/DTD/svg11.dtd">
<!-- Created with matplotlib (https://matplotlib.org/) -->
<svg height="351.576471pt" version="1.1" viewBox="0 0 417.648125 351.576471" width="417.648125pt" xmlns="http://www.w3.org/2000/svg" xmlns:xlink="http://www.w3.org/1999/xlink">
 <metadata>
  <rdf:RDF xmlns:cc="http://creativecommons.org/ns#" xmlns:dc="http://purl.org/dc/elements/1.1/" xmlns:rdf="http://www.w3.org/1999/02/22-rdf-syntax-ns#">
   <cc:Work>
    <dc:type rdf:resource="http://purl.org/dc/dcmitype/StillImage"/>
    <dc:date>2020-10-17T07:19:20.083869</dc:date>
    <dc:format>image/svg+xml</dc:format>
    <dc:creator>
     <cc:Agent>
      <dc:title>Matplotlib v3.3.2, https://matplotlib.org/</dc:title>
     </cc:Agent>
    </dc:creator>
   </cc:Work>
  </rdf:RDF>
 </metadata>
 <defs>
  <style type="text/css">*{stroke-linecap:butt;stroke-linejoin:round;}</style>
 </defs>
 <g id="figure_1">
  <g id="patch_1">
   <path d="M 0 351.576471 
L 417.648125 351.576471 
L 417.648125 0 
L 0 0 
z
" style="fill:#ffffff;"/>
  </g>
  <g id="axes_1">
   <g id="patch_2">
    <path d="M 53.328125 288.430125 
L 410.448125 288.430125 
L 410.448125 22.318125 
L 53.328125 22.318125 
z
" style="fill:#ffffff;"/>
   </g>
   <g id="PolyCollection_1">
    <defs>
     <path d="M 98.476515 -75.242346 
L 97.459735 -75.242346 
L 97.375705 -77.685982 
L 97.281847 -80.129619 
L 97.17778 -82.573255 
L 97.06325 -85.016891 
L 96.938145 -87.460528 
L 96.802524 -89.904164 
L 96.656624 -92.3478 
L 96.500878 -94.791437 
L 96.335918 -97.235073 
L 96.162576 -99.678709 
L 95.98187 -102.122346 
L 95.794995 -104.565982 
L 95.603292 -107.009619 
L 95.408217 -109.453255 
L 95.211298 -111.896891 
L 95.014089 -114.340528 
L 94.818116 -116.784164 
L 94.624816 -119.2278 
L 94.435485 -121.671437 
L 94.251215 -124.115073 
L 94.072843 -126.558709 
L 93.9009 -129.002346 
L 93.735574 -131.445982 
L 93.576682 -133.889619 
L 93.423655 -136.333255 
L 93.275534 -138.776891 
L 93.130992 -141.220528 
L 92.988358 -143.664164 
L 92.84567 -146.1078 
L 92.70073 -148.551437 
L 92.551185 -150.995073 
L 92.394603 -153.438709 
L 92.228572 -155.882346 
L 92.050793 -158.325982 
L 91.859176 -160.769619 
L 91.651932 -163.213255 
L 91.427664 -165.656891 
L 91.185437 -168.100528 
L 90.924844 -170.544164 
L 90.646054 -172.9878 
L 90.349838 -175.431437 
L 90.037584 -177.875073 
L 89.71128 -180.318709 
L 89.373493 -182.762346 
L 89.02732 -185.205982 
L 88.676322 -187.649619 
L 88.32445 -190.093255 
L 87.975955 -192.536891 
L 87.635292 -194.980528 
L 87.307013 -197.424164 
L 86.995671 -199.8678 
L 86.705709 -202.311437 
L 86.44137 -204.755073 
L 86.206602 -207.198709 
L 86.004978 -209.642346 
L 85.839631 -212.085982 
L 85.713196 -214.529619 
L 85.62777 -216.973255 
L 85.584884 -219.416891 
L 85.58549 -221.860528 
L 85.629965 -224.304164 
L 85.718117 -226.7478 
L 85.849216 -229.191437 
L 86.022022 -231.635073 
L 86.234827 -234.078709 
L 86.485503 -236.522346 
L 86.771549 -238.965982 
L 87.09015 -241.409619 
L 87.438225 -243.853255 
L 87.812487 -246.296891 
L 88.209494 -248.740528 
L 88.625702 -251.184164 
L 89.057512 -253.6278 
L 89.501321 -256.071437 
L 89.95356 -258.515073 
L 90.410742 -260.958709 
L 90.869492 -263.402346 
L 91.326585 -265.845982 
L 91.778978 -268.289619 
L 92.223832 -270.733255 
L 92.658541 -273.176891 
L 93.080748 -275.620528 
L 93.488365 -278.064164 
L 93.879578 -280.5078 
L 94.252864 -282.951437 
L 94.606986 -285.395073 
L 94.940996 -287.838709 
L 95.254229 -290.282346 
L 95.546294 -292.725982 
L 95.817059 -295.169619 
L 96.066633 -297.613255 
L 96.295348 -300.056891 
L 96.503734 -302.500528 
L 96.692494 -304.944164 
L 96.862478 -307.3878 
L 97.014656 -309.831437 
L 97.150091 -312.275073 
L 97.269912 -314.718709 
L 97.37529 -317.162346 
L 98.56096 -317.162346 
L 98.56096 -317.162346 
L 98.666338 -314.718709 
L 98.786159 -312.275073 
L 98.921594 -309.831437 
L 99.073772 -307.3878 
L 99.243756 -304.944164 
L 99.432516 -302.500528 
L 99.640902 -300.056891 
L 99.869617 -297.613255 
L 100.119191 -295.169619 
L 100.389956 -292.725982 
L 100.682021 -290.282346 
L 100.995254 -287.838709 
L 101.329264 -285.395073 
L 101.683386 -282.951437 
L 102.056672 -280.5078 
L 102.447885 -278.064164 
L 102.855502 -275.620528 
L 103.277709 -273.176891 
L 103.712418 -270.733255 
L 104.157272 -268.289619 
L 104.609665 -265.845982 
L 105.066758 -263.402346 
L 105.525508 -260.958709 
L 105.98269 -258.515073 
L 106.434929 -256.071437 
L 106.878738 -253.6278 
L 107.310548 -251.184164 
L 107.726756 -248.740528 
L 108.123763 -246.296891 
L 108.498025 -243.853255 
L 108.8461 -241.409619 
L 109.164701 -238.965982 
L 109.450747 -236.522346 
L 109.701423 -234.078709 
L 109.914228 -231.635073 
L 110.087034 -229.191437 
L 110.218133 -226.7478 
L 110.306285 -224.304164 
L 110.35076 -221.860528 
L 110.351366 -219.416891 
L 110.30848 -216.973255 
L 110.223054 -214.529619 
L 110.096619 -212.085982 
L 109.931272 -209.642346 
L 109.729648 -207.198709 
L 109.49488 -204.755073 
L 109.230541 -202.311437 
L 108.940579 -199.8678 
L 108.629237 -197.424164 
L 108.300958 -194.980528 
L 107.960295 -192.536891 
L 107.6118 -190.093255 
L 107.259928 -187.649619 
L 106.90893 -185.205982 
L 106.562757 -182.762346 
L 106.22497 -180.318709 
L 105.898666 -177.875073 
L 105.586412 -175.431437 
L 105.290196 -172.9878 
L 105.011406 -170.544164 
L 104.750813 -168.100528 
L 104.508586 -165.656891 
L 104.284318 -163.213255 
L 104.077074 -160.769619 
L 103.885457 -158.325982 
L 103.707678 -155.882346 
L 103.541647 -153.438709 
L 103.385065 -150.995073 
L 103.23552 -148.551437 
L 103.09058 -146.1078 
L 102.947892 -143.664164 
L 102.805258 -141.220528 
L 102.660716 -138.776891 
L 102.512595 -136.333255 
L 102.359568 -133.889619 
L 102.200676 -131.445982 
L 102.03535 -129.002346 
L 101.863407 -126.558709 
L 101.685035 -124.115073 
L 101.500765 -121.671437 
L 101.311434 -119.2278 
L 101.118134 -116.784164 
L 100.922161 -114.340528 
L 100.724952 -111.896891 
L 100.528033 -109.453255 
L 100.332958 -107.009619 
L 100.141255 -104.565982 
L 99.95438 -102.122346 
L 99.773674 -99.678709 
L 99.600332 -97.235073 
L 99.435372 -94.791437 
L 99.279626 -92.3478 
L 99.133726 -89.904164 
L 98.998105 -87.460528 
L 98.873 -85.016891 
L 98.75847 -82.573255 
L 98.654403 -80.129619 
L 98.560545 -77.685982 
L 98.476515 -75.242346 
z
" id="m5f41f2a2f6" style="stroke:#3f3f3f;stroke-width:1.5;"/>
    </defs>
    <g clip-path="url(#p8438d47191)">
     <use style="fill:#e1812c;stroke:#3f3f3f;stroke-width:1.5;" x="0" xlink:href="#m5f41f2a2f6" y="351.576471"/>
    </g>
   </g>
   <g id="PolyCollection_2">
    <defs>
     <path d="M 188.840731 -85.751407 
L 185.655519 -85.751407 
L 185.395555 -87.2831 
L 185.104328 -88.814794 
L 184.780116 -90.346488 
L 184.42145 -91.878181 
L 184.027177 -93.409875 
L 183.596518 -94.941569 
L 183.129129 -96.473263 
L 182.625154 -98.004956 
L 182.085267 -99.53665 
L 181.510716 -101.068344 
L 180.903343 -102.600037 
L 180.265598 -104.131731 
L 179.600538 -105.663425 
L 178.911813 -107.195119 
L 178.20363 -108.726812 
L 177.480708 -110.258506 
L 176.74822 -111.7902 
L 176.011715 -113.321893 
L 175.277034 -114.853587 
L 174.55022 -116.385281 
L 173.837414 -117.916974 
L 173.144757 -119.448668 
L 172.478283 -120.980362 
L 171.84382 -122.512056 
L 171.246898 -124.043749 
L 170.692659 -125.575443 
L 170.185779 -127.107137 
L 169.730404 -128.63883 
L 169.330093 -130.170524 
L 168.987779 -131.702218 
L 168.705735 -133.233912 
L 168.485559 -134.765605 
L 168.328167 -136.297299 
L 168.233795 -137.828993 
L 168.202011 -139.360686 
L 168.231734 -140.89238 
L 168.321263 -142.424074 
L 168.468301 -143.955768 
L 168.670001 -145.487461 
L 168.922999 -147.019155 
L 169.223462 -148.550849 
L 169.567139 -150.082542 
L 169.949413 -151.614236 
L 170.365361 -153.14593 
L 170.809819 -154.677623 
L 171.277451 -156.209317 
L 171.762824 -157.741011 
L 172.260488 -159.272705 
L 172.76506 -160.804398 
L 173.271312 -162.336092 
L 173.774255 -163.867786 
L 174.269229 -165.399479 
L 174.751985 -166.931173 
L 175.218759 -168.462867 
L 175.666349 -169.994561 
L 176.09216 -171.526254 
L 176.494257 -173.057948 
L 176.871387 -174.589642 
L 177.222992 -176.121335 
L 177.549194 -177.653029 
L 177.850773 -179.184723 
L 178.129118 -180.716417 
L 178.386162 -182.24811 
L 178.624305 -183.779804 
L 178.846321 -185.311498 
L 179.055256 -186.843191 
L 179.25432 -188.374885 
L 179.446778 -189.906579 
L 179.635841 -191.438272 
L 179.824563 -192.969966 
L 180.015746 -194.50166 
L 180.211861 -196.033354 
L 180.414978 -197.565047 
L 180.626713 -199.096741 
L 180.848202 -200.628435 
L 181.080079 -202.160128 
L 181.322482 -203.691822 
L 181.575073 -205.223516 
L 181.837074 -206.75521 
L 182.10731 -208.286903 
L 182.384274 -209.818597 
L 182.666188 -211.350291 
L 182.951076 -212.881984 
L 183.236838 -214.413678 
L 183.521317 -215.945372 
L 183.802371 -217.477066 
L 184.077931 -219.008759 
L 184.346063 -220.540453 
L 184.605005 -222.072147 
L 184.85321 -223.60384 
L 185.089366 -225.135534 
L 185.31242 -226.667228 
L 185.521579 -228.198921 
L 185.716308 -229.730615 
L 185.896325 -231.262309 
L 186.06158 -232.794003 
L 186.212238 -234.325696 
L 186.34865 -235.85739 
L 186.471329 -237.389084 
L 188.024921 -237.389084 
L 188.024921 -237.389084 
L 188.1476 -235.85739 
L 188.284012 -234.325696 
L 188.43467 -232.794003 
L 188.599925 -231.262309 
L 188.779942 -229.730615 
L 188.974671 -228.198921 
L 189.18383 -226.667228 
L 189.406884 -225.135534 
L 189.64304 -223.60384 
L 189.891245 -222.072147 
L 190.150187 -220.540453 
L 190.418319 -219.008759 
L 190.693879 -217.477066 
L 190.974933 -215.945372 
L 191.259412 -214.413678 
L 191.545174 -212.881984 
L 191.830062 -211.350291 
L 192.111976 -209.818597 
L 192.38894 -208.286903 
L 192.659176 -206.75521 
L 192.921177 -205.223516 
L 193.173768 -203.691822 
L 193.416171 -202.160128 
L 193.648048 -200.628435 
L 193.869537 -199.096741 
L 194.081272 -197.565047 
L 194.284389 -196.033354 
L 194.480504 -194.50166 
L 194.671687 -192.969966 
L 194.860409 -191.438272 
L 195.049472 -189.906579 
L 195.24193 -188.374885 
L 195.440994 -186.843191 
L 195.649929 -185.311498 
L 195.871945 -183.779804 
L 196.110088 -182.24811 
L 196.367132 -180.716417 
L 196.645477 -179.184723 
L 196.947056 -177.653029 
L 197.273258 -176.121335 
L 197.624863 -174.589642 
L 198.001993 -173.057948 
L 198.40409 -171.526254 
L 198.829901 -169.994561 
L 199.277491 -168.462867 
L 199.744265 -166.931173 
L 200.227021 -165.399479 
L 200.721995 -163.867786 
L 201.224938 -162.336092 
L 201.73119 -160.804398 
L 202.235762 -159.272705 
L 202.733426 -157.741011 
L 203.218799 -156.209317 
L 203.686431 -154.677623 
L 204.130889 -153.14593 
L 204.546837 -151.614236 
L 204.929111 -150.082542 
L 205.272788 -148.550849 
L 205.573251 -147.019155 
L 205.826249 -145.487461 
L 206.027949 -143.955768 
L 206.174987 -142.424074 
L 206.264516 -140.89238 
L 206.294239 -139.360686 
L 206.262455 -137.828993 
L 206.168083 -136.297299 
L 206.010691 -134.765605 
L 205.790515 -133.233912 
L 205.508471 -131.702218 
L 205.166157 -130.170524 
L 204.765846 -128.63883 
L 204.310471 -127.107137 
L 203.803591 -125.575443 
L 203.249352 -124.043749 
L 202.65243 -122.512056 
L 202.017967 -120.980362 
L 201.351493 -119.448668 
L 200.658836 -117.916974 
L 199.94603 -116.385281 
L 199.219216 -114.853587 
L 198.484535 -113.321893 
L 197.74803 -111.7902 
L 197.015542 -110.258506 
L 196.29262 -108.726812 
L 195.584437 -107.195119 
L 194.895712 -105.663425 
L 194.230652 -104.131731 
L 193.592907 -102.600037 
L 192.985534 -101.068344 
L 192.410983 -99.53665 
L 191.871096 -98.004956 
L 191.367121 -96.473263 
L 190.899732 -94.941569 
L 190.469073 -93.409875 
L 190.0748 -91.878181 
L 189.716134 -90.346488 
L 189.391922 -88.814794 
L 189.100695 -87.2831 
L 188.840731 -85.751407 
z
" id="m3f1086af82" style="stroke:#3f3f3f;stroke-width:1.5;"/>
    </defs>
    <g clip-path="url(#p8438d47191)">
     <use style="fill:#c7c7c7;stroke:#3f3f3f;stroke-width:1.5;" x="0" xlink:href="#m3f1086af82" y="351.576471"/>
    </g>
   </g>
   <g id="PolyCollection_3">
    <defs>
     <path d="M 278.807237 -87.942473 
L 274.249013 -87.942473 
L 273.874721 -88.757382 
L 273.452983 -89.572291 
L 272.980323 -90.387201 
L 272.453441 -91.20211 
L 271.86929 -92.017019 
L 271.225169 -92.831928 
L 270.518815 -93.646837 
L 269.748501 -94.461746 
L 268.913127 -95.276655 
L 268.012319 -96.091564 
L 267.04651 -96.906473 
L 266.017026 -97.721383 
L 264.926147 -98.536292 
L 263.777171 -99.351201 
L 262.574446 -100.16611 
L 261.323388 -100.981019 
L 260.030488 -101.795928 
L 258.703275 -102.610837 
L 257.35028 -103.425746 
L 255.980954 -104.240655 
L 254.60557 -105.055564 
L 253.235108 -105.870474 
L 251.881103 -106.685383 
L 250.555482 -107.500292 
L 249.27038 -108.315201 
L 248.037945 -109.13011 
L 246.870123 -109.945019 
L 245.778451 -110.759928 
L 244.773832 -111.574837 
L 243.866333 -112.389746 
L 243.06497 -113.204656 
L 242.377531 -114.019565 
L 241.810395 -114.834474 
L 241.368398 -115.649383 
L 241.054706 -116.464292 
L 240.870741 -117.279201 
L 240.816125 -118.09411 
L 240.888676 -118.909019 
L 241.084434 -119.723928 
L 241.397734 -120.538837 
L 241.821309 -121.353747 
L 242.346443 -122.168656 
L 242.963143 -122.983565 
L 243.660357 -123.798474 
L 244.426204 -124.613383 
L 245.248232 -125.428292 
L 246.113687 -126.243201 
L 247.009785 -127.05811 
L 247.923991 -127.873019 
L 248.844277 -128.687929 
L 249.759378 -129.502838 
L 250.659012 -130.317747 
L 251.534086 -131.132656 
L 252.37685 -131.947565 
L 253.181029 -132.762474 
L 253.9419 -133.577383 
L 254.656334 -134.392292 
L 255.322788 -135.207201 
L 255.941255 -136.02211 
L 256.513175 -136.83702 
L 257.041304 -137.651929 
L 257.529554 -138.466838 
L 257.982805 -139.281747 
L 258.406693 -140.096656 
L 258.807389 -140.911565 
L 259.191371 -141.726474 
L 259.565197 -142.541383 
L 259.935286 -143.356292 
L 260.307713 -144.171201 
L 260.688033 -144.986111 
L 261.081119 -145.80102 
L 261.491042 -146.615929 
L 261.920972 -147.430838 
L 262.373125 -148.245747 
L 262.848736 -149.060656 
L 263.348066 -149.875565 
L 263.870442 -150.690474 
L 264.414325 -151.505383 
L 264.977397 -152.320293 
L 265.556672 -153.135202 
L 266.148618 -153.950111 
L 266.74929 -154.76502 
L 267.354463 -155.579929 
L 267.959769 -156.394838 
L 268.560825 -157.209747 
L 269.153349 -158.024656 
L 269.733274 -158.839565 
L 270.296834 -159.654474 
L 270.84064 -160.469384 
L 271.361741 -161.284293 
L 271.857659 -162.099202 
L 272.326417 -162.914111 
L 272.766541 -163.72902 
L 273.177052 -164.543929 
L 273.557447 -165.358838 
L 273.907665 -166.173747 
L 274.228046 -166.988656 
L 274.519288 -167.803566 
L 274.782389 -168.618475 
L 278.273861 -168.618475 
L 278.273861 -168.618475 
L 278.536962 -167.803566 
L 278.828204 -166.988656 
L 279.148585 -166.173747 
L 279.498803 -165.358838 
L 279.879198 -164.543929 
L 280.289709 -163.72902 
L 280.729833 -162.914111 
L 281.198591 -162.099202 
L 281.694509 -161.284293 
L 282.21561 -160.469384 
L 282.759416 -159.654474 
L 283.322976 -158.839565 
L 283.902901 -158.024656 
L 284.495425 -157.209747 
L 285.096481 -156.394838 
L 285.701787 -155.579929 
L 286.30696 -154.76502 
L 286.907632 -153.950111 
L 287.499578 -153.135202 
L 288.078853 -152.320293 
L 288.641925 -151.505383 
L 289.185808 -150.690474 
L 289.708184 -149.875565 
L 290.207514 -149.060656 
L 290.683125 -148.245747 
L 291.135278 -147.430838 
L 291.565208 -146.615929 
L 291.975131 -145.80102 
L 292.368217 -144.986111 
L 292.748537 -144.171201 
L 293.120964 -143.356292 
L 293.491053 -142.541383 
L 293.864879 -141.726474 
L 294.248861 -140.911565 
L 294.649557 -140.096656 
L 295.073445 -139.281747 
L 295.526696 -138.466838 
L 296.014946 -137.651929 
L 296.543075 -136.83702 
L 297.114995 -136.02211 
L 297.733462 -135.207201 
L 298.399916 -134.392292 
L 299.11435 -133.577383 
L 299.875221 -132.762474 
L 300.6794 -131.947565 
L 301.522164 -131.132656 
L 302.397238 -130.317747 
L 303.296872 -129.502838 
L 304.211973 -128.687929 
L 305.132259 -127.873019 
L 306.046465 -127.05811 
L 306.942563 -126.243201 
L 307.808018 -125.428292 
L 308.630046 -124.613383 
L 309.395893 -123.798474 
L 310.093107 -122.983565 
L 310.709807 -122.168656 
L 311.234941 -121.353747 
L 311.658516 -120.538837 
L 311.971816 -119.723928 
L 312.167574 -118.909019 
L 312.240125 -118.09411 
L 312.185509 -117.279201 
L 312.001544 -116.464292 
L 311.687852 -115.649383 
L 311.245855 -114.834474 
L 310.678719 -114.019565 
L 309.99128 -113.204656 
L 309.189917 -112.389746 
L 308.282418 -111.574837 
L 307.277799 -110.759928 
L 306.186127 -109.945019 
L 305.018305 -109.13011 
L 303.78587 -108.315201 
L 302.500768 -107.500292 
L 301.175147 -106.685383 
L 299.821142 -105.870474 
L 298.45068 -105.055564 
L 297.075296 -104.240655 
L 295.70597 -103.425746 
L 294.352975 -102.610837 
L 293.025762 -101.795928 
L 291.732862 -100.981019 
L 290.481804 -100.16611 
L 289.279079 -99.351201 
L 288.130103 -98.536292 
L 287.039224 -97.721383 
L 286.00974 -96.906473 
L 285.043931 -96.091564 
L 284.143123 -95.276655 
L 283.307749 -94.461746 
L 282.537435 -93.646837 
L 281.831081 -92.831928 
L 281.18696 -92.017019 
L 280.602809 -91.20211 
L 280.075927 -90.387201 
L 279.603267 -89.572291 
L 279.181529 -88.757382 
L 278.807237 -87.942473 
z
" id="m14838da7c0" style="stroke:#3f3f3f;stroke-width:1.5;"/>
    </defs>
    <g clip-path="url(#p8438d47191)">
     <use style="fill:#3274a1;stroke:#3f3f3f;stroke-width:1.5;" x="0" xlink:href="#m14838da7c0" y="351.576471"/>
    </g>
   </g>
   <g id="matplotlib.axis_1">
    <g id="xtick_1">
     <g id="line2d_1">
      <defs>
       <path d="M 0 0 
L 0 3.5 
" id="m5937d6d33e" style="stroke:#000000;stroke-width:0.8;"/>
      </defs>
      <g>
       <use style="stroke:#000000;stroke-width:0.8;" x="97.968125" xlink:href="#m5937d6d33e" y="288.430125"/>
      </g>
     </g>
     <g id="text_1">
      <!-- libfuzzer -->
      <g transform="translate(60.101904 323.272284)rotate(-30)scale(0.1 -0.1)">
       <defs>
        <path d="M 9.421875 75.984375 
L 18.40625 75.984375 
L 18.40625 0 
L 9.421875 0 
z
" id="DejaVuSans-108"/>
        <path d="M 9.421875 54.6875 
L 18.40625 54.6875 
L 18.40625 0 
L 9.421875 0 
z
M 9.421875 75.984375 
L 18.40625 75.984375 
L 18.40625 64.59375 
L 9.421875 64.59375 
z
" id="DejaVuSans-105"/>
        <path d="M 48.6875 27.296875 
Q 48.6875 37.203125 44.609375 42.84375 
Q 40.53125 48.484375 33.40625 48.484375 
Q 26.265625 48.484375 22.1875 42.84375 
Q 18.109375 37.203125 18.109375 27.296875 
Q 18.109375 17.390625 22.1875 11.75 
Q 26.265625 6.109375 33.40625 6.109375 
Q 40.53125 6.109375 44.609375 11.75 
Q 48.6875 17.390625 48.6875 27.296875 
z
M 18.109375 46.390625 
Q 20.953125 51.265625 25.265625 53.625 
Q 29.59375 56 35.59375 56 
Q 45.5625 56 51.78125 48.09375 
Q 58.015625 40.1875 58.015625 27.296875 
Q 58.015625 14.40625 51.78125 6.484375 
Q 45.5625 -1.421875 35.59375 -1.421875 
Q 29.59375 -1.421875 25.265625 0.953125 
Q 20.953125 3.328125 18.109375 8.203125 
L 18.109375 0 
L 9.078125 0 
L 9.078125 75.984375 
L 18.109375 75.984375 
z
" id="DejaVuSans-98"/>
        <path d="M 37.109375 75.984375 
L 37.109375 68.5 
L 28.515625 68.5 
Q 23.6875 68.5 21.796875 66.546875 
Q 19.921875 64.59375 19.921875 59.515625 
L 19.921875 54.6875 
L 34.71875 54.6875 
L 34.71875 47.703125 
L 19.921875 47.703125 
L 19.921875 0 
L 10.890625 0 
L 10.890625 47.703125 
L 2.296875 47.703125 
L 2.296875 54.6875 
L 10.890625 54.6875 
L 10.890625 58.5 
Q 10.890625 67.625 15.140625 71.796875 
Q 19.390625 75.984375 28.609375 75.984375 
z
" id="DejaVuSans-102"/>
        <path d="M 8.5 21.578125 
L 8.5 54.6875 
L 17.484375 54.6875 
L 17.484375 21.921875 
Q 17.484375 14.15625 20.5 10.265625 
Q 23.53125 6.390625 29.59375 6.390625 
Q 36.859375 6.390625 41.078125 11.03125 
Q 45.3125 15.671875 45.3125 23.6875 
L 45.3125 54.6875 
L 54.296875 54.6875 
L 54.296875 0 
L 45.3125 0 
L 45.3125 8.40625 
Q 42.046875 3.421875 37.71875 1 
Q 33.40625 -1.421875 27.6875 -1.421875 
Q 18.265625 -1.421875 13.375 4.4375 
Q 8.5 10.296875 8.5 21.578125 
z
M 31.109375 56 
z
" id="DejaVuSans-117"/>
        <path d="M 5.515625 54.6875 
L 48.1875 54.6875 
L 48.1875 46.484375 
L 14.40625 7.171875 
L 48.1875 7.171875 
L 48.1875 0 
L 4.296875 0 
L 4.296875 8.203125 
L 38.09375 47.515625 
L 5.515625 47.515625 
z
" id="DejaVuSans-122"/>
        <path d="M 56.203125 29.59375 
L 56.203125 25.203125 
L 14.890625 25.203125 
Q 15.484375 15.921875 20.484375 11.0625 
Q 25.484375 6.203125 34.421875 6.203125 
Q 39.59375 6.203125 44.453125 7.46875 
Q 49.3125 8.734375 54.109375 11.28125 
L 54.109375 2.78125 
Q 49.265625 0.734375 44.1875 -0.34375 
Q 39.109375 -1.421875 33.890625 -1.421875 
Q 20.796875 -1.421875 13.15625 6.1875 
Q 5.515625 13.8125 5.515625 26.8125 
Q 5.515625 40.234375 12.765625 48.109375 
Q 20.015625 56 32.328125 56 
Q 43.359375 56 49.78125 48.890625 
Q 56.203125 41.796875 56.203125 29.59375 
z
M 47.21875 32.234375 
Q 47.125 39.59375 43.09375 43.984375 
Q 39.0625 48.390625 32.421875 48.390625 
Q 24.90625 48.390625 20.390625 44.140625 
Q 15.875 39.890625 15.1875 32.171875 
z
" id="DejaVuSans-101"/>
        <path d="M 41.109375 46.296875 
Q 39.59375 47.171875 37.8125 47.578125 
Q 36.03125 48 33.890625 48 
Q 26.265625 48 22.1875 43.046875 
Q 18.109375 38.09375 18.109375 28.8125 
L 18.109375 0 
L 9.078125 0 
L 9.078125 54.6875 
L 18.109375 54.6875 
L 18.109375 46.1875 
Q 20.953125 51.171875 25.484375 53.578125 
Q 30.03125 56 36.53125 56 
Q 37.453125 56 38.578125 55.875 
Q 39.703125 55.765625 41.0625 55.515625 
z
" id="DejaVuSans-114"/>
       </defs>
       <use xlink:href="#DejaVuSans-108"/>
       <use x="27.783203" xlink:href="#DejaVuSans-105"/>
       <use x="55.566406" xlink:href="#DejaVuSans-98"/>
       <use x="119.042969" xlink:href="#DejaVuSans-102"/>
       <use x="154.248047" xlink:href="#DejaVuSans-117"/>
       <use x="217.626953" xlink:href="#DejaVuSans-122"/>
       <use x="270.117188" xlink:href="#DejaVuSans-122"/>
       <use x="322.607422" xlink:href="#DejaVuSans-101"/>
       <use x="384.130859" xlink:href="#DejaVuSans-114"/>
      </g>
     </g>
    </g>
    <g id="xtick_2">
     <g id="line2d_2">
      <g>
       <use style="stroke:#000000;stroke-width:0.8;" x="187.248125" xlink:href="#m5937d6d33e" y="288.430125"/>
      </g>
     </g>
     <g id="text_2">
      <!-- lafintel -->
      <g transform="translate(156.42242 319.20744)rotate(-30)scale(0.1 -0.1)">
       <defs>
        <path d="M 34.28125 27.484375 
Q 23.390625 27.484375 19.1875 25 
Q 14.984375 22.515625 14.984375 16.5 
Q 14.984375 11.71875 18.140625 8.90625 
Q 21.296875 6.109375 26.703125 6.109375 
Q 34.1875 6.109375 38.703125 11.40625 
Q 43.21875 16.703125 43.21875 25.484375 
L 43.21875 27.484375 
z
M 52.203125 31.203125 
L 52.203125 0 
L 43.21875 0 
L 43.21875 8.296875 
Q 40.140625 3.328125 35.546875 0.953125 
Q 30.953125 -1.421875 24.3125 -1.421875 
Q 15.921875 -1.421875 10.953125 3.296875 
Q 6 8.015625 6 15.921875 
Q 6 25.140625 12.171875 29.828125 
Q 18.359375 34.515625 30.609375 34.515625 
L 43.21875 34.515625 
L 43.21875 35.40625 
Q 43.21875 41.609375 39.140625 45 
Q 35.0625 48.390625 27.6875 48.390625 
Q 23 48.390625 18.546875 47.265625 
Q 14.109375 46.140625 10.015625 43.890625 
L 10.015625 52.203125 
Q 14.9375 54.109375 19.578125 55.046875 
Q 24.21875 56 28.609375 56 
Q 40.484375 56 46.34375 49.84375 
Q 52.203125 43.703125 52.203125 31.203125 
z
" id="DejaVuSans-97"/>
        <path d="M 54.890625 33.015625 
L 54.890625 0 
L 45.90625 0 
L 45.90625 32.71875 
Q 45.90625 40.484375 42.875 44.328125 
Q 39.84375 48.1875 33.796875 48.1875 
Q 26.515625 48.1875 22.3125 43.546875 
Q 18.109375 38.921875 18.109375 30.90625 
L 18.109375 0 
L 9.078125 0 
L 9.078125 54.6875 
L 18.109375 54.6875 
L 18.109375 46.1875 
Q 21.34375 51.125 25.703125 53.5625 
Q 30.078125 56 35.796875 56 
Q 45.21875 56 50.046875 50.171875 
Q 54.890625 44.34375 54.890625 33.015625 
z
" id="DejaVuSans-110"/>
        <path d="M 18.3125 70.21875 
L 18.3125 54.6875 
L 36.8125 54.6875 
L 36.8125 47.703125 
L 18.3125 47.703125 
L 18.3125 18.015625 
Q 18.3125 11.328125 20.140625 9.421875 
Q 21.96875 7.515625 27.59375 7.515625 
L 36.8125 7.515625 
L 36.8125 0 
L 27.59375 0 
Q 17.1875 0 13.234375 3.875 
Q 9.28125 7.765625 9.28125 18.015625 
L 9.28125 47.703125 
L 2.6875 47.703125 
L 2.6875 54.6875 
L 9.28125 54.6875 
L 9.28125 70.21875 
z
" id="DejaVuSans-116"/>
       </defs>
       <use xlink:href="#DejaVuSans-108"/>
       <use x="27.783203" xlink:href="#DejaVuSans-97"/>
       <use x="89.0625" xlink:href="#DejaVuSans-102"/>
       <use x="124.267578" xlink:href="#DejaVuSans-105"/>
       <use x="152.050781" xlink:href="#DejaVuSans-110"/>
       <use x="215.429688" xlink:href="#DejaVuSans-116"/>
       <use x="254.638672" xlink:href="#DejaVuSans-101"/>
       <use x="316.162109" xlink:href="#DejaVuSans-108"/>
      </g>
     </g>
    </g>
    <g id="xtick_3">
     <g id="line2d_3">
      <g>
       <use style="stroke:#000000;stroke-width:0.8;" x="276.528125" xlink:href="#m5937d6d33e" y="288.430125"/>
      </g>
     </g>
     <g id="text_3">
      <!-- aflplusplus -->
      <g transform="translate(228.919118 328.897284)rotate(-30)scale(0.1 -0.1)">
       <defs>
        <path d="M 18.109375 8.203125 
L 18.109375 -20.796875 
L 9.078125 -20.796875 
L 9.078125 54.6875 
L 18.109375 54.6875 
L 18.109375 46.390625 
Q 20.953125 51.265625 25.265625 53.625 
Q 29.59375 56 35.59375 56 
Q 45.5625 56 51.78125 48.09375 
Q 58.015625 40.1875 58.015625 27.296875 
Q 58.015625 14.40625 51.78125 6.484375 
Q 45.5625 -1.421875 35.59375 -1.421875 
Q 29.59375 -1.421875 25.265625 0.953125 
Q 20.953125 3.328125 18.109375 8.203125 
z
M 48.6875 27.296875 
Q 48.6875 37.203125 44.609375 42.84375 
Q 40.53125 48.484375 33.40625 48.484375 
Q 26.265625 48.484375 22.1875 42.84375 
Q 18.109375 37.203125 18.109375 27.296875 
Q 18.109375 17.390625 22.1875 11.75 
Q 26.265625 6.109375 33.40625 6.109375 
Q 40.53125 6.109375 44.609375 11.75 
Q 48.6875 17.390625 48.6875 27.296875 
z
" id="DejaVuSans-112"/>
        <path d="M 44.28125 53.078125 
L 44.28125 44.578125 
Q 40.484375 46.53125 36.375 47.5 
Q 32.28125 48.484375 27.875 48.484375 
Q 21.1875 48.484375 17.84375 46.4375 
Q 14.5 44.390625 14.5 40.28125 
Q 14.5 37.15625 16.890625 35.375 
Q 19.28125 33.59375 26.515625 31.984375 
L 29.59375 31.296875 
Q 39.15625 29.25 43.1875 25.515625 
Q 47.21875 21.78125 47.21875 15.09375 
Q 47.21875 7.46875 41.1875 3.015625 
Q 35.15625 -1.421875 24.609375 -1.421875 
Q 20.21875 -1.421875 15.453125 -0.5625 
Q 10.6875 0.296875 5.421875 2 
L 5.421875 11.28125 
Q 10.40625 8.6875 15.234375 7.390625 
Q 20.0625 6.109375 24.8125 6.109375 
Q 31.15625 6.109375 34.5625 8.28125 
Q 37.984375 10.453125 37.984375 14.40625 
Q 37.984375 18.0625 35.515625 20.015625 
Q 33.0625 21.96875 24.703125 23.78125 
L 21.578125 24.515625 
Q 13.234375 26.265625 9.515625 29.90625 
Q 5.8125 33.546875 5.8125 39.890625 
Q 5.8125 47.609375 11.28125 51.796875 
Q 16.75 56 26.8125 56 
Q 31.78125 56 36.171875 55.265625 
Q 40.578125 54.546875 44.28125 53.078125 
z
" id="DejaVuSans-115"/>
       </defs>
       <use xlink:href="#DejaVuSans-97"/>
       <use x="61.279297" xlink:href="#DejaVuSans-102"/>
       <use x="96.484375" xlink:href="#DejaVuSans-108"/>
       <use x="124.267578" xlink:href="#DejaVuSans-112"/>
       <use x="187.744141" xlink:href="#DejaVuSans-108"/>
       <use x="215.527344" xlink:href="#DejaVuSans-117"/>
       <use x="278.90625" xlink:href="#DejaVuSans-115"/>
       <use x="331.005859" xlink:href="#DejaVuSans-112"/>
       <use x="394.482422" xlink:href="#DejaVuSans-108"/>
       <use x="422.265625" xlink:href="#DejaVuSans-117"/>
       <use x="485.644531" xlink:href="#DejaVuSans-115"/>
      </g>
     </g>
    </g>
    <g id="xtick_4">
     <g id="line2d_4">
      <g>
       <use style="stroke:#000000;stroke-width:0.8;" x="365.808125" xlink:href="#m5937d6d33e" y="288.430125"/>
      </g>
     </g>
     <g id="text_4">
      <!-- honggfuzz -->
      <g transform="translate(319.868924 327.933221)rotate(-30)scale(0.1 -0.1)">
       <defs>
        <path d="M 54.890625 33.015625 
L 54.890625 0 
L 45.90625 0 
L 45.90625 32.71875 
Q 45.90625 40.484375 42.875 44.328125 
Q 39.84375 48.1875 33.796875 48.1875 
Q 26.515625 48.1875 22.3125 43.546875 
Q 18.109375 38.921875 18.109375 30.90625 
L 18.109375 0 
L 9.078125 0 
L 9.078125 75.984375 
L 18.109375 75.984375 
L 18.109375 46.1875 
Q 21.34375 51.125 25.703125 53.5625 
Q 30.078125 56 35.796875 56 
Q 45.21875 56 50.046875 50.171875 
Q 54.890625 44.34375 54.890625 33.015625 
z
" id="DejaVuSans-104"/>
        <path d="M 30.609375 48.390625 
Q 23.390625 48.390625 19.1875 42.75 
Q 14.984375 37.109375 14.984375 27.296875 
Q 14.984375 17.484375 19.15625 11.84375 
Q 23.34375 6.203125 30.609375 6.203125 
Q 37.796875 6.203125 41.984375 11.859375 
Q 46.1875 17.53125 46.1875 27.296875 
Q 46.1875 37.015625 41.984375 42.703125 
Q 37.796875 48.390625 30.609375 48.390625 
z
M 30.609375 56 
Q 42.328125 56 49.015625 48.375 
Q 55.71875 40.765625 55.71875 27.296875 
Q 55.71875 13.875 49.015625 6.21875 
Q 42.328125 -1.421875 30.609375 -1.421875 
Q 18.84375 -1.421875 12.171875 6.21875 
Q 5.515625 13.875 5.515625 27.296875 
Q 5.515625 40.765625 12.171875 48.375 
Q 18.84375 56 30.609375 56 
z
" id="DejaVuSans-111"/>
        <path d="M 45.40625 27.984375 
Q 45.40625 37.75 41.375 43.109375 
Q 37.359375 48.484375 30.078125 48.484375 
Q 22.859375 48.484375 18.828125 43.109375 
Q 14.796875 37.75 14.796875 27.984375 
Q 14.796875 18.265625 18.828125 12.890625 
Q 22.859375 7.515625 30.078125 7.515625 
Q 37.359375 7.515625 41.375 12.890625 
Q 45.40625 18.265625 45.40625 27.984375 
z
M 54.390625 6.78125 
Q 54.390625 -7.171875 48.1875 -13.984375 
Q 42 -20.796875 29.203125 -20.796875 
Q 24.46875 -20.796875 20.265625 -20.09375 
Q 16.0625 -19.390625 12.109375 -17.921875 
L 12.109375 -9.1875 
Q 16.0625 -11.328125 19.921875 -12.34375 
Q 23.78125 -13.375 27.78125 -13.375 
Q 36.625 -13.375 41.015625 -8.765625 
Q 45.40625 -4.15625 45.40625 5.171875 
L 45.40625 9.625 
Q 42.625 4.78125 38.28125 2.390625 
Q 33.9375 0 27.875 0 
Q 17.828125 0 11.671875 7.65625 
Q 5.515625 15.328125 5.515625 27.984375 
Q 5.515625 40.671875 11.671875 48.328125 
Q 17.828125 56 27.875 56 
Q 33.9375 56 38.28125 53.609375 
Q 42.625 51.21875 45.40625 46.390625 
L 45.40625 54.6875 
L 54.390625 54.6875 
z
" id="DejaVuSans-103"/>
       </defs>
       <use xlink:href="#DejaVuSans-104"/>
       <use x="63.378906" xlink:href="#DejaVuSans-111"/>
       <use x="124.560547" xlink:href="#DejaVuSans-110"/>
       <use x="187.939453" xlink:href="#DejaVuSans-103"/>
       <use x="251.416016" xlink:href="#DejaVuSans-103"/>
       <use x="314.892578" xlink:href="#DejaVuSans-102"/>
       <use x="350.097656" xlink:href="#DejaVuSans-117"/>
       <use x="413.476562" xlink:href="#DejaVuSans-122"/>
       <use x="465.966797" xlink:href="#DejaVuSans-122"/>
      </g>
     </g>
    </g>
    <g id="text_5">
     <!-- Fuzzer (highest median coverage on the left) -->
     <g transform="translate(119.270156 342.296783)scale(0.1 -0.1)">
      <defs>
       <path d="M 9.8125 72.90625 
L 51.703125 72.90625 
L 51.703125 64.59375 
L 19.671875 64.59375 
L 19.671875 43.109375 
L 48.578125 43.109375 
L 48.578125 34.8125 
L 19.671875 34.8125 
L 19.671875 0 
L 9.8125 0 
z
" id="DejaVuSans-70"/>
       <path id="DejaVuSans-32"/>
       <path d="M 31 75.875 
Q 24.46875 64.65625 21.28125 53.65625 
Q 18.109375 42.671875 18.109375 31.390625 
Q 18.109375 20.125 21.3125 9.0625 
Q 24.515625 -2 31 -13.1875 
L 23.1875 -13.1875 
Q 15.875 -1.703125 12.234375 9.375 
Q 8.59375 20.453125 8.59375 31.390625 
Q 8.59375 42.28125 12.203125 53.3125 
Q 15.828125 64.359375 23.1875 75.875 
z
" id="DejaVuSans-40"/>
       <path d="M 52 44.1875 
Q 55.375 50.25 60.0625 53.125 
Q 64.75 56 71.09375 56 
Q 79.640625 56 84.28125 50.015625 
Q 88.921875 44.046875 88.921875 33.015625 
L 88.921875 0 
L 79.890625 0 
L 79.890625 32.71875 
Q 79.890625 40.578125 77.09375 44.375 
Q 74.3125 48.1875 68.609375 48.1875 
Q 61.625 48.1875 57.5625 43.546875 
Q 53.515625 38.921875 53.515625 30.90625 
L 53.515625 0 
L 44.484375 0 
L 44.484375 32.71875 
Q 44.484375 40.625 41.703125 44.40625 
Q 38.921875 48.1875 33.109375 48.1875 
Q 26.21875 48.1875 22.15625 43.53125 
Q 18.109375 38.875 18.109375 30.90625 
L 18.109375 0 
L 9.078125 0 
L 9.078125 54.6875 
L 18.109375 54.6875 
L 18.109375 46.1875 
Q 21.1875 51.21875 25.484375 53.609375 
Q 29.78125 56 35.6875 56 
Q 41.65625 56 45.828125 52.96875 
Q 50 49.953125 52 44.1875 
z
" id="DejaVuSans-109"/>
       <path d="M 45.40625 46.390625 
L 45.40625 75.984375 
L 54.390625 75.984375 
L 54.390625 0 
L 45.40625 0 
L 45.40625 8.203125 
Q 42.578125 3.328125 38.25 0.953125 
Q 33.9375 -1.421875 27.875 -1.421875 
Q 17.96875 -1.421875 11.734375 6.484375 
Q 5.515625 14.40625 5.515625 27.296875 
Q 5.515625 40.1875 11.734375 48.09375 
Q 17.96875 56 27.875 56 
Q 33.9375 56 38.25 53.625 
Q 42.578125 51.265625 45.40625 46.390625 
z
M 14.796875 27.296875 
Q 14.796875 17.390625 18.875 11.75 
Q 22.953125 6.109375 30.078125 6.109375 
Q 37.203125 6.109375 41.296875 11.75 
Q 45.40625 17.390625 45.40625 27.296875 
Q 45.40625 37.203125 41.296875 42.84375 
Q 37.203125 48.484375 30.078125 48.484375 
Q 22.953125 48.484375 18.875 42.84375 
Q 14.796875 37.203125 14.796875 27.296875 
z
" id="DejaVuSans-100"/>
       <path d="M 48.78125 52.59375 
L 48.78125 44.1875 
Q 44.96875 46.296875 41.140625 47.34375 
Q 37.3125 48.390625 33.40625 48.390625 
Q 24.65625 48.390625 19.8125 42.84375 
Q 14.984375 37.3125 14.984375 27.296875 
Q 14.984375 17.28125 19.8125 11.734375 
Q 24.65625 6.203125 33.40625 6.203125 
Q 37.3125 6.203125 41.140625 7.25 
Q 44.96875 8.296875 48.78125 10.40625 
L 48.78125 2.09375 
Q 45.015625 0.34375 40.984375 -0.53125 
Q 36.96875 -1.421875 32.421875 -1.421875 
Q 20.0625 -1.421875 12.78125 6.34375 
Q 5.515625 14.109375 5.515625 27.296875 
Q 5.515625 40.671875 12.859375 48.328125 
Q 20.21875 56 33.015625 56 
Q 37.15625 56 41.109375 55.140625 
Q 45.0625 54.296875 48.78125 52.59375 
z
" id="DejaVuSans-99"/>
       <path d="M 2.984375 54.6875 
L 12.5 54.6875 
L 29.59375 8.796875 
L 46.6875 54.6875 
L 56.203125 54.6875 
L 35.6875 0 
L 23.484375 0 
z
" id="DejaVuSans-118"/>
       <path d="M 8.015625 75.875 
L 15.828125 75.875 
Q 23.140625 64.359375 26.78125 53.3125 
Q 30.421875 42.28125 30.421875 31.390625 
Q 30.421875 20.453125 26.78125 9.375 
Q 23.140625 -1.703125 15.828125 -13.1875 
L 8.015625 -13.1875 
Q 14.5 -2 17.703125 9.0625 
Q 20.90625 20.125 20.90625 31.390625 
Q 20.90625 42.671875 17.703125 53.65625 
Q 14.5 64.65625 8.015625 75.875 
z
" id="DejaVuSans-41"/>
      </defs>
      <use xlink:href="#DejaVuSans-70"/>
      <use x="52.019531" xlink:href="#DejaVuSans-117"/>
      <use x="115.398438" xlink:href="#DejaVuSans-122"/>
      <use x="167.888672" xlink:href="#DejaVuSans-122"/>
      <use x="220.378906" xlink:href="#DejaVuSans-101"/>
      <use x="281.902344" xlink:href="#DejaVuSans-114"/>
      <use x="323.015625" xlink:href="#DejaVuSans-32"/>
      <use x="354.802734" xlink:href="#DejaVuSans-40"/>
      <use x="393.816406" xlink:href="#DejaVuSans-104"/>
      <use x="457.195312" xlink:href="#DejaVuSans-105"/>
      <use x="484.978516" xlink:href="#DejaVuSans-103"/>
      <use x="548.455078" xlink:href="#DejaVuSans-104"/>
      <use x="611.833984" xlink:href="#DejaVuSans-101"/>
      <use x="673.357422" xlink:href="#DejaVuSans-115"/>
      <use x="725.457031" xlink:href="#DejaVuSans-116"/>
      <use x="764.666016" xlink:href="#DejaVuSans-32"/>
      <use x="796.453125" xlink:href="#DejaVuSans-109"/>
      <use x="893.865234" xlink:href="#DejaVuSans-101"/>
      <use x="955.388672" xlink:href="#DejaVuSans-100"/>
      <use x="1018.865234" xlink:href="#DejaVuSans-105"/>
      <use x="1046.648438" xlink:href="#DejaVuSans-97"/>
      <use x="1107.927734" xlink:href="#DejaVuSans-110"/>
      <use x="1171.306641" xlink:href="#DejaVuSans-32"/>
      <use x="1203.09375" xlink:href="#DejaVuSans-99"/>
      <use x="1258.074219" xlink:href="#DejaVuSans-111"/>
      <use x="1319.255859" xlink:href="#DejaVuSans-118"/>
      <use x="1378.435547" xlink:href="#DejaVuSans-101"/>
      <use x="1439.958984" xlink:href="#DejaVuSans-114"/>
      <use x="1481.072266" xlink:href="#DejaVuSans-97"/>
      <use x="1542.351562" xlink:href="#DejaVuSans-103"/>
      <use x="1605.828125" xlink:href="#DejaVuSans-101"/>
      <use x="1667.351562" xlink:href="#DejaVuSans-32"/>
      <use x="1699.138672" xlink:href="#DejaVuSans-111"/>
      <use x="1760.320312" xlink:href="#DejaVuSans-110"/>
      <use x="1823.699219" xlink:href="#DejaVuSans-32"/>
      <use x="1855.486328" xlink:href="#DejaVuSans-116"/>
      <use x="1894.695312" xlink:href="#DejaVuSans-104"/>
      <use x="1958.074219" xlink:href="#DejaVuSans-101"/>
      <use x="2019.597656" xlink:href="#DejaVuSans-32"/>
      <use x="2051.384766" xlink:href="#DejaVuSans-108"/>
      <use x="2079.167969" xlink:href="#DejaVuSans-101"/>
      <use x="2140.691406" xlink:href="#DejaVuSans-102"/>
      <use x="2174.146484" xlink:href="#DejaVuSans-116"/>
      <use x="2213.355469" xlink:href="#DejaVuSans-41"/>
     </g>
    </g>
   </g>
   <g id="matplotlib.axis_2">
    <g id="ytick_1">
     <g id="line2d_5">
      <defs>
       <path d="M 0 0 
L -3.5 0 
" id="mc13c62c524" style="stroke:#000000;stroke-width:0.8;"/>
      </defs>
      <g>
       <use style="stroke:#000000;stroke-width:0.8;" x="53.328125" xlink:href="#mc13c62c524" y="261.68662"/>
      </g>
     </g>
     <g id="text_6">
      <!-- 7500 -->
      <g transform="translate(20.878125 265.485839)scale(0.1 -0.1)">
       <defs>
        <path d="M 8.203125 72.90625 
L 55.078125 72.90625 
L 55.078125 68.703125 
L 28.609375 0 
L 18.3125 0 
L 43.21875 64.59375 
L 8.203125 64.59375 
z
" id="DejaVuSans-55"/>
        <path d="M 10.796875 72.90625 
L 49.515625 72.90625 
L 49.515625 64.59375 
L 19.828125 64.59375 
L 19.828125 46.734375 
Q 21.96875 47.46875 24.109375 47.828125 
Q 26.265625 48.1875 28.421875 48.1875 
Q 40.625 48.1875 47.75 41.5 
Q 54.890625 34.8125 54.890625 23.390625 
Q 54.890625 11.625 47.5625 5.09375 
Q 40.234375 -1.421875 26.90625 -1.421875 
Q 22.3125 -1.421875 17.546875 -0.640625 
Q 12.796875 0.140625 7.71875 1.703125 
L 7.71875 11.625 
Q 12.109375 9.234375 16.796875 8.0625 
Q 21.484375 6.890625 26.703125 6.890625 
Q 35.15625 6.890625 40.078125 11.328125 
Q 45.015625 15.765625 45.015625 23.390625 
Q 45.015625 31 40.078125 35.4375 
Q 35.15625 39.890625 26.703125 39.890625 
Q 22.75 39.890625 18.8125 39.015625 
Q 14.890625 38.140625 10.796875 36.28125 
z
" id="DejaVuSans-53"/>
        <path d="M 31.78125 66.40625 
Q 24.171875 66.40625 20.328125 58.90625 
Q 16.5 51.421875 16.5 36.375 
Q 16.5 21.390625 20.328125 13.890625 
Q 24.171875 6.390625 31.78125 6.390625 
Q 39.453125 6.390625 43.28125 13.890625 
Q 47.125 21.390625 47.125 36.375 
Q 47.125 51.421875 43.28125 58.90625 
Q 39.453125 66.40625 31.78125 66.40625 
z
M 31.78125 74.21875 
Q 44.046875 74.21875 50.515625 64.515625 
Q 56.984375 54.828125 56.984375 36.375 
Q 56.984375 17.96875 50.515625 8.265625 
Q 44.046875 -1.421875 31.78125 -1.421875 
Q 19.53125 -1.421875 13.0625 8.265625 
Q 6.59375 17.96875 6.59375 36.375 
Q 6.59375 54.828125 13.0625 64.515625 
Q 19.53125 74.21875 31.78125 74.21875 
z
" id="DejaVuSans-48"/>
       </defs>
       <use xlink:href="#DejaVuSans-55"/>
       <use x="63.623047" xlink:href="#DejaVuSans-53"/>
       <use x="127.246094" xlink:href="#DejaVuSans-48"/>
       <use x="190.869141" xlink:href="#DejaVuSans-48"/>
      </g>
     </g>
    </g>
    <g id="ytick_2">
     <g id="line2d_6">
      <g>
       <use style="stroke:#000000;stroke-width:0.8;" x="53.328125" xlink:href="#mc13c62c524" y="207.993441"/>
      </g>
     </g>
     <g id="text_7">
      <!-- 7600 -->
      <g transform="translate(20.878125 211.79266)scale(0.1 -0.1)">
       <defs>
        <path d="M 33.015625 40.375 
Q 26.375 40.375 22.484375 35.828125 
Q 18.609375 31.296875 18.609375 23.390625 
Q 18.609375 15.53125 22.484375 10.953125 
Q 26.375 6.390625 33.015625 6.390625 
Q 39.65625 6.390625 43.53125 10.953125 
Q 47.40625 15.53125 47.40625 23.390625 
Q 47.40625 31.296875 43.53125 35.828125 
Q 39.65625 40.375 33.015625 40.375 
z
M 52.59375 71.296875 
L 52.59375 62.3125 
Q 48.875 64.0625 45.09375 64.984375 
Q 41.3125 65.921875 37.59375 65.921875 
Q 27.828125 65.921875 22.671875 59.328125 
Q 17.53125 52.734375 16.796875 39.40625 
Q 19.671875 43.65625 24.015625 45.921875 
Q 28.375 48.1875 33.59375 48.1875 
Q 44.578125 48.1875 50.953125 41.515625 
Q 57.328125 34.859375 57.328125 23.390625 
Q 57.328125 12.15625 50.6875 5.359375 
Q 44.046875 -1.421875 33.015625 -1.421875 
Q 20.359375 -1.421875 13.671875 8.265625 
Q 6.984375 17.96875 6.984375 36.375 
Q 6.984375 53.65625 15.1875 63.9375 
Q 23.390625 74.21875 37.203125 74.21875 
Q 40.921875 74.21875 44.703125 73.484375 
Q 48.484375 72.75 52.59375 71.296875 
z
" id="DejaVuSans-54"/>
       </defs>
       <use xlink:href="#DejaVuSans-55"/>
       <use x="63.623047" xlink:href="#DejaVuSans-54"/>
       <use x="127.246094" xlink:href="#DejaVuSans-48"/>
       <use x="190.869141" xlink:href="#DejaVuSans-48"/>
      </g>
     </g>
    </g>
    <g id="ytick_3">
     <g id="line2d_7">
      <g>
       <use style="stroke:#000000;stroke-width:0.8;" x="53.328125" xlink:href="#mc13c62c524" y="154.300261"/>
      </g>
     </g>
     <g id="text_8">
      <!-- 7700 -->
      <g transform="translate(20.878125 158.09948)scale(0.1 -0.1)">
       <use xlink:href="#DejaVuSans-55"/>
       <use x="63.623047" xlink:href="#DejaVuSans-55"/>
       <use x="127.246094" xlink:href="#DejaVuSans-48"/>
       <use x="190.869141" xlink:href="#DejaVuSans-48"/>
      </g>
     </g>
    </g>
    <g id="ytick_4">
     <g id="line2d_8">
      <g>
       <use style="stroke:#000000;stroke-width:0.8;" x="53.328125" xlink:href="#mc13c62c524" y="100.607082"/>
      </g>
     </g>
     <g id="text_9">
      <!-- 7800 -->
      <g transform="translate(20.878125 104.406301)scale(0.1 -0.1)">
       <defs>
        <path d="M 31.78125 34.625 
Q 24.75 34.625 20.71875 30.859375 
Q 16.703125 27.09375 16.703125 20.515625 
Q 16.703125 13.921875 20.71875 10.15625 
Q 24.75 6.390625 31.78125 6.390625 
Q 38.8125 6.390625 42.859375 10.171875 
Q 46.921875 13.96875 46.921875 20.515625 
Q 46.921875 27.09375 42.890625 30.859375 
Q 38.875 34.625 31.78125 34.625 
z
M 21.921875 38.8125 
Q 15.578125 40.375 12.03125 44.71875 
Q 8.5 49.078125 8.5 55.328125 
Q 8.5 64.0625 14.71875 69.140625 
Q 20.953125 74.21875 31.78125 74.21875 
Q 42.671875 74.21875 48.875 69.140625 
Q 55.078125 64.0625 55.078125 55.328125 
Q 55.078125 49.078125 51.53125 44.71875 
Q 48 40.375 41.703125 38.8125 
Q 48.828125 37.15625 52.796875 32.3125 
Q 56.78125 27.484375 56.78125 20.515625 
Q 56.78125 9.90625 50.3125 4.234375 
Q 43.84375 -1.421875 31.78125 -1.421875 
Q 19.734375 -1.421875 13.25 4.234375 
Q 6.78125 9.90625 6.78125 20.515625 
Q 6.78125 27.484375 10.78125 32.3125 
Q 14.796875 37.15625 21.921875 38.8125 
z
M 18.3125 54.390625 
Q 18.3125 48.734375 21.84375 45.5625 
Q 25.390625 42.390625 31.78125 42.390625 
Q 38.140625 42.390625 41.71875 45.5625 
Q 45.3125 48.734375 45.3125 54.390625 
Q 45.3125 60.0625 41.71875 63.234375 
Q 38.140625 66.40625 31.78125 66.40625 
Q 25.390625 66.40625 21.84375 63.234375 
Q 18.3125 60.0625 18.3125 54.390625 
z
" id="DejaVuSans-56"/>
       </defs>
       <use xlink:href="#DejaVuSans-55"/>
       <use x="63.623047" xlink:href="#DejaVuSans-56"/>
       <use x="127.246094" xlink:href="#DejaVuSans-48"/>
       <use x="190.869141" xlink:href="#DejaVuSans-48"/>
      </g>
     </g>
    </g>
    <g id="ytick_5">
     <g id="line2d_9">
      <g>
       <use style="stroke:#000000;stroke-width:0.8;" x="53.328125" xlink:href="#mc13c62c524" y="46.913903"/>
      </g>
     </g>
     <g id="text_10">
      <!-- 7900 -->
      <g transform="translate(20.878125 50.713121)scale(0.1 -0.1)">
       <defs>
        <path d="M 10.984375 1.515625 
L 10.984375 10.5 
Q 14.703125 8.734375 18.5 7.8125 
Q 22.3125 6.890625 25.984375 6.890625 
Q 35.75 6.890625 40.890625 13.453125 
Q 46.046875 20.015625 46.78125 33.40625 
Q 43.953125 29.203125 39.59375 26.953125 
Q 35.25 24.703125 29.984375 24.703125 
Q 19.046875 24.703125 12.671875 31.3125 
Q 6.296875 37.9375 6.296875 49.421875 
Q 6.296875 60.640625 12.9375 67.421875 
Q 19.578125 74.21875 30.609375 74.21875 
Q 43.265625 74.21875 49.921875 64.515625 
Q 56.59375 54.828125 56.59375 36.375 
Q 56.59375 19.140625 48.40625 8.859375 
Q 40.234375 -1.421875 26.421875 -1.421875 
Q 22.703125 -1.421875 18.890625 -0.6875 
Q 15.09375 0.046875 10.984375 1.515625 
z
M 30.609375 32.421875 
Q 37.25 32.421875 41.125 36.953125 
Q 45.015625 41.5 45.015625 49.421875 
Q 45.015625 57.28125 41.125 61.84375 
Q 37.25 66.40625 30.609375 66.40625 
Q 23.96875 66.40625 20.09375 61.84375 
Q 16.21875 57.28125 16.21875 49.421875 
Q 16.21875 41.5 20.09375 36.953125 
Q 23.96875 32.421875 30.609375 32.421875 
z
" id="DejaVuSans-57"/>
       </defs>
       <use xlink:href="#DejaVuSans-55"/>
       <use x="63.623047" xlink:href="#DejaVuSans-57"/>
       <use x="127.246094" xlink:href="#DejaVuSans-48"/>
       <use x="190.869141" xlink:href="#DejaVuSans-48"/>
      </g>
     </g>
    </g>
    <g id="text_11">
     <!-- Reached region coverage -->
     <g transform="translate(14.798438 219.136625)rotate(-90)scale(0.1 -0.1)">
      <defs>
       <path d="M 44.390625 34.1875 
Q 47.5625 33.109375 50.5625 29.59375 
Q 53.5625 26.078125 56.59375 19.921875 
L 66.609375 0 
L 56 0 
L 46.6875 18.703125 
Q 43.0625 26.03125 39.671875 28.421875 
Q 36.28125 30.8125 30.421875 30.8125 
L 19.671875 30.8125 
L 19.671875 0 
L 9.8125 0 
L 9.8125 72.90625 
L 32.078125 72.90625 
Q 44.578125 72.90625 50.734375 67.671875 
Q 56.890625 62.453125 56.890625 51.90625 
Q 56.890625 45.015625 53.6875 40.46875 
Q 50.484375 35.9375 44.390625 34.1875 
z
M 19.671875 64.796875 
L 19.671875 38.921875 
L 32.078125 38.921875 
Q 39.203125 38.921875 42.84375 42.21875 
Q 46.484375 45.515625 46.484375 51.90625 
Q 46.484375 58.296875 42.84375 61.546875 
Q 39.203125 64.796875 32.078125 64.796875 
z
" id="DejaVuSans-82"/>
      </defs>
      <use xlink:href="#DejaVuSans-82"/>
      <use x="64.982422" xlink:href="#DejaVuSans-101"/>
      <use x="126.505859" xlink:href="#DejaVuSans-97"/>
      <use x="187.785156" xlink:href="#DejaVuSans-99"/>
      <use x="242.765625" xlink:href="#DejaVuSans-104"/>
      <use x="306.144531" xlink:href="#DejaVuSans-101"/>
      <use x="367.667969" xlink:href="#DejaVuSans-100"/>
      <use x="431.144531" xlink:href="#DejaVuSans-32"/>
      <use x="462.931641" xlink:href="#DejaVuSans-114"/>
      <use x="501.794922" xlink:href="#DejaVuSans-101"/>
      <use x="563.318359" xlink:href="#DejaVuSans-103"/>
      <use x="626.794922" xlink:href="#DejaVuSans-105"/>
      <use x="654.578125" xlink:href="#DejaVuSans-111"/>
      <use x="715.759766" xlink:href="#DejaVuSans-110"/>
      <use x="779.138672" xlink:href="#DejaVuSans-32"/>
      <use x="810.925781" xlink:href="#DejaVuSans-99"/>
      <use x="865.90625" xlink:href="#DejaVuSans-111"/>
      <use x="927.087891" xlink:href="#DejaVuSans-118"/>
      <use x="986.267578" xlink:href="#DejaVuSans-101"/>
      <use x="1047.791016" xlink:href="#DejaVuSans-114"/>
      <use x="1088.904297" xlink:href="#DejaVuSans-97"/>
      <use x="1150.183594" xlink:href="#DejaVuSans-103"/>
      <use x="1213.660156" xlink:href="#DejaVuSans-101"/>
     </g>
    </g>
   </g>
   <g id="line2d_10">
    <path clip-path="url(#p8438d47191)" d="M 97.968125 154.837193 
L 97.968125 97.385491 
" style="fill:none;stroke:#3f3f3f;stroke-linecap:square;stroke-width:1.5;"/>
   </g>
   <g id="line2d_11">
    <path clip-path="url(#p8438d47191)" d="M 97.968125 154.837193 
L 97.968125 124.232081 
" style="fill:none;stroke:#3f3f3f;stroke-linecap:square;stroke-width:4.5;"/>
   </g>
   <g id="line2d_12">
    <path clip-path="url(#p8438d47191)" d="M 187.248125 224.638326 
L 187.248125 155.374125 
" style="fill:none;stroke:#3f3f3f;stroke-linecap:square;stroke-width:1.5;"/>
   </g>
   <g id="line2d_13">
    <path clip-path="url(#p8438d47191)" d="M 187.248125 224.101395 
L 187.248125 194.570146 
" style="fill:none;stroke:#3f3f3f;stroke-linecap:square;stroke-width:4.5;"/>
   </g>
   <g id="line2d_14">
    <path clip-path="url(#p8438d47191)" d="M 276.528125 240.74628 
L 276.528125 205.845714 
" style="fill:none;stroke:#3f3f3f;stroke-linecap:square;stroke-width:1.5;"/>
   </g>
   <g id="line2d_15">
    <path clip-path="url(#p8438d47191)" d="M 276.528125 235.511195 
L 276.528125 222.759065 
" style="fill:none;stroke:#3f3f3f;stroke-linecap:square;stroke-width:4.5;"/>
   </g>
   <g id="line2d_16">
    <path clip-path="url(#p8438d47191)" d="M 330.096125 239.135485 
L 401.520125 239.135485 
" style="fill:none;stroke:#3f3f3f;stroke-linecap:square;stroke-width:1.5;"/>
   </g>
   <g id="patch_3">
    <path d="M 53.328125 261.68662 
L 53.328125 46.913903 
" style="fill:none;stroke:#000000;stroke-linecap:square;stroke-linejoin:miter;stroke-width:0.8;"/>
   </g>
   <g id="patch_4">
    <path d="M 97.968125 288.430125 
L 365.808125 288.430125 
" style="fill:none;stroke:#000000;stroke-linecap:square;stroke-linejoin:miter;stroke-width:0.8;"/>
   </g>
   <g id="PathCollection_1">
    <defs>
     <path d="M 0 1.5 
C 0.397805 1.5 0.77937 1.341951 1.06066 1.06066 
C 1.341951 0.77937 1.5 0.397805 1.5 0 
C 1.5 -0.397805 1.341951 -0.77937 1.06066 -1.06066 
C 0.77937 -1.341951 0.397805 -1.5 0 -1.5 
C -0.397805 -1.5 -0.77937 -1.341951 -1.06066 -1.06066 
C -1.341951 -0.77937 -1.5 -0.397805 -1.5 0 
C -1.5 0.397805 -1.341951 0.77937 -1.06066 1.06066 
C -0.77937 1.341951 -0.397805 1.5 0 1.5 
z
" id="m5632e116cf" style="stroke:#3f3f3f;"/>
    </defs>
    <g clip-path="url(#p8438d47191)">
     <use style="fill:#ffffff;stroke:#3f3f3f;" x="97.968125" xlink:href="#m5632e116cf" y="136.04458"/>
    </g>
   </g>
   <g id="PathCollection_2">
    <g clip-path="url(#p8438d47191)">
     <use style="fill:#ffffff;stroke:#3f3f3f;" x="187.248125" xlink:href="#m5632e116cf" y="204.77185"/>
    </g>
   </g>
   <g id="PathCollection_3">
    <g clip-path="url(#p8438d47191)">
     <use style="fill:#ffffff;stroke:#3f3f3f;" x="276.528125" xlink:href="#m5632e116cf" y="231.081508"/>
    </g>
   </g>
   <g id="text_12">
    <!-- mbedtls_fuzz_dtlsclient (45m, 1 trials/fuzzer) -->
    <g transform="translate(96.989375 16.318125)scale(0.12 -0.12)">
     <defs>
      <path d="M 50.984375 -16.609375 
L 50.984375 -23.578125 
L -0.984375 -23.578125 
L -0.984375 -16.609375 
z
" id="DejaVuSans-95"/>
      <path d="M 37.796875 64.3125 
L 12.890625 25.390625 
L 37.796875 25.390625 
z
M 35.203125 72.90625 
L 47.609375 72.90625 
L 47.609375 25.390625 
L 58.015625 25.390625 
L 58.015625 17.1875 
L 47.609375 17.1875 
L 47.609375 0 
L 37.796875 0 
L 37.796875 17.1875 
L 4.890625 17.1875 
L 4.890625 26.703125 
z
" id="DejaVuSans-52"/>
      <path d="M 11.71875 12.40625 
L 22.015625 12.40625 
L 22.015625 4 
L 14.015625 -11.625 
L 7.71875 -11.625 
L 11.71875 4 
z
" id="DejaVuSans-44"/>
      <path d="M 12.40625 8.296875 
L 28.515625 8.296875 
L 28.515625 63.921875 
L 10.984375 60.40625 
L 10.984375 69.390625 
L 28.421875 72.90625 
L 38.28125 72.90625 
L 38.28125 8.296875 
L 54.390625 8.296875 
L 54.390625 0 
L 12.40625 0 
z
" id="DejaVuSans-49"/>
      <path d="M 25.390625 72.90625 
L 33.6875 72.90625 
L 8.296875 -9.28125 
L 0 -9.28125 
z
" id="DejaVuSans-47"/>
     </defs>
     <use xlink:href="#DejaVuSans-109"/>
     <use x="97.412109" xlink:href="#DejaVuSans-98"/>
     <use x="160.888672" xlink:href="#DejaVuSans-101"/>
     <use x="222.412109" xlink:href="#DejaVuSans-100"/>
     <use x="285.888672" xlink:href="#DejaVuSans-116"/>
     <use x="325.097656" xlink:href="#DejaVuSans-108"/>
     <use x="352.880859" xlink:href="#DejaVuSans-115"/>
     <use x="404.980469" xlink:href="#DejaVuSans-95"/>
     <use x="454.980469" xlink:href="#DejaVuSans-102"/>
     <use x="490.185547" xlink:href="#DejaVuSans-117"/>
     <use x="553.564453" xlink:href="#DejaVuSans-122"/>
     <use x="606.054688" xlink:href="#DejaVuSans-122"/>
     <use x="658.544922" xlink:href="#DejaVuSans-95"/>
     <use x="708.544922" xlink:href="#DejaVuSans-100"/>
     <use x="772.021484" xlink:href="#DejaVuSans-116"/>
     <use x="811.230469" xlink:href="#DejaVuSans-108"/>
     <use x="839.013672" xlink:href="#DejaVuSans-115"/>
     <use x="891.113281" xlink:href="#DejaVuSans-99"/>
     <use x="946.09375" xlink:href="#DejaVuSans-108"/>
     <use x="973.876953" xlink:href="#DejaVuSans-105"/>
     <use x="1001.660156" xlink:href="#DejaVuSans-101"/>
     <use x="1063.183594" xlink:href="#DejaVuSans-110"/>
     <use x="1126.5625" xlink:href="#DejaVuSans-116"/>
     <use x="1165.771484" xlink:href="#DejaVuSans-32"/>
     <use x="1197.558594" xlink:href="#DejaVuSans-40"/>
     <use x="1236.572266" xlink:href="#DejaVuSans-52"/>
     <use x="1300.195312" xlink:href="#DejaVuSans-53"/>
     <use x="1363.818359" xlink:href="#DejaVuSans-109"/>
     <use x="1461.230469" xlink:href="#DejaVuSans-44"/>
     <use x="1493.017578" xlink:href="#DejaVuSans-32"/>
     <use x="1524.804688" xlink:href="#DejaVuSans-49"/>
     <use x="1588.427734" xlink:href="#DejaVuSans-32"/>
     <use x="1620.214844" xlink:href="#DejaVuSans-116"/>
     <use x="1659.423828" xlink:href="#DejaVuSans-114"/>
     <use x="1700.537109" xlink:href="#DejaVuSans-105"/>
     <use x="1728.320312" xlink:href="#DejaVuSans-97"/>
     <use x="1789.599609" xlink:href="#DejaVuSans-108"/>
     <use x="1817.382812" xlink:href="#DejaVuSans-115"/>
     <use x="1869.482422" xlink:href="#DejaVuSans-47"/>
     <use x="1903.173828" xlink:href="#DejaVuSans-102"/>
     <use x="1938.378906" xlink:href="#DejaVuSans-117"/>
     <use x="2001.757812" xlink:href="#DejaVuSans-122"/>
     <use x="2054.248047" xlink:href="#DejaVuSans-122"/>
     <use x="2106.738281" xlink:href="#DejaVuSans-101"/>
     <use x="2168.261719" xlink:href="#DejaVuSans-114"/>
     <use x="2209.375" xlink:href="#DejaVuSans-41"/>
    </g>
   </g>
  </g>
 </g>
 <defs>
  <clipPath id="p8438d47191">
   <rect height="266.112" width="357.12" x="53.328125" y="22.318125"/>
  </clipPath>
 </defs>
</svg>
