<?xml version="1.0" encoding="utf-8" standalone="no"?>
<!DOCTYPE svg PUBLIC "-//W3C//DTD SVG 1.1//EN"
  "http://www.w3.org/Graphics/SVG/1.1/DTD/svg11.dtd">
<!-- Created with matplotlib (https://matplotlib.org/) -->
<svg height="351.576471pt" version="1.1" viewBox="0 0 424.010625 351.576471" width="424.010625pt" xmlns="http://www.w3.org/2000/svg" xmlns:xlink="http://www.w3.org/1999/xlink">
 <metadata>
  <rdf:RDF xmlns:cc="http://creativecommons.org/ns#" xmlns:dc="http://purl.org/dc/elements/1.1/" xmlns:rdf="http://www.w3.org/1999/02/22-rdf-syntax-ns#">
   <cc:Work>
    <dc:type rdf:resource="http://purl.org/dc/dcmitype/StillImage"/>
    <dc:date>2020-10-17T13:32:23.192841</dc:date>
    <dc:format>image/svg+xml</dc:format>
    <dc:creator>
     <cc:Agent>
      <dc:title>Matplotlib v3.3.2, https://matplotlib.org/</dc:title>
     </cc:Agent>
    </dc:creator>
   </cc:Work>
  </rdf:RDF>
 </metadata>
 <defs>
  <style type="text/css">*{stroke-linecap:butt;stroke-linejoin:round;}</style>
 </defs>
 <g id="figure_1">
  <g id="patch_1">
   <path d="M 0 351.576471 
L 424.010625 351.576471 
L 424.010625 0 
L 0 0 
z
" style="fill:#ffffff;"/>
  </g>
  <g id="axes_1">
   <g id="patch_2">
    <path d="M 59.690625 288.430125 
L 416.810625 288.430125 
L 416.810625 22.318125 
L 59.690625 22.318125 
z
" style="fill:#ffffff;"/>
   </g>
   <g id="PolyCollection_1">
    <defs>
     <path d="M 104.46267 -249.403161 
L 104.19858 -249.403161 
L 104.176755 -250.087597 
L 104.152402 -250.772034 
L 104.125435 -251.45647 
L 104.095805 -252.140906 
L 104.063507 -252.825342 
L 104.028583 -253.509779 
L 103.991128 -254.194215 
L 103.951295 -254.878651 
L 103.909298 -255.563087 
L 103.865406 -256.247523 
L 103.819949 -256.93196 
L 103.773307 -257.616396 
L 103.725908 -258.300832 
L 103.678215 -258.985268 
L 103.630718 -259.669704 
L 103.583915 -260.354141 
L 103.538299 -261.038577 
L 103.494342 -261.723013 
L 103.452473 -262.407449 
L 103.413061 -263.091885 
L 103.376397 -263.776322 
L 103.342677 -264.460758 
L 103.311985 -265.145194 
L 103.284282 -265.82963 
L 103.259399 -266.514066 
L 103.237026 -267.198503 
L 103.216716 -267.882939 
L 103.19789 -268.567375 
L 103.179843 -269.251811 
L 103.161759 -269.936248 
L 103.142733 -270.620684 
L 103.121791 -271.30512 
L 103.097921 -271.989556 
L 103.070102 -272.673992 
L 103.037338 -273.358429 
L 102.998691 -274.042865 
L 102.953317 -274.727301 
L 102.9005 -275.411737 
L 102.839681 -276.096173 
L 102.770489 -276.78061 
L 102.692762 -277.465046 
L 102.606566 -278.149482 
L 102.512208 -278.833918 
L 102.410238 -279.518354 
L 102.301449 -280.202791 
L 102.186869 -280.887227 
L 102.067739 -281.571663 
L 101.945491 -282.256099 
L 101.821721 -282.940535 
L 101.698148 -283.624972 
L 101.576578 -284.309408 
L 101.458859 -284.993844 
L 101.346836 -285.67828 
L 101.242309 -286.362717 
L 101.146986 -287.047153 
L 101.062443 -287.731589 
L 100.990088 -288.416025 
L 100.931131 -289.100461 
L 100.886555 -289.784898 
L 100.857099 -290.469334 
L 100.843248 -291.15377 
L 100.845224 -291.838206 
L 100.862994 -292.522642 
L 100.896278 -293.207079 
L 100.944559 -293.891515 
L 101.007112 -294.575951 
L 101.083023 -295.260387 
L 101.171217 -295.944823 
L 101.270491 -296.62926 
L 101.379541 -297.313696 
L 101.496995 -297.998132 
L 101.621442 -298.682568 
L 101.751459 -299.367004 
L 101.885639 -300.051441 
L 102.022613 -300.735877 
L 102.161069 -301.420313 
L 102.299771 -302.104749 
L 102.437568 -302.789185 
L 102.57341 -303.473622 
L 102.706354 -304.158058 
L 102.835564 -304.842494 
L 102.96032 -305.52693 
L 103.080012 -306.211367 
L 103.194145 -306.895803 
L 103.302327 -307.580239 
L 103.404272 -308.264675 
L 103.499791 -308.949111 
L 103.588781 -309.633548 
L 103.671227 -310.317984 
L 103.747185 -311.00242 
L 103.816778 -311.686856 
L 103.880186 -312.371292 
L 103.93764 -313.055729 
L 103.98941 -313.740165 
L 104.035799 -314.424601 
L 104.077133 -315.109037 
L 104.113756 -315.793473 
L 104.146021 -316.47791 
L 104.174285 -317.162346 
L 104.486965 -317.162346 
L 104.486965 -317.162346 
L 104.515229 -316.47791 
L 104.547494 -315.793473 
L 104.584117 -315.109037 
L 104.625451 -314.424601 
L 104.67184 -313.740165 
L 104.72361 -313.055729 
L 104.781064 -312.371292 
L 104.844472 -311.686856 
L 104.914065 -311.00242 
L 104.990023 -310.317984 
L 105.072469 -309.633548 
L 105.161459 -308.949111 
L 105.256978 -308.264675 
L 105.358923 -307.580239 
L 105.467105 -306.895803 
L 105.581238 -306.211367 
L 105.70093 -305.52693 
L 105.825686 -304.842494 
L 105.954896 -304.158058 
L 106.08784 -303.473622 
L 106.223682 -302.789185 
L 106.361479 -302.104749 
L 106.500181 -301.420313 
L 106.638637 -300.735877 
L 106.775611 -300.051441 
L 106.909791 -299.367004 
L 107.039808 -298.682568 
L 107.164255 -297.998132 
L 107.281709 -297.313696 
L 107.390759 -296.62926 
L 107.490033 -295.944823 
L 107.578227 -295.260387 
L 107.654138 -294.575951 
L 107.716691 -293.891515 
L 107.764972 -293.207079 
L 107.798256 -292.522642 
L 107.816026 -291.838206 
L 107.818002 -291.15377 
L 107.804151 -290.469334 
L 107.774695 -289.784898 
L 107.730119 -289.100461 
L 107.671162 -288.416025 
L 107.598807 -287.731589 
L 107.514264 -287.047153 
L 107.418941 -286.362717 
L 107.314414 -285.67828 
L 107.202391 -284.993844 
L 107.084672 -284.309408 
L 106.963102 -283.624972 
L 106.839529 -282.940535 
L 106.715759 -282.256099 
L 106.593511 -281.571663 
L 106.474381 -280.887227 
L 106.359801 -280.202791 
L 106.251012 -279.518354 
L 106.149042 -278.833918 
L 106.054684 -278.149482 
L 105.968488 -277.465046 
L 105.890761 -276.78061 
L 105.821569 -276.096173 
L 105.76075 -275.411737 
L 105.707933 -274.727301 
L 105.662559 -274.042865 
L 105.623912 -273.358429 
L 105.591148 -272.673992 
L 105.563329 -271.989556 
L 105.539459 -271.30512 
L 105.518517 -270.620684 
L 105.499491 -269.936248 
L 105.481407 -269.251811 
L 105.46336 -268.567375 
L 105.444534 -267.882939 
L 105.424224 -267.198503 
L 105.401851 -266.514066 
L 105.376968 -265.82963 
L 105.349265 -265.145194 
L 105.318573 -264.460758 
L 105.284853 -263.776322 
L 105.248189 -263.091885 
L 105.208777 -262.407449 
L 105.166908 -261.723013 
L 105.122951 -261.038577 
L 105.077335 -260.354141 
L 105.030532 -259.669704 
L 104.983035 -258.985268 
L 104.935342 -258.300832 
L 104.887943 -257.616396 
L 104.841301 -256.93196 
L 104.795844 -256.247523 
L 104.751952 -255.563087 
L 104.709955 -254.878651 
L 104.670122 -254.194215 
L 104.632667 -253.509779 
L 104.597743 -252.825342 
L 104.565445 -252.140906 
L 104.535815 -251.45647 
L 104.508848 -250.772034 
L 104.484495 -250.087597 
L 104.46267 -249.403161 
z
" id="m8e14b678a4" style="stroke:#3f3f3f;stroke-width:1.5;"/>
    </defs>
    <g clip-path="url(#pf881d4f284)">
     <use style="fill:#e1812c;stroke:#3f3f3f;stroke-width:1.5;" x="0" xlink:href="#m8e14b678a4" y="351.576471"/>
    </g>
   </g>
   <g id="PolyCollection_2">
    <defs>
     <path d="M 194.595449 -208.878921 
L 192.625801 -208.878921 
L 192.489524 -209.033972 
L 192.339895 -209.189024 
L 192.176505 -209.344075 
L 191.99908 -209.499126 
L 191.8075 -209.654177 
L 191.601822 -209.809228 
L 191.382299 -209.96428 
L 191.149392 -210.119331 
L 190.90379 -210.274382 
L 190.646411 -210.429433 
L 190.378415 -210.584485 
L 190.101195 -210.739536 
L 189.816375 -210.894587 
L 189.525794 -211.049638 
L 189.231488 -211.204689 
L 188.935665 -211.359741 
L 188.640666 -211.514792 
L 188.348934 -211.669843 
L 188.062965 -211.824894 
L 187.78526 -211.979946 
L 187.518273 -212.134997 
L 187.264355 -212.290048 
L 187.0257 -212.445099 
L 186.804288 -212.60015 
L 186.601831 -212.755202 
L 186.419724 -212.910253 
L 186.259002 -213.065304 
L 186.120301 -213.220355 
L 186.003828 -213.375407 
L 185.909341 -213.530458 
L 185.836141 -213.685509 
L 185.783072 -213.84056 
L 185.748534 -213.995611 
L 185.730511 -214.150663 
L 185.726603 -214.305714 
L 185.734075 -214.460765 
L 185.749919 -214.615816 
L 185.770915 -214.770868 
L 185.793705 -214.925919 
L 185.81488 -215.08097 
L 185.831056 -215.236021 
L 185.838962 -215.391072 
L 185.835529 -215.546124 
L 185.817966 -215.701175 
L 185.783842 -215.856226 
L 185.731157 -216.011277 
L 185.658401 -216.166329 
L 185.564605 -216.32138 
L 185.449384 -216.476431 
L 185.312956 -216.631482 
L 185.156157 -216.786533 
L 184.980436 -216.941585 
L 184.787834 -217.096636 
L 184.580952 -217.251687 
L 184.362899 -217.406738 
L 184.137236 -217.56179 
L 183.907899 -217.716841 
L 183.679116 -217.871892 
L 183.455316 -218.026943 
L 183.241037 -218.181994 
L 183.040819 -218.337046 
L 182.859109 -218.492097 
L 182.700163 -218.647148 
L 182.567948 -218.802199 
L 182.466059 -218.957251 
L 182.397644 -219.112302 
L 182.365329 -219.267353 
L 182.371174 -219.422404 
L 182.416628 -219.577455 
L 182.502505 -219.732507 
L 182.628973 -219.887558 
L 182.795565 -220.042609 
L 183.001191 -220.19766 
L 183.244176 -220.352712 
L 183.522307 -220.507763 
L 183.832888 -220.662814 
L 184.172806 -220.817865 
L 184.538604 -220.972916 
L 184.926558 -221.127968 
L 185.332759 -221.283019 
L 185.75319 -221.43807 
L 186.183808 -221.593121 
L 186.620617 -221.748173 
L 187.059737 -221.903224 
L 187.497468 -222.058275 
L 187.930344 -222.213326 
L 188.355178 -222.368378 
L 188.7691 -222.523429 
L 189.169581 -222.67848 
L 189.554455 -222.833531 
L 189.921922 -222.988582 
L 190.270549 -223.143634 
L 190.599264 -223.298685 
L 190.907339 -223.453736 
L 191.194369 -223.608787 
L 191.460246 -223.763839 
L 191.705131 -223.91889 
L 191.929423 -224.073941 
L 192.133723 -224.228992 
L 195.087527 -224.228992 
L 195.087527 -224.228992 
L 195.291827 -224.073941 
L 195.516119 -223.91889 
L 195.761004 -223.763839 
L 196.026881 -223.608787 
L 196.313911 -223.453736 
L 196.621986 -223.298685 
L 196.950701 -223.143634 
L 197.299328 -222.988582 
L 197.666795 -222.833531 
L 198.051669 -222.67848 
L 198.45215 -222.523429 
L 198.866072 -222.368378 
L 199.290906 -222.213326 
L 199.723782 -222.058275 
L 200.161513 -221.903224 
L 200.600633 -221.748173 
L 201.037442 -221.593121 
L 201.46806 -221.43807 
L 201.888491 -221.283019 
L 202.294692 -221.127968 
L 202.682646 -220.972916 
L 203.048444 -220.817865 
L 203.388362 -220.662814 
L 203.698943 -220.507763 
L 203.977074 -220.352712 
L 204.220059 -220.19766 
L 204.425685 -220.042609 
L 204.592277 -219.887558 
L 204.718745 -219.732507 
L 204.804622 -219.577455 
L 204.850076 -219.422404 
L 204.855921 -219.267353 
L 204.823606 -219.112302 
L 204.755191 -218.957251 
L 204.653302 -218.802199 
L 204.521087 -218.647148 
L 204.362141 -218.492097 
L 204.180431 -218.337046 
L 203.980213 -218.181994 
L 203.765934 -218.026943 
L 203.542134 -217.871892 
L 203.313351 -217.716841 
L 203.084014 -217.56179 
L 202.858351 -217.406738 
L 202.640298 -217.251687 
L 202.433416 -217.096636 
L 202.240814 -216.941585 
L 202.065093 -216.786533 
L 201.908294 -216.631482 
L 201.771866 -216.476431 
L 201.656645 -216.32138 
L 201.562849 -216.166329 
L 201.490093 -216.011277 
L 201.437408 -215.856226 
L 201.403284 -215.701175 
L 201.385721 -215.546124 
L 201.382288 -215.391072 
L 201.390194 -215.236021 
L 201.40637 -215.08097 
L 201.427545 -214.925919 
L 201.450335 -214.770868 
L 201.471331 -214.615816 
L 201.487175 -214.460765 
L 201.494647 -214.305714 
L 201.490739 -214.150663 
L 201.472716 -213.995611 
L 201.438178 -213.84056 
L 201.385109 -213.685509 
L 201.311909 -213.530458 
L 201.217422 -213.375407 
L 201.100949 -213.220355 
L 200.962248 -213.065304 
L 200.801526 -212.910253 
L 200.619419 -212.755202 
L 200.416962 -212.60015 
L 200.19555 -212.445099 
L 199.956895 -212.290048 
L 199.702977 -212.134997 
L 199.43599 -211.979946 
L 199.158285 -211.824894 
L 198.872316 -211.669843 
L 198.580584 -211.514792 
L 198.285585 -211.359741 
L 197.989762 -211.204689 
L 197.695456 -211.049638 
L 197.404875 -210.894587 
L 197.120055 -210.739536 
L 196.842835 -210.584485 
L 196.574839 -210.429433 
L 196.31746 -210.274382 
L 196.071858 -210.119331 
L 195.838951 -209.96428 
L 195.619428 -209.809228 
L 195.41375 -209.654177 
L 195.22217 -209.499126 
L 195.044745 -209.344075 
L 194.881355 -209.189024 
L 194.731726 -209.033972 
L 194.595449 -208.878921 
z
" id="mc9057d57a3" style="stroke:#3f3f3f;stroke-width:1.5;"/>
    </defs>
    <g clip-path="url(#pf881d4f284)">
     <use style="fill:#3274a1;stroke:#3f3f3f;stroke-width:1.5;" x="0" xlink:href="#mc9057d57a3" y="351.576471"/>
    </g>
   </g>
   <g id="PolyCollection_3">
    <defs>
     <path d="M 282.99397 -139.141777 
L 282.78728 -139.141777 
L 282.770798 -140.555876 
L 282.752409 -141.969974 
L 282.732025 -143.384072 
L 282.709578 -144.798171 
L 282.685022 -146.212269 
L 282.658339 -147.626367 
L 282.629541 -149.040466 
L 282.598677 -150.454564 
L 282.565829 -151.868662 
L 282.531119 -153.282761 
L 282.494711 -154.696859 
L 282.456805 -156.110957 
L 282.417639 -157.525056 
L 282.377487 -158.939154 
L 282.336653 -160.353253 
L 282.295468 -161.767351 
L 282.254279 -163.181449 
L 282.213447 -164.595548 
L 282.173335 -166.009646 
L 282.1343 -167.423744 
L 282.096682 -168.837843 
L 282.060799 -170.251941 
L 282.026931 -171.666039 
L 281.995319 -173.080138 
L 281.966152 -174.494236 
L 281.939565 -175.908334 
L 281.915633 -177.322433 
L 281.894367 -178.736531 
L 281.875717 -180.15063 
L 281.859572 -181.564728 
L 281.845766 -182.978826 
L 281.834081 -184.392925 
L 281.824255 -185.807023 
L 281.815995 -187.221121 
L 281.808987 -188.63522 
L 281.802902 -190.049318 
L 281.797416 -191.463416 
L 281.792216 -192.877515 
L 281.787016 -194.291613 
L 281.781563 -195.705711 
L 281.775651 -197.11981 
L 281.769123 -198.533908 
L 281.761882 -199.948007 
L 281.753892 -201.362105 
L 281.745177 -202.776203 
L 281.735825 -204.190302 
L 281.725978 -205.6044 
L 281.715835 -207.018498 
L 281.705636 -208.432597 
L 281.695663 -209.846695 
L 281.686221 -211.260793 
L 281.677636 -212.674892 
L 281.67024 -214.08899 
L 281.664364 -215.503088 
L 281.660322 -216.917187 
L 281.658412 -218.331285 
L 281.658898 -219.745384 
L 281.662011 -221.159482 
L 281.667937 -222.57358 
L 281.676821 -223.987679 
L 281.688756 -225.401777 
L 281.70379 -226.815875 
L 281.721921 -228.229974 
L 281.743102 -229.644072 
L 281.76724 -231.05817 
L 281.794204 -232.472269 
L 281.823824 -233.886367 
L 281.855902 -235.300465 
L 281.890211 -236.714564 
L 281.926502 -238.128662 
L 281.964509 -239.542761 
L 282.003957 -240.956859 
L 282.04456 -242.370957 
L 282.086032 -243.785056 
L 282.128086 -245.199154 
L 282.170443 -246.613252 
L 282.212828 -248.027351 
L 282.254981 -249.441449 
L 282.296655 -250.855547 
L 282.337619 -252.269646 
L 282.377659 -253.683744 
L 282.416583 -255.097842 
L 282.454219 -256.511941 
L 282.490416 -257.926039 
L 282.525047 -259.340138 
L 282.558007 -260.754236 
L 282.589215 -262.168334 
L 282.618611 -263.582433 
L 282.646157 -264.996531 
L 282.671837 -266.410629 
L 282.695652 -267.824728 
L 282.717624 -269.238826 
L 282.73779 -270.652924 
L 282.756202 -272.067023 
L 282.772924 -273.481121 
L 282.788031 -274.895219 
L 282.801607 -276.309318 
L 282.813742 -277.723416 
L 282.824532 -279.137515 
L 282.956718 -279.137515 
L 282.956718 -279.137515 
L 282.967508 -277.723416 
L 282.979643 -276.309318 
L 282.993219 -274.895219 
L 283.008326 -273.481121 
L 283.025048 -272.067023 
L 283.04346 -270.652924 
L 283.063626 -269.238826 
L 283.085598 -267.824728 
L 283.109413 -266.410629 
L 283.135093 -264.996531 
L 283.162639 -263.582433 
L 283.192035 -262.168334 
L 283.223243 -260.754236 
L 283.256203 -259.340138 
L 283.290834 -257.926039 
L 283.327031 -256.511941 
L 283.364667 -255.097842 
L 283.403591 -253.683744 
L 283.443631 -252.269646 
L 283.484595 -250.855547 
L 283.526269 -249.441449 
L 283.568422 -248.027351 
L 283.610807 -246.613252 
L 283.653164 -245.199154 
L 283.695218 -243.785056 
L 283.73669 -242.370957 
L 283.777293 -240.956859 
L 283.816741 -239.542761 
L 283.854748 -238.128662 
L 283.891039 -236.714564 
L 283.925348 -235.300465 
L 283.957426 -233.886367 
L 283.987046 -232.472269 
L 284.01401 -231.05817 
L 284.038148 -229.644072 
L 284.059329 -228.229974 
L 284.07746 -226.815875 
L 284.092494 -225.401777 
L 284.104429 -223.987679 
L 284.113313 -222.57358 
L 284.119239 -221.159482 
L 284.122352 -219.745384 
L 284.122838 -218.331285 
L 284.120928 -216.917187 
L 284.116886 -215.503088 
L 284.11101 -214.08899 
L 284.103614 -212.674892 
L 284.095029 -211.260793 
L 284.085587 -209.846695 
L 284.075614 -208.432597 
L 284.065415 -207.018498 
L 284.055272 -205.6044 
L 284.045425 -204.190302 
L 284.036073 -202.776203 
L 284.027358 -201.362105 
L 284.019368 -199.948007 
L 284.012127 -198.533908 
L 284.005599 -197.11981 
L 283.999687 -195.705711 
L 283.994234 -194.291613 
L 283.989034 -192.877515 
L 283.983834 -191.463416 
L 283.978348 -190.049318 
L 283.972263 -188.63522 
L 283.965255 -187.221121 
L 283.956995 -185.807023 
L 283.947169 -184.392925 
L 283.935484 -182.978826 
L 283.921678 -181.564728 
L 283.905533 -180.15063 
L 283.886883 -178.736531 
L 283.865617 -177.322433 
L 283.841685 -175.908334 
L 283.815098 -174.494236 
L 283.785931 -173.080138 
L 283.754319 -171.666039 
L 283.720451 -170.251941 
L 283.684568 -168.837843 
L 283.64695 -167.423744 
L 283.607915 -166.009646 
L 283.567803 -164.595548 
L 283.526971 -163.181449 
L 283.485782 -161.767351 
L 283.444597 -160.353253 
L 283.403763 -158.939154 
L 283.363611 -157.525056 
L 283.324445 -156.110957 
L 283.286539 -154.696859 
L 283.250131 -153.282761 
L 283.215421 -151.868662 
L 283.182573 -150.454564 
L 283.151709 -149.040466 
L 283.122911 -147.626367 
L 283.096228 -146.212269 
L 283.071672 -144.798171 
L 283.049225 -143.384072 
L 283.028841 -141.969974 
L 283.010452 -140.555876 
L 282.99397 -139.141777 
z
" id="m5d000958a6" style="stroke:#3f3f3f;stroke-width:1.5;"/>
    </defs>
    <g clip-path="url(#pf881d4f284)">
     <use style="fill:#c7c7c7;stroke:#3f3f3f;stroke-width:1.5;" x="0" xlink:href="#m5d000958a6" y="351.576471"/>
    </g>
   </g>
   <g id="PolyCollection_4">
    <defs>
     <path d="M 376.993316 -75.242346 
L 367.347934 -75.242346 
L 366.62002 -75.311142 
L 365.814873 -75.379939 
L 364.930113 -75.448736 
L 363.964324 -75.517532 
L 362.917224 -75.586329 
L 361.789816 -75.655125 
L 360.584533 -75.723922 
L 359.305358 -75.792718 
L 357.957919 -75.861515 
L 356.549545 -75.930312 
L 355.089292 -75.999108 
L 353.587911 -76.067905 
L 352.057781 -76.136701 
L 350.512788 -76.205498 
L 348.968147 -76.274294 
L 347.440183 -76.343091 
L 345.946065 -76.411888 
L 344.503488 -76.480684 
L 343.13034 -76.549481 
L 341.844323 -76.618277 
L 340.662578 -76.687074 
L 339.601286 -76.75587 
L 338.675297 -76.824667 
L 337.897762 -76.893464 
L 337.279807 -76.96226 
L 336.830243 -77.031057 
L 336.555335 -77.099853 
L 336.458625 -77.16865 
L 336.540827 -77.237447 
L 336.799788 -77.306243 
L 337.230527 -77.37504 
L 337.825335 -77.443836 
L 338.573959 -77.512633 
L 339.463826 -77.581429 
L 340.480343 -77.650226 
L 341.607225 -77.719023 
L 342.826864 -77.787819 
L 344.120724 -77.856616 
L 345.469737 -77.925412 
L 346.854705 -77.994209 
L 348.256692 -78.063005 
L 349.657388 -78.131802 
L 351.039445 -78.200599 
L 352.386775 -78.269395 
L 353.684807 -78.338192 
L 354.92069 -78.406988 
L 356.083454 -78.475785 
L 357.164116 -78.544581 
L 358.155735 -78.613378 
L 359.053428 -78.682175 
L 359.854332 -78.750971 
L 360.557534 -78.819768 
L 361.163963 -78.888564 
L 361.67625 -78.957361 
L 362.098569 -79.026157 
L 362.436452 -79.094954 
L 362.696592 -79.163751 
L 362.886641 -79.232547 
L 363.014995 -79.301344 
L 363.090584 -79.37014 
L 363.122663 -79.438937 
L 363.120609 -79.507733 
L 363.093733 -79.57653 
L 363.051094 -79.645327 
L 363.001339 -79.714123 
L 362.952556 -79.78292 
L 362.912144 -79.851716 
L 362.886709 -79.920513 
L 362.881975 -79.989309 
L 362.902727 -80.058106 
L 362.952767 -80.126903 
L 363.034901 -80.195699 
L 363.150945 -80.264496 
L 363.301748 -80.333292 
L 363.487247 -80.402089 
L 363.706526 -80.470885 
L 363.957898 -80.539682 
L 364.239 -80.608479 
L 364.546895 -80.677275 
L 364.878182 -80.746072 
L 365.229109 -80.814868 
L 365.595686 -80.883665 
L 365.973798 -80.952462 
L 366.35931 -81.021258 
L 366.74816 -81.090055 
L 367.136452 -81.158851 
L 367.520529 -81.227648 
L 367.897036 -81.296444 
L 368.262967 -81.365241 
L 368.615706 -81.434038 
L 368.953044 -81.502834 
L 369.273189 -81.571631 
L 369.574767 -81.640427 
L 369.856806 -81.709224 
L 370.118716 -81.77802 
L 370.360261 -81.846817 
L 370.581521 -81.915614 
L 370.782857 -81.98441 
L 370.964871 -82.053207 
L 373.376379 -82.053207 
L 373.376379 -82.053207 
L 373.558393 -81.98441 
L 373.759729 -81.915614 
L 373.980989 -81.846817 
L 374.222534 -81.77802 
L 374.484444 -81.709224 
L 374.766483 -81.640427 
L 375.068061 -81.571631 
L 375.388206 -81.502834 
L 375.725544 -81.434038 
L 376.078283 -81.365241 
L 376.444214 -81.296444 
L 376.820721 -81.227648 
L 377.204798 -81.158851 
L 377.59309 -81.090055 
L 377.98194 -81.021258 
L 378.367452 -80.952462 
L 378.745564 -80.883665 
L 379.112141 -80.814868 
L 379.463068 -80.746072 
L 379.794355 -80.677275 
L 380.10225 -80.608479 
L 380.383352 -80.539682 
L 380.634724 -80.470885 
L 380.854003 -80.402089 
L 381.039502 -80.333292 
L 381.190305 -80.264496 
L 381.306349 -80.195699 
L 381.388483 -80.126903 
L 381.438523 -80.058106 
L 381.459275 -79.989309 
L 381.454541 -79.920513 
L 381.429106 -79.851716 
L 381.388694 -79.78292 
L 381.339911 -79.714123 
L 381.290156 -79.645327 
L 381.247517 -79.57653 
L 381.220641 -79.507733 
L 381.218587 -79.438937 
L 381.250666 -79.37014 
L 381.326255 -79.301344 
L 381.454609 -79.232547 
L 381.644658 -79.163751 
L 381.904798 -79.094954 
L 382.242681 -79.026157 
L 382.665 -78.957361 
L 383.177287 -78.888564 
L 383.783716 -78.819768 
L 384.486918 -78.750971 
L 385.287822 -78.682175 
L 386.185515 -78.613378 
L 387.177134 -78.544581 
L 388.257796 -78.475785 
L 389.42056 -78.406988 
L 390.656443 -78.338192 
L 391.954475 -78.269395 
L 393.301805 -78.200599 
L 394.683862 -78.131802 
L 396.084558 -78.063005 
L 397.486545 -77.994209 
L 398.871513 -77.925412 
L 400.220526 -77.856616 
L 401.514386 -77.787819 
L 402.734025 -77.719023 
L 403.860907 -77.650226 
L 404.877424 -77.581429 
L 405.767291 -77.512633 
L 406.515915 -77.443836 
L 407.110723 -77.37504 
L 407.541462 -77.306243 
L 407.800423 -77.237447 
L 407.882625 -77.16865 
L 407.785915 -77.099853 
L 407.511007 -77.031057 
L 407.061443 -76.96226 
L 406.443488 -76.893464 
L 405.665953 -76.824667 
L 404.739964 -76.75587 
L 403.678672 -76.687074 
L 402.496927 -76.618277 
L 401.21091 -76.549481 
L 399.837762 -76.480684 
L 398.395185 -76.411888 
L 396.901067 -76.343091 
L 395.373103 -76.274294 
L 393.828462 -76.205498 
L 392.283469 -76.136701 
L 390.753339 -76.067905 
L 389.251958 -75.999108 
L 387.791705 -75.930312 
L 386.383331 -75.861515 
L 385.035892 -75.792718 
L 383.756717 -75.723922 
L 382.551434 -75.655125 
L 381.424026 -75.586329 
L 380.376926 -75.517532 
L 379.411137 -75.448736 
L 378.526377 -75.379939 
L 377.72123 -75.311142 
L 376.993316 -75.242346 
z
" id="mc3fd2a0140" style="stroke:#3f3f3f;stroke-width:1.5;"/>
    </defs>
    <g clip-path="url(#pf881d4f284)">
     <use style="fill:#9fd495;stroke:#3f3f3f;stroke-width:1.5;" x="0" xlink:href="#mc3fd2a0140" y="351.576471"/>
    </g>
   </g>
   <g id="matplotlib.axis_1">
    <g id="xtick_1">
     <g id="line2d_1">
      <defs>
       <path d="M 0 0 
L 0 3.5 
" id="mf92caee445" style="stroke:#000000;stroke-width:0.8;"/>
      </defs>
      <g>
       <use style="stroke:#000000;stroke-width:0.8;" x="104.330625" xlink:href="#mf92caee445" y="288.430125"/>
      </g>
     </g>
     <g id="text_1">
      <!-- libfuzzer -->
      <g transform="translate(66.464404 323.272284)rotate(-30)scale(0.1 -0.1)">
       <defs>
        <path d="M 9.421875 75.984375 
L 18.40625 75.984375 
L 18.40625 0 
L 9.421875 0 
z
" id="DejaVuSans-108"/>
        <path d="M 9.421875 54.6875 
L 18.40625 54.6875 
L 18.40625 0 
L 9.421875 0 
z
M 9.421875 75.984375 
L 18.40625 75.984375 
L 18.40625 64.59375 
L 9.421875 64.59375 
z
" id="DejaVuSans-105"/>
        <path d="M 48.6875 27.296875 
Q 48.6875 37.203125 44.609375 42.84375 
Q 40.53125 48.484375 33.40625 48.484375 
Q 26.265625 48.484375 22.1875 42.84375 
Q 18.109375 37.203125 18.109375 27.296875 
Q 18.109375 17.390625 22.1875 11.75 
Q 26.265625 6.109375 33.40625 6.109375 
Q 40.53125 6.109375 44.609375 11.75 
Q 48.6875 17.390625 48.6875 27.296875 
z
M 18.109375 46.390625 
Q 20.953125 51.265625 25.265625 53.625 
Q 29.59375 56 35.59375 56 
Q 45.5625 56 51.78125 48.09375 
Q 58.015625 40.1875 58.015625 27.296875 
Q 58.015625 14.40625 51.78125 6.484375 
Q 45.5625 -1.421875 35.59375 -1.421875 
Q 29.59375 -1.421875 25.265625 0.953125 
Q 20.953125 3.328125 18.109375 8.203125 
L 18.109375 0 
L 9.078125 0 
L 9.078125 75.984375 
L 18.109375 75.984375 
z
" id="DejaVuSans-98"/>
        <path d="M 37.109375 75.984375 
L 37.109375 68.5 
L 28.515625 68.5 
Q 23.6875 68.5 21.796875 66.546875 
Q 19.921875 64.59375 19.921875 59.515625 
L 19.921875 54.6875 
L 34.71875 54.6875 
L 34.71875 47.703125 
L 19.921875 47.703125 
L 19.921875 0 
L 10.890625 0 
L 10.890625 47.703125 
L 2.296875 47.703125 
L 2.296875 54.6875 
L 10.890625 54.6875 
L 10.890625 58.5 
Q 10.890625 67.625 15.140625 71.796875 
Q 19.390625 75.984375 28.609375 75.984375 
z
" id="DejaVuSans-102"/>
        <path d="M 8.5 21.578125 
L 8.5 54.6875 
L 17.484375 54.6875 
L 17.484375 21.921875 
Q 17.484375 14.15625 20.5 10.265625 
Q 23.53125 6.390625 29.59375 6.390625 
Q 36.859375 6.390625 41.078125 11.03125 
Q 45.3125 15.671875 45.3125 23.6875 
L 45.3125 54.6875 
L 54.296875 54.6875 
L 54.296875 0 
L 45.3125 0 
L 45.3125 8.40625 
Q 42.046875 3.421875 37.71875 1 
Q 33.40625 -1.421875 27.6875 -1.421875 
Q 18.265625 -1.421875 13.375 4.4375 
Q 8.5 10.296875 8.5 21.578125 
z
M 31.109375 56 
z
" id="DejaVuSans-117"/>
        <path d="M 5.515625 54.6875 
L 48.1875 54.6875 
L 48.1875 46.484375 
L 14.40625 7.171875 
L 48.1875 7.171875 
L 48.1875 0 
L 4.296875 0 
L 4.296875 8.203125 
L 38.09375 47.515625 
L 5.515625 47.515625 
z
" id="DejaVuSans-122"/>
        <path d="M 56.203125 29.59375 
L 56.203125 25.203125 
L 14.890625 25.203125 
Q 15.484375 15.921875 20.484375 11.0625 
Q 25.484375 6.203125 34.421875 6.203125 
Q 39.59375 6.203125 44.453125 7.46875 
Q 49.3125 8.734375 54.109375 11.28125 
L 54.109375 2.78125 
Q 49.265625 0.734375 44.1875 -0.34375 
Q 39.109375 -1.421875 33.890625 -1.421875 
Q 20.796875 -1.421875 13.15625 6.1875 
Q 5.515625 13.8125 5.515625 26.8125 
Q 5.515625 40.234375 12.765625 48.109375 
Q 20.015625 56 32.328125 56 
Q 43.359375 56 49.78125 48.890625 
Q 56.203125 41.796875 56.203125 29.59375 
z
M 47.21875 32.234375 
Q 47.125 39.59375 43.09375 43.984375 
Q 39.0625 48.390625 32.421875 48.390625 
Q 24.90625 48.390625 20.390625 44.140625 
Q 15.875 39.890625 15.1875 32.171875 
z
" id="DejaVuSans-101"/>
        <path d="M 41.109375 46.296875 
Q 39.59375 47.171875 37.8125 47.578125 
Q 36.03125 48 33.890625 48 
Q 26.265625 48 22.1875 43.046875 
Q 18.109375 38.09375 18.109375 28.8125 
L 18.109375 0 
L 9.078125 0 
L 9.078125 54.6875 
L 18.109375 54.6875 
L 18.109375 46.1875 
Q 20.953125 51.171875 25.484375 53.578125 
Q 30.03125 56 36.53125 56 
Q 37.453125 56 38.578125 55.875 
Q 39.703125 55.765625 41.0625 55.515625 
z
" id="DejaVuSans-114"/>
       </defs>
       <use xlink:href="#DejaVuSans-108"/>
       <use x="27.783203" xlink:href="#DejaVuSans-105"/>
       <use x="55.566406" xlink:href="#DejaVuSans-98"/>
       <use x="119.042969" xlink:href="#DejaVuSans-102"/>
       <use x="154.248047" xlink:href="#DejaVuSans-117"/>
       <use x="217.626953" xlink:href="#DejaVuSans-122"/>
       <use x="270.117188" xlink:href="#DejaVuSans-122"/>
       <use x="322.607422" xlink:href="#DejaVuSans-101"/>
       <use x="384.130859" xlink:href="#DejaVuSans-114"/>
      </g>
     </g>
    </g>
    <g id="xtick_2">
     <g id="line2d_2">
      <g>
       <use style="stroke:#000000;stroke-width:0.8;" x="193.610625" xlink:href="#mf92caee445" y="288.430125"/>
      </g>
     </g>
     <g id="text_2">
      <!-- aflplusplus -->
      <g transform="translate(146.001618 328.897284)rotate(-30)scale(0.1 -0.1)">
       <defs>
        <path d="M 34.28125 27.484375 
Q 23.390625 27.484375 19.1875 25 
Q 14.984375 22.515625 14.984375 16.5 
Q 14.984375 11.71875 18.140625 8.90625 
Q 21.296875 6.109375 26.703125 6.109375 
Q 34.1875 6.109375 38.703125 11.40625 
Q 43.21875 16.703125 43.21875 25.484375 
L 43.21875 27.484375 
z
M 52.203125 31.203125 
L 52.203125 0 
L 43.21875 0 
L 43.21875 8.296875 
Q 40.140625 3.328125 35.546875 0.953125 
Q 30.953125 -1.421875 24.3125 -1.421875 
Q 15.921875 -1.421875 10.953125 3.296875 
Q 6 8.015625 6 15.921875 
Q 6 25.140625 12.171875 29.828125 
Q 18.359375 34.515625 30.609375 34.515625 
L 43.21875 34.515625 
L 43.21875 35.40625 
Q 43.21875 41.609375 39.140625 45 
Q 35.0625 48.390625 27.6875 48.390625 
Q 23 48.390625 18.546875 47.265625 
Q 14.109375 46.140625 10.015625 43.890625 
L 10.015625 52.203125 
Q 14.9375 54.109375 19.578125 55.046875 
Q 24.21875 56 28.609375 56 
Q 40.484375 56 46.34375 49.84375 
Q 52.203125 43.703125 52.203125 31.203125 
z
" id="DejaVuSans-97"/>
        <path d="M 18.109375 8.203125 
L 18.109375 -20.796875 
L 9.078125 -20.796875 
L 9.078125 54.6875 
L 18.109375 54.6875 
L 18.109375 46.390625 
Q 20.953125 51.265625 25.265625 53.625 
Q 29.59375 56 35.59375 56 
Q 45.5625 56 51.78125 48.09375 
Q 58.015625 40.1875 58.015625 27.296875 
Q 58.015625 14.40625 51.78125 6.484375 
Q 45.5625 -1.421875 35.59375 -1.421875 
Q 29.59375 -1.421875 25.265625 0.953125 
Q 20.953125 3.328125 18.109375 8.203125 
z
M 48.6875 27.296875 
Q 48.6875 37.203125 44.609375 42.84375 
Q 40.53125 48.484375 33.40625 48.484375 
Q 26.265625 48.484375 22.1875 42.84375 
Q 18.109375 37.203125 18.109375 27.296875 
Q 18.109375 17.390625 22.1875 11.75 
Q 26.265625 6.109375 33.40625 6.109375 
Q 40.53125 6.109375 44.609375 11.75 
Q 48.6875 17.390625 48.6875 27.296875 
z
" id="DejaVuSans-112"/>
        <path d="M 44.28125 53.078125 
L 44.28125 44.578125 
Q 40.484375 46.53125 36.375 47.5 
Q 32.28125 48.484375 27.875 48.484375 
Q 21.1875 48.484375 17.84375 46.4375 
Q 14.5 44.390625 14.5 40.28125 
Q 14.5 37.15625 16.890625 35.375 
Q 19.28125 33.59375 26.515625 31.984375 
L 29.59375 31.296875 
Q 39.15625 29.25 43.1875 25.515625 
Q 47.21875 21.78125 47.21875 15.09375 
Q 47.21875 7.46875 41.1875 3.015625 
Q 35.15625 -1.421875 24.609375 -1.421875 
Q 20.21875 -1.421875 15.453125 -0.5625 
Q 10.6875 0.296875 5.421875 2 
L 5.421875 11.28125 
Q 10.40625 8.6875 15.234375 7.390625 
Q 20.0625 6.109375 24.8125 6.109375 
Q 31.15625 6.109375 34.5625 8.28125 
Q 37.984375 10.453125 37.984375 14.40625 
Q 37.984375 18.0625 35.515625 20.015625 
Q 33.0625 21.96875 24.703125 23.78125 
L 21.578125 24.515625 
Q 13.234375 26.265625 9.515625 29.90625 
Q 5.8125 33.546875 5.8125 39.890625 
Q 5.8125 47.609375 11.28125 51.796875 
Q 16.75 56 26.8125 56 
Q 31.78125 56 36.171875 55.265625 
Q 40.578125 54.546875 44.28125 53.078125 
z
" id="DejaVuSans-115"/>
       </defs>
       <use xlink:href="#DejaVuSans-97"/>
       <use x="61.279297" xlink:href="#DejaVuSans-102"/>
       <use x="96.484375" xlink:href="#DejaVuSans-108"/>
       <use x="124.267578" xlink:href="#DejaVuSans-112"/>
       <use x="187.744141" xlink:href="#DejaVuSans-108"/>
       <use x="215.527344" xlink:href="#DejaVuSans-117"/>
       <use x="278.90625" xlink:href="#DejaVuSans-115"/>
       <use x="331.005859" xlink:href="#DejaVuSans-112"/>
       <use x="394.482422" xlink:href="#DejaVuSans-108"/>
       <use x="422.265625" xlink:href="#DejaVuSans-117"/>
       <use x="485.644531" xlink:href="#DejaVuSans-115"/>
      </g>
     </g>
    </g>
    <g id="xtick_3">
     <g id="line2d_3">
      <g>
       <use style="stroke:#000000;stroke-width:0.8;" x="282.890625" xlink:href="#mf92caee445" y="288.430125"/>
      </g>
     </g>
     <g id="text_3">
      <!-- lafintel -->
      <g transform="translate(252.06492 319.20744)rotate(-30)scale(0.1 -0.1)">
       <defs>
        <path d="M 54.890625 33.015625 
L 54.890625 0 
L 45.90625 0 
L 45.90625 32.71875 
Q 45.90625 40.484375 42.875 44.328125 
Q 39.84375 48.1875 33.796875 48.1875 
Q 26.515625 48.1875 22.3125 43.546875 
Q 18.109375 38.921875 18.109375 30.90625 
L 18.109375 0 
L 9.078125 0 
L 9.078125 54.6875 
L 18.109375 54.6875 
L 18.109375 46.1875 
Q 21.34375 51.125 25.703125 53.5625 
Q 30.078125 56 35.796875 56 
Q 45.21875 56 50.046875 50.171875 
Q 54.890625 44.34375 54.890625 33.015625 
z
" id="DejaVuSans-110"/>
        <path d="M 18.3125 70.21875 
L 18.3125 54.6875 
L 36.8125 54.6875 
L 36.8125 47.703125 
L 18.3125 47.703125 
L 18.3125 18.015625 
Q 18.3125 11.328125 20.140625 9.421875 
Q 21.96875 7.515625 27.59375 7.515625 
L 36.8125 7.515625 
L 36.8125 0 
L 27.59375 0 
Q 17.1875 0 13.234375 3.875 
Q 9.28125 7.765625 9.28125 18.015625 
L 9.28125 47.703125 
L 2.6875 47.703125 
L 2.6875 54.6875 
L 9.28125 54.6875 
L 9.28125 70.21875 
z
" id="DejaVuSans-116"/>
       </defs>
       <use xlink:href="#DejaVuSans-108"/>
       <use x="27.783203" xlink:href="#DejaVuSans-97"/>
       <use x="89.0625" xlink:href="#DejaVuSans-102"/>
       <use x="124.267578" xlink:href="#DejaVuSans-105"/>
       <use x="152.050781" xlink:href="#DejaVuSans-110"/>
       <use x="215.429688" xlink:href="#DejaVuSans-116"/>
       <use x="254.638672" xlink:href="#DejaVuSans-101"/>
       <use x="316.162109" xlink:href="#DejaVuSans-108"/>
      </g>
     </g>
    </g>
    <g id="xtick_4">
     <g id="line2d_4">
      <g>
       <use style="stroke:#000000;stroke-width:0.8;" x="372.170625" xlink:href="#mf92caee445" y="288.430125"/>
      </g>
     </g>
     <g id="text_4">
      <!-- honggfuzz -->
      <g transform="translate(326.231424 327.933221)rotate(-30)scale(0.1 -0.1)">
       <defs>
        <path d="M 54.890625 33.015625 
L 54.890625 0 
L 45.90625 0 
L 45.90625 32.71875 
Q 45.90625 40.484375 42.875 44.328125 
Q 39.84375 48.1875 33.796875 48.1875 
Q 26.515625 48.1875 22.3125 43.546875 
Q 18.109375 38.921875 18.109375 30.90625 
L 18.109375 0 
L 9.078125 0 
L 9.078125 75.984375 
L 18.109375 75.984375 
L 18.109375 46.1875 
Q 21.34375 51.125 25.703125 53.5625 
Q 30.078125 56 35.796875 56 
Q 45.21875 56 50.046875 50.171875 
Q 54.890625 44.34375 54.890625 33.015625 
z
" id="DejaVuSans-104"/>
        <path d="M 30.609375 48.390625 
Q 23.390625 48.390625 19.1875 42.75 
Q 14.984375 37.109375 14.984375 27.296875 
Q 14.984375 17.484375 19.15625 11.84375 
Q 23.34375 6.203125 30.609375 6.203125 
Q 37.796875 6.203125 41.984375 11.859375 
Q 46.1875 17.53125 46.1875 27.296875 
Q 46.1875 37.015625 41.984375 42.703125 
Q 37.796875 48.390625 30.609375 48.390625 
z
M 30.609375 56 
Q 42.328125 56 49.015625 48.375 
Q 55.71875 40.765625 55.71875 27.296875 
Q 55.71875 13.875 49.015625 6.21875 
Q 42.328125 -1.421875 30.609375 -1.421875 
Q 18.84375 -1.421875 12.171875 6.21875 
Q 5.515625 13.875 5.515625 27.296875 
Q 5.515625 40.765625 12.171875 48.375 
Q 18.84375 56 30.609375 56 
z
" id="DejaVuSans-111"/>
        <path d="M 45.40625 27.984375 
Q 45.40625 37.75 41.375 43.109375 
Q 37.359375 48.484375 30.078125 48.484375 
Q 22.859375 48.484375 18.828125 43.109375 
Q 14.796875 37.75 14.796875 27.984375 
Q 14.796875 18.265625 18.828125 12.890625 
Q 22.859375 7.515625 30.078125 7.515625 
Q 37.359375 7.515625 41.375 12.890625 
Q 45.40625 18.265625 45.40625 27.984375 
z
M 54.390625 6.78125 
Q 54.390625 -7.171875 48.1875 -13.984375 
Q 42 -20.796875 29.203125 -20.796875 
Q 24.46875 -20.796875 20.265625 -20.09375 
Q 16.0625 -19.390625 12.109375 -17.921875 
L 12.109375 -9.1875 
Q 16.0625 -11.328125 19.921875 -12.34375 
Q 23.78125 -13.375 27.78125 -13.375 
Q 36.625 -13.375 41.015625 -8.765625 
Q 45.40625 -4.15625 45.40625 5.171875 
L 45.40625 9.625 
Q 42.625 4.78125 38.28125 2.390625 
Q 33.9375 0 27.875 0 
Q 17.828125 0 11.671875 7.65625 
Q 5.515625 15.328125 5.515625 27.984375 
Q 5.515625 40.671875 11.671875 48.328125 
Q 17.828125 56 27.875 56 
Q 33.9375 56 38.28125 53.609375 
Q 42.625 51.21875 45.40625 46.390625 
L 45.40625 54.6875 
L 54.390625 54.6875 
z
" id="DejaVuSans-103"/>
       </defs>
       <use xlink:href="#DejaVuSans-104"/>
       <use x="63.378906" xlink:href="#DejaVuSans-111"/>
       <use x="124.560547" xlink:href="#DejaVuSans-110"/>
       <use x="187.939453" xlink:href="#DejaVuSans-103"/>
       <use x="251.416016" xlink:href="#DejaVuSans-103"/>
       <use x="314.892578" xlink:href="#DejaVuSans-102"/>
       <use x="350.097656" xlink:href="#DejaVuSans-117"/>
       <use x="413.476562" xlink:href="#DejaVuSans-122"/>
       <use x="465.966797" xlink:href="#DejaVuSans-122"/>
      </g>
     </g>
    </g>
    <g id="text_5">
     <!-- Fuzzer (highest median coverage on the left) -->
     <g transform="translate(125.632656 342.296783)scale(0.1 -0.1)">
      <defs>
       <path d="M 9.8125 72.90625 
L 51.703125 72.90625 
L 51.703125 64.59375 
L 19.671875 64.59375 
L 19.671875 43.109375 
L 48.578125 43.109375 
L 48.578125 34.8125 
L 19.671875 34.8125 
L 19.671875 0 
L 9.8125 0 
z
" id="DejaVuSans-70"/>
       <path id="DejaVuSans-32"/>
       <path d="M 31 75.875 
Q 24.46875 64.65625 21.28125 53.65625 
Q 18.109375 42.671875 18.109375 31.390625 
Q 18.109375 20.125 21.3125 9.0625 
Q 24.515625 -2 31 -13.1875 
L 23.1875 -13.1875 
Q 15.875 -1.703125 12.234375 9.375 
Q 8.59375 20.453125 8.59375 31.390625 
Q 8.59375 42.28125 12.203125 53.3125 
Q 15.828125 64.359375 23.1875 75.875 
z
" id="DejaVuSans-40"/>
       <path d="M 52 44.1875 
Q 55.375 50.25 60.0625 53.125 
Q 64.75 56 71.09375 56 
Q 79.640625 56 84.28125 50.015625 
Q 88.921875 44.046875 88.921875 33.015625 
L 88.921875 0 
L 79.890625 0 
L 79.890625 32.71875 
Q 79.890625 40.578125 77.09375 44.375 
Q 74.3125 48.1875 68.609375 48.1875 
Q 61.625 48.1875 57.5625 43.546875 
Q 53.515625 38.921875 53.515625 30.90625 
L 53.515625 0 
L 44.484375 0 
L 44.484375 32.71875 
Q 44.484375 40.625 41.703125 44.40625 
Q 38.921875 48.1875 33.109375 48.1875 
Q 26.21875 48.1875 22.15625 43.53125 
Q 18.109375 38.875 18.109375 30.90625 
L 18.109375 0 
L 9.078125 0 
L 9.078125 54.6875 
L 18.109375 54.6875 
L 18.109375 46.1875 
Q 21.1875 51.21875 25.484375 53.609375 
Q 29.78125 56 35.6875 56 
Q 41.65625 56 45.828125 52.96875 
Q 50 49.953125 52 44.1875 
z
" id="DejaVuSans-109"/>
       <path d="M 45.40625 46.390625 
L 45.40625 75.984375 
L 54.390625 75.984375 
L 54.390625 0 
L 45.40625 0 
L 45.40625 8.203125 
Q 42.578125 3.328125 38.25 0.953125 
Q 33.9375 -1.421875 27.875 -1.421875 
Q 17.96875 -1.421875 11.734375 6.484375 
Q 5.515625 14.40625 5.515625 27.296875 
Q 5.515625 40.1875 11.734375 48.09375 
Q 17.96875 56 27.875 56 
Q 33.9375 56 38.25 53.625 
Q 42.578125 51.265625 45.40625 46.390625 
z
M 14.796875 27.296875 
Q 14.796875 17.390625 18.875 11.75 
Q 22.953125 6.109375 30.078125 6.109375 
Q 37.203125 6.109375 41.296875 11.75 
Q 45.40625 17.390625 45.40625 27.296875 
Q 45.40625 37.203125 41.296875 42.84375 
Q 37.203125 48.484375 30.078125 48.484375 
Q 22.953125 48.484375 18.875 42.84375 
Q 14.796875 37.203125 14.796875 27.296875 
z
" id="DejaVuSans-100"/>
       <path d="M 48.78125 52.59375 
L 48.78125 44.1875 
Q 44.96875 46.296875 41.140625 47.34375 
Q 37.3125 48.390625 33.40625 48.390625 
Q 24.65625 48.390625 19.8125 42.84375 
Q 14.984375 37.3125 14.984375 27.296875 
Q 14.984375 17.28125 19.8125 11.734375 
Q 24.65625 6.203125 33.40625 6.203125 
Q 37.3125 6.203125 41.140625 7.25 
Q 44.96875 8.296875 48.78125 10.40625 
L 48.78125 2.09375 
Q 45.015625 0.34375 40.984375 -0.53125 
Q 36.96875 -1.421875 32.421875 -1.421875 
Q 20.0625 -1.421875 12.78125 6.34375 
Q 5.515625 14.109375 5.515625 27.296875 
Q 5.515625 40.671875 12.859375 48.328125 
Q 20.21875 56 33.015625 56 
Q 37.15625 56 41.109375 55.140625 
Q 45.0625 54.296875 48.78125 52.59375 
z
" id="DejaVuSans-99"/>
       <path d="M 2.984375 54.6875 
L 12.5 54.6875 
L 29.59375 8.796875 
L 46.6875 54.6875 
L 56.203125 54.6875 
L 35.6875 0 
L 23.484375 0 
z
" id="DejaVuSans-118"/>
       <path d="M 8.015625 75.875 
L 15.828125 75.875 
Q 23.140625 64.359375 26.78125 53.3125 
Q 30.421875 42.28125 30.421875 31.390625 
Q 30.421875 20.453125 26.78125 9.375 
Q 23.140625 -1.703125 15.828125 -13.1875 
L 8.015625 -13.1875 
Q 14.5 -2 17.703125 9.0625 
Q 20.90625 20.125 20.90625 31.390625 
Q 20.90625 42.671875 17.703125 53.65625 
Q 14.5 64.65625 8.015625 75.875 
z
" id="DejaVuSans-41"/>
      </defs>
      <use xlink:href="#DejaVuSans-70"/>
      <use x="52.019531" xlink:href="#DejaVuSans-117"/>
      <use x="115.398438" xlink:href="#DejaVuSans-122"/>
      <use x="167.888672" xlink:href="#DejaVuSans-122"/>
      <use x="220.378906" xlink:href="#DejaVuSans-101"/>
      <use x="281.902344" xlink:href="#DejaVuSans-114"/>
      <use x="323.015625" xlink:href="#DejaVuSans-32"/>
      <use x="354.802734" xlink:href="#DejaVuSans-40"/>
      <use x="393.816406" xlink:href="#DejaVuSans-104"/>
      <use x="457.195312" xlink:href="#DejaVuSans-105"/>
      <use x="484.978516" xlink:href="#DejaVuSans-103"/>
      <use x="548.455078" xlink:href="#DejaVuSans-104"/>
      <use x="611.833984" xlink:href="#DejaVuSans-101"/>
      <use x="673.357422" xlink:href="#DejaVuSans-115"/>
      <use x="725.457031" xlink:href="#DejaVuSans-116"/>
      <use x="764.666016" xlink:href="#DejaVuSans-32"/>
      <use x="796.453125" xlink:href="#DejaVuSans-109"/>
      <use x="893.865234" xlink:href="#DejaVuSans-101"/>
      <use x="955.388672" xlink:href="#DejaVuSans-100"/>
      <use x="1018.865234" xlink:href="#DejaVuSans-105"/>
      <use x="1046.648438" xlink:href="#DejaVuSans-97"/>
      <use x="1107.927734" xlink:href="#DejaVuSans-110"/>
      <use x="1171.306641" xlink:href="#DejaVuSans-32"/>
      <use x="1203.09375" xlink:href="#DejaVuSans-99"/>
      <use x="1258.074219" xlink:href="#DejaVuSans-111"/>
      <use x="1319.255859" xlink:href="#DejaVuSans-118"/>
      <use x="1378.435547" xlink:href="#DejaVuSans-101"/>
      <use x="1439.958984" xlink:href="#DejaVuSans-114"/>
      <use x="1481.072266" xlink:href="#DejaVuSans-97"/>
      <use x="1542.351562" xlink:href="#DejaVuSans-103"/>
      <use x="1605.828125" xlink:href="#DejaVuSans-101"/>
      <use x="1667.351562" xlink:href="#DejaVuSans-32"/>
      <use x="1699.138672" xlink:href="#DejaVuSans-111"/>
      <use x="1760.320312" xlink:href="#DejaVuSans-110"/>
      <use x="1823.699219" xlink:href="#DejaVuSans-32"/>
      <use x="1855.486328" xlink:href="#DejaVuSans-116"/>
      <use x="1894.695312" xlink:href="#DejaVuSans-104"/>
      <use x="1958.074219" xlink:href="#DejaVuSans-101"/>
      <use x="2019.597656" xlink:href="#DejaVuSans-32"/>
      <use x="2051.384766" xlink:href="#DejaVuSans-108"/>
      <use x="2079.167969" xlink:href="#DejaVuSans-101"/>
      <use x="2140.691406" xlink:href="#DejaVuSans-102"/>
      <use x="2174.146484" xlink:href="#DejaVuSans-116"/>
      <use x="2213.355469" xlink:href="#DejaVuSans-41"/>
     </g>
    </g>
   </g>
   <g id="matplotlib.axis_2">
    <g id="ytick_1">
     <g id="line2d_5">
      <defs>
       <path d="M 0 0 
L -3.5 0 
" id="macfadba23a" style="stroke:#000000;stroke-width:0.8;"/>
      </defs>
      <g>
       <use style="stroke:#000000;stroke-width:0.8;" x="59.690625" xlink:href="#macfadba23a" y="262.548659"/>
      </g>
     </g>
     <g id="text_6">
      <!-- 13690 -->
      <g transform="translate(20.878125 266.347878)scale(0.1 -0.1)">
       <defs>
        <path d="M 12.40625 8.296875 
L 28.515625 8.296875 
L 28.515625 63.921875 
L 10.984375 60.40625 
L 10.984375 69.390625 
L 28.421875 72.90625 
L 38.28125 72.90625 
L 38.28125 8.296875 
L 54.390625 8.296875 
L 54.390625 0 
L 12.40625 0 
z
" id="DejaVuSans-49"/>
        <path d="M 40.578125 39.3125 
Q 47.65625 37.796875 51.625 33 
Q 55.609375 28.21875 55.609375 21.1875 
Q 55.609375 10.40625 48.1875 4.484375 
Q 40.765625 -1.421875 27.09375 -1.421875 
Q 22.515625 -1.421875 17.65625 -0.515625 
Q 12.796875 0.390625 7.625 2.203125 
L 7.625 11.71875 
Q 11.71875 9.328125 16.59375 8.109375 
Q 21.484375 6.890625 26.8125 6.890625 
Q 36.078125 6.890625 40.9375 10.546875 
Q 45.796875 14.203125 45.796875 21.1875 
Q 45.796875 27.640625 41.28125 31.265625 
Q 36.765625 34.90625 28.71875 34.90625 
L 20.21875 34.90625 
L 20.21875 43.015625 
L 29.109375 43.015625 
Q 36.375 43.015625 40.234375 45.921875 
Q 44.09375 48.828125 44.09375 54.296875 
Q 44.09375 59.90625 40.109375 62.90625 
Q 36.140625 65.921875 28.71875 65.921875 
Q 24.65625 65.921875 20.015625 65.03125 
Q 15.375 64.15625 9.8125 62.3125 
L 9.8125 71.09375 
Q 15.4375 72.65625 20.34375 73.4375 
Q 25.25 74.21875 29.59375 74.21875 
Q 40.828125 74.21875 47.359375 69.109375 
Q 53.90625 64.015625 53.90625 55.328125 
Q 53.90625 49.265625 50.4375 45.09375 
Q 46.96875 40.921875 40.578125 39.3125 
z
" id="DejaVuSans-51"/>
        <path d="M 33.015625 40.375 
Q 26.375 40.375 22.484375 35.828125 
Q 18.609375 31.296875 18.609375 23.390625 
Q 18.609375 15.53125 22.484375 10.953125 
Q 26.375 6.390625 33.015625 6.390625 
Q 39.65625 6.390625 43.53125 10.953125 
Q 47.40625 15.53125 47.40625 23.390625 
Q 47.40625 31.296875 43.53125 35.828125 
Q 39.65625 40.375 33.015625 40.375 
z
M 52.59375 71.296875 
L 52.59375 62.3125 
Q 48.875 64.0625 45.09375 64.984375 
Q 41.3125 65.921875 37.59375 65.921875 
Q 27.828125 65.921875 22.671875 59.328125 
Q 17.53125 52.734375 16.796875 39.40625 
Q 19.671875 43.65625 24.015625 45.921875 
Q 28.375 48.1875 33.59375 48.1875 
Q 44.578125 48.1875 50.953125 41.515625 
Q 57.328125 34.859375 57.328125 23.390625 
Q 57.328125 12.15625 50.6875 5.359375 
Q 44.046875 -1.421875 33.015625 -1.421875 
Q 20.359375 -1.421875 13.671875 8.265625 
Q 6.984375 17.96875 6.984375 36.375 
Q 6.984375 53.65625 15.1875 63.9375 
Q 23.390625 74.21875 37.203125 74.21875 
Q 40.921875 74.21875 44.703125 73.484375 
Q 48.484375 72.75 52.59375 71.296875 
z
" id="DejaVuSans-54"/>
        <path d="M 10.984375 1.515625 
L 10.984375 10.5 
Q 14.703125 8.734375 18.5 7.8125 
Q 22.3125 6.890625 25.984375 6.890625 
Q 35.75 6.890625 40.890625 13.453125 
Q 46.046875 20.015625 46.78125 33.40625 
Q 43.953125 29.203125 39.59375 26.953125 
Q 35.25 24.703125 29.984375 24.703125 
Q 19.046875 24.703125 12.671875 31.3125 
Q 6.296875 37.9375 6.296875 49.421875 
Q 6.296875 60.640625 12.9375 67.421875 
Q 19.578125 74.21875 30.609375 74.21875 
Q 43.265625 74.21875 49.921875 64.515625 
Q 56.59375 54.828125 56.59375 36.375 
Q 56.59375 19.140625 48.40625 8.859375 
Q 40.234375 -1.421875 26.421875 -1.421875 
Q 22.703125 -1.421875 18.890625 -0.6875 
Q 15.09375 0.046875 10.984375 1.515625 
z
M 30.609375 32.421875 
Q 37.25 32.421875 41.125 36.953125 
Q 45.015625 41.5 45.015625 49.421875 
Q 45.015625 57.28125 41.125 61.84375 
Q 37.25 66.40625 30.609375 66.40625 
Q 23.96875 66.40625 20.09375 61.84375 
Q 16.21875 57.28125 16.21875 49.421875 
Q 16.21875 41.5 20.09375 36.953125 
Q 23.96875 32.421875 30.609375 32.421875 
z
" id="DejaVuSans-57"/>
        <path d="M 31.78125 66.40625 
Q 24.171875 66.40625 20.328125 58.90625 
Q 16.5 51.421875 16.5 36.375 
Q 16.5 21.390625 20.328125 13.890625 
Q 24.171875 6.390625 31.78125 6.390625 
Q 39.453125 6.390625 43.28125 13.890625 
Q 47.125 21.390625 47.125 36.375 
Q 47.125 51.421875 43.28125 58.90625 
Q 39.453125 66.40625 31.78125 66.40625 
z
M 31.78125 74.21875 
Q 44.046875 74.21875 50.515625 64.515625 
Q 56.984375 54.828125 56.984375 36.375 
Q 56.984375 17.96875 50.515625 8.265625 
Q 44.046875 -1.421875 31.78125 -1.421875 
Q 19.53125 -1.421875 13.0625 8.265625 
Q 6.59375 17.96875 6.59375 36.375 
Q 6.59375 54.828125 13.0625 64.515625 
Q 19.53125 74.21875 31.78125 74.21875 
z
" id="DejaVuSans-48"/>
       </defs>
       <use xlink:href="#DejaVuSans-49"/>
       <use x="63.623047" xlink:href="#DejaVuSans-51"/>
       <use x="127.246094" xlink:href="#DejaVuSans-54"/>
       <use x="190.869141" xlink:href="#DejaVuSans-57"/>
       <use x="254.492188" xlink:href="#DejaVuSans-48"/>
      </g>
     </g>
    </g>
    <g id="ytick_2">
     <g id="line2d_6">
      <g>
       <use style="stroke:#000000;stroke-width:0.8;" x="59.690625" xlink:href="#macfadba23a" y="232.891416"/>
      </g>
     </g>
     <g id="text_7">
      <!-- 13700 -->
      <g transform="translate(20.878125 236.690635)scale(0.1 -0.1)">
       <defs>
        <path d="M 8.203125 72.90625 
L 55.078125 72.90625 
L 55.078125 68.703125 
L 28.609375 0 
L 18.3125 0 
L 43.21875 64.59375 
L 8.203125 64.59375 
z
" id="DejaVuSans-55"/>
       </defs>
       <use xlink:href="#DejaVuSans-49"/>
       <use x="63.623047" xlink:href="#DejaVuSans-51"/>
       <use x="127.246094" xlink:href="#DejaVuSans-55"/>
       <use x="190.869141" xlink:href="#DejaVuSans-48"/>
       <use x="254.492188" xlink:href="#DejaVuSans-48"/>
      </g>
     </g>
    </g>
    <g id="ytick_3">
     <g id="line2d_7">
      <g>
       <use style="stroke:#000000;stroke-width:0.8;" x="59.690625" xlink:href="#macfadba23a" y="203.234173"/>
      </g>
     </g>
     <g id="text_8">
      <!-- 13710 -->
      <g transform="translate(20.878125 207.033392)scale(0.1 -0.1)">
       <use xlink:href="#DejaVuSans-49"/>
       <use x="63.623047" xlink:href="#DejaVuSans-51"/>
       <use x="127.246094" xlink:href="#DejaVuSans-55"/>
       <use x="190.869141" xlink:href="#DejaVuSans-49"/>
       <use x="254.492188" xlink:href="#DejaVuSans-48"/>
      </g>
     </g>
    </g>
    <g id="ytick_4">
     <g id="line2d_8">
      <g>
       <use style="stroke:#000000;stroke-width:0.8;" x="59.690625" xlink:href="#macfadba23a" y="173.57693"/>
      </g>
     </g>
     <g id="text_9">
      <!-- 13720 -->
      <g transform="translate(20.878125 177.376149)scale(0.1 -0.1)">
       <defs>
        <path d="M 19.1875 8.296875 
L 53.609375 8.296875 
L 53.609375 0 
L 7.328125 0 
L 7.328125 8.296875 
Q 12.9375 14.109375 22.625 23.890625 
Q 32.328125 33.6875 34.8125 36.53125 
Q 39.546875 41.84375 41.421875 45.53125 
Q 43.3125 49.21875 43.3125 52.78125 
Q 43.3125 58.59375 39.234375 62.25 
Q 35.15625 65.921875 28.609375 65.921875 
Q 23.96875 65.921875 18.8125 64.3125 
Q 13.671875 62.703125 7.8125 59.421875 
L 7.8125 69.390625 
Q 13.765625 71.78125 18.9375 73 
Q 24.125 74.21875 28.421875 74.21875 
Q 39.75 74.21875 46.484375 68.546875 
Q 53.21875 62.890625 53.21875 53.421875 
Q 53.21875 48.921875 51.53125 44.890625 
Q 49.859375 40.875 45.40625 35.40625 
Q 44.1875 33.984375 37.640625 27.21875 
Q 31.109375 20.453125 19.1875 8.296875 
z
" id="DejaVuSans-50"/>
       </defs>
       <use xlink:href="#DejaVuSans-49"/>
       <use x="63.623047" xlink:href="#DejaVuSans-51"/>
       <use x="127.246094" xlink:href="#DejaVuSans-55"/>
       <use x="190.869141" xlink:href="#DejaVuSans-50"/>
       <use x="254.492188" xlink:href="#DejaVuSans-48"/>
      </g>
     </g>
    </g>
    <g id="ytick_5">
     <g id="line2d_9">
      <g>
       <use style="stroke:#000000;stroke-width:0.8;" x="59.690625" xlink:href="#macfadba23a" y="143.919687"/>
      </g>
     </g>
     <g id="text_10">
      <!-- 13730 -->
      <g transform="translate(20.878125 147.718906)scale(0.1 -0.1)">
       <use xlink:href="#DejaVuSans-49"/>
       <use x="63.623047" xlink:href="#DejaVuSans-51"/>
       <use x="127.246094" xlink:href="#DejaVuSans-55"/>
       <use x="190.869141" xlink:href="#DejaVuSans-51"/>
       <use x="254.492188" xlink:href="#DejaVuSans-48"/>
      </g>
     </g>
    </g>
    <g id="ytick_6">
     <g id="line2d_10">
      <g>
       <use style="stroke:#000000;stroke-width:0.8;" x="59.690625" xlink:href="#macfadba23a" y="114.262444"/>
      </g>
     </g>
     <g id="text_11">
      <!-- 13740 -->
      <g transform="translate(20.878125 118.061663)scale(0.1 -0.1)">
       <defs>
        <path d="M 37.796875 64.3125 
L 12.890625 25.390625 
L 37.796875 25.390625 
z
M 35.203125 72.90625 
L 47.609375 72.90625 
L 47.609375 25.390625 
L 58.015625 25.390625 
L 58.015625 17.1875 
L 47.609375 17.1875 
L 47.609375 0 
L 37.796875 0 
L 37.796875 17.1875 
L 4.890625 17.1875 
L 4.890625 26.703125 
z
" id="DejaVuSans-52"/>
       </defs>
       <use xlink:href="#DejaVuSans-49"/>
       <use x="63.623047" xlink:href="#DejaVuSans-51"/>
       <use x="127.246094" xlink:href="#DejaVuSans-55"/>
       <use x="190.869141" xlink:href="#DejaVuSans-52"/>
       <use x="254.492188" xlink:href="#DejaVuSans-48"/>
      </g>
     </g>
    </g>
    <g id="ytick_7">
     <g id="line2d_11">
      <g>
       <use style="stroke:#000000;stroke-width:0.8;" x="59.690625" xlink:href="#macfadba23a" y="84.605201"/>
      </g>
     </g>
     <g id="text_12">
      <!-- 13750 -->
      <g transform="translate(20.878125 88.40442)scale(0.1 -0.1)">
       <defs>
        <path d="M 10.796875 72.90625 
L 49.515625 72.90625 
L 49.515625 64.59375 
L 19.828125 64.59375 
L 19.828125 46.734375 
Q 21.96875 47.46875 24.109375 47.828125 
Q 26.265625 48.1875 28.421875 48.1875 
Q 40.625 48.1875 47.75 41.5 
Q 54.890625 34.8125 54.890625 23.390625 
Q 54.890625 11.625 47.5625 5.09375 
Q 40.234375 -1.421875 26.90625 -1.421875 
Q 22.3125 -1.421875 17.546875 -0.640625 
Q 12.796875 0.140625 7.71875 1.703125 
L 7.71875 11.625 
Q 12.109375 9.234375 16.796875 8.0625 
Q 21.484375 6.890625 26.703125 6.890625 
Q 35.15625 6.890625 40.078125 11.328125 
Q 45.015625 15.765625 45.015625 23.390625 
Q 45.015625 31 40.078125 35.4375 
Q 35.15625 39.890625 26.703125 39.890625 
Q 22.75 39.890625 18.8125 39.015625 
Q 14.890625 38.140625 10.796875 36.28125 
z
" id="DejaVuSans-53"/>
       </defs>
       <use xlink:href="#DejaVuSans-49"/>
       <use x="63.623047" xlink:href="#DejaVuSans-51"/>
       <use x="127.246094" xlink:href="#DejaVuSans-55"/>
       <use x="190.869141" xlink:href="#DejaVuSans-53"/>
       <use x="254.492188" xlink:href="#DejaVuSans-48"/>
      </g>
     </g>
    </g>
    <g id="ytick_8">
     <g id="line2d_12">
      <g>
       <use style="stroke:#000000;stroke-width:0.8;" x="59.690625" xlink:href="#macfadba23a" y="54.947958"/>
      </g>
     </g>
     <g id="text_13">
      <!-- 13760 -->
      <g transform="translate(20.878125 58.747177)scale(0.1 -0.1)">
       <use xlink:href="#DejaVuSans-49"/>
       <use x="63.623047" xlink:href="#DejaVuSans-51"/>
       <use x="127.246094" xlink:href="#DejaVuSans-55"/>
       <use x="190.869141" xlink:href="#DejaVuSans-54"/>
       <use x="254.492188" xlink:href="#DejaVuSans-48"/>
      </g>
     </g>
    </g>
    <g id="ytick_9">
     <g id="line2d_13">
      <g>
       <use style="stroke:#000000;stroke-width:0.8;" x="59.690625" xlink:href="#macfadba23a" y="25.290715"/>
      </g>
     </g>
     <g id="text_14">
      <!-- 13770 -->
      <g transform="translate(20.878125 29.089934)scale(0.1 -0.1)">
       <use xlink:href="#DejaVuSans-49"/>
       <use x="63.623047" xlink:href="#DejaVuSans-51"/>
       <use x="127.246094" xlink:href="#DejaVuSans-55"/>
       <use x="190.869141" xlink:href="#DejaVuSans-55"/>
       <use x="254.492188" xlink:href="#DejaVuSans-48"/>
      </g>
     </g>
    </g>
    <g id="text_15">
     <!-- Reached region coverage -->
     <g transform="translate(14.798438 219.136625)rotate(-90)scale(0.1 -0.1)">
      <defs>
       <path d="M 44.390625 34.1875 
Q 47.5625 33.109375 50.5625 29.59375 
Q 53.5625 26.078125 56.59375 19.921875 
L 66.609375 0 
L 56 0 
L 46.6875 18.703125 
Q 43.0625 26.03125 39.671875 28.421875 
Q 36.28125 30.8125 30.421875 30.8125 
L 19.671875 30.8125 
L 19.671875 0 
L 9.8125 0 
L 9.8125 72.90625 
L 32.078125 72.90625 
Q 44.578125 72.90625 50.734375 67.671875 
Q 56.890625 62.453125 56.890625 51.90625 
Q 56.890625 45.015625 53.6875 40.46875 
Q 50.484375 35.9375 44.390625 34.1875 
z
M 19.671875 64.796875 
L 19.671875 38.921875 
L 32.078125 38.921875 
Q 39.203125 38.921875 42.84375 42.21875 
Q 46.484375 45.515625 46.484375 51.90625 
Q 46.484375 58.296875 42.84375 61.546875 
Q 39.203125 64.796875 32.078125 64.796875 
z
" id="DejaVuSans-82"/>
      </defs>
      <use xlink:href="#DejaVuSans-82"/>
      <use x="64.982422" xlink:href="#DejaVuSans-101"/>
      <use x="126.505859" xlink:href="#DejaVuSans-97"/>
      <use x="187.785156" xlink:href="#DejaVuSans-99"/>
      <use x="242.765625" xlink:href="#DejaVuSans-104"/>
      <use x="306.144531" xlink:href="#DejaVuSans-101"/>
      <use x="367.667969" xlink:href="#DejaVuSans-100"/>
      <use x="431.144531" xlink:href="#DejaVuSans-32"/>
      <use x="462.931641" xlink:href="#DejaVuSans-114"/>
      <use x="501.794922" xlink:href="#DejaVuSans-101"/>
      <use x="563.318359" xlink:href="#DejaVuSans-103"/>
      <use x="626.794922" xlink:href="#DejaVuSans-105"/>
      <use x="654.578125" xlink:href="#DejaVuSans-111"/>
      <use x="715.759766" xlink:href="#DejaVuSans-110"/>
      <use x="779.138672" xlink:href="#DejaVuSans-32"/>
      <use x="810.925781" xlink:href="#DejaVuSans-99"/>
      <use x="865.90625" xlink:href="#DejaVuSans-111"/>
      <use x="927.087891" xlink:href="#DejaVuSans-118"/>
      <use x="986.267578" xlink:href="#DejaVuSans-101"/>
      <use x="1047.791016" xlink:href="#DejaVuSans-114"/>
      <use x="1088.904297" xlink:href="#DejaVuSans-97"/>
      <use x="1150.183594" xlink:href="#DejaVuSans-103"/>
      <use x="1213.660156" xlink:href="#DejaVuSans-101"/>
     </g>
    </g>
   </g>
   <g id="line2d_14">
    <path clip-path="url(#pf881d4f284)" d="M 104.330625 63.845131 
L 104.330625 60.879407 
" style="fill:none;stroke:#3f3f3f;stroke-linecap:square;stroke-width:1.5;"/>
   </g>
   <g id="line2d_15">
    <path clip-path="url(#pf881d4f284)" d="M 104.330625 63.845131 
L 104.330625 60.879407 
" style="fill:none;stroke:#3f3f3f;stroke-linecap:square;stroke-width:4.5;"/>
   </g>
   <g id="line2d_16">
    <path clip-path="url(#pf881d4f284)" d="M 193.610625 137.988239 
L 193.610625 132.05679 
" style="fill:none;stroke:#3f3f3f;stroke-linecap:square;stroke-width:1.5;"/>
   </g>
   <g id="line2d_17">
    <path clip-path="url(#pf881d4f284)" d="M 193.610625 137.988239 
L 193.610625 132.05679 
" style="fill:none;stroke:#3f3f3f;stroke-linecap:square;stroke-width:4.5;"/>
   </g>
   <g id="line2d_18">
    <path clip-path="url(#pf881d4f284)" d="M 282.890625 173.57693 
L 282.890625 111.29672 
" style="fill:none;stroke:#3f3f3f;stroke-linecap:square;stroke-width:1.5;"/>
   </g>
   <g id="line2d_19">
    <path clip-path="url(#pf881d4f284)" d="M 282.890625 170.611206 
L 282.890625 132.05679 
" style="fill:none;stroke:#3f3f3f;stroke-linecap:square;stroke-width:4.5;"/>
   </g>
   <g id="line2d_20">
    <path clip-path="url(#pf881d4f284)" d="M 372.170625 274.411557 
L 372.170625 274.411557 
" style="fill:none;stroke:#3f3f3f;stroke-linecap:square;stroke-width:1.5;"/>
   </g>
   <g id="line2d_21">
    <path clip-path="url(#pf881d4f284)" d="M 372.170625 274.411557 
L 372.170625 274.411557 
" style="fill:none;stroke:#3f3f3f;stroke-linecap:square;stroke-width:4.5;"/>
   </g>
   <g id="patch_3">
    <path d="M 59.690625 262.548659 
L 59.690625 25.290715 
" style="fill:none;stroke:#000000;stroke-linecap:square;stroke-linejoin:miter;stroke-width:0.8;"/>
   </g>
   <g id="patch_4">
    <path d="M 104.330625 288.430125 
L 372.170625 288.430125 
" style="fill:none;stroke:#000000;stroke-linecap:square;stroke-linejoin:miter;stroke-width:0.8;"/>
   </g>
   <g id="PathCollection_1">
    <defs>
     <path d="M 0 1.5 
C 0.397805 1.5 0.77937 1.341951 1.06066 1.06066 
C 1.341951 0.77937 1.5 0.397805 1.5 0 
C 1.5 -0.397805 1.341951 -0.77937 1.06066 -1.06066 
C 0.77937 -1.341951 0.397805 -1.5 0 -1.5 
C -0.397805 -1.5 -0.77937 -1.341951 -1.06066 -1.06066 
C -1.341951 -0.77937 -1.5 -0.397805 -1.5 0 
C -1.5 0.397805 -1.341951 0.77937 -1.06066 1.06066 
C -0.77937 1.341951 -0.397805 1.5 0 1.5 
z
" id="ma2ebb78db9" style="stroke:#3f3f3f;"/>
    </defs>
    <g clip-path="url(#pf881d4f284)">
     <use style="fill:#ffffff;stroke:#3f3f3f;" x="104.330625" xlink:href="#ma2ebb78db9" y="60.879407"/>
    </g>
   </g>
   <g id="PathCollection_2">
    <g clip-path="url(#pf881d4f284)">
     <use style="fill:#ffffff;stroke:#3f3f3f;" x="193.610625" xlink:href="#ma2ebb78db9" y="132.05679"/>
    </g>
   </g>
   <g id="PathCollection_3">
    <g clip-path="url(#pf881d4f284)">
     <use style="fill:#ffffff;stroke:#3f3f3f;" x="282.890625" xlink:href="#ma2ebb78db9" y="135.022514"/>
    </g>
   </g>
   <g id="PathCollection_4">
    <g clip-path="url(#pf881d4f284)">
     <use style="fill:#ffffff;stroke:#3f3f3f;" x="372.170625" xlink:href="#ma2ebb78db9" y="274.411557"/>
    </g>
   </g>
   <g id="text_16">
    <!-- openssl_x509 (6h:45m, 5 trials/fuzzer) -->
    <g transform="translate(122.759063 16.318125)scale(0.12 -0.12)">
     <defs>
      <path d="M 50.984375 -16.609375 
L 50.984375 -23.578125 
L -0.984375 -23.578125 
L -0.984375 -16.609375 
z
" id="DejaVuSans-95"/>
      <path d="M 54.890625 54.6875 
L 35.109375 28.078125 
L 55.90625 0 
L 45.3125 0 
L 29.390625 21.484375 
L 13.484375 0 
L 2.875 0 
L 24.125 28.609375 
L 4.6875 54.6875 
L 15.28125 54.6875 
L 29.78125 35.203125 
L 44.28125 54.6875 
z
" id="DejaVuSans-120"/>
      <path d="M 11.71875 12.40625 
L 22.015625 12.40625 
L 22.015625 0 
L 11.71875 0 
z
M 11.71875 51.703125 
L 22.015625 51.703125 
L 22.015625 39.3125 
L 11.71875 39.3125 
z
" id="DejaVuSans-58"/>
      <path d="M 11.71875 12.40625 
L 22.015625 12.40625 
L 22.015625 4 
L 14.015625 -11.625 
L 7.71875 -11.625 
L 11.71875 4 
z
" id="DejaVuSans-44"/>
      <path d="M 25.390625 72.90625 
L 33.6875 72.90625 
L 8.296875 -9.28125 
L 0 -9.28125 
z
" id="DejaVuSans-47"/>
     </defs>
     <use xlink:href="#DejaVuSans-111"/>
     <use x="61.181641" xlink:href="#DejaVuSans-112"/>
     <use x="124.658203" xlink:href="#DejaVuSans-101"/>
     <use x="186.181641" xlink:href="#DejaVuSans-110"/>
     <use x="249.560547" xlink:href="#DejaVuSans-115"/>
     <use x="301.660156" xlink:href="#DejaVuSans-115"/>
     <use x="353.759766" xlink:href="#DejaVuSans-108"/>
     <use x="381.542969" xlink:href="#DejaVuSans-95"/>
     <use x="431.542969" xlink:href="#DejaVuSans-120"/>
     <use x="490.722656" xlink:href="#DejaVuSans-53"/>
     <use x="554.345703" xlink:href="#DejaVuSans-48"/>
     <use x="617.96875" xlink:href="#DejaVuSans-57"/>
     <use x="681.591797" xlink:href="#DejaVuSans-32"/>
     <use x="713.378906" xlink:href="#DejaVuSans-40"/>
     <use x="752.392578" xlink:href="#DejaVuSans-54"/>
     <use x="816.015625" xlink:href="#DejaVuSans-104"/>
     <use x="879.394531" xlink:href="#DejaVuSans-58"/>
     <use x="913.085938" xlink:href="#DejaVuSans-52"/>
     <use x="976.708984" xlink:href="#DejaVuSans-53"/>
     <use x="1040.332031" xlink:href="#DejaVuSans-109"/>
     <use x="1137.744141" xlink:href="#DejaVuSans-44"/>
     <use x="1169.53125" xlink:href="#DejaVuSans-32"/>
     <use x="1201.318359" xlink:href="#DejaVuSans-53"/>
     <use x="1264.941406" xlink:href="#DejaVuSans-32"/>
     <use x="1296.728516" xlink:href="#DejaVuSans-116"/>
     <use x="1335.9375" xlink:href="#DejaVuSans-114"/>
     <use x="1377.050781" xlink:href="#DejaVuSans-105"/>
     <use x="1404.833984" xlink:href="#DejaVuSans-97"/>
     <use x="1466.113281" xlink:href="#DejaVuSans-108"/>
     <use x="1493.896484" xlink:href="#DejaVuSans-115"/>
     <use x="1545.996094" xlink:href="#DejaVuSans-47"/>
     <use x="1579.6875" xlink:href="#DejaVuSans-102"/>
     <use x="1614.892578" xlink:href="#DejaVuSans-117"/>
     <use x="1678.271484" xlink:href="#DejaVuSans-122"/>
     <use x="1730.761719" xlink:href="#DejaVuSans-122"/>
     <use x="1783.251953" xlink:href="#DejaVuSans-101"/>
     <use x="1844.775391" xlink:href="#DejaVuSans-114"/>
     <use x="1885.888672" xlink:href="#DejaVuSans-41"/>
    </g>
   </g>
  </g>
 </g>
 <defs>
  <clipPath id="pf881d4f284">
   <rect height="266.112" width="357.12" x="59.690625" y="22.318125"/>
  </clipPath>
 </defs>
</svg>
