<?xml version="1.0" encoding="utf-8" standalone="no"?>
<!DOCTYPE svg PUBLIC "-//W3C//DTD SVG 1.1//EN"
  "http://www.w3.org/Graphics/SVG/1.1/DTD/svg11.dtd">
<!-- Created with matplotlib (https://matplotlib.org/) -->
<svg height="351.576471pt" version="1.1" viewBox="0 0 424.010625 351.576471" width="424.010625pt" xmlns="http://www.w3.org/2000/svg" xmlns:xlink="http://www.w3.org/1999/xlink">
 <metadata>
  <rdf:RDF xmlns:cc="http://creativecommons.org/ns#" xmlns:dc="http://purl.org/dc/elements/1.1/" xmlns:rdf="http://www.w3.org/1999/02/22-rdf-syntax-ns#">
   <cc:Work>
    <dc:type rdf:resource="http://purl.org/dc/dcmitype/StillImage"/>
    <dc:date>2020-10-17T07:51:57.152294</dc:date>
    <dc:format>image/svg+xml</dc:format>
    <dc:creator>
     <cc:Agent>
      <dc:title>Matplotlib v3.3.2, https://matplotlib.org/</dc:title>
     </cc:Agent>
    </dc:creator>
   </cc:Work>
  </rdf:RDF>
 </metadata>
 <defs>
  <style type="text/css">*{stroke-linecap:butt;stroke-linejoin:round;}</style>
 </defs>
 <g id="figure_1">
  <g id="patch_1">
   <path d="M 0 351.576471 
L 424.010625 351.576471 
L 424.010625 0 
L 0 0 
z
" style="fill:#ffffff;"/>
  </g>
  <g id="axes_1">
   <g id="patch_2">
    <path d="M 59.690625 288.430125 
L 416.810625 288.430125 
L 416.810625 22.318125 
L 59.690625 22.318125 
z
" style="fill:#ffffff;"/>
   </g>
   <g id="PolyCollection_1">
    <defs>
     <path d="M 96.100815 -264.245429 
L 94.704435 -264.245429 
L 94.607887 -264.779943 
L 94.501544 -265.314458 
L 94.384984 -265.848972 
L 94.257858 -266.383486 
L 94.119905 -266.918001 
L 93.970964 -267.452515 
L 93.810989 -267.987029 
L 93.640066 -268.521543 
L 93.458423 -269.056058 
L 93.266437 -269.590572 
L 93.064652 -270.125086 
L 92.853776 -270.659601 
L 92.634687 -271.194115 
L 92.408436 -271.728629 
L 92.176239 -272.263144 
L 91.939468 -272.797658 
L 91.699645 -273.332172 
L 91.45842 -273.866687 
L 91.217556 -274.401201 
L 90.9789 -274.935715 
L 90.744363 -275.47023 
L 90.515883 -276.004744 
L 90.295398 -276.539258 
L 90.084812 -277.073772 
L 89.885958 -277.608287 
L 89.700564 -278.142801 
L 89.530221 -278.677315 
L 89.376352 -279.21183 
L 89.240179 -279.746344 
L 89.122703 -280.280858 
L 89.024676 -280.815373 
L 88.946593 -281.349887 
L 88.888675 -281.884401 
L 88.850867 -282.418916 
L 88.83284 -282.95343 
L 88.833998 -283.487944 
L 88.853492 -284.022459 
L 88.89024 -284.556973 
L 88.942954 -285.091487 
L 89.010167 -285.626001 
L 89.090269 -286.160516 
L 89.181544 -286.69503 
L 89.282207 -287.229544 
L 89.390447 -287.764059 
L 89.504464 -288.298573 
L 89.622511 -288.833087 
L 89.742927 -289.367602 
L 89.864174 -289.902116 
L 89.984862 -290.43663 
L 90.103778 -290.971145 
L 90.219902 -291.505659 
L 90.332425 -292.040173 
L 90.440752 -292.574688 
L 90.544504 -293.109202 
L 90.643518 -293.643716 
L 90.737834 -294.17823 
L 90.827681 -294.712745 
L 90.913456 -295.247259 
L 90.995705 -295.781773 
L 91.075093 -296.316288 
L 91.152378 -296.850802 
L 91.228379 -297.385316 
L 91.303951 -297.919831 
L 91.379949 -298.454345 
L 91.457207 -298.988859 
L 91.536507 -299.523374 
L 91.618559 -300.057888 
L 91.703979 -300.592402 
L 91.793272 -301.126917 
L 91.886825 -301.661431 
L 91.984893 -302.195945 
L 92.087597 -302.730459 
L 92.194925 -303.264974 
L 92.306732 -303.799488 
L 92.422754 -304.334002 
L 92.542609 -304.868517 
L 92.665819 -305.403031 
L 92.791817 -305.937545 
L 92.919966 -306.47206 
L 93.049579 -307.006574 
L 93.179931 -307.541088 
L 93.310281 -308.075603 
L 93.439887 -308.610117 
L 93.568019 -309.144631 
L 93.693978 -309.679145 
L 93.817107 -310.21366 
L 93.936799 -310.748174 
L 94.052511 -311.282688 
L 94.163766 -311.817203 
L 94.270158 -312.351717 
L 94.37136 -312.886231 
L 94.467117 -313.420746 
L 94.557251 -313.95526 
L 94.641655 -314.489774 
L 94.720291 -315.024289 
L 94.793183 -315.558803 
L 94.860413 -316.093317 
L 94.922115 -316.627832 
L 94.978466 -317.162346 
L 95.826784 -317.162346 
L 95.826784 -317.162346 
L 95.883135 -316.627832 
L 95.944837 -316.093317 
L 96.012067 -315.558803 
L 96.084959 -315.024289 
L 96.163595 -314.489774 
L 96.247999 -313.95526 
L 96.338133 -313.420746 
L 96.43389 -312.886231 
L 96.535092 -312.351717 
L 96.641484 -311.817203 
L 96.752739 -311.282688 
L 96.868451 -310.748174 
L 96.988143 -310.21366 
L 97.111272 -309.679145 
L 97.237231 -309.144631 
L 97.365363 -308.610117 
L 97.494969 -308.075603 
L 97.625319 -307.541088 
L 97.755671 -307.006574 
L 97.885284 -306.47206 
L 98.013433 -305.937545 
L 98.139431 -305.403031 
L 98.262641 -304.868517 
L 98.382496 -304.334002 
L 98.498518 -303.799488 
L 98.610325 -303.264974 
L 98.717653 -302.730459 
L 98.820357 -302.195945 
L 98.918425 -301.661431 
L 99.011978 -301.126917 
L 99.101271 -300.592402 
L 99.186691 -300.057888 
L 99.268743 -299.523374 
L 99.348043 -298.988859 
L 99.425301 -298.454345 
L 99.501299 -297.919831 
L 99.576871 -297.385316 
L 99.652872 -296.850802 
L 99.730157 -296.316288 
L 99.809545 -295.781773 
L 99.891794 -295.247259 
L 99.977569 -294.712745 
L 100.067416 -294.17823 
L 100.161732 -293.643716 
L 100.260746 -293.109202 
L 100.364498 -292.574688 
L 100.472825 -292.040173 
L 100.585348 -291.505659 
L 100.701472 -290.971145 
L 100.820388 -290.43663 
L 100.941076 -289.902116 
L 101.062323 -289.367602 
L 101.182739 -288.833087 
L 101.300786 -288.298573 
L 101.414803 -287.764059 
L 101.523043 -287.229544 
L 101.623706 -286.69503 
L 101.714981 -286.160516 
L 101.795083 -285.626001 
L 101.862296 -285.091487 
L 101.91501 -284.556973 
L 101.951758 -284.022459 
L 101.971252 -283.487944 
L 101.97241 -282.95343 
L 101.954383 -282.418916 
L 101.916575 -281.884401 
L 101.858657 -281.349887 
L 101.780574 -280.815373 
L 101.682547 -280.280858 
L 101.565071 -279.746344 
L 101.428898 -279.21183 
L 101.275029 -278.677315 
L 101.104686 -278.142801 
L 100.919292 -277.608287 
L 100.720438 -277.073772 
L 100.509852 -276.539258 
L 100.289367 -276.004744 
L 100.060887 -275.47023 
L 99.82635 -274.935715 
L 99.587694 -274.401201 
L 99.34683 -273.866687 
L 99.105605 -273.332172 
L 98.865782 -272.797658 
L 98.629011 -272.263144 
L 98.396814 -271.728629 
L 98.170563 -271.194115 
L 97.951474 -270.659601 
L 97.740598 -270.125086 
L 97.538813 -269.590572 
L 97.346827 -269.056058 
L 97.165184 -268.521543 
L 96.994261 -267.987029 
L 96.834286 -267.452515 
L 96.685345 -266.918001 
L 96.547392 -266.383486 
L 96.420266 -265.848972 
L 96.303706 -265.314458 
L 96.197363 -264.779943 
L 96.100815 -264.245429 
z
" id="m11349f2475" style="stroke:#3f3f3f;stroke-width:1.5;"/>
    </defs>
    <g clip-path="url(#pafd5541520)">
     <use style="fill:#e1812c;stroke:#3f3f3f;stroke-width:1.5;" x="0" xlink:href="#m11349f2475" y="351.576471"/>
    </g>
   </g>
   <g id="PolyCollection_2">
    <defs>
     <path d="M 168.227577 -261.284418 
L 165.425673 -261.284418 
L 165.188127 -261.409653 
L 164.920555 -261.534888 
L 164.621038 -261.660123 
L 164.287843 -261.785358 
L 163.919467 -261.910593 
L 163.514694 -262.035828 
L 163.07263 -262.161063 
L 162.592754 -262.286298 
L 162.074939 -262.411533 
L 161.519482 -262.536768 
L 160.927114 -262.662003 
L 160.299003 -262.787238 
L 159.636744 -262.912473 
L 158.942338 -263.037708 
L 158.218159 -263.162943 
L 157.466917 -263.288178 
L 156.691607 -263.413413 
L 155.895458 -263.538648 
L 155.081876 -263.663883 
L 154.254388 -263.789118 
L 153.41659 -263.914353 
L 152.572098 -264.039588 
L 151.724507 -264.164823 
L 150.877358 -264.290058 
L 150.034113 -264.415293 
L 149.198144 -264.540528 
L 148.372724 -264.665763 
L 147.561033 -264.790998 
L 146.766162 -264.916233 
L 145.991129 -265.041468 
L 145.238887 -265.166703 
L 144.512339 -265.291938 
L 143.814342 -265.417173 
L 143.147706 -265.542408 
L 142.515189 -265.667643 
L 141.91948 -265.792878 
L 141.36317 -265.918113 
L 140.848721 -266.043348 
L 140.378425 -266.168583 
L 139.954355 -266.293818 
L 139.578319 -266.419053 
L 139.251813 -266.544288 
L 138.975978 -266.669523 
L 138.751567 -266.794758 
L 138.578915 -266.919993 
L 138.457932 -267.045228 
L 138.388105 -267.170463 
L 138.368509 -267.295698 
L 138.397849 -267.420933 
L 138.474499 -267.546168 
L 138.596564 -267.671403 
L 138.761948 -267.796638 
L 138.96843 -267.921873 
L 139.213739 -268.047108 
L 139.495633 -268.172343 
L 139.811969 -268.297578 
L 140.160767 -268.422813 
L 140.540261 -268.548048 
L 140.948936 -268.673283 
L 141.385548 -268.798518 
L 141.849128 -268.923753 
L 142.338965 -269.048988 
L 142.854579 -269.174223 
L 143.395671 -269.299458 
L 143.962065 -269.424693 
L 144.553639 -269.549928 
L 145.170249 -269.675163 
L 145.811651 -269.800398 
L 146.477422 -269.925633 
L 147.16689 -270.050868 
L 147.87907 -270.176103 
L 148.612612 -270.301338 
L 149.365766 -270.426573 
L 150.136358 -270.551808 
L 150.921794 -270.677043 
L 151.719068 -270.802278 
L 152.524802 -270.927513 
L 153.335291 -271.052748 
L 154.14657 -271.177983 
L 154.954486 -271.303218 
L 155.754788 -271.428453 
L 156.543212 -271.553688 
L 157.315573 -271.678923 
L 158.067856 -271.804158 
L 158.796299 -271.929393 
L 159.497468 -272.054628 
L 160.168324 -272.179863 
L 160.806274 -272.305098 
L 161.409209 -272.430333 
L 161.975529 -272.555568 
L 162.50415 -272.680803 
L 162.994496 -272.806038 
L 163.446486 -272.931273 
L 163.860499 -273.056508 
L 164.237332 -273.181743 
L 164.578157 -273.306978 
L 164.884464 -273.432213 
L 165.158005 -273.557448 
L 165.400738 -273.682683 
L 168.252512 -273.682683 
L 168.252512 -273.682683 
L 168.495245 -273.557448 
L 168.768786 -273.432213 
L 169.075093 -273.306978 
L 169.415918 -273.181743 
L 169.792751 -273.056508 
L 170.206764 -272.931273 
L 170.658754 -272.806038 
L 171.1491 -272.680803 
L 171.677721 -272.555568 
L 172.244041 -272.430333 
L 172.846976 -272.305098 
L 173.484926 -272.179863 
L 174.155782 -272.054628 
L 174.856951 -271.929393 
L 175.585394 -271.804158 
L 176.337677 -271.678923 
L 177.110038 -271.553688 
L 177.898462 -271.428453 
L 178.698764 -271.303218 
L 179.50668 -271.177983 
L 180.317959 -271.052748 
L 181.128448 -270.927513 
L 181.934182 -270.802278 
L 182.731456 -270.677043 
L 183.516892 -270.551808 
L 184.287484 -270.426573 
L 185.040638 -270.301338 
L 185.77418 -270.176103 
L 186.48636 -270.050868 
L 187.175828 -269.925633 
L 187.841599 -269.800398 
L 188.483001 -269.675163 
L 189.099611 -269.549928 
L 189.691185 -269.424693 
L 190.257579 -269.299458 
L 190.798671 -269.174223 
L 191.314285 -269.048988 
L 191.804122 -268.923753 
L 192.267702 -268.798518 
L 192.704314 -268.673283 
L 193.112989 -268.548048 
L 193.492483 -268.422813 
L 193.841281 -268.297578 
L 194.157617 -268.172343 
L 194.439511 -268.047108 
L 194.68482 -267.921873 
L 194.891302 -267.796638 
L 195.056686 -267.671403 
L 195.178751 -267.546168 
L 195.255401 -267.420933 
L 195.284741 -267.295698 
L 195.265145 -267.170463 
L 195.195318 -267.045228 
L 195.074335 -266.919993 
L 194.901683 -266.794758 
L 194.677272 -266.669523 
L 194.401437 -266.544288 
L 194.074931 -266.419053 
L 193.698895 -266.293818 
L 193.274825 -266.168583 
L 192.804529 -266.043348 
L 192.29008 -265.918113 
L 191.73377 -265.792878 
L 191.138061 -265.667643 
L 190.505544 -265.542408 
L 189.838908 -265.417173 
L 189.140911 -265.291938 
L 188.414363 -265.166703 
L 187.662121 -265.041468 
L 186.887088 -264.916233 
L 186.092217 -264.790998 
L 185.280526 -264.665763 
L 184.455106 -264.540528 
L 183.619137 -264.415293 
L 182.775892 -264.290058 
L 181.928743 -264.164823 
L 181.081152 -264.039588 
L 180.23666 -263.914353 
L 179.398862 -263.789118 
L 178.571374 -263.663883 
L 177.757792 -263.538648 
L 176.961643 -263.413413 
L 176.186333 -263.288178 
L 175.435091 -263.162943 
L 174.710912 -263.037708 
L 174.016506 -262.912473 
L 173.354247 -262.787238 
L 172.726136 -262.662003 
L 172.133768 -262.536768 
L 171.578311 -262.411533 
L 171.060496 -262.286298 
L 170.58062 -262.161063 
L 170.138556 -262.035828 
L 169.733783 -261.910593 
L 169.365407 -261.785358 
L 169.032212 -261.660123 
L 168.732695 -261.534888 
L 168.465123 -261.409653 
L 168.227577 -261.284418 
z
" id="meef2334a26" style="stroke:#3f3f3f;stroke-width:1.5;"/>
    </defs>
    <g clip-path="url(#pafd5541520)">
     <use style="fill:#c7c7c7;stroke:#3f3f3f;stroke-width:1.5;" x="0" xlink:href="#meef2334a26" y="351.576471"/>
    </g>
   </g>
   <g id="PolyCollection_3">
    <defs>
     <path d="M 238.605142 -237.19494 
L 237.896108 -237.19494 
L 237.838658 -237.658534 
L 237.774667 -238.122129 
L 237.703911 -238.585723 
L 237.626258 -239.049317 
L 237.541677 -239.512912 
L 237.450257 -239.976506 
L 237.352219 -240.440101 
L 237.247922 -240.903695 
L 237.137869 -241.36729 
L 237.022711 -241.830884 
L 236.903241 -242.294479 
L 236.780383 -242.758073 
L 236.655179 -243.221667 
L 236.528768 -243.685262 
L 236.402358 -244.148856 
L 236.277193 -244.612451 
L 236.154518 -245.076045 
L 236.035538 -245.53964 
L 235.921374 -246.003234 
L 235.81302 -246.466829 
L 235.711302 -246.930423 
L 235.616832 -247.394017 
L 235.529974 -247.857612 
L 235.450814 -248.321206 
L 235.379132 -248.784801 
L 235.31439 -249.248395 
L 235.255725 -249.71199 
L 235.201956 -250.175584 
L 235.151596 -250.639179 
L 235.102883 -251.102773 
L 235.053816 -251.566368 
L 235.002205 -252.029962 
L 234.945726 -252.493556 
L 234.881985 -252.957151 
L 234.808588 -253.420745 
L 234.723217 -253.88434 
L 234.623699 -254.347934 
L 234.508084 -254.811529 
L 234.374712 -255.275123 
L 234.22228 -255.738718 
L 234.049895 -256.202312 
L 233.857122 -256.665906 
L 233.644025 -257.129501 
L 233.411181 -257.593095 
L 233.159699 -258.05669 
L 232.891212 -258.520284 
L 232.607862 -258.983879 
L 232.312267 -259.447473 
L 232.007483 -259.911068 
L 231.696941 -260.374662 
L 231.384394 -260.838257 
L 231.073833 -261.301851 
L 230.769414 -261.765445 
L 230.475372 -262.22904 
L 230.195937 -262.692634 
L 229.935244 -263.156229 
L 229.697251 -263.619823 
L 229.485659 -264.083418 
L 229.303839 -264.547012 
L 229.154763 -265.010607 
L 229.040948 -265.474201 
L 228.964407 -265.937795 
L 228.926619 -266.40139 
L 228.928499 -266.864984 
L 228.970388 -267.328579 
L 229.052056 -267.792173 
L 229.172713 -268.255768 
L 229.331033 -268.719362 
L 229.525185 -269.182957 
L 229.752884 -269.646551 
L 230.011436 -270.110146 
L 230.2978 -270.57374 
L 230.608653 -271.037334 
L 230.940452 -271.500929 
L 231.289509 -271.964523 
L 231.65206 -272.428118 
L 232.024328 -272.891712 
L 232.402594 -273.355307 
L 232.783255 -273.818901 
L 233.162881 -274.282496 
L 233.538259 -274.74609 
L 233.906443 -275.209684 
L 234.264778 -275.673279 
L 234.610933 -276.136873 
L 234.942911 -276.600468 
L 235.259063 -277.064062 
L 235.558083 -277.527657 
L 235.839006 -277.991251 
L 236.101191 -278.454846 
L 236.344303 -278.91844 
L 236.568291 -279.382034 
L 236.773355 -279.845629 
L 236.95992 -280.309223 
L 237.128604 -280.772818 
L 237.280182 -281.236412 
L 237.415555 -281.700007 
L 237.535722 -282.163601 
L 237.641745 -282.627196 
L 237.734725 -283.09079 
L 238.766525 -283.09079 
L 238.766525 -283.09079 
L 238.859505 -282.627196 
L 238.965528 -282.163601 
L 239.085695 -281.700007 
L 239.221068 -281.236412 
L 239.372646 -280.772818 
L 239.54133 -280.309223 
L 239.727895 -279.845629 
L 239.932959 -279.382034 
L 240.156947 -278.91844 
L 240.400059 -278.454846 
L 240.662244 -277.991251 
L 240.943167 -277.527657 
L 241.242187 -277.064062 
L 241.558339 -276.600468 
L 241.890317 -276.136873 
L 242.236472 -275.673279 
L 242.594807 -275.209684 
L 242.962991 -274.74609 
L 243.338369 -274.282496 
L 243.717995 -273.818901 
L 244.098656 -273.355307 
L 244.476922 -272.891712 
L 244.84919 -272.428118 
L 245.211741 -271.964523 
L 245.560798 -271.500929 
L 245.892597 -271.037334 
L 246.20345 -270.57374 
L 246.489814 -270.110146 
L 246.748366 -269.646551 
L 246.976065 -269.182957 
L 247.170217 -268.719362 
L 247.328537 -268.255768 
L 247.449194 -267.792173 
L 247.530862 -267.328579 
L 247.572751 -266.864984 
L 247.574631 -266.40139 
L 247.536843 -265.937795 
L 247.460302 -265.474201 
L 247.346487 -265.010607 
L 247.197411 -264.547012 
L 247.015591 -264.083418 
L 246.803999 -263.619823 
L 246.566006 -263.156229 
L 246.305313 -262.692634 
L 246.025878 -262.22904 
L 245.731836 -261.765445 
L 245.427417 -261.301851 
L 245.116856 -260.838257 
L 244.804309 -260.374662 
L 244.493767 -259.911068 
L 244.188983 -259.447473 
L 243.893388 -258.983879 
L 243.610038 -258.520284 
L 243.341551 -258.05669 
L 243.090069 -257.593095 
L 242.857225 -257.129501 
L 242.644128 -256.665906 
L 242.451355 -256.202312 
L 242.27897 -255.738718 
L 242.126538 -255.275123 
L 241.993166 -254.811529 
L 241.877551 -254.347934 
L 241.778033 -253.88434 
L 241.692662 -253.420745 
L 241.619265 -252.957151 
L 241.555524 -252.493556 
L 241.499045 -252.029962 
L 241.447434 -251.566368 
L 241.398367 -251.102773 
L 241.349654 -250.639179 
L 241.299294 -250.175584 
L 241.245525 -249.71199 
L 241.18686 -249.248395 
L 241.122118 -248.784801 
L 241.050436 -248.321206 
L 240.971276 -247.857612 
L 240.884418 -247.394017 
L 240.789948 -246.930423 
L 240.68823 -246.466829 
L 240.579876 -246.003234 
L 240.465712 -245.53964 
L 240.346732 -245.076045 
L 240.224057 -244.612451 
L 240.098892 -244.148856 
L 239.972482 -243.685262 
L 239.846071 -243.221667 
L 239.720867 -242.758073 
L 239.598009 -242.294479 
L 239.478539 -241.830884 
L 239.363381 -241.36729 
L 239.253328 -240.903695 
L 239.149031 -240.440101 
L 239.050993 -239.976506 
L 238.959573 -239.512912 
L 238.874992 -239.049317 
L 238.797339 -238.585723 
L 238.726583 -238.122129 
L 238.662592 -237.658534 
L 238.605142 -237.19494 
z
" id="mf0f484c077" style="stroke:#3f3f3f;stroke-width:1.5;"/>
    </defs>
    <g clip-path="url(#pafd5541520)">
     <use style="fill:#3274a1;stroke:#3f3f3f;stroke-width:1.5;" x="0" xlink:href="#mf0f484c077" y="351.576471"/>
    </g>
   </g>
   <g id="PolyCollection_4">
    <defs>
     <path d="M 311.838775 -254.426095 
L 307.510475 -254.426095 
L 307.172628 -254.540897 
L 306.796221 -254.655698 
L 306.379403 -254.7705 
L 305.92068 -254.885301 
L 305.418991 -255.000102 
L 304.873785 -255.114904 
L 304.285101 -255.229705 
L 303.653628 -255.344507 
L 302.980771 -255.459308 
L 302.268689 -255.57411 
L 301.520329 -255.688911 
L 300.739437 -255.803713 
L 299.930542 -255.918514 
L 299.098926 -256.033316 
L 298.250564 -256.148117 
L 297.392042 -256.262919 
L 296.530446 -256.37772 
L 295.673233 -256.492521 
L 294.828078 -256.607323 
L 294.002706 -256.722124 
L 293.204706 -256.836926 
L 292.441345 -256.951727 
L 291.719371 -257.066529 
L 291.044828 -257.18133 
L 290.422873 -257.296132 
L 289.857618 -257.410933 
L 289.351991 -257.525735 
L 288.907625 -257.640536 
L 288.524786 -257.755337 
L 288.202336 -257.870139 
L 287.937732 -257.98494 
L 287.727079 -258.099742 
L 287.565215 -258.214543 
L 287.445841 -258.329345 
L 287.361688 -258.444146 
L 287.304721 -258.558948 
L 287.266364 -258.673749 
L 287.237753 -258.788551 
L 287.209998 -258.903352 
L 287.174456 -259.018154 
L 287.12299 -259.132955 
L 287.048231 -259.247756 
L 286.943811 -259.362558 
L 286.804569 -259.477359 
L 286.626729 -259.592161 
L 286.408035 -259.706962 
L 286.147842 -259.821764 
L 285.847163 -259.936565 
L 285.508666 -260.051367 
L 285.136628 -260.166168 
L 284.736835 -260.28097 
L 284.316449 -260.395771 
L 283.883829 -260.510573 
L 283.448321 -260.625374 
L 283.020022 -260.740175 
L 282.609526 -260.854977 
L 282.227655 -260.969778 
L 281.885183 -261.08458 
L 281.592571 -261.199381 
L 281.359709 -261.314183 
L 281.195671 -261.428984 
L 281.108501 -261.543786 
L 281.105025 -261.658587 
L 281.190698 -261.773389 
L 281.369485 -261.88819 
L 281.643787 -262.002992 
L 282.014401 -262.117793 
L 282.480525 -262.232594 
L 283.039796 -262.347396 
L 283.688373 -262.462197 
L 284.421041 -262.576999 
L 285.231353 -262.6918 
L 286.111793 -262.806602 
L 287.053956 -262.921403 
L 288.04874 -263.036205 
L 289.086553 -263.151006 
L 290.157506 -263.265808 
L 291.251623 -263.380609 
L 292.359022 -263.495411 
L 293.470097 -263.610212 
L 294.575676 -263.725013 
L 295.667164 -263.839815 
L 296.736659 -263.954616 
L 297.777045 -264.069418 
L 298.782069 -264.184219 
L 299.746377 -264.299021 
L 300.665546 -264.413822 
L 301.536079 -264.528624 
L 302.35539 -264.643425 
L 303.121759 -264.758227 
L 303.83429 -264.873028 
L 304.492837 -264.98783 
L 305.097934 -265.102631 
L 305.650715 -265.217432 
L 306.152826 -265.332234 
L 306.606341 -265.447035 
L 307.013679 -265.561837 
L 307.377517 -265.676638 
L 307.700717 -265.79144 
L 311.648533 -265.79144 
L 311.648533 -265.79144 
L 311.971733 -265.676638 
L 312.335571 -265.561837 
L 312.742909 -265.447035 
L 313.196424 -265.332234 
L 313.698535 -265.217432 
L 314.251316 -265.102631 
L 314.856413 -264.98783 
L 315.51496 -264.873028 
L 316.227491 -264.758227 
L 316.99386 -264.643425 
L 317.813171 -264.528624 
L 318.683704 -264.413822 
L 319.602873 -264.299021 
L 320.567181 -264.184219 
L 321.572205 -264.069418 
L 322.612591 -263.954616 
L 323.682086 -263.839815 
L 324.773574 -263.725013 
L 325.879153 -263.610212 
L 326.990228 -263.495411 
L 328.097627 -263.380609 
L 329.191744 -263.265808 
L 330.262697 -263.151006 
L 331.30051 -263.036205 
L 332.295294 -262.921403 
L 333.237457 -262.806602 
L 334.117897 -262.6918 
L 334.928209 -262.576999 
L 335.660877 -262.462197 
L 336.309454 -262.347396 
L 336.868725 -262.232594 
L 337.334849 -262.117793 
L 337.705463 -262.002992 
L 337.979765 -261.88819 
L 338.158552 -261.773389 
L 338.244225 -261.658587 
L 338.240749 -261.543786 
L 338.153579 -261.428984 
L 337.989541 -261.314183 
L 337.756679 -261.199381 
L 337.464067 -261.08458 
L 337.121595 -260.969778 
L 336.739724 -260.854977 
L 336.329228 -260.740175 
L 335.900929 -260.625374 
L 335.465421 -260.510573 
L 335.032801 -260.395771 
L 334.612415 -260.28097 
L 334.212622 -260.166168 
L 333.840584 -260.051367 
L 333.502087 -259.936565 
L 333.201408 -259.821764 
L 332.941215 -259.706962 
L 332.722521 -259.592161 
L 332.544681 -259.477359 
L 332.405439 -259.362558 
L 332.301019 -259.247756 
L 332.22626 -259.132955 
L 332.174794 -259.018154 
L 332.139252 -258.903352 
L 332.111497 -258.788551 
L 332.082886 -258.673749 
L 332.044529 -258.558948 
L 331.987562 -258.444146 
L 331.903409 -258.329345 
L 331.784035 -258.214543 
L 331.622171 -258.099742 
L 331.411518 -257.98494 
L 331.146914 -257.870139 
L 330.824464 -257.755337 
L 330.441625 -257.640536 
L 329.997259 -257.525735 
L 329.491632 -257.410933 
L 328.926377 -257.296132 
L 328.304422 -257.18133 
L 327.629879 -257.066529 
L 326.907905 -256.951727 
L 326.144544 -256.836926 
L 325.346544 -256.722124 
L 324.521172 -256.607323 
L 323.676017 -256.492521 
L 322.818804 -256.37772 
L 321.957208 -256.262919 
L 321.098686 -256.148117 
L 320.250324 -256.033316 
L 319.418708 -255.918514 
L 318.609813 -255.803713 
L 317.828921 -255.688911 
L 317.080561 -255.57411 
L 316.368479 -255.459308 
L 315.695622 -255.344507 
L 315.064149 -255.229705 
L 314.475465 -255.114904 
L 313.930259 -255.000102 
L 313.42857 -254.885301 
L 312.969847 -254.7705 
L 312.553029 -254.655698 
L 312.176622 -254.540897 
L 311.838775 -254.426095 
z
" id="mbfe7b77c46" style="stroke:#3f3f3f;stroke-width:1.5;"/>
    </defs>
    <g clip-path="url(#pafd5541520)">
     <use style="fill:#9fd495;stroke:#3f3f3f;stroke-width:1.5;" x="0" xlink:href="#mbfe7b77c46" y="351.576471"/>
    </g>
   </g>
   <g id="matplotlib.axis_1">
    <g id="xtick_1">
     <g id="line2d_1">
      <defs>
       <path d="M 0 0 
L 0 3.5 
" id="me2b053b72f" style="stroke:#000000;stroke-width:0.8;"/>
      </defs>
      <g>
       <use style="stroke:#000000;stroke-width:0.8;" x="95.402625" xlink:href="#me2b053b72f" y="288.430125"/>
      </g>
     </g>
     <g id="text_1">
      <!-- libfuzzer -->
      <g transform="translate(57.536404 323.272284)rotate(-30)scale(0.1 -0.1)">
       <defs>
        <path d="M 9.421875 75.984375 
L 18.40625 75.984375 
L 18.40625 0 
L 9.421875 0 
z
" id="DejaVuSans-108"/>
        <path d="M 9.421875 54.6875 
L 18.40625 54.6875 
L 18.40625 0 
L 9.421875 0 
z
M 9.421875 75.984375 
L 18.40625 75.984375 
L 18.40625 64.59375 
L 9.421875 64.59375 
z
" id="DejaVuSans-105"/>
        <path d="M 48.6875 27.296875 
Q 48.6875 37.203125 44.609375 42.84375 
Q 40.53125 48.484375 33.40625 48.484375 
Q 26.265625 48.484375 22.1875 42.84375 
Q 18.109375 37.203125 18.109375 27.296875 
Q 18.109375 17.390625 22.1875 11.75 
Q 26.265625 6.109375 33.40625 6.109375 
Q 40.53125 6.109375 44.609375 11.75 
Q 48.6875 17.390625 48.6875 27.296875 
z
M 18.109375 46.390625 
Q 20.953125 51.265625 25.265625 53.625 
Q 29.59375 56 35.59375 56 
Q 45.5625 56 51.78125 48.09375 
Q 58.015625 40.1875 58.015625 27.296875 
Q 58.015625 14.40625 51.78125 6.484375 
Q 45.5625 -1.421875 35.59375 -1.421875 
Q 29.59375 -1.421875 25.265625 0.953125 
Q 20.953125 3.328125 18.109375 8.203125 
L 18.109375 0 
L 9.078125 0 
L 9.078125 75.984375 
L 18.109375 75.984375 
z
" id="DejaVuSans-98"/>
        <path d="M 37.109375 75.984375 
L 37.109375 68.5 
L 28.515625 68.5 
Q 23.6875 68.5 21.796875 66.546875 
Q 19.921875 64.59375 19.921875 59.515625 
L 19.921875 54.6875 
L 34.71875 54.6875 
L 34.71875 47.703125 
L 19.921875 47.703125 
L 19.921875 0 
L 10.890625 0 
L 10.890625 47.703125 
L 2.296875 47.703125 
L 2.296875 54.6875 
L 10.890625 54.6875 
L 10.890625 58.5 
Q 10.890625 67.625 15.140625 71.796875 
Q 19.390625 75.984375 28.609375 75.984375 
z
" id="DejaVuSans-102"/>
        <path d="M 8.5 21.578125 
L 8.5 54.6875 
L 17.484375 54.6875 
L 17.484375 21.921875 
Q 17.484375 14.15625 20.5 10.265625 
Q 23.53125 6.390625 29.59375 6.390625 
Q 36.859375 6.390625 41.078125 11.03125 
Q 45.3125 15.671875 45.3125 23.6875 
L 45.3125 54.6875 
L 54.296875 54.6875 
L 54.296875 0 
L 45.3125 0 
L 45.3125 8.40625 
Q 42.046875 3.421875 37.71875 1 
Q 33.40625 -1.421875 27.6875 -1.421875 
Q 18.265625 -1.421875 13.375 4.4375 
Q 8.5 10.296875 8.5 21.578125 
z
M 31.109375 56 
z
" id="DejaVuSans-117"/>
        <path d="M 5.515625 54.6875 
L 48.1875 54.6875 
L 48.1875 46.484375 
L 14.40625 7.171875 
L 48.1875 7.171875 
L 48.1875 0 
L 4.296875 0 
L 4.296875 8.203125 
L 38.09375 47.515625 
L 5.515625 47.515625 
z
" id="DejaVuSans-122"/>
        <path d="M 56.203125 29.59375 
L 56.203125 25.203125 
L 14.890625 25.203125 
Q 15.484375 15.921875 20.484375 11.0625 
Q 25.484375 6.203125 34.421875 6.203125 
Q 39.59375 6.203125 44.453125 7.46875 
Q 49.3125 8.734375 54.109375 11.28125 
L 54.109375 2.78125 
Q 49.265625 0.734375 44.1875 -0.34375 
Q 39.109375 -1.421875 33.890625 -1.421875 
Q 20.796875 -1.421875 13.15625 6.1875 
Q 5.515625 13.8125 5.515625 26.8125 
Q 5.515625 40.234375 12.765625 48.109375 
Q 20.015625 56 32.328125 56 
Q 43.359375 56 49.78125 48.890625 
Q 56.203125 41.796875 56.203125 29.59375 
z
M 47.21875 32.234375 
Q 47.125 39.59375 43.09375 43.984375 
Q 39.0625 48.390625 32.421875 48.390625 
Q 24.90625 48.390625 20.390625 44.140625 
Q 15.875 39.890625 15.1875 32.171875 
z
" id="DejaVuSans-101"/>
        <path d="M 41.109375 46.296875 
Q 39.59375 47.171875 37.8125 47.578125 
Q 36.03125 48 33.890625 48 
Q 26.265625 48 22.1875 43.046875 
Q 18.109375 38.09375 18.109375 28.8125 
L 18.109375 0 
L 9.078125 0 
L 9.078125 54.6875 
L 18.109375 54.6875 
L 18.109375 46.1875 
Q 20.953125 51.171875 25.484375 53.578125 
Q 30.03125 56 36.53125 56 
Q 37.453125 56 38.578125 55.875 
Q 39.703125 55.765625 41.0625 55.515625 
z
" id="DejaVuSans-114"/>
       </defs>
       <use xlink:href="#DejaVuSans-108"/>
       <use x="27.783203" xlink:href="#DejaVuSans-105"/>
       <use x="55.566406" xlink:href="#DejaVuSans-98"/>
       <use x="119.042969" xlink:href="#DejaVuSans-102"/>
       <use x="154.248047" xlink:href="#DejaVuSans-117"/>
       <use x="217.626953" xlink:href="#DejaVuSans-122"/>
       <use x="270.117188" xlink:href="#DejaVuSans-122"/>
       <use x="322.607422" xlink:href="#DejaVuSans-101"/>
       <use x="384.130859" xlink:href="#DejaVuSans-114"/>
      </g>
     </g>
    </g>
    <g id="xtick_2">
     <g id="line2d_2">
      <g>
       <use style="stroke:#000000;stroke-width:0.8;" x="166.826625" xlink:href="#me2b053b72f" y="288.430125"/>
      </g>
     </g>
     <g id="text_2">
      <!-- lafintel -->
      <g transform="translate(136.00092 319.20744)rotate(-30)scale(0.1 -0.1)">
       <defs>
        <path d="M 34.28125 27.484375 
Q 23.390625 27.484375 19.1875 25 
Q 14.984375 22.515625 14.984375 16.5 
Q 14.984375 11.71875 18.140625 8.90625 
Q 21.296875 6.109375 26.703125 6.109375 
Q 34.1875 6.109375 38.703125 11.40625 
Q 43.21875 16.703125 43.21875 25.484375 
L 43.21875 27.484375 
z
M 52.203125 31.203125 
L 52.203125 0 
L 43.21875 0 
L 43.21875 8.296875 
Q 40.140625 3.328125 35.546875 0.953125 
Q 30.953125 -1.421875 24.3125 -1.421875 
Q 15.921875 -1.421875 10.953125 3.296875 
Q 6 8.015625 6 15.921875 
Q 6 25.140625 12.171875 29.828125 
Q 18.359375 34.515625 30.609375 34.515625 
L 43.21875 34.515625 
L 43.21875 35.40625 
Q 43.21875 41.609375 39.140625 45 
Q 35.0625 48.390625 27.6875 48.390625 
Q 23 48.390625 18.546875 47.265625 
Q 14.109375 46.140625 10.015625 43.890625 
L 10.015625 52.203125 
Q 14.9375 54.109375 19.578125 55.046875 
Q 24.21875 56 28.609375 56 
Q 40.484375 56 46.34375 49.84375 
Q 52.203125 43.703125 52.203125 31.203125 
z
" id="DejaVuSans-97"/>
        <path d="M 54.890625 33.015625 
L 54.890625 0 
L 45.90625 0 
L 45.90625 32.71875 
Q 45.90625 40.484375 42.875 44.328125 
Q 39.84375 48.1875 33.796875 48.1875 
Q 26.515625 48.1875 22.3125 43.546875 
Q 18.109375 38.921875 18.109375 30.90625 
L 18.109375 0 
L 9.078125 0 
L 9.078125 54.6875 
L 18.109375 54.6875 
L 18.109375 46.1875 
Q 21.34375 51.125 25.703125 53.5625 
Q 30.078125 56 35.796875 56 
Q 45.21875 56 50.046875 50.171875 
Q 54.890625 44.34375 54.890625 33.015625 
z
" id="DejaVuSans-110"/>
        <path d="M 18.3125 70.21875 
L 18.3125 54.6875 
L 36.8125 54.6875 
L 36.8125 47.703125 
L 18.3125 47.703125 
L 18.3125 18.015625 
Q 18.3125 11.328125 20.140625 9.421875 
Q 21.96875 7.515625 27.59375 7.515625 
L 36.8125 7.515625 
L 36.8125 0 
L 27.59375 0 
Q 17.1875 0 13.234375 3.875 
Q 9.28125 7.765625 9.28125 18.015625 
L 9.28125 47.703125 
L 2.6875 47.703125 
L 2.6875 54.6875 
L 9.28125 54.6875 
L 9.28125 70.21875 
z
" id="DejaVuSans-116"/>
       </defs>
       <use xlink:href="#DejaVuSans-108"/>
       <use x="27.783203" xlink:href="#DejaVuSans-97"/>
       <use x="89.0625" xlink:href="#DejaVuSans-102"/>
       <use x="124.267578" xlink:href="#DejaVuSans-105"/>
       <use x="152.050781" xlink:href="#DejaVuSans-110"/>
       <use x="215.429688" xlink:href="#DejaVuSans-116"/>
       <use x="254.638672" xlink:href="#DejaVuSans-101"/>
       <use x="316.162109" xlink:href="#DejaVuSans-108"/>
      </g>
     </g>
    </g>
    <g id="xtick_3">
     <g id="line2d_3">
      <g>
       <use style="stroke:#000000;stroke-width:0.8;" x="238.250625" xlink:href="#me2b053b72f" y="288.430125"/>
      </g>
     </g>
     <g id="text_3">
      <!-- aflplusplus -->
      <g transform="translate(190.641618 328.897284)rotate(-30)scale(0.1 -0.1)">
       <defs>
        <path d="M 18.109375 8.203125 
L 18.109375 -20.796875 
L 9.078125 -20.796875 
L 9.078125 54.6875 
L 18.109375 54.6875 
L 18.109375 46.390625 
Q 20.953125 51.265625 25.265625 53.625 
Q 29.59375 56 35.59375 56 
Q 45.5625 56 51.78125 48.09375 
Q 58.015625 40.1875 58.015625 27.296875 
Q 58.015625 14.40625 51.78125 6.484375 
Q 45.5625 -1.421875 35.59375 -1.421875 
Q 29.59375 -1.421875 25.265625 0.953125 
Q 20.953125 3.328125 18.109375 8.203125 
z
M 48.6875 27.296875 
Q 48.6875 37.203125 44.609375 42.84375 
Q 40.53125 48.484375 33.40625 48.484375 
Q 26.265625 48.484375 22.1875 42.84375 
Q 18.109375 37.203125 18.109375 27.296875 
Q 18.109375 17.390625 22.1875 11.75 
Q 26.265625 6.109375 33.40625 6.109375 
Q 40.53125 6.109375 44.609375 11.75 
Q 48.6875 17.390625 48.6875 27.296875 
z
" id="DejaVuSans-112"/>
        <path d="M 44.28125 53.078125 
L 44.28125 44.578125 
Q 40.484375 46.53125 36.375 47.5 
Q 32.28125 48.484375 27.875 48.484375 
Q 21.1875 48.484375 17.84375 46.4375 
Q 14.5 44.390625 14.5 40.28125 
Q 14.5 37.15625 16.890625 35.375 
Q 19.28125 33.59375 26.515625 31.984375 
L 29.59375 31.296875 
Q 39.15625 29.25 43.1875 25.515625 
Q 47.21875 21.78125 47.21875 15.09375 
Q 47.21875 7.46875 41.1875 3.015625 
Q 35.15625 -1.421875 24.609375 -1.421875 
Q 20.21875 -1.421875 15.453125 -0.5625 
Q 10.6875 0.296875 5.421875 2 
L 5.421875 11.28125 
Q 10.40625 8.6875 15.234375 7.390625 
Q 20.0625 6.109375 24.8125 6.109375 
Q 31.15625 6.109375 34.5625 8.28125 
Q 37.984375 10.453125 37.984375 14.40625 
Q 37.984375 18.0625 35.515625 20.015625 
Q 33.0625 21.96875 24.703125 23.78125 
L 21.578125 24.515625 
Q 13.234375 26.265625 9.515625 29.90625 
Q 5.8125 33.546875 5.8125 39.890625 
Q 5.8125 47.609375 11.28125 51.796875 
Q 16.75 56 26.8125 56 
Q 31.78125 56 36.171875 55.265625 
Q 40.578125 54.546875 44.28125 53.078125 
z
" id="DejaVuSans-115"/>
       </defs>
       <use xlink:href="#DejaVuSans-97"/>
       <use x="61.279297" xlink:href="#DejaVuSans-102"/>
       <use x="96.484375" xlink:href="#DejaVuSans-108"/>
       <use x="124.267578" xlink:href="#DejaVuSans-112"/>
       <use x="187.744141" xlink:href="#DejaVuSans-108"/>
       <use x="215.527344" xlink:href="#DejaVuSans-117"/>
       <use x="278.90625" xlink:href="#DejaVuSans-115"/>
       <use x="331.005859" xlink:href="#DejaVuSans-112"/>
       <use x="394.482422" xlink:href="#DejaVuSans-108"/>
       <use x="422.265625" xlink:href="#DejaVuSans-117"/>
       <use x="485.644531" xlink:href="#DejaVuSans-115"/>
      </g>
     </g>
    </g>
    <g id="xtick_4">
     <g id="line2d_4">
      <g>
       <use style="stroke:#000000;stroke-width:0.8;" x="309.674625" xlink:href="#me2b053b72f" y="288.430125"/>
      </g>
     </g>
     <g id="text_4">
      <!-- honggfuzz -->
      <g transform="translate(263.735424 327.933221)rotate(-30)scale(0.1 -0.1)">
       <defs>
        <path d="M 54.890625 33.015625 
L 54.890625 0 
L 45.90625 0 
L 45.90625 32.71875 
Q 45.90625 40.484375 42.875 44.328125 
Q 39.84375 48.1875 33.796875 48.1875 
Q 26.515625 48.1875 22.3125 43.546875 
Q 18.109375 38.921875 18.109375 30.90625 
L 18.109375 0 
L 9.078125 0 
L 9.078125 75.984375 
L 18.109375 75.984375 
L 18.109375 46.1875 
Q 21.34375 51.125 25.703125 53.5625 
Q 30.078125 56 35.796875 56 
Q 45.21875 56 50.046875 50.171875 
Q 54.890625 44.34375 54.890625 33.015625 
z
" id="DejaVuSans-104"/>
        <path d="M 30.609375 48.390625 
Q 23.390625 48.390625 19.1875 42.75 
Q 14.984375 37.109375 14.984375 27.296875 
Q 14.984375 17.484375 19.15625 11.84375 
Q 23.34375 6.203125 30.609375 6.203125 
Q 37.796875 6.203125 41.984375 11.859375 
Q 46.1875 17.53125 46.1875 27.296875 
Q 46.1875 37.015625 41.984375 42.703125 
Q 37.796875 48.390625 30.609375 48.390625 
z
M 30.609375 56 
Q 42.328125 56 49.015625 48.375 
Q 55.71875 40.765625 55.71875 27.296875 
Q 55.71875 13.875 49.015625 6.21875 
Q 42.328125 -1.421875 30.609375 -1.421875 
Q 18.84375 -1.421875 12.171875 6.21875 
Q 5.515625 13.875 5.515625 27.296875 
Q 5.515625 40.765625 12.171875 48.375 
Q 18.84375 56 30.609375 56 
z
" id="DejaVuSans-111"/>
        <path d="M 45.40625 27.984375 
Q 45.40625 37.75 41.375 43.109375 
Q 37.359375 48.484375 30.078125 48.484375 
Q 22.859375 48.484375 18.828125 43.109375 
Q 14.796875 37.75 14.796875 27.984375 
Q 14.796875 18.265625 18.828125 12.890625 
Q 22.859375 7.515625 30.078125 7.515625 
Q 37.359375 7.515625 41.375 12.890625 
Q 45.40625 18.265625 45.40625 27.984375 
z
M 54.390625 6.78125 
Q 54.390625 -7.171875 48.1875 -13.984375 
Q 42 -20.796875 29.203125 -20.796875 
Q 24.46875 -20.796875 20.265625 -20.09375 
Q 16.0625 -19.390625 12.109375 -17.921875 
L 12.109375 -9.1875 
Q 16.0625 -11.328125 19.921875 -12.34375 
Q 23.78125 -13.375 27.78125 -13.375 
Q 36.625 -13.375 41.015625 -8.765625 
Q 45.40625 -4.15625 45.40625 5.171875 
L 45.40625 9.625 
Q 42.625 4.78125 38.28125 2.390625 
Q 33.9375 0 27.875 0 
Q 17.828125 0 11.671875 7.65625 
Q 5.515625 15.328125 5.515625 27.984375 
Q 5.515625 40.671875 11.671875 48.328125 
Q 17.828125 56 27.875 56 
Q 33.9375 56 38.28125 53.609375 
Q 42.625 51.21875 45.40625 46.390625 
L 45.40625 54.6875 
L 54.390625 54.6875 
z
" id="DejaVuSans-103"/>
       </defs>
       <use xlink:href="#DejaVuSans-104"/>
       <use x="63.378906" xlink:href="#DejaVuSans-111"/>
       <use x="124.560547" xlink:href="#DejaVuSans-110"/>
       <use x="187.939453" xlink:href="#DejaVuSans-103"/>
       <use x="251.416016" xlink:href="#DejaVuSans-103"/>
       <use x="314.892578" xlink:href="#DejaVuSans-102"/>
       <use x="350.097656" xlink:href="#DejaVuSans-117"/>
       <use x="413.476562" xlink:href="#DejaVuSans-122"/>
       <use x="465.966797" xlink:href="#DejaVuSans-122"/>
      </g>
     </g>
    </g>
    <g id="xtick_5">
     <g id="line2d_5">
      <g>
       <use style="stroke:#000000;stroke-width:0.8;" x="381.098625" xlink:href="#me2b053b72f" y="288.430125"/>
      </g>
     </g>
     <g id="text_5">
      <!-- klee -->
      <g transform="translate(361.980501 312.448065)rotate(-30)scale(0.1 -0.1)">
       <defs>
        <path d="M 9.078125 75.984375 
L 18.109375 75.984375 
L 18.109375 31.109375 
L 44.921875 54.6875 
L 56.390625 54.6875 
L 27.390625 29.109375 
L 57.625 0 
L 45.90625 0 
L 18.109375 26.703125 
L 18.109375 0 
L 9.078125 0 
z
" id="DejaVuSans-107"/>
       </defs>
       <use xlink:href="#DejaVuSans-107"/>
       <use x="57.910156" xlink:href="#DejaVuSans-108"/>
       <use x="85.693359" xlink:href="#DejaVuSans-101"/>
       <use x="147.216797" xlink:href="#DejaVuSans-101"/>
      </g>
     </g>
    </g>
    <g id="text_6">
     <!-- Fuzzer (highest median coverage on the left) -->
     <g transform="translate(125.632656 342.296783)scale(0.1 -0.1)">
      <defs>
       <path d="M 9.8125 72.90625 
L 51.703125 72.90625 
L 51.703125 64.59375 
L 19.671875 64.59375 
L 19.671875 43.109375 
L 48.578125 43.109375 
L 48.578125 34.8125 
L 19.671875 34.8125 
L 19.671875 0 
L 9.8125 0 
z
" id="DejaVuSans-70"/>
       <path id="DejaVuSans-32"/>
       <path d="M 31 75.875 
Q 24.46875 64.65625 21.28125 53.65625 
Q 18.109375 42.671875 18.109375 31.390625 
Q 18.109375 20.125 21.3125 9.0625 
Q 24.515625 -2 31 -13.1875 
L 23.1875 -13.1875 
Q 15.875 -1.703125 12.234375 9.375 
Q 8.59375 20.453125 8.59375 31.390625 
Q 8.59375 42.28125 12.203125 53.3125 
Q 15.828125 64.359375 23.1875 75.875 
z
" id="DejaVuSans-40"/>
       <path d="M 52 44.1875 
Q 55.375 50.25 60.0625 53.125 
Q 64.75 56 71.09375 56 
Q 79.640625 56 84.28125 50.015625 
Q 88.921875 44.046875 88.921875 33.015625 
L 88.921875 0 
L 79.890625 0 
L 79.890625 32.71875 
Q 79.890625 40.578125 77.09375 44.375 
Q 74.3125 48.1875 68.609375 48.1875 
Q 61.625 48.1875 57.5625 43.546875 
Q 53.515625 38.921875 53.515625 30.90625 
L 53.515625 0 
L 44.484375 0 
L 44.484375 32.71875 
Q 44.484375 40.625 41.703125 44.40625 
Q 38.921875 48.1875 33.109375 48.1875 
Q 26.21875 48.1875 22.15625 43.53125 
Q 18.109375 38.875 18.109375 30.90625 
L 18.109375 0 
L 9.078125 0 
L 9.078125 54.6875 
L 18.109375 54.6875 
L 18.109375 46.1875 
Q 21.1875 51.21875 25.484375 53.609375 
Q 29.78125 56 35.6875 56 
Q 41.65625 56 45.828125 52.96875 
Q 50 49.953125 52 44.1875 
z
" id="DejaVuSans-109"/>
       <path d="M 45.40625 46.390625 
L 45.40625 75.984375 
L 54.390625 75.984375 
L 54.390625 0 
L 45.40625 0 
L 45.40625 8.203125 
Q 42.578125 3.328125 38.25 0.953125 
Q 33.9375 -1.421875 27.875 -1.421875 
Q 17.96875 -1.421875 11.734375 6.484375 
Q 5.515625 14.40625 5.515625 27.296875 
Q 5.515625 40.1875 11.734375 48.09375 
Q 17.96875 56 27.875 56 
Q 33.9375 56 38.25 53.625 
Q 42.578125 51.265625 45.40625 46.390625 
z
M 14.796875 27.296875 
Q 14.796875 17.390625 18.875 11.75 
Q 22.953125 6.109375 30.078125 6.109375 
Q 37.203125 6.109375 41.296875 11.75 
Q 45.40625 17.390625 45.40625 27.296875 
Q 45.40625 37.203125 41.296875 42.84375 
Q 37.203125 48.484375 30.078125 48.484375 
Q 22.953125 48.484375 18.875 42.84375 
Q 14.796875 37.203125 14.796875 27.296875 
z
" id="DejaVuSans-100"/>
       <path d="M 48.78125 52.59375 
L 48.78125 44.1875 
Q 44.96875 46.296875 41.140625 47.34375 
Q 37.3125 48.390625 33.40625 48.390625 
Q 24.65625 48.390625 19.8125 42.84375 
Q 14.984375 37.3125 14.984375 27.296875 
Q 14.984375 17.28125 19.8125 11.734375 
Q 24.65625 6.203125 33.40625 6.203125 
Q 37.3125 6.203125 41.140625 7.25 
Q 44.96875 8.296875 48.78125 10.40625 
L 48.78125 2.09375 
Q 45.015625 0.34375 40.984375 -0.53125 
Q 36.96875 -1.421875 32.421875 -1.421875 
Q 20.0625 -1.421875 12.78125 6.34375 
Q 5.515625 14.109375 5.515625 27.296875 
Q 5.515625 40.671875 12.859375 48.328125 
Q 20.21875 56 33.015625 56 
Q 37.15625 56 41.109375 55.140625 
Q 45.0625 54.296875 48.78125 52.59375 
z
" id="DejaVuSans-99"/>
       <path d="M 2.984375 54.6875 
L 12.5 54.6875 
L 29.59375 8.796875 
L 46.6875 54.6875 
L 56.203125 54.6875 
L 35.6875 0 
L 23.484375 0 
z
" id="DejaVuSans-118"/>
       <path d="M 8.015625 75.875 
L 15.828125 75.875 
Q 23.140625 64.359375 26.78125 53.3125 
Q 30.421875 42.28125 30.421875 31.390625 
Q 30.421875 20.453125 26.78125 9.375 
Q 23.140625 -1.703125 15.828125 -13.1875 
L 8.015625 -13.1875 
Q 14.5 -2 17.703125 9.0625 
Q 20.90625 20.125 20.90625 31.390625 
Q 20.90625 42.671875 17.703125 53.65625 
Q 14.5 64.65625 8.015625 75.875 
z
" id="DejaVuSans-41"/>
      </defs>
      <use xlink:href="#DejaVuSans-70"/>
      <use x="52.019531" xlink:href="#DejaVuSans-117"/>
      <use x="115.398438" xlink:href="#DejaVuSans-122"/>
      <use x="167.888672" xlink:href="#DejaVuSans-122"/>
      <use x="220.378906" xlink:href="#DejaVuSans-101"/>
      <use x="281.902344" xlink:href="#DejaVuSans-114"/>
      <use x="323.015625" xlink:href="#DejaVuSans-32"/>
      <use x="354.802734" xlink:href="#DejaVuSans-40"/>
      <use x="393.816406" xlink:href="#DejaVuSans-104"/>
      <use x="457.195312" xlink:href="#DejaVuSans-105"/>
      <use x="484.978516" xlink:href="#DejaVuSans-103"/>
      <use x="548.455078" xlink:href="#DejaVuSans-104"/>
      <use x="611.833984" xlink:href="#DejaVuSans-101"/>
      <use x="673.357422" xlink:href="#DejaVuSans-115"/>
      <use x="725.457031" xlink:href="#DejaVuSans-116"/>
      <use x="764.666016" xlink:href="#DejaVuSans-32"/>
      <use x="796.453125" xlink:href="#DejaVuSans-109"/>
      <use x="893.865234" xlink:href="#DejaVuSans-101"/>
      <use x="955.388672" xlink:href="#DejaVuSans-100"/>
      <use x="1018.865234" xlink:href="#DejaVuSans-105"/>
      <use x="1046.648438" xlink:href="#DejaVuSans-97"/>
      <use x="1107.927734" xlink:href="#DejaVuSans-110"/>
      <use x="1171.306641" xlink:href="#DejaVuSans-32"/>
      <use x="1203.09375" xlink:href="#DejaVuSans-99"/>
      <use x="1258.074219" xlink:href="#DejaVuSans-111"/>
      <use x="1319.255859" xlink:href="#DejaVuSans-118"/>
      <use x="1378.435547" xlink:href="#DejaVuSans-101"/>
      <use x="1439.958984" xlink:href="#DejaVuSans-114"/>
      <use x="1481.072266" xlink:href="#DejaVuSans-97"/>
      <use x="1542.351562" xlink:href="#DejaVuSans-103"/>
      <use x="1605.828125" xlink:href="#DejaVuSans-101"/>
      <use x="1667.351562" xlink:href="#DejaVuSans-32"/>
      <use x="1699.138672" xlink:href="#DejaVuSans-111"/>
      <use x="1760.320312" xlink:href="#DejaVuSans-110"/>
      <use x="1823.699219" xlink:href="#DejaVuSans-32"/>
      <use x="1855.486328" xlink:href="#DejaVuSans-116"/>
      <use x="1894.695312" xlink:href="#DejaVuSans-104"/>
      <use x="1958.074219" xlink:href="#DejaVuSans-101"/>
      <use x="2019.597656" xlink:href="#DejaVuSans-32"/>
      <use x="2051.384766" xlink:href="#DejaVuSans-108"/>
      <use x="2079.167969" xlink:href="#DejaVuSans-101"/>
      <use x="2140.691406" xlink:href="#DejaVuSans-102"/>
      <use x="2174.146484" xlink:href="#DejaVuSans-116"/>
      <use x="2213.355469" xlink:href="#DejaVuSans-41"/>
     </g>
    </g>
   </g>
   <g id="matplotlib.axis_2">
    <g id="ytick_1">
     <g id="line2d_6">
      <defs>
       <path d="M 0 0 
L -3.5 0 
" id="m1c6f8613e8" style="stroke:#000000;stroke-width:0.8;"/>
      </defs>
      <g>
       <use style="stroke:#000000;stroke-width:0.8;" x="59.690625" xlink:href="#m1c6f8613e8" y="276.334125"/>
      </g>
     </g>
     <g id="text_7">
      <!-- 0 -->
      <g transform="translate(46.328125 280.133344)scale(0.1 -0.1)">
       <defs>
        <path d="M 31.78125 66.40625 
Q 24.171875 66.40625 20.328125 58.90625 
Q 16.5 51.421875 16.5 36.375 
Q 16.5 21.390625 20.328125 13.890625 
Q 24.171875 6.390625 31.78125 6.390625 
Q 39.453125 6.390625 43.28125 13.890625 
Q 47.125 21.390625 47.125 36.375 
Q 47.125 51.421875 43.28125 58.90625 
Q 39.453125 66.40625 31.78125 66.40625 
z
M 31.78125 74.21875 
Q 44.046875 74.21875 50.515625 64.515625 
Q 56.984375 54.828125 56.984375 36.375 
Q 56.984375 17.96875 50.515625 8.265625 
Q 44.046875 -1.421875 31.78125 -1.421875 
Q 19.53125 -1.421875 13.0625 8.265625 
Q 6.59375 17.96875 6.59375 36.375 
Q 6.59375 54.828125 13.0625 64.515625 
Q 19.53125 74.21875 31.78125 74.21875 
z
" id="DejaVuSans-48"/>
       </defs>
       <use xlink:href="#DejaVuSans-48"/>
      </g>
     </g>
    </g>
    <g id="ytick_2">
     <g id="line2d_7">
      <g>
       <use style="stroke:#000000;stroke-width:0.8;" x="59.690625" xlink:href="#m1c6f8613e8" y="227.623538"/>
      </g>
     </g>
     <g id="text_8">
      <!-- 5000 -->
      <g transform="translate(27.240625 231.422756)scale(0.1 -0.1)">
       <defs>
        <path d="M 10.796875 72.90625 
L 49.515625 72.90625 
L 49.515625 64.59375 
L 19.828125 64.59375 
L 19.828125 46.734375 
Q 21.96875 47.46875 24.109375 47.828125 
Q 26.265625 48.1875 28.421875 48.1875 
Q 40.625 48.1875 47.75 41.5 
Q 54.890625 34.8125 54.890625 23.390625 
Q 54.890625 11.625 47.5625 5.09375 
Q 40.234375 -1.421875 26.90625 -1.421875 
Q 22.3125 -1.421875 17.546875 -0.640625 
Q 12.796875 0.140625 7.71875 1.703125 
L 7.71875 11.625 
Q 12.109375 9.234375 16.796875 8.0625 
Q 21.484375 6.890625 26.703125 6.890625 
Q 35.15625 6.890625 40.078125 11.328125 
Q 45.015625 15.765625 45.015625 23.390625 
Q 45.015625 31 40.078125 35.4375 
Q 35.15625 39.890625 26.703125 39.890625 
Q 22.75 39.890625 18.8125 39.015625 
Q 14.890625 38.140625 10.796875 36.28125 
z
" id="DejaVuSans-53"/>
       </defs>
       <use xlink:href="#DejaVuSans-53"/>
       <use x="63.623047" xlink:href="#DejaVuSans-48"/>
       <use x="127.246094" xlink:href="#DejaVuSans-48"/>
       <use x="190.869141" xlink:href="#DejaVuSans-48"/>
      </g>
     </g>
    </g>
    <g id="ytick_3">
     <g id="line2d_8">
      <g>
       <use style="stroke:#000000;stroke-width:0.8;" x="59.690625" xlink:href="#m1c6f8613e8" y="178.91295"/>
      </g>
     </g>
     <g id="text_9">
      <!-- 10000 -->
      <g transform="translate(20.878125 182.712169)scale(0.1 -0.1)">
       <defs>
        <path d="M 12.40625 8.296875 
L 28.515625 8.296875 
L 28.515625 63.921875 
L 10.984375 60.40625 
L 10.984375 69.390625 
L 28.421875 72.90625 
L 38.28125 72.90625 
L 38.28125 8.296875 
L 54.390625 8.296875 
L 54.390625 0 
L 12.40625 0 
z
" id="DejaVuSans-49"/>
       </defs>
       <use xlink:href="#DejaVuSans-49"/>
       <use x="63.623047" xlink:href="#DejaVuSans-48"/>
       <use x="127.246094" xlink:href="#DejaVuSans-48"/>
       <use x="190.869141" xlink:href="#DejaVuSans-48"/>
       <use x="254.492188" xlink:href="#DejaVuSans-48"/>
      </g>
     </g>
    </g>
    <g id="ytick_4">
     <g id="line2d_9">
      <g>
       <use style="stroke:#000000;stroke-width:0.8;" x="59.690625" xlink:href="#m1c6f8613e8" y="130.202363"/>
      </g>
     </g>
     <g id="text_10">
      <!-- 15000 -->
      <g transform="translate(20.878125 134.001581)scale(0.1 -0.1)">
       <use xlink:href="#DejaVuSans-49"/>
       <use x="63.623047" xlink:href="#DejaVuSans-53"/>
       <use x="127.246094" xlink:href="#DejaVuSans-48"/>
       <use x="190.869141" xlink:href="#DejaVuSans-48"/>
       <use x="254.492188" xlink:href="#DejaVuSans-48"/>
      </g>
     </g>
    </g>
    <g id="ytick_5">
     <g id="line2d_10">
      <g>
       <use style="stroke:#000000;stroke-width:0.8;" x="59.690625" xlink:href="#m1c6f8613e8" y="81.491775"/>
      </g>
     </g>
     <g id="text_11">
      <!-- 20000 -->
      <g transform="translate(20.878125 85.290994)scale(0.1 -0.1)">
       <defs>
        <path d="M 19.1875 8.296875 
L 53.609375 8.296875 
L 53.609375 0 
L 7.328125 0 
L 7.328125 8.296875 
Q 12.9375 14.109375 22.625 23.890625 
Q 32.328125 33.6875 34.8125 36.53125 
Q 39.546875 41.84375 41.421875 45.53125 
Q 43.3125 49.21875 43.3125 52.78125 
Q 43.3125 58.59375 39.234375 62.25 
Q 35.15625 65.921875 28.609375 65.921875 
Q 23.96875 65.921875 18.8125 64.3125 
Q 13.671875 62.703125 7.8125 59.421875 
L 7.8125 69.390625 
Q 13.765625 71.78125 18.9375 73 
Q 24.125 74.21875 28.421875 74.21875 
Q 39.75 74.21875 46.484375 68.546875 
Q 53.21875 62.890625 53.21875 53.421875 
Q 53.21875 48.921875 51.53125 44.890625 
Q 49.859375 40.875 45.40625 35.40625 
Q 44.1875 33.984375 37.640625 27.21875 
Q 31.109375 20.453125 19.1875 8.296875 
z
" id="DejaVuSans-50"/>
       </defs>
       <use xlink:href="#DejaVuSans-50"/>
       <use x="63.623047" xlink:href="#DejaVuSans-48"/>
       <use x="127.246094" xlink:href="#DejaVuSans-48"/>
       <use x="190.869141" xlink:href="#DejaVuSans-48"/>
       <use x="254.492188" xlink:href="#DejaVuSans-48"/>
      </g>
     </g>
    </g>
    <g id="ytick_6">
     <g id="line2d_11">
      <g>
       <use style="stroke:#000000;stroke-width:0.8;" x="59.690625" xlink:href="#m1c6f8613e8" y="32.781188"/>
      </g>
     </g>
     <g id="text_12">
      <!-- 25000 -->
      <g transform="translate(20.878125 36.580406)scale(0.1 -0.1)">
       <use xlink:href="#DejaVuSans-50"/>
       <use x="63.623047" xlink:href="#DejaVuSans-53"/>
       <use x="127.246094" xlink:href="#DejaVuSans-48"/>
       <use x="190.869141" xlink:href="#DejaVuSans-48"/>
       <use x="254.492188" xlink:href="#DejaVuSans-48"/>
      </g>
     </g>
    </g>
    <g id="text_13">
     <!-- Reached region coverage -->
     <g transform="translate(14.798438 219.136625)rotate(-90)scale(0.1 -0.1)">
      <defs>
       <path d="M 44.390625 34.1875 
Q 47.5625 33.109375 50.5625 29.59375 
Q 53.5625 26.078125 56.59375 19.921875 
L 66.609375 0 
L 56 0 
L 46.6875 18.703125 
Q 43.0625 26.03125 39.671875 28.421875 
Q 36.28125 30.8125 30.421875 30.8125 
L 19.671875 30.8125 
L 19.671875 0 
L 9.8125 0 
L 9.8125 72.90625 
L 32.078125 72.90625 
Q 44.578125 72.90625 50.734375 67.671875 
Q 56.890625 62.453125 56.890625 51.90625 
Q 56.890625 45.015625 53.6875 40.46875 
Q 50.484375 35.9375 44.390625 34.1875 
z
M 19.671875 64.796875 
L 19.671875 38.921875 
L 32.078125 38.921875 
Q 39.203125 38.921875 42.84375 42.21875 
Q 46.484375 45.515625 46.484375 51.90625 
Q 46.484375 58.296875 42.84375 61.546875 
Q 39.203125 64.796875 32.078125 64.796875 
z
" id="DejaVuSans-82"/>
      </defs>
      <use xlink:href="#DejaVuSans-82"/>
      <use x="64.982422" xlink:href="#DejaVuSans-101"/>
      <use x="126.505859" xlink:href="#DejaVuSans-97"/>
      <use x="187.785156" xlink:href="#DejaVuSans-99"/>
      <use x="242.765625" xlink:href="#DejaVuSans-104"/>
      <use x="306.144531" xlink:href="#DejaVuSans-101"/>
      <use x="367.667969" xlink:href="#DejaVuSans-100"/>
      <use x="431.144531" xlink:href="#DejaVuSans-32"/>
      <use x="462.931641" xlink:href="#DejaVuSans-114"/>
      <use x="501.794922" xlink:href="#DejaVuSans-101"/>
      <use x="563.318359" xlink:href="#DejaVuSans-103"/>
      <use x="626.794922" xlink:href="#DejaVuSans-105"/>
      <use x="654.578125" xlink:href="#DejaVuSans-111"/>
      <use x="715.759766" xlink:href="#DejaVuSans-110"/>
      <use x="779.138672" xlink:href="#DejaVuSans-32"/>
      <use x="810.925781" xlink:href="#DejaVuSans-99"/>
      <use x="865.90625" xlink:href="#DejaVuSans-111"/>
      <use x="927.087891" xlink:href="#DejaVuSans-118"/>
      <use x="986.267578" xlink:href="#DejaVuSans-101"/>
      <use x="1047.791016" xlink:href="#DejaVuSans-114"/>
      <use x="1088.904297" xlink:href="#DejaVuSans-97"/>
      <use x="1150.183594" xlink:href="#DejaVuSans-103"/>
      <use x="1213.660156" xlink:href="#DejaVuSans-101"/>
     </g>
    </g>
   </g>
   <g id="line2d_12">
    <path clip-path="url(#pafd5541520)" d="M 95.402625 70.405245 
L 95.402625 51.339921 
" style="fill:none;stroke:#3f3f3f;stroke-linecap:square;stroke-width:1.5;"/>
   </g>
   <g id="line2d_13">
    <path clip-path="url(#pafd5541520)" d="M 95.402625 69.538197 
L 95.402625 60.005535 
" style="fill:none;stroke:#3f3f3f;stroke-linecap:square;stroke-width:4.5;"/>
   </g>
   <g id="line2d_14">
    <path clip-path="url(#pafd5541520)" d="M 166.826625 87.03504 
L 166.826625 81.150801 
" style="fill:none;stroke:#3f3f3f;stroke-linecap:square;stroke-width:1.5;"/>
   </g>
   <g id="line2d_15">
    <path clip-path="url(#pafd5541520)" d="M 166.826625 85.174296 
L 166.826625 82.806961 
" style="fill:none;stroke:#3f3f3f;stroke-linecap:square;stroke-width:4.5;"/>
   </g>
   <g id="line2d_16">
    <path clip-path="url(#pafd5541520)" d="M 238.250625 88.778879 
L 238.250625 80.614985 
" style="fill:none;stroke:#3f3f3f;stroke-linecap:square;stroke-width:1.5;"/>
   </g>
   <g id="line2d_17">
    <path clip-path="url(#pafd5541520)" d="M 238.250625 88.778879 
L 238.250625 83.625299 
" style="fill:none;stroke:#3f3f3f;stroke-linecap:square;stroke-width:4.5;"/>
   </g>
   <g id="line2d_18">
    <path clip-path="url(#pafd5541520)" d="M 309.674625 93.903233 
L 309.674625 89.032174 
" style="fill:none;stroke:#3f3f3f;stroke-linecap:square;stroke-width:1.5;"/>
   </g>
   <g id="line2d_19">
    <path clip-path="url(#pafd5541520)" d="M 309.674625 93.552517 
L 309.674625 89.733607 
" style="fill:none;stroke:#3f3f3f;stroke-linecap:square;stroke-width:4.5;"/>
   </g>
   <g id="line2d_20">
    <path clip-path="url(#pafd5541520)" d="M 352.529025 276.334125 
L 409.668225 276.334125 
" style="fill:none;stroke:#3f3f3f;stroke-linecap:square;stroke-width:1.5;"/>
   </g>
   <g id="patch_3">
    <path d="M 59.690625 276.334125 
L 59.690625 32.781188 
" style="fill:none;stroke:#000000;stroke-linecap:square;stroke-linejoin:miter;stroke-width:0.8;"/>
   </g>
   <g id="patch_4">
    <path d="M 95.402625 288.430125 
L 381.098625 288.430125 
" style="fill:none;stroke:#000000;stroke-linecap:square;stroke-linejoin:miter;stroke-width:0.8;"/>
   </g>
   <g id="PathCollection_1">
    <defs>
     <path d="M 0 1.5 
C 0.397805 1.5 0.77937 1.341951 1.06066 1.06066 
C 1.341951 0.77937 1.5 0.397805 1.5 0 
C 1.5 -0.397805 1.341951 -0.77937 1.06066 -1.06066 
C 0.77937 -1.341951 0.397805 -1.5 0 -1.5 
C -0.397805 -1.5 -0.77937 -1.341951 -1.06066 -1.06066 
C -1.341951 -0.77937 -1.5 -0.397805 -1.5 0 
C -1.5 0.397805 -1.341951 0.77937 -1.06066 1.06066 
C -0.77937 1.341951 -0.397805 1.5 0 1.5 
z
" id="m5851b41913" style="stroke:#3f3f3f;"/>
    </defs>
    <g clip-path="url(#pafd5541520)">
     <use style="fill:#ffffff;stroke:#3f3f3f;" x="95.402625" xlink:href="#m5851b41913" y="68.671148"/>
    </g>
   </g>
   <g id="PathCollection_2">
    <g clip-path="url(#pafd5541520)">
     <use style="fill:#ffffff;stroke:#3f3f3f;" x="166.826625" xlink:href="#m5851b41913" y="84.336473"/>
    </g>
   </g>
   <g id="PathCollection_3">
    <g clip-path="url(#pafd5541520)">
     <use style="fill:#ffffff;stroke:#3f3f3f;" x="238.250625" xlink:href="#m5851b41913" y="86.236186"/>
    </g>
   </g>
   <g id="PathCollection_4">
    <g clip-path="url(#pafd5541520)">
     <use style="fill:#ffffff;stroke:#3f3f3f;" x="309.674625" xlink:href="#m5851b41913" y="90.503234"/>
    </g>
   </g>
   <g id="text_14">
    <!-- sqlite3_ossfuzz (1h:15m, 3 trials/fuzzer) -->
    <g transform="translate(118.390313 16.318125)scale(0.12 -0.12)">
     <defs>
      <path d="M 14.796875 27.296875 
Q 14.796875 17.390625 18.875 11.75 
Q 22.953125 6.109375 30.078125 6.109375 
Q 37.203125 6.109375 41.296875 11.75 
Q 45.40625 17.390625 45.40625 27.296875 
Q 45.40625 37.203125 41.296875 42.84375 
Q 37.203125 48.484375 30.078125 48.484375 
Q 22.953125 48.484375 18.875 42.84375 
Q 14.796875 37.203125 14.796875 27.296875 
z
M 45.40625 8.203125 
Q 42.578125 3.328125 38.25 0.953125 
Q 33.9375 -1.421875 27.875 -1.421875 
Q 17.96875 -1.421875 11.734375 6.484375 
Q 5.515625 14.40625 5.515625 27.296875 
Q 5.515625 40.1875 11.734375 48.09375 
Q 17.96875 56 27.875 56 
Q 33.9375 56 38.25 53.625 
Q 42.578125 51.265625 45.40625 46.390625 
L 45.40625 54.6875 
L 54.390625 54.6875 
L 54.390625 -20.796875 
L 45.40625 -20.796875 
z
" id="DejaVuSans-113"/>
      <path d="M 40.578125 39.3125 
Q 47.65625 37.796875 51.625 33 
Q 55.609375 28.21875 55.609375 21.1875 
Q 55.609375 10.40625 48.1875 4.484375 
Q 40.765625 -1.421875 27.09375 -1.421875 
Q 22.515625 -1.421875 17.65625 -0.515625 
Q 12.796875 0.390625 7.625 2.203125 
L 7.625 11.71875 
Q 11.71875 9.328125 16.59375 8.109375 
Q 21.484375 6.890625 26.8125 6.890625 
Q 36.078125 6.890625 40.9375 10.546875 
Q 45.796875 14.203125 45.796875 21.1875 
Q 45.796875 27.640625 41.28125 31.265625 
Q 36.765625 34.90625 28.71875 34.90625 
L 20.21875 34.90625 
L 20.21875 43.015625 
L 29.109375 43.015625 
Q 36.375 43.015625 40.234375 45.921875 
Q 44.09375 48.828125 44.09375 54.296875 
Q 44.09375 59.90625 40.109375 62.90625 
Q 36.140625 65.921875 28.71875 65.921875 
Q 24.65625 65.921875 20.015625 65.03125 
Q 15.375 64.15625 9.8125 62.3125 
L 9.8125 71.09375 
Q 15.4375 72.65625 20.34375 73.4375 
Q 25.25 74.21875 29.59375 74.21875 
Q 40.828125 74.21875 47.359375 69.109375 
Q 53.90625 64.015625 53.90625 55.328125 
Q 53.90625 49.265625 50.4375 45.09375 
Q 46.96875 40.921875 40.578125 39.3125 
z
" id="DejaVuSans-51"/>
      <path d="M 50.984375 -16.609375 
L 50.984375 -23.578125 
L -0.984375 -23.578125 
L -0.984375 -16.609375 
z
" id="DejaVuSans-95"/>
      <path d="M 11.71875 12.40625 
L 22.015625 12.40625 
L 22.015625 0 
L 11.71875 0 
z
M 11.71875 51.703125 
L 22.015625 51.703125 
L 22.015625 39.3125 
L 11.71875 39.3125 
z
" id="DejaVuSans-58"/>
      <path d="M 11.71875 12.40625 
L 22.015625 12.40625 
L 22.015625 4 
L 14.015625 -11.625 
L 7.71875 -11.625 
L 11.71875 4 
z
" id="DejaVuSans-44"/>
      <path d="M 25.390625 72.90625 
L 33.6875 72.90625 
L 8.296875 -9.28125 
L 0 -9.28125 
z
" id="DejaVuSans-47"/>
     </defs>
     <use xlink:href="#DejaVuSans-115"/>
     <use x="52.099609" xlink:href="#DejaVuSans-113"/>
     <use x="115.576172" xlink:href="#DejaVuSans-108"/>
     <use x="143.359375" xlink:href="#DejaVuSans-105"/>
     <use x="171.142578" xlink:href="#DejaVuSans-116"/>
     <use x="210.351562" xlink:href="#DejaVuSans-101"/>
     <use x="271.875" xlink:href="#DejaVuSans-51"/>
     <use x="335.498047" xlink:href="#DejaVuSans-95"/>
     <use x="385.498047" xlink:href="#DejaVuSans-111"/>
     <use x="446.679688" xlink:href="#DejaVuSans-115"/>
     <use x="498.779297" xlink:href="#DejaVuSans-115"/>
     <use x="550.878906" xlink:href="#DejaVuSans-102"/>
     <use x="586.083984" xlink:href="#DejaVuSans-117"/>
     <use x="649.462891" xlink:href="#DejaVuSans-122"/>
     <use x="701.953125" xlink:href="#DejaVuSans-122"/>
     <use x="754.443359" xlink:href="#DejaVuSans-32"/>
     <use x="786.230469" xlink:href="#DejaVuSans-40"/>
     <use x="825.244141" xlink:href="#DejaVuSans-49"/>
     <use x="888.867188" xlink:href="#DejaVuSans-104"/>
     <use x="952.246094" xlink:href="#DejaVuSans-58"/>
     <use x="985.9375" xlink:href="#DejaVuSans-49"/>
     <use x="1049.560547" xlink:href="#DejaVuSans-53"/>
     <use x="1113.183594" xlink:href="#DejaVuSans-109"/>
     <use x="1210.595703" xlink:href="#DejaVuSans-44"/>
     <use x="1242.382812" xlink:href="#DejaVuSans-32"/>
     <use x="1274.169922" xlink:href="#DejaVuSans-51"/>
     <use x="1337.792969" xlink:href="#DejaVuSans-32"/>
     <use x="1369.580078" xlink:href="#DejaVuSans-116"/>
     <use x="1408.789062" xlink:href="#DejaVuSans-114"/>
     <use x="1449.902344" xlink:href="#DejaVuSans-105"/>
     <use x="1477.685547" xlink:href="#DejaVuSans-97"/>
     <use x="1538.964844" xlink:href="#DejaVuSans-108"/>
     <use x="1566.748047" xlink:href="#DejaVuSans-115"/>
     <use x="1618.847656" xlink:href="#DejaVuSans-47"/>
     <use x="1652.539062" xlink:href="#DejaVuSans-102"/>
     <use x="1687.744141" xlink:href="#DejaVuSans-117"/>
     <use x="1751.123047" xlink:href="#DejaVuSans-122"/>
     <use x="1803.613281" xlink:href="#DejaVuSans-122"/>
     <use x="1856.103516" xlink:href="#DejaVuSans-101"/>
     <use x="1917.626953" xlink:href="#DejaVuSans-114"/>
     <use x="1958.740234" xlink:href="#DejaVuSans-41"/>
    </g>
   </g>
  </g>
 </g>
 <defs>
  <clipPath id="pafd5541520">
   <rect height="266.112" width="357.12" x="59.690625" y="22.318125"/>
  </clipPath>
 </defs>
</svg>
