<?xml version="1.0" encoding="utf-8" standalone="no"?>
<!DOCTYPE svg PUBLIC "-//W3C//DTD SVG 1.1//EN"
  "http://www.w3.org/Graphics/SVG/1.1/DTD/svg11.dtd">
<!-- Created with matplotlib (https://matplotlib.org/) -->
<svg height="351.576471pt" version="1.1" viewBox="0 0 417.648125 351.576471" width="417.648125pt" xmlns="http://www.w3.org/2000/svg" xmlns:xlink="http://www.w3.org/1999/xlink">
 <metadata>
  <rdf:RDF xmlns:cc="http://creativecommons.org/ns#" xmlns:dc="http://purl.org/dc/elements/1.1/" xmlns:rdf="http://www.w3.org/1999/02/22-rdf-syntax-ns#">
   <cc:Work>
    <dc:type rdf:resource="http://purl.org/dc/dcmitype/StillImage"/>
    <dc:date>2020-10-17T07:19:45.963831</dc:date>
    <dc:format>image/svg+xml</dc:format>
    <dc:creator>
     <cc:Agent>
      <dc:title>Matplotlib v3.3.2, https://matplotlib.org/</dc:title>
     </cc:Agent>
    </dc:creator>
   </cc:Work>
  </rdf:RDF>
 </metadata>
 <defs>
  <style type="text/css">*{stroke-linecap:butt;stroke-linejoin:round;}</style>
 </defs>
 <g id="figure_1">
  <g id="patch_1">
   <path d="M 0 351.576471 
L 417.648125 351.576471 
L 417.648125 0 
L 0 0 
z
" style="fill:#ffffff;"/>
  </g>
  <g id="axes_1">
   <g id="patch_2">
    <path d="M 53.328125 288.430125 
L 410.448125 288.430125 
L 410.448125 22.318125 
L 53.328125 22.318125 
z
" style="fill:#ffffff;"/>
   </g>
   <g id="PolyCollection_1">
    <defs>
     <path d="M 98.154472 -75.242346 
L 97.781778 -75.242346 
L 97.751929 -77.685982 
L 97.718727 -80.129619 
L 97.682065 -82.573255 
L 97.641881 -85.016891 
L 97.598167 -87.460528 
L 97.550979 -89.904164 
L 97.50044 -92.3478 
L 97.446747 -94.791437 
L 97.390175 -97.235073 
L 97.331077 -99.678709 
L 97.269883 -102.122346 
L 97.207097 -104.565982 
L 97.143289 -107.009619 
L 97.079088 -109.453255 
L 97.015165 -111.896891 
L 96.952221 -114.340528 
L 96.890968 -116.784164 
L 96.83211 -119.2278 
L 96.776318 -121.671437 
L 96.724209 -124.115073 
L 96.676324 -126.558709 
L 96.633104 -129.002346 
L 96.594867 -131.445982 
L 96.561792 -133.889619 
L 96.533898 -136.333255 
L 96.511036 -138.776891 
L 96.492875 -141.220528 
L 96.478899 -143.664164 
L 96.468409 -146.1078 
L 96.460529 -148.551437 
L 96.454216 -150.995073 
L 96.448279 -153.438709 
L 96.4414 -155.882346 
L 96.432159 -158.325982 
L 96.419069 -160.769619 
L 96.400609 -163.213255 
L 96.375261 -165.656891 
L 96.341553 -168.100528 
L 96.298094 -170.544164 
L 96.243623 -172.9878 
L 96.177043 -175.431437 
L 96.097461 -177.875073 
L 96.004225 -180.318709 
L 95.896953 -182.762346 
L 95.775561 -185.205982 
L 95.640281 -187.649619 
L 95.491676 -190.093255 
L 95.330647 -192.536891 
L 95.158429 -194.980528 
L 94.976581 -197.424164 
L 94.786968 -199.8678 
L 94.591736 -202.311437 
L 94.393272 -204.755073 
L 94.194167 -207.198709 
L 93.997163 -209.642346 
L 93.8051 -212.085982 
L 93.620858 -214.529619 
L 93.447293 -216.973255 
L 93.287179 -219.416891 
L 93.14314 -221.860528 
L 93.017596 -224.304164 
L 92.912705 -226.7478 
L 92.830315 -229.191437 
L 92.771922 -231.635073 
L 92.738634 -234.078709 
L 92.731153 -236.522346 
L 92.749755 -238.965982 
L 92.794292 -241.409619 
L 92.864201 -243.853255 
L 92.958517 -246.296891 
L 93.075907 -248.740528 
L 93.214702 -251.184164 
L 93.372944 -253.6278 
L 93.548434 -256.071437 
L 93.738787 -258.515073 
L 93.941487 -260.958709 
L 94.153944 -263.402346 
L 94.373552 -265.845982 
L 94.597738 -268.289619 
L 94.824016 -270.733255 
L 95.050027 -273.176891 
L 95.27358 -275.620528 
L 95.49268 -278.064164 
L 95.705554 -280.5078 
L 95.910668 -282.951437 
L 96.106735 -285.395073 
L 96.292717 -287.838709 
L 96.467824 -290.282346 
L 96.631502 -292.725982 
L 96.78342 -295.169619 
L 96.923454 -297.613255 
L 97.051663 -300.056891 
L 97.168267 -302.500528 
L 97.273626 -304.944164 
L 97.368213 -307.3878 
L 97.45259 -309.831437 
L 97.527388 -312.275073 
L 97.593283 -314.718709 
L 97.650977 -317.162346 
L 98.285273 -317.162346 
L 98.285273 -317.162346 
L 98.342967 -314.718709 
L 98.408862 -312.275073 
L 98.48366 -309.831437 
L 98.568037 -307.3878 
L 98.662624 -304.944164 
L 98.767983 -302.500528 
L 98.884587 -300.056891 
L 99.012796 -297.613255 
L 99.15283 -295.169619 
L 99.304748 -292.725982 
L 99.468426 -290.282346 
L 99.643533 -287.838709 
L 99.829515 -285.395073 
L 100.025582 -282.951437 
L 100.230696 -280.5078 
L 100.44357 -278.064164 
L 100.66267 -275.620528 
L 100.886223 -273.176891 
L 101.112234 -270.733255 
L 101.338512 -268.289619 
L 101.562698 -265.845982 
L 101.782306 -263.402346 
L 101.994763 -260.958709 
L 102.197463 -258.515073 
L 102.387816 -256.071437 
L 102.563306 -253.6278 
L 102.721548 -251.184164 
L 102.860343 -248.740528 
L 102.977733 -246.296891 
L 103.072049 -243.853255 
L 103.141958 -241.409619 
L 103.186495 -238.965982 
L 103.205097 -236.522346 
L 103.197616 -234.078709 
L 103.164328 -231.635073 
L 103.105935 -229.191437 
L 103.023545 -226.7478 
L 102.918654 -224.304164 
L 102.79311 -221.860528 
L 102.649071 -219.416891 
L 102.488957 -216.973255 
L 102.315392 -214.529619 
L 102.13115 -212.085982 
L 101.939087 -209.642346 
L 101.742083 -207.198709 
L 101.542978 -204.755073 
L 101.344514 -202.311437 
L 101.149282 -199.8678 
L 100.959669 -197.424164 
L 100.777821 -194.980528 
L 100.605603 -192.536891 
L 100.444574 -190.093255 
L 100.295969 -187.649619 
L 100.160689 -185.205982 
L 100.039297 -182.762346 
L 99.932025 -180.318709 
L 99.838789 -177.875073 
L 99.759207 -175.431437 
L 99.692627 -172.9878 
L 99.638156 -170.544164 
L 99.594697 -168.100528 
L 99.560989 -165.656891 
L 99.535641 -163.213255 
L 99.517181 -160.769619 
L 99.504091 -158.325982 
L 99.49485 -155.882346 
L 99.487971 -153.438709 
L 99.482034 -150.995073 
L 99.475721 -148.551437 
L 99.467841 -146.1078 
L 99.457351 -143.664164 
L 99.443375 -141.220528 
L 99.425214 -138.776891 
L 99.402352 -136.333255 
L 99.374458 -133.889619 
L 99.341383 -131.445982 
L 99.303146 -129.002346 
L 99.259926 -126.558709 
L 99.212041 -124.115073 
L 99.159932 -121.671437 
L 99.10414 -119.2278 
L 99.045282 -116.784164 
L 98.984029 -114.340528 
L 98.921085 -111.896891 
L 98.857162 -109.453255 
L 98.792961 -107.009619 
L 98.729153 -104.565982 
L 98.666367 -102.122346 
L 98.605173 -99.678709 
L 98.546075 -97.235073 
L 98.489503 -94.791437 
L 98.43581 -92.3478 
L 98.385271 -89.904164 
L 98.338083 -87.460528 
L 98.294369 -85.016891 
L 98.254185 -82.573255 
L 98.217523 -80.129619 
L 98.184321 -77.685982 
L 98.154472 -75.242346 
z
" id="med44a78418" style="stroke:#3f3f3f;stroke-width:1.5;"/>
    </defs>
    <g clip-path="url(#pd7444d83f2)">
     <use style="fill:#e1812c;stroke:#3f3f3f;stroke-width:1.5;" x="0" xlink:href="#med44a78418" y="351.576471"/>
    </g>
   </g>
   <g id="PolyCollection_2">
    <defs>
     <path d="M 188.884185 -207.058471 
L 185.612065 -207.058471 
L 185.336102 -207.496218 
L 185.025596 -207.933965 
L 184.678495 -208.371713 
L 184.293024 -208.80946 
L 183.867765 -209.247208 
L 183.401726 -209.684955 
L 182.894414 -210.122703 
L 182.345899 -210.56045 
L 181.756871 -210.998197 
L 181.128677 -211.435945 
L 180.463353 -211.873692 
L 179.763629 -212.31144 
L 179.032921 -212.749187 
L 178.275296 -213.186934 
L 177.49542 -213.624682 
L 176.698483 -214.062429 
L 175.890105 -214.500177 
L 175.076228 -214.937924 
L 174.262985 -215.375671 
L 173.456575 -215.813419 
L 172.663119 -216.251166 
L 171.888527 -216.688914 
L 171.13837 -217.126661 
L 170.417757 -217.564409 
L 169.731241 -218.002156 
L 169.082738 -218.439903 
L 168.475471 -218.877651 
L 167.911946 -219.315398 
L 167.393952 -219.753146 
L 166.922585 -220.190893 
L 166.498302 -220.62864 
L 166.120996 -221.066388 
L 165.790082 -221.504135 
L 165.504599 -221.941883 
L 165.263317 -222.37963 
L 165.064843 -222.817377 
L 164.907717 -223.255125 
L 164.790497 -223.692872 
L 164.711832 -224.13062 
L 164.670505 -224.568367 
L 164.665466 -225.006115 
L 164.695829 -225.443862 
L 164.760862 -225.881609 
L 164.859944 -226.319357 
L 164.992518 -226.757104 
L 165.158027 -227.194852 
L 165.355851 -227.632599 
L 165.585236 -228.070346 
L 165.845238 -228.508094 
L 166.134675 -228.945841 
L 166.45209 -229.383589 
L 166.795743 -229.821336 
L 167.163608 -230.259083 
L 167.553405 -230.696831 
L 167.96264 -231.134578 
L 168.388669 -231.572326 
L 168.828769 -232.010073 
L 169.280222 -232.447821 
L 169.740396 -232.885568 
L 170.206832 -233.323315 
L 170.677316 -233.761063 
L 171.149944 -234.19881 
L 171.623166 -234.636558 
L 172.095818 -235.074305 
L 172.567129 -235.512052 
L 173.036707 -235.9498 
L 173.504506 -236.387547 
L 173.970777 -236.825295 
L 174.436003 -237.263042 
L 174.900822 -237.70079 
L 175.365945 -238.138537 
L 175.832075 -238.576284 
L 176.29982 -239.014032 
L 176.769626 -239.451779 
L 177.241712 -239.889527 
L 177.716023 -240.327274 
L 178.192192 -240.765021 
L 178.669535 -241.202769 
L 179.147043 -241.640516 
L 179.623409 -242.078264 
L 180.097055 -242.516011 
L 180.566183 -242.953758 
L 181.028831 -243.391506 
L 181.48293 -243.829253 
L 181.926378 -244.267001 
L 182.357099 -244.704748 
L 182.77311 -245.142496 
L 183.172577 -245.580243 
L 183.553866 -246.01799 
L 183.915581 -246.455738 
L 184.256597 -246.893485 
L 184.576077 -247.331233 
L 184.873484 -247.76898 
L 185.148572 -248.206727 
L 185.401387 -248.644475 
L 185.632237 -249.082222 
L 185.841673 -249.51997 
L 186.030459 -249.957717 
L 186.199535 -250.395464 
L 188.296715 -250.395464 
L 188.296715 -250.395464 
L 188.465791 -249.957717 
L 188.654577 -249.51997 
L 188.864013 -249.082222 
L 189.094863 -248.644475 
L 189.347678 -248.206727 
L 189.622766 -247.76898 
L 189.920173 -247.331233 
L 190.239653 -246.893485 
L 190.580669 -246.455738 
L 190.942384 -246.01799 
L 191.323673 -245.580243 
L 191.72314 -245.142496 
L 192.139151 -244.704748 
L 192.569872 -244.267001 
L 193.01332 -243.829253 
L 193.467419 -243.391506 
L 193.930067 -242.953758 
L 194.399195 -242.516011 
L 194.872841 -242.078264 
L 195.349207 -241.640516 
L 195.826715 -241.202769 
L 196.304058 -240.765021 
L 196.780227 -240.327274 
L 197.254538 -239.889527 
L 197.726624 -239.451779 
L 198.19643 -239.014032 
L 198.664175 -238.576284 
L 199.130305 -238.138537 
L 199.595428 -237.70079 
L 200.060247 -237.263042 
L 200.525473 -236.825295 
L 200.991744 -236.387547 
L 201.459543 -235.9498 
L 201.929121 -235.512052 
L 202.400432 -235.074305 
L 202.873084 -234.636558 
L 203.346306 -234.19881 
L 203.818934 -233.761063 
L 204.289418 -233.323315 
L 204.755854 -232.885568 
L 205.216028 -232.447821 
L 205.667481 -232.010073 
L 206.107581 -231.572326 
L 206.53361 -231.134578 
L 206.942845 -230.696831 
L 207.332642 -230.259083 
L 207.700507 -229.821336 
L 208.04416 -229.383589 
L 208.361575 -228.945841 
L 208.651012 -228.508094 
L 208.911014 -228.070346 
L 209.140399 -227.632599 
L 209.338223 -227.194852 
L 209.503732 -226.757104 
L 209.636306 -226.319357 
L 209.735388 -225.881609 
L 209.800421 -225.443862 
L 209.830784 -225.006115 
L 209.825745 -224.568367 
L 209.784418 -224.13062 
L 209.705753 -223.692872 
L 209.588533 -223.255125 
L 209.431407 -222.817377 
L 209.232933 -222.37963 
L 208.991651 -221.941883 
L 208.706168 -221.504135 
L 208.375254 -221.066388 
L 207.997948 -220.62864 
L 207.573665 -220.190893 
L 207.102298 -219.753146 
L 206.584304 -219.315398 
L 206.020779 -218.877651 
L 205.413512 -218.439903 
L 204.765009 -218.002156 
L 204.078493 -217.564409 
L 203.35788 -217.126661 
L 202.607723 -216.688914 
L 201.833131 -216.251166 
L 201.039675 -215.813419 
L 200.233265 -215.375671 
L 199.420022 -214.937924 
L 198.606145 -214.500177 
L 197.797767 -214.062429 
L 197.00083 -213.624682 
L 196.220954 -213.186934 
L 195.463329 -212.749187 
L 194.732621 -212.31144 
L 194.032897 -211.873692 
L 193.367573 -211.435945 
L 192.739379 -210.998197 
L 192.150351 -210.56045 
L 191.601836 -210.122703 
L 191.094524 -209.684955 
L 190.628485 -209.247208 
L 190.203226 -208.80946 
L 189.817755 -208.371713 
L 189.470654 -207.933965 
L 189.160148 -207.496218 
L 188.884185 -207.058471 
z
" id="m8e3ed4a5b7" style="stroke:#3f3f3f;stroke-width:1.5;"/>
    </defs>
    <g clip-path="url(#pd7444d83f2)">
     <use style="fill:#9fd495;stroke:#3f3f3f;stroke-width:1.5;" x="0" xlink:href="#m8e3ed4a5b7" y="351.576471"/>
    </g>
   </g>
   <g id="PolyCollection_3">
    <defs>
     <path d="M 277.782489 -191.378822 
L 275.273761 -191.378822 
L 275.062043 -191.760087 
L 274.825049 -192.141352 
L 274.561772 -192.522617 
L 274.271532 -192.903882 
L 273.954032 -193.285147 
L 273.609411 -193.666412 
L 273.23828 -194.047677 
L 272.841746 -194.428942 
L 272.421428 -194.810207 
L 271.979438 -195.191472 
L 271.518352 -195.572737 
L 271.041153 -195.954002 
L 270.551151 -196.335268 
L 270.05188 -196.716533 
L 269.546975 -197.097798 
L 269.040032 -197.479063 
L 268.534452 -197.860328 
L 268.033286 -198.241593 
L 267.539076 -198.622858 
L 267.053704 -199.004123 
L 266.578258 -199.385388 
L 266.112929 -199.766653 
L 265.656933 -200.147918 
L 265.208474 -200.529183 
L 264.764759 -200.910448 
L 264.322052 -201.291714 
L 263.875785 -201.672979 
L 263.420715 -202.054244 
L 262.951127 -202.435509 
L 262.461081 -202.816774 
L 261.944681 -203.198039 
L 261.396376 -203.579304 
L 260.811263 -203.960569 
L 260.185387 -204.341834 
L 259.516024 -204.723099 
L 258.801925 -205.104364 
L 258.043524 -205.485629 
L 257.243082 -205.866894 
L 256.404763 -206.24816 
L 255.534647 -206.629425 
L 254.640648 -207.01069 
L 253.732379 -207.391955 
L 252.820922 -207.77322 
L 251.918547 -208.154485 
L 251.03837 -208.53575 
L 250.193972 -208.917015 
L 249.39899 -209.29828 
L 248.6667 -209.679545 
L 248.009611 -210.06081 
L 247.439078 -210.442075 
L 246.964969 -210.82334 
L 246.595378 -211.204605 
L 246.336408 -211.585871 
L 246.192033 -211.967136 
L 246.164041 -212.348401 
L 246.252049 -212.729666 
L 246.453602 -213.110931 
L 246.764344 -213.492196 
L 247.178236 -213.873461 
L 247.687834 -214.254726 
L 248.284595 -214.635991 
L 248.959189 -215.017256 
L 249.701829 -215.398521 
L 250.502577 -215.779786 
L 251.351622 -216.161051 
L 252.239528 -216.542317 
L 253.157431 -216.923582 
L 254.09719 -217.304847 
L 255.051482 -217.686112 
L 256.013852 -218.067377 
L 256.97871 -218.448642 
L 257.941292 -218.829907 
L 258.897588 -219.211172 
L 259.844243 -219.592437 
L 260.778447 -219.973702 
L 261.697819 -220.354967 
L 262.600292 -220.736232 
L 263.484013 -221.117497 
L 264.347254 -221.498763 
L 265.188345 -221.880028 
L 266.005631 -222.261293 
L 266.79745 -222.642558 
L 267.562127 -223.023823 
L 268.297998 -223.405088 
L 269.003436 -223.786353 
L 269.6769 -224.167618 
L 270.316977 -224.548883 
L 270.922437 -224.930148 
L 271.492279 -225.311413 
L 272.025774 -225.692678 
L 272.522496 -226.073943 
L 272.982346 -226.455209 
L 273.40556 -226.836474 
L 273.792708 -227.217739 
L 274.144681 -227.599004 
L 274.462666 -227.980269 
L 274.748113 -228.361534 
L 275.002697 -228.742799 
L 275.228274 -229.124064 
L 277.827976 -229.124064 
L 277.827976 -229.124064 
L 278.053553 -228.742799 
L 278.308137 -228.361534 
L 278.593584 -227.980269 
L 278.911569 -227.599004 
L 279.263542 -227.217739 
L 279.65069 -226.836474 
L 280.073904 -226.455209 
L 280.533754 -226.073943 
L 281.030476 -225.692678 
L 281.563971 -225.311413 
L 282.133813 -224.930148 
L 282.739273 -224.548883 
L 283.37935 -224.167618 
L 284.052814 -223.786353 
L 284.758252 -223.405088 
L 285.494123 -223.023823 
L 286.2588 -222.642558 
L 287.050619 -222.261293 
L 287.867905 -221.880028 
L 288.708996 -221.498763 
L 289.572237 -221.117497 
L 290.455958 -220.736232 
L 291.358431 -220.354967 
L 292.277803 -219.973702 
L 293.212007 -219.592437 
L 294.158662 -219.211172 
L 295.114958 -218.829907 
L 296.07754 -218.448642 
L 297.042398 -218.067377 
L 298.004768 -217.686112 
L 298.95906 -217.304847 
L 299.898819 -216.923582 
L 300.816722 -216.542317 
L 301.704628 -216.161051 
L 302.553673 -215.779786 
L 303.354421 -215.398521 
L 304.097061 -215.017256 
L 304.771655 -214.635991 
L 305.368416 -214.254726 
L 305.878014 -213.873461 
L 306.291906 -213.492196 
L 306.602648 -213.110931 
L 306.804201 -212.729666 
L 306.892209 -212.348401 
L 306.864217 -211.967136 
L 306.719842 -211.585871 
L 306.460872 -211.204605 
L 306.091281 -210.82334 
L 305.617172 -210.442075 
L 305.046639 -210.06081 
L 304.38955 -209.679545 
L 303.65726 -209.29828 
L 302.862278 -208.917015 
L 302.01788 -208.53575 
L 301.137703 -208.154485 
L 300.235328 -207.77322 
L 299.323871 -207.391955 
L 298.415602 -207.01069 
L 297.521603 -206.629425 
L 296.651487 -206.24816 
L 295.813168 -205.866894 
L 295.012726 -205.485629 
L 294.254325 -205.104364 
L 293.540226 -204.723099 
L 292.870863 -204.341834 
L 292.244987 -203.960569 
L 291.659874 -203.579304 
L 291.111569 -203.198039 
L 290.595169 -202.816774 
L 290.105123 -202.435509 
L 289.635535 -202.054244 
L 289.180465 -201.672979 
L 288.734198 -201.291714 
L 288.291491 -200.910448 
L 287.847776 -200.529183 
L 287.399317 -200.147918 
L 286.943321 -199.766653 
L 286.477992 -199.385388 
L 286.002546 -199.004123 
L 285.517174 -198.622858 
L 285.022964 -198.241593 
L 284.521798 -197.860328 
L 284.016218 -197.479063 
L 283.509275 -197.097798 
L 283.00437 -196.716533 
L 282.505099 -196.335268 
L 282.015097 -195.954002 
L 281.537898 -195.572737 
L 281.076812 -195.191472 
L 280.634822 -194.810207 
L 280.214504 -194.428942 
L 279.81797 -194.047677 
L 279.446839 -193.666412 
L 279.102218 -193.285147 
L 278.784718 -192.903882 
L 278.494478 -192.522617 
L 278.231201 -192.141352 
L 277.994207 -191.760087 
L 277.782489 -191.378822 
z
" id="m83f9268bb0" style="stroke:#3f3f3f;stroke-width:1.5;"/>
    </defs>
    <g clip-path="url(#pd7444d83f2)">
     <use style="fill:#c7c7c7;stroke:#3f3f3f;stroke-width:1.5;" x="0" xlink:href="#m83f9268bb0" y="351.576471"/>
    </g>
   </g>
   <g id="PolyCollection_4">
    <defs>
     <path d="M 367.379 -124.728999 
L 364.23725 -124.728999 
L 363.972366 -125.033736 
L 363.675362 -125.338474 
L 363.344697 -125.643211 
L 362.979163 -125.947949 
L 362.577946 -126.252686 
L 362.140679 -126.557424 
L 361.667486 -126.862161 
L 361.159014 -127.166899 
L 360.616441 -127.471636 
L 360.041475 -127.776374 
L 359.436317 -128.081111 
L 358.80362 -128.385849 
L 358.146403 -128.690586 
L 357.467966 -128.995324 
L 356.771773 -129.300061 
L 356.061323 -129.604799 
L 355.340016 -129.909536 
L 354.611013 -130.214274 
L 353.877099 -130.519011 
L 353.140564 -130.823749 
L 352.403096 -131.128486 
L 351.665704 -131.433224 
L 350.928675 -131.737961 
L 350.191569 -132.042699 
L 349.453249 -132.347436 
L 348.711963 -132.652174 
L 347.965457 -132.956911 
L 347.211138 -133.261649 
L 346.446252 -133.566386 
L 345.668108 -133.871124 
L 344.874297 -134.175861 
L 344.062926 -134.480599 
L 343.232841 -134.785336 
L 342.383833 -135.090074 
L 341.516804 -135.394811 
L 340.633907 -135.699549 
L 339.73862 -136.004286 
L 338.835773 -136.309024 
L 337.931519 -136.613761 
L 337.03323 -136.918499 
L 336.149354 -137.223236 
L 335.289207 -137.527974 
L 334.462726 -137.832711 
L 333.680185 -138.137449 
L 332.951895 -138.442186 
L 332.28789 -138.746923 
L 331.697624 -139.051661 
L 331.189682 -139.356398 
L 330.771524 -139.661136 
L 330.449273 -139.965873 
L 330.227553 -140.270611 
L 330.109382 -140.575348 
L 330.096125 -140.880086 
L 330.187512 -141.184823 
L 330.381706 -141.489561 
L 330.675431 -141.794298 
L 331.064135 -142.099036 
L 331.542197 -142.403773 
L 332.103151 -142.708511 
L 332.739928 -143.013248 
L 333.445089 -143.317986 
L 334.21106 -143.622723 
L 335.030339 -143.927461 
L 335.895673 -144.232198 
L 336.800205 -144.536936 
L 337.737581 -144.841673 
L 338.702013 -145.146411 
L 339.68831 -145.451148 
L 340.691863 -145.755886 
L 341.708604 -146.060623 
L 342.734942 -146.365361 
L 343.767668 -146.670098 
L 344.803866 -146.974836 
L 345.840809 -147.279573 
L 346.87586 -147.584311 
L 347.906396 -147.889048 
L 348.929731 -148.193786 
L 349.943071 -148.498523 
L 350.943489 -148.803261 
L 351.927919 -149.107998 
L 352.89318 -149.412736 
L 353.836009 -149.717473 
L 354.753121 -150.022211 
L 355.641277 -150.326948 
L 356.497356 -150.631686 
L 357.318436 -150.936423 
L 358.101869 -151.241161 
L 358.845351 -151.545898 
L 359.546982 -151.850636 
L 360.205309 -152.155373 
L 360.819362 -152.460111 
L 361.388668 -152.764848 
L 361.913249 -153.069586 
L 362.393606 -153.374323 
L 362.830693 -153.679061 
L 363.225871 -153.983798 
L 363.58086 -154.288536 
L 363.897682 -154.593273 
L 364.178599 -154.898011 
L 367.437651 -154.898011 
L 367.437651 -154.898011 
L 367.718568 -154.593273 
L 368.03539 -154.288536 
L 368.390379 -153.983798 
L 368.785557 -153.679061 
L 369.222644 -153.374323 
L 369.703001 -153.069586 
L 370.227582 -152.764848 
L 370.796888 -152.460111 
L 371.410941 -152.155373 
L 372.069268 -151.850636 
L 372.770899 -151.545898 
L 373.514381 -151.241161 
L 374.297814 -150.936423 
L 375.118894 -150.631686 
L 375.974973 -150.326948 
L 376.863129 -150.022211 
L 377.780241 -149.717473 
L 378.72307 -149.412736 
L 379.688331 -149.107998 
L 380.672761 -148.803261 
L 381.673179 -148.498523 
L 382.686519 -148.193786 
L 383.709854 -147.889048 
L 384.74039 -147.584311 
L 385.775441 -147.279573 
L 386.812384 -146.974836 
L 387.848582 -146.670098 
L 388.881308 -146.365361 
L 389.907646 -146.060623 
L 390.924387 -145.755886 
L 391.92794 -145.451148 
L 392.914237 -145.146411 
L 393.878669 -144.841673 
L 394.816045 -144.536936 
L 395.720577 -144.232198 
L 396.585911 -143.927461 
L 397.40519 -143.622723 
L 398.171161 -143.317986 
L 398.876322 -143.013248 
L 399.513099 -142.708511 
L 400.074053 -142.403773 
L 400.552115 -142.099036 
L 400.940819 -141.794298 
L 401.234544 -141.489561 
L 401.428738 -141.184823 
L 401.520125 -140.880086 
L 401.506868 -140.575348 
L 401.388697 -140.270611 
L 401.166977 -139.965873 
L 400.844726 -139.661136 
L 400.426568 -139.356398 
L 399.918626 -139.051661 
L 399.32836 -138.746923 
L 398.664355 -138.442186 
L 397.936065 -138.137449 
L 397.153524 -137.832711 
L 396.327043 -137.527974 
L 395.466896 -137.223236 
L 394.58302 -136.918499 
L 393.684731 -136.613761 
L 392.780477 -136.309024 
L 391.87763 -136.004286 
L 390.982343 -135.699549 
L 390.099446 -135.394811 
L 389.232417 -135.090074 
L 388.383409 -134.785336 
L 387.553324 -134.480599 
L 386.741953 -134.175861 
L 385.948142 -133.871124 
L 385.169998 -133.566386 
L 384.405112 -133.261649 
L 383.650793 -132.956911 
L 382.904287 -132.652174 
L 382.163001 -132.347436 
L 381.424681 -132.042699 
L 380.687575 -131.737961 
L 379.950546 -131.433224 
L 379.213154 -131.128486 
L 378.475686 -130.823749 
L 377.739151 -130.519011 
L 377.005237 -130.214274 
L 376.276234 -129.909536 
L 375.554927 -129.604799 
L 374.844477 -129.300061 
L 374.148284 -128.995324 
L 373.469847 -128.690586 
L 372.81263 -128.385849 
L 372.179933 -128.081111 
L 371.574775 -127.776374 
L 370.999809 -127.471636 
L 370.457236 -127.166899 
L 369.948764 -126.862161 
L 369.475571 -126.557424 
L 369.038304 -126.252686 
L 368.637087 -125.947949 
L 368.271553 -125.643211 
L 367.940888 -125.338474 
L 367.643884 -125.033736 
L 367.379 -124.728999 
z
" id="m04e250d0dc" style="stroke:#3f3f3f;stroke-width:1.5;"/>
    </defs>
    <g clip-path="url(#pd7444d83f2)">
     <use style="fill:#3274a1;stroke:#3f3f3f;stroke-width:1.5;" x="0" xlink:href="#m04e250d0dc" y="351.576471"/>
    </g>
   </g>
   <g id="matplotlib.axis_1">
    <g id="xtick_1">
     <g id="line2d_1">
      <defs>
       <path d="M 0 0 
L 0 3.5 
" id="m1370b63e5d" style="stroke:#000000;stroke-width:0.8;"/>
      </defs>
      <g>
       <use style="stroke:#000000;stroke-width:0.8;" x="97.968125" xlink:href="#m1370b63e5d" y="288.430125"/>
      </g>
     </g>
     <g id="text_1">
      <!-- libfuzzer -->
      <g transform="translate(60.101904 323.272284)rotate(-30)scale(0.1 -0.1)">
       <defs>
        <path d="M 9.421875 75.984375 
L 18.40625 75.984375 
L 18.40625 0 
L 9.421875 0 
z
" id="DejaVuSans-108"/>
        <path d="M 9.421875 54.6875 
L 18.40625 54.6875 
L 18.40625 0 
L 9.421875 0 
z
M 9.421875 75.984375 
L 18.40625 75.984375 
L 18.40625 64.59375 
L 9.421875 64.59375 
z
" id="DejaVuSans-105"/>
        <path d="M 48.6875 27.296875 
Q 48.6875 37.203125 44.609375 42.84375 
Q 40.53125 48.484375 33.40625 48.484375 
Q 26.265625 48.484375 22.1875 42.84375 
Q 18.109375 37.203125 18.109375 27.296875 
Q 18.109375 17.390625 22.1875 11.75 
Q 26.265625 6.109375 33.40625 6.109375 
Q 40.53125 6.109375 44.609375 11.75 
Q 48.6875 17.390625 48.6875 27.296875 
z
M 18.109375 46.390625 
Q 20.953125 51.265625 25.265625 53.625 
Q 29.59375 56 35.59375 56 
Q 45.5625 56 51.78125 48.09375 
Q 58.015625 40.1875 58.015625 27.296875 
Q 58.015625 14.40625 51.78125 6.484375 
Q 45.5625 -1.421875 35.59375 -1.421875 
Q 29.59375 -1.421875 25.265625 0.953125 
Q 20.953125 3.328125 18.109375 8.203125 
L 18.109375 0 
L 9.078125 0 
L 9.078125 75.984375 
L 18.109375 75.984375 
z
" id="DejaVuSans-98"/>
        <path d="M 37.109375 75.984375 
L 37.109375 68.5 
L 28.515625 68.5 
Q 23.6875 68.5 21.796875 66.546875 
Q 19.921875 64.59375 19.921875 59.515625 
L 19.921875 54.6875 
L 34.71875 54.6875 
L 34.71875 47.703125 
L 19.921875 47.703125 
L 19.921875 0 
L 10.890625 0 
L 10.890625 47.703125 
L 2.296875 47.703125 
L 2.296875 54.6875 
L 10.890625 54.6875 
L 10.890625 58.5 
Q 10.890625 67.625 15.140625 71.796875 
Q 19.390625 75.984375 28.609375 75.984375 
z
" id="DejaVuSans-102"/>
        <path d="M 8.5 21.578125 
L 8.5 54.6875 
L 17.484375 54.6875 
L 17.484375 21.921875 
Q 17.484375 14.15625 20.5 10.265625 
Q 23.53125 6.390625 29.59375 6.390625 
Q 36.859375 6.390625 41.078125 11.03125 
Q 45.3125 15.671875 45.3125 23.6875 
L 45.3125 54.6875 
L 54.296875 54.6875 
L 54.296875 0 
L 45.3125 0 
L 45.3125 8.40625 
Q 42.046875 3.421875 37.71875 1 
Q 33.40625 -1.421875 27.6875 -1.421875 
Q 18.265625 -1.421875 13.375 4.4375 
Q 8.5 10.296875 8.5 21.578125 
z
M 31.109375 56 
z
" id="DejaVuSans-117"/>
        <path d="M 5.515625 54.6875 
L 48.1875 54.6875 
L 48.1875 46.484375 
L 14.40625 7.171875 
L 48.1875 7.171875 
L 48.1875 0 
L 4.296875 0 
L 4.296875 8.203125 
L 38.09375 47.515625 
L 5.515625 47.515625 
z
" id="DejaVuSans-122"/>
        <path d="M 56.203125 29.59375 
L 56.203125 25.203125 
L 14.890625 25.203125 
Q 15.484375 15.921875 20.484375 11.0625 
Q 25.484375 6.203125 34.421875 6.203125 
Q 39.59375 6.203125 44.453125 7.46875 
Q 49.3125 8.734375 54.109375 11.28125 
L 54.109375 2.78125 
Q 49.265625 0.734375 44.1875 -0.34375 
Q 39.109375 -1.421875 33.890625 -1.421875 
Q 20.796875 -1.421875 13.15625 6.1875 
Q 5.515625 13.8125 5.515625 26.8125 
Q 5.515625 40.234375 12.765625 48.109375 
Q 20.015625 56 32.328125 56 
Q 43.359375 56 49.78125 48.890625 
Q 56.203125 41.796875 56.203125 29.59375 
z
M 47.21875 32.234375 
Q 47.125 39.59375 43.09375 43.984375 
Q 39.0625 48.390625 32.421875 48.390625 
Q 24.90625 48.390625 20.390625 44.140625 
Q 15.875 39.890625 15.1875 32.171875 
z
" id="DejaVuSans-101"/>
        <path d="M 41.109375 46.296875 
Q 39.59375 47.171875 37.8125 47.578125 
Q 36.03125 48 33.890625 48 
Q 26.265625 48 22.1875 43.046875 
Q 18.109375 38.09375 18.109375 28.8125 
L 18.109375 0 
L 9.078125 0 
L 9.078125 54.6875 
L 18.109375 54.6875 
L 18.109375 46.1875 
Q 20.953125 51.171875 25.484375 53.578125 
Q 30.03125 56 36.53125 56 
Q 37.453125 56 38.578125 55.875 
Q 39.703125 55.765625 41.0625 55.515625 
z
" id="DejaVuSans-114"/>
       </defs>
       <use xlink:href="#DejaVuSans-108"/>
       <use x="27.783203" xlink:href="#DejaVuSans-105"/>
       <use x="55.566406" xlink:href="#DejaVuSans-98"/>
       <use x="119.042969" xlink:href="#DejaVuSans-102"/>
       <use x="154.248047" xlink:href="#DejaVuSans-117"/>
       <use x="217.626953" xlink:href="#DejaVuSans-122"/>
       <use x="270.117188" xlink:href="#DejaVuSans-122"/>
       <use x="322.607422" xlink:href="#DejaVuSans-101"/>
       <use x="384.130859" xlink:href="#DejaVuSans-114"/>
      </g>
     </g>
    </g>
    <g id="xtick_2">
     <g id="line2d_2">
      <g>
       <use style="stroke:#000000;stroke-width:0.8;" x="187.248125" xlink:href="#m1370b63e5d" y="288.430125"/>
      </g>
     </g>
     <g id="text_2">
      <!-- honggfuzz -->
      <g transform="translate(141.308924 327.933221)rotate(-30)scale(0.1 -0.1)">
       <defs>
        <path d="M 54.890625 33.015625 
L 54.890625 0 
L 45.90625 0 
L 45.90625 32.71875 
Q 45.90625 40.484375 42.875 44.328125 
Q 39.84375 48.1875 33.796875 48.1875 
Q 26.515625 48.1875 22.3125 43.546875 
Q 18.109375 38.921875 18.109375 30.90625 
L 18.109375 0 
L 9.078125 0 
L 9.078125 75.984375 
L 18.109375 75.984375 
L 18.109375 46.1875 
Q 21.34375 51.125 25.703125 53.5625 
Q 30.078125 56 35.796875 56 
Q 45.21875 56 50.046875 50.171875 
Q 54.890625 44.34375 54.890625 33.015625 
z
" id="DejaVuSans-104"/>
        <path d="M 30.609375 48.390625 
Q 23.390625 48.390625 19.1875 42.75 
Q 14.984375 37.109375 14.984375 27.296875 
Q 14.984375 17.484375 19.15625 11.84375 
Q 23.34375 6.203125 30.609375 6.203125 
Q 37.796875 6.203125 41.984375 11.859375 
Q 46.1875 17.53125 46.1875 27.296875 
Q 46.1875 37.015625 41.984375 42.703125 
Q 37.796875 48.390625 30.609375 48.390625 
z
M 30.609375 56 
Q 42.328125 56 49.015625 48.375 
Q 55.71875 40.765625 55.71875 27.296875 
Q 55.71875 13.875 49.015625 6.21875 
Q 42.328125 -1.421875 30.609375 -1.421875 
Q 18.84375 -1.421875 12.171875 6.21875 
Q 5.515625 13.875 5.515625 27.296875 
Q 5.515625 40.765625 12.171875 48.375 
Q 18.84375 56 30.609375 56 
z
" id="DejaVuSans-111"/>
        <path d="M 54.890625 33.015625 
L 54.890625 0 
L 45.90625 0 
L 45.90625 32.71875 
Q 45.90625 40.484375 42.875 44.328125 
Q 39.84375 48.1875 33.796875 48.1875 
Q 26.515625 48.1875 22.3125 43.546875 
Q 18.109375 38.921875 18.109375 30.90625 
L 18.109375 0 
L 9.078125 0 
L 9.078125 54.6875 
L 18.109375 54.6875 
L 18.109375 46.1875 
Q 21.34375 51.125 25.703125 53.5625 
Q 30.078125 56 35.796875 56 
Q 45.21875 56 50.046875 50.171875 
Q 54.890625 44.34375 54.890625 33.015625 
z
" id="DejaVuSans-110"/>
        <path d="M 45.40625 27.984375 
Q 45.40625 37.75 41.375 43.109375 
Q 37.359375 48.484375 30.078125 48.484375 
Q 22.859375 48.484375 18.828125 43.109375 
Q 14.796875 37.75 14.796875 27.984375 
Q 14.796875 18.265625 18.828125 12.890625 
Q 22.859375 7.515625 30.078125 7.515625 
Q 37.359375 7.515625 41.375 12.890625 
Q 45.40625 18.265625 45.40625 27.984375 
z
M 54.390625 6.78125 
Q 54.390625 -7.171875 48.1875 -13.984375 
Q 42 -20.796875 29.203125 -20.796875 
Q 24.46875 -20.796875 20.265625 -20.09375 
Q 16.0625 -19.390625 12.109375 -17.921875 
L 12.109375 -9.1875 
Q 16.0625 -11.328125 19.921875 -12.34375 
Q 23.78125 -13.375 27.78125 -13.375 
Q 36.625 -13.375 41.015625 -8.765625 
Q 45.40625 -4.15625 45.40625 5.171875 
L 45.40625 9.625 
Q 42.625 4.78125 38.28125 2.390625 
Q 33.9375 0 27.875 0 
Q 17.828125 0 11.671875 7.65625 
Q 5.515625 15.328125 5.515625 27.984375 
Q 5.515625 40.671875 11.671875 48.328125 
Q 17.828125 56 27.875 56 
Q 33.9375 56 38.28125 53.609375 
Q 42.625 51.21875 45.40625 46.390625 
L 45.40625 54.6875 
L 54.390625 54.6875 
z
" id="DejaVuSans-103"/>
       </defs>
       <use xlink:href="#DejaVuSans-104"/>
       <use x="63.378906" xlink:href="#DejaVuSans-111"/>
       <use x="124.560547" xlink:href="#DejaVuSans-110"/>
       <use x="187.939453" xlink:href="#DejaVuSans-103"/>
       <use x="251.416016" xlink:href="#DejaVuSans-103"/>
       <use x="314.892578" xlink:href="#DejaVuSans-102"/>
       <use x="350.097656" xlink:href="#DejaVuSans-117"/>
       <use x="413.476562" xlink:href="#DejaVuSans-122"/>
       <use x="465.966797" xlink:href="#DejaVuSans-122"/>
      </g>
     </g>
    </g>
    <g id="xtick_3">
     <g id="line2d_3">
      <g>
       <use style="stroke:#000000;stroke-width:0.8;" x="276.528125" xlink:href="#m1370b63e5d" y="288.430125"/>
      </g>
     </g>
     <g id="text_3">
      <!-- lafintel -->
      <g transform="translate(245.70242 319.20744)rotate(-30)scale(0.1 -0.1)">
       <defs>
        <path d="M 34.28125 27.484375 
Q 23.390625 27.484375 19.1875 25 
Q 14.984375 22.515625 14.984375 16.5 
Q 14.984375 11.71875 18.140625 8.90625 
Q 21.296875 6.109375 26.703125 6.109375 
Q 34.1875 6.109375 38.703125 11.40625 
Q 43.21875 16.703125 43.21875 25.484375 
L 43.21875 27.484375 
z
M 52.203125 31.203125 
L 52.203125 0 
L 43.21875 0 
L 43.21875 8.296875 
Q 40.140625 3.328125 35.546875 0.953125 
Q 30.953125 -1.421875 24.3125 -1.421875 
Q 15.921875 -1.421875 10.953125 3.296875 
Q 6 8.015625 6 15.921875 
Q 6 25.140625 12.171875 29.828125 
Q 18.359375 34.515625 30.609375 34.515625 
L 43.21875 34.515625 
L 43.21875 35.40625 
Q 43.21875 41.609375 39.140625 45 
Q 35.0625 48.390625 27.6875 48.390625 
Q 23 48.390625 18.546875 47.265625 
Q 14.109375 46.140625 10.015625 43.890625 
L 10.015625 52.203125 
Q 14.9375 54.109375 19.578125 55.046875 
Q 24.21875 56 28.609375 56 
Q 40.484375 56 46.34375 49.84375 
Q 52.203125 43.703125 52.203125 31.203125 
z
" id="DejaVuSans-97"/>
        <path d="M 18.3125 70.21875 
L 18.3125 54.6875 
L 36.8125 54.6875 
L 36.8125 47.703125 
L 18.3125 47.703125 
L 18.3125 18.015625 
Q 18.3125 11.328125 20.140625 9.421875 
Q 21.96875 7.515625 27.59375 7.515625 
L 36.8125 7.515625 
L 36.8125 0 
L 27.59375 0 
Q 17.1875 0 13.234375 3.875 
Q 9.28125 7.765625 9.28125 18.015625 
L 9.28125 47.703125 
L 2.6875 47.703125 
L 2.6875 54.6875 
L 9.28125 54.6875 
L 9.28125 70.21875 
z
" id="DejaVuSans-116"/>
       </defs>
       <use xlink:href="#DejaVuSans-108"/>
       <use x="27.783203" xlink:href="#DejaVuSans-97"/>
       <use x="89.0625" xlink:href="#DejaVuSans-102"/>
       <use x="124.267578" xlink:href="#DejaVuSans-105"/>
       <use x="152.050781" xlink:href="#DejaVuSans-110"/>
       <use x="215.429688" xlink:href="#DejaVuSans-116"/>
       <use x="254.638672" xlink:href="#DejaVuSans-101"/>
       <use x="316.162109" xlink:href="#DejaVuSans-108"/>
      </g>
     </g>
    </g>
    <g id="xtick_4">
     <g id="line2d_4">
      <g>
       <use style="stroke:#000000;stroke-width:0.8;" x="365.808125" xlink:href="#m1370b63e5d" y="288.430125"/>
      </g>
     </g>
     <g id="text_4">
      <!-- aflplusplus -->
      <g transform="translate(318.199118 328.897284)rotate(-30)scale(0.1 -0.1)">
       <defs>
        <path d="M 18.109375 8.203125 
L 18.109375 -20.796875 
L 9.078125 -20.796875 
L 9.078125 54.6875 
L 18.109375 54.6875 
L 18.109375 46.390625 
Q 20.953125 51.265625 25.265625 53.625 
Q 29.59375 56 35.59375 56 
Q 45.5625 56 51.78125 48.09375 
Q 58.015625 40.1875 58.015625 27.296875 
Q 58.015625 14.40625 51.78125 6.484375 
Q 45.5625 -1.421875 35.59375 -1.421875 
Q 29.59375 -1.421875 25.265625 0.953125 
Q 20.953125 3.328125 18.109375 8.203125 
z
M 48.6875 27.296875 
Q 48.6875 37.203125 44.609375 42.84375 
Q 40.53125 48.484375 33.40625 48.484375 
Q 26.265625 48.484375 22.1875 42.84375 
Q 18.109375 37.203125 18.109375 27.296875 
Q 18.109375 17.390625 22.1875 11.75 
Q 26.265625 6.109375 33.40625 6.109375 
Q 40.53125 6.109375 44.609375 11.75 
Q 48.6875 17.390625 48.6875 27.296875 
z
" id="DejaVuSans-112"/>
        <path d="M 44.28125 53.078125 
L 44.28125 44.578125 
Q 40.484375 46.53125 36.375 47.5 
Q 32.28125 48.484375 27.875 48.484375 
Q 21.1875 48.484375 17.84375 46.4375 
Q 14.5 44.390625 14.5 40.28125 
Q 14.5 37.15625 16.890625 35.375 
Q 19.28125 33.59375 26.515625 31.984375 
L 29.59375 31.296875 
Q 39.15625 29.25 43.1875 25.515625 
Q 47.21875 21.78125 47.21875 15.09375 
Q 47.21875 7.46875 41.1875 3.015625 
Q 35.15625 -1.421875 24.609375 -1.421875 
Q 20.21875 -1.421875 15.453125 -0.5625 
Q 10.6875 0.296875 5.421875 2 
L 5.421875 11.28125 
Q 10.40625 8.6875 15.234375 7.390625 
Q 20.0625 6.109375 24.8125 6.109375 
Q 31.15625 6.109375 34.5625 8.28125 
Q 37.984375 10.453125 37.984375 14.40625 
Q 37.984375 18.0625 35.515625 20.015625 
Q 33.0625 21.96875 24.703125 23.78125 
L 21.578125 24.515625 
Q 13.234375 26.265625 9.515625 29.90625 
Q 5.8125 33.546875 5.8125 39.890625 
Q 5.8125 47.609375 11.28125 51.796875 
Q 16.75 56 26.8125 56 
Q 31.78125 56 36.171875 55.265625 
Q 40.578125 54.546875 44.28125 53.078125 
z
" id="DejaVuSans-115"/>
       </defs>
       <use xlink:href="#DejaVuSans-97"/>
       <use x="61.279297" xlink:href="#DejaVuSans-102"/>
       <use x="96.484375" xlink:href="#DejaVuSans-108"/>
       <use x="124.267578" xlink:href="#DejaVuSans-112"/>
       <use x="187.744141" xlink:href="#DejaVuSans-108"/>
       <use x="215.527344" xlink:href="#DejaVuSans-117"/>
       <use x="278.90625" xlink:href="#DejaVuSans-115"/>
       <use x="331.005859" xlink:href="#DejaVuSans-112"/>
       <use x="394.482422" xlink:href="#DejaVuSans-108"/>
       <use x="422.265625" xlink:href="#DejaVuSans-117"/>
       <use x="485.644531" xlink:href="#DejaVuSans-115"/>
      </g>
     </g>
    </g>
    <g id="text_5">
     <!-- Fuzzer (highest median coverage on the left) -->
     <g transform="translate(119.270156 342.296783)scale(0.1 -0.1)">
      <defs>
       <path d="M 9.8125 72.90625 
L 51.703125 72.90625 
L 51.703125 64.59375 
L 19.671875 64.59375 
L 19.671875 43.109375 
L 48.578125 43.109375 
L 48.578125 34.8125 
L 19.671875 34.8125 
L 19.671875 0 
L 9.8125 0 
z
" id="DejaVuSans-70"/>
       <path id="DejaVuSans-32"/>
       <path d="M 31 75.875 
Q 24.46875 64.65625 21.28125 53.65625 
Q 18.109375 42.671875 18.109375 31.390625 
Q 18.109375 20.125 21.3125 9.0625 
Q 24.515625 -2 31 -13.1875 
L 23.1875 -13.1875 
Q 15.875 -1.703125 12.234375 9.375 
Q 8.59375 20.453125 8.59375 31.390625 
Q 8.59375 42.28125 12.203125 53.3125 
Q 15.828125 64.359375 23.1875 75.875 
z
" id="DejaVuSans-40"/>
       <path d="M 52 44.1875 
Q 55.375 50.25 60.0625 53.125 
Q 64.75 56 71.09375 56 
Q 79.640625 56 84.28125 50.015625 
Q 88.921875 44.046875 88.921875 33.015625 
L 88.921875 0 
L 79.890625 0 
L 79.890625 32.71875 
Q 79.890625 40.578125 77.09375 44.375 
Q 74.3125 48.1875 68.609375 48.1875 
Q 61.625 48.1875 57.5625 43.546875 
Q 53.515625 38.921875 53.515625 30.90625 
L 53.515625 0 
L 44.484375 0 
L 44.484375 32.71875 
Q 44.484375 40.625 41.703125 44.40625 
Q 38.921875 48.1875 33.109375 48.1875 
Q 26.21875 48.1875 22.15625 43.53125 
Q 18.109375 38.875 18.109375 30.90625 
L 18.109375 0 
L 9.078125 0 
L 9.078125 54.6875 
L 18.109375 54.6875 
L 18.109375 46.1875 
Q 21.1875 51.21875 25.484375 53.609375 
Q 29.78125 56 35.6875 56 
Q 41.65625 56 45.828125 52.96875 
Q 50 49.953125 52 44.1875 
z
" id="DejaVuSans-109"/>
       <path d="M 45.40625 46.390625 
L 45.40625 75.984375 
L 54.390625 75.984375 
L 54.390625 0 
L 45.40625 0 
L 45.40625 8.203125 
Q 42.578125 3.328125 38.25 0.953125 
Q 33.9375 -1.421875 27.875 -1.421875 
Q 17.96875 -1.421875 11.734375 6.484375 
Q 5.515625 14.40625 5.515625 27.296875 
Q 5.515625 40.1875 11.734375 48.09375 
Q 17.96875 56 27.875 56 
Q 33.9375 56 38.25 53.625 
Q 42.578125 51.265625 45.40625 46.390625 
z
M 14.796875 27.296875 
Q 14.796875 17.390625 18.875 11.75 
Q 22.953125 6.109375 30.078125 6.109375 
Q 37.203125 6.109375 41.296875 11.75 
Q 45.40625 17.390625 45.40625 27.296875 
Q 45.40625 37.203125 41.296875 42.84375 
Q 37.203125 48.484375 30.078125 48.484375 
Q 22.953125 48.484375 18.875 42.84375 
Q 14.796875 37.203125 14.796875 27.296875 
z
" id="DejaVuSans-100"/>
       <path d="M 48.78125 52.59375 
L 48.78125 44.1875 
Q 44.96875 46.296875 41.140625 47.34375 
Q 37.3125 48.390625 33.40625 48.390625 
Q 24.65625 48.390625 19.8125 42.84375 
Q 14.984375 37.3125 14.984375 27.296875 
Q 14.984375 17.28125 19.8125 11.734375 
Q 24.65625 6.203125 33.40625 6.203125 
Q 37.3125 6.203125 41.140625 7.25 
Q 44.96875 8.296875 48.78125 10.40625 
L 48.78125 2.09375 
Q 45.015625 0.34375 40.984375 -0.53125 
Q 36.96875 -1.421875 32.421875 -1.421875 
Q 20.0625 -1.421875 12.78125 6.34375 
Q 5.515625 14.109375 5.515625 27.296875 
Q 5.515625 40.671875 12.859375 48.328125 
Q 20.21875 56 33.015625 56 
Q 37.15625 56 41.109375 55.140625 
Q 45.0625 54.296875 48.78125 52.59375 
z
" id="DejaVuSans-99"/>
       <path d="M 2.984375 54.6875 
L 12.5 54.6875 
L 29.59375 8.796875 
L 46.6875 54.6875 
L 56.203125 54.6875 
L 35.6875 0 
L 23.484375 0 
z
" id="DejaVuSans-118"/>
       <path d="M 8.015625 75.875 
L 15.828125 75.875 
Q 23.140625 64.359375 26.78125 53.3125 
Q 30.421875 42.28125 30.421875 31.390625 
Q 30.421875 20.453125 26.78125 9.375 
Q 23.140625 -1.703125 15.828125 -13.1875 
L 8.015625 -13.1875 
Q 14.5 -2 17.703125 9.0625 
Q 20.90625 20.125 20.90625 31.390625 
Q 20.90625 42.671875 17.703125 53.65625 
Q 14.5 64.65625 8.015625 75.875 
z
" id="DejaVuSans-41"/>
      </defs>
      <use xlink:href="#DejaVuSans-70"/>
      <use x="52.019531" xlink:href="#DejaVuSans-117"/>
      <use x="115.398438" xlink:href="#DejaVuSans-122"/>
      <use x="167.888672" xlink:href="#DejaVuSans-122"/>
      <use x="220.378906" xlink:href="#DejaVuSans-101"/>
      <use x="281.902344" xlink:href="#DejaVuSans-114"/>
      <use x="323.015625" xlink:href="#DejaVuSans-32"/>
      <use x="354.802734" xlink:href="#DejaVuSans-40"/>
      <use x="393.816406" xlink:href="#DejaVuSans-104"/>
      <use x="457.195312" xlink:href="#DejaVuSans-105"/>
      <use x="484.978516" xlink:href="#DejaVuSans-103"/>
      <use x="548.455078" xlink:href="#DejaVuSans-104"/>
      <use x="611.833984" xlink:href="#DejaVuSans-101"/>
      <use x="673.357422" xlink:href="#DejaVuSans-115"/>
      <use x="725.457031" xlink:href="#DejaVuSans-116"/>
      <use x="764.666016" xlink:href="#DejaVuSans-32"/>
      <use x="796.453125" xlink:href="#DejaVuSans-109"/>
      <use x="893.865234" xlink:href="#DejaVuSans-101"/>
      <use x="955.388672" xlink:href="#DejaVuSans-100"/>
      <use x="1018.865234" xlink:href="#DejaVuSans-105"/>
      <use x="1046.648438" xlink:href="#DejaVuSans-97"/>
      <use x="1107.927734" xlink:href="#DejaVuSans-110"/>
      <use x="1171.306641" xlink:href="#DejaVuSans-32"/>
      <use x="1203.09375" xlink:href="#DejaVuSans-99"/>
      <use x="1258.074219" xlink:href="#DejaVuSans-111"/>
      <use x="1319.255859" xlink:href="#DejaVuSans-118"/>
      <use x="1378.435547" xlink:href="#DejaVuSans-101"/>
      <use x="1439.958984" xlink:href="#DejaVuSans-114"/>
      <use x="1481.072266" xlink:href="#DejaVuSans-97"/>
      <use x="1542.351562" xlink:href="#DejaVuSans-103"/>
      <use x="1605.828125" xlink:href="#DejaVuSans-101"/>
      <use x="1667.351562" xlink:href="#DejaVuSans-32"/>
      <use x="1699.138672" xlink:href="#DejaVuSans-111"/>
      <use x="1760.320312" xlink:href="#DejaVuSans-110"/>
      <use x="1823.699219" xlink:href="#DejaVuSans-32"/>
      <use x="1855.486328" xlink:href="#DejaVuSans-116"/>
      <use x="1894.695312" xlink:href="#DejaVuSans-104"/>
      <use x="1958.074219" xlink:href="#DejaVuSans-101"/>
      <use x="2019.597656" xlink:href="#DejaVuSans-32"/>
      <use x="2051.384766" xlink:href="#DejaVuSans-108"/>
      <use x="2079.167969" xlink:href="#DejaVuSans-101"/>
      <use x="2140.691406" xlink:href="#DejaVuSans-102"/>
      <use x="2174.146484" xlink:href="#DejaVuSans-116"/>
      <use x="2213.355469" xlink:href="#DejaVuSans-41"/>
     </g>
    </g>
   </g>
   <g id="matplotlib.axis_2">
    <g id="ytick_1">
     <g id="line2d_5">
      <defs>
       <path d="M 0 0 
L -3.5 0 
" id="maf610b0b94" style="stroke:#000000;stroke-width:0.8;"/>
      </defs>
      <g>
       <use style="stroke:#000000;stroke-width:0.8;" x="53.328125" xlink:href="#maf610b0b94" y="257.566871"/>
      </g>
     </g>
     <g id="text_6">
      <!-- 1700 -->
      <g transform="translate(20.878125 261.36609)scale(0.1 -0.1)">
       <defs>
        <path d="M 12.40625 8.296875 
L 28.515625 8.296875 
L 28.515625 63.921875 
L 10.984375 60.40625 
L 10.984375 69.390625 
L 28.421875 72.90625 
L 38.28125 72.90625 
L 38.28125 8.296875 
L 54.390625 8.296875 
L 54.390625 0 
L 12.40625 0 
z
" id="DejaVuSans-49"/>
        <path d="M 8.203125 72.90625 
L 55.078125 72.90625 
L 55.078125 68.703125 
L 28.609375 0 
L 18.3125 0 
L 43.21875 64.59375 
L 8.203125 64.59375 
z
" id="DejaVuSans-55"/>
        <path d="M 31.78125 66.40625 
Q 24.171875 66.40625 20.328125 58.90625 
Q 16.5 51.421875 16.5 36.375 
Q 16.5 21.390625 20.328125 13.890625 
Q 24.171875 6.390625 31.78125 6.390625 
Q 39.453125 6.390625 43.28125 13.890625 
Q 47.125 21.390625 47.125 36.375 
Q 47.125 51.421875 43.28125 58.90625 
Q 39.453125 66.40625 31.78125 66.40625 
z
M 31.78125 74.21875 
Q 44.046875 74.21875 50.515625 64.515625 
Q 56.984375 54.828125 56.984375 36.375 
Q 56.984375 17.96875 50.515625 8.265625 
Q 44.046875 -1.421875 31.78125 -1.421875 
Q 19.53125 -1.421875 13.0625 8.265625 
Q 6.59375 17.96875 6.59375 36.375 
Q 6.59375 54.828125 13.0625 64.515625 
Q 19.53125 74.21875 31.78125 74.21875 
z
" id="DejaVuSans-48"/>
       </defs>
       <use xlink:href="#DejaVuSans-49"/>
       <use x="63.623047" xlink:href="#DejaVuSans-55"/>
       <use x="127.246094" xlink:href="#DejaVuSans-48"/>
       <use x="190.869141" xlink:href="#DejaVuSans-48"/>
      </g>
     </g>
    </g>
    <g id="ytick_2">
     <g id="line2d_6">
      <g>
       <use style="stroke:#000000;stroke-width:0.8;" x="53.328125" xlink:href="#maf610b0b94" y="219.076195"/>
      </g>
     </g>
     <g id="text_7">
      <!-- 1800 -->
      <g transform="translate(20.878125 222.875413)scale(0.1 -0.1)">
       <defs>
        <path d="M 31.78125 34.625 
Q 24.75 34.625 20.71875 30.859375 
Q 16.703125 27.09375 16.703125 20.515625 
Q 16.703125 13.921875 20.71875 10.15625 
Q 24.75 6.390625 31.78125 6.390625 
Q 38.8125 6.390625 42.859375 10.171875 
Q 46.921875 13.96875 46.921875 20.515625 
Q 46.921875 27.09375 42.890625 30.859375 
Q 38.875 34.625 31.78125 34.625 
z
M 21.921875 38.8125 
Q 15.578125 40.375 12.03125 44.71875 
Q 8.5 49.078125 8.5 55.328125 
Q 8.5 64.0625 14.71875 69.140625 
Q 20.953125 74.21875 31.78125 74.21875 
Q 42.671875 74.21875 48.875 69.140625 
Q 55.078125 64.0625 55.078125 55.328125 
Q 55.078125 49.078125 51.53125 44.71875 
Q 48 40.375 41.703125 38.8125 
Q 48.828125 37.15625 52.796875 32.3125 
Q 56.78125 27.484375 56.78125 20.515625 
Q 56.78125 9.90625 50.3125 4.234375 
Q 43.84375 -1.421875 31.78125 -1.421875 
Q 19.734375 -1.421875 13.25 4.234375 
Q 6.78125 9.90625 6.78125 20.515625 
Q 6.78125 27.484375 10.78125 32.3125 
Q 14.796875 37.15625 21.921875 38.8125 
z
M 18.3125 54.390625 
Q 18.3125 48.734375 21.84375 45.5625 
Q 25.390625 42.390625 31.78125 42.390625 
Q 38.140625 42.390625 41.71875 45.5625 
Q 45.3125 48.734375 45.3125 54.390625 
Q 45.3125 60.0625 41.71875 63.234375 
Q 38.140625 66.40625 31.78125 66.40625 
Q 25.390625 66.40625 21.84375 63.234375 
Q 18.3125 60.0625 18.3125 54.390625 
z
" id="DejaVuSans-56"/>
       </defs>
       <use xlink:href="#DejaVuSans-49"/>
       <use x="63.623047" xlink:href="#DejaVuSans-56"/>
       <use x="127.246094" xlink:href="#DejaVuSans-48"/>
       <use x="190.869141" xlink:href="#DejaVuSans-48"/>
      </g>
     </g>
    </g>
    <g id="ytick_3">
     <g id="line2d_7">
      <g>
       <use style="stroke:#000000;stroke-width:0.8;" x="53.328125" xlink:href="#maf610b0b94" y="180.585518"/>
      </g>
     </g>
     <g id="text_8">
      <!-- 1900 -->
      <g transform="translate(20.878125 184.384737)scale(0.1 -0.1)">
       <defs>
        <path d="M 10.984375 1.515625 
L 10.984375 10.5 
Q 14.703125 8.734375 18.5 7.8125 
Q 22.3125 6.890625 25.984375 6.890625 
Q 35.75 6.890625 40.890625 13.453125 
Q 46.046875 20.015625 46.78125 33.40625 
Q 43.953125 29.203125 39.59375 26.953125 
Q 35.25 24.703125 29.984375 24.703125 
Q 19.046875 24.703125 12.671875 31.3125 
Q 6.296875 37.9375 6.296875 49.421875 
Q 6.296875 60.640625 12.9375 67.421875 
Q 19.578125 74.21875 30.609375 74.21875 
Q 43.265625 74.21875 49.921875 64.515625 
Q 56.59375 54.828125 56.59375 36.375 
Q 56.59375 19.140625 48.40625 8.859375 
Q 40.234375 -1.421875 26.421875 -1.421875 
Q 22.703125 -1.421875 18.890625 -0.6875 
Q 15.09375 0.046875 10.984375 1.515625 
z
M 30.609375 32.421875 
Q 37.25 32.421875 41.125 36.953125 
Q 45.015625 41.5 45.015625 49.421875 
Q 45.015625 57.28125 41.125 61.84375 
Q 37.25 66.40625 30.609375 66.40625 
Q 23.96875 66.40625 20.09375 61.84375 
Q 16.21875 57.28125 16.21875 49.421875 
Q 16.21875 41.5 20.09375 36.953125 
Q 23.96875 32.421875 30.609375 32.421875 
z
" id="DejaVuSans-57"/>
       </defs>
       <use xlink:href="#DejaVuSans-49"/>
       <use x="63.623047" xlink:href="#DejaVuSans-57"/>
       <use x="127.246094" xlink:href="#DejaVuSans-48"/>
       <use x="190.869141" xlink:href="#DejaVuSans-48"/>
      </g>
     </g>
    </g>
    <g id="ytick_4">
     <g id="line2d_8">
      <g>
       <use style="stroke:#000000;stroke-width:0.8;" x="53.328125" xlink:href="#maf610b0b94" y="142.094842"/>
      </g>
     </g>
     <g id="text_9">
      <!-- 2000 -->
      <g transform="translate(20.878125 145.89406)scale(0.1 -0.1)">
       <defs>
        <path d="M 19.1875 8.296875 
L 53.609375 8.296875 
L 53.609375 0 
L 7.328125 0 
L 7.328125 8.296875 
Q 12.9375 14.109375 22.625 23.890625 
Q 32.328125 33.6875 34.8125 36.53125 
Q 39.546875 41.84375 41.421875 45.53125 
Q 43.3125 49.21875 43.3125 52.78125 
Q 43.3125 58.59375 39.234375 62.25 
Q 35.15625 65.921875 28.609375 65.921875 
Q 23.96875 65.921875 18.8125 64.3125 
Q 13.671875 62.703125 7.8125 59.421875 
L 7.8125 69.390625 
Q 13.765625 71.78125 18.9375 73 
Q 24.125 74.21875 28.421875 74.21875 
Q 39.75 74.21875 46.484375 68.546875 
Q 53.21875 62.890625 53.21875 53.421875 
Q 53.21875 48.921875 51.53125 44.890625 
Q 49.859375 40.875 45.40625 35.40625 
Q 44.1875 33.984375 37.640625 27.21875 
Q 31.109375 20.453125 19.1875 8.296875 
z
" id="DejaVuSans-50"/>
       </defs>
       <use xlink:href="#DejaVuSans-50"/>
       <use x="63.623047" xlink:href="#DejaVuSans-48"/>
       <use x="127.246094" xlink:href="#DejaVuSans-48"/>
       <use x="190.869141" xlink:href="#DejaVuSans-48"/>
      </g>
     </g>
    </g>
    <g id="ytick_5">
     <g id="line2d_9">
      <g>
       <use style="stroke:#000000;stroke-width:0.8;" x="53.328125" xlink:href="#maf610b0b94" y="103.604165"/>
      </g>
     </g>
     <g id="text_10">
      <!-- 2100 -->
      <g transform="translate(20.878125 107.403384)scale(0.1 -0.1)">
       <use xlink:href="#DejaVuSans-50"/>
       <use x="63.623047" xlink:href="#DejaVuSans-49"/>
       <use x="127.246094" xlink:href="#DejaVuSans-48"/>
       <use x="190.869141" xlink:href="#DejaVuSans-48"/>
      </g>
     </g>
    </g>
    <g id="ytick_6">
     <g id="line2d_10">
      <g>
       <use style="stroke:#000000;stroke-width:0.8;" x="53.328125" xlink:href="#maf610b0b94" y="65.113488"/>
      </g>
     </g>
     <g id="text_11">
      <!-- 2200 -->
      <g transform="translate(20.878125 68.912707)scale(0.1 -0.1)">
       <use xlink:href="#DejaVuSans-50"/>
       <use x="63.623047" xlink:href="#DejaVuSans-50"/>
       <use x="127.246094" xlink:href="#DejaVuSans-48"/>
       <use x="190.869141" xlink:href="#DejaVuSans-48"/>
      </g>
     </g>
    </g>
    <g id="ytick_7">
     <g id="line2d_11">
      <g>
       <use style="stroke:#000000;stroke-width:0.8;" x="53.328125" xlink:href="#maf610b0b94" y="26.622812"/>
      </g>
     </g>
     <g id="text_12">
      <!-- 2300 -->
      <g transform="translate(20.878125 30.422031)scale(0.1 -0.1)">
       <defs>
        <path d="M 40.578125 39.3125 
Q 47.65625 37.796875 51.625 33 
Q 55.609375 28.21875 55.609375 21.1875 
Q 55.609375 10.40625 48.1875 4.484375 
Q 40.765625 -1.421875 27.09375 -1.421875 
Q 22.515625 -1.421875 17.65625 -0.515625 
Q 12.796875 0.390625 7.625 2.203125 
L 7.625 11.71875 
Q 11.71875 9.328125 16.59375 8.109375 
Q 21.484375 6.890625 26.8125 6.890625 
Q 36.078125 6.890625 40.9375 10.546875 
Q 45.796875 14.203125 45.796875 21.1875 
Q 45.796875 27.640625 41.28125 31.265625 
Q 36.765625 34.90625 28.71875 34.90625 
L 20.21875 34.90625 
L 20.21875 43.015625 
L 29.109375 43.015625 
Q 36.375 43.015625 40.234375 45.921875 
Q 44.09375 48.828125 44.09375 54.296875 
Q 44.09375 59.90625 40.109375 62.90625 
Q 36.140625 65.921875 28.71875 65.921875 
Q 24.65625 65.921875 20.015625 65.03125 
Q 15.375 64.15625 9.8125 62.3125 
L 9.8125 71.09375 
Q 15.4375 72.65625 20.34375 73.4375 
Q 25.25 74.21875 29.59375 74.21875 
Q 40.828125 74.21875 47.359375 69.109375 
Q 53.90625 64.015625 53.90625 55.328125 
Q 53.90625 49.265625 50.4375 45.09375 
Q 46.96875 40.921875 40.578125 39.3125 
z
" id="DejaVuSans-51"/>
       </defs>
       <use xlink:href="#DejaVuSans-50"/>
       <use x="63.623047" xlink:href="#DejaVuSans-51"/>
       <use x="127.246094" xlink:href="#DejaVuSans-48"/>
       <use x="190.869141" xlink:href="#DejaVuSans-48"/>
      </g>
     </g>
    </g>
    <g id="text_13">
     <!-- Reached region coverage -->
     <g transform="translate(14.798438 219.136625)rotate(-90)scale(0.1 -0.1)">
      <defs>
       <path d="M 44.390625 34.1875 
Q 47.5625 33.109375 50.5625 29.59375 
Q 53.5625 26.078125 56.59375 19.921875 
L 66.609375 0 
L 56 0 
L 46.6875 18.703125 
Q 43.0625 26.03125 39.671875 28.421875 
Q 36.28125 30.8125 30.421875 30.8125 
L 19.671875 30.8125 
L 19.671875 0 
L 9.8125 0 
L 9.8125 72.90625 
L 32.078125 72.90625 
Q 44.578125 72.90625 50.734375 67.671875 
Q 56.890625 62.453125 56.890625 51.90625 
Q 56.890625 45.015625 53.6875 40.46875 
Q 50.484375 35.9375 44.390625 34.1875 
z
M 19.671875 64.796875 
L 19.671875 38.921875 
L 32.078125 38.921875 
Q 39.203125 38.921875 42.84375 42.21875 
Q 46.484375 45.515625 46.484375 51.90625 
Q 46.484375 58.296875 42.84375 61.546875 
Q 39.203125 64.796875 32.078125 64.796875 
z
" id="DejaVuSans-82"/>
      </defs>
      <use xlink:href="#DejaVuSans-82"/>
      <use x="64.982422" xlink:href="#DejaVuSans-101"/>
      <use x="126.505859" xlink:href="#DejaVuSans-97"/>
      <use x="187.785156" xlink:href="#DejaVuSans-99"/>
      <use x="242.765625" xlink:href="#DejaVuSans-104"/>
      <use x="306.144531" xlink:href="#DejaVuSans-101"/>
      <use x="367.667969" xlink:href="#DejaVuSans-100"/>
      <use x="431.144531" xlink:href="#DejaVuSans-32"/>
      <use x="462.931641" xlink:href="#DejaVuSans-114"/>
      <use x="501.794922" xlink:href="#DejaVuSans-101"/>
      <use x="563.318359" xlink:href="#DejaVuSans-103"/>
      <use x="626.794922" xlink:href="#DejaVuSans-105"/>
      <use x="654.578125" xlink:href="#DejaVuSans-111"/>
      <use x="715.759766" xlink:href="#DejaVuSans-110"/>
      <use x="779.138672" xlink:href="#DejaVuSans-32"/>
      <use x="810.925781" xlink:href="#DejaVuSans-99"/>
      <use x="865.90625" xlink:href="#DejaVuSans-111"/>
      <use x="927.087891" xlink:href="#DejaVuSans-118"/>
      <use x="986.267578" xlink:href="#DejaVuSans-101"/>
      <use x="1047.791016" xlink:href="#DejaVuSans-114"/>
      <use x="1088.904297" xlink:href="#DejaVuSans-97"/>
      <use x="1150.183594" xlink:href="#DejaVuSans-103"/>
      <use x="1213.660156" xlink:href="#DejaVuSans-101"/>
     </g>
    </g>
   </g>
   <g id="line2d_12">
    <path clip-path="url(#pd7444d83f2)" d="M 97.968125 129.008012 
L 97.968125 98.985284 
" style="fill:none;stroke:#3f3f3f;stroke-linecap:square;stroke-width:1.5;"/>
   </g>
   <g id="line2d_13">
    <path clip-path="url(#pd7444d83f2)" d="M 97.968125 129.008012 
L 97.968125 115.921182 
" style="fill:none;stroke:#3f3f3f;stroke-linecap:square;stroke-width:4.5;"/>
   </g>
   <g id="line2d_14">
    <path clip-path="url(#pd7444d83f2)" d="M 187.248125 132.857079 
L 187.248125 112.841927 
" style="fill:none;stroke:#3f3f3f;stroke-linecap:square;stroke-width:1.5;"/>
   </g>
   <g id="line2d_15">
    <path clip-path="url(#pd7444d83f2)" d="M 187.248125 131.317452 
L 187.248125 122.07969 
" style="fill:none;stroke:#3f3f3f;stroke-linecap:square;stroke-width:4.5;"/>
   </g>
   <g id="line2d_16">
    <path clip-path="url(#pd7444d83f2)" d="M 276.528125 141.325028 
L 276.528125 138.630681 
" style="fill:none;stroke:#3f3f3f;stroke-linecap:square;stroke-width:1.5;"/>
   </g>
   <g id="line2d_17">
    <path clip-path="url(#pd7444d83f2)" d="M 276.528125 141.325028 
L 276.528125 138.630681 
" style="fill:none;stroke:#3f3f3f;stroke-linecap:square;stroke-width:4.5;"/>
   </g>
   <g id="line2d_18">
    <path clip-path="url(#pd7444d83f2)" d="M 365.808125 212.917686 
L 365.808125 204.449738 
" style="fill:none;stroke:#3f3f3f;stroke-linecap:square;stroke-width:1.5;"/>
   </g>
   <g id="line2d_19">
    <path clip-path="url(#pd7444d83f2)" d="M 365.808125 212.917686 
L 365.808125 209.068619 
" style="fill:none;stroke:#3f3f3f;stroke-linecap:square;stroke-width:4.5;"/>
   </g>
   <g id="patch_3">
    <path d="M 53.328125 257.566871 
L 53.328125 26.622812 
" style="fill:none;stroke:#000000;stroke-linecap:square;stroke-linejoin:miter;stroke-width:0.8;"/>
   </g>
   <g id="patch_4">
    <path d="M 97.968125 288.430125 
L 365.808125 288.430125 
" style="fill:none;stroke:#000000;stroke-linecap:square;stroke-linejoin:miter;stroke-width:0.8;"/>
   </g>
   <g id="PathCollection_1">
    <defs>
     <path d="M 0 1.5 
C 0.397805 1.5 0.77937 1.341951 1.06066 1.06066 
C 1.341951 0.77937 1.5 0.397805 1.5 0 
C 1.5 -0.397805 1.341951 -0.77937 1.06066 -1.06066 
C 0.77937 -1.341951 0.397805 -1.5 0 -1.5 
C -0.397805 -1.5 -0.77937 -1.341951 -1.06066 -1.06066 
C -1.341951 -0.77937 -1.5 -0.397805 -1.5 0 
C -1.5 0.397805 -1.341951 0.77937 -1.06066 1.06066 
C -0.77937 1.341951 -0.397805 1.5 0 1.5 
z
" id="m8dc108e4e2" style="stroke:#3f3f3f;"/>
    </defs>
    <g clip-path="url(#pd7444d83f2)">
     <use style="fill:#ffffff;stroke:#3f3f3f;" x="97.968125" xlink:href="#m8dc108e4e2" y="116.306088"/>
    </g>
   </g>
   <g id="PathCollection_2">
    <g clip-path="url(#pd7444d83f2)">
     <use style="fill:#ffffff;stroke:#3f3f3f;" x="187.248125" xlink:href="#m8dc108e4e2" y="123.619317"/>
    </g>
   </g>
   <g id="PathCollection_3">
    <g clip-path="url(#pd7444d83f2)">
     <use style="fill:#ffffff;stroke:#3f3f3f;" x="276.528125" xlink:href="#m8dc108e4e2" y="139.785401"/>
    </g>
   </g>
   <g id="PathCollection_4">
    <g clip-path="url(#pd7444d83f2)">
     <use style="fill:#ffffff;stroke:#3f3f3f;" x="365.808125" xlink:href="#m8dc108e4e2" y="211.378059"/>
    </g>
   </g>
   <g id="text_14">
    <!-- vorbis-2017-12-11 (30m, 5 trials/fuzzer) -->
    <g transform="translate(111.609688 16.318125)scale(0.12 -0.12)">
     <defs>
      <path d="M 4.890625 31.390625 
L 31.203125 31.390625 
L 31.203125 23.390625 
L 4.890625 23.390625 
z
" id="DejaVuSans-45"/>
      <path d="M 11.71875 12.40625 
L 22.015625 12.40625 
L 22.015625 4 
L 14.015625 -11.625 
L 7.71875 -11.625 
L 11.71875 4 
z
" id="DejaVuSans-44"/>
      <path d="M 10.796875 72.90625 
L 49.515625 72.90625 
L 49.515625 64.59375 
L 19.828125 64.59375 
L 19.828125 46.734375 
Q 21.96875 47.46875 24.109375 47.828125 
Q 26.265625 48.1875 28.421875 48.1875 
Q 40.625 48.1875 47.75 41.5 
Q 54.890625 34.8125 54.890625 23.390625 
Q 54.890625 11.625 47.5625 5.09375 
Q 40.234375 -1.421875 26.90625 -1.421875 
Q 22.3125 -1.421875 17.546875 -0.640625 
Q 12.796875 0.140625 7.71875 1.703125 
L 7.71875 11.625 
Q 12.109375 9.234375 16.796875 8.0625 
Q 21.484375 6.890625 26.703125 6.890625 
Q 35.15625 6.890625 40.078125 11.328125 
Q 45.015625 15.765625 45.015625 23.390625 
Q 45.015625 31 40.078125 35.4375 
Q 35.15625 39.890625 26.703125 39.890625 
Q 22.75 39.890625 18.8125 39.015625 
Q 14.890625 38.140625 10.796875 36.28125 
z
" id="DejaVuSans-53"/>
      <path d="M 25.390625 72.90625 
L 33.6875 72.90625 
L 8.296875 -9.28125 
L 0 -9.28125 
z
" id="DejaVuSans-47"/>
     </defs>
     <use xlink:href="#DejaVuSans-118"/>
     <use x="59.179688" xlink:href="#DejaVuSans-111"/>
     <use x="120.361328" xlink:href="#DejaVuSans-114"/>
     <use x="161.474609" xlink:href="#DejaVuSans-98"/>
     <use x="224.951172" xlink:href="#DejaVuSans-105"/>
     <use x="252.734375" xlink:href="#DejaVuSans-115"/>
     <use x="304.833984" xlink:href="#DejaVuSans-45"/>
     <use x="340.917969" xlink:href="#DejaVuSans-50"/>
     <use x="404.541016" xlink:href="#DejaVuSans-48"/>
     <use x="468.164062" xlink:href="#DejaVuSans-49"/>
     <use x="531.787109" xlink:href="#DejaVuSans-55"/>
     <use x="595.410156" xlink:href="#DejaVuSans-45"/>
     <use x="631.494141" xlink:href="#DejaVuSans-49"/>
     <use x="695.117188" xlink:href="#DejaVuSans-50"/>
     <use x="758.740234" xlink:href="#DejaVuSans-45"/>
     <use x="794.824219" xlink:href="#DejaVuSans-49"/>
     <use x="858.447266" xlink:href="#DejaVuSans-49"/>
     <use x="922.070312" xlink:href="#DejaVuSans-32"/>
     <use x="953.857422" xlink:href="#DejaVuSans-40"/>
     <use x="992.871094" xlink:href="#DejaVuSans-51"/>
     <use x="1056.494141" xlink:href="#DejaVuSans-48"/>
     <use x="1120.117188" xlink:href="#DejaVuSans-109"/>
     <use x="1217.529297" xlink:href="#DejaVuSans-44"/>
     <use x="1249.316406" xlink:href="#DejaVuSans-32"/>
     <use x="1281.103516" xlink:href="#DejaVuSans-53"/>
     <use x="1344.726562" xlink:href="#DejaVuSans-32"/>
     <use x="1376.513672" xlink:href="#DejaVuSans-116"/>
     <use x="1415.722656" xlink:href="#DejaVuSans-114"/>
     <use x="1456.835938" xlink:href="#DejaVuSans-105"/>
     <use x="1484.619141" xlink:href="#DejaVuSans-97"/>
     <use x="1545.898438" xlink:href="#DejaVuSans-108"/>
     <use x="1573.681641" xlink:href="#DejaVuSans-115"/>
     <use x="1625.78125" xlink:href="#DejaVuSans-47"/>
     <use x="1659.472656" xlink:href="#DejaVuSans-102"/>
     <use x="1694.677734" xlink:href="#DejaVuSans-117"/>
     <use x="1758.056641" xlink:href="#DejaVuSans-122"/>
     <use x="1810.546875" xlink:href="#DejaVuSans-122"/>
     <use x="1863.037109" xlink:href="#DejaVuSans-101"/>
     <use x="1924.560547" xlink:href="#DejaVuSans-114"/>
     <use x="1965.673828" xlink:href="#DejaVuSans-41"/>
    </g>
   </g>
  </g>
 </g>
 <defs>
  <clipPath id="pd7444d83f2">
   <rect height="266.112" width="357.12" x="53.328125" y="22.318125"/>
  </clipPath>
 </defs>
</svg>
