<?xml version="1.0" encoding="utf-8" standalone="no"?>
<!DOCTYPE svg PUBLIC "-//W3C//DTD SVG 1.1//EN"
  "http://www.w3.org/Graphics/SVG/1.1/DTD/svg11.dtd">
<!-- Created with matplotlib (https://matplotlib.org/) -->
<svg height="383.704834pt" version="1.1" viewBox="0 0 411.285625 383.704834" width="411.285625pt" xmlns="http://www.w3.org/2000/svg" xmlns:xlink="http://www.w3.org/1999/xlink">
 <metadata>
  <rdf:RDF xmlns:cc="http://creativecommons.org/ns#" xmlns:dc="http://purl.org/dc/elements/1.1/" xmlns:rdf="http://www.w3.org/1999/02/22-rdf-syntax-ns#">
   <cc:Work>
    <dc:type rdf:resource="http://purl.org/dc/dcmitype/StillImage"/>
    <dc:date>2021-02-01T13:49:24.815114</dc:date>
    <dc:format>image/svg+xml</dc:format>
    <dc:creator>
     <cc:Agent>
      <dc:title>Matplotlib v3.3.3, https://matplotlib.org/</dc:title>
     </cc:Agent>
    </dc:creator>
   </cc:Work>
  </rdf:RDF>
 </metadata>
 <defs>
  <style type="text/css">*{stroke-linecap:butt;stroke-linejoin:round;}</style>
 </defs>
 <g id="figure_1">
  <g id="patch_1">
   <path d="M 0 383.704834 
L 411.285625 383.704834 
L 411.285625 0 
L 0 0 
z
" style="fill:#ffffff;"/>
  </g>
  <g id="axes_1">
   <g id="patch_2">
    <path d="M 46.965625 288.430125 
L 404.085625 288.430125 
L 404.085625 22.318125 
L 46.965625 22.318125 
z
" style="fill:#ffffff;"/>
   </g>
   <g id="PolyCollection_1">
    <defs>
     <path d="M 303.709264 -347.85 
L 303.581986 -347.85 
L 303.564905 -347.856686 
L 303.544767 -347.863373 
L 303.521486 -347.87006 
L 303.495113 -347.876746 
L 303.465861 -347.883433 
L 303.43413 -347.890119 
L 303.400512 -347.896806 
L 303.365791 -347.903492 
L 303.330921 -347.910179 
L 303.29699 -347.916865 
L 303.265167 -347.923552 
L 303.236637 -347.930239 
L 303.212531 -347.936925 
L 303.193851 -347.943612 
L 303.181402 -347.950298 
L 303.17573 -347.956985 
L 303.17709 -347.963671 
L 303.185421 -347.970358 
L 303.200352 -347.977044 
L 303.22123 -347.983731 
L 303.247169 -347.990418 
L 303.277106 -347.997104 
L 303.309883 -348.003791 
L 303.344311 -348.010477 
L 303.379246 -348.017164 
L 303.413646 -348.02385 
L 303.44662 -348.030537 
L 303.477455 -348.037223 
L 303.505635 -348.04391 
L 303.530832 -348.050597 
L 303.552899 -348.057283 
L 303.571842 -348.06397 
L 303.587792 -348.070656 
L 303.60097 -348.077343 
L 303.611661 -348.084029 
L 303.620177 -348.090716 
L 303.626842 -348.097402 
L 303.631967 -348.104089 
L 303.63584 -348.110776 
L 303.638716 -348.117462 
L 303.640811 -348.124149 
L 303.642308 -348.130835 
L 303.643348 -348.137522 
L 303.644039 -348.144208 
L 303.644458 -348.150895 
L 303.644647 -348.157581 
L 303.644615 -348.164268 
L 303.644332 -348.170955 
L 303.643723 -348.177641 
L 303.642649 -348.184328 
L 303.640889 -348.191014 
L 303.638109 -348.197701 
L 303.633821 -348.204387 
L 303.627331 -348.211074 
L 303.61768 -348.21776 
L 303.603564 -348.224447 
L 303.583256 -348.231134 
L 303.554523 -348.23782 
L 303.514536 -348.244507 
L 303.459814 -348.251193 
L 303.386179 -348.25788 
L 303.288773 -348.264566 
L 303.162124 -348.271253 
L 303.000307 -348.277939 
L 302.797191 -348.284626 
L 302.546796 -348.291313 
L 302.24375 -348.297999 
L 301.883827 -348.304686 
L 301.464552 -348.311372 
L 300.985807 -348.318059 
L 300.450403 -348.324745 
L 299.864529 -348.331432 
L 299.238029 -348.338118 
L 298.584427 -348.344805 
L 297.920666 -348.351492 
L 297.266532 -348.358178 
L 296.643772 -348.364865 
L 296.074952 -348.371551 
L 295.582127 -348.378238 
L 295.185439 -348.384924 
L 294.901751 -348.391611 
L 294.743467 -348.398298 
L 294.717625 -348.404984 
L 294.825382 -348.411671 
L 295.061927 -348.418357 
L 295.416839 -348.425044 
L 295.874846 -348.43173 
L 296.416914 -348.438417 
L 297.02156 -348.445103 
L 297.666249 -348.45179 
L 298.328773 -348.458477 
L 298.988469 -348.465163 
L 299.627213 -348.47185 
L 300.230114 -348.478536 
L 300.7859 -348.485223 
L 301.286992 -348.491909 
L 301.729323 -348.498596 
L 302.111944 -348.505282 
L 302.436493 -348.511969 
L 304.854757 -348.511969 
L 304.854757 -348.511969 
L 305.179306 -348.505282 
L 305.561927 -348.498596 
L 306.004258 -348.491909 
L 306.50535 -348.485223 
L 307.061136 -348.478536 
L 307.664037 -348.47185 
L 308.302781 -348.465163 
L 308.962477 -348.458477 
L 309.625001 -348.45179 
L 310.26969 -348.445103 
L 310.874336 -348.438417 
L 311.416404 -348.43173 
L 311.874411 -348.425044 
L 312.229323 -348.418357 
L 312.465868 -348.411671 
L 312.573625 -348.404984 
L 312.547783 -348.398298 
L 312.389499 -348.391611 
L 312.105811 -348.384924 
L 311.709123 -348.378238 
L 311.216298 -348.371551 
L 310.647478 -348.364865 
L 310.024718 -348.358178 
L 309.370584 -348.351492 
L 308.706823 -348.344805 
L 308.053221 -348.338118 
L 307.426721 -348.331432 
L 306.840847 -348.324745 
L 306.305443 -348.318059 
L 305.826698 -348.311372 
L 305.407423 -348.304686 
L 305.0475 -348.297999 
L 304.744454 -348.291313 
L 304.494059 -348.284626 
L 304.290943 -348.277939 
L 304.129126 -348.271253 
L 304.002477 -348.264566 
L 303.905071 -348.25788 
L 303.831436 -348.251193 
L 303.776714 -348.244507 
L 303.736727 -348.23782 
L 303.707994 -348.231134 
L 303.687686 -348.224447 
L 303.67357 -348.21776 
L 303.663919 -348.211074 
L 303.657429 -348.204387 
L 303.653141 -348.197701 
L 303.650361 -348.191014 
L 303.648601 -348.184328 
L 303.647527 -348.177641 
L 303.646918 -348.170955 
L 303.646635 -348.164268 
L 303.646603 -348.157581 
L 303.646792 -348.150895 
L 303.647211 -348.144208 
L 303.647902 -348.137522 
L 303.648942 -348.130835 
L 303.650439 -348.124149 
L 303.652534 -348.117462 
L 303.65541 -348.110776 
L 303.659283 -348.104089 
L 303.664408 -348.097402 
L 303.671073 -348.090716 
L 303.679589 -348.084029 
L 303.69028 -348.077343 
L 303.703458 -348.070656 
L 303.719408 -348.06397 
L 303.738351 -348.057283 
L 303.760418 -348.050597 
L 303.785615 -348.04391 
L 303.813795 -348.037223 
L 303.84463 -348.030537 
L 303.877604 -348.02385 
L 303.912004 -348.017164 
L 303.946939 -348.010477 
L 303.981367 -348.003791 
L 304.014144 -347.997104 
L 304.044081 -347.990418 
L 304.07002 -347.983731 
L 304.090898 -347.977044 
L 304.105829 -347.970358 
L 304.11416 -347.963671 
L 304.11552 -347.956985 
L 304.109848 -347.950298 
L 304.097399 -347.943612 
L 304.078719 -347.936925 
L 304.054613 -347.930239 
L 304.026083 -347.923552 
L 303.99426 -347.916865 
L 303.960329 -347.910179 
L 303.925459 -347.903492 
L 303.890738 -347.896806 
L 303.85712 -347.890119 
L 303.825389 -347.883433 
L 303.796137 -347.876746 
L 303.769764 -347.87006 
L 303.746483 -347.863373 
L 303.726345 -347.856686 
L 303.709264 -347.85 
z
" id="mce8564aa80" style="stroke:#3d3d3d;stroke-width:1.5;"/>
    </defs>
    <g clip-path="url(#p8130cf471b)">
     <use style="fill:#9fd495;stroke:#3d3d3d;stroke-width:1.5;" x="0" xlink:href="#mce8564aa80" y="383.704834"/>
    </g>
   </g>
   <g id="PolyCollection_2">
    <defs>
     <path d="M 348.563019 -347.708885 
L 348.008231 -347.708885 
L 347.963469 -347.718423 
L 347.913653 -347.72796 
L 347.858623 -347.737497 
L 347.798294 -347.747035 
L 347.732666 -347.756572 
L 347.661837 -347.76611 
L 347.586015 -347.775647 
L 347.505525 -347.785184 
L 347.420817 -347.794722 
L 347.332467 -347.804259 
L 347.24118 -347.813796 
L 347.147783 -347.823334 
L 347.053217 -347.832871 
L 346.958525 -347.842408 
L 346.864835 -347.851946 
L 346.77334 -347.861483 
L 346.685271 -347.87102 
L 346.601873 -347.880558 
L 346.524374 -347.890095 
L 346.453953 -347.899632 
L 346.391712 -347.90917 
L 346.338646 -347.918707 
L 346.29561 -347.928245 
L 346.263301 -347.937782 
L 346.242231 -347.947319 
L 346.232712 -347.956857 
L 346.234846 -347.966394 
L 346.248515 -347.975931 
L 346.273386 -347.985469 
L 346.308915 -347.995006 
L 346.354354 -348.004543 
L 346.408775 -348.014081 
L 346.471084 -348.023618 
L 346.540051 -348.033155 
L 346.614331 -348.042693 
L 346.6925 -348.05223 
L 346.773079 -348.061767 
L 346.854566 -348.071305 
L 346.935467 -348.080842 
L 347.014318 -348.09038 
L 347.089718 -348.099917 
L 347.160344 -348.109454 
L 347.224977 -348.118992 
L 347.282515 -348.128529 
L 347.33199 -348.138066 
L 347.37258 -348.147604 
L 347.403615 -348.157141 
L 347.42459 -348.166678 
L 347.435163 -348.176216 
L 347.435163 -348.185753 
L 347.42459 -348.19529 
L 347.403615 -348.204828 
L 347.37258 -348.214365 
L 347.33199 -348.223902 
L 347.282515 -348.23344 
L 347.224977 -348.242977 
L 347.160344 -348.252515 
L 347.089718 -348.262052 
L 347.014318 -348.271589 
L 346.935467 -348.281127 
L 346.854566 -348.290664 
L 346.773079 -348.300201 
L 346.6925 -348.309739 
L 346.614331 -348.319276 
L 346.540051 -348.328813 
L 346.471084 -348.338351 
L 346.408775 -348.347888 
L 346.354354 -348.357425 
L 346.308915 -348.366963 
L 346.273386 -348.3765 
L 346.248515 -348.386037 
L 346.234846 -348.395575 
L 346.232712 -348.405112 
L 346.242231 -348.41465 
L 346.263301 -348.424187 
L 346.29561 -348.433724 
L 346.338646 -348.443262 
L 346.391712 -348.452799 
L 346.453953 -348.462336 
L 346.524374 -348.471874 
L 346.601873 -348.481411 
L 346.685271 -348.490948 
L 346.77334 -348.500486 
L 346.864835 -348.510023 
L 346.958525 -348.51956 
L 347.053217 -348.529098 
L 347.147783 -348.538635 
L 347.24118 -348.548172 
L 347.332467 -348.55771 
L 347.420817 -348.567247 
L 347.505525 -348.576785 
L 347.586015 -348.586322 
L 347.661837 -348.595859 
L 347.732666 -348.605397 
L 347.798294 -348.614934 
L 347.858623 -348.624471 
L 347.913653 -348.634009 
L 347.963469 -348.643546 
L 348.008231 -348.653083 
L 348.563019 -348.653083 
L 348.563019 -348.653083 
L 348.607781 -348.643546 
L 348.657597 -348.634009 
L 348.712627 -348.624471 
L 348.772956 -348.614934 
L 348.838584 -348.605397 
L 348.909413 -348.595859 
L 348.985235 -348.586322 
L 349.065725 -348.576785 
L 349.150433 -348.567247 
L 349.238783 -348.55771 
L 349.33007 -348.548172 
L 349.423467 -348.538635 
L 349.518033 -348.529098 
L 349.612725 -348.51956 
L 349.706415 -348.510023 
L 349.79791 -348.500486 
L 349.885979 -348.490948 
L 349.969377 -348.481411 
L 350.046876 -348.471874 
L 350.117297 -348.462336 
L 350.179538 -348.452799 
L 350.232604 -348.443262 
L 350.27564 -348.433724 
L 350.307949 -348.424187 
L 350.329019 -348.41465 
L 350.338538 -348.405112 
L 350.336404 -348.395575 
L 350.322735 -348.386037 
L 350.297864 -348.3765 
L 350.262335 -348.366963 
L 350.216896 -348.357425 
L 350.162475 -348.347888 
L 350.100166 -348.338351 
L 350.031199 -348.328813 
L 349.956919 -348.319276 
L 349.87875 -348.309739 
L 349.798171 -348.300201 
L 349.716684 -348.290664 
L 349.635783 -348.281127 
L 349.556932 -348.271589 
L 349.481532 -348.262052 
L 349.410906 -348.252515 
L 349.346273 -348.242977 
L 349.288735 -348.23344 
L 349.23926 -348.223902 
L 349.19867 -348.214365 
L 349.167635 -348.204828 
L 349.14666 -348.19529 
L 349.136087 -348.185753 
L 349.136087 -348.176216 
L 349.14666 -348.166678 
L 349.167635 -348.157141 
L 349.19867 -348.147604 
L 349.23926 -348.138066 
L 349.288735 -348.128529 
L 349.346273 -348.118992 
L 349.410906 -348.109454 
L 349.481532 -348.099917 
L 349.556932 -348.09038 
L 349.635783 -348.080842 
L 349.716684 -348.071305 
L 349.798171 -348.061767 
L 349.87875 -348.05223 
L 349.956919 -348.042693 
L 350.031199 -348.033155 
L 350.100166 -348.023618 
L 350.162475 -348.014081 
L 350.216896 -348.004543 
L 350.262335 -347.995006 
L 350.297864 -347.985469 
L 350.322735 -347.975931 
L 350.336404 -347.966394 
L 350.338538 -347.956857 
L 350.329019 -347.947319 
L 350.307949 -347.937782 
L 350.27564 -347.928245 
L 350.232604 -347.918707 
L 350.179538 -347.90917 
L 350.117297 -347.899632 
L 350.046876 -347.890095 
L 349.969377 -347.880558 
L 349.885979 -347.87102 
L 349.79791 -347.861483 
L 349.706415 -347.851946 
L 349.612725 -347.842408 
L 349.518033 -347.832871 
L 349.423467 -347.823334 
L 349.33007 -347.813796 
L 349.238783 -347.804259 
L 349.150433 -347.794722 
L 349.065725 -347.785184 
L 348.985235 -347.775647 
L 348.909413 -347.76611 
L 348.838584 -347.756572 
L 348.772956 -347.747035 
L 348.712627 -347.737497 
L 348.657597 -347.72796 
L 348.607781 -347.718423 
L 348.563019 -347.708885 
z
" id="mb53c7ded3e" style="stroke:#3d3d3d;stroke-width:1.5;"/>
    </defs>
    <g clip-path="url(#p8130cf471b)">
     <use style="fill:#c7c7c7;stroke:#3d3d3d;stroke-width:1.5;" x="0" xlink:href="#mb53c7ded3e" y="383.704834"/>
    </g>
   </g>
   <g id="PolyCollection_3">
    <defs>
     <path d="M 370.609105 -338.195708 
L 370.602145 -338.195708 
L 370.601386 -338.307756 
L 370.600514 -338.419804 
L 370.599525 -338.531852 
L 370.598418 -338.6439 
L 370.597195 -338.755948 
L 370.595862 -338.867996 
L 370.594432 -338.980044 
L 370.592919 -339.092092 
L 370.591343 -339.20414 
L 370.589726 -339.316188 
L 370.588094 -339.428236 
L 370.586476 -339.540284 
L 370.584898 -339.652332 
L 370.583387 -339.76438 
L 370.581965 -339.876428 
L 370.580649 -339.988476 
L 370.579449 -340.100524 
L 370.578365 -340.212572 
L 370.577385 -340.324621 
L 370.576489 -340.436669 
L 370.57564 -340.548717 
L 370.574791 -340.660765 
L 370.573884 -340.772813 
L 370.572849 -340.884861 
L 370.571608 -340.996909 
L 370.570079 -341.108957 
L 370.568179 -341.221005 
L 370.565824 -341.333053 
L 370.562939 -341.445101 
L 370.559459 -341.557149 
L 370.555336 -341.669197 
L 370.550538 -341.781245 
L 370.545059 -341.893293 
L 370.538917 -342.005341 
L 370.532156 -342.117389 
L 370.524852 -342.229437 
L 370.517102 -342.341485 
L 370.509033 -342.453533 
L 370.500789 -342.565581 
L 370.492533 -342.677629 
L 370.484437 -342.789677 
L 370.476674 -342.901725 
L 370.469412 -343.013773 
L 370.462809 -343.125821 
L 370.456996 -343.237869 
L 370.452081 -343.349917 
L 370.448132 -343.461965 
L 370.445179 -343.574013 
L 370.443211 -343.686061 
L 370.44217 -343.798109 
L 370.441954 -343.910157 
L 370.442422 -344.022205 
L 370.443398 -344.134253 
L 370.444676 -344.246301 
L 370.446032 -344.358349 
L 370.44723 -344.470397 
L 370.448035 -344.582446 
L 370.448225 -344.694494 
L 370.447597 -344.806542 
L 370.445984 -344.91859 
L 370.443257 -345.030638 
L 370.439341 -345.142686 
L 370.434212 -345.254734 
L 370.427908 -345.366782 
L 370.420527 -345.47883 
L 370.412226 -345.590878 
L 370.403218 -345.702926 
L 370.393764 -345.814974 
L 370.384164 -345.927022 
L 370.374748 -346.03907 
L 370.365857 -346.151118 
L 370.357837 -346.263166 
L 370.351017 -346.375214 
L 370.345697 -346.487262 
L 370.342138 -346.59931 
L 370.340544 -346.711358 
L 370.341058 -346.823406 
L 370.343753 -346.935454 
L 370.348632 -347.047502 
L 370.355626 -347.15955 
L 370.364598 -347.271598 
L 370.375356 -347.383646 
L 370.387653 -347.495694 
L 370.401208 -347.607742 
L 370.415714 -347.71979 
L 370.430855 -347.831838 
L 370.446313 -347.943886 
L 370.461789 -348.055934 
L 370.477004 -348.167982 
L 370.491714 -348.28003 
L 370.505714 -348.392078 
L 370.51884 -348.504126 
L 370.530971 -348.616174 
L 370.54203 -348.728222 
L 370.551978 -348.840271 
L 370.56081 -348.952319 
L 370.568553 -349.064367 
L 370.575258 -349.176415 
L 370.580993 -349.288463 
L 370.630257 -349.288463 
L 370.630257 -349.288463 
L 370.635992 -349.176415 
L 370.642697 -349.064367 
L 370.65044 -348.952319 
L 370.659272 -348.840271 
L 370.66922 -348.728222 
L 370.680279 -348.616174 
L 370.69241 -348.504126 
L 370.705536 -348.392078 
L 370.719536 -348.28003 
L 370.734246 -348.167982 
L 370.749461 -348.055934 
L 370.764937 -347.943886 
L 370.780395 -347.831838 
L 370.795536 -347.71979 
L 370.810042 -347.607742 
L 370.823597 -347.495694 
L 370.835894 -347.383646 
L 370.846652 -347.271598 
L 370.855624 -347.15955 
L 370.862618 -347.047502 
L 370.867497 -346.935454 
L 370.870192 -346.823406 
L 370.870706 -346.711358 
L 370.869112 -346.59931 
L 370.865553 -346.487262 
L 370.860233 -346.375214 
L 370.853413 -346.263166 
L 370.845393 -346.151118 
L 370.836502 -346.03907 
L 370.827086 -345.927022 
L 370.817486 -345.814974 
L 370.808032 -345.702926 
L 370.799024 -345.590878 
L 370.790723 -345.47883 
L 370.783342 -345.366782 
L 370.777038 -345.254734 
L 370.771909 -345.142686 
L 370.767993 -345.030638 
L 370.765266 -344.91859 
L 370.763653 -344.806542 
L 370.763025 -344.694494 
L 370.763215 -344.582446 
L 370.76402 -344.470397 
L 370.765218 -344.358349 
L 370.766574 -344.246301 
L 370.767852 -344.134253 
L 370.768828 -344.022205 
L 370.769296 -343.910157 
L 370.76908 -343.798109 
L 370.768039 -343.686061 
L 370.766071 -343.574013 
L 370.763118 -343.461965 
L 370.759169 -343.349917 
L 370.754254 -343.237869 
L 370.748441 -343.125821 
L 370.741838 -343.013773 
L 370.734576 -342.901725 
L 370.726813 -342.789677 
L 370.718717 -342.677629 
L 370.710461 -342.565581 
L 370.702217 -342.453533 
L 370.694148 -342.341485 
L 370.686398 -342.229437 
L 370.679094 -342.117389 
L 370.672333 -342.005341 
L 370.666191 -341.893293 
L 370.660712 -341.781245 
L 370.655914 -341.669197 
L 370.651791 -341.557149 
L 370.648311 -341.445101 
L 370.645426 -341.333053 
L 370.643071 -341.221005 
L 370.641171 -341.108957 
L 370.639642 -340.996909 
L 370.638401 -340.884861 
L 370.637366 -340.772813 
L 370.636459 -340.660765 
L 370.63561 -340.548717 
L 370.634761 -340.436669 
L 370.633865 -340.324621 
L 370.632885 -340.212572 
L 370.631801 -340.100524 
L 370.630601 -339.988476 
L 370.629285 -339.876428 
L 370.627863 -339.76438 
L 370.626352 -339.652332 
L 370.624774 -339.540284 
L 370.623156 -339.428236 
L 370.621524 -339.316188 
L 370.619907 -339.20414 
L 370.618331 -339.092092 
L 370.616818 -338.980044 
L 370.615388 -338.867996 
L 370.614055 -338.755948 
L 370.612832 -338.6439 
L 370.611725 -338.531852 
L 370.610736 -338.419804 
L 370.609864 -338.307756 
L 370.609105 -338.195708 
z
" id="m3eb41ff2f7" style="stroke:#3d3d3d;stroke-width:1.5;"/>
    </defs>
    <g clip-path="url(#p8130cf471b)">
     <use style="fill:#a7d4dc;stroke:#3d3d3d;stroke-width:1.5;" x="0" xlink:href="#m3eb41ff2f7" y="383.704834"/>
    </g>
   </g>
   <g id="matplotlib.axis_1">
    <g id="xtick_1">
     <g id="line2d_1">
      <defs>
       <path d="M 0 0 
L 0 3.5 
" id="mfab65535fd" style="stroke:#000000;stroke-width:0.8;"/>
      </defs>
      <g>
       <use style="stroke:#000000;stroke-width:0.8;" x="58.125625" xlink:href="#mfab65535fd" y="288.430125"/>
      </g>
     </g>
     <g id="text_1">
      <!-- libfuzzer -->
      <g transform="translate(20.259404 323.272284)rotate(-30)scale(0.1 -0.1)">
       <defs>
        <path d="M 9.421875 75.984375 
L 18.40625 75.984375 
L 18.40625 0 
L 9.421875 0 
z
" id="DejaVuSans-108"/>
        <path d="M 9.421875 54.6875 
L 18.40625 54.6875 
L 18.40625 0 
L 9.421875 0 
z
M 9.421875 75.984375 
L 18.40625 75.984375 
L 18.40625 64.59375 
L 9.421875 64.59375 
z
" id="DejaVuSans-105"/>
        <path d="M 48.6875 27.296875 
Q 48.6875 37.203125 44.609375 42.84375 
Q 40.53125 48.484375 33.40625 48.484375 
Q 26.265625 48.484375 22.1875 42.84375 
Q 18.109375 37.203125 18.109375 27.296875 
Q 18.109375 17.390625 22.1875 11.75 
Q 26.265625 6.109375 33.40625 6.109375 
Q 40.53125 6.109375 44.609375 11.75 
Q 48.6875 17.390625 48.6875 27.296875 
z
M 18.109375 46.390625 
Q 20.953125 51.265625 25.265625 53.625 
Q 29.59375 56 35.59375 56 
Q 45.5625 56 51.78125 48.09375 
Q 58.015625 40.1875 58.015625 27.296875 
Q 58.015625 14.40625 51.78125 6.484375 
Q 45.5625 -1.421875 35.59375 -1.421875 
Q 29.59375 -1.421875 25.265625 0.953125 
Q 20.953125 3.328125 18.109375 8.203125 
L 18.109375 0 
L 9.078125 0 
L 9.078125 75.984375 
L 18.109375 75.984375 
z
" id="DejaVuSans-98"/>
        <path d="M 37.109375 75.984375 
L 37.109375 68.5 
L 28.515625 68.5 
Q 23.6875 68.5 21.796875 66.546875 
Q 19.921875 64.59375 19.921875 59.515625 
L 19.921875 54.6875 
L 34.71875 54.6875 
L 34.71875 47.703125 
L 19.921875 47.703125 
L 19.921875 0 
L 10.890625 0 
L 10.890625 47.703125 
L 2.296875 47.703125 
L 2.296875 54.6875 
L 10.890625 54.6875 
L 10.890625 58.5 
Q 10.890625 67.625 15.140625 71.796875 
Q 19.390625 75.984375 28.609375 75.984375 
z
" id="DejaVuSans-102"/>
        <path d="M 8.5 21.578125 
L 8.5 54.6875 
L 17.484375 54.6875 
L 17.484375 21.921875 
Q 17.484375 14.15625 20.5 10.265625 
Q 23.53125 6.390625 29.59375 6.390625 
Q 36.859375 6.390625 41.078125 11.03125 
Q 45.3125 15.671875 45.3125 23.6875 
L 45.3125 54.6875 
L 54.296875 54.6875 
L 54.296875 0 
L 45.3125 0 
L 45.3125 8.40625 
Q 42.046875 3.421875 37.71875 1 
Q 33.40625 -1.421875 27.6875 -1.421875 
Q 18.265625 -1.421875 13.375 4.4375 
Q 8.5 10.296875 8.5 21.578125 
z
M 31.109375 56 
z
" id="DejaVuSans-117"/>
        <path d="M 5.515625 54.6875 
L 48.1875 54.6875 
L 48.1875 46.484375 
L 14.40625 7.171875 
L 48.1875 7.171875 
L 48.1875 0 
L 4.296875 0 
L 4.296875 8.203125 
L 38.09375 47.515625 
L 5.515625 47.515625 
z
" id="DejaVuSans-122"/>
        <path d="M 56.203125 29.59375 
L 56.203125 25.203125 
L 14.890625 25.203125 
Q 15.484375 15.921875 20.484375 11.0625 
Q 25.484375 6.203125 34.421875 6.203125 
Q 39.59375 6.203125 44.453125 7.46875 
Q 49.3125 8.734375 54.109375 11.28125 
L 54.109375 2.78125 
Q 49.265625 0.734375 44.1875 -0.34375 
Q 39.109375 -1.421875 33.890625 -1.421875 
Q 20.796875 -1.421875 13.15625 6.1875 
Q 5.515625 13.8125 5.515625 26.8125 
Q 5.515625 40.234375 12.765625 48.109375 
Q 20.015625 56 32.328125 56 
Q 43.359375 56 49.78125 48.890625 
Q 56.203125 41.796875 56.203125 29.59375 
z
M 47.21875 32.234375 
Q 47.125 39.59375 43.09375 43.984375 
Q 39.0625 48.390625 32.421875 48.390625 
Q 24.90625 48.390625 20.390625 44.140625 
Q 15.875 39.890625 15.1875 32.171875 
z
" id="DejaVuSans-101"/>
        <path d="M 41.109375 46.296875 
Q 39.59375 47.171875 37.8125 47.578125 
Q 36.03125 48 33.890625 48 
Q 26.265625 48 22.1875 43.046875 
Q 18.109375 38.09375 18.109375 28.8125 
L 18.109375 0 
L 9.078125 0 
L 9.078125 54.6875 
L 18.109375 54.6875 
L 18.109375 46.1875 
Q 20.953125 51.171875 25.484375 53.578125 
Q 30.03125 56 36.53125 56 
Q 37.453125 56 38.578125 55.875 
Q 39.703125 55.765625 41.0625 55.515625 
z
" id="DejaVuSans-114"/>
       </defs>
       <use xlink:href="#DejaVuSans-108"/>
       <use x="27.783203" xlink:href="#DejaVuSans-105"/>
       <use x="55.566406" xlink:href="#DejaVuSans-98"/>
       <use x="119.042969" xlink:href="#DejaVuSans-102"/>
       <use x="154.248047" xlink:href="#DejaVuSans-117"/>
       <use x="217.626953" xlink:href="#DejaVuSans-122"/>
       <use x="270.117188" xlink:href="#DejaVuSans-122"/>
       <use x="322.607422" xlink:href="#DejaVuSans-101"/>
       <use x="384.130859" xlink:href="#DejaVuSans-114"/>
      </g>
     </g>
    </g>
    <g id="xtick_2">
     <g id="line2d_2">
      <g>
       <use style="stroke:#000000;stroke-width:0.8;" x="80.445625" xlink:href="#mfab65535fd" y="288.430125"/>
      </g>
     </g>
     <g id="text_2">
      <!-- honggfuzz -->
      <g transform="translate(34.506424 327.933221)rotate(-30)scale(0.1 -0.1)">
       <defs>
        <path d="M 54.890625 33.015625 
L 54.890625 0 
L 45.90625 0 
L 45.90625 32.71875 
Q 45.90625 40.484375 42.875 44.328125 
Q 39.84375 48.1875 33.796875 48.1875 
Q 26.515625 48.1875 22.3125 43.546875 
Q 18.109375 38.921875 18.109375 30.90625 
L 18.109375 0 
L 9.078125 0 
L 9.078125 75.984375 
L 18.109375 75.984375 
L 18.109375 46.1875 
Q 21.34375 51.125 25.703125 53.5625 
Q 30.078125 56 35.796875 56 
Q 45.21875 56 50.046875 50.171875 
Q 54.890625 44.34375 54.890625 33.015625 
z
" id="DejaVuSans-104"/>
        <path d="M 30.609375 48.390625 
Q 23.390625 48.390625 19.1875 42.75 
Q 14.984375 37.109375 14.984375 27.296875 
Q 14.984375 17.484375 19.15625 11.84375 
Q 23.34375 6.203125 30.609375 6.203125 
Q 37.796875 6.203125 41.984375 11.859375 
Q 46.1875 17.53125 46.1875 27.296875 
Q 46.1875 37.015625 41.984375 42.703125 
Q 37.796875 48.390625 30.609375 48.390625 
z
M 30.609375 56 
Q 42.328125 56 49.015625 48.375 
Q 55.71875 40.765625 55.71875 27.296875 
Q 55.71875 13.875 49.015625 6.21875 
Q 42.328125 -1.421875 30.609375 -1.421875 
Q 18.84375 -1.421875 12.171875 6.21875 
Q 5.515625 13.875 5.515625 27.296875 
Q 5.515625 40.765625 12.171875 48.375 
Q 18.84375 56 30.609375 56 
z
" id="DejaVuSans-111"/>
        <path d="M 54.890625 33.015625 
L 54.890625 0 
L 45.90625 0 
L 45.90625 32.71875 
Q 45.90625 40.484375 42.875 44.328125 
Q 39.84375 48.1875 33.796875 48.1875 
Q 26.515625 48.1875 22.3125 43.546875 
Q 18.109375 38.921875 18.109375 30.90625 
L 18.109375 0 
L 9.078125 0 
L 9.078125 54.6875 
L 18.109375 54.6875 
L 18.109375 46.1875 
Q 21.34375 51.125 25.703125 53.5625 
Q 30.078125 56 35.796875 56 
Q 45.21875 56 50.046875 50.171875 
Q 54.890625 44.34375 54.890625 33.015625 
z
" id="DejaVuSans-110"/>
        <path d="M 45.40625 27.984375 
Q 45.40625 37.75 41.375 43.109375 
Q 37.359375 48.484375 30.078125 48.484375 
Q 22.859375 48.484375 18.828125 43.109375 
Q 14.796875 37.75 14.796875 27.984375 
Q 14.796875 18.265625 18.828125 12.890625 
Q 22.859375 7.515625 30.078125 7.515625 
Q 37.359375 7.515625 41.375 12.890625 
Q 45.40625 18.265625 45.40625 27.984375 
z
M 54.390625 6.78125 
Q 54.390625 -7.171875 48.1875 -13.984375 
Q 42 -20.796875 29.203125 -20.796875 
Q 24.46875 -20.796875 20.265625 -20.09375 
Q 16.0625 -19.390625 12.109375 -17.921875 
L 12.109375 -9.1875 
Q 16.0625 -11.328125 19.921875 -12.34375 
Q 23.78125 -13.375 27.78125 -13.375 
Q 36.625 -13.375 41.015625 -8.765625 
Q 45.40625 -4.15625 45.40625 5.171875 
L 45.40625 9.625 
Q 42.625 4.78125 38.28125 2.390625 
Q 33.9375 0 27.875 0 
Q 17.828125 0 11.671875 7.65625 
Q 5.515625 15.328125 5.515625 27.984375 
Q 5.515625 40.671875 11.671875 48.328125 
Q 17.828125 56 27.875 56 
Q 33.9375 56 38.28125 53.609375 
Q 42.625 51.21875 45.40625 46.390625 
L 45.40625 54.6875 
L 54.390625 54.6875 
z
" id="DejaVuSans-103"/>
       </defs>
       <use xlink:href="#DejaVuSans-104"/>
       <use x="63.378906" xlink:href="#DejaVuSans-111"/>
       <use x="124.560547" xlink:href="#DejaVuSans-110"/>
       <use x="187.939453" xlink:href="#DejaVuSans-103"/>
       <use x="251.416016" xlink:href="#DejaVuSans-103"/>
       <use x="314.892578" xlink:href="#DejaVuSans-102"/>
       <use x="350.097656" xlink:href="#DejaVuSans-117"/>
       <use x="413.476562" xlink:href="#DejaVuSans-122"/>
       <use x="465.966797" xlink:href="#DejaVuSans-122"/>
      </g>
     </g>
    </g>
    <g id="xtick_3">
     <g id="line2d_3">
      <g>
       <use style="stroke:#000000;stroke-width:0.8;" x="102.765625" xlink:href="#mfab65535fd" y="288.430125"/>
      </g>
     </g>
     <g id="text_3">
      <!-- entropic -->
      <g transform="translate(66.183557 322.530877)rotate(-30)scale(0.1 -0.1)">
       <defs>
        <path d="M 18.3125 70.21875 
L 18.3125 54.6875 
L 36.8125 54.6875 
L 36.8125 47.703125 
L 18.3125 47.703125 
L 18.3125 18.015625 
Q 18.3125 11.328125 20.140625 9.421875 
Q 21.96875 7.515625 27.59375 7.515625 
L 36.8125 7.515625 
L 36.8125 0 
L 27.59375 0 
Q 17.1875 0 13.234375 3.875 
Q 9.28125 7.765625 9.28125 18.015625 
L 9.28125 47.703125 
L 2.6875 47.703125 
L 2.6875 54.6875 
L 9.28125 54.6875 
L 9.28125 70.21875 
z
" id="DejaVuSans-116"/>
        <path d="M 18.109375 8.203125 
L 18.109375 -20.796875 
L 9.078125 -20.796875 
L 9.078125 54.6875 
L 18.109375 54.6875 
L 18.109375 46.390625 
Q 20.953125 51.265625 25.265625 53.625 
Q 29.59375 56 35.59375 56 
Q 45.5625 56 51.78125 48.09375 
Q 58.015625 40.1875 58.015625 27.296875 
Q 58.015625 14.40625 51.78125 6.484375 
Q 45.5625 -1.421875 35.59375 -1.421875 
Q 29.59375 -1.421875 25.265625 0.953125 
Q 20.953125 3.328125 18.109375 8.203125 
z
M 48.6875 27.296875 
Q 48.6875 37.203125 44.609375 42.84375 
Q 40.53125 48.484375 33.40625 48.484375 
Q 26.265625 48.484375 22.1875 42.84375 
Q 18.109375 37.203125 18.109375 27.296875 
Q 18.109375 17.390625 22.1875 11.75 
Q 26.265625 6.109375 33.40625 6.109375 
Q 40.53125 6.109375 44.609375 11.75 
Q 48.6875 17.390625 48.6875 27.296875 
z
" id="DejaVuSans-112"/>
        <path d="M 48.78125 52.59375 
L 48.78125 44.1875 
Q 44.96875 46.296875 41.140625 47.34375 
Q 37.3125 48.390625 33.40625 48.390625 
Q 24.65625 48.390625 19.8125 42.84375 
Q 14.984375 37.3125 14.984375 27.296875 
Q 14.984375 17.28125 19.8125 11.734375 
Q 24.65625 6.203125 33.40625 6.203125 
Q 37.3125 6.203125 41.140625 7.25 
Q 44.96875 8.296875 48.78125 10.40625 
L 48.78125 2.09375 
Q 45.015625 0.34375 40.984375 -0.53125 
Q 36.96875 -1.421875 32.421875 -1.421875 
Q 20.0625 -1.421875 12.78125 6.34375 
Q 5.515625 14.109375 5.515625 27.296875 
Q 5.515625 40.671875 12.859375 48.328125 
Q 20.21875 56 33.015625 56 
Q 37.15625 56 41.109375 55.140625 
Q 45.0625 54.296875 48.78125 52.59375 
z
" id="DejaVuSans-99"/>
       </defs>
       <use xlink:href="#DejaVuSans-101"/>
       <use x="61.523438" xlink:href="#DejaVuSans-110"/>
       <use x="124.902344" xlink:href="#DejaVuSans-116"/>
       <use x="164.111328" xlink:href="#DejaVuSans-114"/>
       <use x="202.974609" xlink:href="#DejaVuSans-111"/>
       <use x="264.15625" xlink:href="#DejaVuSans-112"/>
       <use x="327.632812" xlink:href="#DejaVuSans-105"/>
       <use x="355.416016" xlink:href="#DejaVuSans-99"/>
      </g>
     </g>
    </g>
    <g id="xtick_4">
     <g id="line2d_4">
      <g>
       <use style="stroke:#000000;stroke-width:0.8;" x="125.085625" xlink:href="#mfab65535fd" y="288.430125"/>
      </g>
     </g>
     <g id="text_4">
      <!-- z3_new -->
      <g transform="translate(91.621562 320.497501)rotate(-30)scale(0.1 -0.1)">
       <defs>
        <path d="M 40.578125 39.3125 
Q 47.65625 37.796875 51.625 33 
Q 55.609375 28.21875 55.609375 21.1875 
Q 55.609375 10.40625 48.1875 4.484375 
Q 40.765625 -1.421875 27.09375 -1.421875 
Q 22.515625 -1.421875 17.65625 -0.515625 
Q 12.796875 0.390625 7.625 2.203125 
L 7.625 11.71875 
Q 11.71875 9.328125 16.59375 8.109375 
Q 21.484375 6.890625 26.8125 6.890625 
Q 36.078125 6.890625 40.9375 10.546875 
Q 45.796875 14.203125 45.796875 21.1875 
Q 45.796875 27.640625 41.28125 31.265625 
Q 36.765625 34.90625 28.71875 34.90625 
L 20.21875 34.90625 
L 20.21875 43.015625 
L 29.109375 43.015625 
Q 36.375 43.015625 40.234375 45.921875 
Q 44.09375 48.828125 44.09375 54.296875 
Q 44.09375 59.90625 40.109375 62.90625 
Q 36.140625 65.921875 28.71875 65.921875 
Q 24.65625 65.921875 20.015625 65.03125 
Q 15.375 64.15625 9.8125 62.3125 
L 9.8125 71.09375 
Q 15.4375 72.65625 20.34375 73.4375 
Q 25.25 74.21875 29.59375 74.21875 
Q 40.828125 74.21875 47.359375 69.109375 
Q 53.90625 64.015625 53.90625 55.328125 
Q 53.90625 49.265625 50.4375 45.09375 
Q 46.96875 40.921875 40.578125 39.3125 
z
" id="DejaVuSans-51"/>
        <path d="M 50.984375 -16.609375 
L 50.984375 -23.578125 
L -0.984375 -23.578125 
L -0.984375 -16.609375 
z
" id="DejaVuSans-95"/>
        <path d="M 4.203125 54.6875 
L 13.1875 54.6875 
L 24.421875 12.015625 
L 35.59375 54.6875 
L 46.1875 54.6875 
L 57.421875 12.015625 
L 68.609375 54.6875 
L 77.59375 54.6875 
L 63.28125 0 
L 52.6875 0 
L 40.921875 44.828125 
L 29.109375 0 
L 18.5 0 
z
" id="DejaVuSans-119"/>
       </defs>
       <use xlink:href="#DejaVuSans-122"/>
       <use x="52.490234" xlink:href="#DejaVuSans-51"/>
       <use x="116.113281" xlink:href="#DejaVuSans-95"/>
       <use x="166.113281" xlink:href="#DejaVuSans-110"/>
       <use x="229.492188" xlink:href="#DejaVuSans-101"/>
       <use x="291.015625" xlink:href="#DejaVuSans-119"/>
      </g>
     </g>
    </g>
    <g id="xtick_5">
     <g id="line2d_5">
      <g>
       <use style="stroke:#000000;stroke-width:0.8;" x="147.405625" xlink:href="#mfab65535fd" y="288.430125"/>
      </g>
     </g>
     <g id="text_5">
      <!-- mopt -->
      <g transform="translate(123.738161 315.074627)rotate(-30)scale(0.1 -0.1)">
       <defs>
        <path d="M 52 44.1875 
Q 55.375 50.25 60.0625 53.125 
Q 64.75 56 71.09375 56 
Q 79.640625 56 84.28125 50.015625 
Q 88.921875 44.046875 88.921875 33.015625 
L 88.921875 0 
L 79.890625 0 
L 79.890625 32.71875 
Q 79.890625 40.578125 77.09375 44.375 
Q 74.3125 48.1875 68.609375 48.1875 
Q 61.625 48.1875 57.5625 43.546875 
Q 53.515625 38.921875 53.515625 30.90625 
L 53.515625 0 
L 44.484375 0 
L 44.484375 32.71875 
Q 44.484375 40.625 41.703125 44.40625 
Q 38.921875 48.1875 33.109375 48.1875 
Q 26.21875 48.1875 22.15625 43.53125 
Q 18.109375 38.875 18.109375 30.90625 
L 18.109375 0 
L 9.078125 0 
L 9.078125 54.6875 
L 18.109375 54.6875 
L 18.109375 46.1875 
Q 21.1875 51.21875 25.484375 53.609375 
Q 29.78125 56 35.6875 56 
Q 41.65625 56 45.828125 52.96875 
Q 50 49.953125 52 44.1875 
z
" id="DejaVuSans-109"/>
       </defs>
       <use xlink:href="#DejaVuSans-109"/>
       <use x="97.412109" xlink:href="#DejaVuSans-111"/>
       <use x="158.59375" xlink:href="#DejaVuSans-112"/>
       <use x="222.070312" xlink:href="#DejaVuSans-116"/>
      </g>
     </g>
    </g>
    <g id="xtick_6">
     <g id="line2d_6">
      <g>
       <use style="stroke:#000000;stroke-width:0.8;" x="169.725625" xlink:href="#mfab65535fd" y="288.430125"/>
      </g>
     </g>
     <g id="text_6">
      <!-- lafintel -->
      <g transform="translate(138.89992 319.20744)rotate(-30)scale(0.1 -0.1)">
       <defs>
        <path d="M 34.28125 27.484375 
Q 23.390625 27.484375 19.1875 25 
Q 14.984375 22.515625 14.984375 16.5 
Q 14.984375 11.71875 18.140625 8.90625 
Q 21.296875 6.109375 26.703125 6.109375 
Q 34.1875 6.109375 38.703125 11.40625 
Q 43.21875 16.703125 43.21875 25.484375 
L 43.21875 27.484375 
z
M 52.203125 31.203125 
L 52.203125 0 
L 43.21875 0 
L 43.21875 8.296875 
Q 40.140625 3.328125 35.546875 0.953125 
Q 30.953125 -1.421875 24.3125 -1.421875 
Q 15.921875 -1.421875 10.953125 3.296875 
Q 6 8.015625 6 15.921875 
Q 6 25.140625 12.171875 29.828125 
Q 18.359375 34.515625 30.609375 34.515625 
L 43.21875 34.515625 
L 43.21875 35.40625 
Q 43.21875 41.609375 39.140625 45 
Q 35.0625 48.390625 27.6875 48.390625 
Q 23 48.390625 18.546875 47.265625 
Q 14.109375 46.140625 10.015625 43.890625 
L 10.015625 52.203125 
Q 14.9375 54.109375 19.578125 55.046875 
Q 24.21875 56 28.609375 56 
Q 40.484375 56 46.34375 49.84375 
Q 52.203125 43.703125 52.203125 31.203125 
z
" id="DejaVuSans-97"/>
       </defs>
       <use xlink:href="#DejaVuSans-108"/>
       <use x="27.783203" xlink:href="#DejaVuSans-97"/>
       <use x="89.0625" xlink:href="#DejaVuSans-102"/>
       <use x="124.267578" xlink:href="#DejaVuSans-105"/>
       <use x="152.050781" xlink:href="#DejaVuSans-110"/>
       <use x="215.429688" xlink:href="#DejaVuSans-116"/>
       <use x="254.638672" xlink:href="#DejaVuSans-101"/>
       <use x="316.162109" xlink:href="#DejaVuSans-108"/>
      </g>
     </g>
    </g>
    <g id="xtick_7">
     <g id="line2d_7">
      <g>
       <use style="stroke:#000000;stroke-width:0.8;" x="192.045625" xlink:href="#mfab65535fd" y="288.430125"/>
      </g>
     </g>
     <g id="text_7">
      <!-- jigsaw_new -->
      <g transform="translate(141.42614 330.555096)rotate(-30)scale(0.1 -0.1)">
       <defs>
        <path d="M 9.421875 54.6875 
L 18.40625 54.6875 
L 18.40625 -0.984375 
Q 18.40625 -11.421875 14.421875 -16.109375 
Q 10.453125 -20.796875 1.609375 -20.796875 
L -1.8125 -20.796875 
L -1.8125 -13.1875 
L 0.59375 -13.1875 
Q 5.71875 -13.1875 7.5625 -10.8125 
Q 9.421875 -8.453125 9.421875 -0.984375 
z
M 9.421875 75.984375 
L 18.40625 75.984375 
L 18.40625 64.59375 
L 9.421875 64.59375 
z
" id="DejaVuSans-106"/>
        <path d="M 44.28125 53.078125 
L 44.28125 44.578125 
Q 40.484375 46.53125 36.375 47.5 
Q 32.28125 48.484375 27.875 48.484375 
Q 21.1875 48.484375 17.84375 46.4375 
Q 14.5 44.390625 14.5 40.28125 
Q 14.5 37.15625 16.890625 35.375 
Q 19.28125 33.59375 26.515625 31.984375 
L 29.59375 31.296875 
Q 39.15625 29.25 43.1875 25.515625 
Q 47.21875 21.78125 47.21875 15.09375 
Q 47.21875 7.46875 41.1875 3.015625 
Q 35.15625 -1.421875 24.609375 -1.421875 
Q 20.21875 -1.421875 15.453125 -0.5625 
Q 10.6875 0.296875 5.421875 2 
L 5.421875 11.28125 
Q 10.40625 8.6875 15.234375 7.390625 
Q 20.0625 6.109375 24.8125 6.109375 
Q 31.15625 6.109375 34.5625 8.28125 
Q 37.984375 10.453125 37.984375 14.40625 
Q 37.984375 18.0625 35.515625 20.015625 
Q 33.0625 21.96875 24.703125 23.78125 
L 21.578125 24.515625 
Q 13.234375 26.265625 9.515625 29.90625 
Q 5.8125 33.546875 5.8125 39.890625 
Q 5.8125 47.609375 11.28125 51.796875 
Q 16.75 56 26.8125 56 
Q 31.78125 56 36.171875 55.265625 
Q 40.578125 54.546875 44.28125 53.078125 
z
" id="DejaVuSans-115"/>
       </defs>
       <use xlink:href="#DejaVuSans-106"/>
       <use x="27.783203" xlink:href="#DejaVuSans-105"/>
       <use x="55.566406" xlink:href="#DejaVuSans-103"/>
       <use x="119.042969" xlink:href="#DejaVuSans-115"/>
       <use x="171.142578" xlink:href="#DejaVuSans-97"/>
       <use x="232.421875" xlink:href="#DejaVuSans-119"/>
       <use x="314.208984" xlink:href="#DejaVuSans-95"/>
       <use x="364.208984" xlink:href="#DejaVuSans-110"/>
       <use x="427.587891" xlink:href="#DejaVuSans-101"/>
       <use x="489.111328" xlink:href="#DejaVuSans-119"/>
      </g>
     </g>
    </g>
    <g id="xtick_8">
     <g id="line2d_8">
      <g>
       <use style="stroke:#000000;stroke-width:0.8;" x="214.365625" xlink:href="#mfab65535fd" y="288.430125"/>
      </g>
     </g>
     <g id="text_8">
      <!-- fairfuzz -->
      <g transform="translate(181.37621 320.456659)rotate(-30)scale(0.1 -0.1)">
       <use xlink:href="#DejaVuSans-102"/>
       <use x="35.205078" xlink:href="#DejaVuSans-97"/>
       <use x="96.484375" xlink:href="#DejaVuSans-105"/>
       <use x="124.267578" xlink:href="#DejaVuSans-114"/>
       <use x="165.380859" xlink:href="#DejaVuSans-102"/>
       <use x="200.585938" xlink:href="#DejaVuSans-117"/>
       <use x="263.964844" xlink:href="#DejaVuSans-122"/>
       <use x="316.455078" xlink:href="#DejaVuSans-122"/>
      </g>
     </g>
    </g>
    <g id="xtick_9">
     <g id="line2d_9">
      <g>
       <use style="stroke:#000000;stroke-width:0.8;" x="236.685625" xlink:href="#mfab65535fd" y="288.430125"/>
      </g>
     </g>
     <g id="text_9">
      <!-- eclipser -->
      <g transform="translate(201.84508 321.525409)rotate(-30)scale(0.1 -0.1)">
       <use xlink:href="#DejaVuSans-101"/>
       <use x="61.523438" xlink:href="#DejaVuSans-99"/>
       <use x="116.503906" xlink:href="#DejaVuSans-108"/>
       <use x="144.287109" xlink:href="#DejaVuSans-105"/>
       <use x="172.070312" xlink:href="#DejaVuSans-112"/>
       <use x="235.546875" xlink:href="#DejaVuSans-115"/>
       <use x="287.646484" xlink:href="#DejaVuSans-101"/>
       <use x="349.169922" xlink:href="#DejaVuSans-114"/>
      </g>
     </g>
    </g>
    <g id="xtick_10">
     <g id="line2d_10">
      <g>
       <use style="stroke:#000000;stroke-width:0.8;" x="259.005625" xlink:href="#mfab65535fd" y="288.430125"/>
      </g>
     </g>
     <g id="text_10">
      <!-- aflsmart -->
      <g transform="translate(221.994604 322.778534)rotate(-30)scale(0.1 -0.1)">
       <use xlink:href="#DejaVuSans-97"/>
       <use x="61.279297" xlink:href="#DejaVuSans-102"/>
       <use x="96.484375" xlink:href="#DejaVuSans-108"/>
       <use x="124.267578" xlink:href="#DejaVuSans-115"/>
       <use x="176.367188" xlink:href="#DejaVuSans-109"/>
       <use x="273.779297" xlink:href="#DejaVuSans-97"/>
       <use x="335.058594" xlink:href="#DejaVuSans-114"/>
       <use x="376.171875" xlink:href="#DejaVuSans-116"/>
      </g>
     </g>
    </g>
    <g id="xtick_11">
     <g id="line2d_11">
      <g>
       <use style="stroke:#000000;stroke-width:0.8;" x="281.325625" xlink:href="#mfab65535fd" y="288.430125"/>
      </g>
     </g>
     <g id="text_11">
      <!-- aflplusplus -->
      <g transform="translate(233.716618 328.897284)rotate(-30)scale(0.1 -0.1)">
       <use xlink:href="#DejaVuSans-97"/>
       <use x="61.279297" xlink:href="#DejaVuSans-102"/>
       <use x="96.484375" xlink:href="#DejaVuSans-108"/>
       <use x="124.267578" xlink:href="#DejaVuSans-112"/>
       <use x="187.744141" xlink:href="#DejaVuSans-108"/>
       <use x="215.527344" xlink:href="#DejaVuSans-117"/>
       <use x="278.90625" xlink:href="#DejaVuSans-115"/>
       <use x="331.005859" xlink:href="#DejaVuSans-112"/>
       <use x="394.482422" xlink:href="#DejaVuSans-108"/>
       <use x="422.265625" xlink:href="#DejaVuSans-117"/>
       <use x="485.644531" xlink:href="#DejaVuSans-115"/>
      </g>
     </g>
    </g>
    <g id="xtick_12">
     <g id="line2d_12">
      <g>
       <use style="stroke:#000000;stroke-width:0.8;" x="303.645625" xlink:href="#mfab65535fd" y="288.430125"/>
      </g>
     </g>
     <g id="text_12">
      <!-- aflfast -->
      <g transform="translate(275.581729 317.612909)rotate(-30)scale(0.1 -0.1)">
       <use xlink:href="#DejaVuSans-97"/>
       <use x="61.279297" xlink:href="#DejaVuSans-102"/>
       <use x="96.484375" xlink:href="#DejaVuSans-108"/>
       <use x="124.267578" xlink:href="#DejaVuSans-102"/>
       <use x="159.472656" xlink:href="#DejaVuSans-97"/>
       <use x="220.751953" xlink:href="#DejaVuSans-115"/>
       <use x="272.851562" xlink:href="#DejaVuSans-116"/>
      </g>
     </g>
    </g>
    <g id="xtick_13">
     <g id="line2d_13">
      <g>
       <use style="stroke:#000000;stroke-width:0.8;" x="325.965625" xlink:href="#mfab65535fd" y="288.430125"/>
      </g>
     </g>
     <g id="text_13">
      <!-- afl -->
      <g transform="translate(314.164062 308.223846)rotate(-30)scale(0.1 -0.1)">
       <use xlink:href="#DejaVuSans-97"/>
       <use x="61.279297" xlink:href="#DejaVuSans-102"/>
       <use x="96.484375" xlink:href="#DejaVuSans-108"/>
      </g>
     </g>
    </g>
    <g id="xtick_14">
     <g id="line2d_14">
      <g>
       <use style="stroke:#000000;stroke-width:0.8;" x="348.285625" xlink:href="#mfab65535fd" y="288.430125"/>
      </g>
     </g>
     <g id="text_14">
      <!-- aflplusplus_optimal -->
      <g transform="translate(263.460843 350.303534)rotate(-30)scale(0.1 -0.1)">
       <use xlink:href="#DejaVuSans-97"/>
       <use x="61.279297" xlink:href="#DejaVuSans-102"/>
       <use x="96.484375" xlink:href="#DejaVuSans-108"/>
       <use x="124.267578" xlink:href="#DejaVuSans-112"/>
       <use x="187.744141" xlink:href="#DejaVuSans-108"/>
       <use x="215.527344" xlink:href="#DejaVuSans-117"/>
       <use x="278.90625" xlink:href="#DejaVuSans-115"/>
       <use x="331.005859" xlink:href="#DejaVuSans-112"/>
       <use x="394.482422" xlink:href="#DejaVuSans-108"/>
       <use x="422.265625" xlink:href="#DejaVuSans-117"/>
       <use x="485.644531" xlink:href="#DejaVuSans-115"/>
       <use x="537.744141" xlink:href="#DejaVuSans-95"/>
       <use x="587.744141" xlink:href="#DejaVuSans-111"/>
       <use x="648.925781" xlink:href="#DejaVuSans-112"/>
       <use x="712.402344" xlink:href="#DejaVuSans-116"/>
       <use x="751.611328" xlink:href="#DejaVuSans-105"/>
       <use x="779.394531" xlink:href="#DejaVuSans-109"/>
       <use x="876.806641" xlink:href="#DejaVuSans-97"/>
       <use x="938.085938" xlink:href="#DejaVuSans-108"/>
      </g>
     </g>
    </g>
    <g id="xtick_15">
     <g id="line2d_15">
      <g>
       <use style="stroke:#000000;stroke-width:0.8;" x="370.605625" xlink:href="#mfab65535fd" y="288.430125"/>
      </g>
     </g>
     <g id="text_15">
      <!-- jigsaw_new_standalone -->
      <g transform="translate(267.626786 360.784784)rotate(-30)scale(0.1 -0.1)">
       <defs>
        <path d="M 45.40625 46.390625 
L 45.40625 75.984375 
L 54.390625 75.984375 
L 54.390625 0 
L 45.40625 0 
L 45.40625 8.203125 
Q 42.578125 3.328125 38.25 0.953125 
Q 33.9375 -1.421875 27.875 -1.421875 
Q 17.96875 -1.421875 11.734375 6.484375 
Q 5.515625 14.40625 5.515625 27.296875 
Q 5.515625 40.1875 11.734375 48.09375 
Q 17.96875 56 27.875 56 
Q 33.9375 56 38.25 53.625 
Q 42.578125 51.265625 45.40625 46.390625 
z
M 14.796875 27.296875 
Q 14.796875 17.390625 18.875 11.75 
Q 22.953125 6.109375 30.078125 6.109375 
Q 37.203125 6.109375 41.296875 11.75 
Q 45.40625 17.390625 45.40625 27.296875 
Q 45.40625 37.203125 41.296875 42.84375 
Q 37.203125 48.484375 30.078125 48.484375 
Q 22.953125 48.484375 18.875 42.84375 
Q 14.796875 37.203125 14.796875 27.296875 
z
" id="DejaVuSans-100"/>
       </defs>
       <use xlink:href="#DejaVuSans-106"/>
       <use x="27.783203" xlink:href="#DejaVuSans-105"/>
       <use x="55.566406" xlink:href="#DejaVuSans-103"/>
       <use x="119.042969" xlink:href="#DejaVuSans-115"/>
       <use x="171.142578" xlink:href="#DejaVuSans-97"/>
       <use x="232.421875" xlink:href="#DejaVuSans-119"/>
       <use x="314.208984" xlink:href="#DejaVuSans-95"/>
       <use x="364.208984" xlink:href="#DejaVuSans-110"/>
       <use x="427.587891" xlink:href="#DejaVuSans-101"/>
       <use x="489.111328" xlink:href="#DejaVuSans-119"/>
       <use x="570.898438" xlink:href="#DejaVuSans-95"/>
       <use x="620.898438" xlink:href="#DejaVuSans-115"/>
       <use x="672.998047" xlink:href="#DejaVuSans-116"/>
       <use x="712.207031" xlink:href="#DejaVuSans-97"/>
       <use x="773.486328" xlink:href="#DejaVuSans-110"/>
       <use x="836.865234" xlink:href="#DejaVuSans-100"/>
       <use x="900.341797" xlink:href="#DejaVuSans-97"/>
       <use x="961.621094" xlink:href="#DejaVuSans-108"/>
       <use x="989.404297" xlink:href="#DejaVuSans-111"/>
       <use x="1050.585938" xlink:href="#DejaVuSans-110"/>
       <use x="1113.964844" xlink:href="#DejaVuSans-101"/>
      </g>
     </g>
    </g>
    <g id="xtick_16">
     <g id="line2d_16">
      <g>
       <use style="stroke:#000000;stroke-width:0.8;" x="392.925625" xlink:href="#mfab65535fd" y="288.430125"/>
      </g>
     </g>
     <g id="text_16">
      <!-- z3_new_standalone -->
      <g transform="translate(307.102208 350.880096)rotate(-30)scale(0.1 -0.1)">
       <use xlink:href="#DejaVuSans-122"/>
       <use x="52.490234" xlink:href="#DejaVuSans-51"/>
       <use x="116.113281" xlink:href="#DejaVuSans-95"/>
       <use x="166.113281" xlink:href="#DejaVuSans-110"/>
       <use x="229.492188" xlink:href="#DejaVuSans-101"/>
       <use x="291.015625" xlink:href="#DejaVuSans-119"/>
       <use x="372.802734" xlink:href="#DejaVuSans-95"/>
       <use x="422.802734" xlink:href="#DejaVuSans-115"/>
       <use x="474.902344" xlink:href="#DejaVuSans-116"/>
       <use x="514.111328" xlink:href="#DejaVuSans-97"/>
       <use x="575.390625" xlink:href="#DejaVuSans-110"/>
       <use x="638.769531" xlink:href="#DejaVuSans-100"/>
       <use x="702.246094" xlink:href="#DejaVuSans-97"/>
       <use x="763.525391" xlink:href="#DejaVuSans-108"/>
       <use x="791.308594" xlink:href="#DejaVuSans-111"/>
       <use x="852.490234" xlink:href="#DejaVuSans-110"/>
       <use x="915.869141" xlink:href="#DejaVuSans-101"/>
      </g>
     </g>
    </g>
    <g id="text_17">
     <!-- Fuzzer (highest median coverage on the left) -->
     <g transform="translate(112.907656 374.425147)scale(0.1 -0.1)">
      <defs>
       <path d="M 9.8125 72.90625 
L 51.703125 72.90625 
L 51.703125 64.59375 
L 19.671875 64.59375 
L 19.671875 43.109375 
L 48.578125 43.109375 
L 48.578125 34.8125 
L 19.671875 34.8125 
L 19.671875 0 
L 9.8125 0 
z
" id="DejaVuSans-70"/>
       <path id="DejaVuSans-32"/>
       <path d="M 31 75.875 
Q 24.46875 64.65625 21.28125 53.65625 
Q 18.109375 42.671875 18.109375 31.390625 
Q 18.109375 20.125 21.3125 9.0625 
Q 24.515625 -2 31 -13.1875 
L 23.1875 -13.1875 
Q 15.875 -1.703125 12.234375 9.375 
Q 8.59375 20.453125 8.59375 31.390625 
Q 8.59375 42.28125 12.203125 53.3125 
Q 15.828125 64.359375 23.1875 75.875 
z
" id="DejaVuSans-40"/>
       <path d="M 2.984375 54.6875 
L 12.5 54.6875 
L 29.59375 8.796875 
L 46.6875 54.6875 
L 56.203125 54.6875 
L 35.6875 0 
L 23.484375 0 
z
" id="DejaVuSans-118"/>
       <path d="M 8.015625 75.875 
L 15.828125 75.875 
Q 23.140625 64.359375 26.78125 53.3125 
Q 30.421875 42.28125 30.421875 31.390625 
Q 30.421875 20.453125 26.78125 9.375 
Q 23.140625 -1.703125 15.828125 -13.1875 
L 8.015625 -13.1875 
Q 14.5 -2 17.703125 9.0625 
Q 20.90625 20.125 20.90625 31.390625 
Q 20.90625 42.671875 17.703125 53.65625 
Q 14.5 64.65625 8.015625 75.875 
z
" id="DejaVuSans-41"/>
      </defs>
      <use xlink:href="#DejaVuSans-70"/>
      <use x="52.019531" xlink:href="#DejaVuSans-117"/>
      <use x="115.398438" xlink:href="#DejaVuSans-122"/>
      <use x="167.888672" xlink:href="#DejaVuSans-122"/>
      <use x="220.378906" xlink:href="#DejaVuSans-101"/>
      <use x="281.902344" xlink:href="#DejaVuSans-114"/>
      <use x="323.015625" xlink:href="#DejaVuSans-32"/>
      <use x="354.802734" xlink:href="#DejaVuSans-40"/>
      <use x="393.816406" xlink:href="#DejaVuSans-104"/>
      <use x="457.195312" xlink:href="#DejaVuSans-105"/>
      <use x="484.978516" xlink:href="#DejaVuSans-103"/>
      <use x="548.455078" xlink:href="#DejaVuSans-104"/>
      <use x="611.833984" xlink:href="#DejaVuSans-101"/>
      <use x="673.357422" xlink:href="#DejaVuSans-115"/>
      <use x="725.457031" xlink:href="#DejaVuSans-116"/>
      <use x="764.666016" xlink:href="#DejaVuSans-32"/>
      <use x="796.453125" xlink:href="#DejaVuSans-109"/>
      <use x="893.865234" xlink:href="#DejaVuSans-101"/>
      <use x="955.388672" xlink:href="#DejaVuSans-100"/>
      <use x="1018.865234" xlink:href="#DejaVuSans-105"/>
      <use x="1046.648438" xlink:href="#DejaVuSans-97"/>
      <use x="1107.927734" xlink:href="#DejaVuSans-110"/>
      <use x="1171.306641" xlink:href="#DejaVuSans-32"/>
      <use x="1203.09375" xlink:href="#DejaVuSans-99"/>
      <use x="1258.074219" xlink:href="#DejaVuSans-111"/>
      <use x="1319.255859" xlink:href="#DejaVuSans-118"/>
      <use x="1378.435547" xlink:href="#DejaVuSans-101"/>
      <use x="1439.958984" xlink:href="#DejaVuSans-114"/>
      <use x="1481.072266" xlink:href="#DejaVuSans-97"/>
      <use x="1542.351562" xlink:href="#DejaVuSans-103"/>
      <use x="1605.828125" xlink:href="#DejaVuSans-101"/>
      <use x="1667.351562" xlink:href="#DejaVuSans-32"/>
      <use x="1699.138672" xlink:href="#DejaVuSans-111"/>
      <use x="1760.320312" xlink:href="#DejaVuSans-110"/>
      <use x="1823.699219" xlink:href="#DejaVuSans-32"/>
      <use x="1855.486328" xlink:href="#DejaVuSans-116"/>
      <use x="1894.695312" xlink:href="#DejaVuSans-104"/>
      <use x="1958.074219" xlink:href="#DejaVuSans-101"/>
      <use x="2019.597656" xlink:href="#DejaVuSans-32"/>
      <use x="2051.384766" xlink:href="#DejaVuSans-108"/>
      <use x="2079.167969" xlink:href="#DejaVuSans-101"/>
      <use x="2140.691406" xlink:href="#DejaVuSans-102"/>
      <use x="2174.146484" xlink:href="#DejaVuSans-116"/>
      <use x="2213.355469" xlink:href="#DejaVuSans-41"/>
     </g>
    </g>
   </g>
   <g id="matplotlib.axis_2">
    <g id="ytick_1">
     <g id="line2d_17">
      <defs>
       <path d="M 0 0 
L -3.5 0 
" id="m3405219be7" style="stroke:#000000;stroke-width:0.8;"/>
      </defs>
      <g>
       <use style="stroke:#000000;stroke-width:0.8;" x="46.965625" xlink:href="#m3405219be7" y="274.558565"/>
      </g>
     </g>
     <g id="text_18">
      <!-- 100 -->
      <g transform="translate(20.878125 278.357784)scale(0.1 -0.1)">
       <defs>
        <path d="M 12.40625 8.296875 
L 28.515625 8.296875 
L 28.515625 63.921875 
L 10.984375 60.40625 
L 10.984375 69.390625 
L 28.421875 72.90625 
L 38.28125 72.90625 
L 38.28125 8.296875 
L 54.390625 8.296875 
L 54.390625 0 
L 12.40625 0 
z
" id="DejaVuSans-49"/>
        <path d="M 31.78125 66.40625 
Q 24.171875 66.40625 20.328125 58.90625 
Q 16.5 51.421875 16.5 36.375 
Q 16.5 21.390625 20.328125 13.890625 
Q 24.171875 6.390625 31.78125 6.390625 
Q 39.453125 6.390625 43.28125 13.890625 
Q 47.125 21.390625 47.125 36.375 
Q 47.125 51.421875 43.28125 58.90625 
Q 39.453125 66.40625 31.78125 66.40625 
z
M 31.78125 74.21875 
Q 44.046875 74.21875 50.515625 64.515625 
Q 56.984375 54.828125 56.984375 36.375 
Q 56.984375 17.96875 50.515625 8.265625 
Q 44.046875 -1.421875 31.78125 -1.421875 
Q 19.53125 -1.421875 13.0625 8.265625 
Q 6.59375 17.96875 6.59375 36.375 
Q 6.59375 54.828125 13.0625 64.515625 
Q 19.53125 74.21875 31.78125 74.21875 
z
" id="DejaVuSans-48"/>
       </defs>
       <use xlink:href="#DejaVuSans-49"/>
       <use x="63.623047" xlink:href="#DejaVuSans-48"/>
       <use x="127.246094" xlink:href="#DejaVuSans-48"/>
      </g>
     </g>
    </g>
    <g id="ytick_2">
     <g id="line2d_18">
      <g>
       <use style="stroke:#000000;stroke-width:0.8;" x="46.965625" xlink:href="#m3405219be7" y="230.169575"/>
      </g>
     </g>
     <g id="text_19">
      <!-- 200 -->
      <g transform="translate(20.878125 233.968793)scale(0.1 -0.1)">
       <defs>
        <path d="M 19.1875 8.296875 
L 53.609375 8.296875 
L 53.609375 0 
L 7.328125 0 
L 7.328125 8.296875 
Q 12.9375 14.109375 22.625 23.890625 
Q 32.328125 33.6875 34.8125 36.53125 
Q 39.546875 41.84375 41.421875 45.53125 
Q 43.3125 49.21875 43.3125 52.78125 
Q 43.3125 58.59375 39.234375 62.25 
Q 35.15625 65.921875 28.609375 65.921875 
Q 23.96875 65.921875 18.8125 64.3125 
Q 13.671875 62.703125 7.8125 59.421875 
L 7.8125 69.390625 
Q 13.765625 71.78125 18.9375 73 
Q 24.125 74.21875 28.421875 74.21875 
Q 39.75 74.21875 46.484375 68.546875 
Q 53.21875 62.890625 53.21875 53.421875 
Q 53.21875 48.921875 51.53125 44.890625 
Q 49.859375 40.875 45.40625 35.40625 
Q 44.1875 33.984375 37.640625 27.21875 
Q 31.109375 20.453125 19.1875 8.296875 
z
" id="DejaVuSans-50"/>
       </defs>
       <use xlink:href="#DejaVuSans-50"/>
       <use x="63.623047" xlink:href="#DejaVuSans-48"/>
       <use x="127.246094" xlink:href="#DejaVuSans-48"/>
      </g>
     </g>
    </g>
    <g id="ytick_3">
     <g id="line2d_19">
      <g>
       <use style="stroke:#000000;stroke-width:0.8;" x="46.965625" xlink:href="#m3405219be7" y="185.780584"/>
      </g>
     </g>
     <g id="text_20">
      <!-- 300 -->
      <g transform="translate(20.878125 189.579802)scale(0.1 -0.1)">
       <use xlink:href="#DejaVuSans-51"/>
       <use x="63.623047" xlink:href="#DejaVuSans-48"/>
       <use x="127.246094" xlink:href="#DejaVuSans-48"/>
      </g>
     </g>
    </g>
    <g id="ytick_4">
     <g id="line2d_20">
      <g>
       <use style="stroke:#000000;stroke-width:0.8;" x="46.965625" xlink:href="#m3405219be7" y="141.391593"/>
      </g>
     </g>
     <g id="text_21">
      <!-- 400 -->
      <g transform="translate(20.878125 145.190812)scale(0.1 -0.1)">
       <defs>
        <path d="M 37.796875 64.3125 
L 12.890625 25.390625 
L 37.796875 25.390625 
z
M 35.203125 72.90625 
L 47.609375 72.90625 
L 47.609375 25.390625 
L 58.015625 25.390625 
L 58.015625 17.1875 
L 47.609375 17.1875 
L 47.609375 0 
L 37.796875 0 
L 37.796875 17.1875 
L 4.890625 17.1875 
L 4.890625 26.703125 
z
" id="DejaVuSans-52"/>
       </defs>
       <use xlink:href="#DejaVuSans-52"/>
       <use x="63.623047" xlink:href="#DejaVuSans-48"/>
       <use x="127.246094" xlink:href="#DejaVuSans-48"/>
      </g>
     </g>
    </g>
    <g id="ytick_5">
     <g id="line2d_21">
      <g>
       <use style="stroke:#000000;stroke-width:0.8;" x="46.965625" xlink:href="#m3405219be7" y="97.002602"/>
      </g>
     </g>
     <g id="text_22">
      <!-- 500 -->
      <g transform="translate(20.878125 100.801821)scale(0.1 -0.1)">
       <defs>
        <path d="M 10.796875 72.90625 
L 49.515625 72.90625 
L 49.515625 64.59375 
L 19.828125 64.59375 
L 19.828125 46.734375 
Q 21.96875 47.46875 24.109375 47.828125 
Q 26.265625 48.1875 28.421875 48.1875 
Q 40.625 48.1875 47.75 41.5 
Q 54.890625 34.8125 54.890625 23.390625 
Q 54.890625 11.625 47.5625 5.09375 
Q 40.234375 -1.421875 26.90625 -1.421875 
Q 22.3125 -1.421875 17.546875 -0.640625 
Q 12.796875 0.140625 7.71875 1.703125 
L 7.71875 11.625 
Q 12.109375 9.234375 16.796875 8.0625 
Q 21.484375 6.890625 26.703125 6.890625 
Q 35.15625 6.890625 40.078125 11.328125 
Q 45.015625 15.765625 45.015625 23.390625 
Q 45.015625 31 40.078125 35.4375 
Q 35.15625 39.890625 26.703125 39.890625 
Q 22.75 39.890625 18.8125 39.015625 
Q 14.890625 38.140625 10.796875 36.28125 
z
" id="DejaVuSans-53"/>
       </defs>
       <use xlink:href="#DejaVuSans-53"/>
       <use x="63.623047" xlink:href="#DejaVuSans-48"/>
       <use x="127.246094" xlink:href="#DejaVuSans-48"/>
      </g>
     </g>
    </g>
    <g id="ytick_6">
     <g id="line2d_22">
      <g>
       <use style="stroke:#000000;stroke-width:0.8;" x="46.965625" xlink:href="#m3405219be7" y="52.613611"/>
      </g>
     </g>
     <g id="text_23">
      <!-- 600 -->
      <g transform="translate(20.878125 56.41283)scale(0.1 -0.1)">
       <defs>
        <path d="M 33.015625 40.375 
Q 26.375 40.375 22.484375 35.828125 
Q 18.609375 31.296875 18.609375 23.390625 
Q 18.609375 15.53125 22.484375 10.953125 
Q 26.375 6.390625 33.015625 6.390625 
Q 39.65625 6.390625 43.53125 10.953125 
Q 47.40625 15.53125 47.40625 23.390625 
Q 47.40625 31.296875 43.53125 35.828125 
Q 39.65625 40.375 33.015625 40.375 
z
M 52.59375 71.296875 
L 52.59375 62.3125 
Q 48.875 64.0625 45.09375 64.984375 
Q 41.3125 65.921875 37.59375 65.921875 
Q 27.828125 65.921875 22.671875 59.328125 
Q 17.53125 52.734375 16.796875 39.40625 
Q 19.671875 43.65625 24.015625 45.921875 
Q 28.375 48.1875 33.59375 48.1875 
Q 44.578125 48.1875 50.953125 41.515625 
Q 57.328125 34.859375 57.328125 23.390625 
Q 57.328125 12.15625 50.6875 5.359375 
Q 44.046875 -1.421875 33.015625 -1.421875 
Q 20.359375 -1.421875 13.671875 8.265625 
Q 6.984375 17.96875 6.984375 36.375 
Q 6.984375 53.65625 15.1875 63.9375 
Q 23.390625 74.21875 37.203125 74.21875 
Q 40.921875 74.21875 44.703125 73.484375 
Q 48.484375 72.75 52.59375 71.296875 
z
" id="DejaVuSans-54"/>
       </defs>
       <use xlink:href="#DejaVuSans-54"/>
       <use x="63.623047" xlink:href="#DejaVuSans-48"/>
       <use x="127.246094" xlink:href="#DejaVuSans-48"/>
      </g>
     </g>
    </g>
    <g id="text_24">
     <!-- Reached region coverage -->
     <g transform="translate(14.798438 219.136625)rotate(-90)scale(0.1 -0.1)">
      <defs>
       <path d="M 44.390625 34.1875 
Q 47.5625 33.109375 50.5625 29.59375 
Q 53.5625 26.078125 56.59375 19.921875 
L 66.609375 0 
L 56 0 
L 46.6875 18.703125 
Q 43.0625 26.03125 39.671875 28.421875 
Q 36.28125 30.8125 30.421875 30.8125 
L 19.671875 30.8125 
L 19.671875 0 
L 9.8125 0 
L 9.8125 72.90625 
L 32.078125 72.90625 
Q 44.578125 72.90625 50.734375 67.671875 
Q 56.890625 62.453125 56.890625 51.90625 
Q 56.890625 45.015625 53.6875 40.46875 
Q 50.484375 35.9375 44.390625 34.1875 
z
M 19.671875 64.796875 
L 19.671875 38.921875 
L 32.078125 38.921875 
Q 39.203125 38.921875 42.84375 42.21875 
Q 46.484375 45.515625 46.484375 51.90625 
Q 46.484375 58.296875 42.84375 61.546875 
Q 39.203125 64.796875 32.078125 64.796875 
z
" id="DejaVuSans-82"/>
      </defs>
      <use xlink:href="#DejaVuSans-82"/>
      <use x="64.982422" xlink:href="#DejaVuSans-101"/>
      <use x="126.505859" xlink:href="#DejaVuSans-97"/>
      <use x="187.785156" xlink:href="#DejaVuSans-99"/>
      <use x="242.765625" xlink:href="#DejaVuSans-104"/>
      <use x="306.144531" xlink:href="#DejaVuSans-101"/>
      <use x="367.667969" xlink:href="#DejaVuSans-100"/>
      <use x="431.144531" xlink:href="#DejaVuSans-32"/>
      <use x="462.931641" xlink:href="#DejaVuSans-114"/>
      <use x="501.794922" xlink:href="#DejaVuSans-101"/>
      <use x="563.318359" xlink:href="#DejaVuSans-103"/>
      <use x="626.794922" xlink:href="#DejaVuSans-105"/>
      <use x="654.578125" xlink:href="#DejaVuSans-111"/>
      <use x="715.759766" xlink:href="#DejaVuSans-110"/>
      <use x="779.138672" xlink:href="#DejaVuSans-32"/>
      <use x="810.925781" xlink:href="#DejaVuSans-99"/>
      <use x="865.90625" xlink:href="#DejaVuSans-111"/>
      <use x="927.087891" xlink:href="#DejaVuSans-118"/>
      <use x="986.267578" xlink:href="#DejaVuSans-101"/>
      <use x="1047.791016" xlink:href="#DejaVuSans-114"/>
      <use x="1088.904297" xlink:href="#DejaVuSans-97"/>
      <use x="1150.183594" xlink:href="#DejaVuSans-103"/>
      <use x="1213.660156" xlink:href="#DejaVuSans-101"/>
     </g>
    </g>
   </g>
   <g id="line2d_23">
    <path clip-path="url(#p8130cf471b)" d="M 49.197625 34.414125 
L 67.053625 34.414125 
" style="fill:none;stroke:#3d3d3d;stroke-linecap:square;stroke-width:1.5;"/>
   </g>
   <g id="line2d_24">
    <path clip-path="url(#p8130cf471b)" d="M 71.517625 34.414125 
L 89.373625 34.414125 
" style="fill:none;stroke:#3d3d3d;stroke-linecap:square;stroke-width:1.5;"/>
   </g>
   <g id="line2d_25">
    <path clip-path="url(#p8130cf471b)" d="M 93.837625 34.414125 
L 111.693625 34.414125 
" style="fill:none;stroke:#3d3d3d;stroke-linecap:square;stroke-width:1.5;"/>
   </g>
   <g id="line2d_26">
    <path clip-path="url(#p8130cf471b)" d="M 116.157625 35.301905 
L 134.013625 35.301905 
" style="fill:none;stroke:#3d3d3d;stroke-linecap:square;stroke-width:1.5;"/>
   </g>
   <g id="line2d_27">
    <path clip-path="url(#p8130cf471b)" d="M 138.477625 35.301905 
L 156.333625 35.301905 
" style="fill:none;stroke:#3d3d3d;stroke-linecap:square;stroke-width:1.5;"/>
   </g>
   <g id="line2d_28">
    <path clip-path="url(#p8130cf471b)" d="M 160.797625 35.301905 
L 178.653625 35.301905 
" style="fill:none;stroke:#3d3d3d;stroke-linecap:square;stroke-width:1.5;"/>
   </g>
   <g id="line2d_29">
    <path clip-path="url(#p8130cf471b)" d="M 183.117625 35.301905 
L 200.973625 35.301905 
" style="fill:none;stroke:#3d3d3d;stroke-linecap:square;stroke-width:1.5;"/>
   </g>
   <g id="line2d_30">
    <path clip-path="url(#p8130cf471b)" d="M 205.437625 35.301905 
L 223.293625 35.301905 
" style="fill:none;stroke:#3d3d3d;stroke-linecap:square;stroke-width:1.5;"/>
   </g>
   <g id="line2d_31">
    <path clip-path="url(#p8130cf471b)" d="M 227.757625 35.301905 
L 245.613625 35.301905 
" style="fill:none;stroke:#3d3d3d;stroke-linecap:square;stroke-width:1.5;"/>
   </g>
   <g id="line2d_32">
    <path clip-path="url(#p8130cf471b)" d="M 250.077625 35.301905 
L 267.933625 35.301905 
" style="fill:none;stroke:#3d3d3d;stroke-linecap:square;stroke-width:1.5;"/>
   </g>
   <g id="line2d_33">
    <path clip-path="url(#p8130cf471b)" d="M 272.397625 35.301905 
L 290.253625 35.301905 
" style="fill:none;stroke:#3d3d3d;stroke-linecap:square;stroke-width:1.5;"/>
   </g>
   <g id="line2d_34">
    <path clip-path="url(#p8130cf471b)" d="M 303.645625 35.301905 
L 303.645625 35.301905 
" style="fill:none;stroke:#3d3d3d;stroke-linecap:square;stroke-width:1.5;"/>
   </g>
   <g id="line2d_35">
    <path clip-path="url(#p8130cf471b)" d="M 303.645625 35.301905 
L 303.645625 35.301905 
" style="fill:none;stroke:#3d3d3d;stroke-linecap:square;stroke-width:4.5;"/>
   </g>
   <g id="line2d_36">
    <path clip-path="url(#p8130cf471b)" d="M 317.037625 35.301905 
L 334.893625 35.301905 
" style="fill:none;stroke:#3d3d3d;stroke-linecap:square;stroke-width:1.5;"/>
   </g>
   <g id="line2d_37">
    <path clip-path="url(#p8130cf471b)" d="M 348.285625 35.745795 
L 348.285625 35.301905 
" style="fill:none;stroke:#3d3d3d;stroke-linecap:square;stroke-width:1.5;"/>
   </g>
   <g id="line2d_38">
    <path clip-path="url(#p8130cf471b)" d="M 348.285625 35.745795 
L 348.285625 35.301905 
" style="fill:none;stroke:#3d3d3d;stroke-linecap:square;stroke-width:4.5;"/>
   </g>
   <g id="line2d_39">
    <path clip-path="url(#p8130cf471b)" d="M 370.605625 43.291923 
L 370.605625 36.633575 
" style="fill:none;stroke:#3d3d3d;stroke-linecap:square;stroke-width:1.5;"/>
   </g>
   <g id="line2d_40">
    <path clip-path="url(#p8130cf471b)" d="M 370.605625 40.073721 
L 370.605625 36.744547 
" style="fill:none;stroke:#3d3d3d;stroke-linecap:square;stroke-width:4.5;"/>
   </g>
   <g id="line2d_41">
    <path clip-path="url(#p8130cf471b)" d="M 383.997625 276.334125 
L 401.853625 276.334125 
" style="fill:none;stroke:#3d3d3d;stroke-linecap:square;stroke-width:1.5;"/>
   </g>
   <g id="patch_3">
    <path d="M 46.965625 274.558565 
L 46.965625 52.613611 
" style="fill:none;stroke:#000000;stroke-linecap:square;stroke-linejoin:miter;stroke-width:0.8;"/>
   </g>
   <g id="patch_4">
    <path d="M 58.125625 288.430125 
L 392.925625 288.430125 
" style="fill:none;stroke:#000000;stroke-linecap:square;stroke-linejoin:miter;stroke-width:0.8;"/>
   </g>
   <g id="PathCollection_1">
    <defs>
     <path d="M 0 1.5 
C 0.397805 1.5 0.77937 1.341951 1.06066 1.06066 
C 1.341951 0.77937 1.5 0.397805 1.5 0 
C 1.5 -0.397805 1.341951 -0.77937 1.06066 -1.06066 
C 0.77937 -1.341951 0.397805 -1.5 0 -1.5 
C -0.397805 -1.5 -0.77937 -1.341951 -1.06066 -1.06066 
C -1.341951 -0.77937 -1.5 -0.397805 -1.5 0 
C -1.5 0.397805 -1.341951 0.77937 -1.06066 1.06066 
C -0.77937 1.341951 -0.397805 1.5 0 1.5 
z
" id="mb09ac475cb" style="stroke:#3d3d3d;"/>
    </defs>
    <g clip-path="url(#p8130cf471b)">
     <use style="fill:#ffffff;stroke:#3d3d3d;" x="303.645625" xlink:href="#mb09ac475cb" y="35.301905"/>
    </g>
   </g>
   <g id="PathCollection_2">
    <g clip-path="url(#p8130cf471b)">
     <use style="fill:#ffffff;stroke:#3d3d3d;" x="348.285625" xlink:href="#mb09ac475cb" y="35.52385"/>
    </g>
   </g>
   <g id="PathCollection_3">
    <g clip-path="url(#p8130cf471b)">
     <use style="fill:#ffffff;stroke:#3d3d3d;" x="370.605625" xlink:href="#mb09ac475cb" y="37.077464"/>
    </g>
   </g>
   <g id="text_25">
    <!-- jsoncpp_jsoncpp_fuzzer (23h, 15 trials/fuzzer) -->
    <g transform="translate(88.058125 16.318125)scale(0.12 -0.12)">
     <defs>
      <path d="M 11.71875 12.40625 
L 22.015625 12.40625 
L 22.015625 4 
L 14.015625 -11.625 
L 7.71875 -11.625 
L 11.71875 4 
z
" id="DejaVuSans-44"/>
      <path d="M 25.390625 72.90625 
L 33.6875 72.90625 
L 8.296875 -9.28125 
L 0 -9.28125 
z
" id="DejaVuSans-47"/>
     </defs>
     <use xlink:href="#DejaVuSans-106"/>
     <use x="27.783203" xlink:href="#DejaVuSans-115"/>
     <use x="79.882812" xlink:href="#DejaVuSans-111"/>
     <use x="141.064453" xlink:href="#DejaVuSans-110"/>
     <use x="204.443359" xlink:href="#DejaVuSans-99"/>
     <use x="259.423828" xlink:href="#DejaVuSans-112"/>
     <use x="322.900391" xlink:href="#DejaVuSans-112"/>
     <use x="386.376953" xlink:href="#DejaVuSans-95"/>
     <use x="436.376953" xlink:href="#DejaVuSans-106"/>
     <use x="464.160156" xlink:href="#DejaVuSans-115"/>
     <use x="516.259766" xlink:href="#DejaVuSans-111"/>
     <use x="577.441406" xlink:href="#DejaVuSans-110"/>
     <use x="640.820312" xlink:href="#DejaVuSans-99"/>
     <use x="695.800781" xlink:href="#DejaVuSans-112"/>
     <use x="759.277344" xlink:href="#DejaVuSans-112"/>
     <use x="822.753906" xlink:href="#DejaVuSans-95"/>
     <use x="872.753906" xlink:href="#DejaVuSans-102"/>
     <use x="907.958984" xlink:href="#DejaVuSans-117"/>
     <use x="971.337891" xlink:href="#DejaVuSans-122"/>
     <use x="1023.828125" xlink:href="#DejaVuSans-122"/>
     <use x="1076.318359" xlink:href="#DejaVuSans-101"/>
     <use x="1137.841797" xlink:href="#DejaVuSans-114"/>
     <use x="1178.955078" xlink:href="#DejaVuSans-32"/>
     <use x="1210.742188" xlink:href="#DejaVuSans-40"/>
     <use x="1249.755859" xlink:href="#DejaVuSans-50"/>
     <use x="1313.378906" xlink:href="#DejaVuSans-51"/>
     <use x="1377.001953" xlink:href="#DejaVuSans-104"/>
     <use x="1440.380859" xlink:href="#DejaVuSans-44"/>
     <use x="1472.167969" xlink:href="#DejaVuSans-32"/>
     <use x="1503.955078" xlink:href="#DejaVuSans-49"/>
     <use x="1567.578125" xlink:href="#DejaVuSans-53"/>
     <use x="1631.201172" xlink:href="#DejaVuSans-32"/>
     <use x="1662.988281" xlink:href="#DejaVuSans-116"/>
     <use x="1702.197266" xlink:href="#DejaVuSans-114"/>
     <use x="1743.310547" xlink:href="#DejaVuSans-105"/>
     <use x="1771.09375" xlink:href="#DejaVuSans-97"/>
     <use x="1832.373047" xlink:href="#DejaVuSans-108"/>
     <use x="1860.15625" xlink:href="#DejaVuSans-115"/>
     <use x="1912.255859" xlink:href="#DejaVuSans-47"/>
     <use x="1945.947266" xlink:href="#DejaVuSans-102"/>
     <use x="1981.152344" xlink:href="#DejaVuSans-117"/>
     <use x="2044.53125" xlink:href="#DejaVuSans-122"/>
     <use x="2097.021484" xlink:href="#DejaVuSans-122"/>
     <use x="2149.511719" xlink:href="#DejaVuSans-101"/>
     <use x="2211.035156" xlink:href="#DejaVuSans-114"/>
     <use x="2252.148438" xlink:href="#DejaVuSans-41"/>
    </g>
   </g>
  </g>
 </g>
 <defs>
  <clipPath id="p8130cf471b">
   <rect height="266.112" width="357.12" x="46.965625" y="22.318125"/>
  </clipPath>
 </defs>
</svg>
