<?xml version="1.0" encoding="utf-8" standalone="no"?>
<!DOCTYPE svg PUBLIC "-//W3C//DTD SVG 1.1//EN"
  "http://www.w3.org/Graphics/SVG/1.1/DTD/svg11.dtd">
<!-- Created with matplotlib (https://matplotlib.org/) -->
<svg height="418.738562pt" version="1.1" viewBox="0 0 512.847062 418.738562" width="512.847062pt" xmlns="http://www.w3.org/2000/svg" xmlns:xlink="http://www.w3.org/1999/xlink">
 <metadata>
  <rdf:RDF xmlns:cc="http://creativecommons.org/ns#" xmlns:dc="http://purl.org/dc/elements/1.1/" xmlns:rdf="http://www.w3.org/1999/02/22-rdf-syntax-ns#">
   <cc:Work>
    <dc:type rdf:resource="http://purl.org/dc/dcmitype/StillImage"/>
    <dc:date>2021-02-01T13:50:18.939463</dc:date>
    <dc:format>image/svg+xml</dc:format>
    <dc:creator>
     <cc:Agent>
      <dc:title>Matplotlib v3.3.3, https://matplotlib.org/</dc:title>
     </cc:Agent>
    </dc:creator>
   </cc:Work>
  </rdf:RDF>
 </metadata>
 <defs>
  <style type="text/css">*{stroke-linecap:butt;stroke-linejoin:round;}</style>
 </defs>
 <g id="figure_1">
  <g id="patch_1">
   <path d="M 0 418.738562 
L 512.847062 418.738562 
L 512.847062 0 
L 0 0 
z
" style="fill:#ffffff;"/>
  </g>
  <g id="axes_1">
   <g id="patch_2">
    <path d="M 145.426563 273.312 
L 411.538563 273.312 
L 411.538563 7.2 
L 145.426563 7.2 
z
" style="fill:#ffffff;"/>
   </g>
   <g id="QuadMesh_1">
    <path d="M 145.426563 7.2 
L 162.058563 7.2 
L 162.058563 23.832 
L 145.426563 23.832 
L 145.426563 7.2 
" style="fill:#ffffff;stroke:#808080;stroke-width:0.5;"/>
    <path d="M 162.058563 7.2 
L 178.690562 7.2 
L 178.690562 23.832 
L 162.058563 23.832 
L 162.058563 7.2 
" style="fill:#fbd7d4;stroke:#808080;stroke-width:0.5;"/>
    <path d="M 178.690562 7.2 
L 195.322563 7.2 
L 195.322563 23.832 
L 178.690562 23.832 
L 178.690562 7.2 
" style="fill:none;stroke:#808080;stroke-width:0.5;"/>
    <path d="M 195.322563 7.2 
L 211.954563 7.2 
L 211.954563 23.832 
L 195.322563 23.832 
L 195.322563 7.2 
" style="fill:#005a32;stroke:#808080;stroke-width:0.5;"/>
    <path d="M 211.954563 7.2 
L 228.586563 7.2 
L 228.586563 23.832 
L 211.954563 23.832 
L 211.954563 7.2 
" style="fill:none;stroke:#808080;stroke-width:0.5;"/>
    <path d="M 228.586563 7.2 
L 245.218563 7.2 
L 245.218563 23.832 
L 228.586563 23.832 
L 228.586563 7.2 
" style="fill:none;stroke:#808080;stroke-width:0.5;"/>
    <path d="M 245.218563 7.2 
L 261.850563 7.2 
L 261.850563 23.832 
L 245.218563 23.832 
L 245.218563 7.2 
" style="fill:#005a32;stroke:#808080;stroke-width:0.5;"/>
    <path d="M 261.850563 7.2 
L 278.482562 7.2 
L 278.482562 23.832 
L 261.850563 23.832 
L 261.850563 7.2 
" style="fill:none;stroke:#808080;stroke-width:0.5;"/>
    <path d="M 278.482562 7.2 
L 295.114563 7.2 
L 295.114563 23.832 
L 278.482562 23.832 
L 278.482562 7.2 
" style="fill:#005a32;stroke:#808080;stroke-width:0.5;"/>
    <path d="M 295.114563 7.2 
L 311.746562 7.2 
L 311.746562 23.832 
L 295.114563 23.832 
L 295.114563 7.2 
" style="fill:none;stroke:#808080;stroke-width:0.5;"/>
    <path d="M 311.746562 7.2 
L 328.378562 7.2 
L 328.378562 23.832 
L 311.746562 23.832 
L 311.746562 7.2 
" style="fill:#005a32;stroke:#808080;stroke-width:0.5;"/>
    <path d="M 328.378562 7.2 
L 345.010562 7.2 
L 345.010562 23.832 
L 328.378562 23.832 
L 328.378562 7.2 
" style="fill:none;stroke:#808080;stroke-width:0.5;"/>
    <path d="M 345.010562 7.2 
L 361.642562 7.2 
L 361.642562 23.832 
L 345.010562 23.832 
L 345.010562 7.2 
" style="fill:#005a32;stroke:#808080;stroke-width:0.5;"/>
    <path d="M 361.642562 7.2 
L 378.274563 7.2 
L 378.274563 23.832 
L 361.642562 23.832 
L 361.642562 7.2 
" style="fill:none;stroke:#808080;stroke-width:0.5;"/>
    <path d="M 378.274563 7.2 
L 394.906562 7.2 
L 394.906562 23.832 
L 378.274563 23.832 
L 378.274563 7.2 
" style="fill:none;stroke:#808080;stroke-width:0.5;"/>
    <path d="M 394.906562 7.2 
L 411.538563 7.2 
L 411.538563 23.832 
L 394.906562 23.832 
L 394.906562 7.2 
" style="fill:#005a32;stroke:#808080;stroke-width:0.5;"/>
    <path d="M 145.426563 23.832 
L 162.058563 23.832 
L 162.058563 40.464 
L 145.426563 40.464 
L 145.426563 23.832 
" style="fill:#fbd7d4;stroke:#808080;stroke-width:0.5;"/>
    <path d="M 162.058563 23.832 
L 178.690562 23.832 
L 178.690562 40.464 
L 162.058563 40.464 
L 162.058563 23.832 
" style="fill:#ffffff;stroke:#808080;stroke-width:0.5;"/>
    <path d="M 178.690562 23.832 
L 195.322563 23.832 
L 195.322563 40.464 
L 178.690562 40.464 
L 178.690562 23.832 
" style="fill:#fbd7d4;stroke:#808080;stroke-width:0.5;"/>
    <path d="M 195.322563 23.832 
L 211.954563 23.832 
L 211.954563 40.464 
L 195.322563 40.464 
L 195.322563 23.832 
" style="fill:none;stroke:#808080;stroke-width:0.5;"/>
    <path d="M 211.954563 23.832 
L 228.586563 23.832 
L 228.586563 40.464 
L 211.954563 40.464 
L 211.954563 23.832 
" style="fill:#fbd7d4;stroke:#808080;stroke-width:0.5;"/>
    <path d="M 228.586563 23.832 
L 245.218563 23.832 
L 245.218563 40.464 
L 228.586563 40.464 
L 228.586563 23.832 
" style="fill:#fbd7d4;stroke:#808080;stroke-width:0.5;"/>
    <path d="M 245.218563 23.832 
L 261.850563 23.832 
L 261.850563 40.464 
L 245.218563 40.464 
L 245.218563 23.832 
" style="fill:#005a32;stroke:#808080;stroke-width:0.5;"/>
    <path d="M 261.850563 23.832 
L 278.482562 23.832 
L 278.482562 40.464 
L 261.850563 40.464 
L 261.850563 23.832 
" style="fill:#fbd7d4;stroke:#808080;stroke-width:0.5;"/>
    <path d="M 278.482562 23.832 
L 295.114563 23.832 
L 295.114563 40.464 
L 278.482562 40.464 
L 278.482562 23.832 
" style="fill:#005a32;stroke:#808080;stroke-width:0.5;"/>
    <path d="M 295.114563 23.832 
L 311.746562 23.832 
L 311.746562 40.464 
L 295.114563 40.464 
L 295.114563 23.832 
" style="fill:#fbd7d4;stroke:#808080;stroke-width:0.5;"/>
    <path d="M 311.746562 23.832 
L 328.378562 23.832 
L 328.378562 40.464 
L 311.746562 40.464 
L 311.746562 23.832 
" style="fill:#005a32;stroke:#808080;stroke-width:0.5;"/>
    <path d="M 328.378562 23.832 
L 345.010562 23.832 
L 345.010562 40.464 
L 328.378562 40.464 
L 328.378562 23.832 
" style="fill:#fbd7d4;stroke:#808080;stroke-width:0.5;"/>
    <path d="M 345.010562 23.832 
L 361.642562 23.832 
L 361.642562 40.464 
L 345.010562 40.464 
L 345.010562 23.832 
" style="fill:#005a32;stroke:#808080;stroke-width:0.5;"/>
    <path d="M 361.642562 23.832 
L 378.274563 23.832 
L 378.274563 40.464 
L 361.642562 40.464 
L 361.642562 23.832 
" style="fill:#fbd7d4;stroke:#808080;stroke-width:0.5;"/>
    <path d="M 378.274563 23.832 
L 394.906562 23.832 
L 394.906562 40.464 
L 378.274563 40.464 
L 378.274563 23.832 
" style="fill:#fbd7d4;stroke:#808080;stroke-width:0.5;"/>
    <path d="M 394.906562 23.832 
L 411.538563 23.832 
L 411.538563 40.464 
L 394.906562 40.464 
L 394.906562 23.832 
" style="fill:#005a32;stroke:#808080;stroke-width:0.5;"/>
    <path d="M 145.426563 40.464 
L 162.058563 40.464 
L 162.058563 57.096 
L 145.426563 57.096 
L 145.426563 40.464 
" style="fill:none;stroke:#808080;stroke-width:0.5;"/>
    <path d="M 162.058563 40.464 
L 178.690562 40.464 
L 178.690562 57.096 
L 162.058563 57.096 
L 162.058563 40.464 
" style="fill:#fbd7d4;stroke:#808080;stroke-width:0.5;"/>
    <path d="M 178.690562 40.464 
L 195.322563 40.464 
L 195.322563 57.096 
L 178.690562 57.096 
L 178.690562 40.464 
" style="fill:#ffffff;stroke:#808080;stroke-width:0.5;"/>
    <path d="M 195.322563 40.464 
L 211.954563 40.464 
L 211.954563 57.096 
L 195.322563 57.096 
L 195.322563 40.464 
" style="fill:#005a32;stroke:#808080;stroke-width:0.5;"/>
    <path d="M 211.954563 40.464 
L 228.586563 40.464 
L 228.586563 57.096 
L 211.954563 57.096 
L 211.954563 40.464 
" style="fill:none;stroke:#808080;stroke-width:0.5;"/>
    <path d="M 228.586563 40.464 
L 245.218563 40.464 
L 245.218563 57.096 
L 228.586563 57.096 
L 228.586563 40.464 
" style="fill:none;stroke:#808080;stroke-width:0.5;"/>
    <path d="M 245.218563 40.464 
L 261.850563 40.464 
L 261.850563 57.096 
L 245.218563 57.096 
L 245.218563 40.464 
" style="fill:#005a32;stroke:#808080;stroke-width:0.5;"/>
    <path d="M 261.850563 40.464 
L 278.482562 40.464 
L 278.482562 57.096 
L 261.850563 57.096 
L 261.850563 40.464 
" style="fill:none;stroke:#808080;stroke-width:0.5;"/>
    <path d="M 278.482562 40.464 
L 295.114563 40.464 
L 295.114563 57.096 
L 278.482562 57.096 
L 278.482562 40.464 
" style="fill:#005a32;stroke:#808080;stroke-width:0.5;"/>
    <path d="M 295.114563 40.464 
L 311.746562 40.464 
L 311.746562 57.096 
L 295.114563 57.096 
L 295.114563 40.464 
" style="fill:none;stroke:#808080;stroke-width:0.5;"/>
    <path d="M 311.746562 40.464 
L 328.378562 40.464 
L 328.378562 57.096 
L 311.746562 57.096 
L 311.746562 40.464 
" style="fill:#005a32;stroke:#808080;stroke-width:0.5;"/>
    <path d="M 328.378562 40.464 
L 345.010562 40.464 
L 345.010562 57.096 
L 328.378562 57.096 
L 328.378562 40.464 
" style="fill:none;stroke:#808080;stroke-width:0.5;"/>
    <path d="M 345.010562 40.464 
L 361.642562 40.464 
L 361.642562 57.096 
L 345.010562 57.096 
L 345.010562 40.464 
" style="fill:#005a32;stroke:#808080;stroke-width:0.5;"/>
    <path d="M 361.642562 40.464 
L 378.274563 40.464 
L 378.274563 57.096 
L 361.642562 57.096 
L 361.642562 40.464 
" style="fill:none;stroke:#808080;stroke-width:0.5;"/>
    <path d="M 378.274563 40.464 
L 394.906562 40.464 
L 394.906562 57.096 
L 378.274563 57.096 
L 378.274563 40.464 
" style="fill:none;stroke:#808080;stroke-width:0.5;"/>
    <path d="M 394.906562 40.464 
L 411.538563 40.464 
L 411.538563 57.096 
L 394.906562 57.096 
L 394.906562 40.464 
" style="fill:#005a32;stroke:#808080;stroke-width:0.5;"/>
    <path d="M 145.426563 57.096 
L 162.058563 57.096 
L 162.058563 73.728 
L 145.426563 73.728 
L 145.426563 57.096 
" style="fill:#005a32;stroke:#808080;stroke-width:0.5;"/>
    <path d="M 162.058563 57.096 
L 178.690562 57.096 
L 178.690562 73.728 
L 162.058563 73.728 
L 162.058563 57.096 
" style="fill:none;stroke:#808080;stroke-width:0.5;"/>
    <path d="M 178.690562 57.096 
L 195.322563 57.096 
L 195.322563 73.728 
L 178.690562 73.728 
L 178.690562 57.096 
" style="fill:#005a32;stroke:#808080;stroke-width:0.5;"/>
    <path d="M 195.322563 57.096 
L 211.954563 57.096 
L 211.954563 73.728 
L 195.322563 73.728 
L 195.322563 57.096 
" style="fill:#ffffff;stroke:#808080;stroke-width:0.5;"/>
    <path d="M 211.954563 57.096 
L 228.586563 57.096 
L 228.586563 73.728 
L 211.954563 73.728 
L 211.954563 57.096 
" style="fill:#005a32;stroke:#808080;stroke-width:0.5;"/>
    <path d="M 228.586563 57.096 
L 245.218563 57.096 
L 245.218563 73.728 
L 228.586563 73.728 
L 228.586563 57.096 
" style="fill:#005a32;stroke:#808080;stroke-width:0.5;"/>
    <path d="M 245.218563 57.096 
L 261.850563 57.096 
L 261.850563 73.728 
L 245.218563 73.728 
L 245.218563 57.096 
" style="fill:#005a32;stroke:#808080;stroke-width:0.5;"/>
    <path d="M 261.850563 57.096 
L 278.482562 57.096 
L 278.482562 73.728 
L 261.850563 73.728 
L 261.850563 57.096 
" style="fill:#005a32;stroke:#808080;stroke-width:0.5;"/>
    <path d="M 278.482562 57.096 
L 295.114563 57.096 
L 295.114563 73.728 
L 278.482562 73.728 
L 278.482562 57.096 
" style="fill:#005a32;stroke:#808080;stroke-width:0.5;"/>
    <path d="M 295.114563 57.096 
L 311.746562 57.096 
L 311.746562 73.728 
L 295.114563 73.728 
L 295.114563 57.096 
" style="fill:#238b45;stroke:#808080;stroke-width:0.5;"/>
    <path d="M 311.746562 57.096 
L 328.378562 57.096 
L 328.378562 73.728 
L 311.746562 73.728 
L 311.746562 57.096 
" style="fill:#005a32;stroke:#808080;stroke-width:0.5;"/>
    <path d="M 328.378562 57.096 
L 345.010562 57.096 
L 345.010562 73.728 
L 328.378562 73.728 
L 328.378562 57.096 
" style="fill:#005a32;stroke:#808080;stroke-width:0.5;"/>
    <path d="M 345.010562 57.096 
L 361.642562 57.096 
L 361.642562 73.728 
L 345.010562 73.728 
L 345.010562 57.096 
" style="fill:#005a32;stroke:#808080;stroke-width:0.5;"/>
    <path d="M 361.642562 57.096 
L 378.274563 57.096 
L 378.274563 73.728 
L 361.642562 73.728 
L 361.642562 57.096 
" style="fill:#005a32;stroke:#808080;stroke-width:0.5;"/>
    <path d="M 378.274563 57.096 
L 394.906562 57.096 
L 394.906562 73.728 
L 378.274563 73.728 
L 378.274563 57.096 
" style="fill:#005a32;stroke:#808080;stroke-width:0.5;"/>
    <path d="M 394.906562 57.096 
L 411.538563 57.096 
L 411.538563 73.728 
L 394.906562 73.728 
L 394.906562 57.096 
" style="fill:#005a32;stroke:#808080;stroke-width:0.5;"/>
    <path d="M 145.426563 73.728 
L 162.058563 73.728 
L 162.058563 90.36 
L 145.426563 90.36 
L 145.426563 73.728 
" style="fill:none;stroke:#808080;stroke-width:0.5;"/>
    <path d="M 162.058563 73.728 
L 178.690562 73.728 
L 178.690562 90.36 
L 162.058563 90.36 
L 162.058563 73.728 
" style="fill:#fbd7d4;stroke:#808080;stroke-width:0.5;"/>
    <path d="M 178.690562 73.728 
L 195.322563 73.728 
L 195.322563 90.36 
L 178.690562 90.36 
L 178.690562 73.728 
" style="fill:none;stroke:#808080;stroke-width:0.5;"/>
    <path d="M 195.322563 73.728 
L 211.954563 73.728 
L 211.954563 90.36 
L 195.322563 90.36 
L 195.322563 73.728 
" style="fill:#005a32;stroke:#808080;stroke-width:0.5;"/>
    <path d="M 211.954563 73.728 
L 228.586563 73.728 
L 228.586563 90.36 
L 211.954563 90.36 
L 211.954563 73.728 
" style="fill:#ffffff;stroke:#808080;stroke-width:0.5;"/>
    <path d="M 228.586563 73.728 
L 245.218563 73.728 
L 245.218563 90.36 
L 228.586563 90.36 
L 228.586563 73.728 
" style="fill:none;stroke:#808080;stroke-width:0.5;"/>
    <path d="M 245.218563 73.728 
L 261.850563 73.728 
L 261.850563 90.36 
L 245.218563 90.36 
L 245.218563 73.728 
" style="fill:#005a32;stroke:#808080;stroke-width:0.5;"/>
    <path d="M 261.850563 73.728 
L 278.482562 73.728 
L 278.482562 90.36 
L 261.850563 90.36 
L 261.850563 73.728 
" style="fill:none;stroke:#808080;stroke-width:0.5;"/>
    <path d="M 278.482562 73.728 
L 295.114563 73.728 
L 295.114563 90.36 
L 278.482562 90.36 
L 278.482562 73.728 
" style="fill:#005a32;stroke:#808080;stroke-width:0.5;"/>
    <path d="M 295.114563 73.728 
L 311.746562 73.728 
L 311.746562 90.36 
L 295.114563 90.36 
L 295.114563 73.728 
" style="fill:none;stroke:#808080;stroke-width:0.5;"/>
    <path d="M 311.746562 73.728 
L 328.378562 73.728 
L 328.378562 90.36 
L 311.746562 90.36 
L 311.746562 73.728 
" style="fill:#005a32;stroke:#808080;stroke-width:0.5;"/>
    <path d="M 328.378562 73.728 
L 345.010562 73.728 
L 345.010562 90.36 
L 328.378562 90.36 
L 328.378562 73.728 
" style="fill:none;stroke:#808080;stroke-width:0.5;"/>
    <path d="M 345.010562 73.728 
L 361.642562 73.728 
L 361.642562 90.36 
L 345.010562 90.36 
L 345.010562 73.728 
" style="fill:#005a32;stroke:#808080;stroke-width:0.5;"/>
    <path d="M 361.642562 73.728 
L 378.274563 73.728 
L 378.274563 90.36 
L 361.642562 90.36 
L 361.642562 73.728 
" style="fill:none;stroke:#808080;stroke-width:0.5;"/>
    <path d="M 378.274563 73.728 
L 394.906562 73.728 
L 394.906562 90.36 
L 378.274563 90.36 
L 378.274563 73.728 
" style="fill:none;stroke:#808080;stroke-width:0.5;"/>
    <path d="M 394.906562 73.728 
L 411.538563 73.728 
L 411.538563 90.36 
L 394.906562 90.36 
L 394.906562 73.728 
" style="fill:#005a32;stroke:#808080;stroke-width:0.5;"/>
    <path d="M 145.426563 90.36 
L 162.058563 90.36 
L 162.058563 106.992 
L 145.426563 106.992 
L 145.426563 90.36 
" style="fill:none;stroke:#808080;stroke-width:0.5;"/>
    <path d="M 162.058563 90.36 
L 178.690562 90.36 
L 178.690562 106.992 
L 162.058563 106.992 
L 162.058563 90.36 
" style="fill:#fbd7d4;stroke:#808080;stroke-width:0.5;"/>
    <path d="M 178.690562 90.36 
L 195.322563 90.36 
L 195.322563 106.992 
L 178.690562 106.992 
L 178.690562 90.36 
" style="fill:none;stroke:#808080;stroke-width:0.5;"/>
    <path d="M 195.322563 90.36 
L 211.954563 90.36 
L 211.954563 106.992 
L 195.322563 106.992 
L 195.322563 90.36 
" style="fill:#005a32;stroke:#808080;stroke-width:0.5;"/>
    <path d="M 211.954563 90.36 
L 228.586563 90.36 
L 228.586563 106.992 
L 211.954563 106.992 
L 211.954563 90.36 
" style="fill:none;stroke:#808080;stroke-width:0.5;"/>
    <path d="M 228.586563 90.36 
L 245.218563 90.36 
L 245.218563 106.992 
L 228.586563 106.992 
L 228.586563 90.36 
" style="fill:#ffffff;stroke:#808080;stroke-width:0.5;"/>
    <path d="M 245.218563 90.36 
L 261.850563 90.36 
L 261.850563 106.992 
L 245.218563 106.992 
L 245.218563 90.36 
" style="fill:#005a32;stroke:#808080;stroke-width:0.5;"/>
    <path d="M 261.850563 90.36 
L 278.482562 90.36 
L 278.482562 106.992 
L 261.850563 106.992 
L 261.850563 90.36 
" style="fill:none;stroke:#808080;stroke-width:0.5;"/>
    <path d="M 278.482562 90.36 
L 295.114563 90.36 
L 295.114563 106.992 
L 278.482562 106.992 
L 278.482562 90.36 
" style="fill:#005a32;stroke:#808080;stroke-width:0.5;"/>
    <path d="M 295.114563 90.36 
L 311.746562 90.36 
L 311.746562 106.992 
L 295.114563 106.992 
L 295.114563 90.36 
" style="fill:none;stroke:#808080;stroke-width:0.5;"/>
    <path d="M 311.746562 90.36 
L 328.378562 90.36 
L 328.378562 106.992 
L 311.746562 106.992 
L 311.746562 90.36 
" style="fill:#005a32;stroke:#808080;stroke-width:0.5;"/>
    <path d="M 328.378562 90.36 
L 345.010562 90.36 
L 345.010562 106.992 
L 328.378562 106.992 
L 328.378562 90.36 
" style="fill:none;stroke:#808080;stroke-width:0.5;"/>
    <path d="M 345.010562 90.36 
L 361.642562 90.36 
L 361.642562 106.992 
L 345.010562 106.992 
L 345.010562 90.36 
" style="fill:#005a32;stroke:#808080;stroke-width:0.5;"/>
    <path d="M 361.642562 90.36 
L 378.274563 90.36 
L 378.274563 106.992 
L 361.642562 106.992 
L 361.642562 90.36 
" style="fill:none;stroke:#808080;stroke-width:0.5;"/>
    <path d="M 378.274563 90.36 
L 394.906562 90.36 
L 394.906562 106.992 
L 378.274563 106.992 
L 378.274563 90.36 
" style="fill:none;stroke:#808080;stroke-width:0.5;"/>
    <path d="M 394.906562 90.36 
L 411.538563 90.36 
L 411.538563 106.992 
L 394.906562 106.992 
L 394.906562 90.36 
" style="fill:#005a32;stroke:#808080;stroke-width:0.5;"/>
    <path d="M 145.426563 106.992 
L 162.058563 106.992 
L 162.058563 123.624 
L 145.426563 123.624 
L 145.426563 106.992 
" style="fill:#005a32;stroke:#808080;stroke-width:0.5;"/>
    <path d="M 162.058563 106.992 
L 178.690562 106.992 
L 178.690562 123.624 
L 162.058563 123.624 
L 162.058563 106.992 
" style="fill:#005a32;stroke:#808080;stroke-width:0.5;"/>
    <path d="M 178.690562 106.992 
L 195.322563 106.992 
L 195.322563 123.624 
L 178.690562 123.624 
L 178.690562 106.992 
" style="fill:#005a32;stroke:#808080;stroke-width:0.5;"/>
    <path d="M 195.322563 106.992 
L 211.954563 106.992 
L 211.954563 123.624 
L 195.322563 123.624 
L 195.322563 106.992 
" style="fill:#005a32;stroke:#808080;stroke-width:0.5;"/>
    <path d="M 211.954563 106.992 
L 228.586563 106.992 
L 228.586563 123.624 
L 211.954563 123.624 
L 211.954563 106.992 
" style="fill:#005a32;stroke:#808080;stroke-width:0.5;"/>
    <path d="M 228.586563 106.992 
L 245.218563 106.992 
L 245.218563 123.624 
L 228.586563 123.624 
L 228.586563 106.992 
" style="fill:#005a32;stroke:#808080;stroke-width:0.5;"/>
    <path d="M 245.218563 106.992 
L 261.850563 106.992 
L 261.850563 123.624 
L 245.218563 123.624 
L 245.218563 106.992 
" style="fill:#ffffff;stroke:#808080;stroke-width:0.5;"/>
    <path d="M 261.850563 106.992 
L 278.482562 106.992 
L 278.482562 123.624 
L 261.850563 123.624 
L 261.850563 106.992 
" style="fill:#005a32;stroke:#808080;stroke-width:0.5;"/>
    <path d="M 278.482562 106.992 
L 295.114563 106.992 
L 295.114563 123.624 
L 278.482562 123.624 
L 278.482562 106.992 
" style="fill:none;stroke:#808080;stroke-width:0.5;"/>
    <path d="M 295.114563 106.992 
L 311.746562 106.992 
L 311.746562 123.624 
L 295.114563 123.624 
L 295.114563 106.992 
" style="fill:#005a32;stroke:#808080;stroke-width:0.5;"/>
    <path d="M 311.746562 106.992 
L 328.378562 106.992 
L 328.378562 123.624 
L 311.746562 123.624 
L 311.746562 106.992 
" style="fill:#005a32;stroke:#808080;stroke-width:0.5;"/>
    <path d="M 328.378562 106.992 
L 345.010562 106.992 
L 345.010562 123.624 
L 328.378562 123.624 
L 328.378562 106.992 
" style="fill:#005a32;stroke:#808080;stroke-width:0.5;"/>
    <path d="M 345.010562 106.992 
L 361.642562 106.992 
L 361.642562 123.624 
L 345.010562 123.624 
L 345.010562 106.992 
" style="fill:none;stroke:#808080;stroke-width:0.5;"/>
    <path d="M 361.642562 106.992 
L 378.274563 106.992 
L 378.274563 123.624 
L 361.642562 123.624 
L 361.642562 106.992 
" style="fill:#005a32;stroke:#808080;stroke-width:0.5;"/>
    <path d="M 378.274563 106.992 
L 394.906562 106.992 
L 394.906562 123.624 
L 378.274563 123.624 
L 378.274563 106.992 
" style="fill:#005a32;stroke:#808080;stroke-width:0.5;"/>
    <path d="M 394.906562 106.992 
L 411.538563 106.992 
L 411.538563 123.624 
L 394.906562 123.624 
L 394.906562 106.992 
" style="fill:#005a32;stroke:#808080;stroke-width:0.5;"/>
    <path d="M 145.426563 123.624 
L 162.058563 123.624 
L 162.058563 140.256 
L 145.426563 140.256 
L 145.426563 123.624 
" style="fill:none;stroke:#808080;stroke-width:0.5;"/>
    <path d="M 162.058563 123.624 
L 178.690562 123.624 
L 178.690562 140.256 
L 162.058563 140.256 
L 162.058563 123.624 
" style="fill:#fbd7d4;stroke:#808080;stroke-width:0.5;"/>
    <path d="M 178.690562 123.624 
L 195.322563 123.624 
L 195.322563 140.256 
L 178.690562 140.256 
L 178.690562 123.624 
" style="fill:none;stroke:#808080;stroke-width:0.5;"/>
    <path d="M 195.322563 123.624 
L 211.954563 123.624 
L 211.954563 140.256 
L 195.322563 140.256 
L 195.322563 123.624 
" style="fill:#005a32;stroke:#808080;stroke-width:0.5;"/>
    <path d="M 211.954563 123.624 
L 228.586563 123.624 
L 228.586563 140.256 
L 211.954563 140.256 
L 211.954563 123.624 
" style="fill:none;stroke:#808080;stroke-width:0.5;"/>
    <path d="M 228.586563 123.624 
L 245.218563 123.624 
L 245.218563 140.256 
L 228.586563 140.256 
L 228.586563 123.624 
" style="fill:none;stroke:#808080;stroke-width:0.5;"/>
    <path d="M 245.218563 123.624 
L 261.850563 123.624 
L 261.850563 140.256 
L 245.218563 140.256 
L 245.218563 123.624 
" style="fill:#005a32;stroke:#808080;stroke-width:0.5;"/>
    <path d="M 261.850563 123.624 
L 278.482562 123.624 
L 278.482562 140.256 
L 261.850563 140.256 
L 261.850563 123.624 
" style="fill:#ffffff;stroke:#808080;stroke-width:0.5;"/>
    <path d="M 278.482562 123.624 
L 295.114563 123.624 
L 295.114563 140.256 
L 278.482562 140.256 
L 278.482562 123.624 
" style="fill:#005a32;stroke:#808080;stroke-width:0.5;"/>
    <path d="M 295.114563 123.624 
L 311.746562 123.624 
L 311.746562 140.256 
L 295.114563 140.256 
L 295.114563 123.624 
" style="fill:none;stroke:#808080;stroke-width:0.5;"/>
    <path d="M 311.746562 123.624 
L 328.378562 123.624 
L 328.378562 140.256 
L 311.746562 140.256 
L 311.746562 123.624 
" style="fill:#005a32;stroke:#808080;stroke-width:0.5;"/>
    <path d="M 328.378562 123.624 
L 345.010562 123.624 
L 345.010562 140.256 
L 328.378562 140.256 
L 328.378562 123.624 
" style="fill:none;stroke:#808080;stroke-width:0.5;"/>
    <path d="M 345.010562 123.624 
L 361.642562 123.624 
L 361.642562 140.256 
L 345.010562 140.256 
L 345.010562 123.624 
" style="fill:#005a32;stroke:#808080;stroke-width:0.5;"/>
    <path d="M 361.642562 123.624 
L 378.274563 123.624 
L 378.274563 140.256 
L 361.642562 140.256 
L 361.642562 123.624 
" style="fill:none;stroke:#808080;stroke-width:0.5;"/>
    <path d="M 378.274563 123.624 
L 394.906562 123.624 
L 394.906562 140.256 
L 378.274563 140.256 
L 378.274563 123.624 
" style="fill:none;stroke:#808080;stroke-width:0.5;"/>
    <path d="M 394.906562 123.624 
L 411.538563 123.624 
L 411.538563 140.256 
L 394.906562 140.256 
L 394.906562 123.624 
" style="fill:#005a32;stroke:#808080;stroke-width:0.5;"/>
    <path d="M 145.426563 140.256 
L 162.058563 140.256 
L 162.058563 156.888 
L 145.426563 156.888 
L 145.426563 140.256 
" style="fill:#005a32;stroke:#808080;stroke-width:0.5;"/>
    <path d="M 162.058563 140.256 
L 178.690562 140.256 
L 178.690562 156.888 
L 162.058563 156.888 
L 162.058563 140.256 
" style="fill:#005a32;stroke:#808080;stroke-width:0.5;"/>
    <path d="M 178.690562 140.256 
L 195.322563 140.256 
L 195.322563 156.888 
L 178.690562 156.888 
L 178.690562 140.256 
" style="fill:#005a32;stroke:#808080;stroke-width:0.5;"/>
    <path d="M 195.322563 140.256 
L 211.954563 140.256 
L 211.954563 156.888 
L 195.322563 156.888 
L 195.322563 140.256 
" style="fill:#005a32;stroke:#808080;stroke-width:0.5;"/>
    <path d="M 211.954563 140.256 
L 228.586563 140.256 
L 228.586563 156.888 
L 211.954563 156.888 
L 211.954563 140.256 
" style="fill:#005a32;stroke:#808080;stroke-width:0.5;"/>
    <path d="M 228.586563 140.256 
L 245.218563 140.256 
L 245.218563 156.888 
L 228.586563 156.888 
L 228.586563 140.256 
" style="fill:#005a32;stroke:#808080;stroke-width:0.5;"/>
    <path d="M 245.218563 140.256 
L 261.850563 140.256 
L 261.850563 156.888 
L 245.218563 156.888 
L 245.218563 140.256 
" style="fill:none;stroke:#808080;stroke-width:0.5;"/>
    <path d="M 261.850563 140.256 
L 278.482562 140.256 
L 278.482562 156.888 
L 261.850563 156.888 
L 261.850563 140.256 
" style="fill:#005a32;stroke:#808080;stroke-width:0.5;"/>
    <path d="M 278.482562 140.256 
L 295.114563 140.256 
L 295.114563 156.888 
L 278.482562 156.888 
L 278.482562 140.256 
" style="fill:#ffffff;stroke:#808080;stroke-width:0.5;"/>
    <path d="M 295.114563 140.256 
L 311.746562 140.256 
L 311.746562 156.888 
L 295.114563 156.888 
L 295.114563 140.256 
" style="fill:#005a32;stroke:#808080;stroke-width:0.5;"/>
    <path d="M 311.746562 140.256 
L 328.378562 140.256 
L 328.378562 156.888 
L 311.746562 156.888 
L 311.746562 140.256 
" style="fill:#005a32;stroke:#808080;stroke-width:0.5;"/>
    <path d="M 328.378562 140.256 
L 345.010562 140.256 
L 345.010562 156.888 
L 328.378562 156.888 
L 328.378562 140.256 
" style="fill:#005a32;stroke:#808080;stroke-width:0.5;"/>
    <path d="M 345.010562 140.256 
L 361.642562 140.256 
L 361.642562 156.888 
L 345.010562 156.888 
L 345.010562 140.256 
" style="fill:none;stroke:#808080;stroke-width:0.5;"/>
    <path d="M 361.642562 140.256 
L 378.274563 140.256 
L 378.274563 156.888 
L 361.642562 156.888 
L 361.642562 140.256 
" style="fill:#005a32;stroke:#808080;stroke-width:0.5;"/>
    <path d="M 378.274563 140.256 
L 394.906562 140.256 
L 394.906562 156.888 
L 378.274563 156.888 
L 378.274563 140.256 
" style="fill:#005a32;stroke:#808080;stroke-width:0.5;"/>
    <path d="M 394.906562 140.256 
L 411.538563 140.256 
L 411.538563 156.888 
L 394.906562 156.888 
L 394.906562 140.256 
" style="fill:#005a32;stroke:#808080;stroke-width:0.5;"/>
    <path d="M 145.426563 156.888 
L 162.058563 156.888 
L 162.058563 173.52 
L 145.426563 173.52 
L 145.426563 156.888 
" style="fill:none;stroke:#808080;stroke-width:0.5;"/>
    <path d="M 162.058563 156.888 
L 178.690562 156.888 
L 178.690562 173.52 
L 162.058563 173.52 
L 162.058563 156.888 
" style="fill:#fbd7d4;stroke:#808080;stroke-width:0.5;"/>
    <path d="M 178.690562 156.888 
L 195.322563 156.888 
L 195.322563 173.52 
L 178.690562 173.52 
L 178.690562 156.888 
" style="fill:none;stroke:#808080;stroke-width:0.5;"/>
    <path d="M 195.322563 156.888 
L 211.954563 156.888 
L 211.954563 173.52 
L 195.322563 173.52 
L 195.322563 156.888 
" style="fill:#238b45;stroke:#808080;stroke-width:0.5;"/>
    <path d="M 211.954563 156.888 
L 228.586563 156.888 
L 228.586563 173.52 
L 211.954563 173.52 
L 211.954563 156.888 
" style="fill:none;stroke:#808080;stroke-width:0.5;"/>
    <path d="M 228.586563 156.888 
L 245.218563 156.888 
L 245.218563 173.52 
L 228.586563 173.52 
L 228.586563 156.888 
" style="fill:none;stroke:#808080;stroke-width:0.5;"/>
    <path d="M 245.218563 156.888 
L 261.850563 156.888 
L 261.850563 173.52 
L 245.218563 173.52 
L 245.218563 156.888 
" style="fill:#005a32;stroke:#808080;stroke-width:0.5;"/>
    <path d="M 261.850563 156.888 
L 278.482562 156.888 
L 278.482562 173.52 
L 261.850563 173.52 
L 261.850563 156.888 
" style="fill:none;stroke:#808080;stroke-width:0.5;"/>
    <path d="M 278.482562 156.888 
L 295.114563 156.888 
L 295.114563 173.52 
L 278.482562 173.52 
L 278.482562 156.888 
" style="fill:#005a32;stroke:#808080;stroke-width:0.5;"/>
    <path d="M 295.114563 156.888 
L 311.746562 156.888 
L 311.746562 173.52 
L 295.114563 173.52 
L 295.114563 156.888 
" style="fill:#ffffff;stroke:#808080;stroke-width:0.5;"/>
    <path d="M 311.746562 156.888 
L 328.378562 156.888 
L 328.378562 173.52 
L 311.746562 173.52 
L 311.746562 156.888 
" style="fill:#005a32;stroke:#808080;stroke-width:0.5;"/>
    <path d="M 328.378562 156.888 
L 345.010562 156.888 
L 345.010562 173.52 
L 328.378562 173.52 
L 328.378562 156.888 
" style="fill:none;stroke:#808080;stroke-width:0.5;"/>
    <path d="M 345.010562 156.888 
L 361.642562 156.888 
L 361.642562 173.52 
L 345.010562 173.52 
L 345.010562 156.888 
" style="fill:#005a32;stroke:#808080;stroke-width:0.5;"/>
    <path d="M 361.642562 156.888 
L 378.274563 156.888 
L 378.274563 173.52 
L 361.642562 173.52 
L 361.642562 156.888 
" style="fill:none;stroke:#808080;stroke-width:0.5;"/>
    <path d="M 378.274563 156.888 
L 394.906562 156.888 
L 394.906562 173.52 
L 378.274563 173.52 
L 378.274563 156.888 
" style="fill:none;stroke:#808080;stroke-width:0.5;"/>
    <path d="M 394.906562 156.888 
L 411.538563 156.888 
L 411.538563 173.52 
L 394.906562 173.52 
L 394.906562 156.888 
" style="fill:#005a32;stroke:#808080;stroke-width:0.5;"/>
    <path d="M 145.426563 173.52 
L 162.058563 173.52 
L 162.058563 190.152 
L 145.426563 190.152 
L 145.426563 173.52 
" style="fill:#005a32;stroke:#808080;stroke-width:0.5;"/>
    <path d="M 162.058563 173.52 
L 178.690562 173.52 
L 178.690562 190.152 
L 162.058563 190.152 
L 162.058563 173.52 
" style="fill:#005a32;stroke:#808080;stroke-width:0.5;"/>
    <path d="M 178.690562 173.52 
L 195.322563 173.52 
L 195.322563 190.152 
L 178.690562 190.152 
L 178.690562 173.52 
" style="fill:#005a32;stroke:#808080;stroke-width:0.5;"/>
    <path d="M 195.322563 173.52 
L 211.954563 173.52 
L 211.954563 190.152 
L 195.322563 190.152 
L 195.322563 173.52 
" style="fill:#005a32;stroke:#808080;stroke-width:0.5;"/>
    <path d="M 211.954563 173.52 
L 228.586563 173.52 
L 228.586563 190.152 
L 211.954563 190.152 
L 211.954563 173.52 
" style="fill:#005a32;stroke:#808080;stroke-width:0.5;"/>
    <path d="M 228.586563 173.52 
L 245.218563 173.52 
L 245.218563 190.152 
L 228.586563 190.152 
L 228.586563 173.52 
" style="fill:#005a32;stroke:#808080;stroke-width:0.5;"/>
    <path d="M 245.218563 173.52 
L 261.850563 173.52 
L 261.850563 190.152 
L 245.218563 190.152 
L 245.218563 173.52 
" style="fill:#005a32;stroke:#808080;stroke-width:0.5;"/>
    <path d="M 261.850563 173.52 
L 278.482562 173.52 
L 278.482562 190.152 
L 261.850563 190.152 
L 261.850563 173.52 
" style="fill:#005a32;stroke:#808080;stroke-width:0.5;"/>
    <path d="M 278.482562 173.52 
L 295.114563 173.52 
L 295.114563 190.152 
L 278.482562 190.152 
L 278.482562 173.52 
" style="fill:#005a32;stroke:#808080;stroke-width:0.5;"/>
    <path d="M 295.114563 173.52 
L 311.746562 173.52 
L 311.746562 190.152 
L 295.114563 190.152 
L 295.114563 173.52 
" style="fill:#005a32;stroke:#808080;stroke-width:0.5;"/>
    <path d="M 311.746562 173.52 
L 328.378562 173.52 
L 328.378562 190.152 
L 311.746562 190.152 
L 311.746562 173.52 
" style="fill:#ffffff;stroke:#808080;stroke-width:0.5;"/>
    <path d="M 328.378562 173.52 
L 345.010562 173.52 
L 345.010562 190.152 
L 328.378562 190.152 
L 328.378562 173.52 
" style="fill:#005a32;stroke:#808080;stroke-width:0.5;"/>
    <path d="M 345.010562 173.52 
L 361.642562 173.52 
L 361.642562 190.152 
L 345.010562 190.152 
L 345.010562 173.52 
" style="fill:#005a32;stroke:#808080;stroke-width:0.5;"/>
    <path d="M 361.642562 173.52 
L 378.274563 173.52 
L 378.274563 190.152 
L 361.642562 190.152 
L 361.642562 173.52 
" style="fill:#005a32;stroke:#808080;stroke-width:0.5;"/>
    <path d="M 378.274563 173.52 
L 394.906562 173.52 
L 394.906562 190.152 
L 378.274563 190.152 
L 378.274563 173.52 
" style="fill:#005a32;stroke:#808080;stroke-width:0.5;"/>
    <path d="M 394.906562 173.52 
L 411.538563 173.52 
L 411.538563 190.152 
L 394.906562 190.152 
L 394.906562 173.52 
" style="fill:#005a32;stroke:#808080;stroke-width:0.5;"/>
    <path d="M 145.426563 190.152 
L 162.058563 190.152 
L 162.058563 206.784 
L 145.426563 206.784 
L 145.426563 190.152 
" style="fill:none;stroke:#808080;stroke-width:0.5;"/>
    <path d="M 162.058563 190.152 
L 178.690562 190.152 
L 178.690562 206.784 
L 162.058563 206.784 
L 162.058563 190.152 
" style="fill:#fbd7d4;stroke:#808080;stroke-width:0.5;"/>
    <path d="M 178.690562 190.152 
L 195.322563 190.152 
L 195.322563 206.784 
L 178.690562 206.784 
L 178.690562 190.152 
" style="fill:none;stroke:#808080;stroke-width:0.5;"/>
    <path d="M 195.322563 190.152 
L 211.954563 190.152 
L 211.954563 206.784 
L 195.322563 206.784 
L 195.322563 190.152 
" style="fill:#005a32;stroke:#808080;stroke-width:0.5;"/>
    <path d="M 211.954563 190.152 
L 228.586563 190.152 
L 228.586563 206.784 
L 211.954563 206.784 
L 211.954563 190.152 
" style="fill:none;stroke:#808080;stroke-width:0.5;"/>
    <path d="M 228.586563 190.152 
L 245.218563 190.152 
L 245.218563 206.784 
L 228.586563 206.784 
L 228.586563 190.152 
" style="fill:none;stroke:#808080;stroke-width:0.5;"/>
    <path d="M 245.218563 190.152 
L 261.850563 190.152 
L 261.850563 206.784 
L 245.218563 206.784 
L 245.218563 190.152 
" style="fill:#005a32;stroke:#808080;stroke-width:0.5;"/>
    <path d="M 261.850563 190.152 
L 278.482562 190.152 
L 278.482562 206.784 
L 261.850563 206.784 
L 261.850563 190.152 
" style="fill:none;stroke:#808080;stroke-width:0.5;"/>
    <path d="M 278.482562 190.152 
L 295.114563 190.152 
L 295.114563 206.784 
L 278.482562 206.784 
L 278.482562 190.152 
" style="fill:#005a32;stroke:#808080;stroke-width:0.5;"/>
    <path d="M 295.114563 190.152 
L 311.746562 190.152 
L 311.746562 206.784 
L 295.114563 206.784 
L 295.114563 190.152 
" style="fill:none;stroke:#808080;stroke-width:0.5;"/>
    <path d="M 311.746562 190.152 
L 328.378562 190.152 
L 328.378562 206.784 
L 311.746562 206.784 
L 311.746562 190.152 
" style="fill:#005a32;stroke:#808080;stroke-width:0.5;"/>
    <path d="M 328.378562 190.152 
L 345.010562 190.152 
L 345.010562 206.784 
L 328.378562 206.784 
L 328.378562 190.152 
" style="fill:#ffffff;stroke:#808080;stroke-width:0.5;"/>
    <path d="M 345.010562 190.152 
L 361.642562 190.152 
L 361.642562 206.784 
L 345.010562 206.784 
L 345.010562 190.152 
" style="fill:#005a32;stroke:#808080;stroke-width:0.5;"/>
    <path d="M 361.642562 190.152 
L 378.274563 190.152 
L 378.274563 206.784 
L 361.642562 206.784 
L 361.642562 190.152 
" style="fill:none;stroke:#808080;stroke-width:0.5;"/>
    <path d="M 378.274563 190.152 
L 394.906562 190.152 
L 394.906562 206.784 
L 378.274563 206.784 
L 378.274563 190.152 
" style="fill:none;stroke:#808080;stroke-width:0.5;"/>
    <path d="M 394.906562 190.152 
L 411.538563 190.152 
L 411.538563 206.784 
L 394.906562 206.784 
L 394.906562 190.152 
" style="fill:#005a32;stroke:#808080;stroke-width:0.5;"/>
    <path d="M 145.426563 206.784 
L 162.058563 206.784 
L 162.058563 223.416 
L 145.426563 223.416 
L 145.426563 206.784 
" style="fill:#005a32;stroke:#808080;stroke-width:0.5;"/>
    <path d="M 162.058563 206.784 
L 178.690562 206.784 
L 178.690562 223.416 
L 162.058563 223.416 
L 162.058563 206.784 
" style="fill:#005a32;stroke:#808080;stroke-width:0.5;"/>
    <path d="M 178.690562 206.784 
L 195.322563 206.784 
L 195.322563 223.416 
L 178.690562 223.416 
L 178.690562 206.784 
" style="fill:#005a32;stroke:#808080;stroke-width:0.5;"/>
    <path d="M 195.322563 206.784 
L 211.954563 206.784 
L 211.954563 223.416 
L 195.322563 223.416 
L 195.322563 206.784 
" style="fill:#005a32;stroke:#808080;stroke-width:0.5;"/>
    <path d="M 211.954563 206.784 
L 228.586563 206.784 
L 228.586563 223.416 
L 211.954563 223.416 
L 211.954563 206.784 
" style="fill:#005a32;stroke:#808080;stroke-width:0.5;"/>
    <path d="M 228.586563 206.784 
L 245.218563 206.784 
L 245.218563 223.416 
L 228.586563 223.416 
L 228.586563 206.784 
" style="fill:#005a32;stroke:#808080;stroke-width:0.5;"/>
    <path d="M 245.218563 206.784 
L 261.850563 206.784 
L 261.850563 223.416 
L 245.218563 223.416 
L 245.218563 206.784 
" style="fill:none;stroke:#808080;stroke-width:0.5;"/>
    <path d="M 261.850563 206.784 
L 278.482562 206.784 
L 278.482562 223.416 
L 261.850563 223.416 
L 261.850563 206.784 
" style="fill:#005a32;stroke:#808080;stroke-width:0.5;"/>
    <path d="M 278.482562 206.784 
L 295.114563 206.784 
L 295.114563 223.416 
L 278.482562 223.416 
L 278.482562 206.784 
" style="fill:none;stroke:#808080;stroke-width:0.5;"/>
    <path d="M 295.114563 206.784 
L 311.746562 206.784 
L 311.746562 223.416 
L 295.114563 223.416 
L 295.114563 206.784 
" style="fill:#005a32;stroke:#808080;stroke-width:0.5;"/>
    <path d="M 311.746562 206.784 
L 328.378562 206.784 
L 328.378562 223.416 
L 311.746562 223.416 
L 311.746562 206.784 
" style="fill:#005a32;stroke:#808080;stroke-width:0.5;"/>
    <path d="M 328.378562 206.784 
L 345.010562 206.784 
L 345.010562 223.416 
L 328.378562 223.416 
L 328.378562 206.784 
" style="fill:#005a32;stroke:#808080;stroke-width:0.5;"/>
    <path d="M 345.010562 206.784 
L 361.642562 206.784 
L 361.642562 223.416 
L 345.010562 223.416 
L 345.010562 206.784 
" style="fill:#ffffff;stroke:#808080;stroke-width:0.5;"/>
    <path d="M 361.642562 206.784 
L 378.274563 206.784 
L 378.274563 223.416 
L 361.642562 223.416 
L 361.642562 206.784 
" style="fill:#005a32;stroke:#808080;stroke-width:0.5;"/>
    <path d="M 378.274563 206.784 
L 394.906562 206.784 
L 394.906562 223.416 
L 378.274563 223.416 
L 378.274563 206.784 
" style="fill:#005a32;stroke:#808080;stroke-width:0.5;"/>
    <path d="M 394.906562 206.784 
L 411.538563 206.784 
L 411.538563 223.416 
L 394.906562 223.416 
L 394.906562 206.784 
" style="fill:#005a32;stroke:#808080;stroke-width:0.5;"/>
    <path d="M 145.426563 223.416 
L 162.058563 223.416 
L 162.058563 240.048 
L 145.426563 240.048 
L 145.426563 223.416 
" style="fill:none;stroke:#808080;stroke-width:0.5;"/>
    <path d="M 162.058563 223.416 
L 178.690562 223.416 
L 178.690562 240.048 
L 162.058563 240.048 
L 162.058563 223.416 
" style="fill:#fbd7d4;stroke:#808080;stroke-width:0.5;"/>
    <path d="M 178.690562 223.416 
L 195.322563 223.416 
L 195.322563 240.048 
L 178.690562 240.048 
L 178.690562 223.416 
" style="fill:none;stroke:#808080;stroke-width:0.5;"/>
    <path d="M 195.322563 223.416 
L 211.954563 223.416 
L 211.954563 240.048 
L 195.322563 240.048 
L 195.322563 223.416 
" style="fill:#005a32;stroke:#808080;stroke-width:0.5;"/>
    <path d="M 211.954563 223.416 
L 228.586563 223.416 
L 228.586563 240.048 
L 211.954563 240.048 
L 211.954563 223.416 
" style="fill:none;stroke:#808080;stroke-width:0.5;"/>
    <path d="M 228.586563 223.416 
L 245.218563 223.416 
L 245.218563 240.048 
L 228.586563 240.048 
L 228.586563 223.416 
" style="fill:none;stroke:#808080;stroke-width:0.5;"/>
    <path d="M 245.218563 223.416 
L 261.850563 223.416 
L 261.850563 240.048 
L 245.218563 240.048 
L 245.218563 223.416 
" style="fill:#005a32;stroke:#808080;stroke-width:0.5;"/>
    <path d="M 261.850563 223.416 
L 278.482562 223.416 
L 278.482562 240.048 
L 261.850563 240.048 
L 261.850563 223.416 
" style="fill:none;stroke:#808080;stroke-width:0.5;"/>
    <path d="M 278.482562 223.416 
L 295.114563 223.416 
L 295.114563 240.048 
L 278.482562 240.048 
L 278.482562 223.416 
" style="fill:#005a32;stroke:#808080;stroke-width:0.5;"/>
    <path d="M 295.114563 223.416 
L 311.746562 223.416 
L 311.746562 240.048 
L 295.114563 240.048 
L 295.114563 223.416 
" style="fill:none;stroke:#808080;stroke-width:0.5;"/>
    <path d="M 311.746562 223.416 
L 328.378562 223.416 
L 328.378562 240.048 
L 311.746562 240.048 
L 311.746562 223.416 
" style="fill:#005a32;stroke:#808080;stroke-width:0.5;"/>
    <path d="M 328.378562 223.416 
L 345.010562 223.416 
L 345.010562 240.048 
L 328.378562 240.048 
L 328.378562 223.416 
" style="fill:none;stroke:#808080;stroke-width:0.5;"/>
    <path d="M 345.010562 223.416 
L 361.642562 223.416 
L 361.642562 240.048 
L 345.010562 240.048 
L 345.010562 223.416 
" style="fill:#005a32;stroke:#808080;stroke-width:0.5;"/>
    <path d="M 361.642562 223.416 
L 378.274563 223.416 
L 378.274563 240.048 
L 361.642562 240.048 
L 361.642562 223.416 
" style="fill:#ffffff;stroke:#808080;stroke-width:0.5;"/>
    <path d="M 378.274563 223.416 
L 394.906562 223.416 
L 394.906562 240.048 
L 378.274563 240.048 
L 378.274563 223.416 
" style="fill:none;stroke:#808080;stroke-width:0.5;"/>
    <path d="M 394.906562 223.416 
L 411.538563 223.416 
L 411.538563 240.048 
L 394.906562 240.048 
L 394.906562 223.416 
" style="fill:#005a32;stroke:#808080;stroke-width:0.5;"/>
    <path d="M 145.426563 240.048 
L 162.058563 240.048 
L 162.058563 256.68 
L 145.426563 256.68 
L 145.426563 240.048 
" style="fill:none;stroke:#808080;stroke-width:0.5;"/>
    <path d="M 162.058563 240.048 
L 178.690562 240.048 
L 178.690562 256.68 
L 162.058563 256.68 
L 162.058563 240.048 
" style="fill:#fbd7d4;stroke:#808080;stroke-width:0.5;"/>
    <path d="M 178.690562 240.048 
L 195.322563 240.048 
L 195.322563 256.68 
L 178.690562 256.68 
L 178.690562 240.048 
" style="fill:none;stroke:#808080;stroke-width:0.5;"/>
    <path d="M 195.322563 240.048 
L 211.954563 240.048 
L 211.954563 256.68 
L 195.322563 256.68 
L 195.322563 240.048 
" style="fill:#005a32;stroke:#808080;stroke-width:0.5;"/>
    <path d="M 211.954563 240.048 
L 228.586563 240.048 
L 228.586563 256.68 
L 211.954563 256.68 
L 211.954563 240.048 
" style="fill:none;stroke:#808080;stroke-width:0.5;"/>
    <path d="M 228.586563 240.048 
L 245.218563 240.048 
L 245.218563 256.68 
L 228.586563 256.68 
L 228.586563 240.048 
" style="fill:none;stroke:#808080;stroke-width:0.5;"/>
    <path d="M 245.218563 240.048 
L 261.850563 240.048 
L 261.850563 256.68 
L 245.218563 256.68 
L 245.218563 240.048 
" style="fill:#005a32;stroke:#808080;stroke-width:0.5;"/>
    <path d="M 261.850563 240.048 
L 278.482562 240.048 
L 278.482562 256.68 
L 261.850563 256.68 
L 261.850563 240.048 
" style="fill:none;stroke:#808080;stroke-width:0.5;"/>
    <path d="M 278.482562 240.048 
L 295.114563 240.048 
L 295.114563 256.68 
L 278.482562 256.68 
L 278.482562 240.048 
" style="fill:#005a32;stroke:#808080;stroke-width:0.5;"/>
    <path d="M 295.114563 240.048 
L 311.746562 240.048 
L 311.746562 256.68 
L 295.114563 256.68 
L 295.114563 240.048 
" style="fill:none;stroke:#808080;stroke-width:0.5;"/>
    <path d="M 311.746562 240.048 
L 328.378562 240.048 
L 328.378562 256.68 
L 311.746562 256.68 
L 311.746562 240.048 
" style="fill:#005a32;stroke:#808080;stroke-width:0.5;"/>
    <path d="M 328.378562 240.048 
L 345.010562 240.048 
L 345.010562 256.68 
L 328.378562 256.68 
L 328.378562 240.048 
" style="fill:none;stroke:#808080;stroke-width:0.5;"/>
    <path d="M 345.010562 240.048 
L 361.642562 240.048 
L 361.642562 256.68 
L 345.010562 256.68 
L 345.010562 240.048 
" style="fill:#005a32;stroke:#808080;stroke-width:0.5;"/>
    <path d="M 361.642562 240.048 
L 378.274563 240.048 
L 378.274563 256.68 
L 361.642562 256.68 
L 361.642562 240.048 
" style="fill:none;stroke:#808080;stroke-width:0.5;"/>
    <path d="M 378.274563 240.048 
L 394.906562 240.048 
L 394.906562 256.68 
L 378.274563 256.68 
L 378.274563 240.048 
" style="fill:#ffffff;stroke:#808080;stroke-width:0.5;"/>
    <path d="M 394.906562 240.048 
L 411.538563 240.048 
L 411.538563 256.68 
L 394.906562 256.68 
L 394.906562 240.048 
" style="fill:#005a32;stroke:#808080;stroke-width:0.5;"/>
    <path d="M 145.426563 256.68 
L 162.058563 256.68 
L 162.058563 273.312 
L 145.426563 273.312 
L 145.426563 256.68 
" style="fill:#005a32;stroke:#808080;stroke-width:0.5;"/>
    <path d="M 162.058563 256.68 
L 178.690562 256.68 
L 178.690562 273.312 
L 162.058563 273.312 
L 162.058563 256.68 
" style="fill:#005a32;stroke:#808080;stroke-width:0.5;"/>
    <path d="M 178.690562 256.68 
L 195.322563 256.68 
L 195.322563 273.312 
L 178.690562 273.312 
L 178.690562 256.68 
" style="fill:#005a32;stroke:#808080;stroke-width:0.5;"/>
    <path d="M 195.322563 256.68 
L 211.954563 256.68 
L 211.954563 273.312 
L 195.322563 273.312 
L 195.322563 256.68 
" style="fill:#005a32;stroke:#808080;stroke-width:0.5;"/>
    <path d="M 211.954563 256.68 
L 228.586563 256.68 
L 228.586563 273.312 
L 211.954563 273.312 
L 211.954563 256.68 
" style="fill:#005a32;stroke:#808080;stroke-width:0.5;"/>
    <path d="M 228.586563 256.68 
L 245.218563 256.68 
L 245.218563 273.312 
L 228.586563 273.312 
L 228.586563 256.68 
" style="fill:#005a32;stroke:#808080;stroke-width:0.5;"/>
    <path d="M 245.218563 256.68 
L 261.850563 256.68 
L 261.850563 273.312 
L 245.218563 273.312 
L 245.218563 256.68 
" style="fill:#005a32;stroke:#808080;stroke-width:0.5;"/>
    <path d="M 261.850563 256.68 
L 278.482562 256.68 
L 278.482562 273.312 
L 261.850563 273.312 
L 261.850563 256.68 
" style="fill:#005a32;stroke:#808080;stroke-width:0.5;"/>
    <path d="M 278.482562 256.68 
L 295.114563 256.68 
L 295.114563 273.312 
L 278.482562 273.312 
L 278.482562 256.68 
" style="fill:#005a32;stroke:#808080;stroke-width:0.5;"/>
    <path d="M 295.114563 256.68 
L 311.746562 256.68 
L 311.746562 273.312 
L 295.114563 273.312 
L 295.114563 256.68 
" style="fill:#005a32;stroke:#808080;stroke-width:0.5;"/>
    <path d="M 311.746562 256.68 
L 328.378562 256.68 
L 328.378562 273.312 
L 311.746562 273.312 
L 311.746562 256.68 
" style="fill:#005a32;stroke:#808080;stroke-width:0.5;"/>
    <path d="M 328.378562 256.68 
L 345.010562 256.68 
L 345.010562 273.312 
L 328.378562 273.312 
L 328.378562 256.68 
" style="fill:#005a32;stroke:#808080;stroke-width:0.5;"/>
    <path d="M 345.010562 256.68 
L 361.642562 256.68 
L 361.642562 273.312 
L 345.010562 273.312 
L 345.010562 256.68 
" style="fill:#005a32;stroke:#808080;stroke-width:0.5;"/>
    <path d="M 361.642562 256.68 
L 378.274563 256.68 
L 378.274563 273.312 
L 361.642562 273.312 
L 361.642562 256.68 
" style="fill:#005a32;stroke:#808080;stroke-width:0.5;"/>
    <path d="M 378.274563 256.68 
L 394.906562 256.68 
L 394.906562 273.312 
L 378.274563 273.312 
L 378.274563 256.68 
" style="fill:#005a32;stroke:#808080;stroke-width:0.5;"/>
    <path d="M 394.906562 256.68 
L 411.538563 256.68 
L 411.538563 273.312 
L 394.906562 273.312 
L 394.906562 256.68 
" style="fill:#ffffff;stroke:#808080;stroke-width:0.5;"/>
   </g>
   <g id="matplotlib.axis_1">
    <g id="xtick_1">
     <g id="line2d_1">
      <defs>
       <path d="M 0 0 
L 0 3.5 
" id="m7f79b5a5e0" style="stroke:#000000;stroke-width:0.8;"/>
      </defs>
      <g>
       <use style="stroke:#000000;stroke-width:0.8;" x="153.742563" xlink:href="#m7f79b5a5e0" y="273.312"/>
      </g>
     </g>
     <g id="text_1">
      <!-- afl -->
      <g transform="translate(156.501938 292.738562)rotate(-90)scale(0.1 -0.1)">
       <defs>
        <path d="M 34.28125 27.484375 
Q 23.390625 27.484375 19.1875 25 
Q 14.984375 22.515625 14.984375 16.5 
Q 14.984375 11.71875 18.140625 8.90625 
Q 21.296875 6.109375 26.703125 6.109375 
Q 34.1875 6.109375 38.703125 11.40625 
Q 43.21875 16.703125 43.21875 25.484375 
L 43.21875 27.484375 
z
M 52.203125 31.203125 
L 52.203125 0 
L 43.21875 0 
L 43.21875 8.296875 
Q 40.140625 3.328125 35.546875 0.953125 
Q 30.953125 -1.421875 24.3125 -1.421875 
Q 15.921875 -1.421875 10.953125 3.296875 
Q 6 8.015625 6 15.921875 
Q 6 25.140625 12.171875 29.828125 
Q 18.359375 34.515625 30.609375 34.515625 
L 43.21875 34.515625 
L 43.21875 35.40625 
Q 43.21875 41.609375 39.140625 45 
Q 35.0625 48.390625 27.6875 48.390625 
Q 23 48.390625 18.546875 47.265625 
Q 14.109375 46.140625 10.015625 43.890625 
L 10.015625 52.203125 
Q 14.9375 54.109375 19.578125 55.046875 
Q 24.21875 56 28.609375 56 
Q 40.484375 56 46.34375 49.84375 
Q 52.203125 43.703125 52.203125 31.203125 
z
" id="DejaVuSans-97"/>
        <path d="M 37.109375 75.984375 
L 37.109375 68.5 
L 28.515625 68.5 
Q 23.6875 68.5 21.796875 66.546875 
Q 19.921875 64.59375 19.921875 59.515625 
L 19.921875 54.6875 
L 34.71875 54.6875 
L 34.71875 47.703125 
L 19.921875 47.703125 
L 19.921875 0 
L 10.890625 0 
L 10.890625 47.703125 
L 2.296875 47.703125 
L 2.296875 54.6875 
L 10.890625 54.6875 
L 10.890625 58.5 
Q 10.890625 67.625 15.140625 71.796875 
Q 19.390625 75.984375 28.609375 75.984375 
z
" id="DejaVuSans-102"/>
        <path d="M 9.421875 75.984375 
L 18.40625 75.984375 
L 18.40625 0 
L 9.421875 0 
z
" id="DejaVuSans-108"/>
       </defs>
       <use xlink:href="#DejaVuSans-97"/>
       <use x="61.279297" xlink:href="#DejaVuSans-102"/>
       <use x="96.484375" xlink:href="#DejaVuSans-108"/>
      </g>
     </g>
    </g>
    <g id="xtick_2">
     <g id="line2d_2">
      <g>
       <use style="stroke:#000000;stroke-width:0.8;" x="170.374563" xlink:href="#m7f79b5a5e0" y="273.312"/>
      </g>
     </g>
     <g id="text_2">
      <!-- aflfast -->
      <g transform="translate(173.133938 311.516687)rotate(-90)scale(0.1 -0.1)">
       <defs>
        <path d="M 44.28125 53.078125 
L 44.28125 44.578125 
Q 40.484375 46.53125 36.375 47.5 
Q 32.28125 48.484375 27.875 48.484375 
Q 21.1875 48.484375 17.84375 46.4375 
Q 14.5 44.390625 14.5 40.28125 
Q 14.5 37.15625 16.890625 35.375 
Q 19.28125 33.59375 26.515625 31.984375 
L 29.59375 31.296875 
Q 39.15625 29.25 43.1875 25.515625 
Q 47.21875 21.78125 47.21875 15.09375 
Q 47.21875 7.46875 41.1875 3.015625 
Q 35.15625 -1.421875 24.609375 -1.421875 
Q 20.21875 -1.421875 15.453125 -0.5625 
Q 10.6875 0.296875 5.421875 2 
L 5.421875 11.28125 
Q 10.40625 8.6875 15.234375 7.390625 
Q 20.0625 6.109375 24.8125 6.109375 
Q 31.15625 6.109375 34.5625 8.28125 
Q 37.984375 10.453125 37.984375 14.40625 
Q 37.984375 18.0625 35.515625 20.015625 
Q 33.0625 21.96875 24.703125 23.78125 
L 21.578125 24.515625 
Q 13.234375 26.265625 9.515625 29.90625 
Q 5.8125 33.546875 5.8125 39.890625 
Q 5.8125 47.609375 11.28125 51.796875 
Q 16.75 56 26.8125 56 
Q 31.78125 56 36.171875 55.265625 
Q 40.578125 54.546875 44.28125 53.078125 
z
" id="DejaVuSans-115"/>
        <path d="M 18.3125 70.21875 
L 18.3125 54.6875 
L 36.8125 54.6875 
L 36.8125 47.703125 
L 18.3125 47.703125 
L 18.3125 18.015625 
Q 18.3125 11.328125 20.140625 9.421875 
Q 21.96875 7.515625 27.59375 7.515625 
L 36.8125 7.515625 
L 36.8125 0 
L 27.59375 0 
Q 17.1875 0 13.234375 3.875 
Q 9.28125 7.765625 9.28125 18.015625 
L 9.28125 47.703125 
L 2.6875 47.703125 
L 2.6875 54.6875 
L 9.28125 54.6875 
L 9.28125 70.21875 
z
" id="DejaVuSans-116"/>
       </defs>
       <use xlink:href="#DejaVuSans-97"/>
       <use x="61.279297" xlink:href="#DejaVuSans-102"/>
       <use x="96.484375" xlink:href="#DejaVuSans-108"/>
       <use x="124.267578" xlink:href="#DejaVuSans-102"/>
       <use x="159.472656" xlink:href="#DejaVuSans-97"/>
       <use x="220.751953" xlink:href="#DejaVuSans-115"/>
       <use x="272.851562" xlink:href="#DejaVuSans-116"/>
      </g>
     </g>
    </g>
    <g id="xtick_3">
     <g id="line2d_3">
      <g>
       <use style="stroke:#000000;stroke-width:0.8;" x="187.006563" xlink:href="#m7f79b5a5e0" y="273.312"/>
      </g>
     </g>
     <g id="text_3">
      <!-- aflplusplus -->
      <g transform="translate(189.765938 334.085437)rotate(-90)scale(0.1 -0.1)">
       <defs>
        <path d="M 18.109375 8.203125 
L 18.109375 -20.796875 
L 9.078125 -20.796875 
L 9.078125 54.6875 
L 18.109375 54.6875 
L 18.109375 46.390625 
Q 20.953125 51.265625 25.265625 53.625 
Q 29.59375 56 35.59375 56 
Q 45.5625 56 51.78125 48.09375 
Q 58.015625 40.1875 58.015625 27.296875 
Q 58.015625 14.40625 51.78125 6.484375 
Q 45.5625 -1.421875 35.59375 -1.421875 
Q 29.59375 -1.421875 25.265625 0.953125 
Q 20.953125 3.328125 18.109375 8.203125 
z
M 48.6875 27.296875 
Q 48.6875 37.203125 44.609375 42.84375 
Q 40.53125 48.484375 33.40625 48.484375 
Q 26.265625 48.484375 22.1875 42.84375 
Q 18.109375 37.203125 18.109375 27.296875 
Q 18.109375 17.390625 22.1875 11.75 
Q 26.265625 6.109375 33.40625 6.109375 
Q 40.53125 6.109375 44.609375 11.75 
Q 48.6875 17.390625 48.6875 27.296875 
z
" id="DejaVuSans-112"/>
        <path d="M 8.5 21.578125 
L 8.5 54.6875 
L 17.484375 54.6875 
L 17.484375 21.921875 
Q 17.484375 14.15625 20.5 10.265625 
Q 23.53125 6.390625 29.59375 6.390625 
Q 36.859375 6.390625 41.078125 11.03125 
Q 45.3125 15.671875 45.3125 23.6875 
L 45.3125 54.6875 
L 54.296875 54.6875 
L 54.296875 0 
L 45.3125 0 
L 45.3125 8.40625 
Q 42.046875 3.421875 37.71875 1 
Q 33.40625 -1.421875 27.6875 -1.421875 
Q 18.265625 -1.421875 13.375 4.4375 
Q 8.5 10.296875 8.5 21.578125 
z
M 31.109375 56 
z
" id="DejaVuSans-117"/>
       </defs>
       <use xlink:href="#DejaVuSans-97"/>
       <use x="61.279297" xlink:href="#DejaVuSans-102"/>
       <use x="96.484375" xlink:href="#DejaVuSans-108"/>
       <use x="124.267578" xlink:href="#DejaVuSans-112"/>
       <use x="187.744141" xlink:href="#DejaVuSans-108"/>
       <use x="215.527344" xlink:href="#DejaVuSans-117"/>
       <use x="278.90625" xlink:href="#DejaVuSans-115"/>
       <use x="331.005859" xlink:href="#DejaVuSans-112"/>
       <use x="394.482422" xlink:href="#DejaVuSans-108"/>
       <use x="422.265625" xlink:href="#DejaVuSans-117"/>
       <use x="485.644531" xlink:href="#DejaVuSans-115"/>
      </g>
     </g>
    </g>
    <g id="xtick_4">
     <g id="line2d_4">
      <g>
       <use style="stroke:#000000;stroke-width:0.8;" x="203.638563" xlink:href="#m7f79b5a5e0" y="273.312"/>
      </g>
     </g>
     <g id="text_4">
      <!-- aflplusplus_optimal -->
      <g transform="translate(206.258875 376.897937)rotate(-90)scale(0.1 -0.1)">
       <defs>
        <path d="M 50.984375 -16.609375 
L 50.984375 -23.578125 
L -0.984375 -23.578125 
L -0.984375 -16.609375 
z
" id="DejaVuSans-95"/>
        <path d="M 30.609375 48.390625 
Q 23.390625 48.390625 19.1875 42.75 
Q 14.984375 37.109375 14.984375 27.296875 
Q 14.984375 17.484375 19.15625 11.84375 
Q 23.34375 6.203125 30.609375 6.203125 
Q 37.796875 6.203125 41.984375 11.859375 
Q 46.1875 17.53125 46.1875 27.296875 
Q 46.1875 37.015625 41.984375 42.703125 
Q 37.796875 48.390625 30.609375 48.390625 
z
M 30.609375 56 
Q 42.328125 56 49.015625 48.375 
Q 55.71875 40.765625 55.71875 27.296875 
Q 55.71875 13.875 49.015625 6.21875 
Q 42.328125 -1.421875 30.609375 -1.421875 
Q 18.84375 -1.421875 12.171875 6.21875 
Q 5.515625 13.875 5.515625 27.296875 
Q 5.515625 40.765625 12.171875 48.375 
Q 18.84375 56 30.609375 56 
z
" id="DejaVuSans-111"/>
        <path d="M 9.421875 54.6875 
L 18.40625 54.6875 
L 18.40625 0 
L 9.421875 0 
z
M 9.421875 75.984375 
L 18.40625 75.984375 
L 18.40625 64.59375 
L 9.421875 64.59375 
z
" id="DejaVuSans-105"/>
        <path d="M 52 44.1875 
Q 55.375 50.25 60.0625 53.125 
Q 64.75 56 71.09375 56 
Q 79.640625 56 84.28125 50.015625 
Q 88.921875 44.046875 88.921875 33.015625 
L 88.921875 0 
L 79.890625 0 
L 79.890625 32.71875 
Q 79.890625 40.578125 77.09375 44.375 
Q 74.3125 48.1875 68.609375 48.1875 
Q 61.625 48.1875 57.5625 43.546875 
Q 53.515625 38.921875 53.515625 30.90625 
L 53.515625 0 
L 44.484375 0 
L 44.484375 32.71875 
Q 44.484375 40.625 41.703125 44.40625 
Q 38.921875 48.1875 33.109375 48.1875 
Q 26.21875 48.1875 22.15625 43.53125 
Q 18.109375 38.875 18.109375 30.90625 
L 18.109375 0 
L 9.078125 0 
L 9.078125 54.6875 
L 18.109375 54.6875 
L 18.109375 46.1875 
Q 21.1875 51.21875 25.484375 53.609375 
Q 29.78125 56 35.6875 56 
Q 41.65625 56 45.828125 52.96875 
Q 50 49.953125 52 44.1875 
z
" id="DejaVuSans-109"/>
       </defs>
       <use xlink:href="#DejaVuSans-97"/>
       <use x="61.279297" xlink:href="#DejaVuSans-102"/>
       <use x="96.484375" xlink:href="#DejaVuSans-108"/>
       <use x="124.267578" xlink:href="#DejaVuSans-112"/>
       <use x="187.744141" xlink:href="#DejaVuSans-108"/>
       <use x="215.527344" xlink:href="#DejaVuSans-117"/>
       <use x="278.90625" xlink:href="#DejaVuSans-115"/>
       <use x="331.005859" xlink:href="#DejaVuSans-112"/>
       <use x="394.482422" xlink:href="#DejaVuSans-108"/>
       <use x="422.265625" xlink:href="#DejaVuSans-117"/>
       <use x="485.644531" xlink:href="#DejaVuSans-115"/>
       <use x="537.744141" xlink:href="#DejaVuSans-95"/>
       <use x="587.744141" xlink:href="#DejaVuSans-111"/>
       <use x="648.925781" xlink:href="#DejaVuSans-112"/>
       <use x="712.402344" xlink:href="#DejaVuSans-116"/>
       <use x="751.611328" xlink:href="#DejaVuSans-105"/>
       <use x="779.394531" xlink:href="#DejaVuSans-109"/>
       <use x="876.806641" xlink:href="#DejaVuSans-97"/>
       <use x="938.085938" xlink:href="#DejaVuSans-108"/>
      </g>
     </g>
    </g>
    <g id="xtick_5">
     <g id="line2d_5">
      <g>
       <use style="stroke:#000000;stroke-width:0.8;" x="220.270563" xlink:href="#m7f79b5a5e0" y="273.312"/>
      </g>
     </g>
     <g id="text_5">
      <!-- aflsmart -->
      <g transform="translate(223.029938 321.847937)rotate(-90)scale(0.1 -0.1)">
       <defs>
        <path d="M 41.109375 46.296875 
Q 39.59375 47.171875 37.8125 47.578125 
Q 36.03125 48 33.890625 48 
Q 26.265625 48 22.1875 43.046875 
Q 18.109375 38.09375 18.109375 28.8125 
L 18.109375 0 
L 9.078125 0 
L 9.078125 54.6875 
L 18.109375 54.6875 
L 18.109375 46.1875 
Q 20.953125 51.171875 25.484375 53.578125 
Q 30.03125 56 36.53125 56 
Q 37.453125 56 38.578125 55.875 
Q 39.703125 55.765625 41.0625 55.515625 
z
" id="DejaVuSans-114"/>
       </defs>
       <use xlink:href="#DejaVuSans-97"/>
       <use x="61.279297" xlink:href="#DejaVuSans-102"/>
       <use x="96.484375" xlink:href="#DejaVuSans-108"/>
       <use x="124.267578" xlink:href="#DejaVuSans-115"/>
       <use x="176.367188" xlink:href="#DejaVuSans-109"/>
       <use x="273.779297" xlink:href="#DejaVuSans-97"/>
       <use x="335.058594" xlink:href="#DejaVuSans-114"/>
       <use x="376.171875" xlink:href="#DejaVuSans-116"/>
      </g>
     </g>
    </g>
    <g id="xtick_6">
     <g id="line2d_6">
      <g>
       <use style="stroke:#000000;stroke-width:0.8;" x="236.902562" xlink:href="#m7f79b5a5e0" y="273.312"/>
      </g>
     </g>
     <g id="text_6">
      <!-- eclipser -->
      <g transform="translate(239.661937 319.341687)rotate(-90)scale(0.1 -0.1)">
       <defs>
        <path d="M 56.203125 29.59375 
L 56.203125 25.203125 
L 14.890625 25.203125 
Q 15.484375 15.921875 20.484375 11.0625 
Q 25.484375 6.203125 34.421875 6.203125 
Q 39.59375 6.203125 44.453125 7.46875 
Q 49.3125 8.734375 54.109375 11.28125 
L 54.109375 2.78125 
Q 49.265625 0.734375 44.1875 -0.34375 
Q 39.109375 -1.421875 33.890625 -1.421875 
Q 20.796875 -1.421875 13.15625 6.1875 
Q 5.515625 13.8125 5.515625 26.8125 
Q 5.515625 40.234375 12.765625 48.109375 
Q 20.015625 56 32.328125 56 
Q 43.359375 56 49.78125 48.890625 
Q 56.203125 41.796875 56.203125 29.59375 
z
M 47.21875 32.234375 
Q 47.125 39.59375 43.09375 43.984375 
Q 39.0625 48.390625 32.421875 48.390625 
Q 24.90625 48.390625 20.390625 44.140625 
Q 15.875 39.890625 15.1875 32.171875 
z
" id="DejaVuSans-101"/>
        <path d="M 48.78125 52.59375 
L 48.78125 44.1875 
Q 44.96875 46.296875 41.140625 47.34375 
Q 37.3125 48.390625 33.40625 48.390625 
Q 24.65625 48.390625 19.8125 42.84375 
Q 14.984375 37.3125 14.984375 27.296875 
Q 14.984375 17.28125 19.8125 11.734375 
Q 24.65625 6.203125 33.40625 6.203125 
Q 37.3125 6.203125 41.140625 7.25 
Q 44.96875 8.296875 48.78125 10.40625 
L 48.78125 2.09375 
Q 45.015625 0.34375 40.984375 -0.53125 
Q 36.96875 -1.421875 32.421875 -1.421875 
Q 20.0625 -1.421875 12.78125 6.34375 
Q 5.515625 14.109375 5.515625 27.296875 
Q 5.515625 40.671875 12.859375 48.328125 
Q 20.21875 56 33.015625 56 
Q 37.15625 56 41.109375 55.140625 
Q 45.0625 54.296875 48.78125 52.59375 
z
" id="DejaVuSans-99"/>
       </defs>
       <use xlink:href="#DejaVuSans-101"/>
       <use x="61.523438" xlink:href="#DejaVuSans-99"/>
       <use x="116.503906" xlink:href="#DejaVuSans-108"/>
       <use x="144.287109" xlink:href="#DejaVuSans-105"/>
       <use x="172.070312" xlink:href="#DejaVuSans-112"/>
       <use x="235.546875" xlink:href="#DejaVuSans-115"/>
       <use x="287.646484" xlink:href="#DejaVuSans-101"/>
       <use x="349.169922" xlink:href="#DejaVuSans-114"/>
      </g>
     </g>
    </g>
    <g id="xtick_7">
     <g id="line2d_7">
      <g>
       <use style="stroke:#000000;stroke-width:0.8;" x="253.534562" xlink:href="#m7f79b5a5e0" y="273.312"/>
      </g>
     </g>
     <g id="text_7">
      <!-- entropic -->
      <g transform="translate(256.293937 321.352625)rotate(-90)scale(0.1 -0.1)">
       <defs>
        <path d="M 54.890625 33.015625 
L 54.890625 0 
L 45.90625 0 
L 45.90625 32.71875 
Q 45.90625 40.484375 42.875 44.328125 
Q 39.84375 48.1875 33.796875 48.1875 
Q 26.515625 48.1875 22.3125 43.546875 
Q 18.109375 38.921875 18.109375 30.90625 
L 18.109375 0 
L 9.078125 0 
L 9.078125 54.6875 
L 18.109375 54.6875 
L 18.109375 46.1875 
Q 21.34375 51.125 25.703125 53.5625 
Q 30.078125 56 35.796875 56 
Q 45.21875 56 50.046875 50.171875 
Q 54.890625 44.34375 54.890625 33.015625 
z
" id="DejaVuSans-110"/>
       </defs>
       <use xlink:href="#DejaVuSans-101"/>
       <use x="61.523438" xlink:href="#DejaVuSans-110"/>
       <use x="124.902344" xlink:href="#DejaVuSans-116"/>
       <use x="164.111328" xlink:href="#DejaVuSans-114"/>
       <use x="202.974609" xlink:href="#DejaVuSans-111"/>
       <use x="264.15625" xlink:href="#DejaVuSans-112"/>
       <use x="327.632812" xlink:href="#DejaVuSans-105"/>
       <use x="355.416016" xlink:href="#DejaVuSans-99"/>
      </g>
     </g>
    </g>
    <g id="xtick_8">
     <g id="line2d_8">
      <g>
       <use style="stroke:#000000;stroke-width:0.8;" x="270.166562" xlink:href="#m7f79b5a5e0" y="273.312"/>
      </g>
     </g>
     <g id="text_8">
      <!-- fairfuzz -->
      <g transform="translate(272.925937 317.204187)rotate(-90)scale(0.1 -0.1)">
       <defs>
        <path d="M 5.515625 54.6875 
L 48.1875 54.6875 
L 48.1875 46.484375 
L 14.40625 7.171875 
L 48.1875 7.171875 
L 48.1875 0 
L 4.296875 0 
L 4.296875 8.203125 
L 38.09375 47.515625 
L 5.515625 47.515625 
z
" id="DejaVuSans-122"/>
       </defs>
       <use xlink:href="#DejaVuSans-102"/>
       <use x="35.205078" xlink:href="#DejaVuSans-97"/>
       <use x="96.484375" xlink:href="#DejaVuSans-105"/>
       <use x="124.267578" xlink:href="#DejaVuSans-114"/>
       <use x="165.380859" xlink:href="#DejaVuSans-102"/>
       <use x="200.585938" xlink:href="#DejaVuSans-117"/>
       <use x="263.964844" xlink:href="#DejaVuSans-122"/>
       <use x="316.455078" xlink:href="#DejaVuSans-122"/>
      </g>
     </g>
    </g>
    <g id="xtick_9">
     <g id="line2d_9">
      <g>
       <use style="stroke:#000000;stroke-width:0.8;" x="286.798563" xlink:href="#m7f79b5a5e0" y="273.312"/>
      </g>
     </g>
     <g id="text_9">
      <!-- honggfuzz -->
      <g transform="translate(289.557937 332.157312)rotate(-90)scale(0.1 -0.1)">
       <defs>
        <path d="M 54.890625 33.015625 
L 54.890625 0 
L 45.90625 0 
L 45.90625 32.71875 
Q 45.90625 40.484375 42.875 44.328125 
Q 39.84375 48.1875 33.796875 48.1875 
Q 26.515625 48.1875 22.3125 43.546875 
Q 18.109375 38.921875 18.109375 30.90625 
L 18.109375 0 
L 9.078125 0 
L 9.078125 75.984375 
L 18.109375 75.984375 
L 18.109375 46.1875 
Q 21.34375 51.125 25.703125 53.5625 
Q 30.078125 56 35.796875 56 
Q 45.21875 56 50.046875 50.171875 
Q 54.890625 44.34375 54.890625 33.015625 
z
" id="DejaVuSans-104"/>
        <path d="M 45.40625 27.984375 
Q 45.40625 37.75 41.375 43.109375 
Q 37.359375 48.484375 30.078125 48.484375 
Q 22.859375 48.484375 18.828125 43.109375 
Q 14.796875 37.75 14.796875 27.984375 
Q 14.796875 18.265625 18.828125 12.890625 
Q 22.859375 7.515625 30.078125 7.515625 
Q 37.359375 7.515625 41.375 12.890625 
Q 45.40625 18.265625 45.40625 27.984375 
z
M 54.390625 6.78125 
Q 54.390625 -7.171875 48.1875 -13.984375 
Q 42 -20.796875 29.203125 -20.796875 
Q 24.46875 -20.796875 20.265625 -20.09375 
Q 16.0625 -19.390625 12.109375 -17.921875 
L 12.109375 -9.1875 
Q 16.0625 -11.328125 19.921875 -12.34375 
Q 23.78125 -13.375 27.78125 -13.375 
Q 36.625 -13.375 41.015625 -8.765625 
Q 45.40625 -4.15625 45.40625 5.171875 
L 45.40625 9.625 
Q 42.625 4.78125 38.28125 2.390625 
Q 33.9375 0 27.875 0 
Q 17.828125 0 11.671875 7.65625 
Q 5.515625 15.328125 5.515625 27.984375 
Q 5.515625 40.671875 11.671875 48.328125 
Q 17.828125 56 27.875 56 
Q 33.9375 56 38.28125 53.609375 
Q 42.625 51.21875 45.40625 46.390625 
L 45.40625 54.6875 
L 54.390625 54.6875 
z
" id="DejaVuSans-103"/>
       </defs>
       <use xlink:href="#DejaVuSans-104"/>
       <use x="63.378906" xlink:href="#DejaVuSans-111"/>
       <use x="124.560547" xlink:href="#DejaVuSans-110"/>
       <use x="187.939453" xlink:href="#DejaVuSans-103"/>
       <use x="251.416016" xlink:href="#DejaVuSans-103"/>
       <use x="314.892578" xlink:href="#DejaVuSans-102"/>
       <use x="350.097656" xlink:href="#DejaVuSans-117"/>
       <use x="413.476562" xlink:href="#DejaVuSans-122"/>
       <use x="465.966797" xlink:href="#DejaVuSans-122"/>
      </g>
     </g>
    </g>
    <g id="xtick_10">
     <g id="line2d_10">
      <g>
       <use style="stroke:#000000;stroke-width:0.8;" x="303.430563" xlink:href="#m7f79b5a5e0" y="273.312"/>
      </g>
     </g>
     <g id="text_10">
      <!-- jigsaw_new -->
      <g transform="translate(306.050875 337.401062)rotate(-90)scale(0.1 -0.1)">
       <defs>
        <path d="M 9.421875 54.6875 
L 18.40625 54.6875 
L 18.40625 -0.984375 
Q 18.40625 -11.421875 14.421875 -16.109375 
Q 10.453125 -20.796875 1.609375 -20.796875 
L -1.8125 -20.796875 
L -1.8125 -13.1875 
L 0.59375 -13.1875 
Q 5.71875 -13.1875 7.5625 -10.8125 
Q 9.421875 -8.453125 9.421875 -0.984375 
z
M 9.421875 75.984375 
L 18.40625 75.984375 
L 18.40625 64.59375 
L 9.421875 64.59375 
z
" id="DejaVuSans-106"/>
        <path d="M 4.203125 54.6875 
L 13.1875 54.6875 
L 24.421875 12.015625 
L 35.59375 54.6875 
L 46.1875 54.6875 
L 57.421875 12.015625 
L 68.609375 54.6875 
L 77.59375 54.6875 
L 63.28125 0 
L 52.6875 0 
L 40.921875 44.828125 
L 29.109375 0 
L 18.5 0 
z
" id="DejaVuSans-119"/>
       </defs>
       <use xlink:href="#DejaVuSans-106"/>
       <use x="27.783203" xlink:href="#DejaVuSans-105"/>
       <use x="55.566406" xlink:href="#DejaVuSans-103"/>
       <use x="119.042969" xlink:href="#DejaVuSans-115"/>
       <use x="171.142578" xlink:href="#DejaVuSans-97"/>
       <use x="232.421875" xlink:href="#DejaVuSans-119"/>
       <use x="314.208984" xlink:href="#DejaVuSans-95"/>
       <use x="364.208984" xlink:href="#DejaVuSans-110"/>
       <use x="427.587891" xlink:href="#DejaVuSans-101"/>
       <use x="489.111328" xlink:href="#DejaVuSans-119"/>
      </g>
     </g>
    </g>
    <g id="xtick_11">
     <g id="line2d_11">
      <g>
       <use style="stroke:#000000;stroke-width:0.8;" x="320.062563" xlink:href="#m7f79b5a5e0" y="273.312"/>
      </g>
     </g>
     <g id="text_11">
      <!-- jigsaw_new_standalone -->
      <g transform="translate(322.682875 397.860437)rotate(-90)scale(0.1 -0.1)">
       <defs>
        <path d="M 45.40625 46.390625 
L 45.40625 75.984375 
L 54.390625 75.984375 
L 54.390625 0 
L 45.40625 0 
L 45.40625 8.203125 
Q 42.578125 3.328125 38.25 0.953125 
Q 33.9375 -1.421875 27.875 -1.421875 
Q 17.96875 -1.421875 11.734375 6.484375 
Q 5.515625 14.40625 5.515625 27.296875 
Q 5.515625 40.1875 11.734375 48.09375 
Q 17.96875 56 27.875 56 
Q 33.9375 56 38.25 53.625 
Q 42.578125 51.265625 45.40625 46.390625 
z
M 14.796875 27.296875 
Q 14.796875 17.390625 18.875 11.75 
Q 22.953125 6.109375 30.078125 6.109375 
Q 37.203125 6.109375 41.296875 11.75 
Q 45.40625 17.390625 45.40625 27.296875 
Q 45.40625 37.203125 41.296875 42.84375 
Q 37.203125 48.484375 30.078125 48.484375 
Q 22.953125 48.484375 18.875 42.84375 
Q 14.796875 37.203125 14.796875 27.296875 
z
" id="DejaVuSans-100"/>
       </defs>
       <use xlink:href="#DejaVuSans-106"/>
       <use x="27.783203" xlink:href="#DejaVuSans-105"/>
       <use x="55.566406" xlink:href="#DejaVuSans-103"/>
       <use x="119.042969" xlink:href="#DejaVuSans-115"/>
       <use x="171.142578" xlink:href="#DejaVuSans-97"/>
       <use x="232.421875" xlink:href="#DejaVuSans-119"/>
       <use x="314.208984" xlink:href="#DejaVuSans-95"/>
       <use x="364.208984" xlink:href="#DejaVuSans-110"/>
       <use x="427.587891" xlink:href="#DejaVuSans-101"/>
       <use x="489.111328" xlink:href="#DejaVuSans-119"/>
       <use x="570.898438" xlink:href="#DejaVuSans-95"/>
       <use x="620.898438" xlink:href="#DejaVuSans-115"/>
       <use x="672.998047" xlink:href="#DejaVuSans-116"/>
       <use x="712.207031" xlink:href="#DejaVuSans-97"/>
       <use x="773.486328" xlink:href="#DejaVuSans-110"/>
       <use x="836.865234" xlink:href="#DejaVuSans-100"/>
       <use x="900.341797" xlink:href="#DejaVuSans-97"/>
       <use x="961.621094" xlink:href="#DejaVuSans-108"/>
       <use x="989.404297" xlink:href="#DejaVuSans-111"/>
       <use x="1050.585938" xlink:href="#DejaVuSans-110"/>
       <use x="1113.964844" xlink:href="#DejaVuSans-101"/>
      </g>
     </g>
    </g>
    <g id="xtick_12">
     <g id="line2d_12">
      <g>
       <use style="stroke:#000000;stroke-width:0.8;" x="336.694562" xlink:href="#m7f79b5a5e0" y="273.312"/>
      </g>
     </g>
     <g id="text_12">
      <!-- lafintel -->
      <g transform="translate(339.453937 314.70575)rotate(-90)scale(0.1 -0.1)">
       <use xlink:href="#DejaVuSans-108"/>
       <use x="27.783203" xlink:href="#DejaVuSans-97"/>
       <use x="89.0625" xlink:href="#DejaVuSans-102"/>
       <use x="124.267578" xlink:href="#DejaVuSans-105"/>
       <use x="152.050781" xlink:href="#DejaVuSans-110"/>
       <use x="215.429688" xlink:href="#DejaVuSans-116"/>
       <use x="254.638672" xlink:href="#DejaVuSans-101"/>
       <use x="316.162109" xlink:href="#DejaVuSans-108"/>
      </g>
     </g>
    </g>
    <g id="xtick_13">
     <g id="line2d_13">
      <g>
       <use style="stroke:#000000;stroke-width:0.8;" x="353.326563" xlink:href="#m7f79b5a5e0" y="273.312"/>
      </g>
     </g>
     <g id="text_13">
      <!-- libfuzzer -->
      <g transform="translate(356.085938 322.835437)rotate(-90)scale(0.1 -0.1)">
       <defs>
        <path d="M 48.6875 27.296875 
Q 48.6875 37.203125 44.609375 42.84375 
Q 40.53125 48.484375 33.40625 48.484375 
Q 26.265625 48.484375 22.1875 42.84375 
Q 18.109375 37.203125 18.109375 27.296875 
Q 18.109375 17.390625 22.1875 11.75 
Q 26.265625 6.109375 33.40625 6.109375 
Q 40.53125 6.109375 44.609375 11.75 
Q 48.6875 17.390625 48.6875 27.296875 
z
M 18.109375 46.390625 
Q 20.953125 51.265625 25.265625 53.625 
Q 29.59375 56 35.59375 56 
Q 45.5625 56 51.78125 48.09375 
Q 58.015625 40.1875 58.015625 27.296875 
Q 58.015625 14.40625 51.78125 6.484375 
Q 45.5625 -1.421875 35.59375 -1.421875 
Q 29.59375 -1.421875 25.265625 0.953125 
Q 20.953125 3.328125 18.109375 8.203125 
L 18.109375 0 
L 9.078125 0 
L 9.078125 75.984375 
L 18.109375 75.984375 
z
" id="DejaVuSans-98"/>
       </defs>
       <use xlink:href="#DejaVuSans-108"/>
       <use x="27.783203" xlink:href="#DejaVuSans-105"/>
       <use x="55.566406" xlink:href="#DejaVuSans-98"/>
       <use x="119.042969" xlink:href="#DejaVuSans-102"/>
       <use x="154.248047" xlink:href="#DejaVuSans-117"/>
       <use x="217.626953" xlink:href="#DejaVuSans-122"/>
       <use x="270.117188" xlink:href="#DejaVuSans-122"/>
       <use x="322.607422" xlink:href="#DejaVuSans-101"/>
       <use x="384.130859" xlink:href="#DejaVuSans-114"/>
      </g>
     </g>
    </g>
    <g id="xtick_14">
     <g id="line2d_14">
      <g>
       <use style="stroke:#000000;stroke-width:0.8;" x="369.958562" xlink:href="#m7f79b5a5e0" y="273.312"/>
      </g>
     </g>
     <g id="text_14">
      <!-- mopt -->
      <g transform="translate(372.717937 306.440125)rotate(-90)scale(0.1 -0.1)">
       <use xlink:href="#DejaVuSans-109"/>
       <use x="97.412109" xlink:href="#DejaVuSans-111"/>
       <use x="158.59375" xlink:href="#DejaVuSans-112"/>
       <use x="222.070312" xlink:href="#DejaVuSans-116"/>
      </g>
     </g>
    </g>
    <g id="xtick_15">
     <g id="line2d_15">
      <g>
       <use style="stroke:#000000;stroke-width:0.8;" x="386.590562" xlink:href="#m7f79b5a5e0" y="273.312"/>
      </g>
     </g>
     <g id="text_15">
      <!-- z3_new -->
      <g transform="translate(389.122594 317.591687)rotate(-90)scale(0.1 -0.1)">
       <defs>
        <path d="M 40.578125 39.3125 
Q 47.65625 37.796875 51.625 33 
Q 55.609375 28.21875 55.609375 21.1875 
Q 55.609375 10.40625 48.1875 4.484375 
Q 40.765625 -1.421875 27.09375 -1.421875 
Q 22.515625 -1.421875 17.65625 -0.515625 
Q 12.796875 0.390625 7.625 2.203125 
L 7.625 11.71875 
Q 11.71875 9.328125 16.59375 8.109375 
Q 21.484375 6.890625 26.8125 6.890625 
Q 36.078125 6.890625 40.9375 10.546875 
Q 45.796875 14.203125 45.796875 21.1875 
Q 45.796875 27.640625 41.28125 31.265625 
Q 36.765625 34.90625 28.71875 34.90625 
L 20.21875 34.90625 
L 20.21875 43.015625 
L 29.109375 43.015625 
Q 36.375 43.015625 40.234375 45.921875 
Q 44.09375 48.828125 44.09375 54.296875 
Q 44.09375 59.90625 40.109375 62.90625 
Q 36.140625 65.921875 28.71875 65.921875 
Q 24.65625 65.921875 20.015625 65.03125 
Q 15.375 64.15625 9.8125 62.3125 
L 9.8125 71.09375 
Q 15.4375 72.65625 20.34375 73.4375 
Q 25.25 74.21875 29.59375 74.21875 
Q 40.828125 74.21875 47.359375 69.109375 
Q 53.90625 64.015625 53.90625 55.328125 
Q 53.90625 49.265625 50.4375 45.09375 
Q 46.96875 40.921875 40.578125 39.3125 
z
" id="DejaVuSans-51"/>
       </defs>
       <use xlink:href="#DejaVuSans-122"/>
       <use x="52.490234" xlink:href="#DejaVuSans-51"/>
       <use x="116.113281" xlink:href="#DejaVuSans-95"/>
       <use x="166.113281" xlink:href="#DejaVuSans-110"/>
       <use x="229.492188" xlink:href="#DejaVuSans-101"/>
       <use x="291.015625" xlink:href="#DejaVuSans-119"/>
      </g>
     </g>
    </g>
    <g id="xtick_16">
     <g id="line2d_16">
      <g>
       <use style="stroke:#000000;stroke-width:0.8;" x="403.222562" xlink:href="#m7f79b5a5e0" y="273.312"/>
      </g>
     </g>
     <g id="text_16">
      <!-- z3_new_standalone -->
      <g transform="translate(405.842875 378.051062)rotate(-90)scale(0.1 -0.1)">
       <use xlink:href="#DejaVuSans-122"/>
       <use x="52.490234" xlink:href="#DejaVuSans-51"/>
       <use x="116.113281" xlink:href="#DejaVuSans-95"/>
       <use x="166.113281" xlink:href="#DejaVuSans-110"/>
       <use x="229.492188" xlink:href="#DejaVuSans-101"/>
       <use x="291.015625" xlink:href="#DejaVuSans-119"/>
       <use x="372.802734" xlink:href="#DejaVuSans-95"/>
       <use x="422.802734" xlink:href="#DejaVuSans-115"/>
       <use x="474.902344" xlink:href="#DejaVuSans-116"/>
       <use x="514.111328" xlink:href="#DejaVuSans-97"/>
       <use x="575.390625" xlink:href="#DejaVuSans-110"/>
       <use x="638.769531" xlink:href="#DejaVuSans-100"/>
       <use x="702.246094" xlink:href="#DejaVuSans-97"/>
       <use x="763.525391" xlink:href="#DejaVuSans-108"/>
       <use x="791.308594" xlink:href="#DejaVuSans-111"/>
       <use x="852.490234" xlink:href="#DejaVuSans-110"/>
       <use x="915.869141" xlink:href="#DejaVuSans-101"/>
      </g>
     </g>
    </g>
    <g id="text_17">
     <!-- fuzzer -->
     <g transform="translate(263.173187 409.458875)scale(0.1 -0.1)">
      <use xlink:href="#DejaVuSans-102"/>
      <use x="35.205078" xlink:href="#DejaVuSans-117"/>
      <use x="98.583984" xlink:href="#DejaVuSans-122"/>
      <use x="151.074219" xlink:href="#DejaVuSans-122"/>
      <use x="203.564453" xlink:href="#DejaVuSans-101"/>
      <use x="265.087891" xlink:href="#DejaVuSans-114"/>
     </g>
    </g>
   </g>
   <g id="matplotlib.axis_2">
    <g id="ytick_1">
     <g id="line2d_17">
      <defs>
       <path d="M 0 0 
L -3.5 0 
" id="m260cc511db" style="stroke:#000000;stroke-width:0.8;"/>
      </defs>
      <g>
       <use style="stroke:#000000;stroke-width:0.8;" x="145.426563" xlink:href="#m260cc511db" y="15.516"/>
      </g>
     </g>
     <g id="text_18">
      <!-- afl -->
      <g transform="translate(126 19.315219)scale(0.1 -0.1)">
       <use xlink:href="#DejaVuSans-97"/>
       <use x="61.279297" xlink:href="#DejaVuSans-102"/>
       <use x="96.484375" xlink:href="#DejaVuSans-108"/>
      </g>
     </g>
    </g>
    <g id="ytick_2">
     <g id="line2d_18">
      <g>
       <use style="stroke:#000000;stroke-width:0.8;" x="145.426563" xlink:href="#m260cc511db" y="32.148"/>
      </g>
     </g>
     <g id="text_19">
      <!-- aflfast -->
      <g transform="translate(107.221875 35.947219)scale(0.1 -0.1)">
       <use xlink:href="#DejaVuSans-97"/>
       <use x="61.279297" xlink:href="#DejaVuSans-102"/>
       <use x="96.484375" xlink:href="#DejaVuSans-108"/>
       <use x="124.267578" xlink:href="#DejaVuSans-102"/>
       <use x="159.472656" xlink:href="#DejaVuSans-97"/>
       <use x="220.751953" xlink:href="#DejaVuSans-115"/>
       <use x="272.851562" xlink:href="#DejaVuSans-116"/>
      </g>
     </g>
    </g>
    <g id="ytick_3">
     <g id="line2d_19">
      <g>
       <use style="stroke:#000000;stroke-width:0.8;" x="145.426563" xlink:href="#m260cc511db" y="48.78"/>
      </g>
     </g>
     <g id="text_20">
      <!-- aflplusplus -->
      <g transform="translate(84.653125 52.579219)scale(0.1 -0.1)">
       <use xlink:href="#DejaVuSans-97"/>
       <use x="61.279297" xlink:href="#DejaVuSans-102"/>
       <use x="96.484375" xlink:href="#DejaVuSans-108"/>
       <use x="124.267578" xlink:href="#DejaVuSans-112"/>
       <use x="187.744141" xlink:href="#DejaVuSans-108"/>
       <use x="215.527344" xlink:href="#DejaVuSans-117"/>
       <use x="278.90625" xlink:href="#DejaVuSans-115"/>
       <use x="331.005859" xlink:href="#DejaVuSans-112"/>
       <use x="394.482422" xlink:href="#DejaVuSans-108"/>
       <use x="422.265625" xlink:href="#DejaVuSans-117"/>
       <use x="485.644531" xlink:href="#DejaVuSans-115"/>
      </g>
     </g>
    </g>
    <g id="ytick_4">
     <g id="line2d_20">
      <g>
       <use style="stroke:#000000;stroke-width:0.8;" x="145.426563" xlink:href="#m260cc511db" y="65.412"/>
      </g>
     </g>
     <g id="text_21">
      <!-- aflplusplus_optimal -->
      <g transform="translate(41.840625 69.211219)scale(0.1 -0.1)">
       <use xlink:href="#DejaVuSans-97"/>
       <use x="61.279297" xlink:href="#DejaVuSans-102"/>
       <use x="96.484375" xlink:href="#DejaVuSans-108"/>
       <use x="124.267578" xlink:href="#DejaVuSans-112"/>
       <use x="187.744141" xlink:href="#DejaVuSans-108"/>
       <use x="215.527344" xlink:href="#DejaVuSans-117"/>
       <use x="278.90625" xlink:href="#DejaVuSans-115"/>
       <use x="331.005859" xlink:href="#DejaVuSans-112"/>
       <use x="394.482422" xlink:href="#DejaVuSans-108"/>
       <use x="422.265625" xlink:href="#DejaVuSans-117"/>
       <use x="485.644531" xlink:href="#DejaVuSans-115"/>
       <use x="537.744141" xlink:href="#DejaVuSans-95"/>
       <use x="587.744141" xlink:href="#DejaVuSans-111"/>
       <use x="648.925781" xlink:href="#DejaVuSans-112"/>
       <use x="712.402344" xlink:href="#DejaVuSans-116"/>
       <use x="751.611328" xlink:href="#DejaVuSans-105"/>
       <use x="779.394531" xlink:href="#DejaVuSans-109"/>
       <use x="876.806641" xlink:href="#DejaVuSans-97"/>
       <use x="938.085938" xlink:href="#DejaVuSans-108"/>
      </g>
     </g>
    </g>
    <g id="ytick_5">
     <g id="line2d_21">
      <g>
       <use style="stroke:#000000;stroke-width:0.8;" x="145.426563" xlink:href="#m260cc511db" y="82.044"/>
      </g>
     </g>
     <g id="text_22">
      <!-- aflsmart -->
      <g transform="translate(96.890625 85.843219)scale(0.1 -0.1)">
       <use xlink:href="#DejaVuSans-97"/>
       <use x="61.279297" xlink:href="#DejaVuSans-102"/>
       <use x="96.484375" xlink:href="#DejaVuSans-108"/>
       <use x="124.267578" xlink:href="#DejaVuSans-115"/>
       <use x="176.367188" xlink:href="#DejaVuSans-109"/>
       <use x="273.779297" xlink:href="#DejaVuSans-97"/>
       <use x="335.058594" xlink:href="#DejaVuSans-114"/>
       <use x="376.171875" xlink:href="#DejaVuSans-116"/>
      </g>
     </g>
    </g>
    <g id="ytick_6">
     <g id="line2d_22">
      <g>
       <use style="stroke:#000000;stroke-width:0.8;" x="145.426563" xlink:href="#m260cc511db" y="98.676"/>
      </g>
     </g>
     <g id="text_23">
      <!-- eclipser -->
      <g transform="translate(99.396875 102.475219)scale(0.1 -0.1)">
       <use xlink:href="#DejaVuSans-101"/>
       <use x="61.523438" xlink:href="#DejaVuSans-99"/>
       <use x="116.503906" xlink:href="#DejaVuSans-108"/>
       <use x="144.287109" xlink:href="#DejaVuSans-105"/>
       <use x="172.070312" xlink:href="#DejaVuSans-112"/>
       <use x="235.546875" xlink:href="#DejaVuSans-115"/>
       <use x="287.646484" xlink:href="#DejaVuSans-101"/>
       <use x="349.169922" xlink:href="#DejaVuSans-114"/>
      </g>
     </g>
    </g>
    <g id="ytick_7">
     <g id="line2d_23">
      <g>
       <use style="stroke:#000000;stroke-width:0.8;" x="145.426563" xlink:href="#m260cc511db" y="115.308"/>
      </g>
     </g>
     <g id="text_24">
      <!-- entropic -->
      <g transform="translate(97.385938 119.107219)scale(0.1 -0.1)">
       <use xlink:href="#DejaVuSans-101"/>
       <use x="61.523438" xlink:href="#DejaVuSans-110"/>
       <use x="124.902344" xlink:href="#DejaVuSans-116"/>
       <use x="164.111328" xlink:href="#DejaVuSans-114"/>
       <use x="202.974609" xlink:href="#DejaVuSans-111"/>
       <use x="264.15625" xlink:href="#DejaVuSans-112"/>
       <use x="327.632812" xlink:href="#DejaVuSans-105"/>
       <use x="355.416016" xlink:href="#DejaVuSans-99"/>
      </g>
     </g>
    </g>
    <g id="ytick_8">
     <g id="line2d_24">
      <g>
       <use style="stroke:#000000;stroke-width:0.8;" x="145.426563" xlink:href="#m260cc511db" y="131.94"/>
      </g>
     </g>
     <g id="text_25">
      <!-- fairfuzz -->
      <g transform="translate(101.534375 135.739219)scale(0.1 -0.1)">
       <use xlink:href="#DejaVuSans-102"/>
       <use x="35.205078" xlink:href="#DejaVuSans-97"/>
       <use x="96.484375" xlink:href="#DejaVuSans-105"/>
       <use x="124.267578" xlink:href="#DejaVuSans-114"/>
       <use x="165.380859" xlink:href="#DejaVuSans-102"/>
       <use x="200.585938" xlink:href="#DejaVuSans-117"/>
       <use x="263.964844" xlink:href="#DejaVuSans-122"/>
       <use x="316.455078" xlink:href="#DejaVuSans-122"/>
      </g>
     </g>
    </g>
    <g id="ytick_9">
     <g id="line2d_25">
      <g>
       <use style="stroke:#000000;stroke-width:0.8;" x="145.426563" xlink:href="#m260cc511db" y="148.572"/>
      </g>
     </g>
     <g id="text_26">
      <!-- honggfuzz -->
      <g transform="translate(86.58125 152.371219)scale(0.1 -0.1)">
       <use xlink:href="#DejaVuSans-104"/>
       <use x="63.378906" xlink:href="#DejaVuSans-111"/>
       <use x="124.560547" xlink:href="#DejaVuSans-110"/>
       <use x="187.939453" xlink:href="#DejaVuSans-103"/>
       <use x="251.416016" xlink:href="#DejaVuSans-103"/>
       <use x="314.892578" xlink:href="#DejaVuSans-102"/>
       <use x="350.097656" xlink:href="#DejaVuSans-117"/>
       <use x="413.476562" xlink:href="#DejaVuSans-122"/>
       <use x="465.966797" xlink:href="#DejaVuSans-122"/>
      </g>
     </g>
    </g>
    <g id="ytick_10">
     <g id="line2d_26">
      <g>
       <use style="stroke:#000000;stroke-width:0.8;" x="145.426563" xlink:href="#m260cc511db" y="165.204"/>
      </g>
     </g>
     <g id="text_27">
      <!-- jigsaw_new -->
      <g transform="translate(81.3375 169.003219)scale(0.1 -0.1)">
       <use xlink:href="#DejaVuSans-106"/>
       <use x="27.783203" xlink:href="#DejaVuSans-105"/>
       <use x="55.566406" xlink:href="#DejaVuSans-103"/>
       <use x="119.042969" xlink:href="#DejaVuSans-115"/>
       <use x="171.142578" xlink:href="#DejaVuSans-97"/>
       <use x="232.421875" xlink:href="#DejaVuSans-119"/>
       <use x="314.208984" xlink:href="#DejaVuSans-95"/>
       <use x="364.208984" xlink:href="#DejaVuSans-110"/>
       <use x="427.587891" xlink:href="#DejaVuSans-101"/>
       <use x="489.111328" xlink:href="#DejaVuSans-119"/>
      </g>
     </g>
    </g>
    <g id="ytick_11">
     <g id="line2d_27">
      <g>
       <use style="stroke:#000000;stroke-width:0.8;" x="145.426563" xlink:href="#m260cc511db" y="181.836"/>
      </g>
     </g>
     <g id="text_28">
      <!-- jigsaw_new_standalone -->
      <g transform="translate(20.878125 185.635219)scale(0.1 -0.1)">
       <use xlink:href="#DejaVuSans-106"/>
       <use x="27.783203" xlink:href="#DejaVuSans-105"/>
       <use x="55.566406" xlink:href="#DejaVuSans-103"/>
       <use x="119.042969" xlink:href="#DejaVuSans-115"/>
       <use x="171.142578" xlink:href="#DejaVuSans-97"/>
       <use x="232.421875" xlink:href="#DejaVuSans-119"/>
       <use x="314.208984" xlink:href="#DejaVuSans-95"/>
       <use x="364.208984" xlink:href="#DejaVuSans-110"/>
       <use x="427.587891" xlink:href="#DejaVuSans-101"/>
       <use x="489.111328" xlink:href="#DejaVuSans-119"/>
       <use x="570.898438" xlink:href="#DejaVuSans-95"/>
       <use x="620.898438" xlink:href="#DejaVuSans-115"/>
       <use x="672.998047" xlink:href="#DejaVuSans-116"/>
       <use x="712.207031" xlink:href="#DejaVuSans-97"/>
       <use x="773.486328" xlink:href="#DejaVuSans-110"/>
       <use x="836.865234" xlink:href="#DejaVuSans-100"/>
       <use x="900.341797" xlink:href="#DejaVuSans-97"/>
       <use x="961.621094" xlink:href="#DejaVuSans-108"/>
       <use x="989.404297" xlink:href="#DejaVuSans-111"/>
       <use x="1050.585938" xlink:href="#DejaVuSans-110"/>
       <use x="1113.964844" xlink:href="#DejaVuSans-101"/>
      </g>
     </g>
    </g>
    <g id="ytick_12">
     <g id="line2d_28">
      <g>
       <use style="stroke:#000000;stroke-width:0.8;" x="145.426563" xlink:href="#m260cc511db" y="198.468"/>
      </g>
     </g>
     <g id="text_29">
      <!-- lafintel -->
      <g transform="translate(104.032813 202.267219)scale(0.1 -0.1)">
       <use xlink:href="#DejaVuSans-108"/>
       <use x="27.783203" xlink:href="#DejaVuSans-97"/>
       <use x="89.0625" xlink:href="#DejaVuSans-102"/>
       <use x="124.267578" xlink:href="#DejaVuSans-105"/>
       <use x="152.050781" xlink:href="#DejaVuSans-110"/>
       <use x="215.429688" xlink:href="#DejaVuSans-116"/>
       <use x="254.638672" xlink:href="#DejaVuSans-101"/>
       <use x="316.162109" xlink:href="#DejaVuSans-108"/>
      </g>
     </g>
    </g>
    <g id="ytick_13">
     <g id="line2d_29">
      <g>
       <use style="stroke:#000000;stroke-width:0.8;" x="145.426563" xlink:href="#m260cc511db" y="215.1"/>
      </g>
     </g>
     <g id="text_30">
      <!-- libfuzzer -->
      <g transform="translate(95.903125 218.899219)scale(0.1 -0.1)">
       <use xlink:href="#DejaVuSans-108"/>
       <use x="27.783203" xlink:href="#DejaVuSans-105"/>
       <use x="55.566406" xlink:href="#DejaVuSans-98"/>
       <use x="119.042969" xlink:href="#DejaVuSans-102"/>
       <use x="154.248047" xlink:href="#DejaVuSans-117"/>
       <use x="217.626953" xlink:href="#DejaVuSans-122"/>
       <use x="270.117188" xlink:href="#DejaVuSans-122"/>
       <use x="322.607422" xlink:href="#DejaVuSans-101"/>
       <use x="384.130859" xlink:href="#DejaVuSans-114"/>
      </g>
     </g>
    </g>
    <g id="ytick_14">
     <g id="line2d_30">
      <g>
       <use style="stroke:#000000;stroke-width:0.8;" x="145.426563" xlink:href="#m260cc511db" y="231.732"/>
      </g>
     </g>
     <g id="text_31">
      <!-- mopt -->
      <g transform="translate(112.298438 235.531219)scale(0.1 -0.1)">
       <use xlink:href="#DejaVuSans-109"/>
       <use x="97.412109" xlink:href="#DejaVuSans-111"/>
       <use x="158.59375" xlink:href="#DejaVuSans-112"/>
       <use x="222.070312" xlink:href="#DejaVuSans-116"/>
      </g>
     </g>
    </g>
    <g id="ytick_15">
     <g id="line2d_31">
      <g>
       <use style="stroke:#000000;stroke-width:0.8;" x="145.426563" xlink:href="#m260cc511db" y="248.364"/>
      </g>
     </g>
     <g id="text_32">
      <!-- z3_new -->
      <g transform="translate(101.146875 252.074937)scale(0.1 -0.1)">
       <use xlink:href="#DejaVuSans-122"/>
       <use x="52.490234" xlink:href="#DejaVuSans-51"/>
       <use x="116.113281" xlink:href="#DejaVuSans-95"/>
       <use x="166.113281" xlink:href="#DejaVuSans-110"/>
       <use x="229.492188" xlink:href="#DejaVuSans-101"/>
       <use x="291.015625" xlink:href="#DejaVuSans-119"/>
      </g>
     </g>
    </g>
    <g id="ytick_16">
     <g id="line2d_32">
      <g>
       <use style="stroke:#000000;stroke-width:0.8;" x="145.426563" xlink:href="#m260cc511db" y="264.996"/>
      </g>
     </g>
     <g id="text_33">
      <!-- z3_new_standalone -->
      <g transform="translate(40.6875 268.795219)scale(0.1 -0.1)">
       <use xlink:href="#DejaVuSans-122"/>
       <use x="52.490234" xlink:href="#DejaVuSans-51"/>
       <use x="116.113281" xlink:href="#DejaVuSans-95"/>
       <use x="166.113281" xlink:href="#DejaVuSans-110"/>
       <use x="229.492188" xlink:href="#DejaVuSans-101"/>
       <use x="291.015625" xlink:href="#DejaVuSans-119"/>
       <use x="372.802734" xlink:href="#DejaVuSans-95"/>
       <use x="422.802734" xlink:href="#DejaVuSans-115"/>
       <use x="474.902344" xlink:href="#DejaVuSans-116"/>
       <use x="514.111328" xlink:href="#DejaVuSans-97"/>
       <use x="575.390625" xlink:href="#DejaVuSans-110"/>
       <use x="638.769531" xlink:href="#DejaVuSans-100"/>
       <use x="702.246094" xlink:href="#DejaVuSans-97"/>
       <use x="763.525391" xlink:href="#DejaVuSans-108"/>
       <use x="791.308594" xlink:href="#DejaVuSans-111"/>
       <use x="852.490234" xlink:href="#DejaVuSans-110"/>
       <use x="915.869141" xlink:href="#DejaVuSans-101"/>
      </g>
     </g>
    </g>
    <g id="text_34">
     <!-- fuzzer -->
     <g transform="translate(14.798438 155.565375)rotate(-90)scale(0.1 -0.1)">
      <use xlink:href="#DejaVuSans-102"/>
      <use x="35.205078" xlink:href="#DejaVuSans-117"/>
      <use x="98.583984" xlink:href="#DejaVuSans-122"/>
      <use x="151.074219" xlink:href="#DejaVuSans-122"/>
      <use x="203.564453" xlink:href="#DejaVuSans-101"/>
      <use x="265.087891" xlink:href="#DejaVuSans-114"/>
     </g>
    </g>
   </g>
  </g>
  <g id="axes_2">
   <g id="patch_3">
    <path clip-path="url(#p5d9b09736f)" d="M 434.002563 190.368 
L 434.002563 164.448 
L 434.002563 112.608 
L 434.002563 86.688 
L 452.434563 86.688 
L 452.434563 112.608 
L 452.434563 164.448 
L 452.434563 190.368 
z
" style="fill:#ffffff;stroke:#ffffff;stroke-linejoin:miter;stroke-width:0.01;"/>
   </g>
   <g id="QuadMesh_2">
    <path clip-path="url(#p5d9b09736f)" d="M 434.002563 190.368 
L 452.434563 190.368 
L 452.434563 164.448 
L 434.002563 164.448 
L 434.002563 190.368 
" style="fill:#005a32;"/>
    <path clip-path="url(#p5d9b09736f)" d="M 434.002563 164.448 
L 452.434563 164.448 
L 452.434563 138.528 
L 434.002563 138.528 
L 434.002563 164.448 
" style="fill:#238b45;"/>
    <path clip-path="url(#p5d9b09736f)" d="M 434.002563 138.528 
L 452.434563 138.528 
L 452.434563 112.608 
L 434.002563 112.608 
L 434.002563 138.528 
" style="fill:#a1d99b;"/>
    <path clip-path="url(#p5d9b09736f)" d="M 434.002563 112.608 
L 452.434563 112.608 
L 452.434563 86.688 
L 434.002563 86.688 
L 434.002563 112.608 
" style="fill:#fbd7d4;"/>
   </g>
   <g id="matplotlib.axis_3"/>
   <g id="matplotlib.axis_4">
    <g id="ytick_17">
     <g id="line2d_33"/>
     <g id="text_35">
      <!-- p &lt; 0.001 -->
      <g transform="translate(455.934563 181.207219)scale(0.1 -0.1)">
       <defs>
        <path id="DejaVuSans-32"/>
        <path d="M 73.1875 49.21875 
L 22.796875 31.296875 
L 73.1875 13.484375 
L 73.1875 4.59375 
L 10.59375 27.296875 
L 10.59375 35.40625 
L 73.1875 58.109375 
z
" id="DejaVuSans-60"/>
        <path d="M 31.78125 66.40625 
Q 24.171875 66.40625 20.328125 58.90625 
Q 16.5 51.421875 16.5 36.375 
Q 16.5 21.390625 20.328125 13.890625 
Q 24.171875 6.390625 31.78125 6.390625 
Q 39.453125 6.390625 43.28125 13.890625 
Q 47.125 21.390625 47.125 36.375 
Q 47.125 51.421875 43.28125 58.90625 
Q 39.453125 66.40625 31.78125 66.40625 
z
M 31.78125 74.21875 
Q 44.046875 74.21875 50.515625 64.515625 
Q 56.984375 54.828125 56.984375 36.375 
Q 56.984375 17.96875 50.515625 8.265625 
Q 44.046875 -1.421875 31.78125 -1.421875 
Q 19.53125 -1.421875 13.0625 8.265625 
Q 6.59375 17.96875 6.59375 36.375 
Q 6.59375 54.828125 13.0625 64.515625 
Q 19.53125 74.21875 31.78125 74.21875 
z
" id="DejaVuSans-48"/>
        <path d="M 10.6875 12.40625 
L 21 12.40625 
L 21 0 
L 10.6875 0 
z
" id="DejaVuSans-46"/>
        <path d="M 12.40625 8.296875 
L 28.515625 8.296875 
L 28.515625 63.921875 
L 10.984375 60.40625 
L 10.984375 69.390625 
L 28.421875 72.90625 
L 38.28125 72.90625 
L 38.28125 8.296875 
L 54.390625 8.296875 
L 54.390625 0 
L 12.40625 0 
z
" id="DejaVuSans-49"/>
       </defs>
       <use xlink:href="#DejaVuSans-112"/>
       <use x="63.476562" xlink:href="#DejaVuSans-32"/>
       <use x="95.263672" xlink:href="#DejaVuSans-60"/>
       <use x="179.052734" xlink:href="#DejaVuSans-32"/>
       <use x="210.839844" xlink:href="#DejaVuSans-48"/>
       <use x="274.462891" xlink:href="#DejaVuSans-46"/>
       <use x="306.25" xlink:href="#DejaVuSans-48"/>
       <use x="369.873047" xlink:href="#DejaVuSans-48"/>
       <use x="433.496094" xlink:href="#DejaVuSans-49"/>
      </g>
     </g>
    </g>
    <g id="ytick_18">
     <g id="line2d_34"/>
     <g id="text_36">
      <!-- p &lt; 0.01 -->
      <g transform="translate(455.934563 155.287219)scale(0.1 -0.1)">
       <use xlink:href="#DejaVuSans-112"/>
       <use x="63.476562" xlink:href="#DejaVuSans-32"/>
       <use x="95.263672" xlink:href="#DejaVuSans-60"/>
       <use x="179.052734" xlink:href="#DejaVuSans-32"/>
       <use x="210.839844" xlink:href="#DejaVuSans-48"/>
       <use x="274.462891" xlink:href="#DejaVuSans-46"/>
       <use x="306.25" xlink:href="#DejaVuSans-48"/>
       <use x="369.873047" xlink:href="#DejaVuSans-49"/>
      </g>
     </g>
    </g>
    <g id="ytick_19">
     <g id="line2d_35"/>
     <g id="text_37">
      <!-- p &lt; 0.05 -->
      <g transform="translate(455.934563 129.367219)scale(0.1 -0.1)">
       <defs>
        <path d="M 10.796875 72.90625 
L 49.515625 72.90625 
L 49.515625 64.59375 
L 19.828125 64.59375 
L 19.828125 46.734375 
Q 21.96875 47.46875 24.109375 47.828125 
Q 26.265625 48.1875 28.421875 48.1875 
Q 40.625 48.1875 47.75 41.5 
Q 54.890625 34.8125 54.890625 23.390625 
Q 54.890625 11.625 47.5625 5.09375 
Q 40.234375 -1.421875 26.90625 -1.421875 
Q 22.3125 -1.421875 17.546875 -0.640625 
Q 12.796875 0.140625 7.71875 1.703125 
L 7.71875 11.625 
Q 12.109375 9.234375 16.796875 8.0625 
Q 21.484375 6.890625 26.703125 6.890625 
Q 35.15625 6.890625 40.078125 11.328125 
Q 45.015625 15.765625 45.015625 23.390625 
Q 45.015625 31 40.078125 35.4375 
Q 35.15625 39.890625 26.703125 39.890625 
Q 22.75 39.890625 18.8125 39.015625 
Q 14.890625 38.140625 10.796875 36.28125 
z
" id="DejaVuSans-53"/>
       </defs>
       <use xlink:href="#DejaVuSans-112"/>
       <use x="63.476562" xlink:href="#DejaVuSans-32"/>
       <use x="95.263672" xlink:href="#DejaVuSans-60"/>
       <use x="179.052734" xlink:href="#DejaVuSans-32"/>
       <use x="210.839844" xlink:href="#DejaVuSans-48"/>
       <use x="274.462891" xlink:href="#DejaVuSans-46"/>
       <use x="306.25" xlink:href="#DejaVuSans-48"/>
       <use x="369.873047" xlink:href="#DejaVuSans-53"/>
      </g>
     </g>
    </g>
    <g id="ytick_20">
     <g id="line2d_36"/>
     <g id="text_38">
      <!-- NS -->
      <g transform="translate(455.934563 103.447219)scale(0.1 -0.1)">
       <defs>
        <path d="M 9.8125 72.90625 
L 23.09375 72.90625 
L 55.421875 11.921875 
L 55.421875 72.90625 
L 64.984375 72.90625 
L 64.984375 0 
L 51.703125 0 
L 19.390625 60.984375 
L 19.390625 0 
L 9.8125 0 
z
" id="DejaVuSans-78"/>
        <path d="M 53.515625 70.515625 
L 53.515625 60.890625 
Q 47.90625 63.578125 42.921875 64.890625 
Q 37.9375 66.21875 33.296875 66.21875 
Q 25.25 66.21875 20.875 63.09375 
Q 16.5 59.96875 16.5 54.203125 
Q 16.5 49.359375 19.40625 46.890625 
Q 22.3125 44.4375 30.421875 42.921875 
L 36.375 41.703125 
Q 47.40625 39.59375 52.65625 34.296875 
Q 57.90625 29 57.90625 20.125 
Q 57.90625 9.515625 50.796875 4.046875 
Q 43.703125 -1.421875 29.984375 -1.421875 
Q 24.8125 -1.421875 18.96875 -0.25 
Q 13.140625 0.921875 6.890625 3.21875 
L 6.890625 13.375 
Q 12.890625 10.015625 18.65625 8.296875 
Q 24.421875 6.59375 29.984375 6.59375 
Q 38.421875 6.59375 43.015625 9.90625 
Q 47.609375 13.234375 47.609375 19.390625 
Q 47.609375 24.75 44.3125 27.78125 
Q 41.015625 30.8125 33.5 32.328125 
L 27.484375 33.5 
Q 16.453125 35.6875 11.515625 40.375 
Q 6.59375 45.0625 6.59375 53.421875 
Q 6.59375 63.09375 13.40625 68.65625 
Q 20.21875 74.21875 32.171875 74.21875 
Q 37.3125 74.21875 42.625 73.28125 
Q 47.953125 72.359375 53.515625 70.515625 
z
" id="DejaVuSans-83"/>
       </defs>
       <use xlink:href="#DejaVuSans-78"/>
       <use x="74.804688" xlink:href="#DejaVuSans-83"/>
      </g>
     </g>
    </g>
   </g>
   <g id="patch_4">
    <path d="M 434.002563 190.368 
L 434.002563 164.448 
L 434.002563 112.608 
L 434.002563 86.688 
L 452.434563 86.688 
L 452.434563 112.608 
L 452.434563 164.448 
L 452.434563 190.368 
z
" style="fill:none;stroke:#808080;stroke-linejoin:miter;"/>
   </g>
  </g>
 </g>
 <defs>
  <clipPath id="p5d9b09736f">
   <rect height="103.68" width="18.432" x="434.002563" y="86.688"/>
  </clipPath>
 </defs>
</svg>
