<?xml version="1.0" encoding="utf-8" standalone="no"?>
<!DOCTYPE svg PUBLIC "-//W3C//DTD SVG 1.1//EN"
  "http://www.w3.org/Graphics/SVG/1.1/DTD/svg11.dtd">
<!-- Created with matplotlib (https://matplotlib.org/) -->
<svg height="355.523584pt" version="1.1" viewBox="0 0 417.648125 355.523584" width="417.648125pt" xmlns="http://www.w3.org/2000/svg" xmlns:xlink="http://www.w3.org/1999/xlink">
 <metadata>
  <rdf:RDF xmlns:cc="http://creativecommons.org/ns#" xmlns:dc="http://purl.org/dc/elements/1.1/" xmlns:rdf="http://www.w3.org/1999/02/22-rdf-syntax-ns#">
   <cc:Work>
    <dc:type rdf:resource="http://purl.org/dc/dcmitype/StillImage"/>
    <dc:date>2020-10-25T11:32:49.176027</dc:date>
    <dc:format>image/svg+xml</dc:format>
    <dc:creator>
     <cc:Agent>
      <dc:title>Matplotlib v3.3.2, https://matplotlib.org/</dc:title>
     </cc:Agent>
    </dc:creator>
   </cc:Work>
  </rdf:RDF>
 </metadata>
 <defs>
  <style type="text/css">*{stroke-linecap:butt;stroke-linejoin:round;}</style>
 </defs>
 <g id="figure_1">
  <g id="patch_1">
   <path d="M 0 355.523584 
L 417.648125 355.523584 
L 417.648125 0 
L 0 0 
z
" style="fill:#ffffff;"/>
  </g>
  <g id="axes_1">
   <g id="patch_2">
    <path d="M 53.328125 288.430125 
L 410.448125 288.430125 
L 410.448125 22.318125 
L 53.328125 22.318125 
z
" style="fill:#ffffff;"/>
   </g>
   <g id="PolyCollection_1">
    <defs>
     <path d="M 99.447568 -260.484724 
L 96.488682 -260.484724 
L 96.235509 -260.525377 
L 95.951393 -260.56603 
L 95.634914 -260.606683 
L 95.285004 -260.647336 
L 94.901002 -260.687989 
L 94.482709 -260.728642 
L 94.030425 -260.769295 
L 93.544967 -260.809949 
L 93.027675 -260.850602 
L 92.480385 -260.891255 
L 91.90538 -260.931908 
L 91.305316 -260.972561 
L 90.683126 -261.013214 
L 90.041893 -261.053867 
L 89.384709 -261.09452 
L 88.714523 -261.135173 
L 88.033978 -261.175827 
L 87.345253 -261.21648 
L 86.649921 -261.257133 
L 85.948822 -261.297786 
L 85.241972 -261.338439 
L 84.528519 -261.379092 
L 83.806737 -261.419745 
L 83.074083 -261.460398 
L 82.327311 -261.501052 
L 81.562643 -261.541705 
L 80.775998 -261.582358 
L 79.963262 -261.623011 
L 79.120605 -261.663664 
L 78.244813 -261.704317 
L 77.333638 -261.74497 
L 76.386125 -261.785623 
L 75.40292 -261.826277 
L 74.386525 -261.86693 
L 73.341483 -261.907583 
L 72.274488 -261.948236 
L 71.194397 -261.988889 
L 70.112136 -262.029542 
L 69.040509 -262.070195 
L 67.993902 -262.110848 
L 66.98789 -262.151501 
L 66.038772 -262.192155 
L 65.163043 -262.232808 
L 64.376823 -262.273461 
L 63.695286 -262.314114 
L 63.132092 -262.354767 
L 62.698873 -262.39542 
L 62.404781 -262.436073 
L 62.256125 -262.476726 
L 62.256125 -262.51738 
L 62.404781 -262.558033 
L 62.698873 -262.598686 
L 63.132092 -262.639339 
L 63.695286 -262.679992 
L 64.376823 -262.720645 
L 65.163043 -262.761298 
L 66.038772 -262.801951 
L 66.98789 -262.842604 
L 67.993902 -262.883258 
L 69.040509 -262.923911 
L 70.112136 -262.964564 
L 71.194397 -263.005217 
L 72.274488 -263.04587 
L 73.341483 -263.086523 
L 74.386525 -263.127176 
L 75.40292 -263.167829 
L 76.386125 -263.208483 
L 77.333638 -263.249136 
L 78.244813 -263.289789 
L 79.120605 -263.330442 
L 79.963262 -263.371095 
L 80.775998 -263.411748 
L 81.562643 -263.452401 
L 82.327311 -263.493054 
L 83.074083 -263.533708 
L 83.806737 -263.574361 
L 84.528519 -263.615014 
L 85.241972 -263.655667 
L 85.948822 -263.69632 
L 86.649921 -263.736973 
L 87.345253 -263.777626 
L 88.033978 -263.818279 
L 88.714523 -263.858932 
L 89.384709 -263.899586 
L 90.041893 -263.940239 
L 90.683126 -263.980892 
L 91.305316 -264.021545 
L 91.90538 -264.062198 
L 92.480385 -264.102851 
L 93.027675 -264.143504 
L 93.544967 -264.184157 
L 94.030425 -264.224811 
L 94.482709 -264.265464 
L 94.901002 -264.306117 
L 95.285004 -264.34677 
L 95.634914 -264.387423 
L 95.951393 -264.428076 
L 96.235509 -264.468729 
L 96.488682 -264.509382 
L 99.447568 -264.509382 
L 99.447568 -264.509382 
L 99.700741 -264.468729 
L 99.984857 -264.428076 
L 100.301336 -264.387423 
L 100.651246 -264.34677 
L 101.035248 -264.306117 
L 101.453541 -264.265464 
L 101.905825 -264.224811 
L 102.391283 -264.184157 
L 102.908575 -264.143504 
L 103.455865 -264.102851 
L 104.03087 -264.062198 
L 104.630934 -264.021545 
L 105.253124 -263.980892 
L 105.894357 -263.940239 
L 106.551541 -263.899586 
L 107.221727 -263.858932 
L 107.902272 -263.818279 
L 108.590997 -263.777626 
L 109.286329 -263.736973 
L 109.987428 -263.69632 
L 110.694278 -263.655667 
L 111.407731 -263.615014 
L 112.129513 -263.574361 
L 112.862167 -263.533708 
L 113.608939 -263.493054 
L 114.373607 -263.452401 
L 115.160252 -263.411748 
L 115.972988 -263.371095 
L 116.815645 -263.330442 
L 117.691437 -263.289789 
L 118.602612 -263.249136 
L 119.550125 -263.208483 
L 120.53333 -263.167829 
L 121.549725 -263.127176 
L 122.594767 -263.086523 
L 123.661762 -263.04587 
L 124.741853 -263.005217 
L 125.824114 -262.964564 
L 126.895741 -262.923911 
L 127.942348 -262.883258 
L 128.94836 -262.842604 
L 129.897478 -262.801951 
L 130.773207 -262.761298 
L 131.559427 -262.720645 
L 132.240964 -262.679992 
L 132.804158 -262.639339 
L 133.237377 -262.598686 
L 133.531469 -262.558033 
L 133.680125 -262.51738 
L 133.680125 -262.476726 
L 133.531469 -262.436073 
L 133.237377 -262.39542 
L 132.804158 -262.354767 
L 132.240964 -262.314114 
L 131.559427 -262.273461 
L 130.773207 -262.232808 
L 129.897478 -262.192155 
L 128.94836 -262.151501 
L 127.942348 -262.110848 
L 126.895741 -262.070195 
L 125.824114 -262.029542 
L 124.741853 -261.988889 
L 123.661762 -261.948236 
L 122.594767 -261.907583 
L 121.549725 -261.86693 
L 120.53333 -261.826277 
L 119.550125 -261.785623 
L 118.602612 -261.74497 
L 117.691437 -261.704317 
L 116.815645 -261.663664 
L 115.972988 -261.623011 
L 115.160252 -261.582358 
L 114.373607 -261.541705 
L 113.608939 -261.501052 
L 112.862167 -261.460398 
L 112.129513 -261.419745 
L 111.407731 -261.379092 
L 110.694278 -261.338439 
L 109.987428 -261.297786 
L 109.286329 -261.257133 
L 108.590997 -261.21648 
L 107.902272 -261.175827 
L 107.221727 -261.135173 
L 106.551541 -261.09452 
L 105.894357 -261.053867 
L 105.253124 -261.013214 
L 104.630934 -260.972561 
L 104.03087 -260.931908 
L 103.455865 -260.891255 
L 102.908575 -260.850602 
L 102.391283 -260.809949 
L 101.905825 -260.769295 
L 101.453541 -260.728642 
L 101.035248 -260.687989 
L 100.651246 -260.647336 
L 100.301336 -260.606683 
L 99.984857 -260.56603 
L 99.700741 -260.525377 
L 99.447568 -260.484724 
z
" id="maf30688066" style="stroke:#3f3f3f;stroke-width:1.5;"/>
    </defs>
    <g clip-path="url(#p11e3e24798)">
     <use style="fill:#c03d3e;stroke:#3f3f3f;stroke-width:1.5;" x="0" xlink:href="#maf30688066" y="355.523584"/>
    </g>
   </g>
   <g id="PolyCollection_2">
    <defs>
     <path d="M 187.271434 -92.088193 
L 187.224816 -92.088193 
L 187.221265 -94.40154 
L 187.217333 -96.714886 
L 187.213009 -99.028232 
L 187.208285 -101.341578 
L 187.203161 -103.654924 
L 187.197641 -105.96827 
L 187.191737 -108.281616 
L 187.185469 -110.594962 
L 187.178865 -112.908309 
L 187.17196 -115.221655 
L 187.1648 -117.535001 
L 187.157437 -119.848347 
L 187.14993 -122.161693 
L 187.142348 -124.475039 
L 187.134764 -126.788385 
L 187.127254 -129.101731 
L 187.119899 -131.415077 
L 187.112782 -133.728424 
L 187.105983 -136.04177 
L 187.099581 -138.355116 
L 187.093648 -140.668462 
L 187.08825 -142.981808 
L 187.083442 -145.295154 
L 187.079269 -147.6085 
L 187.075759 -149.921846 
L 187.072927 -152.235193 
L 187.070769 -154.548539 
L 187.069263 -156.861885 
L 187.068368 -159.175231 
L 187.068021 -161.488577 
L 187.068141 -163.801923 
L 187.068629 -166.115269 
L 187.069364 -168.428615 
L 187.07021 -170.741962 
L 187.071017 -173.055308 
L 187.07162 -175.368654 
L 187.071846 -177.682 
L 187.071514 -179.995346 
L 187.07044 -182.308692 
L 187.068439 -184.622038 
L 187.065333 -186.935384 
L 187.060951 -189.24873 
L 187.055133 -191.562077 
L 187.047739 -193.875423 
L 187.038648 -196.188769 
L 187.027765 -198.502115 
L 187.015025 -200.815461 
L 187.000392 -203.128807 
L 186.983869 -205.442153 
L 186.965494 -207.755499 
L 186.945346 -210.068846 
L 186.923544 -212.382192 
L 186.900247 -214.695538 
L 186.875654 -217.008884 
L 186.850003 -219.32223 
L 186.823565 -221.635576 
L 186.796644 -223.948922 
L 186.769572 -226.262268 
L 186.742699 -228.575614 
L 186.716391 -230.888961 
L 186.691024 -233.202307 
L 186.666971 -235.515653 
L 186.644599 -237.828999 
L 186.624259 -240.142345 
L 186.606278 -242.455691 
L 186.590952 -244.769037 
L 186.578542 -247.082383 
L 186.569261 -249.39573 
L 186.563276 -251.709076 
L 186.5607 -254.022422 
L 186.561593 -256.335768 
L 186.565957 -258.649114 
L 186.573738 -260.96246 
L 186.58483 -263.275806 
L 186.599072 -265.589152 
L 186.616261 -267.902498 
L 186.636148 -270.215845 
L 186.658453 -272.529191 
L 186.682865 -274.842537 
L 186.709053 -277.155883 
L 186.736675 -279.469229 
L 186.76538 -281.782575 
L 186.794821 -284.095921 
L 186.824661 -286.409267 
L 186.854576 -288.722614 
L 186.884264 -291.03596 
L 186.913448 -293.349306 
L 186.94188 -295.662652 
L 186.969342 -297.975998 
L 186.995651 -300.289344 
L 187.020657 -302.60269 
L 187.044245 -304.916036 
L 187.06633 -307.229382 
L 187.08686 -309.542729 
L 187.10581 -311.856075 
L 187.123181 -314.169421 
L 187.138999 -316.482767 
L 187.153307 -318.796113 
L 187.166164 -321.109459 
L 187.330086 -321.109459 
L 187.330086 -321.109459 
L 187.342943 -318.796113 
L 187.357251 -316.482767 
L 187.373069 -314.169421 
L 187.39044 -311.856075 
L 187.40939 -309.542729 
L 187.42992 -307.229382 
L 187.452005 -304.916036 
L 187.475593 -302.60269 
L 187.500599 -300.289344 
L 187.526908 -297.975998 
L 187.55437 -295.662652 
L 187.582802 -293.349306 
L 187.611986 -291.03596 
L 187.641674 -288.722614 
L 187.671589 -286.409267 
L 187.701429 -284.095921 
L 187.73087 -281.782575 
L 187.759575 -279.469229 
L 187.787197 -277.155883 
L 187.813385 -274.842537 
L 187.837797 -272.529191 
L 187.860102 -270.215845 
L 187.879989 -267.902498 
L 187.897178 -265.589152 
L 187.91142 -263.275806 
L 187.922512 -260.96246 
L 187.930293 -258.649114 
L 187.934657 -256.335768 
L 187.93555 -254.022422 
L 187.932974 -251.709076 
L 187.926989 -249.39573 
L 187.917708 -247.082383 
L 187.905298 -244.769037 
L 187.889972 -242.455691 
L 187.871991 -240.142345 
L 187.851651 -237.828999 
L 187.829279 -235.515653 
L 187.805226 -233.202307 
L 187.779859 -230.888961 
L 187.753551 -228.575614 
L 187.726678 -226.262268 
L 187.699606 -223.948922 
L 187.672685 -221.635576 
L 187.646247 -219.32223 
L 187.620596 -217.008884 
L 187.596003 -214.695538 
L 187.572706 -212.382192 
L 187.550904 -210.068846 
L 187.530756 -207.755499 
L 187.512381 -205.442153 
L 187.495858 -203.128807 
L 187.481225 -200.815461 
L 187.468485 -198.502115 
L 187.457602 -196.188769 
L 187.448511 -193.875423 
L 187.441117 -191.562077 
L 187.435299 -189.24873 
L 187.430917 -186.935384 
L 187.427811 -184.622038 
L 187.42581 -182.308692 
L 187.424736 -179.995346 
L 187.424404 -177.682 
L 187.42463 -175.368654 
L 187.425233 -173.055308 
L 187.42604 -170.741962 
L 187.426886 -168.428615 
L 187.427621 -166.115269 
L 187.428109 -163.801923 
L 187.428229 -161.488577 
L 187.427882 -159.175231 
L 187.426987 -156.861885 
L 187.425481 -154.548539 
L 187.423323 -152.235193 
L 187.420491 -149.921846 
L 187.416981 -147.6085 
L 187.412808 -145.295154 
L 187.408 -142.981808 
L 187.402602 -140.668462 
L 187.396669 -138.355116 
L 187.390267 -136.04177 
L 187.383468 -133.728424 
L 187.376351 -131.415077 
L 187.368996 -129.101731 
L 187.361486 -126.788385 
L 187.353902 -124.475039 
L 187.34632 -122.161693 
L 187.338813 -119.848347 
L 187.33145 -117.535001 
L 187.32429 -115.221655 
L 187.317385 -112.908309 
L 187.310781 -110.594962 
L 187.304513 -108.281616 
L 187.298609 -105.96827 
L 187.293089 -103.654924 
L 187.287965 -101.341578 
L 187.283241 -99.028232 
L 187.278917 -96.714886 
L 187.274985 -94.40154 
L 187.271434 -92.088193 
z
" id="me7aa14e251" style="stroke:#3f3f3f;stroke-width:1.5;"/>
    </defs>
    <g clip-path="url(#p11e3e24798)">
     <use style="fill:#3274a1;stroke:#3f3f3f;stroke-width:1.5;" x="0" xlink:href="#me7aa14e251" y="355.523584"/>
    </g>
   </g>
   <g id="PolyCollection_3">
    <defs>
     <path d="M 276.582132 -79.189459 
L 276.474118 -79.189459 
L 276.465007 -81.434646 
L 276.45474 -83.679834 
L 276.44324 -85.925021 
L 276.430441 -88.170208 
L 276.416286 -90.415396 
L 276.400731 -92.660583 
L 276.383749 -94.90577 
L 276.365328 -97.150958 
L 276.345481 -99.396145 
L 276.324241 -101.641332 
L 276.301667 -103.88652 
L 276.277844 -106.131707 
L 276.252884 -108.376894 
L 276.226927 -110.622082 
L 276.200139 -112.867269 
L 276.172714 -115.112456 
L 276.144868 -117.357644 
L 276.116842 -119.602831 
L 276.088893 -121.848018 
L 276.061296 -124.093206 
L 276.034332 -126.338393 
L 276.008293 -128.58358 
L 275.983468 -130.828768 
L 275.960142 -133.073955 
L 275.938589 -135.319142 
L 275.919067 -137.564329 
L 275.901812 -139.809517 
L 275.887032 -142.054704 
L 275.874907 -144.299891 
L 275.865579 -146.545079 
L 275.85915 -148.790266 
L 275.855685 -151.035453 
L 275.855203 -153.280641 
L 275.857681 -155.525828 
L 275.863053 -157.771015 
L 275.87121 -160.016203 
L 275.882005 -162.26139 
L 275.895253 -164.506577 
L 275.910737 -166.751765 
L 275.928211 -168.996952 
L 275.947404 -171.242139 
L 275.968028 -173.487327 
L 275.989783 -175.732514 
L 276.012362 -177.977701 
L 276.035457 -180.222889 
L 276.058764 -182.468076 
L 276.081992 -184.713263 
L 276.104865 -186.95845 
L 276.127127 -189.203638 
L 276.148547 -191.448825 
L 276.168926 -193.694012 
L 276.188092 -195.9392 
L 276.205909 -198.184387 
L 276.222276 -200.429574 
L 276.237129 -202.674762 
L 276.250437 -204.919949 
L 276.262204 -207.165136 
L 276.272468 -209.410324 
L 276.281295 -211.655511 
L 276.28878 -213.900698 
L 276.295041 -216.145886 
L 276.300215 -218.391073 
L 276.304454 -220.63626 
L 276.307921 -222.881448 
L 276.310785 -225.126635 
L 276.313216 -227.371822 
L 276.315382 -229.61701 
L 276.317443 -231.862197 
L 276.319548 -234.107384 
L 276.321832 -236.352572 
L 276.324415 -238.597759 
L 276.327395 -240.842946 
L 276.330852 -243.088133 
L 276.334844 -245.333321 
L 276.339407 -247.578508 
L 276.344558 -249.823695 
L 276.35029 -252.068883 
L 276.356583 -254.31407 
L 276.363395 -256.559257 
L 276.370674 -258.804445 
L 276.378353 -261.049632 
L 276.386359 -263.294819 
L 276.394611 -265.540007 
L 276.403025 -267.785194 
L 276.411515 -270.030381 
L 276.419998 -272.275569 
L 276.428393 -274.520756 
L 276.436626 -276.765943 
L 276.444629 -279.011131 
L 276.452343 -281.256318 
L 276.459715 -283.501505 
L 276.466706 -285.746693 
L 276.473283 -287.99188 
L 276.479422 -290.237067 
L 276.485111 -292.482254 
L 276.490343 -294.727442 
L 276.495121 -296.972629 
L 276.499453 -299.217816 
L 276.503354 -301.463004 
L 276.552896 -301.463004 
L 276.552896 -301.463004 
L 276.556797 -299.217816 
L 276.561129 -296.972629 
L 276.565907 -294.727442 
L 276.571139 -292.482254 
L 276.576828 -290.237067 
L 276.582967 -287.99188 
L 276.589544 -285.746693 
L 276.596535 -283.501505 
L 276.603907 -281.256318 
L 276.611621 -279.011131 
L 276.619624 -276.765943 
L 276.627857 -274.520756 
L 276.636252 -272.275569 
L 276.644735 -270.030381 
L 276.653225 -267.785194 
L 276.661639 -265.540007 
L 276.669891 -263.294819 
L 276.677897 -261.049632 
L 276.685576 -258.804445 
L 276.692855 -256.559257 
L 276.699667 -254.31407 
L 276.70596 -252.068883 
L 276.711692 -249.823695 
L 276.716843 -247.578508 
L 276.721406 -245.333321 
L 276.725398 -243.088133 
L 276.728855 -240.842946 
L 276.731835 -238.597759 
L 276.734418 -236.352572 
L 276.736702 -234.107384 
L 276.738807 -231.862197 
L 276.740868 -229.61701 
L 276.743034 -227.371822 
L 276.745465 -225.126635 
L 276.748329 -222.881448 
L 276.751796 -220.63626 
L 276.756035 -218.391073 
L 276.761209 -216.145886 
L 276.76747 -213.900698 
L 276.774955 -211.655511 
L 276.783782 -209.410324 
L 276.794046 -207.165136 
L 276.805813 -204.919949 
L 276.819121 -202.674762 
L 276.833974 -200.429574 
L 276.850341 -198.184387 
L 276.868158 -195.9392 
L 276.887324 -193.694012 
L 276.907703 -191.448825 
L 276.929123 -189.203638 
L 276.951385 -186.95845 
L 276.974258 -184.713263 
L 276.997486 -182.468076 
L 277.020793 -180.222889 
L 277.043888 -177.977701 
L 277.066467 -175.732514 
L 277.088222 -173.487327 
L 277.108846 -171.242139 
L 277.128039 -168.996952 
L 277.145513 -166.751765 
L 277.160997 -164.506577 
L 277.174245 -162.26139 
L 277.18504 -160.016203 
L 277.193197 -157.771015 
L 277.198569 -155.525828 
L 277.201047 -153.280641 
L 277.200565 -151.035453 
L 277.1971 -148.790266 
L 277.190671 -146.545079 
L 277.181343 -144.299891 
L 277.169218 -142.054704 
L 277.154438 -139.809517 
L 277.137183 -137.564329 
L 277.117661 -135.319142 
L 277.096108 -133.073955 
L 277.072782 -130.828768 
L 277.047957 -128.58358 
L 277.021918 -126.338393 
L 276.994954 -124.093206 
L 276.967357 -121.848018 
L 276.939408 -119.602831 
L 276.911382 -117.357644 
L 276.883536 -115.112456 
L 276.856111 -112.867269 
L 276.829323 -110.622082 
L 276.803366 -108.376894 
L 276.778406 -106.131707 
L 276.754583 -103.88652 
L 276.732009 -101.641332 
L 276.710769 -99.396145 
L 276.690922 -97.150958 
L 276.672501 -94.90577 
L 276.655519 -92.660583 
L 276.639964 -90.415396 
L 276.625809 -88.170208 
L 276.61301 -85.925021 
L 276.60151 -83.679834 
L 276.591243 -81.434646 
L 276.582132 -79.189459 
z
" id="m4e2d3ac1bf" style="stroke:#3f3f3f;stroke-width:1.5;"/>
    </defs>
    <g clip-path="url(#p11e3e24798)">
     <use style="fill:#c7c7c7;stroke:#3f3f3f;stroke-width:1.5;" x="0" xlink:href="#m4e2d3ac1bf" y="355.523584"/>
    </g>
   </g>
   <g id="PolyCollection_4">
    <defs>
     <path d="M 365.868025 -79.496397 
L 365.748225 -79.496397 
L 365.738893 -81.369003 
L 365.728477 -83.241608 
L 365.716914 -85.114213 
L 365.704151 -86.986819 
L 365.690143 -88.859424 
L 365.674858 -90.73203 
L 365.658276 -92.604635 
L 365.640392 -94.47724 
L 365.621218 -96.349846 
L 365.600787 -98.222451 
L 365.57915 -100.095056 
L 365.556379 -101.967662 
L 365.532567 -103.840267 
L 365.507829 -105.712872 
L 365.482303 -107.585478 
L 365.456143 -109.458083 
L 365.429527 -111.330688 
L 365.402647 -113.203294 
L 365.375708 -115.075899 
L 365.348931 -116.948504 
L 365.322541 -118.82111 
L 365.296771 -120.693715 
L 365.271852 -122.566321 
L 365.248013 -124.438926 
L 365.225477 -126.311531 
L 365.204452 -128.184137 
L 365.185134 -130.056742 
L 365.167697 -131.929347 
L 365.152294 -133.801953 
L 365.139054 -135.674558 
L 365.128075 -137.547163 
L 365.119427 -139.419769 
L 365.113149 -141.292374 
L 365.109249 -143.164979 
L 365.107703 -145.037585 
L 365.108456 -146.91019 
L 365.111423 -148.782795 
L 365.116494 -150.655401 
L 365.123532 -152.528006 
L 365.132379 -154.400612 
L 365.142856 -156.273217 
L 365.154772 -158.145822 
L 365.167924 -160.018428 
L 365.1821 -161.891033 
L 365.197087 -163.763638 
L 365.212673 -165.636244 
L 365.228651 -167.508849 
L 365.244822 -169.381454 
L 365.261 -171.25406 
L 365.277016 -173.126665 
L 365.292717 -174.99927 
L 365.307972 -176.871876 
L 365.322673 -178.744481 
L 365.336735 -180.617086 
L 365.350097 -182.489692 
L 365.362725 -184.362297 
L 365.374606 -186.234903 
L 365.38575 -188.107508 
L 365.396192 -189.980113 
L 365.405981 -191.852719 
L 365.415187 -193.725324 
L 365.423891 -195.597929 
L 365.432188 -197.470535 
L 365.440176 -199.34314 
L 365.447961 -201.215745 
L 365.455646 -203.088351 
L 365.463336 -204.960956 
L 365.471125 -206.833561 
L 365.479102 -208.706167 
L 365.487344 -210.578772 
L 365.495915 -212.451377 
L 365.504864 -214.323983 
L 365.514226 -216.196588 
L 365.524019 -218.069194 
L 365.534244 -219.941799 
L 365.544889 -221.814404 
L 365.555925 -223.68701 
L 365.567311 -225.559615 
L 365.578995 -227.43222 
L 365.590913 -229.304826 
L 365.602995 -231.177431 
L 365.615166 -233.050036 
L 365.627347 -234.922642 
L 365.639458 -236.795247 
L 365.65142 -238.667852 
L 365.663157 -240.540458 
L 365.674598 -242.413063 
L 365.685679 -244.285668 
L 365.69634 -246.158274 
L 365.706533 -248.030879 
L 365.716215 -249.903485 
L 365.725355 -251.77609 
L 365.73393 -253.648695 
L 365.741925 -255.521301 
L 365.749333 -257.393906 
L 365.756157 -259.266511 
L 365.762404 -261.139117 
L 365.76809 -263.011722 
L 365.773235 -264.884327 
L 365.843015 -264.884327 
L 365.843015 -264.884327 
L 365.84816 -263.011722 
L 365.853846 -261.139117 
L 365.860093 -259.266511 
L 365.866917 -257.393906 
L 365.874325 -255.521301 
L 365.88232 -253.648695 
L 365.890895 -251.77609 
L 365.900035 -249.903485 
L 365.909717 -248.030879 
L 365.91991 -246.158274 
L 365.930571 -244.285668 
L 365.941652 -242.413063 
L 365.953093 -240.540458 
L 365.96483 -238.667852 
L 365.976792 -236.795247 
L 365.988903 -234.922642 
L 366.001084 -233.050036 
L 366.013255 -231.177431 
L 366.025337 -229.304826 
L 366.037255 -227.43222 
L 366.048939 -225.559615 
L 366.060325 -223.68701 
L 366.071361 -221.814404 
L 366.082006 -219.941799 
L 366.092231 -218.069194 
L 366.102024 -216.196588 
L 366.111386 -214.323983 
L 366.120335 -212.451377 
L 366.128906 -210.578772 
L 366.137148 -208.706167 
L 366.145125 -206.833561 
L 366.152914 -204.960956 
L 366.160604 -203.088351 
L 366.168289 -201.215745 
L 366.176074 -199.34314 
L 366.184062 -197.470535 
L 366.192359 -195.597929 
L 366.201063 -193.725324 
L 366.210269 -191.852719 
L 366.220058 -189.980113 
L 366.2305 -188.107508 
L 366.241644 -186.234903 
L 366.253525 -184.362297 
L 366.266153 -182.489692 
L 366.279515 -180.617086 
L 366.293577 -178.744481 
L 366.308278 -176.871876 
L 366.323533 -174.99927 
L 366.339234 -173.126665 
L 366.35525 -171.25406 
L 366.371428 -169.381454 
L 366.387599 -167.508849 
L 366.403577 -165.636244 
L 366.419163 -163.763638 
L 366.43415 -161.891033 
L 366.448326 -160.018428 
L 366.461478 -158.145822 
L 366.473394 -156.273217 
L 366.483871 -154.400612 
L 366.492718 -152.528006 
L 366.499756 -150.655401 
L 366.504827 -148.782795 
L 366.507794 -146.91019 
L 366.508547 -145.037585 
L 366.507001 -143.164979 
L 366.503101 -141.292374 
L 366.496823 -139.419769 
L 366.488175 -137.547163 
L 366.477196 -135.674558 
L 366.463956 -133.801953 
L 366.448553 -131.929347 
L 366.431116 -130.056742 
L 366.411798 -128.184137 
L 366.390773 -126.311531 
L 366.368237 -124.438926 
L 366.344398 -122.566321 
L 366.319479 -120.693715 
L 366.293709 -118.82111 
L 366.267319 -116.948504 
L 366.240542 -115.075899 
L 366.213603 -113.203294 
L 366.186723 -111.330688 
L 366.160107 -109.458083 
L 366.133947 -107.585478 
L 366.108421 -105.712872 
L 366.083683 -103.840267 
L 366.059871 -101.967662 
L 366.0371 -100.095056 
L 366.015463 -98.222451 
L 365.995032 -96.349846 
L 365.975858 -94.47724 
L 365.957974 -92.604635 
L 365.941392 -90.73203 
L 365.926107 -88.859424 
L 365.912099 -86.986819 
L 365.899336 -85.114213 
L 365.887773 -83.241608 
L 365.877357 -81.369003 
L 365.868025 -79.496397 
z
" id="mf00efc6438" style="stroke:#3f3f3f;stroke-width:1.5;"/>
    </defs>
    <g clip-path="url(#p11e3e24798)">
     <use style="fill:#9fd495;stroke:#3f3f3f;stroke-width:1.5;" x="0" xlink:href="#mf00efc6438" y="355.523584"/>
    </g>
   </g>
   <g id="matplotlib.axis_1">
    <g id="xtick_1">
     <g id="line2d_1">
      <defs>
       <path d="M 0 0 
L 0 3.5 
" id="m98ca446a3c" style="stroke:#000000;stroke-width:0.8;"/>
      </defs>
      <g>
       <use style="stroke:#000000;stroke-width:0.8;" x="97.968125" xlink:href="#m98ca446a3c" y="288.430125"/>
      </g>
     </g>
     <g id="text_1">
      <!-- kirenenko -->
      <g transform="translate(54.507921 326.501971)rotate(-30)scale(0.1 -0.1)">
       <defs>
        <path d="M 9.078125 75.984375 
L 18.109375 75.984375 
L 18.109375 31.109375 
L 44.921875 54.6875 
L 56.390625 54.6875 
L 27.390625 29.109375 
L 57.625 0 
L 45.90625 0 
L 18.109375 26.703125 
L 18.109375 0 
L 9.078125 0 
z
" id="DejaVuSans-107"/>
        <path d="M 9.421875 54.6875 
L 18.40625 54.6875 
L 18.40625 0 
L 9.421875 0 
z
M 9.421875 75.984375 
L 18.40625 75.984375 
L 18.40625 64.59375 
L 9.421875 64.59375 
z
" id="DejaVuSans-105"/>
        <path d="M 41.109375 46.296875 
Q 39.59375 47.171875 37.8125 47.578125 
Q 36.03125 48 33.890625 48 
Q 26.265625 48 22.1875 43.046875 
Q 18.109375 38.09375 18.109375 28.8125 
L 18.109375 0 
L 9.078125 0 
L 9.078125 54.6875 
L 18.109375 54.6875 
L 18.109375 46.1875 
Q 20.953125 51.171875 25.484375 53.578125 
Q 30.03125 56 36.53125 56 
Q 37.453125 56 38.578125 55.875 
Q 39.703125 55.765625 41.0625 55.515625 
z
" id="DejaVuSans-114"/>
        <path d="M 56.203125 29.59375 
L 56.203125 25.203125 
L 14.890625 25.203125 
Q 15.484375 15.921875 20.484375 11.0625 
Q 25.484375 6.203125 34.421875 6.203125 
Q 39.59375 6.203125 44.453125 7.46875 
Q 49.3125 8.734375 54.109375 11.28125 
L 54.109375 2.78125 
Q 49.265625 0.734375 44.1875 -0.34375 
Q 39.109375 -1.421875 33.890625 -1.421875 
Q 20.796875 -1.421875 13.15625 6.1875 
Q 5.515625 13.8125 5.515625 26.8125 
Q 5.515625 40.234375 12.765625 48.109375 
Q 20.015625 56 32.328125 56 
Q 43.359375 56 49.78125 48.890625 
Q 56.203125 41.796875 56.203125 29.59375 
z
M 47.21875 32.234375 
Q 47.125 39.59375 43.09375 43.984375 
Q 39.0625 48.390625 32.421875 48.390625 
Q 24.90625 48.390625 20.390625 44.140625 
Q 15.875 39.890625 15.1875 32.171875 
z
" id="DejaVuSans-101"/>
        <path d="M 54.890625 33.015625 
L 54.890625 0 
L 45.90625 0 
L 45.90625 32.71875 
Q 45.90625 40.484375 42.875 44.328125 
Q 39.84375 48.1875 33.796875 48.1875 
Q 26.515625 48.1875 22.3125 43.546875 
Q 18.109375 38.921875 18.109375 30.90625 
L 18.109375 0 
L 9.078125 0 
L 9.078125 54.6875 
L 18.109375 54.6875 
L 18.109375 46.1875 
Q 21.34375 51.125 25.703125 53.5625 
Q 30.078125 56 35.796875 56 
Q 45.21875 56 50.046875 50.171875 
Q 54.890625 44.34375 54.890625 33.015625 
z
" id="DejaVuSans-110"/>
        <path d="M 30.609375 48.390625 
Q 23.390625 48.390625 19.1875 42.75 
Q 14.984375 37.109375 14.984375 27.296875 
Q 14.984375 17.484375 19.15625 11.84375 
Q 23.34375 6.203125 30.609375 6.203125 
Q 37.796875 6.203125 41.984375 11.859375 
Q 46.1875 17.53125 46.1875 27.296875 
Q 46.1875 37.015625 41.984375 42.703125 
Q 37.796875 48.390625 30.609375 48.390625 
z
M 30.609375 56 
Q 42.328125 56 49.015625 48.375 
Q 55.71875 40.765625 55.71875 27.296875 
Q 55.71875 13.875 49.015625 6.21875 
Q 42.328125 -1.421875 30.609375 -1.421875 
Q 18.84375 -1.421875 12.171875 6.21875 
Q 5.515625 13.875 5.515625 27.296875 
Q 5.515625 40.765625 12.171875 48.375 
Q 18.84375 56 30.609375 56 
z
" id="DejaVuSans-111"/>
       </defs>
       <use xlink:href="#DejaVuSans-107"/>
       <use x="57.910156" xlink:href="#DejaVuSans-105"/>
       <use x="85.693359" xlink:href="#DejaVuSans-114"/>
       <use x="124.556641" xlink:href="#DejaVuSans-101"/>
       <use x="186.080078" xlink:href="#DejaVuSans-110"/>
       <use x="249.458984" xlink:href="#DejaVuSans-101"/>
       <use x="310.982422" xlink:href="#DejaVuSans-110"/>
       <use x="374.361328" xlink:href="#DejaVuSans-107"/>
       <use x="428.646484" xlink:href="#DejaVuSans-111"/>
      </g>
     </g>
    </g>
    <g id="xtick_2">
     <g id="line2d_2">
      <g>
       <use style="stroke:#000000;stroke-width:0.8;" x="187.248125" xlink:href="#m98ca446a3c" y="288.430125"/>
      </g>
     </g>
     <g id="text_2">
      <!-- aflplusplus -->
      <g transform="translate(139.639118 328.897284)rotate(-30)scale(0.1 -0.1)">
       <defs>
        <path d="M 34.28125 27.484375 
Q 23.390625 27.484375 19.1875 25 
Q 14.984375 22.515625 14.984375 16.5 
Q 14.984375 11.71875 18.140625 8.90625 
Q 21.296875 6.109375 26.703125 6.109375 
Q 34.1875 6.109375 38.703125 11.40625 
Q 43.21875 16.703125 43.21875 25.484375 
L 43.21875 27.484375 
z
M 52.203125 31.203125 
L 52.203125 0 
L 43.21875 0 
L 43.21875 8.296875 
Q 40.140625 3.328125 35.546875 0.953125 
Q 30.953125 -1.421875 24.3125 -1.421875 
Q 15.921875 -1.421875 10.953125 3.296875 
Q 6 8.015625 6 15.921875 
Q 6 25.140625 12.171875 29.828125 
Q 18.359375 34.515625 30.609375 34.515625 
L 43.21875 34.515625 
L 43.21875 35.40625 
Q 43.21875 41.609375 39.140625 45 
Q 35.0625 48.390625 27.6875 48.390625 
Q 23 48.390625 18.546875 47.265625 
Q 14.109375 46.140625 10.015625 43.890625 
L 10.015625 52.203125 
Q 14.9375 54.109375 19.578125 55.046875 
Q 24.21875 56 28.609375 56 
Q 40.484375 56 46.34375 49.84375 
Q 52.203125 43.703125 52.203125 31.203125 
z
" id="DejaVuSans-97"/>
        <path d="M 37.109375 75.984375 
L 37.109375 68.5 
L 28.515625 68.5 
Q 23.6875 68.5 21.796875 66.546875 
Q 19.921875 64.59375 19.921875 59.515625 
L 19.921875 54.6875 
L 34.71875 54.6875 
L 34.71875 47.703125 
L 19.921875 47.703125 
L 19.921875 0 
L 10.890625 0 
L 10.890625 47.703125 
L 2.296875 47.703125 
L 2.296875 54.6875 
L 10.890625 54.6875 
L 10.890625 58.5 
Q 10.890625 67.625 15.140625 71.796875 
Q 19.390625 75.984375 28.609375 75.984375 
z
" id="DejaVuSans-102"/>
        <path d="M 9.421875 75.984375 
L 18.40625 75.984375 
L 18.40625 0 
L 9.421875 0 
z
" id="DejaVuSans-108"/>
        <path d="M 18.109375 8.203125 
L 18.109375 -20.796875 
L 9.078125 -20.796875 
L 9.078125 54.6875 
L 18.109375 54.6875 
L 18.109375 46.390625 
Q 20.953125 51.265625 25.265625 53.625 
Q 29.59375 56 35.59375 56 
Q 45.5625 56 51.78125 48.09375 
Q 58.015625 40.1875 58.015625 27.296875 
Q 58.015625 14.40625 51.78125 6.484375 
Q 45.5625 -1.421875 35.59375 -1.421875 
Q 29.59375 -1.421875 25.265625 0.953125 
Q 20.953125 3.328125 18.109375 8.203125 
z
M 48.6875 27.296875 
Q 48.6875 37.203125 44.609375 42.84375 
Q 40.53125 48.484375 33.40625 48.484375 
Q 26.265625 48.484375 22.1875 42.84375 
Q 18.109375 37.203125 18.109375 27.296875 
Q 18.109375 17.390625 22.1875 11.75 
Q 26.265625 6.109375 33.40625 6.109375 
Q 40.53125 6.109375 44.609375 11.75 
Q 48.6875 17.390625 48.6875 27.296875 
z
" id="DejaVuSans-112"/>
        <path d="M 8.5 21.578125 
L 8.5 54.6875 
L 17.484375 54.6875 
L 17.484375 21.921875 
Q 17.484375 14.15625 20.5 10.265625 
Q 23.53125 6.390625 29.59375 6.390625 
Q 36.859375 6.390625 41.078125 11.03125 
Q 45.3125 15.671875 45.3125 23.6875 
L 45.3125 54.6875 
L 54.296875 54.6875 
L 54.296875 0 
L 45.3125 0 
L 45.3125 8.40625 
Q 42.046875 3.421875 37.71875 1 
Q 33.40625 -1.421875 27.6875 -1.421875 
Q 18.265625 -1.421875 13.375 4.4375 
Q 8.5 10.296875 8.5 21.578125 
z
M 31.109375 56 
z
" id="DejaVuSans-117"/>
        <path d="M 44.28125 53.078125 
L 44.28125 44.578125 
Q 40.484375 46.53125 36.375 47.5 
Q 32.28125 48.484375 27.875 48.484375 
Q 21.1875 48.484375 17.84375 46.4375 
Q 14.5 44.390625 14.5 40.28125 
Q 14.5 37.15625 16.890625 35.375 
Q 19.28125 33.59375 26.515625 31.984375 
L 29.59375 31.296875 
Q 39.15625 29.25 43.1875 25.515625 
Q 47.21875 21.78125 47.21875 15.09375 
Q 47.21875 7.46875 41.1875 3.015625 
Q 35.15625 -1.421875 24.609375 -1.421875 
Q 20.21875 -1.421875 15.453125 -0.5625 
Q 10.6875 0.296875 5.421875 2 
L 5.421875 11.28125 
Q 10.40625 8.6875 15.234375 7.390625 
Q 20.0625 6.109375 24.8125 6.109375 
Q 31.15625 6.109375 34.5625 8.28125 
Q 37.984375 10.453125 37.984375 14.40625 
Q 37.984375 18.0625 35.515625 20.015625 
Q 33.0625 21.96875 24.703125 23.78125 
L 21.578125 24.515625 
Q 13.234375 26.265625 9.515625 29.90625 
Q 5.8125 33.546875 5.8125 39.890625 
Q 5.8125 47.609375 11.28125 51.796875 
Q 16.75 56 26.8125 56 
Q 31.78125 56 36.171875 55.265625 
Q 40.578125 54.546875 44.28125 53.078125 
z
" id="DejaVuSans-115"/>
       </defs>
       <use xlink:href="#DejaVuSans-97"/>
       <use x="61.279297" xlink:href="#DejaVuSans-102"/>
       <use x="96.484375" xlink:href="#DejaVuSans-108"/>
       <use x="124.267578" xlink:href="#DejaVuSans-112"/>
       <use x="187.744141" xlink:href="#DejaVuSans-108"/>
       <use x="215.527344" xlink:href="#DejaVuSans-117"/>
       <use x="278.90625" xlink:href="#DejaVuSans-115"/>
       <use x="331.005859" xlink:href="#DejaVuSans-112"/>
       <use x="394.482422" xlink:href="#DejaVuSans-108"/>
       <use x="422.265625" xlink:href="#DejaVuSans-117"/>
       <use x="485.644531" xlink:href="#DejaVuSans-115"/>
      </g>
     </g>
    </g>
    <g id="xtick_3">
     <g id="line2d_3">
      <g>
       <use style="stroke:#000000;stroke-width:0.8;" x="276.528125" xlink:href="#m98ca446a3c" y="288.430125"/>
      </g>
     </g>
     <g id="text_3">
      <!-- weizz_qemu -->
      <g transform="translate(222.360643 332.603534)rotate(-30)scale(0.1 -0.1)">
       <defs>
        <path d="M 4.203125 54.6875 
L 13.1875 54.6875 
L 24.421875 12.015625 
L 35.59375 54.6875 
L 46.1875 54.6875 
L 57.421875 12.015625 
L 68.609375 54.6875 
L 77.59375 54.6875 
L 63.28125 0 
L 52.6875 0 
L 40.921875 44.828125 
L 29.109375 0 
L 18.5 0 
z
" id="DejaVuSans-119"/>
        <path d="M 5.515625 54.6875 
L 48.1875 54.6875 
L 48.1875 46.484375 
L 14.40625 7.171875 
L 48.1875 7.171875 
L 48.1875 0 
L 4.296875 0 
L 4.296875 8.203125 
L 38.09375 47.515625 
L 5.515625 47.515625 
z
" id="DejaVuSans-122"/>
        <path d="M 50.984375 -16.609375 
L 50.984375 -23.578125 
L -0.984375 -23.578125 
L -0.984375 -16.609375 
z
" id="DejaVuSans-95"/>
        <path d="M 14.796875 27.296875 
Q 14.796875 17.390625 18.875 11.75 
Q 22.953125 6.109375 30.078125 6.109375 
Q 37.203125 6.109375 41.296875 11.75 
Q 45.40625 17.390625 45.40625 27.296875 
Q 45.40625 37.203125 41.296875 42.84375 
Q 37.203125 48.484375 30.078125 48.484375 
Q 22.953125 48.484375 18.875 42.84375 
Q 14.796875 37.203125 14.796875 27.296875 
z
M 45.40625 8.203125 
Q 42.578125 3.328125 38.25 0.953125 
Q 33.9375 -1.421875 27.875 -1.421875 
Q 17.96875 -1.421875 11.734375 6.484375 
Q 5.515625 14.40625 5.515625 27.296875 
Q 5.515625 40.1875 11.734375 48.09375 
Q 17.96875 56 27.875 56 
Q 33.9375 56 38.25 53.625 
Q 42.578125 51.265625 45.40625 46.390625 
L 45.40625 54.6875 
L 54.390625 54.6875 
L 54.390625 -20.796875 
L 45.40625 -20.796875 
z
" id="DejaVuSans-113"/>
        <path d="M 52 44.1875 
Q 55.375 50.25 60.0625 53.125 
Q 64.75 56 71.09375 56 
Q 79.640625 56 84.28125 50.015625 
Q 88.921875 44.046875 88.921875 33.015625 
L 88.921875 0 
L 79.890625 0 
L 79.890625 32.71875 
Q 79.890625 40.578125 77.09375 44.375 
Q 74.3125 48.1875 68.609375 48.1875 
Q 61.625 48.1875 57.5625 43.546875 
Q 53.515625 38.921875 53.515625 30.90625 
L 53.515625 0 
L 44.484375 0 
L 44.484375 32.71875 
Q 44.484375 40.625 41.703125 44.40625 
Q 38.921875 48.1875 33.109375 48.1875 
Q 26.21875 48.1875 22.15625 43.53125 
Q 18.109375 38.875 18.109375 30.90625 
L 18.109375 0 
L 9.078125 0 
L 9.078125 54.6875 
L 18.109375 54.6875 
L 18.109375 46.1875 
Q 21.1875 51.21875 25.484375 53.609375 
Q 29.78125 56 35.6875 56 
Q 41.65625 56 45.828125 52.96875 
Q 50 49.953125 52 44.1875 
z
" id="DejaVuSans-109"/>
       </defs>
       <use xlink:href="#DejaVuSans-119"/>
       <use x="81.787109" xlink:href="#DejaVuSans-101"/>
       <use x="143.310547" xlink:href="#DejaVuSans-105"/>
       <use x="171.09375" xlink:href="#DejaVuSans-122"/>
       <use x="223.583984" xlink:href="#DejaVuSans-122"/>
       <use x="276.074219" xlink:href="#DejaVuSans-95"/>
       <use x="326.074219" xlink:href="#DejaVuSans-113"/>
       <use x="389.550781" xlink:href="#DejaVuSans-101"/>
       <use x="451.074219" xlink:href="#DejaVuSans-109"/>
       <use x="548.486328" xlink:href="#DejaVuSans-117"/>
      </g>
     </g>
    </g>
    <g id="xtick_4">
     <g id="line2d_4">
      <g>
       <use style="stroke:#000000;stroke-width:0.8;" x="365.808125" xlink:href="#m98ca446a3c" y="288.430125"/>
      </g>
     </g>
     <g id="text_4">
      <!-- honggfuzz -->
      <g transform="translate(319.868924 327.933221)rotate(-30)scale(0.1 -0.1)">
       <defs>
        <path d="M 54.890625 33.015625 
L 54.890625 0 
L 45.90625 0 
L 45.90625 32.71875 
Q 45.90625 40.484375 42.875 44.328125 
Q 39.84375 48.1875 33.796875 48.1875 
Q 26.515625 48.1875 22.3125 43.546875 
Q 18.109375 38.921875 18.109375 30.90625 
L 18.109375 0 
L 9.078125 0 
L 9.078125 75.984375 
L 18.109375 75.984375 
L 18.109375 46.1875 
Q 21.34375 51.125 25.703125 53.5625 
Q 30.078125 56 35.796875 56 
Q 45.21875 56 50.046875 50.171875 
Q 54.890625 44.34375 54.890625 33.015625 
z
" id="DejaVuSans-104"/>
        <path d="M 45.40625 27.984375 
Q 45.40625 37.75 41.375 43.109375 
Q 37.359375 48.484375 30.078125 48.484375 
Q 22.859375 48.484375 18.828125 43.109375 
Q 14.796875 37.75 14.796875 27.984375 
Q 14.796875 18.265625 18.828125 12.890625 
Q 22.859375 7.515625 30.078125 7.515625 
Q 37.359375 7.515625 41.375 12.890625 
Q 45.40625 18.265625 45.40625 27.984375 
z
M 54.390625 6.78125 
Q 54.390625 -7.171875 48.1875 -13.984375 
Q 42 -20.796875 29.203125 -20.796875 
Q 24.46875 -20.796875 20.265625 -20.09375 
Q 16.0625 -19.390625 12.109375 -17.921875 
L 12.109375 -9.1875 
Q 16.0625 -11.328125 19.921875 -12.34375 
Q 23.78125 -13.375 27.78125 -13.375 
Q 36.625 -13.375 41.015625 -8.765625 
Q 45.40625 -4.15625 45.40625 5.171875 
L 45.40625 9.625 
Q 42.625 4.78125 38.28125 2.390625 
Q 33.9375 0 27.875 0 
Q 17.828125 0 11.671875 7.65625 
Q 5.515625 15.328125 5.515625 27.984375 
Q 5.515625 40.671875 11.671875 48.328125 
Q 17.828125 56 27.875 56 
Q 33.9375 56 38.28125 53.609375 
Q 42.625 51.21875 45.40625 46.390625 
L 45.40625 54.6875 
L 54.390625 54.6875 
z
" id="DejaVuSans-103"/>
       </defs>
       <use xlink:href="#DejaVuSans-104"/>
       <use x="63.378906" xlink:href="#DejaVuSans-111"/>
       <use x="124.560547" xlink:href="#DejaVuSans-110"/>
       <use x="187.939453" xlink:href="#DejaVuSans-103"/>
       <use x="251.416016" xlink:href="#DejaVuSans-103"/>
       <use x="314.892578" xlink:href="#DejaVuSans-102"/>
       <use x="350.097656" xlink:href="#DejaVuSans-117"/>
       <use x="413.476562" xlink:href="#DejaVuSans-122"/>
       <use x="465.966797" xlink:href="#DejaVuSans-122"/>
      </g>
     </g>
    </g>
    <g id="text_5">
     <!-- Fuzzer (highest median coverage on the left) -->
     <g transform="translate(119.270156 346.243897)scale(0.1 -0.1)">
      <defs>
       <path d="M 9.8125 72.90625 
L 51.703125 72.90625 
L 51.703125 64.59375 
L 19.671875 64.59375 
L 19.671875 43.109375 
L 48.578125 43.109375 
L 48.578125 34.8125 
L 19.671875 34.8125 
L 19.671875 0 
L 9.8125 0 
z
" id="DejaVuSans-70"/>
       <path id="DejaVuSans-32"/>
       <path d="M 31 75.875 
Q 24.46875 64.65625 21.28125 53.65625 
Q 18.109375 42.671875 18.109375 31.390625 
Q 18.109375 20.125 21.3125 9.0625 
Q 24.515625 -2 31 -13.1875 
L 23.1875 -13.1875 
Q 15.875 -1.703125 12.234375 9.375 
Q 8.59375 20.453125 8.59375 31.390625 
Q 8.59375 42.28125 12.203125 53.3125 
Q 15.828125 64.359375 23.1875 75.875 
z
" id="DejaVuSans-40"/>
       <path d="M 18.3125 70.21875 
L 18.3125 54.6875 
L 36.8125 54.6875 
L 36.8125 47.703125 
L 18.3125 47.703125 
L 18.3125 18.015625 
Q 18.3125 11.328125 20.140625 9.421875 
Q 21.96875 7.515625 27.59375 7.515625 
L 36.8125 7.515625 
L 36.8125 0 
L 27.59375 0 
Q 17.1875 0 13.234375 3.875 
Q 9.28125 7.765625 9.28125 18.015625 
L 9.28125 47.703125 
L 2.6875 47.703125 
L 2.6875 54.6875 
L 9.28125 54.6875 
L 9.28125 70.21875 
z
" id="DejaVuSans-116"/>
       <path d="M 45.40625 46.390625 
L 45.40625 75.984375 
L 54.390625 75.984375 
L 54.390625 0 
L 45.40625 0 
L 45.40625 8.203125 
Q 42.578125 3.328125 38.25 0.953125 
Q 33.9375 -1.421875 27.875 -1.421875 
Q 17.96875 -1.421875 11.734375 6.484375 
Q 5.515625 14.40625 5.515625 27.296875 
Q 5.515625 40.1875 11.734375 48.09375 
Q 17.96875 56 27.875 56 
Q 33.9375 56 38.25 53.625 
Q 42.578125 51.265625 45.40625 46.390625 
z
M 14.796875 27.296875 
Q 14.796875 17.390625 18.875 11.75 
Q 22.953125 6.109375 30.078125 6.109375 
Q 37.203125 6.109375 41.296875 11.75 
Q 45.40625 17.390625 45.40625 27.296875 
Q 45.40625 37.203125 41.296875 42.84375 
Q 37.203125 48.484375 30.078125 48.484375 
Q 22.953125 48.484375 18.875 42.84375 
Q 14.796875 37.203125 14.796875 27.296875 
z
" id="DejaVuSans-100"/>
       <path d="M 48.78125 52.59375 
L 48.78125 44.1875 
Q 44.96875 46.296875 41.140625 47.34375 
Q 37.3125 48.390625 33.40625 48.390625 
Q 24.65625 48.390625 19.8125 42.84375 
Q 14.984375 37.3125 14.984375 27.296875 
Q 14.984375 17.28125 19.8125 11.734375 
Q 24.65625 6.203125 33.40625 6.203125 
Q 37.3125 6.203125 41.140625 7.25 
Q 44.96875 8.296875 48.78125 10.40625 
L 48.78125 2.09375 
Q 45.015625 0.34375 40.984375 -0.53125 
Q 36.96875 -1.421875 32.421875 -1.421875 
Q 20.0625 -1.421875 12.78125 6.34375 
Q 5.515625 14.109375 5.515625 27.296875 
Q 5.515625 40.671875 12.859375 48.328125 
Q 20.21875 56 33.015625 56 
Q 37.15625 56 41.109375 55.140625 
Q 45.0625 54.296875 48.78125 52.59375 
z
" id="DejaVuSans-99"/>
       <path d="M 2.984375 54.6875 
L 12.5 54.6875 
L 29.59375 8.796875 
L 46.6875 54.6875 
L 56.203125 54.6875 
L 35.6875 0 
L 23.484375 0 
z
" id="DejaVuSans-118"/>
       <path d="M 8.015625 75.875 
L 15.828125 75.875 
Q 23.140625 64.359375 26.78125 53.3125 
Q 30.421875 42.28125 30.421875 31.390625 
Q 30.421875 20.453125 26.78125 9.375 
Q 23.140625 -1.703125 15.828125 -13.1875 
L 8.015625 -13.1875 
Q 14.5 -2 17.703125 9.0625 
Q 20.90625 20.125 20.90625 31.390625 
Q 20.90625 42.671875 17.703125 53.65625 
Q 14.5 64.65625 8.015625 75.875 
z
" id="DejaVuSans-41"/>
      </defs>
      <use xlink:href="#DejaVuSans-70"/>
      <use x="52.019531" xlink:href="#DejaVuSans-117"/>
      <use x="115.398438" xlink:href="#DejaVuSans-122"/>
      <use x="167.888672" xlink:href="#DejaVuSans-122"/>
      <use x="220.378906" xlink:href="#DejaVuSans-101"/>
      <use x="281.902344" xlink:href="#DejaVuSans-114"/>
      <use x="323.015625" xlink:href="#DejaVuSans-32"/>
      <use x="354.802734" xlink:href="#DejaVuSans-40"/>
      <use x="393.816406" xlink:href="#DejaVuSans-104"/>
      <use x="457.195312" xlink:href="#DejaVuSans-105"/>
      <use x="484.978516" xlink:href="#DejaVuSans-103"/>
      <use x="548.455078" xlink:href="#DejaVuSans-104"/>
      <use x="611.833984" xlink:href="#DejaVuSans-101"/>
      <use x="673.357422" xlink:href="#DejaVuSans-115"/>
      <use x="725.457031" xlink:href="#DejaVuSans-116"/>
      <use x="764.666016" xlink:href="#DejaVuSans-32"/>
      <use x="796.453125" xlink:href="#DejaVuSans-109"/>
      <use x="893.865234" xlink:href="#DejaVuSans-101"/>
      <use x="955.388672" xlink:href="#DejaVuSans-100"/>
      <use x="1018.865234" xlink:href="#DejaVuSans-105"/>
      <use x="1046.648438" xlink:href="#DejaVuSans-97"/>
      <use x="1107.927734" xlink:href="#DejaVuSans-110"/>
      <use x="1171.306641" xlink:href="#DejaVuSans-32"/>
      <use x="1203.09375" xlink:href="#DejaVuSans-99"/>
      <use x="1258.074219" xlink:href="#DejaVuSans-111"/>
      <use x="1319.255859" xlink:href="#DejaVuSans-118"/>
      <use x="1378.435547" xlink:href="#DejaVuSans-101"/>
      <use x="1439.958984" xlink:href="#DejaVuSans-114"/>
      <use x="1481.072266" xlink:href="#DejaVuSans-97"/>
      <use x="1542.351562" xlink:href="#DejaVuSans-103"/>
      <use x="1605.828125" xlink:href="#DejaVuSans-101"/>
      <use x="1667.351562" xlink:href="#DejaVuSans-32"/>
      <use x="1699.138672" xlink:href="#DejaVuSans-111"/>
      <use x="1760.320312" xlink:href="#DejaVuSans-110"/>
      <use x="1823.699219" xlink:href="#DejaVuSans-32"/>
      <use x="1855.486328" xlink:href="#DejaVuSans-116"/>
      <use x="1894.695312" xlink:href="#DejaVuSans-104"/>
      <use x="1958.074219" xlink:href="#DejaVuSans-101"/>
      <use x="2019.597656" xlink:href="#DejaVuSans-32"/>
      <use x="2051.384766" xlink:href="#DejaVuSans-108"/>
      <use x="2079.167969" xlink:href="#DejaVuSans-101"/>
      <use x="2140.691406" xlink:href="#DejaVuSans-102"/>
      <use x="2174.146484" xlink:href="#DejaVuSans-116"/>
      <use x="2213.355469" xlink:href="#DejaVuSans-41"/>
     </g>
    </g>
   </g>
   <g id="matplotlib.axis_2">
    <g id="ytick_1">
     <g id="line2d_5">
      <defs>
       <path d="M 0 0 
L -3.5 0 
" id="md3d519cad0" style="stroke:#000000;stroke-width:0.8;"/>
      </defs>
      <g>
       <use style="stroke:#000000;stroke-width:0.8;" x="53.328125" xlink:href="#md3d519cad0" y="248.299383"/>
      </g>
     </g>
     <g id="text_6">
      <!-- 3200 -->
      <g transform="translate(20.878125 252.098602)scale(0.1 -0.1)">
       <defs>
        <path d="M 40.578125 39.3125 
Q 47.65625 37.796875 51.625 33 
Q 55.609375 28.21875 55.609375 21.1875 
Q 55.609375 10.40625 48.1875 4.484375 
Q 40.765625 -1.421875 27.09375 -1.421875 
Q 22.515625 -1.421875 17.65625 -0.515625 
Q 12.796875 0.390625 7.625 2.203125 
L 7.625 11.71875 
Q 11.71875 9.328125 16.59375 8.109375 
Q 21.484375 6.890625 26.8125 6.890625 
Q 36.078125 6.890625 40.9375 10.546875 
Q 45.796875 14.203125 45.796875 21.1875 
Q 45.796875 27.640625 41.28125 31.265625 
Q 36.765625 34.90625 28.71875 34.90625 
L 20.21875 34.90625 
L 20.21875 43.015625 
L 29.109375 43.015625 
Q 36.375 43.015625 40.234375 45.921875 
Q 44.09375 48.828125 44.09375 54.296875 
Q 44.09375 59.90625 40.109375 62.90625 
Q 36.140625 65.921875 28.71875 65.921875 
Q 24.65625 65.921875 20.015625 65.03125 
Q 15.375 64.15625 9.8125 62.3125 
L 9.8125 71.09375 
Q 15.4375 72.65625 20.34375 73.4375 
Q 25.25 74.21875 29.59375 74.21875 
Q 40.828125 74.21875 47.359375 69.109375 
Q 53.90625 64.015625 53.90625 55.328125 
Q 53.90625 49.265625 50.4375 45.09375 
Q 46.96875 40.921875 40.578125 39.3125 
z
" id="DejaVuSans-51"/>
        <path d="M 19.1875 8.296875 
L 53.609375 8.296875 
L 53.609375 0 
L 7.328125 0 
L 7.328125 8.296875 
Q 12.9375 14.109375 22.625 23.890625 
Q 32.328125 33.6875 34.8125 36.53125 
Q 39.546875 41.84375 41.421875 45.53125 
Q 43.3125 49.21875 43.3125 52.78125 
Q 43.3125 58.59375 39.234375 62.25 
Q 35.15625 65.921875 28.609375 65.921875 
Q 23.96875 65.921875 18.8125 64.3125 
Q 13.671875 62.703125 7.8125 59.421875 
L 7.8125 69.390625 
Q 13.765625 71.78125 18.9375 73 
Q 24.125 74.21875 28.421875 74.21875 
Q 39.75 74.21875 46.484375 68.546875 
Q 53.21875 62.890625 53.21875 53.421875 
Q 53.21875 48.921875 51.53125 44.890625 
Q 49.859375 40.875 45.40625 35.40625 
Q 44.1875 33.984375 37.640625 27.21875 
Q 31.109375 20.453125 19.1875 8.296875 
z
" id="DejaVuSans-50"/>
        <path d="M 31.78125 66.40625 
Q 24.171875 66.40625 20.328125 58.90625 
Q 16.5 51.421875 16.5 36.375 
Q 16.5 21.390625 20.328125 13.890625 
Q 24.171875 6.390625 31.78125 6.390625 
Q 39.453125 6.390625 43.28125 13.890625 
Q 47.125 21.390625 47.125 36.375 
Q 47.125 51.421875 43.28125 58.90625 
Q 39.453125 66.40625 31.78125 66.40625 
z
M 31.78125 74.21875 
Q 44.046875 74.21875 50.515625 64.515625 
Q 56.984375 54.828125 56.984375 36.375 
Q 56.984375 17.96875 50.515625 8.265625 
Q 44.046875 -1.421875 31.78125 -1.421875 
Q 19.53125 -1.421875 13.0625 8.265625 
Q 6.59375 17.96875 6.59375 36.375 
Q 6.59375 54.828125 13.0625 64.515625 
Q 19.53125 74.21875 31.78125 74.21875 
z
" id="DejaVuSans-48"/>
       </defs>
       <use xlink:href="#DejaVuSans-51"/>
       <use x="63.623047" xlink:href="#DejaVuSans-50"/>
       <use x="127.246094" xlink:href="#DejaVuSans-48"/>
       <use x="190.869141" xlink:href="#DejaVuSans-48"/>
      </g>
     </g>
    </g>
    <g id="ytick_2">
     <g id="line2d_6">
      <g>
       <use style="stroke:#000000;stroke-width:0.8;" x="53.328125" xlink:href="#md3d519cad0" y="198.61207"/>
      </g>
     </g>
     <g id="text_7">
      <!-- 3400 -->
      <g transform="translate(20.878125 202.411289)scale(0.1 -0.1)">
       <defs>
        <path d="M 37.796875 64.3125 
L 12.890625 25.390625 
L 37.796875 25.390625 
z
M 35.203125 72.90625 
L 47.609375 72.90625 
L 47.609375 25.390625 
L 58.015625 25.390625 
L 58.015625 17.1875 
L 47.609375 17.1875 
L 47.609375 0 
L 37.796875 0 
L 37.796875 17.1875 
L 4.890625 17.1875 
L 4.890625 26.703125 
z
" id="DejaVuSans-52"/>
       </defs>
       <use xlink:href="#DejaVuSans-51"/>
       <use x="63.623047" xlink:href="#DejaVuSans-52"/>
       <use x="127.246094" xlink:href="#DejaVuSans-48"/>
       <use x="190.869141" xlink:href="#DejaVuSans-48"/>
      </g>
     </g>
    </g>
    <g id="ytick_3">
     <g id="line2d_7">
      <g>
       <use style="stroke:#000000;stroke-width:0.8;" x="53.328125" xlink:href="#md3d519cad0" y="148.924758"/>
      </g>
     </g>
     <g id="text_8">
      <!-- 3600 -->
      <g transform="translate(20.878125 152.723977)scale(0.1 -0.1)">
       <defs>
        <path d="M 33.015625 40.375 
Q 26.375 40.375 22.484375 35.828125 
Q 18.609375 31.296875 18.609375 23.390625 
Q 18.609375 15.53125 22.484375 10.953125 
Q 26.375 6.390625 33.015625 6.390625 
Q 39.65625 6.390625 43.53125 10.953125 
Q 47.40625 15.53125 47.40625 23.390625 
Q 47.40625 31.296875 43.53125 35.828125 
Q 39.65625 40.375 33.015625 40.375 
z
M 52.59375 71.296875 
L 52.59375 62.3125 
Q 48.875 64.0625 45.09375 64.984375 
Q 41.3125 65.921875 37.59375 65.921875 
Q 27.828125 65.921875 22.671875 59.328125 
Q 17.53125 52.734375 16.796875 39.40625 
Q 19.671875 43.65625 24.015625 45.921875 
Q 28.375 48.1875 33.59375 48.1875 
Q 44.578125 48.1875 50.953125 41.515625 
Q 57.328125 34.859375 57.328125 23.390625 
Q 57.328125 12.15625 50.6875 5.359375 
Q 44.046875 -1.421875 33.015625 -1.421875 
Q 20.359375 -1.421875 13.671875 8.265625 
Q 6.984375 17.96875 6.984375 36.375 
Q 6.984375 53.65625 15.1875 63.9375 
Q 23.390625 74.21875 37.203125 74.21875 
Q 40.921875 74.21875 44.703125 73.484375 
Q 48.484375 72.75 52.59375 71.296875 
z
" id="DejaVuSans-54"/>
       </defs>
       <use xlink:href="#DejaVuSans-51"/>
       <use x="63.623047" xlink:href="#DejaVuSans-54"/>
       <use x="127.246094" xlink:href="#DejaVuSans-48"/>
       <use x="190.869141" xlink:href="#DejaVuSans-48"/>
      </g>
     </g>
    </g>
    <g id="ytick_4">
     <g id="line2d_8">
      <g>
       <use style="stroke:#000000;stroke-width:0.8;" x="53.328125" xlink:href="#md3d519cad0" y="99.237445"/>
      </g>
     </g>
     <g id="text_9">
      <!-- 3800 -->
      <g transform="translate(20.878125 103.036664)scale(0.1 -0.1)">
       <defs>
        <path d="M 31.78125 34.625 
Q 24.75 34.625 20.71875 30.859375 
Q 16.703125 27.09375 16.703125 20.515625 
Q 16.703125 13.921875 20.71875 10.15625 
Q 24.75 6.390625 31.78125 6.390625 
Q 38.8125 6.390625 42.859375 10.171875 
Q 46.921875 13.96875 46.921875 20.515625 
Q 46.921875 27.09375 42.890625 30.859375 
Q 38.875 34.625 31.78125 34.625 
z
M 21.921875 38.8125 
Q 15.578125 40.375 12.03125 44.71875 
Q 8.5 49.078125 8.5 55.328125 
Q 8.5 64.0625 14.71875 69.140625 
Q 20.953125 74.21875 31.78125 74.21875 
Q 42.671875 74.21875 48.875 69.140625 
Q 55.078125 64.0625 55.078125 55.328125 
Q 55.078125 49.078125 51.53125 44.71875 
Q 48 40.375 41.703125 38.8125 
Q 48.828125 37.15625 52.796875 32.3125 
Q 56.78125 27.484375 56.78125 20.515625 
Q 56.78125 9.90625 50.3125 4.234375 
Q 43.84375 -1.421875 31.78125 -1.421875 
Q 19.734375 -1.421875 13.25 4.234375 
Q 6.78125 9.90625 6.78125 20.515625 
Q 6.78125 27.484375 10.78125 32.3125 
Q 14.796875 37.15625 21.921875 38.8125 
z
M 18.3125 54.390625 
Q 18.3125 48.734375 21.84375 45.5625 
Q 25.390625 42.390625 31.78125 42.390625 
Q 38.140625 42.390625 41.71875 45.5625 
Q 45.3125 48.734375 45.3125 54.390625 
Q 45.3125 60.0625 41.71875 63.234375 
Q 38.140625 66.40625 31.78125 66.40625 
Q 25.390625 66.40625 21.84375 63.234375 
Q 18.3125 60.0625 18.3125 54.390625 
z
" id="DejaVuSans-56"/>
       </defs>
       <use xlink:href="#DejaVuSans-51"/>
       <use x="63.623047" xlink:href="#DejaVuSans-56"/>
       <use x="127.246094" xlink:href="#DejaVuSans-48"/>
       <use x="190.869141" xlink:href="#DejaVuSans-48"/>
      </g>
     </g>
    </g>
    <g id="ytick_5">
     <g id="line2d_9">
      <g>
       <use style="stroke:#000000;stroke-width:0.8;" x="53.328125" xlink:href="#md3d519cad0" y="49.550133"/>
      </g>
     </g>
     <g id="text_10">
      <!-- 4000 -->
      <g transform="translate(20.878125 53.349351)scale(0.1 -0.1)">
       <use xlink:href="#DejaVuSans-52"/>
       <use x="63.623047" xlink:href="#DejaVuSans-48"/>
       <use x="127.246094" xlink:href="#DejaVuSans-48"/>
       <use x="190.869141" xlink:href="#DejaVuSans-48"/>
      </g>
     </g>
    </g>
    <g id="text_11">
     <!-- Reached region coverage -->
     <g transform="translate(14.798438 219.136625)rotate(-90)scale(0.1 -0.1)">
      <defs>
       <path d="M 44.390625 34.1875 
Q 47.5625 33.109375 50.5625 29.59375 
Q 53.5625 26.078125 56.59375 19.921875 
L 66.609375 0 
L 56 0 
L 46.6875 18.703125 
Q 43.0625 26.03125 39.671875 28.421875 
Q 36.28125 30.8125 30.421875 30.8125 
L 19.671875 30.8125 
L 19.671875 0 
L 9.8125 0 
L 9.8125 72.90625 
L 32.078125 72.90625 
Q 44.578125 72.90625 50.734375 67.671875 
Q 56.890625 62.453125 56.890625 51.90625 
Q 56.890625 45.015625 53.6875 40.46875 
Q 50.484375 35.9375 44.390625 34.1875 
z
M 19.671875 64.796875 
L 19.671875 38.921875 
L 32.078125 38.921875 
Q 39.203125 38.921875 42.84375 42.21875 
Q 46.484375 45.515625 46.484375 51.90625 
Q 46.484375 58.296875 42.84375 61.546875 
Q 39.203125 64.796875 32.078125 64.796875 
z
" id="DejaVuSans-82"/>
      </defs>
      <use xlink:href="#DejaVuSans-82"/>
      <use x="64.982422" xlink:href="#DejaVuSans-101"/>
      <use x="126.505859" xlink:href="#DejaVuSans-97"/>
      <use x="187.785156" xlink:href="#DejaVuSans-99"/>
      <use x="242.765625" xlink:href="#DejaVuSans-104"/>
      <use x="306.144531" xlink:href="#DejaVuSans-101"/>
      <use x="367.667969" xlink:href="#DejaVuSans-100"/>
      <use x="431.144531" xlink:href="#DejaVuSans-32"/>
      <use x="462.931641" xlink:href="#DejaVuSans-114"/>
      <use x="501.794922" xlink:href="#DejaVuSans-101"/>
      <use x="563.318359" xlink:href="#DejaVuSans-103"/>
      <use x="626.794922" xlink:href="#DejaVuSans-105"/>
      <use x="654.578125" xlink:href="#DejaVuSans-111"/>
      <use x="715.759766" xlink:href="#DejaVuSans-110"/>
      <use x="779.138672" xlink:href="#DejaVuSans-32"/>
      <use x="810.925781" xlink:href="#DejaVuSans-99"/>
      <use x="865.90625" xlink:href="#DejaVuSans-111"/>
      <use x="927.087891" xlink:href="#DejaVuSans-118"/>
      <use x="986.267578" xlink:href="#DejaVuSans-101"/>
      <use x="1047.791016" xlink:href="#DejaVuSans-114"/>
      <use x="1088.904297" xlink:href="#DejaVuSans-97"/>
      <use x="1150.183594" xlink:href="#DejaVuSans-103"/>
      <use x="1213.660156" xlink:href="#DejaVuSans-101"/>
     </g>
    </g>
   </g>
   <g id="line2d_10">
    <path clip-path="url(#p11e3e24798)" d="M 97.968125 93.026531 
L 97.968125 93.026531 
" style="fill:none;stroke:#3f3f3f;stroke-linecap:square;stroke-width:1.5;"/>
   </g>
   <g id="line2d_11">
    <path clip-path="url(#p11e3e24798)" d="M 97.968125 93.026531 
L 97.968125 93.026531 
" style="fill:none;stroke:#3f3f3f;stroke-linecap:square;stroke-width:4.5;"/>
   </g>
   <g id="line2d_12">
    <path clip-path="url(#p11e3e24798)" d="M 187.248125 105.696796 
L 187.248125 98.492136 
" style="fill:none;stroke:#3f3f3f;stroke-linecap:square;stroke-width:1.5;"/>
   </g>
   <g id="line2d_13">
    <path clip-path="url(#p11e3e24798)" d="M 187.248125 105.696796 
L 187.248125 98.740572 
" style="fill:none;stroke:#3f3f3f;stroke-linecap:square;stroke-width:4.5;"/>
   </g>
   <g id="line2d_14">
    <path clip-path="url(#p11e3e24798)" d="M 276.528125 216.00263 
L 276.528125 185.196496 
" style="fill:none;stroke:#3f3f3f;stroke-linecap:square;stroke-width:1.5;"/>
   </g>
   <g id="line2d_15">
    <path clip-path="url(#p11e3e24798)" d="M 276.528125 214.015137 
L 276.528125 185.196496 
" style="fill:none;stroke:#3f3f3f;stroke-linecap:square;stroke-width:4.5;"/>
   </g>
   <g id="line2d_16">
    <path clip-path="url(#p11e3e24798)" d="M 365.808125 222.213544 
L 365.808125 144.4529 
" style="fill:none;stroke:#3f3f3f;stroke-linecap:square;stroke-width:1.5;"/>
   </g>
   <g id="line2d_17">
    <path clip-path="url(#p11e3e24798)" d="M 365.808125 218.300668 
L 365.808125 180.60042 
" style="fill:none;stroke:#3f3f3f;stroke-linecap:square;stroke-width:4.5;"/>
   </g>
   <g id="patch_3">
    <path d="M 53.328125 248.299383 
L 53.328125 49.550133 
" style="fill:none;stroke:#000000;stroke-linecap:square;stroke-linejoin:miter;stroke-width:0.8;"/>
   </g>
   <g id="patch_4">
    <path d="M 97.968125 288.430125 
L 365.808125 288.430125 
" style="fill:none;stroke:#000000;stroke-linecap:square;stroke-linejoin:miter;stroke-width:0.8;"/>
   </g>
   <g id="PathCollection_1">
    <defs>
     <path d="M 0 1.5 
C 0.397805 1.5 0.77937 1.341951 1.06066 1.06066 
C 1.341951 0.77937 1.5 0.397805 1.5 0 
C 1.5 -0.397805 1.341951 -0.77937 1.06066 -1.06066 
C 0.77937 -1.341951 0.397805 -1.5 0 -1.5 
C -0.397805 -1.5 -0.77937 -1.341951 -1.06066 -1.06066 
C -1.341951 -0.77937 -1.5 -0.397805 -1.5 0 
C -1.5 0.397805 -1.341951 0.77937 -1.06066 1.06066 
C -0.77937 1.341951 -0.397805 1.5 0 1.5 
z
" id="m99e853344d" style="stroke:#3f3f3f;"/>
    </defs>
    <g clip-path="url(#p11e3e24798)">
     <use style="fill:#ffffff;stroke:#3f3f3f;" x="97.968125" xlink:href="#m99e853344d" y="93.026531"/>
    </g>
   </g>
   <g id="PathCollection_2">
    <g clip-path="url(#p11e3e24798)">
     <use style="fill:#ffffff;stroke:#3f3f3f;" x="187.248125" xlink:href="#m99e853344d" y="99.982755"/>
    </g>
   </g>
   <g id="PathCollection_3">
    <g clip-path="url(#p11e3e24798)">
     <use style="fill:#ffffff;stroke:#3f3f3f;" x="276.528125" xlink:href="#m99e853344d" y="196.873014"/>
    </g>
   </g>
   <g id="PathCollection_4">
    <g clip-path="url(#p11e3e24798)">
     <use style="fill:#ffffff;stroke:#3f3f3f;" x="365.808125" xlink:href="#m99e853344d" y="204.822984"/>
    </g>
   </g>
   <g id="text_12">
    <!-- libjpeg-turbo-07-2017 (24h, 4 trials/fuzzer) -->
    <g transform="translate(103.243438 16.318125)scale(0.12 -0.12)">
     <defs>
      <path d="M 48.6875 27.296875 
Q 48.6875 37.203125 44.609375 42.84375 
Q 40.53125 48.484375 33.40625 48.484375 
Q 26.265625 48.484375 22.1875 42.84375 
Q 18.109375 37.203125 18.109375 27.296875 
Q 18.109375 17.390625 22.1875 11.75 
Q 26.265625 6.109375 33.40625 6.109375 
Q 40.53125 6.109375 44.609375 11.75 
Q 48.6875 17.390625 48.6875 27.296875 
z
M 18.109375 46.390625 
Q 20.953125 51.265625 25.265625 53.625 
Q 29.59375 56 35.59375 56 
Q 45.5625 56 51.78125 48.09375 
Q 58.015625 40.1875 58.015625 27.296875 
Q 58.015625 14.40625 51.78125 6.484375 
Q 45.5625 -1.421875 35.59375 -1.421875 
Q 29.59375 -1.421875 25.265625 0.953125 
Q 20.953125 3.328125 18.109375 8.203125 
L 18.109375 0 
L 9.078125 0 
L 9.078125 75.984375 
L 18.109375 75.984375 
z
" id="DejaVuSans-98"/>
      <path d="M 9.421875 54.6875 
L 18.40625 54.6875 
L 18.40625 -0.984375 
Q 18.40625 -11.421875 14.421875 -16.109375 
Q 10.453125 -20.796875 1.609375 -20.796875 
L -1.8125 -20.796875 
L -1.8125 -13.1875 
L 0.59375 -13.1875 
Q 5.71875 -13.1875 7.5625 -10.8125 
Q 9.421875 -8.453125 9.421875 -0.984375 
z
M 9.421875 75.984375 
L 18.40625 75.984375 
L 18.40625 64.59375 
L 9.421875 64.59375 
z
" id="DejaVuSans-106"/>
      <path d="M 4.890625 31.390625 
L 31.203125 31.390625 
L 31.203125 23.390625 
L 4.890625 23.390625 
z
" id="DejaVuSans-45"/>
      <path d="M 8.203125 72.90625 
L 55.078125 72.90625 
L 55.078125 68.703125 
L 28.609375 0 
L 18.3125 0 
L 43.21875 64.59375 
L 8.203125 64.59375 
z
" id="DejaVuSans-55"/>
      <path d="M 12.40625 8.296875 
L 28.515625 8.296875 
L 28.515625 63.921875 
L 10.984375 60.40625 
L 10.984375 69.390625 
L 28.421875 72.90625 
L 38.28125 72.90625 
L 38.28125 8.296875 
L 54.390625 8.296875 
L 54.390625 0 
L 12.40625 0 
z
" id="DejaVuSans-49"/>
      <path d="M 11.71875 12.40625 
L 22.015625 12.40625 
L 22.015625 4 
L 14.015625 -11.625 
L 7.71875 -11.625 
L 11.71875 4 
z
" id="DejaVuSans-44"/>
      <path d="M 25.390625 72.90625 
L 33.6875 72.90625 
L 8.296875 -9.28125 
L 0 -9.28125 
z
" id="DejaVuSans-47"/>
     </defs>
     <use xlink:href="#DejaVuSans-108"/>
     <use x="27.783203" xlink:href="#DejaVuSans-105"/>
     <use x="55.566406" xlink:href="#DejaVuSans-98"/>
     <use x="119.042969" xlink:href="#DejaVuSans-106"/>
     <use x="146.826172" xlink:href="#DejaVuSans-112"/>
     <use x="210.302734" xlink:href="#DejaVuSans-101"/>
     <use x="271.826172" xlink:href="#DejaVuSans-103"/>
     <use x="335.302734" xlink:href="#DejaVuSans-45"/>
     <use x="371.386719" xlink:href="#DejaVuSans-116"/>
     <use x="410.595703" xlink:href="#DejaVuSans-117"/>
     <use x="473.974609" xlink:href="#DejaVuSans-114"/>
     <use x="515.087891" xlink:href="#DejaVuSans-98"/>
     <use x="578.564453" xlink:href="#DejaVuSans-111"/>
     <use x="641.621094" xlink:href="#DejaVuSans-45"/>
     <use x="677.705078" xlink:href="#DejaVuSans-48"/>
     <use x="741.328125" xlink:href="#DejaVuSans-55"/>
     <use x="804.951172" xlink:href="#DejaVuSans-45"/>
     <use x="841.035156" xlink:href="#DejaVuSans-50"/>
     <use x="904.658203" xlink:href="#DejaVuSans-48"/>
     <use x="968.28125" xlink:href="#DejaVuSans-49"/>
     <use x="1031.904297" xlink:href="#DejaVuSans-55"/>
     <use x="1095.527344" xlink:href="#DejaVuSans-32"/>
     <use x="1127.314453" xlink:href="#DejaVuSans-40"/>
     <use x="1166.328125" xlink:href="#DejaVuSans-50"/>
     <use x="1229.951172" xlink:href="#DejaVuSans-52"/>
     <use x="1293.574219" xlink:href="#DejaVuSans-104"/>
     <use x="1356.953125" xlink:href="#DejaVuSans-44"/>
     <use x="1388.740234" xlink:href="#DejaVuSans-32"/>
     <use x="1420.527344" xlink:href="#DejaVuSans-52"/>
     <use x="1484.150391" xlink:href="#DejaVuSans-32"/>
     <use x="1515.9375" xlink:href="#DejaVuSans-116"/>
     <use x="1555.146484" xlink:href="#DejaVuSans-114"/>
     <use x="1596.259766" xlink:href="#DejaVuSans-105"/>
     <use x="1624.042969" xlink:href="#DejaVuSans-97"/>
     <use x="1685.322266" xlink:href="#DejaVuSans-108"/>
     <use x="1713.105469" xlink:href="#DejaVuSans-115"/>
     <use x="1765.205078" xlink:href="#DejaVuSans-47"/>
     <use x="1798.896484" xlink:href="#DejaVuSans-102"/>
     <use x="1834.101562" xlink:href="#DejaVuSans-117"/>
     <use x="1897.480469" xlink:href="#DejaVuSans-122"/>
     <use x="1949.970703" xlink:href="#DejaVuSans-122"/>
     <use x="2002.460938" xlink:href="#DejaVuSans-101"/>
     <use x="2063.984375" xlink:href="#DejaVuSans-114"/>
     <use x="2105.097656" xlink:href="#DejaVuSans-41"/>
    </g>
   </g>
  </g>
 </g>
 <defs>
  <clipPath id="p11e3e24798">
   <rect height="266.112" width="357.12" x="53.328125" y="22.318125"/>
  </clipPath>
 </defs>
</svg>
