<?xml version="1.0" encoding="utf-8" standalone="no"?>
<!DOCTYPE svg PUBLIC "-//W3C//DTD SVG 1.1//EN"
  "http://www.w3.org/Graphics/SVG/1.1/DTD/svg11.dtd">
<!-- Created with matplotlib (https://matplotlib.org/) -->
<svg height="355.523584pt" version="1.1" viewBox="0 0 417.648125 355.523584" width="417.648125pt" xmlns="http://www.w3.org/2000/svg" xmlns:xlink="http://www.w3.org/1999/xlink">
 <metadata>
  <rdf:RDF xmlns:cc="http://creativecommons.org/ns#" xmlns:dc="http://purl.org/dc/elements/1.1/" xmlns:rdf="http://www.w3.org/1999/02/22-rdf-syntax-ns#">
   <cc:Work>
    <dc:type rdf:resource="http://purl.org/dc/dcmitype/StillImage"/>
    <dc:date>2020-10-25T11:33:03.260783</dc:date>
    <dc:format>image/svg+xml</dc:format>
    <dc:creator>
     <cc:Agent>
      <dc:title>Matplotlib v3.3.2, https://matplotlib.org/</dc:title>
     </cc:Agent>
    </dc:creator>
   </cc:Work>
  </rdf:RDF>
 </metadata>
 <defs>
  <style type="text/css">*{stroke-linecap:butt;stroke-linejoin:round;}</style>
 </defs>
 <g id="figure_1">
  <g id="patch_1">
   <path d="M 0 355.523584 
L 417.648125 355.523584 
L 417.648125 0 
L 0 0 
z
" style="fill:#ffffff;"/>
  </g>
  <g id="axes_1">
   <g id="patch_2">
    <path d="M 53.328125 288.430125 
L 410.448125 288.430125 
L 410.448125 22.318125 
L 53.328125 22.318125 
z
" style="fill:#ffffff;"/>
   </g>
   <g id="PolyCollection_1">
    <defs>
     <path d="M 98.024912 -83.081859 
L 97.911338 -83.081859 
L 97.901294 -85.486178 
L 97.88989 -87.890497 
L 97.877023 -90.294816 
L 97.862595 -92.699136 
L 97.846515 -95.103455 
L 97.828706 -97.507774 
L 97.809103 -99.912093 
L 97.787658 -102.316412 
L 97.764344 -104.720732 
L 97.739153 -107.125051 
L 97.712101 -109.52937 
L 97.683231 -111.933689 
L 97.65261 -114.338008 
L 97.620332 -116.742328 
L 97.586517 -119.146647 
L 97.551312 -121.550966 
L 97.514887 -123.955285 
L 97.477434 -126.359604 
L 97.439168 -128.763924 
L 97.400318 -131.168243 
L 97.36113 -133.572562 
L 97.321861 -135.976881 
L 97.282773 -138.3812 
L 97.244138 -140.78552 
L 97.206223 -143.189839 
L 97.169299 -145.594158 
L 97.133628 -147.998477 
L 97.099467 -150.402796 
L 97.067063 -152.807116 
L 97.036652 -155.211435 
L 97.008456 -157.615754 
L 96.98268 -160.020073 
L 96.959517 -162.424392 
L 96.939135 -164.828712 
L 96.921688 -167.233031 
L 96.907304 -169.63735 
L 96.896088 -172.041669 
L 96.888121 -174.445988 
L 96.883454 -176.850307 
L 96.882107 -179.254627 
L 96.884071 -181.658946 
L 96.889301 -184.063265 
L 96.897715 -186.467584 
L 96.909199 -188.871903 
L 96.923598 -191.276223 
L 96.940723 -193.680542 
L 96.960351 -196.084861 
L 96.982226 -198.48918 
L 97.006066 -200.893499 
L 97.031565 -203.297819 
L 97.0584 -205.702138 
L 97.086236 -208.106457 
L 97.114737 -210.510776 
L 97.143571 -212.915095 
L 97.172419 -215.319415 
L 97.200982 -217.723734 
L 97.22899 -220.128053 
L 97.256206 -222.532372 
L 97.282433 -224.936691 
L 97.307519 -227.341011 
L 97.331359 -229.74533 
L 97.353895 -232.149649 
L 97.375114 -234.553968 
L 97.395052 -236.958287 
L 97.413783 -239.362607 
L 97.431416 -241.766926 
L 97.448092 -244.171245 
L 97.463972 -246.575564 
L 97.479232 -248.979883 
L 97.494053 -251.384203 
L 97.508616 -253.788522 
L 97.523093 -256.192841 
L 97.53764 -258.59716 
L 97.55239 -261.001479 
L 97.567454 -263.405799 
L 97.58291 -265.810118 
L 97.598808 -268.214437 
L 97.615166 -270.618756 
L 97.63197 -273.023075 
L 97.64918 -275.427394 
L 97.66673 -277.831714 
L 97.68453 -280.236033 
L 97.702475 -282.640352 
L 97.720448 -285.044671 
L 97.738322 -287.44899 
L 97.755969 -289.85331 
L 97.773263 -292.257629 
L 97.790082 -294.661948 
L 97.806315 -297.066267 
L 97.821863 -299.470586 
L 97.836642 -301.874906 
L 97.850582 -304.279225 
L 97.863632 -306.683544 
L 97.875758 -309.087863 
L 97.886941 -311.492182 
L 97.897178 -313.896502 
L 97.906481 -316.300821 
L 97.914873 -318.70514 
L 97.92239 -321.109459 
L 98.01386 -321.109459 
L 98.01386 -321.109459 
L 98.021377 -318.70514 
L 98.029769 -316.300821 
L 98.039072 -313.896502 
L 98.049309 -311.492182 
L 98.060492 -309.087863 
L 98.072618 -306.683544 
L 98.085668 -304.279225 
L 98.099608 -301.874906 
L 98.114387 -299.470586 
L 98.129935 -297.066267 
L 98.146168 -294.661948 
L 98.162987 -292.257629 
L 98.180281 -289.85331 
L 98.197928 -287.44899 
L 98.215802 -285.044671 
L 98.233775 -282.640352 
L 98.25172 -280.236033 
L 98.26952 -277.831714 
L 98.28707 -275.427394 
L 98.30428 -273.023075 
L 98.321084 -270.618756 
L 98.337442 -268.214437 
L 98.35334 -265.810118 
L 98.368796 -263.405799 
L 98.38386 -261.001479 
L 98.39861 -258.59716 
L 98.413157 -256.192841 
L 98.427634 -253.788522 
L 98.442197 -251.384203 
L 98.457018 -248.979883 
L 98.472278 -246.575564 
L 98.488158 -244.171245 
L 98.504834 -241.766926 
L 98.522467 -239.362607 
L 98.541198 -236.958287 
L 98.561136 -234.553968 
L 98.582355 -232.149649 
L 98.604891 -229.74533 
L 98.628731 -227.341011 
L 98.653817 -224.936691 
L 98.680044 -222.532372 
L 98.70726 -220.128053 
L 98.735268 -217.723734 
L 98.763831 -215.319415 
L 98.792679 -212.915095 
L 98.821513 -210.510776 
L 98.850014 -208.106457 
L 98.87785 -205.702138 
L 98.904685 -203.297819 
L 98.930184 -200.893499 
L 98.954024 -198.48918 
L 98.975899 -196.084861 
L 98.995527 -193.680542 
L 99.012652 -191.276223 
L 99.027051 -188.871903 
L 99.038535 -186.467584 
L 99.046949 -184.063265 
L 99.052179 -181.658946 
L 99.054143 -179.254627 
L 99.052796 -176.850307 
L 99.048129 -174.445988 
L 99.040162 -172.041669 
L 99.028946 -169.63735 
L 99.014562 -167.233031 
L 98.997115 -164.828712 
L 98.976733 -162.424392 
L 98.95357 -160.020073 
L 98.927794 -157.615754 
L 98.899598 -155.211435 
L 98.869187 -152.807116 
L 98.836783 -150.402796 
L 98.802622 -147.998477 
L 98.766951 -145.594158 
L 98.730027 -143.189839 
L 98.692112 -140.78552 
L 98.653477 -138.3812 
L 98.614389 -135.976881 
L 98.57512 -133.572562 
L 98.535932 -131.168243 
L 98.497082 -128.763924 
L 98.458816 -126.359604 
L 98.421363 -123.955285 
L 98.384938 -121.550966 
L 98.349733 -119.146647 
L 98.315918 -116.742328 
L 98.28364 -114.338008 
L 98.253019 -111.933689 
L 98.224149 -109.52937 
L 98.197097 -107.125051 
L 98.171906 -104.720732 
L 98.148592 -102.316412 
L 98.127147 -99.912093 
L 98.107544 -97.507774 
L 98.089735 -95.103455 
L 98.073655 -92.699136 
L 98.059227 -90.294816 
L 98.04636 -87.890497 
L 98.034956 -85.486178 
L 98.024912 -83.081859 
z
" id="me31783ea3e" style="stroke:#3f3f3f;stroke-width:1.5;"/>
    </defs>
    <g clip-path="url(#p778e5f9643)">
     <use style="fill:#c03d3e;stroke:#3f3f3f;stroke-width:1.5;" x="0" xlink:href="#me31783ea3e" y="355.523584"/>
    </g>
   </g>
   <g id="PolyCollection_2">
    <defs>
     <path d="M 187.544852 -160.814428 
L 186.951398 -160.814428 
L 186.901361 -161.677384 
L 186.844985 -162.540339 
L 186.781867 -163.403294 
L 186.711652 -164.266249 
L 186.634045 -165.129204 
L 186.54883 -165.992159 
L 186.455885 -166.855115 
L 186.355194 -167.71807 
L 186.246865 -168.581025 
L 186.131139 -169.44398 
L 186.008407 -170.306935 
L 185.879212 -171.16989 
L 185.744253 -172.032845 
L 185.604395 -172.895801 
L 185.460656 -173.758756 
L 185.314205 -174.621711 
L 185.166349 -175.484666 
L 185.018517 -176.347621 
L 184.872238 -177.210576 
L 184.729116 -178.073531 
L 184.590804 -178.936487 
L 184.458966 -179.799442 
L 184.335253 -180.662397 
L 184.221259 -181.525352 
L 184.118489 -182.388307 
L 184.028325 -183.251262 
L 183.951995 -184.114217 
L 183.890537 -184.977173 
L 183.844779 -185.840128 
L 183.815316 -186.703083 
L 183.802492 -187.566038 
L 183.806391 -188.428993 
L 183.826834 -189.291948 
L 183.863383 -190.154904 
L 183.915345 -191.017859 
L 183.981791 -191.880814 
L 184.061577 -192.743769 
L 184.153365 -193.606724 
L 184.255661 -194.469679 
L 184.366838 -195.332634 
L 184.48518 -196.19559 
L 184.608913 -197.058545 
L 184.736245 -197.9215 
L 184.865403 -198.784455 
L 184.994665 -199.64741 
L 185.122394 -200.510365 
L 185.247067 -201.37332 
L 185.367301 -202.236276 
L 185.481875 -203.099231 
L 185.589746 -203.962186 
L 185.69006 -204.825141 
L 185.782163 -205.688096 
L 185.8656 -206.551051 
L 185.940117 -207.414007 
L 186.005654 -208.276962 
L 186.062332 -209.139917 
L 186.110446 -210.002872 
L 186.150444 -210.865827 
L 186.182911 -211.728782 
L 186.208545 -212.591737 
L 186.22814 -213.454693 
L 186.242558 -214.317648 
L 186.252708 -215.180603 
L 186.259523 -216.043558 
L 186.263937 -216.906513 
L 186.26686 -217.769468 
L 186.269167 -218.632423 
L 186.271668 -219.495379 
L 186.275104 -220.358334 
L 186.280126 -221.221289 
L 186.28729 -222.084244 
L 186.297045 -222.947199 
L 186.309733 -223.810154 
L 186.325587 -224.673109 
L 186.344731 -225.536065 
L 186.367185 -226.39902 
L 186.392873 -227.261975 
L 186.421632 -228.12493 
L 186.45322 -228.987885 
L 186.487332 -229.85084 
L 186.523608 -230.713796 
L 186.561651 -231.576751 
L 186.601039 -232.439706 
L 186.641335 -233.302661 
L 186.682105 -234.165616 
L 186.722924 -235.028571 
L 186.763388 -235.891526 
L 186.803121 -236.754482 
L 186.841787 -237.617437 
L 186.879088 -238.480392 
L 186.91477 -239.343347 
L 186.948629 -240.206302 
L 186.980504 -241.069257 
L 187.010283 -241.932212 
L 187.037894 -242.795168 
L 187.063309 -243.658123 
L 187.086534 -244.521078 
L 187.107608 -245.384033 
L 187.126599 -246.246988 
L 187.369651 -246.246988 
L 187.369651 -246.246988 
L 187.388642 -245.384033 
L 187.409716 -244.521078 
L 187.432941 -243.658123 
L 187.458356 -242.795168 
L 187.485967 -241.932212 
L 187.515746 -241.069257 
L 187.547621 -240.206302 
L 187.58148 -239.343347 
L 187.617162 -238.480392 
L 187.654463 -237.617437 
L 187.693129 -236.754482 
L 187.732862 -235.891526 
L 187.773326 -235.028571 
L 187.814145 -234.165616 
L 187.854915 -233.302661 
L 187.895211 -232.439706 
L 187.934599 -231.576751 
L 187.972642 -230.713796 
L 188.008918 -229.85084 
L 188.04303 -228.987885 
L 188.074618 -228.12493 
L 188.103377 -227.261975 
L 188.129065 -226.39902 
L 188.151519 -225.536065 
L 188.170663 -224.673109 
L 188.186517 -223.810154 
L 188.199205 -222.947199 
L 188.20896 -222.084244 
L 188.216124 -221.221289 
L 188.221146 -220.358334 
L 188.224582 -219.495379 
L 188.227083 -218.632423 
L 188.22939 -217.769468 
L 188.232313 -216.906513 
L 188.236727 -216.043558 
L 188.243542 -215.180603 
L 188.253692 -214.317648 
L 188.26811 -213.454693 
L 188.287705 -212.591737 
L 188.313339 -211.728782 
L 188.345806 -210.865827 
L 188.385804 -210.002872 
L 188.433918 -209.139917 
L 188.490596 -208.276962 
L 188.556133 -207.414007 
L 188.63065 -206.551051 
L 188.714087 -205.688096 
L 188.80619 -204.825141 
L 188.906504 -203.962186 
L 189.014375 -203.099231 
L 189.128949 -202.236276 
L 189.249183 -201.37332 
L 189.373856 -200.510365 
L 189.501585 -199.64741 
L 189.630847 -198.784455 
L 189.760005 -197.9215 
L 189.887337 -197.058545 
L 190.01107 -196.19559 
L 190.129412 -195.332634 
L 190.240589 -194.469679 
L 190.342885 -193.606724 
L 190.434673 -192.743769 
L 190.514459 -191.880814 
L 190.580905 -191.017859 
L 190.632867 -190.154904 
L 190.669416 -189.291948 
L 190.689859 -188.428993 
L 190.693758 -187.566038 
L 190.680934 -186.703083 
L 190.651471 -185.840128 
L 190.605713 -184.977173 
L 190.544255 -184.114217 
L 190.467925 -183.251262 
L 190.377761 -182.388307 
L 190.274991 -181.525352 
L 190.160997 -180.662397 
L 190.037284 -179.799442 
L 189.905446 -178.936487 
L 189.767134 -178.073531 
L 189.624012 -177.210576 
L 189.477733 -176.347621 
L 189.329901 -175.484666 
L 189.182045 -174.621711 
L 189.035594 -173.758756 
L 188.891855 -172.895801 
L 188.751997 -172.032845 
L 188.617038 -171.16989 
L 188.487843 -170.306935 
L 188.365111 -169.44398 
L 188.249385 -168.581025 
L 188.141056 -167.71807 
L 188.040365 -166.855115 
L 187.94742 -165.992159 
L 187.862205 -165.129204 
L 187.784598 -164.266249 
L 187.714383 -163.403294 
L 187.651265 -162.540339 
L 187.594889 -161.677384 
L 187.544852 -160.814428 
z
" id="m5f9e980925" style="stroke:#3f3f3f;stroke-width:1.5;"/>
    </defs>
    <g clip-path="url(#p778e5f9643)">
     <use style="fill:#c7c7c7;stroke:#3f3f3f;stroke-width:1.5;" x="0" xlink:href="#m5f9e980925" y="355.523584"/>
    </g>
   </g>
   <g id="PolyCollection_3">
    <defs>
     <path d="M 277.310325 -111.182917 
L 275.745925 -111.182917 
L 275.622233 -111.512011 
L 275.484302 -111.841106 
L 275.331461 -112.1702 
L 275.163178 -112.499295 
L 274.97909 -112.828389 
L 274.779034 -113.157484 
L 274.563074 -113.486578 
L 274.331527 -113.815673 
L 274.084987 -114.144768 
L 273.824339 -114.473862 
L 273.550772 -114.802957 
L 273.265782 -115.132051 
L 272.971167 -115.461146 
L 272.669016 -115.79024 
L 272.361686 -116.119335 
L 272.05177 -116.448429 
L 271.74206 -116.777524 
L 271.435499 -117.106618 
L 271.135125 -117.435713 
L 270.844013 -117.764807 
L 270.565209 -118.093902 
L 270.301667 -118.422996 
L 270.056179 -118.752091 
L 269.831315 -119.081185 
L 269.629359 -119.41028 
L 269.452261 -119.739374 
L 269.301586 -120.068469 
L 269.178485 -120.397563 
L 269.083664 -120.726658 
L 269.017378 -121.055752 
L 268.979427 -121.384847 
L 268.969171 -121.713941 
L 268.98555 -122.043036 
L 269.027125 -122.37213 
L 269.092116 -122.701225 
L 269.178458 -123.030319 
L 269.283857 -123.359414 
L 269.405852 -123.688508 
L 269.541877 -124.017603 
L 269.689323 -124.346697 
L 269.845602 -124.675792 
L 270.008196 -125.004886 
L 270.174713 -125.333981 
L 270.342926 -125.663076 
L 270.510812 -125.99217 
L 270.676575 -126.321265 
L 270.838672 -126.650359 
L 270.995817 -126.979454 
L 271.146992 -127.308548 
L 271.291437 -127.637643 
L 271.428648 -127.966737 
L 271.558363 -128.295832 
L 271.680539 -128.624926 
L 271.795338 -128.954021 
L 271.903102 -129.283115 
L 272.004327 -129.61221 
L 272.099645 -129.941304 
L 272.189792 -130.270399 
L 272.275589 -130.599493 
L 272.357916 -130.928588 
L 272.43769 -131.257682 
L 272.515841 -131.586777 
L 272.593296 -131.915871 
L 272.670952 -132.244966 
L 272.749661 -132.57406 
L 272.830216 -132.903155 
L 272.913327 -133.232249 
L 272.999614 -133.561344 
L 273.08959 -133.890438 
L 273.183652 -134.219533 
L 273.282077 -134.548627 
L 273.385011 -134.877722 
L 273.492468 -135.206816 
L 273.604336 -135.535911 
L 273.720375 -135.865005 
L 273.840226 -136.1941 
L 273.96342 -136.523194 
L 274.089394 -136.852289 
L 274.217501 -137.181384 
L 274.347029 -137.510478 
L 274.477218 -137.839573 
L 274.607282 -138.168667 
L 274.736421 -138.497762 
L 274.863848 -138.826856 
L 274.988799 -139.155951 
L 275.110556 -139.485045 
L 275.228454 -139.81414 
L 275.341899 -140.143234 
L 275.450375 -140.472329 
L 275.553451 -140.801423 
L 275.650785 -141.130518 
L 275.742125 -141.459612 
L 275.827309 -141.788707 
L 275.906264 -142.117801 
L 275.978994 -142.446896 
L 276.045583 -142.77599 
L 276.106176 -143.105085 
L 276.160982 -143.434179 
L 276.210252 -143.763274 
L 276.845998 -143.763274 
L 276.845998 -143.763274 
L 276.895268 -143.434179 
L 276.950074 -143.105085 
L 277.010667 -142.77599 
L 277.077256 -142.446896 
L 277.149986 -142.117801 
L 277.228941 -141.788707 
L 277.314125 -141.459612 
L 277.405465 -141.130518 
L 277.502799 -140.801423 
L 277.605875 -140.472329 
L 277.714351 -140.143234 
L 277.827796 -139.81414 
L 277.945694 -139.485045 
L 278.067451 -139.155951 
L 278.192402 -138.826856 
L 278.319829 -138.497762 
L 278.448968 -138.168667 
L 278.579032 -137.839573 
L 278.709221 -137.510478 
L 278.838749 -137.181384 
L 278.966856 -136.852289 
L 279.09283 -136.523194 
L 279.216024 -136.1941 
L 279.335875 -135.865005 
L 279.451914 -135.535911 
L 279.563782 -135.206816 
L 279.671239 -134.877722 
L 279.774173 -134.548627 
L 279.872598 -134.219533 
L 279.96666 -133.890438 
L 280.056636 -133.561344 
L 280.142923 -133.232249 
L 280.226034 -132.903155 
L 280.306589 -132.57406 
L 280.385298 -132.244966 
L 280.462954 -131.915871 
L 280.540409 -131.586777 
L 280.61856 -131.257682 
L 280.698334 -130.928588 
L 280.780661 -130.599493 
L 280.866458 -130.270399 
L 280.956605 -129.941304 
L 281.051923 -129.61221 
L 281.153148 -129.283115 
L 281.260912 -128.954021 
L 281.375711 -128.624926 
L 281.497887 -128.295832 
L 281.627602 -127.966737 
L 281.764813 -127.637643 
L 281.909258 -127.308548 
L 282.060433 -126.979454 
L 282.217578 -126.650359 
L 282.379675 -126.321265 
L 282.545438 -125.99217 
L 282.713324 -125.663076 
L 282.881537 -125.333981 
L 283.048054 -125.004886 
L 283.210648 -124.675792 
L 283.366927 -124.346697 
L 283.514373 -124.017603 
L 283.650398 -123.688508 
L 283.772393 -123.359414 
L 283.877792 -123.030319 
L 283.964134 -122.701225 
L 284.029125 -122.37213 
L 284.0707 -122.043036 
L 284.087079 -121.713941 
L 284.076823 -121.384847 
L 284.038872 -121.055752 
L 283.972586 -120.726658 
L 283.877765 -120.397563 
L 283.754664 -120.068469 
L 283.603989 -119.739374 
L 283.426891 -119.41028 
L 283.224935 -119.081185 
L 283.000071 -118.752091 
L 282.754583 -118.422996 
L 282.491041 -118.093902 
L 282.212237 -117.764807 
L 281.921125 -117.435713 
L 281.620751 -117.106618 
L 281.31419 -116.777524 
L 281.00448 -116.448429 
L 280.694564 -116.119335 
L 280.387234 -115.79024 
L 280.085083 -115.461146 
L 279.790468 -115.132051 
L 279.505478 -114.802957 
L 279.231911 -114.473862 
L 278.971263 -114.144768 
L 278.724723 -113.815673 
L 278.493176 -113.486578 
L 278.277216 -113.157484 
L 278.07716 -112.828389 
L 277.893072 -112.499295 
L 277.724789 -112.1702 
L 277.571948 -111.841106 
L 277.434017 -111.512011 
L 277.310325 -111.182917 
z
" id="mc528318d92" style="stroke:#3f3f3f;stroke-width:1.5;"/>
    </defs>
    <g clip-path="url(#p778e5f9643)">
     <use style="fill:#9fd495;stroke:#3f3f3f;stroke-width:1.5;" x="0" xlink:href="#mc528318d92" y="355.523584"/>
    </g>
   </g>
   <g id="PolyCollection_4">
    <defs>
     <path d="M 367.750187 -79.189459 
L 363.866063 -79.189459 
L 363.536996 -79.251673 
L 363.165895 -79.313887 
L 362.74993 -79.376101 
L 362.286505 -79.438314 
L 361.773345 -79.500528 
L 361.208563 -79.562742 
L 360.590747 -79.624956 
L 359.919031 -79.68717 
L 359.193156 -79.749383 
L 358.413536 -79.811597 
L 357.581293 -79.873811 
L 356.698291 -79.936025 
L 355.767148 -79.998239 
L 354.791231 -80.060452 
L 353.77463 -80.122666 
L 352.722114 -80.18488 
L 351.639068 -80.247094 
L 350.531416 -80.309308 
L 349.405518 -80.371521 
L 348.268069 -80.433735 
L 347.125974 -80.495949 
L 345.986225 -80.558163 
L 344.855776 -80.620377 
L 343.741409 -80.68259 
L 342.649621 -80.744804 
L 341.586509 -80.807018 
L 340.557668 -80.869232 
L 339.568111 -80.931446 
L 338.6222 -80.993659 
L 337.723595 -81.055873 
L 336.875232 -81.118087 
L 336.079312 -81.180301 
L 335.33731 -81.242515 
L 334.650006 -81.304728 
L 334.017533 -81.366942 
L 333.439432 -81.429156 
L 332.914728 -81.49137 
L 332.442009 -81.553584 
L 332.019513 -81.615797 
L 331.64522 -81.678011 
L 331.316941 -81.740225 
L 331.032411 -81.802439 
L 330.789375 -81.864653 
L 330.585666 -81.926866 
L 330.419283 -81.98908 
L 330.288454 -82.051294 
L 330.191695 -82.113508 
L 330.127848 -82.175722 
L 330.096125 -82.237935 
L 330.096125 -82.300149 
L 330.127848 -82.362363 
L 330.191695 -82.424577 
L 330.288454 -82.486791 
L 330.419283 -82.549004 
L 330.585666 -82.611218 
L 330.789375 -82.673432 
L 331.032411 -82.735646 
L 331.316941 -82.79786 
L 331.64522 -82.860073 
L 332.019513 -82.922287 
L 332.442009 -82.984501 
L 332.914728 -83.046715 
L 333.439432 -83.108929 
L 334.017533 -83.171142 
L 334.650006 -83.233356 
L 335.33731 -83.29557 
L 336.079312 -83.357784 
L 336.875232 -83.419998 
L 337.723595 -83.482211 
L 338.6222 -83.544425 
L 339.568111 -83.606639 
L 340.557668 -83.668853 
L 341.586509 -83.731067 
L 342.649621 -83.79328 
L 343.741409 -83.855494 
L 344.855776 -83.917708 
L 345.986225 -83.979922 
L 347.125974 -84.042136 
L 348.268069 -84.10435 
L 349.405518 -84.166563 
L 350.531416 -84.228777 
L 351.639068 -84.290991 
L 352.722114 -84.353205 
L 353.77463 -84.415419 
L 354.791231 -84.477632 
L 355.767148 -84.539846 
L 356.698291 -84.60206 
L 357.581293 -84.664274 
L 358.413536 -84.726488 
L 359.193156 -84.788701 
L 359.919031 -84.850915 
L 360.590747 -84.913129 
L 361.208563 -84.975343 
L 361.773345 -85.037557 
L 362.286505 -85.09977 
L 362.74993 -85.161984 
L 363.165895 -85.224198 
L 363.536996 -85.286412 
L 363.866063 -85.348626 
L 367.750187 -85.348626 
L 367.750187 -85.348626 
L 368.079254 -85.286412 
L 368.450355 -85.224198 
L 368.86632 -85.161984 
L 369.329745 -85.09977 
L 369.842905 -85.037557 
L 370.407687 -84.975343 
L 371.025503 -84.913129 
L 371.697219 -84.850915 
L 372.423094 -84.788701 
L 373.202714 -84.726488 
L 374.034957 -84.664274 
L 374.917959 -84.60206 
L 375.849102 -84.539846 
L 376.825019 -84.477632 
L 377.84162 -84.415419 
L 378.894136 -84.353205 
L 379.977182 -84.290991 
L 381.084834 -84.228777 
L 382.210732 -84.166563 
L 383.348181 -84.10435 
L 384.490276 -84.042136 
L 385.630025 -83.979922 
L 386.760474 -83.917708 
L 387.874841 -83.855494 
L 388.966629 -83.79328 
L 390.029741 -83.731067 
L 391.058582 -83.668853 
L 392.048139 -83.606639 
L 392.99405 -83.544425 
L 393.892655 -83.482211 
L 394.741018 -83.419998 
L 395.536938 -83.357784 
L 396.27894 -83.29557 
L 396.966244 -83.233356 
L 397.598717 -83.171142 
L 398.176818 -83.108929 
L 398.701522 -83.046715 
L 399.174241 -82.984501 
L 399.596737 -82.922287 
L 399.97103 -82.860073 
L 400.299309 -82.79786 
L 400.583839 -82.735646 
L 400.826875 -82.673432 
L 401.030584 -82.611218 
L 401.196967 -82.549004 
L 401.327796 -82.486791 
L 401.424555 -82.424577 
L 401.488402 -82.362363 
L 401.520125 -82.300149 
L 401.520125 -82.237935 
L 401.488402 -82.175722 
L 401.424555 -82.113508 
L 401.327796 -82.051294 
L 401.196967 -81.98908 
L 401.030584 -81.926866 
L 400.826875 -81.864653 
L 400.583839 -81.802439 
L 400.299309 -81.740225 
L 399.97103 -81.678011 
L 399.596737 -81.615797 
L 399.174241 -81.553584 
L 398.701522 -81.49137 
L 398.176818 -81.429156 
L 397.598717 -81.366942 
L 396.966244 -81.304728 
L 396.27894 -81.242515 
L 395.536938 -81.180301 
L 394.741018 -81.118087 
L 393.892655 -81.055873 
L 392.99405 -80.993659 
L 392.048139 -80.931446 
L 391.058582 -80.869232 
L 390.029741 -80.807018 
L 388.966629 -80.744804 
L 387.874841 -80.68259 
L 386.760474 -80.620377 
L 385.630025 -80.558163 
L 384.490276 -80.495949 
L 383.348181 -80.433735 
L 382.210732 -80.371521 
L 381.084834 -80.309308 
L 379.977182 -80.247094 
L 378.894136 -80.18488 
L 377.84162 -80.122666 
L 376.825019 -80.060452 
L 375.849102 -79.998239 
L 374.917959 -79.936025 
L 374.034957 -79.873811 
L 373.202714 -79.811597 
L 372.423094 -79.749383 
L 371.697219 -79.68717 
L 371.025503 -79.624956 
L 370.407687 -79.562742 
L 369.842905 -79.500528 
L 369.329745 -79.438314 
L 368.86632 -79.376101 
L 368.450355 -79.313887 
L 368.079254 -79.251673 
L 367.750187 -79.189459 
z
" id="md1ac13a9c0" style="stroke:#3f3f3f;stroke-width:1.5;"/>
    </defs>
    <g clip-path="url(#p778e5f9643)">
     <use style="fill:#3274a1;stroke:#3f3f3f;stroke-width:1.5;" x="0" xlink:href="#md1ac13a9c0" y="355.523584"/>
    </g>
   </g>
   <g id="matplotlib.axis_1">
    <g id="xtick_1">
     <g id="line2d_1">
      <defs>
       <path d="M 0 0 
L 0 3.5 
" id="m014f1798c2" style="stroke:#000000;stroke-width:0.8;"/>
      </defs>
      <g>
       <use style="stroke:#000000;stroke-width:0.8;" x="97.968125" xlink:href="#m014f1798c2" y="288.430125"/>
      </g>
     </g>
     <g id="text_1">
      <!-- kirenenko -->
      <g transform="translate(54.507921 326.501971)rotate(-30)scale(0.1 -0.1)">
       <defs>
        <path d="M 9.078125 75.984375 
L 18.109375 75.984375 
L 18.109375 31.109375 
L 44.921875 54.6875 
L 56.390625 54.6875 
L 27.390625 29.109375 
L 57.625 0 
L 45.90625 0 
L 18.109375 26.703125 
L 18.109375 0 
L 9.078125 0 
z
" id="DejaVuSans-107"/>
        <path d="M 9.421875 54.6875 
L 18.40625 54.6875 
L 18.40625 0 
L 9.421875 0 
z
M 9.421875 75.984375 
L 18.40625 75.984375 
L 18.40625 64.59375 
L 9.421875 64.59375 
z
" id="DejaVuSans-105"/>
        <path d="M 41.109375 46.296875 
Q 39.59375 47.171875 37.8125 47.578125 
Q 36.03125 48 33.890625 48 
Q 26.265625 48 22.1875 43.046875 
Q 18.109375 38.09375 18.109375 28.8125 
L 18.109375 0 
L 9.078125 0 
L 9.078125 54.6875 
L 18.109375 54.6875 
L 18.109375 46.1875 
Q 20.953125 51.171875 25.484375 53.578125 
Q 30.03125 56 36.53125 56 
Q 37.453125 56 38.578125 55.875 
Q 39.703125 55.765625 41.0625 55.515625 
z
" id="DejaVuSans-114"/>
        <path d="M 56.203125 29.59375 
L 56.203125 25.203125 
L 14.890625 25.203125 
Q 15.484375 15.921875 20.484375 11.0625 
Q 25.484375 6.203125 34.421875 6.203125 
Q 39.59375 6.203125 44.453125 7.46875 
Q 49.3125 8.734375 54.109375 11.28125 
L 54.109375 2.78125 
Q 49.265625 0.734375 44.1875 -0.34375 
Q 39.109375 -1.421875 33.890625 -1.421875 
Q 20.796875 -1.421875 13.15625 6.1875 
Q 5.515625 13.8125 5.515625 26.8125 
Q 5.515625 40.234375 12.765625 48.109375 
Q 20.015625 56 32.328125 56 
Q 43.359375 56 49.78125 48.890625 
Q 56.203125 41.796875 56.203125 29.59375 
z
M 47.21875 32.234375 
Q 47.125 39.59375 43.09375 43.984375 
Q 39.0625 48.390625 32.421875 48.390625 
Q 24.90625 48.390625 20.390625 44.140625 
Q 15.875 39.890625 15.1875 32.171875 
z
" id="DejaVuSans-101"/>
        <path d="M 54.890625 33.015625 
L 54.890625 0 
L 45.90625 0 
L 45.90625 32.71875 
Q 45.90625 40.484375 42.875 44.328125 
Q 39.84375 48.1875 33.796875 48.1875 
Q 26.515625 48.1875 22.3125 43.546875 
Q 18.109375 38.921875 18.109375 30.90625 
L 18.109375 0 
L 9.078125 0 
L 9.078125 54.6875 
L 18.109375 54.6875 
L 18.109375 46.1875 
Q 21.34375 51.125 25.703125 53.5625 
Q 30.078125 56 35.796875 56 
Q 45.21875 56 50.046875 50.171875 
Q 54.890625 44.34375 54.890625 33.015625 
z
" id="DejaVuSans-110"/>
        <path d="M 30.609375 48.390625 
Q 23.390625 48.390625 19.1875 42.75 
Q 14.984375 37.109375 14.984375 27.296875 
Q 14.984375 17.484375 19.15625 11.84375 
Q 23.34375 6.203125 30.609375 6.203125 
Q 37.796875 6.203125 41.984375 11.859375 
Q 46.1875 17.53125 46.1875 27.296875 
Q 46.1875 37.015625 41.984375 42.703125 
Q 37.796875 48.390625 30.609375 48.390625 
z
M 30.609375 56 
Q 42.328125 56 49.015625 48.375 
Q 55.71875 40.765625 55.71875 27.296875 
Q 55.71875 13.875 49.015625 6.21875 
Q 42.328125 -1.421875 30.609375 -1.421875 
Q 18.84375 -1.421875 12.171875 6.21875 
Q 5.515625 13.875 5.515625 27.296875 
Q 5.515625 40.765625 12.171875 48.375 
Q 18.84375 56 30.609375 56 
z
" id="DejaVuSans-111"/>
       </defs>
       <use xlink:href="#DejaVuSans-107"/>
       <use x="57.910156" xlink:href="#DejaVuSans-105"/>
       <use x="85.693359" xlink:href="#DejaVuSans-114"/>
       <use x="124.556641" xlink:href="#DejaVuSans-101"/>
       <use x="186.080078" xlink:href="#DejaVuSans-110"/>
       <use x="249.458984" xlink:href="#DejaVuSans-101"/>
       <use x="310.982422" xlink:href="#DejaVuSans-110"/>
       <use x="374.361328" xlink:href="#DejaVuSans-107"/>
       <use x="428.646484" xlink:href="#DejaVuSans-111"/>
      </g>
     </g>
    </g>
    <g id="xtick_2">
     <g id="line2d_2">
      <g>
       <use style="stroke:#000000;stroke-width:0.8;" x="187.248125" xlink:href="#m014f1798c2" y="288.430125"/>
      </g>
     </g>
     <g id="text_2">
      <!-- weizz_qemu -->
      <g transform="translate(133.080643 332.603534)rotate(-30)scale(0.1 -0.1)">
       <defs>
        <path d="M 4.203125 54.6875 
L 13.1875 54.6875 
L 24.421875 12.015625 
L 35.59375 54.6875 
L 46.1875 54.6875 
L 57.421875 12.015625 
L 68.609375 54.6875 
L 77.59375 54.6875 
L 63.28125 0 
L 52.6875 0 
L 40.921875 44.828125 
L 29.109375 0 
L 18.5 0 
z
" id="DejaVuSans-119"/>
        <path d="M 5.515625 54.6875 
L 48.1875 54.6875 
L 48.1875 46.484375 
L 14.40625 7.171875 
L 48.1875 7.171875 
L 48.1875 0 
L 4.296875 0 
L 4.296875 8.203125 
L 38.09375 47.515625 
L 5.515625 47.515625 
z
" id="DejaVuSans-122"/>
        <path d="M 50.984375 -16.609375 
L 50.984375 -23.578125 
L -0.984375 -23.578125 
L -0.984375 -16.609375 
z
" id="DejaVuSans-95"/>
        <path d="M 14.796875 27.296875 
Q 14.796875 17.390625 18.875 11.75 
Q 22.953125 6.109375 30.078125 6.109375 
Q 37.203125 6.109375 41.296875 11.75 
Q 45.40625 17.390625 45.40625 27.296875 
Q 45.40625 37.203125 41.296875 42.84375 
Q 37.203125 48.484375 30.078125 48.484375 
Q 22.953125 48.484375 18.875 42.84375 
Q 14.796875 37.203125 14.796875 27.296875 
z
M 45.40625 8.203125 
Q 42.578125 3.328125 38.25 0.953125 
Q 33.9375 -1.421875 27.875 -1.421875 
Q 17.96875 -1.421875 11.734375 6.484375 
Q 5.515625 14.40625 5.515625 27.296875 
Q 5.515625 40.1875 11.734375 48.09375 
Q 17.96875 56 27.875 56 
Q 33.9375 56 38.25 53.625 
Q 42.578125 51.265625 45.40625 46.390625 
L 45.40625 54.6875 
L 54.390625 54.6875 
L 54.390625 -20.796875 
L 45.40625 -20.796875 
z
" id="DejaVuSans-113"/>
        <path d="M 52 44.1875 
Q 55.375 50.25 60.0625 53.125 
Q 64.75 56 71.09375 56 
Q 79.640625 56 84.28125 50.015625 
Q 88.921875 44.046875 88.921875 33.015625 
L 88.921875 0 
L 79.890625 0 
L 79.890625 32.71875 
Q 79.890625 40.578125 77.09375 44.375 
Q 74.3125 48.1875 68.609375 48.1875 
Q 61.625 48.1875 57.5625 43.546875 
Q 53.515625 38.921875 53.515625 30.90625 
L 53.515625 0 
L 44.484375 0 
L 44.484375 32.71875 
Q 44.484375 40.625 41.703125 44.40625 
Q 38.921875 48.1875 33.109375 48.1875 
Q 26.21875 48.1875 22.15625 43.53125 
Q 18.109375 38.875 18.109375 30.90625 
L 18.109375 0 
L 9.078125 0 
L 9.078125 54.6875 
L 18.109375 54.6875 
L 18.109375 46.1875 
Q 21.1875 51.21875 25.484375 53.609375 
Q 29.78125 56 35.6875 56 
Q 41.65625 56 45.828125 52.96875 
Q 50 49.953125 52 44.1875 
z
" id="DejaVuSans-109"/>
        <path d="M 8.5 21.578125 
L 8.5 54.6875 
L 17.484375 54.6875 
L 17.484375 21.921875 
Q 17.484375 14.15625 20.5 10.265625 
Q 23.53125 6.390625 29.59375 6.390625 
Q 36.859375 6.390625 41.078125 11.03125 
Q 45.3125 15.671875 45.3125 23.6875 
L 45.3125 54.6875 
L 54.296875 54.6875 
L 54.296875 0 
L 45.3125 0 
L 45.3125 8.40625 
Q 42.046875 3.421875 37.71875 1 
Q 33.40625 -1.421875 27.6875 -1.421875 
Q 18.265625 -1.421875 13.375 4.4375 
Q 8.5 10.296875 8.5 21.578125 
z
M 31.109375 56 
z
" id="DejaVuSans-117"/>
       </defs>
       <use xlink:href="#DejaVuSans-119"/>
       <use x="81.787109" xlink:href="#DejaVuSans-101"/>
       <use x="143.310547" xlink:href="#DejaVuSans-105"/>
       <use x="171.09375" xlink:href="#DejaVuSans-122"/>
       <use x="223.583984" xlink:href="#DejaVuSans-122"/>
       <use x="276.074219" xlink:href="#DejaVuSans-95"/>
       <use x="326.074219" xlink:href="#DejaVuSans-113"/>
       <use x="389.550781" xlink:href="#DejaVuSans-101"/>
       <use x="451.074219" xlink:href="#DejaVuSans-109"/>
       <use x="548.486328" xlink:href="#DejaVuSans-117"/>
      </g>
     </g>
    </g>
    <g id="xtick_3">
     <g id="line2d_3">
      <g>
       <use style="stroke:#000000;stroke-width:0.8;" x="276.528125" xlink:href="#m014f1798c2" y="288.430125"/>
      </g>
     </g>
     <g id="text_3">
      <!-- honggfuzz -->
      <g transform="translate(230.588924 327.933221)rotate(-30)scale(0.1 -0.1)">
       <defs>
        <path d="M 54.890625 33.015625 
L 54.890625 0 
L 45.90625 0 
L 45.90625 32.71875 
Q 45.90625 40.484375 42.875 44.328125 
Q 39.84375 48.1875 33.796875 48.1875 
Q 26.515625 48.1875 22.3125 43.546875 
Q 18.109375 38.921875 18.109375 30.90625 
L 18.109375 0 
L 9.078125 0 
L 9.078125 75.984375 
L 18.109375 75.984375 
L 18.109375 46.1875 
Q 21.34375 51.125 25.703125 53.5625 
Q 30.078125 56 35.796875 56 
Q 45.21875 56 50.046875 50.171875 
Q 54.890625 44.34375 54.890625 33.015625 
z
" id="DejaVuSans-104"/>
        <path d="M 45.40625 27.984375 
Q 45.40625 37.75 41.375 43.109375 
Q 37.359375 48.484375 30.078125 48.484375 
Q 22.859375 48.484375 18.828125 43.109375 
Q 14.796875 37.75 14.796875 27.984375 
Q 14.796875 18.265625 18.828125 12.890625 
Q 22.859375 7.515625 30.078125 7.515625 
Q 37.359375 7.515625 41.375 12.890625 
Q 45.40625 18.265625 45.40625 27.984375 
z
M 54.390625 6.78125 
Q 54.390625 -7.171875 48.1875 -13.984375 
Q 42 -20.796875 29.203125 -20.796875 
Q 24.46875 -20.796875 20.265625 -20.09375 
Q 16.0625 -19.390625 12.109375 -17.921875 
L 12.109375 -9.1875 
Q 16.0625 -11.328125 19.921875 -12.34375 
Q 23.78125 -13.375 27.78125 -13.375 
Q 36.625 -13.375 41.015625 -8.765625 
Q 45.40625 -4.15625 45.40625 5.171875 
L 45.40625 9.625 
Q 42.625 4.78125 38.28125 2.390625 
Q 33.9375 0 27.875 0 
Q 17.828125 0 11.671875 7.65625 
Q 5.515625 15.328125 5.515625 27.984375 
Q 5.515625 40.671875 11.671875 48.328125 
Q 17.828125 56 27.875 56 
Q 33.9375 56 38.28125 53.609375 
Q 42.625 51.21875 45.40625 46.390625 
L 45.40625 54.6875 
L 54.390625 54.6875 
z
" id="DejaVuSans-103"/>
        <path d="M 37.109375 75.984375 
L 37.109375 68.5 
L 28.515625 68.5 
Q 23.6875 68.5 21.796875 66.546875 
Q 19.921875 64.59375 19.921875 59.515625 
L 19.921875 54.6875 
L 34.71875 54.6875 
L 34.71875 47.703125 
L 19.921875 47.703125 
L 19.921875 0 
L 10.890625 0 
L 10.890625 47.703125 
L 2.296875 47.703125 
L 2.296875 54.6875 
L 10.890625 54.6875 
L 10.890625 58.5 
Q 10.890625 67.625 15.140625 71.796875 
Q 19.390625 75.984375 28.609375 75.984375 
z
" id="DejaVuSans-102"/>
       </defs>
       <use xlink:href="#DejaVuSans-104"/>
       <use x="63.378906" xlink:href="#DejaVuSans-111"/>
       <use x="124.560547" xlink:href="#DejaVuSans-110"/>
       <use x="187.939453" xlink:href="#DejaVuSans-103"/>
       <use x="251.416016" xlink:href="#DejaVuSans-103"/>
       <use x="314.892578" xlink:href="#DejaVuSans-102"/>
       <use x="350.097656" xlink:href="#DejaVuSans-117"/>
       <use x="413.476562" xlink:href="#DejaVuSans-122"/>
       <use x="465.966797" xlink:href="#DejaVuSans-122"/>
      </g>
     </g>
    </g>
    <g id="xtick_4">
     <g id="line2d_4">
      <g>
       <use style="stroke:#000000;stroke-width:0.8;" x="365.808125" xlink:href="#m014f1798c2" y="288.430125"/>
      </g>
     </g>
     <g id="text_4">
      <!-- aflplusplus -->
      <g transform="translate(318.199118 328.897284)rotate(-30)scale(0.1 -0.1)">
       <defs>
        <path d="M 34.28125 27.484375 
Q 23.390625 27.484375 19.1875 25 
Q 14.984375 22.515625 14.984375 16.5 
Q 14.984375 11.71875 18.140625 8.90625 
Q 21.296875 6.109375 26.703125 6.109375 
Q 34.1875 6.109375 38.703125 11.40625 
Q 43.21875 16.703125 43.21875 25.484375 
L 43.21875 27.484375 
z
M 52.203125 31.203125 
L 52.203125 0 
L 43.21875 0 
L 43.21875 8.296875 
Q 40.140625 3.328125 35.546875 0.953125 
Q 30.953125 -1.421875 24.3125 -1.421875 
Q 15.921875 -1.421875 10.953125 3.296875 
Q 6 8.015625 6 15.921875 
Q 6 25.140625 12.171875 29.828125 
Q 18.359375 34.515625 30.609375 34.515625 
L 43.21875 34.515625 
L 43.21875 35.40625 
Q 43.21875 41.609375 39.140625 45 
Q 35.0625 48.390625 27.6875 48.390625 
Q 23 48.390625 18.546875 47.265625 
Q 14.109375 46.140625 10.015625 43.890625 
L 10.015625 52.203125 
Q 14.9375 54.109375 19.578125 55.046875 
Q 24.21875 56 28.609375 56 
Q 40.484375 56 46.34375 49.84375 
Q 52.203125 43.703125 52.203125 31.203125 
z
" id="DejaVuSans-97"/>
        <path d="M 9.421875 75.984375 
L 18.40625 75.984375 
L 18.40625 0 
L 9.421875 0 
z
" id="DejaVuSans-108"/>
        <path d="M 18.109375 8.203125 
L 18.109375 -20.796875 
L 9.078125 -20.796875 
L 9.078125 54.6875 
L 18.109375 54.6875 
L 18.109375 46.390625 
Q 20.953125 51.265625 25.265625 53.625 
Q 29.59375 56 35.59375 56 
Q 45.5625 56 51.78125 48.09375 
Q 58.015625 40.1875 58.015625 27.296875 
Q 58.015625 14.40625 51.78125 6.484375 
Q 45.5625 -1.421875 35.59375 -1.421875 
Q 29.59375 -1.421875 25.265625 0.953125 
Q 20.953125 3.328125 18.109375 8.203125 
z
M 48.6875 27.296875 
Q 48.6875 37.203125 44.609375 42.84375 
Q 40.53125 48.484375 33.40625 48.484375 
Q 26.265625 48.484375 22.1875 42.84375 
Q 18.109375 37.203125 18.109375 27.296875 
Q 18.109375 17.390625 22.1875 11.75 
Q 26.265625 6.109375 33.40625 6.109375 
Q 40.53125 6.109375 44.609375 11.75 
Q 48.6875 17.390625 48.6875 27.296875 
z
" id="DejaVuSans-112"/>
        <path d="M 44.28125 53.078125 
L 44.28125 44.578125 
Q 40.484375 46.53125 36.375 47.5 
Q 32.28125 48.484375 27.875 48.484375 
Q 21.1875 48.484375 17.84375 46.4375 
Q 14.5 44.390625 14.5 40.28125 
Q 14.5 37.15625 16.890625 35.375 
Q 19.28125 33.59375 26.515625 31.984375 
L 29.59375 31.296875 
Q 39.15625 29.25 43.1875 25.515625 
Q 47.21875 21.78125 47.21875 15.09375 
Q 47.21875 7.46875 41.1875 3.015625 
Q 35.15625 -1.421875 24.609375 -1.421875 
Q 20.21875 -1.421875 15.453125 -0.5625 
Q 10.6875 0.296875 5.421875 2 
L 5.421875 11.28125 
Q 10.40625 8.6875 15.234375 7.390625 
Q 20.0625 6.109375 24.8125 6.109375 
Q 31.15625 6.109375 34.5625 8.28125 
Q 37.984375 10.453125 37.984375 14.40625 
Q 37.984375 18.0625 35.515625 20.015625 
Q 33.0625 21.96875 24.703125 23.78125 
L 21.578125 24.515625 
Q 13.234375 26.265625 9.515625 29.90625 
Q 5.8125 33.546875 5.8125 39.890625 
Q 5.8125 47.609375 11.28125 51.796875 
Q 16.75 56 26.8125 56 
Q 31.78125 56 36.171875 55.265625 
Q 40.578125 54.546875 44.28125 53.078125 
z
" id="DejaVuSans-115"/>
       </defs>
       <use xlink:href="#DejaVuSans-97"/>
       <use x="61.279297" xlink:href="#DejaVuSans-102"/>
       <use x="96.484375" xlink:href="#DejaVuSans-108"/>
       <use x="124.267578" xlink:href="#DejaVuSans-112"/>
       <use x="187.744141" xlink:href="#DejaVuSans-108"/>
       <use x="215.527344" xlink:href="#DejaVuSans-117"/>
       <use x="278.90625" xlink:href="#DejaVuSans-115"/>
       <use x="331.005859" xlink:href="#DejaVuSans-112"/>
       <use x="394.482422" xlink:href="#DejaVuSans-108"/>
       <use x="422.265625" xlink:href="#DejaVuSans-117"/>
       <use x="485.644531" xlink:href="#DejaVuSans-115"/>
      </g>
     </g>
    </g>
    <g id="text_5">
     <!-- Fuzzer (highest median coverage on the left) -->
     <g transform="translate(119.270156 346.243897)scale(0.1 -0.1)">
      <defs>
       <path d="M 9.8125 72.90625 
L 51.703125 72.90625 
L 51.703125 64.59375 
L 19.671875 64.59375 
L 19.671875 43.109375 
L 48.578125 43.109375 
L 48.578125 34.8125 
L 19.671875 34.8125 
L 19.671875 0 
L 9.8125 0 
z
" id="DejaVuSans-70"/>
       <path id="DejaVuSans-32"/>
       <path d="M 31 75.875 
Q 24.46875 64.65625 21.28125 53.65625 
Q 18.109375 42.671875 18.109375 31.390625 
Q 18.109375 20.125 21.3125 9.0625 
Q 24.515625 -2 31 -13.1875 
L 23.1875 -13.1875 
Q 15.875 -1.703125 12.234375 9.375 
Q 8.59375 20.453125 8.59375 31.390625 
Q 8.59375 42.28125 12.203125 53.3125 
Q 15.828125 64.359375 23.1875 75.875 
z
" id="DejaVuSans-40"/>
       <path d="M 18.3125 70.21875 
L 18.3125 54.6875 
L 36.8125 54.6875 
L 36.8125 47.703125 
L 18.3125 47.703125 
L 18.3125 18.015625 
Q 18.3125 11.328125 20.140625 9.421875 
Q 21.96875 7.515625 27.59375 7.515625 
L 36.8125 7.515625 
L 36.8125 0 
L 27.59375 0 
Q 17.1875 0 13.234375 3.875 
Q 9.28125 7.765625 9.28125 18.015625 
L 9.28125 47.703125 
L 2.6875 47.703125 
L 2.6875 54.6875 
L 9.28125 54.6875 
L 9.28125 70.21875 
z
" id="DejaVuSans-116"/>
       <path d="M 45.40625 46.390625 
L 45.40625 75.984375 
L 54.390625 75.984375 
L 54.390625 0 
L 45.40625 0 
L 45.40625 8.203125 
Q 42.578125 3.328125 38.25 0.953125 
Q 33.9375 -1.421875 27.875 -1.421875 
Q 17.96875 -1.421875 11.734375 6.484375 
Q 5.515625 14.40625 5.515625 27.296875 
Q 5.515625 40.1875 11.734375 48.09375 
Q 17.96875 56 27.875 56 
Q 33.9375 56 38.25 53.625 
Q 42.578125 51.265625 45.40625 46.390625 
z
M 14.796875 27.296875 
Q 14.796875 17.390625 18.875 11.75 
Q 22.953125 6.109375 30.078125 6.109375 
Q 37.203125 6.109375 41.296875 11.75 
Q 45.40625 17.390625 45.40625 27.296875 
Q 45.40625 37.203125 41.296875 42.84375 
Q 37.203125 48.484375 30.078125 48.484375 
Q 22.953125 48.484375 18.875 42.84375 
Q 14.796875 37.203125 14.796875 27.296875 
z
" id="DejaVuSans-100"/>
       <path d="M 48.78125 52.59375 
L 48.78125 44.1875 
Q 44.96875 46.296875 41.140625 47.34375 
Q 37.3125 48.390625 33.40625 48.390625 
Q 24.65625 48.390625 19.8125 42.84375 
Q 14.984375 37.3125 14.984375 27.296875 
Q 14.984375 17.28125 19.8125 11.734375 
Q 24.65625 6.203125 33.40625 6.203125 
Q 37.3125 6.203125 41.140625 7.25 
Q 44.96875 8.296875 48.78125 10.40625 
L 48.78125 2.09375 
Q 45.015625 0.34375 40.984375 -0.53125 
Q 36.96875 -1.421875 32.421875 -1.421875 
Q 20.0625 -1.421875 12.78125 6.34375 
Q 5.515625 14.109375 5.515625 27.296875 
Q 5.515625 40.671875 12.859375 48.328125 
Q 20.21875 56 33.015625 56 
Q 37.15625 56 41.109375 55.140625 
Q 45.0625 54.296875 48.78125 52.59375 
z
" id="DejaVuSans-99"/>
       <path d="M 2.984375 54.6875 
L 12.5 54.6875 
L 29.59375 8.796875 
L 46.6875 54.6875 
L 56.203125 54.6875 
L 35.6875 0 
L 23.484375 0 
z
" id="DejaVuSans-118"/>
       <path d="M 8.015625 75.875 
L 15.828125 75.875 
Q 23.140625 64.359375 26.78125 53.3125 
Q 30.421875 42.28125 30.421875 31.390625 
Q 30.421875 20.453125 26.78125 9.375 
Q 23.140625 -1.703125 15.828125 -13.1875 
L 8.015625 -13.1875 
Q 14.5 -2 17.703125 9.0625 
Q 20.90625 20.125 20.90625 31.390625 
Q 20.90625 42.671875 17.703125 53.65625 
Q 14.5 64.65625 8.015625 75.875 
z
" id="DejaVuSans-41"/>
      </defs>
      <use xlink:href="#DejaVuSans-70"/>
      <use x="52.019531" xlink:href="#DejaVuSans-117"/>
      <use x="115.398438" xlink:href="#DejaVuSans-122"/>
      <use x="167.888672" xlink:href="#DejaVuSans-122"/>
      <use x="220.378906" xlink:href="#DejaVuSans-101"/>
      <use x="281.902344" xlink:href="#DejaVuSans-114"/>
      <use x="323.015625" xlink:href="#DejaVuSans-32"/>
      <use x="354.802734" xlink:href="#DejaVuSans-40"/>
      <use x="393.816406" xlink:href="#DejaVuSans-104"/>
      <use x="457.195312" xlink:href="#DejaVuSans-105"/>
      <use x="484.978516" xlink:href="#DejaVuSans-103"/>
      <use x="548.455078" xlink:href="#DejaVuSans-104"/>
      <use x="611.833984" xlink:href="#DejaVuSans-101"/>
      <use x="673.357422" xlink:href="#DejaVuSans-115"/>
      <use x="725.457031" xlink:href="#DejaVuSans-116"/>
      <use x="764.666016" xlink:href="#DejaVuSans-32"/>
      <use x="796.453125" xlink:href="#DejaVuSans-109"/>
      <use x="893.865234" xlink:href="#DejaVuSans-101"/>
      <use x="955.388672" xlink:href="#DejaVuSans-100"/>
      <use x="1018.865234" xlink:href="#DejaVuSans-105"/>
      <use x="1046.648438" xlink:href="#DejaVuSans-97"/>
      <use x="1107.927734" xlink:href="#DejaVuSans-110"/>
      <use x="1171.306641" xlink:href="#DejaVuSans-32"/>
      <use x="1203.09375" xlink:href="#DejaVuSans-99"/>
      <use x="1258.074219" xlink:href="#DejaVuSans-111"/>
      <use x="1319.255859" xlink:href="#DejaVuSans-118"/>
      <use x="1378.435547" xlink:href="#DejaVuSans-101"/>
      <use x="1439.958984" xlink:href="#DejaVuSans-114"/>
      <use x="1481.072266" xlink:href="#DejaVuSans-97"/>
      <use x="1542.351562" xlink:href="#DejaVuSans-103"/>
      <use x="1605.828125" xlink:href="#DejaVuSans-101"/>
      <use x="1667.351562" xlink:href="#DejaVuSans-32"/>
      <use x="1699.138672" xlink:href="#DejaVuSans-111"/>
      <use x="1760.320312" xlink:href="#DejaVuSans-110"/>
      <use x="1823.699219" xlink:href="#DejaVuSans-32"/>
      <use x="1855.486328" xlink:href="#DejaVuSans-116"/>
      <use x="1894.695312" xlink:href="#DejaVuSans-104"/>
      <use x="1958.074219" xlink:href="#DejaVuSans-101"/>
      <use x="2019.597656" xlink:href="#DejaVuSans-32"/>
      <use x="2051.384766" xlink:href="#DejaVuSans-108"/>
      <use x="2079.167969" xlink:href="#DejaVuSans-101"/>
      <use x="2140.691406" xlink:href="#DejaVuSans-102"/>
      <use x="2174.146484" xlink:href="#DejaVuSans-116"/>
      <use x="2213.355469" xlink:href="#DejaVuSans-41"/>
     </g>
    </g>
   </g>
   <g id="matplotlib.axis_2">
    <g id="ytick_1">
     <g id="line2d_5">
      <defs>
       <path d="M 0 0 
L -3.5 0 
" id="m50c7b1d255" style="stroke:#000000;stroke-width:0.8;"/>
      </defs>
      <g>
       <use style="stroke:#000000;stroke-width:0.8;" x="53.328125" xlink:href="#m50c7b1d255" y="270.384443"/>
      </g>
     </g>
     <g id="text_6">
      <!-- 1950 -->
      <g transform="translate(20.878125 274.183662)scale(0.1 -0.1)">
       <defs>
        <path d="M 12.40625 8.296875 
L 28.515625 8.296875 
L 28.515625 63.921875 
L 10.984375 60.40625 
L 10.984375 69.390625 
L 28.421875 72.90625 
L 38.28125 72.90625 
L 38.28125 8.296875 
L 54.390625 8.296875 
L 54.390625 0 
L 12.40625 0 
z
" id="DejaVuSans-49"/>
        <path d="M 10.984375 1.515625 
L 10.984375 10.5 
Q 14.703125 8.734375 18.5 7.8125 
Q 22.3125 6.890625 25.984375 6.890625 
Q 35.75 6.890625 40.890625 13.453125 
Q 46.046875 20.015625 46.78125 33.40625 
Q 43.953125 29.203125 39.59375 26.953125 
Q 35.25 24.703125 29.984375 24.703125 
Q 19.046875 24.703125 12.671875 31.3125 
Q 6.296875 37.9375 6.296875 49.421875 
Q 6.296875 60.640625 12.9375 67.421875 
Q 19.578125 74.21875 30.609375 74.21875 
Q 43.265625 74.21875 49.921875 64.515625 
Q 56.59375 54.828125 56.59375 36.375 
Q 56.59375 19.140625 48.40625 8.859375 
Q 40.234375 -1.421875 26.421875 -1.421875 
Q 22.703125 -1.421875 18.890625 -0.6875 
Q 15.09375 0.046875 10.984375 1.515625 
z
M 30.609375 32.421875 
Q 37.25 32.421875 41.125 36.953125 
Q 45.015625 41.5 45.015625 49.421875 
Q 45.015625 57.28125 41.125 61.84375 
Q 37.25 66.40625 30.609375 66.40625 
Q 23.96875 66.40625 20.09375 61.84375 
Q 16.21875 57.28125 16.21875 49.421875 
Q 16.21875 41.5 20.09375 36.953125 
Q 23.96875 32.421875 30.609375 32.421875 
z
" id="DejaVuSans-57"/>
        <path d="M 10.796875 72.90625 
L 49.515625 72.90625 
L 49.515625 64.59375 
L 19.828125 64.59375 
L 19.828125 46.734375 
Q 21.96875 47.46875 24.109375 47.828125 
Q 26.265625 48.1875 28.421875 48.1875 
Q 40.625 48.1875 47.75 41.5 
Q 54.890625 34.8125 54.890625 23.390625 
Q 54.890625 11.625 47.5625 5.09375 
Q 40.234375 -1.421875 26.90625 -1.421875 
Q 22.3125 -1.421875 17.546875 -0.640625 
Q 12.796875 0.140625 7.71875 1.703125 
L 7.71875 11.625 
Q 12.109375 9.234375 16.796875 8.0625 
Q 21.484375 6.890625 26.703125 6.890625 
Q 35.15625 6.890625 40.078125 11.328125 
Q 45.015625 15.765625 45.015625 23.390625 
Q 45.015625 31 40.078125 35.4375 
Q 35.15625 39.890625 26.703125 39.890625 
Q 22.75 39.890625 18.8125 39.015625 
Q 14.890625 38.140625 10.796875 36.28125 
z
" id="DejaVuSans-53"/>
        <path d="M 31.78125 66.40625 
Q 24.171875 66.40625 20.328125 58.90625 
Q 16.5 51.421875 16.5 36.375 
Q 16.5 21.390625 20.328125 13.890625 
Q 24.171875 6.390625 31.78125 6.390625 
Q 39.453125 6.390625 43.28125 13.890625 
Q 47.125 21.390625 47.125 36.375 
Q 47.125 51.421875 43.28125 58.90625 
Q 39.453125 66.40625 31.78125 66.40625 
z
M 31.78125 74.21875 
Q 44.046875 74.21875 50.515625 64.515625 
Q 56.984375 54.828125 56.984375 36.375 
Q 56.984375 17.96875 50.515625 8.265625 
Q 44.046875 -1.421875 31.78125 -1.421875 
Q 19.53125 -1.421875 13.0625 8.265625 
Q 6.59375 17.96875 6.59375 36.375 
Q 6.59375 54.828125 13.0625 64.515625 
Q 19.53125 74.21875 31.78125 74.21875 
z
" id="DejaVuSans-48"/>
       </defs>
       <use xlink:href="#DejaVuSans-49"/>
       <use x="63.623047" xlink:href="#DejaVuSans-57"/>
       <use x="127.246094" xlink:href="#DejaVuSans-53"/>
       <use x="190.869141" xlink:href="#DejaVuSans-48"/>
      </g>
     </g>
    </g>
    <g id="ytick_2">
     <g id="line2d_6">
      <g>
       <use style="stroke:#000000;stroke-width:0.8;" x="53.328125" xlink:href="#m50c7b1d255" y="234.508211"/>
      </g>
     </g>
     <g id="text_7">
      <!-- 2000 -->
      <g transform="translate(20.878125 238.307429)scale(0.1 -0.1)">
       <defs>
        <path d="M 19.1875 8.296875 
L 53.609375 8.296875 
L 53.609375 0 
L 7.328125 0 
L 7.328125 8.296875 
Q 12.9375 14.109375 22.625 23.890625 
Q 32.328125 33.6875 34.8125 36.53125 
Q 39.546875 41.84375 41.421875 45.53125 
Q 43.3125 49.21875 43.3125 52.78125 
Q 43.3125 58.59375 39.234375 62.25 
Q 35.15625 65.921875 28.609375 65.921875 
Q 23.96875 65.921875 18.8125 64.3125 
Q 13.671875 62.703125 7.8125 59.421875 
L 7.8125 69.390625 
Q 13.765625 71.78125 18.9375 73 
Q 24.125 74.21875 28.421875 74.21875 
Q 39.75 74.21875 46.484375 68.546875 
Q 53.21875 62.890625 53.21875 53.421875 
Q 53.21875 48.921875 51.53125 44.890625 
Q 49.859375 40.875 45.40625 35.40625 
Q 44.1875 33.984375 37.640625 27.21875 
Q 31.109375 20.453125 19.1875 8.296875 
z
" id="DejaVuSans-50"/>
       </defs>
       <use xlink:href="#DejaVuSans-50"/>
       <use x="63.623047" xlink:href="#DejaVuSans-48"/>
       <use x="127.246094" xlink:href="#DejaVuSans-48"/>
       <use x="190.869141" xlink:href="#DejaVuSans-48"/>
      </g>
     </g>
    </g>
    <g id="ytick_3">
     <g id="line2d_7">
      <g>
       <use style="stroke:#000000;stroke-width:0.8;" x="53.328125" xlink:href="#m50c7b1d255" y="198.631978"/>
      </g>
     </g>
     <g id="text_8">
      <!-- 2050 -->
      <g transform="translate(20.878125 202.431197)scale(0.1 -0.1)">
       <use xlink:href="#DejaVuSans-50"/>
       <use x="63.623047" xlink:href="#DejaVuSans-48"/>
       <use x="127.246094" xlink:href="#DejaVuSans-53"/>
       <use x="190.869141" xlink:href="#DejaVuSans-48"/>
      </g>
     </g>
    </g>
    <g id="ytick_4">
     <g id="line2d_8">
      <g>
       <use style="stroke:#000000;stroke-width:0.8;" x="53.328125" xlink:href="#m50c7b1d255" y="162.755746"/>
      </g>
     </g>
     <g id="text_9">
      <!-- 2100 -->
      <g transform="translate(20.878125 166.554964)scale(0.1 -0.1)">
       <use xlink:href="#DejaVuSans-50"/>
       <use x="63.623047" xlink:href="#DejaVuSans-49"/>
       <use x="127.246094" xlink:href="#DejaVuSans-48"/>
       <use x="190.869141" xlink:href="#DejaVuSans-48"/>
      </g>
     </g>
    </g>
    <g id="ytick_5">
     <g id="line2d_9">
      <g>
       <use style="stroke:#000000;stroke-width:0.8;" x="53.328125" xlink:href="#m50c7b1d255" y="126.879513"/>
      </g>
     </g>
     <g id="text_10">
      <!-- 2150 -->
      <g transform="translate(20.878125 130.678732)scale(0.1 -0.1)">
       <use xlink:href="#DejaVuSans-50"/>
       <use x="63.623047" xlink:href="#DejaVuSans-49"/>
       <use x="127.246094" xlink:href="#DejaVuSans-53"/>
       <use x="190.869141" xlink:href="#DejaVuSans-48"/>
      </g>
     </g>
    </g>
    <g id="ytick_6">
     <g id="line2d_10">
      <g>
       <use style="stroke:#000000;stroke-width:0.8;" x="53.328125" xlink:href="#m50c7b1d255" y="91.003281"/>
      </g>
     </g>
     <g id="text_11">
      <!-- 2200 -->
      <g transform="translate(20.878125 94.802499)scale(0.1 -0.1)">
       <use xlink:href="#DejaVuSans-50"/>
       <use x="63.623047" xlink:href="#DejaVuSans-50"/>
       <use x="127.246094" xlink:href="#DejaVuSans-48"/>
       <use x="190.869141" xlink:href="#DejaVuSans-48"/>
      </g>
     </g>
    </g>
    <g id="ytick_7">
     <g id="line2d_11">
      <g>
       <use style="stroke:#000000;stroke-width:0.8;" x="53.328125" xlink:href="#m50c7b1d255" y="55.127048"/>
      </g>
     </g>
     <g id="text_12">
      <!-- 2250 -->
      <g transform="translate(20.878125 58.926267)scale(0.1 -0.1)">
       <use xlink:href="#DejaVuSans-50"/>
       <use x="63.623047" xlink:href="#DejaVuSans-50"/>
       <use x="127.246094" xlink:href="#DejaVuSans-53"/>
       <use x="190.869141" xlink:href="#DejaVuSans-48"/>
      </g>
     </g>
    </g>
    <g id="text_13">
     <!-- Reached region coverage -->
     <g transform="translate(14.798438 219.136625)rotate(-90)scale(0.1 -0.1)">
      <defs>
       <path d="M 44.390625 34.1875 
Q 47.5625 33.109375 50.5625 29.59375 
Q 53.5625 26.078125 56.59375 19.921875 
L 66.609375 0 
L 56 0 
L 46.6875 18.703125 
Q 43.0625 26.03125 39.671875 28.421875 
Q 36.28125 30.8125 30.421875 30.8125 
L 19.671875 30.8125 
L 19.671875 0 
L 9.8125 0 
L 9.8125 72.90625 
L 32.078125 72.90625 
Q 44.578125 72.90625 50.734375 67.671875 
Q 56.890625 62.453125 56.890625 51.90625 
Q 56.890625 45.015625 53.6875 40.46875 
Q 50.484375 35.9375 44.390625 34.1875 
z
M 19.671875 64.796875 
L 19.671875 38.921875 
L 32.078125 38.921875 
Q 39.203125 38.921875 42.84375 42.21875 
Q 46.484375 45.515625 46.484375 51.90625 
Q 46.484375 58.296875 42.84375 61.546875 
Q 39.203125 64.796875 32.078125 64.796875 
z
" id="DejaVuSans-82"/>
      </defs>
      <use xlink:href="#DejaVuSans-82"/>
      <use x="64.982422" xlink:href="#DejaVuSans-101"/>
      <use x="126.505859" xlink:href="#DejaVuSans-97"/>
      <use x="187.785156" xlink:href="#DejaVuSans-99"/>
      <use x="242.765625" xlink:href="#DejaVuSans-104"/>
      <use x="306.144531" xlink:href="#DejaVuSans-101"/>
      <use x="367.667969" xlink:href="#DejaVuSans-100"/>
      <use x="431.144531" xlink:href="#DejaVuSans-32"/>
      <use x="462.931641" xlink:href="#DejaVuSans-114"/>
      <use x="501.794922" xlink:href="#DejaVuSans-101"/>
      <use x="563.318359" xlink:href="#DejaVuSans-103"/>
      <use x="626.794922" xlink:href="#DejaVuSans-105"/>
      <use x="654.578125" xlink:href="#DejaVuSans-111"/>
      <use x="715.759766" xlink:href="#DejaVuSans-110"/>
      <use x="779.138672" xlink:href="#DejaVuSans-32"/>
      <use x="810.925781" xlink:href="#DejaVuSans-99"/>
      <use x="865.90625" xlink:href="#DejaVuSans-111"/>
      <use x="927.087891" xlink:href="#DejaVuSans-118"/>
      <use x="986.267578" xlink:href="#DejaVuSans-101"/>
      <use x="1047.791016" xlink:href="#DejaVuSans-114"/>
      <use x="1088.904297" xlink:href="#DejaVuSans-97"/>
      <use x="1150.183594" xlink:href="#DejaVuSans-103"/>
      <use x="1213.660156" xlink:href="#DejaVuSans-101"/>
     </g>
    </g>
   </g>
   <g id="line2d_12">
    <path clip-path="url(#p778e5f9643)" d="M 97.968125 210.112373 
L 97.968125 155.580499 
" style="fill:none;stroke:#3f3f3f;stroke-linecap:square;stroke-width:1.5;"/>
   </g>
   <g id="line2d_13">
    <path clip-path="url(#p778e5f9643)" d="M 97.968125 190.021682 
L 97.968125 155.580499 
" style="fill:none;stroke:#3f3f3f;stroke-linecap:square;stroke-width:4.5;"/>
   </g>
   <g id="line2d_14">
    <path clip-path="url(#p778e5f9643)" d="M 187.248125 171.366041 
L 187.248125 162.755746 
" style="fill:none;stroke:#3f3f3f;stroke-linecap:square;stroke-width:1.5;"/>
   </g>
   <g id="line2d_15">
    <path clip-path="url(#p778e5f9643)" d="M 187.248125 170.648517 
L 187.248125 162.755746 
" style="fill:none;stroke:#3f3f3f;stroke-linecap:square;stroke-width:4.5;"/>
   </g>
   <g id="line2d_16">
    <path clip-path="url(#p778e5f9643)" d="M 276.528125 235.225735 
L 276.528125 220.875242 
" style="fill:none;stroke:#3f3f3f;stroke-linecap:square;stroke-width:1.5;"/>
   </g>
   <g id="line2d_17">
    <path clip-path="url(#p778e5f9643)" d="M 276.528125 235.225735 
L 276.528125 227.332964 
" style="fill:none;stroke:#3f3f3f;stroke-linecap:square;stroke-width:4.5;"/>
   </g>
   <g id="line2d_18">
    <path clip-path="url(#p778e5f9643)" d="M 365.808125 274.689591 
L 365.808125 271.819493 
" style="fill:none;stroke:#3f3f3f;stroke-linecap:square;stroke-width:1.5;"/>
   </g>
   <g id="line2d_19">
    <path clip-path="url(#p778e5f9643)" d="M 365.808125 273.972066 
L 365.808125 272.537017 
" style="fill:none;stroke:#3f3f3f;stroke-linecap:square;stroke-width:4.5;"/>
   </g>
   <g id="patch_3">
    <path d="M 53.328125 270.384443 
L 53.328125 55.127048 
" style="fill:none;stroke:#000000;stroke-linecap:square;stroke-linejoin:miter;stroke-width:0.8;"/>
   </g>
   <g id="patch_4">
    <path d="M 97.968125 288.430125 
L 365.808125 288.430125 
" style="fill:none;stroke:#000000;stroke-linecap:square;stroke-linejoin:miter;stroke-width:0.8;"/>
   </g>
   <g id="PathCollection_1">
    <defs>
     <path d="M 0 1.5 
C 0.397805 1.5 0.77937 1.341951 1.06066 1.06066 
C 1.341951 0.77937 1.5 0.397805 1.5 0 
C 1.5 -0.397805 1.341951 -0.77937 1.06066 -1.06066 
C 0.77937 -1.341951 0.397805 -1.5 0 -1.5 
C -0.397805 -1.5 -0.77937 -1.341951 -1.06066 -1.06066 
C -1.341951 -0.77937 -1.5 -0.397805 -1.5 0 
C -1.5 0.397805 -1.341951 0.77937 -1.06066 1.06066 
C -0.77937 1.341951 -0.397805 1.5 0 1.5 
z
" id="m644b2456af" style="stroke:#3f3f3f;"/>
    </defs>
    <g clip-path="url(#p778e5f9643)">
     <use style="fill:#ffffff;stroke:#3f3f3f;" x="97.968125" xlink:href="#m644b2456af" y="164.190795"/>
    </g>
   </g>
   <g id="PathCollection_2">
    <g clip-path="url(#p778e5f9643)">
     <use style="fill:#ffffff;stroke:#3f3f3f;" x="187.248125" xlink:href="#m644b2456af" y="166.343369"/>
    </g>
   </g>
   <g id="PathCollection_3">
    <g clip-path="url(#p778e5f9643)">
     <use style="fill:#ffffff;stroke:#3f3f3f;" x="276.528125" xlink:href="#m644b2456af" y="233.790686"/>
    </g>
   </g>
   <g id="PathCollection_4">
    <g clip-path="url(#p778e5f9643)">
     <use style="fill:#ffffff;stroke:#3f3f3f;" x="365.808125" xlink:href="#m644b2456af" y="273.254542"/>
    </g>
   </g>
   <g id="text_14">
    <!-- libpng-1.2.56 (24h, 5 trials/fuzzer) -->
    <g transform="translate(129.164375 16.318125)scale(0.12 -0.12)">
     <defs>
      <path d="M 48.6875 27.296875 
Q 48.6875 37.203125 44.609375 42.84375 
Q 40.53125 48.484375 33.40625 48.484375 
Q 26.265625 48.484375 22.1875 42.84375 
Q 18.109375 37.203125 18.109375 27.296875 
Q 18.109375 17.390625 22.1875 11.75 
Q 26.265625 6.109375 33.40625 6.109375 
Q 40.53125 6.109375 44.609375 11.75 
Q 48.6875 17.390625 48.6875 27.296875 
z
M 18.109375 46.390625 
Q 20.953125 51.265625 25.265625 53.625 
Q 29.59375 56 35.59375 56 
Q 45.5625 56 51.78125 48.09375 
Q 58.015625 40.1875 58.015625 27.296875 
Q 58.015625 14.40625 51.78125 6.484375 
Q 45.5625 -1.421875 35.59375 -1.421875 
Q 29.59375 -1.421875 25.265625 0.953125 
Q 20.953125 3.328125 18.109375 8.203125 
L 18.109375 0 
L 9.078125 0 
L 9.078125 75.984375 
L 18.109375 75.984375 
z
" id="DejaVuSans-98"/>
      <path d="M 4.890625 31.390625 
L 31.203125 31.390625 
L 31.203125 23.390625 
L 4.890625 23.390625 
z
" id="DejaVuSans-45"/>
      <path d="M 10.6875 12.40625 
L 21 12.40625 
L 21 0 
L 10.6875 0 
z
" id="DejaVuSans-46"/>
      <path d="M 33.015625 40.375 
Q 26.375 40.375 22.484375 35.828125 
Q 18.609375 31.296875 18.609375 23.390625 
Q 18.609375 15.53125 22.484375 10.953125 
Q 26.375 6.390625 33.015625 6.390625 
Q 39.65625 6.390625 43.53125 10.953125 
Q 47.40625 15.53125 47.40625 23.390625 
Q 47.40625 31.296875 43.53125 35.828125 
Q 39.65625 40.375 33.015625 40.375 
z
M 52.59375 71.296875 
L 52.59375 62.3125 
Q 48.875 64.0625 45.09375 64.984375 
Q 41.3125 65.921875 37.59375 65.921875 
Q 27.828125 65.921875 22.671875 59.328125 
Q 17.53125 52.734375 16.796875 39.40625 
Q 19.671875 43.65625 24.015625 45.921875 
Q 28.375 48.1875 33.59375 48.1875 
Q 44.578125 48.1875 50.953125 41.515625 
Q 57.328125 34.859375 57.328125 23.390625 
Q 57.328125 12.15625 50.6875 5.359375 
Q 44.046875 -1.421875 33.015625 -1.421875 
Q 20.359375 -1.421875 13.671875 8.265625 
Q 6.984375 17.96875 6.984375 36.375 
Q 6.984375 53.65625 15.1875 63.9375 
Q 23.390625 74.21875 37.203125 74.21875 
Q 40.921875 74.21875 44.703125 73.484375 
Q 48.484375 72.75 52.59375 71.296875 
z
" id="DejaVuSans-54"/>
      <path d="M 37.796875 64.3125 
L 12.890625 25.390625 
L 37.796875 25.390625 
z
M 35.203125 72.90625 
L 47.609375 72.90625 
L 47.609375 25.390625 
L 58.015625 25.390625 
L 58.015625 17.1875 
L 47.609375 17.1875 
L 47.609375 0 
L 37.796875 0 
L 37.796875 17.1875 
L 4.890625 17.1875 
L 4.890625 26.703125 
z
" id="DejaVuSans-52"/>
      <path d="M 11.71875 12.40625 
L 22.015625 12.40625 
L 22.015625 4 
L 14.015625 -11.625 
L 7.71875 -11.625 
L 11.71875 4 
z
" id="DejaVuSans-44"/>
      <path d="M 25.390625 72.90625 
L 33.6875 72.90625 
L 8.296875 -9.28125 
L 0 -9.28125 
z
" id="DejaVuSans-47"/>
     </defs>
     <use xlink:href="#DejaVuSans-108"/>
     <use x="27.783203" xlink:href="#DejaVuSans-105"/>
     <use x="55.566406" xlink:href="#DejaVuSans-98"/>
     <use x="119.042969" xlink:href="#DejaVuSans-112"/>
     <use x="182.519531" xlink:href="#DejaVuSans-110"/>
     <use x="245.898438" xlink:href="#DejaVuSans-103"/>
     <use x="309.375" xlink:href="#DejaVuSans-45"/>
     <use x="345.458984" xlink:href="#DejaVuSans-49"/>
     <use x="409.082031" xlink:href="#DejaVuSans-46"/>
     <use x="440.869141" xlink:href="#DejaVuSans-50"/>
     <use x="504.492188" xlink:href="#DejaVuSans-46"/>
     <use x="536.279297" xlink:href="#DejaVuSans-53"/>
     <use x="599.902344" xlink:href="#DejaVuSans-54"/>
     <use x="663.525391" xlink:href="#DejaVuSans-32"/>
     <use x="695.3125" xlink:href="#DejaVuSans-40"/>
     <use x="734.326172" xlink:href="#DejaVuSans-50"/>
     <use x="797.949219" xlink:href="#DejaVuSans-52"/>
     <use x="861.572266" xlink:href="#DejaVuSans-104"/>
     <use x="924.951172" xlink:href="#DejaVuSans-44"/>
     <use x="956.738281" xlink:href="#DejaVuSans-32"/>
     <use x="988.525391" xlink:href="#DejaVuSans-53"/>
     <use x="1052.148438" xlink:href="#DejaVuSans-32"/>
     <use x="1083.935547" xlink:href="#DejaVuSans-116"/>
     <use x="1123.144531" xlink:href="#DejaVuSans-114"/>
     <use x="1164.257812" xlink:href="#DejaVuSans-105"/>
     <use x="1192.041016" xlink:href="#DejaVuSans-97"/>
     <use x="1253.320312" xlink:href="#DejaVuSans-108"/>
     <use x="1281.103516" xlink:href="#DejaVuSans-115"/>
     <use x="1333.203125" xlink:href="#DejaVuSans-47"/>
     <use x="1366.894531" xlink:href="#DejaVuSans-102"/>
     <use x="1402.099609" xlink:href="#DejaVuSans-117"/>
     <use x="1465.478516" xlink:href="#DejaVuSans-122"/>
     <use x="1517.96875" xlink:href="#DejaVuSans-122"/>
     <use x="1570.458984" xlink:href="#DejaVuSans-101"/>
     <use x="1631.982422" xlink:href="#DejaVuSans-114"/>
     <use x="1673.095703" xlink:href="#DejaVuSans-41"/>
    </g>
   </g>
  </g>
 </g>
 <defs>
  <clipPath id="p778e5f9643">
   <rect height="266.112" width="357.12" x="53.328125" y="22.318125"/>
  </clipPath>
 </defs>
</svg>
