<?xml version="1.0" encoding="utf-8" standalone="no"?>
<!DOCTYPE svg PUBLIC "-//W3C//DTD SVG 1.1//EN"
  "http://www.w3.org/Graphics/SVG/1.1/DTD/svg11.dtd">
<!-- Created with matplotlib (https://matplotlib.org/) -->
<svg height="325.986375pt" version="1.1" viewBox="0 0 871.954062 325.986375" width="871.954062pt" xmlns="http://www.w3.org/2000/svg" xmlns:xlink="http://www.w3.org/1999/xlink">
 <metadata>
  <rdf:RDF xmlns:cc="http://creativecommons.org/ns#" xmlns:dc="http://purl.org/dc/elements/1.1/" xmlns:rdf="http://www.w3.org/1999/02/22-rdf-syntax-ns#">
   <cc:Work>
    <dc:type rdf:resource="http://purl.org/dc/dcmitype/StillImage"/>
    <dc:date>2020-10-25T11:33:16.223613</dc:date>
    <dc:format>image/svg+xml</dc:format>
    <dc:creator>
     <cc:Agent>
      <dc:title>Matplotlib v3.3.2, https://matplotlib.org/</dc:title>
     </cc:Agent>
    </dc:creator>
   </cc:Work>
  </rdf:RDF>
 </metadata>
 <defs>
  <style type="text/css">*{stroke-linecap:butt;stroke-linejoin:round;}</style>
 </defs>
 <g id="figure_1">
  <g id="patch_1">
   <path d="M 0 325.986375 
L 871.954063 325.986375 
L 871.954063 0 
L 0 0 
z
" style="fill:#ffffff;"/>
  </g>
  <g id="axes_1">
   <g id="patch_2">
    <path d="M 53.328125 288.430125 
L 767.568125 288.430125 
L 767.568125 22.318125 
L 53.328125 22.318125 
z
" style="fill:#ffffff;"/>
   </g>
   <g id="PolyCollection_1">
    <defs>
     <path d="M 85.79358 -226.441209 
L 85.79358 -49.65225 
L 92.628412 -229.240065 
L 99.463245 -229.964475 
L 106.298077 -231.7755 
L 113.13291 -233.418594 
L 119.967742 -239.546444 
L 126.802575 -239.659221 
L 133.637407 -245.638073 
L 140.47224 -247.514953 
L 147.307072 -250.379665 
L 154.141905 -251.894341 
L 160.976737 -252.9151 
L 167.81157 -253.573655 
L 174.646403 -253.902932 
L 181.481235 -254.396848 
L 188.316068 -256.603005 
L 195.1509 -260.554332 
L 201.985733 -260.850682 
L 208.820565 -261.509237 
L 215.655398 -264.571515 
L 222.49023 -265.23007 
L 229.325063 -265.394708 
L 236.159895 -265.592274 
L 242.994728 -265.592274 
L 249.82956 -265.032503 
L 256.664393 -265.756913 
L 263.499225 -265.789841 
L 270.334058 -266.053263 
L 277.168891 -265.460564 
L 284.003723 -266.053263 
L 290.838556 -268.193565 
L 297.673388 -269.109779 
L 304.508221 -269.181397 
L 311.343053 -269.426708 
L 318.177886 -269.444818 
L 325.012718 -269.444818 
L 331.847551 -269.444818 
L 338.682383 -269.444818 
L 345.517216 -274.976676 
L 352.352048 -276.260858 
L 359.186881 -276.359641 
L 366.021714 -276.524279 
L 372.856546 -276.392568 
L 379.691379 -276.520987 
L 386.526211 -276.787701 
L 393.361044 -276.919412 
L 400.195876 -276.787701 
L 407.030709 -276.95234 
L 413.865541 -276.95234 
L 420.700374 -276.95234 
L 427.535206 -276.754773 
L 434.370039 -277.051123 
L 441.204871 -277.545039 
L 448.039704 -277.545039 
L 454.874536 -277.347473 
L 461.709369 -278.269449 
L 468.544202 -278.334481 
L 475.379034 -278.795469 
L 482.213867 -279.619486 
L 489.048699 -279.685341 
L 495.883532 -279.717446 
L 502.718364 -279.717446 
L 509.553197 -279.750373 
L 516.388029 -279.685341 
L 523.222862 -279.684518 
L 530.057694 -279.784124 
L 536.892527 -279.685341 
L 543.727359 -279.685341 
L 550.562192 -279.685341 
L 557.397025 -279.784124 
L 564.231857 -279.717446 
L 571.06669 -279.784124 
L 577.901522 -279.784124 
L 584.736355 -279.84998 
L 591.571187 -279.784124 
L 598.40602 -279.784124 
L 605.240852 -279.718269 
L 612.075685 -279.652413 
L 618.910517 -279.882907 
L 625.74535 -280.113401 
L 632.580182 -279.980044 
L 639.415015 -279.915835 
L 646.249847 -279.915835 
L 653.08468 -279.981691 
L 659.919513 -279.915835 
L 666.754345 -279.915835 
L 673.589178 -279.915835 
L 680.42401 -279.915835 
L 687.258843 -279.94794 
L 694.093675 -279.980867 
L 700.928508 -281.101233 
L 707.76334 -281.134161 
L 714.598173 -281.101233 
L 721.433005 -281.101233 
L 728.267838 -281.101233 
L 735.10267 -281.134161 
L 735.10267 -286.567236 
L 735.10267 -286.567236 
L 728.267838 -286.435525 
L 721.433005 -286.435525 
L 714.598173 -286.435525 
L 707.76334 -286.435525 
L 700.928508 -286.435525 
L 694.093675 -286.237958 
L 687.258843 -286.172926 
L 680.42401 -286.173749 
L 673.589178 -286.172103 
L 666.754345 -286.172103 
L 659.919513 -285.908681 
L 653.08468 -286.172103 
L 646.249847 -286.172103 
L 639.415015 -286.237958 
L 632.580182 -286.040392 
L 625.74535 -286.106248 
L 618.910517 -285.414765 
L 612.075685 -285.250127 
L 605.240852 -285.118416 
L 598.40602 -285.184271 
L 591.571187 -285.185918 
L 584.736355 -285.250127 
L 577.901522 -285.250127 
L 571.06669 -285.184271 
L 564.231857 -285.381838 
L 557.397025 -285.217199 
L 550.562192 -284.986705 
L 543.727359 -285.118416 
L 536.892527 -284.986705 
L 530.057694 -285.085488 
L 523.222862 -285.019633 
L 516.388029 -285.019633 
L 509.553197 -285.019633 
L 502.718364 -284.953777 
L 495.883532 -285.019633 
L 489.048699 -284.953777 
L 482.213867 -284.953777 
L 475.379034 -285.019633 
L 468.544202 -284.531479 
L 461.709369 -284.525717 
L 454.874536 -284.459861 
L 448.039704 -284.756211 
L 441.204871 -284.459861 
L 434.370039 -284.46727 
L 427.535206 -284.459861 
L 420.700374 -284.756211 
L 413.865541 -284.459861 
L 407.030709 -284.756211 
L 400.195876 -284.459861 
L 393.361044 -283.801307 
L 386.526211 -284.459861 
L 379.691379 -284.591572 
L 372.856546 -284.459861 
L 366.021714 -284.459861 
L 359.186881 -284.459861 
L 352.352048 -284.426934 
L 345.517216 -284.426934 
L 338.682383 -284.426934 
L 331.847551 -284.426934 
L 325.012718 -284.229367 
L 318.177886 -283.537885 
L 311.343053 -281.858571 
L 304.508221 -281.463438 
L 297.673388 -280.409751 
L 290.838556 -280.418806 
L 284.003723 -279.685341 
L 277.168891 -279.203773 
L 270.334058 -278.434087 
L 263.499225 -277.775533 
L 256.664393 -277.742605 
L 249.82956 -278.348475 
L 242.994728 -278.895076 
L 236.159895 -278.170666 
L 229.325063 -278.038955 
L 222.49023 -277.874316 
L 215.655398 -277.489885 
L 208.820565 -276.627179 
L 201.985733 -276.397508 
L 195.1509 -270.070445 
L 188.316068 -270.070445 
L 181.481235 -268.326922 
L 174.646403 -267.864288 
L 167.81157 -266.876456 
L 160.976737 -265.36178 
L 154.141905 -261.245815 
L 147.307072 -260.653116 
L 140.47224 -258.51446 
L 133.637407 -254.726125 
L 126.802575 -250.74187 
L 119.967742 -248.371074 
L 113.13291 -244.320964 
L 106.298077 -239.513516 
L 99.463245 -237.669563 
L 92.628412 -236.154888 
L 85.79358 -226.441209 
z
" id="ma2ee48121b" style="stroke:#c7c7c7;stroke-opacity:0.2;"/>
    </defs>
    <g clip-path="url(#pfeedd9a585)">
     <use style="fill:#c7c7c7;fill-opacity:0.2;stroke:#c7c7c7;stroke-opacity:0.2;" x="0" xlink:href="#ma2ee48121b" y="325.986375"/>
    </g>
   </g>
   <g id="PolyCollection_2">
    <defs>
     <path d="M 85.79358 -263.223948 
L 85.79358 -256.997315 
L 92.628412 -265.098359 
L 99.463245 -266.448395 
L 106.298077 -274.318122 
L 113.13291 -274.153483 
L 119.967742 -274.48276 
L 126.802575 -274.449833 
L 133.637407 -274.877893 
L 140.47224 -274.877893 
L 147.307072 -274.877893 
L 154.141905 -275.174243 
L 160.976737 -275.174243 
L 167.81157 -275.20717 
L 174.646403 -275.20717 
L 181.481235 -275.470592 
L 188.316068 -275.701086 
L 195.1509 -275.626999 
L 201.985733 -275.305954 
L 208.820565 -275.305954 
L 215.655398 -275.305954 
L 222.49023 -275.626999 
L 229.325063 -275.731544 
L 236.159895 -275.799869 
L 242.994728 -275.305954 
L 249.82956 -275.832797 
L 256.664393 -275.296075 
L 263.499225 -275.827858 
L 270.334058 -275.305954 
L 277.168891 -275.305954 
L 284.003723 -275.832797 
L 290.838556 -275.832797 
L 297.673388 -275.305954 
L 304.508221 -275.832797 
L 311.343053 -275.832797 
L 318.177886 -275.305954 
L 325.012718 -275.305954 
L 331.847551 -275.832797 
L 338.682383 -275.898653 
L 345.517216 -276.162074 
L 352.352048 -276.162074 
L 359.186881 -275.635231 
L 366.021714 -275.305954 
L 372.856546 -276.155489 
L 379.691379 -276.22793 
L 386.526211 -275.635231 
L 393.361044 -275.305954 
L 400.195876 -275.898653 
L 407.030709 -275.898653 
L 413.865541 -275.305954 
L 420.700374 -275.305954 
L 427.535206 -275.305954 
L 434.370039 -275.892067 
L 441.204871 -275.297722 
L 448.039704 -275.898653 
L 454.874536 -275.898653 
L 461.709369 -275.898653 
L 468.544202 -275.898653 
L 475.379034 -275.305954 
L 482.213867 -275.898653 
L 489.048699 -275.898653 
L 495.883532 -275.635231 
L 502.718364 -275.898653 
L 509.553197 -275.898653 
L 516.388029 -275.892067 
L 523.222862 -275.305954 
L 530.057694 -275.898653 
L 536.892527 -275.635231 
L 543.727359 -275.297722 
L 550.562192 -275.883835 
L 557.397025 -275.305954 
L 564.231857 -275.898653 
L 571.06669 -275.898653 
L 577.901522 -275.898653 
L 584.736355 -275.898653 
L 591.571187 -275.371809 
L 598.40602 -275.371809 
L 605.240852 -275.371809 
L 612.075685 -275.898653 
L 618.910517 -275.635231 
L 625.74535 -275.628645 
L 632.580182 -275.628645 
L 639.415015 -275.892067 
L 646.249847 -275.898653 
L 653.08468 -275.898653 
L 659.919513 -275.898653 
L 666.754345 -275.898653 
L 673.589178 -275.898653 
L 680.42401 -275.898653 
L 687.258843 -275.635231 
L 694.093675 -275.898653 
L 700.928508 -275.371809 
L 707.76334 -275.371809 
L 714.598173 -275.898653 
L 721.433005 -275.898653 
L 728.267838 -275.892067 
L 735.10267 -275.371809 
L 735.10267 -290.979551 
L 735.10267 -290.979551 
L 728.267838 -290.979551 
L 721.433005 -290.584418 
L 714.598173 -290.584418 
L 707.76334 -291.57225 
L 700.928508 -290.386852 
L 694.093675 -290.386852 
L 687.258843 -290.781985 
L 680.42401 -290.39673 
L 673.589178 -290.781985 
L 666.754345 -290.39673 
L 659.919513 -290.386852 
L 653.08468 -291.57225 
L 646.249847 -290.781985 
L 639.415015 -290.781985 
L 632.580182 -289.860008 
L 625.74535 -290.781985 
L 618.910517 -290.39673 
L 612.075685 -290.781985 
L 605.240852 -290.386852 
L 598.40602 -290.781985 
L 591.571187 -290.781985 
L 584.736355 -290.683201 
L 577.901522 -290.288069 
L 571.06669 -291.473467 
L 564.231857 -290.617346 
L 557.397025 -290.617346 
L 550.562192 -290.288069 
L 543.727359 -290.617346 
L 536.892527 -289.69537 
L 530.057694 -289.710187 
L 523.222862 -290.288069 
L 516.388029 -290.288069 
L 509.553197 -290.288069 
L 502.718364 -291.473467 
L 495.883532 -290.288069 
L 489.048699 -290.288069 
L 482.213867 -290.288069 
L 475.379034 -290.617346 
L 468.544202 -290.617346 
L 461.709369 -290.617346 
L 454.874536 -290.617346 
L 448.039704 -289.710187 
L 441.204871 -290.617346 
L 434.370039 -290.288069 
L 427.535206 -290.617346 
L 420.700374 -291.473467 
L 413.865541 -290.617346 
L 407.030709 -290.617346 
L 400.195876 -290.288069 
L 393.361044 -290.617346 
L 386.526211 -290.617346 
L 379.691379 -291.473467 
L 372.856546 -290.288069 
L 366.021714 -289.69537 
L 359.186881 -290.296301 
L 352.352048 -289.69537 
L 345.517216 -291.473467 
L 338.682383 -290.617346 
L 331.847551 -290.635456 
L 325.012718 -290.617346 
L 318.177886 -291.341756 
L 311.343053 -290.222213 
L 304.508221 -290.222213 
L 297.673388 -289.69537 
L 290.838556 -290.232092 
L 284.003723 -289.708541 
L 277.168891 -291.341756 
L 270.334058 -290.222213 
L 263.499225 -290.617346 
L 256.664393 -289.69537 
L 249.82956 -289.69537 
L 242.994728 -289.69537 
L 236.159895 -289.707718 
L 229.325063 -290.617346 
L 222.49023 -289.003887 
L 215.655398 -289.925864 
L 208.820565 -289.003887 
L 201.985733 -289.925864 
L 195.1509 -289.39902 
L 188.316068 -289.013766 
L 181.481235 -289.925864 
L 174.646403 -288.938032 
L 167.81157 -289.168526 
L 160.976737 -289.892936 
L 154.141905 -289.186636 
L 147.307072 -288.905104 
L 140.47224 -289.892936 
L 133.637407 -288.910867 
L 126.802575 -289.366092 
L 119.967742 -289.333165 
L 113.13291 -288.913336 
L 106.298077 -289.102671 
L 99.463245 -286.435525 
L 92.628412 -278.895076 
L 85.79358 -263.223948 
z
" id="m1f24be08ac" style="stroke:#d62728;stroke-opacity:0.2;"/>
    </defs>
    <g clip-path="url(#pfeedd9a585)">
     <use style="fill:#d62728;fill-opacity:0.2;stroke:#d62728;stroke-opacity:0.2;" x="0" xlink:href="#m1f24be08ac" y="325.986375"/>
    </g>
   </g>
   <g id="PolyCollection_3">
    <defs>
     <path d="M 85.79358 -252.717534 
L 85.79358 -247.482025 
L 92.628412 -248.272291 
L 99.463245 -249.224725 
L 106.298077 -249.688183 
L 113.13291 -252.882172 
L 119.967742 -254.034643 
L 126.802575 -257.228632 
L 133.637407 -257.887187 
L 140.47224 -260.817754 
L 147.307072 -262.990984 
L 154.141905 -263.386117 
L 160.976737 -263.386117 
L 167.81157 -264.076776 
L 174.646403 -264.142631 
L 181.481235 -264.143455 
L 188.316068 -264.142631 
L 195.1509 -264.143455 
L 201.985733 -264.242238 
L 208.820565 -264.308093 
L 215.655398 -264.373125 
L 222.49023 -264.341021 
L 229.325063 -264.406876 
L 236.159895 -264.50566 
L 242.994728 -264.50566 
L 249.82956 -264.50566 
L 256.664393 -264.571515 
L 263.499225 -264.834937 
L 270.334058 -264.867865 
L 277.168891 -264.769081 
L 284.003723 -264.834937 
L 290.838556 -264.867041 
L 297.673388 -264.867865 
L 304.508221 -264.834937 
L 311.343053 -264.867865 
L 318.177886 -265.03168 
L 325.012718 -265.691058 
L 331.847551 -265.691058 
L 338.682383 -265.723162 
L 345.517216 -265.691058 
L 352.352048 -265.691058 
L 359.186881 -265.691058 
L 366.021714 -265.723985 
L 372.856546 -265.723985 
L 379.691379 -265.723985 
L 386.526211 -265.723985 
L 393.361044 -265.756913 
L 400.195876 -265.756913 
L 407.030709 -265.756913 
L 413.865541 -265.75609 
L 420.700374 -265.756913 
L 427.535206 -265.789841 
L 434.370039 -265.723985 
L 441.204871 -265.789841 
L 448.039704 -265.789841 
L 454.874536 -265.789841 
L 461.709369 -265.789841 
L 468.544202 -265.789841 
L 475.379034 -265.789841 
L 482.213867 -265.789841 
L 489.048699 -265.789841 
L 495.883532 -265.987407 
L 502.718364 -266.053263 
L 509.553197 -266.053263 
L 516.388029 -266.053263 
L 523.222862 -266.119118 
L 530.057694 -266.119118 
L 536.892527 -266.119118 
L 543.727359 -266.119118 
L 550.562192 -266.119118 
L 557.397025 -266.119118 
L 564.231857 -266.119118 
L 571.06669 -266.119118 
L 577.901522 -266.119118 
L 584.736355 -266.184974 
L 591.571187 -266.184974 
L 598.40602 -266.184974 
L 605.240852 -266.184974 
L 612.075685 -266.184974 
L 618.910517 -266.184974 
L 625.74535 -266.184974 
L 632.580182 -266.184974 
L 639.415015 -266.184974 
L 646.249847 -266.184974 
L 653.08468 -266.250829 
L 659.919513 -266.250829 
L 666.754345 -266.250829 
L 673.589178 -266.250829 
L 680.42401 -266.250829 
L 687.258843 -266.250829 
L 694.093675 -266.250829 
L 700.928508 -266.250829 
L 707.76334 -266.250829 
L 714.598173 -266.250829 
L 721.433005 -266.250829 
L 728.267838 -266.250829 
L 735.10267 -266.250829 
L 735.10267 -268.522842 
L 735.10267 -268.522842 
L 728.267838 -267.370372 
L 721.433005 -267.370372 
L 714.598173 -267.370372 
L 707.76334 -267.370372 
L 700.928508 -267.370372 
L 694.093675 -267.370372 
L 687.258843 -267.370372 
L 680.42401 -267.370372 
L 673.589178 -267.370372 
L 666.754345 -267.436227 
L 659.919513 -267.271589 
L 653.08468 -267.271589 
L 646.249847 -267.172805 
L 639.415015 -267.238661 
L 632.580182 -267.174452 
L 625.74535 -267.172805 
L 618.910517 -267.174452 
L 612.075685 -267.172805 
L 605.240852 -267.238661 
L 598.40602 -267.174452 
L 591.571187 -267.238661 
L 584.736355 -267.238661 
L 577.901522 -267.238661 
L 571.06669 -267.205733 
L 564.231857 -267.205733 
L 557.397025 -267.238661 
L 550.562192 -267.205733 
L 543.727359 -267.205733 
L 536.892527 -267.205733 
L 530.057694 -267.173629 
L 523.222862 -267.205733 
L 516.388029 -267.172805 
L 509.553197 -267.172805 
L 502.718364 -267.238661 
L 495.883532 -267.205733 
L 489.048699 -267.172805 
L 482.213867 -267.10695 
L 475.379034 -267.172805 
L 468.544202 -267.10695 
L 461.709369 -267.172805 
L 454.874536 -267.10695 
L 448.039704 -267.10695 
L 441.204871 -267.10695 
L 434.370039 -266.38254 
L 427.535206 -266.38254 
L 420.700374 -266.38254 
L 413.865541 -266.38254 
L 407.030709 -266.316684 
L 400.195876 -266.316684 
L 393.361044 -266.316684 
L 386.526211 -266.316684 
L 379.691379 -266.316684 
L 372.856546 -266.316684 
L 366.021714 -266.316684 
L 359.186881 -266.250829 
L 352.352048 -266.250829 
L 345.517216 -266.250829 
L 338.682383 -266.250829 
L 331.847551 -266.250829 
L 325.012718 -266.250829 
L 318.177886 -266.250829 
L 311.343053 -266.08619 
L 304.508221 -265.987407 
L 297.673388 -266.020335 
L 290.838556 -266.021158 
L 284.003723 -266.021158 
L 277.168891 -266.020335 
L 270.334058 -265.954479 
L 263.499225 -265.954479 
L 256.664393 -265.691881 
L 249.82956 -265.625202 
L 242.994728 -265.625202 
L 236.159895 -265.559347 
L 229.325063 -265.526419 
L 222.49023 -265.526419 
L 215.655398 -265.526419 
L 208.820565 -265.526419 
L 201.985733 -265.526419 
L 195.1509 -265.460564 
L 188.316068 -265.493491 
L 181.481235 -265.394708 
L 174.646403 -265.427636 
L 167.81157 -265.36178 
L 160.976737 -265.36178 
L 154.141905 -265.328853 
L 147.307072 -265.23007 
L 140.47224 -265.032503 
L 133.637407 -263.78125 
L 126.802575 -261.575092 
L 119.967742 -261.542164 
L 113.13291 -260.521405 
L 106.298077 -259.270151 
L 99.463245 -258.512813 
L 92.628412 -254.594414 
L 85.79358 -252.717534 
z
" id="m78d76afdc8" style="stroke:#98df8a;stroke-opacity:0.2;"/>
    </defs>
    <g clip-path="url(#pfeedd9a585)">
     <use style="fill:#98df8a;fill-opacity:0.2;stroke:#98df8a;stroke-opacity:0.2;" x="0" xlink:href="#m78d76afdc8" y="325.986375"/>
    </g>
   </g>
   <g id="PolyCollection_4">
    <defs>
     <path d="M 85.79358 -256.899355 
L 85.79358 -251.169931 
L 92.628412 -256.273728 
L 99.463245 -256.800572 
L 106.298077 -256.866427 
L 113.13291 -256.899355 
L 119.967742 -256.899355 
L 126.802575 -256.899355 
L 133.637407 -256.899355 
L 140.47224 -256.899355 
L 147.307072 -256.932283 
L 154.141905 -256.932283 
L 160.976737 -256.932283 
L 167.81157 -256.932283 
L 174.646403 -256.932283 
L 181.481235 -256.932283 
L 188.316068 -256.932283 
L 195.1509 -257.031066 
L 201.985733 -257.031066 
L 208.820565 -257.129849 
L 215.655398 -257.129849 
L 222.49023 -257.129849 
L 229.325063 -257.129849 
L 236.159895 -257.129849 
L 242.994728 -257.129849 
L 249.82956 -257.129849 
L 256.664393 -257.228632 
L 263.499225 -257.228632 
L 270.334058 -257.195704 
L 277.168891 -257.228632 
L 284.003723 -257.228632 
L 290.838556 -257.228632 
L 297.673388 -257.228632 
L 304.508221 -257.228632 
L 311.343053 -257.228632 
L 318.177886 -257.228632 
L 325.012718 -257.228632 
L 331.847551 -257.228632 
L 338.682383 -257.228632 
L 345.517216 -257.228632 
L 352.352048 -257.228632 
L 359.186881 -257.228632 
L 366.021714 -257.228632 
L 372.856546 -257.228632 
L 379.691379 -257.228632 
L 386.526211 -257.227809 
L 393.361044 -257.228632 
L 400.195876 -257.228632 
L 407.030709 -257.228632 
L 413.865541 -257.228632 
L 420.700374 -257.228632 
L 427.535206 -257.228632 
L 434.370039 -257.26156 
L 441.204871 -257.228632 
L 448.039704 -257.26156 
L 454.874536 -257.228632 
L 461.709369 -257.228632 
L 468.544202 -257.228632 
L 475.379034 -257.228632 
L 482.213867 -257.228632 
L 489.048699 -257.228632 
L 495.883532 -257.260737 
L 502.718364 -257.26156 
L 509.553197 -257.228632 
L 516.388029 -257.228632 
L 523.222862 -257.228632 
L 530.057694 -257.26156 
L 536.892527 -257.26156 
L 543.727359 -257.26156 
L 550.562192 -257.228632 
L 557.397025 -257.260737 
L 564.231857 -257.26156 
L 571.06669 -257.26156 
L 577.901522 -257.26156 
L 584.736355 -257.26156 
L 591.571187 -257.26156 
L 598.40602 -257.260737 
L 605.240852 -257.260737 
L 612.075685 -257.26156 
L 618.910517 -257.26156 
L 625.74535 -257.228632 
L 632.580182 -257.228632 
L 639.415015 -257.26156 
L 646.249847 -257.228632 
L 653.08468 -257.26156 
L 659.919513 -257.260737 
L 666.754345 -257.26156 
L 673.589178 -257.26156 
L 680.42401 -257.26156 
L 687.258843 -257.26156 
L 694.093675 -257.228632 
L 700.928508 -257.26156 
L 707.76334 -257.228632 
L 714.598173 -257.26156 
L 721.433005 -257.26156 
L 728.267838 -257.26156 
L 735.10267 -257.228632 
L 735.10267 -257.68962 
L 735.10267 -257.68962 
L 728.267838 -257.656693 
L 721.433005 -257.656693 
L 714.598173 -257.656693 
L 707.76334 -257.623765 
L 700.928508 -257.656693 
L 694.093675 -257.590837 
L 687.258843 -257.656693 
L 680.42401 -257.623765 
L 673.589178 -257.590837 
L 666.754345 -257.59166 
L 659.919513 -257.624588 
L 653.08468 -257.623765 
L 646.249847 -257.590837 
L 639.415015 -257.623765 
L 632.580182 -257.623765 
L 625.74535 -257.59166 
L 618.910517 -257.623765 
L 612.075685 -257.623765 
L 605.240852 -257.623765 
L 598.40602 -257.623765 
L 591.571187 -257.623765 
L 584.736355 -257.623765 
L 577.901522 -257.623765 
L 571.06669 -257.623765 
L 564.231857 -257.656693 
L 557.397025 -257.623765 
L 550.562192 -257.623765 
L 543.727359 -257.623765 
L 536.892527 -257.623765 
L 530.057694 -257.623765 
L 523.222862 -257.557909 
L 516.388029 -257.524982 
L 509.553197 -257.524982 
L 502.718364 -257.524982 
L 495.883532 -257.524982 
L 489.048699 -257.524982 
L 482.213867 -257.524982 
L 475.379034 -257.524982 
L 468.544202 -257.524982 
L 461.709369 -257.524982 
L 454.874536 -257.524982 
L 448.039704 -257.524982 
L 441.204871 -257.524982 
L 434.370039 -257.524982 
L 427.535206 -257.524982 
L 420.700374 -257.524982 
L 413.865541 -257.524982 
L 407.030709 -257.524982 
L 400.195876 -257.524982 
L 393.361044 -257.524982 
L 386.526211 -257.492054 
L 379.691379 -257.524982 
L 372.856546 -257.492054 
L 366.021714 -257.524982 
L 359.186881 -257.524982 
L 352.352048 -257.492054 
L 345.517216 -257.524982 
L 338.682383 -257.492054 
L 331.847551 -257.524982 
L 325.012718 -257.524982 
L 318.177886 -257.492054 
L 311.343053 -257.492054 
L 304.508221 -257.492054 
L 297.673388 -257.524982 
L 290.838556 -257.492054 
L 284.003723 -257.492054 
L 277.168891 -257.524982 
L 270.334058 -257.426199 
L 263.499225 -257.426199 
L 256.664393 -257.426199 
L 249.82956 -257.426199 
L 242.994728 -257.426199 
L 236.159895 -257.426199 
L 229.325063 -257.426199 
L 222.49023 -257.426199 
L 215.655398 -257.426199 
L 208.820565 -257.426199 
L 201.985733 -257.426199 
L 195.1509 -257.426199 
L 188.316068 -257.426199 
L 181.481235 -257.426199 
L 174.646403 -257.426199 
L 167.81157 -257.426199 
L 160.976737 -257.426199 
L 154.141905 -257.426199 
L 147.307072 -257.426199 
L 140.47224 -257.426199 
L 133.637407 -257.426199 
L 126.802575 -257.426199 
L 119.967742 -257.426199 
L 113.13291 -257.360343 
L 106.298077 -257.327415 
L 99.463245 -257.327415 
L 92.628412 -257.162777 
L 85.79358 -256.899355 
z
" id="m0055c17427" style="stroke:#1f77b4;stroke-opacity:0.2;"/>
    </defs>
    <g clip-path="url(#pfeedd9a585)">
     <use style="fill:#1f77b4;fill-opacity:0.2;stroke:#1f77b4;stroke-opacity:0.2;" x="0" xlink:href="#m0055c17427" y="325.986375"/>
    </g>
   </g>
   <g id="matplotlib.axis_1">
    <g id="xtick_1">
     <g id="line2d_1">
      <defs>
       <path d="M 0 0 
L 0 3.5 
" id="m353e418132" style="stroke:#000000;stroke-width:0.8;"/>
      </defs>
      <g>
       <use style="stroke:#000000;stroke-width:0.8;" x="85.79358" xlink:href="#m353e418132" y="288.430125"/>
      </g>
     </g>
     <g id="text_1">
      <!-- 15m -->
      <g transform="translate(74.560767 303.028562)scale(0.1 -0.1)">
       <defs>
        <path d="M 12.40625 8.296875 
L 28.515625 8.296875 
L 28.515625 63.921875 
L 10.984375 60.40625 
L 10.984375 69.390625 
L 28.421875 72.90625 
L 38.28125 72.90625 
L 38.28125 8.296875 
L 54.390625 8.296875 
L 54.390625 0 
L 12.40625 0 
z
" id="DejaVuSans-49"/>
        <path d="M 10.796875 72.90625 
L 49.515625 72.90625 
L 49.515625 64.59375 
L 19.828125 64.59375 
L 19.828125 46.734375 
Q 21.96875 47.46875 24.109375 47.828125 
Q 26.265625 48.1875 28.421875 48.1875 
Q 40.625 48.1875 47.75 41.5 
Q 54.890625 34.8125 54.890625 23.390625 
Q 54.890625 11.625 47.5625 5.09375 
Q 40.234375 -1.421875 26.90625 -1.421875 
Q 22.3125 -1.421875 17.546875 -0.640625 
Q 12.796875 0.140625 7.71875 1.703125 
L 7.71875 11.625 
Q 12.109375 9.234375 16.796875 8.0625 
Q 21.484375 6.890625 26.703125 6.890625 
Q 35.15625 6.890625 40.078125 11.328125 
Q 45.015625 15.765625 45.015625 23.390625 
Q 45.015625 31 40.078125 35.4375 
Q 35.15625 39.890625 26.703125 39.890625 
Q 22.75 39.890625 18.8125 39.015625 
Q 14.890625 38.140625 10.796875 36.28125 
z
" id="DejaVuSans-53"/>
        <path d="M 52 44.1875 
Q 55.375 50.25 60.0625 53.125 
Q 64.75 56 71.09375 56 
Q 79.640625 56 84.28125 50.015625 
Q 88.921875 44.046875 88.921875 33.015625 
L 88.921875 0 
L 79.890625 0 
L 79.890625 32.71875 
Q 79.890625 40.578125 77.09375 44.375 
Q 74.3125 48.1875 68.609375 48.1875 
Q 61.625 48.1875 57.5625 43.546875 
Q 53.515625 38.921875 53.515625 30.90625 
L 53.515625 0 
L 44.484375 0 
L 44.484375 32.71875 
Q 44.484375 40.625 41.703125 44.40625 
Q 38.921875 48.1875 33.109375 48.1875 
Q 26.21875 48.1875 22.15625 43.53125 
Q 18.109375 38.875 18.109375 30.90625 
L 18.109375 0 
L 9.078125 0 
L 9.078125 54.6875 
L 18.109375 54.6875 
L 18.109375 46.1875 
Q 21.1875 51.21875 25.484375 53.609375 
Q 29.78125 56 35.6875 56 
Q 41.65625 56 45.828125 52.96875 
Q 50 49.953125 52 44.1875 
z
" id="DejaVuSans-109"/>
       </defs>
       <use xlink:href="#DejaVuSans-49"/>
       <use x="63.623047" xlink:href="#DejaVuSans-53"/>
       <use x="127.246094" xlink:href="#DejaVuSans-109"/>
      </g>
     </g>
    </g>
    <g id="xtick_2">
     <g id="line2d_2">
      <g>
       <use style="stroke:#000000;stroke-width:0.8;" x="140.47224" xlink:href="#m353e418132" y="288.430125"/>
      </g>
     </g>
     <g id="text_2">
      <!-- 2h:15m -->
      <g transform="translate(121.205052 303.028562)scale(0.1 -0.1)">
       <defs>
        <path d="M 19.1875 8.296875 
L 53.609375 8.296875 
L 53.609375 0 
L 7.328125 0 
L 7.328125 8.296875 
Q 12.9375 14.109375 22.625 23.890625 
Q 32.328125 33.6875 34.8125 36.53125 
Q 39.546875 41.84375 41.421875 45.53125 
Q 43.3125 49.21875 43.3125 52.78125 
Q 43.3125 58.59375 39.234375 62.25 
Q 35.15625 65.921875 28.609375 65.921875 
Q 23.96875 65.921875 18.8125 64.3125 
Q 13.671875 62.703125 7.8125 59.421875 
L 7.8125 69.390625 
Q 13.765625 71.78125 18.9375 73 
Q 24.125 74.21875 28.421875 74.21875 
Q 39.75 74.21875 46.484375 68.546875 
Q 53.21875 62.890625 53.21875 53.421875 
Q 53.21875 48.921875 51.53125 44.890625 
Q 49.859375 40.875 45.40625 35.40625 
Q 44.1875 33.984375 37.640625 27.21875 
Q 31.109375 20.453125 19.1875 8.296875 
z
" id="DejaVuSans-50"/>
        <path d="M 54.890625 33.015625 
L 54.890625 0 
L 45.90625 0 
L 45.90625 32.71875 
Q 45.90625 40.484375 42.875 44.328125 
Q 39.84375 48.1875 33.796875 48.1875 
Q 26.515625 48.1875 22.3125 43.546875 
Q 18.109375 38.921875 18.109375 30.90625 
L 18.109375 0 
L 9.078125 0 
L 9.078125 75.984375 
L 18.109375 75.984375 
L 18.109375 46.1875 
Q 21.34375 51.125 25.703125 53.5625 
Q 30.078125 56 35.796875 56 
Q 45.21875 56 50.046875 50.171875 
Q 54.890625 44.34375 54.890625 33.015625 
z
" id="DejaVuSans-104"/>
        <path d="M 11.71875 12.40625 
L 22.015625 12.40625 
L 22.015625 0 
L 11.71875 0 
z
M 11.71875 51.703125 
L 22.015625 51.703125 
L 22.015625 39.3125 
L 11.71875 39.3125 
z
" id="DejaVuSans-58"/>
       </defs>
       <use xlink:href="#DejaVuSans-50"/>
       <use x="63.623047" xlink:href="#DejaVuSans-104"/>
       <use x="127.001953" xlink:href="#DejaVuSans-58"/>
       <use x="160.693359" xlink:href="#DejaVuSans-49"/>
       <use x="224.316406" xlink:href="#DejaVuSans-53"/>
       <use x="287.939453" xlink:href="#DejaVuSans-109"/>
      </g>
     </g>
    </g>
    <g id="xtick_3">
     <g id="line2d_3">
      <g>
       <use style="stroke:#000000;stroke-width:0.8;" x="195.1509" xlink:href="#m353e418132" y="288.430125"/>
      </g>
     </g>
     <g id="text_3">
      <!-- 4h:15m -->
      <g transform="translate(175.883713 303.028562)scale(0.1 -0.1)">
       <defs>
        <path d="M 37.796875 64.3125 
L 12.890625 25.390625 
L 37.796875 25.390625 
z
M 35.203125 72.90625 
L 47.609375 72.90625 
L 47.609375 25.390625 
L 58.015625 25.390625 
L 58.015625 17.1875 
L 47.609375 17.1875 
L 47.609375 0 
L 37.796875 0 
L 37.796875 17.1875 
L 4.890625 17.1875 
L 4.890625 26.703125 
z
" id="DejaVuSans-52"/>
       </defs>
       <use xlink:href="#DejaVuSans-52"/>
       <use x="63.623047" xlink:href="#DejaVuSans-104"/>
       <use x="127.001953" xlink:href="#DejaVuSans-58"/>
       <use x="160.693359" xlink:href="#DejaVuSans-49"/>
       <use x="224.316406" xlink:href="#DejaVuSans-53"/>
       <use x="287.939453" xlink:href="#DejaVuSans-109"/>
      </g>
     </g>
    </g>
    <g id="xtick_4">
     <g id="line2d_4">
      <g>
       <use style="stroke:#000000;stroke-width:0.8;" x="249.82956" xlink:href="#m353e418132" y="288.430125"/>
      </g>
     </g>
     <g id="text_4">
      <!-- 6h:15m -->
      <g transform="translate(230.562373 303.028562)scale(0.1 -0.1)">
       <defs>
        <path d="M 33.015625 40.375 
Q 26.375 40.375 22.484375 35.828125 
Q 18.609375 31.296875 18.609375 23.390625 
Q 18.609375 15.53125 22.484375 10.953125 
Q 26.375 6.390625 33.015625 6.390625 
Q 39.65625 6.390625 43.53125 10.953125 
Q 47.40625 15.53125 47.40625 23.390625 
Q 47.40625 31.296875 43.53125 35.828125 
Q 39.65625 40.375 33.015625 40.375 
z
M 52.59375 71.296875 
L 52.59375 62.3125 
Q 48.875 64.0625 45.09375 64.984375 
Q 41.3125 65.921875 37.59375 65.921875 
Q 27.828125 65.921875 22.671875 59.328125 
Q 17.53125 52.734375 16.796875 39.40625 
Q 19.671875 43.65625 24.015625 45.921875 
Q 28.375 48.1875 33.59375 48.1875 
Q 44.578125 48.1875 50.953125 41.515625 
Q 57.328125 34.859375 57.328125 23.390625 
Q 57.328125 12.15625 50.6875 5.359375 
Q 44.046875 -1.421875 33.015625 -1.421875 
Q 20.359375 -1.421875 13.671875 8.265625 
Q 6.984375 17.96875 6.984375 36.375 
Q 6.984375 53.65625 15.1875 63.9375 
Q 23.390625 74.21875 37.203125 74.21875 
Q 40.921875 74.21875 44.703125 73.484375 
Q 48.484375 72.75 52.59375 71.296875 
z
" id="DejaVuSans-54"/>
       </defs>
       <use xlink:href="#DejaVuSans-54"/>
       <use x="63.623047" xlink:href="#DejaVuSans-104"/>
       <use x="127.001953" xlink:href="#DejaVuSans-58"/>
       <use x="160.693359" xlink:href="#DejaVuSans-49"/>
       <use x="224.316406" xlink:href="#DejaVuSans-53"/>
       <use x="287.939453" xlink:href="#DejaVuSans-109"/>
      </g>
     </g>
    </g>
    <g id="xtick_5">
     <g id="line2d_5">
      <g>
       <use style="stroke:#000000;stroke-width:0.8;" x="304.508221" xlink:href="#m353e418132" y="288.430125"/>
      </g>
     </g>
     <g id="text_5">
      <!-- 8h:15m -->
      <g transform="translate(285.241033 303.028562)scale(0.1 -0.1)">
       <defs>
        <path d="M 31.78125 34.625 
Q 24.75 34.625 20.71875 30.859375 
Q 16.703125 27.09375 16.703125 20.515625 
Q 16.703125 13.921875 20.71875 10.15625 
Q 24.75 6.390625 31.78125 6.390625 
Q 38.8125 6.390625 42.859375 10.171875 
Q 46.921875 13.96875 46.921875 20.515625 
Q 46.921875 27.09375 42.890625 30.859375 
Q 38.875 34.625 31.78125 34.625 
z
M 21.921875 38.8125 
Q 15.578125 40.375 12.03125 44.71875 
Q 8.5 49.078125 8.5 55.328125 
Q 8.5 64.0625 14.71875 69.140625 
Q 20.953125 74.21875 31.78125 74.21875 
Q 42.671875 74.21875 48.875 69.140625 
Q 55.078125 64.0625 55.078125 55.328125 
Q 55.078125 49.078125 51.53125 44.71875 
Q 48 40.375 41.703125 38.8125 
Q 48.828125 37.15625 52.796875 32.3125 
Q 56.78125 27.484375 56.78125 20.515625 
Q 56.78125 9.90625 50.3125 4.234375 
Q 43.84375 -1.421875 31.78125 -1.421875 
Q 19.734375 -1.421875 13.25 4.234375 
Q 6.78125 9.90625 6.78125 20.515625 
Q 6.78125 27.484375 10.78125 32.3125 
Q 14.796875 37.15625 21.921875 38.8125 
z
M 18.3125 54.390625 
Q 18.3125 48.734375 21.84375 45.5625 
Q 25.390625 42.390625 31.78125 42.390625 
Q 38.140625 42.390625 41.71875 45.5625 
Q 45.3125 48.734375 45.3125 54.390625 
Q 45.3125 60.0625 41.71875 63.234375 
Q 38.140625 66.40625 31.78125 66.40625 
Q 25.390625 66.40625 21.84375 63.234375 
Q 18.3125 60.0625 18.3125 54.390625 
z
" id="DejaVuSans-56"/>
       </defs>
       <use xlink:href="#DejaVuSans-56"/>
       <use x="63.623047" xlink:href="#DejaVuSans-104"/>
       <use x="127.001953" xlink:href="#DejaVuSans-58"/>
       <use x="160.693359" xlink:href="#DejaVuSans-49"/>
       <use x="224.316406" xlink:href="#DejaVuSans-53"/>
       <use x="287.939453" xlink:href="#DejaVuSans-109"/>
      </g>
     </g>
    </g>
    <g id="xtick_6">
     <g id="line2d_6">
      <g>
       <use style="stroke:#000000;stroke-width:0.8;" x="359.186881" xlink:href="#m353e418132" y="288.430125"/>
      </g>
     </g>
     <g id="text_6">
      <!-- 10h:15m -->
      <g transform="translate(336.738443 303.028562)scale(0.1 -0.1)">
       <defs>
        <path d="M 31.78125 66.40625 
Q 24.171875 66.40625 20.328125 58.90625 
Q 16.5 51.421875 16.5 36.375 
Q 16.5 21.390625 20.328125 13.890625 
Q 24.171875 6.390625 31.78125 6.390625 
Q 39.453125 6.390625 43.28125 13.890625 
Q 47.125 21.390625 47.125 36.375 
Q 47.125 51.421875 43.28125 58.90625 
Q 39.453125 66.40625 31.78125 66.40625 
z
M 31.78125 74.21875 
Q 44.046875 74.21875 50.515625 64.515625 
Q 56.984375 54.828125 56.984375 36.375 
Q 56.984375 17.96875 50.515625 8.265625 
Q 44.046875 -1.421875 31.78125 -1.421875 
Q 19.53125 -1.421875 13.0625 8.265625 
Q 6.59375 17.96875 6.59375 36.375 
Q 6.59375 54.828125 13.0625 64.515625 
Q 19.53125 74.21875 31.78125 74.21875 
z
" id="DejaVuSans-48"/>
       </defs>
       <use xlink:href="#DejaVuSans-49"/>
       <use x="63.623047" xlink:href="#DejaVuSans-48"/>
       <use x="127.246094" xlink:href="#DejaVuSans-104"/>
       <use x="190.625" xlink:href="#DejaVuSans-58"/>
       <use x="224.316406" xlink:href="#DejaVuSans-49"/>
       <use x="287.939453" xlink:href="#DejaVuSans-53"/>
       <use x="351.5625" xlink:href="#DejaVuSans-109"/>
      </g>
     </g>
    </g>
    <g id="xtick_7">
     <g id="line2d_7">
      <g>
       <use style="stroke:#000000;stroke-width:0.8;" x="413.865541" xlink:href="#m353e418132" y="288.430125"/>
      </g>
     </g>
     <g id="text_7">
      <!-- 12h:15m -->
      <g transform="translate(391.417104 303.028562)scale(0.1 -0.1)">
       <use xlink:href="#DejaVuSans-49"/>
       <use x="63.623047" xlink:href="#DejaVuSans-50"/>
       <use x="127.246094" xlink:href="#DejaVuSans-104"/>
       <use x="190.625" xlink:href="#DejaVuSans-58"/>
       <use x="224.316406" xlink:href="#DejaVuSans-49"/>
       <use x="287.939453" xlink:href="#DejaVuSans-53"/>
       <use x="351.5625" xlink:href="#DejaVuSans-109"/>
      </g>
     </g>
    </g>
    <g id="xtick_8">
     <g id="line2d_8">
      <g>
       <use style="stroke:#000000;stroke-width:0.8;" x="468.544202" xlink:href="#m353e418132" y="288.430125"/>
      </g>
     </g>
     <g id="text_8">
      <!-- 14h:15m -->
      <g transform="translate(446.095764 303.028562)scale(0.1 -0.1)">
       <use xlink:href="#DejaVuSans-49"/>
       <use x="63.623047" xlink:href="#DejaVuSans-52"/>
       <use x="127.246094" xlink:href="#DejaVuSans-104"/>
       <use x="190.625" xlink:href="#DejaVuSans-58"/>
       <use x="224.316406" xlink:href="#DejaVuSans-49"/>
       <use x="287.939453" xlink:href="#DejaVuSans-53"/>
       <use x="351.5625" xlink:href="#DejaVuSans-109"/>
      </g>
     </g>
    </g>
    <g id="xtick_9">
     <g id="line2d_9">
      <g>
       <use style="stroke:#000000;stroke-width:0.8;" x="523.222862" xlink:href="#m353e418132" y="288.430125"/>
      </g>
     </g>
     <g id="text_9">
      <!-- 16h:15m -->
      <g transform="translate(500.774424 303.028562)scale(0.1 -0.1)">
       <use xlink:href="#DejaVuSans-49"/>
       <use x="63.623047" xlink:href="#DejaVuSans-54"/>
       <use x="127.246094" xlink:href="#DejaVuSans-104"/>
       <use x="190.625" xlink:href="#DejaVuSans-58"/>
       <use x="224.316406" xlink:href="#DejaVuSans-49"/>
       <use x="287.939453" xlink:href="#DejaVuSans-53"/>
       <use x="351.5625" xlink:href="#DejaVuSans-109"/>
      </g>
     </g>
    </g>
    <g id="xtick_10">
     <g id="line2d_10">
      <g>
       <use style="stroke:#000000;stroke-width:0.8;" x="577.901522" xlink:href="#m353e418132" y="288.430125"/>
      </g>
     </g>
     <g id="text_10">
      <!-- 18h:15m -->
      <g transform="translate(555.453085 303.028562)scale(0.1 -0.1)">
       <use xlink:href="#DejaVuSans-49"/>
       <use x="63.623047" xlink:href="#DejaVuSans-56"/>
       <use x="127.246094" xlink:href="#DejaVuSans-104"/>
       <use x="190.625" xlink:href="#DejaVuSans-58"/>
       <use x="224.316406" xlink:href="#DejaVuSans-49"/>
       <use x="287.939453" xlink:href="#DejaVuSans-53"/>
       <use x="351.5625" xlink:href="#DejaVuSans-109"/>
      </g>
     </g>
    </g>
    <g id="xtick_11">
     <g id="line2d_11">
      <g>
       <use style="stroke:#000000;stroke-width:0.8;" x="632.580182" xlink:href="#m353e418132" y="288.430125"/>
      </g>
     </g>
     <g id="text_11">
      <!-- 20h:15m -->
      <g transform="translate(610.131745 303.028562)scale(0.1 -0.1)">
       <use xlink:href="#DejaVuSans-50"/>
       <use x="63.623047" xlink:href="#DejaVuSans-48"/>
       <use x="127.246094" xlink:href="#DejaVuSans-104"/>
       <use x="190.625" xlink:href="#DejaVuSans-58"/>
       <use x="224.316406" xlink:href="#DejaVuSans-49"/>
       <use x="287.939453" xlink:href="#DejaVuSans-53"/>
       <use x="351.5625" xlink:href="#DejaVuSans-109"/>
      </g>
     </g>
    </g>
    <g id="xtick_12">
     <g id="line2d_12">
      <g>
       <use style="stroke:#000000;stroke-width:0.8;" x="687.258843" xlink:href="#m353e418132" y="288.430125"/>
      </g>
     </g>
     <g id="text_12">
      <!-- 22h:15m -->
      <g transform="translate(664.810405 303.028562)scale(0.1 -0.1)">
       <use xlink:href="#DejaVuSans-50"/>
       <use x="63.623047" xlink:href="#DejaVuSans-50"/>
       <use x="127.246094" xlink:href="#DejaVuSans-104"/>
       <use x="190.625" xlink:href="#DejaVuSans-58"/>
       <use x="224.316406" xlink:href="#DejaVuSans-49"/>
       <use x="287.939453" xlink:href="#DejaVuSans-53"/>
       <use x="351.5625" xlink:href="#DejaVuSans-109"/>
      </g>
     </g>
    </g>
    <g id="text_13">
     <!-- Time (hour:minute) -->
     <g transform="translate(362.041094 316.706687)scale(0.1 -0.1)">
      <defs>
       <path d="M -0.296875 72.90625 
L 61.375 72.90625 
L 61.375 64.59375 
L 35.5 64.59375 
L 35.5 0 
L 25.59375 0 
L 25.59375 64.59375 
L -0.296875 64.59375 
z
" id="DejaVuSans-84"/>
       <path d="M 9.421875 54.6875 
L 18.40625 54.6875 
L 18.40625 0 
L 9.421875 0 
z
M 9.421875 75.984375 
L 18.40625 75.984375 
L 18.40625 64.59375 
L 9.421875 64.59375 
z
" id="DejaVuSans-105"/>
       <path d="M 56.203125 29.59375 
L 56.203125 25.203125 
L 14.890625 25.203125 
Q 15.484375 15.921875 20.484375 11.0625 
Q 25.484375 6.203125 34.421875 6.203125 
Q 39.59375 6.203125 44.453125 7.46875 
Q 49.3125 8.734375 54.109375 11.28125 
L 54.109375 2.78125 
Q 49.265625 0.734375 44.1875 -0.34375 
Q 39.109375 -1.421875 33.890625 -1.421875 
Q 20.796875 -1.421875 13.15625 6.1875 
Q 5.515625 13.8125 5.515625 26.8125 
Q 5.515625 40.234375 12.765625 48.109375 
Q 20.015625 56 32.328125 56 
Q 43.359375 56 49.78125 48.890625 
Q 56.203125 41.796875 56.203125 29.59375 
z
M 47.21875 32.234375 
Q 47.125 39.59375 43.09375 43.984375 
Q 39.0625 48.390625 32.421875 48.390625 
Q 24.90625 48.390625 20.390625 44.140625 
Q 15.875 39.890625 15.1875 32.171875 
z
" id="DejaVuSans-101"/>
       <path id="DejaVuSans-32"/>
       <path d="M 31 75.875 
Q 24.46875 64.65625 21.28125 53.65625 
Q 18.109375 42.671875 18.109375 31.390625 
Q 18.109375 20.125 21.3125 9.0625 
Q 24.515625 -2 31 -13.1875 
L 23.1875 -13.1875 
Q 15.875 -1.703125 12.234375 9.375 
Q 8.59375 20.453125 8.59375 31.390625 
Q 8.59375 42.28125 12.203125 53.3125 
Q 15.828125 64.359375 23.1875 75.875 
z
" id="DejaVuSans-40"/>
       <path d="M 30.609375 48.390625 
Q 23.390625 48.390625 19.1875 42.75 
Q 14.984375 37.109375 14.984375 27.296875 
Q 14.984375 17.484375 19.15625 11.84375 
Q 23.34375 6.203125 30.609375 6.203125 
Q 37.796875 6.203125 41.984375 11.859375 
Q 46.1875 17.53125 46.1875 27.296875 
Q 46.1875 37.015625 41.984375 42.703125 
Q 37.796875 48.390625 30.609375 48.390625 
z
M 30.609375 56 
Q 42.328125 56 49.015625 48.375 
Q 55.71875 40.765625 55.71875 27.296875 
Q 55.71875 13.875 49.015625 6.21875 
Q 42.328125 -1.421875 30.609375 -1.421875 
Q 18.84375 -1.421875 12.171875 6.21875 
Q 5.515625 13.875 5.515625 27.296875 
Q 5.515625 40.765625 12.171875 48.375 
Q 18.84375 56 30.609375 56 
z
" id="DejaVuSans-111"/>
       <path d="M 8.5 21.578125 
L 8.5 54.6875 
L 17.484375 54.6875 
L 17.484375 21.921875 
Q 17.484375 14.15625 20.5 10.265625 
Q 23.53125 6.390625 29.59375 6.390625 
Q 36.859375 6.390625 41.078125 11.03125 
Q 45.3125 15.671875 45.3125 23.6875 
L 45.3125 54.6875 
L 54.296875 54.6875 
L 54.296875 0 
L 45.3125 0 
L 45.3125 8.40625 
Q 42.046875 3.421875 37.71875 1 
Q 33.40625 -1.421875 27.6875 -1.421875 
Q 18.265625 -1.421875 13.375 4.4375 
Q 8.5 10.296875 8.5 21.578125 
z
M 31.109375 56 
z
" id="DejaVuSans-117"/>
       <path d="M 41.109375 46.296875 
Q 39.59375 47.171875 37.8125 47.578125 
Q 36.03125 48 33.890625 48 
Q 26.265625 48 22.1875 43.046875 
Q 18.109375 38.09375 18.109375 28.8125 
L 18.109375 0 
L 9.078125 0 
L 9.078125 54.6875 
L 18.109375 54.6875 
L 18.109375 46.1875 
Q 20.953125 51.171875 25.484375 53.578125 
Q 30.03125 56 36.53125 56 
Q 37.453125 56 38.578125 55.875 
Q 39.703125 55.765625 41.0625 55.515625 
z
" id="DejaVuSans-114"/>
       <path d="M 54.890625 33.015625 
L 54.890625 0 
L 45.90625 0 
L 45.90625 32.71875 
Q 45.90625 40.484375 42.875 44.328125 
Q 39.84375 48.1875 33.796875 48.1875 
Q 26.515625 48.1875 22.3125 43.546875 
Q 18.109375 38.921875 18.109375 30.90625 
L 18.109375 0 
L 9.078125 0 
L 9.078125 54.6875 
L 18.109375 54.6875 
L 18.109375 46.1875 
Q 21.34375 51.125 25.703125 53.5625 
Q 30.078125 56 35.796875 56 
Q 45.21875 56 50.046875 50.171875 
Q 54.890625 44.34375 54.890625 33.015625 
z
" id="DejaVuSans-110"/>
       <path d="M 18.3125 70.21875 
L 18.3125 54.6875 
L 36.8125 54.6875 
L 36.8125 47.703125 
L 18.3125 47.703125 
L 18.3125 18.015625 
Q 18.3125 11.328125 20.140625 9.421875 
Q 21.96875 7.515625 27.59375 7.515625 
L 36.8125 7.515625 
L 36.8125 0 
L 27.59375 0 
Q 17.1875 0 13.234375 3.875 
Q 9.28125 7.765625 9.28125 18.015625 
L 9.28125 47.703125 
L 2.6875 47.703125 
L 2.6875 54.6875 
L 9.28125 54.6875 
L 9.28125 70.21875 
z
" id="DejaVuSans-116"/>
       <path d="M 8.015625 75.875 
L 15.828125 75.875 
Q 23.140625 64.359375 26.78125 53.3125 
Q 30.421875 42.28125 30.421875 31.390625 
Q 30.421875 20.453125 26.78125 9.375 
Q 23.140625 -1.703125 15.828125 -13.1875 
L 8.015625 -13.1875 
Q 14.5 -2 17.703125 9.0625 
Q 20.90625 20.125 20.90625 31.390625 
Q 20.90625 42.671875 17.703125 53.65625 
Q 14.5 64.65625 8.015625 75.875 
z
" id="DejaVuSans-41"/>
      </defs>
      <use xlink:href="#DejaVuSans-84"/>
      <use x="57.958984" xlink:href="#DejaVuSans-105"/>
      <use x="85.742188" xlink:href="#DejaVuSans-109"/>
      <use x="183.154297" xlink:href="#DejaVuSans-101"/>
      <use x="244.677734" xlink:href="#DejaVuSans-32"/>
      <use x="276.464844" xlink:href="#DejaVuSans-40"/>
      <use x="315.478516" xlink:href="#DejaVuSans-104"/>
      <use x="378.857422" xlink:href="#DejaVuSans-111"/>
      <use x="440.039062" xlink:href="#DejaVuSans-117"/>
      <use x="503.417969" xlink:href="#DejaVuSans-114"/>
      <use x="542.78125" xlink:href="#DejaVuSans-58"/>
      <use x="576.472656" xlink:href="#DejaVuSans-109"/>
      <use x="673.884766" xlink:href="#DejaVuSans-105"/>
      <use x="701.667969" xlink:href="#DejaVuSans-110"/>
      <use x="765.046875" xlink:href="#DejaVuSans-117"/>
      <use x="828.425781" xlink:href="#DejaVuSans-116"/>
      <use x="867.634766" xlink:href="#DejaVuSans-101"/>
      <use x="929.158203" xlink:href="#DejaVuSans-41"/>
     </g>
    </g>
   </g>
   <g id="matplotlib.axis_2">
    <g id="ytick_1">
     <g id="line2d_13">
      <defs>
       <path d="M 0 0 
L -3.5 0 
" id="m792e195092" style="stroke:#000000;stroke-width:0.8;"/>
      </defs>
      <g>
       <use style="stroke:#000000;stroke-width:0.8;" x="53.328125" xlink:href="#m792e195092" y="257.203116"/>
      </g>
     </g>
     <g id="text_14">
      <!-- 800 -->
      <g transform="translate(27.240625 261.002335)scale(0.1 -0.1)">
       <use xlink:href="#DejaVuSans-56"/>
       <use x="63.623047" xlink:href="#DejaVuSans-48"/>
       <use x="127.246094" xlink:href="#DejaVuSans-48"/>
      </g>
     </g>
    </g>
    <g id="ytick_2">
     <g id="line2d_14">
      <g>
       <use style="stroke:#000000;stroke-width:0.8;" x="53.328125" xlink:href="#m792e195092" y="224.275391"/>
      </g>
     </g>
     <g id="text_15">
      <!-- 1000 -->
      <g transform="translate(20.878125 228.07461)scale(0.1 -0.1)">
       <use xlink:href="#DejaVuSans-49"/>
       <use x="63.623047" xlink:href="#DejaVuSans-48"/>
       <use x="127.246094" xlink:href="#DejaVuSans-48"/>
       <use x="190.869141" xlink:href="#DejaVuSans-48"/>
      </g>
     </g>
    </g>
    <g id="ytick_3">
     <g id="line2d_15">
      <g>
       <use style="stroke:#000000;stroke-width:0.8;" x="53.328125" xlink:href="#m792e195092" y="191.347665"/>
      </g>
     </g>
     <g id="text_16">
      <!-- 1200 -->
      <g transform="translate(20.878125 195.146884)scale(0.1 -0.1)">
       <use xlink:href="#DejaVuSans-49"/>
       <use x="63.623047" xlink:href="#DejaVuSans-50"/>
       <use x="127.246094" xlink:href="#DejaVuSans-48"/>
       <use x="190.869141" xlink:href="#DejaVuSans-48"/>
      </g>
     </g>
    </g>
    <g id="ytick_4">
     <g id="line2d_16">
      <g>
       <use style="stroke:#000000;stroke-width:0.8;" x="53.328125" xlink:href="#m792e195092" y="158.41994"/>
      </g>
     </g>
     <g id="text_17">
      <!-- 1400 -->
      <g transform="translate(20.878125 162.219158)scale(0.1 -0.1)">
       <use xlink:href="#DejaVuSans-49"/>
       <use x="63.623047" xlink:href="#DejaVuSans-52"/>
       <use x="127.246094" xlink:href="#DejaVuSans-48"/>
       <use x="190.869141" xlink:href="#DejaVuSans-48"/>
      </g>
     </g>
    </g>
    <g id="ytick_5">
     <g id="line2d_17">
      <g>
       <use style="stroke:#000000;stroke-width:0.8;" x="53.328125" xlink:href="#m792e195092" y="125.492214"/>
      </g>
     </g>
     <g id="text_18">
      <!-- 1600 -->
      <g transform="translate(20.878125 129.291433)scale(0.1 -0.1)">
       <use xlink:href="#DejaVuSans-49"/>
       <use x="63.623047" xlink:href="#DejaVuSans-54"/>
       <use x="127.246094" xlink:href="#DejaVuSans-48"/>
       <use x="190.869141" xlink:href="#DejaVuSans-48"/>
      </g>
     </g>
    </g>
    <g id="ytick_6">
     <g id="line2d_18">
      <g>
       <use style="stroke:#000000;stroke-width:0.8;" x="53.328125" xlink:href="#m792e195092" y="92.564488"/>
      </g>
     </g>
     <g id="text_19">
      <!-- 1800 -->
      <g transform="translate(20.878125 96.363707)scale(0.1 -0.1)">
       <use xlink:href="#DejaVuSans-49"/>
       <use x="63.623047" xlink:href="#DejaVuSans-56"/>
       <use x="127.246094" xlink:href="#DejaVuSans-48"/>
       <use x="190.869141" xlink:href="#DejaVuSans-48"/>
      </g>
     </g>
    </g>
    <g id="ytick_7">
     <g id="line2d_19">
      <g>
       <use style="stroke:#000000;stroke-width:0.8;" x="53.328125" xlink:href="#m792e195092" y="59.636763"/>
      </g>
     </g>
     <g id="text_20">
      <!-- 2000 -->
      <g transform="translate(20.878125 63.435982)scale(0.1 -0.1)">
       <use xlink:href="#DejaVuSans-50"/>
       <use x="63.623047" xlink:href="#DejaVuSans-48"/>
       <use x="127.246094" xlink:href="#DejaVuSans-48"/>
       <use x="190.869141" xlink:href="#DejaVuSans-48"/>
      </g>
     </g>
    </g>
    <g id="ytick_8">
     <g id="line2d_20">
      <g>
       <use style="stroke:#000000;stroke-width:0.8;" x="53.328125" xlink:href="#m792e195092" y="26.709037"/>
      </g>
     </g>
     <g id="text_21">
      <!-- 2200 -->
      <g transform="translate(20.878125 30.508256)scale(0.1 -0.1)">
       <use xlink:href="#DejaVuSans-50"/>
       <use x="63.623047" xlink:href="#DejaVuSans-50"/>
       <use x="127.246094" xlink:href="#DejaVuSans-48"/>
       <use x="190.869141" xlink:href="#DejaVuSans-48"/>
      </g>
     </g>
    </g>
    <g id="text_22">
     <!-- Edge coverage -->
     <g transform="translate(14.798438 192.762406)rotate(-90)scale(0.1 -0.1)">
      <defs>
       <path d="M 9.8125 72.90625 
L 55.90625 72.90625 
L 55.90625 64.59375 
L 19.671875 64.59375 
L 19.671875 43.015625 
L 54.390625 43.015625 
L 54.390625 34.71875 
L 19.671875 34.71875 
L 19.671875 8.296875 
L 56.78125 8.296875 
L 56.78125 0 
L 9.8125 0 
z
" id="DejaVuSans-69"/>
       <path d="M 45.40625 46.390625 
L 45.40625 75.984375 
L 54.390625 75.984375 
L 54.390625 0 
L 45.40625 0 
L 45.40625 8.203125 
Q 42.578125 3.328125 38.25 0.953125 
Q 33.9375 -1.421875 27.875 -1.421875 
Q 17.96875 -1.421875 11.734375 6.484375 
Q 5.515625 14.40625 5.515625 27.296875 
Q 5.515625 40.1875 11.734375 48.09375 
Q 17.96875 56 27.875 56 
Q 33.9375 56 38.25 53.625 
Q 42.578125 51.265625 45.40625 46.390625 
z
M 14.796875 27.296875 
Q 14.796875 17.390625 18.875 11.75 
Q 22.953125 6.109375 30.078125 6.109375 
Q 37.203125 6.109375 41.296875 11.75 
Q 45.40625 17.390625 45.40625 27.296875 
Q 45.40625 37.203125 41.296875 42.84375 
Q 37.203125 48.484375 30.078125 48.484375 
Q 22.953125 48.484375 18.875 42.84375 
Q 14.796875 37.203125 14.796875 27.296875 
z
" id="DejaVuSans-100"/>
       <path d="M 45.40625 27.984375 
Q 45.40625 37.75 41.375 43.109375 
Q 37.359375 48.484375 30.078125 48.484375 
Q 22.859375 48.484375 18.828125 43.109375 
Q 14.796875 37.75 14.796875 27.984375 
Q 14.796875 18.265625 18.828125 12.890625 
Q 22.859375 7.515625 30.078125 7.515625 
Q 37.359375 7.515625 41.375 12.890625 
Q 45.40625 18.265625 45.40625 27.984375 
z
M 54.390625 6.78125 
Q 54.390625 -7.171875 48.1875 -13.984375 
Q 42 -20.796875 29.203125 -20.796875 
Q 24.46875 -20.796875 20.265625 -20.09375 
Q 16.0625 -19.390625 12.109375 -17.921875 
L 12.109375 -9.1875 
Q 16.0625 -11.328125 19.921875 -12.34375 
Q 23.78125 -13.375 27.78125 -13.375 
Q 36.625 -13.375 41.015625 -8.765625 
Q 45.40625 -4.15625 45.40625 5.171875 
L 45.40625 9.625 
Q 42.625 4.78125 38.28125 2.390625 
Q 33.9375 0 27.875 0 
Q 17.828125 0 11.671875 7.65625 
Q 5.515625 15.328125 5.515625 27.984375 
Q 5.515625 40.671875 11.671875 48.328125 
Q 17.828125 56 27.875 56 
Q 33.9375 56 38.28125 53.609375 
Q 42.625 51.21875 45.40625 46.390625 
L 45.40625 54.6875 
L 54.390625 54.6875 
z
" id="DejaVuSans-103"/>
       <path d="M 48.78125 52.59375 
L 48.78125 44.1875 
Q 44.96875 46.296875 41.140625 47.34375 
Q 37.3125 48.390625 33.40625 48.390625 
Q 24.65625 48.390625 19.8125 42.84375 
Q 14.984375 37.3125 14.984375 27.296875 
Q 14.984375 17.28125 19.8125 11.734375 
Q 24.65625 6.203125 33.40625 6.203125 
Q 37.3125 6.203125 41.140625 7.25 
Q 44.96875 8.296875 48.78125 10.40625 
L 48.78125 2.09375 
Q 45.015625 0.34375 40.984375 -0.53125 
Q 36.96875 -1.421875 32.421875 -1.421875 
Q 20.0625 -1.421875 12.78125 6.34375 
Q 5.515625 14.109375 5.515625 27.296875 
Q 5.515625 40.671875 12.859375 48.328125 
Q 20.21875 56 33.015625 56 
Q 37.15625 56 41.109375 55.140625 
Q 45.0625 54.296875 48.78125 52.59375 
z
" id="DejaVuSans-99"/>
       <path d="M 2.984375 54.6875 
L 12.5 54.6875 
L 29.59375 8.796875 
L 46.6875 54.6875 
L 56.203125 54.6875 
L 35.6875 0 
L 23.484375 0 
z
" id="DejaVuSans-118"/>
       <path d="M 34.28125 27.484375 
Q 23.390625 27.484375 19.1875 25 
Q 14.984375 22.515625 14.984375 16.5 
Q 14.984375 11.71875 18.140625 8.90625 
Q 21.296875 6.109375 26.703125 6.109375 
Q 34.1875 6.109375 38.703125 11.40625 
Q 43.21875 16.703125 43.21875 25.484375 
L 43.21875 27.484375 
z
M 52.203125 31.203125 
L 52.203125 0 
L 43.21875 0 
L 43.21875 8.296875 
Q 40.140625 3.328125 35.546875 0.953125 
Q 30.953125 -1.421875 24.3125 -1.421875 
Q 15.921875 -1.421875 10.953125 3.296875 
Q 6 8.015625 6 15.921875 
Q 6 25.140625 12.171875 29.828125 
Q 18.359375 34.515625 30.609375 34.515625 
L 43.21875 34.515625 
L 43.21875 35.40625 
Q 43.21875 41.609375 39.140625 45 
Q 35.0625 48.390625 27.6875 48.390625 
Q 23 48.390625 18.546875 47.265625 
Q 14.109375 46.140625 10.015625 43.890625 
L 10.015625 52.203125 
Q 14.9375 54.109375 19.578125 55.046875 
Q 24.21875 56 28.609375 56 
Q 40.484375 56 46.34375 49.84375 
Q 52.203125 43.703125 52.203125 31.203125 
z
" id="DejaVuSans-97"/>
      </defs>
      <use xlink:href="#DejaVuSans-69"/>
      <use x="63.183594" xlink:href="#DejaVuSans-100"/>
      <use x="126.660156" xlink:href="#DejaVuSans-103"/>
      <use x="190.136719" xlink:href="#DejaVuSans-101"/>
      <use x="251.660156" xlink:href="#DejaVuSans-32"/>
      <use x="283.447266" xlink:href="#DejaVuSans-99"/>
      <use x="338.427734" xlink:href="#DejaVuSans-111"/>
      <use x="399.609375" xlink:href="#DejaVuSans-118"/>
      <use x="458.789062" xlink:href="#DejaVuSans-101"/>
      <use x="520.3125" xlink:href="#DejaVuSans-114"/>
      <use x="561.425781" xlink:href="#DejaVuSans-97"/>
      <use x="622.705078" xlink:href="#DejaVuSans-103"/>
      <use x="686.181641" xlink:href="#DejaVuSans-101"/>
     </g>
    </g>
   </g>
   <g id="line2d_21">
    <path clip-path="url(#pfeedd9a585)" d="M 85.79358 162.074917 
L 92.628412 93.223043 
L 99.463245 91.938862 
L 106.298077 90.457114 
L 113.13291 86.769209 
L 119.967742 82.25811 
L 126.802575 80.38123 
L 133.637407 75.474999 
L 140.47224 72.511504 
L 147.307072 70.074852 
L 154.141905 69.185803 
L 160.976737 66.452802 
L 167.81157 65.168621 
L 174.646403 64.674705 
L 181.481235 64.378355 
L 188.316068 62.270981 
L 195.1509 60.558739 
L 201.985733 57.562316 
L 208.820565 57.331822 
L 215.655398 54.961026 
L 222.49023 54.434182 
L 229.325063 54.269544 
L 236.159895 54.104905 
L 242.994728 54.071977 
L 249.82956 54.071977 
L 256.664393 53.907339 
L 263.499225 53.874411 
L 270.334058 53.7427 
L 277.168891 53.413423 
L 284.003723 53.117073 
L 290.838556 51.470687 
L 297.673388 51.437759 
L 304.508221 50.087722 
L 311.343053 49.69259 
L 318.177886 49.132818 
L 325.012718 48.441336 
L 331.847551 48.375481 
L 338.682383 48.375481 
L 345.517216 47.124227 
L 352.352048 46.103468 
L 359.186881 45.971757 
L 366.021714 45.938829 
L 372.856546 45.938829 
L 379.691379 45.938829 
L 386.526211 45.807118 
L 393.361044 45.807118 
L 400.195876 45.807118 
L 407.030709 45.642479 
L 413.865541 45.642479 
L 420.700374 45.642479 
L 427.535206 45.609552 
L 434.370039 45.609552 
L 441.204871 45.444913 
L 448.039704 45.444913 
L 454.874536 45.411985 
L 461.709369 45.181491 
L 468.544202 45.181491 
L 475.379034 44.786359 
L 482.213867 44.226587 
L 489.048699 44.226587 
L 495.883532 44.226587 
L 502.718364 44.226587 
L 509.553197 44.226587 
L 516.388029 44.19366 
L 523.222862 44.19366 
L 530.057694 44.160732 
L 536.892527 44.160732 
L 543.727359 44.160732 
L 550.562192 44.160732 
L 557.397025 44.127804 
L 564.231857 44.127804 
L 571.06669 44.094876 
L 577.901522 44.094876 
L 584.736355 44.094876 
L 591.571187 44.094876 
L 598.40602 44.094876 
L 605.240852 44.094876 
L 612.075685 44.094876 
L 618.910517 43.930238 
L 625.74535 43.699744 
L 632.580182 43.699744 
L 639.415015 43.633888 
L 646.249847 43.633888 
L 653.08468 43.633888 
L 659.919513 43.633888 
L 666.754345 43.633888 
L 673.589178 43.633888 
L 680.42401 43.633888 
L 687.258843 43.60096 
L 694.093675 43.60096 
L 700.928508 42.87655 
L 707.76334 42.87655 
L 714.598173 42.87655 
L 721.433005 42.87655 
L 728.267838 42.87655 
L 735.10267 42.711912 
" style="fill:none;stroke:#c7c7c7;stroke-linecap:square;stroke-width:1.5;"/>
   </g>
   <g id="line2d_22">
    <path clip-path="url(#pfeedd9a585)" d="M 85.79358 66.683296 
L 92.628412 53.281712 
L 99.463245 49.429168 
L 106.298077 45.247347 
L 113.13291 45.082708 
L 119.967742 45.04978 
L 126.802575 44.786359 
L 133.637407 44.32537 
L 140.47224 44.292443 
L 147.307072 44.292443 
L 154.141905 44.19366 
L 160.976737 44.19366 
L 167.81157 44.19366 
L 174.646403 44.19366 
L 181.481235 44.127804 
L 188.316068 43.89731 
L 195.1509 43.89731 
L 201.985733 43.89731 
L 208.820565 43.89731 
L 215.655398 43.89731 
L 222.49023 43.864382 
L 229.325063 43.633888 
L 236.159895 43.568033 
L 242.994728 43.568033 
L 249.82956 43.535105 
L 256.664393 43.535105 
L 263.499225 43.535105 
L 270.334058 43.535105 
L 277.168891 43.535105 
L 284.003723 43.535105 
L 290.838556 43.535105 
L 297.673388 43.535105 
L 304.508221 43.535105 
L 311.343053 43.535105 
L 318.177886 43.535105 
L 325.012718 43.535105 
L 331.847551 43.535105 
L 338.682383 43.46925 
L 345.517216 43.46925 
L 352.352048 43.46925 
L 359.186881 43.46925 
L 366.021714 43.46925 
L 372.856546 43.46925 
L 379.691379 43.46925 
L 386.526211 43.46925 
L 393.361044 43.46925 
L 400.195876 43.46925 
L 407.030709 43.46925 
L 413.865541 43.46925 
L 420.700374 43.46925 
L 427.535206 43.46925 
L 434.370039 43.46925 
L 441.204871 43.46925 
L 448.039704 43.46925 
L 454.874536 43.46925 
L 461.709369 43.46925 
L 468.544202 43.46925 
L 475.379034 43.46925 
L 482.213867 43.46925 
L 489.048699 43.46925 
L 495.883532 43.46925 
L 502.718364 43.46925 
L 509.553197 43.46925 
L 516.388029 43.46925 
L 523.222862 43.46925 
L 530.057694 43.46925 
L 536.892527 43.46925 
L 543.727359 43.46925 
L 550.562192 43.46925 
L 557.397025 43.46925 
L 564.231857 43.46925 
L 571.06669 43.46925 
L 577.901522 43.46925 
L 584.736355 43.403394 
L 591.571187 43.370466 
L 598.40602 43.370466 
L 605.240852 43.370466 
L 612.075685 43.370466 
L 618.910517 43.370466 
L 625.74535 43.370466 
L 632.580182 43.370466 
L 639.415015 43.370466 
L 646.249847 43.370466 
L 653.08468 43.370466 
L 659.919513 43.370466 
L 666.754345 43.370466 
L 673.589178 43.370466 
L 680.42401 43.370466 
L 687.258843 43.370466 
L 694.093675 43.370466 
L 700.928508 43.370466 
L 707.76334 43.370466 
L 714.598173 43.304611 
L 721.433005 43.304611 
L 728.267838 43.304611 
L 735.10267 43.304611 
" style="fill:none;stroke:#d62728;stroke-linecap:square;stroke-width:1.5;"/>
   </g>
   <g id="line2d_23">
    <path clip-path="url(#pfeedd9a585)" d="M 85.79358 76.660397 
L 92.628412 74.553023 
L 99.463245 72.379793 
L 106.298077 71.951732 
L 113.13291 69.613864 
L 119.967742 68.197971 
L 126.802575 66.91379 
L 133.637407 65.069838 
L 140.47224 62.699041 
L 147.307072 61.875848 
L 154.141905 61.612426 
L 160.976737 61.579499 
L 167.81157 61.283149 
L 174.646403 61.217294 
L 181.481235 61.217294 
L 188.316068 61.184366 
L 195.1509 61.151438 
L 201.985733 61.085583 
L 208.820565 61.085583 
L 215.655398 61.052655 
L 222.49023 61.052655 
L 229.325063 61.019727 
L 236.159895 60.953872 
L 242.994728 60.920944 
L 249.82956 60.920944 
L 256.664393 60.855089 
L 263.499225 60.558739 
L 270.334058 60.558739 
L 277.168891 60.525811 
L 284.003723 60.525811 
L 290.838556 60.525811 
L 297.673388 60.525811 
L 304.508221 60.525811 
L 311.343053 60.492884 
L 318.177886 60.229462 
L 325.012718 59.998968 
L 331.847551 59.998968 
L 338.682383 59.998968 
L 345.517216 59.998968 
L 352.352048 59.998968 
L 359.186881 59.998968 
L 366.021714 59.96604 
L 372.856546 59.96604 
L 379.691379 59.96604 
L 386.526211 59.96604 
L 393.361044 59.933112 
L 400.195876 59.933112 
L 407.030709 59.933112 
L 413.865541 59.900185 
L 420.700374 59.900185 
L 427.535206 59.900185 
L 434.370039 59.900185 
L 441.204871 59.603835 
L 448.039704 59.603835 
L 454.874536 59.603835 
L 461.709369 59.603835 
L 468.544202 59.603835 
L 475.379034 59.603835 
L 482.213867 59.603835 
L 489.048699 59.603835 
L 495.883532 59.505052 
L 502.718364 59.472124 
L 509.553197 59.472124 
L 516.388029 59.472124 
L 523.222862 59.439196 
L 530.057694 59.439196 
L 536.892527 59.439196 
L 543.727359 59.439196 
L 550.562192 59.439196 
L 557.397025 59.439196 
L 564.231857 59.439196 
L 571.06669 59.439196 
L 577.901522 59.439196 
L 584.736355 59.406269 
L 591.571187 59.406269 
L 598.40602 59.406269 
L 605.240852 59.406269 
L 612.075685 59.406269 
L 618.910517 59.406269 
L 625.74535 59.406269 
L 632.580182 59.406269 
L 639.415015 59.406269 
L 646.249847 59.406269 
L 653.08468 59.307486 
L 659.919513 59.307486 
L 666.754345 59.274558 
L 673.589178 59.274558 
L 680.42401 59.274558 
L 687.258843 59.274558 
L 694.093675 59.274558 
L 700.928508 59.274558 
L 707.76334 59.274558 
L 714.598173 59.274558 
L 721.433005 59.274558 
L 728.267838 59.274558 
L 735.10267 58.714786 
" style="fill:none;stroke:#98df8a;stroke-linecap:square;stroke-width:1.5;"/>
   </g>
   <g id="line2d_24">
    <path clip-path="url(#pfeedd9a585)" d="M 85.79358 71.918804 
L 92.628412 69.185803 
L 99.463245 68.922381 
L 106.298077 68.889454 
L 113.13291 68.823598 
L 119.967742 68.790671 
L 126.802575 68.790671 
L 133.637407 68.790671 
L 140.47224 68.790671 
L 147.307072 68.757743 
L 154.141905 68.757743 
L 160.976737 68.757743 
L 167.81157 68.757743 
L 174.646403 68.757743 
L 181.481235 68.757743 
L 188.316068 68.757743 
L 195.1509 68.724815 
L 201.985733 68.724815 
L 208.820565 68.691887 
L 215.655398 68.691887 
L 222.49023 68.691887 
L 229.325063 68.691887 
L 236.159895 68.691887 
L 242.994728 68.691887 
L 249.82956 68.691887 
L 256.664393 68.65896 
L 263.499225 68.65896 
L 270.334058 68.65896 
L 277.168891 68.626032 
L 284.003723 68.626032 
L 290.838556 68.626032 
L 297.673388 68.626032 
L 304.508221 68.626032 
L 311.343053 68.626032 
L 318.177886 68.626032 
L 325.012718 68.626032 
L 331.847551 68.626032 
L 338.682383 68.626032 
L 345.517216 68.626032 
L 352.352048 68.626032 
L 359.186881 68.626032 
L 366.021714 68.626032 
L 372.856546 68.626032 
L 379.691379 68.626032 
L 386.526211 68.626032 
L 393.361044 68.626032 
L 400.195876 68.626032 
L 407.030709 68.626032 
L 413.865541 68.593104 
L 420.700374 68.593104 
L 427.535206 68.593104 
L 434.370039 68.593104 
L 441.204871 68.593104 
L 448.039704 68.593104 
L 454.874536 68.593104 
L 461.709369 68.593104 
L 468.544202 68.593104 
L 475.379034 68.593104 
L 482.213867 68.593104 
L 489.048699 68.593104 
L 495.883532 68.593104 
L 502.718364 68.593104 
L 509.553197 68.593104 
L 516.388029 68.593104 
L 523.222862 68.593104 
L 530.057694 68.560176 
L 536.892527 68.560176 
L 543.727359 68.560176 
L 550.562192 68.560176 
L 557.397025 68.560176 
L 564.231857 68.560176 
L 571.06669 68.560176 
L 577.901522 68.560176 
L 584.736355 68.560176 
L 591.571187 68.560176 
L 598.40602 68.560176 
L 605.240852 68.560176 
L 612.075685 68.560176 
L 618.910517 68.560176 
L 625.74535 68.560176 
L 632.580182 68.560176 
L 639.415015 68.560176 
L 646.249847 68.560176 
L 653.08468 68.560176 
L 659.919513 68.560176 
L 666.754345 68.560176 
L 673.589178 68.560176 
L 680.42401 68.560176 
L 687.258843 68.560176 
L 694.093675 68.560176 
L 700.928508 68.560176 
L 707.76334 68.560176 
L 714.598173 68.527249 
L 721.433005 68.527249 
L 728.267838 68.527249 
L 735.10267 68.527249 
" style="fill:none;stroke:#1f77b4;stroke-linecap:square;stroke-width:1.5;"/>
   </g>
   <g id="line2d_25"/>
   <g id="line2d_26"/>
   <g id="line2d_27"/>
   <g id="line2d_28"/>
   <g id="line2d_29"/>
   <g id="line2d_30">
    <path clip-path="url(#pfeedd9a585)" d="M 735.10267 288.430125 
L 735.10267 22.318125 
" style="fill:none;stroke:#ff0000;stroke-linecap:square;stroke-width:1.5;"/>
   </g>
   <g id="patch_3">
    <path d="M 53.328125 257.203116 
L 53.328125 26.709037 
" style="fill:none;stroke:#000000;stroke-linecap:square;stroke-linejoin:miter;stroke-width:0.8;"/>
   </g>
   <g id="patch_4">
    <path d="M 85.79358 288.430125 
L 687.258843 288.430125 
" style="fill:none;stroke:#000000;stroke-linecap:square;stroke-linejoin:miter;stroke-width:0.8;"/>
   </g>
   <g id="text_23">
    <!-- libpng-1.2.56 (24h, 5 trials/fuzzer) -->
    <g transform="translate(307.724375 16.318125)scale(0.12 -0.12)">
     <defs>
      <path d="M 9.421875 75.984375 
L 18.40625 75.984375 
L 18.40625 0 
L 9.421875 0 
z
" id="DejaVuSans-108"/>
      <path d="M 48.6875 27.296875 
Q 48.6875 37.203125 44.609375 42.84375 
Q 40.53125 48.484375 33.40625 48.484375 
Q 26.265625 48.484375 22.1875 42.84375 
Q 18.109375 37.203125 18.109375 27.296875 
Q 18.109375 17.390625 22.1875 11.75 
Q 26.265625 6.109375 33.40625 6.109375 
Q 40.53125 6.109375 44.609375 11.75 
Q 48.6875 17.390625 48.6875 27.296875 
z
M 18.109375 46.390625 
Q 20.953125 51.265625 25.265625 53.625 
Q 29.59375 56 35.59375 56 
Q 45.5625 56 51.78125 48.09375 
Q 58.015625 40.1875 58.015625 27.296875 
Q 58.015625 14.40625 51.78125 6.484375 
Q 45.5625 -1.421875 35.59375 -1.421875 
Q 29.59375 -1.421875 25.265625 0.953125 
Q 20.953125 3.328125 18.109375 8.203125 
L 18.109375 0 
L 9.078125 0 
L 9.078125 75.984375 
L 18.109375 75.984375 
z
" id="DejaVuSans-98"/>
      <path d="M 18.109375 8.203125 
L 18.109375 -20.796875 
L 9.078125 -20.796875 
L 9.078125 54.6875 
L 18.109375 54.6875 
L 18.109375 46.390625 
Q 20.953125 51.265625 25.265625 53.625 
Q 29.59375 56 35.59375 56 
Q 45.5625 56 51.78125 48.09375 
Q 58.015625 40.1875 58.015625 27.296875 
Q 58.015625 14.40625 51.78125 6.484375 
Q 45.5625 -1.421875 35.59375 -1.421875 
Q 29.59375 -1.421875 25.265625 0.953125 
Q 20.953125 3.328125 18.109375 8.203125 
z
M 48.6875 27.296875 
Q 48.6875 37.203125 44.609375 42.84375 
Q 40.53125 48.484375 33.40625 48.484375 
Q 26.265625 48.484375 22.1875 42.84375 
Q 18.109375 37.203125 18.109375 27.296875 
Q 18.109375 17.390625 22.1875 11.75 
Q 26.265625 6.109375 33.40625 6.109375 
Q 40.53125 6.109375 44.609375 11.75 
Q 48.6875 17.390625 48.6875 27.296875 
z
" id="DejaVuSans-112"/>
      <path d="M 4.890625 31.390625 
L 31.203125 31.390625 
L 31.203125 23.390625 
L 4.890625 23.390625 
z
" id="DejaVuSans-45"/>
      <path d="M 10.6875 12.40625 
L 21 12.40625 
L 21 0 
L 10.6875 0 
z
" id="DejaVuSans-46"/>
      <path d="M 11.71875 12.40625 
L 22.015625 12.40625 
L 22.015625 4 
L 14.015625 -11.625 
L 7.71875 -11.625 
L 11.71875 4 
z
" id="DejaVuSans-44"/>
      <path d="M 44.28125 53.078125 
L 44.28125 44.578125 
Q 40.484375 46.53125 36.375 47.5 
Q 32.28125 48.484375 27.875 48.484375 
Q 21.1875 48.484375 17.84375 46.4375 
Q 14.5 44.390625 14.5 40.28125 
Q 14.5 37.15625 16.890625 35.375 
Q 19.28125 33.59375 26.515625 31.984375 
L 29.59375 31.296875 
Q 39.15625 29.25 43.1875 25.515625 
Q 47.21875 21.78125 47.21875 15.09375 
Q 47.21875 7.46875 41.1875 3.015625 
Q 35.15625 -1.421875 24.609375 -1.421875 
Q 20.21875 -1.421875 15.453125 -0.5625 
Q 10.6875 0.296875 5.421875 2 
L 5.421875 11.28125 
Q 10.40625 8.6875 15.234375 7.390625 
Q 20.0625 6.109375 24.8125 6.109375 
Q 31.15625 6.109375 34.5625 8.28125 
Q 37.984375 10.453125 37.984375 14.40625 
Q 37.984375 18.0625 35.515625 20.015625 
Q 33.0625 21.96875 24.703125 23.78125 
L 21.578125 24.515625 
Q 13.234375 26.265625 9.515625 29.90625 
Q 5.8125 33.546875 5.8125 39.890625 
Q 5.8125 47.609375 11.28125 51.796875 
Q 16.75 56 26.8125 56 
Q 31.78125 56 36.171875 55.265625 
Q 40.578125 54.546875 44.28125 53.078125 
z
" id="DejaVuSans-115"/>
      <path d="M 25.390625 72.90625 
L 33.6875 72.90625 
L 8.296875 -9.28125 
L 0 -9.28125 
z
" id="DejaVuSans-47"/>
      <path d="M 37.109375 75.984375 
L 37.109375 68.5 
L 28.515625 68.5 
Q 23.6875 68.5 21.796875 66.546875 
Q 19.921875 64.59375 19.921875 59.515625 
L 19.921875 54.6875 
L 34.71875 54.6875 
L 34.71875 47.703125 
L 19.921875 47.703125 
L 19.921875 0 
L 10.890625 0 
L 10.890625 47.703125 
L 2.296875 47.703125 
L 2.296875 54.6875 
L 10.890625 54.6875 
L 10.890625 58.5 
Q 10.890625 67.625 15.140625 71.796875 
Q 19.390625 75.984375 28.609375 75.984375 
z
" id="DejaVuSans-102"/>
      <path d="M 5.515625 54.6875 
L 48.1875 54.6875 
L 48.1875 46.484375 
L 14.40625 7.171875 
L 48.1875 7.171875 
L 48.1875 0 
L 4.296875 0 
L 4.296875 8.203125 
L 38.09375 47.515625 
L 5.515625 47.515625 
z
" id="DejaVuSans-122"/>
     </defs>
     <use xlink:href="#DejaVuSans-108"/>
     <use x="27.783203" xlink:href="#DejaVuSans-105"/>
     <use x="55.566406" xlink:href="#DejaVuSans-98"/>
     <use x="119.042969" xlink:href="#DejaVuSans-112"/>
     <use x="182.519531" xlink:href="#DejaVuSans-110"/>
     <use x="245.898438" xlink:href="#DejaVuSans-103"/>
     <use x="309.375" xlink:href="#DejaVuSans-45"/>
     <use x="345.458984" xlink:href="#DejaVuSans-49"/>
     <use x="409.082031" xlink:href="#DejaVuSans-46"/>
     <use x="440.869141" xlink:href="#DejaVuSans-50"/>
     <use x="504.492188" xlink:href="#DejaVuSans-46"/>
     <use x="536.279297" xlink:href="#DejaVuSans-53"/>
     <use x="599.902344" xlink:href="#DejaVuSans-54"/>
     <use x="663.525391" xlink:href="#DejaVuSans-32"/>
     <use x="695.3125" xlink:href="#DejaVuSans-40"/>
     <use x="734.326172" xlink:href="#DejaVuSans-50"/>
     <use x="797.949219" xlink:href="#DejaVuSans-52"/>
     <use x="861.572266" xlink:href="#DejaVuSans-104"/>
     <use x="924.951172" xlink:href="#DejaVuSans-44"/>
     <use x="956.738281" xlink:href="#DejaVuSans-32"/>
     <use x="988.525391" xlink:href="#DejaVuSans-53"/>
     <use x="1052.148438" xlink:href="#DejaVuSans-32"/>
     <use x="1083.935547" xlink:href="#DejaVuSans-116"/>
     <use x="1123.144531" xlink:href="#DejaVuSans-114"/>
     <use x="1164.257812" xlink:href="#DejaVuSans-105"/>
     <use x="1192.041016" xlink:href="#DejaVuSans-97"/>
     <use x="1253.320312" xlink:href="#DejaVuSans-108"/>
     <use x="1281.103516" xlink:href="#DejaVuSans-115"/>
     <use x="1333.203125" xlink:href="#DejaVuSans-47"/>
     <use x="1366.894531" xlink:href="#DejaVuSans-102"/>
     <use x="1402.099609" xlink:href="#DejaVuSans-117"/>
     <use x="1465.478516" xlink:href="#DejaVuSans-122"/>
     <use x="1517.96875" xlink:href="#DejaVuSans-122"/>
     <use x="1570.458984" xlink:href="#DejaVuSans-101"/>
     <use x="1631.982422" xlink:href="#DejaVuSans-114"/>
     <use x="1673.095703" xlink:href="#DejaVuSans-41"/>
    </g>
   </g>
   <g id="legend_1">
    <g id="line2d_31">
     <path d="M 771.568125 30.416562 
L 791.568125 30.416562 
" style="fill:none;"/>
    </g>
    <g id="line2d_32"/>
    <g id="text_24">
     <!-- fuzzer -->
     <g transform="translate(799.568125 33.916562)scale(0.1 -0.1)">
      <use xlink:href="#DejaVuSans-102"/>
      <use x="35.205078" xlink:href="#DejaVuSans-117"/>
      <use x="98.583984" xlink:href="#DejaVuSans-122"/>
      <use x="151.074219" xlink:href="#DejaVuSans-122"/>
      <use x="203.564453" xlink:href="#DejaVuSans-101"/>
      <use x="265.087891" xlink:href="#DejaVuSans-114"/>
     </g>
    </g>
    <g id="line2d_33">
     <path d="M 771.568125 45.094688 
L 791.568125 45.094688 
" style="fill:none;stroke:#c7c7c7;stroke-linecap:square;stroke-width:1.5;"/>
    </g>
    <g id="line2d_34"/>
    <g id="text_25">
     <!-- weizz_qemu -->
     <g transform="translate(799.568125 48.594688)scale(0.1 -0.1)">
      <defs>
       <path d="M 4.203125 54.6875 
L 13.1875 54.6875 
L 24.421875 12.015625 
L 35.59375 54.6875 
L 46.1875 54.6875 
L 57.421875 12.015625 
L 68.609375 54.6875 
L 77.59375 54.6875 
L 63.28125 0 
L 52.6875 0 
L 40.921875 44.828125 
L 29.109375 0 
L 18.5 0 
z
" id="DejaVuSans-119"/>
       <path d="M 50.984375 -16.609375 
L 50.984375 -23.578125 
L -0.984375 -23.578125 
L -0.984375 -16.609375 
z
" id="DejaVuSans-95"/>
       <path d="M 14.796875 27.296875 
Q 14.796875 17.390625 18.875 11.75 
Q 22.953125 6.109375 30.078125 6.109375 
Q 37.203125 6.109375 41.296875 11.75 
Q 45.40625 17.390625 45.40625 27.296875 
Q 45.40625 37.203125 41.296875 42.84375 
Q 37.203125 48.484375 30.078125 48.484375 
Q 22.953125 48.484375 18.875 42.84375 
Q 14.796875 37.203125 14.796875 27.296875 
z
M 45.40625 8.203125 
Q 42.578125 3.328125 38.25 0.953125 
Q 33.9375 -1.421875 27.875 -1.421875 
Q 17.96875 -1.421875 11.734375 6.484375 
Q 5.515625 14.40625 5.515625 27.296875 
Q 5.515625 40.1875 11.734375 48.09375 
Q 17.96875 56 27.875 56 
Q 33.9375 56 38.25 53.625 
Q 42.578125 51.265625 45.40625 46.390625 
L 45.40625 54.6875 
L 54.390625 54.6875 
L 54.390625 -20.796875 
L 45.40625 -20.796875 
z
" id="DejaVuSans-113"/>
      </defs>
      <use xlink:href="#DejaVuSans-119"/>
      <use x="81.787109" xlink:href="#DejaVuSans-101"/>
      <use x="143.310547" xlink:href="#DejaVuSans-105"/>
      <use x="171.09375" xlink:href="#DejaVuSans-122"/>
      <use x="223.583984" xlink:href="#DejaVuSans-122"/>
      <use x="276.074219" xlink:href="#DejaVuSans-95"/>
      <use x="326.074219" xlink:href="#DejaVuSans-113"/>
      <use x="389.550781" xlink:href="#DejaVuSans-101"/>
      <use x="451.074219" xlink:href="#DejaVuSans-109"/>
      <use x="548.486328" xlink:href="#DejaVuSans-117"/>
     </g>
    </g>
    <g id="line2d_35">
     <path d="M 771.568125 60.050937 
L 791.568125 60.050937 
" style="fill:none;stroke:#d62728;stroke-linecap:square;stroke-width:1.5;"/>
    </g>
    <g id="line2d_36"/>
    <g id="text_26">
     <!-- kirenenko -->
     <g transform="translate(799.568125 63.550937)scale(0.1 -0.1)">
      <defs>
       <path d="M 9.078125 75.984375 
L 18.109375 75.984375 
L 18.109375 31.109375 
L 44.921875 54.6875 
L 56.390625 54.6875 
L 27.390625 29.109375 
L 57.625 0 
L 45.90625 0 
L 18.109375 26.703125 
L 18.109375 0 
L 9.078125 0 
z
" id="DejaVuSans-107"/>
      </defs>
      <use xlink:href="#DejaVuSans-107"/>
      <use x="57.910156" xlink:href="#DejaVuSans-105"/>
      <use x="85.693359" xlink:href="#DejaVuSans-114"/>
      <use x="124.556641" xlink:href="#DejaVuSans-101"/>
      <use x="186.080078" xlink:href="#DejaVuSans-110"/>
      <use x="249.458984" xlink:href="#DejaVuSans-101"/>
      <use x="310.982422" xlink:href="#DejaVuSans-110"/>
      <use x="374.361328" xlink:href="#DejaVuSans-107"/>
      <use x="428.646484" xlink:href="#DejaVuSans-111"/>
     </g>
    </g>
    <g id="line2d_37">
     <path d="M 771.568125 74.729062 
L 791.568125 74.729062 
" style="fill:none;stroke:#98df8a;stroke-linecap:square;stroke-width:1.5;"/>
    </g>
    <g id="line2d_38"/>
    <g id="text_27">
     <!-- honggfuzz -->
     <g transform="translate(799.568125 78.229062)scale(0.1 -0.1)">
      <use xlink:href="#DejaVuSans-104"/>
      <use x="63.378906" xlink:href="#DejaVuSans-111"/>
      <use x="124.560547" xlink:href="#DejaVuSans-110"/>
      <use x="187.939453" xlink:href="#DejaVuSans-103"/>
      <use x="251.416016" xlink:href="#DejaVuSans-103"/>
      <use x="314.892578" xlink:href="#DejaVuSans-102"/>
      <use x="350.097656" xlink:href="#DejaVuSans-117"/>
      <use x="413.476562" xlink:href="#DejaVuSans-122"/>
      <use x="465.966797" xlink:href="#DejaVuSans-122"/>
     </g>
    </g>
    <g id="line2d_39">
     <path d="M 771.568125 89.407187 
L 791.568125 89.407187 
" style="fill:none;stroke:#1f77b4;stroke-linecap:square;stroke-width:1.5;"/>
    </g>
    <g id="line2d_40"/>
    <g id="text_28">
     <!-- aflplusplus -->
     <g transform="translate(799.568125 92.907187)scale(0.1 -0.1)">
      <use xlink:href="#DejaVuSans-97"/>
      <use x="61.279297" xlink:href="#DejaVuSans-102"/>
      <use x="96.484375" xlink:href="#DejaVuSans-108"/>
      <use x="124.267578" xlink:href="#DejaVuSans-112"/>
      <use x="187.744141" xlink:href="#DejaVuSans-108"/>
      <use x="215.527344" xlink:href="#DejaVuSans-117"/>
      <use x="278.90625" xlink:href="#DejaVuSans-115"/>
      <use x="331.005859" xlink:href="#DejaVuSans-112"/>
      <use x="394.482422" xlink:href="#DejaVuSans-108"/>
      <use x="422.265625" xlink:href="#DejaVuSans-117"/>
      <use x="485.644531" xlink:href="#DejaVuSans-115"/>
     </g>
    </g>
   </g>
  </g>
 </g>
 <defs>
  <clipPath id="pfeedd9a585">
   <rect height="266.112" width="714.24" x="53.328125" y="22.318125"/>
  </clipPath>
 </defs>
</svg>
