<?xml version="1.0" encoding="utf-8" standalone="no"?>
<!DOCTYPE svg PUBLIC "-//W3C//DTD SVG 1.1//EN"
  "http://www.w3.org/Graphics/SVG/1.1/DTD/svg11.dtd">
<!-- Created with matplotlib (https://matplotlib.org/) -->
<svg height="355.523584pt" version="1.1" viewBox="0 0 417.648125 355.523584" width="417.648125pt" xmlns="http://www.w3.org/2000/svg" xmlns:xlink="http://www.w3.org/1999/xlink">
 <metadata>
  <rdf:RDF xmlns:cc="http://creativecommons.org/ns#" xmlns:dc="http://purl.org/dc/elements/1.1/" xmlns:rdf="http://www.w3.org/1999/02/22-rdf-syntax-ns#">
   <cc:Work>
    <dc:type rdf:resource="http://purl.org/dc/dcmitype/StillImage"/>
    <dc:date>2020-10-24T19:18:34.708454</dc:date>
    <dc:format>image/svg+xml</dc:format>
    <dc:creator>
     <cc:Agent>
      <dc:title>Matplotlib v3.3.2, https://matplotlib.org/</dc:title>
     </cc:Agent>
    </dc:creator>
   </cc:Work>
  </rdf:RDF>
 </metadata>
 <defs>
  <style type="text/css">*{stroke-linecap:butt;stroke-linejoin:round;}</style>
 </defs>
 <g id="figure_1">
  <g id="patch_1">
   <path d="M 0 355.523584 
L 417.648125 355.523584 
L 417.648125 0 
L 0 0 
z
" style="fill:#ffffff;"/>
  </g>
  <g id="axes_1">
   <g id="patch_2">
    <path d="M 53.328125 288.430125 
L 410.448125 288.430125 
L 410.448125 22.318125 
L 53.328125 22.318125 
z
" style="fill:#ffffff;"/>
   </g>
   <g id="PolyCollection_1">
    <defs>
     <path d="M 98.006699 -104.849389 
L 97.929551 -104.849389 
L 97.922721 -107.033834 
L 97.914964 -109.218279 
L 97.90621 -111.402725 
L 97.896391 -113.58717 
L 97.885445 -115.771615 
L 97.873317 -117.95606 
L 97.859962 -120.140505 
L 97.845347 -122.32495 
L 97.829451 -124.509396 
L 97.812266 -126.693841 
L 97.793803 -128.878286 
L 97.774088 -131.062731 
L 97.753163 -133.247176 
L 97.731092 -135.431621 
L 97.707954 -137.616066 
L 97.683847 -139.800512 
L 97.658883 -141.984957 
L 97.633195 -144.169402 
L 97.606925 -146.353847 
L 97.58023 -148.538292 
L 97.553277 -150.722737 
L 97.526243 -152.907182 
L 97.499308 -155.091628 
L 97.472659 -157.276073 
L 97.446483 -159.460518 
L 97.420967 -161.644963 
L 97.396298 -163.829408 
L 97.372657 -166.013853 
L 97.350218 -168.198299 
L 97.329151 -170.382744 
L 97.309614 -172.567189 
L 97.291758 -174.751634 
L 97.27572 -176.936079 
L 97.261626 -179.120524 
L 97.249584 -181.304969 
L 97.239692 -183.489415 
L 97.232025 -185.67386 
L 97.226641 -187.858305 
L 97.223579 -190.04275 
L 97.222854 -192.227195 
L 97.224457 -194.41164 
L 97.228354 -196.596086 
L 97.234486 -198.780531 
L 97.242767 -200.964976 
L 97.253084 -203.149421 
L 97.265299 -205.333866 
L 97.279249 -207.518311 
L 97.294749 -209.702756 
L 97.311595 -211.887202 
L 97.329566 -214.071647 
L 97.348432 -216.256092 
L 97.367954 -218.440537 
L 97.387893 -220.624982 
L 97.408014 -222.809427 
L 97.428093 -224.993873 
L 97.447921 -227.178318 
L 97.467309 -229.362763 
L 97.486094 -231.547208 
L 97.504142 -233.731653 
L 97.521349 -235.916098 
L 97.537647 -238.100543 
L 97.552999 -240.284989 
L 97.567403 -242.469434 
L 97.580887 -244.653879 
L 97.593508 -246.838324 
L 97.605348 -249.022769 
L 97.61651 -251.207214 
L 97.627108 -253.391659 
L 97.637271 -255.576105 
L 97.647129 -257.76055 
L 97.656809 -259.944995 
L 97.666434 -262.12944 
L 97.676114 -264.313885 
L 97.685946 -266.49833 
L 97.696005 -268.682776 
L 97.706348 -270.867221 
L 97.717012 -273.051666 
L 97.728007 -275.236111 
L 97.739326 -277.420556 
L 97.750941 -279.605001 
L 97.762806 -281.789446 
L 97.774859 -283.973892 
L 97.787027 -286.158337 
L 97.799228 -288.342782 
L 97.811375 -290.527227 
L 97.823379 -292.711672 
L 97.835151 -294.896117 
L 97.846608 -297.080563 
L 97.857672 -299.265008 
L 97.868274 -301.449453 
L 97.878355 -303.633898 
L 97.887868 -305.818343 
L 97.896776 -308.002788 
L 97.905055 -310.187233 
L 97.912691 -312.371679 
L 97.919682 -314.556124 
L 97.926035 -316.740569 
L 97.931768 -318.925014 
L 97.936902 -321.109459 
L 97.999348 -321.109459 
L 97.999348 -321.109459 
L 98.004482 -318.925014 
L 98.010215 -316.740569 
L 98.016568 -314.556124 
L 98.023559 -312.371679 
L 98.031195 -310.187233 
L 98.039474 -308.002788 
L 98.048382 -305.818343 
L 98.057895 -303.633898 
L 98.067976 -301.449453 
L 98.078578 -299.265008 
L 98.089642 -297.080563 
L 98.101099 -294.896117 
L 98.112871 -292.711672 
L 98.124875 -290.527227 
L 98.137022 -288.342782 
L 98.149223 -286.158337 
L 98.161391 -283.973892 
L 98.173444 -281.789446 
L 98.185309 -279.605001 
L 98.196924 -277.420556 
L 98.208243 -275.236111 
L 98.219238 -273.051666 
L 98.229902 -270.867221 
L 98.240245 -268.682776 
L 98.250304 -266.49833 
L 98.260136 -264.313885 
L 98.269816 -262.12944 
L 98.279441 -259.944995 
L 98.289121 -257.76055 
L 98.298979 -255.576105 
L 98.309142 -253.391659 
L 98.31974 -251.207214 
L 98.330902 -249.022769 
L 98.342742 -246.838324 
L 98.355363 -244.653879 
L 98.368847 -242.469434 
L 98.383251 -240.284989 
L 98.398603 -238.100543 
L 98.414901 -235.916098 
L 98.432108 -233.731653 
L 98.450156 -231.547208 
L 98.468941 -229.362763 
L 98.488329 -227.178318 
L 98.508157 -224.993873 
L 98.528236 -222.809427 
L 98.548357 -220.624982 
L 98.568296 -218.440537 
L 98.587818 -216.256092 
L 98.606684 -214.071647 
L 98.624655 -211.887202 
L 98.641501 -209.702756 
L 98.657001 -207.518311 
L 98.670951 -205.333866 
L 98.683166 -203.149421 
L 98.693483 -200.964976 
L 98.701764 -198.780531 
L 98.707896 -196.596086 
L 98.711793 -194.41164 
L 98.713396 -192.227195 
L 98.712671 -190.04275 
L 98.709609 -187.858305 
L 98.704225 -185.67386 
L 98.696558 -183.489415 
L 98.686666 -181.304969 
L 98.674624 -179.120524 
L 98.66053 -176.936079 
L 98.644492 -174.751634 
L 98.626636 -172.567189 
L 98.607099 -170.382744 
L 98.586032 -168.198299 
L 98.563593 -166.013853 
L 98.539952 -163.829408 
L 98.515283 -161.644963 
L 98.489767 -159.460518 
L 98.463591 -157.276073 
L 98.436942 -155.091628 
L 98.410007 -152.907182 
L 98.382973 -150.722737 
L 98.35602 -148.538292 
L 98.329325 -146.353847 
L 98.303055 -144.169402 
L 98.277367 -141.984957 
L 98.252403 -139.800512 
L 98.228296 -137.616066 
L 98.205158 -135.431621 
L 98.183087 -133.247176 
L 98.162162 -131.062731 
L 98.142447 -128.878286 
L 98.123984 -126.693841 
L 98.106799 -124.509396 
L 98.090903 -122.32495 
L 98.076288 -120.140505 
L 98.062933 -117.95606 
L 98.050805 -115.771615 
L 98.039859 -113.58717 
L 98.03004 -111.402725 
L 98.021286 -109.218279 
L 98.013529 -107.033834 
L 98.006699 -104.849389 
z
" id="mbcc7fbad0d" style="stroke:#3f3f3f;stroke-width:1.5;"/>
    </defs>
    <g clip-path="url(#p342c303bb4)">
     <use style="fill:#c03d3e;stroke:#3f3f3f;stroke-width:1.5;" x="0" xlink:href="#mbcc7fbad0d" y="355.523584"/>
    </g>
   </g>
   <g id="PolyCollection_2">
    <defs>
     <path d="M 187.286517 -79.189459 
L 187.209733 -79.189459 
L 187.203277 -81.005452 
L 187.196043 -82.821445 
L 187.187996 -84.637438 
L 187.179107 -86.45343 
L 187.169361 -88.269423 
L 187.158749 -90.085416 
L 187.147279 -91.901409 
L 187.134969 -93.717402 
L 187.121853 -95.533394 
L 187.107974 -97.349387 
L 187.093392 -99.16538 
L 187.078174 -100.981373 
L 187.062397 -102.797366 
L 187.046146 -104.613358 
L 187.029509 -106.429351 
L 187.012572 -108.245344 
L 186.99542 -110.061337 
L 186.97813 -111.87733 
L 186.96077 -113.693322 
L 186.943393 -115.509315 
L 186.926036 -117.325308 
L 186.908717 -119.141301 
L 186.891437 -120.957294 
L 186.874175 -122.773286 
L 186.856892 -124.589279 
L 186.839532 -126.405272 
L 186.822028 -128.221265 
L 186.804299 -130.037258 
L 186.786263 -131.85325 
L 186.767837 -133.669243 
L 186.748948 -135.485236 
L 186.729532 -137.301229 
L 186.709548 -139.117222 
L 186.688977 -140.933214 
L 186.66783 -142.749207 
L 186.646152 -144.5652 
L 186.62402 -146.381193 
L 186.601551 -148.197186 
L 186.578894 -150.013178 
L 186.556232 -151.829171 
L 186.533778 -153.645164 
L 186.511768 -155.461157 
L 186.490455 -157.277149 
L 186.470103 -159.093142 
L 186.45098 -160.909135 
L 186.433347 -162.725128 
L 186.417452 -164.541121 
L 186.403522 -166.357113 
L 186.391756 -168.173106 
L 186.382323 -169.989099 
L 186.375353 -171.805092 
L 186.370934 -173.621085 
L 186.369116 -175.437077 
L 186.369908 -177.25307 
L 186.373276 -179.069063 
L 186.379154 -180.885056 
L 186.387442 -182.701049 
L 186.398012 -184.517041 
L 186.410715 -186.333034 
L 186.425386 -188.149027 
L 186.44185 -189.96502 
L 186.459926 -191.781013 
L 186.479435 -193.597005 
L 186.500201 -195.412998 
L 186.522059 -197.228991 
L 186.544851 -199.044984 
L 186.568434 -200.860977 
L 186.592675 -202.676969 
L 186.617457 -204.492962 
L 186.642672 -206.308955 
L 186.668223 -208.124948 
L 186.694021 -209.940941 
L 186.719984 -211.756933 
L 186.746032 -213.572926 
L 186.772089 -215.388919 
L 186.798076 -217.204912 
L 186.823917 -219.020905 
L 186.849528 -220.836897 
L 186.874828 -222.65289 
L 186.89973 -224.468883 
L 186.924146 -226.284876 
L 186.947988 -228.100869 
L 186.971168 -229.916861 
L 186.9936 -231.732854 
L 187.015205 -233.548847 
L 187.035907 -235.36484 
L 187.05564 -237.180833 
L 187.074346 -238.996825 
L 187.091979 -240.812818 
L 187.108505 -242.628811 
L 187.123901 -244.444804 
L 187.138159 -246.260797 
L 187.151282 -248.076789 
L 187.163286 -249.892782 
L 187.174196 -251.708775 
L 187.18405 -253.524768 
L 187.192893 -255.340761 
L 187.200778 -257.156753 
L 187.207763 -258.972746 
L 187.288487 -258.972746 
L 187.288487 -258.972746 
L 187.295472 -257.156753 
L 187.303357 -255.340761 
L 187.3122 -253.524768 
L 187.322054 -251.708775 
L 187.332964 -249.892782 
L 187.344968 -248.076789 
L 187.358091 -246.260797 
L 187.372349 -244.444804 
L 187.387745 -242.628811 
L 187.404271 -240.812818 
L 187.421904 -238.996825 
L 187.44061 -237.180833 
L 187.460343 -235.36484 
L 187.481045 -233.548847 
L 187.50265 -231.732854 
L 187.525082 -229.916861 
L 187.548262 -228.100869 
L 187.572104 -226.284876 
L 187.59652 -224.468883 
L 187.621422 -222.65289 
L 187.646722 -220.836897 
L 187.672333 -219.020905 
L 187.698174 -217.204912 
L 187.724161 -215.388919 
L 187.750218 -213.572926 
L 187.776266 -211.756933 
L 187.802229 -209.940941 
L 187.828027 -208.124948 
L 187.853578 -206.308955 
L 187.878793 -204.492962 
L 187.903575 -202.676969 
L 187.927816 -200.860977 
L 187.951399 -199.044984 
L 187.974191 -197.228991 
L 187.996049 -195.412998 
L 188.016815 -193.597005 
L 188.036324 -191.781013 
L 188.0544 -189.96502 
L 188.070864 -188.149027 
L 188.085535 -186.333034 
L 188.098238 -184.517041 
L 188.108808 -182.701049 
L 188.117096 -180.885056 
L 188.122974 -179.069063 
L 188.126342 -177.25307 
L 188.127134 -175.437077 
L 188.125316 -173.621085 
L 188.120897 -171.805092 
L 188.113927 -169.989099 
L 188.104494 -168.173106 
L 188.092728 -166.357113 
L 188.078798 -164.541121 
L 188.062903 -162.725128 
L 188.04527 -160.909135 
L 188.026147 -159.093142 
L 188.005795 -157.277149 
L 187.984482 -155.461157 
L 187.962472 -153.645164 
L 187.940018 -151.829171 
L 187.917356 -150.013178 
L 187.894699 -148.197186 
L 187.87223 -146.381193 
L 187.850098 -144.5652 
L 187.82842 -142.749207 
L 187.807273 -140.933214 
L 187.786702 -139.117222 
L 187.766718 -137.301229 
L 187.747302 -135.485236 
L 187.728413 -133.669243 
L 187.709987 -131.85325 
L 187.691951 -130.037258 
L 187.674222 -128.221265 
L 187.656718 -126.405272 
L 187.639358 -124.589279 
L 187.622075 -122.773286 
L 187.604813 -120.957294 
L 187.587533 -119.141301 
L 187.570214 -117.325308 
L 187.552857 -115.509315 
L 187.53548 -113.693322 
L 187.51812 -111.87733 
L 187.50083 -110.061337 
L 187.483678 -108.245344 
L 187.466741 -106.429351 
L 187.450104 -104.613358 
L 187.433853 -102.797366 
L 187.418076 -100.981373 
L 187.402858 -99.16538 
L 187.388276 -97.349387 
L 187.374397 -95.533394 
L 187.361281 -93.717402 
L 187.348971 -91.901409 
L 187.337501 -90.085416 
L 187.326889 -88.269423 
L 187.317143 -86.45343 
L 187.308254 -84.637438 
L 187.300207 -82.821445 
L 187.292973 -81.005452 
L 187.286517 -79.189459 
z
" id="m0a45b3616c" style="stroke:#3f3f3f;stroke-width:1.5;"/>
    </defs>
    <g clip-path="url(#p342c303bb4)">
     <use style="fill:#c7c7c7;stroke:#3f3f3f;stroke-width:1.5;" x="0" xlink:href="#m0a45b3616c" y="355.523584"/>
    </g>
   </g>
   <g id="PolyCollection_3">
    <defs>
     <path d="M 276.945261 -126.439199 
L 276.110989 -126.439199 
L 276.043862 -126.601934 
L 275.968804 -126.764668 
L 275.885391 -126.927402 
L 275.79326 -127.090136 
L 275.692126 -127.252871 
L 275.581792 -127.415605 
L 275.462165 -127.578339 
L 275.333262 -127.741074 
L 275.195224 -127.903808 
L 275.04832 -128.066542 
L 274.892949 -128.229276 
L 274.729642 -128.392011 
L 274.559059 -128.554745 
L 274.381978 -128.717479 
L 274.199286 -128.880214 
L 274.011964 -129.042948 
L 273.821071 -129.205682 
L 273.627719 -129.368416 
L 273.433051 -129.531151 
L 273.238219 -129.693885 
L 273.044354 -129.856619 
L 272.852543 -130.019354 
L 272.663802 -130.182088 
L 272.479054 -130.344822 
L 272.299104 -130.507556 
L 272.124623 -130.670291 
L 271.956132 -130.833025 
L 271.79399 -130.995759 
L 271.638384 -131.158494 
L 271.48933 -131.321228 
L 271.346671 -131.483962 
L 271.210082 -131.646696 
L 271.079083 -131.809431 
L 270.953047 -131.972165 
L 270.831223 -132.134899 
L 270.712753 -132.297634 
L 270.596699 -132.460368 
L 270.482067 -132.623102 
L 270.367836 -132.785836 
L 270.252992 -132.948571 
L 270.136557 -133.111305 
L 270.017624 -133.274039 
L 269.895391 -133.436774 
L 269.769192 -133.599508 
L 269.638532 -133.762242 
L 269.503114 -133.924976 
L 269.362869 -134.087711 
L 269.217979 -134.250445 
L 269.068894 -134.413179 
L 268.916348 -134.575914 
L 268.761365 -134.738648 
L 268.605254 -134.901382 
L 268.449608 -135.064116 
L 268.296279 -135.226851 
L 268.147359 -135.389585 
L 268.005141 -135.552319 
L 267.872079 -135.715054 
L 267.750738 -135.877788 
L 267.643738 -136.040522 
L 267.553694 -136.203256 
L 267.483152 -136.365991 
L 267.434523 -136.528725 
L 267.410019 -136.691459 
L 267.411592 -136.854193 
L 267.440876 -137.016928 
L 267.499137 -137.179662 
L 267.58723 -137.342396 
L 267.705573 -137.505131 
L 267.854117 -137.667865 
L 268.032348 -137.830599 
L 268.239282 -137.993333 
L 268.473488 -138.156068 
L 268.733112 -138.318802 
L 269.015919 -138.481536 
L 269.319338 -138.644271 
L 269.640522 -138.807005 
L 269.976408 -138.969739 
L 270.323784 -139.132473 
L 270.679359 -139.295208 
L 271.039828 -139.457942 
L 271.401941 -139.620676 
L 271.762562 -139.783411 
L 272.118727 -139.946145 
L 272.467689 -140.108879 
L 272.806963 -140.271613 
L 273.134354 -140.434348 
L 273.447981 -140.597082 
L 273.746289 -140.759816 
L 274.028055 -140.922551 
L 274.29238 -141.085285 
L 274.538683 -141.248019 
L 274.766677 -141.410753 
L 274.976351 -141.573488 
L 275.167936 -141.736222 
L 275.341881 -141.898956 
L 275.498818 -142.061691 
L 275.639527 -142.224425 
L 275.764908 -142.387159 
L 275.875946 -142.549893 
L 277.180304 -142.549893 
L 277.180304 -142.549893 
L 277.291342 -142.387159 
L 277.416723 -142.224425 
L 277.557432 -142.061691 
L 277.714369 -141.898956 
L 277.888314 -141.736222 
L 278.079899 -141.573488 
L 278.289573 -141.410753 
L 278.517567 -141.248019 
L 278.76387 -141.085285 
L 279.028195 -140.922551 
L 279.309961 -140.759816 
L 279.608269 -140.597082 
L 279.921896 -140.434348 
L 280.249287 -140.271613 
L 280.588561 -140.108879 
L 280.937523 -139.946145 
L 281.293688 -139.783411 
L 281.654309 -139.620676 
L 282.016422 -139.457942 
L 282.376891 -139.295208 
L 282.732466 -139.132473 
L 283.079842 -138.969739 
L 283.415728 -138.807005 
L 283.736912 -138.644271 
L 284.040331 -138.481536 
L 284.323138 -138.318802 
L 284.582762 -138.156068 
L 284.816968 -137.993333 
L 285.023902 -137.830599 
L 285.202133 -137.667865 
L 285.350677 -137.505131 
L 285.46902 -137.342396 
L 285.557113 -137.179662 
L 285.615374 -137.016928 
L 285.644658 -136.854193 
L 285.646231 -136.691459 
L 285.621727 -136.528725 
L 285.573098 -136.365991 
L 285.502556 -136.203256 
L 285.412512 -136.040522 
L 285.305512 -135.877788 
L 285.184171 -135.715054 
L 285.051109 -135.552319 
L 284.908891 -135.389585 
L 284.759971 -135.226851 
L 284.606642 -135.064116 
L 284.450996 -134.901382 
L 284.294885 -134.738648 
L 284.139902 -134.575914 
L 283.987356 -134.413179 
L 283.838271 -134.250445 
L 283.693381 -134.087711 
L 283.553136 -133.924976 
L 283.417718 -133.762242 
L 283.287058 -133.599508 
L 283.160859 -133.436774 
L 283.038626 -133.274039 
L 282.919693 -133.111305 
L 282.803258 -132.948571 
L 282.688414 -132.785836 
L 282.574183 -132.623102 
L 282.459551 -132.460368 
L 282.343497 -132.297634 
L 282.225027 -132.134899 
L 282.103203 -131.972165 
L 281.977167 -131.809431 
L 281.846168 -131.646696 
L 281.709579 -131.483962 
L 281.56692 -131.321228 
L 281.417866 -131.158494 
L 281.26226 -130.995759 
L 281.100118 -130.833025 
L 280.931627 -130.670291 
L 280.757146 -130.507556 
L 280.577196 -130.344822 
L 280.392448 -130.182088 
L 280.203707 -130.019354 
L 280.011896 -129.856619 
L 279.818031 -129.693885 
L 279.623199 -129.531151 
L 279.428531 -129.368416 
L 279.235179 -129.205682 
L 279.044286 -129.042948 
L 278.856964 -128.880214 
L 278.674272 -128.717479 
L 278.497191 -128.554745 
L 278.326608 -128.392011 
L 278.163301 -128.229276 
L 278.00793 -128.066542 
L 277.861026 -127.903808 
L 277.722988 -127.741074 
L 277.594085 -127.578339 
L 277.474458 -127.415605 
L 277.364124 -127.252871 
L 277.26299 -127.090136 
L 277.170859 -126.927402 
L 277.087446 -126.764668 
L 277.012388 -126.601934 
L 276.945261 -126.439199 
z
" id="ma03a6737c1" style="stroke:#3f3f3f;stroke-width:1.5;"/>
    </defs>
    <g clip-path="url(#p342c303bb4)">
     <use style="fill:#9fd495;stroke:#3f3f3f;stroke-width:1.5;" x="0" xlink:href="#ma03a6737c1" y="355.523584"/>
    </g>
   </g>
   <g id="PolyCollection_4">
    <defs>
     <path d="M 367.545 -100.471517 
L 364.07125 -100.471517 
L 363.772075 -100.51388 
L 363.433849 -100.556243 
L 363.053758 -100.598606 
L 362.629156 -100.64097 
L 362.157622 -100.683333 
L 361.637025 -100.725696 
L 361.065587 -100.768059 
L 360.441934 -100.810422 
L 359.765154 -100.852785 
L 359.034838 -100.895149 
L 358.251119 -100.937512 
L 357.4147 -100.979875 
L 356.52687 -101.022238 
L 355.589516 -101.064601 
L 354.605118 -101.106965 
L 353.576743 -101.149328 
L 352.508026 -101.191691 
L 351.403141 -101.234054 
L 350.26678 -101.276417 
L 349.104111 -101.31878 
L 347.920745 -101.361144 
L 346.722692 -101.403507 
L 345.516323 -101.44587 
L 344.308326 -101.488233 
L 343.105653 -101.530596 
L 341.915477 -101.57296 
L 340.745131 -101.615323 
L 339.602048 -101.657686 
L 338.493697 -101.700049 
L 337.427498 -101.742412 
L 336.410744 -101.784776 
L 335.450504 -101.827139 
L 334.553518 -101.869502 
L 333.726093 -101.911865 
L 332.973986 -101.954228 
L 332.302297 -101.996591 
L 331.715352 -102.038955 
L 331.216606 -102.081318 
L 330.808553 -102.123681 
L 330.492654 -102.166044 
L 330.269287 -102.208407 
L 330.137721 -102.250771 
L 330.096125 -102.293134 
L 330.141596 -102.335497 
L 330.270227 -102.37786 
L 330.477199 -102.420223 
L 330.756906 -102.462586 
L 331.103094 -102.50495 
L 331.509031 -102.547313 
L 331.967679 -102.589676 
L 332.47188 -102.632039 
L 333.01454 -102.674402 
L 333.58881 -102.716766 
L 334.188246 -102.759129 
L 334.806962 -102.801492 
L 335.439753 -102.843855 
L 336.082192 -102.886218 
L 336.730696 -102.928581 
L 337.382566 -102.970945 
L 338.035985 -103.013308 
L 338.689995 -103.055671 
L 339.344437 -103.098034 
L 339.999864 -103.140397 
L 340.65744 -103.182761 
L 341.318806 -103.225124 
L 341.985946 -103.267487 
L 342.661033 -103.30985 
L 343.346283 -103.352213 
L 344.043804 -103.394576 
L 344.755455 -103.43694 
L 345.482723 -103.479303 
L 346.226612 -103.521666 
L 346.987558 -103.564029 
L 347.765363 -103.606392 
L 348.559164 -103.648756 
L 349.36742 -103.691119 
L 350.187932 -103.733482 
L 351.017885 -103.775845 
L 351.853918 -103.818208 
L 352.692206 -103.860571 
L 353.528568 -103.902935 
L 354.358576 -103.945298 
L 355.177681 -103.987661 
L 355.981333 -104.030024 
L 356.7651 -104.072387 
L 357.524783 -104.114751 
L 358.256517 -104.157114 
L 358.956853 -104.199477 
L 359.622833 -104.24184 
L 360.25204 -104.284203 
L 360.842626 -104.326566 
L 361.393328 -104.36893 
L 361.903464 -104.411293 
L 362.372908 -104.453656 
L 362.802055 -104.496019 
L 363.191776 -104.538382 
L 363.543357 -104.580746 
L 363.858439 -104.623109 
L 364.138951 -104.665472 
L 367.477299 -104.665472 
L 367.477299 -104.665472 
L 367.757811 -104.623109 
L 368.072893 -104.580746 
L 368.424474 -104.538382 
L 368.814195 -104.496019 
L 369.243342 -104.453656 
L 369.712786 -104.411293 
L 370.222922 -104.36893 
L 370.773624 -104.326566 
L 371.36421 -104.284203 
L 371.993417 -104.24184 
L 372.659397 -104.199477 
L 373.359733 -104.157114 
L 374.091467 -104.114751 
L 374.85115 -104.072387 
L 375.634917 -104.030024 
L 376.438569 -103.987661 
L 377.257674 -103.945298 
L 378.087682 -103.902935 
L 378.924044 -103.860571 
L 379.762332 -103.818208 
L 380.598365 -103.775845 
L 381.428318 -103.733482 
L 382.24883 -103.691119 
L 383.057086 -103.648756 
L 383.850887 -103.606392 
L 384.628692 -103.564029 
L 385.389638 -103.521666 
L 386.133527 -103.479303 
L 386.860795 -103.43694 
L 387.572446 -103.394576 
L 388.269967 -103.352213 
L 388.955217 -103.30985 
L 389.630304 -103.267487 
L 390.297444 -103.225124 
L 390.95881 -103.182761 
L 391.616386 -103.140397 
L 392.271813 -103.098034 
L 392.926255 -103.055671 
L 393.580265 -103.013308 
L 394.233684 -102.970945 
L 394.885554 -102.928581 
L 395.534058 -102.886218 
L 396.176497 -102.843855 
L 396.809288 -102.801492 
L 397.428004 -102.759129 
L 398.02744 -102.716766 
L 398.60171 -102.674402 
L 399.14437 -102.632039 
L 399.648571 -102.589676 
L 400.107219 -102.547313 
L 400.513156 -102.50495 
L 400.859344 -102.462586 
L 401.139051 -102.420223 
L 401.346023 -102.37786 
L 401.474654 -102.335497 
L 401.520125 -102.293134 
L 401.478529 -102.250771 
L 401.346963 -102.208407 
L 401.123596 -102.166044 
L 400.807697 -102.123681 
L 400.399644 -102.081318 
L 399.900898 -102.038955 
L 399.313953 -101.996591 
L 398.642264 -101.954228 
L 397.890157 -101.911865 
L 397.062732 -101.869502 
L 396.165746 -101.827139 
L 395.205506 -101.784776 
L 394.188752 -101.742412 
L 393.122553 -101.700049 
L 392.014202 -101.657686 
L 390.871119 -101.615323 
L 389.700773 -101.57296 
L 388.510597 -101.530596 
L 387.307924 -101.488233 
L 386.099927 -101.44587 
L 384.893558 -101.403507 
L 383.695505 -101.361144 
L 382.512139 -101.31878 
L 381.34947 -101.276417 
L 380.213109 -101.234054 
L 379.108224 -101.191691 
L 378.039507 -101.149328 
L 377.011132 -101.106965 
L 376.026734 -101.064601 
L 375.08938 -101.022238 
L 374.20155 -100.979875 
L 373.365131 -100.937512 
L 372.581412 -100.895149 
L 371.851096 -100.852785 
L 371.174316 -100.810422 
L 370.550663 -100.768059 
L 369.979225 -100.725696 
L 369.458628 -100.683333 
L 368.987094 -100.64097 
L 368.562492 -100.598606 
L 368.182401 -100.556243 
L 367.844175 -100.51388 
L 367.545 -100.471517 
z
" id="m4f8824414c" style="stroke:#3f3f3f;stroke-width:1.5;"/>
    </defs>
    <g clip-path="url(#p342c303bb4)">
     <use style="fill:#3274a1;stroke:#3f3f3f;stroke-width:1.5;" x="0" xlink:href="#m4f8824414c" y="355.523584"/>
    </g>
   </g>
   <g id="matplotlib.axis_1">
    <g id="xtick_1">
     <g id="line2d_1">
      <defs>
       <path d="M 0 0 
L 0 3.5 
" id="m43fd95456d" style="stroke:#000000;stroke-width:0.8;"/>
      </defs>
      <g>
       <use style="stroke:#000000;stroke-width:0.8;" x="97.968125" xlink:href="#m43fd95456d" y="288.430125"/>
      </g>
     </g>
     <g id="text_1">
      <!-- kirenenko -->
      <g transform="translate(54.507921 326.501971)rotate(-30)scale(0.1 -0.1)">
       <defs>
        <path d="M 9.078125 75.984375 
L 18.109375 75.984375 
L 18.109375 31.109375 
L 44.921875 54.6875 
L 56.390625 54.6875 
L 27.390625 29.109375 
L 57.625 0 
L 45.90625 0 
L 18.109375 26.703125 
L 18.109375 0 
L 9.078125 0 
z
" id="DejaVuSans-107"/>
        <path d="M 9.421875 54.6875 
L 18.40625 54.6875 
L 18.40625 0 
L 9.421875 0 
z
M 9.421875 75.984375 
L 18.40625 75.984375 
L 18.40625 64.59375 
L 9.421875 64.59375 
z
" id="DejaVuSans-105"/>
        <path d="M 41.109375 46.296875 
Q 39.59375 47.171875 37.8125 47.578125 
Q 36.03125 48 33.890625 48 
Q 26.265625 48 22.1875 43.046875 
Q 18.109375 38.09375 18.109375 28.8125 
L 18.109375 0 
L 9.078125 0 
L 9.078125 54.6875 
L 18.109375 54.6875 
L 18.109375 46.1875 
Q 20.953125 51.171875 25.484375 53.578125 
Q 30.03125 56 36.53125 56 
Q 37.453125 56 38.578125 55.875 
Q 39.703125 55.765625 41.0625 55.515625 
z
" id="DejaVuSans-114"/>
        <path d="M 56.203125 29.59375 
L 56.203125 25.203125 
L 14.890625 25.203125 
Q 15.484375 15.921875 20.484375 11.0625 
Q 25.484375 6.203125 34.421875 6.203125 
Q 39.59375 6.203125 44.453125 7.46875 
Q 49.3125 8.734375 54.109375 11.28125 
L 54.109375 2.78125 
Q 49.265625 0.734375 44.1875 -0.34375 
Q 39.109375 -1.421875 33.890625 -1.421875 
Q 20.796875 -1.421875 13.15625 6.1875 
Q 5.515625 13.8125 5.515625 26.8125 
Q 5.515625 40.234375 12.765625 48.109375 
Q 20.015625 56 32.328125 56 
Q 43.359375 56 49.78125 48.890625 
Q 56.203125 41.796875 56.203125 29.59375 
z
M 47.21875 32.234375 
Q 47.125 39.59375 43.09375 43.984375 
Q 39.0625 48.390625 32.421875 48.390625 
Q 24.90625 48.390625 20.390625 44.140625 
Q 15.875 39.890625 15.1875 32.171875 
z
" id="DejaVuSans-101"/>
        <path d="M 54.890625 33.015625 
L 54.890625 0 
L 45.90625 0 
L 45.90625 32.71875 
Q 45.90625 40.484375 42.875 44.328125 
Q 39.84375 48.1875 33.796875 48.1875 
Q 26.515625 48.1875 22.3125 43.546875 
Q 18.109375 38.921875 18.109375 30.90625 
L 18.109375 0 
L 9.078125 0 
L 9.078125 54.6875 
L 18.109375 54.6875 
L 18.109375 46.1875 
Q 21.34375 51.125 25.703125 53.5625 
Q 30.078125 56 35.796875 56 
Q 45.21875 56 50.046875 50.171875 
Q 54.890625 44.34375 54.890625 33.015625 
z
" id="DejaVuSans-110"/>
        <path d="M 30.609375 48.390625 
Q 23.390625 48.390625 19.1875 42.75 
Q 14.984375 37.109375 14.984375 27.296875 
Q 14.984375 17.484375 19.15625 11.84375 
Q 23.34375 6.203125 30.609375 6.203125 
Q 37.796875 6.203125 41.984375 11.859375 
Q 46.1875 17.53125 46.1875 27.296875 
Q 46.1875 37.015625 41.984375 42.703125 
Q 37.796875 48.390625 30.609375 48.390625 
z
M 30.609375 56 
Q 42.328125 56 49.015625 48.375 
Q 55.71875 40.765625 55.71875 27.296875 
Q 55.71875 13.875 49.015625 6.21875 
Q 42.328125 -1.421875 30.609375 -1.421875 
Q 18.84375 -1.421875 12.171875 6.21875 
Q 5.515625 13.875 5.515625 27.296875 
Q 5.515625 40.765625 12.171875 48.375 
Q 18.84375 56 30.609375 56 
z
" id="DejaVuSans-111"/>
       </defs>
       <use xlink:href="#DejaVuSans-107"/>
       <use x="57.910156" xlink:href="#DejaVuSans-105"/>
       <use x="85.693359" xlink:href="#DejaVuSans-114"/>
       <use x="124.556641" xlink:href="#DejaVuSans-101"/>
       <use x="186.080078" xlink:href="#DejaVuSans-110"/>
       <use x="249.458984" xlink:href="#DejaVuSans-101"/>
       <use x="310.982422" xlink:href="#DejaVuSans-110"/>
       <use x="374.361328" xlink:href="#DejaVuSans-107"/>
       <use x="428.646484" xlink:href="#DejaVuSans-111"/>
      </g>
     </g>
    </g>
    <g id="xtick_2">
     <g id="line2d_2">
      <g>
       <use style="stroke:#000000;stroke-width:0.8;" x="187.248125" xlink:href="#m43fd95456d" y="288.430125"/>
      </g>
     </g>
     <g id="text_2">
      <!-- weizz_qemu -->
      <g transform="translate(133.080643 332.603534)rotate(-30)scale(0.1 -0.1)">
       <defs>
        <path d="M 4.203125 54.6875 
L 13.1875 54.6875 
L 24.421875 12.015625 
L 35.59375 54.6875 
L 46.1875 54.6875 
L 57.421875 12.015625 
L 68.609375 54.6875 
L 77.59375 54.6875 
L 63.28125 0 
L 52.6875 0 
L 40.921875 44.828125 
L 29.109375 0 
L 18.5 0 
z
" id="DejaVuSans-119"/>
        <path d="M 5.515625 54.6875 
L 48.1875 54.6875 
L 48.1875 46.484375 
L 14.40625 7.171875 
L 48.1875 7.171875 
L 48.1875 0 
L 4.296875 0 
L 4.296875 8.203125 
L 38.09375 47.515625 
L 5.515625 47.515625 
z
" id="DejaVuSans-122"/>
        <path d="M 50.984375 -16.609375 
L 50.984375 -23.578125 
L -0.984375 -23.578125 
L -0.984375 -16.609375 
z
" id="DejaVuSans-95"/>
        <path d="M 14.796875 27.296875 
Q 14.796875 17.390625 18.875 11.75 
Q 22.953125 6.109375 30.078125 6.109375 
Q 37.203125 6.109375 41.296875 11.75 
Q 45.40625 17.390625 45.40625 27.296875 
Q 45.40625 37.203125 41.296875 42.84375 
Q 37.203125 48.484375 30.078125 48.484375 
Q 22.953125 48.484375 18.875 42.84375 
Q 14.796875 37.203125 14.796875 27.296875 
z
M 45.40625 8.203125 
Q 42.578125 3.328125 38.25 0.953125 
Q 33.9375 -1.421875 27.875 -1.421875 
Q 17.96875 -1.421875 11.734375 6.484375 
Q 5.515625 14.40625 5.515625 27.296875 
Q 5.515625 40.1875 11.734375 48.09375 
Q 17.96875 56 27.875 56 
Q 33.9375 56 38.25 53.625 
Q 42.578125 51.265625 45.40625 46.390625 
L 45.40625 54.6875 
L 54.390625 54.6875 
L 54.390625 -20.796875 
L 45.40625 -20.796875 
z
" id="DejaVuSans-113"/>
        <path d="M 52 44.1875 
Q 55.375 50.25 60.0625 53.125 
Q 64.75 56 71.09375 56 
Q 79.640625 56 84.28125 50.015625 
Q 88.921875 44.046875 88.921875 33.015625 
L 88.921875 0 
L 79.890625 0 
L 79.890625 32.71875 
Q 79.890625 40.578125 77.09375 44.375 
Q 74.3125 48.1875 68.609375 48.1875 
Q 61.625 48.1875 57.5625 43.546875 
Q 53.515625 38.921875 53.515625 30.90625 
L 53.515625 0 
L 44.484375 0 
L 44.484375 32.71875 
Q 44.484375 40.625 41.703125 44.40625 
Q 38.921875 48.1875 33.109375 48.1875 
Q 26.21875 48.1875 22.15625 43.53125 
Q 18.109375 38.875 18.109375 30.90625 
L 18.109375 0 
L 9.078125 0 
L 9.078125 54.6875 
L 18.109375 54.6875 
L 18.109375 46.1875 
Q 21.1875 51.21875 25.484375 53.609375 
Q 29.78125 56 35.6875 56 
Q 41.65625 56 45.828125 52.96875 
Q 50 49.953125 52 44.1875 
z
" id="DejaVuSans-109"/>
        <path d="M 8.5 21.578125 
L 8.5 54.6875 
L 17.484375 54.6875 
L 17.484375 21.921875 
Q 17.484375 14.15625 20.5 10.265625 
Q 23.53125 6.390625 29.59375 6.390625 
Q 36.859375 6.390625 41.078125 11.03125 
Q 45.3125 15.671875 45.3125 23.6875 
L 45.3125 54.6875 
L 54.296875 54.6875 
L 54.296875 0 
L 45.3125 0 
L 45.3125 8.40625 
Q 42.046875 3.421875 37.71875 1 
Q 33.40625 -1.421875 27.6875 -1.421875 
Q 18.265625 -1.421875 13.375 4.4375 
Q 8.5 10.296875 8.5 21.578125 
z
M 31.109375 56 
z
" id="DejaVuSans-117"/>
       </defs>
       <use xlink:href="#DejaVuSans-119"/>
       <use x="81.787109" xlink:href="#DejaVuSans-101"/>
       <use x="143.310547" xlink:href="#DejaVuSans-105"/>
       <use x="171.09375" xlink:href="#DejaVuSans-122"/>
       <use x="223.583984" xlink:href="#DejaVuSans-122"/>
       <use x="276.074219" xlink:href="#DejaVuSans-95"/>
       <use x="326.074219" xlink:href="#DejaVuSans-113"/>
       <use x="389.550781" xlink:href="#DejaVuSans-101"/>
       <use x="451.074219" xlink:href="#DejaVuSans-109"/>
       <use x="548.486328" xlink:href="#DejaVuSans-117"/>
      </g>
     </g>
    </g>
    <g id="xtick_3">
     <g id="line2d_3">
      <g>
       <use style="stroke:#000000;stroke-width:0.8;" x="276.528125" xlink:href="#m43fd95456d" y="288.430125"/>
      </g>
     </g>
     <g id="text_3">
      <!-- honggfuzz -->
      <g transform="translate(230.588924 327.933221)rotate(-30)scale(0.1 -0.1)">
       <defs>
        <path d="M 54.890625 33.015625 
L 54.890625 0 
L 45.90625 0 
L 45.90625 32.71875 
Q 45.90625 40.484375 42.875 44.328125 
Q 39.84375 48.1875 33.796875 48.1875 
Q 26.515625 48.1875 22.3125 43.546875 
Q 18.109375 38.921875 18.109375 30.90625 
L 18.109375 0 
L 9.078125 0 
L 9.078125 75.984375 
L 18.109375 75.984375 
L 18.109375 46.1875 
Q 21.34375 51.125 25.703125 53.5625 
Q 30.078125 56 35.796875 56 
Q 45.21875 56 50.046875 50.171875 
Q 54.890625 44.34375 54.890625 33.015625 
z
" id="DejaVuSans-104"/>
        <path d="M 45.40625 27.984375 
Q 45.40625 37.75 41.375 43.109375 
Q 37.359375 48.484375 30.078125 48.484375 
Q 22.859375 48.484375 18.828125 43.109375 
Q 14.796875 37.75 14.796875 27.984375 
Q 14.796875 18.265625 18.828125 12.890625 
Q 22.859375 7.515625 30.078125 7.515625 
Q 37.359375 7.515625 41.375 12.890625 
Q 45.40625 18.265625 45.40625 27.984375 
z
M 54.390625 6.78125 
Q 54.390625 -7.171875 48.1875 -13.984375 
Q 42 -20.796875 29.203125 -20.796875 
Q 24.46875 -20.796875 20.265625 -20.09375 
Q 16.0625 -19.390625 12.109375 -17.921875 
L 12.109375 -9.1875 
Q 16.0625 -11.328125 19.921875 -12.34375 
Q 23.78125 -13.375 27.78125 -13.375 
Q 36.625 -13.375 41.015625 -8.765625 
Q 45.40625 -4.15625 45.40625 5.171875 
L 45.40625 9.625 
Q 42.625 4.78125 38.28125 2.390625 
Q 33.9375 0 27.875 0 
Q 17.828125 0 11.671875 7.65625 
Q 5.515625 15.328125 5.515625 27.984375 
Q 5.515625 40.671875 11.671875 48.328125 
Q 17.828125 56 27.875 56 
Q 33.9375 56 38.28125 53.609375 
Q 42.625 51.21875 45.40625 46.390625 
L 45.40625 54.6875 
L 54.390625 54.6875 
z
" id="DejaVuSans-103"/>
        <path d="M 37.109375 75.984375 
L 37.109375 68.5 
L 28.515625 68.5 
Q 23.6875 68.5 21.796875 66.546875 
Q 19.921875 64.59375 19.921875 59.515625 
L 19.921875 54.6875 
L 34.71875 54.6875 
L 34.71875 47.703125 
L 19.921875 47.703125 
L 19.921875 0 
L 10.890625 0 
L 10.890625 47.703125 
L 2.296875 47.703125 
L 2.296875 54.6875 
L 10.890625 54.6875 
L 10.890625 58.5 
Q 10.890625 67.625 15.140625 71.796875 
Q 19.390625 75.984375 28.609375 75.984375 
z
" id="DejaVuSans-102"/>
       </defs>
       <use xlink:href="#DejaVuSans-104"/>
       <use x="63.378906" xlink:href="#DejaVuSans-111"/>
       <use x="124.560547" xlink:href="#DejaVuSans-110"/>
       <use x="187.939453" xlink:href="#DejaVuSans-103"/>
       <use x="251.416016" xlink:href="#DejaVuSans-103"/>
       <use x="314.892578" xlink:href="#DejaVuSans-102"/>
       <use x="350.097656" xlink:href="#DejaVuSans-117"/>
       <use x="413.476562" xlink:href="#DejaVuSans-122"/>
       <use x="465.966797" xlink:href="#DejaVuSans-122"/>
      </g>
     </g>
    </g>
    <g id="xtick_4">
     <g id="line2d_4">
      <g>
       <use style="stroke:#000000;stroke-width:0.8;" x="365.808125" xlink:href="#m43fd95456d" y="288.430125"/>
      </g>
     </g>
     <g id="text_4">
      <!-- aflplusplus -->
      <g transform="translate(318.199118 328.897284)rotate(-30)scale(0.1 -0.1)">
       <defs>
        <path d="M 34.28125 27.484375 
Q 23.390625 27.484375 19.1875 25 
Q 14.984375 22.515625 14.984375 16.5 
Q 14.984375 11.71875 18.140625 8.90625 
Q 21.296875 6.109375 26.703125 6.109375 
Q 34.1875 6.109375 38.703125 11.40625 
Q 43.21875 16.703125 43.21875 25.484375 
L 43.21875 27.484375 
z
M 52.203125 31.203125 
L 52.203125 0 
L 43.21875 0 
L 43.21875 8.296875 
Q 40.140625 3.328125 35.546875 0.953125 
Q 30.953125 -1.421875 24.3125 -1.421875 
Q 15.921875 -1.421875 10.953125 3.296875 
Q 6 8.015625 6 15.921875 
Q 6 25.140625 12.171875 29.828125 
Q 18.359375 34.515625 30.609375 34.515625 
L 43.21875 34.515625 
L 43.21875 35.40625 
Q 43.21875 41.609375 39.140625 45 
Q 35.0625 48.390625 27.6875 48.390625 
Q 23 48.390625 18.546875 47.265625 
Q 14.109375 46.140625 10.015625 43.890625 
L 10.015625 52.203125 
Q 14.9375 54.109375 19.578125 55.046875 
Q 24.21875 56 28.609375 56 
Q 40.484375 56 46.34375 49.84375 
Q 52.203125 43.703125 52.203125 31.203125 
z
" id="DejaVuSans-97"/>
        <path d="M 9.421875 75.984375 
L 18.40625 75.984375 
L 18.40625 0 
L 9.421875 0 
z
" id="DejaVuSans-108"/>
        <path d="M 18.109375 8.203125 
L 18.109375 -20.796875 
L 9.078125 -20.796875 
L 9.078125 54.6875 
L 18.109375 54.6875 
L 18.109375 46.390625 
Q 20.953125 51.265625 25.265625 53.625 
Q 29.59375 56 35.59375 56 
Q 45.5625 56 51.78125 48.09375 
Q 58.015625 40.1875 58.015625 27.296875 
Q 58.015625 14.40625 51.78125 6.484375 
Q 45.5625 -1.421875 35.59375 -1.421875 
Q 29.59375 -1.421875 25.265625 0.953125 
Q 20.953125 3.328125 18.109375 8.203125 
z
M 48.6875 27.296875 
Q 48.6875 37.203125 44.609375 42.84375 
Q 40.53125 48.484375 33.40625 48.484375 
Q 26.265625 48.484375 22.1875 42.84375 
Q 18.109375 37.203125 18.109375 27.296875 
Q 18.109375 17.390625 22.1875 11.75 
Q 26.265625 6.109375 33.40625 6.109375 
Q 40.53125 6.109375 44.609375 11.75 
Q 48.6875 17.390625 48.6875 27.296875 
z
" id="DejaVuSans-112"/>
        <path d="M 44.28125 53.078125 
L 44.28125 44.578125 
Q 40.484375 46.53125 36.375 47.5 
Q 32.28125 48.484375 27.875 48.484375 
Q 21.1875 48.484375 17.84375 46.4375 
Q 14.5 44.390625 14.5 40.28125 
Q 14.5 37.15625 16.890625 35.375 
Q 19.28125 33.59375 26.515625 31.984375 
L 29.59375 31.296875 
Q 39.15625 29.25 43.1875 25.515625 
Q 47.21875 21.78125 47.21875 15.09375 
Q 47.21875 7.46875 41.1875 3.015625 
Q 35.15625 -1.421875 24.609375 -1.421875 
Q 20.21875 -1.421875 15.453125 -0.5625 
Q 10.6875 0.296875 5.421875 2 
L 5.421875 11.28125 
Q 10.40625 8.6875 15.234375 7.390625 
Q 20.0625 6.109375 24.8125 6.109375 
Q 31.15625 6.109375 34.5625 8.28125 
Q 37.984375 10.453125 37.984375 14.40625 
Q 37.984375 18.0625 35.515625 20.015625 
Q 33.0625 21.96875 24.703125 23.78125 
L 21.578125 24.515625 
Q 13.234375 26.265625 9.515625 29.90625 
Q 5.8125 33.546875 5.8125 39.890625 
Q 5.8125 47.609375 11.28125 51.796875 
Q 16.75 56 26.8125 56 
Q 31.78125 56 36.171875 55.265625 
Q 40.578125 54.546875 44.28125 53.078125 
z
" id="DejaVuSans-115"/>
       </defs>
       <use xlink:href="#DejaVuSans-97"/>
       <use x="61.279297" xlink:href="#DejaVuSans-102"/>
       <use x="96.484375" xlink:href="#DejaVuSans-108"/>
       <use x="124.267578" xlink:href="#DejaVuSans-112"/>
       <use x="187.744141" xlink:href="#DejaVuSans-108"/>
       <use x="215.527344" xlink:href="#DejaVuSans-117"/>
       <use x="278.90625" xlink:href="#DejaVuSans-115"/>
       <use x="331.005859" xlink:href="#DejaVuSans-112"/>
       <use x="394.482422" xlink:href="#DejaVuSans-108"/>
       <use x="422.265625" xlink:href="#DejaVuSans-117"/>
       <use x="485.644531" xlink:href="#DejaVuSans-115"/>
      </g>
     </g>
    </g>
    <g id="text_5">
     <!-- Fuzzer (highest median coverage on the left) -->
     <g transform="translate(119.270156 346.243897)scale(0.1 -0.1)">
      <defs>
       <path d="M 9.8125 72.90625 
L 51.703125 72.90625 
L 51.703125 64.59375 
L 19.671875 64.59375 
L 19.671875 43.109375 
L 48.578125 43.109375 
L 48.578125 34.8125 
L 19.671875 34.8125 
L 19.671875 0 
L 9.8125 0 
z
" id="DejaVuSans-70"/>
       <path id="DejaVuSans-32"/>
       <path d="M 31 75.875 
Q 24.46875 64.65625 21.28125 53.65625 
Q 18.109375 42.671875 18.109375 31.390625 
Q 18.109375 20.125 21.3125 9.0625 
Q 24.515625 -2 31 -13.1875 
L 23.1875 -13.1875 
Q 15.875 -1.703125 12.234375 9.375 
Q 8.59375 20.453125 8.59375 31.390625 
Q 8.59375 42.28125 12.203125 53.3125 
Q 15.828125 64.359375 23.1875 75.875 
z
" id="DejaVuSans-40"/>
       <path d="M 18.3125 70.21875 
L 18.3125 54.6875 
L 36.8125 54.6875 
L 36.8125 47.703125 
L 18.3125 47.703125 
L 18.3125 18.015625 
Q 18.3125 11.328125 20.140625 9.421875 
Q 21.96875 7.515625 27.59375 7.515625 
L 36.8125 7.515625 
L 36.8125 0 
L 27.59375 0 
Q 17.1875 0 13.234375 3.875 
Q 9.28125 7.765625 9.28125 18.015625 
L 9.28125 47.703125 
L 2.6875 47.703125 
L 2.6875 54.6875 
L 9.28125 54.6875 
L 9.28125 70.21875 
z
" id="DejaVuSans-116"/>
       <path d="M 45.40625 46.390625 
L 45.40625 75.984375 
L 54.390625 75.984375 
L 54.390625 0 
L 45.40625 0 
L 45.40625 8.203125 
Q 42.578125 3.328125 38.25 0.953125 
Q 33.9375 -1.421875 27.875 -1.421875 
Q 17.96875 -1.421875 11.734375 6.484375 
Q 5.515625 14.40625 5.515625 27.296875 
Q 5.515625 40.1875 11.734375 48.09375 
Q 17.96875 56 27.875 56 
Q 33.9375 56 38.25 53.625 
Q 42.578125 51.265625 45.40625 46.390625 
z
M 14.796875 27.296875 
Q 14.796875 17.390625 18.875 11.75 
Q 22.953125 6.109375 30.078125 6.109375 
Q 37.203125 6.109375 41.296875 11.75 
Q 45.40625 17.390625 45.40625 27.296875 
Q 45.40625 37.203125 41.296875 42.84375 
Q 37.203125 48.484375 30.078125 48.484375 
Q 22.953125 48.484375 18.875 42.84375 
Q 14.796875 37.203125 14.796875 27.296875 
z
" id="DejaVuSans-100"/>
       <path d="M 48.78125 52.59375 
L 48.78125 44.1875 
Q 44.96875 46.296875 41.140625 47.34375 
Q 37.3125 48.390625 33.40625 48.390625 
Q 24.65625 48.390625 19.8125 42.84375 
Q 14.984375 37.3125 14.984375 27.296875 
Q 14.984375 17.28125 19.8125 11.734375 
Q 24.65625 6.203125 33.40625 6.203125 
Q 37.3125 6.203125 41.140625 7.25 
Q 44.96875 8.296875 48.78125 10.40625 
L 48.78125 2.09375 
Q 45.015625 0.34375 40.984375 -0.53125 
Q 36.96875 -1.421875 32.421875 -1.421875 
Q 20.0625 -1.421875 12.78125 6.34375 
Q 5.515625 14.109375 5.515625 27.296875 
Q 5.515625 40.671875 12.859375 48.328125 
Q 20.21875 56 33.015625 56 
Q 37.15625 56 41.109375 55.140625 
Q 45.0625 54.296875 48.78125 52.59375 
z
" id="DejaVuSans-99"/>
       <path d="M 2.984375 54.6875 
L 12.5 54.6875 
L 29.59375 8.796875 
L 46.6875 54.6875 
L 56.203125 54.6875 
L 35.6875 0 
L 23.484375 0 
z
" id="DejaVuSans-118"/>
       <path d="M 8.015625 75.875 
L 15.828125 75.875 
Q 23.140625 64.359375 26.78125 53.3125 
Q 30.421875 42.28125 30.421875 31.390625 
Q 30.421875 20.453125 26.78125 9.375 
Q 23.140625 -1.703125 15.828125 -13.1875 
L 8.015625 -13.1875 
Q 14.5 -2 17.703125 9.0625 
Q 20.90625 20.125 20.90625 31.390625 
Q 20.90625 42.671875 17.703125 53.65625 
Q 14.5 64.65625 8.015625 75.875 
z
" id="DejaVuSans-41"/>
      </defs>
      <use xlink:href="#DejaVuSans-70"/>
      <use x="52.019531" xlink:href="#DejaVuSans-117"/>
      <use x="115.398438" xlink:href="#DejaVuSans-122"/>
      <use x="167.888672" xlink:href="#DejaVuSans-122"/>
      <use x="220.378906" xlink:href="#DejaVuSans-101"/>
      <use x="281.902344" xlink:href="#DejaVuSans-114"/>
      <use x="323.015625" xlink:href="#DejaVuSans-32"/>
      <use x="354.802734" xlink:href="#DejaVuSans-40"/>
      <use x="393.816406" xlink:href="#DejaVuSans-104"/>
      <use x="457.195312" xlink:href="#DejaVuSans-105"/>
      <use x="484.978516" xlink:href="#DejaVuSans-103"/>
      <use x="548.455078" xlink:href="#DejaVuSans-104"/>
      <use x="611.833984" xlink:href="#DejaVuSans-101"/>
      <use x="673.357422" xlink:href="#DejaVuSans-115"/>
      <use x="725.457031" xlink:href="#DejaVuSans-116"/>
      <use x="764.666016" xlink:href="#DejaVuSans-32"/>
      <use x="796.453125" xlink:href="#DejaVuSans-109"/>
      <use x="893.865234" xlink:href="#DejaVuSans-101"/>
      <use x="955.388672" xlink:href="#DejaVuSans-100"/>
      <use x="1018.865234" xlink:href="#DejaVuSans-105"/>
      <use x="1046.648438" xlink:href="#DejaVuSans-97"/>
      <use x="1107.927734" xlink:href="#DejaVuSans-110"/>
      <use x="1171.306641" xlink:href="#DejaVuSans-32"/>
      <use x="1203.09375" xlink:href="#DejaVuSans-99"/>
      <use x="1258.074219" xlink:href="#DejaVuSans-111"/>
      <use x="1319.255859" xlink:href="#DejaVuSans-118"/>
      <use x="1378.435547" xlink:href="#DejaVuSans-101"/>
      <use x="1439.958984" xlink:href="#DejaVuSans-114"/>
      <use x="1481.072266" xlink:href="#DejaVuSans-97"/>
      <use x="1542.351562" xlink:href="#DejaVuSans-103"/>
      <use x="1605.828125" xlink:href="#DejaVuSans-101"/>
      <use x="1667.351562" xlink:href="#DejaVuSans-32"/>
      <use x="1699.138672" xlink:href="#DejaVuSans-111"/>
      <use x="1760.320312" xlink:href="#DejaVuSans-110"/>
      <use x="1823.699219" xlink:href="#DejaVuSans-32"/>
      <use x="1855.486328" xlink:href="#DejaVuSans-116"/>
      <use x="1894.695312" xlink:href="#DejaVuSans-104"/>
      <use x="1958.074219" xlink:href="#DejaVuSans-101"/>
      <use x="2019.597656" xlink:href="#DejaVuSans-32"/>
      <use x="2051.384766" xlink:href="#DejaVuSans-108"/>
      <use x="2079.167969" xlink:href="#DejaVuSans-101"/>
      <use x="2140.691406" xlink:href="#DejaVuSans-102"/>
      <use x="2174.146484" xlink:href="#DejaVuSans-116"/>
      <use x="2213.355469" xlink:href="#DejaVuSans-41"/>
     </g>
    </g>
   </g>
   <g id="matplotlib.axis_2">
    <g id="ytick_1">
     <g id="line2d_5">
      <defs>
       <path d="M 0 0 
L -3.5 0 
" id="m73caa1d18e" style="stroke:#000000;stroke-width:0.8;"/>
      </defs>
      <g>
       <use style="stroke:#000000;stroke-width:0.8;" x="53.328125" xlink:href="#m73caa1d18e" y="283.218327"/>
      </g>
     </g>
     <g id="text_6">
      <!-- 1900 -->
      <g transform="translate(20.878125 287.017545)scale(0.1 -0.1)">
       <defs>
        <path d="M 12.40625 8.296875 
L 28.515625 8.296875 
L 28.515625 63.921875 
L 10.984375 60.40625 
L 10.984375 69.390625 
L 28.421875 72.90625 
L 38.28125 72.90625 
L 38.28125 8.296875 
L 54.390625 8.296875 
L 54.390625 0 
L 12.40625 0 
z
" id="DejaVuSans-49"/>
        <path d="M 10.984375 1.515625 
L 10.984375 10.5 
Q 14.703125 8.734375 18.5 7.8125 
Q 22.3125 6.890625 25.984375 6.890625 
Q 35.75 6.890625 40.890625 13.453125 
Q 46.046875 20.015625 46.78125 33.40625 
Q 43.953125 29.203125 39.59375 26.953125 
Q 35.25 24.703125 29.984375 24.703125 
Q 19.046875 24.703125 12.671875 31.3125 
Q 6.296875 37.9375 6.296875 49.421875 
Q 6.296875 60.640625 12.9375 67.421875 
Q 19.578125 74.21875 30.609375 74.21875 
Q 43.265625 74.21875 49.921875 64.515625 
Q 56.59375 54.828125 56.59375 36.375 
Q 56.59375 19.140625 48.40625 8.859375 
Q 40.234375 -1.421875 26.421875 -1.421875 
Q 22.703125 -1.421875 18.890625 -0.6875 
Q 15.09375 0.046875 10.984375 1.515625 
z
M 30.609375 32.421875 
Q 37.25 32.421875 41.125 36.953125 
Q 45.015625 41.5 45.015625 49.421875 
Q 45.015625 57.28125 41.125 61.84375 
Q 37.25 66.40625 30.609375 66.40625 
Q 23.96875 66.40625 20.09375 61.84375 
Q 16.21875 57.28125 16.21875 49.421875 
Q 16.21875 41.5 20.09375 36.953125 
Q 23.96875 32.421875 30.609375 32.421875 
z
" id="DejaVuSans-57"/>
        <path d="M 31.78125 66.40625 
Q 24.171875 66.40625 20.328125 58.90625 
Q 16.5 51.421875 16.5 36.375 
Q 16.5 21.390625 20.328125 13.890625 
Q 24.171875 6.390625 31.78125 6.390625 
Q 39.453125 6.390625 43.28125 13.890625 
Q 47.125 21.390625 47.125 36.375 
Q 47.125 51.421875 43.28125 58.90625 
Q 39.453125 66.40625 31.78125 66.40625 
z
M 31.78125 74.21875 
Q 44.046875 74.21875 50.515625 64.515625 
Q 56.984375 54.828125 56.984375 36.375 
Q 56.984375 17.96875 50.515625 8.265625 
Q 44.046875 -1.421875 31.78125 -1.421875 
Q 19.53125 -1.421875 13.0625 8.265625 
Q 6.59375 17.96875 6.59375 36.375 
Q 6.59375 54.828125 13.0625 64.515625 
Q 19.53125 74.21875 31.78125 74.21875 
z
" id="DejaVuSans-48"/>
       </defs>
       <use xlink:href="#DejaVuSans-49"/>
       <use x="63.623047" xlink:href="#DejaVuSans-57"/>
       <use x="127.246094" xlink:href="#DejaVuSans-48"/>
       <use x="190.869141" xlink:href="#DejaVuSans-48"/>
      </g>
     </g>
    </g>
    <g id="ytick_2">
     <g id="line2d_6">
      <g>
       <use style="stroke:#000000;stroke-width:0.8;" x="53.328125" xlink:href="#m73caa1d18e" y="249.962022"/>
      </g>
     </g>
     <g id="text_7">
      <!-- 1950 -->
      <g transform="translate(20.878125 253.761241)scale(0.1 -0.1)">
       <defs>
        <path d="M 10.796875 72.90625 
L 49.515625 72.90625 
L 49.515625 64.59375 
L 19.828125 64.59375 
L 19.828125 46.734375 
Q 21.96875 47.46875 24.109375 47.828125 
Q 26.265625 48.1875 28.421875 48.1875 
Q 40.625 48.1875 47.75 41.5 
Q 54.890625 34.8125 54.890625 23.390625 
Q 54.890625 11.625 47.5625 5.09375 
Q 40.234375 -1.421875 26.90625 -1.421875 
Q 22.3125 -1.421875 17.546875 -0.640625 
Q 12.796875 0.140625 7.71875 1.703125 
L 7.71875 11.625 
Q 12.109375 9.234375 16.796875 8.0625 
Q 21.484375 6.890625 26.703125 6.890625 
Q 35.15625 6.890625 40.078125 11.328125 
Q 45.015625 15.765625 45.015625 23.390625 
Q 45.015625 31 40.078125 35.4375 
Q 35.15625 39.890625 26.703125 39.890625 
Q 22.75 39.890625 18.8125 39.015625 
Q 14.890625 38.140625 10.796875 36.28125 
z
" id="DejaVuSans-53"/>
       </defs>
       <use xlink:href="#DejaVuSans-49"/>
       <use x="63.623047" xlink:href="#DejaVuSans-57"/>
       <use x="127.246094" xlink:href="#DejaVuSans-53"/>
       <use x="190.869141" xlink:href="#DejaVuSans-48"/>
      </g>
     </g>
    </g>
    <g id="ytick_3">
     <g id="line2d_7">
      <g>
       <use style="stroke:#000000;stroke-width:0.8;" x="53.328125" xlink:href="#m73caa1d18e" y="216.705718"/>
      </g>
     </g>
     <g id="text_8">
      <!-- 2000 -->
      <g transform="translate(20.878125 220.504937)scale(0.1 -0.1)">
       <defs>
        <path d="M 19.1875 8.296875 
L 53.609375 8.296875 
L 53.609375 0 
L 7.328125 0 
L 7.328125 8.296875 
Q 12.9375 14.109375 22.625 23.890625 
Q 32.328125 33.6875 34.8125 36.53125 
Q 39.546875 41.84375 41.421875 45.53125 
Q 43.3125 49.21875 43.3125 52.78125 
Q 43.3125 58.59375 39.234375 62.25 
Q 35.15625 65.921875 28.609375 65.921875 
Q 23.96875 65.921875 18.8125 64.3125 
Q 13.671875 62.703125 7.8125 59.421875 
L 7.8125 69.390625 
Q 13.765625 71.78125 18.9375 73 
Q 24.125 74.21875 28.421875 74.21875 
Q 39.75 74.21875 46.484375 68.546875 
Q 53.21875 62.890625 53.21875 53.421875 
Q 53.21875 48.921875 51.53125 44.890625 
Q 49.859375 40.875 45.40625 35.40625 
Q 44.1875 33.984375 37.640625 27.21875 
Q 31.109375 20.453125 19.1875 8.296875 
z
" id="DejaVuSans-50"/>
       </defs>
       <use xlink:href="#DejaVuSans-50"/>
       <use x="63.623047" xlink:href="#DejaVuSans-48"/>
       <use x="127.246094" xlink:href="#DejaVuSans-48"/>
       <use x="190.869141" xlink:href="#DejaVuSans-48"/>
      </g>
     </g>
    </g>
    <g id="ytick_4">
     <g id="line2d_8">
      <g>
       <use style="stroke:#000000;stroke-width:0.8;" x="53.328125" xlink:href="#m73caa1d18e" y="183.449414"/>
      </g>
     </g>
     <g id="text_9">
      <!-- 2050 -->
      <g transform="translate(20.878125 187.248633)scale(0.1 -0.1)">
       <use xlink:href="#DejaVuSans-50"/>
       <use x="63.623047" xlink:href="#DejaVuSans-48"/>
       <use x="127.246094" xlink:href="#DejaVuSans-53"/>
       <use x="190.869141" xlink:href="#DejaVuSans-48"/>
      </g>
     </g>
    </g>
    <g id="ytick_5">
     <g id="line2d_9">
      <g>
       <use style="stroke:#000000;stroke-width:0.8;" x="53.328125" xlink:href="#m73caa1d18e" y="150.19311"/>
      </g>
     </g>
     <g id="text_10">
      <!-- 2100 -->
      <g transform="translate(20.878125 153.992329)scale(0.1 -0.1)">
       <use xlink:href="#DejaVuSans-50"/>
       <use x="63.623047" xlink:href="#DejaVuSans-49"/>
       <use x="127.246094" xlink:href="#DejaVuSans-48"/>
       <use x="190.869141" xlink:href="#DejaVuSans-48"/>
      </g>
     </g>
    </g>
    <g id="ytick_6">
     <g id="line2d_10">
      <g>
       <use style="stroke:#000000;stroke-width:0.8;" x="53.328125" xlink:href="#m73caa1d18e" y="116.936806"/>
      </g>
     </g>
     <g id="text_11">
      <!-- 2150 -->
      <g transform="translate(20.878125 120.736025)scale(0.1 -0.1)">
       <use xlink:href="#DejaVuSans-50"/>
       <use x="63.623047" xlink:href="#DejaVuSans-49"/>
       <use x="127.246094" xlink:href="#DejaVuSans-53"/>
       <use x="190.869141" xlink:href="#DejaVuSans-48"/>
      </g>
     </g>
    </g>
    <g id="ytick_7">
     <g id="line2d_11">
      <g>
       <use style="stroke:#000000;stroke-width:0.8;" x="53.328125" xlink:href="#m73caa1d18e" y="83.680502"/>
      </g>
     </g>
     <g id="text_12">
      <!-- 2200 -->
      <g transform="translate(20.878125 87.47972)scale(0.1 -0.1)">
       <use xlink:href="#DejaVuSans-50"/>
       <use x="63.623047" xlink:href="#DejaVuSans-50"/>
       <use x="127.246094" xlink:href="#DejaVuSans-48"/>
       <use x="190.869141" xlink:href="#DejaVuSans-48"/>
      </g>
     </g>
    </g>
    <g id="ytick_8">
     <g id="line2d_12">
      <g>
       <use style="stroke:#000000;stroke-width:0.8;" x="53.328125" xlink:href="#m73caa1d18e" y="50.424198"/>
      </g>
     </g>
     <g id="text_13">
      <!-- 2250 -->
      <g transform="translate(20.878125 54.223416)scale(0.1 -0.1)">
       <use xlink:href="#DejaVuSans-50"/>
       <use x="63.623047" xlink:href="#DejaVuSans-50"/>
       <use x="127.246094" xlink:href="#DejaVuSans-53"/>
       <use x="190.869141" xlink:href="#DejaVuSans-48"/>
      </g>
     </g>
    </g>
    <g id="text_14">
     <!-- Reached region coverage -->
     <g transform="translate(14.798438 219.136625)rotate(-90)scale(0.1 -0.1)">
      <defs>
       <path d="M 44.390625 34.1875 
Q 47.5625 33.109375 50.5625 29.59375 
Q 53.5625 26.078125 56.59375 19.921875 
L 66.609375 0 
L 56 0 
L 46.6875 18.703125 
Q 43.0625 26.03125 39.671875 28.421875 
Q 36.28125 30.8125 30.421875 30.8125 
L 19.671875 30.8125 
L 19.671875 0 
L 9.8125 0 
L 9.8125 72.90625 
L 32.078125 72.90625 
Q 44.578125 72.90625 50.734375 67.671875 
Q 56.890625 62.453125 56.890625 51.90625 
Q 56.890625 45.015625 53.6875 40.46875 
Q 50.484375 35.9375 44.390625 34.1875 
z
M 19.671875 64.796875 
L 19.671875 38.921875 
L 32.078125 38.921875 
Q 39.203125 38.921875 42.84375 42.21875 
Q 46.484375 45.515625 46.484375 51.90625 
Q 46.484375 58.296875 42.84375 61.546875 
Q 39.203125 64.796875 32.078125 64.796875 
z
" id="DejaVuSans-82"/>
      </defs>
      <use xlink:href="#DejaVuSans-82"/>
      <use x="64.982422" xlink:href="#DejaVuSans-101"/>
      <use x="126.505859" xlink:href="#DejaVuSans-97"/>
      <use x="187.785156" xlink:href="#DejaVuSans-99"/>
      <use x="242.765625" xlink:href="#DejaVuSans-104"/>
      <use x="306.144531" xlink:href="#DejaVuSans-101"/>
      <use x="367.667969" xlink:href="#DejaVuSans-100"/>
      <use x="431.144531" xlink:href="#DejaVuSans-32"/>
      <use x="462.931641" xlink:href="#DejaVuSans-114"/>
      <use x="501.794922" xlink:href="#DejaVuSans-101"/>
      <use x="563.318359" xlink:href="#DejaVuSans-103"/>
      <use x="626.794922" xlink:href="#DejaVuSans-105"/>
      <use x="654.578125" xlink:href="#DejaVuSans-111"/>
      <use x="715.759766" xlink:href="#DejaVuSans-110"/>
      <use x="779.138672" xlink:href="#DejaVuSans-32"/>
      <use x="810.925781" xlink:href="#DejaVuSans-99"/>
      <use x="865.90625" xlink:href="#DejaVuSans-111"/>
      <use x="927.087891" xlink:href="#DejaVuSans-118"/>
      <use x="986.267578" xlink:href="#DejaVuSans-101"/>
      <use x="1047.791016" xlink:href="#DejaVuSans-114"/>
      <use x="1088.904297" xlink:href="#DejaVuSans-97"/>
      <use x="1150.183594" xlink:href="#DejaVuSans-103"/>
      <use x="1213.660156" xlink:href="#DejaVuSans-101"/>
     </g>
    </g>
   </g>
   <g id="line2d_13">
    <path clip-path="url(#p342c303bb4)" d="M 97.968125 194.091431 
L 97.968125 144.872101 
" style="fill:none;stroke:#3f3f3f;stroke-linecap:square;stroke-width:1.5;"/>
   </g>
   <g id="line2d_14">
    <path clip-path="url(#p342c303bb4)" d="M 97.968125 175.467901 
L 97.968125 144.872101 
" style="fill:none;stroke:#3f3f3f;stroke-linecap:square;stroke-width:4.5;"/>
   </g>
   <g id="line2d_15">
    <path clip-path="url(#p342c303bb4)" d="M 187.248125 190.765801 
L 187.248125 142.876723 
" style="fill:none;stroke:#3f3f3f;stroke-linecap:square;stroke-width:1.5;"/>
   </g>
   <g id="line2d_16">
    <path clip-path="url(#p342c303bb4)" d="M 187.248125 190.765801 
L 187.248125 168.81664 
" style="fill:none;stroke:#3f3f3f;stroke-linecap:square;stroke-width:4.5;"/>
   </g>
   <g id="line2d_17">
    <path clip-path="url(#p342c303bb4)" d="M 276.528125 224.687231 
L 276.528125 217.370844 
" style="fill:none;stroke:#3f3f3f;stroke-linecap:square;stroke-width:1.5;"/>
   </g>
   <g id="line2d_18">
    <path clip-path="url(#p342c303bb4)" d="M 276.528125 222.026727 
L 276.528125 218.03597 
" style="fill:none;stroke:#3f3f3f;stroke-linecap:square;stroke-width:4.5;"/>
   </g>
   <g id="line2d_19">
    <path clip-path="url(#p342c303bb4)" d="M 365.808125 253.952779 
L 365.808125 251.957401 
" style="fill:none;stroke:#3f3f3f;stroke-linecap:square;stroke-width:1.5;"/>
   </g>
   <g id="line2d_20">
    <path clip-path="url(#p342c303bb4)" d="M 365.808125 253.287653 
L 365.808125 252.622527 
" style="fill:none;stroke:#3f3f3f;stroke-linecap:square;stroke-width:4.5;"/>
   </g>
   <g id="patch_3">
    <path d="M 53.328125 283.218327 
L 53.328125 50.424198 
" style="fill:none;stroke:#000000;stroke-linecap:square;stroke-linejoin:miter;stroke-width:0.8;"/>
   </g>
   <g id="patch_4">
    <path d="M 97.968125 288.430125 
L 365.808125 288.430125 
" style="fill:none;stroke:#000000;stroke-linecap:square;stroke-linejoin:miter;stroke-width:0.8;"/>
   </g>
   <g id="PathCollection_1">
    <defs>
     <path d="M 0 1.5 
C 0.397805 1.5 0.77937 1.341951 1.06066 1.06066 
C 1.341951 0.77937 1.5 0.397805 1.5 0 
C 1.5 -0.397805 1.341951 -0.77937 1.06066 -1.06066 
C 0.77937 -1.341951 0.397805 -1.5 0 -1.5 
C -0.397805 -1.5 -0.77937 -1.341951 -1.06066 -1.06066 
C -1.341951 -0.77937 -1.5 -0.397805 -1.5 0 
C -1.5 0.397805 -1.341951 0.77937 -1.06066 1.06066 
C -0.77937 1.341951 -0.397805 1.5 0 1.5 
z
" id="m6a63b5ea99" style="stroke:#3f3f3f;"/>
    </defs>
    <g clip-path="url(#p342c303bb4)">
     <use style="fill:#ffffff;stroke:#3f3f3f;" x="97.968125" xlink:href="#m6a63b5ea99" y="152.853614"/>
    </g>
   </g>
   <g id="PathCollection_2">
    <g clip-path="url(#p342c303bb4)">
     <use style="fill:#ffffff;stroke:#3f3f3f;" x="187.248125" xlink:href="#m6a63b5ea99" y="185.444792"/>
    </g>
   </g>
   <g id="PathCollection_3">
    <g clip-path="url(#p342c303bb4)">
     <use style="fill:#ffffff;stroke:#3f3f3f;" x="276.528125" xlink:href="#m6a63b5ea99" y="219.366223"/>
    </g>
   </g>
   <g id="PathCollection_4">
    <g clip-path="url(#p342c303bb4)">
     <use style="fill:#ffffff;stroke:#3f3f3f;" x="365.808125" xlink:href="#m6a63b5ea99" y="253.287653"/>
    </g>
   </g>
   <g id="text_15">
    <!-- libpng-1.2.56 (8h, 5 trials/fuzzer) -->
    <g transform="translate(132.981875 16.318125)scale(0.12 -0.12)">
     <defs>
      <path d="M 48.6875 27.296875 
Q 48.6875 37.203125 44.609375 42.84375 
Q 40.53125 48.484375 33.40625 48.484375 
Q 26.265625 48.484375 22.1875 42.84375 
Q 18.109375 37.203125 18.109375 27.296875 
Q 18.109375 17.390625 22.1875 11.75 
Q 26.265625 6.109375 33.40625 6.109375 
Q 40.53125 6.109375 44.609375 11.75 
Q 48.6875 17.390625 48.6875 27.296875 
z
M 18.109375 46.390625 
Q 20.953125 51.265625 25.265625 53.625 
Q 29.59375 56 35.59375 56 
Q 45.5625 56 51.78125 48.09375 
Q 58.015625 40.1875 58.015625 27.296875 
Q 58.015625 14.40625 51.78125 6.484375 
Q 45.5625 -1.421875 35.59375 -1.421875 
Q 29.59375 -1.421875 25.265625 0.953125 
Q 20.953125 3.328125 18.109375 8.203125 
L 18.109375 0 
L 9.078125 0 
L 9.078125 75.984375 
L 18.109375 75.984375 
z
" id="DejaVuSans-98"/>
      <path d="M 4.890625 31.390625 
L 31.203125 31.390625 
L 31.203125 23.390625 
L 4.890625 23.390625 
z
" id="DejaVuSans-45"/>
      <path d="M 10.6875 12.40625 
L 21 12.40625 
L 21 0 
L 10.6875 0 
z
" id="DejaVuSans-46"/>
      <path d="M 33.015625 40.375 
Q 26.375 40.375 22.484375 35.828125 
Q 18.609375 31.296875 18.609375 23.390625 
Q 18.609375 15.53125 22.484375 10.953125 
Q 26.375 6.390625 33.015625 6.390625 
Q 39.65625 6.390625 43.53125 10.953125 
Q 47.40625 15.53125 47.40625 23.390625 
Q 47.40625 31.296875 43.53125 35.828125 
Q 39.65625 40.375 33.015625 40.375 
z
M 52.59375 71.296875 
L 52.59375 62.3125 
Q 48.875 64.0625 45.09375 64.984375 
Q 41.3125 65.921875 37.59375 65.921875 
Q 27.828125 65.921875 22.671875 59.328125 
Q 17.53125 52.734375 16.796875 39.40625 
Q 19.671875 43.65625 24.015625 45.921875 
Q 28.375 48.1875 33.59375 48.1875 
Q 44.578125 48.1875 50.953125 41.515625 
Q 57.328125 34.859375 57.328125 23.390625 
Q 57.328125 12.15625 50.6875 5.359375 
Q 44.046875 -1.421875 33.015625 -1.421875 
Q 20.359375 -1.421875 13.671875 8.265625 
Q 6.984375 17.96875 6.984375 36.375 
Q 6.984375 53.65625 15.1875 63.9375 
Q 23.390625 74.21875 37.203125 74.21875 
Q 40.921875 74.21875 44.703125 73.484375 
Q 48.484375 72.75 52.59375 71.296875 
z
" id="DejaVuSans-54"/>
      <path d="M 31.78125 34.625 
Q 24.75 34.625 20.71875 30.859375 
Q 16.703125 27.09375 16.703125 20.515625 
Q 16.703125 13.921875 20.71875 10.15625 
Q 24.75 6.390625 31.78125 6.390625 
Q 38.8125 6.390625 42.859375 10.171875 
Q 46.921875 13.96875 46.921875 20.515625 
Q 46.921875 27.09375 42.890625 30.859375 
Q 38.875 34.625 31.78125 34.625 
z
M 21.921875 38.8125 
Q 15.578125 40.375 12.03125 44.71875 
Q 8.5 49.078125 8.5 55.328125 
Q 8.5 64.0625 14.71875 69.140625 
Q 20.953125 74.21875 31.78125 74.21875 
Q 42.671875 74.21875 48.875 69.140625 
Q 55.078125 64.0625 55.078125 55.328125 
Q 55.078125 49.078125 51.53125 44.71875 
Q 48 40.375 41.703125 38.8125 
Q 48.828125 37.15625 52.796875 32.3125 
Q 56.78125 27.484375 56.78125 20.515625 
Q 56.78125 9.90625 50.3125 4.234375 
Q 43.84375 -1.421875 31.78125 -1.421875 
Q 19.734375 -1.421875 13.25 4.234375 
Q 6.78125 9.90625 6.78125 20.515625 
Q 6.78125 27.484375 10.78125 32.3125 
Q 14.796875 37.15625 21.921875 38.8125 
z
M 18.3125 54.390625 
Q 18.3125 48.734375 21.84375 45.5625 
Q 25.390625 42.390625 31.78125 42.390625 
Q 38.140625 42.390625 41.71875 45.5625 
Q 45.3125 48.734375 45.3125 54.390625 
Q 45.3125 60.0625 41.71875 63.234375 
Q 38.140625 66.40625 31.78125 66.40625 
Q 25.390625 66.40625 21.84375 63.234375 
Q 18.3125 60.0625 18.3125 54.390625 
z
" id="DejaVuSans-56"/>
      <path d="M 11.71875 12.40625 
L 22.015625 12.40625 
L 22.015625 4 
L 14.015625 -11.625 
L 7.71875 -11.625 
L 11.71875 4 
z
" id="DejaVuSans-44"/>
      <path d="M 25.390625 72.90625 
L 33.6875 72.90625 
L 8.296875 -9.28125 
L 0 -9.28125 
z
" id="DejaVuSans-47"/>
     </defs>
     <use xlink:href="#DejaVuSans-108"/>
     <use x="27.783203" xlink:href="#DejaVuSans-105"/>
     <use x="55.566406" xlink:href="#DejaVuSans-98"/>
     <use x="119.042969" xlink:href="#DejaVuSans-112"/>
     <use x="182.519531" xlink:href="#DejaVuSans-110"/>
     <use x="245.898438" xlink:href="#DejaVuSans-103"/>
     <use x="309.375" xlink:href="#DejaVuSans-45"/>
     <use x="345.458984" xlink:href="#DejaVuSans-49"/>
     <use x="409.082031" xlink:href="#DejaVuSans-46"/>
     <use x="440.869141" xlink:href="#DejaVuSans-50"/>
     <use x="504.492188" xlink:href="#DejaVuSans-46"/>
     <use x="536.279297" xlink:href="#DejaVuSans-53"/>
     <use x="599.902344" xlink:href="#DejaVuSans-54"/>
     <use x="663.525391" xlink:href="#DejaVuSans-32"/>
     <use x="695.3125" xlink:href="#DejaVuSans-40"/>
     <use x="734.326172" xlink:href="#DejaVuSans-56"/>
     <use x="797.949219" xlink:href="#DejaVuSans-104"/>
     <use x="861.328125" xlink:href="#DejaVuSans-44"/>
     <use x="893.115234" xlink:href="#DejaVuSans-32"/>
     <use x="924.902344" xlink:href="#DejaVuSans-53"/>
     <use x="988.525391" xlink:href="#DejaVuSans-32"/>
     <use x="1020.3125" xlink:href="#DejaVuSans-116"/>
     <use x="1059.521484" xlink:href="#DejaVuSans-114"/>
     <use x="1100.634766" xlink:href="#DejaVuSans-105"/>
     <use x="1128.417969" xlink:href="#DejaVuSans-97"/>
     <use x="1189.697266" xlink:href="#DejaVuSans-108"/>
     <use x="1217.480469" xlink:href="#DejaVuSans-115"/>
     <use x="1269.580078" xlink:href="#DejaVuSans-47"/>
     <use x="1303.271484" xlink:href="#DejaVuSans-102"/>
     <use x="1338.476562" xlink:href="#DejaVuSans-117"/>
     <use x="1401.855469" xlink:href="#DejaVuSans-122"/>
     <use x="1454.345703" xlink:href="#DejaVuSans-122"/>
     <use x="1506.835938" xlink:href="#DejaVuSans-101"/>
     <use x="1568.359375" xlink:href="#DejaVuSans-114"/>
     <use x="1609.472656" xlink:href="#DejaVuSans-41"/>
    </g>
   </g>
  </g>
 </g>
 <defs>
  <clipPath id="p342c303bb4">
   <rect height="266.112" width="357.12" x="53.328125" y="22.318125"/>
  </clipPath>
 </defs>
</svg>
