<?xml version="1.0" encoding="utf-8" standalone="no"?>
<!DOCTYPE svg PUBLIC "-//W3C//DTD SVG 1.1//EN"
  "http://www.w3.org/Graphics/SVG/1.1/DTD/svg11.dtd">
<!-- Created with matplotlib (https://matplotlib.org/) -->
<svg height="355.523584pt" version="1.1" viewBox="0 0 417.648125 355.523584" width="417.648125pt" xmlns="http://www.w3.org/2000/svg" xmlns:xlink="http://www.w3.org/1999/xlink">
 <metadata>
  <rdf:RDF xmlns:cc="http://creativecommons.org/ns#" xmlns:dc="http://purl.org/dc/elements/1.1/" xmlns:rdf="http://www.w3.org/1999/02/22-rdf-syntax-ns#">
   <cc:Work>
    <dc:type rdf:resource="http://purl.org/dc/dcmitype/StillImage"/>
    <dc:date>2020-10-24T17:27:44.840293</dc:date>
    <dc:format>image/svg+xml</dc:format>
    <dc:creator>
     <cc:Agent>
      <dc:title>Matplotlib v3.3.2, https://matplotlib.org/</dc:title>
     </cc:Agent>
    </dc:creator>
   </cc:Work>
  </rdf:RDF>
 </metadata>
 <defs>
  <style type="text/css">*{stroke-linecap:butt;stroke-linejoin:round;}</style>
 </defs>
 <g id="figure_1">
  <g id="patch_1">
   <path d="M 0 355.523584 
L 417.648125 355.523584 
L 417.648125 0 
L 0 0 
z
" style="fill:#ffffff;"/>
  </g>
  <g id="axes_1">
   <g id="patch_2">
    <path d="M 53.328125 288.430125 
L 410.448125 288.430125 
L 410.448125 22.318125 
L 53.328125 22.318125 
z
" style="fill:#ffffff;"/>
   </g>
   <g id="PolyCollection_1">
    <defs>
     <path d="M 97.991015 -116.188985 
L 97.945235 -116.188985 
L 97.941939 -118.258889 
L 97.938287 -120.328793 
L 97.934257 -122.398696 
L 97.929833 -124.4686 
L 97.924999 -126.538504 
L 97.91974 -128.608408 
L 97.914049 -130.678311 
L 97.907919 -132.748215 
L 97.901348 -134.818119 
L 97.894338 -136.888023 
L 97.886898 -138.957927 
L 97.879041 -141.02783 
L 97.870785 -143.097734 
L 97.862155 -145.167638 
L 97.85318 -147.237542 
L 97.843896 -149.307446 
L 97.834344 -151.377349 
L 97.824572 -153.447253 
L 97.814629 -155.517157 
L 97.804571 -157.587061 
L 97.794457 -159.656964 
L 97.784351 -161.726868 
L 97.774315 -163.796772 
L 97.764415 -165.866676 
L 97.754718 -167.93658 
L 97.745289 -170.006483 
L 97.736191 -172.076387 
L 97.727485 -174.146291 
L 97.719228 -176.216195 
L 97.711474 -178.286098 
L 97.70427 -180.356002 
L 97.697657 -182.425906 
L 97.69167 -184.49581 
L 97.686335 -186.565714 
L 97.681673 -188.635617 
L 97.677695 -190.705521 
L 97.674404 -192.775425 
L 97.671797 -194.845329 
L 97.66986 -196.915232 
L 97.668575 -198.985136 
L 97.667917 -201.05504 
L 97.667853 -203.124944 
L 97.668347 -205.194848 
L 97.669359 -207.264751 
L 97.670844 -209.334655 
L 97.672758 -211.404559 
L 97.675053 -213.474463 
L 97.677684 -215.544366 
L 97.680607 -217.61427 
L 97.683778 -219.684174 
L 97.68716 -221.754078 
L 97.690717 -223.823982 
L 97.69442 -225.893885 
L 97.698243 -227.963789 
L 97.702168 -230.033693 
L 97.70618 -232.103597 
L 97.710273 -234.1735 
L 97.714443 -236.243404 
L 97.718693 -238.313308 
L 97.72303 -240.383212 
L 97.727465 -242.453116 
L 97.732011 -244.523019 
L 97.736684 -246.592923 
L 97.7415 -248.662827 
L 97.746477 -250.732731 
L 97.751629 -252.802634 
L 97.756972 -254.872538 
L 97.762517 -256.942442 
L 97.768271 -259.012346 
L 97.77424 -261.08225 
L 97.780422 -263.152153 
L 97.786815 -265.222057 
L 97.793407 -267.291961 
L 97.800184 -269.361865 
L 97.807129 -271.431768 
L 97.814216 -273.501672 
L 97.821419 -275.571576 
L 97.828708 -277.64148 
L 97.836049 -279.711384 
L 97.843407 -281.781287 
L 97.850746 -283.851191 
L 97.858029 -285.921095 
L 97.865219 -287.990999 
L 97.872281 -290.060902 
L 97.879181 -292.130806 
L 97.885888 -294.20071 
L 97.892373 -296.270614 
L 97.89861 -298.340518 
L 97.904577 -300.410421 
L 97.910256 -302.480325 
L 97.915634 -304.550229 
L 97.920699 -306.620133 
L 97.925446 -308.690037 
L 97.929871 -310.75994 
L 97.933974 -312.829844 
L 97.937761 -314.899748 
L 97.941238 -316.969652 
L 97.944413 -319.039555 
L 97.9473 -321.109459 
L 97.98895 -321.109459 
L 97.98895 -321.109459 
L 97.991837 -319.039555 
L 97.995012 -316.969652 
L 97.998489 -314.899748 
L 98.002276 -312.829844 
L 98.006379 -310.75994 
L 98.010804 -308.690037 
L 98.015551 -306.620133 
L 98.020616 -304.550229 
L 98.025994 -302.480325 
L 98.031673 -300.410421 
L 98.03764 -298.340518 
L 98.043877 -296.270614 
L 98.050362 -294.20071 
L 98.057069 -292.130806 
L 98.063969 -290.060902 
L 98.071031 -287.990999 
L 98.078221 -285.921095 
L 98.085504 -283.851191 
L 98.092843 -281.781287 
L 98.100201 -279.711384 
L 98.107542 -277.64148 
L 98.114831 -275.571576 
L 98.122034 -273.501672 
L 98.129121 -271.431768 
L 98.136066 -269.361865 
L 98.142843 -267.291961 
L 98.149435 -265.222057 
L 98.155828 -263.152153 
L 98.16201 -261.08225 
L 98.167979 -259.012346 
L 98.173733 -256.942442 
L 98.179278 -254.872538 
L 98.184621 -252.802634 
L 98.189773 -250.732731 
L 98.19475 -248.662827 
L 98.199566 -246.592923 
L 98.204239 -244.523019 
L 98.208785 -242.453116 
L 98.21322 -240.383212 
L 98.217557 -238.313308 
L 98.221807 -236.243404 
L 98.225977 -234.1735 
L 98.23007 -232.103597 
L 98.234082 -230.033693 
L 98.238007 -227.963789 
L 98.24183 -225.893885 
L 98.245533 -223.823982 
L 98.24909 -221.754078 
L 98.252472 -219.684174 
L 98.255643 -217.61427 
L 98.258566 -215.544366 
L 98.261197 -213.474463 
L 98.263492 -211.404559 
L 98.265406 -209.334655 
L 98.266891 -207.264751 
L 98.267903 -205.194848 
L 98.268397 -203.124944 
L 98.268333 -201.05504 
L 98.267675 -198.985136 
L 98.26639 -196.915232 
L 98.264453 -194.845329 
L 98.261846 -192.775425 
L 98.258555 -190.705521 
L 98.254577 -188.635617 
L 98.249915 -186.565714 
L 98.24458 -184.49581 
L 98.238593 -182.425906 
L 98.23198 -180.356002 
L 98.224776 -178.286098 
L 98.217022 -176.216195 
L 98.208765 -174.146291 
L 98.200059 -172.076387 
L 98.190961 -170.006483 
L 98.181532 -167.93658 
L 98.171835 -165.866676 
L 98.161935 -163.796772 
L 98.151899 -161.726868 
L 98.141793 -159.656964 
L 98.131679 -157.587061 
L 98.121621 -155.517157 
L 98.111678 -153.447253 
L 98.101906 -151.377349 
L 98.092354 -149.307446 
L 98.08307 -147.237542 
L 98.074095 -145.167638 
L 98.065465 -143.097734 
L 98.057209 -141.02783 
L 98.049352 -138.957927 
L 98.041912 -136.888023 
L 98.034902 -134.818119 
L 98.028331 -132.748215 
L 98.022201 -130.678311 
L 98.01651 -128.608408 
L 98.011251 -126.538504 
L 98.006417 -124.4686 
L 98.001993 -122.398696 
L 97.997963 -120.328793 
L 97.994311 -118.258889 
L 97.991015 -116.188985 
z
" id="mb3ee3fb4ae" style="stroke:#3f3f3f;stroke-width:1.5;"/>
    </defs>
    <g clip-path="url(#p8dcafde52e)">
     <use style="fill:#c03d3e;stroke:#3f3f3f;stroke-width:1.5;" x="0" xlink:href="#mb3ee3fb4ae" y="355.523584"/>
    </g>
   </g>
   <g id="PolyCollection_2">
    <defs>
     <path d="M 187.269052 -79.189459 
L 187.227198 -79.189459 
L 187.224033 -80.870887 
L 187.220522 -82.552314 
L 187.21665 -84.233742 
L 187.212403 -85.91517 
L 187.207773 -87.596597 
L 187.202755 -89.278025 
L 187.197348 -90.959452 
L 187.191557 -92.64088 
L 187.185391 -94.322307 
L 187.178865 -96.003735 
L 187.171999 -97.685163 
L 187.164818 -99.36659 
L 187.157351 -101.048018 
L 187.149635 -102.729445 
L 187.141706 -104.410873 
L 187.133606 -106.0923 
L 187.12538 -107.773728 
L 187.117073 -109.455156 
L 187.108729 -111.136583 
L 187.100394 -112.818011 
L 187.092109 -114.499438 
L 187.083915 -116.180866 
L 187.075847 -117.862294 
L 187.067934 -119.543721 
L 187.060202 -121.225149 
L 187.052668 -122.906576 
L 187.045345 -124.588004 
L 187.038235 -126.269431 
L 187.031338 -127.950859 
L 187.024643 -129.632287 
L 187.018136 -131.313714 
L 187.011796 -132.995142 
L 187.005597 -134.676569 
L 186.999513 -136.357997 
L 186.993511 -138.039425 
L 186.987562 -139.720852 
L 186.981633 -141.40228 
L 186.975695 -143.083707 
L 186.969724 -144.765135 
L 186.963697 -146.446562 
L 186.957598 -148.12799 
L 186.951417 -149.809418 
L 186.945152 -151.490845 
L 186.938809 -153.172273 
L 186.9324 -154.8537 
L 186.925949 -156.535128 
L 186.919487 -158.216556 
L 186.913053 -159.897983 
L 186.906695 -161.579411 
L 186.900467 -163.260838 
L 186.894433 -164.942266 
L 186.888659 -166.623693 
L 186.883218 -168.305121 
L 186.878186 -169.986549 
L 186.873642 -171.667976 
L 186.869665 -173.349404 
L 186.866334 -175.030831 
L 186.863725 -176.712259 
L 186.861911 -178.393686 
L 186.860959 -180.075114 
L 186.860928 -181.756542 
L 186.861872 -183.437969 
L 186.863832 -185.119397 
L 186.86684 -186.800824 
L 186.870915 -188.482252 
L 186.876064 -190.16368 
L 186.882281 -191.845107 
L 186.889547 -193.526535 
L 186.897827 -195.207962 
L 186.907077 -196.88939 
L 186.917236 -198.570817 
L 186.928236 -200.252245 
L 186.939993 -201.933673 
L 186.95242 -203.6151 
L 186.965417 -205.296528 
L 186.978882 -206.977955 
L 186.992707 -208.659383 
L 187.006781 -210.340811 
L 187.020996 -212.022238 
L 187.035244 -213.703666 
L 187.049419 -215.385093 
L 187.063422 -217.066521 
L 187.07716 -218.747948 
L 187.090548 -220.429376 
L 187.103509 -222.110804 
L 187.115977 -223.792231 
L 187.127895 -225.473659 
L 187.139218 -227.155086 
L 187.14991 -228.836514 
L 187.159945 -230.517942 
L 187.169308 -232.199369 
L 187.177992 -233.880797 
L 187.186002 -235.562224 
L 187.193346 -237.243652 
L 187.200041 -238.925079 
L 187.206112 -240.606507 
L 187.211584 -242.287935 
L 187.21649 -243.969362 
L 187.220863 -245.65079 
L 187.275387 -245.65079 
L 187.275387 -245.65079 
L 187.27976 -243.969362 
L 187.284666 -242.287935 
L 187.290138 -240.606507 
L 187.296209 -238.925079 
L 187.302904 -237.243652 
L 187.310248 -235.562224 
L 187.318258 -233.880797 
L 187.326942 -232.199369 
L 187.336305 -230.517942 
L 187.34634 -228.836514 
L 187.357032 -227.155086 
L 187.368355 -225.473659 
L 187.380273 -223.792231 
L 187.392741 -222.110804 
L 187.405702 -220.429376 
L 187.41909 -218.747948 
L 187.432828 -217.066521 
L 187.446831 -215.385093 
L 187.461006 -213.703666 
L 187.475254 -212.022238 
L 187.489469 -210.340811 
L 187.503543 -208.659383 
L 187.517368 -206.977955 
L 187.530833 -205.296528 
L 187.54383 -203.6151 
L 187.556257 -201.933673 
L 187.568014 -200.252245 
L 187.579014 -198.570817 
L 187.589173 -196.88939 
L 187.598423 -195.207962 
L 187.606703 -193.526535 
L 187.613969 -191.845107 
L 187.620186 -190.16368 
L 187.625335 -188.482252 
L 187.62941 -186.800824 
L 187.632418 -185.119397 
L 187.634378 -183.437969 
L 187.635322 -181.756542 
L 187.635291 -180.075114 
L 187.634339 -178.393686 
L 187.632525 -176.712259 
L 187.629916 -175.030831 
L 187.626585 -173.349404 
L 187.622608 -171.667976 
L 187.618064 -169.986549 
L 187.613032 -168.305121 
L 187.607591 -166.623693 
L 187.601817 -164.942266 
L 187.595783 -163.260838 
L 187.589555 -161.579411 
L 187.583197 -159.897983 
L 187.576763 -158.216556 
L 187.570301 -156.535128 
L 187.56385 -154.8537 
L 187.557441 -153.172273 
L 187.551098 -151.490845 
L 187.544833 -149.809418 
L 187.538652 -148.12799 
L 187.532553 -146.446562 
L 187.526526 -144.765135 
L 187.520555 -143.083707 
L 187.514617 -141.40228 
L 187.508688 -139.720852 
L 187.502739 -138.039425 
L 187.496737 -136.357997 
L 187.490653 -134.676569 
L 187.484454 -132.995142 
L 187.478114 -131.313714 
L 187.471607 -129.632287 
L 187.464912 -127.950859 
L 187.458015 -126.269431 
L 187.450905 -124.588004 
L 187.443582 -122.906576 
L 187.436048 -121.225149 
L 187.428316 -119.543721 
L 187.420403 -117.862294 
L 187.412335 -116.180866 
L 187.404141 -114.499438 
L 187.395856 -112.818011 
L 187.387521 -111.136583 
L 187.379177 -109.455156 
L 187.37087 -107.773728 
L 187.362644 -106.0923 
L 187.354544 -104.410873 
L 187.346615 -102.729445 
L 187.338899 -101.048018 
L 187.331432 -99.36659 
L 187.324251 -97.685163 
L 187.317385 -96.003735 
L 187.310859 -94.322307 
L 187.304693 -92.64088 
L 187.298902 -90.959452 
L 187.293495 -89.278025 
L 187.288477 -87.596597 
L 187.283847 -85.91517 
L 187.2796 -84.233742 
L 187.275728 -82.552314 
L 187.272217 -80.870887 
L 187.269052 -79.189459 
z
" id="m0d9ac7f09f" style="stroke:#3f3f3f;stroke-width:1.5;"/>
    </defs>
    <g clip-path="url(#p8dcafde52e)">
     <use style="fill:#c7c7c7;stroke:#3f3f3f;stroke-width:1.5;" x="0" xlink:href="#m0d9ac7f09f" y="355.523584"/>
    </g>
   </g>
   <g id="PolyCollection_3">
    <defs>
     <path d="M 368.103611 -107.157721 
L 363.512639 -107.157721 
L 363.212621 -107.175436 
L 362.884566 -107.193151 
L 362.527562 -107.210865 
L 362.140921 -107.22858 
L 361.724214 -107.246295 
L 361.277305 -107.26401 
L 360.800378 -107.281725 
L 360.293966 -107.299439 
L 359.758967 -107.317154 
L 359.196663 -107.334869 
L 358.608721 -107.352584 
L 357.997194 -107.370299 
L 357.36451 -107.388014 
L 356.713447 -107.405728 
L 356.047104 -107.423443 
L 355.368857 -107.441158 
L 354.682308 -107.458873 
L 353.991223 -107.476588 
L 353.29946 -107.494302 
L 352.610892 -107.512017 
L 351.929324 -107.529732 
L 351.258404 -107.547447 
L 350.601536 -107.565162 
L 349.961791 -107.582876 
L 349.341824 -107.600591 
L 348.743794 -107.618306 
L 348.169298 -107.636021 
L 347.61931 -107.653736 
L 347.094141 -107.67145 
L 346.593413 -107.689165 
L 346.116047 -107.70688 
L 345.660274 -107.724595 
L 345.223672 -107.74231 
L 344.80321 -107.760024 
L 344.395328 -107.777739 
L 343.99602 -107.795454 
L 343.600951 -107.813169 
L 343.205579 -107.830884 
L 342.805291 -107.848598 
L 342.39555 -107.866313 
L 341.972048 -107.884028 
L 341.53086 -107.901743 
L 341.068589 -107.919458 
L 340.582517 -107.937172 
L 340.070728 -107.954887 
L 339.532223 -107.972602 
L 338.967021 -107.990317 
L 338.37622 -108.008032 
L 337.762048 -108.025746 
L 337.127877 -108.043461 
L 336.478207 -108.061176 
L 335.818622 -108.078891 
L 335.155719 -108.096606 
L 334.496997 -108.11432 
L 333.850734 -108.132035 
L 333.225828 -108.14975 
L 332.631624 -108.167465 
L 332.077728 -108.18518 
L 331.573798 -108.202894 
L 331.129345 -108.220609 
L 330.753522 -108.238324 
L 330.454924 -108.256039 
L 330.241394 -108.273754 
L 330.119849 -108.291468 
L 330.096125 -108.309183 
L 330.174842 -108.326898 
L 330.3593 -108.344613 
L 330.651407 -108.362328 
L 331.05163 -108.380042 
L 331.55899 -108.397757 
L 332.171074 -108.415472 
L 332.884095 -108.433187 
L 333.692965 -108.450902 
L 334.591401 -108.468616 
L 335.572058 -108.486331 
L 336.626675 -108.504046 
L 337.746232 -108.521761 
L 338.921131 -108.539476 
L 340.141366 -108.55719 
L 341.396708 -108.574905 
L 342.676876 -108.59262 
L 343.97171 -108.610335 
L 345.271324 -108.62805 
L 346.566253 -108.645764 
L 347.84758 -108.663479 
L 349.107039 -108.681194 
L 350.337112 -108.698909 
L 351.53109 -108.716624 
L 352.683124 -108.734338 
L 353.78825 -108.752053 
L 354.842398 -108.769768 
L 355.842383 -108.787483 
L 356.785877 -108.805198 
L 357.671373 -108.822912 
L 358.498128 -108.840627 
L 359.266105 -108.858342 
L 359.975903 -108.876057 
L 360.628686 -108.893772 
L 361.226103 -108.911486 
L 370.390147 -108.911486 
L 370.390147 -108.911486 
L 370.987564 -108.893772 
L 371.640347 -108.876057 
L 372.350145 -108.858342 
L 373.118122 -108.840627 
L 373.944877 -108.822912 
L 374.830373 -108.805198 
L 375.773867 -108.787483 
L 376.773852 -108.769768 
L 377.828 -108.752053 
L 378.933126 -108.734338 
L 380.08516 -108.716624 
L 381.279138 -108.698909 
L 382.509211 -108.681194 
L 383.76867 -108.663479 
L 385.049997 -108.645764 
L 386.344926 -108.62805 
L 387.64454 -108.610335 
L 388.939374 -108.59262 
L 390.219542 -108.574905 
L 391.474884 -108.55719 
L 392.695119 -108.539476 
L 393.870018 -108.521761 
L 394.989575 -108.504046 
L 396.044192 -108.486331 
L 397.024849 -108.468616 
L 397.923285 -108.450902 
L 398.732155 -108.433187 
L 399.445176 -108.415472 
L 400.05726 -108.397757 
L 400.56462 -108.380042 
L 400.964843 -108.362328 
L 401.25695 -108.344613 
L 401.441408 -108.326898 
L 401.520125 -108.309183 
L 401.496401 -108.291468 
L 401.374856 -108.273754 
L 401.161326 -108.256039 
L 400.862728 -108.238324 
L 400.486905 -108.220609 
L 400.042452 -108.202894 
L 399.538522 -108.18518 
L 398.984626 -108.167465 
L 398.390422 -108.14975 
L 397.765516 -108.132035 
L 397.119253 -108.11432 
L 396.460531 -108.096606 
L 395.797628 -108.078891 
L 395.138043 -108.061176 
L 394.488373 -108.043461 
L 393.854202 -108.025746 
L 393.24003 -108.008032 
L 392.649229 -107.990317 
L 392.084027 -107.972602 
L 391.545522 -107.954887 
L 391.033733 -107.937172 
L 390.547661 -107.919458 
L 390.08539 -107.901743 
L 389.644202 -107.884028 
L 389.2207 -107.866313 
L 388.810959 -107.848598 
L 388.410671 -107.830884 
L 388.015299 -107.813169 
L 387.62023 -107.795454 
L 387.220922 -107.777739 
L 386.81304 -107.760024 
L 386.392578 -107.74231 
L 385.955976 -107.724595 
L 385.500203 -107.70688 
L 385.022837 -107.689165 
L 384.522109 -107.67145 
L 383.99694 -107.653736 
L 383.446952 -107.636021 
L 382.872456 -107.618306 
L 382.274426 -107.600591 
L 381.654459 -107.582876 
L 381.014714 -107.565162 
L 380.357846 -107.547447 
L 379.686926 -107.529732 
L 379.005358 -107.512017 
L 378.31679 -107.494302 
L 377.625027 -107.476588 
L 376.933942 -107.458873 
L 376.247393 -107.441158 
L 375.569146 -107.423443 
L 374.902803 -107.405728 
L 374.25174 -107.388014 
L 373.619056 -107.370299 
L 373.007529 -107.352584 
L 372.419587 -107.334869 
L 371.857283 -107.317154 
L 371.322284 -107.299439 
L 370.815872 -107.281725 
L 370.338945 -107.26401 
L 369.892036 -107.246295 
L 369.475329 -107.22858 
L 369.088688 -107.210865 
L 368.731684 -107.193151 
L 368.403629 -107.175436 
L 368.103611 -107.157721 
z
" id="maebabecd40" style="stroke:#3f3f3f;stroke-width:1.5;"/>
    </defs>
    <g clip-path="url(#p8dcafde52e)">
     <use style="fill:#3274a1;stroke:#3f3f3f;stroke-width:1.5;" x="0" xlink:href="#maebabecd40" y="355.523584"/>
    </g>
   </g>
   <g id="matplotlib.axis_1">
    <g id="xtick_1">
     <g id="line2d_1">
      <defs>
       <path d="M 0 0 
L 0 3.5 
" id="me87ee06c5d" style="stroke:#000000;stroke-width:0.8;"/>
      </defs>
      <g>
       <use style="stroke:#000000;stroke-width:0.8;" x="97.968125" xlink:href="#me87ee06c5d" y="288.430125"/>
      </g>
     </g>
     <g id="text_1">
      <!-- kirenenko -->
      <g transform="translate(54.507921 326.501971)rotate(-30)scale(0.1 -0.1)">
       <defs>
        <path d="M 9.078125 75.984375 
L 18.109375 75.984375 
L 18.109375 31.109375 
L 44.921875 54.6875 
L 56.390625 54.6875 
L 27.390625 29.109375 
L 57.625 0 
L 45.90625 0 
L 18.109375 26.703125 
L 18.109375 0 
L 9.078125 0 
z
" id="DejaVuSans-107"/>
        <path d="M 9.421875 54.6875 
L 18.40625 54.6875 
L 18.40625 0 
L 9.421875 0 
z
M 9.421875 75.984375 
L 18.40625 75.984375 
L 18.40625 64.59375 
L 9.421875 64.59375 
z
" id="DejaVuSans-105"/>
        <path d="M 41.109375 46.296875 
Q 39.59375 47.171875 37.8125 47.578125 
Q 36.03125 48 33.890625 48 
Q 26.265625 48 22.1875 43.046875 
Q 18.109375 38.09375 18.109375 28.8125 
L 18.109375 0 
L 9.078125 0 
L 9.078125 54.6875 
L 18.109375 54.6875 
L 18.109375 46.1875 
Q 20.953125 51.171875 25.484375 53.578125 
Q 30.03125 56 36.53125 56 
Q 37.453125 56 38.578125 55.875 
Q 39.703125 55.765625 41.0625 55.515625 
z
" id="DejaVuSans-114"/>
        <path d="M 56.203125 29.59375 
L 56.203125 25.203125 
L 14.890625 25.203125 
Q 15.484375 15.921875 20.484375 11.0625 
Q 25.484375 6.203125 34.421875 6.203125 
Q 39.59375 6.203125 44.453125 7.46875 
Q 49.3125 8.734375 54.109375 11.28125 
L 54.109375 2.78125 
Q 49.265625 0.734375 44.1875 -0.34375 
Q 39.109375 -1.421875 33.890625 -1.421875 
Q 20.796875 -1.421875 13.15625 6.1875 
Q 5.515625 13.8125 5.515625 26.8125 
Q 5.515625 40.234375 12.765625 48.109375 
Q 20.015625 56 32.328125 56 
Q 43.359375 56 49.78125 48.890625 
Q 56.203125 41.796875 56.203125 29.59375 
z
M 47.21875 32.234375 
Q 47.125 39.59375 43.09375 43.984375 
Q 39.0625 48.390625 32.421875 48.390625 
Q 24.90625 48.390625 20.390625 44.140625 
Q 15.875 39.890625 15.1875 32.171875 
z
" id="DejaVuSans-101"/>
        <path d="M 54.890625 33.015625 
L 54.890625 0 
L 45.90625 0 
L 45.90625 32.71875 
Q 45.90625 40.484375 42.875 44.328125 
Q 39.84375 48.1875 33.796875 48.1875 
Q 26.515625 48.1875 22.3125 43.546875 
Q 18.109375 38.921875 18.109375 30.90625 
L 18.109375 0 
L 9.078125 0 
L 9.078125 54.6875 
L 18.109375 54.6875 
L 18.109375 46.1875 
Q 21.34375 51.125 25.703125 53.5625 
Q 30.078125 56 35.796875 56 
Q 45.21875 56 50.046875 50.171875 
Q 54.890625 44.34375 54.890625 33.015625 
z
" id="DejaVuSans-110"/>
        <path d="M 30.609375 48.390625 
Q 23.390625 48.390625 19.1875 42.75 
Q 14.984375 37.109375 14.984375 27.296875 
Q 14.984375 17.484375 19.15625 11.84375 
Q 23.34375 6.203125 30.609375 6.203125 
Q 37.796875 6.203125 41.984375 11.859375 
Q 46.1875 17.53125 46.1875 27.296875 
Q 46.1875 37.015625 41.984375 42.703125 
Q 37.796875 48.390625 30.609375 48.390625 
z
M 30.609375 56 
Q 42.328125 56 49.015625 48.375 
Q 55.71875 40.765625 55.71875 27.296875 
Q 55.71875 13.875 49.015625 6.21875 
Q 42.328125 -1.421875 30.609375 -1.421875 
Q 18.84375 -1.421875 12.171875 6.21875 
Q 5.515625 13.875 5.515625 27.296875 
Q 5.515625 40.765625 12.171875 48.375 
Q 18.84375 56 30.609375 56 
z
" id="DejaVuSans-111"/>
       </defs>
       <use xlink:href="#DejaVuSans-107"/>
       <use x="57.910156" xlink:href="#DejaVuSans-105"/>
       <use x="85.693359" xlink:href="#DejaVuSans-114"/>
       <use x="124.556641" xlink:href="#DejaVuSans-101"/>
       <use x="186.080078" xlink:href="#DejaVuSans-110"/>
       <use x="249.458984" xlink:href="#DejaVuSans-101"/>
       <use x="310.982422" xlink:href="#DejaVuSans-110"/>
       <use x="374.361328" xlink:href="#DejaVuSans-107"/>
       <use x="428.646484" xlink:href="#DejaVuSans-111"/>
      </g>
     </g>
    </g>
    <g id="xtick_2">
     <g id="line2d_2">
      <g>
       <use style="stroke:#000000;stroke-width:0.8;" x="187.248125" xlink:href="#me87ee06c5d" y="288.430125"/>
      </g>
     </g>
     <g id="text_2">
      <!-- weizz_qemu -->
      <g transform="translate(133.080643 332.603534)rotate(-30)scale(0.1 -0.1)">
       <defs>
        <path d="M 4.203125 54.6875 
L 13.1875 54.6875 
L 24.421875 12.015625 
L 35.59375 54.6875 
L 46.1875 54.6875 
L 57.421875 12.015625 
L 68.609375 54.6875 
L 77.59375 54.6875 
L 63.28125 0 
L 52.6875 0 
L 40.921875 44.828125 
L 29.109375 0 
L 18.5 0 
z
" id="DejaVuSans-119"/>
        <path d="M 5.515625 54.6875 
L 48.1875 54.6875 
L 48.1875 46.484375 
L 14.40625 7.171875 
L 48.1875 7.171875 
L 48.1875 0 
L 4.296875 0 
L 4.296875 8.203125 
L 38.09375 47.515625 
L 5.515625 47.515625 
z
" id="DejaVuSans-122"/>
        <path d="M 50.984375 -16.609375 
L 50.984375 -23.578125 
L -0.984375 -23.578125 
L -0.984375 -16.609375 
z
" id="DejaVuSans-95"/>
        <path d="M 14.796875 27.296875 
Q 14.796875 17.390625 18.875 11.75 
Q 22.953125 6.109375 30.078125 6.109375 
Q 37.203125 6.109375 41.296875 11.75 
Q 45.40625 17.390625 45.40625 27.296875 
Q 45.40625 37.203125 41.296875 42.84375 
Q 37.203125 48.484375 30.078125 48.484375 
Q 22.953125 48.484375 18.875 42.84375 
Q 14.796875 37.203125 14.796875 27.296875 
z
M 45.40625 8.203125 
Q 42.578125 3.328125 38.25 0.953125 
Q 33.9375 -1.421875 27.875 -1.421875 
Q 17.96875 -1.421875 11.734375 6.484375 
Q 5.515625 14.40625 5.515625 27.296875 
Q 5.515625 40.1875 11.734375 48.09375 
Q 17.96875 56 27.875 56 
Q 33.9375 56 38.25 53.625 
Q 42.578125 51.265625 45.40625 46.390625 
L 45.40625 54.6875 
L 54.390625 54.6875 
L 54.390625 -20.796875 
L 45.40625 -20.796875 
z
" id="DejaVuSans-113"/>
        <path d="M 52 44.1875 
Q 55.375 50.25 60.0625 53.125 
Q 64.75 56 71.09375 56 
Q 79.640625 56 84.28125 50.015625 
Q 88.921875 44.046875 88.921875 33.015625 
L 88.921875 0 
L 79.890625 0 
L 79.890625 32.71875 
Q 79.890625 40.578125 77.09375 44.375 
Q 74.3125 48.1875 68.609375 48.1875 
Q 61.625 48.1875 57.5625 43.546875 
Q 53.515625 38.921875 53.515625 30.90625 
L 53.515625 0 
L 44.484375 0 
L 44.484375 32.71875 
Q 44.484375 40.625 41.703125 44.40625 
Q 38.921875 48.1875 33.109375 48.1875 
Q 26.21875 48.1875 22.15625 43.53125 
Q 18.109375 38.875 18.109375 30.90625 
L 18.109375 0 
L 9.078125 0 
L 9.078125 54.6875 
L 18.109375 54.6875 
L 18.109375 46.1875 
Q 21.1875 51.21875 25.484375 53.609375 
Q 29.78125 56 35.6875 56 
Q 41.65625 56 45.828125 52.96875 
Q 50 49.953125 52 44.1875 
z
" id="DejaVuSans-109"/>
        <path d="M 8.5 21.578125 
L 8.5 54.6875 
L 17.484375 54.6875 
L 17.484375 21.921875 
Q 17.484375 14.15625 20.5 10.265625 
Q 23.53125 6.390625 29.59375 6.390625 
Q 36.859375 6.390625 41.078125 11.03125 
Q 45.3125 15.671875 45.3125 23.6875 
L 45.3125 54.6875 
L 54.296875 54.6875 
L 54.296875 0 
L 45.3125 0 
L 45.3125 8.40625 
Q 42.046875 3.421875 37.71875 1 
Q 33.40625 -1.421875 27.6875 -1.421875 
Q 18.265625 -1.421875 13.375 4.4375 
Q 8.5 10.296875 8.5 21.578125 
z
M 31.109375 56 
z
" id="DejaVuSans-117"/>
       </defs>
       <use xlink:href="#DejaVuSans-119"/>
       <use x="81.787109" xlink:href="#DejaVuSans-101"/>
       <use x="143.310547" xlink:href="#DejaVuSans-105"/>
       <use x="171.09375" xlink:href="#DejaVuSans-122"/>
       <use x="223.583984" xlink:href="#DejaVuSans-122"/>
       <use x="276.074219" xlink:href="#DejaVuSans-95"/>
       <use x="326.074219" xlink:href="#DejaVuSans-113"/>
       <use x="389.550781" xlink:href="#DejaVuSans-101"/>
       <use x="451.074219" xlink:href="#DejaVuSans-109"/>
       <use x="548.486328" xlink:href="#DejaVuSans-117"/>
      </g>
     </g>
    </g>
    <g id="xtick_3">
     <g id="line2d_3">
      <g>
       <use style="stroke:#000000;stroke-width:0.8;" x="276.528125" xlink:href="#me87ee06c5d" y="288.430125"/>
      </g>
     </g>
     <g id="text_3">
      <!-- honggfuzz -->
      <g transform="translate(230.588924 327.933221)rotate(-30)scale(0.1 -0.1)">
       <defs>
        <path d="M 54.890625 33.015625 
L 54.890625 0 
L 45.90625 0 
L 45.90625 32.71875 
Q 45.90625 40.484375 42.875 44.328125 
Q 39.84375 48.1875 33.796875 48.1875 
Q 26.515625 48.1875 22.3125 43.546875 
Q 18.109375 38.921875 18.109375 30.90625 
L 18.109375 0 
L 9.078125 0 
L 9.078125 75.984375 
L 18.109375 75.984375 
L 18.109375 46.1875 
Q 21.34375 51.125 25.703125 53.5625 
Q 30.078125 56 35.796875 56 
Q 45.21875 56 50.046875 50.171875 
Q 54.890625 44.34375 54.890625 33.015625 
z
" id="DejaVuSans-104"/>
        <path d="M 45.40625 27.984375 
Q 45.40625 37.75 41.375 43.109375 
Q 37.359375 48.484375 30.078125 48.484375 
Q 22.859375 48.484375 18.828125 43.109375 
Q 14.796875 37.75 14.796875 27.984375 
Q 14.796875 18.265625 18.828125 12.890625 
Q 22.859375 7.515625 30.078125 7.515625 
Q 37.359375 7.515625 41.375 12.890625 
Q 45.40625 18.265625 45.40625 27.984375 
z
M 54.390625 6.78125 
Q 54.390625 -7.171875 48.1875 -13.984375 
Q 42 -20.796875 29.203125 -20.796875 
Q 24.46875 -20.796875 20.265625 -20.09375 
Q 16.0625 -19.390625 12.109375 -17.921875 
L 12.109375 -9.1875 
Q 16.0625 -11.328125 19.921875 -12.34375 
Q 23.78125 -13.375 27.78125 -13.375 
Q 36.625 -13.375 41.015625 -8.765625 
Q 45.40625 -4.15625 45.40625 5.171875 
L 45.40625 9.625 
Q 42.625 4.78125 38.28125 2.390625 
Q 33.9375 0 27.875 0 
Q 17.828125 0 11.671875 7.65625 
Q 5.515625 15.328125 5.515625 27.984375 
Q 5.515625 40.671875 11.671875 48.328125 
Q 17.828125 56 27.875 56 
Q 33.9375 56 38.28125 53.609375 
Q 42.625 51.21875 45.40625 46.390625 
L 45.40625 54.6875 
L 54.390625 54.6875 
z
" id="DejaVuSans-103"/>
        <path d="M 37.109375 75.984375 
L 37.109375 68.5 
L 28.515625 68.5 
Q 23.6875 68.5 21.796875 66.546875 
Q 19.921875 64.59375 19.921875 59.515625 
L 19.921875 54.6875 
L 34.71875 54.6875 
L 34.71875 47.703125 
L 19.921875 47.703125 
L 19.921875 0 
L 10.890625 0 
L 10.890625 47.703125 
L 2.296875 47.703125 
L 2.296875 54.6875 
L 10.890625 54.6875 
L 10.890625 58.5 
Q 10.890625 67.625 15.140625 71.796875 
Q 19.390625 75.984375 28.609375 75.984375 
z
" id="DejaVuSans-102"/>
       </defs>
       <use xlink:href="#DejaVuSans-104"/>
       <use x="63.378906" xlink:href="#DejaVuSans-111"/>
       <use x="124.560547" xlink:href="#DejaVuSans-110"/>
       <use x="187.939453" xlink:href="#DejaVuSans-103"/>
       <use x="251.416016" xlink:href="#DejaVuSans-103"/>
       <use x="314.892578" xlink:href="#DejaVuSans-102"/>
       <use x="350.097656" xlink:href="#DejaVuSans-117"/>
       <use x="413.476562" xlink:href="#DejaVuSans-122"/>
       <use x="465.966797" xlink:href="#DejaVuSans-122"/>
      </g>
     </g>
    </g>
    <g id="xtick_4">
     <g id="line2d_4">
      <g>
       <use style="stroke:#000000;stroke-width:0.8;" x="365.808125" xlink:href="#me87ee06c5d" y="288.430125"/>
      </g>
     </g>
     <g id="text_4">
      <!-- aflplusplus -->
      <g transform="translate(318.199118 328.897284)rotate(-30)scale(0.1 -0.1)">
       <defs>
        <path d="M 34.28125 27.484375 
Q 23.390625 27.484375 19.1875 25 
Q 14.984375 22.515625 14.984375 16.5 
Q 14.984375 11.71875 18.140625 8.90625 
Q 21.296875 6.109375 26.703125 6.109375 
Q 34.1875 6.109375 38.703125 11.40625 
Q 43.21875 16.703125 43.21875 25.484375 
L 43.21875 27.484375 
z
M 52.203125 31.203125 
L 52.203125 0 
L 43.21875 0 
L 43.21875 8.296875 
Q 40.140625 3.328125 35.546875 0.953125 
Q 30.953125 -1.421875 24.3125 -1.421875 
Q 15.921875 -1.421875 10.953125 3.296875 
Q 6 8.015625 6 15.921875 
Q 6 25.140625 12.171875 29.828125 
Q 18.359375 34.515625 30.609375 34.515625 
L 43.21875 34.515625 
L 43.21875 35.40625 
Q 43.21875 41.609375 39.140625 45 
Q 35.0625 48.390625 27.6875 48.390625 
Q 23 48.390625 18.546875 47.265625 
Q 14.109375 46.140625 10.015625 43.890625 
L 10.015625 52.203125 
Q 14.9375 54.109375 19.578125 55.046875 
Q 24.21875 56 28.609375 56 
Q 40.484375 56 46.34375 49.84375 
Q 52.203125 43.703125 52.203125 31.203125 
z
" id="DejaVuSans-97"/>
        <path d="M 9.421875 75.984375 
L 18.40625 75.984375 
L 18.40625 0 
L 9.421875 0 
z
" id="DejaVuSans-108"/>
        <path d="M 18.109375 8.203125 
L 18.109375 -20.796875 
L 9.078125 -20.796875 
L 9.078125 54.6875 
L 18.109375 54.6875 
L 18.109375 46.390625 
Q 20.953125 51.265625 25.265625 53.625 
Q 29.59375 56 35.59375 56 
Q 45.5625 56 51.78125 48.09375 
Q 58.015625 40.1875 58.015625 27.296875 
Q 58.015625 14.40625 51.78125 6.484375 
Q 45.5625 -1.421875 35.59375 -1.421875 
Q 29.59375 -1.421875 25.265625 0.953125 
Q 20.953125 3.328125 18.109375 8.203125 
z
M 48.6875 27.296875 
Q 48.6875 37.203125 44.609375 42.84375 
Q 40.53125 48.484375 33.40625 48.484375 
Q 26.265625 48.484375 22.1875 42.84375 
Q 18.109375 37.203125 18.109375 27.296875 
Q 18.109375 17.390625 22.1875 11.75 
Q 26.265625 6.109375 33.40625 6.109375 
Q 40.53125 6.109375 44.609375 11.75 
Q 48.6875 17.390625 48.6875 27.296875 
z
" id="DejaVuSans-112"/>
        <path d="M 44.28125 53.078125 
L 44.28125 44.578125 
Q 40.484375 46.53125 36.375 47.5 
Q 32.28125 48.484375 27.875 48.484375 
Q 21.1875 48.484375 17.84375 46.4375 
Q 14.5 44.390625 14.5 40.28125 
Q 14.5 37.15625 16.890625 35.375 
Q 19.28125 33.59375 26.515625 31.984375 
L 29.59375 31.296875 
Q 39.15625 29.25 43.1875 25.515625 
Q 47.21875 21.78125 47.21875 15.09375 
Q 47.21875 7.46875 41.1875 3.015625 
Q 35.15625 -1.421875 24.609375 -1.421875 
Q 20.21875 -1.421875 15.453125 -0.5625 
Q 10.6875 0.296875 5.421875 2 
L 5.421875 11.28125 
Q 10.40625 8.6875 15.234375 7.390625 
Q 20.0625 6.109375 24.8125 6.109375 
Q 31.15625 6.109375 34.5625 8.28125 
Q 37.984375 10.453125 37.984375 14.40625 
Q 37.984375 18.0625 35.515625 20.015625 
Q 33.0625 21.96875 24.703125 23.78125 
L 21.578125 24.515625 
Q 13.234375 26.265625 9.515625 29.90625 
Q 5.8125 33.546875 5.8125 39.890625 
Q 5.8125 47.609375 11.28125 51.796875 
Q 16.75 56 26.8125 56 
Q 31.78125 56 36.171875 55.265625 
Q 40.578125 54.546875 44.28125 53.078125 
z
" id="DejaVuSans-115"/>
       </defs>
       <use xlink:href="#DejaVuSans-97"/>
       <use x="61.279297" xlink:href="#DejaVuSans-102"/>
       <use x="96.484375" xlink:href="#DejaVuSans-108"/>
       <use x="124.267578" xlink:href="#DejaVuSans-112"/>
       <use x="187.744141" xlink:href="#DejaVuSans-108"/>
       <use x="215.527344" xlink:href="#DejaVuSans-117"/>
       <use x="278.90625" xlink:href="#DejaVuSans-115"/>
       <use x="331.005859" xlink:href="#DejaVuSans-112"/>
       <use x="394.482422" xlink:href="#DejaVuSans-108"/>
       <use x="422.265625" xlink:href="#DejaVuSans-117"/>
       <use x="485.644531" xlink:href="#DejaVuSans-115"/>
      </g>
     </g>
    </g>
    <g id="text_5">
     <!-- Fuzzer (highest median coverage on the left) -->
     <g transform="translate(119.270156 346.243897)scale(0.1 -0.1)">
      <defs>
       <path d="M 9.8125 72.90625 
L 51.703125 72.90625 
L 51.703125 64.59375 
L 19.671875 64.59375 
L 19.671875 43.109375 
L 48.578125 43.109375 
L 48.578125 34.8125 
L 19.671875 34.8125 
L 19.671875 0 
L 9.8125 0 
z
" id="DejaVuSans-70"/>
       <path id="DejaVuSans-32"/>
       <path d="M 31 75.875 
Q 24.46875 64.65625 21.28125 53.65625 
Q 18.109375 42.671875 18.109375 31.390625 
Q 18.109375 20.125 21.3125 9.0625 
Q 24.515625 -2 31 -13.1875 
L 23.1875 -13.1875 
Q 15.875 -1.703125 12.234375 9.375 
Q 8.59375 20.453125 8.59375 31.390625 
Q 8.59375 42.28125 12.203125 53.3125 
Q 15.828125 64.359375 23.1875 75.875 
z
" id="DejaVuSans-40"/>
       <path d="M 18.3125 70.21875 
L 18.3125 54.6875 
L 36.8125 54.6875 
L 36.8125 47.703125 
L 18.3125 47.703125 
L 18.3125 18.015625 
Q 18.3125 11.328125 20.140625 9.421875 
Q 21.96875 7.515625 27.59375 7.515625 
L 36.8125 7.515625 
L 36.8125 0 
L 27.59375 0 
Q 17.1875 0 13.234375 3.875 
Q 9.28125 7.765625 9.28125 18.015625 
L 9.28125 47.703125 
L 2.6875 47.703125 
L 2.6875 54.6875 
L 9.28125 54.6875 
L 9.28125 70.21875 
z
" id="DejaVuSans-116"/>
       <path d="M 45.40625 46.390625 
L 45.40625 75.984375 
L 54.390625 75.984375 
L 54.390625 0 
L 45.40625 0 
L 45.40625 8.203125 
Q 42.578125 3.328125 38.25 0.953125 
Q 33.9375 -1.421875 27.875 -1.421875 
Q 17.96875 -1.421875 11.734375 6.484375 
Q 5.515625 14.40625 5.515625 27.296875 
Q 5.515625 40.1875 11.734375 48.09375 
Q 17.96875 56 27.875 56 
Q 33.9375 56 38.25 53.625 
Q 42.578125 51.265625 45.40625 46.390625 
z
M 14.796875 27.296875 
Q 14.796875 17.390625 18.875 11.75 
Q 22.953125 6.109375 30.078125 6.109375 
Q 37.203125 6.109375 41.296875 11.75 
Q 45.40625 17.390625 45.40625 27.296875 
Q 45.40625 37.203125 41.296875 42.84375 
Q 37.203125 48.484375 30.078125 48.484375 
Q 22.953125 48.484375 18.875 42.84375 
Q 14.796875 37.203125 14.796875 27.296875 
z
" id="DejaVuSans-100"/>
       <path d="M 48.78125 52.59375 
L 48.78125 44.1875 
Q 44.96875 46.296875 41.140625 47.34375 
Q 37.3125 48.390625 33.40625 48.390625 
Q 24.65625 48.390625 19.8125 42.84375 
Q 14.984375 37.3125 14.984375 27.296875 
Q 14.984375 17.28125 19.8125 11.734375 
Q 24.65625 6.203125 33.40625 6.203125 
Q 37.3125 6.203125 41.140625 7.25 
Q 44.96875 8.296875 48.78125 10.40625 
L 48.78125 2.09375 
Q 45.015625 0.34375 40.984375 -0.53125 
Q 36.96875 -1.421875 32.421875 -1.421875 
Q 20.0625 -1.421875 12.78125 6.34375 
Q 5.515625 14.109375 5.515625 27.296875 
Q 5.515625 40.671875 12.859375 48.328125 
Q 20.21875 56 33.015625 56 
Q 37.15625 56 41.109375 55.140625 
Q 45.0625 54.296875 48.78125 52.59375 
z
" id="DejaVuSans-99"/>
       <path d="M 2.984375 54.6875 
L 12.5 54.6875 
L 29.59375 8.796875 
L 46.6875 54.6875 
L 56.203125 54.6875 
L 35.6875 0 
L 23.484375 0 
z
" id="DejaVuSans-118"/>
       <path d="M 8.015625 75.875 
L 15.828125 75.875 
Q 23.140625 64.359375 26.78125 53.3125 
Q 30.421875 42.28125 30.421875 31.390625 
Q 30.421875 20.453125 26.78125 9.375 
Q 23.140625 -1.703125 15.828125 -13.1875 
L 8.015625 -13.1875 
Q 14.5 -2 17.703125 9.0625 
Q 20.90625 20.125 20.90625 31.390625 
Q 20.90625 42.671875 17.703125 53.65625 
Q 14.5 64.65625 8.015625 75.875 
z
" id="DejaVuSans-41"/>
      </defs>
      <use xlink:href="#DejaVuSans-70"/>
      <use x="52.019531" xlink:href="#DejaVuSans-117"/>
      <use x="115.398438" xlink:href="#DejaVuSans-122"/>
      <use x="167.888672" xlink:href="#DejaVuSans-122"/>
      <use x="220.378906" xlink:href="#DejaVuSans-101"/>
      <use x="281.902344" xlink:href="#DejaVuSans-114"/>
      <use x="323.015625" xlink:href="#DejaVuSans-32"/>
      <use x="354.802734" xlink:href="#DejaVuSans-40"/>
      <use x="393.816406" xlink:href="#DejaVuSans-104"/>
      <use x="457.195312" xlink:href="#DejaVuSans-105"/>
      <use x="484.978516" xlink:href="#DejaVuSans-103"/>
      <use x="548.455078" xlink:href="#DejaVuSans-104"/>
      <use x="611.833984" xlink:href="#DejaVuSans-101"/>
      <use x="673.357422" xlink:href="#DejaVuSans-115"/>
      <use x="725.457031" xlink:href="#DejaVuSans-116"/>
      <use x="764.666016" xlink:href="#DejaVuSans-32"/>
      <use x="796.453125" xlink:href="#DejaVuSans-109"/>
      <use x="893.865234" xlink:href="#DejaVuSans-101"/>
      <use x="955.388672" xlink:href="#DejaVuSans-100"/>
      <use x="1018.865234" xlink:href="#DejaVuSans-105"/>
      <use x="1046.648438" xlink:href="#DejaVuSans-97"/>
      <use x="1107.927734" xlink:href="#DejaVuSans-110"/>
      <use x="1171.306641" xlink:href="#DejaVuSans-32"/>
      <use x="1203.09375" xlink:href="#DejaVuSans-99"/>
      <use x="1258.074219" xlink:href="#DejaVuSans-111"/>
      <use x="1319.255859" xlink:href="#DejaVuSans-118"/>
      <use x="1378.435547" xlink:href="#DejaVuSans-101"/>
      <use x="1439.958984" xlink:href="#DejaVuSans-114"/>
      <use x="1481.072266" xlink:href="#DejaVuSans-97"/>
      <use x="1542.351562" xlink:href="#DejaVuSans-103"/>
      <use x="1605.828125" xlink:href="#DejaVuSans-101"/>
      <use x="1667.351562" xlink:href="#DejaVuSans-32"/>
      <use x="1699.138672" xlink:href="#DejaVuSans-111"/>
      <use x="1760.320312" xlink:href="#DejaVuSans-110"/>
      <use x="1823.699219" xlink:href="#DejaVuSans-32"/>
      <use x="1855.486328" xlink:href="#DejaVuSans-116"/>
      <use x="1894.695312" xlink:href="#DejaVuSans-104"/>
      <use x="1958.074219" xlink:href="#DejaVuSans-101"/>
      <use x="2019.597656" xlink:href="#DejaVuSans-32"/>
      <use x="2051.384766" xlink:href="#DejaVuSans-108"/>
      <use x="2079.167969" xlink:href="#DejaVuSans-101"/>
      <use x="2140.691406" xlink:href="#DejaVuSans-102"/>
      <use x="2174.146484" xlink:href="#DejaVuSans-116"/>
      <use x="2213.355469" xlink:href="#DejaVuSans-41"/>
     </g>
    </g>
   </g>
   <g id="matplotlib.axis_2">
    <g id="ytick_1">
     <g id="line2d_5">
      <defs>
       <path d="M 0 0 
L -3.5 0 
" id="m29084da55f" style="stroke:#000000;stroke-width:0.8;"/>
      </defs>
      <g>
       <use style="stroke:#000000;stroke-width:0.8;" x="53.328125" xlink:href="#m29084da55f" y="275.449898"/>
      </g>
     </g>
     <g id="text_6">
      <!-- 1900 -->
      <g transform="translate(20.878125 279.249117)scale(0.1 -0.1)">
       <defs>
        <path d="M 12.40625 8.296875 
L 28.515625 8.296875 
L 28.515625 63.921875 
L 10.984375 60.40625 
L 10.984375 69.390625 
L 28.421875 72.90625 
L 38.28125 72.90625 
L 38.28125 8.296875 
L 54.390625 8.296875 
L 54.390625 0 
L 12.40625 0 
z
" id="DejaVuSans-49"/>
        <path d="M 10.984375 1.515625 
L 10.984375 10.5 
Q 14.703125 8.734375 18.5 7.8125 
Q 22.3125 6.890625 25.984375 6.890625 
Q 35.75 6.890625 40.890625 13.453125 
Q 46.046875 20.015625 46.78125 33.40625 
Q 43.953125 29.203125 39.59375 26.953125 
Q 35.25 24.703125 29.984375 24.703125 
Q 19.046875 24.703125 12.671875 31.3125 
Q 6.296875 37.9375 6.296875 49.421875 
Q 6.296875 60.640625 12.9375 67.421875 
Q 19.578125 74.21875 30.609375 74.21875 
Q 43.265625 74.21875 49.921875 64.515625 
Q 56.59375 54.828125 56.59375 36.375 
Q 56.59375 19.140625 48.40625 8.859375 
Q 40.234375 -1.421875 26.421875 -1.421875 
Q 22.703125 -1.421875 18.890625 -0.6875 
Q 15.09375 0.046875 10.984375 1.515625 
z
M 30.609375 32.421875 
Q 37.25 32.421875 41.125 36.953125 
Q 45.015625 41.5 45.015625 49.421875 
Q 45.015625 57.28125 41.125 61.84375 
Q 37.25 66.40625 30.609375 66.40625 
Q 23.96875 66.40625 20.09375 61.84375 
Q 16.21875 57.28125 16.21875 49.421875 
Q 16.21875 41.5 20.09375 36.953125 
Q 23.96875 32.421875 30.609375 32.421875 
z
" id="DejaVuSans-57"/>
        <path d="M 31.78125 66.40625 
Q 24.171875 66.40625 20.328125 58.90625 
Q 16.5 51.421875 16.5 36.375 
Q 16.5 21.390625 20.328125 13.890625 
Q 24.171875 6.390625 31.78125 6.390625 
Q 39.453125 6.390625 43.28125 13.890625 
Q 47.125 21.390625 47.125 36.375 
Q 47.125 51.421875 43.28125 58.90625 
Q 39.453125 66.40625 31.78125 66.40625 
z
M 31.78125 74.21875 
Q 44.046875 74.21875 50.515625 64.515625 
Q 56.984375 54.828125 56.984375 36.375 
Q 56.984375 17.96875 50.515625 8.265625 
Q 44.046875 -1.421875 31.78125 -1.421875 
Q 19.53125 -1.421875 13.0625 8.265625 
Q 6.59375 17.96875 6.59375 36.375 
Q 6.59375 54.828125 13.0625 64.515625 
Q 19.53125 74.21875 31.78125 74.21875 
z
" id="DejaVuSans-48"/>
       </defs>
       <use xlink:href="#DejaVuSans-49"/>
       <use x="63.623047" xlink:href="#DejaVuSans-57"/>
       <use x="127.246094" xlink:href="#DejaVuSans-48"/>
       <use x="190.869141" xlink:href="#DejaVuSans-48"/>
      </g>
     </g>
    </g>
    <g id="ytick_2">
     <g id="line2d_6">
      <g>
       <use style="stroke:#000000;stroke-width:0.8;" x="53.328125" xlink:href="#m29084da55f" y="244.723615"/>
      </g>
     </g>
     <g id="text_7">
      <!-- 1950 -->
      <g transform="translate(20.878125 248.522834)scale(0.1 -0.1)">
       <defs>
        <path d="M 10.796875 72.90625 
L 49.515625 72.90625 
L 49.515625 64.59375 
L 19.828125 64.59375 
L 19.828125 46.734375 
Q 21.96875 47.46875 24.109375 47.828125 
Q 26.265625 48.1875 28.421875 48.1875 
Q 40.625 48.1875 47.75 41.5 
Q 54.890625 34.8125 54.890625 23.390625 
Q 54.890625 11.625 47.5625 5.09375 
Q 40.234375 -1.421875 26.90625 -1.421875 
Q 22.3125 -1.421875 17.546875 -0.640625 
Q 12.796875 0.140625 7.71875 1.703125 
L 7.71875 11.625 
Q 12.109375 9.234375 16.796875 8.0625 
Q 21.484375 6.890625 26.703125 6.890625 
Q 35.15625 6.890625 40.078125 11.328125 
Q 45.015625 15.765625 45.015625 23.390625 
Q 45.015625 31 40.078125 35.4375 
Q 35.15625 39.890625 26.703125 39.890625 
Q 22.75 39.890625 18.8125 39.015625 
Q 14.890625 38.140625 10.796875 36.28125 
z
" id="DejaVuSans-53"/>
       </defs>
       <use xlink:href="#DejaVuSans-49"/>
       <use x="63.623047" xlink:href="#DejaVuSans-57"/>
       <use x="127.246094" xlink:href="#DejaVuSans-53"/>
       <use x="190.869141" xlink:href="#DejaVuSans-48"/>
      </g>
     </g>
    </g>
    <g id="ytick_3">
     <g id="line2d_7">
      <g>
       <use style="stroke:#000000;stroke-width:0.8;" x="53.328125" xlink:href="#m29084da55f" y="213.997332"/>
      </g>
     </g>
     <g id="text_8">
      <!-- 2000 -->
      <g transform="translate(20.878125 217.796551)scale(0.1 -0.1)">
       <defs>
        <path d="M 19.1875 8.296875 
L 53.609375 8.296875 
L 53.609375 0 
L 7.328125 0 
L 7.328125 8.296875 
Q 12.9375 14.109375 22.625 23.890625 
Q 32.328125 33.6875 34.8125 36.53125 
Q 39.546875 41.84375 41.421875 45.53125 
Q 43.3125 49.21875 43.3125 52.78125 
Q 43.3125 58.59375 39.234375 62.25 
Q 35.15625 65.921875 28.609375 65.921875 
Q 23.96875 65.921875 18.8125 64.3125 
Q 13.671875 62.703125 7.8125 59.421875 
L 7.8125 69.390625 
Q 13.765625 71.78125 18.9375 73 
Q 24.125 74.21875 28.421875 74.21875 
Q 39.75 74.21875 46.484375 68.546875 
Q 53.21875 62.890625 53.21875 53.421875 
Q 53.21875 48.921875 51.53125 44.890625 
Q 49.859375 40.875 45.40625 35.40625 
Q 44.1875 33.984375 37.640625 27.21875 
Q 31.109375 20.453125 19.1875 8.296875 
z
" id="DejaVuSans-50"/>
       </defs>
       <use xlink:href="#DejaVuSans-50"/>
       <use x="63.623047" xlink:href="#DejaVuSans-48"/>
       <use x="127.246094" xlink:href="#DejaVuSans-48"/>
       <use x="190.869141" xlink:href="#DejaVuSans-48"/>
      </g>
     </g>
    </g>
    <g id="ytick_4">
     <g id="line2d_8">
      <g>
       <use style="stroke:#000000;stroke-width:0.8;" x="53.328125" xlink:href="#m29084da55f" y="183.271049"/>
      </g>
     </g>
     <g id="text_9">
      <!-- 2050 -->
      <g transform="translate(20.878125 187.070268)scale(0.1 -0.1)">
       <use xlink:href="#DejaVuSans-50"/>
       <use x="63.623047" xlink:href="#DejaVuSans-48"/>
       <use x="127.246094" xlink:href="#DejaVuSans-53"/>
       <use x="190.869141" xlink:href="#DejaVuSans-48"/>
      </g>
     </g>
    </g>
    <g id="ytick_5">
     <g id="line2d_9">
      <g>
       <use style="stroke:#000000;stroke-width:0.8;" x="53.328125" xlink:href="#m29084da55f" y="152.544766"/>
      </g>
     </g>
     <g id="text_10">
      <!-- 2100 -->
      <g transform="translate(20.878125 156.343985)scale(0.1 -0.1)">
       <use xlink:href="#DejaVuSans-50"/>
       <use x="63.623047" xlink:href="#DejaVuSans-49"/>
       <use x="127.246094" xlink:href="#DejaVuSans-48"/>
       <use x="190.869141" xlink:href="#DejaVuSans-48"/>
      </g>
     </g>
    </g>
    <g id="ytick_6">
     <g id="line2d_10">
      <g>
       <use style="stroke:#000000;stroke-width:0.8;" x="53.328125" xlink:href="#m29084da55f" y="121.818483"/>
      </g>
     </g>
     <g id="text_11">
      <!-- 2150 -->
      <g transform="translate(20.878125 125.617702)scale(0.1 -0.1)">
       <use xlink:href="#DejaVuSans-50"/>
       <use x="63.623047" xlink:href="#DejaVuSans-49"/>
       <use x="127.246094" xlink:href="#DejaVuSans-53"/>
       <use x="190.869141" xlink:href="#DejaVuSans-48"/>
      </g>
     </g>
    </g>
    <g id="ytick_7">
     <g id="line2d_11">
      <g>
       <use style="stroke:#000000;stroke-width:0.8;" x="53.328125" xlink:href="#m29084da55f" y="91.092201"/>
      </g>
     </g>
     <g id="text_12">
      <!-- 2200 -->
      <g transform="translate(20.878125 94.891419)scale(0.1 -0.1)">
       <use xlink:href="#DejaVuSans-50"/>
       <use x="63.623047" xlink:href="#DejaVuSans-50"/>
       <use x="127.246094" xlink:href="#DejaVuSans-48"/>
       <use x="190.869141" xlink:href="#DejaVuSans-48"/>
      </g>
     </g>
    </g>
    <g id="ytick_8">
     <g id="line2d_12">
      <g>
       <use style="stroke:#000000;stroke-width:0.8;" x="53.328125" xlink:href="#m29084da55f" y="60.365918"/>
      </g>
     </g>
     <g id="text_13">
      <!-- 2250 -->
      <g transform="translate(20.878125 64.165136)scale(0.1 -0.1)">
       <use xlink:href="#DejaVuSans-50"/>
       <use x="63.623047" xlink:href="#DejaVuSans-50"/>
       <use x="127.246094" xlink:href="#DejaVuSans-53"/>
       <use x="190.869141" xlink:href="#DejaVuSans-48"/>
      </g>
     </g>
    </g>
    <g id="ytick_9">
     <g id="line2d_13">
      <g>
       <use style="stroke:#000000;stroke-width:0.8;" x="53.328125" xlink:href="#m29084da55f" y="29.639635"/>
      </g>
     </g>
     <g id="text_14">
      <!-- 2300 -->
      <g transform="translate(20.878125 33.438854)scale(0.1 -0.1)">
       <defs>
        <path d="M 40.578125 39.3125 
Q 47.65625 37.796875 51.625 33 
Q 55.609375 28.21875 55.609375 21.1875 
Q 55.609375 10.40625 48.1875 4.484375 
Q 40.765625 -1.421875 27.09375 -1.421875 
Q 22.515625 -1.421875 17.65625 -0.515625 
Q 12.796875 0.390625 7.625 2.203125 
L 7.625 11.71875 
Q 11.71875 9.328125 16.59375 8.109375 
Q 21.484375 6.890625 26.8125 6.890625 
Q 36.078125 6.890625 40.9375 10.546875 
Q 45.796875 14.203125 45.796875 21.1875 
Q 45.796875 27.640625 41.28125 31.265625 
Q 36.765625 34.90625 28.71875 34.90625 
L 20.21875 34.90625 
L 20.21875 43.015625 
L 29.109375 43.015625 
Q 36.375 43.015625 40.234375 45.921875 
Q 44.09375 48.828125 44.09375 54.296875 
Q 44.09375 59.90625 40.109375 62.90625 
Q 36.140625 65.921875 28.71875 65.921875 
Q 24.65625 65.921875 20.015625 65.03125 
Q 15.375 64.15625 9.8125 62.3125 
L 9.8125 71.09375 
Q 15.4375 72.65625 20.34375 73.4375 
Q 25.25 74.21875 29.59375 74.21875 
Q 40.828125 74.21875 47.359375 69.109375 
Q 53.90625 64.015625 53.90625 55.328125 
Q 53.90625 49.265625 50.4375 45.09375 
Q 46.96875 40.921875 40.578125 39.3125 
z
" id="DejaVuSans-51"/>
       </defs>
       <use xlink:href="#DejaVuSans-50"/>
       <use x="63.623047" xlink:href="#DejaVuSans-51"/>
       <use x="127.246094" xlink:href="#DejaVuSans-48"/>
       <use x="190.869141" xlink:href="#DejaVuSans-48"/>
      </g>
     </g>
    </g>
    <g id="text_15">
     <!-- Reached region coverage -->
     <g transform="translate(14.798438 219.136625)rotate(-90)scale(0.1 -0.1)">
      <defs>
       <path d="M 44.390625 34.1875 
Q 47.5625 33.109375 50.5625 29.59375 
Q 53.5625 26.078125 56.59375 19.921875 
L 66.609375 0 
L 56 0 
L 46.6875 18.703125 
Q 43.0625 26.03125 39.671875 28.421875 
Q 36.28125 30.8125 30.421875 30.8125 
L 19.671875 30.8125 
L 19.671875 0 
L 9.8125 0 
L 9.8125 72.90625 
L 32.078125 72.90625 
Q 44.578125 72.90625 50.734375 67.671875 
Q 56.890625 62.453125 56.890625 51.90625 
Q 56.890625 45.015625 53.6875 40.46875 
Q 50.484375 35.9375 44.390625 34.1875 
z
M 19.671875 64.796875 
L 19.671875 38.921875 
L 32.078125 38.921875 
Q 39.203125 38.921875 42.84375 42.21875 
Q 46.484375 45.515625 46.484375 51.90625 
Q 46.484375 58.296875 42.84375 61.546875 
Q 39.203125 64.796875 32.078125 64.796875 
z
" id="DejaVuSans-82"/>
      </defs>
      <use xlink:href="#DejaVuSans-82"/>
      <use x="64.982422" xlink:href="#DejaVuSans-101"/>
      <use x="126.505859" xlink:href="#DejaVuSans-97"/>
      <use x="187.785156" xlink:href="#DejaVuSans-99"/>
      <use x="242.765625" xlink:href="#DejaVuSans-104"/>
      <use x="306.144531" xlink:href="#DejaVuSans-101"/>
      <use x="367.667969" xlink:href="#DejaVuSans-100"/>
      <use x="431.144531" xlink:href="#DejaVuSans-32"/>
      <use x="462.931641" xlink:href="#DejaVuSans-114"/>
      <use x="501.794922" xlink:href="#DejaVuSans-101"/>
      <use x="563.318359" xlink:href="#DejaVuSans-103"/>
      <use x="626.794922" xlink:href="#DejaVuSans-105"/>
      <use x="654.578125" xlink:href="#DejaVuSans-111"/>
      <use x="715.759766" xlink:href="#DejaVuSans-110"/>
      <use x="779.138672" xlink:href="#DejaVuSans-32"/>
      <use x="810.925781" xlink:href="#DejaVuSans-99"/>
      <use x="865.90625" xlink:href="#DejaVuSans-111"/>
      <use x="927.087891" xlink:href="#DejaVuSans-118"/>
      <use x="986.267578" xlink:href="#DejaVuSans-101"/>
      <use x="1047.791016" xlink:href="#DejaVuSans-114"/>
      <use x="1088.904297" xlink:href="#DejaVuSans-97"/>
      <use x="1150.183594" xlink:href="#DejaVuSans-103"/>
      <use x="1213.660156" xlink:href="#DejaVuSans-101"/>
     </g>
    </g>
   </g>
   <g id="line2d_14">
    <path clip-path="url(#p8dcafde52e)" d="M 97.968125 175.896741 
L 97.968125 97.851983 
" style="fill:none;stroke:#3f3f3f;stroke-linecap:square;stroke-width:1.5;"/>
   </g>
   <g id="line2d_15">
    <path clip-path="url(#p8dcafde52e)" d="M 97.968125 161.762651 
L 97.968125 122.740272 
" style="fill:none;stroke:#3f3f3f;stroke-linecap:square;stroke-width:4.5;"/>
   </g>
   <g id="line2d_16">
    <path clip-path="url(#p8dcafde52e)" d="M 187.248125 228.745948 
L 187.248125 157.460972 
" style="fill:none;stroke:#3f3f3f;stroke-linecap:square;stroke-width:1.5;"/>
   </g>
   <g id="line2d_17">
    <path clip-path="url(#p8dcafde52e)" d="M 187.248125 202.474976 
L 187.248125 166.678856 
" style="fill:none;stroke:#3f3f3f;stroke-linecap:square;stroke-width:4.5;"/>
   </g>
   <g id="line2d_18">
    <path clip-path="url(#p8dcafde52e)" d="M 240.816125 215.226383 
L 312.240125 215.226383 
" style="fill:none;stroke:#3f3f3f;stroke-linecap:square;stroke-width:1.5;"/>
   </g>
   <g id="line2d_19">
    <path clip-path="url(#p8dcafde52e)" d="M 365.808125 247.796243 
L 365.808125 247.181718 
" style="fill:none;stroke:#3f3f3f;stroke-linecap:square;stroke-width:1.5;"/>
   </g>
   <g id="line2d_20">
    <path clip-path="url(#p8dcafde52e)" d="M 365.808125 247.48898 
L 365.808125 247.181718 
" style="fill:none;stroke:#3f3f3f;stroke-linecap:square;stroke-width:4.5;"/>
   </g>
   <g id="patch_3">
    <path d="M 53.328125 275.449898 
L 53.328125 29.639635 
" style="fill:none;stroke:#000000;stroke-linecap:square;stroke-linejoin:miter;stroke-width:0.8;"/>
   </g>
   <g id="patch_4">
    <path d="M 97.968125 288.430125 
L 365.808125 288.430125 
" style="fill:none;stroke:#000000;stroke-linecap:square;stroke-linejoin:miter;stroke-width:0.8;"/>
   </g>
   <g id="PathCollection_1">
    <defs>
     <path d="M 0 1.5 
C 0.397805 1.5 0.77937 1.341951 1.06066 1.06066 
C 1.341951 0.77937 1.5 0.397805 1.5 0 
C 1.5 -0.397805 1.341951 -0.77937 1.06066 -1.06066 
C 0.77937 -1.341951 0.397805 -1.5 0 -1.5 
C -0.397805 -1.5 -0.77937 -1.341951 -1.06066 -1.06066 
C -1.341951 -0.77937 -1.5 -0.397805 -1.5 0 
C -1.5 0.397805 -1.341951 0.77937 -1.06066 1.06066 
C -0.77937 1.341951 -0.397805 1.5 0 1.5 
z
" id="m31d52a6eef" style="stroke:#3f3f3f;"/>
    </defs>
    <g clip-path="url(#p8dcafde52e)">
     <use style="fill:#ffffff;stroke:#3f3f3f;" x="97.968125" xlink:href="#m31d52a6eef" y="147.628561"/>
    </g>
   </g>
   <g id="PathCollection_2">
    <g clip-path="url(#p8dcafde52e)">
     <use style="fill:#ffffff;stroke:#3f3f3f;" x="187.248125" xlink:href="#m31d52a6eef" y="181.734735"/>
    </g>
   </g>
   <g id="PathCollection_3">
    <g clip-path="url(#p8dcafde52e)">
     <use style="fill:#ffffff;stroke:#3f3f3f;" x="365.808125" xlink:href="#m31d52a6eef" y="247.181718"/>
    </g>
   </g>
   <g id="text_16">
    <!-- libpng-1.2.56 (6h:15m, 1 trials/fuzzer) -->
    <g transform="translate(117.48125 16.318125)scale(0.12 -0.12)">
     <defs>
      <path d="M 48.6875 27.296875 
Q 48.6875 37.203125 44.609375 42.84375 
Q 40.53125 48.484375 33.40625 48.484375 
Q 26.265625 48.484375 22.1875 42.84375 
Q 18.109375 37.203125 18.109375 27.296875 
Q 18.109375 17.390625 22.1875 11.75 
Q 26.265625 6.109375 33.40625 6.109375 
Q 40.53125 6.109375 44.609375 11.75 
Q 48.6875 17.390625 48.6875 27.296875 
z
M 18.109375 46.390625 
Q 20.953125 51.265625 25.265625 53.625 
Q 29.59375 56 35.59375 56 
Q 45.5625 56 51.78125 48.09375 
Q 58.015625 40.1875 58.015625 27.296875 
Q 58.015625 14.40625 51.78125 6.484375 
Q 45.5625 -1.421875 35.59375 -1.421875 
Q 29.59375 -1.421875 25.265625 0.953125 
Q 20.953125 3.328125 18.109375 8.203125 
L 18.109375 0 
L 9.078125 0 
L 9.078125 75.984375 
L 18.109375 75.984375 
z
" id="DejaVuSans-98"/>
      <path d="M 4.890625 31.390625 
L 31.203125 31.390625 
L 31.203125 23.390625 
L 4.890625 23.390625 
z
" id="DejaVuSans-45"/>
      <path d="M 10.6875 12.40625 
L 21 12.40625 
L 21 0 
L 10.6875 0 
z
" id="DejaVuSans-46"/>
      <path d="M 33.015625 40.375 
Q 26.375 40.375 22.484375 35.828125 
Q 18.609375 31.296875 18.609375 23.390625 
Q 18.609375 15.53125 22.484375 10.953125 
Q 26.375 6.390625 33.015625 6.390625 
Q 39.65625 6.390625 43.53125 10.953125 
Q 47.40625 15.53125 47.40625 23.390625 
Q 47.40625 31.296875 43.53125 35.828125 
Q 39.65625 40.375 33.015625 40.375 
z
M 52.59375 71.296875 
L 52.59375 62.3125 
Q 48.875 64.0625 45.09375 64.984375 
Q 41.3125 65.921875 37.59375 65.921875 
Q 27.828125 65.921875 22.671875 59.328125 
Q 17.53125 52.734375 16.796875 39.40625 
Q 19.671875 43.65625 24.015625 45.921875 
Q 28.375 48.1875 33.59375 48.1875 
Q 44.578125 48.1875 50.953125 41.515625 
Q 57.328125 34.859375 57.328125 23.390625 
Q 57.328125 12.15625 50.6875 5.359375 
Q 44.046875 -1.421875 33.015625 -1.421875 
Q 20.359375 -1.421875 13.671875 8.265625 
Q 6.984375 17.96875 6.984375 36.375 
Q 6.984375 53.65625 15.1875 63.9375 
Q 23.390625 74.21875 37.203125 74.21875 
Q 40.921875 74.21875 44.703125 73.484375 
Q 48.484375 72.75 52.59375 71.296875 
z
" id="DejaVuSans-54"/>
      <path d="M 11.71875 12.40625 
L 22.015625 12.40625 
L 22.015625 0 
L 11.71875 0 
z
M 11.71875 51.703125 
L 22.015625 51.703125 
L 22.015625 39.3125 
L 11.71875 39.3125 
z
" id="DejaVuSans-58"/>
      <path d="M 11.71875 12.40625 
L 22.015625 12.40625 
L 22.015625 4 
L 14.015625 -11.625 
L 7.71875 -11.625 
L 11.71875 4 
z
" id="DejaVuSans-44"/>
      <path d="M 25.390625 72.90625 
L 33.6875 72.90625 
L 8.296875 -9.28125 
L 0 -9.28125 
z
" id="DejaVuSans-47"/>
     </defs>
     <use xlink:href="#DejaVuSans-108"/>
     <use x="27.783203" xlink:href="#DejaVuSans-105"/>
     <use x="55.566406" xlink:href="#DejaVuSans-98"/>
     <use x="119.042969" xlink:href="#DejaVuSans-112"/>
     <use x="182.519531" xlink:href="#DejaVuSans-110"/>
     <use x="245.898438" xlink:href="#DejaVuSans-103"/>
     <use x="309.375" xlink:href="#DejaVuSans-45"/>
     <use x="345.458984" xlink:href="#DejaVuSans-49"/>
     <use x="409.082031" xlink:href="#DejaVuSans-46"/>
     <use x="440.869141" xlink:href="#DejaVuSans-50"/>
     <use x="504.492188" xlink:href="#DejaVuSans-46"/>
     <use x="536.279297" xlink:href="#DejaVuSans-53"/>
     <use x="599.902344" xlink:href="#DejaVuSans-54"/>
     <use x="663.525391" xlink:href="#DejaVuSans-32"/>
     <use x="695.3125" xlink:href="#DejaVuSans-40"/>
     <use x="734.326172" xlink:href="#DejaVuSans-54"/>
     <use x="797.949219" xlink:href="#DejaVuSans-104"/>
     <use x="861.328125" xlink:href="#DejaVuSans-58"/>
     <use x="895.019531" xlink:href="#DejaVuSans-49"/>
     <use x="958.642578" xlink:href="#DejaVuSans-53"/>
     <use x="1022.265625" xlink:href="#DejaVuSans-109"/>
     <use x="1119.677734" xlink:href="#DejaVuSans-44"/>
     <use x="1151.464844" xlink:href="#DejaVuSans-32"/>
     <use x="1183.251953" xlink:href="#DejaVuSans-49"/>
     <use x="1246.875" xlink:href="#DejaVuSans-32"/>
     <use x="1278.662109" xlink:href="#DejaVuSans-116"/>
     <use x="1317.871094" xlink:href="#DejaVuSans-114"/>
     <use x="1358.984375" xlink:href="#DejaVuSans-105"/>
     <use x="1386.767578" xlink:href="#DejaVuSans-97"/>
     <use x="1448.046875" xlink:href="#DejaVuSans-108"/>
     <use x="1475.830078" xlink:href="#DejaVuSans-115"/>
     <use x="1527.929688" xlink:href="#DejaVuSans-47"/>
     <use x="1561.621094" xlink:href="#DejaVuSans-102"/>
     <use x="1596.826172" xlink:href="#DejaVuSans-117"/>
     <use x="1660.205078" xlink:href="#DejaVuSans-122"/>
     <use x="1712.695312" xlink:href="#DejaVuSans-122"/>
     <use x="1765.185547" xlink:href="#DejaVuSans-101"/>
     <use x="1826.708984" xlink:href="#DejaVuSans-114"/>
     <use x="1867.822266" xlink:href="#DejaVuSans-41"/>
    </g>
   </g>
  </g>
 </g>
 <defs>
  <clipPath id="p8dcafde52e">
   <rect height="266.112" width="357.12" x="53.328125" y="22.318125"/>
  </clipPath>
 </defs>
</svg>
