<?xml version="1.0" encoding="utf-8" standalone="no"?>
<!DOCTYPE svg PUBLIC "-//W3C//DTD SVG 1.1//EN"
  "http://www.w3.org/Graphics/SVG/1.1/DTD/svg11.dtd">
<!-- Created with matplotlib (https://matplotlib.org/) -->
<svg height="355.523584pt" version="1.1" viewBox="0 0 424.010625 355.523584" width="424.010625pt" xmlns="http://www.w3.org/2000/svg" xmlns:xlink="http://www.w3.org/1999/xlink">
 <metadata>
  <rdf:RDF xmlns:cc="http://creativecommons.org/ns#" xmlns:dc="http://purl.org/dc/elements/1.1/" xmlns:rdf="http://www.w3.org/1999/02/22-rdf-syntax-ns#">
   <cc:Work>
    <dc:type rdf:resource="http://purl.org/dc/dcmitype/StillImage"/>
    <dc:date>2020-10-24T19:18:43.784658</dc:date>
    <dc:format>image/svg+xml</dc:format>
    <dc:creator>
     <cc:Agent>
      <dc:title>Matplotlib v3.3.2, https://matplotlib.org/</dc:title>
     </cc:Agent>
    </dc:creator>
   </cc:Work>
  </rdf:RDF>
 </metadata>
 <defs>
  <style type="text/css">*{stroke-linecap:butt;stroke-linejoin:round;}</style>
 </defs>
 <g id="figure_1">
  <g id="patch_1">
   <path d="M 0 355.523584 
L 424.010625 355.523584 
L 424.010625 0 
L 0 0 
z
" style="fill:#ffffff;"/>
  </g>
  <g id="axes_1">
   <g id="patch_2">
    <path d="M 59.690625 288.430125 
L 416.810625 288.430125 
L 416.810625 22.318125 
L 59.690625 22.318125 
z
" style="fill:#ffffff;"/>
   </g>
   <g id="PolyCollection_1">
    <defs>
     <path d="M 105.290104 -162.615113 
L 103.371146 -162.615113 
L 103.211793 -162.717747 
L 103.032656 -162.820381 
L 102.832527 -162.923014 
L 102.610339 -163.025648 
L 102.365214 -163.128282 
L 102.096503 -163.230915 
L 101.803828 -163.333549 
L 101.487123 -163.436183 
L 101.14667 -163.538816 
L 100.783129 -163.64145 
L 100.397567 -163.744084 
L 99.991468 -163.846717 
L 99.566746 -163.949351 
L 99.125735 -164.051985 
L 98.671181 -164.154619 
L 98.206205 -164.257252 
L 97.734275 -164.359886 
L 97.259148 -164.46252 
L 96.784811 -164.565153 
L 96.315411 -164.667787 
L 95.855179 -164.770421 
L 95.408345 -164.873054 
L 94.979054 -164.975688 
L 94.571276 -165.078322 
L 94.188727 -165.180956 
L 93.834788 -165.283589 
L 93.512433 -165.386223 
L 93.224168 -165.488857 
L 92.971983 -165.59149 
L 92.757313 -165.694124 
L 92.58102 -165.796758 
L 92.443384 -165.899391 
L 92.344111 -166.002025 
L 92.282359 -166.104659 
L 92.256775 -166.207292 
L 92.265539 -166.309926 
L 92.30643 -166.41256 
L 92.376886 -166.515194 
L 92.474082 -166.617827 
L 92.595003 -166.720461 
L 92.736521 -166.823095 
L 92.89547 -166.925728 
L 93.068717 -167.028362 
L 93.25323 -167.130996 
L 93.446132 -167.233629 
L 93.644755 -167.336263 
L 93.846681 -167.438897 
L 94.049774 -167.541531 
L 94.252204 -167.644164 
L 94.452457 -167.746798 
L 94.649347 -167.849432 
L 94.842007 -167.952065 
L 95.029882 -168.054699 
L 95.212717 -168.157333 
L 95.390528 -168.259966 
L 95.563586 -168.3626 
L 95.732381 -168.465234 
L 95.897597 -168.567867 
L 96.060074 -168.670501 
L 96.220778 -168.773135 
L 96.380765 -168.875769 
L 96.541144 -168.978402 
L 96.703046 -169.081036 
L 96.867585 -169.18367 
L 97.035829 -169.286303 
L 97.208768 -169.388937 
L 97.387284 -169.491571 
L 97.572124 -169.594204 
L 97.763879 -169.696838 
L 97.962964 -169.799472 
L 98.169601 -169.902106 
L 98.383811 -170.004739 
L 98.605409 -170.107373 
L 98.834003 -170.210007 
L 99.069004 -170.31264 
L 99.30963 -170.415274 
L 99.55493 -170.517908 
L 99.803803 -170.620541 
L 100.05502 -170.723175 
L 100.307257 -170.825809 
L 100.559126 -170.928442 
L 100.809204 -171.031076 
L 101.056066 -171.13371 
L 101.298322 -171.236344 
L 101.534641 -171.338977 
L 101.763781 -171.441611 
L 101.984614 -171.544245 
L 102.196145 -171.646878 
L 102.397525 -171.749512 
L 102.588068 -171.852146 
L 102.767249 -171.954779 
L 102.93471 -172.057413 
L 103.090259 -172.160047 
L 103.233854 -172.262681 
L 103.365604 -172.365314 
L 103.485744 -172.467948 
L 103.59463 -172.570582 
L 103.692714 -172.673215 
L 103.78053 -172.775849 
L 104.88072 -172.775849 
L 104.88072 -172.775849 
L 104.968536 -172.673215 
L 105.06662 -172.570582 
L 105.175506 -172.467948 
L 105.295646 -172.365314 
L 105.427396 -172.262681 
L 105.570991 -172.160047 
L 105.72654 -172.057413 
L 105.894001 -171.954779 
L 106.073182 -171.852146 
L 106.263725 -171.749512 
L 106.465105 -171.646878 
L 106.676636 -171.544245 
L 106.897469 -171.441611 
L 107.126609 -171.338977 
L 107.362928 -171.236344 
L 107.605184 -171.13371 
L 107.852046 -171.031076 
L 108.102124 -170.928442 
L 108.353993 -170.825809 
L 108.60623 -170.723175 
L 108.857447 -170.620541 
L 109.10632 -170.517908 
L 109.35162 -170.415274 
L 109.592246 -170.31264 
L 109.827247 -170.210007 
L 110.055841 -170.107373 
L 110.277439 -170.004739 
L 110.491649 -169.902106 
L 110.698286 -169.799472 
L 110.897371 -169.696838 
L 111.089126 -169.594204 
L 111.273966 -169.491571 
L 111.452482 -169.388937 
L 111.625421 -169.286303 
L 111.793665 -169.18367 
L 111.958204 -169.081036 
L 112.120106 -168.978402 
L 112.280485 -168.875769 
L 112.440472 -168.773135 
L 112.601176 -168.670501 
L 112.763653 -168.567867 
L 112.928869 -168.465234 
L 113.097664 -168.3626 
L 113.270722 -168.259966 
L 113.448533 -168.157333 
L 113.631368 -168.054699 
L 113.819243 -167.952065 
L 114.011903 -167.849432 
L 114.208793 -167.746798 
L 114.409046 -167.644164 
L 114.611476 -167.541531 
L 114.814569 -167.438897 
L 115.016495 -167.336263 
L 115.215118 -167.233629 
L 115.40802 -167.130996 
L 115.592533 -167.028362 
L 115.76578 -166.925728 
L 115.924729 -166.823095 
L 116.066247 -166.720461 
L 116.187168 -166.617827 
L 116.284364 -166.515194 
L 116.35482 -166.41256 
L 116.395711 -166.309926 
L 116.404475 -166.207292 
L 116.378891 -166.104659 
L 116.317139 -166.002025 
L 116.217866 -165.899391 
L 116.08023 -165.796758 
L 115.903937 -165.694124 
L 115.689267 -165.59149 
L 115.437082 -165.488857 
L 115.148817 -165.386223 
L 114.826462 -165.283589 
L 114.472523 -165.180956 
L 114.089974 -165.078322 
L 113.682196 -164.975688 
L 113.252905 -164.873054 
L 112.806071 -164.770421 
L 112.345839 -164.667787 
L 111.876439 -164.565153 
L 111.402102 -164.46252 
L 110.926975 -164.359886 
L 110.455045 -164.257252 
L 109.990069 -164.154619 
L 109.535515 -164.051985 
L 109.094504 -163.949351 
L 108.669782 -163.846717 
L 108.263683 -163.744084 
L 107.878121 -163.64145 
L 107.51458 -163.538816 
L 107.174127 -163.436183 
L 106.857422 -163.333549 
L 106.564747 -163.230915 
L 106.296036 -163.128282 
L 106.050911 -163.025648 
L 105.828723 -162.923014 
L 105.628594 -162.820381 
L 105.449457 -162.717747 
L 105.290104 -162.615113 
z
" id="m126c520fdd" style="stroke:#3f3f3f;stroke-width:1.5;"/>
    </defs>
    <g clip-path="url(#p6bd00f4aaf)">
     <use style="fill:#3274a1;stroke:#3f3f3f;stroke-width:1.5;" x="0" xlink:href="#m126c520fdd" y="355.523584"/>
    </g>
   </g>
   <g id="PolyCollection_2">
    <defs>
     <path d="M 194.803762 -158.741191 
L 192.417488 -158.741191 
L 192.230722 -158.812256 
L 192.022215 -158.883321 
L 191.790763 -158.954386 
L 191.535321 -159.025451 
L 191.255039 -159.096516 
L 190.949302 -159.167581 
L 190.617773 -159.238646 
L 190.260429 -159.309711 
L 189.877594 -159.380776 
L 189.469966 -159.451841 
L 189.038644 -159.522906 
L 188.585136 -159.593971 
L 188.111369 -159.665036 
L 187.619685 -159.736101 
L 187.112821 -159.807166 
L 186.593888 -159.87823 
L 186.066332 -159.949295 
L 185.533884 -160.02036 
L 185.000509 -160.091425 
L 184.470332 -160.16249 
L 183.947568 -160.233555 
L 183.436444 -160.30462 
L 182.941114 -160.375685 
L 182.465576 -160.44675 
L 182.013589 -160.517815 
L 181.588595 -160.58888 
L 181.193643 -160.659945 
L 180.831327 -160.73101 
L 180.50373 -160.802075 
L 180.212376 -160.87314 
L 179.958208 -160.944205 
L 179.741564 -161.01527 
L 179.562174 -161.086335 
L 179.41918 -161.1574 
L 179.311152 -161.228465 
L 179.236136 -161.29953 
L 179.191697 -161.370595 
L 179.17499 -161.44166 
L 179.182824 -161.512725 
L 179.211748 -161.58379 
L 179.258127 -161.654855 
L 179.31824 -161.72592 
L 179.388363 -161.796985 
L 179.464859 -161.86805 
L 179.544266 -161.939115 
L 179.62338 -162.01018 
L 179.699329 -162.081245 
L 179.769645 -162.15231 
L 179.832317 -162.223375 
L 179.885849 -162.29444 
L 179.929287 -162.365505 
L 179.962251 -162.43657 
L 179.984941 -162.507635 
L 179.998132 -162.5787 
L 180.00316 -162.649765 
L 180.001889 -162.72083 
L 179.996662 -162.791895 
L 179.990243 -162.86296 
L 179.985747 -162.934025 
L 179.986558 -163.00509 
L 179.996238 -163.076155 
L 180.018434 -163.14722 
L 180.056775 -163.218285 
L 180.114774 -163.28935 
L 180.19573 -163.360415 
L 180.302631 -163.43148 
L 180.438073 -163.502545 
L 180.604179 -163.57361 
L 180.802543 -163.644675 
L 181.034174 -163.71574 
L 181.299469 -163.786805 
L 181.598195 -163.85787 
L 181.929492 -163.928935 
L 182.291892 -164 
L 182.683353 -164.071065 
L 183.101311 -164.14213 
L 183.542741 -164.213195 
L 184.004233 -164.28426 
L 184.482072 -164.355325 
L 184.972327 -164.42639 
L 185.470941 -164.497455 
L 185.973819 -164.56852 
L 186.476915 -164.639585 
L 186.976315 -164.71065 
L 187.468308 -164.781715 
L 187.949451 -164.85278 
L 188.416624 -164.923845 
L 188.867068 -164.99491 
L 189.298419 -165.065975 
L 189.708724 -165.13704 
L 190.096446 -165.208105 
L 190.460465 -165.27917 
L 190.800057 -165.350235 
L 191.114878 -165.4213 
L 191.404931 -165.492365 
L 191.670536 -165.56343 
L 191.912284 -165.634495 
L 192.131008 -165.70556 
L 192.327731 -165.776625 
L 194.893519 -165.776625 
L 194.893519 -165.776625 
L 195.090242 -165.70556 
L 195.308966 -165.634495 
L 195.550714 -165.56343 
L 195.816319 -165.492365 
L 196.106372 -165.4213 
L 196.421193 -165.350235 
L 196.760785 -165.27917 
L 197.124804 -165.208105 
L 197.512526 -165.13704 
L 197.922831 -165.065975 
L 198.354182 -164.99491 
L 198.804626 -164.923845 
L 199.271799 -164.85278 
L 199.752942 -164.781715 
L 200.244935 -164.71065 
L 200.744335 -164.639585 
L 201.247431 -164.56852 
L 201.750309 -164.497455 
L 202.248923 -164.42639 
L 202.739178 -164.355325 
L 203.217017 -164.28426 
L 203.678509 -164.213195 
L 204.119939 -164.14213 
L 204.537897 -164.071065 
L 204.929358 -164 
L 205.291758 -163.928935 
L 205.623055 -163.85787 
L 205.921781 -163.786805 
L 206.187076 -163.71574 
L 206.418707 -163.644675 
L 206.617071 -163.57361 
L 206.783177 -163.502545 
L 206.918619 -163.43148 
L 207.02552 -163.360415 
L 207.106476 -163.28935 
L 207.164475 -163.218285 
L 207.202816 -163.14722 
L 207.225012 -163.076155 
L 207.234692 -163.00509 
L 207.235503 -162.934025 
L 207.231007 -162.86296 
L 207.224588 -162.791895 
L 207.219361 -162.72083 
L 207.21809 -162.649765 
L 207.223118 -162.5787 
L 207.236309 -162.507635 
L 207.258999 -162.43657 
L 207.291963 -162.365505 
L 207.335401 -162.29444 
L 207.388933 -162.223375 
L 207.451605 -162.15231 
L 207.521921 -162.081245 
L 207.59787 -162.01018 
L 207.676984 -161.939115 
L 207.756391 -161.86805 
L 207.832887 -161.796985 
L 207.90301 -161.72592 
L 207.963123 -161.654855 
L 208.009502 -161.58379 
L 208.038426 -161.512725 
L 208.04626 -161.44166 
L 208.029553 -161.370595 
L 207.985114 -161.29953 
L 207.910098 -161.228465 
L 207.80207 -161.1574 
L 207.659076 -161.086335 
L 207.479686 -161.01527 
L 207.263042 -160.944205 
L 207.008874 -160.87314 
L 206.71752 -160.802075 
L 206.389923 -160.73101 
L 206.027607 -160.659945 
L 205.632655 -160.58888 
L 205.207661 -160.517815 
L 204.755674 -160.44675 
L 204.280136 -160.375685 
L 203.784806 -160.30462 
L 203.273682 -160.233555 
L 202.750918 -160.16249 
L 202.220741 -160.091425 
L 201.687366 -160.02036 
L 201.154918 -159.949295 
L 200.627362 -159.87823 
L 200.108429 -159.807166 
L 199.601565 -159.736101 
L 199.109881 -159.665036 
L 198.636114 -159.593971 
L 198.182606 -159.522906 
L 197.751284 -159.451841 
L 197.343656 -159.380776 
L 196.960821 -159.309711 
L 196.603477 -159.238646 
L 196.271948 -159.167581 
L 195.966211 -159.096516 
L 195.685929 -159.025451 
L 195.430487 -158.954386 
L 195.199035 -158.883321 
L 194.990528 -158.812256 
L 194.803762 -158.741191 
z
" id="mab6bf926d1" style="stroke:#3f3f3f;stroke-width:1.5;"/>
    </defs>
    <g clip-path="url(#p6bd00f4aaf)">
     <use style="fill:#9fd495;stroke:#3f3f3f;stroke-width:1.5;" x="0" xlink:href="#mab6bf926d1" y="355.523584"/>
    </g>
   </g>
   <g id="PolyCollection_3">
    <defs>
     <path d="M 282.951657 -79.189459 
L 282.829593 -79.189459 
L 282.819309 -81.633096 
L 282.807733 -84.076732 
L 282.794786 -86.520368 
L 282.780403 -88.964005 
L 282.76453 -91.407641 
L 282.747134 -93.851277 
L 282.7282 -96.294914 
L 282.707739 -98.73855 
L 282.685787 -101.182186 
L 282.662413 -103.625823 
L 282.637715 -106.069459 
L 282.611824 -108.513096 
L 282.584906 -110.956732 
L 282.55716 -113.400368 
L 282.528816 -115.844005 
L 282.500136 -118.287641 
L 282.471408 -120.731277 
L 282.442942 -123.174914 
L 282.415067 -125.61855 
L 282.388121 -128.062186 
L 282.362448 -130.505823 
L 282.338391 -132.949459 
L 282.316279 -135.393096 
L 282.296425 -137.836732 
L 282.279117 -140.280368 
L 282.264609 -142.724005 
L 282.253116 -145.167641 
L 282.244807 -147.611277 
L 282.239801 -150.054914 
L 282.238165 -152.49855 
L 282.239908 -154.942186 
L 282.244986 -157.385823 
L 282.253298 -159.829459 
L 282.264688 -162.273096 
L 282.278953 -164.716732 
L 282.295845 -167.160368 
L 282.315076 -169.604005 
L 282.336327 -172.047641 
L 282.359254 -174.491277 
L 282.383496 -176.934914 
L 282.408684 -179.37855 
L 282.434448 -181.822186 
L 282.460425 -184.265823 
L 282.486267 -186.709459 
L 282.511647 -189.153096 
L 282.536263 -191.596732 
L 282.559846 -194.040368 
L 282.582162 -196.484005 
L 282.603016 -198.927641 
L 282.622251 -201.371277 
L 282.639752 -203.814914 
L 282.655445 -206.25855 
L 282.669295 -208.702186 
L 282.681305 -211.145823 
L 282.691513 -213.589459 
L 282.69999 -216.033096 
L 282.706834 -218.476732 
L 282.71217 -220.920368 
L 282.716141 -223.364005 
L 282.718909 -225.807641 
L 282.720646 -228.251277 
L 282.721531 -230.694914 
L 282.721749 -233.13855 
L 282.72148 -235.582186 
L 282.720904 -238.025823 
L 282.72019 -240.469459 
L 282.719496 -242.913096 
L 282.718968 -245.356732 
L 282.718733 -247.800368 
L 282.718902 -250.244005 
L 282.719567 -252.687641 
L 282.7208 -255.131277 
L 282.722651 -257.574914 
L 282.725152 -260.01855 
L 282.728315 -262.462186 
L 282.732133 -264.905823 
L 282.736584 -267.349459 
L 282.741629 -269.793096 
L 282.747217 -272.236732 
L 282.753287 -274.680368 
L 282.759767 -277.124005 
L 282.766582 -279.567641 
L 282.773651 -282.011277 
L 282.780893 -284.454914 
L 282.788227 -286.89855 
L 282.795575 -289.342186 
L 282.802863 -291.785823 
L 282.810022 -294.229459 
L 282.816991 -296.673096 
L 282.823716 -299.116732 
L 282.830151 -301.560368 
L 282.83626 -304.004005 
L 282.842013 -306.447641 
L 282.84739 -308.891277 
L 282.852379 -311.334914 
L 282.856973 -313.77855 
L 282.861174 -316.222186 
L 282.864989 -318.665823 
L 282.868429 -321.109459 
L 282.912821 -321.109459 
L 282.912821 -321.109459 
L 282.916261 -318.665823 
L 282.920076 -316.222186 
L 282.924277 -313.77855 
L 282.928871 -311.334914 
L 282.93386 -308.891277 
L 282.939237 -306.447641 
L 282.94499 -304.004005 
L 282.951099 -301.560368 
L 282.957534 -299.116732 
L 282.964259 -296.673096 
L 282.971228 -294.229459 
L 282.978387 -291.785823 
L 282.985675 -289.342186 
L 282.993023 -286.89855 
L 283.000357 -284.454914 
L 283.007599 -282.011277 
L 283.014668 -279.567641 
L 283.021483 -277.124005 
L 283.027963 -274.680368 
L 283.034033 -272.236732 
L 283.039621 -269.793096 
L 283.044666 -267.349459 
L 283.049117 -264.905823 
L 283.052935 -262.462186 
L 283.056098 -260.01855 
L 283.058599 -257.574914 
L 283.06045 -255.131277 
L 283.061683 -252.687641 
L 283.062348 -250.244005 
L 283.062517 -247.800368 
L 283.062282 -245.356732 
L 283.061754 -242.913096 
L 283.06106 -240.469459 
L 283.060346 -238.025823 
L 283.05977 -235.582186 
L 283.059501 -233.13855 
L 283.059719 -230.694914 
L 283.060604 -228.251277 
L 283.062341 -225.807641 
L 283.065109 -223.364005 
L 283.06908 -220.920368 
L 283.074416 -218.476732 
L 283.08126 -216.033096 
L 283.089737 -213.589459 
L 283.099945 -211.145823 
L 283.111955 -208.702186 
L 283.125805 -206.25855 
L 283.141498 -203.814914 
L 283.158999 -201.371277 
L 283.178234 -198.927641 
L 283.199088 -196.484005 
L 283.221404 -194.040368 
L 283.244987 -191.596732 
L 283.269603 -189.153096 
L 283.294983 -186.709459 
L 283.320825 -184.265823 
L 283.346802 -181.822186 
L 283.372566 -179.37855 
L 283.397754 -176.934914 
L 283.421996 -174.491277 
L 283.444923 -172.047641 
L 283.466174 -169.604005 
L 283.485405 -167.160368 
L 283.502297 -164.716732 
L 283.516562 -162.273096 
L 283.527952 -159.829459 
L 283.536264 -157.385823 
L 283.541342 -154.942186 
L 283.543085 -152.49855 
L 283.541449 -150.054914 
L 283.536443 -147.611277 
L 283.528134 -145.167641 
L 283.516641 -142.724005 
L 283.502133 -140.280368 
L 283.484825 -137.836732 
L 283.464971 -135.393096 
L 283.442859 -132.949459 
L 283.418802 -130.505823 
L 283.393129 -128.062186 
L 283.366183 -125.61855 
L 283.338308 -123.174914 
L 283.309842 -120.731277 
L 283.281114 -118.287641 
L 283.252434 -115.844005 
L 283.22409 -113.400368 
L 283.196344 -110.956732 
L 283.169426 -108.513096 
L 283.143535 -106.069459 
L 283.118837 -103.625823 
L 283.095463 -101.182186 
L 283.073511 -98.73855 
L 283.05305 -96.294914 
L 283.034116 -93.851277 
L 283.01672 -91.407641 
L 283.000847 -88.964005 
L 282.986464 -86.520368 
L 282.973517 -84.076732 
L 282.961941 -81.633096 
L 282.951657 -79.189459 
z
" id="md5094ac986" style="stroke:#3f3f3f;stroke-width:1.5;"/>
    </defs>
    <g clip-path="url(#p6bd00f4aaf)">
     <use style="fill:#c7c7c7;stroke:#3f3f3f;stroke-width:1.5;" x="0" xlink:href="#md5094ac986" y="355.523584"/>
    </g>
   </g>
   <g id="PolyCollection_4">
    <defs>
     <path d="M 376.993316 -111.276592 
L 367.347934 -111.276592 
L 366.62002 -111.320457 
L 365.814873 -111.364323 
L 364.930113 -111.408188 
L 363.964324 -111.452054 
L 362.917224 -111.495919 
L 361.789816 -111.539785 
L 360.584533 -111.583651 
L 359.305358 -111.627516 
L 357.957919 -111.671382 
L 356.549545 -111.715247 
L 355.089292 -111.759113 
L 353.587911 -111.802978 
L 352.057781 -111.846844 
L 350.512788 -111.890709 
L 348.968147 -111.934575 
L 347.440183 -111.97844 
L 345.946065 -112.022306 
L 344.503488 -112.066171 
L 343.13034 -112.110037 
L 341.844323 -112.153902 
L 340.662578 -112.197768 
L 339.601286 -112.241634 
L 338.675297 -112.285499 
L 337.897762 -112.329365 
L 337.279807 -112.37323 
L 336.830243 -112.417096 
L 336.555335 -112.460961 
L 336.458625 -112.504827 
L 336.540827 -112.548692 
L 336.799788 -112.592558 
L 337.230527 -112.636423 
L 337.825335 -112.680289 
L 338.573959 -112.724154 
L 339.463826 -112.76802 
L 340.480343 -112.811886 
L 341.607225 -112.855751 
L 342.826864 -112.899617 
L 344.120724 -112.943482 
L 345.469737 -112.987348 
L 346.854705 -113.031213 
L 348.256692 -113.075079 
L 349.657388 -113.118944 
L 351.039445 -113.16281 
L 352.386775 -113.206675 
L 353.684807 -113.250541 
L 354.92069 -113.294406 
L 356.083454 -113.338272 
L 357.164116 -113.382137 
L 358.155735 -113.426003 
L 359.053428 -113.469869 
L 359.854332 -113.513734 
L 360.557534 -113.5576 
L 361.163963 -113.601465 
L 361.67625 -113.645331 
L 362.098569 -113.689196 
L 362.436452 -113.733062 
L 362.696592 -113.776927 
L 362.886641 -113.820793 
L 363.014995 -113.864658 
L 363.090584 -113.908524 
L 363.122663 -113.952389 
L 363.120609 -113.996255 
L 363.093733 -114.04012 
L 363.051094 -114.083986 
L 363.001339 -114.127852 
L 362.952556 -114.171717 
L 362.912144 -114.215583 
L 362.886709 -114.259448 
L 362.881975 -114.303314 
L 362.902727 -114.347179 
L 362.952767 -114.391045 
L 363.034901 -114.43491 
L 363.150945 -114.478776 
L 363.301748 -114.522641 
L 363.487247 -114.566507 
L 363.706526 -114.610372 
L 363.957898 -114.654238 
L 364.239 -114.698103 
L 364.546895 -114.741969 
L 364.878182 -114.785835 
L 365.229109 -114.8297 
L 365.595686 -114.873566 
L 365.973798 -114.917431 
L 366.35931 -114.961297 
L 366.74816 -115.005162 
L 367.136452 -115.049028 
L 367.520529 -115.092893 
L 367.897036 -115.136759 
L 368.262967 -115.180624 
L 368.615706 -115.22449 
L 368.953044 -115.268355 
L 369.273189 -115.312221 
L 369.574767 -115.356086 
L 369.856806 -115.399952 
L 370.118716 -115.443818 
L 370.360261 -115.487683 
L 370.581521 -115.531549 
L 370.782857 -115.575414 
L 370.964871 -115.61928 
L 373.376379 -115.61928 
L 373.376379 -115.61928 
L 373.558393 -115.575414 
L 373.759729 -115.531549 
L 373.980989 -115.487683 
L 374.222534 -115.443818 
L 374.484444 -115.399952 
L 374.766483 -115.356086 
L 375.068061 -115.312221 
L 375.388206 -115.268355 
L 375.725544 -115.22449 
L 376.078283 -115.180624 
L 376.444214 -115.136759 
L 376.820721 -115.092893 
L 377.204798 -115.049028 
L 377.59309 -115.005162 
L 377.98194 -114.961297 
L 378.367452 -114.917431 
L 378.745564 -114.873566 
L 379.112141 -114.8297 
L 379.463068 -114.785835 
L 379.794355 -114.741969 
L 380.10225 -114.698103 
L 380.383352 -114.654238 
L 380.634724 -114.610372 
L 380.854003 -114.566507 
L 381.039502 -114.522641 
L 381.190305 -114.478776 
L 381.306349 -114.43491 
L 381.388483 -114.391045 
L 381.438523 -114.347179 
L 381.459275 -114.303314 
L 381.454541 -114.259448 
L 381.429106 -114.215583 
L 381.388694 -114.171717 
L 381.339911 -114.127852 
L 381.290156 -114.083986 
L 381.247517 -114.04012 
L 381.220641 -113.996255 
L 381.218587 -113.952389 
L 381.250666 -113.908524 
L 381.326255 -113.864658 
L 381.454609 -113.820793 
L 381.644658 -113.776927 
L 381.904798 -113.733062 
L 382.242681 -113.689196 
L 382.665 -113.645331 
L 383.177287 -113.601465 
L 383.783716 -113.5576 
L 384.486918 -113.513734 
L 385.287822 -113.469869 
L 386.185515 -113.426003 
L 387.177134 -113.382137 
L 388.257796 -113.338272 
L 389.42056 -113.294406 
L 390.656443 -113.250541 
L 391.954475 -113.206675 
L 393.301805 -113.16281 
L 394.683862 -113.118944 
L 396.084558 -113.075079 
L 397.486545 -113.031213 
L 398.871513 -112.987348 
L 400.220526 -112.943482 
L 401.514386 -112.899617 
L 402.734025 -112.855751 
L 403.860907 -112.811886 
L 404.877424 -112.76802 
L 405.767291 -112.724154 
L 406.515915 -112.680289 
L 407.110723 -112.636423 
L 407.541462 -112.592558 
L 407.800423 -112.548692 
L 407.882625 -112.504827 
L 407.785915 -112.460961 
L 407.511007 -112.417096 
L 407.061443 -112.37323 
L 406.443488 -112.329365 
L 405.665953 -112.285499 
L 404.739964 -112.241634 
L 403.678672 -112.197768 
L 402.496927 -112.153902 
L 401.21091 -112.110037 
L 399.837762 -112.066171 
L 398.395185 -112.022306 
L 396.901067 -111.97844 
L 395.373103 -111.934575 
L 393.828462 -111.890709 
L 392.283469 -111.846844 
L 390.753339 -111.802978 
L 389.251958 -111.759113 
L 387.791705 -111.715247 
L 386.383331 -111.671382 
L 385.035892 -111.627516 
L 383.756717 -111.583651 
L 382.551434 -111.539785 
L 381.424026 -111.495919 
L 380.376926 -111.452054 
L 379.411137 -111.408188 
L 378.526377 -111.364323 
L 377.72123 -111.320457 
L 376.993316 -111.276592 
z
" id="m14cf9451e1" style="stroke:#3f3f3f;stroke-width:1.5;"/>
    </defs>
    <g clip-path="url(#p6bd00f4aaf)">
     <use style="fill:#c03d3e;stroke:#3f3f3f;stroke-width:1.5;" x="0" xlink:href="#m14cf9451e1" y="355.523584"/>
    </g>
   </g>
   <g id="matplotlib.axis_1">
    <g id="xtick_1">
     <g id="line2d_1">
      <defs>
       <path d="M 0 0 
L 0 3.5 
" id="m33df810966" style="stroke:#000000;stroke-width:0.8;"/>
      </defs>
      <g>
       <use style="stroke:#000000;stroke-width:0.8;" x="104.330625" xlink:href="#m33df810966" y="288.430125"/>
      </g>
     </g>
     <g id="text_1">
      <!-- aflplusplus -->
      <g transform="translate(56.721618 328.897284)rotate(-30)scale(0.1 -0.1)">
       <defs>
        <path d="M 34.28125 27.484375 
Q 23.390625 27.484375 19.1875 25 
Q 14.984375 22.515625 14.984375 16.5 
Q 14.984375 11.71875 18.140625 8.90625 
Q 21.296875 6.109375 26.703125 6.109375 
Q 34.1875 6.109375 38.703125 11.40625 
Q 43.21875 16.703125 43.21875 25.484375 
L 43.21875 27.484375 
z
M 52.203125 31.203125 
L 52.203125 0 
L 43.21875 0 
L 43.21875 8.296875 
Q 40.140625 3.328125 35.546875 0.953125 
Q 30.953125 -1.421875 24.3125 -1.421875 
Q 15.921875 -1.421875 10.953125 3.296875 
Q 6 8.015625 6 15.921875 
Q 6 25.140625 12.171875 29.828125 
Q 18.359375 34.515625 30.609375 34.515625 
L 43.21875 34.515625 
L 43.21875 35.40625 
Q 43.21875 41.609375 39.140625 45 
Q 35.0625 48.390625 27.6875 48.390625 
Q 23 48.390625 18.546875 47.265625 
Q 14.109375 46.140625 10.015625 43.890625 
L 10.015625 52.203125 
Q 14.9375 54.109375 19.578125 55.046875 
Q 24.21875 56 28.609375 56 
Q 40.484375 56 46.34375 49.84375 
Q 52.203125 43.703125 52.203125 31.203125 
z
" id="DejaVuSans-97"/>
        <path d="M 37.109375 75.984375 
L 37.109375 68.5 
L 28.515625 68.5 
Q 23.6875 68.5 21.796875 66.546875 
Q 19.921875 64.59375 19.921875 59.515625 
L 19.921875 54.6875 
L 34.71875 54.6875 
L 34.71875 47.703125 
L 19.921875 47.703125 
L 19.921875 0 
L 10.890625 0 
L 10.890625 47.703125 
L 2.296875 47.703125 
L 2.296875 54.6875 
L 10.890625 54.6875 
L 10.890625 58.5 
Q 10.890625 67.625 15.140625 71.796875 
Q 19.390625 75.984375 28.609375 75.984375 
z
" id="DejaVuSans-102"/>
        <path d="M 9.421875 75.984375 
L 18.40625 75.984375 
L 18.40625 0 
L 9.421875 0 
z
" id="DejaVuSans-108"/>
        <path d="M 18.109375 8.203125 
L 18.109375 -20.796875 
L 9.078125 -20.796875 
L 9.078125 54.6875 
L 18.109375 54.6875 
L 18.109375 46.390625 
Q 20.953125 51.265625 25.265625 53.625 
Q 29.59375 56 35.59375 56 
Q 45.5625 56 51.78125 48.09375 
Q 58.015625 40.1875 58.015625 27.296875 
Q 58.015625 14.40625 51.78125 6.484375 
Q 45.5625 -1.421875 35.59375 -1.421875 
Q 29.59375 -1.421875 25.265625 0.953125 
Q 20.953125 3.328125 18.109375 8.203125 
z
M 48.6875 27.296875 
Q 48.6875 37.203125 44.609375 42.84375 
Q 40.53125 48.484375 33.40625 48.484375 
Q 26.265625 48.484375 22.1875 42.84375 
Q 18.109375 37.203125 18.109375 27.296875 
Q 18.109375 17.390625 22.1875 11.75 
Q 26.265625 6.109375 33.40625 6.109375 
Q 40.53125 6.109375 44.609375 11.75 
Q 48.6875 17.390625 48.6875 27.296875 
z
" id="DejaVuSans-112"/>
        <path d="M 8.5 21.578125 
L 8.5 54.6875 
L 17.484375 54.6875 
L 17.484375 21.921875 
Q 17.484375 14.15625 20.5 10.265625 
Q 23.53125 6.390625 29.59375 6.390625 
Q 36.859375 6.390625 41.078125 11.03125 
Q 45.3125 15.671875 45.3125 23.6875 
L 45.3125 54.6875 
L 54.296875 54.6875 
L 54.296875 0 
L 45.3125 0 
L 45.3125 8.40625 
Q 42.046875 3.421875 37.71875 1 
Q 33.40625 -1.421875 27.6875 -1.421875 
Q 18.265625 -1.421875 13.375 4.4375 
Q 8.5 10.296875 8.5 21.578125 
z
M 31.109375 56 
z
" id="DejaVuSans-117"/>
        <path d="M 44.28125 53.078125 
L 44.28125 44.578125 
Q 40.484375 46.53125 36.375 47.5 
Q 32.28125 48.484375 27.875 48.484375 
Q 21.1875 48.484375 17.84375 46.4375 
Q 14.5 44.390625 14.5 40.28125 
Q 14.5 37.15625 16.890625 35.375 
Q 19.28125 33.59375 26.515625 31.984375 
L 29.59375 31.296875 
Q 39.15625 29.25 43.1875 25.515625 
Q 47.21875 21.78125 47.21875 15.09375 
Q 47.21875 7.46875 41.1875 3.015625 
Q 35.15625 -1.421875 24.609375 -1.421875 
Q 20.21875 -1.421875 15.453125 -0.5625 
Q 10.6875 0.296875 5.421875 2 
L 5.421875 11.28125 
Q 10.40625 8.6875 15.234375 7.390625 
Q 20.0625 6.109375 24.8125 6.109375 
Q 31.15625 6.109375 34.5625 8.28125 
Q 37.984375 10.453125 37.984375 14.40625 
Q 37.984375 18.0625 35.515625 20.015625 
Q 33.0625 21.96875 24.703125 23.78125 
L 21.578125 24.515625 
Q 13.234375 26.265625 9.515625 29.90625 
Q 5.8125 33.546875 5.8125 39.890625 
Q 5.8125 47.609375 11.28125 51.796875 
Q 16.75 56 26.8125 56 
Q 31.78125 56 36.171875 55.265625 
Q 40.578125 54.546875 44.28125 53.078125 
z
" id="DejaVuSans-115"/>
       </defs>
       <use xlink:href="#DejaVuSans-97"/>
       <use x="61.279297" xlink:href="#DejaVuSans-102"/>
       <use x="96.484375" xlink:href="#DejaVuSans-108"/>
       <use x="124.267578" xlink:href="#DejaVuSans-112"/>
       <use x="187.744141" xlink:href="#DejaVuSans-108"/>
       <use x="215.527344" xlink:href="#DejaVuSans-117"/>
       <use x="278.90625" xlink:href="#DejaVuSans-115"/>
       <use x="331.005859" xlink:href="#DejaVuSans-112"/>
       <use x="394.482422" xlink:href="#DejaVuSans-108"/>
       <use x="422.265625" xlink:href="#DejaVuSans-117"/>
       <use x="485.644531" xlink:href="#DejaVuSans-115"/>
      </g>
     </g>
    </g>
    <g id="xtick_2">
     <g id="line2d_2">
      <g>
       <use style="stroke:#000000;stroke-width:0.8;" x="193.610625" xlink:href="#m33df810966" y="288.430125"/>
      </g>
     </g>
     <g id="text_2">
      <!-- honggfuzz -->
      <g transform="translate(147.671424 327.933221)rotate(-30)scale(0.1 -0.1)">
       <defs>
        <path d="M 54.890625 33.015625 
L 54.890625 0 
L 45.90625 0 
L 45.90625 32.71875 
Q 45.90625 40.484375 42.875 44.328125 
Q 39.84375 48.1875 33.796875 48.1875 
Q 26.515625 48.1875 22.3125 43.546875 
Q 18.109375 38.921875 18.109375 30.90625 
L 18.109375 0 
L 9.078125 0 
L 9.078125 75.984375 
L 18.109375 75.984375 
L 18.109375 46.1875 
Q 21.34375 51.125 25.703125 53.5625 
Q 30.078125 56 35.796875 56 
Q 45.21875 56 50.046875 50.171875 
Q 54.890625 44.34375 54.890625 33.015625 
z
" id="DejaVuSans-104"/>
        <path d="M 30.609375 48.390625 
Q 23.390625 48.390625 19.1875 42.75 
Q 14.984375 37.109375 14.984375 27.296875 
Q 14.984375 17.484375 19.15625 11.84375 
Q 23.34375 6.203125 30.609375 6.203125 
Q 37.796875 6.203125 41.984375 11.859375 
Q 46.1875 17.53125 46.1875 27.296875 
Q 46.1875 37.015625 41.984375 42.703125 
Q 37.796875 48.390625 30.609375 48.390625 
z
M 30.609375 56 
Q 42.328125 56 49.015625 48.375 
Q 55.71875 40.765625 55.71875 27.296875 
Q 55.71875 13.875 49.015625 6.21875 
Q 42.328125 -1.421875 30.609375 -1.421875 
Q 18.84375 -1.421875 12.171875 6.21875 
Q 5.515625 13.875 5.515625 27.296875 
Q 5.515625 40.765625 12.171875 48.375 
Q 18.84375 56 30.609375 56 
z
" id="DejaVuSans-111"/>
        <path d="M 54.890625 33.015625 
L 54.890625 0 
L 45.90625 0 
L 45.90625 32.71875 
Q 45.90625 40.484375 42.875 44.328125 
Q 39.84375 48.1875 33.796875 48.1875 
Q 26.515625 48.1875 22.3125 43.546875 
Q 18.109375 38.921875 18.109375 30.90625 
L 18.109375 0 
L 9.078125 0 
L 9.078125 54.6875 
L 18.109375 54.6875 
L 18.109375 46.1875 
Q 21.34375 51.125 25.703125 53.5625 
Q 30.078125 56 35.796875 56 
Q 45.21875 56 50.046875 50.171875 
Q 54.890625 44.34375 54.890625 33.015625 
z
" id="DejaVuSans-110"/>
        <path d="M 45.40625 27.984375 
Q 45.40625 37.75 41.375 43.109375 
Q 37.359375 48.484375 30.078125 48.484375 
Q 22.859375 48.484375 18.828125 43.109375 
Q 14.796875 37.75 14.796875 27.984375 
Q 14.796875 18.265625 18.828125 12.890625 
Q 22.859375 7.515625 30.078125 7.515625 
Q 37.359375 7.515625 41.375 12.890625 
Q 45.40625 18.265625 45.40625 27.984375 
z
M 54.390625 6.78125 
Q 54.390625 -7.171875 48.1875 -13.984375 
Q 42 -20.796875 29.203125 -20.796875 
Q 24.46875 -20.796875 20.265625 -20.09375 
Q 16.0625 -19.390625 12.109375 -17.921875 
L 12.109375 -9.1875 
Q 16.0625 -11.328125 19.921875 -12.34375 
Q 23.78125 -13.375 27.78125 -13.375 
Q 36.625 -13.375 41.015625 -8.765625 
Q 45.40625 -4.15625 45.40625 5.171875 
L 45.40625 9.625 
Q 42.625 4.78125 38.28125 2.390625 
Q 33.9375 0 27.875 0 
Q 17.828125 0 11.671875 7.65625 
Q 5.515625 15.328125 5.515625 27.984375 
Q 5.515625 40.671875 11.671875 48.328125 
Q 17.828125 56 27.875 56 
Q 33.9375 56 38.28125 53.609375 
Q 42.625 51.21875 45.40625 46.390625 
L 45.40625 54.6875 
L 54.390625 54.6875 
z
" id="DejaVuSans-103"/>
        <path d="M 5.515625 54.6875 
L 48.1875 54.6875 
L 48.1875 46.484375 
L 14.40625 7.171875 
L 48.1875 7.171875 
L 48.1875 0 
L 4.296875 0 
L 4.296875 8.203125 
L 38.09375 47.515625 
L 5.515625 47.515625 
z
" id="DejaVuSans-122"/>
       </defs>
       <use xlink:href="#DejaVuSans-104"/>
       <use x="63.378906" xlink:href="#DejaVuSans-111"/>
       <use x="124.560547" xlink:href="#DejaVuSans-110"/>
       <use x="187.939453" xlink:href="#DejaVuSans-103"/>
       <use x="251.416016" xlink:href="#DejaVuSans-103"/>
       <use x="314.892578" xlink:href="#DejaVuSans-102"/>
       <use x="350.097656" xlink:href="#DejaVuSans-117"/>
       <use x="413.476562" xlink:href="#DejaVuSans-122"/>
       <use x="465.966797" xlink:href="#DejaVuSans-122"/>
      </g>
     </g>
    </g>
    <g id="xtick_3">
     <g id="line2d_3">
      <g>
       <use style="stroke:#000000;stroke-width:0.8;" x="282.890625" xlink:href="#m33df810966" y="288.430125"/>
      </g>
     </g>
     <g id="text_3">
      <!-- weizz_qemu -->
      <g transform="translate(228.723143 332.603534)rotate(-30)scale(0.1 -0.1)">
       <defs>
        <path d="M 4.203125 54.6875 
L 13.1875 54.6875 
L 24.421875 12.015625 
L 35.59375 54.6875 
L 46.1875 54.6875 
L 57.421875 12.015625 
L 68.609375 54.6875 
L 77.59375 54.6875 
L 63.28125 0 
L 52.6875 0 
L 40.921875 44.828125 
L 29.109375 0 
L 18.5 0 
z
" id="DejaVuSans-119"/>
        <path d="M 56.203125 29.59375 
L 56.203125 25.203125 
L 14.890625 25.203125 
Q 15.484375 15.921875 20.484375 11.0625 
Q 25.484375 6.203125 34.421875 6.203125 
Q 39.59375 6.203125 44.453125 7.46875 
Q 49.3125 8.734375 54.109375 11.28125 
L 54.109375 2.78125 
Q 49.265625 0.734375 44.1875 -0.34375 
Q 39.109375 -1.421875 33.890625 -1.421875 
Q 20.796875 -1.421875 13.15625 6.1875 
Q 5.515625 13.8125 5.515625 26.8125 
Q 5.515625 40.234375 12.765625 48.109375 
Q 20.015625 56 32.328125 56 
Q 43.359375 56 49.78125 48.890625 
Q 56.203125 41.796875 56.203125 29.59375 
z
M 47.21875 32.234375 
Q 47.125 39.59375 43.09375 43.984375 
Q 39.0625 48.390625 32.421875 48.390625 
Q 24.90625 48.390625 20.390625 44.140625 
Q 15.875 39.890625 15.1875 32.171875 
z
" id="DejaVuSans-101"/>
        <path d="M 9.421875 54.6875 
L 18.40625 54.6875 
L 18.40625 0 
L 9.421875 0 
z
M 9.421875 75.984375 
L 18.40625 75.984375 
L 18.40625 64.59375 
L 9.421875 64.59375 
z
" id="DejaVuSans-105"/>
        <path d="M 50.984375 -16.609375 
L 50.984375 -23.578125 
L -0.984375 -23.578125 
L -0.984375 -16.609375 
z
" id="DejaVuSans-95"/>
        <path d="M 14.796875 27.296875 
Q 14.796875 17.390625 18.875 11.75 
Q 22.953125 6.109375 30.078125 6.109375 
Q 37.203125 6.109375 41.296875 11.75 
Q 45.40625 17.390625 45.40625 27.296875 
Q 45.40625 37.203125 41.296875 42.84375 
Q 37.203125 48.484375 30.078125 48.484375 
Q 22.953125 48.484375 18.875 42.84375 
Q 14.796875 37.203125 14.796875 27.296875 
z
M 45.40625 8.203125 
Q 42.578125 3.328125 38.25 0.953125 
Q 33.9375 -1.421875 27.875 -1.421875 
Q 17.96875 -1.421875 11.734375 6.484375 
Q 5.515625 14.40625 5.515625 27.296875 
Q 5.515625 40.1875 11.734375 48.09375 
Q 17.96875 56 27.875 56 
Q 33.9375 56 38.25 53.625 
Q 42.578125 51.265625 45.40625 46.390625 
L 45.40625 54.6875 
L 54.390625 54.6875 
L 54.390625 -20.796875 
L 45.40625 -20.796875 
z
" id="DejaVuSans-113"/>
        <path d="M 52 44.1875 
Q 55.375 50.25 60.0625 53.125 
Q 64.75 56 71.09375 56 
Q 79.640625 56 84.28125 50.015625 
Q 88.921875 44.046875 88.921875 33.015625 
L 88.921875 0 
L 79.890625 0 
L 79.890625 32.71875 
Q 79.890625 40.578125 77.09375 44.375 
Q 74.3125 48.1875 68.609375 48.1875 
Q 61.625 48.1875 57.5625 43.546875 
Q 53.515625 38.921875 53.515625 30.90625 
L 53.515625 0 
L 44.484375 0 
L 44.484375 32.71875 
Q 44.484375 40.625 41.703125 44.40625 
Q 38.921875 48.1875 33.109375 48.1875 
Q 26.21875 48.1875 22.15625 43.53125 
Q 18.109375 38.875 18.109375 30.90625 
L 18.109375 0 
L 9.078125 0 
L 9.078125 54.6875 
L 18.109375 54.6875 
L 18.109375 46.1875 
Q 21.1875 51.21875 25.484375 53.609375 
Q 29.78125 56 35.6875 56 
Q 41.65625 56 45.828125 52.96875 
Q 50 49.953125 52 44.1875 
z
" id="DejaVuSans-109"/>
       </defs>
       <use xlink:href="#DejaVuSans-119"/>
       <use x="81.787109" xlink:href="#DejaVuSans-101"/>
       <use x="143.310547" xlink:href="#DejaVuSans-105"/>
       <use x="171.09375" xlink:href="#DejaVuSans-122"/>
       <use x="223.583984" xlink:href="#DejaVuSans-122"/>
       <use x="276.074219" xlink:href="#DejaVuSans-95"/>
       <use x="326.074219" xlink:href="#DejaVuSans-113"/>
       <use x="389.550781" xlink:href="#DejaVuSans-101"/>
       <use x="451.074219" xlink:href="#DejaVuSans-109"/>
       <use x="548.486328" xlink:href="#DejaVuSans-117"/>
      </g>
     </g>
    </g>
    <g id="xtick_4">
     <g id="line2d_4">
      <g>
       <use style="stroke:#000000;stroke-width:0.8;" x="372.170625" xlink:href="#m33df810966" y="288.430125"/>
      </g>
     </g>
     <g id="text_4">
      <!-- kirenenko -->
      <g transform="translate(328.710421 326.501971)rotate(-30)scale(0.1 -0.1)">
       <defs>
        <path d="M 9.078125 75.984375 
L 18.109375 75.984375 
L 18.109375 31.109375 
L 44.921875 54.6875 
L 56.390625 54.6875 
L 27.390625 29.109375 
L 57.625 0 
L 45.90625 0 
L 18.109375 26.703125 
L 18.109375 0 
L 9.078125 0 
z
" id="DejaVuSans-107"/>
        <path d="M 41.109375 46.296875 
Q 39.59375 47.171875 37.8125 47.578125 
Q 36.03125 48 33.890625 48 
Q 26.265625 48 22.1875 43.046875 
Q 18.109375 38.09375 18.109375 28.8125 
L 18.109375 0 
L 9.078125 0 
L 9.078125 54.6875 
L 18.109375 54.6875 
L 18.109375 46.1875 
Q 20.953125 51.171875 25.484375 53.578125 
Q 30.03125 56 36.53125 56 
Q 37.453125 56 38.578125 55.875 
Q 39.703125 55.765625 41.0625 55.515625 
z
" id="DejaVuSans-114"/>
       </defs>
       <use xlink:href="#DejaVuSans-107"/>
       <use x="57.910156" xlink:href="#DejaVuSans-105"/>
       <use x="85.693359" xlink:href="#DejaVuSans-114"/>
       <use x="124.556641" xlink:href="#DejaVuSans-101"/>
       <use x="186.080078" xlink:href="#DejaVuSans-110"/>
       <use x="249.458984" xlink:href="#DejaVuSans-101"/>
       <use x="310.982422" xlink:href="#DejaVuSans-110"/>
       <use x="374.361328" xlink:href="#DejaVuSans-107"/>
       <use x="428.646484" xlink:href="#DejaVuSans-111"/>
      </g>
     </g>
    </g>
    <g id="text_5">
     <!-- Fuzzer (highest median coverage on the left) -->
     <g transform="translate(125.632656 346.243897)scale(0.1 -0.1)">
      <defs>
       <path d="M 9.8125 72.90625 
L 51.703125 72.90625 
L 51.703125 64.59375 
L 19.671875 64.59375 
L 19.671875 43.109375 
L 48.578125 43.109375 
L 48.578125 34.8125 
L 19.671875 34.8125 
L 19.671875 0 
L 9.8125 0 
z
" id="DejaVuSans-70"/>
       <path id="DejaVuSans-32"/>
       <path d="M 31 75.875 
Q 24.46875 64.65625 21.28125 53.65625 
Q 18.109375 42.671875 18.109375 31.390625 
Q 18.109375 20.125 21.3125 9.0625 
Q 24.515625 -2 31 -13.1875 
L 23.1875 -13.1875 
Q 15.875 -1.703125 12.234375 9.375 
Q 8.59375 20.453125 8.59375 31.390625 
Q 8.59375 42.28125 12.203125 53.3125 
Q 15.828125 64.359375 23.1875 75.875 
z
" id="DejaVuSans-40"/>
       <path d="M 18.3125 70.21875 
L 18.3125 54.6875 
L 36.8125 54.6875 
L 36.8125 47.703125 
L 18.3125 47.703125 
L 18.3125 18.015625 
Q 18.3125 11.328125 20.140625 9.421875 
Q 21.96875 7.515625 27.59375 7.515625 
L 36.8125 7.515625 
L 36.8125 0 
L 27.59375 0 
Q 17.1875 0 13.234375 3.875 
Q 9.28125 7.765625 9.28125 18.015625 
L 9.28125 47.703125 
L 2.6875 47.703125 
L 2.6875 54.6875 
L 9.28125 54.6875 
L 9.28125 70.21875 
z
" id="DejaVuSans-116"/>
       <path d="M 45.40625 46.390625 
L 45.40625 75.984375 
L 54.390625 75.984375 
L 54.390625 0 
L 45.40625 0 
L 45.40625 8.203125 
Q 42.578125 3.328125 38.25 0.953125 
Q 33.9375 -1.421875 27.875 -1.421875 
Q 17.96875 -1.421875 11.734375 6.484375 
Q 5.515625 14.40625 5.515625 27.296875 
Q 5.515625 40.1875 11.734375 48.09375 
Q 17.96875 56 27.875 56 
Q 33.9375 56 38.25 53.625 
Q 42.578125 51.265625 45.40625 46.390625 
z
M 14.796875 27.296875 
Q 14.796875 17.390625 18.875 11.75 
Q 22.953125 6.109375 30.078125 6.109375 
Q 37.203125 6.109375 41.296875 11.75 
Q 45.40625 17.390625 45.40625 27.296875 
Q 45.40625 37.203125 41.296875 42.84375 
Q 37.203125 48.484375 30.078125 48.484375 
Q 22.953125 48.484375 18.875 42.84375 
Q 14.796875 37.203125 14.796875 27.296875 
z
" id="DejaVuSans-100"/>
       <path d="M 48.78125 52.59375 
L 48.78125 44.1875 
Q 44.96875 46.296875 41.140625 47.34375 
Q 37.3125 48.390625 33.40625 48.390625 
Q 24.65625 48.390625 19.8125 42.84375 
Q 14.984375 37.3125 14.984375 27.296875 
Q 14.984375 17.28125 19.8125 11.734375 
Q 24.65625 6.203125 33.40625 6.203125 
Q 37.3125 6.203125 41.140625 7.25 
Q 44.96875 8.296875 48.78125 10.40625 
L 48.78125 2.09375 
Q 45.015625 0.34375 40.984375 -0.53125 
Q 36.96875 -1.421875 32.421875 -1.421875 
Q 20.0625 -1.421875 12.78125 6.34375 
Q 5.515625 14.109375 5.515625 27.296875 
Q 5.515625 40.671875 12.859375 48.328125 
Q 20.21875 56 33.015625 56 
Q 37.15625 56 41.109375 55.140625 
Q 45.0625 54.296875 48.78125 52.59375 
z
" id="DejaVuSans-99"/>
       <path d="M 2.984375 54.6875 
L 12.5 54.6875 
L 29.59375 8.796875 
L 46.6875 54.6875 
L 56.203125 54.6875 
L 35.6875 0 
L 23.484375 0 
z
" id="DejaVuSans-118"/>
       <path d="M 8.015625 75.875 
L 15.828125 75.875 
Q 23.140625 64.359375 26.78125 53.3125 
Q 30.421875 42.28125 30.421875 31.390625 
Q 30.421875 20.453125 26.78125 9.375 
Q 23.140625 -1.703125 15.828125 -13.1875 
L 8.015625 -13.1875 
Q 14.5 -2 17.703125 9.0625 
Q 20.90625 20.125 20.90625 31.390625 
Q 20.90625 42.671875 17.703125 53.65625 
Q 14.5 64.65625 8.015625 75.875 
z
" id="DejaVuSans-41"/>
      </defs>
      <use xlink:href="#DejaVuSans-70"/>
      <use x="52.019531" xlink:href="#DejaVuSans-117"/>
      <use x="115.398438" xlink:href="#DejaVuSans-122"/>
      <use x="167.888672" xlink:href="#DejaVuSans-122"/>
      <use x="220.378906" xlink:href="#DejaVuSans-101"/>
      <use x="281.902344" xlink:href="#DejaVuSans-114"/>
      <use x="323.015625" xlink:href="#DejaVuSans-32"/>
      <use x="354.802734" xlink:href="#DejaVuSans-40"/>
      <use x="393.816406" xlink:href="#DejaVuSans-104"/>
      <use x="457.195312" xlink:href="#DejaVuSans-105"/>
      <use x="484.978516" xlink:href="#DejaVuSans-103"/>
      <use x="548.455078" xlink:href="#DejaVuSans-104"/>
      <use x="611.833984" xlink:href="#DejaVuSans-101"/>
      <use x="673.357422" xlink:href="#DejaVuSans-115"/>
      <use x="725.457031" xlink:href="#DejaVuSans-116"/>
      <use x="764.666016" xlink:href="#DejaVuSans-32"/>
      <use x="796.453125" xlink:href="#DejaVuSans-109"/>
      <use x="893.865234" xlink:href="#DejaVuSans-101"/>
      <use x="955.388672" xlink:href="#DejaVuSans-100"/>
      <use x="1018.865234" xlink:href="#DejaVuSans-105"/>
      <use x="1046.648438" xlink:href="#DejaVuSans-97"/>
      <use x="1107.927734" xlink:href="#DejaVuSans-110"/>
      <use x="1171.306641" xlink:href="#DejaVuSans-32"/>
      <use x="1203.09375" xlink:href="#DejaVuSans-99"/>
      <use x="1258.074219" xlink:href="#DejaVuSans-111"/>
      <use x="1319.255859" xlink:href="#DejaVuSans-118"/>
      <use x="1378.435547" xlink:href="#DejaVuSans-101"/>
      <use x="1439.958984" xlink:href="#DejaVuSans-114"/>
      <use x="1481.072266" xlink:href="#DejaVuSans-97"/>
      <use x="1542.351562" xlink:href="#DejaVuSans-103"/>
      <use x="1605.828125" xlink:href="#DejaVuSans-101"/>
      <use x="1667.351562" xlink:href="#DejaVuSans-32"/>
      <use x="1699.138672" xlink:href="#DejaVuSans-111"/>
      <use x="1760.320312" xlink:href="#DejaVuSans-110"/>
      <use x="1823.699219" xlink:href="#DejaVuSans-32"/>
      <use x="1855.486328" xlink:href="#DejaVuSans-116"/>
      <use x="1894.695312" xlink:href="#DejaVuSans-104"/>
      <use x="1958.074219" xlink:href="#DejaVuSans-101"/>
      <use x="2019.597656" xlink:href="#DejaVuSans-32"/>
      <use x="2051.384766" xlink:href="#DejaVuSans-108"/>
      <use x="2079.167969" xlink:href="#DejaVuSans-101"/>
      <use x="2140.691406" xlink:href="#DejaVuSans-102"/>
      <use x="2174.146484" xlink:href="#DejaVuSans-116"/>
      <use x="2213.355469" xlink:href="#DejaVuSans-41"/>
     </g>
    </g>
   </g>
   <g id="matplotlib.axis_2">
    <g id="ytick_1">
     <g id="line2d_5">
      <defs>
       <path d="M 0 0 
L -3.5 0 
" id="m28ebe48000" style="stroke:#000000;stroke-width:0.8;"/>
      </defs>
      <g>
       <use style="stroke:#000000;stroke-width:0.8;" x="59.690625" xlink:href="#m28ebe48000" y="286.182803"/>
      </g>
     </g>
     <g id="text_6">
      <!-- 6000 -->
      <g transform="translate(27.240625 289.982022)scale(0.1 -0.1)">
       <defs>
        <path d="M 33.015625 40.375 
Q 26.375 40.375 22.484375 35.828125 
Q 18.609375 31.296875 18.609375 23.390625 
Q 18.609375 15.53125 22.484375 10.953125 
Q 26.375 6.390625 33.015625 6.390625 
Q 39.65625 6.390625 43.53125 10.953125 
Q 47.40625 15.53125 47.40625 23.390625 
Q 47.40625 31.296875 43.53125 35.828125 
Q 39.65625 40.375 33.015625 40.375 
z
M 52.59375 71.296875 
L 52.59375 62.3125 
Q 48.875 64.0625 45.09375 64.984375 
Q 41.3125 65.921875 37.59375 65.921875 
Q 27.828125 65.921875 22.671875 59.328125 
Q 17.53125 52.734375 16.796875 39.40625 
Q 19.671875 43.65625 24.015625 45.921875 
Q 28.375 48.1875 33.59375 48.1875 
Q 44.578125 48.1875 50.953125 41.515625 
Q 57.328125 34.859375 57.328125 23.390625 
Q 57.328125 12.15625 50.6875 5.359375 
Q 44.046875 -1.421875 33.015625 -1.421875 
Q 20.359375 -1.421875 13.671875 8.265625 
Q 6.984375 17.96875 6.984375 36.375 
Q 6.984375 53.65625 15.1875 63.9375 
Q 23.390625 74.21875 37.203125 74.21875 
Q 40.921875 74.21875 44.703125 73.484375 
Q 48.484375 72.75 52.59375 71.296875 
z
" id="DejaVuSans-54"/>
        <path d="M 31.78125 66.40625 
Q 24.171875 66.40625 20.328125 58.90625 
Q 16.5 51.421875 16.5 36.375 
Q 16.5 21.390625 20.328125 13.890625 
Q 24.171875 6.390625 31.78125 6.390625 
Q 39.453125 6.390625 43.28125 13.890625 
Q 47.125 21.390625 47.125 36.375 
Q 47.125 51.421875 43.28125 58.90625 
Q 39.453125 66.40625 31.78125 66.40625 
z
M 31.78125 74.21875 
Q 44.046875 74.21875 50.515625 64.515625 
Q 56.984375 54.828125 56.984375 36.375 
Q 56.984375 17.96875 50.515625 8.265625 
Q 44.046875 -1.421875 31.78125 -1.421875 
Q 19.53125 -1.421875 13.0625 8.265625 
Q 6.59375 17.96875 6.59375 36.375 
Q 6.59375 54.828125 13.0625 64.515625 
Q 19.53125 74.21875 31.78125 74.21875 
z
" id="DejaVuSans-48"/>
       </defs>
       <use xlink:href="#DejaVuSans-54"/>
       <use x="63.623047" xlink:href="#DejaVuSans-48"/>
       <use x="127.246094" xlink:href="#DejaVuSans-48"/>
       <use x="190.869141" xlink:href="#DejaVuSans-48"/>
      </g>
     </g>
    </g>
    <g id="ytick_2">
     <g id="line2d_6">
      <g>
       <use style="stroke:#000000;stroke-width:0.8;" x="59.690625" xlink:href="#m28ebe48000" y="238.908254"/>
      </g>
     </g>
     <g id="text_7">
      <!-- 7000 -->
      <g transform="translate(27.240625 242.707472)scale(0.1 -0.1)">
       <defs>
        <path d="M 8.203125 72.90625 
L 55.078125 72.90625 
L 55.078125 68.703125 
L 28.609375 0 
L 18.3125 0 
L 43.21875 64.59375 
L 8.203125 64.59375 
z
" id="DejaVuSans-55"/>
       </defs>
       <use xlink:href="#DejaVuSans-55"/>
       <use x="63.623047" xlink:href="#DejaVuSans-48"/>
       <use x="127.246094" xlink:href="#DejaVuSans-48"/>
       <use x="190.869141" xlink:href="#DejaVuSans-48"/>
      </g>
     </g>
    </g>
    <g id="ytick_3">
     <g id="line2d_7">
      <g>
       <use style="stroke:#000000;stroke-width:0.8;" x="59.690625" xlink:href="#m28ebe48000" y="191.633704"/>
      </g>
     </g>
     <g id="text_8">
      <!-- 8000 -->
      <g transform="translate(27.240625 195.432923)scale(0.1 -0.1)">
       <defs>
        <path d="M 31.78125 34.625 
Q 24.75 34.625 20.71875 30.859375 
Q 16.703125 27.09375 16.703125 20.515625 
Q 16.703125 13.921875 20.71875 10.15625 
Q 24.75 6.390625 31.78125 6.390625 
Q 38.8125 6.390625 42.859375 10.171875 
Q 46.921875 13.96875 46.921875 20.515625 
Q 46.921875 27.09375 42.890625 30.859375 
Q 38.875 34.625 31.78125 34.625 
z
M 21.921875 38.8125 
Q 15.578125 40.375 12.03125 44.71875 
Q 8.5 49.078125 8.5 55.328125 
Q 8.5 64.0625 14.71875 69.140625 
Q 20.953125 74.21875 31.78125 74.21875 
Q 42.671875 74.21875 48.875 69.140625 
Q 55.078125 64.0625 55.078125 55.328125 
Q 55.078125 49.078125 51.53125 44.71875 
Q 48 40.375 41.703125 38.8125 
Q 48.828125 37.15625 52.796875 32.3125 
Q 56.78125 27.484375 56.78125 20.515625 
Q 56.78125 9.90625 50.3125 4.234375 
Q 43.84375 -1.421875 31.78125 -1.421875 
Q 19.734375 -1.421875 13.25 4.234375 
Q 6.78125 9.90625 6.78125 20.515625 
Q 6.78125 27.484375 10.78125 32.3125 
Q 14.796875 37.15625 21.921875 38.8125 
z
M 18.3125 54.390625 
Q 18.3125 48.734375 21.84375 45.5625 
Q 25.390625 42.390625 31.78125 42.390625 
Q 38.140625 42.390625 41.71875 45.5625 
Q 45.3125 48.734375 45.3125 54.390625 
Q 45.3125 60.0625 41.71875 63.234375 
Q 38.140625 66.40625 31.78125 66.40625 
Q 25.390625 66.40625 21.84375 63.234375 
Q 18.3125 60.0625 18.3125 54.390625 
z
" id="DejaVuSans-56"/>
       </defs>
       <use xlink:href="#DejaVuSans-56"/>
       <use x="63.623047" xlink:href="#DejaVuSans-48"/>
       <use x="127.246094" xlink:href="#DejaVuSans-48"/>
       <use x="190.869141" xlink:href="#DejaVuSans-48"/>
      </g>
     </g>
    </g>
    <g id="ytick_4">
     <g id="line2d_8">
      <g>
       <use style="stroke:#000000;stroke-width:0.8;" x="59.690625" xlink:href="#m28ebe48000" y="144.359155"/>
      </g>
     </g>
     <g id="text_9">
      <!-- 9000 -->
      <g transform="translate(27.240625 148.158374)scale(0.1 -0.1)">
       <defs>
        <path d="M 10.984375 1.515625 
L 10.984375 10.5 
Q 14.703125 8.734375 18.5 7.8125 
Q 22.3125 6.890625 25.984375 6.890625 
Q 35.75 6.890625 40.890625 13.453125 
Q 46.046875 20.015625 46.78125 33.40625 
Q 43.953125 29.203125 39.59375 26.953125 
Q 35.25 24.703125 29.984375 24.703125 
Q 19.046875 24.703125 12.671875 31.3125 
Q 6.296875 37.9375 6.296875 49.421875 
Q 6.296875 60.640625 12.9375 67.421875 
Q 19.578125 74.21875 30.609375 74.21875 
Q 43.265625 74.21875 49.921875 64.515625 
Q 56.59375 54.828125 56.59375 36.375 
Q 56.59375 19.140625 48.40625 8.859375 
Q 40.234375 -1.421875 26.421875 -1.421875 
Q 22.703125 -1.421875 18.890625 -0.6875 
Q 15.09375 0.046875 10.984375 1.515625 
z
M 30.609375 32.421875 
Q 37.25 32.421875 41.125 36.953125 
Q 45.015625 41.5 45.015625 49.421875 
Q 45.015625 57.28125 41.125 61.84375 
Q 37.25 66.40625 30.609375 66.40625 
Q 23.96875 66.40625 20.09375 61.84375 
Q 16.21875 57.28125 16.21875 49.421875 
Q 16.21875 41.5 20.09375 36.953125 
Q 23.96875 32.421875 30.609375 32.421875 
z
" id="DejaVuSans-57"/>
       </defs>
       <use xlink:href="#DejaVuSans-57"/>
       <use x="63.623047" xlink:href="#DejaVuSans-48"/>
       <use x="127.246094" xlink:href="#DejaVuSans-48"/>
       <use x="190.869141" xlink:href="#DejaVuSans-48"/>
      </g>
     </g>
    </g>
    <g id="ytick_5">
     <g id="line2d_9">
      <g>
       <use style="stroke:#000000;stroke-width:0.8;" x="59.690625" xlink:href="#m28ebe48000" y="97.084606"/>
      </g>
     </g>
     <g id="text_10">
      <!-- 10000 -->
      <g transform="translate(20.878125 100.883824)scale(0.1 -0.1)">
       <defs>
        <path d="M 12.40625 8.296875 
L 28.515625 8.296875 
L 28.515625 63.921875 
L 10.984375 60.40625 
L 10.984375 69.390625 
L 28.421875 72.90625 
L 38.28125 72.90625 
L 38.28125 8.296875 
L 54.390625 8.296875 
L 54.390625 0 
L 12.40625 0 
z
" id="DejaVuSans-49"/>
       </defs>
       <use xlink:href="#DejaVuSans-49"/>
       <use x="63.623047" xlink:href="#DejaVuSans-48"/>
       <use x="127.246094" xlink:href="#DejaVuSans-48"/>
       <use x="190.869141" xlink:href="#DejaVuSans-48"/>
       <use x="254.492188" xlink:href="#DejaVuSans-48"/>
      </g>
     </g>
    </g>
    <g id="ytick_6">
     <g id="line2d_10">
      <g>
       <use style="stroke:#000000;stroke-width:0.8;" x="59.690625" xlink:href="#m28ebe48000" y="49.810056"/>
      </g>
     </g>
     <g id="text_11">
      <!-- 11000 -->
      <g transform="translate(20.878125 53.609275)scale(0.1 -0.1)">
       <use xlink:href="#DejaVuSans-49"/>
       <use x="63.623047" xlink:href="#DejaVuSans-49"/>
       <use x="127.246094" xlink:href="#DejaVuSans-48"/>
       <use x="190.869141" xlink:href="#DejaVuSans-48"/>
       <use x="254.492188" xlink:href="#DejaVuSans-48"/>
      </g>
     </g>
    </g>
    <g id="text_12">
     <!-- Reached region coverage -->
     <g transform="translate(14.798438 219.136625)rotate(-90)scale(0.1 -0.1)">
      <defs>
       <path d="M 44.390625 34.1875 
Q 47.5625 33.109375 50.5625 29.59375 
Q 53.5625 26.078125 56.59375 19.921875 
L 66.609375 0 
L 56 0 
L 46.6875 18.703125 
Q 43.0625 26.03125 39.671875 28.421875 
Q 36.28125 30.8125 30.421875 30.8125 
L 19.671875 30.8125 
L 19.671875 0 
L 9.8125 0 
L 9.8125 72.90625 
L 32.078125 72.90625 
Q 44.578125 72.90625 50.734375 67.671875 
Q 56.890625 62.453125 56.890625 51.90625 
Q 56.890625 45.015625 53.6875 40.46875 
Q 50.484375 35.9375 44.390625 34.1875 
z
M 19.671875 64.796875 
L 19.671875 38.921875 
L 32.078125 38.921875 
Q 39.203125 38.921875 42.84375 42.21875 
Q 46.484375 45.515625 46.484375 51.90625 
Q 46.484375 58.296875 42.84375 61.546875 
Q 39.203125 64.796875 32.078125 64.796875 
z
" id="DejaVuSans-82"/>
      </defs>
      <use xlink:href="#DejaVuSans-82"/>
      <use x="64.982422" xlink:href="#DejaVuSans-101"/>
      <use x="126.505859" xlink:href="#DejaVuSans-97"/>
      <use x="187.785156" xlink:href="#DejaVuSans-99"/>
      <use x="242.765625" xlink:href="#DejaVuSans-104"/>
      <use x="306.144531" xlink:href="#DejaVuSans-101"/>
      <use x="367.667969" xlink:href="#DejaVuSans-100"/>
      <use x="431.144531" xlink:href="#DejaVuSans-32"/>
      <use x="462.931641" xlink:href="#DejaVuSans-114"/>
      <use x="501.794922" xlink:href="#DejaVuSans-101"/>
      <use x="563.318359" xlink:href="#DejaVuSans-103"/>
      <use x="626.794922" xlink:href="#DejaVuSans-105"/>
      <use x="654.578125" xlink:href="#DejaVuSans-111"/>
      <use x="715.759766" xlink:href="#DejaVuSans-110"/>
      <use x="779.138672" xlink:href="#DejaVuSans-32"/>
      <use x="810.925781" xlink:href="#DejaVuSans-99"/>
      <use x="865.90625" xlink:href="#DejaVuSans-111"/>
      <use x="927.087891" xlink:href="#DejaVuSans-118"/>
      <use x="986.267578" xlink:href="#DejaVuSans-101"/>
      <use x="1047.791016" xlink:href="#DejaVuSans-114"/>
      <use x="1088.904297" xlink:href="#DejaVuSans-97"/>
      <use x="1150.183594" xlink:href="#DejaVuSans-103"/>
      <use x="1213.660156" xlink:href="#DejaVuSans-101"/>
     </g>
    </g>
   </g>
   <g id="line2d_11">
    <path clip-path="url(#p6bd00f4aaf)" d="M 104.330625 190.120919 
L 104.330625 185.535287 
" style="fill:none;stroke:#3f3f3f;stroke-linecap:square;stroke-width:1.5;"/>
   </g>
   <g id="line2d_12">
    <path clip-path="url(#p6bd00f4aaf)" d="M 104.330625 189.884546 
L 104.330625 187.284446 
" style="fill:none;stroke:#3f3f3f;stroke-linecap:square;stroke-width:4.5;"/>
   </g>
   <g id="line2d_13">
    <path clip-path="url(#p6bd00f4aaf)" d="M 193.610625 194.753825 
L 193.610625 191.775528 
" style="fill:none;stroke:#3f3f3f;stroke-linecap:square;stroke-width:1.5;"/>
   </g>
   <g id="line2d_14">
    <path clip-path="url(#p6bd00f4aaf)" d="M 193.610625 194.517452 
L 193.610625 191.917352 
" style="fill:none;stroke:#3f3f3f;stroke-linecap:square;stroke-width:4.5;"/>
   </g>
   <g id="line2d_15">
    <path clip-path="url(#p6bd00f4aaf)" d="M 282.890625 209.739857 
L 282.890625 198.913985 
" style="fill:none;stroke:#3f3f3f;stroke-linecap:square;stroke-width:1.5;"/>
   </g>
   <g id="line2d_16">
    <path clip-path="url(#p6bd00f4aaf)" d="M 282.890625 203.925087 
L 282.890625 198.913985 
" style="fill:none;stroke:#3f3f3f;stroke-linecap:square;stroke-width:4.5;"/>
   </g>
   <g id="line2d_17">
    <path clip-path="url(#p6bd00f4aaf)" d="M 372.170625 243.021139 
L 372.170625 243.021139 
" style="fill:none;stroke:#3f3f3f;stroke-linecap:square;stroke-width:1.5;"/>
   </g>
   <g id="line2d_18">
    <path clip-path="url(#p6bd00f4aaf)" d="M 372.170625 243.021139 
L 372.170625 243.021139 
" style="fill:none;stroke:#3f3f3f;stroke-linecap:square;stroke-width:4.5;"/>
   </g>
   <g id="patch_3">
    <path d="M 59.690625 286.182803 
L 59.690625 49.810056 
" style="fill:none;stroke:#000000;stroke-linecap:square;stroke-linejoin:miter;stroke-width:0.8;"/>
   </g>
   <g id="patch_4">
    <path d="M 104.330625 288.430125 
L 372.170625 288.430125 
" style="fill:none;stroke:#000000;stroke-linecap:square;stroke-linejoin:miter;stroke-width:0.8;"/>
   </g>
   <g id="PathCollection_1">
    <defs>
     <path d="M 0 1.5 
C 0.397805 1.5 0.77937 1.341951 1.06066 1.06066 
C 1.341951 0.77937 1.5 0.397805 1.5 0 
C 1.5 -0.397805 1.341951 -0.77937 1.06066 -1.06066 
C 0.77937 -1.341951 0.397805 -1.5 0 -1.5 
C -0.397805 -1.5 -0.77937 -1.341951 -1.06066 -1.06066 
C -1.341951 -0.77937 -1.5 -0.397805 -1.5 0 
C -1.5 0.397805 -1.341951 0.77937 -1.06066 1.06066 
C -0.77937 1.341951 -0.397805 1.5 0 1.5 
z
" id="mfce1e291f0" style="stroke:#3f3f3f;"/>
    </defs>
    <g clip-path="url(#p6bd00f4aaf)">
     <use style="fill:#ffffff;stroke:#3f3f3f;" x="104.330625" xlink:href="#mfce1e291f0" y="188.844506"/>
    </g>
   </g>
   <g id="PathCollection_2">
    <g clip-path="url(#p6bd00f4aaf)">
     <use style="fill:#ffffff;stroke:#3f3f3f;" x="193.610625" xlink:href="#mfce1e291f0" y="193.382863"/>
    </g>
   </g>
   <g id="PathCollection_3">
    <g clip-path="url(#p6bd00f4aaf)">
     <use style="fill:#ffffff;stroke:#3f3f3f;" x="282.890625" xlink:href="#mfce1e291f0" y="200.710418"/>
    </g>
   </g>
   <g id="PathCollection_4">
    <g clip-path="url(#p6bd00f4aaf)">
     <use style="fill:#ffffff;stroke:#3f3f3f;" x="372.170625" xlink:href="#mfce1e291f0" y="243.021139"/>
    </g>
   </g>
   <g id="text_13">
    <!-- mbedtls_fuzz_dtlsclient (8h, 5 trials/fuzzer) -->
    <g transform="translate(109.21125 16.318125)scale(0.12 -0.12)">
     <defs>
      <path d="M 48.6875 27.296875 
Q 48.6875 37.203125 44.609375 42.84375 
Q 40.53125 48.484375 33.40625 48.484375 
Q 26.265625 48.484375 22.1875 42.84375 
Q 18.109375 37.203125 18.109375 27.296875 
Q 18.109375 17.390625 22.1875 11.75 
Q 26.265625 6.109375 33.40625 6.109375 
Q 40.53125 6.109375 44.609375 11.75 
Q 48.6875 17.390625 48.6875 27.296875 
z
M 18.109375 46.390625 
Q 20.953125 51.265625 25.265625 53.625 
Q 29.59375 56 35.59375 56 
Q 45.5625 56 51.78125 48.09375 
Q 58.015625 40.1875 58.015625 27.296875 
Q 58.015625 14.40625 51.78125 6.484375 
Q 45.5625 -1.421875 35.59375 -1.421875 
Q 29.59375 -1.421875 25.265625 0.953125 
Q 20.953125 3.328125 18.109375 8.203125 
L 18.109375 0 
L 9.078125 0 
L 9.078125 75.984375 
L 18.109375 75.984375 
z
" id="DejaVuSans-98"/>
      <path d="M 11.71875 12.40625 
L 22.015625 12.40625 
L 22.015625 4 
L 14.015625 -11.625 
L 7.71875 -11.625 
L 11.71875 4 
z
" id="DejaVuSans-44"/>
      <path d="M 10.796875 72.90625 
L 49.515625 72.90625 
L 49.515625 64.59375 
L 19.828125 64.59375 
L 19.828125 46.734375 
Q 21.96875 47.46875 24.109375 47.828125 
Q 26.265625 48.1875 28.421875 48.1875 
Q 40.625 48.1875 47.75 41.5 
Q 54.890625 34.8125 54.890625 23.390625 
Q 54.890625 11.625 47.5625 5.09375 
Q 40.234375 -1.421875 26.90625 -1.421875 
Q 22.3125 -1.421875 17.546875 -0.640625 
Q 12.796875 0.140625 7.71875 1.703125 
L 7.71875 11.625 
Q 12.109375 9.234375 16.796875 8.0625 
Q 21.484375 6.890625 26.703125 6.890625 
Q 35.15625 6.890625 40.078125 11.328125 
Q 45.015625 15.765625 45.015625 23.390625 
Q 45.015625 31 40.078125 35.4375 
Q 35.15625 39.890625 26.703125 39.890625 
Q 22.75 39.890625 18.8125 39.015625 
Q 14.890625 38.140625 10.796875 36.28125 
z
" id="DejaVuSans-53"/>
      <path d="M 25.390625 72.90625 
L 33.6875 72.90625 
L 8.296875 -9.28125 
L 0 -9.28125 
z
" id="DejaVuSans-47"/>
     </defs>
     <use xlink:href="#DejaVuSans-109"/>
     <use x="97.412109" xlink:href="#DejaVuSans-98"/>
     <use x="160.888672" xlink:href="#DejaVuSans-101"/>
     <use x="222.412109" xlink:href="#DejaVuSans-100"/>
     <use x="285.888672" xlink:href="#DejaVuSans-116"/>
     <use x="325.097656" xlink:href="#DejaVuSans-108"/>
     <use x="352.880859" xlink:href="#DejaVuSans-115"/>
     <use x="404.980469" xlink:href="#DejaVuSans-95"/>
     <use x="454.980469" xlink:href="#DejaVuSans-102"/>
     <use x="490.185547" xlink:href="#DejaVuSans-117"/>
     <use x="553.564453" xlink:href="#DejaVuSans-122"/>
     <use x="606.054688" xlink:href="#DejaVuSans-122"/>
     <use x="658.544922" xlink:href="#DejaVuSans-95"/>
     <use x="708.544922" xlink:href="#DejaVuSans-100"/>
     <use x="772.021484" xlink:href="#DejaVuSans-116"/>
     <use x="811.230469" xlink:href="#DejaVuSans-108"/>
     <use x="839.013672" xlink:href="#DejaVuSans-115"/>
     <use x="891.113281" xlink:href="#DejaVuSans-99"/>
     <use x="946.09375" xlink:href="#DejaVuSans-108"/>
     <use x="973.876953" xlink:href="#DejaVuSans-105"/>
     <use x="1001.660156" xlink:href="#DejaVuSans-101"/>
     <use x="1063.183594" xlink:href="#DejaVuSans-110"/>
     <use x="1126.5625" xlink:href="#DejaVuSans-116"/>
     <use x="1165.771484" xlink:href="#DejaVuSans-32"/>
     <use x="1197.558594" xlink:href="#DejaVuSans-40"/>
     <use x="1236.572266" xlink:href="#DejaVuSans-56"/>
     <use x="1300.195312" xlink:href="#DejaVuSans-104"/>
     <use x="1363.574219" xlink:href="#DejaVuSans-44"/>
     <use x="1395.361328" xlink:href="#DejaVuSans-32"/>
     <use x="1427.148438" xlink:href="#DejaVuSans-53"/>
     <use x="1490.771484" xlink:href="#DejaVuSans-32"/>
     <use x="1522.558594" xlink:href="#DejaVuSans-116"/>
     <use x="1561.767578" xlink:href="#DejaVuSans-114"/>
     <use x="1602.880859" xlink:href="#DejaVuSans-105"/>
     <use x="1630.664062" xlink:href="#DejaVuSans-97"/>
     <use x="1691.943359" xlink:href="#DejaVuSans-108"/>
     <use x="1719.726562" xlink:href="#DejaVuSans-115"/>
     <use x="1771.826172" xlink:href="#DejaVuSans-47"/>
     <use x="1805.517578" xlink:href="#DejaVuSans-102"/>
     <use x="1840.722656" xlink:href="#DejaVuSans-117"/>
     <use x="1904.101562" xlink:href="#DejaVuSans-122"/>
     <use x="1956.591797" xlink:href="#DejaVuSans-122"/>
     <use x="2009.082031" xlink:href="#DejaVuSans-101"/>
     <use x="2070.605469" xlink:href="#DejaVuSans-114"/>
     <use x="2111.71875" xlink:href="#DejaVuSans-41"/>
    </g>
   </g>
  </g>
 </g>
 <defs>
  <clipPath id="p6bd00f4aaf">
   <rect height="266.112" width="357.12" x="59.690625" y="22.318125"/>
  </clipPath>
 </defs>
</svg>
