<?xml version="1.0" encoding="utf-8" standalone="no"?>
<!DOCTYPE svg PUBLIC "-//W3C//DTD SVG 1.1//EN"
  "http://www.w3.org/Graphics/SVG/1.1/DTD/svg11.dtd">
<!-- Created with matplotlib (https://matplotlib.org/) -->
<svg height="325.986375pt" version="1.1" viewBox="0 0 878.316562 325.986375" width="878.316562pt" xmlns="http://www.w3.org/2000/svg" xmlns:xlink="http://www.w3.org/1999/xlink">
 <metadata>
  <rdf:RDF xmlns:cc="http://creativecommons.org/ns#" xmlns:dc="http://purl.org/dc/elements/1.1/" xmlns:rdf="http://www.w3.org/1999/02/22-rdf-syntax-ns#">
   <cc:Work>
    <dc:type rdf:resource="http://purl.org/dc/dcmitype/StillImage"/>
    <dc:date>2020-10-25T11:33:30.262229</dc:date>
    <dc:format>image/svg+xml</dc:format>
    <dc:creator>
     <cc:Agent>
      <dc:title>Matplotlib v3.3.2, https://matplotlib.org/</dc:title>
     </cc:Agent>
    </dc:creator>
   </cc:Work>
  </rdf:RDF>
 </metadata>
 <defs>
  <style type="text/css">*{stroke-linecap:butt;stroke-linejoin:round;}</style>
 </defs>
 <g id="figure_1">
  <g id="patch_1">
   <path d="M 0 325.986375 
L 878.316562 325.986375 
L 878.316562 0 
L 0 0 
z
" style="fill:#ffffff;"/>
  </g>
  <g id="axes_1">
   <g id="patch_2">
    <path d="M 59.690625 288.430125 
L 773.930625 288.430125 
L 773.930625 22.318125 
L 59.690625 22.318125 
z
" style="fill:#ffffff;"/>
   </g>
   <g id="PolyCollection_1">
    <defs>
     <path d="M 92.15608 -132.101045 
L 92.15608 -49.65225 
L 98.990912 -131.885064 
L 105.825745 -132.45564 
L 112.660577 -133.068123 
L 119.49541 -133.659115 
L 126.330242 -133.863276 
L 133.165075 -134.325325 
L 139.999907 -134.322101 
L 146.83474 -134.869575 
L 153.669572 -134.948553 
L 160.504405 -134.937807 
L 167.339237 -135.174204 
L 174.17407 -134.937807 
L 181.008903 -135.507309 
L 187.843735 -135.57796 
L 194.678568 -135.765197 
L 201.5134 -136.076811 
L 208.348233 -135.958612 
L 215.183065 -136.51522 
L 222.017898 -136.528114 
L 228.85273 -136.850473 
L 235.687563 -137.070484 
L 242.522395 -138.107675 
L 249.357228 -138.268855 
L 256.19206 -138.956555 
L 263.026893 -138.5802 
L 269.861725 -139.450839 
L 276.696558 -140.363922 
L 283.531391 -140.417918 
L 290.366223 -140.412276 
L 297.201056 -140.721741 
L 304.035888 -141.438722 
L 310.870721 -141.487882 
L 317.705553 -141.503194 
L 324.540386 -140.890711 
L 331.375218 -141.933007 
L 338.210051 -141.933007 
L 345.044883 -146.349331 
L 351.879716 -146.424548 
L 358.714548 -146.768398 
L 365.549381 -147.00775 
L 372.384214 -146.768398 
L 379.219046 -176.694098 
L 386.053879 -177.328071 
L 392.888711 -178.899842 
L 399.723544 -178.98285 
L 406.558376 -197.466133 
L 413.393209 -197.206902 
L 420.228041 -201.429811 
L 427.062874 -201.623226 
L 433.897706 -201.773661 
L 440.732539 -205.222906 
L 447.567371 -203.406948 
L 454.402204 -209.714448 
L 461.237036 -209.166437 
L 468.071869 -209.166437 
L 474.906702 -208.940785 
L 481.741534 -209.649976 
L 488.576367 -210.703017 
L 495.411199 -205.416322 
L 502.246032 -210.64929 
L 509.080864 -210.64929 
L 515.915697 -211.046329 
L 522.750529 -211.046867 
L 529.585362 -211.025376 
L 536.420194 -211.046867 
L 543.255027 -211.132829 
L 550.089859 -211.387762 
L 556.924692 -211.519661 
L 563.759525 -211.863511 
L 570.594357 -211.917237 
L 577.42919 -215.860767 
L 584.264022 -216.106566 
L 591.098855 -216.10791 
L 597.933687 -216.1294 
L 604.76852 -218.085047 
L 611.603352 -224.833105 
L 618.438185 -224.830687 
L 625.273017 -225.133973 
L 632.10785 -226.05807 
L 638.942682 -226.272977 
L 645.777515 -226.144033 
L 652.612347 -226.982167 
L 659.44718 -226.982167 
L 666.282013 -227.191701 
L 673.116845 -227.003658 
L 679.951678 -227.100366 
L 686.78651 -227.100366 
L 693.621343 -227.524806 
L 700.456175 -229.539552 
L 707.291008 -227.433471 
L 714.12584 -227.527761 
L 720.960673 -228.712163 
L 727.795505 -229.496571 
L 734.630338 -240.102196 
L 741.46517 -240.102196 
L 741.46517 -291.57225 
L 741.46517 -291.57225 
L 734.630338 -291.540014 
L 727.795505 -276.430222 
L 720.960673 -277.19502 
L 714.12584 -276.50732 
L 707.291008 -276.41303 
L 700.456175 -276.297786 
L 693.621343 -276.50732 
L 686.78651 -276.573672 
L 679.951678 -276.573672 
L 673.116845 -276.496574 
L 666.282013 -276.496574 
L 659.44718 -275.295248 
L 652.612347 -273.310589 
L 645.777515 -273.498632 
L 638.942682 -273.262235 
L 632.10785 -273.262235 
L 625.273017 -272.112486 
L 618.438185 -273.111801 
L 611.603352 -270.984228 
L 604.76852 -270.88752 
L 597.933687 -269.898952 
L 591.098855 -269.533611 
L 584.264022 -269.934411 
L 577.42919 -269.479884 
L 570.594357 -269.479884 
L 563.759525 -267.897906 
L 556.924692 -269.479884 
L 550.089859 -267.72813 
L 543.255027 -269.49063 
L 536.420194 -269.361686 
L 529.585362 -269.361686 
L 522.750529 -267.611274 
L 515.915697 -269.32945 
L 509.080864 -265.933931 
L 502.246032 -265.98524 
L 495.411199 -264.781496 
L 488.576367 -258.927986 
L 481.741534 -258.71308 
L 474.906702 -258.628729 
L 468.071869 -258.412211 
L 461.237036 -258.680844 
L 454.402204 -258.508919 
L 447.567371 -258.272522 
L 440.732539 -258.272522 
L 433.897706 -256.553272 
L 427.062874 -256.037497 
L 420.228041 -255.940789 
L 413.393209 -255.897807 
L 406.558376 -255.790354 
L 399.723544 -255.790354 
L 392.888711 -255.790354 
L 386.053879 -254.543898 
L 379.219046 -254.124831 
L 372.384214 -228.115261 
L 365.549381 -222.877457 
L 358.714548 -227.831047 
L 351.879716 -228.142661 
L 345.044883 -228.045953 
L 338.210051 -218.944672 
L 331.375218 -219.395976 
L 324.540386 -218.600822 
L 317.705553 -215.592135 
L 310.870721 -214.850708 
L 304.035888 -214.452594 
L 297.201056 -214.442386 
L 290.366223 -213.72836 
L 283.531391 -215.055943 
L 276.696558 -214.850708 
L 269.861725 -214.377914 
L 263.026893 -212.841334 
L 256.19206 -213.174439 
L 249.357228 -144.135796 
L 242.522395 -143.57704 
L 235.687563 -142.298348 
L 228.85273 -141.320524 
L 222.017898 -141.438722 
L 215.183065 -140.922947 
L 208.348233 -140.729532 
L 201.5134 -140.493135 
L 194.678568 -139.99885 
L 187.843735 -139.912888 
L 181.008903 -139.785556 
L 174.17407 -139.332641 
L 167.339237 -139.117735 
L 160.504405 -138.247364 
L 153.669572 -138.247364 
L 146.83474 -138.064694 
L 139.999907 -138.000222 
L 133.165075 -137.785316 
L 126.330242 -137.033144 
L 119.49541 -136.495878 
L 112.660577 -135.829668 
L 105.825745 -135.292403 
L 98.990912 -134.389796 
L 92.15608 -132.101045 
z
" id="mbe15de43d8" style="stroke:#c7c7c7;stroke-opacity:0.2;"/>
    </defs>
    <g clip-path="url(#p488568256b)">
     <use style="fill:#c7c7c7;fill-opacity:0.2;stroke:#c7c7c7;stroke-opacity:0.2;" x="0" xlink:href="#mbe15de43d8" y="325.986375"/>
    </g>
   </g>
   <g id="PolyCollection_2">
    <defs>
     <path d="M 92.15608 -133.551662 
L 92.15608 -131.617505 
L 98.990912 -133.014396 
L 105.825745 -134.303834 
L 112.660577 -136.345444 
L 119.49541 -137.000908 
L 126.330242 -138.741649 
L 133.165075 -139.515311 
L 139.999907 -141.460213 
L 146.83474 -142.572353 
L 153.669572 -143.147227 
L 160.504405 -144.597845 
L 167.339237 -146.069953 
L 174.17407 -146.940323 
L 181.008903 -147.413117 
L 187.843735 -148.0256 
L 194.678568 -152.764283 
L 201.5134 -153.226332 
L 208.348233 -153.494965 
L 215.183065 -153.645399 
L 222.017898 -155.171234 
L 228.85273 -156.353218 
L 235.687563 -157.169862 
L 242.522395 -157.212843 
L 249.357228 -157.212843 
L 256.19206 -157.223589 
L 263.026893 -157.341787 
L 269.861725 -157.438495 
L 276.696558 -158.070051 
L 283.531391 -158.588244 
L 290.366223 -158.651372 
L 297.201056 -159.318925 
L 304.035888 -159.619794 
L 310.870721 -159.802464 
L 317.705553 -159.877681 
L 324.540386 -159.877681 
L 331.375218 -159.877681 
L 338.210051 -159.920663 
L 345.044883 -159.866936 
L 351.879716 -159.780973 
L 358.714548 -160.114078 
L 365.549381 -160.390233 
L 372.384214 -160.490164 
L 379.219046 -160.711786 
L 386.053879 -160.554636 
L 392.888711 -160.758797 
L 399.723544 -161.156374 
L 406.558376 -161.156374 
L 413.393209 -161.242336 
L 420.228041 -161.177864 
L 427.062874 -161.177864 
L 433.897706 -161.736621 
L 440.732539 -161.790347 
L 447.567371 -161.940782 
L 454.402204 -162.542519 
L 461.237036 -162.671463 
L 468.071869 -162.854133 
L 474.906702 -162.918605 
L 481.741534 -162.886101 
L 488.576367 -162.875624 
L 495.411199 -162.983077 
L 502.246032 -162.886369 
L 509.080864 -162.961586 
L 515.915697 -163.046743 
L 522.750529 -163.552579 
L 529.585362 -163.563324 
L 536.420194 -163.552579 
L 543.255027 -163.563324 
L 550.089859 -163.799721 
L 556.924692 -163.831957 
L 563.759525 -163.853447 
L 570.594357 -163.853447 
L 577.42919 -163.853447 
L 584.264022 -163.853447 
L 591.098855 -163.885146 
L 597.933687 -163.864193 
L 604.76852 -163.885683 
L 611.603352 -163.864193 
L 618.438185 -163.960901 
L 625.273017 -163.885683 
L 632.10785 -163.993137 
L 638.942682 -163.864193 
L 645.777515 -163.993137 
L 652.612347 -163.864193 
L 659.44718 -163.864193 
L 666.282013 -163.971109 
L 673.116845 -163.971646 
L 679.951678 -163.971109 
L 686.78651 -163.971646 
L 693.621343 -164.165062 
L 700.456175 -164.240279 
L 707.291008 -164.217445 
L 714.12584 -164.294005 
L 720.960673 -164.314959 
L 727.795505 -164.240279 
L 734.630338 -164.218788 
L 741.46517 -164.251024 
L 741.46517 -167.818468 
L 741.46517 -167.818468 
L 734.630338 -167.796978 
L 727.795505 -167.818468 
L 720.960673 -167.818468 
L 714.12584 -167.796978 
L 707.291008 -167.635798 
L 700.456175 -167.657289 
L 693.621343 -167.646543 
L 686.78651 -167.646543 
L 679.951678 -167.488587 
L 673.116845 -167.625053 
L 666.282013 -167.764742 
L 659.44718 -167.635798 
L 652.612347 -167.614307 
L 645.777515 -167.614576 
L 638.942682 -167.625053 
L 632.10785 -167.614307 
L 625.273017 -167.324184 
L 618.438185 -167.313707 
L 611.603352 -167.324184 
L 604.76852 -167.197926 
L 597.933687 -167.324184 
L 591.098855 -167.324184 
L 584.264022 -167.313439 
L 577.42919 -167.313439 
L 570.594357 -167.313439 
L 563.759525 -167.302962 
L 556.924692 -166.969589 
L 550.089859 -166.915862 
L 543.255027 -166.915862 
L 536.420194 -166.840645 
L 529.585362 -166.915862 
L 522.750529 -166.840645 
L 515.915697 -166.915862 
L 509.080864 -166.840645 
L 502.246032 -166.915862 
L 495.411199 -166.808409 
L 488.576367 -166.765428 
L 481.741534 -166.754682 
L 474.906702 -166.679465 
L 468.071869 -166.679465 
L 461.237036 -166.496795 
L 454.402204 -166.496795 
L 447.567371 -166.281888 
L 440.732539 -166.34636 
L 433.897706 -166.271143 
L 427.062874 -165.895057 
L 420.228041 -165.927293 
L 413.393209 -165.895863 
L 406.558376 -165.744623 
L 399.723544 -165.572698 
L 392.888711 -165.572698 
L 386.053879 -165.744623 
L 379.219046 -165.347046 
L 372.384214 -165.282574 
L 365.549381 -164.737787 
L 358.714548 -164.541148 
L 351.879716 -164.487421 
L 345.044883 -164.422949 
L 338.210051 -164.197298 
L 331.375218 -164.060563 
L 324.540386 -163.015313 
L 317.705553 -163.112021 
L 310.870721 -163.187238 
L 304.035888 -163.047549 
L 297.201056 -162.993822 
L 290.366223 -162.628482 
L 283.531391 -162.983077 
L 276.696558 -161.145628 
L 269.861725 -161.145628 
L 263.026893 -160.954362 
L 256.19206 -160.898486 
L 249.357228 -160.76014 
L 242.522395 -159.985134 
L 235.687563 -159.845445 
L 228.85273 -159.480105 
L 222.017898 -159.372652 
L 215.183065 -157.836072 
L 208.348233 -157.288061 
L 201.5134 -157.10539 
L 194.678568 -156.847503 
L 187.843735 -156.041604 
L 181.008903 -155.14061 
L 174.17407 -152.31298 
L 167.339237 -152.184036 
L 160.504405 -150.755447 
L 153.669572 -148.779921 
L 146.83474 -148.100817 
L 139.999907 -147.68175 
L 133.165075 -144.898714 
L 126.330242 -143.963871 
L 119.49541 -140.59629 
L 112.660577 -138.473553 
L 105.825745 -137.355503 
L 98.990912 -135.657743 
L 92.15608 -133.551662 
z
" id="m87ea2ebcfc" style="stroke:#1f77b4;stroke-opacity:0.2;"/>
    </defs>
    <g clip-path="url(#p488568256b)">
     <use style="fill:#1f77b4;fill-opacity:0.2;stroke:#1f77b4;stroke-opacity:0.2;" x="0" xlink:href="#m87ea2ebcfc" y="325.986375"/>
    </g>
   </g>
   <g id="PolyCollection_3">
    <defs>
     <path d="M 92.15608 -133.186321 
L 92.15608 -130.811607 
L 98.990912 -136.914945 
L 105.825745 -139.074753 
L 112.660577 -139.964465 
L 119.49541 -140.735979 
L 126.330242 -141.943484 
L 133.165075 -142.835613 
L 139.999907 -143.308407 
L 146.83474 -143.996107 
L 153.669572 -145.45747 
L 160.504405 -148.509139 
L 167.339237 -150.475532 
L 174.17407 -151.023543 
L 181.008903 -151.485591 
L 187.843735 -151.711243 
L 194.678568 -152.334471 
L 201.5134 -152.592358 
L 208.348233 -152.689066 
L 215.183065 -152.732047 
L 222.017898 -152.871737 
L 228.85273 -153.172605 
L 235.687563 -153.301549 
L 242.522395 -153.398257 
L 249.357228 -153.473474 
L 256.19206 -154.225646 
L 263.026893 -154.236391 
L 269.861725 -154.236391 
L 276.696558 -154.590718 
L 283.531391 -154.623223 
L 290.366223 -154.35459 
L 297.201056 -154.397571 
L 304.035888 -154.376081 
L 310.870721 -154.419062 
L 317.705553 -154.419062 
L 324.540386 -154.687695 
L 331.375218 -155.300178 
L 338.210051 -155.106762 
L 345.044883 -155.106762 
L 351.879716 -155.310923 
L 358.714548 -155.310923 
L 365.549381 -155.353367 
L 372.384214 -155.912123 
L 379.219046 -155.91266 
L 386.053879 -155.944896 
L 392.888711 -155.944628 
L 399.723544 -155.934151 
L 406.558376 -155.944896 
L 413.393209 -155.944896 
L 420.228041 -155.944896 
L 427.062874 -156.009368 
L 433.897706 -156.030859 
L 440.732539 -156.439181 
L 447.567371 -156.643342 
L 454.402204 -156.750795 
L 461.237036 -156.707814 
L 468.071869 -156.750795 
L 474.906702 -156.855562 
L 481.741534 -156.621851 
L 488.576367 -156.643342 
L 495.411199 -156.729304 
L 502.246032 -156.729304 
L 509.080864 -157.72835 
L 515.915697 -157.717873 
L 522.750529 -157.717873 
L 529.585362 -157.728618 
L 536.420194 -157.717873 
L 543.255027 -157.728618 
L 550.089859 -157.717873 
L 556.924692 -157.717873 
L 563.759525 -157.717605 
L 570.594357 -157.717873 
L 577.42919 -157.707128 
L 584.264022 -157.717873 
L 591.098855 -157.717873 
L 597.933687 -157.728618 
L 604.76852 -157.739364 
L 611.603352 -157.717873 
L 618.438185 -157.717873 
L 625.273017 -157.717873 
L 632.10785 -157.72835 
L 638.942682 -157.728618 
L 645.777515 -157.717873 
L 652.612347 -157.782345 
L 659.44718 -157.72835 
L 666.282013 -157.717873 
L 673.116845 -157.717873 
L 679.951678 -157.717605 
L 686.78651 -157.728618 
L 693.621343 -157.803567 
L 700.456175 -157.79309 
L 707.291008 -157.921766 
L 714.12584 -157.836072 
L 720.960673 -157.836072 
L 727.795505 -157.836072 
L 734.630338 -157.836072 
L 741.46517 -157.846817 
L 741.46517 -159.587558 
L 741.46517 -159.587558 
L 734.630338 -159.748738 
L 727.795505 -159.630539 
L 720.960673 -159.631882 
L 714.12584 -159.695011 
L 707.291008 -159.523086 
L 700.456175 -159.67352 
L 693.621343 -159.684266 
L 686.78651 -158.717187 
L 679.951678 -158.749423 
L 673.116845 -158.749423 
L 666.282013 -158.717187 
L 659.44718 -158.749423 
L 652.612347 -158.611615 
L 645.777515 -158.652715 
L 638.942682 -158.663461 
L 632.10785 -158.48079 
L 625.273017 -158.48079 
L 618.438185 -158.470045 
L 611.603352 -158.470314 
L 604.76852 -158.470045 
L 597.933687 -158.470045 
L 591.098855 -158.470314 
L 584.264022 -158.48079 
L 577.42919 -158.48079 
L 570.594357 -158.470314 
L 563.759525 -158.470314 
L 556.924692 -158.48079 
L 550.089859 -158.48079 
L 543.255027 -158.470314 
L 536.420194 -158.470045 
L 529.585362 -158.48079 
L 522.750529 -158.4593 
L 515.915697 -158.4593 
L 509.080864 -158.470045 
L 502.246032 -158.437809 
L 495.411199 -158.427333 
L 488.576367 -158.427064 
L 481.741534 -158.351847 
L 474.906702 -158.330356 
L 468.071869 -158.330356 
L 461.237036 -158.351847 
L 454.402204 -158.351847 
L 447.567371 -158.276629 
L 440.732539 -158.308865 
L 433.897706 -158.308865 
L 427.062874 -158.287375 
L 420.228041 -158.276629 
L 413.393209 -158.276629 
L 406.558376 -158.287375 
L 399.723544 -158.276898 
L 392.888711 -158.276629 
L 386.053879 -158.276629 
L 379.219046 -158.244394 
L 372.384214 -158.244394 
L 365.549381 -158.20195 
L 358.714548 -158.222903 
L 351.879716 -158.061723 
L 345.044883 -158.040233 
L 338.210051 -158.222903 
L 331.375218 -158.007997 
L 324.540386 -157.943525 
L 317.705553 -156.92272 
L 310.870721 -156.92272 
L 304.035888 -156.911975 
L 297.201056 -156.912781 
L 290.366223 -156.879739 
L 283.531391 -156.911975 
L 276.696558 -156.911975 
L 269.861725 -156.804521 
L 263.026893 -156.804521 
L 256.19206 -156.634208 
L 249.357228 -156.697068 
L 242.522395 -156.558991 
L 235.687563 -156.471417 
L 228.85273 -156.525143 
L 222.017898 -156.331728 
L 215.183065 -155.321668 
L 208.348233 -155.289432 
L 201.5134 -154.19341 
L 194.678568 -154.021485 
L 187.843735 -153.967759 
L 181.008903 -153.924777 
L 174.17407 -153.795834 
L 167.339237 -152.785774 
L 160.504405 -151.915404 
L 153.669572 -150.024228 
L 146.83474 -149.304292 
L 139.999907 -147.327155 
L 133.165075 -147.144484 
L 126.330242 -146.413803 
L 119.49541 -145.532687 
L 112.660577 -144.006852 
L 105.825745 -141.922262 
L 98.990912 -139.375622 
L 92.15608 -133.186321 
z
" id="mbe4dfa411f" style="stroke:#98df8a;stroke-opacity:0.2;"/>
    </defs>
    <g clip-path="url(#p488568256b)">
     <use style="fill:#98df8a;fill-opacity:0.2;stroke:#98df8a;stroke-opacity:0.2;" x="0" xlink:href="#mbe4dfa411f" y="325.986375"/>
    </g>
   </g>
   <g id="PolyCollection_4">
    <defs>
     <path d="M 92.15608 -100.391623 
L 92.15608 -99.102185 
L 98.990912 -99.102185 
L 105.825745 -99.102185 
L 112.660577 -99.102185 
L 119.49541 -99.102185 
L 126.330242 -99.102185 
L 133.165075 -99.102185 
L 139.999907 -99.102185 
L 146.83474 -99.102185 
L 153.669572 -99.102185 
L 160.504405 -99.102185 
L 167.339237 -99.102185 
L 174.17407 -99.102185 
L 181.008903 -99.102185 
L 187.843735 -99.102185 
L 194.678568 -99.102185 
L 201.5134 -99.102185 
L 208.348233 -99.102185 
L 215.183065 -99.102185 
L 222.017898 -99.102185 
L 228.85273 -99.102185 
L 235.687563 -99.102185 
L 242.522395 -99.102185 
L 249.357228 -99.102185 
L 256.19206 -99.102185 
L 263.026893 -99.102185 
L 269.861725 -99.102185 
L 276.696558 -99.102185 
L 283.531391 -99.102185 
L 290.366223 -99.102185 
L 297.201056 -99.102185 
L 304.035888 -99.102185 
L 310.870721 -99.102185 
L 317.705553 -99.102185 
L 324.540386 -99.102185 
L 331.375218 -99.102185 
L 338.210051 -99.102185 
L 345.044883 -99.102185 
L 351.879716 -99.102185 
L 358.714548 -99.102185 
L 365.549381 -99.102185 
L 372.384214 -99.102185 
L 379.219046 -99.102185 
L 386.053879 -99.102185 
L 392.888711 -99.102185 
L 399.723544 -99.102185 
L 406.558376 -99.102185 
L 413.393209 -99.102185 
L 420.228041 -99.102185 
L 427.062874 -99.102185 
L 433.897706 -99.102185 
L 440.732539 -99.102185 
L 447.567371 -99.102185 
L 454.402204 -99.102185 
L 461.237036 -99.102185 
L 468.071869 -99.102185 
L 474.906702 -99.102185 
L 481.741534 -99.102185 
L 488.576367 -99.102185 
L 495.411199 -99.102185 
L 502.246032 -99.102185 
L 509.080864 -99.102185 
L 515.915697 -99.102185 
L 522.750529 -99.102185 
L 529.585362 -99.102185 
L 536.420194 -99.102185 
L 543.255027 -99.102185 
L 550.089859 -99.102185 
L 556.924692 -99.102185 
L 563.759525 -99.102185 
L 570.594357 -99.102185 
L 577.42919 -99.102185 
L 584.264022 -99.102185 
L 591.098855 -99.102185 
L 597.933687 -99.102185 
L 604.76852 -99.102185 
L 611.603352 -99.102185 
L 618.438185 -99.102185 
L 625.273017 -99.102185 
L 632.10785 -99.102185 
L 638.942682 -99.102185 
L 645.777515 -99.102185 
L 652.612347 -99.102185 
L 659.44718 -99.102185 
L 666.282013 -99.102185 
L 673.116845 -99.102185 
L 679.951678 -99.102185 
L 686.78651 -99.102185 
L 693.621343 -99.102185 
L 700.456175 -99.102185 
L 707.291008 -99.102185 
L 714.12584 -99.102185 
L 720.960673 -99.102185 
L 727.795505 -99.102185 
L 734.630338 -99.102185 
L 741.46517 -99.102185 
L 741.46517 -100.391623 
L 741.46517 -100.391623 
L 734.630338 -100.391623 
L 727.795505 -100.391623 
L 720.960673 -100.391623 
L 714.12584 -100.391623 
L 707.291008 -100.391623 
L 700.456175 -100.391623 
L 693.621343 -100.391623 
L 686.78651 -100.391623 
L 679.951678 -100.391623 
L 673.116845 -100.391623 
L 666.282013 -100.391623 
L 659.44718 -100.391623 
L 652.612347 -100.391623 
L 645.777515 -100.391623 
L 638.942682 -100.391623 
L 632.10785 -100.391623 
L 625.273017 -100.391623 
L 618.438185 -100.391623 
L 611.603352 -100.391623 
L 604.76852 -100.391623 
L 597.933687 -100.391623 
L 591.098855 -100.391623 
L 584.264022 -100.391623 
L 577.42919 -100.391623 
L 570.594357 -100.391623 
L 563.759525 -100.391623 
L 556.924692 -100.391623 
L 550.089859 -100.391623 
L 543.255027 -100.391623 
L 536.420194 -100.391623 
L 529.585362 -100.391623 
L 522.750529 -100.391623 
L 515.915697 -100.391623 
L 509.080864 -100.391623 
L 502.246032 -100.391623 
L 495.411199 -100.391623 
L 488.576367 -100.391623 
L 481.741534 -100.391623 
L 474.906702 -100.391623 
L 468.071869 -100.391623 
L 461.237036 -100.391623 
L 454.402204 -100.391623 
L 447.567371 -100.391623 
L 440.732539 -100.391623 
L 433.897706 -100.391623 
L 427.062874 -100.391623 
L 420.228041 -100.391623 
L 413.393209 -100.391623 
L 406.558376 -100.391623 
L 399.723544 -100.391623 
L 392.888711 -100.391623 
L 386.053879 -100.391623 
L 379.219046 -100.391623 
L 372.384214 -100.391623 
L 365.549381 -100.391623 
L 358.714548 -100.391623 
L 351.879716 -100.391623 
L 345.044883 -100.391623 
L 338.210051 -100.391623 
L 331.375218 -100.391623 
L 324.540386 -100.391623 
L 317.705553 -100.391623 
L 310.870721 -100.391623 
L 304.035888 -100.391623 
L 297.201056 -100.391623 
L 290.366223 -100.391623 
L 283.531391 -100.391623 
L 276.696558 -100.391623 
L 269.861725 -100.391623 
L 263.026893 -100.391623 
L 256.19206 -100.391623 
L 249.357228 -100.391623 
L 242.522395 -100.391623 
L 235.687563 -100.391623 
L 228.85273 -100.391623 
L 222.017898 -100.391623 
L 215.183065 -100.391623 
L 208.348233 -100.391623 
L 201.5134 -100.391623 
L 194.678568 -100.391623 
L 187.843735 -100.391623 
L 181.008903 -100.391623 
L 174.17407 -100.391623 
L 167.339237 -100.391623 
L 160.504405 -100.391623 
L 153.669572 -100.391623 
L 146.83474 -100.391623 
L 139.999907 -100.391623 
L 133.165075 -100.391623 
L 126.330242 -100.391623 
L 119.49541 -100.391623 
L 112.660577 -100.391623 
L 105.825745 -100.391623 
L 98.990912 -100.391623 
L 92.15608 -100.391623 
z
" id="ma6b935965e" style="stroke:#d62728;stroke-opacity:0.2;"/>
    </defs>
    <g clip-path="url(#p488568256b)">
     <use style="fill:#d62728;fill-opacity:0.2;stroke:#d62728;stroke-opacity:0.2;" x="0" xlink:href="#ma6b935965e" y="325.986375"/>
    </g>
   </g>
   <g id="matplotlib.axis_1">
    <g id="xtick_1">
     <g id="line2d_1">
      <defs>
       <path d="M 0 0 
L 0 3.5 
" id="m87f0e3c588" style="stroke:#000000;stroke-width:0.8;"/>
      </defs>
      <g>
       <use style="stroke:#000000;stroke-width:0.8;" x="92.15608" xlink:href="#m87f0e3c588" y="288.430125"/>
      </g>
     </g>
     <g id="text_1">
      <!-- 15m -->
      <g transform="translate(80.923267 303.028562)scale(0.1 -0.1)">
       <defs>
        <path d="M 12.40625 8.296875 
L 28.515625 8.296875 
L 28.515625 63.921875 
L 10.984375 60.40625 
L 10.984375 69.390625 
L 28.421875 72.90625 
L 38.28125 72.90625 
L 38.28125 8.296875 
L 54.390625 8.296875 
L 54.390625 0 
L 12.40625 0 
z
" id="DejaVuSans-49"/>
        <path d="M 10.796875 72.90625 
L 49.515625 72.90625 
L 49.515625 64.59375 
L 19.828125 64.59375 
L 19.828125 46.734375 
Q 21.96875 47.46875 24.109375 47.828125 
Q 26.265625 48.1875 28.421875 48.1875 
Q 40.625 48.1875 47.75 41.5 
Q 54.890625 34.8125 54.890625 23.390625 
Q 54.890625 11.625 47.5625 5.09375 
Q 40.234375 -1.421875 26.90625 -1.421875 
Q 22.3125 -1.421875 17.546875 -0.640625 
Q 12.796875 0.140625 7.71875 1.703125 
L 7.71875 11.625 
Q 12.109375 9.234375 16.796875 8.0625 
Q 21.484375 6.890625 26.703125 6.890625 
Q 35.15625 6.890625 40.078125 11.328125 
Q 45.015625 15.765625 45.015625 23.390625 
Q 45.015625 31 40.078125 35.4375 
Q 35.15625 39.890625 26.703125 39.890625 
Q 22.75 39.890625 18.8125 39.015625 
Q 14.890625 38.140625 10.796875 36.28125 
z
" id="DejaVuSans-53"/>
        <path d="M 52 44.1875 
Q 55.375 50.25 60.0625 53.125 
Q 64.75 56 71.09375 56 
Q 79.640625 56 84.28125 50.015625 
Q 88.921875 44.046875 88.921875 33.015625 
L 88.921875 0 
L 79.890625 0 
L 79.890625 32.71875 
Q 79.890625 40.578125 77.09375 44.375 
Q 74.3125 48.1875 68.609375 48.1875 
Q 61.625 48.1875 57.5625 43.546875 
Q 53.515625 38.921875 53.515625 30.90625 
L 53.515625 0 
L 44.484375 0 
L 44.484375 32.71875 
Q 44.484375 40.625 41.703125 44.40625 
Q 38.921875 48.1875 33.109375 48.1875 
Q 26.21875 48.1875 22.15625 43.53125 
Q 18.109375 38.875 18.109375 30.90625 
L 18.109375 0 
L 9.078125 0 
L 9.078125 54.6875 
L 18.109375 54.6875 
L 18.109375 46.1875 
Q 21.1875 51.21875 25.484375 53.609375 
Q 29.78125 56 35.6875 56 
Q 41.65625 56 45.828125 52.96875 
Q 50 49.953125 52 44.1875 
z
" id="DejaVuSans-109"/>
       </defs>
       <use xlink:href="#DejaVuSans-49"/>
       <use x="63.623047" xlink:href="#DejaVuSans-53"/>
       <use x="127.246094" xlink:href="#DejaVuSans-109"/>
      </g>
     </g>
    </g>
    <g id="xtick_2">
     <g id="line2d_2">
      <g>
       <use style="stroke:#000000;stroke-width:0.8;" x="146.83474" xlink:href="#m87f0e3c588" y="288.430125"/>
      </g>
     </g>
     <g id="text_2">
      <!-- 2h:15m -->
      <g transform="translate(127.567552 303.028562)scale(0.1 -0.1)">
       <defs>
        <path d="M 19.1875 8.296875 
L 53.609375 8.296875 
L 53.609375 0 
L 7.328125 0 
L 7.328125 8.296875 
Q 12.9375 14.109375 22.625 23.890625 
Q 32.328125 33.6875 34.8125 36.53125 
Q 39.546875 41.84375 41.421875 45.53125 
Q 43.3125 49.21875 43.3125 52.78125 
Q 43.3125 58.59375 39.234375 62.25 
Q 35.15625 65.921875 28.609375 65.921875 
Q 23.96875 65.921875 18.8125 64.3125 
Q 13.671875 62.703125 7.8125 59.421875 
L 7.8125 69.390625 
Q 13.765625 71.78125 18.9375 73 
Q 24.125 74.21875 28.421875 74.21875 
Q 39.75 74.21875 46.484375 68.546875 
Q 53.21875 62.890625 53.21875 53.421875 
Q 53.21875 48.921875 51.53125 44.890625 
Q 49.859375 40.875 45.40625 35.40625 
Q 44.1875 33.984375 37.640625 27.21875 
Q 31.109375 20.453125 19.1875 8.296875 
z
" id="DejaVuSans-50"/>
        <path d="M 54.890625 33.015625 
L 54.890625 0 
L 45.90625 0 
L 45.90625 32.71875 
Q 45.90625 40.484375 42.875 44.328125 
Q 39.84375 48.1875 33.796875 48.1875 
Q 26.515625 48.1875 22.3125 43.546875 
Q 18.109375 38.921875 18.109375 30.90625 
L 18.109375 0 
L 9.078125 0 
L 9.078125 75.984375 
L 18.109375 75.984375 
L 18.109375 46.1875 
Q 21.34375 51.125 25.703125 53.5625 
Q 30.078125 56 35.796875 56 
Q 45.21875 56 50.046875 50.171875 
Q 54.890625 44.34375 54.890625 33.015625 
z
" id="DejaVuSans-104"/>
        <path d="M 11.71875 12.40625 
L 22.015625 12.40625 
L 22.015625 0 
L 11.71875 0 
z
M 11.71875 51.703125 
L 22.015625 51.703125 
L 22.015625 39.3125 
L 11.71875 39.3125 
z
" id="DejaVuSans-58"/>
       </defs>
       <use xlink:href="#DejaVuSans-50"/>
       <use x="63.623047" xlink:href="#DejaVuSans-104"/>
       <use x="127.001953" xlink:href="#DejaVuSans-58"/>
       <use x="160.693359" xlink:href="#DejaVuSans-49"/>
       <use x="224.316406" xlink:href="#DejaVuSans-53"/>
       <use x="287.939453" xlink:href="#DejaVuSans-109"/>
      </g>
     </g>
    </g>
    <g id="xtick_3">
     <g id="line2d_3">
      <g>
       <use style="stroke:#000000;stroke-width:0.8;" x="201.5134" xlink:href="#m87f0e3c588" y="288.430125"/>
      </g>
     </g>
     <g id="text_3">
      <!-- 4h:15m -->
      <g transform="translate(182.246213 303.028562)scale(0.1 -0.1)">
       <defs>
        <path d="M 37.796875 64.3125 
L 12.890625 25.390625 
L 37.796875 25.390625 
z
M 35.203125 72.90625 
L 47.609375 72.90625 
L 47.609375 25.390625 
L 58.015625 25.390625 
L 58.015625 17.1875 
L 47.609375 17.1875 
L 47.609375 0 
L 37.796875 0 
L 37.796875 17.1875 
L 4.890625 17.1875 
L 4.890625 26.703125 
z
" id="DejaVuSans-52"/>
       </defs>
       <use xlink:href="#DejaVuSans-52"/>
       <use x="63.623047" xlink:href="#DejaVuSans-104"/>
       <use x="127.001953" xlink:href="#DejaVuSans-58"/>
       <use x="160.693359" xlink:href="#DejaVuSans-49"/>
       <use x="224.316406" xlink:href="#DejaVuSans-53"/>
       <use x="287.939453" xlink:href="#DejaVuSans-109"/>
      </g>
     </g>
    </g>
    <g id="xtick_4">
     <g id="line2d_4">
      <g>
       <use style="stroke:#000000;stroke-width:0.8;" x="256.19206" xlink:href="#m87f0e3c588" y="288.430125"/>
      </g>
     </g>
     <g id="text_4">
      <!-- 6h:15m -->
      <g transform="translate(236.924873 303.028562)scale(0.1 -0.1)">
       <defs>
        <path d="M 33.015625 40.375 
Q 26.375 40.375 22.484375 35.828125 
Q 18.609375 31.296875 18.609375 23.390625 
Q 18.609375 15.53125 22.484375 10.953125 
Q 26.375 6.390625 33.015625 6.390625 
Q 39.65625 6.390625 43.53125 10.953125 
Q 47.40625 15.53125 47.40625 23.390625 
Q 47.40625 31.296875 43.53125 35.828125 
Q 39.65625 40.375 33.015625 40.375 
z
M 52.59375 71.296875 
L 52.59375 62.3125 
Q 48.875 64.0625 45.09375 64.984375 
Q 41.3125 65.921875 37.59375 65.921875 
Q 27.828125 65.921875 22.671875 59.328125 
Q 17.53125 52.734375 16.796875 39.40625 
Q 19.671875 43.65625 24.015625 45.921875 
Q 28.375 48.1875 33.59375 48.1875 
Q 44.578125 48.1875 50.953125 41.515625 
Q 57.328125 34.859375 57.328125 23.390625 
Q 57.328125 12.15625 50.6875 5.359375 
Q 44.046875 -1.421875 33.015625 -1.421875 
Q 20.359375 -1.421875 13.671875 8.265625 
Q 6.984375 17.96875 6.984375 36.375 
Q 6.984375 53.65625 15.1875 63.9375 
Q 23.390625 74.21875 37.203125 74.21875 
Q 40.921875 74.21875 44.703125 73.484375 
Q 48.484375 72.75 52.59375 71.296875 
z
" id="DejaVuSans-54"/>
       </defs>
       <use xlink:href="#DejaVuSans-54"/>
       <use x="63.623047" xlink:href="#DejaVuSans-104"/>
       <use x="127.001953" xlink:href="#DejaVuSans-58"/>
       <use x="160.693359" xlink:href="#DejaVuSans-49"/>
       <use x="224.316406" xlink:href="#DejaVuSans-53"/>
       <use x="287.939453" xlink:href="#DejaVuSans-109"/>
      </g>
     </g>
    </g>
    <g id="xtick_5">
     <g id="line2d_5">
      <g>
       <use style="stroke:#000000;stroke-width:0.8;" x="310.870721" xlink:href="#m87f0e3c588" y="288.430125"/>
      </g>
     </g>
     <g id="text_5">
      <!-- 8h:15m -->
      <g transform="translate(291.603533 303.028562)scale(0.1 -0.1)">
       <defs>
        <path d="M 31.78125 34.625 
Q 24.75 34.625 20.71875 30.859375 
Q 16.703125 27.09375 16.703125 20.515625 
Q 16.703125 13.921875 20.71875 10.15625 
Q 24.75 6.390625 31.78125 6.390625 
Q 38.8125 6.390625 42.859375 10.171875 
Q 46.921875 13.96875 46.921875 20.515625 
Q 46.921875 27.09375 42.890625 30.859375 
Q 38.875 34.625 31.78125 34.625 
z
M 21.921875 38.8125 
Q 15.578125 40.375 12.03125 44.71875 
Q 8.5 49.078125 8.5 55.328125 
Q 8.5 64.0625 14.71875 69.140625 
Q 20.953125 74.21875 31.78125 74.21875 
Q 42.671875 74.21875 48.875 69.140625 
Q 55.078125 64.0625 55.078125 55.328125 
Q 55.078125 49.078125 51.53125 44.71875 
Q 48 40.375 41.703125 38.8125 
Q 48.828125 37.15625 52.796875 32.3125 
Q 56.78125 27.484375 56.78125 20.515625 
Q 56.78125 9.90625 50.3125 4.234375 
Q 43.84375 -1.421875 31.78125 -1.421875 
Q 19.734375 -1.421875 13.25 4.234375 
Q 6.78125 9.90625 6.78125 20.515625 
Q 6.78125 27.484375 10.78125 32.3125 
Q 14.796875 37.15625 21.921875 38.8125 
z
M 18.3125 54.390625 
Q 18.3125 48.734375 21.84375 45.5625 
Q 25.390625 42.390625 31.78125 42.390625 
Q 38.140625 42.390625 41.71875 45.5625 
Q 45.3125 48.734375 45.3125 54.390625 
Q 45.3125 60.0625 41.71875 63.234375 
Q 38.140625 66.40625 31.78125 66.40625 
Q 25.390625 66.40625 21.84375 63.234375 
Q 18.3125 60.0625 18.3125 54.390625 
z
" id="DejaVuSans-56"/>
       </defs>
       <use xlink:href="#DejaVuSans-56"/>
       <use x="63.623047" xlink:href="#DejaVuSans-104"/>
       <use x="127.001953" xlink:href="#DejaVuSans-58"/>
       <use x="160.693359" xlink:href="#DejaVuSans-49"/>
       <use x="224.316406" xlink:href="#DejaVuSans-53"/>
       <use x="287.939453" xlink:href="#DejaVuSans-109"/>
      </g>
     </g>
    </g>
    <g id="xtick_6">
     <g id="line2d_6">
      <g>
       <use style="stroke:#000000;stroke-width:0.8;" x="365.549381" xlink:href="#m87f0e3c588" y="288.430125"/>
      </g>
     </g>
     <g id="text_6">
      <!-- 10h:15m -->
      <g transform="translate(343.100943 303.028562)scale(0.1 -0.1)">
       <defs>
        <path d="M 31.78125 66.40625 
Q 24.171875 66.40625 20.328125 58.90625 
Q 16.5 51.421875 16.5 36.375 
Q 16.5 21.390625 20.328125 13.890625 
Q 24.171875 6.390625 31.78125 6.390625 
Q 39.453125 6.390625 43.28125 13.890625 
Q 47.125 21.390625 47.125 36.375 
Q 47.125 51.421875 43.28125 58.90625 
Q 39.453125 66.40625 31.78125 66.40625 
z
M 31.78125 74.21875 
Q 44.046875 74.21875 50.515625 64.515625 
Q 56.984375 54.828125 56.984375 36.375 
Q 56.984375 17.96875 50.515625 8.265625 
Q 44.046875 -1.421875 31.78125 -1.421875 
Q 19.53125 -1.421875 13.0625 8.265625 
Q 6.59375 17.96875 6.59375 36.375 
Q 6.59375 54.828125 13.0625 64.515625 
Q 19.53125 74.21875 31.78125 74.21875 
z
" id="DejaVuSans-48"/>
       </defs>
       <use xlink:href="#DejaVuSans-49"/>
       <use x="63.623047" xlink:href="#DejaVuSans-48"/>
       <use x="127.246094" xlink:href="#DejaVuSans-104"/>
       <use x="190.625" xlink:href="#DejaVuSans-58"/>
       <use x="224.316406" xlink:href="#DejaVuSans-49"/>
       <use x="287.939453" xlink:href="#DejaVuSans-53"/>
       <use x="351.5625" xlink:href="#DejaVuSans-109"/>
      </g>
     </g>
    </g>
    <g id="xtick_7">
     <g id="line2d_7">
      <g>
       <use style="stroke:#000000;stroke-width:0.8;" x="420.228041" xlink:href="#m87f0e3c588" y="288.430125"/>
      </g>
     </g>
     <g id="text_7">
      <!-- 12h:15m -->
      <g transform="translate(397.779604 303.028562)scale(0.1 -0.1)">
       <use xlink:href="#DejaVuSans-49"/>
       <use x="63.623047" xlink:href="#DejaVuSans-50"/>
       <use x="127.246094" xlink:href="#DejaVuSans-104"/>
       <use x="190.625" xlink:href="#DejaVuSans-58"/>
       <use x="224.316406" xlink:href="#DejaVuSans-49"/>
       <use x="287.939453" xlink:href="#DejaVuSans-53"/>
       <use x="351.5625" xlink:href="#DejaVuSans-109"/>
      </g>
     </g>
    </g>
    <g id="xtick_8">
     <g id="line2d_8">
      <g>
       <use style="stroke:#000000;stroke-width:0.8;" x="474.906702" xlink:href="#m87f0e3c588" y="288.430125"/>
      </g>
     </g>
     <g id="text_8">
      <!-- 14h:15m -->
      <g transform="translate(452.458264 303.028562)scale(0.1 -0.1)">
       <use xlink:href="#DejaVuSans-49"/>
       <use x="63.623047" xlink:href="#DejaVuSans-52"/>
       <use x="127.246094" xlink:href="#DejaVuSans-104"/>
       <use x="190.625" xlink:href="#DejaVuSans-58"/>
       <use x="224.316406" xlink:href="#DejaVuSans-49"/>
       <use x="287.939453" xlink:href="#DejaVuSans-53"/>
       <use x="351.5625" xlink:href="#DejaVuSans-109"/>
      </g>
     </g>
    </g>
    <g id="xtick_9">
     <g id="line2d_9">
      <g>
       <use style="stroke:#000000;stroke-width:0.8;" x="529.585362" xlink:href="#m87f0e3c588" y="288.430125"/>
      </g>
     </g>
     <g id="text_9">
      <!-- 16h:15m -->
      <g transform="translate(507.136924 303.028562)scale(0.1 -0.1)">
       <use xlink:href="#DejaVuSans-49"/>
       <use x="63.623047" xlink:href="#DejaVuSans-54"/>
       <use x="127.246094" xlink:href="#DejaVuSans-104"/>
       <use x="190.625" xlink:href="#DejaVuSans-58"/>
       <use x="224.316406" xlink:href="#DejaVuSans-49"/>
       <use x="287.939453" xlink:href="#DejaVuSans-53"/>
       <use x="351.5625" xlink:href="#DejaVuSans-109"/>
      </g>
     </g>
    </g>
    <g id="xtick_10">
     <g id="line2d_10">
      <g>
       <use style="stroke:#000000;stroke-width:0.8;" x="584.264022" xlink:href="#m87f0e3c588" y="288.430125"/>
      </g>
     </g>
     <g id="text_10">
      <!-- 18h:15m -->
      <g transform="translate(561.815585 303.028562)scale(0.1 -0.1)">
       <use xlink:href="#DejaVuSans-49"/>
       <use x="63.623047" xlink:href="#DejaVuSans-56"/>
       <use x="127.246094" xlink:href="#DejaVuSans-104"/>
       <use x="190.625" xlink:href="#DejaVuSans-58"/>
       <use x="224.316406" xlink:href="#DejaVuSans-49"/>
       <use x="287.939453" xlink:href="#DejaVuSans-53"/>
       <use x="351.5625" xlink:href="#DejaVuSans-109"/>
      </g>
     </g>
    </g>
    <g id="xtick_11">
     <g id="line2d_11">
      <g>
       <use style="stroke:#000000;stroke-width:0.8;" x="638.942682" xlink:href="#m87f0e3c588" y="288.430125"/>
      </g>
     </g>
     <g id="text_11">
      <!-- 20h:15m -->
      <g transform="translate(616.494245 303.028562)scale(0.1 -0.1)">
       <use xlink:href="#DejaVuSans-50"/>
       <use x="63.623047" xlink:href="#DejaVuSans-48"/>
       <use x="127.246094" xlink:href="#DejaVuSans-104"/>
       <use x="190.625" xlink:href="#DejaVuSans-58"/>
       <use x="224.316406" xlink:href="#DejaVuSans-49"/>
       <use x="287.939453" xlink:href="#DejaVuSans-53"/>
       <use x="351.5625" xlink:href="#DejaVuSans-109"/>
      </g>
     </g>
    </g>
    <g id="xtick_12">
     <g id="line2d_12">
      <g>
       <use style="stroke:#000000;stroke-width:0.8;" x="693.621343" xlink:href="#m87f0e3c588" y="288.430125"/>
      </g>
     </g>
     <g id="text_12">
      <!-- 22h:15m -->
      <g transform="translate(671.172905 303.028562)scale(0.1 -0.1)">
       <use xlink:href="#DejaVuSans-50"/>
       <use x="63.623047" xlink:href="#DejaVuSans-50"/>
       <use x="127.246094" xlink:href="#DejaVuSans-104"/>
       <use x="190.625" xlink:href="#DejaVuSans-58"/>
       <use x="224.316406" xlink:href="#DejaVuSans-49"/>
       <use x="287.939453" xlink:href="#DejaVuSans-53"/>
       <use x="351.5625" xlink:href="#DejaVuSans-109"/>
      </g>
     </g>
    </g>
    <g id="text_13">
     <!-- Time (hour:minute) -->
     <g transform="translate(368.403594 316.706687)scale(0.1 -0.1)">
      <defs>
       <path d="M -0.296875 72.90625 
L 61.375 72.90625 
L 61.375 64.59375 
L 35.5 64.59375 
L 35.5 0 
L 25.59375 0 
L 25.59375 64.59375 
L -0.296875 64.59375 
z
" id="DejaVuSans-84"/>
       <path d="M 9.421875 54.6875 
L 18.40625 54.6875 
L 18.40625 0 
L 9.421875 0 
z
M 9.421875 75.984375 
L 18.40625 75.984375 
L 18.40625 64.59375 
L 9.421875 64.59375 
z
" id="DejaVuSans-105"/>
       <path d="M 56.203125 29.59375 
L 56.203125 25.203125 
L 14.890625 25.203125 
Q 15.484375 15.921875 20.484375 11.0625 
Q 25.484375 6.203125 34.421875 6.203125 
Q 39.59375 6.203125 44.453125 7.46875 
Q 49.3125 8.734375 54.109375 11.28125 
L 54.109375 2.78125 
Q 49.265625 0.734375 44.1875 -0.34375 
Q 39.109375 -1.421875 33.890625 -1.421875 
Q 20.796875 -1.421875 13.15625 6.1875 
Q 5.515625 13.8125 5.515625 26.8125 
Q 5.515625 40.234375 12.765625 48.109375 
Q 20.015625 56 32.328125 56 
Q 43.359375 56 49.78125 48.890625 
Q 56.203125 41.796875 56.203125 29.59375 
z
M 47.21875 32.234375 
Q 47.125 39.59375 43.09375 43.984375 
Q 39.0625 48.390625 32.421875 48.390625 
Q 24.90625 48.390625 20.390625 44.140625 
Q 15.875 39.890625 15.1875 32.171875 
z
" id="DejaVuSans-101"/>
       <path id="DejaVuSans-32"/>
       <path d="M 31 75.875 
Q 24.46875 64.65625 21.28125 53.65625 
Q 18.109375 42.671875 18.109375 31.390625 
Q 18.109375 20.125 21.3125 9.0625 
Q 24.515625 -2 31 -13.1875 
L 23.1875 -13.1875 
Q 15.875 -1.703125 12.234375 9.375 
Q 8.59375 20.453125 8.59375 31.390625 
Q 8.59375 42.28125 12.203125 53.3125 
Q 15.828125 64.359375 23.1875 75.875 
z
" id="DejaVuSans-40"/>
       <path d="M 30.609375 48.390625 
Q 23.390625 48.390625 19.1875 42.75 
Q 14.984375 37.109375 14.984375 27.296875 
Q 14.984375 17.484375 19.15625 11.84375 
Q 23.34375 6.203125 30.609375 6.203125 
Q 37.796875 6.203125 41.984375 11.859375 
Q 46.1875 17.53125 46.1875 27.296875 
Q 46.1875 37.015625 41.984375 42.703125 
Q 37.796875 48.390625 30.609375 48.390625 
z
M 30.609375 56 
Q 42.328125 56 49.015625 48.375 
Q 55.71875 40.765625 55.71875 27.296875 
Q 55.71875 13.875 49.015625 6.21875 
Q 42.328125 -1.421875 30.609375 -1.421875 
Q 18.84375 -1.421875 12.171875 6.21875 
Q 5.515625 13.875 5.515625 27.296875 
Q 5.515625 40.765625 12.171875 48.375 
Q 18.84375 56 30.609375 56 
z
" id="DejaVuSans-111"/>
       <path d="M 8.5 21.578125 
L 8.5 54.6875 
L 17.484375 54.6875 
L 17.484375 21.921875 
Q 17.484375 14.15625 20.5 10.265625 
Q 23.53125 6.390625 29.59375 6.390625 
Q 36.859375 6.390625 41.078125 11.03125 
Q 45.3125 15.671875 45.3125 23.6875 
L 45.3125 54.6875 
L 54.296875 54.6875 
L 54.296875 0 
L 45.3125 0 
L 45.3125 8.40625 
Q 42.046875 3.421875 37.71875 1 
Q 33.40625 -1.421875 27.6875 -1.421875 
Q 18.265625 -1.421875 13.375 4.4375 
Q 8.5 10.296875 8.5 21.578125 
z
M 31.109375 56 
z
" id="DejaVuSans-117"/>
       <path d="M 41.109375 46.296875 
Q 39.59375 47.171875 37.8125 47.578125 
Q 36.03125 48 33.890625 48 
Q 26.265625 48 22.1875 43.046875 
Q 18.109375 38.09375 18.109375 28.8125 
L 18.109375 0 
L 9.078125 0 
L 9.078125 54.6875 
L 18.109375 54.6875 
L 18.109375 46.1875 
Q 20.953125 51.171875 25.484375 53.578125 
Q 30.03125 56 36.53125 56 
Q 37.453125 56 38.578125 55.875 
Q 39.703125 55.765625 41.0625 55.515625 
z
" id="DejaVuSans-114"/>
       <path d="M 54.890625 33.015625 
L 54.890625 0 
L 45.90625 0 
L 45.90625 32.71875 
Q 45.90625 40.484375 42.875 44.328125 
Q 39.84375 48.1875 33.796875 48.1875 
Q 26.515625 48.1875 22.3125 43.546875 
Q 18.109375 38.921875 18.109375 30.90625 
L 18.109375 0 
L 9.078125 0 
L 9.078125 54.6875 
L 18.109375 54.6875 
L 18.109375 46.1875 
Q 21.34375 51.125 25.703125 53.5625 
Q 30.078125 56 35.796875 56 
Q 45.21875 56 50.046875 50.171875 
Q 54.890625 44.34375 54.890625 33.015625 
z
" id="DejaVuSans-110"/>
       <path d="M 18.3125 70.21875 
L 18.3125 54.6875 
L 36.8125 54.6875 
L 36.8125 47.703125 
L 18.3125 47.703125 
L 18.3125 18.015625 
Q 18.3125 11.328125 20.140625 9.421875 
Q 21.96875 7.515625 27.59375 7.515625 
L 36.8125 7.515625 
L 36.8125 0 
L 27.59375 0 
Q 17.1875 0 13.234375 3.875 
Q 9.28125 7.765625 9.28125 18.015625 
L 9.28125 47.703125 
L 2.6875 47.703125 
L 2.6875 54.6875 
L 9.28125 54.6875 
L 9.28125 70.21875 
z
" id="DejaVuSans-116"/>
       <path d="M 8.015625 75.875 
L 15.828125 75.875 
Q 23.140625 64.359375 26.78125 53.3125 
Q 30.421875 42.28125 30.421875 31.390625 
Q 30.421875 20.453125 26.78125 9.375 
Q 23.140625 -1.703125 15.828125 -13.1875 
L 8.015625 -13.1875 
Q 14.5 -2 17.703125 9.0625 
Q 20.90625 20.125 20.90625 31.390625 
Q 20.90625 42.671875 17.703125 53.65625 
Q 14.5 64.65625 8.015625 75.875 
z
" id="DejaVuSans-41"/>
      </defs>
      <use xlink:href="#DejaVuSans-84"/>
      <use x="57.958984" xlink:href="#DejaVuSans-105"/>
      <use x="85.742188" xlink:href="#DejaVuSans-109"/>
      <use x="183.154297" xlink:href="#DejaVuSans-101"/>
      <use x="244.677734" xlink:href="#DejaVuSans-32"/>
      <use x="276.464844" xlink:href="#DejaVuSans-40"/>
      <use x="315.478516" xlink:href="#DejaVuSans-104"/>
      <use x="378.857422" xlink:href="#DejaVuSans-111"/>
      <use x="440.039062" xlink:href="#DejaVuSans-117"/>
      <use x="503.417969" xlink:href="#DejaVuSans-114"/>
      <use x="542.78125" xlink:href="#DejaVuSans-58"/>
      <use x="576.472656" xlink:href="#DejaVuSans-109"/>
      <use x="673.884766" xlink:href="#DejaVuSans-105"/>
      <use x="701.667969" xlink:href="#DejaVuSans-110"/>
      <use x="765.046875" xlink:href="#DejaVuSans-117"/>
      <use x="828.425781" xlink:href="#DejaVuSans-116"/>
      <use x="867.634766" xlink:href="#DejaVuSans-101"/>
      <use x="929.158203" xlink:href="#DejaVuSans-41"/>
     </g>
    </g>
   </g>
   <g id="matplotlib.axis_2">
    <g id="ytick_1">
     <g id="line2d_13">
      <defs>
       <path d="M 0 0 
L -3.5 0 
" id="m3b1dc334a6" style="stroke:#000000;stroke-width:0.8;"/>
      </defs>
      <g>
       <use style="stroke:#000000;stroke-width:0.8;" x="59.690625" xlink:href="#m3b1dc334a6" y="275.936548"/>
      </g>
     </g>
     <g id="text_14">
      <!-- 6000 -->
      <g transform="translate(27.240625 279.735767)scale(0.1 -0.1)">
       <use xlink:href="#DejaVuSans-54"/>
       <use x="63.623047" xlink:href="#DejaVuSans-48"/>
       <use x="127.246094" xlink:href="#DejaVuSans-48"/>
       <use x="190.869141" xlink:href="#DejaVuSans-48"/>
      </g>
     </g>
    </g>
    <g id="ytick_2">
     <g id="line2d_14">
      <g>
       <use style="stroke:#000000;stroke-width:0.8;" x="59.690625" xlink:href="#m3b1dc334a6" y="222.209978"/>
      </g>
     </g>
     <g id="text_15">
      <!-- 7000 -->
      <g transform="translate(27.240625 226.009197)scale(0.1 -0.1)">
       <defs>
        <path d="M 8.203125 72.90625 
L 55.078125 72.90625 
L 55.078125 68.703125 
L 28.609375 0 
L 18.3125 0 
L 43.21875 64.59375 
L 8.203125 64.59375 
z
" id="DejaVuSans-55"/>
       </defs>
       <use xlink:href="#DejaVuSans-55"/>
       <use x="63.623047" xlink:href="#DejaVuSans-48"/>
       <use x="127.246094" xlink:href="#DejaVuSans-48"/>
       <use x="190.869141" xlink:href="#DejaVuSans-48"/>
      </g>
     </g>
    </g>
    <g id="ytick_3">
     <g id="line2d_15">
      <g>
       <use style="stroke:#000000;stroke-width:0.8;" x="59.690625" xlink:href="#m3b1dc334a6" y="168.483408"/>
      </g>
     </g>
     <g id="text_16">
      <!-- 8000 -->
      <g transform="translate(27.240625 172.282627)scale(0.1 -0.1)">
       <use xlink:href="#DejaVuSans-56"/>
       <use x="63.623047" xlink:href="#DejaVuSans-48"/>
       <use x="127.246094" xlink:href="#DejaVuSans-48"/>
       <use x="190.869141" xlink:href="#DejaVuSans-48"/>
      </g>
     </g>
    </g>
    <g id="ytick_4">
     <g id="line2d_16">
      <g>
       <use style="stroke:#000000;stroke-width:0.8;" x="59.690625" xlink:href="#m3b1dc334a6" y="114.756838"/>
      </g>
     </g>
     <g id="text_17">
      <!-- 9000 -->
      <g transform="translate(27.240625 118.556057)scale(0.1 -0.1)">
       <defs>
        <path d="M 10.984375 1.515625 
L 10.984375 10.5 
Q 14.703125 8.734375 18.5 7.8125 
Q 22.3125 6.890625 25.984375 6.890625 
Q 35.75 6.890625 40.890625 13.453125 
Q 46.046875 20.015625 46.78125 33.40625 
Q 43.953125 29.203125 39.59375 26.953125 
Q 35.25 24.703125 29.984375 24.703125 
Q 19.046875 24.703125 12.671875 31.3125 
Q 6.296875 37.9375 6.296875 49.421875 
Q 6.296875 60.640625 12.9375 67.421875 
Q 19.578125 74.21875 30.609375 74.21875 
Q 43.265625 74.21875 49.921875 64.515625 
Q 56.59375 54.828125 56.59375 36.375 
Q 56.59375 19.140625 48.40625 8.859375 
Q 40.234375 -1.421875 26.421875 -1.421875 
Q 22.703125 -1.421875 18.890625 -0.6875 
Q 15.09375 0.046875 10.984375 1.515625 
z
M 30.609375 32.421875 
Q 37.25 32.421875 41.125 36.953125 
Q 45.015625 41.5 45.015625 49.421875 
Q 45.015625 57.28125 41.125 61.84375 
Q 37.25 66.40625 30.609375 66.40625 
Q 23.96875 66.40625 20.09375 61.84375 
Q 16.21875 57.28125 16.21875 49.421875 
Q 16.21875 41.5 20.09375 36.953125 
Q 23.96875 32.421875 30.609375 32.421875 
z
" id="DejaVuSans-57"/>
       </defs>
       <use xlink:href="#DejaVuSans-57"/>
       <use x="63.623047" xlink:href="#DejaVuSans-48"/>
       <use x="127.246094" xlink:href="#DejaVuSans-48"/>
       <use x="190.869141" xlink:href="#DejaVuSans-48"/>
      </g>
     </g>
    </g>
    <g id="ytick_5">
     <g id="line2d_17">
      <g>
       <use style="stroke:#000000;stroke-width:0.8;" x="59.690625" xlink:href="#m3b1dc334a6" y="61.030268"/>
      </g>
     </g>
     <g id="text_18">
      <!-- 10000 -->
      <g transform="translate(20.878125 64.829487)scale(0.1 -0.1)">
       <use xlink:href="#DejaVuSans-49"/>
       <use x="63.623047" xlink:href="#DejaVuSans-48"/>
       <use x="127.246094" xlink:href="#DejaVuSans-48"/>
       <use x="190.869141" xlink:href="#DejaVuSans-48"/>
       <use x="254.492188" xlink:href="#DejaVuSans-48"/>
      </g>
     </g>
    </g>
    <g id="text_19">
     <!-- Edge coverage -->
     <g transform="translate(14.798437 192.762406)rotate(-90)scale(0.1 -0.1)">
      <defs>
       <path d="M 9.8125 72.90625 
L 55.90625 72.90625 
L 55.90625 64.59375 
L 19.671875 64.59375 
L 19.671875 43.015625 
L 54.390625 43.015625 
L 54.390625 34.71875 
L 19.671875 34.71875 
L 19.671875 8.296875 
L 56.78125 8.296875 
L 56.78125 0 
L 9.8125 0 
z
" id="DejaVuSans-69"/>
       <path d="M 45.40625 46.390625 
L 45.40625 75.984375 
L 54.390625 75.984375 
L 54.390625 0 
L 45.40625 0 
L 45.40625 8.203125 
Q 42.578125 3.328125 38.25 0.953125 
Q 33.9375 -1.421875 27.875 -1.421875 
Q 17.96875 -1.421875 11.734375 6.484375 
Q 5.515625 14.40625 5.515625 27.296875 
Q 5.515625 40.1875 11.734375 48.09375 
Q 17.96875 56 27.875 56 
Q 33.9375 56 38.25 53.625 
Q 42.578125 51.265625 45.40625 46.390625 
z
M 14.796875 27.296875 
Q 14.796875 17.390625 18.875 11.75 
Q 22.953125 6.109375 30.078125 6.109375 
Q 37.203125 6.109375 41.296875 11.75 
Q 45.40625 17.390625 45.40625 27.296875 
Q 45.40625 37.203125 41.296875 42.84375 
Q 37.203125 48.484375 30.078125 48.484375 
Q 22.953125 48.484375 18.875 42.84375 
Q 14.796875 37.203125 14.796875 27.296875 
z
" id="DejaVuSans-100"/>
       <path d="M 45.40625 27.984375 
Q 45.40625 37.75 41.375 43.109375 
Q 37.359375 48.484375 30.078125 48.484375 
Q 22.859375 48.484375 18.828125 43.109375 
Q 14.796875 37.75 14.796875 27.984375 
Q 14.796875 18.265625 18.828125 12.890625 
Q 22.859375 7.515625 30.078125 7.515625 
Q 37.359375 7.515625 41.375 12.890625 
Q 45.40625 18.265625 45.40625 27.984375 
z
M 54.390625 6.78125 
Q 54.390625 -7.171875 48.1875 -13.984375 
Q 42 -20.796875 29.203125 -20.796875 
Q 24.46875 -20.796875 20.265625 -20.09375 
Q 16.0625 -19.390625 12.109375 -17.921875 
L 12.109375 -9.1875 
Q 16.0625 -11.328125 19.921875 -12.34375 
Q 23.78125 -13.375 27.78125 -13.375 
Q 36.625 -13.375 41.015625 -8.765625 
Q 45.40625 -4.15625 45.40625 5.171875 
L 45.40625 9.625 
Q 42.625 4.78125 38.28125 2.390625 
Q 33.9375 0 27.875 0 
Q 17.828125 0 11.671875 7.65625 
Q 5.515625 15.328125 5.515625 27.984375 
Q 5.515625 40.671875 11.671875 48.328125 
Q 17.828125 56 27.875 56 
Q 33.9375 56 38.28125 53.609375 
Q 42.625 51.21875 45.40625 46.390625 
L 45.40625 54.6875 
L 54.390625 54.6875 
z
" id="DejaVuSans-103"/>
       <path d="M 48.78125 52.59375 
L 48.78125 44.1875 
Q 44.96875 46.296875 41.140625 47.34375 
Q 37.3125 48.390625 33.40625 48.390625 
Q 24.65625 48.390625 19.8125 42.84375 
Q 14.984375 37.3125 14.984375 27.296875 
Q 14.984375 17.28125 19.8125 11.734375 
Q 24.65625 6.203125 33.40625 6.203125 
Q 37.3125 6.203125 41.140625 7.25 
Q 44.96875 8.296875 48.78125 10.40625 
L 48.78125 2.09375 
Q 45.015625 0.34375 40.984375 -0.53125 
Q 36.96875 -1.421875 32.421875 -1.421875 
Q 20.0625 -1.421875 12.78125 6.34375 
Q 5.515625 14.109375 5.515625 27.296875 
Q 5.515625 40.671875 12.859375 48.328125 
Q 20.21875 56 33.015625 56 
Q 37.15625 56 41.109375 55.140625 
Q 45.0625 54.296875 48.78125 52.59375 
z
" id="DejaVuSans-99"/>
       <path d="M 2.984375 54.6875 
L 12.5 54.6875 
L 29.59375 8.796875 
L 46.6875 54.6875 
L 56.203125 54.6875 
L 35.6875 0 
L 23.484375 0 
z
" id="DejaVuSans-118"/>
       <path d="M 34.28125 27.484375 
Q 23.390625 27.484375 19.1875 25 
Q 14.984375 22.515625 14.984375 16.5 
Q 14.984375 11.71875 18.140625 8.90625 
Q 21.296875 6.109375 26.703125 6.109375 
Q 34.1875 6.109375 38.703125 11.40625 
Q 43.21875 16.703125 43.21875 25.484375 
L 43.21875 27.484375 
z
M 52.203125 31.203125 
L 52.203125 0 
L 43.21875 0 
L 43.21875 8.296875 
Q 40.140625 3.328125 35.546875 0.953125 
Q 30.953125 -1.421875 24.3125 -1.421875 
Q 15.921875 -1.421875 10.953125 3.296875 
Q 6 8.015625 6 15.921875 
Q 6 25.140625 12.171875 29.828125 
Q 18.359375 34.515625 30.609375 34.515625 
L 43.21875 34.515625 
L 43.21875 35.40625 
Q 43.21875 41.609375 39.140625 45 
Q 35.0625 48.390625 27.6875 48.390625 
Q 23 48.390625 18.546875 47.265625 
Q 14.109375 46.140625 10.015625 43.890625 
L 10.015625 52.203125 
Q 14.9375 54.109375 19.578125 55.046875 
Q 24.21875 56 28.609375 56 
Q 40.484375 56 46.34375 49.84375 
Q 52.203125 43.703125 52.203125 31.203125 
z
" id="DejaVuSans-97"/>
      </defs>
      <use xlink:href="#DejaVuSans-69"/>
      <use x="63.183594" xlink:href="#DejaVuSans-100"/>
      <use x="126.660156" xlink:href="#DejaVuSans-103"/>
      <use x="190.136719" xlink:href="#DejaVuSans-101"/>
      <use x="251.660156" xlink:href="#DejaVuSans-32"/>
      <use x="283.447266" xlink:href="#DejaVuSans-99"/>
      <use x="338.427734" xlink:href="#DejaVuSans-111"/>
      <use x="399.609375" xlink:href="#DejaVuSans-118"/>
      <use x="458.789062" xlink:href="#DejaVuSans-101"/>
      <use x="520.3125" xlink:href="#DejaVuSans-114"/>
      <use x="561.425781" xlink:href="#DejaVuSans-97"/>
      <use x="622.705078" xlink:href="#DejaVuSans-103"/>
      <use x="686.181641" xlink:href="#DejaVuSans-101"/>
     </g>
    </g>
   </g>
   <g id="line2d_18">
    <path clip-path="url(#p488568256b)" d="M 92.15608 221.672713 
L 98.990912 192.843035 
L 105.825745 192.112354 
L 112.660577 191.360182 
L 119.49541 190.618755 
L 126.330242 190.307141 
L 133.165075 189.726894 
L 139.999907 189.651677 
L 146.83474 189.404535 
L 153.669572 189.307827 
L 160.504405 189.307827 
L 167.339237 188.835033 
L 174.17407 188.835033 
L 181.008903 188.308512 
L 187.843735 188.22255 
L 194.678568 187.943172 
L 201.5134 187.653048 
L 208.348233 187.384415 
L 215.183065 187.233981 
L 222.017898 186.965348 
L 228.85273 186.857895 
L 235.687563 186.137959 
L 242.522395 184.612124 
L 249.357228 184.257529 
L 256.19206 161.101377 
L 263.026893 160.983179 
L 269.861725 159.414363 
L 276.696558 158.973805 
L 283.531391 158.812625 
L 290.366223 158.812625 
L 297.201056 158.748154 
L 304.035888 158.511757 
L 310.870721 158.447285 
L 317.705553 158.350577 
L 324.540386 157.08263 
L 331.375218 156.674308 
L 338.210051 156.674308 
L 345.044883 146.348061 
L 351.879716 146.197627 
L 358.714548 145.714088 
L 365.549381 145.574399 
L 372.384214 145.445455 
L 379.219046 110.576911 
L 386.053879 110.05039 
L 392.888711 108.599773 
L 399.723544 108.599773 
L 406.558376 99.541473 
L 413.393209 99.43402 
L 420.228041 97.274212 
L 427.062874 97.080796 
L 433.897706 96.822909 
L 440.732539 95.157385 
L 447.567371 95.14664 
L 454.402204 92.374349 
L 461.237036 92.288386 
L 468.071869 91.880064 
L 474.906702 91.869319 
L 481.741534 91.804847 
L 488.576367 91.278327 
L 495.411199 88.258894 
L 502.246032 88.258894 
L 509.080864 88.194422 
L 515.915697 87.646411 
L 522.750529 87.646411 
L 529.585362 87.614175 
L 536.420194 87.614175 
L 543.255027 87.506722 
L 550.089859 87.356287 
L 556.924692 87.270325 
L 563.759525 87.0984 
L 570.594357 87.0984 
L 577.42919 85.099771 
L 584.264022 84.949337 
L 591.098855 84.949337 
L 597.933687 83.573937 
L 604.76852 81.61829 
L 611.603352 78.22277 
L 618.438185 77.51358 
L 625.273017 77.363145 
L 632.10785 76.901097 
L 638.942682 76.901097 
L 645.777515 76.793644 
L 652.612347 75.934018 
L 659.44718 74.848742 
L 666.282013 74.848742 
L 673.116845 74.827251 
L 679.951678 74.719798 
L 686.78651 74.719798 
L 693.621343 74.719798 
L 700.456175 74.719798 
L 707.291008 74.601599 
L 714.12584 74.601599 
L 720.960673 73.913899 
L 727.795505 73.913899 
L 734.630338 59.568905 
L 741.46517 59.55816 
" style="fill:none;stroke:#c7c7c7;stroke-linecap:square;stroke-width:1.5;"/>
   </g>
   <g id="line2d_19">
    <path clip-path="url(#p488568256b)" d="M 92.15608 193.54148 
L 98.990912 191.757758 
L 105.825745 190.328632 
L 112.660577 188.5664 
L 119.49541 187.21249 
L 126.330242 184.698087 
L 133.165075 183.225979 
L 139.999907 181.270332 
L 146.83474 180.776047 
L 153.669572 179.841205 
L 160.504405 178.057483 
L 167.339237 176.134072 
L 174.17407 175.586061 
L 181.008903 174.135443 
L 187.843735 173.394017 
L 194.678568 171.266444 
L 201.5134 170.922594 
L 208.348233 170.600235 
L 215.183065 170.24564 
L 222.017898 168.752041 
L 228.85273 168.118067 
L 235.687563 167.387386 
L 242.522395 167.258442 
L 249.357228 166.871611 
L 256.19206 166.860866 
L 263.026893 166.785648 
L 269.861725 166.656705 
L 276.696558 166.388072 
L 283.531391 165.431739 
L 290.366223 165.388758 
L 297.201056 165.001926 
L 304.035888 164.733294 
L 310.870721 164.60435 
L 317.705553 164.539878 
L 324.540386 164.539878 
L 331.375218 164.185283 
L 338.210051 164.163792 
L 345.044883 164.088575 
L 351.879716 164.067084 
L 358.714548 163.970376 
L 365.549381 163.776961 
L 372.384214 163.100006 
L 379.219046 163.035534 
L 386.053879 162.981807 
L 392.888711 162.895845 
L 399.723544 162.627212 
L 406.558376 162.594976 
L 413.393209 162.433796 
L 420.228041 162.433796 
L 427.062874 162.433796 
L 433.897706 161.982493 
L 440.732539 161.918021 
L 447.567371 161.767587 
L 454.402204 161.466718 
L 461.237036 161.402246 
L 468.071869 161.219576 
L 474.906702 161.18734 
L 481.741534 161.122868 
L 488.576367 161.122868 
L 495.411199 161.090632 
L 502.246032 161.036905 
L 509.080864 161.036905 
L 515.915697 161.00467 
L 522.750529 160.746782 
L 529.585362 160.746782 
L 536.420194 160.746782 
L 543.255027 160.746782 
L 550.089859 160.639329 
L 556.924692 160.585602 
L 563.759525 160.402932 
L 570.594357 160.402932 
L 577.42919 160.402932 
L 584.264022 160.402932 
L 591.098855 160.392187 
L 597.933687 160.392187 
L 604.76852 160.392187 
L 611.603352 160.392187 
L 618.438185 160.392187 
L 625.273017 160.392187 
L 632.10785 160.241752 
L 638.942682 160.241752 
L 645.777515 160.241752 
L 652.612347 160.241752 
L 659.44718 160.241752 
L 666.282013 160.198771 
L 673.116845 160.198771 
L 679.951678 160.198771 
L 686.78651 160.17728 
L 693.621343 160.080573 
L 700.456175 160.080573 
L 707.291008 160.080573 
L 714.12584 159.930138 
L 720.960673 159.930138 
L 727.795505 159.930138 
L 734.630338 159.930138 
L 741.46517 159.919393 
" style="fill:none;stroke:#1f77b4;stroke-linecap:square;stroke-width:1.5;"/>
   </g>
   <g id="line2d_20">
    <path clip-path="url(#p488568256b)" d="M 92.15608 193.917566 
L 98.990912 187.824973 
L 105.825745 185.084918 
L 112.660577 183.61281 
L 119.49541 182.387844 
L 126.330242 181.356294 
L 133.165075 180.657849 
L 139.999907 180.324744 
L 146.83474 179.357666 
L 153.669572 178.326116 
L 160.504405 175.811712 
L 167.339237 174.425567 
L 174.17407 173.576687 
L 181.008903 173.275818 
L 187.843735 173.146874 
L 194.678568 172.738552 
L 201.5134 172.577373 
L 208.348233 172.12607 
L 215.183065 172.104579 
L 222.017898 171.266444 
L 228.85273 171.137501 
L 235.687563 171.062283 
L 242.522395 170.976321 
L 249.357228 170.901104 
L 256.19206 170.525018 
L 263.026893 170.471291 
L 269.861725 170.471291 
L 276.696558 170.385329 
L 283.531391 170.353093 
L 290.366223 170.353093 
L 297.201056 170.353093 
L 304.035888 170.342347 
L 310.870721 170.299366 
L 317.705553 170.299366 
L 324.540386 169.643902 
L 331.375218 169.257071 
L 338.210051 169.23558 
L 345.044883 169.23558 
L 351.879716 169.203344 
L 358.714548 169.020674 
L 365.549381 169.020674 
L 372.384214 168.827258 
L 379.219046 168.827258 
L 386.053879 168.762786 
L 392.888711 168.762786 
L 399.723544 168.762786 
L 406.558376 168.762786 
L 413.393209 168.762786 
L 420.228041 168.762786 
L 427.062874 168.741296 
L 433.897706 168.719805 
L 440.732539 168.580116 
L 447.567371 168.526389 
L 454.402204 168.3867 
L 461.237036 168.3867 
L 468.071869 168.36521 
L 474.906702 168.36521 
L 481.741534 168.36521 
L 488.576367 168.36521 
L 495.411199 168.36521 
L 502.246032 168.36521 
L 509.080864 167.924652 
L 515.915697 167.924652 
L 522.750529 167.924652 
L 529.585362 167.913906 
L 536.420194 167.913906 
L 543.255027 167.913906 
L 550.089859 167.913906 
L 556.924692 167.913906 
L 563.759525 167.913906 
L 570.594357 167.913906 
L 577.42919 167.913906 
L 584.264022 167.913906 
L 591.098855 167.913906 
L 597.933687 167.913906 
L 604.76852 167.913906 
L 611.603352 167.913906 
L 618.438185 167.913906 
L 625.273017 167.913906 
L 632.10785 167.913906 
L 638.942682 167.795708 
L 645.777515 167.795708 
L 652.612347 167.784963 
L 659.44718 167.752727 
L 666.282013 167.752727 
L 673.116845 167.752727 
L 679.951678 167.752727 
L 686.78651 167.752727 
L 693.621343 167.35515 
L 700.456175 167.35515 
L 707.291008 167.33366 
L 714.12584 167.33366 
L 720.960673 167.33366 
L 727.795505 167.33366 
L 734.630338 167.312169 
L 741.46517 167.312169 
" style="fill:none;stroke:#98df8a;stroke-linecap:square;stroke-width:1.5;"/>
   </g>
   <g id="line2d_21">
    <path clip-path="url(#p488568256b)" d="M 92.15608 226.454377 
L 98.990912 226.454377 
L 105.825745 226.454377 
L 112.660577 226.454377 
L 119.49541 226.454377 
L 126.330242 226.454377 
L 133.165075 226.454377 
L 139.999907 226.454377 
L 146.83474 226.454377 
L 153.669572 226.454377 
L 160.504405 226.454377 
L 167.339237 226.454377 
L 174.17407 226.454377 
L 181.008903 226.454377 
L 187.843735 226.454377 
L 194.678568 226.454377 
L 201.5134 226.454377 
L 208.348233 226.454377 
L 215.183065 226.454377 
L 222.017898 226.454377 
L 228.85273 226.454377 
L 235.687563 226.454377 
L 242.522395 226.454377 
L 249.357228 226.454377 
L 256.19206 226.454377 
L 263.026893 226.454377 
L 269.861725 226.454377 
L 276.696558 226.454377 
L 283.531391 226.454377 
L 290.366223 226.454377 
L 297.201056 226.454377 
L 304.035888 226.454377 
L 310.870721 226.454377 
L 317.705553 226.454377 
L 324.540386 226.454377 
L 331.375218 226.454377 
L 338.210051 226.454377 
L 345.044883 226.454377 
L 351.879716 226.454377 
L 358.714548 226.454377 
L 365.549381 226.454377 
L 372.384214 226.454377 
L 379.219046 226.454377 
L 386.053879 226.454377 
L 392.888711 226.454377 
L 399.723544 226.454377 
L 406.558376 226.454377 
L 413.393209 226.454377 
L 420.228041 226.454377 
L 427.062874 226.454377 
L 433.897706 226.454377 
L 440.732539 226.454377 
L 447.567371 226.454377 
L 454.402204 226.454377 
L 461.237036 226.454377 
L 468.071869 226.454377 
L 474.906702 226.454377 
L 481.741534 226.454377 
L 488.576367 226.454377 
L 495.411199 226.454377 
L 502.246032 226.454377 
L 509.080864 226.454377 
L 515.915697 226.454377 
L 522.750529 226.454377 
L 529.585362 226.454377 
L 536.420194 226.454377 
L 543.255027 226.454377 
L 550.089859 226.454377 
L 556.924692 226.454377 
L 563.759525 226.454377 
L 570.594357 226.454377 
L 577.42919 226.454377 
L 584.264022 226.454377 
L 591.098855 226.454377 
L 597.933687 226.454377 
L 604.76852 226.454377 
L 611.603352 226.454377 
L 618.438185 226.454377 
L 625.273017 226.454377 
L 632.10785 226.454377 
L 638.942682 226.454377 
L 645.777515 226.454377 
L 652.612347 226.454377 
L 659.44718 226.454377 
L 666.282013 226.454377 
L 673.116845 226.454377 
L 679.951678 226.454377 
L 686.78651 226.454377 
L 693.621343 226.454377 
L 700.456175 226.454377 
L 707.291008 226.454377 
L 714.12584 226.454377 
L 720.960673 226.454377 
L 727.795505 226.454377 
L 734.630338 226.454377 
L 741.46517 226.454377 
" style="fill:none;stroke:#d62728;stroke-linecap:square;stroke-width:1.5;"/>
   </g>
   <g id="line2d_22"/>
   <g id="line2d_23"/>
   <g id="line2d_24"/>
   <g id="line2d_25"/>
   <g id="line2d_26"/>
   <g id="line2d_27">
    <path clip-path="url(#p488568256b)" d="M 741.46517 288.430125 
L 741.46517 22.318125 
" style="fill:none;stroke:#ff0000;stroke-linecap:square;stroke-width:1.5;"/>
   </g>
   <g id="patch_3">
    <path d="M 59.690625 275.936548 
L 59.690625 61.030268 
" style="fill:none;stroke:#000000;stroke-linecap:square;stroke-linejoin:miter;stroke-width:0.8;"/>
   </g>
   <g id="patch_4">
    <path d="M 92.15608 288.430125 
L 693.621343 288.430125 
" style="fill:none;stroke:#000000;stroke-linecap:square;stroke-linejoin:miter;stroke-width:0.8;"/>
   </g>
   <g id="text_20">
    <!-- mbedtls_fuzz_dtlsclient (24h, 5 trials/fuzzer) -->
    <g transform="translate(283.95375 16.318125)scale(0.12 -0.12)">
     <defs>
      <path d="M 48.6875 27.296875 
Q 48.6875 37.203125 44.609375 42.84375 
Q 40.53125 48.484375 33.40625 48.484375 
Q 26.265625 48.484375 22.1875 42.84375 
Q 18.109375 37.203125 18.109375 27.296875 
Q 18.109375 17.390625 22.1875 11.75 
Q 26.265625 6.109375 33.40625 6.109375 
Q 40.53125 6.109375 44.609375 11.75 
Q 48.6875 17.390625 48.6875 27.296875 
z
M 18.109375 46.390625 
Q 20.953125 51.265625 25.265625 53.625 
Q 29.59375 56 35.59375 56 
Q 45.5625 56 51.78125 48.09375 
Q 58.015625 40.1875 58.015625 27.296875 
Q 58.015625 14.40625 51.78125 6.484375 
Q 45.5625 -1.421875 35.59375 -1.421875 
Q 29.59375 -1.421875 25.265625 0.953125 
Q 20.953125 3.328125 18.109375 8.203125 
L 18.109375 0 
L 9.078125 0 
L 9.078125 75.984375 
L 18.109375 75.984375 
z
" id="DejaVuSans-98"/>
      <path d="M 9.421875 75.984375 
L 18.40625 75.984375 
L 18.40625 0 
L 9.421875 0 
z
" id="DejaVuSans-108"/>
      <path d="M 44.28125 53.078125 
L 44.28125 44.578125 
Q 40.484375 46.53125 36.375 47.5 
Q 32.28125 48.484375 27.875 48.484375 
Q 21.1875 48.484375 17.84375 46.4375 
Q 14.5 44.390625 14.5 40.28125 
Q 14.5 37.15625 16.890625 35.375 
Q 19.28125 33.59375 26.515625 31.984375 
L 29.59375 31.296875 
Q 39.15625 29.25 43.1875 25.515625 
Q 47.21875 21.78125 47.21875 15.09375 
Q 47.21875 7.46875 41.1875 3.015625 
Q 35.15625 -1.421875 24.609375 -1.421875 
Q 20.21875 -1.421875 15.453125 -0.5625 
Q 10.6875 0.296875 5.421875 2 
L 5.421875 11.28125 
Q 10.40625 8.6875 15.234375 7.390625 
Q 20.0625 6.109375 24.8125 6.109375 
Q 31.15625 6.109375 34.5625 8.28125 
Q 37.984375 10.453125 37.984375 14.40625 
Q 37.984375 18.0625 35.515625 20.015625 
Q 33.0625 21.96875 24.703125 23.78125 
L 21.578125 24.515625 
Q 13.234375 26.265625 9.515625 29.90625 
Q 5.8125 33.546875 5.8125 39.890625 
Q 5.8125 47.609375 11.28125 51.796875 
Q 16.75 56 26.8125 56 
Q 31.78125 56 36.171875 55.265625 
Q 40.578125 54.546875 44.28125 53.078125 
z
" id="DejaVuSans-115"/>
      <path d="M 50.984375 -16.609375 
L 50.984375 -23.578125 
L -0.984375 -23.578125 
L -0.984375 -16.609375 
z
" id="DejaVuSans-95"/>
      <path d="M 37.109375 75.984375 
L 37.109375 68.5 
L 28.515625 68.5 
Q 23.6875 68.5 21.796875 66.546875 
Q 19.921875 64.59375 19.921875 59.515625 
L 19.921875 54.6875 
L 34.71875 54.6875 
L 34.71875 47.703125 
L 19.921875 47.703125 
L 19.921875 0 
L 10.890625 0 
L 10.890625 47.703125 
L 2.296875 47.703125 
L 2.296875 54.6875 
L 10.890625 54.6875 
L 10.890625 58.5 
Q 10.890625 67.625 15.140625 71.796875 
Q 19.390625 75.984375 28.609375 75.984375 
z
" id="DejaVuSans-102"/>
      <path d="M 5.515625 54.6875 
L 48.1875 54.6875 
L 48.1875 46.484375 
L 14.40625 7.171875 
L 48.1875 7.171875 
L 48.1875 0 
L 4.296875 0 
L 4.296875 8.203125 
L 38.09375 47.515625 
L 5.515625 47.515625 
z
" id="DejaVuSans-122"/>
      <path d="M 11.71875 12.40625 
L 22.015625 12.40625 
L 22.015625 4 
L 14.015625 -11.625 
L 7.71875 -11.625 
L 11.71875 4 
z
" id="DejaVuSans-44"/>
      <path d="M 25.390625 72.90625 
L 33.6875 72.90625 
L 8.296875 -9.28125 
L 0 -9.28125 
z
" id="DejaVuSans-47"/>
     </defs>
     <use xlink:href="#DejaVuSans-109"/>
     <use x="97.412109" xlink:href="#DejaVuSans-98"/>
     <use x="160.888672" xlink:href="#DejaVuSans-101"/>
     <use x="222.412109" xlink:href="#DejaVuSans-100"/>
     <use x="285.888672" xlink:href="#DejaVuSans-116"/>
     <use x="325.097656" xlink:href="#DejaVuSans-108"/>
     <use x="352.880859" xlink:href="#DejaVuSans-115"/>
     <use x="404.980469" xlink:href="#DejaVuSans-95"/>
     <use x="454.980469" xlink:href="#DejaVuSans-102"/>
     <use x="490.185547" xlink:href="#DejaVuSans-117"/>
     <use x="553.564453" xlink:href="#DejaVuSans-122"/>
     <use x="606.054688" xlink:href="#DejaVuSans-122"/>
     <use x="658.544922" xlink:href="#DejaVuSans-95"/>
     <use x="708.544922" xlink:href="#DejaVuSans-100"/>
     <use x="772.021484" xlink:href="#DejaVuSans-116"/>
     <use x="811.230469" xlink:href="#DejaVuSans-108"/>
     <use x="839.013672" xlink:href="#DejaVuSans-115"/>
     <use x="891.113281" xlink:href="#DejaVuSans-99"/>
     <use x="946.09375" xlink:href="#DejaVuSans-108"/>
     <use x="973.876953" xlink:href="#DejaVuSans-105"/>
     <use x="1001.660156" xlink:href="#DejaVuSans-101"/>
     <use x="1063.183594" xlink:href="#DejaVuSans-110"/>
     <use x="1126.5625" xlink:href="#DejaVuSans-116"/>
     <use x="1165.771484" xlink:href="#DejaVuSans-32"/>
     <use x="1197.558594" xlink:href="#DejaVuSans-40"/>
     <use x="1236.572266" xlink:href="#DejaVuSans-50"/>
     <use x="1300.195312" xlink:href="#DejaVuSans-52"/>
     <use x="1363.818359" xlink:href="#DejaVuSans-104"/>
     <use x="1427.197266" xlink:href="#DejaVuSans-44"/>
     <use x="1458.984375" xlink:href="#DejaVuSans-32"/>
     <use x="1490.771484" xlink:href="#DejaVuSans-53"/>
     <use x="1554.394531" xlink:href="#DejaVuSans-32"/>
     <use x="1586.181641" xlink:href="#DejaVuSans-116"/>
     <use x="1625.390625" xlink:href="#DejaVuSans-114"/>
     <use x="1666.503906" xlink:href="#DejaVuSans-105"/>
     <use x="1694.287109" xlink:href="#DejaVuSans-97"/>
     <use x="1755.566406" xlink:href="#DejaVuSans-108"/>
     <use x="1783.349609" xlink:href="#DejaVuSans-115"/>
     <use x="1835.449219" xlink:href="#DejaVuSans-47"/>
     <use x="1869.140625" xlink:href="#DejaVuSans-102"/>
     <use x="1904.345703" xlink:href="#DejaVuSans-117"/>
     <use x="1967.724609" xlink:href="#DejaVuSans-122"/>
     <use x="2020.214844" xlink:href="#DejaVuSans-122"/>
     <use x="2072.705078" xlink:href="#DejaVuSans-101"/>
     <use x="2134.228516" xlink:href="#DejaVuSans-114"/>
     <use x="2175.341797" xlink:href="#DejaVuSans-41"/>
    </g>
   </g>
   <g id="legend_1">
    <g id="line2d_28">
     <path d="M 777.930625 30.416562 
L 797.930625 30.416562 
" style="fill:none;"/>
    </g>
    <g id="line2d_29"/>
    <g id="text_21">
     <!-- fuzzer -->
     <g transform="translate(805.930625 33.916562)scale(0.1 -0.1)">
      <use xlink:href="#DejaVuSans-102"/>
      <use x="35.205078" xlink:href="#DejaVuSans-117"/>
      <use x="98.583984" xlink:href="#DejaVuSans-122"/>
      <use x="151.074219" xlink:href="#DejaVuSans-122"/>
      <use x="203.564453" xlink:href="#DejaVuSans-101"/>
      <use x="265.087891" xlink:href="#DejaVuSans-114"/>
     </g>
    </g>
    <g id="line2d_30">
     <path d="M 777.930625 45.094688 
L 797.930625 45.094688 
" style="fill:none;stroke:#c7c7c7;stroke-linecap:square;stroke-width:1.5;"/>
    </g>
    <g id="line2d_31"/>
    <g id="text_22">
     <!-- weizz_qemu -->
     <g transform="translate(805.930625 48.594688)scale(0.1 -0.1)">
      <defs>
       <path d="M 4.203125 54.6875 
L 13.1875 54.6875 
L 24.421875 12.015625 
L 35.59375 54.6875 
L 46.1875 54.6875 
L 57.421875 12.015625 
L 68.609375 54.6875 
L 77.59375 54.6875 
L 63.28125 0 
L 52.6875 0 
L 40.921875 44.828125 
L 29.109375 0 
L 18.5 0 
z
" id="DejaVuSans-119"/>
       <path d="M 14.796875 27.296875 
Q 14.796875 17.390625 18.875 11.75 
Q 22.953125 6.109375 30.078125 6.109375 
Q 37.203125 6.109375 41.296875 11.75 
Q 45.40625 17.390625 45.40625 27.296875 
Q 45.40625 37.203125 41.296875 42.84375 
Q 37.203125 48.484375 30.078125 48.484375 
Q 22.953125 48.484375 18.875 42.84375 
Q 14.796875 37.203125 14.796875 27.296875 
z
M 45.40625 8.203125 
Q 42.578125 3.328125 38.25 0.953125 
Q 33.9375 -1.421875 27.875 -1.421875 
Q 17.96875 -1.421875 11.734375 6.484375 
Q 5.515625 14.40625 5.515625 27.296875 
Q 5.515625 40.1875 11.734375 48.09375 
Q 17.96875 56 27.875 56 
Q 33.9375 56 38.25 53.625 
Q 42.578125 51.265625 45.40625 46.390625 
L 45.40625 54.6875 
L 54.390625 54.6875 
L 54.390625 -20.796875 
L 45.40625 -20.796875 
z
" id="DejaVuSans-113"/>
      </defs>
      <use xlink:href="#DejaVuSans-119"/>
      <use x="81.787109" xlink:href="#DejaVuSans-101"/>
      <use x="143.310547" xlink:href="#DejaVuSans-105"/>
      <use x="171.09375" xlink:href="#DejaVuSans-122"/>
      <use x="223.583984" xlink:href="#DejaVuSans-122"/>
      <use x="276.074219" xlink:href="#DejaVuSans-95"/>
      <use x="326.074219" xlink:href="#DejaVuSans-113"/>
      <use x="389.550781" xlink:href="#DejaVuSans-101"/>
      <use x="451.074219" xlink:href="#DejaVuSans-109"/>
      <use x="548.486328" xlink:href="#DejaVuSans-117"/>
     </g>
    </g>
    <g id="line2d_32">
     <path d="M 777.930625 60.050937 
L 797.930625 60.050937 
" style="fill:none;stroke:#1f77b4;stroke-linecap:square;stroke-width:1.5;"/>
    </g>
    <g id="line2d_33"/>
    <g id="text_23">
     <!-- aflplusplus -->
     <g transform="translate(805.930625 63.550937)scale(0.1 -0.1)">
      <defs>
       <path d="M 18.109375 8.203125 
L 18.109375 -20.796875 
L 9.078125 -20.796875 
L 9.078125 54.6875 
L 18.109375 54.6875 
L 18.109375 46.390625 
Q 20.953125 51.265625 25.265625 53.625 
Q 29.59375 56 35.59375 56 
Q 45.5625 56 51.78125 48.09375 
Q 58.015625 40.1875 58.015625 27.296875 
Q 58.015625 14.40625 51.78125 6.484375 
Q 45.5625 -1.421875 35.59375 -1.421875 
Q 29.59375 -1.421875 25.265625 0.953125 
Q 20.953125 3.328125 18.109375 8.203125 
z
M 48.6875 27.296875 
Q 48.6875 37.203125 44.609375 42.84375 
Q 40.53125 48.484375 33.40625 48.484375 
Q 26.265625 48.484375 22.1875 42.84375 
Q 18.109375 37.203125 18.109375 27.296875 
Q 18.109375 17.390625 22.1875 11.75 
Q 26.265625 6.109375 33.40625 6.109375 
Q 40.53125 6.109375 44.609375 11.75 
Q 48.6875 17.390625 48.6875 27.296875 
z
" id="DejaVuSans-112"/>
      </defs>
      <use xlink:href="#DejaVuSans-97"/>
      <use x="61.279297" xlink:href="#DejaVuSans-102"/>
      <use x="96.484375" xlink:href="#DejaVuSans-108"/>
      <use x="124.267578" xlink:href="#DejaVuSans-112"/>
      <use x="187.744141" xlink:href="#DejaVuSans-108"/>
      <use x="215.527344" xlink:href="#DejaVuSans-117"/>
      <use x="278.90625" xlink:href="#DejaVuSans-115"/>
      <use x="331.005859" xlink:href="#DejaVuSans-112"/>
      <use x="394.482422" xlink:href="#DejaVuSans-108"/>
      <use x="422.265625" xlink:href="#DejaVuSans-117"/>
      <use x="485.644531" xlink:href="#DejaVuSans-115"/>
     </g>
    </g>
    <g id="line2d_34">
     <path d="M 777.930625 74.729062 
L 797.930625 74.729062 
" style="fill:none;stroke:#98df8a;stroke-linecap:square;stroke-width:1.5;"/>
    </g>
    <g id="line2d_35"/>
    <g id="text_24">
     <!-- honggfuzz -->
     <g transform="translate(805.930625 78.229062)scale(0.1 -0.1)">
      <use xlink:href="#DejaVuSans-104"/>
      <use x="63.378906" xlink:href="#DejaVuSans-111"/>
      <use x="124.560547" xlink:href="#DejaVuSans-110"/>
      <use x="187.939453" xlink:href="#DejaVuSans-103"/>
      <use x="251.416016" xlink:href="#DejaVuSans-103"/>
      <use x="314.892578" xlink:href="#DejaVuSans-102"/>
      <use x="350.097656" xlink:href="#DejaVuSans-117"/>
      <use x="413.476562" xlink:href="#DejaVuSans-122"/>
      <use x="465.966797" xlink:href="#DejaVuSans-122"/>
     </g>
    </g>
    <g id="line2d_36">
     <path d="M 777.930625 89.407187 
L 797.930625 89.407187 
" style="fill:none;stroke:#d62728;stroke-linecap:square;stroke-width:1.5;"/>
    </g>
    <g id="line2d_37"/>
    <g id="text_25">
     <!-- kirenenko -->
     <g transform="translate(805.930625 92.907187)scale(0.1 -0.1)">
      <defs>
       <path d="M 9.078125 75.984375 
L 18.109375 75.984375 
L 18.109375 31.109375 
L 44.921875 54.6875 
L 56.390625 54.6875 
L 27.390625 29.109375 
L 57.625 0 
L 45.90625 0 
L 18.109375 26.703125 
L 18.109375 0 
L 9.078125 0 
z
" id="DejaVuSans-107"/>
      </defs>
      <use xlink:href="#DejaVuSans-107"/>
      <use x="57.910156" xlink:href="#DejaVuSans-105"/>
      <use x="85.693359" xlink:href="#DejaVuSans-114"/>
      <use x="124.556641" xlink:href="#DejaVuSans-101"/>
      <use x="186.080078" xlink:href="#DejaVuSans-110"/>
      <use x="249.458984" xlink:href="#DejaVuSans-101"/>
      <use x="310.982422" xlink:href="#DejaVuSans-110"/>
      <use x="374.361328" xlink:href="#DejaVuSans-107"/>
      <use x="428.646484" xlink:href="#DejaVuSans-111"/>
     </g>
    </g>
   </g>
  </g>
 </g>
 <defs>
  <clipPath id="p488568256b">
   <rect height="266.112" width="714.24" x="59.690625" y="22.318125"/>
  </clipPath>
 </defs>
</svg>
