<?xml version="1.0" encoding="utf-8" standalone="no"?>
<!DOCTYPE svg PUBLIC "-//W3C//DTD SVG 1.1//EN"
  "http://www.w3.org/Graphics/SVG/1.1/DTD/svg11.dtd">
<!-- Created with matplotlib (https://matplotlib.org/) -->
<svg height="355.523584pt" version="1.1" viewBox="0 0 424.010625 355.523584" width="424.010625pt" xmlns="http://www.w3.org/2000/svg" xmlns:xlink="http://www.w3.org/1999/xlink">
 <metadata>
  <rdf:RDF xmlns:cc="http://creativecommons.org/ns#" xmlns:dc="http://purl.org/dc/elements/1.1/" xmlns:rdf="http://www.w3.org/1999/02/22-rdf-syntax-ns#">
   <cc:Work>
    <dc:type rdf:resource="http://purl.org/dc/dcmitype/StillImage"/>
    <dc:date>2020-10-25T11:33:31.438544</dc:date>
    <dc:format>image/svg+xml</dc:format>
    <dc:creator>
     <cc:Agent>
      <dc:title>Matplotlib v3.3.2, https://matplotlib.org/</dc:title>
     </cc:Agent>
    </dc:creator>
   </cc:Work>
  </rdf:RDF>
 </metadata>
 <defs>
  <style type="text/css">*{stroke-linecap:butt;stroke-linejoin:round;}</style>
 </defs>
 <g id="figure_1">
  <g id="patch_1">
   <path d="M 0 355.523584 
L 424.010625 355.523584 
L 424.010625 0 
L 0 0 
z
" style="fill:#ffffff;"/>
  </g>
  <g id="axes_1">
   <g id="patch_2">
    <path d="M 59.690625 288.430125 
L 416.810625 288.430125 
L 416.810625 22.318125 
L 59.690625 22.318125 
z
" style="fill:#ffffff;"/>
   </g>
   <g id="PolyCollection_1">
    <defs>
     <path d="M 106.265211 -280.591483 
L 102.396039 -280.591483 
L 102.074817 -281.000755 
L 101.713693 -281.410028 
L 101.310216 -281.8193 
L 100.862216 -282.228572 
L 100.367897 -282.637845 
L 99.825913 -283.047117 
L 99.235455 -283.45639 
L 98.596329 -283.865662 
L 97.909026 -284.274935 
L 97.174781 -284.684207 
L 96.395617 -285.09348 
L 95.57438 -285.502752 
L 94.714741 -285.912025 
L 93.821188 -286.321297 
L 92.89899 -286.73057 
L 91.954136 -287.139842 
L 90.99326 -287.549115 
L 90.023527 -287.958387 
L 89.052518 -288.36766 
L 88.088087 -288.776932 
L 87.138202 -289.186205 
L 86.210788 -289.595477 
L 85.31356 -290.00475 
L 84.453852 -290.414022 
L 83.638467 -290.823295 
L 82.873524 -291.232567 
L 82.164333 -291.64184 
L 81.515285 -292.051112 
L 80.929772 -292.460385 
L 80.410128 -292.869657 
L 79.957609 -293.27893 
L 79.572391 -293.688202 
L 79.253608 -294.097475 
L 78.999409 -294.506747 
L 78.807048 -294.91602 
L 78.672991 -295.325292 
L 78.593039 -295.734565 
L 78.56247 -296.143837 
L 78.576186 -296.55311 
L 78.628862 -296.962382 
L 78.715099 -297.371655 
L 78.829568 -297.780927 
L 78.967146 -298.1902 
L 79.123037 -298.599472 
L 79.292882 -299.008745 
L 79.472849 -299.418017 
L 79.659703 -299.82729 
L 79.850857 -300.236562 
L 80.044405 -300.645835 
L 80.239135 -301.055107 
L 80.434516 -301.46438 
L 80.630682 -301.873652 
L 80.828386 -302.282925 
L 81.028945 -302.692197 
L 81.234175 -303.10147 
L 81.446314 -303.510742 
L 81.667933 -303.920015 
L 81.901848 -304.329287 
L 82.151019 -304.73856 
L 82.418458 -305.147832 
L 82.707129 -305.557105 
L 83.019854 -305.966377 
L 83.359221 -306.375649 
L 83.727503 -306.784922 
L 84.126581 -307.194194 
L 84.557879 -307.603467 
L 85.022309 -308.012739 
L 85.520229 -308.422012 
L 86.05142 -308.831284 
L 86.615065 -309.240557 
L 87.209759 -309.649829 
L 87.83352 -310.059102 
L 88.483819 -310.468374 
L 89.157629 -310.877647 
L 89.851478 -311.286919 
L 90.561513 -311.696192 
L 91.283585 -312.105464 
L 92.013319 -312.514737 
L 92.746214 -312.924009 
L 93.477719 -313.333282 
L 94.203328 -313.742554 
L 94.918665 -314.151827 
L 95.619556 -314.561099 
L 96.302109 -314.970372 
L 96.96277 -315.379644 
L 97.598378 -315.788917 
L 98.206205 -316.198189 
L 98.78398 -316.607462 
L 99.329911 -317.016734 
L 99.842683 -317.426007 
L 100.321455 -317.835279 
L 100.765837 -318.244552 
L 101.17587 -318.653824 
L 101.551984 -319.063097 
L 101.894962 -319.472369 
L 102.205893 -319.881642 
L 102.486128 -320.290914 
L 102.737225 -320.700187 
L 102.960906 -321.109459 
L 105.700344 -321.109459 
L 105.700344 -321.109459 
L 105.924025 -320.700187 
L 106.175122 -320.290914 
L 106.455357 -319.881642 
L 106.766288 -319.472369 
L 107.109266 -319.063097 
L 107.48538 -318.653824 
L 107.895413 -318.244552 
L 108.339795 -317.835279 
L 108.818567 -317.426007 
L 109.331339 -317.016734 
L 109.87727 -316.607462 
L 110.455045 -316.198189 
L 111.062872 -315.788917 
L 111.69848 -315.379644 
L 112.359141 -314.970372 
L 113.041694 -314.561099 
L 113.742585 -314.151827 
L 114.457922 -313.742554 
L 115.183531 -313.333282 
L 115.915036 -312.924009 
L 116.647931 -312.514737 
L 117.377665 -312.105464 
L 118.099737 -311.696192 
L 118.809772 -311.286919 
L 119.503621 -310.877647 
L 120.177431 -310.468374 
L 120.82773 -310.059102 
L 121.451491 -309.649829 
L 122.046185 -309.240557 
L 122.60983 -308.831284 
L 123.141021 -308.422012 
L 123.638941 -308.012739 
L 124.103371 -307.603467 
L 124.534669 -307.194194 
L 124.933747 -306.784922 
L 125.302029 -306.375649 
L 125.641396 -305.966377 
L 125.954121 -305.557105 
L 126.242792 -305.147832 
L 126.510231 -304.73856 
L 126.759402 -304.329287 
L 126.993317 -303.920015 
L 127.214936 -303.510742 
L 127.427075 -303.10147 
L 127.632305 -302.692197 
L 127.832864 -302.282925 
L 128.030568 -301.873652 
L 128.226734 -301.46438 
L 128.422115 -301.055107 
L 128.616845 -300.645835 
L 128.810393 -300.236562 
L 129.001547 -299.82729 
L 129.188401 -299.418017 
L 129.368368 -299.008745 
L 129.538213 -298.599472 
L 129.694104 -298.1902 
L 129.831682 -297.780927 
L 129.946151 -297.371655 
L 130.032388 -296.962382 
L 130.085064 -296.55311 
L 130.09878 -296.143837 
L 130.068211 -295.734565 
L 129.988259 -295.325292 
L 129.854202 -294.91602 
L 129.661841 -294.506747 
L 129.407642 -294.097475 
L 129.088859 -293.688202 
L 128.703641 -293.27893 
L 128.251122 -292.869657 
L 127.731478 -292.460385 
L 127.145965 -292.051112 
L 126.496917 -291.64184 
L 125.787726 -291.232567 
L 125.022783 -290.823295 
L 124.207398 -290.414022 
L 123.34769 -290.00475 
L 122.450462 -289.595477 
L 121.523048 -289.186205 
L 120.573163 -288.776932 
L 119.608732 -288.36766 
L 118.637723 -287.958387 
L 117.66799 -287.549115 
L 116.707114 -287.139842 
L 115.76226 -286.73057 
L 114.840062 -286.321297 
L 113.946509 -285.912025 
L 113.08687 -285.502752 
L 112.265633 -285.09348 
L 111.486469 -284.684207 
L 110.752224 -284.274935 
L 110.064921 -283.865662 
L 109.425795 -283.45639 
L 108.835337 -283.047117 
L 108.293353 -282.637845 
L 107.799034 -282.228572 
L 107.351034 -281.8193 
L 106.947557 -281.410028 
L 106.586433 -281.000755 
L 106.265211 -280.591483 
z
" id="m7f6c8339ee" style="stroke:#3f3f3f;stroke-width:1.5;"/>
    </defs>
    <g clip-path="url(#p95927bcb59)">
     <use style="fill:#c03d3e;stroke:#3f3f3f;stroke-width:1.5;" x="0" xlink:href="#m7f6c8339ee" y="355.523584"/>
    </g>
   </g>
   <g id="PolyCollection_2">
    <defs>
     <path d="M 193.904946 -143.761338 
L 193.316304 -143.761338 
L 193.268868 -145.542162 
L 193.216076 -147.322986 
L 193.157754 -149.10381 
L 193.093805 -150.884635 
L 193.024221 -152.665459 
L 192.949093 -154.446283 
L 192.868625 -156.227107 
L 192.783141 -158.007931 
L 192.69309 -159.788755 
L 192.599048 -161.569579 
L 192.501715 -163.350404 
L 192.401913 -165.131228 
L 192.300567 -166.912052 
L 192.198699 -168.692876 
L 192.097395 -170.4737 
L 191.997791 -172.254524 
L 191.901035 -174.035348 
L 191.808259 -175.816173 
L 191.720538 -177.596997 
L 191.638857 -179.377821 
L 191.564071 -181.158645 
L 191.496867 -182.939469 
L 191.437732 -184.720293 
L 191.386917 -186.501117 
L 191.344412 -188.281942 
L 191.309925 -190.062766 
L 191.28287 -191.84359 
L 191.262356 -193.624414 
L 191.247193 -195.405238 
L 191.235903 -197.186062 
L 191.226738 -198.966886 
L 191.217711 -200.74771 
L 191.206634 -202.528535 
L 191.191164 -204.309359 
L 191.168856 -206.090183 
L 191.137222 -207.871007 
L 191.093795 -209.651831 
L 191.036195 -211.432655 
L 190.962202 -213.213479 
L 190.869818 -214.994304 
L 190.757343 -216.775128 
L 190.623429 -218.555952 
L 190.467143 -220.336776 
L 190.288018 -222.1176 
L 190.086088 -223.898424 
L 189.861927 -225.679248 
L 189.61666 -227.460073 
L 189.351971 -229.240897 
L 189.070095 -231.021721 
L 188.773793 -232.802545 
L 188.466314 -234.583369 
L 188.151346 -236.364193 
L 187.832945 -238.145017 
L 187.515465 -239.925842 
L 187.203463 -241.706666 
L 186.901609 -243.48749 
L 186.614582 -245.268314 
L 186.346966 -247.049138 
L 186.103146 -248.829962 
L 185.887211 -250.610786 
L 185.702852 -252.39161 
L 185.553283 -254.172435 
L 185.441165 -255.953259 
L 185.368549 -257.734083 
L 185.336826 -259.514907 
L 185.34671 -261.295731 
L 185.39822 -263.076555 
L 185.490693 -264.857379 
L 185.622811 -266.638204 
L 185.79264 -268.419028 
L 185.99769 -270.199852 
L 186.234982 -271.980676 
L 186.501126 -273.7615 
L 186.792407 -275.542324 
L 187.104876 -277.323148 
L 187.434442 -279.103973 
L 187.77696 -280.884797 
L 188.128318 -282.665621 
L 188.484518 -284.446445 
L 188.841747 -286.227269 
L 189.196441 -288.008093 
L 189.545334 -289.788917 
L 189.8855 -291.569742 
L 190.214383 -293.350566 
L 190.529812 -295.13139 
L 190.830012 -296.912214 
L 191.113593 -298.693038 
L 191.379546 -300.473862 
L 191.627219 -302.254686 
L 191.85629 -304.03551 
L 192.066738 -305.816335 
L 192.258807 -307.597159 
L 192.432971 -309.377983 
L 192.589896 -311.158807 
L 192.730402 -312.939631 
L 192.855427 -314.720455 
L 192.965995 -316.501279 
L 193.063184 -318.282104 
L 193.148099 -320.062928 
L 194.073151 -320.062928 
L 194.073151 -320.062928 
L 194.158066 -318.282104 
L 194.255255 -316.501279 
L 194.365823 -314.720455 
L 194.490848 -312.939631 
L 194.631354 -311.158807 
L 194.788279 -309.377983 
L 194.962443 -307.597159 
L 195.154512 -305.816335 
L 195.36496 -304.03551 
L 195.594031 -302.254686 
L 195.841704 -300.473862 
L 196.107657 -298.693038 
L 196.391238 -296.912214 
L 196.691438 -295.13139 
L 197.006867 -293.350566 
L 197.33575 -291.569742 
L 197.675916 -289.788917 
L 198.024809 -288.008093 
L 198.379503 -286.227269 
L 198.736732 -284.446445 
L 199.092932 -282.665621 
L 199.44429 -280.884797 
L 199.786808 -279.103973 
L 200.116374 -277.323148 
L 200.428843 -275.542324 
L 200.720124 -273.7615 
L 200.986268 -271.980676 
L 201.22356 -270.199852 
L 201.42861 -268.419028 
L 201.598439 -266.638204 
L 201.730557 -264.857379 
L 201.82303 -263.076555 
L 201.87454 -261.295731 
L 201.884424 -259.514907 
L 201.852701 -257.734083 
L 201.780085 -255.953259 
L 201.667967 -254.172435 
L 201.518398 -252.39161 
L 201.334039 -250.610786 
L 201.118104 -248.829962 
L 200.874284 -247.049138 
L 200.606668 -245.268314 
L 200.319641 -243.48749 
L 200.017787 -241.706666 
L 199.705785 -239.925842 
L 199.388305 -238.145017 
L 199.069904 -236.364193 
L 198.754936 -234.583369 
L 198.447457 -232.802545 
L 198.151155 -231.021721 
L 197.869279 -229.240897 
L 197.60459 -227.460073 
L 197.359323 -225.679248 
L 197.135162 -223.898424 
L 196.933232 -222.1176 
L 196.754107 -220.336776 
L 196.597821 -218.555952 
L 196.463907 -216.775128 
L 196.351432 -214.994304 
L 196.259048 -213.213479 
L 196.185055 -211.432655 
L 196.127455 -209.651831 
L 196.084028 -207.871007 
L 196.052394 -206.090183 
L 196.030086 -204.309359 
L 196.014616 -202.528535 
L 196.003539 -200.74771 
L 195.994512 -198.966886 
L 195.985347 -197.186062 
L 195.974057 -195.405238 
L 195.958894 -193.624414 
L 195.93838 -191.84359 
L 195.911325 -190.062766 
L 195.876838 -188.281942 
L 195.834333 -186.501117 
L 195.783518 -184.720293 
L 195.724383 -182.939469 
L 195.657179 -181.158645 
L 195.582393 -179.377821 
L 195.500712 -177.596997 
L 195.412991 -175.816173 
L 195.320215 -174.035348 
L 195.223459 -172.254524 
L 195.123855 -170.4737 
L 195.022551 -168.692876 
L 194.920683 -166.912052 
L 194.819337 -165.131228 
L 194.719535 -163.350404 
L 194.622202 -161.569579 
L 194.52816 -159.788755 
L 194.438109 -158.007931 
L 194.352625 -156.227107 
L 194.272157 -154.446283 
L 194.197029 -152.665459 
L 194.127445 -150.884635 
L 194.063496 -149.10381 
L 194.005174 -147.322986 
L 193.952382 -145.542162 
L 193.904946 -143.761338 
z
" id="ma94f4539fb" style="stroke:#3f3f3f;stroke-width:1.5;"/>
    </defs>
    <g clip-path="url(#p95927bcb59)">
     <use style="fill:#3274a1;stroke:#3f3f3f;stroke-width:1.5;" x="0" xlink:href="#ma94f4539fb" y="355.523584"/>
    </g>
   </g>
   <g id="PolyCollection_3">
    <defs>
     <path d="M 285.393756 -139.240566 
L 280.387494 -139.240566 
L 279.943229 -139.651576 
L 279.438224 -140.062587 
L 278.86777 -140.473598 
L 278.227461 -140.884609 
L 277.513348 -141.29562 
L 276.722088 -141.706631 
L 275.851118 -142.117641 
L 274.898819 -142.528652 
L 273.864685 -142.939663 
L 272.749482 -143.350674 
L 271.555394 -143.761685 
L 270.286149 -144.172696 
L 268.947117 -144.583706 
L 267.545378 -144.994717 
L 266.089746 -145.405728 
L 264.590752 -145.816739 
L 263.060583 -146.22775 
L 261.512964 -146.638761 
L 259.962993 -147.049771 
L 258.426924 -147.460782 
L 256.921907 -147.871793 
L 255.465676 -148.282804 
L 254.076215 -148.693815 
L 252.771383 -149.104826 
L 251.568527 -149.515836 
L 250.484094 -149.926847 
L 249.533237 -150.337858 
L 248.729446 -150.748869 
L 248.084206 -151.15988 
L 247.606697 -151.570891 
L 247.303544 -151.981901 
L 247.178625 -152.392912 
L 247.232951 -152.803923 
L 247.464609 -153.214934 
L 247.86879 -153.625945 
L 248.437876 -154.036956 
L 249.161614 -154.447966 
L 250.02734 -154.858977 
L 251.020273 -155.269988 
L 252.12385 -155.680999 
L 253.320109 -156.09201 
L 254.590087 -156.503021 
L 255.914249 -156.914032 
L 257.272905 -157.325042 
L 258.646629 -157.736053 
L 260.016652 -158.147064 
L 261.365235 -158.558075 
L 262.67599 -158.969086 
L 263.934169 -159.380097 
L 265.126897 -159.791107 
L 266.243349 -160.202118 
L 267.274878 -160.613129 
L 268.215084 -161.02414 
L 269.059823 -161.435151 
L 269.807175 -161.846162 
L 270.45735 -162.257172 
L 271.012569 -162.668183 
L 271.476883 -163.079194 
L 271.855983 -163.490205 
L 272.156965 -163.901216 
L 272.388088 -164.312227 
L 272.558514 -164.723237 
L 272.67804 -165.134248 
L 272.756835 -165.545259 
L 272.805175 -165.95627 
L 272.833199 -166.367281 
L 272.850675 -166.778292 
L 272.866792 -167.189302 
L 272.889973 -167.600313 
L 272.927721 -168.011324 
L 272.986497 -168.422335 
L 273.071627 -168.833346 
L 273.187248 -169.244357 
L 273.336286 -169.655367 
L 273.520464 -170.066378 
L 273.740346 -170.477389 
L 273.995406 -170.8884 
L 274.284121 -171.299411 
L 274.604089 -171.710422 
L 274.952157 -172.121432 
L 275.324563 -172.532443 
L 275.717085 -172.943454 
L 276.125188 -173.354465 
L 276.544175 -173.765476 
L 276.969316 -174.176487 
L 277.395985 -174.587498 
L 277.819764 -174.998508 
L 278.236546 -175.409519 
L 278.642606 -175.82053 
L 279.034667 -176.231541 
L 279.409935 -176.642552 
L 279.766123 -177.053563 
L 280.101456 -177.464573 
L 280.414663 -177.875584 
L 280.704948 -178.286595 
L 280.971963 -178.697606 
L 281.21576 -179.108617 
L 281.436744 -179.519628 
L 281.635623 -179.930638 
L 284.145627 -179.930638 
L 284.145627 -179.930638 
L 284.344506 -179.519628 
L 284.56549 -179.108617 
L 284.809287 -178.697606 
L 285.076302 -178.286595 
L 285.366587 -177.875584 
L 285.679794 -177.464573 
L 286.015127 -177.053563 
L 286.371315 -176.642552 
L 286.746583 -176.231541 
L 287.138644 -175.82053 
L 287.544704 -175.409519 
L 287.961486 -174.998508 
L 288.385265 -174.587498 
L 288.811934 -174.176487 
L 289.237075 -173.765476 
L 289.656062 -173.354465 
L 290.064165 -172.943454 
L 290.456687 -172.532443 
L 290.829093 -172.121432 
L 291.177161 -171.710422 
L 291.497129 -171.299411 
L 291.785844 -170.8884 
L 292.040904 -170.477389 
L 292.260786 -170.066378 
L 292.444964 -169.655367 
L 292.594002 -169.244357 
L 292.709623 -168.833346 
L 292.794753 -168.422335 
L 292.853529 -168.011324 
L 292.891277 -167.600313 
L 292.914458 -167.189302 
L 292.930575 -166.778292 
L 292.948051 -166.367281 
L 292.976075 -165.95627 
L 293.024415 -165.545259 
L 293.10321 -165.134248 
L 293.222736 -164.723237 
L 293.393162 -164.312227 
L 293.624285 -163.901216 
L 293.925267 -163.490205 
L 294.304367 -163.079194 
L 294.768681 -162.668183 
L 295.3239 -162.257172 
L 295.974075 -161.846162 
L 296.721427 -161.435151 
L 297.566166 -161.02414 
L 298.506372 -160.613129 
L 299.537901 -160.202118 
L 300.654353 -159.791107 
L 301.847081 -159.380097 
L 303.10526 -158.969086 
L 304.416015 -158.558075 
L 305.764598 -158.147064 
L 307.134621 -157.736053 
L 308.508345 -157.325042 
L 309.867001 -156.914032 
L 311.191163 -156.503021 
L 312.461141 -156.09201 
L 313.6574 -155.680999 
L 314.760977 -155.269988 
L 315.75391 -154.858977 
L 316.619636 -154.447966 
L 317.343374 -154.036956 
L 317.91246 -153.625945 
L 318.316641 -153.214934 
L 318.548299 -152.803923 
L 318.602625 -152.392912 
L 318.477706 -151.981901 
L 318.174553 -151.570891 
L 317.697044 -151.15988 
L 317.051804 -150.748869 
L 316.248013 -150.337858 
L 315.297156 -149.926847 
L 314.212723 -149.515836 
L 313.009867 -149.104826 
L 311.705035 -148.693815 
L 310.315574 -148.282804 
L 308.859343 -147.871793 
L 307.354326 -147.460782 
L 305.818257 -147.049771 
L 304.268286 -146.638761 
L 302.720667 -146.22775 
L 301.190498 -145.816739 
L 299.691504 -145.405728 
L 298.235872 -144.994717 
L 296.834133 -144.583706 
L 295.495101 -144.172696 
L 294.225856 -143.761685 
L 293.031768 -143.350674 
L 291.916565 -142.939663 
L 290.882431 -142.528652 
L 289.930132 -142.117641 
L 289.059162 -141.706631 
L 288.267902 -141.29562 
L 287.553789 -140.884609 
L 286.91348 -140.473598 
L 286.343026 -140.062587 
L 285.838021 -139.651576 
L 285.393756 -139.240566 
z
" id="me53d911ac7" style="stroke:#3f3f3f;stroke-width:1.5;"/>
    </defs>
    <g clip-path="url(#p95927bcb59)">
     <use style="fill:#c7c7c7;stroke:#3f3f3f;stroke-width:1.5;" x="0" xlink:href="#me53d911ac7" y="355.523584"/>
    </g>
   </g>
   <g id="PolyCollection_4">
    <defs>
     <path d="M 372.861374 -79.189459 
L 371.479876 -79.189459 
L 371.363553 -80.032076 
L 371.232264 -80.874693 
L 371.084918 -81.717309 
L 370.920485 -82.559926 
L 370.738017 -83.402543 
L 370.536673 -84.24516 
L 370.315746 -85.087776 
L 370.074688 -85.930393 
L 369.813136 -86.77301 
L 369.530935 -87.615626 
L 369.228156 -88.458243 
L 368.905119 -89.30086 
L 368.562402 -90.143477 
L 368.200852 -90.986093 
L 367.821597 -91.82871 
L 367.426036 -92.671327 
L 367.015848 -93.513943 
L 366.59297 -94.35656 
L 366.159595 -95.199177 
L 365.718142 -96.041794 
L 365.271242 -96.88441 
L 364.821703 -97.727027 
L 364.372477 -98.569644 
L 363.926628 -99.41226 
L 363.487286 -100.254877 
L 363.057606 -101.097494 
L 362.640722 -101.940111 
L 362.239694 -102.782727 
L 361.857462 -103.625344 
L 361.496793 -104.467961 
L 361.160229 -105.310578 
L 360.850039 -106.153194 
L 360.568173 -106.995811 
L 360.316215 -107.838428 
L 360.095348 -108.681044 
L 359.90632 -109.523661 
L 359.749427 -110.366278 
L 359.624491 -111.208895 
L 359.530864 -112.051511 
L 359.467437 -112.894128 
L 359.43266 -113.736745 
L 359.42458 -114.579361 
L 359.440886 -115.421978 
L 359.478973 -116.264595 
L 359.536011 -117.107212 
L 359.609026 -117.949828 
L 359.694988 -118.792445 
L 359.790898 -119.635062 
L 359.893886 -120.477679 
L 360.001298 -121.320295 
L 360.110777 -122.162912 
L 360.220343 -123.005529 
L 360.328454 -123.848145 
L 360.43405 -124.690762 
L 360.53659 -125.533379 
L 360.63606 -126.375996 
L 360.732968 -127.218612 
L 360.828317 -128.061229 
L 360.923561 -128.903846 
L 361.020542 -129.746462 
L 361.121415 -130.589079 
L 361.228559 -131.431696 
L 361.344486 -132.274313 
L 361.47173 -133.116929 
L 361.612758 -133.959546 
L 361.769864 -134.802163 
L 361.945079 -135.64478 
L 362.140093 -136.487396 
L 362.356185 -137.330013 
L 362.594173 -138.17263 
L 362.854373 -139.015246 
L 363.136589 -139.857863 
L 363.440106 -140.70048 
L 363.763711 -141.543097 
L 364.105728 -142.385713 
L 364.464059 -143.22833 
L 364.83625 -144.070947 
L 365.219556 -144.913563 
L 365.611017 -145.75618 
L 366.007536 -146.598797 
L 366.405959 -147.441414 
L 366.803149 -148.28403 
L 367.196064 -149.126647 
L 367.581814 -149.969264 
L 367.957727 -150.811881 
L 368.321389 -151.654497 
L 368.670686 -152.497114 
L 369.003827 -153.339731 
L 369.31936 -154.182347 
L 369.616176 -155.024964 
L 369.893508 -155.867581 
L 370.150912 -156.710198 
L 370.388252 -157.552814 
L 370.605671 -158.395431 
L 370.80356 -159.238048 
L 370.982527 -160.080664 
L 371.143361 -160.923281 
L 371.286993 -161.765898 
L 371.414466 -162.608515 
L 372.926784 -162.608515 
L 372.926784 -162.608515 
L 373.054257 -161.765898 
L 373.197889 -160.923281 
L 373.358723 -160.080664 
L 373.53769 -159.238048 
L 373.735579 -158.395431 
L 373.952998 -157.552814 
L 374.190338 -156.710198 
L 374.447742 -155.867581 
L 374.725074 -155.024964 
L 375.02189 -154.182347 
L 375.337423 -153.339731 
L 375.670564 -152.497114 
L 376.019861 -151.654497 
L 376.383523 -150.811881 
L 376.759436 -149.969264 
L 377.145186 -149.126647 
L 377.538101 -148.28403 
L 377.935291 -147.441414 
L 378.333714 -146.598797 
L 378.730233 -145.75618 
L 379.121694 -144.913563 
L 379.505 -144.070947 
L 379.877191 -143.22833 
L 380.235522 -142.385713 
L 380.577539 -141.543097 
L 380.901144 -140.70048 
L 381.204661 -139.857863 
L 381.486877 -139.015246 
L 381.747077 -138.17263 
L 381.985065 -137.330013 
L 382.201157 -136.487396 
L 382.396171 -135.64478 
L 382.571386 -134.802163 
L 382.728492 -133.959546 
L 382.86952 -133.116929 
L 382.996764 -132.274313 
L 383.112691 -131.431696 
L 383.219835 -130.589079 
L 383.320708 -129.746462 
L 383.417689 -128.903846 
L 383.512933 -128.061229 
L 383.608282 -127.218612 
L 383.70519 -126.375996 
L 383.80466 -125.533379 
L 383.9072 -124.690762 
L 384.012796 -123.848145 
L 384.120907 -123.005529 
L 384.230473 -122.162912 
L 384.339952 -121.320295 
L 384.447364 -120.477679 
L 384.550352 -119.635062 
L 384.646262 -118.792445 
L 384.732224 -117.949828 
L 384.805239 -117.107212 
L 384.862277 -116.264595 
L 384.900364 -115.421978 
L 384.91667 -114.579361 
L 384.90859 -113.736745 
L 384.873813 -112.894128 
L 384.810386 -112.051511 
L 384.716759 -111.208895 
L 384.591823 -110.366278 
L 384.43493 -109.523661 
L 384.245902 -108.681044 
L 384.025035 -107.838428 
L 383.773077 -106.995811 
L 383.491211 -106.153194 
L 383.181021 -105.310578 
L 382.844457 -104.467961 
L 382.483788 -103.625344 
L 382.101556 -102.782727 
L 381.700528 -101.940111 
L 381.283644 -101.097494 
L 380.853964 -100.254877 
L 380.414622 -99.41226 
L 379.968773 -98.569644 
L 379.519547 -97.727027 
L 379.070008 -96.88441 
L 378.623108 -96.041794 
L 378.181655 -95.199177 
L 377.74828 -94.35656 
L 377.325402 -93.513943 
L 376.915214 -92.671327 
L 376.519653 -91.82871 
L 376.140398 -90.986093 
L 375.778848 -90.143477 
L 375.436131 -89.30086 
L 375.113094 -88.458243 
L 374.810315 -87.615626 
L 374.528114 -86.77301 
L 374.266562 -85.930393 
L 374.025504 -85.087776 
L 373.804577 -84.24516 
L 373.603233 -83.402543 
L 373.420765 -82.559926 
L 373.256332 -81.717309 
L 373.108986 -80.874693 
L 372.977697 -80.032076 
L 372.861374 -79.189459 
z
" id="m4aec4b2e6c" style="stroke:#3f3f3f;stroke-width:1.5;"/>
    </defs>
    <g clip-path="url(#p95927bcb59)">
     <use style="fill:#9fd495;stroke:#3f3f3f;stroke-width:1.5;" x="0" xlink:href="#m4aec4b2e6c" y="355.523584"/>
    </g>
   </g>
   <g id="matplotlib.axis_1">
    <g id="xtick_1">
     <g id="line2d_1">
      <defs>
       <path d="M 0 0 
L 0 3.5 
" id="m0af4bb0038" style="stroke:#000000;stroke-width:0.8;"/>
      </defs>
      <g>
       <use style="stroke:#000000;stroke-width:0.8;" x="104.330625" xlink:href="#m0af4bb0038" y="288.430125"/>
      </g>
     </g>
     <g id="text_1">
      <!-- kirenenko -->
      <g transform="translate(60.870421 326.501971)rotate(-30)scale(0.1 -0.1)">
       <defs>
        <path d="M 9.078125 75.984375 
L 18.109375 75.984375 
L 18.109375 31.109375 
L 44.921875 54.6875 
L 56.390625 54.6875 
L 27.390625 29.109375 
L 57.625 0 
L 45.90625 0 
L 18.109375 26.703125 
L 18.109375 0 
L 9.078125 0 
z
" id="DejaVuSans-107"/>
        <path d="M 9.421875 54.6875 
L 18.40625 54.6875 
L 18.40625 0 
L 9.421875 0 
z
M 9.421875 75.984375 
L 18.40625 75.984375 
L 18.40625 64.59375 
L 9.421875 64.59375 
z
" id="DejaVuSans-105"/>
        <path d="M 41.109375 46.296875 
Q 39.59375 47.171875 37.8125 47.578125 
Q 36.03125 48 33.890625 48 
Q 26.265625 48 22.1875 43.046875 
Q 18.109375 38.09375 18.109375 28.8125 
L 18.109375 0 
L 9.078125 0 
L 9.078125 54.6875 
L 18.109375 54.6875 
L 18.109375 46.1875 
Q 20.953125 51.171875 25.484375 53.578125 
Q 30.03125 56 36.53125 56 
Q 37.453125 56 38.578125 55.875 
Q 39.703125 55.765625 41.0625 55.515625 
z
" id="DejaVuSans-114"/>
        <path d="M 56.203125 29.59375 
L 56.203125 25.203125 
L 14.890625 25.203125 
Q 15.484375 15.921875 20.484375 11.0625 
Q 25.484375 6.203125 34.421875 6.203125 
Q 39.59375 6.203125 44.453125 7.46875 
Q 49.3125 8.734375 54.109375 11.28125 
L 54.109375 2.78125 
Q 49.265625 0.734375 44.1875 -0.34375 
Q 39.109375 -1.421875 33.890625 -1.421875 
Q 20.796875 -1.421875 13.15625 6.1875 
Q 5.515625 13.8125 5.515625 26.8125 
Q 5.515625 40.234375 12.765625 48.109375 
Q 20.015625 56 32.328125 56 
Q 43.359375 56 49.78125 48.890625 
Q 56.203125 41.796875 56.203125 29.59375 
z
M 47.21875 32.234375 
Q 47.125 39.59375 43.09375 43.984375 
Q 39.0625 48.390625 32.421875 48.390625 
Q 24.90625 48.390625 20.390625 44.140625 
Q 15.875 39.890625 15.1875 32.171875 
z
" id="DejaVuSans-101"/>
        <path d="M 54.890625 33.015625 
L 54.890625 0 
L 45.90625 0 
L 45.90625 32.71875 
Q 45.90625 40.484375 42.875 44.328125 
Q 39.84375 48.1875 33.796875 48.1875 
Q 26.515625 48.1875 22.3125 43.546875 
Q 18.109375 38.921875 18.109375 30.90625 
L 18.109375 0 
L 9.078125 0 
L 9.078125 54.6875 
L 18.109375 54.6875 
L 18.109375 46.1875 
Q 21.34375 51.125 25.703125 53.5625 
Q 30.078125 56 35.796875 56 
Q 45.21875 56 50.046875 50.171875 
Q 54.890625 44.34375 54.890625 33.015625 
z
" id="DejaVuSans-110"/>
        <path d="M 30.609375 48.390625 
Q 23.390625 48.390625 19.1875 42.75 
Q 14.984375 37.109375 14.984375 27.296875 
Q 14.984375 17.484375 19.15625 11.84375 
Q 23.34375 6.203125 30.609375 6.203125 
Q 37.796875 6.203125 41.984375 11.859375 
Q 46.1875 17.53125 46.1875 27.296875 
Q 46.1875 37.015625 41.984375 42.703125 
Q 37.796875 48.390625 30.609375 48.390625 
z
M 30.609375 56 
Q 42.328125 56 49.015625 48.375 
Q 55.71875 40.765625 55.71875 27.296875 
Q 55.71875 13.875 49.015625 6.21875 
Q 42.328125 -1.421875 30.609375 -1.421875 
Q 18.84375 -1.421875 12.171875 6.21875 
Q 5.515625 13.875 5.515625 27.296875 
Q 5.515625 40.765625 12.171875 48.375 
Q 18.84375 56 30.609375 56 
z
" id="DejaVuSans-111"/>
       </defs>
       <use xlink:href="#DejaVuSans-107"/>
       <use x="57.910156" xlink:href="#DejaVuSans-105"/>
       <use x="85.693359" xlink:href="#DejaVuSans-114"/>
       <use x="124.556641" xlink:href="#DejaVuSans-101"/>
       <use x="186.080078" xlink:href="#DejaVuSans-110"/>
       <use x="249.458984" xlink:href="#DejaVuSans-101"/>
       <use x="310.982422" xlink:href="#DejaVuSans-110"/>
       <use x="374.361328" xlink:href="#DejaVuSans-107"/>
       <use x="428.646484" xlink:href="#DejaVuSans-111"/>
      </g>
     </g>
    </g>
    <g id="xtick_2">
     <g id="line2d_2">
      <g>
       <use style="stroke:#000000;stroke-width:0.8;" x="193.610625" xlink:href="#m0af4bb0038" y="288.430125"/>
      </g>
     </g>
     <g id="text_2">
      <!-- aflplusplus -->
      <g transform="translate(146.001618 328.897284)rotate(-30)scale(0.1 -0.1)">
       <defs>
        <path d="M 34.28125 27.484375 
Q 23.390625 27.484375 19.1875 25 
Q 14.984375 22.515625 14.984375 16.5 
Q 14.984375 11.71875 18.140625 8.90625 
Q 21.296875 6.109375 26.703125 6.109375 
Q 34.1875 6.109375 38.703125 11.40625 
Q 43.21875 16.703125 43.21875 25.484375 
L 43.21875 27.484375 
z
M 52.203125 31.203125 
L 52.203125 0 
L 43.21875 0 
L 43.21875 8.296875 
Q 40.140625 3.328125 35.546875 0.953125 
Q 30.953125 -1.421875 24.3125 -1.421875 
Q 15.921875 -1.421875 10.953125 3.296875 
Q 6 8.015625 6 15.921875 
Q 6 25.140625 12.171875 29.828125 
Q 18.359375 34.515625 30.609375 34.515625 
L 43.21875 34.515625 
L 43.21875 35.40625 
Q 43.21875 41.609375 39.140625 45 
Q 35.0625 48.390625 27.6875 48.390625 
Q 23 48.390625 18.546875 47.265625 
Q 14.109375 46.140625 10.015625 43.890625 
L 10.015625 52.203125 
Q 14.9375 54.109375 19.578125 55.046875 
Q 24.21875 56 28.609375 56 
Q 40.484375 56 46.34375 49.84375 
Q 52.203125 43.703125 52.203125 31.203125 
z
" id="DejaVuSans-97"/>
        <path d="M 37.109375 75.984375 
L 37.109375 68.5 
L 28.515625 68.5 
Q 23.6875 68.5 21.796875 66.546875 
Q 19.921875 64.59375 19.921875 59.515625 
L 19.921875 54.6875 
L 34.71875 54.6875 
L 34.71875 47.703125 
L 19.921875 47.703125 
L 19.921875 0 
L 10.890625 0 
L 10.890625 47.703125 
L 2.296875 47.703125 
L 2.296875 54.6875 
L 10.890625 54.6875 
L 10.890625 58.5 
Q 10.890625 67.625 15.140625 71.796875 
Q 19.390625 75.984375 28.609375 75.984375 
z
" id="DejaVuSans-102"/>
        <path d="M 9.421875 75.984375 
L 18.40625 75.984375 
L 18.40625 0 
L 9.421875 0 
z
" id="DejaVuSans-108"/>
        <path d="M 18.109375 8.203125 
L 18.109375 -20.796875 
L 9.078125 -20.796875 
L 9.078125 54.6875 
L 18.109375 54.6875 
L 18.109375 46.390625 
Q 20.953125 51.265625 25.265625 53.625 
Q 29.59375 56 35.59375 56 
Q 45.5625 56 51.78125 48.09375 
Q 58.015625 40.1875 58.015625 27.296875 
Q 58.015625 14.40625 51.78125 6.484375 
Q 45.5625 -1.421875 35.59375 -1.421875 
Q 29.59375 -1.421875 25.265625 0.953125 
Q 20.953125 3.328125 18.109375 8.203125 
z
M 48.6875 27.296875 
Q 48.6875 37.203125 44.609375 42.84375 
Q 40.53125 48.484375 33.40625 48.484375 
Q 26.265625 48.484375 22.1875 42.84375 
Q 18.109375 37.203125 18.109375 27.296875 
Q 18.109375 17.390625 22.1875 11.75 
Q 26.265625 6.109375 33.40625 6.109375 
Q 40.53125 6.109375 44.609375 11.75 
Q 48.6875 17.390625 48.6875 27.296875 
z
" id="DejaVuSans-112"/>
        <path d="M 8.5 21.578125 
L 8.5 54.6875 
L 17.484375 54.6875 
L 17.484375 21.921875 
Q 17.484375 14.15625 20.5 10.265625 
Q 23.53125 6.390625 29.59375 6.390625 
Q 36.859375 6.390625 41.078125 11.03125 
Q 45.3125 15.671875 45.3125 23.6875 
L 45.3125 54.6875 
L 54.296875 54.6875 
L 54.296875 0 
L 45.3125 0 
L 45.3125 8.40625 
Q 42.046875 3.421875 37.71875 1 
Q 33.40625 -1.421875 27.6875 -1.421875 
Q 18.265625 -1.421875 13.375 4.4375 
Q 8.5 10.296875 8.5 21.578125 
z
M 31.109375 56 
z
" id="DejaVuSans-117"/>
        <path d="M 44.28125 53.078125 
L 44.28125 44.578125 
Q 40.484375 46.53125 36.375 47.5 
Q 32.28125 48.484375 27.875 48.484375 
Q 21.1875 48.484375 17.84375 46.4375 
Q 14.5 44.390625 14.5 40.28125 
Q 14.5 37.15625 16.890625 35.375 
Q 19.28125 33.59375 26.515625 31.984375 
L 29.59375 31.296875 
Q 39.15625 29.25 43.1875 25.515625 
Q 47.21875 21.78125 47.21875 15.09375 
Q 47.21875 7.46875 41.1875 3.015625 
Q 35.15625 -1.421875 24.609375 -1.421875 
Q 20.21875 -1.421875 15.453125 -0.5625 
Q 10.6875 0.296875 5.421875 2 
L 5.421875 11.28125 
Q 10.40625 8.6875 15.234375 7.390625 
Q 20.0625 6.109375 24.8125 6.109375 
Q 31.15625 6.109375 34.5625 8.28125 
Q 37.984375 10.453125 37.984375 14.40625 
Q 37.984375 18.0625 35.515625 20.015625 
Q 33.0625 21.96875 24.703125 23.78125 
L 21.578125 24.515625 
Q 13.234375 26.265625 9.515625 29.90625 
Q 5.8125 33.546875 5.8125 39.890625 
Q 5.8125 47.609375 11.28125 51.796875 
Q 16.75 56 26.8125 56 
Q 31.78125 56 36.171875 55.265625 
Q 40.578125 54.546875 44.28125 53.078125 
z
" id="DejaVuSans-115"/>
       </defs>
       <use xlink:href="#DejaVuSans-97"/>
       <use x="61.279297" xlink:href="#DejaVuSans-102"/>
       <use x="96.484375" xlink:href="#DejaVuSans-108"/>
       <use x="124.267578" xlink:href="#DejaVuSans-112"/>
       <use x="187.744141" xlink:href="#DejaVuSans-108"/>
       <use x="215.527344" xlink:href="#DejaVuSans-117"/>
       <use x="278.90625" xlink:href="#DejaVuSans-115"/>
       <use x="331.005859" xlink:href="#DejaVuSans-112"/>
       <use x="394.482422" xlink:href="#DejaVuSans-108"/>
       <use x="422.265625" xlink:href="#DejaVuSans-117"/>
       <use x="485.644531" xlink:href="#DejaVuSans-115"/>
      </g>
     </g>
    </g>
    <g id="xtick_3">
     <g id="line2d_3">
      <g>
       <use style="stroke:#000000;stroke-width:0.8;" x="282.890625" xlink:href="#m0af4bb0038" y="288.430125"/>
      </g>
     </g>
     <g id="text_3">
      <!-- weizz_qemu -->
      <g transform="translate(228.723143 332.603534)rotate(-30)scale(0.1 -0.1)">
       <defs>
        <path d="M 4.203125 54.6875 
L 13.1875 54.6875 
L 24.421875 12.015625 
L 35.59375 54.6875 
L 46.1875 54.6875 
L 57.421875 12.015625 
L 68.609375 54.6875 
L 77.59375 54.6875 
L 63.28125 0 
L 52.6875 0 
L 40.921875 44.828125 
L 29.109375 0 
L 18.5 0 
z
" id="DejaVuSans-119"/>
        <path d="M 5.515625 54.6875 
L 48.1875 54.6875 
L 48.1875 46.484375 
L 14.40625 7.171875 
L 48.1875 7.171875 
L 48.1875 0 
L 4.296875 0 
L 4.296875 8.203125 
L 38.09375 47.515625 
L 5.515625 47.515625 
z
" id="DejaVuSans-122"/>
        <path d="M 50.984375 -16.609375 
L 50.984375 -23.578125 
L -0.984375 -23.578125 
L -0.984375 -16.609375 
z
" id="DejaVuSans-95"/>
        <path d="M 14.796875 27.296875 
Q 14.796875 17.390625 18.875 11.75 
Q 22.953125 6.109375 30.078125 6.109375 
Q 37.203125 6.109375 41.296875 11.75 
Q 45.40625 17.390625 45.40625 27.296875 
Q 45.40625 37.203125 41.296875 42.84375 
Q 37.203125 48.484375 30.078125 48.484375 
Q 22.953125 48.484375 18.875 42.84375 
Q 14.796875 37.203125 14.796875 27.296875 
z
M 45.40625 8.203125 
Q 42.578125 3.328125 38.25 0.953125 
Q 33.9375 -1.421875 27.875 -1.421875 
Q 17.96875 -1.421875 11.734375 6.484375 
Q 5.515625 14.40625 5.515625 27.296875 
Q 5.515625 40.1875 11.734375 48.09375 
Q 17.96875 56 27.875 56 
Q 33.9375 56 38.25 53.625 
Q 42.578125 51.265625 45.40625 46.390625 
L 45.40625 54.6875 
L 54.390625 54.6875 
L 54.390625 -20.796875 
L 45.40625 -20.796875 
z
" id="DejaVuSans-113"/>
        <path d="M 52 44.1875 
Q 55.375 50.25 60.0625 53.125 
Q 64.75 56 71.09375 56 
Q 79.640625 56 84.28125 50.015625 
Q 88.921875 44.046875 88.921875 33.015625 
L 88.921875 0 
L 79.890625 0 
L 79.890625 32.71875 
Q 79.890625 40.578125 77.09375 44.375 
Q 74.3125 48.1875 68.609375 48.1875 
Q 61.625 48.1875 57.5625 43.546875 
Q 53.515625 38.921875 53.515625 30.90625 
L 53.515625 0 
L 44.484375 0 
L 44.484375 32.71875 
Q 44.484375 40.625 41.703125 44.40625 
Q 38.921875 48.1875 33.109375 48.1875 
Q 26.21875 48.1875 22.15625 43.53125 
Q 18.109375 38.875 18.109375 30.90625 
L 18.109375 0 
L 9.078125 0 
L 9.078125 54.6875 
L 18.109375 54.6875 
L 18.109375 46.1875 
Q 21.1875 51.21875 25.484375 53.609375 
Q 29.78125 56 35.6875 56 
Q 41.65625 56 45.828125 52.96875 
Q 50 49.953125 52 44.1875 
z
" id="DejaVuSans-109"/>
       </defs>
       <use xlink:href="#DejaVuSans-119"/>
       <use x="81.787109" xlink:href="#DejaVuSans-101"/>
       <use x="143.310547" xlink:href="#DejaVuSans-105"/>
       <use x="171.09375" xlink:href="#DejaVuSans-122"/>
       <use x="223.583984" xlink:href="#DejaVuSans-122"/>
       <use x="276.074219" xlink:href="#DejaVuSans-95"/>
       <use x="326.074219" xlink:href="#DejaVuSans-113"/>
       <use x="389.550781" xlink:href="#DejaVuSans-101"/>
       <use x="451.074219" xlink:href="#DejaVuSans-109"/>
       <use x="548.486328" xlink:href="#DejaVuSans-117"/>
      </g>
     </g>
    </g>
    <g id="xtick_4">
     <g id="line2d_4">
      <g>
       <use style="stroke:#000000;stroke-width:0.8;" x="372.170625" xlink:href="#m0af4bb0038" y="288.430125"/>
      </g>
     </g>
     <g id="text_4">
      <!-- honggfuzz -->
      <g transform="translate(326.231424 327.933221)rotate(-30)scale(0.1 -0.1)">
       <defs>
        <path d="M 54.890625 33.015625 
L 54.890625 0 
L 45.90625 0 
L 45.90625 32.71875 
Q 45.90625 40.484375 42.875 44.328125 
Q 39.84375 48.1875 33.796875 48.1875 
Q 26.515625 48.1875 22.3125 43.546875 
Q 18.109375 38.921875 18.109375 30.90625 
L 18.109375 0 
L 9.078125 0 
L 9.078125 75.984375 
L 18.109375 75.984375 
L 18.109375 46.1875 
Q 21.34375 51.125 25.703125 53.5625 
Q 30.078125 56 35.796875 56 
Q 45.21875 56 50.046875 50.171875 
Q 54.890625 44.34375 54.890625 33.015625 
z
" id="DejaVuSans-104"/>
        <path d="M 45.40625 27.984375 
Q 45.40625 37.75 41.375 43.109375 
Q 37.359375 48.484375 30.078125 48.484375 
Q 22.859375 48.484375 18.828125 43.109375 
Q 14.796875 37.75 14.796875 27.984375 
Q 14.796875 18.265625 18.828125 12.890625 
Q 22.859375 7.515625 30.078125 7.515625 
Q 37.359375 7.515625 41.375 12.890625 
Q 45.40625 18.265625 45.40625 27.984375 
z
M 54.390625 6.78125 
Q 54.390625 -7.171875 48.1875 -13.984375 
Q 42 -20.796875 29.203125 -20.796875 
Q 24.46875 -20.796875 20.265625 -20.09375 
Q 16.0625 -19.390625 12.109375 -17.921875 
L 12.109375 -9.1875 
Q 16.0625 -11.328125 19.921875 -12.34375 
Q 23.78125 -13.375 27.78125 -13.375 
Q 36.625 -13.375 41.015625 -8.765625 
Q 45.40625 -4.15625 45.40625 5.171875 
L 45.40625 9.625 
Q 42.625 4.78125 38.28125 2.390625 
Q 33.9375 0 27.875 0 
Q 17.828125 0 11.671875 7.65625 
Q 5.515625 15.328125 5.515625 27.984375 
Q 5.515625 40.671875 11.671875 48.328125 
Q 17.828125 56 27.875 56 
Q 33.9375 56 38.28125 53.609375 
Q 42.625 51.21875 45.40625 46.390625 
L 45.40625 54.6875 
L 54.390625 54.6875 
z
" id="DejaVuSans-103"/>
       </defs>
       <use xlink:href="#DejaVuSans-104"/>
       <use x="63.378906" xlink:href="#DejaVuSans-111"/>
       <use x="124.560547" xlink:href="#DejaVuSans-110"/>
       <use x="187.939453" xlink:href="#DejaVuSans-103"/>
       <use x="251.416016" xlink:href="#DejaVuSans-103"/>
       <use x="314.892578" xlink:href="#DejaVuSans-102"/>
       <use x="350.097656" xlink:href="#DejaVuSans-117"/>
       <use x="413.476562" xlink:href="#DejaVuSans-122"/>
       <use x="465.966797" xlink:href="#DejaVuSans-122"/>
      </g>
     </g>
    </g>
    <g id="text_5">
     <!-- Fuzzer (highest median coverage on the left) -->
     <g transform="translate(125.632656 346.243897)scale(0.1 -0.1)">
      <defs>
       <path d="M 9.8125 72.90625 
L 51.703125 72.90625 
L 51.703125 64.59375 
L 19.671875 64.59375 
L 19.671875 43.109375 
L 48.578125 43.109375 
L 48.578125 34.8125 
L 19.671875 34.8125 
L 19.671875 0 
L 9.8125 0 
z
" id="DejaVuSans-70"/>
       <path id="DejaVuSans-32"/>
       <path d="M 31 75.875 
Q 24.46875 64.65625 21.28125 53.65625 
Q 18.109375 42.671875 18.109375 31.390625 
Q 18.109375 20.125 21.3125 9.0625 
Q 24.515625 -2 31 -13.1875 
L 23.1875 -13.1875 
Q 15.875 -1.703125 12.234375 9.375 
Q 8.59375 20.453125 8.59375 31.390625 
Q 8.59375 42.28125 12.203125 53.3125 
Q 15.828125 64.359375 23.1875 75.875 
z
" id="DejaVuSans-40"/>
       <path d="M 18.3125 70.21875 
L 18.3125 54.6875 
L 36.8125 54.6875 
L 36.8125 47.703125 
L 18.3125 47.703125 
L 18.3125 18.015625 
Q 18.3125 11.328125 20.140625 9.421875 
Q 21.96875 7.515625 27.59375 7.515625 
L 36.8125 7.515625 
L 36.8125 0 
L 27.59375 0 
Q 17.1875 0 13.234375 3.875 
Q 9.28125 7.765625 9.28125 18.015625 
L 9.28125 47.703125 
L 2.6875 47.703125 
L 2.6875 54.6875 
L 9.28125 54.6875 
L 9.28125 70.21875 
z
" id="DejaVuSans-116"/>
       <path d="M 45.40625 46.390625 
L 45.40625 75.984375 
L 54.390625 75.984375 
L 54.390625 0 
L 45.40625 0 
L 45.40625 8.203125 
Q 42.578125 3.328125 38.25 0.953125 
Q 33.9375 -1.421875 27.875 -1.421875 
Q 17.96875 -1.421875 11.734375 6.484375 
Q 5.515625 14.40625 5.515625 27.296875 
Q 5.515625 40.1875 11.734375 48.09375 
Q 17.96875 56 27.875 56 
Q 33.9375 56 38.25 53.625 
Q 42.578125 51.265625 45.40625 46.390625 
z
M 14.796875 27.296875 
Q 14.796875 17.390625 18.875 11.75 
Q 22.953125 6.109375 30.078125 6.109375 
Q 37.203125 6.109375 41.296875 11.75 
Q 45.40625 17.390625 45.40625 27.296875 
Q 45.40625 37.203125 41.296875 42.84375 
Q 37.203125 48.484375 30.078125 48.484375 
Q 22.953125 48.484375 18.875 42.84375 
Q 14.796875 37.203125 14.796875 27.296875 
z
" id="DejaVuSans-100"/>
       <path d="M 48.78125 52.59375 
L 48.78125 44.1875 
Q 44.96875 46.296875 41.140625 47.34375 
Q 37.3125 48.390625 33.40625 48.390625 
Q 24.65625 48.390625 19.8125 42.84375 
Q 14.984375 37.3125 14.984375 27.296875 
Q 14.984375 17.28125 19.8125 11.734375 
Q 24.65625 6.203125 33.40625 6.203125 
Q 37.3125 6.203125 41.140625 7.25 
Q 44.96875 8.296875 48.78125 10.40625 
L 48.78125 2.09375 
Q 45.015625 0.34375 40.984375 -0.53125 
Q 36.96875 -1.421875 32.421875 -1.421875 
Q 20.0625 -1.421875 12.78125 6.34375 
Q 5.515625 14.109375 5.515625 27.296875 
Q 5.515625 40.671875 12.859375 48.328125 
Q 20.21875 56 33.015625 56 
Q 37.15625 56 41.109375 55.140625 
Q 45.0625 54.296875 48.78125 52.59375 
z
" id="DejaVuSans-99"/>
       <path d="M 2.984375 54.6875 
L 12.5 54.6875 
L 29.59375 8.796875 
L 46.6875 54.6875 
L 56.203125 54.6875 
L 35.6875 0 
L 23.484375 0 
z
" id="DejaVuSans-118"/>
       <path d="M 8.015625 75.875 
L 15.828125 75.875 
Q 23.140625 64.359375 26.78125 53.3125 
Q 30.421875 42.28125 30.421875 31.390625 
Q 30.421875 20.453125 26.78125 9.375 
Q 23.140625 -1.703125 15.828125 -13.1875 
L 8.015625 -13.1875 
Q 14.5 -2 17.703125 9.0625 
Q 20.90625 20.125 20.90625 31.390625 
Q 20.90625 42.671875 17.703125 53.65625 
Q 14.5 64.65625 8.015625 75.875 
z
" id="DejaVuSans-41"/>
      </defs>
      <use xlink:href="#DejaVuSans-70"/>
      <use x="52.019531" xlink:href="#DejaVuSans-117"/>
      <use x="115.398438" xlink:href="#DejaVuSans-122"/>
      <use x="167.888672" xlink:href="#DejaVuSans-122"/>
      <use x="220.378906" xlink:href="#DejaVuSans-101"/>
      <use x="281.902344" xlink:href="#DejaVuSans-114"/>
      <use x="323.015625" xlink:href="#DejaVuSans-32"/>
      <use x="354.802734" xlink:href="#DejaVuSans-40"/>
      <use x="393.816406" xlink:href="#DejaVuSans-104"/>
      <use x="457.195312" xlink:href="#DejaVuSans-105"/>
      <use x="484.978516" xlink:href="#DejaVuSans-103"/>
      <use x="548.455078" xlink:href="#DejaVuSans-104"/>
      <use x="611.833984" xlink:href="#DejaVuSans-101"/>
      <use x="673.357422" xlink:href="#DejaVuSans-115"/>
      <use x="725.457031" xlink:href="#DejaVuSans-116"/>
      <use x="764.666016" xlink:href="#DejaVuSans-32"/>
      <use x="796.453125" xlink:href="#DejaVuSans-109"/>
      <use x="893.865234" xlink:href="#DejaVuSans-101"/>
      <use x="955.388672" xlink:href="#DejaVuSans-100"/>
      <use x="1018.865234" xlink:href="#DejaVuSans-105"/>
      <use x="1046.648438" xlink:href="#DejaVuSans-97"/>
      <use x="1107.927734" xlink:href="#DejaVuSans-110"/>
      <use x="1171.306641" xlink:href="#DejaVuSans-32"/>
      <use x="1203.09375" xlink:href="#DejaVuSans-99"/>
      <use x="1258.074219" xlink:href="#DejaVuSans-111"/>
      <use x="1319.255859" xlink:href="#DejaVuSans-118"/>
      <use x="1378.435547" xlink:href="#DejaVuSans-101"/>
      <use x="1439.958984" xlink:href="#DejaVuSans-114"/>
      <use x="1481.072266" xlink:href="#DejaVuSans-97"/>
      <use x="1542.351562" xlink:href="#DejaVuSans-103"/>
      <use x="1605.828125" xlink:href="#DejaVuSans-101"/>
      <use x="1667.351562" xlink:href="#DejaVuSans-32"/>
      <use x="1699.138672" xlink:href="#DejaVuSans-111"/>
      <use x="1760.320312" xlink:href="#DejaVuSans-110"/>
      <use x="1823.699219" xlink:href="#DejaVuSans-32"/>
      <use x="1855.486328" xlink:href="#DejaVuSans-116"/>
      <use x="1894.695312" xlink:href="#DejaVuSans-104"/>
      <use x="1958.074219" xlink:href="#DejaVuSans-101"/>
      <use x="2019.597656" xlink:href="#DejaVuSans-32"/>
      <use x="2051.384766" xlink:href="#DejaVuSans-108"/>
      <use x="2079.167969" xlink:href="#DejaVuSans-101"/>
      <use x="2140.691406" xlink:href="#DejaVuSans-102"/>
      <use x="2174.146484" xlink:href="#DejaVuSans-116"/>
      <use x="2213.355469" xlink:href="#DejaVuSans-41"/>
     </g>
    </g>
   </g>
   <g id="matplotlib.axis_2">
    <g id="ytick_1">
     <g id="line2d_5">
      <defs>
       <path d="M 0 0 
L -3.5 0 
" id="m247b88a59b" style="stroke:#000000;stroke-width:0.8;"/>
      </defs>
      <g>
       <use style="stroke:#000000;stroke-width:0.8;" x="59.690625" xlink:href="#m247b88a59b" y="258.583962"/>
      </g>
     </g>
     <g id="text_6">
      <!-- 20000 -->
      <g transform="translate(20.878125 262.383181)scale(0.1 -0.1)">
       <defs>
        <path d="M 19.1875 8.296875 
L 53.609375 8.296875 
L 53.609375 0 
L 7.328125 0 
L 7.328125 8.296875 
Q 12.9375 14.109375 22.625 23.890625 
Q 32.328125 33.6875 34.8125 36.53125 
Q 39.546875 41.84375 41.421875 45.53125 
Q 43.3125 49.21875 43.3125 52.78125 
Q 43.3125 58.59375 39.234375 62.25 
Q 35.15625 65.921875 28.609375 65.921875 
Q 23.96875 65.921875 18.8125 64.3125 
Q 13.671875 62.703125 7.8125 59.421875 
L 7.8125 69.390625 
Q 13.765625 71.78125 18.9375 73 
Q 24.125 74.21875 28.421875 74.21875 
Q 39.75 74.21875 46.484375 68.546875 
Q 53.21875 62.890625 53.21875 53.421875 
Q 53.21875 48.921875 51.53125 44.890625 
Q 49.859375 40.875 45.40625 35.40625 
Q 44.1875 33.984375 37.640625 27.21875 
Q 31.109375 20.453125 19.1875 8.296875 
z
" id="DejaVuSans-50"/>
        <path d="M 31.78125 66.40625 
Q 24.171875 66.40625 20.328125 58.90625 
Q 16.5 51.421875 16.5 36.375 
Q 16.5 21.390625 20.328125 13.890625 
Q 24.171875 6.390625 31.78125 6.390625 
Q 39.453125 6.390625 43.28125 13.890625 
Q 47.125 21.390625 47.125 36.375 
Q 47.125 51.421875 43.28125 58.90625 
Q 39.453125 66.40625 31.78125 66.40625 
z
M 31.78125 74.21875 
Q 44.046875 74.21875 50.515625 64.515625 
Q 56.984375 54.828125 56.984375 36.375 
Q 56.984375 17.96875 50.515625 8.265625 
Q 44.046875 -1.421875 31.78125 -1.421875 
Q 19.53125 -1.421875 13.0625 8.265625 
Q 6.59375 17.96875 6.59375 36.375 
Q 6.59375 54.828125 13.0625 64.515625 
Q 19.53125 74.21875 31.78125 74.21875 
z
" id="DejaVuSans-48"/>
       </defs>
       <use xlink:href="#DejaVuSans-50"/>
       <use x="63.623047" xlink:href="#DejaVuSans-48"/>
       <use x="127.246094" xlink:href="#DejaVuSans-48"/>
       <use x="190.869141" xlink:href="#DejaVuSans-48"/>
       <use x="254.492188" xlink:href="#DejaVuSans-48"/>
      </g>
     </g>
    </g>
    <g id="ytick_2">
     <g id="line2d_6">
      <g>
       <use style="stroke:#000000;stroke-width:0.8;" x="59.690625" xlink:href="#m247b88a59b" y="222.9937"/>
      </g>
     </g>
     <g id="text_7">
      <!-- 22500 -->
      <g transform="translate(20.878125 226.792918)scale(0.1 -0.1)">
       <defs>
        <path d="M 10.796875 72.90625 
L 49.515625 72.90625 
L 49.515625 64.59375 
L 19.828125 64.59375 
L 19.828125 46.734375 
Q 21.96875 47.46875 24.109375 47.828125 
Q 26.265625 48.1875 28.421875 48.1875 
Q 40.625 48.1875 47.75 41.5 
Q 54.890625 34.8125 54.890625 23.390625 
Q 54.890625 11.625 47.5625 5.09375 
Q 40.234375 -1.421875 26.90625 -1.421875 
Q 22.3125 -1.421875 17.546875 -0.640625 
Q 12.796875 0.140625 7.71875 1.703125 
L 7.71875 11.625 
Q 12.109375 9.234375 16.796875 8.0625 
Q 21.484375 6.890625 26.703125 6.890625 
Q 35.15625 6.890625 40.078125 11.328125 
Q 45.015625 15.765625 45.015625 23.390625 
Q 45.015625 31 40.078125 35.4375 
Q 35.15625 39.890625 26.703125 39.890625 
Q 22.75 39.890625 18.8125 39.015625 
Q 14.890625 38.140625 10.796875 36.28125 
z
" id="DejaVuSans-53"/>
       </defs>
       <use xlink:href="#DejaVuSans-50"/>
       <use x="63.623047" xlink:href="#DejaVuSans-50"/>
       <use x="127.246094" xlink:href="#DejaVuSans-53"/>
       <use x="190.869141" xlink:href="#DejaVuSans-48"/>
       <use x="254.492188" xlink:href="#DejaVuSans-48"/>
      </g>
     </g>
    </g>
    <g id="ytick_3">
     <g id="line2d_7">
      <g>
       <use style="stroke:#000000;stroke-width:0.8;" x="59.690625" xlink:href="#m247b88a59b" y="187.403437"/>
      </g>
     </g>
     <g id="text_8">
      <!-- 25000 -->
      <g transform="translate(20.878125 191.202656)scale(0.1 -0.1)">
       <use xlink:href="#DejaVuSans-50"/>
       <use x="63.623047" xlink:href="#DejaVuSans-53"/>
       <use x="127.246094" xlink:href="#DejaVuSans-48"/>
       <use x="190.869141" xlink:href="#DejaVuSans-48"/>
       <use x="254.492188" xlink:href="#DejaVuSans-48"/>
      </g>
     </g>
    </g>
    <g id="ytick_4">
     <g id="line2d_8">
      <g>
       <use style="stroke:#000000;stroke-width:0.8;" x="59.690625" xlink:href="#m247b88a59b" y="151.813175"/>
      </g>
     </g>
     <g id="text_9">
      <!-- 27500 -->
      <g transform="translate(20.878125 155.612394)scale(0.1 -0.1)">
       <defs>
        <path d="M 8.203125 72.90625 
L 55.078125 72.90625 
L 55.078125 68.703125 
L 28.609375 0 
L 18.3125 0 
L 43.21875 64.59375 
L 8.203125 64.59375 
z
" id="DejaVuSans-55"/>
       </defs>
       <use xlink:href="#DejaVuSans-50"/>
       <use x="63.623047" xlink:href="#DejaVuSans-55"/>
       <use x="127.246094" xlink:href="#DejaVuSans-53"/>
       <use x="190.869141" xlink:href="#DejaVuSans-48"/>
       <use x="254.492188" xlink:href="#DejaVuSans-48"/>
      </g>
     </g>
    </g>
    <g id="ytick_5">
     <g id="line2d_9">
      <g>
       <use style="stroke:#000000;stroke-width:0.8;" x="59.690625" xlink:href="#m247b88a59b" y="116.222913"/>
      </g>
     </g>
     <g id="text_10">
      <!-- 30000 -->
      <g transform="translate(20.878125 120.022132)scale(0.1 -0.1)">
       <defs>
        <path d="M 40.578125 39.3125 
Q 47.65625 37.796875 51.625 33 
Q 55.609375 28.21875 55.609375 21.1875 
Q 55.609375 10.40625 48.1875 4.484375 
Q 40.765625 -1.421875 27.09375 -1.421875 
Q 22.515625 -1.421875 17.65625 -0.515625 
Q 12.796875 0.390625 7.625 2.203125 
L 7.625 11.71875 
Q 11.71875 9.328125 16.59375 8.109375 
Q 21.484375 6.890625 26.8125 6.890625 
Q 36.078125 6.890625 40.9375 10.546875 
Q 45.796875 14.203125 45.796875 21.1875 
Q 45.796875 27.640625 41.28125 31.265625 
Q 36.765625 34.90625 28.71875 34.90625 
L 20.21875 34.90625 
L 20.21875 43.015625 
L 29.109375 43.015625 
Q 36.375 43.015625 40.234375 45.921875 
Q 44.09375 48.828125 44.09375 54.296875 
Q 44.09375 59.90625 40.109375 62.90625 
Q 36.140625 65.921875 28.71875 65.921875 
Q 24.65625 65.921875 20.015625 65.03125 
Q 15.375 64.15625 9.8125 62.3125 
L 9.8125 71.09375 
Q 15.4375 72.65625 20.34375 73.4375 
Q 25.25 74.21875 29.59375 74.21875 
Q 40.828125 74.21875 47.359375 69.109375 
Q 53.90625 64.015625 53.90625 55.328125 
Q 53.90625 49.265625 50.4375 45.09375 
Q 46.96875 40.921875 40.578125 39.3125 
z
" id="DejaVuSans-51"/>
       </defs>
       <use xlink:href="#DejaVuSans-51"/>
       <use x="63.623047" xlink:href="#DejaVuSans-48"/>
       <use x="127.246094" xlink:href="#DejaVuSans-48"/>
       <use x="190.869141" xlink:href="#DejaVuSans-48"/>
       <use x="254.492188" xlink:href="#DejaVuSans-48"/>
      </g>
     </g>
    </g>
    <g id="ytick_6">
     <g id="line2d_10">
      <g>
       <use style="stroke:#000000;stroke-width:0.8;" x="59.690625" xlink:href="#m247b88a59b" y="80.632651"/>
      </g>
     </g>
     <g id="text_11">
      <!-- 32500 -->
      <g transform="translate(20.878125 84.431869)scale(0.1 -0.1)">
       <use xlink:href="#DejaVuSans-51"/>
       <use x="63.623047" xlink:href="#DejaVuSans-50"/>
       <use x="127.246094" xlink:href="#DejaVuSans-53"/>
       <use x="190.869141" xlink:href="#DejaVuSans-48"/>
       <use x="254.492188" xlink:href="#DejaVuSans-48"/>
      </g>
     </g>
    </g>
    <g id="ytick_7">
     <g id="line2d_11">
      <g>
       <use style="stroke:#000000;stroke-width:0.8;" x="59.690625" xlink:href="#m247b88a59b" y="45.042388"/>
      </g>
     </g>
     <g id="text_12">
      <!-- 35000 -->
      <g transform="translate(20.878125 48.841607)scale(0.1 -0.1)">
       <use xlink:href="#DejaVuSans-51"/>
       <use x="63.623047" xlink:href="#DejaVuSans-53"/>
       <use x="127.246094" xlink:href="#DejaVuSans-48"/>
       <use x="190.869141" xlink:href="#DejaVuSans-48"/>
       <use x="254.492188" xlink:href="#DejaVuSans-48"/>
      </g>
     </g>
    </g>
    <g id="text_13">
     <!-- Reached region coverage -->
     <g transform="translate(14.798438 219.136625)rotate(-90)scale(0.1 -0.1)">
      <defs>
       <path d="M 44.390625 34.1875 
Q 47.5625 33.109375 50.5625 29.59375 
Q 53.5625 26.078125 56.59375 19.921875 
L 66.609375 0 
L 56 0 
L 46.6875 18.703125 
Q 43.0625 26.03125 39.671875 28.421875 
Q 36.28125 30.8125 30.421875 30.8125 
L 19.671875 30.8125 
L 19.671875 0 
L 9.8125 0 
L 9.8125 72.90625 
L 32.078125 72.90625 
Q 44.578125 72.90625 50.734375 67.671875 
Q 56.890625 62.453125 56.890625 51.90625 
Q 56.890625 45.015625 53.6875 40.46875 
Q 50.484375 35.9375 44.390625 34.1875 
z
M 19.671875 64.796875 
L 19.671875 38.921875 
L 32.078125 38.921875 
Q 39.203125 38.921875 42.84375 42.21875 
Q 46.484375 45.515625 46.484375 51.90625 
Q 46.484375 58.296875 42.84375 61.546875 
Q 39.203125 64.796875 32.078125 64.796875 
z
" id="DejaVuSans-82"/>
      </defs>
      <use xlink:href="#DejaVuSans-82"/>
      <use x="64.982422" xlink:href="#DejaVuSans-101"/>
      <use x="126.505859" xlink:href="#DejaVuSans-97"/>
      <use x="187.785156" xlink:href="#DejaVuSans-99"/>
      <use x="242.765625" xlink:href="#DejaVuSans-104"/>
      <use x="306.144531" xlink:href="#DejaVuSans-101"/>
      <use x="367.667969" xlink:href="#DejaVuSans-100"/>
      <use x="431.144531" xlink:href="#DejaVuSans-32"/>
      <use x="462.931641" xlink:href="#DejaVuSans-114"/>
      <use x="501.794922" xlink:href="#DejaVuSans-101"/>
      <use x="563.318359" xlink:href="#DejaVuSans-103"/>
      <use x="626.794922" xlink:href="#DejaVuSans-105"/>
      <use x="654.578125" xlink:href="#DejaVuSans-111"/>
      <use x="715.759766" xlink:href="#DejaVuSans-110"/>
      <use x="779.138672" xlink:href="#DejaVuSans-32"/>
      <use x="810.925781" xlink:href="#DejaVuSans-99"/>
      <use x="865.90625" xlink:href="#DejaVuSans-111"/>
      <use x="927.087891" xlink:href="#DejaVuSans-118"/>
      <use x="986.267578" xlink:href="#DejaVuSans-101"/>
      <use x="1047.791016" xlink:href="#DejaVuSans-114"/>
      <use x="1088.904297" xlink:href="#DejaVuSans-97"/>
      <use x="1150.183594" xlink:href="#DejaVuSans-103"/>
      <use x="1213.660156" xlink:href="#DejaVuSans-101"/>
     </g>
    </g>
   </g>
   <g id="line2d_12">
    <path clip-path="url(#p95927bcb59)" d="M 104.330625 63.791339 
L 104.330625 45.554888 
" style="fill:none;stroke:#3f3f3f;stroke-linecap:square;stroke-width:1.5;"/>
   </g>
   <g id="line2d_13">
    <path clip-path="url(#p95927bcb59)" d="M 104.330625 62.168423 
L 104.330625 50.651414 
" style="fill:none;stroke:#3f3f3f;stroke-linecap:square;stroke-width:4.5;"/>
   </g>
   <g id="line2d_14">
    <path clip-path="url(#p95927bcb59)" d="M 193.610625 102.01528 
L 193.610625 95.25313 
" style="fill:none;stroke:#3f3f3f;stroke-linecap:square;stroke-width:1.5;"/>
   </g>
   <g id="line2d_15">
    <path clip-path="url(#p95927bcb59)" d="M 193.610625 102.01528 
L 193.610625 95.25313 
" style="fill:none;stroke:#3f3f3f;stroke-linecap:square;stroke-width:4.5;"/>
   </g>
   <g id="line2d_16">
    <path clip-path="url(#p95927bcb59)" d="M 282.890625 205.312457 
L 282.890625 201.511417 
" style="fill:none;stroke:#3f3f3f;stroke-linecap:square;stroke-width:1.5;"/>
   </g>
   <g id="line2d_17">
    <path clip-path="url(#p95927bcb59)" d="M 282.890625 203.888847 
L 282.890625 201.511417 
" style="fill:none;stroke:#3f3f3f;stroke-linecap:square;stroke-width:4.5;"/>
   </g>
   <g id="line2d_18">
    <path clip-path="url(#p95927bcb59)" d="M 372.170625 253.743686 
L 372.170625 215.505508 
" style="fill:none;stroke:#3f3f3f;stroke-linecap:square;stroke-width:1.5;"/>
   </g>
   <g id="line2d_19">
    <path clip-path="url(#p95927bcb59)" d="M 372.170625 243.322857 
L 372.170625 222.509672 
" style="fill:none;stroke:#3f3f3f;stroke-linecap:square;stroke-width:4.5;"/>
   </g>
   <g id="patch_3">
    <path d="M 59.690625 258.583962 
L 59.690625 45.042388 
" style="fill:none;stroke:#000000;stroke-linecap:square;stroke-linejoin:miter;stroke-width:0.8;"/>
   </g>
   <g id="patch_4">
    <path d="M 104.330625 288.430125 
L 372.170625 288.430125 
" style="fill:none;stroke:#000000;stroke-linecap:square;stroke-linejoin:miter;stroke-width:0.8;"/>
   </g>
   <g id="PathCollection_1">
    <defs>
     <path d="M 0 1.5 
C 0.397805 1.5 0.77937 1.341951 1.06066 1.06066 
C 1.341951 0.77937 1.5 0.397805 1.5 0 
C 1.5 -0.397805 1.341951 -0.77937 1.06066 -1.06066 
C 0.77937 -1.341951 0.397805 -1.5 0 -1.5 
C -0.397805 -1.5 -0.77937 -1.341951 -1.06066 -1.06066 
C -1.341951 -0.77937 -1.5 -0.397805 -1.5 0 
C -1.5 0.397805 -1.341951 0.77937 -1.06066 1.06066 
C -0.77937 1.341951 -0.397805 1.5 0 1.5 
z
" id="m1d73e216ba" style="stroke:#3f3f3f;"/>
    </defs>
    <g clip-path="url(#p95927bcb59)">
     <use style="fill:#ffffff;stroke:#3f3f3f;" x="104.330625" xlink:href="#m1d73e216ba" y="56.445508"/>
    </g>
   </g>
   <g id="PathCollection_2">
    <g clip-path="url(#p95927bcb59)">
     <use style="fill:#ffffff;stroke:#3f3f3f;" x="193.610625" xlink:href="#m1d73e216ba" y="100.15035"/>
    </g>
   </g>
   <g id="PathCollection_3">
    <g clip-path="url(#p95927bcb59)">
     <use style="fill:#ffffff;stroke:#3f3f3f;" x="282.890625" xlink:href="#m1d73e216ba" y="201.767667"/>
    </g>
   </g>
   <g id="PathCollection_4">
    <g clip-path="url(#p95927bcb59)">
     <use style="fill:#ffffff;stroke:#3f3f3f;" x="372.170625" xlink:href="#m1d73e216ba" y="238.881193"/>
    </g>
   </g>
   <g id="text_14">
    <!-- sqlite3_ossfuzz (24h, 5 trials/fuzzer) -->
    <g transform="translate(130.073438 16.318125)scale(0.12 -0.12)">
     <defs>
      <path d="M 37.796875 64.3125 
L 12.890625 25.390625 
L 37.796875 25.390625 
z
M 35.203125 72.90625 
L 47.609375 72.90625 
L 47.609375 25.390625 
L 58.015625 25.390625 
L 58.015625 17.1875 
L 47.609375 17.1875 
L 47.609375 0 
L 37.796875 0 
L 37.796875 17.1875 
L 4.890625 17.1875 
L 4.890625 26.703125 
z
" id="DejaVuSans-52"/>
      <path d="M 11.71875 12.40625 
L 22.015625 12.40625 
L 22.015625 4 
L 14.015625 -11.625 
L 7.71875 -11.625 
L 11.71875 4 
z
" id="DejaVuSans-44"/>
      <path d="M 25.390625 72.90625 
L 33.6875 72.90625 
L 8.296875 -9.28125 
L 0 -9.28125 
z
" id="DejaVuSans-47"/>
     </defs>
     <use xlink:href="#DejaVuSans-115"/>
     <use x="52.099609" xlink:href="#DejaVuSans-113"/>
     <use x="115.576172" xlink:href="#DejaVuSans-108"/>
     <use x="143.359375" xlink:href="#DejaVuSans-105"/>
     <use x="171.142578" xlink:href="#DejaVuSans-116"/>
     <use x="210.351562" xlink:href="#DejaVuSans-101"/>
     <use x="271.875" xlink:href="#DejaVuSans-51"/>
     <use x="335.498047" xlink:href="#DejaVuSans-95"/>
     <use x="385.498047" xlink:href="#DejaVuSans-111"/>
     <use x="446.679688" xlink:href="#DejaVuSans-115"/>
     <use x="498.779297" xlink:href="#DejaVuSans-115"/>
     <use x="550.878906" xlink:href="#DejaVuSans-102"/>
     <use x="586.083984" xlink:href="#DejaVuSans-117"/>
     <use x="649.462891" xlink:href="#DejaVuSans-122"/>
     <use x="701.953125" xlink:href="#DejaVuSans-122"/>
     <use x="754.443359" xlink:href="#DejaVuSans-32"/>
     <use x="786.230469" xlink:href="#DejaVuSans-40"/>
     <use x="825.244141" xlink:href="#DejaVuSans-50"/>
     <use x="888.867188" xlink:href="#DejaVuSans-52"/>
     <use x="952.490234" xlink:href="#DejaVuSans-104"/>
     <use x="1015.869141" xlink:href="#DejaVuSans-44"/>
     <use x="1047.65625" xlink:href="#DejaVuSans-32"/>
     <use x="1079.443359" xlink:href="#DejaVuSans-53"/>
     <use x="1143.066406" xlink:href="#DejaVuSans-32"/>
     <use x="1174.853516" xlink:href="#DejaVuSans-116"/>
     <use x="1214.0625" xlink:href="#DejaVuSans-114"/>
     <use x="1255.175781" xlink:href="#DejaVuSans-105"/>
     <use x="1282.958984" xlink:href="#DejaVuSans-97"/>
     <use x="1344.238281" xlink:href="#DejaVuSans-108"/>
     <use x="1372.021484" xlink:href="#DejaVuSans-115"/>
     <use x="1424.121094" xlink:href="#DejaVuSans-47"/>
     <use x="1457.8125" xlink:href="#DejaVuSans-102"/>
     <use x="1493.017578" xlink:href="#DejaVuSans-117"/>
     <use x="1556.396484" xlink:href="#DejaVuSans-122"/>
     <use x="1608.886719" xlink:href="#DejaVuSans-122"/>
     <use x="1661.376953" xlink:href="#DejaVuSans-101"/>
     <use x="1722.900391" xlink:href="#DejaVuSans-114"/>
     <use x="1764.013672" xlink:href="#DejaVuSans-41"/>
    </g>
   </g>
  </g>
 </g>
 <defs>
  <clipPath id="p95927bcb59">
   <rect height="266.112" width="357.12" x="59.690625" y="22.318125"/>
  </clipPath>
 </defs>
</svg>
