<?xml version="1.0" encoding="utf-8" standalone="no"?>
<!DOCTYPE svg PUBLIC "-//W3C//DTD SVG 1.1//EN"
  "http://www.w3.org/Graphics/SVG/1.1/DTD/svg11.dtd">
<!-- Created with matplotlib (https://matplotlib.org/) -->
<svg height="355.523584pt" version="1.1" viewBox="0 0 424.010625 355.523584" width="424.010625pt" xmlns="http://www.w3.org/2000/svg" xmlns:xlink="http://www.w3.org/1999/xlink">
 <metadata>
  <rdf:RDF xmlns:cc="http://creativecommons.org/ns#" xmlns:dc="http://purl.org/dc/elements/1.1/" xmlns:rdf="http://www.w3.org/1999/02/22-rdf-syntax-ns#">
   <cc:Work>
    <dc:type rdf:resource="http://purl.org/dc/dcmitype/StillImage"/>
    <dc:date>2020-10-24T17:27:58.876101</dc:date>
    <dc:format>image/svg+xml</dc:format>
    <dc:creator>
     <cc:Agent>
      <dc:title>Matplotlib v3.3.2, https://matplotlib.org/</dc:title>
     </cc:Agent>
    </dc:creator>
   </cc:Work>
  </rdf:RDF>
 </metadata>
 <defs>
  <style type="text/css">*{stroke-linecap:butt;stroke-linejoin:round;}</style>
 </defs>
 <g id="figure_1">
  <g id="patch_1">
   <path d="M 0 355.523584 
L 424.010625 355.523584 
L 424.010625 0 
L 0 0 
z
" style="fill:#ffffff;"/>
  </g>
  <g id="axes_1">
   <g id="patch_2">
    <path d="M 59.690625 288.430125 
L 416.810625 288.430125 
L 416.810625 22.318125 
L 59.690625 22.318125 
z
" style="fill:#ffffff;"/>
   </g>
   <g id="PolyCollection_1">
    <defs>
     <path d="M 106.071929 -236.954471 
L 102.589321 -236.954471 
L 102.314432 -237.804521 
L 102.007001 -238.654571 
L 101.665115 -239.504622 
L 101.287074 -240.354672 
L 100.871454 -241.204723 
L 100.417171 -242.054773 
L 99.923543 -242.904823 
L 99.390354 -243.754874 
L 98.817907 -244.604924 
L 98.207078 -245.454975 
L 97.559359 -246.305025 
L 96.87689 -247.155075 
L 96.162479 -248.005126 
L 95.419608 -248.855176 
L 94.652424 -249.705226 
L 93.865715 -250.555277 
L 93.064862 -251.405327 
L 92.255782 -252.255378 
L 91.444846 -253.105428 
L 90.638788 -253.955478 
L 89.844596 -254.805529 
L 89.069387 -255.655579 
L 88.320278 -256.50563 
L 87.604248 -257.35568 
L 86.927996 -258.20573 
L 86.297798 -259.055781 
L 85.719372 -259.905831 
L 85.197745 -260.755882 
L 84.73714 -261.605932 
L 84.340869 -262.455982 
L 84.011254 -263.306033 
L 83.749559 -264.156083 
L 83.555957 -265.006133 
L 83.429514 -265.856184 
L 83.368201 -266.706234 
L 83.368934 -267.556285 
L 83.427642 -268.406335 
L 83.539353 -269.256385 
L 83.698313 -270.106436 
L 83.898112 -270.956486 
L 84.131842 -271.806537 
L 84.392259 -272.656587 
L 84.671955 -273.506637 
L 84.963538 -274.356688 
L 85.259813 -275.206738 
L 85.553951 -276.056789 
L 85.839661 -276.906839 
L 86.111338 -277.756889 
L 86.364197 -278.60694 
L 86.594383 -279.45699 
L 86.799066 -280.30704 
L 86.97649 -281.157091 
L 87.126012 -282.007141 
L 87.2481 -282.857192 
L 87.344301 -283.707242 
L 87.417182 -284.557292 
L 87.470244 -285.407343 
L 87.507809 -286.257393 
L 87.534882 -287.107444 
L 87.557001 -287.957494 
L 87.580069 -288.807544 
L 87.610179 -289.657595 
L 87.653435 -290.507645 
L 87.715775 -291.357696 
L 87.802807 -292.207746 
L 87.919645 -293.057796 
L 88.070776 -293.907847 
L 88.259937 -294.757897 
L 88.490023 -295.607947 
L 88.763018 -296.457998 
L 89.079951 -297.308048 
L 89.440889 -298.158099 
L 89.844948 -299.008149 
L 90.290336 -299.858199 
L 90.774414 -300.70825 
L 91.293788 -301.5583 
L 91.844408 -302.408351 
L 92.421684 -303.258401 
L 93.020615 -304.108451 
L 93.635918 -304.958502 
L 94.262156 -305.808552 
L 94.893872 -306.658603 
L 95.525704 -307.508653 
L 96.152496 -308.358703 
L 96.769401 -309.208754 
L 97.371954 -310.058804 
L 97.956151 -310.908855 
L 98.518486 -311.758905 
L 99.055994 -312.608955 
L 99.566263 -313.459006 
L 100.047438 -314.309056 
L 100.498207 -315.159106 
L 100.917775 -316.009157 
L 101.305834 -316.859207 
L 101.662517 -317.709258 
L 101.988351 -318.559308 
L 102.284202 -319.409358 
L 102.551225 -320.259409 
L 102.790805 -321.109459 
L 105.870445 -321.109459 
L 105.870445 -321.109459 
L 106.110025 -320.259409 
L 106.377048 -319.409358 
L 106.672899 -318.559308 
L 106.998733 -317.709258 
L 107.355416 -316.859207 
L 107.743475 -316.009157 
L 108.163043 -315.159106 
L 108.613812 -314.309056 
L 109.094987 -313.459006 
L 109.605256 -312.608955 
L 110.142764 -311.758905 
L 110.705099 -310.908855 
L 111.289296 -310.058804 
L 111.891849 -309.208754 
L 112.508754 -308.358703 
L 113.135546 -307.508653 
L 113.767378 -306.658603 
L 114.399094 -305.808552 
L 115.025332 -304.958502 
L 115.640635 -304.108451 
L 116.239566 -303.258401 
L 116.816842 -302.408351 
L 117.367462 -301.5583 
L 117.886836 -300.70825 
L 118.370914 -299.858199 
L 118.816302 -299.008149 
L 119.220361 -298.158099 
L 119.581299 -297.308048 
L 119.898232 -296.457998 
L 120.171227 -295.607947 
L 120.401313 -294.757897 
L 120.590474 -293.907847 
L 120.741605 -293.057796 
L 120.858443 -292.207746 
L 120.945475 -291.357696 
L 121.007815 -290.507645 
L 121.051071 -289.657595 
L 121.081181 -288.807544 
L 121.104249 -287.957494 
L 121.126368 -287.107444 
L 121.153441 -286.257393 
L 121.191006 -285.407343 
L 121.244068 -284.557292 
L 121.316949 -283.707242 
L 121.41315 -282.857192 
L 121.535238 -282.007141 
L 121.68476 -281.157091 
L 121.862184 -280.30704 
L 122.066867 -279.45699 
L 122.297053 -278.60694 
L 122.549912 -277.756889 
L 122.821589 -276.906839 
L 123.107299 -276.056789 
L 123.401437 -275.206738 
L 123.697712 -274.356688 
L 123.989295 -273.506637 
L 124.268991 -272.656587 
L 124.529408 -271.806537 
L 124.763138 -270.956486 
L 124.962937 -270.106436 
L 125.121897 -269.256385 
L 125.233608 -268.406335 
L 125.292316 -267.556285 
L 125.293049 -266.706234 
L 125.231736 -265.856184 
L 125.105293 -265.006133 
L 124.911691 -264.156083 
L 124.649996 -263.306033 
L 124.320381 -262.455982 
L 123.92411 -261.605932 
L 123.463505 -260.755882 
L 122.941878 -259.905831 
L 122.363452 -259.055781 
L 121.733254 -258.20573 
L 121.057002 -257.35568 
L 120.340972 -256.50563 
L 119.591863 -255.655579 
L 118.816654 -254.805529 
L 118.022462 -253.955478 
L 117.216404 -253.105428 
L 116.405468 -252.255378 
L 115.596388 -251.405327 
L 114.795535 -250.555277 
L 114.008826 -249.705226 
L 113.241642 -248.855176 
L 112.498771 -248.005126 
L 111.78436 -247.155075 
L 111.101891 -246.305025 
L 110.454172 -245.454975 
L 109.843343 -244.604924 
L 109.270896 -243.754874 
L 108.737707 -242.904823 
L 108.244079 -242.054773 
L 107.789796 -241.204723 
L 107.374176 -240.354672 
L 106.996135 -239.504622 
L 106.654249 -238.654571 
L 106.346818 -237.804521 
L 106.071929 -236.954471 
z
" id="m24a9f5fecc" style="stroke:#3f3f3f;stroke-width:1.5;"/>
    </defs>
    <g clip-path="url(#p45d079d70a)">
     <use style="fill:#c03d3e;stroke:#3f3f3f;stroke-width:1.5;" x="0" xlink:href="#m24a9f5fecc" y="355.523584"/>
    </g>
   </g>
   <g id="PolyCollection_2">
    <defs>
     <path d="M 194.266069 -79.189459 
L 192.955181 -79.189459 
L 192.845266 -81.150643 
L 192.72145 -83.111827 
L 192.582825 -85.073011 
L 192.428569 -87.034196 
L 192.257981 -88.99538 
L 192.070504 -90.956564 
L 191.865759 -92.917748 
L 191.643571 -94.878932 
L 191.403998 -96.840116 
L 191.14735 -98.8013 
L 190.87421 -100.762484 
L 190.585448 -102.723668 
L 190.282224 -104.684852 
L 189.965994 -106.646036 
L 189.638495 -108.60722 
L 189.301735 -110.568405 
L 188.957964 -112.529589 
L 188.609647 -114.490773 
L 188.259419 -116.451957 
L 187.910044 -118.413141 
L 187.564361 -120.374325 
L 187.225229 -122.335509 
L 186.895468 -124.296693 
L 186.577804 -126.257877 
L 186.274809 -128.219061 
L 185.988845 -130.180245 
L 185.722018 -132.141429 
L 185.476132 -134.102614 
L 185.252652 -136.063798 
L 185.052681 -138.024982 
L 184.876937 -139.986166 
L 184.725751 -141.94735 
L 184.599067 -143.908534 
L 184.496455 -145.869718 
L 184.417137 -147.830902 
L 184.360012 -149.792086 
L 184.323701 -151.75327 
L 184.306589 -153.714454 
L 184.306876 -155.675638 
L 184.32263 -157.636823 
L 184.351841 -159.598007 
L 184.392476 -161.559191 
L 184.442533 -163.520375 
L 184.500092 -165.481559 
L 184.563361 -167.442743 
L 184.630715 -169.403927 
L 184.700734 -171.365111 
L 184.772232 -173.326295 
L 184.844274 -175.287479 
L 184.916196 -177.248663 
L 184.987603 -179.209848 
L 185.058376 -181.171032 
L 185.128657 -183.132216 
L 185.198837 -185.0934 
L 185.269534 -187.054584 
L 185.341563 -189.015768 
L 185.415905 -190.976952 
L 185.493673 -192.938136 
L 185.576071 -194.89932 
L 185.66435 -196.860504 
L 185.759774 -198.821688 
L 185.863568 -200.782872 
L 185.976887 -202.744057 
L 186.10077 -204.705241 
L 186.236111 -206.666425 
L 186.383625 -208.627609 
L 186.543823 -210.588793 
L 186.716991 -212.549977 
L 186.903179 -214.511161 
L 187.10219 -216.472345 
L 187.31358 -218.433529 
L 187.536666 -220.394713 
L 187.770536 -222.355897 
L 188.014067 -224.317081 
L 188.265949 -226.278266 
L 188.524711 -228.23945 
L 188.788756 -230.200634 
L 189.056392 -232.161818 
L 189.325869 -234.123002 
L 189.595415 -236.084186 
L 189.863272 -238.04537 
L 190.127731 -240.006554 
L 190.387161 -241.967738 
L 190.640042 -243.928922 
L 190.884986 -245.890106 
L 191.120759 -247.85129 
L 191.346297 -249.812475 
L 191.560715 -251.773659 
L 191.763313 -253.734843 
L 191.953579 -255.696027 
L 192.131181 -257.657211 
L 192.295965 -259.618395 
L 192.447941 -261.579579 
L 192.587268 -263.540763 
L 192.714241 -265.501947 
L 192.829271 -267.463131 
L 192.932867 -269.424315 
L 193.025617 -271.3855 
L 193.10817 -273.346684 
L 194.11308 -273.346684 
L 194.11308 -273.346684 
L 194.195633 -271.3855 
L 194.288383 -269.424315 
L 194.391979 -267.463131 
L 194.507009 -265.501947 
L 194.633982 -263.540763 
L 194.773309 -261.579579 
L 194.925285 -259.618395 
L 195.090069 -257.657211 
L 195.267671 -255.696027 
L 195.457937 -253.734843 
L 195.660535 -251.773659 
L 195.874953 -249.812475 
L 196.100491 -247.85129 
L 196.336264 -245.890106 
L 196.581208 -243.928922 
L 196.834089 -241.967738 
L 197.093519 -240.006554 
L 197.357978 -238.04537 
L 197.625835 -236.084186 
L 197.895381 -234.123002 
L 198.164858 -232.161818 
L 198.432494 -230.200634 
L 198.696539 -228.23945 
L 198.955301 -226.278266 
L 199.207183 -224.317081 
L 199.450714 -222.355897 
L 199.684584 -220.394713 
L 199.90767 -218.433529 
L 200.11906 -216.472345 
L 200.318071 -214.511161 
L 200.504259 -212.549977 
L 200.677427 -210.588793 
L 200.837625 -208.627609 
L 200.985139 -206.666425 
L 201.12048 -204.705241 
L 201.244363 -202.744057 
L 201.357682 -200.782872 
L 201.461476 -198.821688 
L 201.5569 -196.860504 
L 201.645179 -194.89932 
L 201.727577 -192.938136 
L 201.805345 -190.976952 
L 201.879687 -189.015768 
L 201.951716 -187.054584 
L 202.022413 -185.0934 
L 202.092593 -183.132216 
L 202.162874 -181.171032 
L 202.233647 -179.209848 
L 202.305054 -177.248663 
L 202.376976 -175.287479 
L 202.449018 -173.326295 
L 202.520516 -171.365111 
L 202.590535 -169.403927 
L 202.657889 -167.442743 
L 202.721158 -165.481559 
L 202.778717 -163.520375 
L 202.828774 -161.559191 
L 202.869409 -159.598007 
L 202.89862 -157.636823 
L 202.914374 -155.675638 
L 202.914661 -153.714454 
L 202.897549 -151.75327 
L 202.861238 -149.792086 
L 202.804113 -147.830902 
L 202.724795 -145.869718 
L 202.622183 -143.908534 
L 202.495499 -141.94735 
L 202.344313 -139.986166 
L 202.168569 -138.024982 
L 201.968598 -136.063798 
L 201.745118 -134.102614 
L 201.499232 -132.141429 
L 201.232405 -130.180245 
L 200.946441 -128.219061 
L 200.643446 -126.257877 
L 200.325782 -124.296693 
L 199.996021 -122.335509 
L 199.656889 -120.374325 
L 199.311206 -118.413141 
L 198.961831 -116.451957 
L 198.611603 -114.490773 
L 198.263286 -112.529589 
L 197.919515 -110.568405 
L 197.582755 -108.60722 
L 197.255256 -106.646036 
L 196.939026 -104.684852 
L 196.635802 -102.723668 
L 196.34704 -100.762484 
L 196.0739 -98.8013 
L 195.817252 -96.840116 
L 195.577679 -94.878932 
L 195.355491 -92.917748 
L 195.150746 -90.956564 
L 194.963269 -88.99538 
L 194.792681 -87.034196 
L 194.638425 -85.073011 
L 194.4998 -83.111827 
L 194.375984 -81.150643 
L 194.266069 -79.189459 
z
" id="m949c11fb67" style="stroke:#3f3f3f;stroke-width:1.5;"/>
    </defs>
    <g clip-path="url(#p45d079d70a)">
     <use style="fill:#3274a1;stroke:#3f3f3f;stroke-width:1.5;" x="0" xlink:href="#m949c11fb67" y="355.523584"/>
    </g>
   </g>
   <g id="PolyCollection_3">
    <defs>
     <path d="M 284.144845 -120.019352 
L 281.636405 -120.019352 
L 281.433814 -120.742013 
L 281.208144 -121.464674 
L 280.958566 -122.187334 
L 280.684546 -122.909995 
L 280.385899 -123.632656 
L 280.062831 -124.355317 
L 279.71598 -125.077978 
L 279.346445 -125.800639 
L 278.955797 -126.5233 
L 278.546086 -127.245961 
L 278.119819 -127.968621 
L 277.67993 -128.691282 
L 277.229719 -129.413943 
L 276.772783 -130.136604 
L 276.312924 -130.859265 
L 275.854033 -131.581926 
L 275.399975 -132.304587 
L 274.954446 -133.027248 
L 274.520841 -133.749908 
L 274.102106 -134.472569 
L 273.700606 -135.19523 
L 273.317999 -135.917891 
L 272.955126 -136.640552 
L 272.611929 -137.363213 
L 272.287388 -138.085874 
L 271.979501 -138.808534 
L 271.685289 -139.531195 
L 271.400846 -140.253856 
L 271.121423 -140.976517 
L 270.841547 -141.699178 
L 270.555179 -142.421839 
L 270.255895 -143.1445 
L 269.937094 -143.867161 
L 269.592224 -144.589821 
L 269.215012 -145.312482 
L 268.799697 -146.035143 
L 268.341258 -146.757804 
L 267.835614 -147.480465 
L 267.279818 -148.203126 
L 266.672196 -148.925787 
L 266.012472 -149.648448 
L 265.30183 -150.371108 
L 264.542951 -151.093769 
L 263.739991 -151.81643 
L 262.898521 -152.539091 
L 262.02543 -153.261752 
L 261.128783 -153.984413 
L 260.217653 -154.707074 
L 259.301929 -155.429735 
L 258.392105 -156.152395 
L 257.49906 -156.875056 
L 256.633831 -157.597717 
L 255.807401 -158.320378 
L 255.030483 -159.043039 
L 254.31333 -159.7657 
L 253.66556 -160.488361 
L 253.096003 -161.211022 
L 252.612572 -161.933682 
L 252.222158 -162.656343 
L 251.930549 -163.379004 
L 251.742369 -164.101665 
L 251.661042 -164.824326 
L 251.688769 -165.546987 
L 251.826524 -166.269648 
L 252.074069 -166.992309 
L 252.429973 -167.714969 
L 252.891648 -168.43763 
L 253.455398 -169.160291 
L 254.116471 -169.882952 
L 254.869131 -170.605613 
L 255.706733 -171.328274 
L 256.621812 -172.050935 
L 257.606182 -172.773596 
L 258.651048 -173.496256 
L 259.747124 -174.218917 
L 260.884766 -174.941578 
L 262.054108 -175.664239 
L 263.2452 -176.3869 
L 264.448163 -177.109561 
L 265.653325 -177.832222 
L 266.851364 -178.554882 
L 268.033446 -179.277543 
L 269.191338 -180.000204 
L 270.317524 -180.722865 
L 271.40529 -181.445526 
L 272.448797 -182.168187 
L 273.44313 -182.890848 
L 274.384326 -183.613509 
L 275.269376 -184.336169 
L 276.096216 -185.05883 
L 276.863684 -185.781491 
L 277.57147 -186.504152 
L 278.220049 -187.226813 
L 278.810598 -187.949474 
L 279.344907 -188.672135 
L 279.825286 -189.394796 
L 280.254466 -190.117456 
L 280.635502 -190.840117 
L 280.971685 -191.562778 
L 284.809565 -191.562778 
L 284.809565 -191.562778 
L 285.145748 -190.840117 
L 285.526784 -190.117456 
L 285.955964 -189.394796 
L 286.436343 -188.672135 
L 286.970652 -187.949474 
L 287.561201 -187.226813 
L 288.20978 -186.504152 
L 288.917566 -185.781491 
L 289.685034 -185.05883 
L 290.511874 -184.336169 
L 291.396924 -183.613509 
L 292.33812 -182.890848 
L 293.332453 -182.168187 
L 294.37596 -181.445526 
L 295.463726 -180.722865 
L 296.589912 -180.000204 
L 297.747804 -179.277543 
L 298.929886 -178.554882 
L 300.127925 -177.832222 
L 301.333087 -177.109561 
L 302.53605 -176.3869 
L 303.727142 -175.664239 
L 304.896484 -174.941578 
L 306.034126 -174.218917 
L 307.130202 -173.496256 
L 308.175068 -172.773596 
L 309.159438 -172.050935 
L 310.074517 -171.328274 
L 310.912119 -170.605613 
L 311.664779 -169.882952 
L 312.325852 -169.160291 
L 312.889602 -168.43763 
L 313.351277 -167.714969 
L 313.707181 -166.992309 
L 313.954726 -166.269648 
L 314.092481 -165.546987 
L 314.120208 -164.824326 
L 314.038881 -164.101665 
L 313.850701 -163.379004 
L 313.559092 -162.656343 
L 313.168678 -161.933682 
L 312.685247 -161.211022 
L 312.11569 -160.488361 
L 311.46792 -159.7657 
L 310.750767 -159.043039 
L 309.973849 -158.320378 
L 309.147419 -157.597717 
L 308.28219 -156.875056 
L 307.389145 -156.152395 
L 306.479321 -155.429735 
L 305.563597 -154.707074 
L 304.652467 -153.984413 
L 303.75582 -153.261752 
L 302.882729 -152.539091 
L 302.041259 -151.81643 
L 301.238299 -151.093769 
L 300.47942 -150.371108 
L 299.768778 -149.648448 
L 299.109054 -148.925787 
L 298.501432 -148.203126 
L 297.945636 -147.480465 
L 297.439992 -146.757804 
L 296.981553 -146.035143 
L 296.566238 -145.312482 
L 296.189026 -144.589821 
L 295.844156 -143.867161 
L 295.525355 -143.1445 
L 295.226071 -142.421839 
L 294.939703 -141.699178 
L 294.659827 -140.976517 
L 294.380404 -140.253856 
L 294.095961 -139.531195 
L 293.801749 -138.808534 
L 293.493862 -138.085874 
L 293.169321 -137.363213 
L 292.826124 -136.640552 
L 292.463251 -135.917891 
L 292.080644 -135.19523 
L 291.679144 -134.472569 
L 291.260409 -133.749908 
L 290.826804 -133.027248 
L 290.381275 -132.304587 
L 289.927217 -131.581926 
L 289.468326 -130.859265 
L 289.008467 -130.136604 
L 288.551531 -129.413943 
L 288.10132 -128.691282 
L 287.661431 -127.968621 
L 287.235164 -127.245961 
L 286.825453 -126.5233 
L 286.434805 -125.800639 
L 286.06527 -125.077978 
L 285.718419 -124.355317 
L 285.395351 -123.632656 
L 285.096704 -122.909995 
L 284.822684 -122.187334 
L 284.573106 -121.464674 
L 284.347436 -120.742013 
L 284.144845 -120.019352 
z
" id="m1d6357b8d1" style="stroke:#3f3f3f;stroke-width:1.5;"/>
    </defs>
    <g clip-path="url(#p45d079d70a)">
     <use style="fill:#c7c7c7;stroke:#3f3f3f;stroke-width:1.5;" x="0" xlink:href="#m1d6357b8d1" y="355.523584"/>
    </g>
   </g>
   <g id="PolyCollection_4">
    <defs>
     <path d="M 374.277832 -81.183653 
L 370.063418 -81.183653 
L 369.687614 -81.838878 
L 369.260027 -82.494103 
L 368.776501 -83.149328 
L 368.233076 -83.804554 
L 367.626107 -84.459779 
L 366.952378 -85.115004 
L 366.209228 -85.770229 
L 365.394673 -86.425455 
L 364.507536 -87.08068 
L 363.547562 -87.735905 
L 362.515527 -88.39113 
L 361.413337 -89.046356 
L 360.244103 -89.701581 
L 359.012198 -90.356806 
L 357.723288 -91.012031 
L 356.384335 -91.667257 
L 355.003571 -92.322482 
L 353.590438 -92.977707 
L 352.155495 -93.632932 
L 350.710305 -94.288158 
L 349.267273 -94.943383 
L 347.839478 -95.598608 
L 346.440467 -96.253834 
L 345.084035 -96.909059 
L 343.783994 -97.564284 
L 342.553927 -98.219509 
L 341.406943 -98.874735 
L 340.355435 -99.52996 
L 339.410846 -100.185185 
L 338.583448 -100.84041 
L 337.882138 -101.495636 
L 337.314268 -102.150861 
L 336.885486 -102.806086 
L 336.599628 -103.461311 
L 336.458625 -104.116537 
L 336.462461 -104.771762 
L 336.609159 -105.426987 
L 336.894807 -106.082212 
L 337.31362 -106.737438 
L 337.858043 -107.392663 
L 338.518884 -108.047888 
L 339.285477 -108.703113 
L 340.145883 -109.358339 
L 341.087105 -110.013564 
L 342.095339 -110.668789 
L 343.156227 -111.324014 
L 344.255131 -111.97924 
L 345.377415 -112.634465 
L 346.508719 -113.28969 
L 347.635232 -113.944915 
L 348.743954 -114.600141 
L 349.822937 -115.255366 
L 350.861504 -115.910591 
L 351.850431 -116.565816 
L 352.782105 -117.221042 
L 353.650631 -117.876267 
L 354.451903 -118.531492 
L 355.183631 -119.186717 
L 355.845312 -119.841943 
L 356.43817 -120.497168 
L 356.965041 -121.152393 
L 357.430223 -121.807618 
L 357.839291 -122.462844 
L 358.198876 -123.118069 
L 358.516434 -123.773294 
L 358.799981 -124.428519 
L 359.057843 -125.083745 
L 359.298387 -125.73897 
L 359.529773 -126.394195 
L 359.759724 -127.04942 
L 359.995312 -127.704646 
L 360.242783 -128.359871 
L 360.507411 -129.015096 
L 360.793393 -129.670321 
L 361.103785 -130.325547 
L 361.440478 -130.980772 
L 361.804209 -131.635997 
L 362.194615 -132.291222 
L 362.610317 -132.946448 
L 363.049028 -133.601673 
L 363.507691 -134.256898 
L 363.982622 -134.912124 
L 364.469672 -135.567349 
L 364.964388 -136.222574 
L 365.462167 -136.877799 
L 365.95841 -137.533025 
L 366.448657 -138.18825 
L 366.928703 -138.843475 
L 367.394704 -139.4987 
L 367.843253 -140.153926 
L 368.271437 -140.809151 
L 368.676873 -141.464376 
L 369.057725 -142.119601 
L 369.412697 -142.774827 
L 369.741017 -143.430052 
L 370.042401 -144.085277 
L 370.317008 -144.740502 
L 370.56539 -145.395728 
L 370.788432 -146.050953 
L 373.552818 -146.050953 
L 373.552818 -146.050953 
L 373.77586 -145.395728 
L 374.024242 -144.740502 
L 374.298849 -144.085277 
L 374.600233 -143.430052 
L 374.928553 -142.774827 
L 375.283525 -142.119601 
L 375.664377 -141.464376 
L 376.069813 -140.809151 
L 376.497997 -140.153926 
L 376.946546 -139.4987 
L 377.412547 -138.843475 
L 377.892593 -138.18825 
L 378.38284 -137.533025 
L 378.879083 -136.877799 
L 379.376862 -136.222574 
L 379.871578 -135.567349 
L 380.358628 -134.912124 
L 380.833559 -134.256898 
L 381.292222 -133.601673 
L 381.730933 -132.946448 
L 382.146635 -132.291222 
L 382.537041 -131.635997 
L 382.900772 -130.980772 
L 383.237465 -130.325547 
L 383.547857 -129.670321 
L 383.833839 -129.015096 
L 384.098467 -128.359871 
L 384.345938 -127.704646 
L 384.581526 -127.04942 
L 384.811477 -126.394195 
L 385.042863 -125.73897 
L 385.283407 -125.083745 
L 385.541269 -124.428519 
L 385.824816 -123.773294 
L 386.142374 -123.118069 
L 386.501959 -122.462844 
L 386.911027 -121.807618 
L 387.376209 -121.152393 
L 387.90308 -120.497168 
L 388.495938 -119.841943 
L 389.157619 -119.186717 
L 389.889347 -118.531492 
L 390.690619 -117.876267 
L 391.559145 -117.221042 
L 392.490819 -116.565816 
L 393.479746 -115.910591 
L 394.518313 -115.255366 
L 395.597296 -114.600141 
L 396.706018 -113.944915 
L 397.832531 -113.28969 
L 398.963835 -112.634465 
L 400.086119 -111.97924 
L 401.185023 -111.324014 
L 402.245911 -110.668789 
L 403.254145 -110.013564 
L 404.195367 -109.358339 
L 405.055773 -108.703113 
L 405.822366 -108.047888 
L 406.483207 -107.392663 
L 407.02763 -106.737438 
L 407.446443 -106.082212 
L 407.732091 -105.426987 
L 407.878789 -104.771762 
L 407.882625 -104.116537 
L 407.741622 -103.461311 
L 407.455764 -102.806086 
L 407.026982 -102.150861 
L 406.459112 -101.495636 
L 405.757802 -100.84041 
L 404.930404 -100.185185 
L 403.985815 -99.52996 
L 402.934307 -98.874735 
L 401.787323 -98.219509 
L 400.557256 -97.564284 
L 399.257215 -96.909059 
L 397.900783 -96.253834 
L 396.501772 -95.598608 
L 395.073977 -94.943383 
L 393.630945 -94.288158 
L 392.185755 -93.632932 
L 390.750812 -92.977707 
L 389.337679 -92.322482 
L 387.956915 -91.667257 
L 386.617962 -91.012031 
L 385.329052 -90.356806 
L 384.097147 -89.701581 
L 382.927913 -89.046356 
L 381.825723 -88.39113 
L 380.793688 -87.735905 
L 379.833714 -87.08068 
L 378.946577 -86.425455 
L 378.132022 -85.770229 
L 377.388872 -85.115004 
L 376.715143 -84.459779 
L 376.108174 -83.804554 
L 375.564749 -83.149328 
L 375.081223 -82.494103 
L 374.653636 -81.838878 
L 374.277832 -81.183653 
z
" id="m614f65eff0" style="stroke:#3f3f3f;stroke-width:1.5;"/>
    </defs>
    <g clip-path="url(#p45d079d70a)">
     <use style="fill:#9fd495;stroke:#3f3f3f;stroke-width:1.5;" x="0" xlink:href="#m614f65eff0" y="355.523584"/>
    </g>
   </g>
   <g id="matplotlib.axis_1">
    <g id="xtick_1">
     <g id="line2d_1">
      <defs>
       <path d="M 0 0 
L 0 3.5 
" id="meaa0ef6aa7" style="stroke:#000000;stroke-width:0.8;"/>
      </defs>
      <g>
       <use style="stroke:#000000;stroke-width:0.8;" x="104.330625" xlink:href="#meaa0ef6aa7" y="288.430125"/>
      </g>
     </g>
     <g id="text_1">
      <!-- kirenenko -->
      <g transform="translate(60.870421 326.501971)rotate(-30)scale(0.1 -0.1)">
       <defs>
        <path d="M 9.078125 75.984375 
L 18.109375 75.984375 
L 18.109375 31.109375 
L 44.921875 54.6875 
L 56.390625 54.6875 
L 27.390625 29.109375 
L 57.625 0 
L 45.90625 0 
L 18.109375 26.703125 
L 18.109375 0 
L 9.078125 0 
z
" id="DejaVuSans-107"/>
        <path d="M 9.421875 54.6875 
L 18.40625 54.6875 
L 18.40625 0 
L 9.421875 0 
z
M 9.421875 75.984375 
L 18.40625 75.984375 
L 18.40625 64.59375 
L 9.421875 64.59375 
z
" id="DejaVuSans-105"/>
        <path d="M 41.109375 46.296875 
Q 39.59375 47.171875 37.8125 47.578125 
Q 36.03125 48 33.890625 48 
Q 26.265625 48 22.1875 43.046875 
Q 18.109375 38.09375 18.109375 28.8125 
L 18.109375 0 
L 9.078125 0 
L 9.078125 54.6875 
L 18.109375 54.6875 
L 18.109375 46.1875 
Q 20.953125 51.171875 25.484375 53.578125 
Q 30.03125 56 36.53125 56 
Q 37.453125 56 38.578125 55.875 
Q 39.703125 55.765625 41.0625 55.515625 
z
" id="DejaVuSans-114"/>
        <path d="M 56.203125 29.59375 
L 56.203125 25.203125 
L 14.890625 25.203125 
Q 15.484375 15.921875 20.484375 11.0625 
Q 25.484375 6.203125 34.421875 6.203125 
Q 39.59375 6.203125 44.453125 7.46875 
Q 49.3125 8.734375 54.109375 11.28125 
L 54.109375 2.78125 
Q 49.265625 0.734375 44.1875 -0.34375 
Q 39.109375 -1.421875 33.890625 -1.421875 
Q 20.796875 -1.421875 13.15625 6.1875 
Q 5.515625 13.8125 5.515625 26.8125 
Q 5.515625 40.234375 12.765625 48.109375 
Q 20.015625 56 32.328125 56 
Q 43.359375 56 49.78125 48.890625 
Q 56.203125 41.796875 56.203125 29.59375 
z
M 47.21875 32.234375 
Q 47.125 39.59375 43.09375 43.984375 
Q 39.0625 48.390625 32.421875 48.390625 
Q 24.90625 48.390625 20.390625 44.140625 
Q 15.875 39.890625 15.1875 32.171875 
z
" id="DejaVuSans-101"/>
        <path d="M 54.890625 33.015625 
L 54.890625 0 
L 45.90625 0 
L 45.90625 32.71875 
Q 45.90625 40.484375 42.875 44.328125 
Q 39.84375 48.1875 33.796875 48.1875 
Q 26.515625 48.1875 22.3125 43.546875 
Q 18.109375 38.921875 18.109375 30.90625 
L 18.109375 0 
L 9.078125 0 
L 9.078125 54.6875 
L 18.109375 54.6875 
L 18.109375 46.1875 
Q 21.34375 51.125 25.703125 53.5625 
Q 30.078125 56 35.796875 56 
Q 45.21875 56 50.046875 50.171875 
Q 54.890625 44.34375 54.890625 33.015625 
z
" id="DejaVuSans-110"/>
        <path d="M 30.609375 48.390625 
Q 23.390625 48.390625 19.1875 42.75 
Q 14.984375 37.109375 14.984375 27.296875 
Q 14.984375 17.484375 19.15625 11.84375 
Q 23.34375 6.203125 30.609375 6.203125 
Q 37.796875 6.203125 41.984375 11.859375 
Q 46.1875 17.53125 46.1875 27.296875 
Q 46.1875 37.015625 41.984375 42.703125 
Q 37.796875 48.390625 30.609375 48.390625 
z
M 30.609375 56 
Q 42.328125 56 49.015625 48.375 
Q 55.71875 40.765625 55.71875 27.296875 
Q 55.71875 13.875 49.015625 6.21875 
Q 42.328125 -1.421875 30.609375 -1.421875 
Q 18.84375 -1.421875 12.171875 6.21875 
Q 5.515625 13.875 5.515625 27.296875 
Q 5.515625 40.765625 12.171875 48.375 
Q 18.84375 56 30.609375 56 
z
" id="DejaVuSans-111"/>
       </defs>
       <use xlink:href="#DejaVuSans-107"/>
       <use x="57.910156" xlink:href="#DejaVuSans-105"/>
       <use x="85.693359" xlink:href="#DejaVuSans-114"/>
       <use x="124.556641" xlink:href="#DejaVuSans-101"/>
       <use x="186.080078" xlink:href="#DejaVuSans-110"/>
       <use x="249.458984" xlink:href="#DejaVuSans-101"/>
       <use x="310.982422" xlink:href="#DejaVuSans-110"/>
       <use x="374.361328" xlink:href="#DejaVuSans-107"/>
       <use x="428.646484" xlink:href="#DejaVuSans-111"/>
      </g>
     </g>
    </g>
    <g id="xtick_2">
     <g id="line2d_2">
      <g>
       <use style="stroke:#000000;stroke-width:0.8;" x="193.610625" xlink:href="#meaa0ef6aa7" y="288.430125"/>
      </g>
     </g>
     <g id="text_2">
      <!-- aflplusplus -->
      <g transform="translate(146.001618 328.897284)rotate(-30)scale(0.1 -0.1)">
       <defs>
        <path d="M 34.28125 27.484375 
Q 23.390625 27.484375 19.1875 25 
Q 14.984375 22.515625 14.984375 16.5 
Q 14.984375 11.71875 18.140625 8.90625 
Q 21.296875 6.109375 26.703125 6.109375 
Q 34.1875 6.109375 38.703125 11.40625 
Q 43.21875 16.703125 43.21875 25.484375 
L 43.21875 27.484375 
z
M 52.203125 31.203125 
L 52.203125 0 
L 43.21875 0 
L 43.21875 8.296875 
Q 40.140625 3.328125 35.546875 0.953125 
Q 30.953125 -1.421875 24.3125 -1.421875 
Q 15.921875 -1.421875 10.953125 3.296875 
Q 6 8.015625 6 15.921875 
Q 6 25.140625 12.171875 29.828125 
Q 18.359375 34.515625 30.609375 34.515625 
L 43.21875 34.515625 
L 43.21875 35.40625 
Q 43.21875 41.609375 39.140625 45 
Q 35.0625 48.390625 27.6875 48.390625 
Q 23 48.390625 18.546875 47.265625 
Q 14.109375 46.140625 10.015625 43.890625 
L 10.015625 52.203125 
Q 14.9375 54.109375 19.578125 55.046875 
Q 24.21875 56 28.609375 56 
Q 40.484375 56 46.34375 49.84375 
Q 52.203125 43.703125 52.203125 31.203125 
z
" id="DejaVuSans-97"/>
        <path d="M 37.109375 75.984375 
L 37.109375 68.5 
L 28.515625 68.5 
Q 23.6875 68.5 21.796875 66.546875 
Q 19.921875 64.59375 19.921875 59.515625 
L 19.921875 54.6875 
L 34.71875 54.6875 
L 34.71875 47.703125 
L 19.921875 47.703125 
L 19.921875 0 
L 10.890625 0 
L 10.890625 47.703125 
L 2.296875 47.703125 
L 2.296875 54.6875 
L 10.890625 54.6875 
L 10.890625 58.5 
Q 10.890625 67.625 15.140625 71.796875 
Q 19.390625 75.984375 28.609375 75.984375 
z
" id="DejaVuSans-102"/>
        <path d="M 9.421875 75.984375 
L 18.40625 75.984375 
L 18.40625 0 
L 9.421875 0 
z
" id="DejaVuSans-108"/>
        <path d="M 18.109375 8.203125 
L 18.109375 -20.796875 
L 9.078125 -20.796875 
L 9.078125 54.6875 
L 18.109375 54.6875 
L 18.109375 46.390625 
Q 20.953125 51.265625 25.265625 53.625 
Q 29.59375 56 35.59375 56 
Q 45.5625 56 51.78125 48.09375 
Q 58.015625 40.1875 58.015625 27.296875 
Q 58.015625 14.40625 51.78125 6.484375 
Q 45.5625 -1.421875 35.59375 -1.421875 
Q 29.59375 -1.421875 25.265625 0.953125 
Q 20.953125 3.328125 18.109375 8.203125 
z
M 48.6875 27.296875 
Q 48.6875 37.203125 44.609375 42.84375 
Q 40.53125 48.484375 33.40625 48.484375 
Q 26.265625 48.484375 22.1875 42.84375 
Q 18.109375 37.203125 18.109375 27.296875 
Q 18.109375 17.390625 22.1875 11.75 
Q 26.265625 6.109375 33.40625 6.109375 
Q 40.53125 6.109375 44.609375 11.75 
Q 48.6875 17.390625 48.6875 27.296875 
z
" id="DejaVuSans-112"/>
        <path d="M 8.5 21.578125 
L 8.5 54.6875 
L 17.484375 54.6875 
L 17.484375 21.921875 
Q 17.484375 14.15625 20.5 10.265625 
Q 23.53125 6.390625 29.59375 6.390625 
Q 36.859375 6.390625 41.078125 11.03125 
Q 45.3125 15.671875 45.3125 23.6875 
L 45.3125 54.6875 
L 54.296875 54.6875 
L 54.296875 0 
L 45.3125 0 
L 45.3125 8.40625 
Q 42.046875 3.421875 37.71875 1 
Q 33.40625 -1.421875 27.6875 -1.421875 
Q 18.265625 -1.421875 13.375 4.4375 
Q 8.5 10.296875 8.5 21.578125 
z
M 31.109375 56 
z
" id="DejaVuSans-117"/>
        <path d="M 44.28125 53.078125 
L 44.28125 44.578125 
Q 40.484375 46.53125 36.375 47.5 
Q 32.28125 48.484375 27.875 48.484375 
Q 21.1875 48.484375 17.84375 46.4375 
Q 14.5 44.390625 14.5 40.28125 
Q 14.5 37.15625 16.890625 35.375 
Q 19.28125 33.59375 26.515625 31.984375 
L 29.59375 31.296875 
Q 39.15625 29.25 43.1875 25.515625 
Q 47.21875 21.78125 47.21875 15.09375 
Q 47.21875 7.46875 41.1875 3.015625 
Q 35.15625 -1.421875 24.609375 -1.421875 
Q 20.21875 -1.421875 15.453125 -0.5625 
Q 10.6875 0.296875 5.421875 2 
L 5.421875 11.28125 
Q 10.40625 8.6875 15.234375 7.390625 
Q 20.0625 6.109375 24.8125 6.109375 
Q 31.15625 6.109375 34.5625 8.28125 
Q 37.984375 10.453125 37.984375 14.40625 
Q 37.984375 18.0625 35.515625 20.015625 
Q 33.0625 21.96875 24.703125 23.78125 
L 21.578125 24.515625 
Q 13.234375 26.265625 9.515625 29.90625 
Q 5.8125 33.546875 5.8125 39.890625 
Q 5.8125 47.609375 11.28125 51.796875 
Q 16.75 56 26.8125 56 
Q 31.78125 56 36.171875 55.265625 
Q 40.578125 54.546875 44.28125 53.078125 
z
" id="DejaVuSans-115"/>
       </defs>
       <use xlink:href="#DejaVuSans-97"/>
       <use x="61.279297" xlink:href="#DejaVuSans-102"/>
       <use x="96.484375" xlink:href="#DejaVuSans-108"/>
       <use x="124.267578" xlink:href="#DejaVuSans-112"/>
       <use x="187.744141" xlink:href="#DejaVuSans-108"/>
       <use x="215.527344" xlink:href="#DejaVuSans-117"/>
       <use x="278.90625" xlink:href="#DejaVuSans-115"/>
       <use x="331.005859" xlink:href="#DejaVuSans-112"/>
       <use x="394.482422" xlink:href="#DejaVuSans-108"/>
       <use x="422.265625" xlink:href="#DejaVuSans-117"/>
       <use x="485.644531" xlink:href="#DejaVuSans-115"/>
      </g>
     </g>
    </g>
    <g id="xtick_3">
     <g id="line2d_3">
      <g>
       <use style="stroke:#000000;stroke-width:0.8;" x="282.890625" xlink:href="#meaa0ef6aa7" y="288.430125"/>
      </g>
     </g>
     <g id="text_3">
      <!-- weizz_qemu -->
      <g transform="translate(228.723143 332.603534)rotate(-30)scale(0.1 -0.1)">
       <defs>
        <path d="M 4.203125 54.6875 
L 13.1875 54.6875 
L 24.421875 12.015625 
L 35.59375 54.6875 
L 46.1875 54.6875 
L 57.421875 12.015625 
L 68.609375 54.6875 
L 77.59375 54.6875 
L 63.28125 0 
L 52.6875 0 
L 40.921875 44.828125 
L 29.109375 0 
L 18.5 0 
z
" id="DejaVuSans-119"/>
        <path d="M 5.515625 54.6875 
L 48.1875 54.6875 
L 48.1875 46.484375 
L 14.40625 7.171875 
L 48.1875 7.171875 
L 48.1875 0 
L 4.296875 0 
L 4.296875 8.203125 
L 38.09375 47.515625 
L 5.515625 47.515625 
z
" id="DejaVuSans-122"/>
        <path d="M 50.984375 -16.609375 
L 50.984375 -23.578125 
L -0.984375 -23.578125 
L -0.984375 -16.609375 
z
" id="DejaVuSans-95"/>
        <path d="M 14.796875 27.296875 
Q 14.796875 17.390625 18.875 11.75 
Q 22.953125 6.109375 30.078125 6.109375 
Q 37.203125 6.109375 41.296875 11.75 
Q 45.40625 17.390625 45.40625 27.296875 
Q 45.40625 37.203125 41.296875 42.84375 
Q 37.203125 48.484375 30.078125 48.484375 
Q 22.953125 48.484375 18.875 42.84375 
Q 14.796875 37.203125 14.796875 27.296875 
z
M 45.40625 8.203125 
Q 42.578125 3.328125 38.25 0.953125 
Q 33.9375 -1.421875 27.875 -1.421875 
Q 17.96875 -1.421875 11.734375 6.484375 
Q 5.515625 14.40625 5.515625 27.296875 
Q 5.515625 40.1875 11.734375 48.09375 
Q 17.96875 56 27.875 56 
Q 33.9375 56 38.25 53.625 
Q 42.578125 51.265625 45.40625 46.390625 
L 45.40625 54.6875 
L 54.390625 54.6875 
L 54.390625 -20.796875 
L 45.40625 -20.796875 
z
" id="DejaVuSans-113"/>
        <path d="M 52 44.1875 
Q 55.375 50.25 60.0625 53.125 
Q 64.75 56 71.09375 56 
Q 79.640625 56 84.28125 50.015625 
Q 88.921875 44.046875 88.921875 33.015625 
L 88.921875 0 
L 79.890625 0 
L 79.890625 32.71875 
Q 79.890625 40.578125 77.09375 44.375 
Q 74.3125 48.1875 68.609375 48.1875 
Q 61.625 48.1875 57.5625 43.546875 
Q 53.515625 38.921875 53.515625 30.90625 
L 53.515625 0 
L 44.484375 0 
L 44.484375 32.71875 
Q 44.484375 40.625 41.703125 44.40625 
Q 38.921875 48.1875 33.109375 48.1875 
Q 26.21875 48.1875 22.15625 43.53125 
Q 18.109375 38.875 18.109375 30.90625 
L 18.109375 0 
L 9.078125 0 
L 9.078125 54.6875 
L 18.109375 54.6875 
L 18.109375 46.1875 
Q 21.1875 51.21875 25.484375 53.609375 
Q 29.78125 56 35.6875 56 
Q 41.65625 56 45.828125 52.96875 
Q 50 49.953125 52 44.1875 
z
" id="DejaVuSans-109"/>
       </defs>
       <use xlink:href="#DejaVuSans-119"/>
       <use x="81.787109" xlink:href="#DejaVuSans-101"/>
       <use x="143.310547" xlink:href="#DejaVuSans-105"/>
       <use x="171.09375" xlink:href="#DejaVuSans-122"/>
       <use x="223.583984" xlink:href="#DejaVuSans-122"/>
       <use x="276.074219" xlink:href="#DejaVuSans-95"/>
       <use x="326.074219" xlink:href="#DejaVuSans-113"/>
       <use x="389.550781" xlink:href="#DejaVuSans-101"/>
       <use x="451.074219" xlink:href="#DejaVuSans-109"/>
       <use x="548.486328" xlink:href="#DejaVuSans-117"/>
      </g>
     </g>
    </g>
    <g id="xtick_4">
     <g id="line2d_4">
      <g>
       <use style="stroke:#000000;stroke-width:0.8;" x="372.170625" xlink:href="#meaa0ef6aa7" y="288.430125"/>
      </g>
     </g>
     <g id="text_4">
      <!-- honggfuzz -->
      <g transform="translate(326.231424 327.933221)rotate(-30)scale(0.1 -0.1)">
       <defs>
        <path d="M 54.890625 33.015625 
L 54.890625 0 
L 45.90625 0 
L 45.90625 32.71875 
Q 45.90625 40.484375 42.875 44.328125 
Q 39.84375 48.1875 33.796875 48.1875 
Q 26.515625 48.1875 22.3125 43.546875 
Q 18.109375 38.921875 18.109375 30.90625 
L 18.109375 0 
L 9.078125 0 
L 9.078125 75.984375 
L 18.109375 75.984375 
L 18.109375 46.1875 
Q 21.34375 51.125 25.703125 53.5625 
Q 30.078125 56 35.796875 56 
Q 45.21875 56 50.046875 50.171875 
Q 54.890625 44.34375 54.890625 33.015625 
z
" id="DejaVuSans-104"/>
        <path d="M 45.40625 27.984375 
Q 45.40625 37.75 41.375 43.109375 
Q 37.359375 48.484375 30.078125 48.484375 
Q 22.859375 48.484375 18.828125 43.109375 
Q 14.796875 37.75 14.796875 27.984375 
Q 14.796875 18.265625 18.828125 12.890625 
Q 22.859375 7.515625 30.078125 7.515625 
Q 37.359375 7.515625 41.375 12.890625 
Q 45.40625 18.265625 45.40625 27.984375 
z
M 54.390625 6.78125 
Q 54.390625 -7.171875 48.1875 -13.984375 
Q 42 -20.796875 29.203125 -20.796875 
Q 24.46875 -20.796875 20.265625 -20.09375 
Q 16.0625 -19.390625 12.109375 -17.921875 
L 12.109375 -9.1875 
Q 16.0625 -11.328125 19.921875 -12.34375 
Q 23.78125 -13.375 27.78125 -13.375 
Q 36.625 -13.375 41.015625 -8.765625 
Q 45.40625 -4.15625 45.40625 5.171875 
L 45.40625 9.625 
Q 42.625 4.78125 38.28125 2.390625 
Q 33.9375 0 27.875 0 
Q 17.828125 0 11.671875 7.65625 
Q 5.515625 15.328125 5.515625 27.984375 
Q 5.515625 40.671875 11.671875 48.328125 
Q 17.828125 56 27.875 56 
Q 33.9375 56 38.28125 53.609375 
Q 42.625 51.21875 45.40625 46.390625 
L 45.40625 54.6875 
L 54.390625 54.6875 
z
" id="DejaVuSans-103"/>
       </defs>
       <use xlink:href="#DejaVuSans-104"/>
       <use x="63.378906" xlink:href="#DejaVuSans-111"/>
       <use x="124.560547" xlink:href="#DejaVuSans-110"/>
       <use x="187.939453" xlink:href="#DejaVuSans-103"/>
       <use x="251.416016" xlink:href="#DejaVuSans-103"/>
       <use x="314.892578" xlink:href="#DejaVuSans-102"/>
       <use x="350.097656" xlink:href="#DejaVuSans-117"/>
       <use x="413.476562" xlink:href="#DejaVuSans-122"/>
       <use x="465.966797" xlink:href="#DejaVuSans-122"/>
      </g>
     </g>
    </g>
    <g id="text_5">
     <!-- Fuzzer (highest median coverage on the left) -->
     <g transform="translate(125.632656 346.243897)scale(0.1 -0.1)">
      <defs>
       <path d="M 9.8125 72.90625 
L 51.703125 72.90625 
L 51.703125 64.59375 
L 19.671875 64.59375 
L 19.671875 43.109375 
L 48.578125 43.109375 
L 48.578125 34.8125 
L 19.671875 34.8125 
L 19.671875 0 
L 9.8125 0 
z
" id="DejaVuSans-70"/>
       <path id="DejaVuSans-32"/>
       <path d="M 31 75.875 
Q 24.46875 64.65625 21.28125 53.65625 
Q 18.109375 42.671875 18.109375 31.390625 
Q 18.109375 20.125 21.3125 9.0625 
Q 24.515625 -2 31 -13.1875 
L 23.1875 -13.1875 
Q 15.875 -1.703125 12.234375 9.375 
Q 8.59375 20.453125 8.59375 31.390625 
Q 8.59375 42.28125 12.203125 53.3125 
Q 15.828125 64.359375 23.1875 75.875 
z
" id="DejaVuSans-40"/>
       <path d="M 18.3125 70.21875 
L 18.3125 54.6875 
L 36.8125 54.6875 
L 36.8125 47.703125 
L 18.3125 47.703125 
L 18.3125 18.015625 
Q 18.3125 11.328125 20.140625 9.421875 
Q 21.96875 7.515625 27.59375 7.515625 
L 36.8125 7.515625 
L 36.8125 0 
L 27.59375 0 
Q 17.1875 0 13.234375 3.875 
Q 9.28125 7.765625 9.28125 18.015625 
L 9.28125 47.703125 
L 2.6875 47.703125 
L 2.6875 54.6875 
L 9.28125 54.6875 
L 9.28125 70.21875 
z
" id="DejaVuSans-116"/>
       <path d="M 45.40625 46.390625 
L 45.40625 75.984375 
L 54.390625 75.984375 
L 54.390625 0 
L 45.40625 0 
L 45.40625 8.203125 
Q 42.578125 3.328125 38.25 0.953125 
Q 33.9375 -1.421875 27.875 -1.421875 
Q 17.96875 -1.421875 11.734375 6.484375 
Q 5.515625 14.40625 5.515625 27.296875 
Q 5.515625 40.1875 11.734375 48.09375 
Q 17.96875 56 27.875 56 
Q 33.9375 56 38.25 53.625 
Q 42.578125 51.265625 45.40625 46.390625 
z
M 14.796875 27.296875 
Q 14.796875 17.390625 18.875 11.75 
Q 22.953125 6.109375 30.078125 6.109375 
Q 37.203125 6.109375 41.296875 11.75 
Q 45.40625 17.390625 45.40625 27.296875 
Q 45.40625 37.203125 41.296875 42.84375 
Q 37.203125 48.484375 30.078125 48.484375 
Q 22.953125 48.484375 18.875 42.84375 
Q 14.796875 37.203125 14.796875 27.296875 
z
" id="DejaVuSans-100"/>
       <path d="M 48.78125 52.59375 
L 48.78125 44.1875 
Q 44.96875 46.296875 41.140625 47.34375 
Q 37.3125 48.390625 33.40625 48.390625 
Q 24.65625 48.390625 19.8125 42.84375 
Q 14.984375 37.3125 14.984375 27.296875 
Q 14.984375 17.28125 19.8125 11.734375 
Q 24.65625 6.203125 33.40625 6.203125 
Q 37.3125 6.203125 41.140625 7.25 
Q 44.96875 8.296875 48.78125 10.40625 
L 48.78125 2.09375 
Q 45.015625 0.34375 40.984375 -0.53125 
Q 36.96875 -1.421875 32.421875 -1.421875 
Q 20.0625 -1.421875 12.78125 6.34375 
Q 5.515625 14.109375 5.515625 27.296875 
Q 5.515625 40.671875 12.859375 48.328125 
Q 20.21875 56 33.015625 56 
Q 37.15625 56 41.109375 55.140625 
Q 45.0625 54.296875 48.78125 52.59375 
z
" id="DejaVuSans-99"/>
       <path d="M 2.984375 54.6875 
L 12.5 54.6875 
L 29.59375 8.796875 
L 46.6875 54.6875 
L 56.203125 54.6875 
L 35.6875 0 
L 23.484375 0 
z
" id="DejaVuSans-118"/>
       <path d="M 8.015625 75.875 
L 15.828125 75.875 
Q 23.140625 64.359375 26.78125 53.3125 
Q 30.421875 42.28125 30.421875 31.390625 
Q 30.421875 20.453125 26.78125 9.375 
Q 23.140625 -1.703125 15.828125 -13.1875 
L 8.015625 -13.1875 
Q 14.5 -2 17.703125 9.0625 
Q 20.90625 20.125 20.90625 31.390625 
Q 20.90625 42.671875 17.703125 53.65625 
Q 14.5 64.65625 8.015625 75.875 
z
" id="DejaVuSans-41"/>
      </defs>
      <use xlink:href="#DejaVuSans-70"/>
      <use x="52.019531" xlink:href="#DejaVuSans-117"/>
      <use x="115.398438" xlink:href="#DejaVuSans-122"/>
      <use x="167.888672" xlink:href="#DejaVuSans-122"/>
      <use x="220.378906" xlink:href="#DejaVuSans-101"/>
      <use x="281.902344" xlink:href="#DejaVuSans-114"/>
      <use x="323.015625" xlink:href="#DejaVuSans-32"/>
      <use x="354.802734" xlink:href="#DejaVuSans-40"/>
      <use x="393.816406" xlink:href="#DejaVuSans-104"/>
      <use x="457.195312" xlink:href="#DejaVuSans-105"/>
      <use x="484.978516" xlink:href="#DejaVuSans-103"/>
      <use x="548.455078" xlink:href="#DejaVuSans-104"/>
      <use x="611.833984" xlink:href="#DejaVuSans-101"/>
      <use x="673.357422" xlink:href="#DejaVuSans-115"/>
      <use x="725.457031" xlink:href="#DejaVuSans-116"/>
      <use x="764.666016" xlink:href="#DejaVuSans-32"/>
      <use x="796.453125" xlink:href="#DejaVuSans-109"/>
      <use x="893.865234" xlink:href="#DejaVuSans-101"/>
      <use x="955.388672" xlink:href="#DejaVuSans-100"/>
      <use x="1018.865234" xlink:href="#DejaVuSans-105"/>
      <use x="1046.648438" xlink:href="#DejaVuSans-97"/>
      <use x="1107.927734" xlink:href="#DejaVuSans-110"/>
      <use x="1171.306641" xlink:href="#DejaVuSans-32"/>
      <use x="1203.09375" xlink:href="#DejaVuSans-99"/>
      <use x="1258.074219" xlink:href="#DejaVuSans-111"/>
      <use x="1319.255859" xlink:href="#DejaVuSans-118"/>
      <use x="1378.435547" xlink:href="#DejaVuSans-101"/>
      <use x="1439.958984" xlink:href="#DejaVuSans-114"/>
      <use x="1481.072266" xlink:href="#DejaVuSans-97"/>
      <use x="1542.351562" xlink:href="#DejaVuSans-103"/>
      <use x="1605.828125" xlink:href="#DejaVuSans-101"/>
      <use x="1667.351562" xlink:href="#DejaVuSans-32"/>
      <use x="1699.138672" xlink:href="#DejaVuSans-111"/>
      <use x="1760.320312" xlink:href="#DejaVuSans-110"/>
      <use x="1823.699219" xlink:href="#DejaVuSans-32"/>
      <use x="1855.486328" xlink:href="#DejaVuSans-116"/>
      <use x="1894.695312" xlink:href="#DejaVuSans-104"/>
      <use x="1958.074219" xlink:href="#DejaVuSans-101"/>
      <use x="2019.597656" xlink:href="#DejaVuSans-32"/>
      <use x="2051.384766" xlink:href="#DejaVuSans-108"/>
      <use x="2079.167969" xlink:href="#DejaVuSans-101"/>
      <use x="2140.691406" xlink:href="#DejaVuSans-102"/>
      <use x="2174.146484" xlink:href="#DejaVuSans-116"/>
      <use x="2213.355469" xlink:href="#DejaVuSans-41"/>
     </g>
    </g>
   </g>
   <g id="matplotlib.axis_2">
    <g id="ytick_1">
     <g id="line2d_5">
      <defs>
       <path d="M 0 0 
L -3.5 0 
" id="m9be3561d93" style="stroke:#000000;stroke-width:0.8;"/>
      </defs>
      <g>
       <use style="stroke:#000000;stroke-width:0.8;" x="59.690625" xlink:href="#m9be3561d93" y="279.090159"/>
      </g>
     </g>
     <g id="text_6">
      <!-- 18000 -->
      <g transform="translate(20.878125 282.889378)scale(0.1 -0.1)">
       <defs>
        <path d="M 12.40625 8.296875 
L 28.515625 8.296875 
L 28.515625 63.921875 
L 10.984375 60.40625 
L 10.984375 69.390625 
L 28.421875 72.90625 
L 38.28125 72.90625 
L 38.28125 8.296875 
L 54.390625 8.296875 
L 54.390625 0 
L 12.40625 0 
z
" id="DejaVuSans-49"/>
        <path d="M 31.78125 34.625 
Q 24.75 34.625 20.71875 30.859375 
Q 16.703125 27.09375 16.703125 20.515625 
Q 16.703125 13.921875 20.71875 10.15625 
Q 24.75 6.390625 31.78125 6.390625 
Q 38.8125 6.390625 42.859375 10.171875 
Q 46.921875 13.96875 46.921875 20.515625 
Q 46.921875 27.09375 42.890625 30.859375 
Q 38.875 34.625 31.78125 34.625 
z
M 21.921875 38.8125 
Q 15.578125 40.375 12.03125 44.71875 
Q 8.5 49.078125 8.5 55.328125 
Q 8.5 64.0625 14.71875 69.140625 
Q 20.953125 74.21875 31.78125 74.21875 
Q 42.671875 74.21875 48.875 69.140625 
Q 55.078125 64.0625 55.078125 55.328125 
Q 55.078125 49.078125 51.53125 44.71875 
Q 48 40.375 41.703125 38.8125 
Q 48.828125 37.15625 52.796875 32.3125 
Q 56.78125 27.484375 56.78125 20.515625 
Q 56.78125 9.90625 50.3125 4.234375 
Q 43.84375 -1.421875 31.78125 -1.421875 
Q 19.734375 -1.421875 13.25 4.234375 
Q 6.78125 9.90625 6.78125 20.515625 
Q 6.78125 27.484375 10.78125 32.3125 
Q 14.796875 37.15625 21.921875 38.8125 
z
M 18.3125 54.390625 
Q 18.3125 48.734375 21.84375 45.5625 
Q 25.390625 42.390625 31.78125 42.390625 
Q 38.140625 42.390625 41.71875 45.5625 
Q 45.3125 48.734375 45.3125 54.390625 
Q 45.3125 60.0625 41.71875 63.234375 
Q 38.140625 66.40625 31.78125 66.40625 
Q 25.390625 66.40625 21.84375 63.234375 
Q 18.3125 60.0625 18.3125 54.390625 
z
" id="DejaVuSans-56"/>
        <path d="M 31.78125 66.40625 
Q 24.171875 66.40625 20.328125 58.90625 
Q 16.5 51.421875 16.5 36.375 
Q 16.5 21.390625 20.328125 13.890625 
Q 24.171875 6.390625 31.78125 6.390625 
Q 39.453125 6.390625 43.28125 13.890625 
Q 47.125 21.390625 47.125 36.375 
Q 47.125 51.421875 43.28125 58.90625 
Q 39.453125 66.40625 31.78125 66.40625 
z
M 31.78125 74.21875 
Q 44.046875 74.21875 50.515625 64.515625 
Q 56.984375 54.828125 56.984375 36.375 
Q 56.984375 17.96875 50.515625 8.265625 
Q 44.046875 -1.421875 31.78125 -1.421875 
Q 19.53125 -1.421875 13.0625 8.265625 
Q 6.59375 17.96875 6.59375 36.375 
Q 6.59375 54.828125 13.0625 64.515625 
Q 19.53125 74.21875 31.78125 74.21875 
z
" id="DejaVuSans-48"/>
       </defs>
       <use xlink:href="#DejaVuSans-49"/>
       <use x="63.623047" xlink:href="#DejaVuSans-56"/>
       <use x="127.246094" xlink:href="#DejaVuSans-48"/>
       <use x="190.869141" xlink:href="#DejaVuSans-48"/>
       <use x="254.492188" xlink:href="#DejaVuSans-48"/>
      </g>
     </g>
    </g>
    <g id="ytick_2">
     <g id="line2d_6">
      <g>
       <use style="stroke:#000000;stroke-width:0.8;" x="59.690625" xlink:href="#m9be3561d93" y="242.128054"/>
      </g>
     </g>
     <g id="text_7">
      <!-- 20000 -->
      <g transform="translate(20.878125 245.927273)scale(0.1 -0.1)">
       <defs>
        <path d="M 19.1875 8.296875 
L 53.609375 8.296875 
L 53.609375 0 
L 7.328125 0 
L 7.328125 8.296875 
Q 12.9375 14.109375 22.625 23.890625 
Q 32.328125 33.6875 34.8125 36.53125 
Q 39.546875 41.84375 41.421875 45.53125 
Q 43.3125 49.21875 43.3125 52.78125 
Q 43.3125 58.59375 39.234375 62.25 
Q 35.15625 65.921875 28.609375 65.921875 
Q 23.96875 65.921875 18.8125 64.3125 
Q 13.671875 62.703125 7.8125 59.421875 
L 7.8125 69.390625 
Q 13.765625 71.78125 18.9375 73 
Q 24.125 74.21875 28.421875 74.21875 
Q 39.75 74.21875 46.484375 68.546875 
Q 53.21875 62.890625 53.21875 53.421875 
Q 53.21875 48.921875 51.53125 44.890625 
Q 49.859375 40.875 45.40625 35.40625 
Q 44.1875 33.984375 37.640625 27.21875 
Q 31.109375 20.453125 19.1875 8.296875 
z
" id="DejaVuSans-50"/>
       </defs>
       <use xlink:href="#DejaVuSans-50"/>
       <use x="63.623047" xlink:href="#DejaVuSans-48"/>
       <use x="127.246094" xlink:href="#DejaVuSans-48"/>
       <use x="190.869141" xlink:href="#DejaVuSans-48"/>
       <use x="254.492188" xlink:href="#DejaVuSans-48"/>
      </g>
     </g>
    </g>
    <g id="ytick_3">
     <g id="line2d_7">
      <g>
       <use style="stroke:#000000;stroke-width:0.8;" x="59.690625" xlink:href="#m9be3561d93" y="205.165949"/>
      </g>
     </g>
     <g id="text_8">
      <!-- 22000 -->
      <g transform="translate(20.878125 208.965167)scale(0.1 -0.1)">
       <use xlink:href="#DejaVuSans-50"/>
       <use x="63.623047" xlink:href="#DejaVuSans-50"/>
       <use x="127.246094" xlink:href="#DejaVuSans-48"/>
       <use x="190.869141" xlink:href="#DejaVuSans-48"/>
       <use x="254.492188" xlink:href="#DejaVuSans-48"/>
      </g>
     </g>
    </g>
    <g id="ytick_4">
     <g id="line2d_8">
      <g>
       <use style="stroke:#000000;stroke-width:0.8;" x="59.690625" xlink:href="#m9be3561d93" y="168.203843"/>
      </g>
     </g>
     <g id="text_9">
      <!-- 24000 -->
      <g transform="translate(20.878125 172.003062)scale(0.1 -0.1)">
       <defs>
        <path d="M 37.796875 64.3125 
L 12.890625 25.390625 
L 37.796875 25.390625 
z
M 35.203125 72.90625 
L 47.609375 72.90625 
L 47.609375 25.390625 
L 58.015625 25.390625 
L 58.015625 17.1875 
L 47.609375 17.1875 
L 47.609375 0 
L 37.796875 0 
L 37.796875 17.1875 
L 4.890625 17.1875 
L 4.890625 26.703125 
z
" id="DejaVuSans-52"/>
       </defs>
       <use xlink:href="#DejaVuSans-50"/>
       <use x="63.623047" xlink:href="#DejaVuSans-52"/>
       <use x="127.246094" xlink:href="#DejaVuSans-48"/>
       <use x="190.869141" xlink:href="#DejaVuSans-48"/>
       <use x="254.492188" xlink:href="#DejaVuSans-48"/>
      </g>
     </g>
    </g>
    <g id="ytick_5">
     <g id="line2d_9">
      <g>
       <use style="stroke:#000000;stroke-width:0.8;" x="59.690625" xlink:href="#m9be3561d93" y="131.241738"/>
      </g>
     </g>
     <g id="text_10">
      <!-- 26000 -->
      <g transform="translate(20.878125 135.040957)scale(0.1 -0.1)">
       <defs>
        <path d="M 33.015625 40.375 
Q 26.375 40.375 22.484375 35.828125 
Q 18.609375 31.296875 18.609375 23.390625 
Q 18.609375 15.53125 22.484375 10.953125 
Q 26.375 6.390625 33.015625 6.390625 
Q 39.65625 6.390625 43.53125 10.953125 
Q 47.40625 15.53125 47.40625 23.390625 
Q 47.40625 31.296875 43.53125 35.828125 
Q 39.65625 40.375 33.015625 40.375 
z
M 52.59375 71.296875 
L 52.59375 62.3125 
Q 48.875 64.0625 45.09375 64.984375 
Q 41.3125 65.921875 37.59375 65.921875 
Q 27.828125 65.921875 22.671875 59.328125 
Q 17.53125 52.734375 16.796875 39.40625 
Q 19.671875 43.65625 24.015625 45.921875 
Q 28.375 48.1875 33.59375 48.1875 
Q 44.578125 48.1875 50.953125 41.515625 
Q 57.328125 34.859375 57.328125 23.390625 
Q 57.328125 12.15625 50.6875 5.359375 
Q 44.046875 -1.421875 33.015625 -1.421875 
Q 20.359375 -1.421875 13.671875 8.265625 
Q 6.984375 17.96875 6.984375 36.375 
Q 6.984375 53.65625 15.1875 63.9375 
Q 23.390625 74.21875 37.203125 74.21875 
Q 40.921875 74.21875 44.703125 73.484375 
Q 48.484375 72.75 52.59375 71.296875 
z
" id="DejaVuSans-54"/>
       </defs>
       <use xlink:href="#DejaVuSans-50"/>
       <use x="63.623047" xlink:href="#DejaVuSans-54"/>
       <use x="127.246094" xlink:href="#DejaVuSans-48"/>
       <use x="190.869141" xlink:href="#DejaVuSans-48"/>
       <use x="254.492188" xlink:href="#DejaVuSans-48"/>
      </g>
     </g>
    </g>
    <g id="ytick_6">
     <g id="line2d_10">
      <g>
       <use style="stroke:#000000;stroke-width:0.8;" x="59.690625" xlink:href="#m9be3561d93" y="94.279632"/>
      </g>
     </g>
     <g id="text_11">
      <!-- 28000 -->
      <g transform="translate(20.878125 98.078851)scale(0.1 -0.1)">
       <use xlink:href="#DejaVuSans-50"/>
       <use x="63.623047" xlink:href="#DejaVuSans-56"/>
       <use x="127.246094" xlink:href="#DejaVuSans-48"/>
       <use x="190.869141" xlink:href="#DejaVuSans-48"/>
       <use x="254.492188" xlink:href="#DejaVuSans-48"/>
      </g>
     </g>
    </g>
    <g id="ytick_7">
     <g id="line2d_11">
      <g>
       <use style="stroke:#000000;stroke-width:0.8;" x="59.690625" xlink:href="#m9be3561d93" y="57.317527"/>
      </g>
     </g>
     <g id="text_12">
      <!-- 30000 -->
      <g transform="translate(20.878125 61.116746)scale(0.1 -0.1)">
       <defs>
        <path d="M 40.578125 39.3125 
Q 47.65625 37.796875 51.625 33 
Q 55.609375 28.21875 55.609375 21.1875 
Q 55.609375 10.40625 48.1875 4.484375 
Q 40.765625 -1.421875 27.09375 -1.421875 
Q 22.515625 -1.421875 17.65625 -0.515625 
Q 12.796875 0.390625 7.625 2.203125 
L 7.625 11.71875 
Q 11.71875 9.328125 16.59375 8.109375 
Q 21.484375 6.890625 26.8125 6.890625 
Q 36.078125 6.890625 40.9375 10.546875 
Q 45.796875 14.203125 45.796875 21.1875 
Q 45.796875 27.640625 41.28125 31.265625 
Q 36.765625 34.90625 28.71875 34.90625 
L 20.21875 34.90625 
L 20.21875 43.015625 
L 29.109375 43.015625 
Q 36.375 43.015625 40.234375 45.921875 
Q 44.09375 48.828125 44.09375 54.296875 
Q 44.09375 59.90625 40.109375 62.90625 
Q 36.140625 65.921875 28.71875 65.921875 
Q 24.65625 65.921875 20.015625 65.03125 
Q 15.375 64.15625 9.8125 62.3125 
L 9.8125 71.09375 
Q 15.4375 72.65625 20.34375 73.4375 
Q 25.25 74.21875 29.59375 74.21875 
Q 40.828125 74.21875 47.359375 69.109375 
Q 53.90625 64.015625 53.90625 55.328125 
Q 53.90625 49.265625 50.4375 45.09375 
Q 46.96875 40.921875 40.578125 39.3125 
z
" id="DejaVuSans-51"/>
       </defs>
       <use xlink:href="#DejaVuSans-51"/>
       <use x="63.623047" xlink:href="#DejaVuSans-48"/>
       <use x="127.246094" xlink:href="#DejaVuSans-48"/>
       <use x="190.869141" xlink:href="#DejaVuSans-48"/>
       <use x="254.492188" xlink:href="#DejaVuSans-48"/>
      </g>
     </g>
    </g>
    <g id="text_13">
     <!-- Reached region coverage -->
     <g transform="translate(14.798438 219.136625)rotate(-90)scale(0.1 -0.1)">
      <defs>
       <path d="M 44.390625 34.1875 
Q 47.5625 33.109375 50.5625 29.59375 
Q 53.5625 26.078125 56.59375 19.921875 
L 66.609375 0 
L 56 0 
L 46.6875 18.703125 
Q 43.0625 26.03125 39.671875 28.421875 
Q 36.28125 30.8125 30.421875 30.8125 
L 19.671875 30.8125 
L 19.671875 0 
L 9.8125 0 
L 9.8125 72.90625 
L 32.078125 72.90625 
Q 44.578125 72.90625 50.734375 67.671875 
Q 56.890625 62.453125 56.890625 51.90625 
Q 56.890625 45.015625 53.6875 40.46875 
Q 50.484375 35.9375 44.390625 34.1875 
z
M 19.671875 64.796875 
L 19.671875 38.921875 
L 32.078125 38.921875 
Q 39.203125 38.921875 42.84375 42.21875 
Q 46.484375 45.515625 46.484375 51.90625 
Q 46.484375 58.296875 42.84375 61.546875 
Q 39.203125 64.796875 32.078125 64.796875 
z
" id="DejaVuSans-82"/>
      </defs>
      <use xlink:href="#DejaVuSans-82"/>
      <use x="64.982422" xlink:href="#DejaVuSans-101"/>
      <use x="126.505859" xlink:href="#DejaVuSans-97"/>
      <use x="187.785156" xlink:href="#DejaVuSans-99"/>
      <use x="242.765625" xlink:href="#DejaVuSans-104"/>
      <use x="306.144531" xlink:href="#DejaVuSans-101"/>
      <use x="367.667969" xlink:href="#DejaVuSans-100"/>
      <use x="431.144531" xlink:href="#DejaVuSans-32"/>
      <use x="462.931641" xlink:href="#DejaVuSans-114"/>
      <use x="501.794922" xlink:href="#DejaVuSans-101"/>
      <use x="563.318359" xlink:href="#DejaVuSans-103"/>
      <use x="626.794922" xlink:href="#DejaVuSans-105"/>
      <use x="654.578125" xlink:href="#DejaVuSans-111"/>
      <use x="715.759766" xlink:href="#DejaVuSans-110"/>
      <use x="779.138672" xlink:href="#DejaVuSans-32"/>
      <use x="810.925781" xlink:href="#DejaVuSans-99"/>
      <use x="865.90625" xlink:href="#DejaVuSans-111"/>
      <use x="927.087891" xlink:href="#DejaVuSans-118"/>
      <use x="986.267578" xlink:href="#DejaVuSans-101"/>
      <use x="1047.791016" xlink:href="#DejaVuSans-114"/>
      <use x="1088.904297" xlink:href="#DejaVuSans-97"/>
      <use x="1150.183594" xlink:href="#DejaVuSans-103"/>
      <use x="1213.660156" xlink:href="#DejaVuSans-101"/>
     </g>
    </g>
   </g>
   <g id="line2d_12">
    <path clip-path="url(#p45d079d70a)" d="M 104.330625 94.298114 
L 104.330625 58.685125 
" style="fill:none;stroke:#3f3f3f;stroke-linecap:square;stroke-width:1.5;"/>
   </g>
   <g id="line2d_13">
    <path clip-path="url(#p45d079d70a)" d="M 104.330625 92.006463 
L 104.330625 61.882347 
" style="fill:none;stroke:#3f3f3f;stroke-linecap:square;stroke-width:4.5;"/>
   </g>
   <g id="line2d_14">
    <path clip-path="url(#p45d079d70a)" d="M 193.610625 223.074089 
L 193.610625 135.436937 
" style="fill:none;stroke:#3f3f3f;stroke-linecap:square;stroke-width:1.5;"/>
   </g>
   <g id="line2d_15">
    <path clip-path="url(#p45d079d70a)" d="M 193.610625 213.057358 
L 193.610625 158.371923 
" style="fill:none;stroke:#3f3f3f;stroke-linecap:square;stroke-width:4.5;"/>
   </g>
   <g id="line2d_16">
    <path clip-path="url(#p45d079d70a)" d="M 282.890625 196.40593 
L 282.890625 182.951723 
" style="fill:none;stroke:#3f3f3f;stroke-linecap:square;stroke-width:1.5;"/>
   </g>
   <g id="line2d_17">
    <path clip-path="url(#p45d079d70a)" d="M 282.890625 196.40593 
L 282.890625 186.204389 
" style="fill:none;stroke:#3f3f3f;stroke-linecap:square;stroke-width:4.5;"/>
   </g>
   <g id="line2d_18">
    <path clip-path="url(#p45d079d70a)" d="M 372.170625 257.116188 
L 372.170625 244.807807 
" style="fill:none;stroke:#3f3f3f;stroke-linecap:square;stroke-width:1.5;"/>
   </g>
   <g id="line2d_19">
    <path clip-path="url(#p45d079d70a)" d="M 372.170625 253.549345 
L 372.170625 244.807807 
" style="fill:none;stroke:#3f3f3f;stroke-linecap:square;stroke-width:4.5;"/>
   </g>
   <g id="patch_3">
    <path d="M 59.690625 279.090159 
L 59.690625 57.317527 
" style="fill:none;stroke:#000000;stroke-linecap:square;stroke-linejoin:miter;stroke-width:0.8;"/>
   </g>
   <g id="patch_4">
    <path d="M 104.330625 288.430125 
L 372.170625 288.430125 
" style="fill:none;stroke:#000000;stroke-linecap:square;stroke-linejoin:miter;stroke-width:0.8;"/>
   </g>
   <g id="PathCollection_1">
    <defs>
     <path d="M 0 1.5 
C 0.397805 1.5 0.77937 1.341951 1.06066 1.06066 
C 1.341951 0.77937 1.5 0.397805 1.5 0 
C 1.5 -0.397805 1.341951 -0.77937 1.06066 -1.06066 
C 0.77937 -1.341951 0.397805 -1.5 0 -1.5 
C -0.397805 -1.5 -0.77937 -1.341951 -1.06066 -1.06066 
C -1.341951 -0.77937 -1.5 -0.397805 -1.5 0 
C -1.5 0.397805 -1.341951 0.77937 -1.06066 1.06066 
C -0.77937 1.341951 -0.397805 1.5 0 1.5 
z
" id="md1dafcade3" style="stroke:#3f3f3f;"/>
    </defs>
    <g clip-path="url(#p45d079d70a)">
     <use style="fill:#ffffff;stroke:#3f3f3f;" x="104.330625" xlink:href="#md1dafcade3" y="83.17252"/>
    </g>
   </g>
   <g id="PathCollection_2">
    <g clip-path="url(#p45d079d70a)">
     <use style="fill:#ffffff;stroke:#3f3f3f;" x="193.610625" xlink:href="#md1dafcade3" y="187.830721"/>
    </g>
   </g>
   <g id="PathCollection_3">
    <g clip-path="url(#p45d079d70a)">
     <use style="fill:#ffffff;stroke:#3f3f3f;" x="282.890625" xlink:href="#md1dafcade3" y="194.890483"/>
    </g>
   </g>
   <g id="PathCollection_4">
    <g clip-path="url(#p45d079d70a)">
     <use style="fill:#ffffff;stroke:#3f3f3f;" x="372.170625" xlink:href="#md1dafcade3" y="249.243259"/>
    </g>
   </g>
   <g id="text_14">
    <!-- sqlite3_ossfuzz (6h, 5 trials/fuzzer) -->
    <g transform="translate(133.890938 16.318125)scale(0.12 -0.12)">
     <defs>
      <path d="M 11.71875 12.40625 
L 22.015625 12.40625 
L 22.015625 4 
L 14.015625 -11.625 
L 7.71875 -11.625 
L 11.71875 4 
z
" id="DejaVuSans-44"/>
      <path d="M 10.796875 72.90625 
L 49.515625 72.90625 
L 49.515625 64.59375 
L 19.828125 64.59375 
L 19.828125 46.734375 
Q 21.96875 47.46875 24.109375 47.828125 
Q 26.265625 48.1875 28.421875 48.1875 
Q 40.625 48.1875 47.75 41.5 
Q 54.890625 34.8125 54.890625 23.390625 
Q 54.890625 11.625 47.5625 5.09375 
Q 40.234375 -1.421875 26.90625 -1.421875 
Q 22.3125 -1.421875 17.546875 -0.640625 
Q 12.796875 0.140625 7.71875 1.703125 
L 7.71875 11.625 
Q 12.109375 9.234375 16.796875 8.0625 
Q 21.484375 6.890625 26.703125 6.890625 
Q 35.15625 6.890625 40.078125 11.328125 
Q 45.015625 15.765625 45.015625 23.390625 
Q 45.015625 31 40.078125 35.4375 
Q 35.15625 39.890625 26.703125 39.890625 
Q 22.75 39.890625 18.8125 39.015625 
Q 14.890625 38.140625 10.796875 36.28125 
z
" id="DejaVuSans-53"/>
      <path d="M 25.390625 72.90625 
L 33.6875 72.90625 
L 8.296875 -9.28125 
L 0 -9.28125 
z
" id="DejaVuSans-47"/>
     </defs>
     <use xlink:href="#DejaVuSans-115"/>
     <use x="52.099609" xlink:href="#DejaVuSans-113"/>
     <use x="115.576172" xlink:href="#DejaVuSans-108"/>
     <use x="143.359375" xlink:href="#DejaVuSans-105"/>
     <use x="171.142578" xlink:href="#DejaVuSans-116"/>
     <use x="210.351562" xlink:href="#DejaVuSans-101"/>
     <use x="271.875" xlink:href="#DejaVuSans-51"/>
     <use x="335.498047" xlink:href="#DejaVuSans-95"/>
     <use x="385.498047" xlink:href="#DejaVuSans-111"/>
     <use x="446.679688" xlink:href="#DejaVuSans-115"/>
     <use x="498.779297" xlink:href="#DejaVuSans-115"/>
     <use x="550.878906" xlink:href="#DejaVuSans-102"/>
     <use x="586.083984" xlink:href="#DejaVuSans-117"/>
     <use x="649.462891" xlink:href="#DejaVuSans-122"/>
     <use x="701.953125" xlink:href="#DejaVuSans-122"/>
     <use x="754.443359" xlink:href="#DejaVuSans-32"/>
     <use x="786.230469" xlink:href="#DejaVuSans-40"/>
     <use x="825.244141" xlink:href="#DejaVuSans-54"/>
     <use x="888.867188" xlink:href="#DejaVuSans-104"/>
     <use x="952.246094" xlink:href="#DejaVuSans-44"/>
     <use x="984.033203" xlink:href="#DejaVuSans-32"/>
     <use x="1015.820312" xlink:href="#DejaVuSans-53"/>
     <use x="1079.443359" xlink:href="#DejaVuSans-32"/>
     <use x="1111.230469" xlink:href="#DejaVuSans-116"/>
     <use x="1150.439453" xlink:href="#DejaVuSans-114"/>
     <use x="1191.552734" xlink:href="#DejaVuSans-105"/>
     <use x="1219.335938" xlink:href="#DejaVuSans-97"/>
     <use x="1280.615234" xlink:href="#DejaVuSans-108"/>
     <use x="1308.398438" xlink:href="#DejaVuSans-115"/>
     <use x="1360.498047" xlink:href="#DejaVuSans-47"/>
     <use x="1394.189453" xlink:href="#DejaVuSans-102"/>
     <use x="1429.394531" xlink:href="#DejaVuSans-117"/>
     <use x="1492.773438" xlink:href="#DejaVuSans-122"/>
     <use x="1545.263672" xlink:href="#DejaVuSans-122"/>
     <use x="1597.753906" xlink:href="#DejaVuSans-101"/>
     <use x="1659.277344" xlink:href="#DejaVuSans-114"/>
     <use x="1700.390625" xlink:href="#DejaVuSans-41"/>
    </g>
   </g>
  </g>
 </g>
 <defs>
  <clipPath id="p45d079d70a">
   <rect height="266.112" width="357.12" x="59.690625" y="22.318125"/>
  </clipPath>
 </defs>
</svg>
